$MeshFormat
4.1 0 8
$EndMeshFormat
$PhysicalNames
10
1 102 "bord_bas"
1 103 "bord_droite"
1 104 "bord_haut"
1 105 "bord_gauche"
1 106 "bord_basSC"
1 107 "bord_droiteSC"
1 108 "bord_hautSC"
1 109 "bord_gaucheSC"
1 110 "gamma"
2 101 "Elements"
$EndPhysicalNames
$Entities
4 4 1 0
1 0 0 0 0 
2 1 0 0 0 
3 0 1 0 0 
4 1 1 0 0 
3 0 0 0 1 0 0 3 102 106 110 2 1 -2 
4 0 1 0 1 1 0 3 104 108 110 2 3 -4 
5 0 0 0 0 1 0 3 105 109 110 2 1 -3 
6 1 0 0 1 1 0 3 103 107 110 2 2 -4 
7 0 0 0 1 1 0 1 101 4 3 6 -4 -5 
$EndEntities
$Nodes
9 143 1 143
0 1 0 1
1
0 0 0
0 2 0 1
2
1 0 0
0 3 0 1
3
0 1 0
0 4 0 1
4
1 1 0
1 3 0 9
5
6
7
8
9
10
11
12
13
0.09999999999981467 0 0
0.1999999999995579 0 0
0.2999999999992664 0 0
0.3999999999989749 0 0
0.4999999999986943 0 0
0.5999999999989468 0 0
0.69999999999921 0 0
0.7999999999994734 0 0
0.8999999999997368 0 0
1 4 0 9
14
15
16
17
18
19
20
21
22
0.09999999999981467 1 0
0.1999999999995579 1 0
0.2999999999992664 1 0
0.3999999999989749 1 0
0.4999999999986943 1 0
0.5999999999989468 1 0
0.69999999999921 1 0
0.7999999999994734 1 0
0.8999999999997368 1 0
1 5 0 9
23
24
25
26
27
28
29
30
31
0 0.09999999999981467 0
0 0.1999999999995579 0
0 0.2999999999992664 0
0 0.3999999999989749 0
0 0.4999999999986943 0
0 0.5999999999989468 0
0 0.69999999999921 0
0 0.7999999999994734 0
0 0.8999999999997368 0
1 6 0 9
32
33
34
35
36
37
38
39
40
1 0.09999999999981467 0
1 0.1999999999995579 0
1 0.2999999999992664 0
1 0.3999999999989749 0
1 0.4999999999986943 0
1 0.5999999999989468 0
1 0.69999999999921 0
1 0.7999999999994734 0
1 0.8999999999997368 0
2 7 0 103
41
42
43
44
45
46
47
48
49
50
51
52
53
54
55
56
57
58
59
60
61
62
63
64
65
66
67
68
69
70
71
72
73
74
75
76
77
78
79
80
81
82
83
84
85
86
87
88
89
90
91
92
93
94
95
96
97
98
99
100
101
102
103
104
105
106
107
108
109
110
111
112
113
114
115
116
117
118
119
120
121
122
123
124
125
126
127
128
129
130
131
132
133
134
135
136
137
138
139
140
141
142
143
0.9059727589891989 0.5363696585961281 0
0.09360647489806591 0.5371453202746734 0
0.5500000002223373 0.08660254047865651 0
0.5499999999988205 0.9133974600567252 0
0.3499999999991207 0.9133974600569655 0
0.9111456977187434 0.3490798003270428 0
0.08885430199386257 0.3490798001927369 0
0.3499999999808575 0.08660254046704614 0
0.7468074570211316 0.9199358733750859 0
0.7491826980858188 0.08613067124048158 0
0.0887250978330142 0.7479584669657553 0
0.9112749018939089 0.7479584668550657 0
0.09056972471635019 0.1591825619587671 0
0.1554440548105852 0.9045047171458535 0
0.9094302750857983 0.1591825620729116 0
0.6498637830002305 0.08652389563454728 0
0.5999772971921724 0.173191973522552 0
0.4999962163795877 0.1732028963738486 0
0.5499955856198628 0.2598050727453152 0
0.4499986337885261 0.2598068324565674 0
0.4999990365629171 0.3464096053838487 0
0.5999991034265846 0.3464096442449168 0
0.5499999997444056 0.4330127017947832 0
0.4499998394180081 0.433012609085317 0
0.4999999730976293 0.5196152264626854 0
0.5999999949468662 0.5196152393297895 0
0.4000603233064596 0.5196500696465387 0
0.4500100493836943 0.6062235838455294 0
0.3500720833276351 0.6062593992348005 0
0.3495587791896816 0.4335052844274899 0
0.4000136887469032 0.6928282249798896 0
0.5000020185209051 0.6928214870834508 0
0.3000142952517205 0.6928285752269729 0
0.4499999999917288 0.77942286164481 0
0.2512989235404786 0.6061642658249102 0
0.5500000000440871 0.7794228615916385 0
0.6000003359476447 0.6928205157259152 0
0.6499999995500676 0.7794228612230125 0
0.700000055077819 0.6928203535315021 0
0.7481090902835883 0.7782798203616518 0
0.8142827863396211 0.6964741172109284 0
0.7499999984566571 0.6062177809929818 0
0.1857572588869336 0.6970883572167331 0
0.2507333546230901 0.7787919282679756 0
0.6499953306873913 0.2598049259426249 0
0.6999990716486313 0.3464096264880374 0
0.7499990664017767 0.2598070832361929 0
0.8025170579673783 0.3471468489293025 0
0.7504257476045693 0.4331638022940288 0
0.8507267611977392 0.2573761510520541 0
0.8508899798364684 0.4392292254599316 0
0.8001251331065971 0.5206546227494159 0
0.6998363624263505 0.1731106051498828 0
0.3999991416836735 0.173204585378323 0
0.3499996291786603 0.2598074072291624 0
0.2999997950976633 0.1732049626874351 0
0.2499999039444829 0.2598075659861102 0
0.1992455390087959 0.1703960961073845 0
0.1494829485078115 0.2569541044816093 0
0.1968848374003347 0.3471233797159862 0
0.1473444797427182 0.4386131013017777 0
0.2469303850174562 0.4357243874588714 0
0.1956618024956376 0.5218429420069114 0
0.2499999998933964 0.08660254058721754 0
0.3499999999393639 0.7794228616979642 0
0.8007118920879218 0.1698963995268081 0
0.08660254053482774 0.6500000004571923 0
0.9133974598933196 0.6500000004701811 0
0.6500000004701811 0.9133974598933194 0
0.4499992264698736 0.08660209377158357 0
0.4499999999989705 0.9133974601023107 0
0.844099867370672 0.9054387760749829 0
0.2540998851753289 0.9184537498577847 0
0.3999259862958889 0.346491983368297 0
0.5500020619141257 0.6062189723615478 0
0.2988832535044175 0.3470766680309861 0
0.6500706526377322 0.4330377094293495 0
0.6500004074663098 0.6062180172741587 0
0.7001036557031204 0.5198178621316897 0
0.3003621276937849 0.5198243165432066 0
0.9200321609002504 0.8466710753564111 0
0.07989182594289508 0.8465153989756307 0
0.8469465046677456 0.08207927286417699 0
0.1529511297074871 0.08219493533801817 0
0.8380232771321704 0.7998342902044561 0
0.1619767223443417 0.7998342901616661 0
0.8391747216398857 0.6002081080606609 0
0.1621435221654437 0.6029192936866169 0
0.6000000000192685 0.8464101606417214 0
0.5000000000904861 0.8464101608337533 0
0.3999999999980668 0.846410160872595 0
0.2999999999687308 0.8464101608997664 0
0.6999999995289842 0.8464101602147748 0
0.9342605467992647 0.2531277026887451 0
0.06578139503471042 0.253043293325976 0
0.06525626334974675 0.4499999999988346 0
0.9341610583651434 0.4474161923325934 0
0.926794919004752 0.926794919004752 0
0.07320508072309795 0.07320508075530147 0
0.07320508066682055 0.9267949195906876 0
0.9267949195906875 0.07320508066682056 0
0.7754079382673094 0.8499797840461903 0
0.2229377899261419 0.8486878811790209 0
$EndNodes
$Elements
5 284 1 284
1 3 1 10
1 1 5 
2 5 6 
3 6 7 
4 7 8 
5 8 9 
6 9 10 
7 10 11 
8 11 12 
9 12 13 
10 13 2 
1 4 1 10
11 3 14 
12 14 15 
13 15 16 
14 16 17 
15 17 18 
16 18 19 
17 19 20 
18 20 21 
19 21 22 
20 22 4 
1 5 1 10
21 1 23 
22 23 24 
23 24 25 
24 25 26 
25 26 27 
26 27 28 
27 28 29 
28 29 30 
29 30 31 
30 31 3 
1 6 1 10
31 2 32 
32 32 33 
33 33 34 
34 34 35 
35 35 36 
36 36 37 
37 37 38 
38 38 39 
39 39 40 
40 40 4 
2 7 2 244
41 81 108 52 
42 51 107 83 
43 41 92 91 
44 101 103 42 
45 90 106 55 
46 98 99 53 
47 52 125 81 
48 83 126 51 
49 91 137 41 
50 42 136 101 
51 55 134 90 
52 99 135 53 
53 88 90 46 
54 99 100 47 
55 46 91 88 
56 100 101 47 
57 81 127 108 
58 107 128 83 
59 106 123 55 
60 53 124 98 
61 81 125 80 
62 84 126 83 
63 88 91 89 
64 102 116 70 
65 41 127 92 
66 112 125 121 
67 122 126 54 
68 100 102 101 
69 103 120 75 
70 100 116 102 
71 102 120 103 
72 91 92 89 
73 70 120 102 
74 102 103 101 
75 90 134 46 
76 47 135 99 
77 82 119 92 
78 92 119 89 
79 103 128 42 
80 42 107 28 
81 10 56 43 
82 56 57 43 
83 94 96 48 
84 96 104 48 
85 7 104 6 
86 9 110 8 
87 48 104 7 
88 57 58 43 
89 50 106 93 
90 28 107 29 
91 11 56 10 
92 114 116 95 
93 43 110 9 
94 57 59 58 
95 48 110 94 
96 59 60 58 
97 8 110 48 
98 60 94 58 
99 59 61 60 
100 60 95 94 
101 95 96 94 
102 95 97 96 
103 97 98 96 
104 98 104 96 
105 97 99 98 
106 97 100 99 
107 44 109 19 
108 37 108 41 
109 10 43 9 
110 27 42 28 
111 12 50 11 
112 29 51 30 
113 23 53 24 
114 58 110 43 
115 94 110 58 
116 50 93 56 
117 25 47 26 
118 8 48 7 
119 64 114 61 
120 70 116 114 
121 61 114 60 
122 95 116 97 
123 93 106 87 
124 87 106 90 
125 70 114 64 
126 60 114 95 
127 57 85 59 
128 59 62 61 
129 19 109 20 
130 38 108 37 
131 21 112 22 
132 59 85 62 
133 67 70 64 
134 85 86 62 
135 50 56 11 
136 29 107 51 
137 56 93 57 
138 97 116 100 
139 85 87 86 
140 63 64 61 
141 87 88 86 
142 88 89 86 
143 87 90 88 
144 73 105 84 
145 71 105 73 
146 72 74 71 
147 72 76 74 
148 73 84 83 
149 74 105 71 
150 73 75 69 
151 73 83 75 
152 68 72 71 
153 71 73 69 
154 68 71 69 
155 68 69 67 
156 65 68 67 
157 85 93 87 
158 65 67 64 
159 18 44 19 
160 37 41 36 
161 39 52 38 
162 20 49 21 
163 16 45 17 
164 35 46 34 
165 14 54 15 
166 33 55 32 
167 57 93 85 
168 18 111 44 
169 45 111 17 
170 16 113 45 
171 54 113 15 
172 17 111 18 
173 15 113 16 
174 63 65 64 
175 89 117 86 
176 65 115 68 
177 68 115 72 
178 72 77 76 
179 52 108 38 
180 20 109 49 
181 49 112 21 
182 63 66 65 
183 62 63 61 
184 77 78 76 
185 63 117 66 
186 66 115 65 
187 86 117 62 
188 62 117 63 
189 77 79 78 
190 79 80 78 
191 79 81 80 
192 79 82 81 
193 72 115 77 
194 79 118 82 
195 66 118 115 
196 77 118 79 
197 115 118 77 
198 118 119 82 
199 66 119 118 
200 117 119 66 
201 89 119 117 
202 67 120 70 
203 75 120 69 
204 69 120 67 
205 126 143 54 
206 112 142 125 
207 30 122 31 
208 13 123 12 
209 50 123 106 
210 98 124 104 
211 40 121 39 
212 6 124 5 
213 46 137 91 
214 101 136 47 
215 82 127 81 
216 51 122 30 
217 12 123 50 
218 104 124 6 
219 39 121 52 
220 53 135 24 
221 25 135 47 
222 46 134 34 
223 33 134 55 
224 27 136 42 
225 47 136 26 
226 41 137 36 
227 35 137 46 
228 83 128 75 
229 22 138 4 
230 4 138 40 
231 5 139 1 
232 1 139 23 
233 2 141 13 
234 31 140 3 
235 32 141 2 
236 3 140 14 
237 42 128 107 
238 92 127 82 
239 108 127 41 
240 75 128 103 
241 121 125 52 
242 51 126 122 
243 49 142 112 
244 54 143 113 
245 44 129 109 
246 129 130 76 
247 76 130 74 
248 44 130 129 
249 74 131 105 
250 131 132 105 
251 45 132 131 
252 105 132 84 
253 111 130 44 
254 45 131 111 
255 113 132 45 
256 111 131 130 
257 130 131 74 
258 34 134 33 
259 109 133 49 
260 78 129 76 
261 129 133 109 
262 78 133 129 
263 80 133 78 
264 24 135 25 
265 36 137 35 
266 26 136 27 
267 122 140 31 
268 13 141 123 
269 124 139 5 
270 40 138 121 
271 112 138 22 
272 23 139 53 
273 14 140 54 
274 55 141 32 
275 54 140 122 
276 123 141 55 
277 121 138 112 
278 53 139 124 
279 125 142 80 
280 84 143 126 
281 133 142 49 
282 132 143 84 
283 113 143 132 
284 80 142 133 
$EndElements
