$MeshFormat
4.1 0 8
$EndMeshFormat
$PhysicalNames
3
1 1 "bord_exterieur"
1 2 "bord_trou"
2 3 "Elements"
$EndPhysicalNames
$Entities
9 8 1 0
1 0 0 0 0 
2 1 0 0 0 
3 1 1 0 0 
4 0 1 0 0 
5 0.5 0.5 0 0 
6 0.65 0.5 0 0 
7 0.5 0.65 0 0 
8 0.35 0.5 0 0 
9 0.5 0.35 0 0 
1 0 0 0 1 0 0 1 1 2 1 -2 
2 1 0 0 1 1 0 1 1 2 2 -3 
3 0 1 0 1 1 0 1 1 2 3 -4 
4 0 0 0 0 1 0 1 1 2 4 -1 
5 0.5 0.5 0 0.65 0.65 0 1 2 2 6 -7 
6 0.35 0.5 0 0.5 0.65 0 1 2 2 7 -8 
7 0.35 0.35 0 0.5 0.5 0 1 2 2 8 -9 
8 0.5 0.35 0 0.65 0.5 0 1 2 2 9 -6 
1 0 0 0 1 1 0 1 3 8 1 2 3 4 -8 -7 -6 -5 
$EndEntities
$Nodes
17 521 1 521
0 1 0 1
1
0 0 0
0 2 0 1
2
1 0 0
0 3 0 1
3
1 1 0
0 4 0 1
4
0 1 0
0 6 0 1
5
0.65 0.5 0
0 7 0 1
6
0.5 0.65 0
0 8 0 1
7
0.35 0.5 0
0 9 0 1
8
0.5 0.35 0
1 1 0 19
9
10
11
12
13
14
15
16
17
18
19
20
21
22
23
24
25
26
27
0.04999999999989965 0 0
0.09999999999981467 0 0
0.1499999999997036 0 0
0.1999999999995579 0 0
0.2499999999994121 0 0
0.2999999999992664 0 0
0.3499999999991206 0 0
0.3999999999989749 0 0
0.4499999999988292 0 0
0.4999999999986943 0 0
0.5499999999988151 0 0
0.5999999999989468 0 0
0.6499999999990784 0 0
0.69999999999921 0 0
0.7499999999993417 0 0
0.7999999999994734 0 0
0.8499999999996051 0 0
0.8999999999997368 0 0
0.9499999999998684 0 0
1 2 0 19
28
29
30
31
32
33
34
35
36
37
38
39
40
41
42
43
44
45
46
1 0.04999999999989965 0
1 0.09999999999981467 0
1 0.1499999999997036 0
1 0.1999999999995579 0
1 0.2499999999994121 0
1 0.2999999999992664 0
1 0.3499999999991206 0
1 0.3999999999989749 0
1 0.4499999999988292 0
1 0.4999999999986943 0
1 0.5499999999988151 0
1 0.5999999999989468 0
1 0.6499999999990784 0
1 0.69999999999921 0
1 0.7499999999993417 0
1 0.7999999999994734 0
1 0.8499999999996051 0
1 0.8999999999997368 0
1 0.9499999999998684 0
1 3 0 19
47
48
49
50
51
52
53
54
55
56
57
58
59
60
61
62
63
64
65
0.9499999999997918 1 0
0.8999999999995836 1 0
0.8499999999996529 1 0
0.7999999999999998 1 0
0.7500000000003466 1 0
0.7000000000006934 1 0
0.6500000000010401 1 0
0.6000000000013869 1 0
0.5500000000017335 1 0
0.5000000000020587 1 0
0.4500000000018723 1 0
0.4000000000016644 1 0
0.3500000000014564 1 0
0.3000000000012483 1 0
0.2500000000010403 1 0
0.2000000000008322 1 0
0.1500000000006241 1 0
0.100000000000416 1 0
0.05000000000020799 1 0
1 4 0 19
66
67
68
69
70
71
72
73
74
75
76
77
78
79
80
81
82
83
84
0 0.9499999999997918 0
0 0.8999999999995836 0
0 0.8499999999996529 0
0 0.7999999999999998 0
0 0.7500000000003466 0
0 0.7000000000006934 0
0 0.6500000000010401 0
0 0.6000000000013869 0
0 0.5500000000017335 0
0 0.5000000000020587 0
0 0.4500000000018723 0
0 0.4000000000016644 0
0 0.3500000000014564 0
0 0.3000000000012483 0
0 0.2500000000010403 0
0 0.2000000000008322 0
0 0.1500000000006241 0
0 0.100000000000416 0
0 0.05000000000020799 0
1 5 0 4
85
86
87
88
0.6426584774247159 0.5463525492164328 0
0.6213525490514911 0.5881677879880485 0
0.5881677876911909 0.6213525492671707 0
0.5463525490313631 0.6426584774848487 0
1 6 0 4
89
90
91
92
0.453647450780622 0.6426584774237589 0
0.4118322119679112 0.6213525490194939 0
0.3786474507039843 0.588167787651489 0
0.3573415225082845 0.5463525490102292 0
1 7 0 4
93
94
95
96
0.3573415225814017 0.4536474507647391 0
0.3786474509900841 0.4118322119547283 0
0.411832212392415 0.3786474506720861 0
0.4536474509826978 0.3573415225105827 0
1 8 0 4
97
98
99
100
0.5463525492247557 0.3573415225779883 0
0.588167787988477 0.3786474509488204 0
0.6213525493083354 0.4118322123654675 0
0.642658477485007 0.4536474509691241 0
2 1 0 421
101
102
103
104
105
106
107
108
109
110
111
112
113
114
115
116
117
118
119
120
121
122
123
124
125
126
127
128
129
130
131
132
133
134
135
136
137
138
139
140
141
142
143
144
145
146
147
148
149
150
151
152
153
154
155
156
157
158
159
160
161
162
163
164
165
166
167
168
169
170
171
172
173
174
175
176
177
178
179
180
181
182
183
184
185
186
187
188
189
190
191
192
193
194
195
196
197
198
199
200
201
202
203
204
205
206
207
208
209
210
211
212
213
214
215
216
217
218
219
220
221
222
223
224
225
226
227
228
229
230
231
232
233
234
235
236
237
238
239
240
241
242
243
244
245
246
247
248
249
250
251
252
253
254
255
256
257
258
259
260
261
262
263
264
265
266
267
268
269
270
271
272
273
274
275
276
277
278
279
280
281
282
283
284
285
286
287
288
289
290
291
292
293
294
295
296
297
298
299
300
301
302
303
304
305
306
307
308
309
310
311
312
313
314
315
316
317
318
319
320
321
322
323
324
325
326
327
328
329
330
331
332
333
334
335
336
337
338
339
340
341
342
343
344
345
346
347
348
349
350
351
352
353
354
355
356
357
358
359
360
361
362
363
364
365
366
367
368
369
370
371
372
373
374
375
376
377
378
379
380
381
382
383
384
385
386
387
388
389
390
391
392
393
394
395
396
397
398
399
400
401
402
403
404
405
406
407
408
409
410
411
412
413
414
415
416
417
418
419
420
421
422
423
424
425
426
427
428
429
430
431
432
433
434
435
436
437
438
439
440
441
442
443
444
445
446
447
448
449
450
451
452
453
454
455
456
457
458
459
460
461
462
463
464
465
466
467
468
469
470
471
472
473
474
475
476
477
478
479
480
481
482
483
484
485
486
487
488
489
490
491
492
493
494
495
496
497
498
499
500
501
502
503
504
505
506
507
508
509
510
511
512
513
514
515
516
517
518
519
520
521
0.6387001944738034 0.6275779718274717 0
0.3665009849997724 0.6334990145815328 0
0.364709881980357 0.3668400454398419 0
0.6331715270080158 0.3647090577033955 0
0.226446184634465 0.9600804157775364 0
0.9531349664014996 0.7817221012055102 0
0.04127839149251671 0.2249911599150892 0
0.7728790132321716 0.0419895463705368 0
0.04327809214700475 0.7251595420366161 0
0.7238033210995267 0.9532572716863743 0
0.2745867731988623 0.04345509109650416 0
0.9568995465827366 0.2752146666203373 0
0.3751239114968284 0.9567623479003485 0
0.04539627868545121 0.3733551621748492 0
0.9573294635603885 0.6240410734021608 0
0.625000641976996 0.04271720516536038 0
0.3157661320250379 0.5283481554141818 0
0.4745402342445775 0.310844993908838 0
0.6860490514455205 0.4715602848764772 0
0.529183758583311 0.6842836290640499 0
0.04169569028966785 0.5751159703725348 0
0.4195989183438848 0.04312660169569845 0
0.9531244185119702 0.4280417684424796 0
0.5747743408431393 0.9567299982179689 0
0.04187308639798953 0.4725905702833338 0
0.5250043918510024 0.04160130503013067 0
0.958984369262458 0.5275026059827614 0
0.4748226483391967 0.9581248198423657 0
0.04125306896929407 0.8250544699309961 0
0.8246204827096576 0.9581883666138626 0
0.1708245547698682 0.04553150555260321 0
0.9586195771104445 0.1750180606859834 0
0.1332077815183071 0.9594472328786462 0
0.9590439391881302 0.8685938939983722 0
0.04646299215456774 0.1238465640393773 0
0.872567217630648 0.03959233585739028 0
0.3347771085698669 0.4012553674222146 0
0.3208803446655633 0.354212477997511 0
0.2875243061808189 0.3879316192647088 0
0.2749669182678195 0.3416749452395907 0
0.308813255607987 0.3079589832407814 0
0.2625532574273699 0.2953551273703757 0
0.2967951043718527 0.2614526680727729 0
0.2501261483895245 0.2487875290004842 0
0.2412181913532923 0.375498985874904 0
0.2158827433059799 0.2829181218096635 0
0.2032932043406433 0.2360695538196145 0
0.2844201450795385 0.2147178471197635 0
0.3310865895137347 0.2275203978259049 0
0.3188159650509986 0.1806022236252886 0
0.365741695037799 0.1934314895932287 0
0.2532511791220848 0.4213132928911127 0
0.2071594744553993 0.4093297603595255 0
0.2189427238830364 0.4550286317321058 0
0.2720996169769272 0.1676917894682012 0
0.1688483468874416 0.2704851293808202 0
0.1731293061998576 0.443433053400395 0
0.1848817339653296 0.4893689995204325 0
0.1562135798751694 0.2233084905841551 0
0.1623608814721987 0.3966663692298969 0
0.3533395814263656 0.1463584317320112 0
0.4001137819986687 0.159862903385251 0
0.4125979125472476 0.2063711171850828 0
0.4469149301703866 0.1729284294801662 0
0.4593206462437669 0.2191965060445893 0
0.4937289431869845 0.1853018249770636 0
0.5051636273432533 0.2311435220952355 0
0.5401602769672698 0.1979478583885344 0
0.5515882973571083 0.2443813965776883 0
0.585663940565438 0.2098087108728203 0
0.5744711175054588 0.1638802552396856 0
0.6211150982463898 0.1768176155002935 0
0.6333870835712492 0.2239430141388757 0
0.6679657043633036 0.1900077453359774 0
0.6810540138169279 0.2367246345384757 0
0.7148597485063544 0.2030217363170179 0
0.7269766027481313 0.2501302012130072 0
0.7615824194516234 0.2160983815048778 0
0.773682438349884 0.2633845267740734 0
0.8086065186315717 0.2291947927674468 0
0.8205155132325364 0.2765901168277833 0
0.7857014977723755 0.310705816615399 0
0.832492365078273 0.3239140036567302 0
0.7984450119175908 0.3553060443919469 0
0.7963809045543058 0.1818047831815022 0
0.7018173421871472 0.1591251138381 0
0.8433969616717996 0.371044593203491 0
0.8077240271188989 0.4039211714734514 0
0.7508542565303782 0.3447161659740134 0
0.8437044172193231 0.1949191721734644 0
0.8313507470864894 0.1472787940669577 0
0.85476900704125 0.41847365778417 0
0.8240722179212812 0.4514364553414968 0
0.8686624456092988 0.4655580845334942 0
0.8341713892029047 0.499355062789662 0
0.787011419373331 0.4863596872951117 0
0.800068212411603 0.534405144477216 0
0.8436733846667874 0.547371519984533 0
0.8106692958126653 0.5806224415419425 0
0.7659769759405122 0.5689205183811172 0
0.7761301967897269 0.614429968834491 0
0.8222233296483035 0.6276275375781708 0
0.7874269854099547 0.6612556902606201 0
0.8338861908520818 0.6747412446184518 0
0.7990278614333304 0.7083660840330991 0
0.7523269991583279 0.6948548028002183 0
0.7639384331007129 0.741977605158785 0
0.717243084662784 0.7284761808946429 0
0.728803563818207 0.7756052146625949 0
0.6821381619575013 0.7621041906659318 0
0.7753071922824069 0.7895835512447085 0
0.6936982002045023 0.8092543624521192 0
0.6470679622688148 0.7956946637730984 0
0.6587173009471784 0.8426064063201526 0
0.6118268627385479 0.8293402436396204 0
0.6366551014763119 0.7497090751235427 0
0.8459722039838562 0.7219405743596851 0
0.705161545534892 0.8566546259448249 0
0.4824930356688724 0.1321338834902517 0
0.7259837009593171 0.6013095285635293 0
0.6985097372755897 0.2833158278312762 0
0.1908854579234916 0.188809880011552 0
0.1435134707990894 0.1759058857568731 0
0.8766793123706093 0.336008804717488 0
0.8804320932853021 0.6874449500686401 0
0.6707725837020035 0.8890299199922531 0
0.178316618382505 0.1412058852483973 0
0.781288108565516 0.1272569332662183 0
0.1295934160234555 0.4765536162223898 0
0.1498004539760914 0.5243137550902666 0
0.197220446630292 0.5365526718801731 0
0.1641862711528896 0.5712600308640225 0
0.2108699794659287 0.584146984751687 0
0.1774014878779792 0.6181948049063196 0
0.2239221827806641 0.6306221181481733 0
0.1909481722843061 0.6647607737246198 0
0.2369016187652471 0.6773051654083222 0
0.2041433456288383 0.7118139578904641 0
0.2512297657373184 0.723697220139219 0
0.2161463982504187 0.7590230161927872 0
0.2642857609225727 0.7706480622485874 0
0.2285970482077496 0.8059026383813449 0
0.2758615820900914 0.8182312312862172 0
0.3121100981952071 0.782837045728757 0
0.3225646747810101 0.8298734453523938 0
0.3580339467385716 0.7955716069328846 0
0.1812962633161006 0.7938083238945671 0
0.3681616852440931 0.8408300484183183 0
0.4040019646354557 0.8077940534768868 0
0.3920575215771406 0.7612150723809835 0
0.4382185067587153 0.7736507562574684 0
0.4510781167023368 0.8202901082052798 0
0.4850259340521771 0.7859088985376432 0
0.49624132478599 0.8329945002975149 0
0.1938261651588826 0.840918556783993 0
0.1428762854557618 0.6527657253817035 0
0.2884869889044769 0.8655815931859091 0
0.2836947018132874 0.6896816093368838 0
0.1481500207506371 0.8303667663806725 0
0.1303205262177126 0.7821966848039495 0
0.1315008951001343 0.1280517926605359 0
0.2560444449173666 0.5970322794972087 0
0.5265805075376122 0.8015806636008002 0
0.4641569200483653 0.8701830688331311 0
0.5112914739051058 0.8792966838919968 0
0.4232522066123346 0.7252035833462938 0
0.3789015741041691 0.7149524408337472 0
0.1223486977679816 0.2586941984048619 0
0.1344719122074765 0.3050758635984107 0
0.7038770258499684 0.6818720668349656 0
0.5995234389207924 0.3349683879484272 0
0.6836769919470844 0.5275922080603876 0
0.5768518678645606 0.6801500152148809 0
0.6755536269836689 0.4268415009166946 0
0.4266851403454744 0.3261664640926418 0
0.6106315153565017 0.1284580669285102 0
0.04145004737533596 0.9247038524015352 0
0.9232308834898003 0.9598080586561399 0
0.07849770566523109 0.04434211504305218 0
0.9576641080255659 0.07521155524536707 0
0.7214577199190009 0.442627077228271 0
0.1590331615519325 0.8759212288797494 0
0.08669725624500119 0.2923243598839516 0
0.548239750248797 0.723207031665174 0
0.1161422387149683 0.865470596579082 0
0.5628819149481064 0.1177334652194388 0
0.3093675717487095 0.4823540594895247 0
0.880277189614916 0.168906853945047 0
0.8863553460182956 0.2106178023228132 0
0.3858463260141823 0.1131800506791984 0
0.340720080362077 0.09909875425051629 0
0.821395694464238 0.09850583633983123 0
0.3372494622120383 0.6086208012468556 0
0.2748033970192442 0.5150549950933223 0
0.09913517791341597 0.5201288881731833 0
0.5211069146223971 0.3186194523661882 0
0.8909033470743462 0.7357810570517558 0
0.8573630092793965 0.7696930752273095 0
0.2068321887145544 0.8884574947799 0
0.9221807833080309 0.7040662435477372 0
0.425479567118569 0.2509374977783537 0
0.09519342916738087 0.3470607540220537 0
0.4849010555259898 0.6877903679895898 0
0.09049951710299754 0.1610819462962175 0
0.7295468804289511 0.4974009910257018 0
0.6722818797785162 0.5838711563958465 0
0.7164157114900779 0.3843227298511245 0
0.4124961350569518 0.6692349481794462 0
0.6427125094825392 0.3212093214697281 0
0.6117877749134027 0.2931907726063031 0
0.3228455967628082 0.6505802001758508 0
0.1690450487964847 0.9214466942001256 0
0.6882891994512775 0.6350709881672447 0
0.6793732321712024 0.354501143709673 0
0.376754688285685 0.06913271162798842 0
0.3302038380777079 0.04665493737208064 0
0.900115165996118 0.4272152628752804 0
0.9143241462135312 0.4705651925656656 0
0.924874147616921 0.3874628229684917 0
0.9032465139616603 0.7818291344094888 0
0.8690582638271189 0.8174146139568498 0
0.9182341387860757 0.8316336155135422 0
0.8793733766272682 0.8662732022306763 0
0.8332610413043825 0.8519554846709498 0
0.8436073824362623 0.9086214788143367 0
0.7976058110274846 0.8861788905393899 0
0.7172328859049679 0.9043160237492067 0
0.8994565052246721 0.916428563929351 0
0.7614148025237208 0.4156953973819529 0
0.5167872371365081 0.7554469826828965 0
0.1687258507709474 0.09549081338368656 0
0.2137124297632229 0.1102594147571841 0
0.1200099315339016 0.07765344312224087 0
0.3783951570367876 0.240394608334778 0
0.67046397607576 0.7156341991060655 0
0.6241914330175661 0.7016748490683887 0
0.3437672877268813 0.274281887439889 0
0.7866331910855608 0.8374440032255632 0
0.2697169102350813 0.6427315939378009 0
0.3347325677829516 0.6996606653084734 0
0.3006262778037341 0.7351110461302555 0
0.7395047337554203 0.2975265382258928 0
0.04825090571143437 0.5219480963097324 0
0.5249091495874912 0.9583025525425668 0
0.5474781662418065 0.9166794506990896 0
0.5975832587173479 0.9155341072809918 0
0.5704460106851217 0.8698731409549524 0
0.6228297069439442 0.9578400481993034 0
0.6705059043987883 0.9586651485037496 0
0.7612035561615031 0.9174377997753522 0
0.4745879999566919 0.04304513729808469 0
0.4501304678137644 0.08624551583199719 0
0.5002233103919831 0.08482622204910871 0
0.7390056846030953 0.6481321742435113 0
0.4248577466625358 0.9571008829692299 0
0.3999826727367938 0.9150534269384055 0
0.3514185786497944 0.9163239626443309 0
0.325466100475561 0.9568119815614977 0
0.2754774988611947 0.9573159879648806 0
0.249745795115841 0.9102615895062462 0
0.9567689005444943 0.5751215392750791 0
0.9064618626327385 0.5996170680236269 0
0.9156020443531984 0.654334640998732 0
0.9146532297943637 0.5497945148553007 0
0.04330353109299841 0.4243040836943597 0
0.08628144269722221 0.3999997457076068 0
0.08467632893099095 0.4482977148171193 0
0.5750194960449784 0.04079384683549767 0
0.04297922521054215 0.7750885158740304 0
0.08653657398042741 0.751401975510904 0
0.08539556830706319 0.7024635720276483 0
0.127692482792882 0.7267214853353459 0
0.08088910607297425 0.8018742752131789 0
0.04319080240148271 0.6757386489010646 0
0.09394014960807602 0.6498325887946635 0
0.0442309895056975 0.6251156113641747 0
0.0843587952377868 0.5940841609868143 0
0.2242537525803772 0.03980994689607153 0
0.9596456123997443 0.2252702799193745 0
0.4709936314901786 0.2643412396416528 0
0.6027127229706857 0.7846995802363523 0
0.04329267901378887 0.1749851196480692 0
0.8221689557663889 0.04782791773455572 0
0.04481794916819763 0.3229567126807839 0
0.9594820642527262 0.3241417001846933 0
0.915147177923689 0.3025371694024152 0
0.6749470860717711 0.04307441833718095 0
0.6504399592195604 0.09270355208050471 0
0.7038868971641576 0.0857774559448054 0
0.725285539739003 0.04285527081458146 0
0.7500002419673659 0.08629020423496561 0
0.3941245944931523 0.2908140778420247 0
0.03955646347167869 0.8749605126401907 0
0.9584708324535147 0.1250374863045735 0
0.9187623874889939 0.09695358197740733 0
0.3016721128238515 0.9134290605245207 0
0.857455573227514 0.5938208756019976 0
0.1816706881554123 0.3172871949451509 0
0.1173037564175406 0.5596513200450697 0
0.3010543546806408 0.4353870058607464 0
0.4480916109072334 0.9184635160862028 0
0.3544876027432226 0.3206765722097104 0
0.8818448239330605 0.5149642319003995 0
0.2405582946985993 0.8548921839872685 0
0.8558613956821027 0.2424157817130591 0
0.6559599679516205 0.1431711648397975 0
0.1106134038801895 0.2114835736645129 0
0.4145665245833843 0.8517786055542595 0
0.8106366436858345 0.7556786250676879 0
0.2377208955941435 0.2020221284497022 0
0.5281879337575834 0.1514145846346599 0
0.2286985343370826 0.3292660115725297 0
0.82204322357745 0.8036282255655114 0
0.7493060758483823 0.1691845749765449 0
0.3065032166489845 0.133723562071512 0
0.471842169466482 0.7339583471671004 0
0.2254395732924107 0.1550991836928455 0
0.7401109249681888 0.8231998686441213 0
0.8710157591505407 0.1152914960286778 0
0.1947831112321787 0.3631600975180134 0
0.914145818033962 0.2512882471302914 0
0.2603552159854899 0.1221384930658509 0
0.8691402637201954 0.2887923539079612 0
0.04194511058826723 0.2733659271949425 0
0.1475908976196872 0.3509122631260736 0
0.2943653246998962 0.08750940999998726 0
0.7513246524470996 0.8708718686464098 0
0.8734858756432713 0.9571744113356149 0
0.2423074995471827 0.5491109779061119 0
0.8673719977850461 0.6412725358480037 0
0.5977980409318763 0.08338061214377812 0
0.1225941061546777 0.9134000737425954 0
0.07908278279876357 0.9547723995512671 0
0.9517916911904007 0.9201041226149353 0
0.03992606282136195 0.07235414384560497 0
0.9212897366066053 0.04645018250267591 0
0.6562303196055065 0.6711830237302543 0
0.1264544154307294 0.4245978072940647 0
0.1699489075023466 0.7480822672909518 0
0.2642974819762113 0.467914682701436 0
0.6246937333833587 0.876529177416829 0
0.1326057846967638 0.6053207746356919 0
0.3465706413160068 0.7482133616443059 0
0.4316774712852594 0.1263959704785783 0
0.7221977746885401 0.5527457883277304 0
0.5669989971717255 0.8228157046611042 0
0.9580541599203376 0.4818137812681088 0
0.5623820680976492 0.2962642433530731 0
0.09329329492433043 0.1139934779461087 0
0.9660826088751412 0.8263899221433006 0
0.2848509896301491 0.5608470528735802 0
0.2304088805035494 0.5021718264722634 0
0.07879613365643448 0.8972186394153845 0
0.9592557140765245 0.6773151398952477 0
0.6494733177447536 0.2734982437339695 0
0.3332025932576668 0.8742665144310346 0
0.5137128667583875 0.2749202289610633 0
0.7308669808240653 0.1256750129663735 0
0.1238664383937038 0.03350541274357926 0
0.07918515851432788 0.243474468220131 0
0.96042199323753 0.731448881424569 0
0.1604486902667418 0.6982576316356914 0
0.4951249948381998 0.9168416819825589 0
0.92014482768696 0.1484082597947631 0
0.5588397687279348 0.7675710528973843 0
0.2445622582018188 0.0790829736895907 0
0.3707965345660922 0.6739683610576493 0
0.7597509180966023 0.4545165777076364 0
0.7123634010798479 0.3295169019878878 0
0.776445812145804 0.9607871861943351 0
0.5959910945207061 0.2541650984238084 0
0.7609602525685875 0.5279664259013754 0
0.9642586453499176 0.3743180824601527 0
0.8857484137122236 0.3824148949099269 0
0.5483375532485574 0.07939687727850997 0
0.1793968477965549 0.962343702875512 0
0.5932998908114726 0.7380152991523918 0
0.07814886511396912 0.5541856871774669 0
0.9206285294785377 0.3470087643587855 0
0.298064517970127 0.6060694410174364 0
0.6439176114758965 0.9195510983038373 0
0.1226851172606513 0.3826363443869807 0
0.4454957624741254 0.6927479445714368 0
0.3800827783874824 0.8815801154353875 0
0.6168283205305255 0.6603876818216332 0
0.853016395635531 0.07559326717270159 0
0.91953900968355 0.881534452282166 0
0.3891985592675593 0.3360636341958828 0
0.66517332939226 0.388441328909271 0
0.5343116628171111 0.8413121386812737 0
0.1231049444515327 0.6865966441972798 0
0.4117205813312633 0.08239665306340457 0
0.07671593830210413 0.8490581739460378 0
0.4383646335383904 0.2886208546527022 0
0.8025174620533043 0.9248516100460827 0
0.9633974596214028 0.9633974596214232 0
0.03660254037858459 0.9633974596214154 0
0.03660254037832189 0.03660254037840452 0
0.9633974596216029 0.03660254037833489 0
0.3276928321442736 0.570581941793151 0
0.07222809111201114 0.1999875902574284 0
0.6873971128182198 0.1216257713005645 0
0.5247389035371255 0.1138066857361629 0
0.9260367199177997 0.1991855166745444 0
0.7883664917800342 0.07976145473777053 0
0.927837942738186 0.7505979258946048 0
0.8789242241229691 0.5633838042885225 0
0.2012234693289052 0.07203077696487659 0
0.5105278427336599 0.716615443043455 0
0.07931114857148161 0.4866410811752392 0
0.3751589229286534 0.02963056172629553 0
0.767144452349701 0.3778581694282842 0
0.9237696379272724 0.5117909495458477 0
0.2082345065386005 0.9246231754863712 0
0.6859265018925685 0.9234041605304857 0
0.07738007612327975 0.08118295254259283 0
0.1103329914269283 0.8270554385990049 0
0.6788903513313 0.3150107979018632 0
0.8868896495959455 0.07605690132245442 0
0.4247413015035796 0.8891128849069656 0
0.7892730600965634 0.4401951591190612 0
$EndNodes
$Elements
9 1042 1 1042
1 1 1 20
1 1 9 
2 9 10 
3 10 11 
4 11 12 
5 12 13 
6 13 14 
7 14 15 
8 15 16 
9 16 17 
10 17 18 
11 18 19 
12 19 20 
13 20 21 
14 21 22 
15 22 23 
16 23 24 
17 24 25 
18 25 26 
19 26 27 
20 27 2 
1 2 1 20
21 2 28 
22 28 29 
23 29 30 
24 30 31 
25 31 32 
26 32 33 
27 33 34 
28 34 35 
29 35 36 
30 36 37 
31 37 38 
32 38 39 
33 39 40 
34 40 41 
35 41 42 
36 42 43 
37 43 44 
38 44 45 
39 45 46 
40 46 3 
1 3 1 20
41 3 47 
42 47 48 
43 48 49 
44 49 50 
45 50 51 
46 51 52 
47 52 53 
48 53 54 
49 54 55 
50 55 56 
51 56 57 
52 57 58 
53 58 59 
54 59 60 
55 60 61 
56 61 62 
57 62 63 
58 63 64 
59 64 65 
60 65 4 
1 4 1 20
61 4 66 
62 66 67 
63 67 68 
64 68 69 
65 69 70 
66 70 71 
67 71 72 
68 72 73 
69 73 74 
70 74 75 
71 75 76 
72 76 77 
73 77 78 
74 78 79 
75 79 80 
76 80 81 
77 81 82 
78 82 83 
79 83 84 
80 84 1 
1 5 1 5
81 5 85 
82 85 86 
83 86 87 
84 87 88 
85 88 6 
1 6 1 5
86 6 89 
87 89 90 
88 90 91 
89 91 92 
90 92 7 
1 7 1 5
91 7 93 
92 93 94 
93 94 95 
94 95 96 
95 96 8 
1 8 1 5
96 8 97 
97 97 98 
98 98 99 
99 99 100 
100 100 5 
2 1 2 942
101 114 302 366 
102 169 448 457 
103 320 106 322 
104 93 287 400 
105 273 336 477 
106 306 220 313 
107 322 106 450 
108 220 306 445 
109 137 93 400 
110 302 114 384 
111 130 325 428 
112 317 123 318 
113 189 307 469 
114 432 433 453 
115 284 273 477 
116 131 331 333 
117 271 97 448 
118 318 123 447 
119 432 133 433 
120 131 333 459 
121 266 267 308 
122 256 375 442 
123 257 360 404 
124 307 314 469 
125 306 272 445 
126 448 296 457 
127 419 395 464 
128 196 305 468 
129 401 264 463 
130 135 304 382 
131 288 419 464 
132 405 421 423 
133 278 328 434 
134 296 118 457 
135 397 362 430 
136 325 328 428 
137 434 328 487 
138 345 265 347 
139 305 281 468 
140 381 446 465 
141 375 377 442 
142 264 265 463 
143 313 220 354 
144 101 306 313 
145 272 119 305 
146 276 388 406 
147 219 352 353 
148 347 265 490 
149 97 296 448 
150 304 135 449 
151 173 455 471 
152 119 281 305 
153 270 313 354 
154 367 229 510 
155 360 257 396 
156 266 308 483 
157 241 239 341 
158 455 310 471 
159 94 93 137 
160 93 7 287 
161 89 6 303 
162 100 99 274 
163 88 87 273 
164 96 95 275 
165 98 97 271 
166 454 41 461 
167 288 464 504 
168 102 90 308 
169 101 86 306 
170 8 118 296 
171 5 119 272 
172 85 272 306 
173 362 363 430 
174 305 196 472 
175 340 311 467 
176 14 15 316 
177 448 169 471 
178 289 288 504 
179 446 263 465 
180 258 311 340 
181 360 299 404 
182 283 302 384 
183 311 258 339 
184 307 189 512 
185 89 303 483 
186 295 343 510 
187 421 386 423 
188 343 295 478 
189 111 14 316 
190 311 102 467 
191 260 370 372 
192 273 87 485 
193 352 219 444 
194 272 305 445 
195 388 276 431 
196 275 95 488 
197 274 99 489 
198 366 302 482 
199 118 380 457 
200 102 308 467 
201 300 454 461 
202 244 241 341 
203 92 91 500 
204 229 367 438 
205 405 289 421 
206 229 295 510 
207 91 293 500 
208 429 231 452 
209 308 267 467 
210 239 258 341 
211 340 267 443 
212 445 305 472 
213 280 395 436 
214 228 391 505 
215 370 260 373 
216 134 322 450 
217 325 130 495 
218 341 340 443 
219 391 228 458 
220 326 350 427 
221 312 133 432 
222 347 215 441 
223 123 317 319 
224 322 134 487 
225 381 215 446 
226 300 225 363 
227 350 327 427 
228 294 429 452 
229 480 451 500 
230 110 327 350 
231 260 372 439 
232 283 384 424 
233 314 307 489 
234 433 277 453 
235 133 312 476 
236 406 388 502 
237 333 279 459 
238 309 455 518 
239 246 244 443 
240 294 117 451 
241 436 395 519 
242 375 256 491 
243 313 270 437 
244 389 391 458 
245 111 316 426 
246 293 480 500 
247 244 341 443 
248 215 347 446 
249 362 397 507 
250 258 340 341 
251 416 266 483 
252 73 121 376 
253 303 416 483 
254 383 292 505 
255 474 224 479 
256 376 121 377 
257 328 278 428 
258 359 360 396 
259 375 376 377 
260 429 294 451 
261 389 390 391 
262 300 363 454 
263 110 52 349 
264 369 370 373 
265 61 105 359 
266 149 334 337 
267 338 211 413 
268 129 369 373 
269 53 348 349 
270 221 177 342 
271 270 208 335 
272 72 73 376 
273 359 105 360 
274 316 15 511 
275 220 201 354 
276 141 143 337 
277 367 366 438 
278 337 392 402 
279 149 151 334 
280 324 338 413 
281 201 203 354 
282 258 237 339 
283 122 351 352 
284 400 287 440 
285 53 54 348 
286 389 387 390 
287 124 344 345 
288 143 149 337 
289 365 366 367 
290 361 362 364 
291 125 365 367 
292 358 60 359 
293 127 361 364 
294 177 179 342 
295 301 165 380 
296 334 301 392 
297 71 72 374 
298 387 22 390 
299 121 74 343 
300 122 17 351 
301 124 55 344 
302 52 53 349 
303 128 57 355 
304 127 38 361 
305 125 76 365 
306 126 19 368 
307 251 250 266 
308 60 61 359 
309 59 60 358 
310 385 473 479 
311 335 216 336 
312 374 72 376 
313 163 165 301 
314 351 126 353 
315 249 246 250 
316 369 109 370 
317 182 184 189 
318 206 208 270 
319 361 115 362 
320 116 387 388 
321 365 114 366 
322 235 233 262 
323 346 345 347 
324 352 351 353 
325 70 109 369 
326 358 359 396 
327 355 113 356 
328 128 355 401 
329 193 195 196 
330 203 206 354 
331 112 385 386 
332 249 250 251 
333 208 210 335 
334 370 371 372 
335 263 253 330 
336 197 199 200 
337 200 201 220 
338 124 345 346 
339 370 109 371 
340 266 250 267 
341 210 216 335 
342 210 213 216 
343 390 108 391 
344 107 81 382 
345 108 24 383 
346 163 164 165 
347 151 163 334 
348 131 12 378 
349 132 31 379 
350 179 182 342 
351 388 387 389 
352 206 270 354 
353 75 125 343 
354 56 128 344 
355 18 126 351 
356 134 434 487 
357 337 334 392 
358 165 166 167 
359 235 262 339 
360 58 113 355 
361 39 115 361 
362 77 114 365 
363 20 116 368 
364 362 115 363 
365 112 33 385 
366 116 21 387 
367 23 108 390 
368 356 113 357 
369 324 326 338 
370 114 78 384 
371 73 74 121 
372 16 17 122 
373 35 36 123 
374 54 55 124 
375 165 167 380 
376 182 189 342 
377 239 237 258 
378 151 162 163 
379 175 177 221 
380 56 57 128 
381 75 76 125 
382 37 38 127 
383 18 19 126 
384 54 124 348 
385 245 244 246 
386 237 235 339 
387 167 168 169 
388 70 71 109 
389 61 62 105 
390 58 59 113 
391 51 52 110 
392 39 40 115 
393 42 43 106 
394 13 14 111 
395 80 81 107 
396 77 78 114 
397 32 33 112 
398 20 21 116 
399 23 24 108 
400 13 111 378 
401 32 112 379 
402 200 199 201 
403 182 183 184 
404 196 195 197 
405 184 187 188 
406 232 231 233 
407 129 69 369 
408 163 301 334 
409 230 158 231 
410 248 246 249 
411 109 71 374 
412 216 213 381 
413 243 241 244 
414 309 310 455 
415 371 374 375 
416 206 207 208 
417 74 75 343 
418 17 18 351 
419 55 56 344 
420 330 253 416 
421 179 181 182 
422 68 129 393 
423 30 132 394 
424 203 205 206 
425 251 266 416 
426 57 58 355 
427 38 39 361 
428 76 77 365 
429 19 20 368 
430 188 192 193 
431 33 34 385 
432 234 233 235 
433 21 22 387 
434 22 23 390 
435 82 135 382 
436 25 136 383 
437 78 79 384 
438 69 70 369 
439 113 59 358 
440 81 82 382 
441 24 25 383 
442 208 209 210 
443 252 251 253 
444 68 69 129 
445 49 50 130 
446 11 12 131 
447 30 31 132 
448 170 172 173 
449 280 394 395 
450 163 162 164 
451 12 13 378 
452 31 32 379 
453 165 164 166 
454 210 212 213 
455 324 325 326 
456 277 67 393 
457 280 29 394 
458 236 235 237 
459 213 215 381 
460 67 68 393 
461 29 30 394 
462 321 323 324 
463 173 174 175 
464 409 298 413 
465 243 244 245 
466 141 337 402 
467 371 109 374 
468 63 64 133 
469 44 45 134 
470 82 83 135 
471 25 26 136 
472 193 194 195 
473 167 166 168 
474 66 67 277 
475 47 48 278 
476 9 10 279 
477 28 29 280 
478 230 231 232 
479 169 168 170 
480 156 146 398 
481 182 181 183 
482 254 253 263 
483 206 205 207 
484 197 198 199 
485 227 331 332 
486 245 246 248 
487 184 183 187 
488 269 156 398 
489 143 148 149 
490 232 233 234 
491 139 137 400 
492 357 358 396 
493 124 346 348 
494 375 374 376 
495 249 251 252 
496 324 323 325 
497 188 187 192 
498 357 113 358 
499 234 235 236 
500 149 150 151 
501 208 207 209 
502 175 176 177 
503 268 156 269 
504 211 409 413 
505 210 209 212 
506 213 214 215 
507 173 172 174 
508 181 180 405 
509 282 255 299 
510 238 237 239 
511 191 185 228 
512 447 127 513 
513 152 139 400 
514 321 324 413 
515 193 192 194 
516 217 297 298 
517 190 288 289 
518 355 356 401 
519 283 269 302 
520 201 202 203 
521 247 259 260 
522 175 174 176 
523 236 237 238 
524 398 146 412 
525 177 178 179 
526 145 139 152 
527 153 152 154 
528 151 161 162 
529 298 320 321 
530 240 239 241 
531 325 323 328 
532 180 190 405 
533 321 322 323 
534 157 154 158 
535 179 180 181 
536 242 241 243 
537 201 199 202 
538 379 112 421 
539 252 253 254 
540 217 298 409 
541 197 195 198 
542 282 299 312 
543 213 212 214 
544 149 148 150 
545 99 98 104 
546 95 94 103 
547 91 90 102 
548 87 86 101 
549 229 158 230 
550 228 185 414 
551 203 204 205 
552 243 245 257 
553 135 435 516 
554 191 228 292 
555 147 159 222 
556 170 171 172 
557 261 223 304 
558 6 88 120 
559 5 100 119 
560 8 96 118 
561 7 92 117 
562 249 252 408 
563 230 232 399 
564 298 297 320 
565 240 241 242 
566 321 320 322 
567 238 239 240 
568 138 140 141 
569 240 242 247 
570 97 8 296 
571 90 89 308 
572 410 222 417 
573 86 85 306 
574 177 176 178 
575 268 269 283 
576 85 5 272 
577 331 261 333 
578 227 261 331 
579 155 410 417 
580 222 223 227 
581 179 178 180 
582 259 282 285 
583 187 183 224 
584 199 198 397 
585 259 255 282 
586 211 338 418 
587 299 255 404 
588 209 207 211 
589 151 150 161 
590 190 191 288 
591 205 204 217 
592 190 185 191 
593 180 178 185 
594 310 448 471 
595 203 202 204 
596 247 255 259 
597 247 242 255 
598 159 156 268 
599 176 174 186 
600 234 236 256 
601 103 138 402 
602 195 194 403 
603 141 142 143 
604 226 218 327 
605 147 156 159 
606 143 144 148 
607 166 164 219 
608 227 223 261 
609 147 146 156 
610 180 185 190 
611 217 204 225 
612 386 224 423 
613 91 102 293 
614 217 225 297 
615 103 94 137 
616 162 161 290 
617 214 212 218 
618 227 332 417 
619 297 225 300 
620 222 159 223 
621 170 168 171 
622 248 249 408 
623 290 161 291 
624 150 148 155 
625 145 152 153 
626 214 218 226 
627 190 289 405 
628 144 142 146 
629 243 257 404 
630 7 117 287 
631 315 291 316 
632 242 243 404 
633 194 317 318 
634 153 154 157 
635 6 120 303 
636 119 100 274 
637 104 98 271 
638 455 221 518 
639 120 88 273 
640 276 286 431 
641 118 96 275 
642 252 264 408 
643 157 158 229 
644 264 254 265 
645 202 199 397 
646 143 142 144 
647 104 309 314 
648 276 171 286 
649 144 146 147 
650 229 230 295 
651 194 192 317 
652 449 135 516 
653 141 140 142 
654 172 171 276 
655 290 291 315 
656 198 195 403 
657 153 157 160 
658 138 137 139 
659 138 141 402 
660 138 139 140 
661 384 79 424 
662 140 139 145 
663 252 254 264 
664 255 242 404 
665 309 271 310 
666 103 137 138 
667 295 230 399 
668 219 353 503 
669 281 274 307 
670 298 321 413 
671 80 107 424 
672 205 217 409 
673 304 223 407 
674 194 318 403 
675 293 102 311 
676 281 307 329 
677 174 172 406 
678 207 205 409 
679 147 222 410 
680 101 313 437 
681 104 271 309 
682 287 117 294 
683 159 268 407 
684 119 274 281 
685 253 251 416 
686 211 207 409 
687 223 159 407 
688 172 276 406 
689 120 273 284 
690 168 166 411 
691 155 148 410 
692 148 144 410 
693 186 174 406 
694 144 147 410 
695 178 176 414 
696 185 178 414 
697 176 186 414 
698 288 191 419 
699 116 388 431 
700 377 399 442 
701 389 458 502 
702 166 219 411 
703 150 155 415 
704 265 345 463 
705 161 150 415 
706 291 161 415 
707 329 307 512 
708 171 168 411 
709 142 140 412 
710 140 145 412 
711 218 212 418 
712 209 211 418 
713 286 171 411 
714 146 142 412 
715 222 227 417 
716 279 333 516 
717 302 269 425 
718 233 231 429 
719 212 209 418 
720 191 292 419 
721 270 335 437 
722 420 160 425 
723 112 386 421 
724 398 412 420 
725 363 225 430 
726 49 130 428 
727 153 160 420 
728 181 405 423 
729 224 183 423 
730 122 315 511 
731 278 48 428 
732 155 417 422 
733 292 228 505 
734 346 347 441 
735 415 155 422 
736 338 326 427 
737 218 418 427 
738 417 332 422 
739 412 145 420 
740 307 274 489 
741 316 291 426 
742 145 153 420 
743 398 420 425 
744 318 447 513 
745 152 400 440 
746 292 383 486 
747 250 246 443 
748 64 65 433 
749 45 46 434 
750 83 84 435 
751 26 27 436 
752 418 338 427 
753 308 89 483 
754 319 474 479 
755 183 181 423 
756 282 312 432 
757 225 204 430 
758 247 260 439 
759 399 377 478 
760 238 240 439 
761 202 397 430 
762 79 80 424 
763 269 398 425 
764 128 401 463 
765 123 36 447 
766 37 127 447 
767 399 232 442 
768 234 256 442 
769 287 294 440 
770 214 226 441 
771 157 229 438 
772 238 439 462 
773 444 290 492 
774 327 218 427 
775 106 43 450 
776 262 233 429 
777 48 49 428 
778 396 257 456 
779 221 342 469 
780 291 415 426 
781 162 290 444 
782 44 134 450 
783 231 158 452 
784 167 169 457 
785 219 164 444 
786 357 396 456 
787 363 115 454 
788 431 286 475 
789 415 422 426 
790 327 110 515 
791 392 301 494 
792 173 175 455 
793 353 126 475 
794 275 392 494 
795 368 116 431 
796 345 344 463 
797 204 202 430 
798 123 319 473 
799 40 41 454 
800 261 304 449 
801 335 336 437 
802 110 350 470 
803 377 121 478 
804 285 282 432 
805 11 131 459 
806 440 294 452 
807 279 10 459 
808 87 101 485 
809 379 421 504 
810 336 273 485 
811 133 64 433 
812 134 45 434 
813 135 83 435 
814 136 26 436 
815 395 394 464 
816 41 42 461 
817 245 248 456 
818 402 392 488 
819 188 329 512 
820 240 247 439 
821 336 216 477 
822 349 348 481 
823 438 366 482 
824 160 157 438 
825 51 110 470 
826 385 34 473 
827 154 152 440 
828 473 319 479 
829 232 234 442 
830 215 214 441 
831 196 197 472 
832 35 123 473 
833 319 317 474 
834 105 476 514 
835 130 50 470 
836 105 62 476 
837 267 250 443 
838 170 173 471 
839 256 236 462 
840 63 133 476 
841 421 289 504 
842 407 268 460 
843 439 372 462 
844 228 414 458 
845 392 275 488 
846 343 125 510 
847 193 196 521 
848 129 373 493 
849 371 375 491 
850 184 188 512 
851 352 444 492 
852 108 383 505 
853 315 316 511 
854 187 224 474 
855 267 340 467 
856 317 192 474 
857 16 122 511 
858 373 260 517 
859 388 389 502 
860 154 440 452 
861 3 47 496 
862 46 3 496 
863 65 4 497 
864 4 66 497 
865 84 1 498 
866 27 2 499 
867 1 9 498 
868 2 28 499 
869 164 162 444 
870 200 220 445 
871 323 322 487 
872 403 364 507 
873 254 263 490 
874 284 330 509 
875 95 103 488 
876 99 104 489 
877 110 349 515 
878 248 408 484 
879 364 362 507 
880 260 259 517 
881 36 37 447 
882 368 431 475 
883 198 403 507 
884 382 304 501 
885 311 339 480 
886 407 460 501 
887 333 261 449 
888 302 425 482 
889 120 284 509 
890 43 44 450 
891 310 271 448 
892 130 470 495 
893 315 122 492 
894 285 432 453 
895 484 408 520 
896 326 325 495 
897 158 154 452 
898 277 393 453 
899 200 445 472 
900 411 219 503 
901 115 40 454 
902 175 221 455 
903 295 399 478 
904 424 107 460 
905 196 468 521 
906 380 167 457 
907 224 386 479 
908 257 245 456 
909 285 453 493 
910 297 300 506 
911 330 284 465 
912 263 446 490 
913 441 226 481 
914 10 11 459 
915 422 332 466 
916 437 336 485 
917 101 437 485 
918 262 429 451 
919 353 475 503 
920 262 451 480 
921 414 186 458 
922 476 312 514 
923 344 128 463 
924 42 106 461 
925 160 438 482 
926 386 385 479 
927 349 481 515 
928 283 424 460 
929 236 238 462 
930 268 283 460 
931 394 132 464 
932 111 426 466 
933 378 111 466 
934 263 330 465 
935 426 422 466 
936 293 311 480 
937 106 320 506 
938 330 416 509 
939 466 332 508 
940 342 189 469 
941 453 393 493 
942 456 248 484 
943 281 329 468 
944 416 303 509 
945 126 368 475 
946 346 441 481 
947 50 51 470 
948 197 200 472 
949 121 343 478 
950 169 170 471 
951 136 436 519 
952 34 35 473 
953 216 381 477 
954 62 63 476 
955 192 187 474 
956 460 107 501 
957 493 373 517 
958 464 132 504 
959 458 186 502 
960 339 262 480 
961 378 466 508 
962 350 326 495 
963 381 465 477 
964 446 347 490 
965 221 469 518 
966 348 346 481 
967 264 401 520 
968 331 131 508 
969 380 118 494 
970 383 136 486 
971 304 407 501 
972 299 360 514 
973 408 264 520 
974 356 357 484 
975 329 188 521 
976 300 461 506 
977 256 462 491 
978 360 105 514 
979 364 403 513 
980 301 380 494 
981 122 352 492 
982 470 350 495 
983 118 275 494 
984 435 84 498 
985 433 65 497 
986 434 46 496 
987 436 27 499 
988 372 371 491 
989 328 323 487 
990 103 402 488 
991 104 314 489 
992 393 129 493 
993 265 254 490 
994 425 160 482 
995 356 484 520 
996 290 315 492 
997 419 292 486 
998 332 331 508 
999 107 382 501 
1000 320 297 506 
1001 47 278 496 
1002 66 277 497 
1003 9 279 498 
1004 28 280 499 
1005 465 284 477 
1006 132 379 504 
1007 403 318 513 
1008 131 378 508 
1009 391 108 505 
1010 117 92 500 
1011 125 367 510 
1012 127 364 513 
1013 189 184 512 
1014 15 16 511 
1015 397 198 507 
1016 188 193 521 
1017 357 456 484 
1018 186 406 502 
1019 314 309 518 
1020 395 419 519 
1021 286 411 503 
1022 303 120 509 
1023 312 299 514 
1024 259 285 517 
1025 401 356 520 
1026 226 327 515 
1027 277 433 497 
1028 278 434 496 
1029 279 435 498 
1030 280 436 499 
1031 475 286 503 
1032 481 226 515 
1033 451 117 500 
1034 462 372 491 
1035 435 279 516 
1036 333 449 516 
1037 461 106 506 
1038 468 329 521 
1039 469 314 518 
1040 285 493 517 
1041 419 486 519 
1042 486 136 519 
$EndElements
