<?xml version="1.0"?>

<VTKFile type="UnstructuredGrid" version="0.1">

  <UnstructuredGrid>

    <Piece NumberOfPoints="486" NumberOfCells="162">

      <PointData>

        <DataArray type="Float64" Name="K" format="ascii">

9.65256832719283198e-01
9.65256832719283198e-01
9.65256832719283198e-01
9.64923075939341679e-01
9.64923075939341679e-01
9.64923075939341679e-01
1.04013891917190637e+00
1.04013891917190637e+00
1.04013891917190637e+00
9.95174277122579332e-01
9.95174277122579332e-01
9.95174277122579332e-01
1.01318184507155129e+00
1.01318184507155129e+00
1.01318184507155129e+00
1.01103084355617678e+00
1.01103084355617678e+00
1.01103084355617678e+00
1.02395771920094769e+00
1.02395771920094769e+00
1.02395771920094769e+00
9.53415930119532629e-01
9.53415930119532629e-01
9.53415930119532629e-01
9.64378307356130726e-01
9.64378307356130726e-01
9.64378307356130726e-01
9.64088343638627387e-01
9.64088343638627387e-01
9.64088343638627387e-01
1.03124149628444051e+00
1.03124149628444051e+00
1.03124149628444051e+00
9.96543279344247468e-01
9.96543279344247468e-01
9.96543279344247468e-01
9.87095539255572141e-01
9.87095539255572141e-01
9.87095539255572141e-01
9.97843627068506600e-01
9.97843627068506600e-01
9.97843627068506600e-01
9.49683038184445438e-01
9.49683038184445438e-01
9.49683038184445438e-01
9.60092857365062446e-01
9.60092857365062446e-01
9.60092857365062446e-01
9.73645658688137572e-01
9.73645658688137572e-01
9.73645658688137572e-01
1.00808856477282527e+00
1.00808856477282527e+00
1.00808856477282527e+00
9.53726596038881214e-01
9.53726596038881214e-01
9.53726596038881214e-01
9.60034740733631597e-01
9.60034740733631597e-01
9.60034740733631597e-01
9.70870822016650648e-01
9.70870822016650648e-01
9.70870822016650648e-01
9.61252070057099561e-01
9.61252070057099561e-01
9.61252070057099561e-01
1.04164895193281226e+00
1.04164895193281226e+00
1.04164895193281226e+00
9.88201613445902516e-01
9.88201613445902516e-01
9.88201613445902516e-01
9.66717490248085509e-01
9.66717490248085509e-01
9.66717490248085509e-01
9.67516111261708445e-01
9.67516111261708445e-01
9.67516111261708445e-01
9.90352450853355770e-01
9.90352450853355770e-01
9.90352450853355770e-01
9.61545703374784511e-01
9.61545703374784511e-01
9.61545703374784511e-01
9.73350869192778911e-01
9.73350869192778911e-01
9.73350869192778911e-01
9.58391504405013417e-01
9.58391504405013417e-01
9.58391504405013417e-01
9.50311214500105472e-01
9.50311214500105472e-01
9.50311214500105472e-01
9.73421829227159918e-01
9.73421829227159918e-01
9.73421829227159918e-01
9.75059622384795488e-01
9.75059622384795488e-01
9.75059622384795488e-01
1.04847869117769488e+00
1.04847869117769488e+00
1.04847869117769488e+00
9.86734456204800048e-01
9.86734456204800048e-01
9.86734456204800048e-01
9.86175281868791553e-01
9.86175281868791553e-01
9.86175281868791553e-01
1.04556935732739520e+00
1.04556935732739520e+00
1.04556935732739520e+00
9.87012684043049315e-01
9.87012684043049315e-01
9.87012684043049315e-01
9.98564498983117166e-01
9.98564498983117166e-01
9.98564498983117166e-01
9.83432130467449150e-01
9.83432130467449150e-01
9.83432130467449150e-01
9.98764638278561656e-01
9.98764638278561656e-01
9.98764638278561656e-01
1.02155329220887170e+00
1.02155329220887170e+00
1.02155329220887170e+00
1.00791754857165827e+00
1.00791754857165827e+00
1.00791754857165827e+00
1.04036875116721039e+00
1.04036875116721039e+00
1.04036875116721039e+00
1.02685750726059233e+00
1.02685750726059233e+00
1.02685750726059233e+00
1.01324057127712397e+00
1.01324057127712397e+00
1.01324057127712397e+00
9.75403807067693696e-01
9.75403807067693696e-01
9.75403807067693696e-01
1.05830590967159166e+00
1.05830590967159166e+00
1.05830590967159166e+00
9.70712768336348342e-01
9.70712768336348342e-01
9.70712768336348342e-01
1.04459754239329650e+00
1.04459754239329650e+00
1.04459754239329650e+00
1.05427956647034948e+00
1.05427956647034948e+00
1.05427956647034948e+00
9.85448237218390033e-01
9.85448237218390033e-01
9.85448237218390033e-01
9.97341827681078485e-01
9.97341827681078485e-01
9.97341827681078485e-01
1.05694258961005128e+00
1.05694258961005128e+00
1.05694258961005128e+00
9.72435336655349536e-01
9.72435336655349536e-01
9.72435336655349536e-01
9.85080066268400389e-01
9.85080066268400389e-01
9.85080066268400389e-01
9.79549071210540578e-01
9.79549071210540578e-01
9.79549071210540578e-01
1.00262001842775206e+00
1.00262001842775206e+00
1.00262001842775206e+00
9.77330357586284948e-01
9.77330357586284948e-01
9.77330357586284948e-01
1.03016535374467155e+00
1.03016535374467155e+00
1.03016535374467155e+00
9.67882210121355890e-01
9.67882210121355890e-01
9.67882210121355890e-01
1.02076414164416018e+00
1.02076414164416018e+00
1.02076414164416018e+00
9.62440937277633801e-01
9.62440937277633801e-01
9.62440937277633801e-01
9.55062146091985031e-01
9.55062146091985031e-01
9.55062146091985031e-01
1.01667900462317773e+00
1.01667900462317773e+00
1.01667900462317773e+00
9.75332884837615821e-01
9.75332884837615821e-01
9.75332884837615821e-01
1.00305377434442344e+00
1.00305377434442344e+00
1.00305377434442344e+00
9.88178511636415458e-01
9.88178511636415458e-01
9.88178511636415458e-01
9.53642894714253120e-01
9.53642894714253120e-01
9.53642894714253120e-01
9.96313526779496694e-01
9.96313526779496694e-01
9.96313526779496694e-01
9.68093864473209997e-01
9.68093864473209997e-01
9.68093864473209997e-01
9.80575269252498161e-01
9.80575269252498161e-01
9.80575269252498161e-01
9.78295004940153978e-01
9.78295004940153978e-01
9.78295004940153978e-01
9.58964210048657728e-01
9.58964210048657728e-01
9.58964210048657728e-01
9.60007425984825802e-01
9.60007425984825802e-01
9.60007425984825802e-01
1.02420811689909153e+00
1.02420811689909153e+00
1.02420811689909153e+00
9.82940602464502988e-01
9.82940602464502988e-01
9.82940602464502988e-01
9.81799056362401612e-01
9.81799056362401612e-01
9.81799056362401612e-01
9.54865850494456270e-01
9.54865850494456270e-01
9.54865850494456270e-01
9.92832690034762266e-01
9.92832690034762266e-01
9.92832690034762266e-01
9.72121136789453000e-01
9.72121136789453000e-01
9.72121136789453000e-01
1.00192497078297738e+00
1.00192497078297738e+00
1.00192497078297738e+00
1.03349385858496245e+00
1.03349385858496245e+00
1.03349385858496245e+00
9.50970268140397534e-01
9.50970268140397534e-01
9.50970268140397534e-01
9.57852318376243295e-01
9.57852318376243295e-01
9.57852318376243295e-01
9.58865652561592730e-01
9.58865652561592730e-01
9.58865652561592730e-01
1.00137105252742398e+00
1.00137105252742398e+00
1.00137105252742398e+00
1.03948864954428699e+00
1.03948864954428699e+00
1.03948864954428699e+00
1.02551049942315697e+00
1.02551049942315697e+00
1.02551049942315697e+00
1.02420232319900029e+00
1.02420232319900029e+00
1.02420232319900029e+00
9.79142831837768179e-01
9.79142831837768179e-01
9.79142831837768179e-01
1.02242660071123859e+00
1.02242660071123859e+00
1.02242660071123859e+00
1.03627172206072360e+00
1.03627172206072360e+00
1.03627172206072360e+00
9.49815781264833014e-01
9.49815781264833014e-01
9.49815781264833014e-01
9.83513197072460876e-01
9.83513197072460876e-01
9.83513197072460876e-01
9.49436280004664290e-01
9.49436280004664290e-01
9.49436280004664290e-01
1.01533851696279220e+00
1.01533851696279220e+00
1.01533851696279220e+00
9.68243448090483017e-01
9.68243448090483017e-01
9.68243448090483017e-01
9.59346312414500746e-01
9.59346312414500746e-01
9.59346312414500746e-01
9.83495364349021295e-01
9.83495364349021295e-01
9.83495364349021295e-01
9.63474976017492213e-01
9.63474976017492213e-01
9.63474976017492213e-01
1.00695050757518523e+00
1.00695050757518523e+00
1.00695050757518523e+00
9.73522849694930414e-01
9.73522849694930414e-01
9.73522849694930414e-01
9.40180971314859004e-01
9.40180971314859004e-01
9.40180971314859004e-01
9.46517126203585524e-01
9.46517126203585524e-01
9.46517126203585524e-01
9.49802525191960734e-01
9.49802525191960734e-01
9.49802525191960734e-01
9.68395912342868925e-01
9.68395912342868925e-01
9.68395912342868925e-01
1.01996824316422541e+00
1.01996824316422541e+00
1.01996824316422541e+00
1.01639253447428457e+00
1.01639253447428457e+00
1.01639253447428457e+00
9.83567854721102197e-01
9.83567854721102197e-01
9.83567854721102197e-01
9.51917391870875762e-01
9.51917391870875762e-01
9.51917391870875762e-01
9.90942168556003145e-01
9.90942168556003145e-01
9.90942168556003145e-01
9.69950304340156944e-01
9.69950304340156944e-01
9.69950304340156944e-01
9.28677195442215941e-01
9.28677195442215941e-01
9.28677195442215941e-01
9.97138857549652147e-01
9.97138857549652147e-01
9.97138857549652147e-01
9.99170071028239071e-01
9.99170071028239071e-01
9.99170071028239071e-01
1.01026965654326872e+00
1.01026965654326872e+00
1.01026965654326872e+00
9.17733486055142711e-01
9.17733486055142711e-01
9.17733486055142711e-01
9.21730438775167582e-01
9.21730438775167582e-01
9.21730438775167582e-01
9.36444935174135074e-01
9.36444935174135074e-01
9.36444935174135074e-01
9.96742569861138961e-01
9.96742569861138961e-01
9.96742569861138961e-01
9.41424337093623498e-01
9.41424337093623498e-01
9.41424337093623498e-01
1.03468535308424414e+00
1.03468535308424414e+00
1.03468535308424414e+00
1.04229738523114257e+00
1.04229738523114257e+00
1.04229738523114257e+00
9.97154464154301090e-01
9.97154464154301090e-01
9.97154464154301090e-01
9.53230499939834997e-01
9.53230499939834997e-01
9.53230499939834997e-01
9.59136146740108164e-01
9.59136146740108164e-01
9.59136146740108164e-01
9.74906052515659982e-01
9.74906052515659982e-01
9.74906052515659982e-01
1.02652232964651269e+00
1.02652232964651269e+00
1.02652232964651269e+00
9.71352654518506053e-01
9.71352654518506053e-01
9.71352654518506053e-01
9.47969218364298816e-01
9.47969218364298816e-01
9.47969218364298816e-01
9.29797385198445125e-01
9.29797385198445125e-01
9.29797385198445125e-01
9.41852514116229722e-01
9.41852514116229722e-01
9.41852514116229722e-01
9.95942036125126218e-01
9.95942036125126218e-01
9.95942036125126218e-01
9.82519122184271065e-01
9.82519122184271065e-01
9.82519122184271065e-01
9.59946570600311078e-01
9.59946570600311078e-01
9.59946570600311078e-01
9.75707534319174341e-01
9.75707534319174341e-01
9.75707534319174341e-01
1.02021373320010200e+00
1.02021373320010200e+00
1.02021373320010200e+00
9.43701712654835267e-01
9.43701712654835267e-01
9.43701712654835267e-01
9.71351464943119192e-01
9.71351464943119192e-01
9.71351464943119192e-01
1.02415600943856111e+00
1.02415600943856111e+00
1.02415600943856111e+00
1.06764822172099305e+00
1.06764822172099305e+00
1.06764822172099305e+00
1.04683195118446504e+00
1.04683195118446504e+00
1.04683195118446504e+00
1.03305468178453230e+00
1.03305468178453230e+00
1.03305468178453230e+00
1.04687561919309857e+00
1.04687561919309857e+00
1.04687561919309857e+00
1.05328560615167488e+00
1.05328560615167488e+00
1.05328560615167488e+00
1.06047958459772906e+00
1.06047958459772906e+00
1.06047958459772906e+00
1.03457617323125528e+00
1.03457617323125528e+00
1.03457617323125528e+00
1.05523930121011089e+00
1.05523930121011089e+00
1.05523930121011089e+00
1.06319396739615502e+00
1.06319396739615502e+00
1.06319396739615502e+00
1.07011917342709806e+00
1.07011917342709806e+00
1.07011917342709806e+00
1.02458988914284377e+00
1.02458988914284377e+00
1.02458988914284377e+00
1.00499627457877172e+00
1.00499627457877172e+00
1.00499627457877172e+00
9.59601682713198123e-01
9.59601682713198123e-01
9.59601682713198123e-01
9.45035508567485638e-01
9.45035508567485638e-01
9.45035508567485638e-01
1.01307279779269543e+00
1.01307279779269543e+00
1.01307279779269543e+00
1.05261661241522164e+00
1.05261661241522164e+00
1.05261661241522164e+00
1.05280223685017349e+00
1.05280223685017349e+00
1.05280223685017349e+00
9.58286281224037140e-01
9.58286281224037140e-01
9.58286281224037140e-01
1.02722609677483945e+00
1.02722609677483945e+00
1.02722609677483945e+00
1.00485999191109032e+00
1.00485999191109032e+00
1.00485999191109032e+00
1.04327490229737063e+00
1.04327490229737063e+00
1.04327490229737063e+00


        </DataArray>

      </PointData>

      <CellData/>

      <Points>

        <DataArray type="Float64" NumberOfComponents="3" format="ascii">

0.1082531754723032 0.6875000000007816 0 0.23533274979922561 0.77093399389351469 0 0.10409951422139101 0.81206782209691231 0 0.23533274979922561 0.77093399389351469 0 0.1082531754723032 0.6875000000007816 0 0.21809253452218619 0.65480892822618109 0 0.24418615484441761 0.35773612382016978 0 0.121259140952891 0.43112117036853742 0 0.1082531754734323 0.31250000000117473 0 0.75000000000057243 0.35048094716480432 0 0.88173731489851925 0.33077402607778361 0 0.81242894672211508 0.45500248311961472 0 0.121259140952891 0.43112117036853742 0 0.24418615484441761 0.35773612382016978 0 0.22257735880419699 0.47344721641341742 0 0.81242894672211508 0.45500248311961472 0 0.88173731489851925 0.33077402607778361 0 0.915464298762109 0.43749999999886913 0 0 0.62500000000121547 0 0 0.50000000000206146 0 0.1371230538040123 0.56179824718362847 0 0.82212678063041267 0.67678595194836966 0 0.89051480781310632 0.79665793440246835 0 0.76243180583607129 0.78687675331113149 0 0.76243180583607129 0.78687675331113149 0 0.69010814643829166 0.89298495739101336 0 0.62844955668446423 0.7850749770380413 0 0.89051480781310632 0.79665793440246835 0 0.82212678063041267 0.67678595194836966 0 0.92266244547590082 0.68749999999917555 0 0 0.50000000000206146 0 0.121259140952891 0.43112117036853742 0 0.1371230538040123 0.56179824718362847 0 0.1082531754723032 0.6875000000007816 0 0 0.62500000000121547 0 0.1371230538040123 0.56179824718362847 0 0.75000000000032374 0.56698729811007709 0 0.88927506082488361 0.56409486310635837 0 0.82212678063041267 0.67678595194836966 0 0.81242894672211508 0.45500248311961472 0 0.88927506082488361 0.56409486310635837 0 0.75000000000032374 0.56698729811007709 0 0.69851598570178741 0.68211701800612057 0 0.56496004948275869 0.67675037307860475 0 0.62752533658682441 0.56838075195614346 0 0.69851598570178741 0.68211701800612057 0 0.76243180583607129 0.78687675331113149 0 0.62844955668446423 0.7850749770380413 0 0.23533274979922561 0.77093399389351469 0 0.18802967116092181 0.89415349436770275 0 0.10409951422139101 0.81206782209691231 0 0.121259140952891 0.43112117036853742 0 0.22257735880419699 0.47344721641341742 0 0.1371230538040123 0.56179824718362847 0 0.75000000000032374 0.56698729811007709 0 0.69851598570178741 0.68211701800612057 0 0.62752533658682441 0.56838075195614346 0 0.56496004948275869 0.67675037307860475 0 0.69851598570178741 0.68211701800612057 0 0.62844955668446423 0.7850749770380413 0 0.1371230538040123 0.56179824718362847 0 0.22257735880419699 0.47344721641341742 0 0.26982811998763367 0.56544650815856912 0 0.21809253452218619 0.65480892822618109 0 0.1371230538040123 0.56179824718362847 0 0.26982811998763367 0.56544650815856912 0 0.24418615484441761 0.35773612382016978 0 0.1082531754734323 0.31250000000117473 0 0.20767261601459541 0.25628918442207171 0 0.88173731489851925 0.33077402607778361 0 0.75000000000057243 0.35048094716480432 0 0.79891106056046712 0.25007334953587562 0 0.75000000000032374 0.56698729811007709 0 0.82212678063041267 0.67678595194836966 0 0.69851598570178741 0.68211701800612057 0 0.81249999999950517 0.1082531754733404 0 0.89658421694297741 0.1933620068391701 0 0.79891106056046712 0.25007334953587562 0 0.81249999999950517 0.1082531754733404 0 0.79891106056046712 0.25007334953587562 0 0.73983916756365475 0.17530677078674589 0 0.23533274979922561 0.77093399389351469 0 0.21809253452218619 0.65480892822618109 0 0.32607333794064219 0.67760114260606152 0 0.1082531754723032 0.6875000000007816 0 0.1371230538040123 0.56179824718362847 0 0.21809253452218619 0.65480892822618109 0 0.69851598570178741 0.68211701800612057 0 0.82212678063041267 0.67678595194836966 0 0.76243180583607129 0.78687675331113149 0 0.69010814643829166 0.89298495739101336 0 0.76243180583607129 0.78687675331113149 0 0.80886664387416207 0.89717308644237903 0 0.43750000000181222 0.89174682452709564 0 0.31258827852827581 0.89214793616708443 0 0.37776173212361452 0.78514649317305008 0 0.43750000000181222 0.89174682452709564 0 0.37500000000156292 1 0 0.31258827852827581 0.89214793616708443 0 0.121259140952891 0.43112117036853742 0 0 0.37500000000156292 0 0.1082531754734323 0.31250000000117473 0 0.50000000000206146 1 0 0.37500000000156292 1 0 0.43750000000181222 0.89174682452709564 0 0.31258827852827581 0.89214793616708443 0 0.18802967116092181 0.89415349436770275 0 0.23533274979922561 0.77093399389351469 0 0 0.50000000000206146 0 0 0.37500000000156292 0 0.121259140952891 0.43112117036853742 0 0.62844955668446423 0.7850749770380413 0 0.69010814643829166 0.89298495739101336 0 0.56327595140699671 0.89211526915426331 0 0.69010814643829166 0.89298495739101336 0 0.62500000000121547 1 0 0.56327595140699671 0.89211526915426331 0 0.25000000000104189 1 0 0.18802967116092181 0.89415349436770275 0 0.31258827852827581 0.89214793616708443 0 0.50000000000206146 1 0 0.43750000000181222 0.89174682452709564 0 0.56327595140699671 0.89211526915426331 0 0.56249999999885147 0.1082531754730395 0 0.62499999999901068 0 0 0.68749999999926592 0.1082531754732875 0 1 0.49999999999869221 0 1 0.62499999999901068 0 0.88927506082488361 0.56409486310635837 0 0 0.25000000000104189 0 0.12076953676380731 0.18690935762408761 0 0.1082531754734323 0.31250000000117473 0 0.49999999999869221 0 0 0.62499999999901068 0 0 0.56249999999885147 0.1082531754730395 0 0.62500000000121547 1 0 0.50000000000206146 1 0 0.56327595140699671 0.89211526915426331 0 0.37500000000156292 1 0 0.25000000000104189 1 0 0.31258827852827581 0.89214793616708443 0 0.31281086598417152 0.10449318608631281 0 0.37499999999904599 0 0 0.43749999999910871 0.1082531754729984 0 0.43750000000181222 0.89174682452709564 0 0.37776173212361452 0.78514649317305008 0 0.50046028868828263 0.78376912307435687 0 0 0.37500000000156292 0 0 0.25000000000104189 0 0.1082531754734323 0.31250000000117473 0 0.49999999999869221 0 0 0.56249999999885147 0.1082531754730395 0 0.43749999999910871 0.1082531754729984 0 0.43750000000181222 0.89174682452709564 0 0.50046028868828263 0.78376912307435687 0 0.56327595140699671 0.89211526915426331 0 0.74999999999934042 0 0 0.81249999999950517 0.1082531754733404 0 0.68749999999926592 0.1082531754732875 0 0.37499999999904599 0 0 0.49999999999869221 0 0 0.43749999999910871 0.1082531754729984 0 0.25000000000104189 1 0 0.12500000000052089 1 0 0.18802967116092181 0.89415349436770275 0 0.50046028868828263 0.78376912307435687 0 0.62844955668446423 0.7850749770380413 0 0.56327595140699671 0.89211526915426331 0 0.37776173212361452 0.78514649317305008 0 0.31258827852827581 0.89214793616708443 0 0.23533274979922561 0.77093399389351469 0 0.62499999999901068 0 0 0.74999999999934042 0 0 0.68749999999926592 0.1082531754732875 0 1 0.74999999999934042 0 1 0.87499999999967015 0 0.89051480781310632 0.79665793440246835 0 0 0.25000000000104189 0 0 0.12500000000052089 0 0.12076953676380731 0.18690935762408761 0 0.74999999999934042 0 0 0.87499999999967015 0 0 0.81249999999950517 0.1082531754733404 0 0.24999999999941069 0 0 0.37499999999904599 0 0 0.31281086598417152 0.10449318608631281 0 0.50046028868828263 0.78376912307435687 0 0.37776173212361452 0.78514649317305008 0 0.44078402250377968 0.67714785211715212 0 0.68768773896438518 0.4586835206367198 0 0.75000000000032374 0.56698729811007709 0 0.62752533658682441 0.56838075195614346 0 0.31411863959822661 0.24965544328045999 0 0.37953773393552892 0.34812185820708452 0 0.24418615484441761 0.35773612382016978 0 0.68768773896438518 0.4586835206367198 0 0.81242894672211508 0.45500248311961472 0 0.75000000000032374 0.56698729811007709 0 1 0.24999999999941069 0 1 0.37499999999904599 0 0.88173731489851925 0.33077402607778361 0 0 0.75000000000034761 0 0 0.62500000000121547 0 0.1082531754723032 0.6875000000007816 0 0.50048844149666749 0.56727788297625459 0 0.44078402250377968 0.67714785211715212 0 0.38694285807596462 0.5672991787102919 0 0.50108503093851109 0.35012252869403671 0 0.44301038174930041 0.45684931552185398 0 0.37953773393552892 0.34812185820708452 0 0.50046028868828263 0.78376912307435687 0 0.56496004948275869 0.67675037307860475 0 0.62844955668446423 0.7850749770380413 0 0.68768773896438518 0.4586835206367198 0 0.75000000000057243 0.35048094716480432 0 0.81242894672211508 0.45500248311961472 0 0.56349980387502452 0.45846841892908402 0 0.62512662990940393 0.35044303886909911 0 0.68768773896438518 0.4586835206367198 0 0.50048844149666749 0.56727788297625459 0 0.38694285807596462 0.5672991787102919 0 0.44301038174930041 0.45684931552185398 0 0.50046028868828263 0.78376912307435687 0 0.44078402250377968 0.67714785211715212 0 0.56496004948275869 0.67675037307860475 0 0.50108503093851109 0.35012252869403671 0 0.37953773393552892 0.34812185820708452 0 0.43750000000200551 0.24222777169198509 0 0.75000000000034761 1 0 0.62500000000121547 1 0 0.69010814643829166 0.89298495739101336 0 0.68768773896438518 0.4586835206367198 0 0.62512662990940393 0.35044303886909911 0 0.75000000000057243 0.35048094716480432 0 0.56496004948275869 0.67675037307860475 0 0.44078402250377968 0.67714785211715212 0 0.50048844149666749 0.56727788297625459 0 0.56349980387502452 0.45846841892908402 0 0.44301038174930041 0.45684931552185398 0 0.50108503093851109 0.35012252869403671 0 0.50048844149666749 0.56727788297625459 0 0.44301038174930041 0.45684931552185398 0 0.56349980387502452 0.45846841892908402 0 0.56349980387502452 0.45846841892908402 0 0.50108503093851109 0.35012252869403671 0 0.62512662990940393 0.35044303886909911 0 0.43750000000200551 0.24222777169198509 0 0.37953773393552892 0.34812185820708452 0 0.31411863959822661 0.24965544328045999 0 0.56496004948275869 0.67675037307860475 0 0.50048844149666749 0.56727788297625459 0 0.62752533658682441 0.56838075195614346 0 0.56349980387502452 0.45846841892908402 0 0.68768773896438518 0.4586835206367198 0 0.62752533658682441 0.56838075195614346 0 0.50048844149666749 0.56727788297625459 0 0.56349980387502452 0.45846841892908402 0 0.62752533658682441 0.56838075195614346 0 0.75000000000057243 0.35048094716480432 0 0.62512662990940393 0.35044303886909911 0 0.68668231842078242 0.24762892664808989 0 0.50108503093851109 0.35012252869403671 0 0.43750000000200551 0.24222777169198509 0 0.56250000000143974 0.2422277716920859 0 0.62512662990940393 0.35044303886909911 0 0.50108503093851109 0.35012252869403671 0 0.56250000000143974 0.2422277716920859 0 0.68668231842078242 0.24762892664808989 0 0.62512662990940393 0.35044303886909911 0 0.56250000000143974 0.2422277716920859 0 0.22257735880419699 0.47344721641341742 0 0.24418615484441761 0.35773612382016978 0 0.32815957677880009 0.4577243358118348 0 0.12076953676380731 0.18690935762408761 0 0.19185372118111221 0.092925648673580788 0 0.25103557339309318 0.17464499738446629 0 0.20767261601459541 0.25628918442207171 0 0.12076953676380731 0.18690935762408761 0 0.25103557339309318 0.17464499738446629 0 0 0.87499999999950151 0 0 0.75000000000034761 0 0.10409951422139101 0.81206782209691231 0 0.1249999999997731 0 0 0.24999999999941069 0 0 0.19185372118111221 0.092925648673580788 0 1 0.1249999999997731 0 1 0.24999999999941069 0 0.89658421694297741 0.1933620068391701 0 0.88927506082488361 0.56409486310635837 0 0.81242894672211508 0.45500248311961472 0 0.915464298762109 0.43749999999886913 0 0.87499999999950151 1 0 0.75000000000034761 1 0 0.80886664387416207 0.89717308644237903 0 0.75000000000034761 1 0 0.69010814643829166 0.89298495739101336 0 0.80886664387416207 0.89717308644237903 0 0.82212678063041267 0.67678595194836966 0 0.88927506082488361 0.56409486310635837 0 0.92266244547590082 0.68749999999917555 0 0 0.75000000000034761 0 0.1082531754723032 0.6875000000007816 0 0.10409951422139101 0.81206782209691231 0 0.24999999999941069 0 0 0.31281086598417152 0.10449318608631281 0 0.19185372118111221 0.092925648673580788 0 1 0.24999999999941069 0 0.88173731489851925 0.33077402607778361 0 0.89658421694297741 0.1933620068391701 0 0.32815957677880009 0.4577243358118348 0 0.38694285807596462 0.5672991787102919 0 0.26982811998763367 0.56544650815856912 0 0.76243180583607129 0.78687675331113149 0 0.89051480781310632 0.79665793440246835 0 0.80886664387416207 0.89717308644237903 0 0.38694285807596462 0.5672991787102919 0 0.44078402250377968 0.67714785211715212 0 0.32607333794064219 0.67760114260606152 0 0.37776173212361452 0.78514649317305008 0 0.23533274979922561 0.77093399389351469 0 0.32607333794064219 0.67760114260606152 0 1 0.49999999999869221 0 0.88927506082488361 0.56409486310635837 0 0.915464298762109 0.43749999999886913 0 0.88173731489851925 0.33077402607778361 0 1 0.37499999999904599 0 0.915464298762109 0.43749999999886913 0 0.24418615484441761 0.35773612382016978 0 0.37953773393552892 0.34812185820708452 0 0.32815957677880009 0.4577243358118348 0 0.44301038174930041 0.45684931552185398 0 0.38694285807596462 0.5672991787102919 0 0.32815957677880009 0.4577243358118348 0 0.88927506082488361 0.56409486310635837 0 1 0.62499999999901068 0 0.92266244547590082 0.68749999999917555 0 1 0.74999999999934042 0 0.89051480781310632 0.79665793440246835 0 0.92266244547590082 0.68749999999917555 0 0 1 0 0 0.87499999999950151 0 0.091506350946494744 0.90849364905351082 0 1 1 0 0.87499999999950151 1 0 0.90849364905363228 0.90849364905367769 0 0 0 0 0.1249999999997731 0 0 0.091506350946417708 0.091506350946618076 0 0 0.12500000000052089 0 0 0 0 0.091506350946417708 0.091506350946618076 0 1 0 0 1 0.1249999999997731 0 0.90849364905355434 0.091506350946296292 0 0.87499999999967015 0 0 1 0 0 0.90849364905355434 0.091506350946296292 0 0.12500000000052089 1 0 0 1 0 0.091506350946494744 0.90849364905351082 0 1 0.87499999999967015 0 1 1 0 0.90849364905363228 0.90849364905367769 0 0.38694285807596462 0.5672991787102919 0 0.32607333794064219 0.67760114260606152 0 0.26982811998763367 0.56544650815856912 0 0.31411863959822661 0.24965544328045999 0 0.24418615484441761 0.35773612382016978 0 0.20767261601459541 0.25628918442207171 0 0.1082531754734323 0.31250000000117473 0 0.12076953676380731 0.18690935762408761 0 0.20767261601459541 0.25628918442207171 0 0.75000000000057243 0.35048094716480432 0 0.68668231842078242 0.24762892664808989 0 0.79891106056046712 0.25007334953587562 0 0.22257735880419699 0.47344721641341742 0 0.32815957677880009 0.4577243358118348 0 0.26982811998763367 0.56544650815856912 0 0.44078402250377968 0.67714785211715212 0 0.37776173212361452 0.78514649317305008 0 0.32607333794064219 0.67760114260606152 0 0.89658421694297741 0.1933620068391701 0 0.88173731489851925 0.33077402607778361 0 0.79891106056046712 0.25007334953587562 0 1 0.37499999999904599 0 1 0.49999999999869221 0 0.915464298762109 0.43749999999886913 0 0.37953773393552892 0.34812185820708452 0 0.44301038174930041 0.45684931552185398 0 0.32815957677880009 0.4577243358118348 0 0.32607333794064219 0.67760114260606152 0 0.21809253452218619 0.65480892822618109 0 0.26982811998763367 0.56544650815856912 0 1 0.1249999999997731 0 0.89658421694297741 0.1933620068391701 0 0.90849364905355434 0.091506350946296292 0 0 0.87499999999950151 0 0.10409951422139101 0.81206782209691231 0 0.091506350946494744 0.90849364905351082 0 0.1249999999997731 0 0 0.19185372118111221 0.092925648673580788 0 0.091506350946417708 0.091506350946618076 0 1 0.62499999999901068 0 1 0.74999999999934042 0 0.92266244547590082 0.68749999999917555 0 0.18802967116092181 0.89415349436770275 0 0.12500000000052089 1 0 0.091506350946494744 0.90849364905351082 0 0.89051480781310632 0.79665793440246835 0 1 0.87499999999967015 0 0.90849364905363228 0.90849364905367769 0 0.12076953676380731 0.18690935762408761 0 0 0.12500000000052089 0 0.091506350946417708 0.091506350946618076 0 0.81249999999950517 0.1082531754733404 0 0.87499999999967015 0 0 0.90849364905355434 0.091506350946296292 0 0.87499999999950151 1 0 0.80886664387416207 0.89717308644237903 0 0.90849364905363228 0.90849364905367769 0 0.68668231842078242 0.24762892664808989 0 0.62499999999892575 0.17524047358135519 0 0.73983916756365475 0.17530677078674589 0 0.31281086598417152 0.10449318608631281 0 0.43749999999910871 0.1082531754729984 0 0.37500000000232431 0.17524047358384309 0 0.62499999999892575 0.17524047358135519 0 0.56250000000143974 0.2422277716920859 0 0.49999999999934441 0.1752404735815076 0 0.56249999999885147 0.1082531754730395 0 0.68749999999926592 0.1082531754732875 0 0.62499999999892575 0.17524047358135519 0 0.56249999999885147 0.1082531754730395 0 0.62499999999892575 0.17524047358135519 0 0.49999999999934441 0.1752404735815076 0 0.56250000000143974 0.2422277716920859 0 0.43750000000200551 0.24222777169198509 0 0.49999999999934441 0.1752404735815076 0 0.43749999999910871 0.1082531754729984 0 0.56249999999885147 0.1082531754730395 0 0.49999999999934441 0.1752404735815076 0 0.68668231842078242 0.24762892664808989 0 0.56250000000143974 0.2422277716920859 0 0.62499999999892575 0.17524047358135519 0 0.43750000000200551 0.24222777169198509 0 0.31411863959822661 0.24965544328045999 0 0.37500000000232431 0.17524047358384309 0 0.49999999999934441 0.1752404735815076 0 0.43750000000200551 0.24222777169198509 0 0.37500000000232431 0.17524047358384309 0 0.43749999999910871 0.1082531754729984 0 0.49999999999934441 0.1752404735815076 0 0.37500000000232431 0.17524047358384309 0 0.62499999999892575 0.17524047358135519 0 0.68749999999926592 0.1082531754732875 0 0.73983916756365475 0.17530677078674589 0 0.68749999999926592 0.1082531754732875 0 0.81249999999950517 0.1082531754733404 0 0.73983916756365475 0.17530677078674589 0 0.10409951422139101 0.81206782209691231 0 0.18802967116092181 0.89415349436770275 0 0.091506350946494744 0.90849364905351082 0 0.89658421694297741 0.1933620068391701 0 0.81249999999950517 0.1082531754733404 0 0.90849364905355434 0.091506350946296292 0 0.19185372118111221 0.092925648673580788 0 0.12076953676380731 0.18690935762408761 0 0.091506350946417708 0.091506350946618076 0 0.37500000000232431 0.17524047358384309 0 0.31411863959822661 0.24965544328045999 0 0.25103557339309318 0.17464499738446629 0 0.31281086598417152 0.10449318608631281 0 0.37500000000232431 0.17524047358384309 0 0.25103557339309318 0.17464499738446629 0 0.80886664387416207 0.89717308644237903 0 0.89051480781310632 0.79665793440246835 0 0.90849364905363228 0.90849364905367769 0 0.19185372118111221 0.092925648673580788 0 0.31281086598417152 0.10449318608631281 0 0.25103557339309318 0.17464499738446629 0 0.79891106056046712 0.25007334953587562 0 0.68668231842078242 0.24762892664808989 0 0.73983916756365475 0.17530677078674589 0 0.31411863959822661 0.24965544328045999 0 0.20767261601459541 0.25628918442207171 0 0.25103557339309318 0.17464499738446629 0 

        </DataArray>

      </Points>

      <Cells>

        <DataArray type="Int32" Name="connectivity" format="ascii">

0 1 2 3 4 5 6 7 8 9 10 11 12 13 14 15 16 17 18 19 20 21 22 23 24 25 26 27 28 29 30 31 32 33 34 35 36 37 38 39 40 41 42 43 44 45 46 47 48 49 50 51 52 53 54 55 56 57 58 59 60 61 62 63 64 65 66 67 68 69 70 71 72 73 74 75 76 77 78 79 80 81 82 83 84 85 86 87 88 89 90 91 92 93 94 95 96 97 98 99 100 101 102 103 104 105 106 107 108 109 110 111 112 113 114 115 116 117 118 119 120 121 122 123 124 125 126 127 128 129 130 131 132 133 134 135 136 137 138 139 140 141 142 143 144 145 146 147 148 149 150 151 152 153 154 155 156 157 158 159 160 161 162 163 164 165 166 167 168 169 170 171 172 173 174 175 176 177 178 179 180 181 182 183 184 185 186 187 188 189 190 191 192 193 194 195 196 197 198 199 200 201 202 203 204 205 206 207 208 209 210 211 212 213 214 215 216 217 218 219 220 221 222 223 224 225 226 227 228 229 230 231 232 233 234 235 236 237 238 239 240 241 242 243 244 245 246 247 248 249 250 251 252 253 254 255 256 257 258 259 260 261 262 263 264 265 266 267 268 269 270 271 272 273 274 275 276 277 278 279 280 281 282 283 284 285 286 287 288 289 290 291 292 293 294 295 296 297 298 299 300 301 302 303 304 305 306 307 308 309 310 311 312 313 314 315 316 317 318 319 320 321 322 323 324 325 326 327 328 329 330 331 332 333 334 335 336 337 338 339 340 341 342 343 344 345 346 347 348 349 350 351 352 353 354 355 356 357 358 359 360 361 362 363 364 365 366 367 368 369 370 371 372 373 374 375 376 377 378 379 380 381 382 383 384 385 386 387 388 389 390 391 392 393 394 395 396 397 398 399 400 401 402 403 404 405 406 407 408 409 410 411 412 413 414 415 416 417 418 419 420 421 422 423 424 425 426 427 428 429 430 431 432 433 434 435 436 437 438 439 440 441 442 443 444 445 446 447 448 449 450 451 452 453 454 455 456 457 458 459 460 461 462 463 464 465 466 467 468 469 470 471 472 473 474 475 476 477 478 479 480 481 482 483 484 485 

        </DataArray>

        <DataArray type="Int32" Name="offsets" format="ascii">

3 6 9 12 15 18 21 24 27 30 33 36 39 42 45 48 51 54 57 60 63 66 69 72 75 78 81 84 87 90 93 96 99 102 105 108 111 114 117 120 123 126 129 132 135 138 141 144 147 150 153 156 159 162 165 168 171 174 177 180 183 186 189 192 195 198 201 204 207 210 213 216 219 222 225 228 231 234 237 240 243 246 249 252 255 258 261 264 267 270 273 276 279 282 285 288 291 294 297 300 303 306 309 312 315 318 321 324 327 330 333 336 339 342 345 348 351 354 357 360 363 366 369 372 375 378 381 384 387 390 393 396 399 402 405 408 411 414 417 420 423 426 429 432 435 438 441 444 447 450 453 456 459 462 465 468 471 474 477 480 483 486 

        </DataArray>

        <DataArray type="Int32" Name="types" format="ascii">

5 5 5 5 5 5 5 5 5 5 5 5 5 5 5 5 5 5 5 5 5 5 5 5 5 5 5 5 5 5 5 5 5 5 5 5 5 5 5 5 5 5 5 5 5 5 5 5 5 5 5 5 5 5 5 5 5 5 5 5 5 5 5 5 5 5 5 5 5 5 5 5 5 5 5 5 5 5 5 5 5 5 5 5 5 5 5 5 5 5 5 5 5 5 5 5 5 5 5 5 5 5 5 5 5 5 5 5 5 5 5 5 5 5 5 5 5 5 5 5 5 5 5 5 5 5 5 5 5 5 5 5 5 5 5 5 5 5 5 5 5 5 5 5 5 5 5 5 5 5 5 5 5 5 5 5 5 5 5 5 5 5 

        </DataArray>

      </Cells>

    </Piece>

  </UnstructuredGrid>

</VTKFile>

