<?xml version="1.0"?>

<VTKFile type="UnstructuredGrid" version="0.1">

  <UnstructuredGrid>

    <Piece NumberOfPoints="486" NumberOfCells="162">

      <PointData>

        <DataArray type="Float64" Name="K" format="ascii">

1.00526158890048634e+00
1.00526158890048634e+00
1.00526158890048634e+00
1.00480061291545120e+00
1.00480061291545120e+00
1.00480061291545120e+00
1.00078651106032179e+00
1.00078651106032179e+00
1.00078651106032179e+00
9.92524431782770389e-01
9.92524431782770389e-01
9.92524431782770389e-01
1.02918735805454808e+00
1.02918735805454808e+00
1.02918735805454808e+00
9.88651186309827290e-01
9.88651186309827290e-01
9.88651186309827290e-01
1.04641173212747196e+00
1.04641173212747196e+00
1.04641173212747196e+00
9.92784415085167793e-01
9.92784415085167793e-01
9.92784415085167793e-01
1.02599399275657577e+00
1.02599399275657577e+00
1.02599399275657577e+00
9.85018450107175370e-01
9.85018450107175370e-01
9.85018450107175370e-01
1.01993746326816459e+00
1.01993746326816459e+00
1.01993746326816459e+00
1.04569675317278543e+00
1.04569675317278543e+00
1.04569675317278543e+00
9.66255231051021735e-01
9.66255231051021735e-01
9.66255231051021735e-01
9.65024694119912430e-01
9.65024694119912430e-01
9.65024694119912430e-01
1.02257404243103567e+00
1.02257404243103567e+00
1.02257404243103567e+00
1.00934509836226827e+00
1.00934509836226827e+00
1.00934509836226827e+00
9.71564526308084431e-01
9.71564526308084431e-01
9.71564526308084431e-01
1.02606710088021558e+00
1.02606710088021558e+00
1.02606710088021558e+00
1.00795495883613295e+00
1.00795495883613295e+00
1.00795495883613295e+00
1.00786802215274829e+00
1.00786802215274829e+00
1.00786802215274829e+00
1.04205949112683749e+00
1.04205949112683749e+00
1.04205949112683749e+00
1.03246878092595629e+00
1.03246878092595629e+00
1.03246878092595629e+00
1.00096966537108067e+00
1.00096966537108067e+00
1.00096966537108067e+00
1.00626264369629448e+00
1.00626264369629448e+00
1.00626264369629448e+00
9.78049738583412598e-01
9.78049738583412598e-01
9.78049738583412598e-01
1.01151255320459965e+00
1.01151255320459965e+00
1.01151255320459965e+00
1.00175173998181100e+00
1.00175173998181100e+00
1.00175173998181100e+00
9.88554591213314571e-01
9.88554591213314571e-01
9.88554591213314571e-01
1.03037082512534228e+00
1.03037082512534228e+00
1.03037082512534228e+00
9.92374520382981573e-01
9.92374520382981573e-01
9.92374520382981573e-01
1.03677586979198333e+00
1.03677586979198333e+00
1.03677586979198333e+00
9.89082893695431009e-01
9.89082893695431009e-01
9.89082893695431009e-01
9.88835691447012777e-01
9.88835691447012777e-01
9.88835691447012777e-01
9.97059220651323019e-01
9.97059220651323019e-01
9.97059220651323019e-01
9.69064242273872889e-01
9.69064242273872889e-01
9.69064242273872889e-01
9.61440296696679964e-01
9.61440296696679964e-01
9.61440296696679964e-01
1.02545329269083951e+00
1.02545329269083951e+00
1.02545329269083951e+00
1.00598444046742519e+00
1.00598444046742519e+00
1.00598444046742519e+00
1.01493161131153475e+00
1.01493161131153475e+00
1.01493161131153475e+00
9.63752302168416120e-01
9.63752302168416120e-01
9.63752302168416120e-01
9.58999728492949011e-01
9.58999728492949011e-01
9.58999728492949011e-01
1.02924288093123639e+00
1.02924288093123639e+00
1.02924288093123639e+00
1.01956873949860971e+00
1.01956873949860971e+00
1.01956873949860971e+00
9.76007644807720953e-01
9.76007644807720953e-01
9.76007644807720953e-01
1.04904838193002758e+00
1.04904838193002758e+00
1.04904838193002758e+00
9.76829847685699248e-01
9.76829847685699248e-01
9.76829847685699248e-01
9.84594020419802596e-01
9.84594020419802596e-01
9.84594020419802596e-01
9.79172324682948347e-01
9.79172324682948347e-01
9.79172324682948347e-01
9.79938601341986404e-01
9.79938601341986404e-01
9.79938601341986404e-01
9.98945334217100522e-01
9.98945334217100522e-01
9.98945334217100522e-01
1.05739096015123946e+00
1.05739096015123946e+00
1.05739096015123946e+00
9.66069709144618982e-01
9.66069709144618982e-01
9.66069709144618982e-01
9.74784012801001909e-01
9.74784012801001909e-01
9.74784012801001909e-01
1.00226786339126761e+00
1.00226786339126761e+00
1.00226786339126761e+00
9.55313315104844185e-01
9.55313315104844185e-01
9.55313315104844185e-01
9.78577218216737710e-01
9.78577218216737710e-01
9.78577218216737710e-01
9.77360617383079999e-01
9.77360617383079999e-01
9.77360617383079999e-01
9.84076819975027828e-01
9.84076819975027828e-01
9.84076819975027828e-01
9.70982589382163863e-01
9.70982589382163863e-01
9.70982589382163863e-01
9.59955110243412402e-01
9.59955110243412402e-01
9.59955110243412402e-01
9.84601490787046063e-01
9.84601490787046063e-01
9.84601490787046063e-01
9.60123974832003735e-01
9.60123974832003735e-01
9.60123974832003735e-01
9.80297250308808765e-01
9.80297250308808765e-01
9.80297250308808765e-01
1.02550238216137868e+00
1.02550238216137868e+00
1.02550238216137868e+00
1.04923841247806005e+00
1.04923841247806005e+00
1.04923841247806005e+00
9.92326795259953709e-01
9.92326795259953709e-01
9.92326795259953709e-01
1.01147902504403109e+00
1.01147902504403109e+00
1.01147902504403109e+00
1.06749845342317662e+00
1.06749845342317662e+00
1.06749845342317662e+00
9.81362521213440475e-01
9.81362521213440475e-01
9.81362521213440475e-01
1.04036564992819947e+00
1.04036564992819947e+00
1.04036564992819947e+00
9.91792480799377985e-01
9.91792480799377985e-01
9.91792480799377985e-01
1.00823948594837898e+00
1.00823948594837898e+00
1.00823948594837898e+00
1.06746746929241065e+00
1.06746746929241065e+00
1.06746746929241065e+00
9.92511325467361316e-01
9.92511325467361316e-01
9.92511325467361316e-01
9.87950980122339950e-01
9.87950980122339950e-01
9.87950980122339950e-01
1.06234509482511497e+00
1.06234509482511497e+00
1.06234509482511497e+00
1.05237490972757364e+00
1.05237490972757364e+00
1.05237490972757364e+00
1.04814911333194338e+00
1.04814911333194338e+00
1.04814911333194338e+00
9.97338419256153519e-01
9.97338419256153519e-01
9.97338419256153519e-01
1.03737323035281870e+00
1.03737323035281870e+00
1.03737323035281870e+00
1.01934120676010020e+00
1.01934120676010020e+00
1.01934120676010020e+00
1.06394945282124298e+00
1.06394945282124298e+00
1.06394945282124298e+00
1.05484164455670459e+00
1.05484164455670459e+00
1.05484164455670459e+00
1.02795571480618064e+00
1.02795571480618064e+00
1.02795571480618064e+00
1.05922748307575532e+00
1.05922748307575532e+00
1.05922748307575532e+00
1.04295665168709029e+00
1.04295665168709029e+00
1.04295665168709029e+00
1.04367836236191946e+00
1.04367836236191946e+00
1.04367836236191946e+00
1.07802431075134608e+00
1.07802431075134608e+00
1.07802431075134608e+00
1.07273228520007025e+00
1.07273228520007025e+00
1.07273228520007025e+00
1.06088667702540684e+00
1.06088667702540684e+00
1.06088667702540684e+00
1.05517246533131259e+00
1.05517246533131259e+00
1.05517246533131259e+00
9.86103991180108053e-01
9.86103991180108053e-01
9.86103991180108053e-01
9.88804660589086226e-01
9.88804660589086226e-01
9.88804660589086226e-01
1.06450395471172299e+00
1.06450395471172299e+00
1.06450395471172299e+00
9.89441458527103190e-01
9.89441458527103190e-01
9.89441458527103190e-01
9.92265334694857337e-01
9.92265334694857337e-01
9.92265334694857337e-01
9.81677086719993541e-01
9.81677086719993541e-01
9.81677086719993541e-01
1.01853441887976270e+00
1.01853441887976270e+00
1.01853441887976270e+00
1.04911895705307168e+00
1.04911895705307168e+00
1.04911895705307168e+00
9.83860400932015211e-01
9.83860400932015211e-01
9.83860400932015211e-01
1.05380796223645357e+00
1.05380796223645357e+00
1.05380796223645357e+00
9.77715468584696046e-01
9.77715468584696046e-01
9.77715468584696046e-01
1.00603375082966129e+00
1.00603375082966129e+00
1.00603375082966129e+00
1.02270411569932462e+00
1.02270411569932462e+00
1.02270411569932462e+00
1.00650941234241209e+00
1.00650941234241209e+00
1.00650941234241209e+00
9.77654083499667315e-01
9.77654083499667315e-01
9.77654083499667315e-01
9.77709789428175435e-01
9.77709789428175435e-01
9.77709789428175435e-01
1.01472280983193142e+00
1.01472280983193142e+00
1.01472280983193142e+00
1.01091495056016023e+00
1.01091495056016023e+00
1.01091495056016023e+00
1.05700782076394462e+00
1.05700782076394462e+00
1.05700782076394462e+00
1.01063696280101256e+00
1.01063696280101256e+00
1.01063696280101256e+00
1.00191254964380505e+00
1.00191254964380505e+00
1.00191254964380505e+00
9.79613552794719289e-01
9.79613552794719289e-01
9.79613552794719289e-01
1.03998895017226878e+00
1.03998895017226878e+00
1.03998895017226878e+00
9.90024527465518722e-01
9.90024527465518722e-01
9.90024527465518722e-01
9.50324669340328776e-01
9.50324669340328776e-01
9.50324669340328776e-01
9.34455413158051473e-01
9.34455413158051473e-01
9.34455413158051473e-01
9.86522755935518636e-01
9.86522755935518636e-01
9.86522755935518636e-01
1.00306945110525869e+00
1.00306945110525869e+00
1.00306945110525869e+00
1.00498638887369407e+00
1.00498638887369407e+00
1.00498638887369407e+00
9.91912002782207147e-01
9.91912002782207147e-01
9.91912002782207147e-01
9.99250875230854985e-01
9.99250875230854985e-01
9.99250875230854985e-01
1.02311392476672447e+00
1.02311392476672447e+00
1.02311392476672447e+00
9.82287257459843910e-01
9.82287257459843910e-01
9.82287257459843910e-01
1.01939493618703159e+00
1.01939493618703159e+00
1.01939493618703159e+00
1.04916113284721191e+00
1.04916113284721191e+00
1.04916113284721191e+00
9.77779918130228465e-01
9.77779918130228465e-01
9.77779918130228465e-01
1.01043331271802961e+00
1.01043331271802961e+00
1.01043331271802961e+00
1.03158703446725397e+00
1.03158703446725397e+00
1.03158703446725397e+00
1.03682901825976459e+00
1.03682901825976459e+00
1.03682901825976459e+00
1.00852328909651745e+00
1.00852328909651745e+00
1.00852328909651745e+00
1.00231917477096011e+00
1.00231917477096011e+00
1.00231917477096011e+00
1.03603933928120395e+00
1.03603933928120395e+00
1.03603933928120395e+00
9.78713586385333456e-01
9.78713586385333456e-01
9.78713586385333456e-01
9.86810902909594945e-01
9.86810902909594945e-01
9.86810902909594945e-01
9.71091776602968970e-01
9.71091776602968970e-01
9.71091776602968970e-01
9.74083246576496142e-01
9.74083246576496142e-01
9.74083246576496142e-01
9.55818232334094242e-01
9.55818232334094242e-01
9.55818232334094242e-01
1.00550621068771151e+00
1.00550621068771151e+00
1.00550621068771151e+00
9.91558613017581747e-01
9.91558613017581747e-01
9.91558613017581747e-01
1.01928752574174064e+00
1.01928752574174064e+00
1.01928752574174064e+00
1.00412351332247973e+00
1.00412351332247973e+00
1.00412351332247973e+00
1.08070201155600265e+00
1.08070201155600265e+00
1.08070201155600265e+00
1.03992174621373490e+00
1.03992174621373490e+00
1.03992174621373490e+00
1.07829849475056982e+00
1.07829849475056982e+00
1.07829849475056982e+00
1.08624621926898679e+00
1.08624621926898679e+00
1.08624621926898679e+00
1.07758002772438299e+00
1.07758002772438299e+00
1.07758002772438299e+00
1.05356985590959185e+00
1.05356985590959185e+00
1.05356985590959185e+00
1.04156300772314081e+00
1.04156300772314081e+00
1.04156300772314081e+00
1.06512822975390753e+00
1.06512822975390753e+00
1.06512822975390753e+00
1.05331145992703412e+00
1.05331145992703412e+00
1.05331145992703412e+00
1.00752010330008113e+00
1.00752010330008113e+00
1.00752010330008113e+00
9.87034200430960795e-01
9.87034200430960795e-01
9.87034200430960795e-01
9.86923777216683229e-01
9.86923777216683229e-01
9.86923777216683229e-01
1.01253576748953056e+00
1.01253576748953056e+00
1.01253576748953056e+00
9.77456692448300912e-01
9.77456692448300912e-01
9.77456692448300912e-01
1.00935341776348553e+00
1.00935341776348553e+00
1.00935341776348553e+00
9.90492307325730015e-01
9.90492307325730015e-01
9.90492307325730015e-01
9.88010427257534074e-01
9.88010427257534074e-01
9.88010427257534074e-01
9.82283901682388549e-01
9.82283901682388549e-01
9.82283901682388549e-01
1.01036373958994097e+00
1.01036373958994097e+00
1.01036373958994097e+00
1.00505282214814740e+00
1.00505282214814740e+00
1.00505282214814740e+00


        </DataArray>

      </PointData>

      <CellData/>

      <Points>

        <DataArray type="Float64" NumberOfComponents="3" format="ascii">

0.1082531754723032 0.6875000000007816 0 0.23533274979922561 0.77093399389351469 0 0.10409951422139101 0.81206782209691231 0 0.23533274979922561 0.77093399389351469 0 0.1082531754723032 0.6875000000007816 0 0.21809253452218619 0.65480892822618109 0 0.24418615484441761 0.35773612382016978 0 0.121259140952891 0.43112117036853742 0 0.1082531754734323 0.31250000000117473 0 0.75000000000057243 0.35048094716480432 0 0.88173731489851925 0.33077402607778361 0 0.81242894672211508 0.45500248311961472 0 0.121259140952891 0.43112117036853742 0 0.24418615484441761 0.35773612382016978 0 0.22257735880419699 0.47344721641341742 0 0.81242894672211508 0.45500248311961472 0 0.88173731489851925 0.33077402607778361 0 0.915464298762109 0.43749999999886913 0 0 0.62500000000121547 0 0 0.50000000000206146 0 0.1371230538040123 0.56179824718362847 0 0.82212678063041267 0.67678595194836966 0 0.89051480781310632 0.79665793440246835 0 0.76243180583607129 0.78687675331113149 0 0.76243180583607129 0.78687675331113149 0 0.69010814643829166 0.89298495739101336 0 0.62844955668446423 0.7850749770380413 0 0.89051480781310632 0.79665793440246835 0 0.82212678063041267 0.67678595194836966 0 0.92266244547590082 0.68749999999917555 0 0 0.50000000000206146 0 0.121259140952891 0.43112117036853742 0 0.1371230538040123 0.56179824718362847 0 0.1082531754723032 0.6875000000007816 0 0 0.62500000000121547 0 0.1371230538040123 0.56179824718362847 0 0.75000000000032374 0.56698729811007709 0 0.88927506082488361 0.56409486310635837 0 0.82212678063041267 0.67678595194836966 0 0.81242894672211508 0.45500248311961472 0 0.88927506082488361 0.56409486310635837 0 0.75000000000032374 0.56698729811007709 0 0.69851598570178741 0.68211701800612057 0 0.56496004948275869 0.67675037307860475 0 0.62752533658682441 0.56838075195614346 0 0.69851598570178741 0.68211701800612057 0 0.76243180583607129 0.78687675331113149 0 0.62844955668446423 0.7850749770380413 0 0.23533274979922561 0.77093399389351469 0 0.18802967116092181 0.89415349436770275 0 0.10409951422139101 0.81206782209691231 0 0.121259140952891 0.43112117036853742 0 0.22257735880419699 0.47344721641341742 0 0.1371230538040123 0.56179824718362847 0 0.75000000000032374 0.56698729811007709 0 0.69851598570178741 0.68211701800612057 0 0.62752533658682441 0.56838075195614346 0 0.56496004948275869 0.67675037307860475 0 0.69851598570178741 0.68211701800612057 0 0.62844955668446423 0.7850749770380413 0 0.1371230538040123 0.56179824718362847 0 0.22257735880419699 0.47344721641341742 0 0.26982811998763367 0.56544650815856912 0 0.21809253452218619 0.65480892822618109 0 0.1371230538040123 0.56179824718362847 0 0.26982811998763367 0.56544650815856912 0 0.24418615484441761 0.35773612382016978 0 0.1082531754734323 0.31250000000117473 0 0.20767261601459541 0.25628918442207171 0 0.88173731489851925 0.33077402607778361 0 0.75000000000057243 0.35048094716480432 0 0.79891106056046712 0.25007334953587562 0 0.75000000000032374 0.56698729811007709 0 0.82212678063041267 0.67678595194836966 0 0.69851598570178741 0.68211701800612057 0 0.81249999999950517 0.1082531754733404 0 0.89658421694297741 0.1933620068391701 0 0.79891106056046712 0.25007334953587562 0 0.81249999999950517 0.1082531754733404 0 0.79891106056046712 0.25007334953587562 0 0.73983916756365475 0.17530677078674589 0 0.23533274979922561 0.77093399389351469 0 0.21809253452218619 0.65480892822618109 0 0.32607333794064219 0.67760114260606152 0 0.1082531754723032 0.6875000000007816 0 0.1371230538040123 0.56179824718362847 0 0.21809253452218619 0.65480892822618109 0 0.69851598570178741 0.68211701800612057 0 0.82212678063041267 0.67678595194836966 0 0.76243180583607129 0.78687675331113149 0 0.69010814643829166 0.89298495739101336 0 0.76243180583607129 0.78687675331113149 0 0.80886664387416207 0.89717308644237903 0 0.43750000000181222 0.89174682452709564 0 0.31258827852827581 0.89214793616708443 0 0.37776173212361452 0.78514649317305008 0 0.43750000000181222 0.89174682452709564 0 0.37500000000156292 1 0 0.31258827852827581 0.89214793616708443 0 0.121259140952891 0.43112117036853742 0 0 0.37500000000156292 0 0.1082531754734323 0.31250000000117473 0 0.50000000000206146 1 0 0.37500000000156292 1 0 0.43750000000181222 0.89174682452709564 0 0.31258827852827581 0.89214793616708443 0 0.18802967116092181 0.89415349436770275 0 0.23533274979922561 0.77093399389351469 0 0 0.50000000000206146 0 0 0.37500000000156292 0 0.121259140952891 0.43112117036853742 0 0.62844955668446423 0.7850749770380413 0 0.69010814643829166 0.89298495739101336 0 0.56327595140699671 0.89211526915426331 0 0.69010814643829166 0.89298495739101336 0 0.62500000000121547 1 0 0.56327595140699671 0.89211526915426331 0 0.25000000000104189 1 0 0.18802967116092181 0.89415349436770275 0 0.31258827852827581 0.89214793616708443 0 0.50000000000206146 1 0 0.43750000000181222 0.89174682452709564 0 0.56327595140699671 0.89211526915426331 0 0.56249999999885147 0.1082531754730395 0 0.62499999999901068 0 0 0.68749999999926592 0.1082531754732875 0 1 0.49999999999869221 0 1 0.62499999999901068 0 0.88927506082488361 0.56409486310635837 0 0 0.25000000000104189 0 0.12076953676380731 0.18690935762408761 0 0.1082531754734323 0.31250000000117473 0 0.49999999999869221 0 0 0.62499999999901068 0 0 0.56249999999885147 0.1082531754730395 0 0.62500000000121547 1 0 0.50000000000206146 1 0 0.56327595140699671 0.89211526915426331 0 0.37500000000156292 1 0 0.25000000000104189 1 0 0.31258827852827581 0.89214793616708443 0 0.31281086598417152 0.10449318608631281 0 0.37499999999904599 0 0 0.43749999999910871 0.1082531754729984 0 0.43750000000181222 0.89174682452709564 0 0.37776173212361452 0.78514649317305008 0 0.50046028868828263 0.78376912307435687 0 0 0.37500000000156292 0 0 0.25000000000104189 0 0.1082531754734323 0.31250000000117473 0 0.49999999999869221 0 0 0.56249999999885147 0.1082531754730395 0 0.43749999999910871 0.1082531754729984 0 0.43750000000181222 0.89174682452709564 0 0.50046028868828263 0.78376912307435687 0 0.56327595140699671 0.89211526915426331 0 0.74999999999934042 0 0 0.81249999999950517 0.1082531754733404 0 0.68749999999926592 0.1082531754732875 0 0.37499999999904599 0 0 0.49999999999869221 0 0 0.43749999999910871 0.1082531754729984 0 0.25000000000104189 1 0 0.12500000000052089 1 0 0.18802967116092181 0.89415349436770275 0 0.50046028868828263 0.78376912307435687 0 0.62844955668446423 0.7850749770380413 0 0.56327595140699671 0.89211526915426331 0 0.37776173212361452 0.78514649317305008 0 0.31258827852827581 0.89214793616708443 0 0.23533274979922561 0.77093399389351469 0 0.62499999999901068 0 0 0.74999999999934042 0 0 0.68749999999926592 0.1082531754732875 0 1 0.74999999999934042 0 1 0.87499999999967015 0 0.89051480781310632 0.79665793440246835 0 0 0.25000000000104189 0 0 0.12500000000052089 0 0.12076953676380731 0.18690935762408761 0 0.74999999999934042 0 0 0.87499999999967015 0 0 0.81249999999950517 0.1082531754733404 0 0.24999999999941069 0 0 0.37499999999904599 0 0 0.31281086598417152 0.10449318608631281 0 0.50046028868828263 0.78376912307435687 0 0.37776173212361452 0.78514649317305008 0 0.44078402250377968 0.67714785211715212 0 0.68768773896438518 0.4586835206367198 0 0.75000000000032374 0.56698729811007709 0 0.62752533658682441 0.56838075195614346 0 0.31411863959822661 0.24965544328045999 0 0.37953773393552892 0.34812185820708452 0 0.24418615484441761 0.35773612382016978 0 0.68768773896438518 0.4586835206367198 0 0.81242894672211508 0.45500248311961472 0 0.75000000000032374 0.56698729811007709 0 1 0.24999999999941069 0 1 0.37499999999904599 0 0.88173731489851925 0.33077402607778361 0 0 0.75000000000034761 0 0 0.62500000000121547 0 0.1082531754723032 0.6875000000007816 0 0.50048844149666749 0.56727788297625459 0 0.44078402250377968 0.67714785211715212 0 0.38694285807596462 0.5672991787102919 0 0.50108503093851109 0.35012252869403671 0 0.44301038174930041 0.45684931552185398 0 0.37953773393552892 0.34812185820708452 0 0.50046028868828263 0.78376912307435687 0 0.56496004948275869 0.67675037307860475 0 0.62844955668446423 0.7850749770380413 0 0.68768773896438518 0.4586835206367198 0 0.75000000000057243 0.35048094716480432 0 0.81242894672211508 0.45500248311961472 0 0.56349980387502452 0.45846841892908402 0 0.62512662990940393 0.35044303886909911 0 0.68768773896438518 0.4586835206367198 0 0.50048844149666749 0.56727788297625459 0 0.38694285807596462 0.5672991787102919 0 0.44301038174930041 0.45684931552185398 0 0.50046028868828263 0.78376912307435687 0 0.44078402250377968 0.67714785211715212 0 0.56496004948275869 0.67675037307860475 0 0.50108503093851109 0.35012252869403671 0 0.37953773393552892 0.34812185820708452 0 0.43750000000200551 0.24222777169198509 0 0.75000000000034761 1 0 0.62500000000121547 1 0 0.69010814643829166 0.89298495739101336 0 0.68768773896438518 0.4586835206367198 0 0.62512662990940393 0.35044303886909911 0 0.75000000000057243 0.35048094716480432 0 0.56496004948275869 0.67675037307860475 0 0.44078402250377968 0.67714785211715212 0 0.50048844149666749 0.56727788297625459 0 0.56349980387502452 0.45846841892908402 0 0.44301038174930041 0.45684931552185398 0 0.50108503093851109 0.35012252869403671 0 0.50048844149666749 0.56727788297625459 0 0.44301038174930041 0.45684931552185398 0 0.56349980387502452 0.45846841892908402 0 0.56349980387502452 0.45846841892908402 0 0.50108503093851109 0.35012252869403671 0 0.62512662990940393 0.35044303886909911 0 0.43750000000200551 0.24222777169198509 0 0.37953773393552892 0.34812185820708452 0 0.31411863959822661 0.24965544328045999 0 0.56496004948275869 0.67675037307860475 0 0.50048844149666749 0.56727788297625459 0 0.62752533658682441 0.56838075195614346 0 0.56349980387502452 0.45846841892908402 0 0.68768773896438518 0.4586835206367198 0 0.62752533658682441 0.56838075195614346 0 0.50048844149666749 0.56727788297625459 0 0.56349980387502452 0.45846841892908402 0 0.62752533658682441 0.56838075195614346 0 0.75000000000057243 0.35048094716480432 0 0.62512662990940393 0.35044303886909911 0 0.68668231842078242 0.24762892664808989 0 0.50108503093851109 0.35012252869403671 0 0.43750000000200551 0.24222777169198509 0 0.56250000000143974 0.2422277716920859 0 0.62512662990940393 0.35044303886909911 0 0.50108503093851109 0.35012252869403671 0 0.56250000000143974 0.2422277716920859 0 0.68668231842078242 0.24762892664808989 0 0.62512662990940393 0.35044303886909911 0 0.56250000000143974 0.2422277716920859 0 0.22257735880419699 0.47344721641341742 0 0.24418615484441761 0.35773612382016978 0 0.32815957677880009 0.4577243358118348 0 0.12076953676380731 0.18690935762408761 0 0.19185372118111221 0.092925648673580788 0 0.25103557339309318 0.17464499738446629 0 0.20767261601459541 0.25628918442207171 0 0.12076953676380731 0.18690935762408761 0 0.25103557339309318 0.17464499738446629 0 0 0.87499999999950151 0 0 0.75000000000034761 0 0.10409951422139101 0.81206782209691231 0 0.1249999999997731 0 0 0.24999999999941069 0 0 0.19185372118111221 0.092925648673580788 0 1 0.1249999999997731 0 1 0.24999999999941069 0 0.89658421694297741 0.1933620068391701 0 0.88927506082488361 0.56409486310635837 0 0.81242894672211508 0.45500248311961472 0 0.915464298762109 0.43749999999886913 0 0.87499999999950151 1 0 0.75000000000034761 1 0 0.80886664387416207 0.89717308644237903 0 0.75000000000034761 1 0 0.69010814643829166 0.89298495739101336 0 0.80886664387416207 0.89717308644237903 0 0.82212678063041267 0.67678595194836966 0 0.88927506082488361 0.56409486310635837 0 0.92266244547590082 0.68749999999917555 0 0 0.75000000000034761 0 0.1082531754723032 0.6875000000007816 0 0.10409951422139101 0.81206782209691231 0 0.24999999999941069 0 0 0.31281086598417152 0.10449318608631281 0 0.19185372118111221 0.092925648673580788 0 1 0.24999999999941069 0 0.88173731489851925 0.33077402607778361 0 0.89658421694297741 0.1933620068391701 0 0.32815957677880009 0.4577243358118348 0 0.38694285807596462 0.5672991787102919 0 0.26982811998763367 0.56544650815856912 0 0.76243180583607129 0.78687675331113149 0 0.89051480781310632 0.79665793440246835 0 0.80886664387416207 0.89717308644237903 0 0.38694285807596462 0.5672991787102919 0 0.44078402250377968 0.67714785211715212 0 0.32607333794064219 0.67760114260606152 0 0.37776173212361452 0.78514649317305008 0 0.23533274979922561 0.77093399389351469 0 0.32607333794064219 0.67760114260606152 0 1 0.49999999999869221 0 0.88927506082488361 0.56409486310635837 0 0.915464298762109 0.43749999999886913 0 0.88173731489851925 0.33077402607778361 0 1 0.37499999999904599 0 0.915464298762109 0.43749999999886913 0 0.24418615484441761 0.35773612382016978 0 0.37953773393552892 0.34812185820708452 0 0.32815957677880009 0.4577243358118348 0 0.44301038174930041 0.45684931552185398 0 0.38694285807596462 0.5672991787102919 0 0.32815957677880009 0.4577243358118348 0 0.88927506082488361 0.56409486310635837 0 1 0.62499999999901068 0 0.92266244547590082 0.68749999999917555 0 1 0.74999999999934042 0 0.89051480781310632 0.79665793440246835 0 0.92266244547590082 0.68749999999917555 0 0 1 0 0 0.87499999999950151 0 0.091506350946494744 0.90849364905351082 0 1 1 0 0.87499999999950151 1 0 0.90849364905363228 0.90849364905367769 0 0 0 0 0.1249999999997731 0 0 0.091506350946417708 0.091506350946618076 0 0 0.12500000000052089 0 0 0 0 0.091506350946417708 0.091506350946618076 0 1 0 0 1 0.1249999999997731 0 0.90849364905355434 0.091506350946296292 0 0.87499999999967015 0 0 1 0 0 0.90849364905355434 0.091506350946296292 0 0.12500000000052089 1 0 0 1 0 0.091506350946494744 0.90849364905351082 0 1 0.87499999999967015 0 1 1 0 0.90849364905363228 0.90849364905367769 0 0.38694285807596462 0.5672991787102919 0 0.32607333794064219 0.67760114260606152 0 0.26982811998763367 0.56544650815856912 0 0.31411863959822661 0.24965544328045999 0 0.24418615484441761 0.35773612382016978 0 0.20767261601459541 0.25628918442207171 0 0.1082531754734323 0.31250000000117473 0 0.12076953676380731 0.18690935762408761 0 0.20767261601459541 0.25628918442207171 0 0.75000000000057243 0.35048094716480432 0 0.68668231842078242 0.24762892664808989 0 0.79891106056046712 0.25007334953587562 0 0.22257735880419699 0.47344721641341742 0 0.32815957677880009 0.4577243358118348 0 0.26982811998763367 0.56544650815856912 0 0.44078402250377968 0.67714785211715212 0 0.37776173212361452 0.78514649317305008 0 0.32607333794064219 0.67760114260606152 0 0.89658421694297741 0.1933620068391701 0 0.88173731489851925 0.33077402607778361 0 0.79891106056046712 0.25007334953587562 0 1 0.37499999999904599 0 1 0.49999999999869221 0 0.915464298762109 0.43749999999886913 0 0.37953773393552892 0.34812185820708452 0 0.44301038174930041 0.45684931552185398 0 0.32815957677880009 0.4577243358118348 0 0.32607333794064219 0.67760114260606152 0 0.21809253452218619 0.65480892822618109 0 0.26982811998763367 0.56544650815856912 0 1 0.1249999999997731 0 0.89658421694297741 0.1933620068391701 0 0.90849364905355434 0.091506350946296292 0 0 0.87499999999950151 0 0.10409951422139101 0.81206782209691231 0 0.091506350946494744 0.90849364905351082 0 0.1249999999997731 0 0 0.19185372118111221 0.092925648673580788 0 0.091506350946417708 0.091506350946618076 0 1 0.62499999999901068 0 1 0.74999999999934042 0 0.92266244547590082 0.68749999999917555 0 0.18802967116092181 0.89415349436770275 0 0.12500000000052089 1 0 0.091506350946494744 0.90849364905351082 0 0.89051480781310632 0.79665793440246835 0 1 0.87499999999967015 0 0.90849364905363228 0.90849364905367769 0 0.12076953676380731 0.18690935762408761 0 0 0.12500000000052089 0 0.091506350946417708 0.091506350946618076 0 0.81249999999950517 0.1082531754733404 0 0.87499999999967015 0 0 0.90849364905355434 0.091506350946296292 0 0.87499999999950151 1 0 0.80886664387416207 0.89717308644237903 0 0.90849364905363228 0.90849364905367769 0 0.68668231842078242 0.24762892664808989 0 0.62499999999892575 0.17524047358135519 0 0.73983916756365475 0.17530677078674589 0 0.31281086598417152 0.10449318608631281 0 0.43749999999910871 0.1082531754729984 0 0.37500000000232431 0.17524047358384309 0 0.62499999999892575 0.17524047358135519 0 0.56250000000143974 0.2422277716920859 0 0.49999999999934441 0.1752404735815076 0 0.56249999999885147 0.1082531754730395 0 0.68749999999926592 0.1082531754732875 0 0.62499999999892575 0.17524047358135519 0 0.56249999999885147 0.1082531754730395 0 0.62499999999892575 0.17524047358135519 0 0.49999999999934441 0.1752404735815076 0 0.56250000000143974 0.2422277716920859 0 0.43750000000200551 0.24222777169198509 0 0.49999999999934441 0.1752404735815076 0 0.43749999999910871 0.1082531754729984 0 0.56249999999885147 0.1082531754730395 0 0.49999999999934441 0.1752404735815076 0 0.68668231842078242 0.24762892664808989 0 0.56250000000143974 0.2422277716920859 0 0.62499999999892575 0.17524047358135519 0 0.43750000000200551 0.24222777169198509 0 0.31411863959822661 0.24965544328045999 0 0.37500000000232431 0.17524047358384309 0 0.49999999999934441 0.1752404735815076 0 0.43750000000200551 0.24222777169198509 0 0.37500000000232431 0.17524047358384309 0 0.43749999999910871 0.1082531754729984 0 0.49999999999934441 0.1752404735815076 0 0.37500000000232431 0.17524047358384309 0 0.62499999999892575 0.17524047358135519 0 0.68749999999926592 0.1082531754732875 0 0.73983916756365475 0.17530677078674589 0 0.68749999999926592 0.1082531754732875 0 0.81249999999950517 0.1082531754733404 0 0.73983916756365475 0.17530677078674589 0 0.10409951422139101 0.81206782209691231 0 0.18802967116092181 0.89415349436770275 0 0.091506350946494744 0.90849364905351082 0 0.89658421694297741 0.1933620068391701 0 0.81249999999950517 0.1082531754733404 0 0.90849364905355434 0.091506350946296292 0 0.19185372118111221 0.092925648673580788 0 0.12076953676380731 0.18690935762408761 0 0.091506350946417708 0.091506350946618076 0 0.37500000000232431 0.17524047358384309 0 0.31411863959822661 0.24965544328045999 0 0.25103557339309318 0.17464499738446629 0 0.31281086598417152 0.10449318608631281 0 0.37500000000232431 0.17524047358384309 0 0.25103557339309318 0.17464499738446629 0 0.80886664387416207 0.89717308644237903 0 0.89051480781310632 0.79665793440246835 0 0.90849364905363228 0.90849364905367769 0 0.19185372118111221 0.092925648673580788 0 0.31281086598417152 0.10449318608631281 0 0.25103557339309318 0.17464499738446629 0 0.79891106056046712 0.25007334953587562 0 0.68668231842078242 0.24762892664808989 0 0.73983916756365475 0.17530677078674589 0 0.31411863959822661 0.24965544328045999 0 0.20767261601459541 0.25628918442207171 0 0.25103557339309318 0.17464499738446629 0 

        </DataArray>

      </Points>

      <Cells>

        <DataArray type="Int32" Name="connectivity" format="ascii">

0 1 2 3 4 5 6 7 8 9 10 11 12 13 14 15 16 17 18 19 20 21 22 23 24 25 26 27 28 29 30 31 32 33 34 35 36 37 38 39 40 41 42 43 44 45 46 47 48 49 50 51 52 53 54 55 56 57 58 59 60 61 62 63 64 65 66 67 68 69 70 71 72 73 74 75 76 77 78 79 80 81 82 83 84 85 86 87 88 89 90 91 92 93 94 95 96 97 98 99 100 101 102 103 104 105 106 107 108 109 110 111 112 113 114 115 116 117 118 119 120 121 122 123 124 125 126 127 128 129 130 131 132 133 134 135 136 137 138 139 140 141 142 143 144 145 146 147 148 149 150 151 152 153 154 155 156 157 158 159 160 161 162 163 164 165 166 167 168 169 170 171 172 173 174 175 176 177 178 179 180 181 182 183 184 185 186 187 188 189 190 191 192 193 194 195 196 197 198 199 200 201 202 203 204 205 206 207 208 209 210 211 212 213 214 215 216 217 218 219 220 221 222 223 224 225 226 227 228 229 230 231 232 233 234 235 236 237 238 239 240 241 242 243 244 245 246 247 248 249 250 251 252 253 254 255 256 257 258 259 260 261 262 263 264 265 266 267 268 269 270 271 272 273 274 275 276 277 278 279 280 281 282 283 284 285 286 287 288 289 290 291 292 293 294 295 296 297 298 299 300 301 302 303 304 305 306 307 308 309 310 311 312 313 314 315 316 317 318 319 320 321 322 323 324 325 326 327 328 329 330 331 332 333 334 335 336 337 338 339 340 341 342 343 344 345 346 347 348 349 350 351 352 353 354 355 356 357 358 359 360 361 362 363 364 365 366 367 368 369 370 371 372 373 374 375 376 377 378 379 380 381 382 383 384 385 386 387 388 389 390 391 392 393 394 395 396 397 398 399 400 401 402 403 404 405 406 407 408 409 410 411 412 413 414 415 416 417 418 419 420 421 422 423 424 425 426 427 428 429 430 431 432 433 434 435 436 437 438 439 440 441 442 443 444 445 446 447 448 449 450 451 452 453 454 455 456 457 458 459 460 461 462 463 464 465 466 467 468 469 470 471 472 473 474 475 476 477 478 479 480 481 482 483 484 485 

        </DataArray>

        <DataArray type="Int32" Name="offsets" format="ascii">

3 6 9 12 15 18 21 24 27 30 33 36 39 42 45 48 51 54 57 60 63 66 69 72 75 78 81 84 87 90 93 96 99 102 105 108 111 114 117 120 123 126 129 132 135 138 141 144 147 150 153 156 159 162 165 168 171 174 177 180 183 186 189 192 195 198 201 204 207 210 213 216 219 222 225 228 231 234 237 240 243 246 249 252 255 258 261 264 267 270 273 276 279 282 285 288 291 294 297 300 303 306 309 312 315 318 321 324 327 330 333 336 339 342 345 348 351 354 357 360 363 366 369 372 375 378 381 384 387 390 393 396 399 402 405 408 411 414 417 420 423 426 429 432 435 438 441 444 447 450 453 456 459 462 465 468 471 474 477 480 483 486 

        </DataArray>

        <DataArray type="Int32" Name="types" format="ascii">

5 5 5 5 5 5 5 5 5 5 5 5 5 5 5 5 5 5 5 5 5 5 5 5 5 5 5 5 5 5 5 5 5 5 5 5 5 5 5 5 5 5 5 5 5 5 5 5 5 5 5 5 5 5 5 5 5 5 5 5 5 5 5 5 5 5 5 5 5 5 5 5 5 5 5 5 5 5 5 5 5 5 5 5 5 5 5 5 5 5 5 5 5 5 5 5 5 5 5 5 5 5 5 5 5 5 5 5 5 5 5 5 5 5 5 5 5 5 5 5 5 5 5 5 5 5 5 5 5 5 5 5 5 5 5 5 5 5 5 5 5 5 5 5 5 5 5 5 5 5 5 5 5 5 5 5 5 5 5 5 5 5 

        </DataArray>

      </Cells>

    </Piece>

  </UnstructuredGrid>

</VTKFile>

