<?xml version="1.0"?>

<VTKFile type="UnstructuredGrid" version="0.1">

  <UnstructuredGrid>

    <Piece NumberOfPoints="486" NumberOfCells="162">

      <PointData>

        <DataArray type="Float64" Name="K" format="ascii">

9.46637027216188698e-01
9.46637027216188698e-01
9.46637027216188698e-01
9.43186379248806550e-01
9.43186379248806550e-01
9.43186379248806550e-01
9.70561257712506231e-01
9.70561257712506231e-01
9.70561257712506231e-01
1.04030293347686786e+00
1.04030293347686786e+00
1.04030293347686786e+00
9.63167908500941805e-01
9.63167908500941805e-01
9.63167908500941805e-01
1.05012513396815343e+00
1.05012513396815343e+00
1.05012513396815343e+00
9.39775040306167875e-01
9.39775040306167875e-01
9.39775040306167875e-01
1.00404928889235556e+00
1.00404928889235556e+00
1.00404928889235556e+00
1.02025667348315507e+00
1.02025667348315507e+00
1.02025667348315507e+00
1.00700323473726705e+00
1.00700323473726705e+00
1.00700323473726705e+00
9.49475039527414966e-01
9.49475039527414966e-01
9.49475039527414966e-01
9.28306088557803943e-01
9.28306088557803943e-01
9.28306088557803943e-01
1.03866852457551473e+00
1.03866852457551473e+00
1.03866852457551473e+00
1.05011959662269039e+00
1.05011959662269039e+00
1.05011959662269039e+00
1.05600524816219865e+00
1.05600524816219865e+00
1.05600524816219865e+00
1.02481798129867108e+00
1.02481798129867108e+00
1.02481798129867108e+00
9.58114850048625177e-01
9.58114850048625177e-01
9.58114850048625177e-01
9.48587810191722225e-01
9.48587810191722225e-01
9.48587810191722225e-01
1.05848285548066179e+00
1.05848285548066179e+00
1.05848285548066179e+00
1.03991896687485741e+00
1.03991896687485741e+00
1.03991896687485741e+00
9.53644807072731360e-01
9.53644807072731360e-01
9.53644807072731360e-01
9.47890673035178932e-01
9.47890673035178932e-01
9.47890673035178932e-01
9.74036456076594059e-01
9.74036456076594059e-01
9.74036456076594059e-01
1.01755484163031462e+00
1.01755484163031462e+00
1.01755484163031462e+00
1.03640079948788366e+00
1.03640079948788366e+00
1.03640079948788366e+00
9.72733639342122314e-01
9.72733639342122314e-01
9.72733639342122314e-01
9.54633159285228960e-01
9.54633159285228960e-01
9.54633159285228960e-01
9.55706876869660715e-01
9.55706876869660715e-01
9.55706876869660715e-01
9.36440548561767616e-01
9.36440548561767616e-01
9.36440548561767616e-01
1.02086091566117299e+00
1.02086091566117299e+00
1.02086091566117299e+00
1.01277149853030601e+00
1.01277149853030601e+00
1.01277149853030601e+00
1.04861022796800918e+00
1.04861022796800918e+00
1.04861022796800918e+00
1.06228102373015254e+00
1.06228102373015254e+00
1.06228102373015254e+00
9.96082399325525447e-01
9.96082399325525447e-01
9.96082399325525447e-01
1.05956256878203559e+00
1.05956256878203559e+00
1.05956256878203559e+00
9.82112307247371641e-01
9.82112307247371641e-01
9.82112307247371641e-01
9.93185225565857421e-01
9.93185225565857421e-01
9.93185225565857421e-01
1.02225545355706227e+00
1.02225545355706227e+00
1.02225545355706227e+00
1.03039406373524178e+00
1.03039406373524178e+00
1.03039406373524178e+00
1.00738421137513789e+00
1.00738421137513789e+00
1.00738421137513789e+00
1.04240906753799911e+00
1.04240906753799911e+00
1.04240906753799911e+00
9.85208576542620840e-01
9.85208576542620840e-01
9.85208576542620840e-01
1.07129019716913709e+00
1.07129019716913709e+00
1.07129019716913709e+00
1.00546280163306911e+00
1.00546280163306911e+00
1.00546280163306911e+00
1.01166647084427308e+00
1.01166647084427308e+00
1.01166647084427308e+00
1.03501234566837108e+00
1.03501234566837108e+00
1.03501234566837108e+00
1.04737613922741990e+00
1.04737613922741990e+00
1.04737613922741990e+00
9.48183420345137473e-01
9.48183420345137473e-01
9.48183420345137473e-01
1.04869729306607762e+00
1.04869729306607762e+00
1.04869729306607762e+00
1.02637474387246797e+00
1.02637474387246797e+00
1.02637474387246797e+00
9.95671971142430445e-01
9.95671971142430445e-01
9.95671971142430445e-01
1.04202153955458909e+00
1.04202153955458909e+00
1.04202153955458909e+00
9.36504025322282718e-01
9.36504025322282718e-01
9.36504025322282718e-01
9.70807674140426791e-01
9.70807674140426791e-01
9.70807674140426791e-01
9.92107060543445662e-01
9.92107060543445662e-01
9.92107060543445662e-01
1.02945890784685701e+00
1.02945890784685701e+00
1.02945890784685701e+00
1.00367960958995539e+00
1.00367960958995539e+00
1.00367960958995539e+00
9.66060913807039845e-01
9.66060913807039845e-01
9.66060913807039845e-01
9.59260118595038347e-01
9.59260118595038347e-01
9.59260118595038347e-01
9.91270707839405074e-01
9.91270707839405074e-01
9.91270707839405074e-01
9.43307620330269714e-01
9.43307620330269714e-01
9.43307620330269714e-01
9.43796370312007027e-01
9.43796370312007027e-01
9.43796370312007027e-01
1.03084774237522225e+00
1.03084774237522225e+00
1.03084774237522225e+00
1.06859653571577606e+00
1.06859653571577606e+00
1.06859653571577606e+00
9.72528994160033688e-01
9.72528994160033688e-01
9.72528994160033688e-01
1.06076028914998144e+00
1.06076028914998144e+00
1.06076028914998144e+00
1.03856570025862527e+00
1.03856570025862527e+00
1.03856570025862527e+00
9.29758254085896185e-01
9.29758254085896185e-01
9.29758254085896185e-01
9.83532622904771392e-01
9.83532622904771392e-01
9.83532622904771392e-01
9.57170016269224377e-01
9.57170016269224377e-01
9.57170016269224377e-01
1.03770811642306970e+00
1.03770811642306970e+00
1.03770811642306970e+00
1.05227694374754521e+00
1.05227694374754521e+00
1.05227694374754521e+00
1.02899677949126311e+00
1.02899677949126311e+00
1.02899677949126311e+00
9.65154206233691303e-01
9.65154206233691303e-01
9.65154206233691303e-01
1.03460801856121720e+00
1.03460801856121720e+00
1.03460801856121720e+00
9.62959322124988026e-01
9.62959322124988026e-01
9.62959322124988026e-01
1.03894722743937695e+00
1.03894722743937695e+00
1.03894722743937695e+00
1.03504470153305839e+00
1.03504470153305839e+00
1.03504470153305839e+00
1.02060636237556590e+00
1.02060636237556590e+00
1.02060636237556590e+00
9.65655156295608164e-01
9.65655156295608164e-01
9.65655156295608164e-01
9.80063949078528784e-01
9.80063949078528784e-01
9.80063949078528784e-01
9.84130278469175668e-01
9.84130278469175668e-01
9.84130278469175668e-01
9.67441321008337463e-01
9.67441321008337463e-01
9.67441321008337463e-01
1.04266278717669070e+00
1.04266278717669070e+00
1.04266278717669070e+00
1.05356049254169748e+00
1.05356049254169748e+00
1.05356049254169748e+00
1.02873487642087769e+00
1.02873487642087769e+00
1.02873487642087769e+00
9.99868928517739786e-01
9.99868928517739786e-01
9.99868928517739786e-01
9.65468229728386307e-01
9.65468229728386307e-01
9.65468229728386307e-01
9.69922152678833416e-01
9.69922152678833416e-01
9.69922152678833416e-01
9.73200991301922724e-01
9.73200991301922724e-01
9.73200991301922724e-01
9.72832730508730648e-01
9.72832730508730648e-01
9.72832730508730648e-01
9.67656239186045264e-01
9.67656239186045264e-01
9.67656239186045264e-01
9.72779975259694729e-01
9.72779975259694729e-01
9.72779975259694729e-01
9.61972636488162003e-01
9.61972636488162003e-01
9.61972636488162003e-01
9.44542489559848431e-01
9.44542489559848431e-01
9.44542489559848431e-01
9.92286089190522080e-01
9.92286089190522080e-01
9.92286089190522080e-01
1.05794847495375932e+00
1.05794847495375932e+00
1.05794847495375932e+00
9.85532825879045782e-01
9.85532825879045782e-01
9.85532825879045782e-01
1.01871254668691824e+00
1.01871254668691824e+00
1.01871254668691824e+00
1.03426554963656181e+00
1.03426554963656181e+00
1.03426554963656181e+00
9.45685807432619763e-01
9.45685807432619763e-01
9.45685807432619763e-01
9.49940684209141017e-01
9.49940684209141017e-01
9.49940684209141017e-01
1.01345074853111217e+00
1.01345074853111217e+00
1.01345074853111217e+00
9.63507524604264143e-01
9.63507524604264143e-01
9.63507524604264143e-01
9.91003623567790815e-01
9.91003623567790815e-01
9.91003623567790815e-01
9.76624862139487737e-01
9.76624862139487737e-01
9.76624862139487737e-01
9.82117497230741709e-01
9.82117497230741709e-01
9.82117497230741709e-01
1.07468638275672235e+00
1.07468638275672235e+00
1.07468638275672235e+00
1.05577548357661644e+00
1.05577548357661644e+00
1.05577548357661644e+00
9.74901899964149776e-01
9.74901899964149776e-01
9.74901899964149776e-01
9.58812783355021403e-01
9.58812783355021403e-01
9.58812783355021403e-01
1.04752848157776524e+00
1.04752848157776524e+00
1.04752848157776524e+00
9.89986209653479943e-01
9.89986209653479943e-01
9.89986209653479943e-01
9.94611097234109565e-01
9.94611097234109565e-01
9.94611097234109565e-01
9.33662726548441069e-01
9.33662726548441069e-01
9.33662726548441069e-01
9.15607493061536326e-01
9.15607493061536326e-01
9.15607493061536326e-01
9.30441223090562874e-01
9.30441223090562874e-01
9.30441223090562874e-01
9.75357034876862539e-01
9.75357034876862539e-01
9.75357034876862539e-01
9.72012268446379224e-01
9.72012268446379224e-01
9.72012268446379224e-01
9.95083915366588134e-01
9.95083915366588134e-01
9.95083915366588134e-01
9.35949287075564018e-01
9.35949287075564018e-01
9.35949287075564018e-01
9.61757480759799277e-01
9.61757480759799277e-01
9.61757480759799277e-01
9.69821741804690607e-01
9.69821741804690607e-01
9.69821741804690607e-01
9.85238480076216061e-01
9.85238480076216061e-01
9.85238480076216061e-01
9.93592316153827815e-01
9.93592316153827815e-01
9.93592316153827815e-01
9.67737097039963134e-01
9.67737097039963134e-01
9.67737097039963134e-01
9.99518368349332498e-01
9.99518368349332498e-01
9.99518368349332498e-01
1.00555291512950951e+00
1.00555291512950951e+00
1.00555291512950951e+00
1.07819173569766913e+00
1.07819173569766913e+00
1.07819173569766913e+00
9.63002881324289572e-01
9.63002881324289572e-01
9.63002881324289572e-01
9.55807180438112747e-01
9.55807180438112747e-01
9.55807180438112747e-01
9.80827281233470183e-01
9.80827281233470183e-01
9.80827281233470183e-01
9.77341858513799511e-01
9.77341858513799511e-01
9.77341858513799511e-01
9.41696121698244681e-01
9.41696121698244681e-01
9.41696121698244681e-01
1.01625771456194691e+00
1.01625771456194691e+00
1.01625771456194691e+00
9.80852913271343940e-01
9.80852913271343940e-01
9.80852913271343940e-01
9.44585510137913920e-01
9.44585510137913920e-01
9.44585510137913920e-01
9.63515626358562804e-01
9.63515626358562804e-01
9.63515626358562804e-01
9.57096627592068594e-01
9.57096627592068594e-01
9.57096627592068594e-01
9.54379956098905469e-01
9.54379956098905469e-01
9.54379956098905469e-01
9.52192193696860256e-01
9.52192193696860256e-01
9.52192193696860256e-01
9.51844490345555738e-01
9.51844490345555738e-01
9.51844490345555738e-01
9.74283047225079635e-01
9.74283047225079635e-01
9.74283047225079635e-01
9.69432295883752793e-01
9.69432295883752793e-01
9.69432295883752793e-01
9.83430853699161278e-01
9.83430853699161278e-01
9.83430853699161278e-01
9.73819449094421419e-01
9.73819449094421419e-01
9.73819449094421419e-01
9.88105219831653558e-01
9.88105219831653558e-01
9.88105219831653558e-01
9.62749620362830183e-01
9.62749620362830183e-01
9.62749620362830183e-01
9.62566974927446695e-01
9.62566974927446695e-01
9.62566974927446695e-01
9.69819897444399892e-01
9.69819897444399892e-01
9.69819897444399892e-01
9.70239041921687750e-01
9.70239041921687750e-01
9.70239041921687750e-01
9.46148319277880456e-01
9.46148319277880456e-01
9.46148319277880456e-01
9.36669982642976739e-01
9.36669982642976739e-01
9.36669982642976739e-01
9.69387554317762468e-01
9.69387554317762468e-01
9.69387554317762468e-01
9.68773978891136367e-01
9.68773978891136367e-01
9.68773978891136367e-01
9.63210567004914364e-01
9.63210567004914364e-01
9.63210567004914364e-01
9.56571625112714319e-01
9.56571625112714319e-01
9.56571625112714319e-01
9.49765846148688531e-01
9.49765846148688531e-01
9.49765846148688531e-01
9.61765513731785315e-01
9.61765513731785315e-01
9.61765513731785315e-01
9.54605503018206680e-01
9.54605503018206680e-01
9.54605503018206680e-01
9.64163149320427459e-01
9.64163149320427459e-01
9.64163149320427459e-01
9.64106439082463851e-01
9.64106439082463851e-01
9.64106439082463851e-01


        </DataArray>

      </PointData>

      <CellData/>

      <Points>

        <DataArray type="Float64" NumberOfComponents="3" format="ascii">

0.1082531754723032 0.6875000000007816 0 0.23533274979922561 0.77093399389351469 0 0.10409951422139101 0.81206782209691231 0 0.23533274979922561 0.77093399389351469 0 0.1082531754723032 0.6875000000007816 0 0.21809253452218619 0.65480892822618109 0 0.24418615484441761 0.35773612382016978 0 0.121259140952891 0.43112117036853742 0 0.1082531754734323 0.31250000000117473 0 0.75000000000057243 0.35048094716480432 0 0.88173731489851925 0.33077402607778361 0 0.81242894672211508 0.45500248311961472 0 0.121259140952891 0.43112117036853742 0 0.24418615484441761 0.35773612382016978 0 0.22257735880419699 0.47344721641341742 0 0.81242894672211508 0.45500248311961472 0 0.88173731489851925 0.33077402607778361 0 0.915464298762109 0.43749999999886913 0 0 0.62500000000121547 0 0 0.50000000000206146 0 0.1371230538040123 0.56179824718362847 0 0.82212678063041267 0.67678595194836966 0 0.89051480781310632 0.79665793440246835 0 0.76243180583607129 0.78687675331113149 0 0.76243180583607129 0.78687675331113149 0 0.69010814643829166 0.89298495739101336 0 0.62844955668446423 0.7850749770380413 0 0.89051480781310632 0.79665793440246835 0 0.82212678063041267 0.67678595194836966 0 0.92266244547590082 0.68749999999917555 0 0 0.50000000000206146 0 0.121259140952891 0.43112117036853742 0 0.1371230538040123 0.56179824718362847 0 0.1082531754723032 0.6875000000007816 0 0 0.62500000000121547 0 0.1371230538040123 0.56179824718362847 0 0.75000000000032374 0.56698729811007709 0 0.88927506082488361 0.56409486310635837 0 0.82212678063041267 0.67678595194836966 0 0.81242894672211508 0.45500248311961472 0 0.88927506082488361 0.56409486310635837 0 0.75000000000032374 0.56698729811007709 0 0.69851598570178741 0.68211701800612057 0 0.56496004948275869 0.67675037307860475 0 0.62752533658682441 0.56838075195614346 0 0.69851598570178741 0.68211701800612057 0 0.76243180583607129 0.78687675331113149 0 0.62844955668446423 0.7850749770380413 0 0.23533274979922561 0.77093399389351469 0 0.18802967116092181 0.89415349436770275 0 0.10409951422139101 0.81206782209691231 0 0.121259140952891 0.43112117036853742 0 0.22257735880419699 0.47344721641341742 0 0.1371230538040123 0.56179824718362847 0 0.75000000000032374 0.56698729811007709 0 0.69851598570178741 0.68211701800612057 0 0.62752533658682441 0.56838075195614346 0 0.56496004948275869 0.67675037307860475 0 0.69851598570178741 0.68211701800612057 0 0.62844955668446423 0.7850749770380413 0 0.1371230538040123 0.56179824718362847 0 0.22257735880419699 0.47344721641341742 0 0.26982811998763367 0.56544650815856912 0 0.21809253452218619 0.65480892822618109 0 0.1371230538040123 0.56179824718362847 0 0.26982811998763367 0.56544650815856912 0 0.24418615484441761 0.35773612382016978 0 0.1082531754734323 0.31250000000117473 0 0.20767261601459541 0.25628918442207171 0 0.88173731489851925 0.33077402607778361 0 0.75000000000057243 0.35048094716480432 0 0.79891106056046712 0.25007334953587562 0 0.75000000000032374 0.56698729811007709 0 0.82212678063041267 0.67678595194836966 0 0.69851598570178741 0.68211701800612057 0 0.81249999999950517 0.1082531754733404 0 0.89658421694297741 0.1933620068391701 0 0.79891106056046712 0.25007334953587562 0 0.81249999999950517 0.1082531754733404 0 0.79891106056046712 0.25007334953587562 0 0.73983916756365475 0.17530677078674589 0 0.23533274979922561 0.77093399389351469 0 0.21809253452218619 0.65480892822618109 0 0.32607333794064219 0.67760114260606152 0 0.1082531754723032 0.6875000000007816 0 0.1371230538040123 0.56179824718362847 0 0.21809253452218619 0.65480892822618109 0 0.69851598570178741 0.68211701800612057 0 0.82212678063041267 0.67678595194836966 0 0.76243180583607129 0.78687675331113149 0 0.69010814643829166 0.89298495739101336 0 0.76243180583607129 0.78687675331113149 0 0.80886664387416207 0.89717308644237903 0 0.43750000000181222 0.89174682452709564 0 0.31258827852827581 0.89214793616708443 0 0.37776173212361452 0.78514649317305008 0 0.43750000000181222 0.89174682452709564 0 0.37500000000156292 1 0 0.31258827852827581 0.89214793616708443 0 0.121259140952891 0.43112117036853742 0 0 0.37500000000156292 0 0.1082531754734323 0.31250000000117473 0 0.50000000000206146 1 0 0.37500000000156292 1 0 0.43750000000181222 0.89174682452709564 0 0.31258827852827581 0.89214793616708443 0 0.18802967116092181 0.89415349436770275 0 0.23533274979922561 0.77093399389351469 0 0 0.50000000000206146 0 0 0.37500000000156292 0 0.121259140952891 0.43112117036853742 0 0.62844955668446423 0.7850749770380413 0 0.69010814643829166 0.89298495739101336 0 0.56327595140699671 0.89211526915426331 0 0.69010814643829166 0.89298495739101336 0 0.62500000000121547 1 0 0.56327595140699671 0.89211526915426331 0 0.25000000000104189 1 0 0.18802967116092181 0.89415349436770275 0 0.31258827852827581 0.89214793616708443 0 0.50000000000206146 1 0 0.43750000000181222 0.89174682452709564 0 0.56327595140699671 0.89211526915426331 0 0.56249999999885147 0.1082531754730395 0 0.62499999999901068 0 0 0.68749999999926592 0.1082531754732875 0 1 0.49999999999869221 0 1 0.62499999999901068 0 0.88927506082488361 0.56409486310635837 0 0 0.25000000000104189 0 0.12076953676380731 0.18690935762408761 0 0.1082531754734323 0.31250000000117473 0 0.49999999999869221 0 0 0.62499999999901068 0 0 0.56249999999885147 0.1082531754730395 0 0.62500000000121547 1 0 0.50000000000206146 1 0 0.56327595140699671 0.89211526915426331 0 0.37500000000156292 1 0 0.25000000000104189 1 0 0.31258827852827581 0.89214793616708443 0 0.31281086598417152 0.10449318608631281 0 0.37499999999904599 0 0 0.43749999999910871 0.1082531754729984 0 0.43750000000181222 0.89174682452709564 0 0.37776173212361452 0.78514649317305008 0 0.50046028868828263 0.78376912307435687 0 0 0.37500000000156292 0 0 0.25000000000104189 0 0.1082531754734323 0.31250000000117473 0 0.49999999999869221 0 0 0.56249999999885147 0.1082531754730395 0 0.43749999999910871 0.1082531754729984 0 0.43750000000181222 0.89174682452709564 0 0.50046028868828263 0.78376912307435687 0 0.56327595140699671 0.89211526915426331 0 0.74999999999934042 0 0 0.81249999999950517 0.1082531754733404 0 0.68749999999926592 0.1082531754732875 0 0.37499999999904599 0 0 0.49999999999869221 0 0 0.43749999999910871 0.1082531754729984 0 0.25000000000104189 1 0 0.12500000000052089 1 0 0.18802967116092181 0.89415349436770275 0 0.50046028868828263 0.78376912307435687 0 0.62844955668446423 0.7850749770380413 0 0.56327595140699671 0.89211526915426331 0 0.37776173212361452 0.78514649317305008 0 0.31258827852827581 0.89214793616708443 0 0.23533274979922561 0.77093399389351469 0 0.62499999999901068 0 0 0.74999999999934042 0 0 0.68749999999926592 0.1082531754732875 0 1 0.74999999999934042 0 1 0.87499999999967015 0 0.89051480781310632 0.79665793440246835 0 0 0.25000000000104189 0 0 0.12500000000052089 0 0.12076953676380731 0.18690935762408761 0 0.74999999999934042 0 0 0.87499999999967015 0 0 0.81249999999950517 0.1082531754733404 0 0.24999999999941069 0 0 0.37499999999904599 0 0 0.31281086598417152 0.10449318608631281 0 0.50046028868828263 0.78376912307435687 0 0.37776173212361452 0.78514649317305008 0 0.44078402250377968 0.67714785211715212 0 0.68768773896438518 0.4586835206367198 0 0.75000000000032374 0.56698729811007709 0 0.62752533658682441 0.56838075195614346 0 0.31411863959822661 0.24965544328045999 0 0.37953773393552892 0.34812185820708452 0 0.24418615484441761 0.35773612382016978 0 0.68768773896438518 0.4586835206367198 0 0.81242894672211508 0.45500248311961472 0 0.75000000000032374 0.56698729811007709 0 1 0.24999999999941069 0 1 0.37499999999904599 0 0.88173731489851925 0.33077402607778361 0 0 0.75000000000034761 0 0 0.62500000000121547 0 0.1082531754723032 0.6875000000007816 0 0.50048844149666749 0.56727788297625459 0 0.44078402250377968 0.67714785211715212 0 0.38694285807596462 0.5672991787102919 0 0.50108503093851109 0.35012252869403671 0 0.44301038174930041 0.45684931552185398 0 0.37953773393552892 0.34812185820708452 0 0.50046028868828263 0.78376912307435687 0 0.56496004948275869 0.67675037307860475 0 0.62844955668446423 0.7850749770380413 0 0.68768773896438518 0.4586835206367198 0 0.75000000000057243 0.35048094716480432 0 0.81242894672211508 0.45500248311961472 0 0.56349980387502452 0.45846841892908402 0 0.62512662990940393 0.35044303886909911 0 0.68768773896438518 0.4586835206367198 0 0.50048844149666749 0.56727788297625459 0 0.38694285807596462 0.5672991787102919 0 0.44301038174930041 0.45684931552185398 0 0.50046028868828263 0.78376912307435687 0 0.44078402250377968 0.67714785211715212 0 0.56496004948275869 0.67675037307860475 0 0.50108503093851109 0.35012252869403671 0 0.37953773393552892 0.34812185820708452 0 0.43750000000200551 0.24222777169198509 0 0.75000000000034761 1 0 0.62500000000121547 1 0 0.69010814643829166 0.89298495739101336 0 0.68768773896438518 0.4586835206367198 0 0.62512662990940393 0.35044303886909911 0 0.75000000000057243 0.35048094716480432 0 0.56496004948275869 0.67675037307860475 0 0.44078402250377968 0.67714785211715212 0 0.50048844149666749 0.56727788297625459 0 0.56349980387502452 0.45846841892908402 0 0.44301038174930041 0.45684931552185398 0 0.50108503093851109 0.35012252869403671 0 0.50048844149666749 0.56727788297625459 0 0.44301038174930041 0.45684931552185398 0 0.56349980387502452 0.45846841892908402 0 0.56349980387502452 0.45846841892908402 0 0.50108503093851109 0.35012252869403671 0 0.62512662990940393 0.35044303886909911 0 0.43750000000200551 0.24222777169198509 0 0.37953773393552892 0.34812185820708452 0 0.31411863959822661 0.24965544328045999 0 0.56496004948275869 0.67675037307860475 0 0.50048844149666749 0.56727788297625459 0 0.62752533658682441 0.56838075195614346 0 0.56349980387502452 0.45846841892908402 0 0.68768773896438518 0.4586835206367198 0 0.62752533658682441 0.56838075195614346 0 0.50048844149666749 0.56727788297625459 0 0.56349980387502452 0.45846841892908402 0 0.62752533658682441 0.56838075195614346 0 0.75000000000057243 0.35048094716480432 0 0.62512662990940393 0.35044303886909911 0 0.68668231842078242 0.24762892664808989 0 0.50108503093851109 0.35012252869403671 0 0.43750000000200551 0.24222777169198509 0 0.56250000000143974 0.2422277716920859 0 0.62512662990940393 0.35044303886909911 0 0.50108503093851109 0.35012252869403671 0 0.56250000000143974 0.2422277716920859 0 0.68668231842078242 0.24762892664808989 0 0.62512662990940393 0.35044303886909911 0 0.56250000000143974 0.2422277716920859 0 0.22257735880419699 0.47344721641341742 0 0.24418615484441761 0.35773612382016978 0 0.32815957677880009 0.4577243358118348 0 0.12076953676380731 0.18690935762408761 0 0.19185372118111221 0.092925648673580788 0 0.25103557339309318 0.17464499738446629 0 0.20767261601459541 0.25628918442207171 0 0.12076953676380731 0.18690935762408761 0 0.25103557339309318 0.17464499738446629 0 0 0.87499999999950151 0 0 0.75000000000034761 0 0.10409951422139101 0.81206782209691231 0 0.1249999999997731 0 0 0.24999999999941069 0 0 0.19185372118111221 0.092925648673580788 0 1 0.1249999999997731 0 1 0.24999999999941069 0 0.89658421694297741 0.1933620068391701 0 0.88927506082488361 0.56409486310635837 0 0.81242894672211508 0.45500248311961472 0 0.915464298762109 0.43749999999886913 0 0.87499999999950151 1 0 0.75000000000034761 1 0 0.80886664387416207 0.89717308644237903 0 0.75000000000034761 1 0 0.69010814643829166 0.89298495739101336 0 0.80886664387416207 0.89717308644237903 0 0.82212678063041267 0.67678595194836966 0 0.88927506082488361 0.56409486310635837 0 0.92266244547590082 0.68749999999917555 0 0 0.75000000000034761 0 0.1082531754723032 0.6875000000007816 0 0.10409951422139101 0.81206782209691231 0 0.24999999999941069 0 0 0.31281086598417152 0.10449318608631281 0 0.19185372118111221 0.092925648673580788 0 1 0.24999999999941069 0 0.88173731489851925 0.33077402607778361 0 0.89658421694297741 0.1933620068391701 0 0.32815957677880009 0.4577243358118348 0 0.38694285807596462 0.5672991787102919 0 0.26982811998763367 0.56544650815856912 0 0.76243180583607129 0.78687675331113149 0 0.89051480781310632 0.79665793440246835 0 0.80886664387416207 0.89717308644237903 0 0.38694285807596462 0.5672991787102919 0 0.44078402250377968 0.67714785211715212 0 0.32607333794064219 0.67760114260606152 0 0.37776173212361452 0.78514649317305008 0 0.23533274979922561 0.77093399389351469 0 0.32607333794064219 0.67760114260606152 0 1 0.49999999999869221 0 0.88927506082488361 0.56409486310635837 0 0.915464298762109 0.43749999999886913 0 0.88173731489851925 0.33077402607778361 0 1 0.37499999999904599 0 0.915464298762109 0.43749999999886913 0 0.24418615484441761 0.35773612382016978 0 0.37953773393552892 0.34812185820708452 0 0.32815957677880009 0.4577243358118348 0 0.44301038174930041 0.45684931552185398 0 0.38694285807596462 0.5672991787102919 0 0.32815957677880009 0.4577243358118348 0 0.88927506082488361 0.56409486310635837 0 1 0.62499999999901068 0 0.92266244547590082 0.68749999999917555 0 1 0.74999999999934042 0 0.89051480781310632 0.79665793440246835 0 0.92266244547590082 0.68749999999917555 0 0 1 0 0 0.87499999999950151 0 0.091506350946494744 0.90849364905351082 0 1 1 0 0.87499999999950151 1 0 0.90849364905363228 0.90849364905367769 0 0 0 0 0.1249999999997731 0 0 0.091506350946417708 0.091506350946618076 0 0 0.12500000000052089 0 0 0 0 0.091506350946417708 0.091506350946618076 0 1 0 0 1 0.1249999999997731 0 0.90849364905355434 0.091506350946296292 0 0.87499999999967015 0 0 1 0 0 0.90849364905355434 0.091506350946296292 0 0.12500000000052089 1 0 0 1 0 0.091506350946494744 0.90849364905351082 0 1 0.87499999999967015 0 1 1 0 0.90849364905363228 0.90849364905367769 0 0.38694285807596462 0.5672991787102919 0 0.32607333794064219 0.67760114260606152 0 0.26982811998763367 0.56544650815856912 0 0.31411863959822661 0.24965544328045999 0 0.24418615484441761 0.35773612382016978 0 0.20767261601459541 0.25628918442207171 0 0.1082531754734323 0.31250000000117473 0 0.12076953676380731 0.18690935762408761 0 0.20767261601459541 0.25628918442207171 0 0.75000000000057243 0.35048094716480432 0 0.68668231842078242 0.24762892664808989 0 0.79891106056046712 0.25007334953587562 0 0.22257735880419699 0.47344721641341742 0 0.32815957677880009 0.4577243358118348 0 0.26982811998763367 0.56544650815856912 0 0.44078402250377968 0.67714785211715212 0 0.37776173212361452 0.78514649317305008 0 0.32607333794064219 0.67760114260606152 0 0.89658421694297741 0.1933620068391701 0 0.88173731489851925 0.33077402607778361 0 0.79891106056046712 0.25007334953587562 0 1 0.37499999999904599 0 1 0.49999999999869221 0 0.915464298762109 0.43749999999886913 0 0.37953773393552892 0.34812185820708452 0 0.44301038174930041 0.45684931552185398 0 0.32815957677880009 0.4577243358118348 0 0.32607333794064219 0.67760114260606152 0 0.21809253452218619 0.65480892822618109 0 0.26982811998763367 0.56544650815856912 0 1 0.1249999999997731 0 0.89658421694297741 0.1933620068391701 0 0.90849364905355434 0.091506350946296292 0 0 0.87499999999950151 0 0.10409951422139101 0.81206782209691231 0 0.091506350946494744 0.90849364905351082 0 0.1249999999997731 0 0 0.19185372118111221 0.092925648673580788 0 0.091506350946417708 0.091506350946618076 0 1 0.62499999999901068 0 1 0.74999999999934042 0 0.92266244547590082 0.68749999999917555 0 0.18802967116092181 0.89415349436770275 0 0.12500000000052089 1 0 0.091506350946494744 0.90849364905351082 0 0.89051480781310632 0.79665793440246835 0 1 0.87499999999967015 0 0.90849364905363228 0.90849364905367769 0 0.12076953676380731 0.18690935762408761 0 0 0.12500000000052089 0 0.091506350946417708 0.091506350946618076 0 0.81249999999950517 0.1082531754733404 0 0.87499999999967015 0 0 0.90849364905355434 0.091506350946296292 0 0.87499999999950151 1 0 0.80886664387416207 0.89717308644237903 0 0.90849364905363228 0.90849364905367769 0 0.68668231842078242 0.24762892664808989 0 0.62499999999892575 0.17524047358135519 0 0.73983916756365475 0.17530677078674589 0 0.31281086598417152 0.10449318608631281 0 0.43749999999910871 0.1082531754729984 0 0.37500000000232431 0.17524047358384309 0 0.62499999999892575 0.17524047358135519 0 0.56250000000143974 0.2422277716920859 0 0.49999999999934441 0.1752404735815076 0 0.56249999999885147 0.1082531754730395 0 0.68749999999926592 0.1082531754732875 0 0.62499999999892575 0.17524047358135519 0 0.56249999999885147 0.1082531754730395 0 0.62499999999892575 0.17524047358135519 0 0.49999999999934441 0.1752404735815076 0 0.56250000000143974 0.2422277716920859 0 0.43750000000200551 0.24222777169198509 0 0.49999999999934441 0.1752404735815076 0 0.43749999999910871 0.1082531754729984 0 0.56249999999885147 0.1082531754730395 0 0.49999999999934441 0.1752404735815076 0 0.68668231842078242 0.24762892664808989 0 0.56250000000143974 0.2422277716920859 0 0.62499999999892575 0.17524047358135519 0 0.43750000000200551 0.24222777169198509 0 0.31411863959822661 0.24965544328045999 0 0.37500000000232431 0.17524047358384309 0 0.49999999999934441 0.1752404735815076 0 0.43750000000200551 0.24222777169198509 0 0.37500000000232431 0.17524047358384309 0 0.43749999999910871 0.1082531754729984 0 0.49999999999934441 0.1752404735815076 0 0.37500000000232431 0.17524047358384309 0 0.62499999999892575 0.17524047358135519 0 0.68749999999926592 0.1082531754732875 0 0.73983916756365475 0.17530677078674589 0 0.68749999999926592 0.1082531754732875 0 0.81249999999950517 0.1082531754733404 0 0.73983916756365475 0.17530677078674589 0 0.10409951422139101 0.81206782209691231 0 0.18802967116092181 0.89415349436770275 0 0.091506350946494744 0.90849364905351082 0 0.89658421694297741 0.1933620068391701 0 0.81249999999950517 0.1082531754733404 0 0.90849364905355434 0.091506350946296292 0 0.19185372118111221 0.092925648673580788 0 0.12076953676380731 0.18690935762408761 0 0.091506350946417708 0.091506350946618076 0 0.37500000000232431 0.17524047358384309 0 0.31411863959822661 0.24965544328045999 0 0.25103557339309318 0.17464499738446629 0 0.31281086598417152 0.10449318608631281 0 0.37500000000232431 0.17524047358384309 0 0.25103557339309318 0.17464499738446629 0 0.80886664387416207 0.89717308644237903 0 0.89051480781310632 0.79665793440246835 0 0.90849364905363228 0.90849364905367769 0 0.19185372118111221 0.092925648673580788 0 0.31281086598417152 0.10449318608631281 0 0.25103557339309318 0.17464499738446629 0 0.79891106056046712 0.25007334953587562 0 0.68668231842078242 0.24762892664808989 0 0.73983916756365475 0.17530677078674589 0 0.31411863959822661 0.24965544328045999 0 0.20767261601459541 0.25628918442207171 0 0.25103557339309318 0.17464499738446629 0 

        </DataArray>

      </Points>

      <Cells>

        <DataArray type="Int32" Name="connectivity" format="ascii">

0 1 2 3 4 5 6 7 8 9 10 11 12 13 14 15 16 17 18 19 20 21 22 23 24 25 26 27 28 29 30 31 32 33 34 35 36 37 38 39 40 41 42 43 44 45 46 47 48 49 50 51 52 53 54 55 56 57 58 59 60 61 62 63 64 65 66 67 68 69 70 71 72 73 74 75 76 77 78 79 80 81 82 83 84 85 86 87 88 89 90 91 92 93 94 95 96 97 98 99 100 101 102 103 104 105 106 107 108 109 110 111 112 113 114 115 116 117 118 119 120 121 122 123 124 125 126 127 128 129 130 131 132 133 134 135 136 137 138 139 140 141 142 143 144 145 146 147 148 149 150 151 152 153 154 155 156 157 158 159 160 161 162 163 164 165 166 167 168 169 170 171 172 173 174 175 176 177 178 179 180 181 182 183 184 185 186 187 188 189 190 191 192 193 194 195 196 197 198 199 200 201 202 203 204 205 206 207 208 209 210 211 212 213 214 215 216 217 218 219 220 221 222 223 224 225 226 227 228 229 230 231 232 233 234 235 236 237 238 239 240 241 242 243 244 245 246 247 248 249 250 251 252 253 254 255 256 257 258 259 260 261 262 263 264 265 266 267 268 269 270 271 272 273 274 275 276 277 278 279 280 281 282 283 284 285 286 287 288 289 290 291 292 293 294 295 296 297 298 299 300 301 302 303 304 305 306 307 308 309 310 311 312 313 314 315 316 317 318 319 320 321 322 323 324 325 326 327 328 329 330 331 332 333 334 335 336 337 338 339 340 341 342 343 344 345 346 347 348 349 350 351 352 353 354 355 356 357 358 359 360 361 362 363 364 365 366 367 368 369 370 371 372 373 374 375 376 377 378 379 380 381 382 383 384 385 386 387 388 389 390 391 392 393 394 395 396 397 398 399 400 401 402 403 404 405 406 407 408 409 410 411 412 413 414 415 416 417 418 419 420 421 422 423 424 425 426 427 428 429 430 431 432 433 434 435 436 437 438 439 440 441 442 443 444 445 446 447 448 449 450 451 452 453 454 455 456 457 458 459 460 461 462 463 464 465 466 467 468 469 470 471 472 473 474 475 476 477 478 479 480 481 482 483 484 485 

        </DataArray>

        <DataArray type="Int32" Name="offsets" format="ascii">

3 6 9 12 15 18 21 24 27 30 33 36 39 42 45 48 51 54 57 60 63 66 69 72 75 78 81 84 87 90 93 96 99 102 105 108 111 114 117 120 123 126 129 132 135 138 141 144 147 150 153 156 159 162 165 168 171 174 177 180 183 186 189 192 195 198 201 204 207 210 213 216 219 222 225 228 231 234 237 240 243 246 249 252 255 258 261 264 267 270 273 276 279 282 285 288 291 294 297 300 303 306 309 312 315 318 321 324 327 330 333 336 339 342 345 348 351 354 357 360 363 366 369 372 375 378 381 384 387 390 393 396 399 402 405 408 411 414 417 420 423 426 429 432 435 438 441 444 447 450 453 456 459 462 465 468 471 474 477 480 483 486 

        </DataArray>

        <DataArray type="Int32" Name="types" format="ascii">

5 5 5 5 5 5 5 5 5 5 5 5 5 5 5 5 5 5 5 5 5 5 5 5 5 5 5 5 5 5 5 5 5 5 5 5 5 5 5 5 5 5 5 5 5 5 5 5 5 5 5 5 5 5 5 5 5 5 5 5 5 5 5 5 5 5 5 5 5 5 5 5 5 5 5 5 5 5 5 5 5 5 5 5 5 5 5 5 5 5 5 5 5 5 5 5 5 5 5 5 5 5 5 5 5 5 5 5 5 5 5 5 5 5 5 5 5 5 5 5 5 5 5 5 5 5 5 5 5 5 5 5 5 5 5 5 5 5 5 5 5 5 5 5 5 5 5 5 5 5 5 5 5 5 5 5 5 5 5 5 5 5 

        </DataArray>

      </Cells>

    </Piece>

  </UnstructuredGrid>

</VTKFile>

