<?xml version="1.0"?>

<VTKFile type="UnstructuredGrid" version="0.1">

  <UnstructuredGrid>

    <Piece NumberOfPoints="486" NumberOfCells="162">

      <PointData>

        <DataArray type="Float64" Name="K" format="ascii">

1.03318767793889754e+00
1.03318767793889754e+00
1.03318767793889754e+00
1.00822041517461791e+00
1.00822041517461791e+00
1.00822041517461791e+00
9.38269694613218741e-01
9.38269694613218741e-01
9.38269694613218741e-01
1.07144173358337946e+00
1.07144173358337946e+00
1.07144173358337946e+00
9.34638934617623152e-01
9.34638934617623152e-01
9.34638934617623152e-01
1.02532342651738451e+00
1.02532342651738451e+00
1.02532342651738451e+00
9.30156800450936183e-01
9.30156800450936183e-01
9.30156800450936183e-01
1.04556267321818774e+00
1.04556267321818774e+00
1.04556267321818774e+00
1.04127289872297291e+00
1.04127289872297291e+00
1.04127289872297291e+00
1.04066178017677946e+00
1.04066178017677946e+00
1.04066178017677946e+00
9.23872743475805613e-01
9.23872743475805613e-01
9.23872743475805613e-01
9.58023616487313823e-01
9.58023616487313823e-01
9.58023616487313823e-01
1.01003096089993605e+00
1.01003096089993605e+00
1.01003096089993605e+00
1.01736763058474522e+00
1.01736763058474522e+00
1.01736763058474522e+00
1.04506357344799228e+00
1.04506357344799228e+00
1.04506357344799228e+00
1.02873593995650237e+00
1.02873593995650237e+00
1.02873593995650237e+00
1.02994012018172043e+00
1.02994012018172043e+00
1.02994012018172043e+00
9.30564206292698315e-01
9.30564206292698315e-01
9.30564206292698315e-01
1.04105467979362598e+00
1.04105467979362598e+00
1.04105467979362598e+00
1.04353795674691918e+00
1.04353795674691918e+00
1.04353795674691918e+00
9.59752689823807459e-01
9.59752689823807459e-01
9.59752689823807459e-01
9.75429268024953999e-01
9.75429268024953999e-01
9.75429268024953999e-01
9.52454885914775895e-01
9.52454885914775895e-01
9.52454885914775895e-01
1.08319651463945887e+00
1.08319651463945887e+00
1.08319651463945887e+00
1.01696345258882181e+00
1.01696345258882181e+00
1.01696345258882181e+00
1.04077242858388197e+00
1.04077242858388197e+00
1.04077242858388197e+00
1.03322880532935191e+00
1.03322880532935191e+00
1.03322880532935191e+00
9.70128469081973588e-01
9.70128469081973588e-01
9.70128469081973588e-01
9.86058528948496438e-01
9.86058528948496438e-01
9.86058528948496438e-01
1.02420058775580314e+00
1.02420058775580314e+00
1.02420058775580314e+00
1.05948240407142369e+00
1.05948240407142369e+00
1.05948240407142369e+00
1.06366042692553631e+00
1.06366042692553631e+00
1.06366042692553631e+00
1.10045694581896192e+00
1.10045694581896192e+00
1.10045694581896192e+00
9.59593542360460794e-01
9.59593542360460794e-01
9.59593542360460794e-01
1.09765542630055157e+00
1.09765542630055157e+00
1.09765542630055157e+00
1.01135919751682168e+00
1.01135919751682168e+00
1.01135919751682168e+00
9.46565343077279353e-01
9.46565343077279353e-01
9.46565343077279353e-01
1.04806061431427788e+00
1.04806061431427788e+00
1.04806061431427788e+00
1.05014938925602497e+00
1.05014938925602497e+00
1.05014938925602497e+00
1.04491983342881944e+00
1.04491983342881944e+00
1.04491983342881944e+00
1.08431707483997841e+00
1.08431707483997841e+00
1.08431707483997841e+00
1.03489296175214962e+00
1.03489296175214962e+00
1.03489296175214962e+00
1.03742465456196720e+00
1.03742465456196720e+00
1.03742465456196720e+00
1.00088981421284529e+00
1.00088981421284529e+00
1.00088981421284529e+00
1.00328816884920302e+00
1.00328816884920302e+00
1.00328816884920302e+00
1.05130193642566505e+00
1.05130193642566505e+00
1.05130193642566505e+00
1.09050688859732148e+00
1.09050688859732148e+00
1.09050688859732148e+00
9.40803999286258352e-01
9.40803999286258352e-01
9.40803999286258352e-01
1.07340467654691385e+00
1.07340467654691385e+00
1.07340467654691385e+00
9.83111835083803065e-01
9.83111835083803065e-01
9.83111835083803065e-01
9.94860574676982634e-01
9.94860574676982634e-01
9.94860574676982634e-01
1.09185837914607498e+00
1.09185837914607498e+00
1.09185837914607498e+00
9.80153575448303060e-01
9.80153575448303060e-01
9.80153575448303060e-01
9.31975125655200798e-01
9.31975125655200798e-01
9.31975125655200798e-01
1.03770628214271032e+00
1.03770628214271032e+00
1.03770628214271032e+00
1.06953508176560641e+00
1.06953508176560641e+00
1.06953508176560641e+00
9.98856629875023327e-01
9.98856629875023327e-01
9.98856629875023327e-01
1.00277453528538185e+00
1.00277453528538185e+00
1.00277453528538185e+00
9.61654262766993284e-01
9.61654262766993284e-01
9.61654262766993284e-01
9.93041472306917083e-01
9.93041472306917083e-01
9.93041472306917083e-01
9.50143963063704078e-01
9.50143963063704078e-01
9.50143963063704078e-01
9.53026239121986807e-01
9.53026239121986807e-01
9.53026239121986807e-01
1.02276490492844974e+00
1.02276490492844974e+00
1.02276490492844974e+00
1.06141496189235052e+00
1.06141496189235052e+00
1.06141496189235052e+00
9.97491742304998485e-01
9.97491742304998485e-01
9.97491742304998485e-01
1.06189099675892429e+00
1.06189099675892429e+00
1.06189099675892429e+00
9.99842364794288230e-01
9.99842364794288230e-01
9.99842364794288230e-01
9.73154992604649660e-01
9.73154992604649660e-01
9.73154992604649660e-01
9.43053495768105821e-01
9.43053495768105821e-01
9.43053495768105821e-01
1.03501722478920311e+00
1.03501722478920311e+00
1.03501722478920311e+00
1.06191096738531821e+00
1.06191096738531821e+00
1.06191096738531821e+00
1.08683081803226322e+00
1.08683081803226322e+00
1.08683081803226322e+00
1.04552613066592626e+00
1.04552613066592626e+00
1.04552613066592626e+00
9.49068154486496285e-01
9.49068154486496285e-01
9.49068154486496285e-01
1.03616903218847778e+00
1.03616903218847778e+00
1.03616903218847778e+00
1.06771691774524191e+00
1.06771691774524191e+00
1.06771691774524191e+00
1.05646848423272632e+00
1.05646848423272632e+00
1.05646848423272632e+00
1.08062013798003353e+00
1.08062013798003353e+00
1.08062013798003353e+00
9.94391460462474064e-01
9.94391460462474064e-01
9.94391460462474064e-01
1.00150986643945661e+00
1.00150986643945661e+00
1.00150986643945661e+00
9.70707704691554207e-01
9.70707704691554207e-01
9.70707704691554207e-01
1.02273115044700513e+00
1.02273115044700513e+00
1.02273115044700513e+00
1.03953119937492988e+00
1.03953119937492988e+00
1.03953119937492988e+00
1.02086561198603776e+00
1.02086561198603776e+00
1.02086561198603776e+00
1.04506035548980614e+00
1.04506035548980614e+00
1.04506035548980614e+00
1.00447022231072580e+00
1.00447022231072580e+00
1.00447022231072580e+00
1.07273291824318084e+00
1.07273291824318084e+00
1.07273291824318084e+00
1.07685684581425534e+00
1.07685684581425534e+00
1.07685684581425534e+00
1.05077528704371881e+00
1.05077528704371881e+00
1.05077528704371881e+00
1.05556208170435428e+00
1.05556208170435428e+00
1.05556208170435428e+00
9.70777189064600643e-01
9.70777189064600643e-01
9.70777189064600643e-01
9.98911401531173526e-01
9.98911401531173526e-01
9.98911401531173526e-01
9.85161366960753182e-01
9.85161366960753182e-01
9.85161366960753182e-01
1.03262370202449549e+00
1.03262370202449549e+00
1.03262370202449549e+00
9.88337251526491434e-01
9.88337251526491434e-01
9.88337251526491434e-01
1.00947253102286050e+00
1.00947253102286050e+00
1.00947253102286050e+00
1.00702251735574055e+00
1.00702251735574055e+00
1.00702251735574055e+00
1.01050054708306303e+00
1.01050054708306303e+00
1.01050054708306303e+00
1.05856799670342538e+00
1.05856799670342538e+00
1.05856799670342538e+00
1.02630026923044304e+00
1.02630026923044304e+00
1.02630026923044304e+00
1.02336003791754737e+00
1.02336003791754737e+00
1.02336003791754737e+00
9.80381558678644072e-01
9.80381558678644072e-01
9.80381558678644072e-01
1.02339541757149433e+00
1.02339541757149433e+00
1.02339541757149433e+00
9.67953554078844314e-01
9.67953554078844314e-01
9.67953554078844314e-01
1.05402853217173087e+00
1.05402853217173087e+00
1.05402853217173087e+00
9.32824619309315595e-01
9.32824619309315595e-01
9.32824619309315595e-01
9.60921514684541900e-01
9.60921514684541900e-01
9.60921514684541900e-01
1.01240117564315057e+00
1.01240117564315057e+00
1.01240117564315057e+00
1.00322349237506314e+00
1.00322349237506314e+00
1.00322349237506314e+00
1.00394162971490086e+00
1.00394162971490086e+00
1.00394162971490086e+00
9.74657596700276740e-01
9.74657596700276740e-01
9.74657596700276740e-01
1.03613987492246307e+00
1.03613987492246307e+00
1.03613987492246307e+00
1.01681153406305547e+00
1.01681153406305547e+00
1.01681153406305547e+00
1.04030987969178912e+00
1.04030987969178912e+00
1.04030987969178912e+00
8.99199811975817220e-01
8.99199811975817220e-01
8.99199811975817220e-01
9.81445813624973296e-01
9.81445813624973296e-01
9.81445813624973296e-01
9.85572423763537819e-01
9.85572423763537819e-01
9.85572423763537819e-01
1.00824121916230180e+00
1.00824121916230180e+00
1.00824121916230180e+00
9.84327397446892571e-01
9.84327397446892571e-01
9.84327397446892571e-01
1.03130630446097893e+00
1.03130630446097893e+00
1.03130630446097893e+00
8.89536543282996250e-01
8.89536543282996250e-01
8.89536543282996250e-01
9.44341225974746457e-01
9.44341225974746457e-01
9.44341225974746457e-01
9.61239940511865121e-01
9.61239940511865121e-01
9.61239940511865121e-01
9.87599322419854486e-01
9.87599322419854486e-01
9.87599322419854486e-01
1.08072041464649327e+00
1.08072041464649327e+00
1.08072041464649327e+00
9.74350972810026583e-01
9.74350972810026583e-01
9.74350972810026583e-01
9.59732639017561229e-01
9.59732639017561229e-01
9.59732639017561229e-01
1.06014532933019412e+00
1.06014532933019412e+00
1.06014532933019412e+00
1.01387521460757912e+00
1.01387521460757912e+00
1.01387521460757912e+00
1.01760656467326882e+00
1.01760656467326882e+00
1.01760656467326882e+00
9.63340580868860652e-01
9.63340580868860652e-01
9.63340580868860652e-01
1.01823121108726689e+00
1.01823121108726689e+00
1.01823121108726689e+00
1.05272457183272539e+00
1.05272457183272539e+00
1.05272457183272539e+00
9.94171582048901437e-01
9.94171582048901437e-01
9.94171582048901437e-01
1.02267203004922647e+00
1.02267203004922647e+00
1.02267203004922647e+00
1.03616484229535932e+00
1.03616484229535932e+00
1.03616484229535932e+00
9.55888762433801720e-01
9.55888762433801720e-01
9.55888762433801720e-01
9.98707784426828282e-01
9.98707784426828282e-01
9.98707784426828282e-01
9.75291861474541610e-01
9.75291861474541610e-01
9.75291861474541610e-01
9.79369474647518112e-01
9.79369474647518112e-01
9.79369474647518112e-01
1.04472479216334180e+00
1.04472479216334180e+00
1.04472479216334180e+00
9.68299638164501486e-01
9.68299638164501486e-01
9.68299638164501486e-01
1.07634181114931149e+00
1.07634181114931149e+00
1.07634181114931149e+00
1.05152913384338365e+00
1.05152913384338365e+00
1.05152913384338365e+00
1.06903612243675972e+00
1.06903612243675972e+00
1.06903612243675972e+00
1.08104074546567119e+00
1.08104074546567119e+00
1.08104074546567119e+00
1.04174039438538069e+00
1.04174039438538069e+00
1.04174039438538069e+00
1.05893640204693718e+00
1.05893640204693718e+00
1.05893640204693718e+00
1.01814770710088931e+00
1.01814770710088931e+00
1.01814770710088931e+00
1.04857244889847334e+00
1.04857244889847334e+00
1.04857244889847334e+00
1.01964676648062103e+00
1.01964676648062103e+00
1.01964676648062103e+00
1.03269205167842015e+00
1.03269205167842015e+00
1.03269205167842015e+00
1.00666623333229888e+00
1.00666623333229888e+00
1.00666623333229888e+00
1.04696589403040208e+00
1.04696589403040208e+00
1.04696589403040208e+00
1.01488803488793122e+00
1.01488803488793122e+00
1.01488803488793122e+00
1.00789267689691009e+00
1.00789267689691009e+00
1.00789267689691009e+00
9.73902021623073821e-01
9.73902021623073821e-01
9.73902021623073821e-01
9.64159671788981987e-01
9.64159671788981987e-01
9.64159671788981987e-01
1.01458758696890761e+00
1.01458758696890761e+00
1.01458758696890761e+00
9.77920979539422142e-01
9.77920979539422142e-01
9.77920979539422142e-01
1.05527165797998479e+00
1.05527165797998479e+00
1.05527165797998479e+00
9.65736078251665964e-01
9.65736078251665964e-01
9.65736078251665964e-01


        </DataArray>

      </PointData>

      <CellData/>

      <Points>

        <DataArray type="Float64" NumberOfComponents="3" format="ascii">

0.1082531754723032 0.6875000000007816 0 0.23533274979922561 0.77093399389351469 0 0.10409951422139101 0.81206782209691231 0 0.23533274979922561 0.77093399389351469 0 0.1082531754723032 0.6875000000007816 0 0.21809253452218619 0.65480892822618109 0 0.24418615484441761 0.35773612382016978 0 0.121259140952891 0.43112117036853742 0 0.1082531754734323 0.31250000000117473 0 0.75000000000057243 0.35048094716480432 0 0.88173731489851925 0.33077402607778361 0 0.81242894672211508 0.45500248311961472 0 0.121259140952891 0.43112117036853742 0 0.24418615484441761 0.35773612382016978 0 0.22257735880419699 0.47344721641341742 0 0.81242894672211508 0.45500248311961472 0 0.88173731489851925 0.33077402607778361 0 0.915464298762109 0.43749999999886913 0 0 0.62500000000121547 0 0 0.50000000000206146 0 0.1371230538040123 0.56179824718362847 0 0.82212678063041267 0.67678595194836966 0 0.89051480781310632 0.79665793440246835 0 0.76243180583607129 0.78687675331113149 0 0.76243180583607129 0.78687675331113149 0 0.69010814643829166 0.89298495739101336 0 0.62844955668446423 0.7850749770380413 0 0.89051480781310632 0.79665793440246835 0 0.82212678063041267 0.67678595194836966 0 0.92266244547590082 0.68749999999917555 0 0 0.50000000000206146 0 0.121259140952891 0.43112117036853742 0 0.1371230538040123 0.56179824718362847 0 0.1082531754723032 0.6875000000007816 0 0 0.62500000000121547 0 0.1371230538040123 0.56179824718362847 0 0.75000000000032374 0.56698729811007709 0 0.88927506082488361 0.56409486310635837 0 0.82212678063041267 0.67678595194836966 0 0.81242894672211508 0.45500248311961472 0 0.88927506082488361 0.56409486310635837 0 0.75000000000032374 0.56698729811007709 0 0.69851598570178741 0.68211701800612057 0 0.56496004948275869 0.67675037307860475 0 0.62752533658682441 0.56838075195614346 0 0.69851598570178741 0.68211701800612057 0 0.76243180583607129 0.78687675331113149 0 0.62844955668446423 0.7850749770380413 0 0.23533274979922561 0.77093399389351469 0 0.18802967116092181 0.89415349436770275 0 0.10409951422139101 0.81206782209691231 0 0.121259140952891 0.43112117036853742 0 0.22257735880419699 0.47344721641341742 0 0.1371230538040123 0.56179824718362847 0 0.75000000000032374 0.56698729811007709 0 0.69851598570178741 0.68211701800612057 0 0.62752533658682441 0.56838075195614346 0 0.56496004948275869 0.67675037307860475 0 0.69851598570178741 0.68211701800612057 0 0.62844955668446423 0.7850749770380413 0 0.1371230538040123 0.56179824718362847 0 0.22257735880419699 0.47344721641341742 0 0.26982811998763367 0.56544650815856912 0 0.21809253452218619 0.65480892822618109 0 0.1371230538040123 0.56179824718362847 0 0.26982811998763367 0.56544650815856912 0 0.24418615484441761 0.35773612382016978 0 0.1082531754734323 0.31250000000117473 0 0.20767261601459541 0.25628918442207171 0 0.88173731489851925 0.33077402607778361 0 0.75000000000057243 0.35048094716480432 0 0.79891106056046712 0.25007334953587562 0 0.75000000000032374 0.56698729811007709 0 0.82212678063041267 0.67678595194836966 0 0.69851598570178741 0.68211701800612057 0 0.81249999999950517 0.1082531754733404 0 0.89658421694297741 0.1933620068391701 0 0.79891106056046712 0.25007334953587562 0 0.81249999999950517 0.1082531754733404 0 0.79891106056046712 0.25007334953587562 0 0.73983916756365475 0.17530677078674589 0 0.23533274979922561 0.77093399389351469 0 0.21809253452218619 0.65480892822618109 0 0.32607333794064219 0.67760114260606152 0 0.1082531754723032 0.6875000000007816 0 0.1371230538040123 0.56179824718362847 0 0.21809253452218619 0.65480892822618109 0 0.69851598570178741 0.68211701800612057 0 0.82212678063041267 0.67678595194836966 0 0.76243180583607129 0.78687675331113149 0 0.69010814643829166 0.89298495739101336 0 0.76243180583607129 0.78687675331113149 0 0.80886664387416207 0.89717308644237903 0 0.43750000000181222 0.89174682452709564 0 0.31258827852827581 0.89214793616708443 0 0.37776173212361452 0.78514649317305008 0 0.43750000000181222 0.89174682452709564 0 0.37500000000156292 1 0 0.31258827852827581 0.89214793616708443 0 0.121259140952891 0.43112117036853742 0 0 0.37500000000156292 0 0.1082531754734323 0.31250000000117473 0 0.50000000000206146 1 0 0.37500000000156292 1 0 0.43750000000181222 0.89174682452709564 0 0.31258827852827581 0.89214793616708443 0 0.18802967116092181 0.89415349436770275 0 0.23533274979922561 0.77093399389351469 0 0 0.50000000000206146 0 0 0.37500000000156292 0 0.121259140952891 0.43112117036853742 0 0.62844955668446423 0.7850749770380413 0 0.69010814643829166 0.89298495739101336 0 0.56327595140699671 0.89211526915426331 0 0.69010814643829166 0.89298495739101336 0 0.62500000000121547 1 0 0.56327595140699671 0.89211526915426331 0 0.25000000000104189 1 0 0.18802967116092181 0.89415349436770275 0 0.31258827852827581 0.89214793616708443 0 0.50000000000206146 1 0 0.43750000000181222 0.89174682452709564 0 0.56327595140699671 0.89211526915426331 0 0.56249999999885147 0.1082531754730395 0 0.62499999999901068 0 0 0.68749999999926592 0.1082531754732875 0 1 0.49999999999869221 0 1 0.62499999999901068 0 0.88927506082488361 0.56409486310635837 0 0 0.25000000000104189 0 0.12076953676380731 0.18690935762408761 0 0.1082531754734323 0.31250000000117473 0 0.49999999999869221 0 0 0.62499999999901068 0 0 0.56249999999885147 0.1082531754730395 0 0.62500000000121547 1 0 0.50000000000206146 1 0 0.56327595140699671 0.89211526915426331 0 0.37500000000156292 1 0 0.25000000000104189 1 0 0.31258827852827581 0.89214793616708443 0 0.31281086598417152 0.10449318608631281 0 0.37499999999904599 0 0 0.43749999999910871 0.1082531754729984 0 0.43750000000181222 0.89174682452709564 0 0.37776173212361452 0.78514649317305008 0 0.50046028868828263 0.78376912307435687 0 0 0.37500000000156292 0 0 0.25000000000104189 0 0.1082531754734323 0.31250000000117473 0 0.49999999999869221 0 0 0.56249999999885147 0.1082531754730395 0 0.43749999999910871 0.1082531754729984 0 0.43750000000181222 0.89174682452709564 0 0.50046028868828263 0.78376912307435687 0 0.56327595140699671 0.89211526915426331 0 0.74999999999934042 0 0 0.81249999999950517 0.1082531754733404 0 0.68749999999926592 0.1082531754732875 0 0.37499999999904599 0 0 0.49999999999869221 0 0 0.43749999999910871 0.1082531754729984 0 0.25000000000104189 1 0 0.12500000000052089 1 0 0.18802967116092181 0.89415349436770275 0 0.50046028868828263 0.78376912307435687 0 0.62844955668446423 0.7850749770380413 0 0.56327595140699671 0.89211526915426331 0 0.37776173212361452 0.78514649317305008 0 0.31258827852827581 0.89214793616708443 0 0.23533274979922561 0.77093399389351469 0 0.62499999999901068 0 0 0.74999999999934042 0 0 0.68749999999926592 0.1082531754732875 0 1 0.74999999999934042 0 1 0.87499999999967015 0 0.89051480781310632 0.79665793440246835 0 0 0.25000000000104189 0 0 0.12500000000052089 0 0.12076953676380731 0.18690935762408761 0 0.74999999999934042 0 0 0.87499999999967015 0 0 0.81249999999950517 0.1082531754733404 0 0.24999999999941069 0 0 0.37499999999904599 0 0 0.31281086598417152 0.10449318608631281 0 0.50046028868828263 0.78376912307435687 0 0.37776173212361452 0.78514649317305008 0 0.44078402250377968 0.67714785211715212 0 0.68768773896438518 0.4586835206367198 0 0.75000000000032374 0.56698729811007709 0 0.62752533658682441 0.56838075195614346 0 0.31411863959822661 0.24965544328045999 0 0.37953773393552892 0.34812185820708452 0 0.24418615484441761 0.35773612382016978 0 0.68768773896438518 0.4586835206367198 0 0.81242894672211508 0.45500248311961472 0 0.75000000000032374 0.56698729811007709 0 1 0.24999999999941069 0 1 0.37499999999904599 0 0.88173731489851925 0.33077402607778361 0 0 0.75000000000034761 0 0 0.62500000000121547 0 0.1082531754723032 0.6875000000007816 0 0.50048844149666749 0.56727788297625459 0 0.44078402250377968 0.67714785211715212 0 0.38694285807596462 0.5672991787102919 0 0.50108503093851109 0.35012252869403671 0 0.44301038174930041 0.45684931552185398 0 0.37953773393552892 0.34812185820708452 0 0.50046028868828263 0.78376912307435687 0 0.56496004948275869 0.67675037307860475 0 0.62844955668446423 0.7850749770380413 0 0.68768773896438518 0.4586835206367198 0 0.75000000000057243 0.35048094716480432 0 0.81242894672211508 0.45500248311961472 0 0.56349980387502452 0.45846841892908402 0 0.62512662990940393 0.35044303886909911 0 0.68768773896438518 0.4586835206367198 0 0.50048844149666749 0.56727788297625459 0 0.38694285807596462 0.5672991787102919 0 0.44301038174930041 0.45684931552185398 0 0.50046028868828263 0.78376912307435687 0 0.44078402250377968 0.67714785211715212 0 0.56496004948275869 0.67675037307860475 0 0.50108503093851109 0.35012252869403671 0 0.37953773393552892 0.34812185820708452 0 0.43750000000200551 0.24222777169198509 0 0.75000000000034761 1 0 0.62500000000121547 1 0 0.69010814643829166 0.89298495739101336 0 0.68768773896438518 0.4586835206367198 0 0.62512662990940393 0.35044303886909911 0 0.75000000000057243 0.35048094716480432 0 0.56496004948275869 0.67675037307860475 0 0.44078402250377968 0.67714785211715212 0 0.50048844149666749 0.56727788297625459 0 0.56349980387502452 0.45846841892908402 0 0.44301038174930041 0.45684931552185398 0 0.50108503093851109 0.35012252869403671 0 0.50048844149666749 0.56727788297625459 0 0.44301038174930041 0.45684931552185398 0 0.56349980387502452 0.45846841892908402 0 0.56349980387502452 0.45846841892908402 0 0.50108503093851109 0.35012252869403671 0 0.62512662990940393 0.35044303886909911 0 0.43750000000200551 0.24222777169198509 0 0.37953773393552892 0.34812185820708452 0 0.31411863959822661 0.24965544328045999 0 0.56496004948275869 0.67675037307860475 0 0.50048844149666749 0.56727788297625459 0 0.62752533658682441 0.56838075195614346 0 0.56349980387502452 0.45846841892908402 0 0.68768773896438518 0.4586835206367198 0 0.62752533658682441 0.56838075195614346 0 0.50048844149666749 0.56727788297625459 0 0.56349980387502452 0.45846841892908402 0 0.62752533658682441 0.56838075195614346 0 0.75000000000057243 0.35048094716480432 0 0.62512662990940393 0.35044303886909911 0 0.68668231842078242 0.24762892664808989 0 0.50108503093851109 0.35012252869403671 0 0.43750000000200551 0.24222777169198509 0 0.56250000000143974 0.2422277716920859 0 0.62512662990940393 0.35044303886909911 0 0.50108503093851109 0.35012252869403671 0 0.56250000000143974 0.2422277716920859 0 0.68668231842078242 0.24762892664808989 0 0.62512662990940393 0.35044303886909911 0 0.56250000000143974 0.2422277716920859 0 0.22257735880419699 0.47344721641341742 0 0.24418615484441761 0.35773612382016978 0 0.32815957677880009 0.4577243358118348 0 0.12076953676380731 0.18690935762408761 0 0.19185372118111221 0.092925648673580788 0 0.25103557339309318 0.17464499738446629 0 0.20767261601459541 0.25628918442207171 0 0.12076953676380731 0.18690935762408761 0 0.25103557339309318 0.17464499738446629 0 0 0.87499999999950151 0 0 0.75000000000034761 0 0.10409951422139101 0.81206782209691231 0 0.1249999999997731 0 0 0.24999999999941069 0 0 0.19185372118111221 0.092925648673580788 0 1 0.1249999999997731 0 1 0.24999999999941069 0 0.89658421694297741 0.1933620068391701 0 0.88927506082488361 0.56409486310635837 0 0.81242894672211508 0.45500248311961472 0 0.915464298762109 0.43749999999886913 0 0.87499999999950151 1 0 0.75000000000034761 1 0 0.80886664387416207 0.89717308644237903 0 0.75000000000034761 1 0 0.69010814643829166 0.89298495739101336 0 0.80886664387416207 0.89717308644237903 0 0.82212678063041267 0.67678595194836966 0 0.88927506082488361 0.56409486310635837 0 0.92266244547590082 0.68749999999917555 0 0 0.75000000000034761 0 0.1082531754723032 0.6875000000007816 0 0.10409951422139101 0.81206782209691231 0 0.24999999999941069 0 0 0.31281086598417152 0.10449318608631281 0 0.19185372118111221 0.092925648673580788 0 1 0.24999999999941069 0 0.88173731489851925 0.33077402607778361 0 0.89658421694297741 0.1933620068391701 0 0.32815957677880009 0.4577243358118348 0 0.38694285807596462 0.5672991787102919 0 0.26982811998763367 0.56544650815856912 0 0.76243180583607129 0.78687675331113149 0 0.89051480781310632 0.79665793440246835 0 0.80886664387416207 0.89717308644237903 0 0.38694285807596462 0.5672991787102919 0 0.44078402250377968 0.67714785211715212 0 0.32607333794064219 0.67760114260606152 0 0.37776173212361452 0.78514649317305008 0 0.23533274979922561 0.77093399389351469 0 0.32607333794064219 0.67760114260606152 0 1 0.49999999999869221 0 0.88927506082488361 0.56409486310635837 0 0.915464298762109 0.43749999999886913 0 0.88173731489851925 0.33077402607778361 0 1 0.37499999999904599 0 0.915464298762109 0.43749999999886913 0 0.24418615484441761 0.35773612382016978 0 0.37953773393552892 0.34812185820708452 0 0.32815957677880009 0.4577243358118348 0 0.44301038174930041 0.45684931552185398 0 0.38694285807596462 0.5672991787102919 0 0.32815957677880009 0.4577243358118348 0 0.88927506082488361 0.56409486310635837 0 1 0.62499999999901068 0 0.92266244547590082 0.68749999999917555 0 1 0.74999999999934042 0 0.89051480781310632 0.79665793440246835 0 0.92266244547590082 0.68749999999917555 0 0 1 0 0 0.87499999999950151 0 0.091506350946494744 0.90849364905351082 0 1 1 0 0.87499999999950151 1 0 0.90849364905363228 0.90849364905367769 0 0 0 0 0.1249999999997731 0 0 0.091506350946417708 0.091506350946618076 0 0 0.12500000000052089 0 0 0 0 0.091506350946417708 0.091506350946618076 0 1 0 0 1 0.1249999999997731 0 0.90849364905355434 0.091506350946296292 0 0.87499999999967015 0 0 1 0 0 0.90849364905355434 0.091506350946296292 0 0.12500000000052089 1 0 0 1 0 0.091506350946494744 0.90849364905351082 0 1 0.87499999999967015 0 1 1 0 0.90849364905363228 0.90849364905367769 0 0.38694285807596462 0.5672991787102919 0 0.32607333794064219 0.67760114260606152 0 0.26982811998763367 0.56544650815856912 0 0.31411863959822661 0.24965544328045999 0 0.24418615484441761 0.35773612382016978 0 0.20767261601459541 0.25628918442207171 0 0.1082531754734323 0.31250000000117473 0 0.12076953676380731 0.18690935762408761 0 0.20767261601459541 0.25628918442207171 0 0.75000000000057243 0.35048094716480432 0 0.68668231842078242 0.24762892664808989 0 0.79891106056046712 0.25007334953587562 0 0.22257735880419699 0.47344721641341742 0 0.32815957677880009 0.4577243358118348 0 0.26982811998763367 0.56544650815856912 0 0.44078402250377968 0.67714785211715212 0 0.37776173212361452 0.78514649317305008 0 0.32607333794064219 0.67760114260606152 0 0.89658421694297741 0.1933620068391701 0 0.88173731489851925 0.33077402607778361 0 0.79891106056046712 0.25007334953587562 0 1 0.37499999999904599 0 1 0.49999999999869221 0 0.915464298762109 0.43749999999886913 0 0.37953773393552892 0.34812185820708452 0 0.44301038174930041 0.45684931552185398 0 0.32815957677880009 0.4577243358118348 0 0.32607333794064219 0.67760114260606152 0 0.21809253452218619 0.65480892822618109 0 0.26982811998763367 0.56544650815856912 0 1 0.1249999999997731 0 0.89658421694297741 0.1933620068391701 0 0.90849364905355434 0.091506350946296292 0 0 0.87499999999950151 0 0.10409951422139101 0.81206782209691231 0 0.091506350946494744 0.90849364905351082 0 0.1249999999997731 0 0 0.19185372118111221 0.092925648673580788 0 0.091506350946417708 0.091506350946618076 0 1 0.62499999999901068 0 1 0.74999999999934042 0 0.92266244547590082 0.68749999999917555 0 0.18802967116092181 0.89415349436770275 0 0.12500000000052089 1 0 0.091506350946494744 0.90849364905351082 0 0.89051480781310632 0.79665793440246835 0 1 0.87499999999967015 0 0.90849364905363228 0.90849364905367769 0 0.12076953676380731 0.18690935762408761 0 0 0.12500000000052089 0 0.091506350946417708 0.091506350946618076 0 0.81249999999950517 0.1082531754733404 0 0.87499999999967015 0 0 0.90849364905355434 0.091506350946296292 0 0.87499999999950151 1 0 0.80886664387416207 0.89717308644237903 0 0.90849364905363228 0.90849364905367769 0 0.68668231842078242 0.24762892664808989 0 0.62499999999892575 0.17524047358135519 0 0.73983916756365475 0.17530677078674589 0 0.31281086598417152 0.10449318608631281 0 0.43749999999910871 0.1082531754729984 0 0.37500000000232431 0.17524047358384309 0 0.62499999999892575 0.17524047358135519 0 0.56250000000143974 0.2422277716920859 0 0.49999999999934441 0.1752404735815076 0 0.56249999999885147 0.1082531754730395 0 0.68749999999926592 0.1082531754732875 0 0.62499999999892575 0.17524047358135519 0 0.56249999999885147 0.1082531754730395 0 0.62499999999892575 0.17524047358135519 0 0.49999999999934441 0.1752404735815076 0 0.56250000000143974 0.2422277716920859 0 0.43750000000200551 0.24222777169198509 0 0.49999999999934441 0.1752404735815076 0 0.43749999999910871 0.1082531754729984 0 0.56249999999885147 0.1082531754730395 0 0.49999999999934441 0.1752404735815076 0 0.68668231842078242 0.24762892664808989 0 0.56250000000143974 0.2422277716920859 0 0.62499999999892575 0.17524047358135519 0 0.43750000000200551 0.24222777169198509 0 0.31411863959822661 0.24965544328045999 0 0.37500000000232431 0.17524047358384309 0 0.49999999999934441 0.1752404735815076 0 0.43750000000200551 0.24222777169198509 0 0.37500000000232431 0.17524047358384309 0 0.43749999999910871 0.1082531754729984 0 0.49999999999934441 0.1752404735815076 0 0.37500000000232431 0.17524047358384309 0 0.62499999999892575 0.17524047358135519 0 0.68749999999926592 0.1082531754732875 0 0.73983916756365475 0.17530677078674589 0 0.68749999999926592 0.1082531754732875 0 0.81249999999950517 0.1082531754733404 0 0.73983916756365475 0.17530677078674589 0 0.10409951422139101 0.81206782209691231 0 0.18802967116092181 0.89415349436770275 0 0.091506350946494744 0.90849364905351082 0 0.89658421694297741 0.1933620068391701 0 0.81249999999950517 0.1082531754733404 0 0.90849364905355434 0.091506350946296292 0 0.19185372118111221 0.092925648673580788 0 0.12076953676380731 0.18690935762408761 0 0.091506350946417708 0.091506350946618076 0 0.37500000000232431 0.17524047358384309 0 0.31411863959822661 0.24965544328045999 0 0.25103557339309318 0.17464499738446629 0 0.31281086598417152 0.10449318608631281 0 0.37500000000232431 0.17524047358384309 0 0.25103557339309318 0.17464499738446629 0 0.80886664387416207 0.89717308644237903 0 0.89051480781310632 0.79665793440246835 0 0.90849364905363228 0.90849364905367769 0 0.19185372118111221 0.092925648673580788 0 0.31281086598417152 0.10449318608631281 0 0.25103557339309318 0.17464499738446629 0 0.79891106056046712 0.25007334953587562 0 0.68668231842078242 0.24762892664808989 0 0.73983916756365475 0.17530677078674589 0 0.31411863959822661 0.24965544328045999 0 0.20767261601459541 0.25628918442207171 0 0.25103557339309318 0.17464499738446629 0 

        </DataArray>

      </Points>

      <Cells>

        <DataArray type="Int32" Name="connectivity" format="ascii">

0 1 2 3 4 5 6 7 8 9 10 11 12 13 14 15 16 17 18 19 20 21 22 23 24 25 26 27 28 29 30 31 32 33 34 35 36 37 38 39 40 41 42 43 44 45 46 47 48 49 50 51 52 53 54 55 56 57 58 59 60 61 62 63 64 65 66 67 68 69 70 71 72 73 74 75 76 77 78 79 80 81 82 83 84 85 86 87 88 89 90 91 92 93 94 95 96 97 98 99 100 101 102 103 104 105 106 107 108 109 110 111 112 113 114 115 116 117 118 119 120 121 122 123 124 125 126 127 128 129 130 131 132 133 134 135 136 137 138 139 140 141 142 143 144 145 146 147 148 149 150 151 152 153 154 155 156 157 158 159 160 161 162 163 164 165 166 167 168 169 170 171 172 173 174 175 176 177 178 179 180 181 182 183 184 185 186 187 188 189 190 191 192 193 194 195 196 197 198 199 200 201 202 203 204 205 206 207 208 209 210 211 212 213 214 215 216 217 218 219 220 221 222 223 224 225 226 227 228 229 230 231 232 233 234 235 236 237 238 239 240 241 242 243 244 245 246 247 248 249 250 251 252 253 254 255 256 257 258 259 260 261 262 263 264 265 266 267 268 269 270 271 272 273 274 275 276 277 278 279 280 281 282 283 284 285 286 287 288 289 290 291 292 293 294 295 296 297 298 299 300 301 302 303 304 305 306 307 308 309 310 311 312 313 314 315 316 317 318 319 320 321 322 323 324 325 326 327 328 329 330 331 332 333 334 335 336 337 338 339 340 341 342 343 344 345 346 347 348 349 350 351 352 353 354 355 356 357 358 359 360 361 362 363 364 365 366 367 368 369 370 371 372 373 374 375 376 377 378 379 380 381 382 383 384 385 386 387 388 389 390 391 392 393 394 395 396 397 398 399 400 401 402 403 404 405 406 407 408 409 410 411 412 413 414 415 416 417 418 419 420 421 422 423 424 425 426 427 428 429 430 431 432 433 434 435 436 437 438 439 440 441 442 443 444 445 446 447 448 449 450 451 452 453 454 455 456 457 458 459 460 461 462 463 464 465 466 467 468 469 470 471 472 473 474 475 476 477 478 479 480 481 482 483 484 485 

        </DataArray>

        <DataArray type="Int32" Name="offsets" format="ascii">

3 6 9 12 15 18 21 24 27 30 33 36 39 42 45 48 51 54 57 60 63 66 69 72 75 78 81 84 87 90 93 96 99 102 105 108 111 114 117 120 123 126 129 132 135 138 141 144 147 150 153 156 159 162 165 168 171 174 177 180 183 186 189 192 195 198 201 204 207 210 213 216 219 222 225 228 231 234 237 240 243 246 249 252 255 258 261 264 267 270 273 276 279 282 285 288 291 294 297 300 303 306 309 312 315 318 321 324 327 330 333 336 339 342 345 348 351 354 357 360 363 366 369 372 375 378 381 384 387 390 393 396 399 402 405 408 411 414 417 420 423 426 429 432 435 438 441 444 447 450 453 456 459 462 465 468 471 474 477 480 483 486 

        </DataArray>

        <DataArray type="Int32" Name="types" format="ascii">

5 5 5 5 5 5 5 5 5 5 5 5 5 5 5 5 5 5 5 5 5 5 5 5 5 5 5 5 5 5 5 5 5 5 5 5 5 5 5 5 5 5 5 5 5 5 5 5 5 5 5 5 5 5 5 5 5 5 5 5 5 5 5 5 5 5 5 5 5 5 5 5 5 5 5 5 5 5 5 5 5 5 5 5 5 5 5 5 5 5 5 5 5 5 5 5 5 5 5 5 5 5 5 5 5 5 5 5 5 5 5 5 5 5 5 5 5 5 5 5 5 5 5 5 5 5 5 5 5 5 5 5 5 5 5 5 5 5 5 5 5 5 5 5 5 5 5 5 5 5 5 5 5 5 5 5 5 5 5 5 5 5 

        </DataArray>

      </Cells>

    </Piece>

  </UnstructuredGrid>

</VTKFile>

