<?xml version="1.0"?>

<VTKFile type="UnstructuredGrid" version="0.1">

  <UnstructuredGrid>

    <Piece NumberOfPoints="486" NumberOfCells="162">

      <PointData>

        <DataArray type="Float64" Name="K" format="ascii">

9.22702667023234335e-01
9.22702667023234335e-01
9.22702667023234335e-01
9.33652440038561737e-01
9.33652440038561737e-01
9.33652440038561737e-01
9.95962069275906470e-01
9.95962069275906470e-01
9.95962069275906470e-01
9.88523317243144239e-01
9.88523317243144239e-01
9.88523317243144239e-01
9.81588477992978325e-01
9.81588477992978325e-01
9.81588477992978325e-01
1.01363304775274488e+00
1.01363304775274488e+00
1.01363304775274488e+00
9.32940955577140629e-01
9.32940955577140629e-01
9.32940955577140629e-01
9.45429145160076589e-01
9.45429145160076589e-01
9.45429145160076589e-01
9.86693068477927704e-01
9.86693068477927704e-01
9.86693068477927704e-01
9.76436781889647332e-01
9.76436781889647332e-01
9.76436781889647332e-01
9.48864653982949169e-01
9.48864653982949169e-01
9.48864653982949169e-01
8.96180824511142893e-01
8.96180824511142893e-01
8.96180824511142893e-01
9.93838428839653454e-01
9.93838428839653454e-01
9.93838428839653454e-01
1.01243369216049817e+00
1.01243369216049817e+00
1.01243369216049817e+00
1.06700180493191876e+00
1.06700180493191876e+00
1.06700180493191876e+00
9.99449913424803826e-01
9.99449913424803826e-01
9.99449913424803826e-01
9.56204585980267252e-01
9.56204585980267252e-01
9.56204585980267252e-01
9.52247833207024108e-01
9.52247833207024108e-01
9.52247833207024108e-01
1.03564704058452506e+00
1.03564704058452506e+00
1.03564704058452506e+00
1.06080214812887319e+00
1.06080214812887319e+00
1.06080214812887319e+00
9.56438994972032330e-01
9.56438994972032330e-01
9.56438994972032330e-01
9.46470597644224032e-01
9.46470597644224032e-01
9.46470597644224032e-01
1.00295993815049056e+00
1.00295993815049056e+00
1.00295993815049056e+00
9.51173398555793526e-01
9.51173398555793526e-01
9.51173398555793526e-01
9.92753834925193201e-01
9.92753834925193201e-01
9.92753834925193201e-01
9.05770356092271189e-01
9.05770356092271189e-01
9.05770356092271189e-01
8.83103094620457774e-01
8.83103094620457774e-01
8.83103094620457774e-01
9.79798281485170786e-01
9.79798281485170786e-01
9.79798281485170786e-01
9.09365325809483149e-01
9.09365325809483149e-01
9.09365325809483149e-01
9.64601536213967270e-01
9.64601536213967270e-01
9.64601536213967270e-01
9.42971511868251677e-01
9.42971511868251677e-01
9.42971511868251677e-01
1.04475022483756863e+00
1.04475022483756863e+00
1.04475022483756863e+00
1.06360655187447617e+00
1.06360655187447617e+00
1.06360655187447617e+00
9.95723984130066464e-01
9.95723984130066464e-01
9.95723984130066464e-01
1.08476121650871349e+00
1.08476121650871349e+00
1.08476121650871349e+00
9.91009643187124922e-01
9.91009643187124922e-01
9.91009643187124922e-01
9.88372842133768303e-01
9.88372842133768303e-01
9.88372842133768303e-01
1.03916574523606675e+00
1.03916574523606675e+00
1.03916574523606675e+00
1.03385523097927678e+00
1.03385523097927678e+00
1.03385523097927678e+00
1.00485056208334855e+00
1.00485056208334855e+00
1.00485056208334855e+00
1.08434059683212025e+00
1.08434059683212025e+00
1.08434059683212025e+00
9.20737410566292436e-01
9.20737410566292436e-01
9.20737410566292436e-01
1.03936865367774489e+00
1.03936865367774489e+00
1.03936865367774489e+00
9.80157116923147775e-01
9.80157116923147775e-01
9.80157116923147775e-01
9.59276583418224194e-01
9.59276583418224194e-01
9.59276583418224194e-01
1.06428557592771256e+00
1.06428557592771256e+00
1.06428557592771256e+00
1.04235161384192265e+00
1.04235161384192265e+00
1.04235161384192265e+00
1.00716249314627282e+00
1.00716249314627282e+00
1.00716249314627282e+00
1.06034507218509955e+00
1.06034507218509955e+00
1.06034507218509955e+00
9.91704626689984159e-01
9.91704626689984159e-01
9.91704626689984159e-01
9.82431165848007493e-01
9.82431165848007493e-01
9.82431165848007493e-01
1.08295937330105096e+00
1.08295937330105096e+00
1.08295937330105096e+00
8.94935544420271345e-01
8.94935544420271345e-01
8.94935544420271345e-01
1.01692145678553336e+00
1.01692145678553336e+00
1.01692145678553336e+00
9.85891641082157877e-01
9.85891641082157877e-01
9.85891641082157877e-01
1.07881702622498499e+00
1.07881702622498499e+00
1.07881702622498499e+00
1.01033883150036052e+00
1.01033883150036052e+00
1.01033883150036052e+00
9.15062127118700497e-01
9.15062127118700497e-01
9.15062127118700497e-01
1.01028699609888029e+00
1.01028699609888029e+00
1.01028699609888029e+00
9.47341438197446428e-01
9.47341438197446428e-01
9.47341438197446428e-01
9.16340843203005906e-01
9.16340843203005906e-01
9.16340843203005906e-01
1.00911159718134713e+00
1.00911159718134713e+00
1.00911159718134713e+00
1.04850428390555694e+00
1.04850428390555694e+00
1.04850428390555694e+00
1.03206808938362427e+00
1.03206808938362427e+00
1.03206808938362427e+00
9.95780678148044496e-01
9.95780678148044496e-01
9.95780678148044496e-01
1.01220474854142806e+00
1.01220474854142806e+00
1.01220474854142806e+00
9.84706072361582918e-01
9.84706072361582918e-01
9.84706072361582918e-01
9.05691438459550358e-01
9.05691438459550358e-01
9.05691438459550358e-01
1.05237924851577813e+00
1.05237924851577813e+00
1.05237924851577813e+00
1.05208891669412541e+00
1.05208891669412541e+00
1.05208891669412541e+00
1.08259914192876550e+00
1.08259914192876550e+00
1.08259914192876550e+00
9.88171437684310705e-01
9.88171437684310705e-01
9.88171437684310705e-01
1.01103831342861761e+00
1.01103831342861761e+00
1.01103831342861761e+00
1.06116847865979724e+00
1.06116847865979724e+00
1.06116847865979724e+00
1.07148476523767844e+00
1.07148476523767844e+00
1.07148476523767844e+00
1.02979758702086843e+00
1.02979758702086843e+00
1.02979758702086843e+00
9.96322253774046374e-01
9.96322253774046374e-01
9.96322253774046374e-01
9.68516498631660561e-01
9.68516498631660561e-01
9.68516498631660561e-01
1.06922274387078553e+00
1.06922274387078553e+00
1.06922274387078553e+00
1.06214253083481802e+00
1.06214253083481802e+00
1.06214253083481802e+00
1.06979388658369223e+00
1.06979388658369223e+00
1.06979388658369223e+00
1.03085306248091868e+00
1.03085306248091868e+00
1.03085306248091868e+00
1.00116186705480192e+00
1.00116186705480192e+00
1.00116186705480192e+00
1.07808146416256112e+00
1.07808146416256112e+00
1.07808146416256112e+00
1.04146443367716679e+00
1.04146443367716679e+00
1.04146443367716679e+00
1.06832852284061364e+00
1.06832852284061364e+00
1.06832852284061364e+00
9.28294246945559731e-01
9.28294246945559731e-01
9.28294246945559731e-01
1.01838029400198171e+00
1.01838029400198171e+00
1.01838029400198171e+00
1.00431961928531321e+00
1.00431961928531321e+00
1.00431961928531321e+00
9.45332593178149549e-01
9.45332593178149549e-01
9.45332593178149549e-01
9.93080736749638815e-01
9.93080736749638815e-01
9.93080736749638815e-01
9.80502636373863701e-01
9.80502636373863701e-01
9.80502636373863701e-01
9.94234784778915026e-01
9.94234784778915026e-01
9.94234784778915026e-01
9.39962858181354277e-01
9.39962858181354277e-01
9.39962858181354277e-01
9.56428194028452583e-01
9.56428194028452583e-01
9.56428194028452583e-01
9.46001744863277816e-01
9.46001744863277816e-01
9.46001744863277816e-01
1.02222091818300176e+00
1.02222091818300176e+00
1.02222091818300176e+00
9.42055800790007059e-01
9.42055800790007059e-01
9.42055800790007059e-01
9.54018892938081287e-01
9.54018892938081287e-01
9.54018892938081287e-01
9.95285146462923209e-01
9.95285146462923209e-01
9.95285146462923209e-01
9.03813580389651317e-01
9.03813580389651317e-01
9.03813580389651317e-01
9.84335772542029197e-01
9.84335772542029197e-01
9.84335772542029197e-01
9.65405179198825958e-01
9.65405179198825958e-01
9.65405179198825958e-01
1.02014011701345142e+00
1.02014011701345142e+00
1.02014011701345142e+00
9.33913240136358125e-01
9.33913240136358125e-01
9.33913240136358125e-01
1.02986718201495808e+00
1.02986718201495808e+00
1.02986718201495808e+00
1.00408100940325618e+00
1.00408100940325618e+00
1.00408100940325618e+00
1.02890807751082414e+00
1.02890807751082414e+00
1.02890807751082414e+00
1.00833851450819201e+00
1.00833851450819201e+00
1.00833851450819201e+00
1.00658204368701631e+00
1.00658204368701631e+00
1.00658204368701631e+00
1.04560646735414497e+00
1.04560646735414497e+00
1.04560646735414497e+00
1.02811363116964904e+00
1.02811363116964904e+00
1.02811363116964904e+00
1.01070386227235676e+00
1.01070386227235676e+00
1.01070386227235676e+00
1.00361092875766533e+00
1.00361092875766533e+00
1.00361092875766533e+00
9.52252498529557734e-01
9.52252498529557734e-01
9.52252498529557734e-01
9.18258983870523515e-01
9.18258983870523515e-01
9.18258983870523515e-01
9.16611259919932531e-01
9.16611259919932531e-01
9.16611259919932531e-01
9.37065169041910617e-01
9.37065169041910617e-01
9.37065169041910617e-01
9.32241918637771505e-01
9.32241918637771505e-01
9.32241918637771505e-01
1.00349922172170181e+00
1.00349922172170181e+00
1.00349922172170181e+00
9.76098642709479991e-01
9.76098642709479991e-01
9.76098642709479991e-01
1.01495017846826219e+00
1.01495017846826219e+00
1.01495017846826219e+00
9.95175202028074524e-01
9.95175202028074524e-01
9.95175202028074524e-01
9.97961445906048294e-01
9.97961445906048294e-01
9.97961445906048294e-01
9.09139062642279949e-01
9.09139062642279949e-01
9.09139062642279949e-01
9.93550737024680997e-01
9.93550737024680997e-01
9.93550737024680997e-01
1.02432452563583865e+00
1.02432452563583865e+00
1.02432452563583865e+00
9.47360891220106804e-01
9.47360891220106804e-01
9.47360891220106804e-01
1.01840287283257247e+00
1.01840287283257247e+00
1.01840287283257247e+00
1.03897032276659762e+00
1.03897032276659762e+00
1.03897032276659762e+00
9.85953967355116201e-01
9.85953967355116201e-01
9.85953967355116201e-01
9.30723525362173953e-01
9.30723525362173953e-01
9.30723525362173953e-01
9.59966435058897893e-01
9.59966435058897893e-01
9.59966435058897893e-01
9.38198999056529703e-01
9.38198999056529703e-01
9.38198999056529703e-01
1.04188010530894748e+00
1.04188010530894748e+00
1.04188010530894748e+00
9.78953289908302438e-01
9.78953289908302438e-01
9.78953289908302438e-01
9.80392723811990718e-01
9.80392723811990718e-01
9.80392723811990718e-01
9.34296373314726036e-01
9.34296373314726036e-01
9.34296373314726036e-01
9.12146337915349936e-01
9.12146337915349936e-01
9.12146337915349936e-01
9.41253969060619422e-01
9.41253969060619422e-01
9.41253969060619422e-01
8.86952365763634787e-01
8.86952365763634787e-01
8.86952365763634787e-01
9.90711441582103780e-01
9.90711441582103780e-01
9.90711441582103780e-01
9.63004862235024350e-01
9.63004862235024350e-01
9.63004862235024350e-01
9.14133745436546463e-01
9.14133745436546463e-01
9.14133745436546463e-01
9.53156543520849664e-01
9.53156543520849664e-01
9.53156543520849664e-01
9.96832416100368990e-01
9.96832416100368990e-01
9.96832416100368990e-01
9.77910186476648069e-01
9.77910186476648069e-01
9.77910186476648069e-01
9.25926957452495869e-01
9.25926957452495869e-01
9.25926957452495869e-01
9.89266215452512143e-01
9.89266215452512143e-01
9.89266215452512143e-01
9.93573626460357628e-01
9.93573626460357628e-01
9.93573626460357628e-01
9.88763460669481065e-01
9.88763460669481065e-01
9.88763460669481065e-01
8.84458794812058580e-01
8.84458794812058580e-01
8.84458794812058580e-01
8.77207378383216496e-01
8.77207378383216496e-01
8.77207378383216496e-01
9.59372100821601959e-01
9.59372100821601959e-01
9.59372100821601959e-01
9.10460232627359978e-01
9.10460232627359978e-01
9.10460232627359978e-01
9.53904697370440480e-01
9.53904697370440480e-01
9.53904697370440480e-01
9.85569216068849729e-01
9.85569216068849729e-01
9.85569216068849729e-01
9.87326328039096701e-01
9.87326328039096701e-01
9.87326328039096701e-01
9.47624765684673243e-01
9.47624765684673243e-01
9.47624765684673243e-01
9.86330562847881454e-01
9.86330562847881454e-01
9.86330562847881454e-01
8.83976124655758921e-01
8.83976124655758921e-01
8.83976124655758921e-01
9.92554477760623111e-01
9.92554477760623111e-01
9.92554477760623111e-01


        </DataArray>

      </PointData>

      <CellData/>

      <Points>

        <DataArray type="Float64" NumberOfComponents="3" format="ascii">

0.1082531754723032 0.6875000000007816 0 0.23533274979922561 0.77093399389351469 0 0.10409951422139101 0.81206782209691231 0 0.23533274979922561 0.77093399389351469 0 0.1082531754723032 0.6875000000007816 0 0.21809253452218619 0.65480892822618109 0 0.24418615484441761 0.35773612382016978 0 0.121259140952891 0.43112117036853742 0 0.1082531754734323 0.31250000000117473 0 0.75000000000057243 0.35048094716480432 0 0.88173731489851925 0.33077402607778361 0 0.81242894672211508 0.45500248311961472 0 0.121259140952891 0.43112117036853742 0 0.24418615484441761 0.35773612382016978 0 0.22257735880419699 0.47344721641341742 0 0.81242894672211508 0.45500248311961472 0 0.88173731489851925 0.33077402607778361 0 0.915464298762109 0.43749999999886913 0 0 0.62500000000121547 0 0 0.50000000000206146 0 0.1371230538040123 0.56179824718362847 0 0.82212678063041267 0.67678595194836966 0 0.89051480781310632 0.79665793440246835 0 0.76243180583607129 0.78687675331113149 0 0.76243180583607129 0.78687675331113149 0 0.69010814643829166 0.89298495739101336 0 0.62844955668446423 0.7850749770380413 0 0.89051480781310632 0.79665793440246835 0 0.82212678063041267 0.67678595194836966 0 0.92266244547590082 0.68749999999917555 0 0 0.50000000000206146 0 0.121259140952891 0.43112117036853742 0 0.1371230538040123 0.56179824718362847 0 0.1082531754723032 0.6875000000007816 0 0 0.62500000000121547 0 0.1371230538040123 0.56179824718362847 0 0.75000000000032374 0.56698729811007709 0 0.88927506082488361 0.56409486310635837 0 0.82212678063041267 0.67678595194836966 0 0.81242894672211508 0.45500248311961472 0 0.88927506082488361 0.56409486310635837 0 0.75000000000032374 0.56698729811007709 0 0.69851598570178741 0.68211701800612057 0 0.56496004948275869 0.67675037307860475 0 0.62752533658682441 0.56838075195614346 0 0.69851598570178741 0.68211701800612057 0 0.76243180583607129 0.78687675331113149 0 0.62844955668446423 0.7850749770380413 0 0.23533274979922561 0.77093399389351469 0 0.18802967116092181 0.89415349436770275 0 0.10409951422139101 0.81206782209691231 0 0.121259140952891 0.43112117036853742 0 0.22257735880419699 0.47344721641341742 0 0.1371230538040123 0.56179824718362847 0 0.75000000000032374 0.56698729811007709 0 0.69851598570178741 0.68211701800612057 0 0.62752533658682441 0.56838075195614346 0 0.56496004948275869 0.67675037307860475 0 0.69851598570178741 0.68211701800612057 0 0.62844955668446423 0.7850749770380413 0 0.1371230538040123 0.56179824718362847 0 0.22257735880419699 0.47344721641341742 0 0.26982811998763367 0.56544650815856912 0 0.21809253452218619 0.65480892822618109 0 0.1371230538040123 0.56179824718362847 0 0.26982811998763367 0.56544650815856912 0 0.24418615484441761 0.35773612382016978 0 0.1082531754734323 0.31250000000117473 0 0.20767261601459541 0.25628918442207171 0 0.88173731489851925 0.33077402607778361 0 0.75000000000057243 0.35048094716480432 0 0.79891106056046712 0.25007334953587562 0 0.75000000000032374 0.56698729811007709 0 0.82212678063041267 0.67678595194836966 0 0.69851598570178741 0.68211701800612057 0 0.81249999999950517 0.1082531754733404 0 0.89658421694297741 0.1933620068391701 0 0.79891106056046712 0.25007334953587562 0 0.81249999999950517 0.1082531754733404 0 0.79891106056046712 0.25007334953587562 0 0.73983916756365475 0.17530677078674589 0 0.23533274979922561 0.77093399389351469 0 0.21809253452218619 0.65480892822618109 0 0.32607333794064219 0.67760114260606152 0 0.1082531754723032 0.6875000000007816 0 0.1371230538040123 0.56179824718362847 0 0.21809253452218619 0.65480892822618109 0 0.69851598570178741 0.68211701800612057 0 0.82212678063041267 0.67678595194836966 0 0.76243180583607129 0.78687675331113149 0 0.69010814643829166 0.89298495739101336 0 0.76243180583607129 0.78687675331113149 0 0.80886664387416207 0.89717308644237903 0 0.43750000000181222 0.89174682452709564 0 0.31258827852827581 0.89214793616708443 0 0.37776173212361452 0.78514649317305008 0 0.43750000000181222 0.89174682452709564 0 0.37500000000156292 1 0 0.31258827852827581 0.89214793616708443 0 0.121259140952891 0.43112117036853742 0 0 0.37500000000156292 0 0.1082531754734323 0.31250000000117473 0 0.50000000000206146 1 0 0.37500000000156292 1 0 0.43750000000181222 0.89174682452709564 0 0.31258827852827581 0.89214793616708443 0 0.18802967116092181 0.89415349436770275 0 0.23533274979922561 0.77093399389351469 0 0 0.50000000000206146 0 0 0.37500000000156292 0 0.121259140952891 0.43112117036853742 0 0.62844955668446423 0.7850749770380413 0 0.69010814643829166 0.89298495739101336 0 0.56327595140699671 0.89211526915426331 0 0.69010814643829166 0.89298495739101336 0 0.62500000000121547 1 0 0.56327595140699671 0.89211526915426331 0 0.25000000000104189 1 0 0.18802967116092181 0.89415349436770275 0 0.31258827852827581 0.89214793616708443 0 0.50000000000206146 1 0 0.43750000000181222 0.89174682452709564 0 0.56327595140699671 0.89211526915426331 0 0.56249999999885147 0.1082531754730395 0 0.62499999999901068 0 0 0.68749999999926592 0.1082531754732875 0 1 0.49999999999869221 0 1 0.62499999999901068 0 0.88927506082488361 0.56409486310635837 0 0 0.25000000000104189 0 0.12076953676380731 0.18690935762408761 0 0.1082531754734323 0.31250000000117473 0 0.49999999999869221 0 0 0.62499999999901068 0 0 0.56249999999885147 0.1082531754730395 0 0.62500000000121547 1 0 0.50000000000206146 1 0 0.56327595140699671 0.89211526915426331 0 0.37500000000156292 1 0 0.25000000000104189 1 0 0.31258827852827581 0.89214793616708443 0 0.31281086598417152 0.10449318608631281 0 0.37499999999904599 0 0 0.43749999999910871 0.1082531754729984 0 0.43750000000181222 0.89174682452709564 0 0.37776173212361452 0.78514649317305008 0 0.50046028868828263 0.78376912307435687 0 0 0.37500000000156292 0 0 0.25000000000104189 0 0.1082531754734323 0.31250000000117473 0 0.49999999999869221 0 0 0.56249999999885147 0.1082531754730395 0 0.43749999999910871 0.1082531754729984 0 0.43750000000181222 0.89174682452709564 0 0.50046028868828263 0.78376912307435687 0 0.56327595140699671 0.89211526915426331 0 0.74999999999934042 0 0 0.81249999999950517 0.1082531754733404 0 0.68749999999926592 0.1082531754732875 0 0.37499999999904599 0 0 0.49999999999869221 0 0 0.43749999999910871 0.1082531754729984 0 0.25000000000104189 1 0 0.12500000000052089 1 0 0.18802967116092181 0.89415349436770275 0 0.50046028868828263 0.78376912307435687 0 0.62844955668446423 0.7850749770380413 0 0.56327595140699671 0.89211526915426331 0 0.37776173212361452 0.78514649317305008 0 0.31258827852827581 0.89214793616708443 0 0.23533274979922561 0.77093399389351469 0 0.62499999999901068 0 0 0.74999999999934042 0 0 0.68749999999926592 0.1082531754732875 0 1 0.74999999999934042 0 1 0.87499999999967015 0 0.89051480781310632 0.79665793440246835 0 0 0.25000000000104189 0 0 0.12500000000052089 0 0.12076953676380731 0.18690935762408761 0 0.74999999999934042 0 0 0.87499999999967015 0 0 0.81249999999950517 0.1082531754733404 0 0.24999999999941069 0 0 0.37499999999904599 0 0 0.31281086598417152 0.10449318608631281 0 0.50046028868828263 0.78376912307435687 0 0.37776173212361452 0.78514649317305008 0 0.44078402250377968 0.67714785211715212 0 0.68768773896438518 0.4586835206367198 0 0.75000000000032374 0.56698729811007709 0 0.62752533658682441 0.56838075195614346 0 0.31411863959822661 0.24965544328045999 0 0.37953773393552892 0.34812185820708452 0 0.24418615484441761 0.35773612382016978 0 0.68768773896438518 0.4586835206367198 0 0.81242894672211508 0.45500248311961472 0 0.75000000000032374 0.56698729811007709 0 1 0.24999999999941069 0 1 0.37499999999904599 0 0.88173731489851925 0.33077402607778361 0 0 0.75000000000034761 0 0 0.62500000000121547 0 0.1082531754723032 0.6875000000007816 0 0.50048844149666749 0.56727788297625459 0 0.44078402250377968 0.67714785211715212 0 0.38694285807596462 0.5672991787102919 0 0.50108503093851109 0.35012252869403671 0 0.44301038174930041 0.45684931552185398 0 0.37953773393552892 0.34812185820708452 0 0.50046028868828263 0.78376912307435687 0 0.56496004948275869 0.67675037307860475 0 0.62844955668446423 0.7850749770380413 0 0.68768773896438518 0.4586835206367198 0 0.75000000000057243 0.35048094716480432 0 0.81242894672211508 0.45500248311961472 0 0.56349980387502452 0.45846841892908402 0 0.62512662990940393 0.35044303886909911 0 0.68768773896438518 0.4586835206367198 0 0.50048844149666749 0.56727788297625459 0 0.38694285807596462 0.5672991787102919 0 0.44301038174930041 0.45684931552185398 0 0.50046028868828263 0.78376912307435687 0 0.44078402250377968 0.67714785211715212 0 0.56496004948275869 0.67675037307860475 0 0.50108503093851109 0.35012252869403671 0 0.37953773393552892 0.34812185820708452 0 0.43750000000200551 0.24222777169198509 0 0.75000000000034761 1 0 0.62500000000121547 1 0 0.69010814643829166 0.89298495739101336 0 0.68768773896438518 0.4586835206367198 0 0.62512662990940393 0.35044303886909911 0 0.75000000000057243 0.35048094716480432 0 0.56496004948275869 0.67675037307860475 0 0.44078402250377968 0.67714785211715212 0 0.50048844149666749 0.56727788297625459 0 0.56349980387502452 0.45846841892908402 0 0.44301038174930041 0.45684931552185398 0 0.50108503093851109 0.35012252869403671 0 0.50048844149666749 0.56727788297625459 0 0.44301038174930041 0.45684931552185398 0 0.56349980387502452 0.45846841892908402 0 0.56349980387502452 0.45846841892908402 0 0.50108503093851109 0.35012252869403671 0 0.62512662990940393 0.35044303886909911 0 0.43750000000200551 0.24222777169198509 0 0.37953773393552892 0.34812185820708452 0 0.31411863959822661 0.24965544328045999 0 0.56496004948275869 0.67675037307860475 0 0.50048844149666749 0.56727788297625459 0 0.62752533658682441 0.56838075195614346 0 0.56349980387502452 0.45846841892908402 0 0.68768773896438518 0.4586835206367198 0 0.62752533658682441 0.56838075195614346 0 0.50048844149666749 0.56727788297625459 0 0.56349980387502452 0.45846841892908402 0 0.62752533658682441 0.56838075195614346 0 0.75000000000057243 0.35048094716480432 0 0.62512662990940393 0.35044303886909911 0 0.68668231842078242 0.24762892664808989 0 0.50108503093851109 0.35012252869403671 0 0.43750000000200551 0.24222777169198509 0 0.56250000000143974 0.2422277716920859 0 0.62512662990940393 0.35044303886909911 0 0.50108503093851109 0.35012252869403671 0 0.56250000000143974 0.2422277716920859 0 0.68668231842078242 0.24762892664808989 0 0.62512662990940393 0.35044303886909911 0 0.56250000000143974 0.2422277716920859 0 0.22257735880419699 0.47344721641341742 0 0.24418615484441761 0.35773612382016978 0 0.32815957677880009 0.4577243358118348 0 0.12076953676380731 0.18690935762408761 0 0.19185372118111221 0.092925648673580788 0 0.25103557339309318 0.17464499738446629 0 0.20767261601459541 0.25628918442207171 0 0.12076953676380731 0.18690935762408761 0 0.25103557339309318 0.17464499738446629 0 0 0.87499999999950151 0 0 0.75000000000034761 0 0.10409951422139101 0.81206782209691231 0 0.1249999999997731 0 0 0.24999999999941069 0 0 0.19185372118111221 0.092925648673580788 0 1 0.1249999999997731 0 1 0.24999999999941069 0 0.89658421694297741 0.1933620068391701 0 0.88927506082488361 0.56409486310635837 0 0.81242894672211508 0.45500248311961472 0 0.915464298762109 0.43749999999886913 0 0.87499999999950151 1 0 0.75000000000034761 1 0 0.80886664387416207 0.89717308644237903 0 0.75000000000034761 1 0 0.69010814643829166 0.89298495739101336 0 0.80886664387416207 0.89717308644237903 0 0.82212678063041267 0.67678595194836966 0 0.88927506082488361 0.56409486310635837 0 0.92266244547590082 0.68749999999917555 0 0 0.75000000000034761 0 0.1082531754723032 0.6875000000007816 0 0.10409951422139101 0.81206782209691231 0 0.24999999999941069 0 0 0.31281086598417152 0.10449318608631281 0 0.19185372118111221 0.092925648673580788 0 1 0.24999999999941069 0 0.88173731489851925 0.33077402607778361 0 0.89658421694297741 0.1933620068391701 0 0.32815957677880009 0.4577243358118348 0 0.38694285807596462 0.5672991787102919 0 0.26982811998763367 0.56544650815856912 0 0.76243180583607129 0.78687675331113149 0 0.89051480781310632 0.79665793440246835 0 0.80886664387416207 0.89717308644237903 0 0.38694285807596462 0.5672991787102919 0 0.44078402250377968 0.67714785211715212 0 0.32607333794064219 0.67760114260606152 0 0.37776173212361452 0.78514649317305008 0 0.23533274979922561 0.77093399389351469 0 0.32607333794064219 0.67760114260606152 0 1 0.49999999999869221 0 0.88927506082488361 0.56409486310635837 0 0.915464298762109 0.43749999999886913 0 0.88173731489851925 0.33077402607778361 0 1 0.37499999999904599 0 0.915464298762109 0.43749999999886913 0 0.24418615484441761 0.35773612382016978 0 0.37953773393552892 0.34812185820708452 0 0.32815957677880009 0.4577243358118348 0 0.44301038174930041 0.45684931552185398 0 0.38694285807596462 0.5672991787102919 0 0.32815957677880009 0.4577243358118348 0 0.88927506082488361 0.56409486310635837 0 1 0.62499999999901068 0 0.92266244547590082 0.68749999999917555 0 1 0.74999999999934042 0 0.89051480781310632 0.79665793440246835 0 0.92266244547590082 0.68749999999917555 0 0 1 0 0 0.87499999999950151 0 0.091506350946494744 0.90849364905351082 0 1 1 0 0.87499999999950151 1 0 0.90849364905363228 0.90849364905367769 0 0 0 0 0.1249999999997731 0 0 0.091506350946417708 0.091506350946618076 0 0 0.12500000000052089 0 0 0 0 0.091506350946417708 0.091506350946618076 0 1 0 0 1 0.1249999999997731 0 0.90849364905355434 0.091506350946296292 0 0.87499999999967015 0 0 1 0 0 0.90849364905355434 0.091506350946296292 0 0.12500000000052089 1 0 0 1 0 0.091506350946494744 0.90849364905351082 0 1 0.87499999999967015 0 1 1 0 0.90849364905363228 0.90849364905367769 0 0.38694285807596462 0.5672991787102919 0 0.32607333794064219 0.67760114260606152 0 0.26982811998763367 0.56544650815856912 0 0.31411863959822661 0.24965544328045999 0 0.24418615484441761 0.35773612382016978 0 0.20767261601459541 0.25628918442207171 0 0.1082531754734323 0.31250000000117473 0 0.12076953676380731 0.18690935762408761 0 0.20767261601459541 0.25628918442207171 0 0.75000000000057243 0.35048094716480432 0 0.68668231842078242 0.24762892664808989 0 0.79891106056046712 0.25007334953587562 0 0.22257735880419699 0.47344721641341742 0 0.32815957677880009 0.4577243358118348 0 0.26982811998763367 0.56544650815856912 0 0.44078402250377968 0.67714785211715212 0 0.37776173212361452 0.78514649317305008 0 0.32607333794064219 0.67760114260606152 0 0.89658421694297741 0.1933620068391701 0 0.88173731489851925 0.33077402607778361 0 0.79891106056046712 0.25007334953587562 0 1 0.37499999999904599 0 1 0.49999999999869221 0 0.915464298762109 0.43749999999886913 0 0.37953773393552892 0.34812185820708452 0 0.44301038174930041 0.45684931552185398 0 0.32815957677880009 0.4577243358118348 0 0.32607333794064219 0.67760114260606152 0 0.21809253452218619 0.65480892822618109 0 0.26982811998763367 0.56544650815856912 0 1 0.1249999999997731 0 0.89658421694297741 0.1933620068391701 0 0.90849364905355434 0.091506350946296292 0 0 0.87499999999950151 0 0.10409951422139101 0.81206782209691231 0 0.091506350946494744 0.90849364905351082 0 0.1249999999997731 0 0 0.19185372118111221 0.092925648673580788 0 0.091506350946417708 0.091506350946618076 0 1 0.62499999999901068 0 1 0.74999999999934042 0 0.92266244547590082 0.68749999999917555 0 0.18802967116092181 0.89415349436770275 0 0.12500000000052089 1 0 0.091506350946494744 0.90849364905351082 0 0.89051480781310632 0.79665793440246835 0 1 0.87499999999967015 0 0.90849364905363228 0.90849364905367769 0 0.12076953676380731 0.18690935762408761 0 0 0.12500000000052089 0 0.091506350946417708 0.091506350946618076 0 0.81249999999950517 0.1082531754733404 0 0.87499999999967015 0 0 0.90849364905355434 0.091506350946296292 0 0.87499999999950151 1 0 0.80886664387416207 0.89717308644237903 0 0.90849364905363228 0.90849364905367769 0 0.68668231842078242 0.24762892664808989 0 0.62499999999892575 0.17524047358135519 0 0.73983916756365475 0.17530677078674589 0 0.31281086598417152 0.10449318608631281 0 0.43749999999910871 0.1082531754729984 0 0.37500000000232431 0.17524047358384309 0 0.62499999999892575 0.17524047358135519 0 0.56250000000143974 0.2422277716920859 0 0.49999999999934441 0.1752404735815076 0 0.56249999999885147 0.1082531754730395 0 0.68749999999926592 0.1082531754732875 0 0.62499999999892575 0.17524047358135519 0 0.56249999999885147 0.1082531754730395 0 0.62499999999892575 0.17524047358135519 0 0.49999999999934441 0.1752404735815076 0 0.56250000000143974 0.2422277716920859 0 0.43750000000200551 0.24222777169198509 0 0.49999999999934441 0.1752404735815076 0 0.43749999999910871 0.1082531754729984 0 0.56249999999885147 0.1082531754730395 0 0.49999999999934441 0.1752404735815076 0 0.68668231842078242 0.24762892664808989 0 0.56250000000143974 0.2422277716920859 0 0.62499999999892575 0.17524047358135519 0 0.43750000000200551 0.24222777169198509 0 0.31411863959822661 0.24965544328045999 0 0.37500000000232431 0.17524047358384309 0 0.49999999999934441 0.1752404735815076 0 0.43750000000200551 0.24222777169198509 0 0.37500000000232431 0.17524047358384309 0 0.43749999999910871 0.1082531754729984 0 0.49999999999934441 0.1752404735815076 0 0.37500000000232431 0.17524047358384309 0 0.62499999999892575 0.17524047358135519 0 0.68749999999926592 0.1082531754732875 0 0.73983916756365475 0.17530677078674589 0 0.68749999999926592 0.1082531754732875 0 0.81249999999950517 0.1082531754733404 0 0.73983916756365475 0.17530677078674589 0 0.10409951422139101 0.81206782209691231 0 0.18802967116092181 0.89415349436770275 0 0.091506350946494744 0.90849364905351082 0 0.89658421694297741 0.1933620068391701 0 0.81249999999950517 0.1082531754733404 0 0.90849364905355434 0.091506350946296292 0 0.19185372118111221 0.092925648673580788 0 0.12076953676380731 0.18690935762408761 0 0.091506350946417708 0.091506350946618076 0 0.37500000000232431 0.17524047358384309 0 0.31411863959822661 0.24965544328045999 0 0.25103557339309318 0.17464499738446629 0 0.31281086598417152 0.10449318608631281 0 0.37500000000232431 0.17524047358384309 0 0.25103557339309318 0.17464499738446629 0 0.80886664387416207 0.89717308644237903 0 0.89051480781310632 0.79665793440246835 0 0.90849364905363228 0.90849364905367769 0 0.19185372118111221 0.092925648673580788 0 0.31281086598417152 0.10449318608631281 0 0.25103557339309318 0.17464499738446629 0 0.79891106056046712 0.25007334953587562 0 0.68668231842078242 0.24762892664808989 0 0.73983916756365475 0.17530677078674589 0 0.31411863959822661 0.24965544328045999 0 0.20767261601459541 0.25628918442207171 0 0.25103557339309318 0.17464499738446629 0 

        </DataArray>

      </Points>

      <Cells>

        <DataArray type="Int32" Name="connectivity" format="ascii">

0 1 2 3 4 5 6 7 8 9 10 11 12 13 14 15 16 17 18 19 20 21 22 23 24 25 26 27 28 29 30 31 32 33 34 35 36 37 38 39 40 41 42 43 44 45 46 47 48 49 50 51 52 53 54 55 56 57 58 59 60 61 62 63 64 65 66 67 68 69 70 71 72 73 74 75 76 77 78 79 80 81 82 83 84 85 86 87 88 89 90 91 92 93 94 95 96 97 98 99 100 101 102 103 104 105 106 107 108 109 110 111 112 113 114 115 116 117 118 119 120 121 122 123 124 125 126 127 128 129 130 131 132 133 134 135 136 137 138 139 140 141 142 143 144 145 146 147 148 149 150 151 152 153 154 155 156 157 158 159 160 161 162 163 164 165 166 167 168 169 170 171 172 173 174 175 176 177 178 179 180 181 182 183 184 185 186 187 188 189 190 191 192 193 194 195 196 197 198 199 200 201 202 203 204 205 206 207 208 209 210 211 212 213 214 215 216 217 218 219 220 221 222 223 224 225 226 227 228 229 230 231 232 233 234 235 236 237 238 239 240 241 242 243 244 245 246 247 248 249 250 251 252 253 254 255 256 257 258 259 260 261 262 263 264 265 266 267 268 269 270 271 272 273 274 275 276 277 278 279 280 281 282 283 284 285 286 287 288 289 290 291 292 293 294 295 296 297 298 299 300 301 302 303 304 305 306 307 308 309 310 311 312 313 314 315 316 317 318 319 320 321 322 323 324 325 326 327 328 329 330 331 332 333 334 335 336 337 338 339 340 341 342 343 344 345 346 347 348 349 350 351 352 353 354 355 356 357 358 359 360 361 362 363 364 365 366 367 368 369 370 371 372 373 374 375 376 377 378 379 380 381 382 383 384 385 386 387 388 389 390 391 392 393 394 395 396 397 398 399 400 401 402 403 404 405 406 407 408 409 410 411 412 413 414 415 416 417 418 419 420 421 422 423 424 425 426 427 428 429 430 431 432 433 434 435 436 437 438 439 440 441 442 443 444 445 446 447 448 449 450 451 452 453 454 455 456 457 458 459 460 461 462 463 464 465 466 467 468 469 470 471 472 473 474 475 476 477 478 479 480 481 482 483 484 485 

        </DataArray>

        <DataArray type="Int32" Name="offsets" format="ascii">

3 6 9 12 15 18 21 24 27 30 33 36 39 42 45 48 51 54 57 60 63 66 69 72 75 78 81 84 87 90 93 96 99 102 105 108 111 114 117 120 123 126 129 132 135 138 141 144 147 150 153 156 159 162 165 168 171 174 177 180 183 186 189 192 195 198 201 204 207 210 213 216 219 222 225 228 231 234 237 240 243 246 249 252 255 258 261 264 267 270 273 276 279 282 285 288 291 294 297 300 303 306 309 312 315 318 321 324 327 330 333 336 339 342 345 348 351 354 357 360 363 366 369 372 375 378 381 384 387 390 393 396 399 402 405 408 411 414 417 420 423 426 429 432 435 438 441 444 447 450 453 456 459 462 465 468 471 474 477 480 483 486 

        </DataArray>

        <DataArray type="Int32" Name="types" format="ascii">

5 5 5 5 5 5 5 5 5 5 5 5 5 5 5 5 5 5 5 5 5 5 5 5 5 5 5 5 5 5 5 5 5 5 5 5 5 5 5 5 5 5 5 5 5 5 5 5 5 5 5 5 5 5 5 5 5 5 5 5 5 5 5 5 5 5 5 5 5 5 5 5 5 5 5 5 5 5 5 5 5 5 5 5 5 5 5 5 5 5 5 5 5 5 5 5 5 5 5 5 5 5 5 5 5 5 5 5 5 5 5 5 5 5 5 5 5 5 5 5 5 5 5 5 5 5 5 5 5 5 5 5 5 5 5 5 5 5 5 5 5 5 5 5 5 5 5 5 5 5 5 5 5 5 5 5 5 5 5 5 5 5 

        </DataArray>

      </Cells>

    </Piece>

  </UnstructuredGrid>

</VTKFile>

