<?xml version="1.0"?>

<VTKFile type="UnstructuredGrid" version="0.1">

  <UnstructuredGrid>

    <Piece NumberOfPoints="486" NumberOfCells="162">

      <PointData>

        <DataArray type="Float64" Name="K" format="ascii">

9.93377238818794694e-01
9.93377238818794694e-01
9.93377238818794694e-01
9.87468000899603182e-01
9.87468000899603182e-01
9.87468000899603182e-01
9.78365663904503524e-01
9.78365663904503524e-01
9.78365663904503524e-01
9.84674230464251399e-01
9.84674230464251399e-01
9.84674230464251399e-01
9.66623508427350897e-01
9.66623508427350897e-01
9.66623508427350897e-01
9.96714706204893441e-01
9.96714706204893441e-01
9.96714706204893441e-01
1.01444020541224811e+00
1.01444020541224811e+00
1.01444020541224811e+00
1.00310569269517469e+00
1.00310569269517469e+00
1.00310569269517469e+00
1.03519229795167611e+00
1.03519229795167611e+00
1.03519229795167611e+00
9.90345893247154052e-01
9.90345893247154052e-01
9.90345893247154052e-01
9.97005556802339044e-01
9.97005556802339044e-01
9.97005556802339044e-01
1.01330874010426109e+00
1.01330874010426109e+00
1.01330874010426109e+00
1.00645666626170138e+00
1.00645666626170138e+00
1.00645666626170138e+00
9.98464379706884397e-01
9.98464379706884397e-01
9.98464379706884397e-01
9.91790868400302061e-01
9.91790868400302061e-01
9.91790868400302061e-01
1.03244482390430248e+00
1.03244482390430248e+00
1.03244482390430248e+00
9.97104462624554988e-01
9.97104462624554988e-01
9.97104462624554988e-01
9.75332663936642641e-01
9.75332663936642641e-01
9.75332663936642641e-01
9.91989360584766056e-01
9.91989360584766056e-01
9.91989360584766056e-01
1.01755809786749052e+00
1.01755809786749052e+00
1.01755809786749052e+00
9.58192697098825819e-01
9.58192697098825819e-01
9.58192697098825819e-01
9.65709600140710944e-01
9.65709600140710944e-01
9.65709600140710944e-01
9.83708048727075735e-01
9.83708048727075735e-01
9.83708048727075735e-01
9.90232529187719424e-01
9.90232529187719424e-01
9.90232529187719424e-01
1.01416311963065420e+00
1.01416311963065420e+00
1.01416311963065420e+00
1.01676416831160732e+00
1.01676416831160732e+00
1.01676416831160732e+00
1.02743680499565859e+00
1.02743680499565859e+00
1.02743680499565859e+00
9.96498897181583354e-01
9.96498897181583354e-01
9.96498897181583354e-01
9.85255912226845831e-01
9.85255912226845831e-01
9.85255912226845831e-01
1.02268950464257213e+00
1.02268950464257213e+00
1.02268950464257213e+00
1.01134946780601709e+00
1.01134946780601709e+00
1.01134946780601709e+00
1.00838844296540620e+00
1.00838844296540620e+00
1.00838844296540620e+00
9.90535097835188449e-01
9.90535097835188449e-01
9.90535097835188449e-01
9.79917576609937391e-01
9.79917576609937391e-01
9.79917576609937391e-01
1.01061600960160747e+00
1.01061600960160747e+00
1.01061600960160747e+00
1.00391682387579095e+00
1.00391682387579095e+00
1.00391682387579095e+00
9.84541902584180728e-01
9.84541902584180728e-01
9.84541902584180728e-01
1.04639492091156328e+00
1.04639492091156328e+00
1.04639492091156328e+00
1.03937151601938260e+00
1.03937151601938260e+00
1.03937151601938260e+00
9.85578038183089866e-01
9.85578038183089866e-01
9.85578038183089866e-01
1.03832515477734799e+00
1.03832515477734799e+00
1.03832515477734799e+00
1.02911514596956311e+00
1.02911514596956311e+00
1.02911514596956311e+00
9.80863101800947712e-01
9.80863101800947712e-01
9.80863101800947712e-01
9.91844330844100841e-01
9.91844330844100841e-01
9.91844330844100841e-01
1.03289464924549756e+00
1.03289464924549756e+00
1.03289464924549756e+00
1.04524819992255935e+00
1.04524819992255935e+00
1.04524819992255935e+00
9.70234544561421552e-01
9.70234544561421552e-01
9.70234544561421552e-01
1.05767828871402170e+00
1.05767828871402170e+00
1.05767828871402170e+00
1.02155188501245253e+00
1.02155188501245253e+00
1.02155188501245253e+00
9.84064451352228309e-01
9.84064451352228309e-01
9.84064451352228309e-01
1.03398585433087553e+00
1.03398585433087553e+00
1.03398585433087553e+00
1.03441864720776500e+00
1.03441864720776500e+00
1.03441864720776500e+00
1.04601357558473662e+00
1.04601357558473662e+00
1.04601357558473662e+00
1.05891971718392508e+00
1.05891971718392508e+00
1.05891971718392508e+00
9.80991441919385698e-01
9.80991441919385698e-01
9.80991441919385698e-01
1.04043865700856819e+00
1.04043865700856819e+00
1.04043865700856819e+00
1.01365896627802843e+00
1.01365896627802843e+00
1.01365896627802843e+00
1.03743541851398979e+00
1.03743541851398979e+00
1.03743541851398979e+00
9.98498329906475135e-01
9.98498329906475135e-01
9.98498329906475135e-01
1.02029978330481774e+00
1.02029978330481774e+00
1.02029978330481774e+00
1.04175914968864713e+00
1.04175914968864713e+00
1.04175914968864713e+00
1.04376971633947080e+00
1.04376971633947080e+00
1.04376971633947080e+00
1.02455016508486207e+00
1.02455016508486207e+00
1.02455016508486207e+00
9.71049655900346531e-01
9.71049655900346531e-01
9.71049655900346531e-01
9.70731598911918847e-01
9.70731598911918847e-01
9.70731598911918847e-01
9.78776361378444704e-01
9.78776361378444704e-01
9.78776361378444704e-01
1.01998436487417177e+00
1.01998436487417177e+00
1.01998436487417177e+00
1.02701740413012699e+00
1.02701740413012699e+00
1.02701740413012699e+00
1.00984520148557078e+00
1.00984520148557078e+00
1.00984520148557078e+00
9.58388837521798154e-01
9.58388837521798154e-01
9.58388837521798154e-01
1.02163618085574259e+00
1.02163618085574259e+00
1.02163618085574259e+00
9.73173828103859773e-01
9.73173828103859773e-01
9.73173828103859773e-01
9.71381836579981117e-01
9.71381836579981117e-01
9.71381836579981117e-01
9.91185048822683656e-01
9.91185048822683656e-01
9.91185048822683656e-01
1.01530844986598701e+00
1.01530844986598701e+00
1.01530844986598701e+00
9.60618457904803491e-01
9.60618457904803491e-01
9.60618457904803491e-01
1.00756450789144036e+00
1.00756450789144036e+00
1.00756450789144036e+00
9.75287142264312457e-01
9.75287142264312457e-01
9.75287142264312457e-01
1.00476172382797713e+00
1.00476172382797713e+00
1.00476172382797713e+00
9.73870341851083787e-01
9.73870341851083787e-01
9.73870341851083787e-01
9.83304276217323303e-01
9.83304276217323303e-01
9.83304276217323303e-01
9.78232110272154065e-01
9.78232110272154065e-01
9.78232110272154065e-01
9.75431002800324243e-01
9.75431002800324243e-01
9.75431002800324243e-01
9.83776782971449326e-01
9.83776782971449326e-01
9.83776782971449326e-01
9.64290967690948131e-01
9.64290967690948131e-01
9.64290967690948131e-01
9.75232878306716677e-01
9.75232878306716677e-01
9.75232878306716677e-01
9.96128573229284942e-01
9.96128573229284942e-01
9.96128573229284942e-01
9.72532277395030897e-01
9.72532277395030897e-01
9.72532277395030897e-01
9.84560239933356396e-01
9.84560239933356396e-01
9.84560239933356396e-01
1.00380013677331403e+00
1.00380013677331403e+00
1.00380013677331403e+00
9.47795838367632149e-01
9.47795838367632149e-01
9.47795838367632149e-01
1.00560745344095559e+00
1.00560745344095559e+00
1.00560745344095559e+00
1.00017884311079008e+00
1.00017884311079008e+00
1.00017884311079008e+00
1.00041312307078867e+00
1.00041312307078867e+00
1.00041312307078867e+00
1.01022474785700123e+00
1.01022474785700123e+00
1.01022474785700123e+00
1.03396250540521395e+00
1.03396250540521395e+00
1.03396250540521395e+00
9.97794750528597008e-01
9.97794750528597008e-01
9.97794750528597008e-01
9.89404384115557423e-01
9.89404384115557423e-01
9.89404384115557423e-01
9.98349770872158926e-01
9.98349770872158926e-01
9.98349770872158926e-01
9.93068775780139856e-01
9.93068775780139856e-01
9.93068775780139856e-01
1.00702370663520457e+00
1.00702370663520457e+00
1.00702370663520457e+00
1.02479489150012326e+00
1.02479489150012326e+00
1.02479489150012326e+00
1.01801427989982596e+00
1.01801427989982596e+00
1.01801427989982596e+00
9.59930786358870192e-01
9.59930786358870192e-01
9.59930786358870192e-01
9.97817953770351540e-01
9.97817953770351540e-01
9.97817953770351540e-01
1.01483067164504970e+00
1.01483067164504970e+00
1.01483067164504970e+00
1.01769032242792345e+00
1.01769032242792345e+00
1.01769032242792345e+00
9.91310454210727277e-01
9.91310454210727277e-01
9.91310454210727277e-01
1.00759789004380140e+00
1.00759789004380140e+00
1.00759789004380140e+00
9.48418874761724151e-01
9.48418874761724151e-01
9.48418874761724151e-01
9.66671689140985113e-01
9.66671689140985113e-01
9.66671689140985113e-01
9.81729313917198865e-01
9.81729313917198865e-01
9.81729313917198865e-01
9.88151816656514970e-01
9.88151816656514970e-01
9.88151816656514970e-01
9.66786228471848919e-01
9.66786228471848919e-01
9.66786228471848919e-01
9.90072632499815919e-01
9.90072632499815919e-01
9.90072632499815919e-01
1.03333240732266529e+00
1.03333240732266529e+00
1.03333240732266529e+00
1.04715834436822619e+00
1.04715834436822619e+00
1.04715834436822619e+00
1.03436022366149794e+00
1.03436022366149794e+00
1.03436022366149794e+00
1.03165257311562897e+00
1.03165257311562897e+00
1.03165257311562897e+00
9.67023142714398709e-01
9.67023142714398709e-01
9.67023142714398709e-01
9.92040455848021030e-01
9.92040455848021030e-01
9.92040455848021030e-01
9.85935168671261630e-01
9.85935168671261630e-01
9.85935168671261630e-01
9.89108452975345109e-01
9.89108452975345109e-01
9.89108452975345109e-01
9.88050824823537233e-01
9.88050824823537233e-01
9.88050824823537233e-01
1.00137570945711407e+00
1.00137570945711407e+00
1.00137570945711407e+00
9.45142712987653510e-01
9.45142712987653510e-01
9.45142712987653510e-01
1.02574697686482419e+00
1.02574697686482419e+00
1.02574697686482419e+00
1.00245069587756430e+00
1.00245069587756430e+00
1.00245069587756430e+00
9.96530784919639090e-01
9.96530784919639090e-01
9.96530784919639090e-01
9.50419642113109808e-01
9.50419642113109808e-01
9.50419642113109808e-01
9.78565604528443211e-01
9.78565604528443211e-01
9.78565604528443211e-01
1.02783807160161400e+00
1.02783807160161400e+00
1.02783807160161400e+00
9.82343490142599252e-01
9.82343490142599252e-01
9.82343490142599252e-01
1.01464670745440033e+00
1.01464670745440033e+00
1.01464670745440033e+00
9.88145823057162143e-01
9.88145823057162143e-01
9.88145823057162143e-01
9.82765293768629866e-01
9.82765293768629866e-01
9.82765293768629866e-01
9.95446274592293623e-01
9.95446274592293623e-01
9.95446274592293623e-01
1.02415105494538694e+00
1.02415105494538694e+00
1.02415105494538694e+00
1.03376572086649943e+00
1.03376572086649943e+00
1.03376572086649943e+00
9.92005885367798435e-01
9.92005885367798435e-01
9.92005885367798435e-01
1.03082092286763372e+00
1.03082092286763372e+00
1.03082092286763372e+00
1.04351709021268824e+00
1.04351709021268824e+00
1.04351709021268824e+00
9.99318861830609362e-01
9.99318861830609362e-01
9.99318861830609362e-01
1.02567503678844574e+00
1.02567503678844574e+00
1.02567503678844574e+00
1.00721958607475681e+00
1.00721958607475681e+00
1.00721958607475681e+00
9.83820737271124068e-01
9.83820737271124068e-01
9.83820737271124068e-01
1.01275515652281345e+00
1.01275515652281345e+00
1.01275515652281345e+00
1.01510862734908480e+00
1.01510862734908480e+00
1.01510862734908480e+00
1.00242681925316179e+00
1.00242681925316179e+00
1.00242681925316179e+00
9.98262291356411757e-01
9.98262291356411757e-01
9.98262291356411757e-01
1.01850915525863051e+00
1.01850915525863051e+00
1.01850915525863051e+00
1.03825647914366770e+00
1.03825647914366770e+00
1.03825647914366770e+00
1.04309311951626893e+00
1.04309311951626893e+00
1.04309311951626893e+00
9.87786940411849335e-01
9.87786940411849335e-01
9.87786940411849335e-01
1.02407096222971217e+00
1.02407096222971217e+00
1.02407096222971217e+00
1.00807194325641625e+00
1.00807194325641625e+00
1.00807194325641625e+00
1.02147491895784626e+00
1.02147491895784626e+00
1.02147491895784626e+00
1.03695017721693294e+00
1.03695017721693294e+00
1.03695017721693294e+00
9.91352672679345903e-01
9.91352672679345903e-01
9.91352672679345903e-01
1.02506372679651037e+00
1.02506372679651037e+00
1.02506372679651037e+00
1.02136517754035716e+00
1.02136517754035716e+00
1.02136517754035716e+00
1.00845601208033187e+00
1.00845601208033187e+00
1.00845601208033187e+00


        </DataArray>

      </PointData>

      <CellData/>

      <Points>

        <DataArray type="Float64" NumberOfComponents="3" format="ascii">

0.1082531754723032 0.6875000000007816 0 0.23533274979922561 0.77093399389351469 0 0.10409951422139101 0.81206782209691231 0 0.23533274979922561 0.77093399389351469 0 0.1082531754723032 0.6875000000007816 0 0.21809253452218619 0.65480892822618109 0 0.24418615484441761 0.35773612382016978 0 0.121259140952891 0.43112117036853742 0 0.1082531754734323 0.31250000000117473 0 0.75000000000057243 0.35048094716480432 0 0.88173731489851925 0.33077402607778361 0 0.81242894672211508 0.45500248311961472 0 0.121259140952891 0.43112117036853742 0 0.24418615484441761 0.35773612382016978 0 0.22257735880419699 0.47344721641341742 0 0.81242894672211508 0.45500248311961472 0 0.88173731489851925 0.33077402607778361 0 0.915464298762109 0.43749999999886913 0 0 0.62500000000121547 0 0 0.50000000000206146 0 0.1371230538040123 0.56179824718362847 0 0.82212678063041267 0.67678595194836966 0 0.89051480781310632 0.79665793440246835 0 0.76243180583607129 0.78687675331113149 0 0.76243180583607129 0.78687675331113149 0 0.69010814643829166 0.89298495739101336 0 0.62844955668446423 0.7850749770380413 0 0.89051480781310632 0.79665793440246835 0 0.82212678063041267 0.67678595194836966 0 0.92266244547590082 0.68749999999917555 0 0 0.50000000000206146 0 0.121259140952891 0.43112117036853742 0 0.1371230538040123 0.56179824718362847 0 0.1082531754723032 0.6875000000007816 0 0 0.62500000000121547 0 0.1371230538040123 0.56179824718362847 0 0.75000000000032374 0.56698729811007709 0 0.88927506082488361 0.56409486310635837 0 0.82212678063041267 0.67678595194836966 0 0.81242894672211508 0.45500248311961472 0 0.88927506082488361 0.56409486310635837 0 0.75000000000032374 0.56698729811007709 0 0.69851598570178741 0.68211701800612057 0 0.56496004948275869 0.67675037307860475 0 0.62752533658682441 0.56838075195614346 0 0.69851598570178741 0.68211701800612057 0 0.76243180583607129 0.78687675331113149 0 0.62844955668446423 0.7850749770380413 0 0.23533274979922561 0.77093399389351469 0 0.18802967116092181 0.89415349436770275 0 0.10409951422139101 0.81206782209691231 0 0.121259140952891 0.43112117036853742 0 0.22257735880419699 0.47344721641341742 0 0.1371230538040123 0.56179824718362847 0 0.75000000000032374 0.56698729811007709 0 0.69851598570178741 0.68211701800612057 0 0.62752533658682441 0.56838075195614346 0 0.56496004948275869 0.67675037307860475 0 0.69851598570178741 0.68211701800612057 0 0.62844955668446423 0.7850749770380413 0 0.1371230538040123 0.56179824718362847 0 0.22257735880419699 0.47344721641341742 0 0.26982811998763367 0.56544650815856912 0 0.21809253452218619 0.65480892822618109 0 0.1371230538040123 0.56179824718362847 0 0.26982811998763367 0.56544650815856912 0 0.24418615484441761 0.35773612382016978 0 0.1082531754734323 0.31250000000117473 0 0.20767261601459541 0.25628918442207171 0 0.88173731489851925 0.33077402607778361 0 0.75000000000057243 0.35048094716480432 0 0.79891106056046712 0.25007334953587562 0 0.75000000000032374 0.56698729811007709 0 0.82212678063041267 0.67678595194836966 0 0.69851598570178741 0.68211701800612057 0 0.81249999999950517 0.1082531754733404 0 0.89658421694297741 0.1933620068391701 0 0.79891106056046712 0.25007334953587562 0 0.81249999999950517 0.1082531754733404 0 0.79891106056046712 0.25007334953587562 0 0.73983916756365475 0.17530677078674589 0 0.23533274979922561 0.77093399389351469 0 0.21809253452218619 0.65480892822618109 0 0.32607333794064219 0.67760114260606152 0 0.1082531754723032 0.6875000000007816 0 0.1371230538040123 0.56179824718362847 0 0.21809253452218619 0.65480892822618109 0 0.69851598570178741 0.68211701800612057 0 0.82212678063041267 0.67678595194836966 0 0.76243180583607129 0.78687675331113149 0 0.69010814643829166 0.89298495739101336 0 0.76243180583607129 0.78687675331113149 0 0.80886664387416207 0.89717308644237903 0 0.43750000000181222 0.89174682452709564 0 0.31258827852827581 0.89214793616708443 0 0.37776173212361452 0.78514649317305008 0 0.43750000000181222 0.89174682452709564 0 0.37500000000156292 1 0 0.31258827852827581 0.89214793616708443 0 0.121259140952891 0.43112117036853742 0 0 0.37500000000156292 0 0.1082531754734323 0.31250000000117473 0 0.50000000000206146 1 0 0.37500000000156292 1 0 0.43750000000181222 0.89174682452709564 0 0.31258827852827581 0.89214793616708443 0 0.18802967116092181 0.89415349436770275 0 0.23533274979922561 0.77093399389351469 0 0 0.50000000000206146 0 0 0.37500000000156292 0 0.121259140952891 0.43112117036853742 0 0.62844955668446423 0.7850749770380413 0 0.69010814643829166 0.89298495739101336 0 0.56327595140699671 0.89211526915426331 0 0.69010814643829166 0.89298495739101336 0 0.62500000000121547 1 0 0.56327595140699671 0.89211526915426331 0 0.25000000000104189 1 0 0.18802967116092181 0.89415349436770275 0 0.31258827852827581 0.89214793616708443 0 0.50000000000206146 1 0 0.43750000000181222 0.89174682452709564 0 0.56327595140699671 0.89211526915426331 0 0.56249999999885147 0.1082531754730395 0 0.62499999999901068 0 0 0.68749999999926592 0.1082531754732875 0 1 0.49999999999869221 0 1 0.62499999999901068 0 0.88927506082488361 0.56409486310635837 0 0 0.25000000000104189 0 0.12076953676380731 0.18690935762408761 0 0.1082531754734323 0.31250000000117473 0 0.49999999999869221 0 0 0.62499999999901068 0 0 0.56249999999885147 0.1082531754730395 0 0.62500000000121547 1 0 0.50000000000206146 1 0 0.56327595140699671 0.89211526915426331 0 0.37500000000156292 1 0 0.25000000000104189 1 0 0.31258827852827581 0.89214793616708443 0 0.31281086598417152 0.10449318608631281 0 0.37499999999904599 0 0 0.43749999999910871 0.1082531754729984 0 0.43750000000181222 0.89174682452709564 0 0.37776173212361452 0.78514649317305008 0 0.50046028868828263 0.78376912307435687 0 0 0.37500000000156292 0 0 0.25000000000104189 0 0.1082531754734323 0.31250000000117473 0 0.49999999999869221 0 0 0.56249999999885147 0.1082531754730395 0 0.43749999999910871 0.1082531754729984 0 0.43750000000181222 0.89174682452709564 0 0.50046028868828263 0.78376912307435687 0 0.56327595140699671 0.89211526915426331 0 0.74999999999934042 0 0 0.81249999999950517 0.1082531754733404 0 0.68749999999926592 0.1082531754732875 0 0.37499999999904599 0 0 0.49999999999869221 0 0 0.43749999999910871 0.1082531754729984 0 0.25000000000104189 1 0 0.12500000000052089 1 0 0.18802967116092181 0.89415349436770275 0 0.50046028868828263 0.78376912307435687 0 0.62844955668446423 0.7850749770380413 0 0.56327595140699671 0.89211526915426331 0 0.37776173212361452 0.78514649317305008 0 0.31258827852827581 0.89214793616708443 0 0.23533274979922561 0.77093399389351469 0 0.62499999999901068 0 0 0.74999999999934042 0 0 0.68749999999926592 0.1082531754732875 0 1 0.74999999999934042 0 1 0.87499999999967015 0 0.89051480781310632 0.79665793440246835 0 0 0.25000000000104189 0 0 0.12500000000052089 0 0.12076953676380731 0.18690935762408761 0 0.74999999999934042 0 0 0.87499999999967015 0 0 0.81249999999950517 0.1082531754733404 0 0.24999999999941069 0 0 0.37499999999904599 0 0 0.31281086598417152 0.10449318608631281 0 0.50046028868828263 0.78376912307435687 0 0.37776173212361452 0.78514649317305008 0 0.44078402250377968 0.67714785211715212 0 0.68768773896438518 0.4586835206367198 0 0.75000000000032374 0.56698729811007709 0 0.62752533658682441 0.56838075195614346 0 0.31411863959822661 0.24965544328045999 0 0.37953773393552892 0.34812185820708452 0 0.24418615484441761 0.35773612382016978 0 0.68768773896438518 0.4586835206367198 0 0.81242894672211508 0.45500248311961472 0 0.75000000000032374 0.56698729811007709 0 1 0.24999999999941069 0 1 0.37499999999904599 0 0.88173731489851925 0.33077402607778361 0 0 0.75000000000034761 0 0 0.62500000000121547 0 0.1082531754723032 0.6875000000007816 0 0.50048844149666749 0.56727788297625459 0 0.44078402250377968 0.67714785211715212 0 0.38694285807596462 0.5672991787102919 0 0.50108503093851109 0.35012252869403671 0 0.44301038174930041 0.45684931552185398 0 0.37953773393552892 0.34812185820708452 0 0.50046028868828263 0.78376912307435687 0 0.56496004948275869 0.67675037307860475 0 0.62844955668446423 0.7850749770380413 0 0.68768773896438518 0.4586835206367198 0 0.75000000000057243 0.35048094716480432 0 0.81242894672211508 0.45500248311961472 0 0.56349980387502452 0.45846841892908402 0 0.62512662990940393 0.35044303886909911 0 0.68768773896438518 0.4586835206367198 0 0.50048844149666749 0.56727788297625459 0 0.38694285807596462 0.5672991787102919 0 0.44301038174930041 0.45684931552185398 0 0.50046028868828263 0.78376912307435687 0 0.44078402250377968 0.67714785211715212 0 0.56496004948275869 0.67675037307860475 0 0.50108503093851109 0.35012252869403671 0 0.37953773393552892 0.34812185820708452 0 0.43750000000200551 0.24222777169198509 0 0.75000000000034761 1 0 0.62500000000121547 1 0 0.69010814643829166 0.89298495739101336 0 0.68768773896438518 0.4586835206367198 0 0.62512662990940393 0.35044303886909911 0 0.75000000000057243 0.35048094716480432 0 0.56496004948275869 0.67675037307860475 0 0.44078402250377968 0.67714785211715212 0 0.50048844149666749 0.56727788297625459 0 0.56349980387502452 0.45846841892908402 0 0.44301038174930041 0.45684931552185398 0 0.50108503093851109 0.35012252869403671 0 0.50048844149666749 0.56727788297625459 0 0.44301038174930041 0.45684931552185398 0 0.56349980387502452 0.45846841892908402 0 0.56349980387502452 0.45846841892908402 0 0.50108503093851109 0.35012252869403671 0 0.62512662990940393 0.35044303886909911 0 0.43750000000200551 0.24222777169198509 0 0.37953773393552892 0.34812185820708452 0 0.31411863959822661 0.24965544328045999 0 0.56496004948275869 0.67675037307860475 0 0.50048844149666749 0.56727788297625459 0 0.62752533658682441 0.56838075195614346 0 0.56349980387502452 0.45846841892908402 0 0.68768773896438518 0.4586835206367198 0 0.62752533658682441 0.56838075195614346 0 0.50048844149666749 0.56727788297625459 0 0.56349980387502452 0.45846841892908402 0 0.62752533658682441 0.56838075195614346 0 0.75000000000057243 0.35048094716480432 0 0.62512662990940393 0.35044303886909911 0 0.68668231842078242 0.24762892664808989 0 0.50108503093851109 0.35012252869403671 0 0.43750000000200551 0.24222777169198509 0 0.56250000000143974 0.2422277716920859 0 0.62512662990940393 0.35044303886909911 0 0.50108503093851109 0.35012252869403671 0 0.56250000000143974 0.2422277716920859 0 0.68668231842078242 0.24762892664808989 0 0.62512662990940393 0.35044303886909911 0 0.56250000000143974 0.2422277716920859 0 0.22257735880419699 0.47344721641341742 0 0.24418615484441761 0.35773612382016978 0 0.32815957677880009 0.4577243358118348 0 0.12076953676380731 0.18690935762408761 0 0.19185372118111221 0.092925648673580788 0 0.25103557339309318 0.17464499738446629 0 0.20767261601459541 0.25628918442207171 0 0.12076953676380731 0.18690935762408761 0 0.25103557339309318 0.17464499738446629 0 0 0.87499999999950151 0 0 0.75000000000034761 0 0.10409951422139101 0.81206782209691231 0 0.1249999999997731 0 0 0.24999999999941069 0 0 0.19185372118111221 0.092925648673580788 0 1 0.1249999999997731 0 1 0.24999999999941069 0 0.89658421694297741 0.1933620068391701 0 0.88927506082488361 0.56409486310635837 0 0.81242894672211508 0.45500248311961472 0 0.915464298762109 0.43749999999886913 0 0.87499999999950151 1 0 0.75000000000034761 1 0 0.80886664387416207 0.89717308644237903 0 0.75000000000034761 1 0 0.69010814643829166 0.89298495739101336 0 0.80886664387416207 0.89717308644237903 0 0.82212678063041267 0.67678595194836966 0 0.88927506082488361 0.56409486310635837 0 0.92266244547590082 0.68749999999917555 0 0 0.75000000000034761 0 0.1082531754723032 0.6875000000007816 0 0.10409951422139101 0.81206782209691231 0 0.24999999999941069 0 0 0.31281086598417152 0.10449318608631281 0 0.19185372118111221 0.092925648673580788 0 1 0.24999999999941069 0 0.88173731489851925 0.33077402607778361 0 0.89658421694297741 0.1933620068391701 0 0.32815957677880009 0.4577243358118348 0 0.38694285807596462 0.5672991787102919 0 0.26982811998763367 0.56544650815856912 0 0.76243180583607129 0.78687675331113149 0 0.89051480781310632 0.79665793440246835 0 0.80886664387416207 0.89717308644237903 0 0.38694285807596462 0.5672991787102919 0 0.44078402250377968 0.67714785211715212 0 0.32607333794064219 0.67760114260606152 0 0.37776173212361452 0.78514649317305008 0 0.23533274979922561 0.77093399389351469 0 0.32607333794064219 0.67760114260606152 0 1 0.49999999999869221 0 0.88927506082488361 0.56409486310635837 0 0.915464298762109 0.43749999999886913 0 0.88173731489851925 0.33077402607778361 0 1 0.37499999999904599 0 0.915464298762109 0.43749999999886913 0 0.24418615484441761 0.35773612382016978 0 0.37953773393552892 0.34812185820708452 0 0.32815957677880009 0.4577243358118348 0 0.44301038174930041 0.45684931552185398 0 0.38694285807596462 0.5672991787102919 0 0.32815957677880009 0.4577243358118348 0 0.88927506082488361 0.56409486310635837 0 1 0.62499999999901068 0 0.92266244547590082 0.68749999999917555 0 1 0.74999999999934042 0 0.89051480781310632 0.79665793440246835 0 0.92266244547590082 0.68749999999917555 0 0 1 0 0 0.87499999999950151 0 0.091506350946494744 0.90849364905351082 0 1 1 0 0.87499999999950151 1 0 0.90849364905363228 0.90849364905367769 0 0 0 0 0.1249999999997731 0 0 0.091506350946417708 0.091506350946618076 0 0 0.12500000000052089 0 0 0 0 0.091506350946417708 0.091506350946618076 0 1 0 0 1 0.1249999999997731 0 0.90849364905355434 0.091506350946296292 0 0.87499999999967015 0 0 1 0 0 0.90849364905355434 0.091506350946296292 0 0.12500000000052089 1 0 0 1 0 0.091506350946494744 0.90849364905351082 0 1 0.87499999999967015 0 1 1 0 0.90849364905363228 0.90849364905367769 0 0.38694285807596462 0.5672991787102919 0 0.32607333794064219 0.67760114260606152 0 0.26982811998763367 0.56544650815856912 0 0.31411863959822661 0.24965544328045999 0 0.24418615484441761 0.35773612382016978 0 0.20767261601459541 0.25628918442207171 0 0.1082531754734323 0.31250000000117473 0 0.12076953676380731 0.18690935762408761 0 0.20767261601459541 0.25628918442207171 0 0.75000000000057243 0.35048094716480432 0 0.68668231842078242 0.24762892664808989 0 0.79891106056046712 0.25007334953587562 0 0.22257735880419699 0.47344721641341742 0 0.32815957677880009 0.4577243358118348 0 0.26982811998763367 0.56544650815856912 0 0.44078402250377968 0.67714785211715212 0 0.37776173212361452 0.78514649317305008 0 0.32607333794064219 0.67760114260606152 0 0.89658421694297741 0.1933620068391701 0 0.88173731489851925 0.33077402607778361 0 0.79891106056046712 0.25007334953587562 0 1 0.37499999999904599 0 1 0.49999999999869221 0 0.915464298762109 0.43749999999886913 0 0.37953773393552892 0.34812185820708452 0 0.44301038174930041 0.45684931552185398 0 0.32815957677880009 0.4577243358118348 0 0.32607333794064219 0.67760114260606152 0 0.21809253452218619 0.65480892822618109 0 0.26982811998763367 0.56544650815856912 0 1 0.1249999999997731 0 0.89658421694297741 0.1933620068391701 0 0.90849364905355434 0.091506350946296292 0 0 0.87499999999950151 0 0.10409951422139101 0.81206782209691231 0 0.091506350946494744 0.90849364905351082 0 0.1249999999997731 0 0 0.19185372118111221 0.092925648673580788 0 0.091506350946417708 0.091506350946618076 0 1 0.62499999999901068 0 1 0.74999999999934042 0 0.92266244547590082 0.68749999999917555 0 0.18802967116092181 0.89415349436770275 0 0.12500000000052089 1 0 0.091506350946494744 0.90849364905351082 0 0.89051480781310632 0.79665793440246835 0 1 0.87499999999967015 0 0.90849364905363228 0.90849364905367769 0 0.12076953676380731 0.18690935762408761 0 0 0.12500000000052089 0 0.091506350946417708 0.091506350946618076 0 0.81249999999950517 0.1082531754733404 0 0.87499999999967015 0 0 0.90849364905355434 0.091506350946296292 0 0.87499999999950151 1 0 0.80886664387416207 0.89717308644237903 0 0.90849364905363228 0.90849364905367769 0 0.68668231842078242 0.24762892664808989 0 0.62499999999892575 0.17524047358135519 0 0.73983916756365475 0.17530677078674589 0 0.31281086598417152 0.10449318608631281 0 0.43749999999910871 0.1082531754729984 0 0.37500000000232431 0.17524047358384309 0 0.62499999999892575 0.17524047358135519 0 0.56250000000143974 0.2422277716920859 0 0.49999999999934441 0.1752404735815076 0 0.56249999999885147 0.1082531754730395 0 0.68749999999926592 0.1082531754732875 0 0.62499999999892575 0.17524047358135519 0 0.56249999999885147 0.1082531754730395 0 0.62499999999892575 0.17524047358135519 0 0.49999999999934441 0.1752404735815076 0 0.56250000000143974 0.2422277716920859 0 0.43750000000200551 0.24222777169198509 0 0.49999999999934441 0.1752404735815076 0 0.43749999999910871 0.1082531754729984 0 0.56249999999885147 0.1082531754730395 0 0.49999999999934441 0.1752404735815076 0 0.68668231842078242 0.24762892664808989 0 0.56250000000143974 0.2422277716920859 0 0.62499999999892575 0.17524047358135519 0 0.43750000000200551 0.24222777169198509 0 0.31411863959822661 0.24965544328045999 0 0.37500000000232431 0.17524047358384309 0 0.49999999999934441 0.1752404735815076 0 0.43750000000200551 0.24222777169198509 0 0.37500000000232431 0.17524047358384309 0 0.43749999999910871 0.1082531754729984 0 0.49999999999934441 0.1752404735815076 0 0.37500000000232431 0.17524047358384309 0 0.62499999999892575 0.17524047358135519 0 0.68749999999926592 0.1082531754732875 0 0.73983916756365475 0.17530677078674589 0 0.68749999999926592 0.1082531754732875 0 0.81249999999950517 0.1082531754733404 0 0.73983916756365475 0.17530677078674589 0 0.10409951422139101 0.81206782209691231 0 0.18802967116092181 0.89415349436770275 0 0.091506350946494744 0.90849364905351082 0 0.89658421694297741 0.1933620068391701 0 0.81249999999950517 0.1082531754733404 0 0.90849364905355434 0.091506350946296292 0 0.19185372118111221 0.092925648673580788 0 0.12076953676380731 0.18690935762408761 0 0.091506350946417708 0.091506350946618076 0 0.37500000000232431 0.17524047358384309 0 0.31411863959822661 0.24965544328045999 0 0.25103557339309318 0.17464499738446629 0 0.31281086598417152 0.10449318608631281 0 0.37500000000232431 0.17524047358384309 0 0.25103557339309318 0.17464499738446629 0 0.80886664387416207 0.89717308644237903 0 0.89051480781310632 0.79665793440246835 0 0.90849364905363228 0.90849364905367769 0 0.19185372118111221 0.092925648673580788 0 0.31281086598417152 0.10449318608631281 0 0.25103557339309318 0.17464499738446629 0 0.79891106056046712 0.25007334953587562 0 0.68668231842078242 0.24762892664808989 0 0.73983916756365475 0.17530677078674589 0 0.31411863959822661 0.24965544328045999 0 0.20767261601459541 0.25628918442207171 0 0.25103557339309318 0.17464499738446629 0 

        </DataArray>

      </Points>

      <Cells>

        <DataArray type="Int32" Name="connectivity" format="ascii">

0 1 2 3 4 5 6 7 8 9 10 11 12 13 14 15 16 17 18 19 20 21 22 23 24 25 26 27 28 29 30 31 32 33 34 35 36 37 38 39 40 41 42 43 44 45 46 47 48 49 50 51 52 53 54 55 56 57 58 59 60 61 62 63 64 65 66 67 68 69 70 71 72 73 74 75 76 77 78 79 80 81 82 83 84 85 86 87 88 89 90 91 92 93 94 95 96 97 98 99 100 101 102 103 104 105 106 107 108 109 110 111 112 113 114 115 116 117 118 119 120 121 122 123 124 125 126 127 128 129 130 131 132 133 134 135 136 137 138 139 140 141 142 143 144 145 146 147 148 149 150 151 152 153 154 155 156 157 158 159 160 161 162 163 164 165 166 167 168 169 170 171 172 173 174 175 176 177 178 179 180 181 182 183 184 185 186 187 188 189 190 191 192 193 194 195 196 197 198 199 200 201 202 203 204 205 206 207 208 209 210 211 212 213 214 215 216 217 218 219 220 221 222 223 224 225 226 227 228 229 230 231 232 233 234 235 236 237 238 239 240 241 242 243 244 245 246 247 248 249 250 251 252 253 254 255 256 257 258 259 260 261 262 263 264 265 266 267 268 269 270 271 272 273 274 275 276 277 278 279 280 281 282 283 284 285 286 287 288 289 290 291 292 293 294 295 296 297 298 299 300 301 302 303 304 305 306 307 308 309 310 311 312 313 314 315 316 317 318 319 320 321 322 323 324 325 326 327 328 329 330 331 332 333 334 335 336 337 338 339 340 341 342 343 344 345 346 347 348 349 350 351 352 353 354 355 356 357 358 359 360 361 362 363 364 365 366 367 368 369 370 371 372 373 374 375 376 377 378 379 380 381 382 383 384 385 386 387 388 389 390 391 392 393 394 395 396 397 398 399 400 401 402 403 404 405 406 407 408 409 410 411 412 413 414 415 416 417 418 419 420 421 422 423 424 425 426 427 428 429 430 431 432 433 434 435 436 437 438 439 440 441 442 443 444 445 446 447 448 449 450 451 452 453 454 455 456 457 458 459 460 461 462 463 464 465 466 467 468 469 470 471 472 473 474 475 476 477 478 479 480 481 482 483 484 485 

        </DataArray>

        <DataArray type="Int32" Name="offsets" format="ascii">

3 6 9 12 15 18 21 24 27 30 33 36 39 42 45 48 51 54 57 60 63 66 69 72 75 78 81 84 87 90 93 96 99 102 105 108 111 114 117 120 123 126 129 132 135 138 141 144 147 150 153 156 159 162 165 168 171 174 177 180 183 186 189 192 195 198 201 204 207 210 213 216 219 222 225 228 231 234 237 240 243 246 249 252 255 258 261 264 267 270 273 276 279 282 285 288 291 294 297 300 303 306 309 312 315 318 321 324 327 330 333 336 339 342 345 348 351 354 357 360 363 366 369 372 375 378 381 384 387 390 393 396 399 402 405 408 411 414 417 420 423 426 429 432 435 438 441 444 447 450 453 456 459 462 465 468 471 474 477 480 483 486 

        </DataArray>

        <DataArray type="Int32" Name="types" format="ascii">

5 5 5 5 5 5 5 5 5 5 5 5 5 5 5 5 5 5 5 5 5 5 5 5 5 5 5 5 5 5 5 5 5 5 5 5 5 5 5 5 5 5 5 5 5 5 5 5 5 5 5 5 5 5 5 5 5 5 5 5 5 5 5 5 5 5 5 5 5 5 5 5 5 5 5 5 5 5 5 5 5 5 5 5 5 5 5 5 5 5 5 5 5 5 5 5 5 5 5 5 5 5 5 5 5 5 5 5 5 5 5 5 5 5 5 5 5 5 5 5 5 5 5 5 5 5 5 5 5 5 5 5 5 5 5 5 5 5 5 5 5 5 5 5 5 5 5 5 5 5 5 5 5 5 5 5 5 5 5 5 5 5 

        </DataArray>

      </Cells>

    </Piece>

  </UnstructuredGrid>

</VTKFile>

