<?xml version="1.0"?>

<VTKFile type="UnstructuredGrid" version="0.1">

  <UnstructuredGrid>

    <Piece NumberOfPoints="486" NumberOfCells="162">

      <PointData>

        <DataArray type="Float64" Name="K" format="ascii">

9.82698913636674165e-01
9.82698913636674165e-01
9.82698913636674165e-01
9.95936760229615636e-01
9.95936760229615636e-01
9.95936760229615636e-01
1.02701115819216438e+00
1.02701115819216438e+00
1.02701115819216438e+00
1.04722459758075348e+00
1.04722459758075348e+00
1.04722459758075348e+00
1.01752179090686745e+00
1.01752179090686745e+00
1.01752179090686745e+00
1.10009208244098811e+00
1.10009208244098811e+00
1.10009208244098811e+00
1.00527473519769539e+00
1.00527473519769539e+00
1.00527473519769539e+00
1.01623049611632332e+00
1.01623049611632332e+00
1.01623049611632332e+00
1.01235420988466340e+00
1.01235420988466340e+00
1.01235420988466340e+00
1.03814147145016999e+00
1.03814147145016999e+00
1.03814147145016999e+00
1.02689957398185117e+00
1.02689957398185117e+00
1.02689957398185117e+00
9.84912823671952320e-01
9.84912823671952320e-01
9.84912823671952320e-01
1.11964399820229055e+00
1.11964399820229055e+00
1.11964399820229055e+00
1.13223084184558709e+00
1.13223084184558709e+00
1.13223084184558709e+00
1.07575871132523271e+00
1.07575871132523271e+00
1.07575871132523271e+00
1.05356293180575133e+00
1.05356293180575133e+00
1.05356293180575133e+00
1.01482949645124609e+00
1.01482949645124609e+00
1.01482949645124609e+00
1.02543926164735533e+00
1.02543926164735533e+00
1.02543926164735533e+00
1.08240397699269075e+00
1.08240397699269075e+00
1.08240397699269075e+00
1.07757876213981940e+00
1.07757876213981940e+00
1.07757876213981940e+00
9.99731944370985892e-01
9.99731944370985892e-01
9.99731944370985892e-01
9.96090267340479452e-01
9.96090267340479452e-01
9.96090267340479452e-01
1.00188637030142780e+00
1.00188637030142780e+00
1.00188637030142780e+00
9.85887972296677240e-01
9.85887972296677240e-01
9.85887972296677240e-01
1.09709696687418079e+00
1.09709696687418079e+00
1.09709696687418079e+00
9.22452878340933591e-01
9.22452878340933591e-01
9.22452878340933591e-01
9.24265903601307004e-01
9.24265903601307004e-01
9.24265903601307004e-01
1.01683409337395037e+00
1.01683409337395037e+00
1.01683409337395037e+00
9.86762534035223626e-01
9.86762534035223626e-01
9.86762534035223626e-01
1.05521797471589807e+00
1.05521797471589807e+00
1.05521797471589807e+00
9.51938477893601198e-01
9.51938477893601198e-01
9.51938477893601198e-01
9.47788892599170874e-01
9.47788892599170874e-01
9.47788892599170874e-01
9.46167962064209056e-01
9.46167962064209056e-01
9.46167962064209056e-01
1.00497062779932822e+00
1.00497062779932822e+00
1.00497062779932822e+00
9.67275285941286977e-01
9.67275285941286977e-01
9.67275285941286977e-01
1.02368470223735586e+00
1.02368470223735586e+00
1.02368470223735586e+00
9.99577826243504663e-01
9.99577826243504663e-01
9.99577826243504663e-01
1.03723347664721688e+00
1.03723347664721688e+00
1.03723347664721688e+00
1.00382308051145608e+00
1.00382308051145608e+00
1.00382308051145608e+00
1.01453336189501031e+00
1.01453336189501031e+00
1.01453336189501031e+00
1.00120569403557580e+00
1.00120569403557580e+00
1.00120569403557580e+00
8.73646510534244802e-01
8.73646510534244802e-01
8.73646510534244802e-01
1.07213496696263055e+00
1.07213496696263055e+00
1.07213496696263055e+00
9.55447946235512102e-01
9.55447946235512102e-01
9.55447946235512102e-01
8.67756421029907243e-01
8.67756421029907243e-01
8.67756421029907243e-01
1.01382608496246074e+00
1.01382608496246074e+00
1.01382608496246074e+00
9.74214822725773866e-01
9.74214822725773866e-01
9.74214822725773866e-01
9.56747085786372575e-01
9.56747085786372575e-01
9.56747085786372575e-01
9.62898321207101060e-01
9.62898321207101060e-01
9.62898321207101060e-01
9.56316203625393824e-01
9.56316203625393824e-01
9.56316203625393824e-01
8.95682262443490695e-01
8.95682262443490695e-01
8.95682262443490695e-01
1.00353691854757288e+00
1.00353691854757288e+00
1.00353691854757288e+00
9.44570522171588323e-01
9.44570522171588323e-01
9.44570522171588323e-01
9.53102304203099382e-01
9.53102304203099382e-01
9.53102304203099382e-01
1.03202945835685167e+00
1.03202945835685167e+00
1.03202945835685167e+00
1.05011627972448718e+00
1.05011627972448718e+00
1.05011627972448718e+00
9.93996133134983584e-01
9.93996133134983584e-01
9.93996133134983584e-01
9.16552958765930015e-01
9.16552958765930015e-01
9.16552958765930015e-01
1.01332961853695092e+00
1.01332961853695092e+00
1.01332961853695092e+00
9.46273621584043378e-01
9.46273621584043378e-01
9.46273621584043378e-01
9.56563064692522502e-01
9.56563064692522502e-01
9.56563064692522502e-01
9.42286928078247876e-01
9.42286928078247876e-01
9.42286928078247876e-01
9.89238799004534819e-01
9.89238799004534819e-01
9.89238799004534819e-01
1.05680559328892798e+00
1.05680559328892798e+00
1.05680559328892798e+00
9.51712032148988252e-01
9.51712032148988252e-01
9.51712032148988252e-01
1.07634629593790265e+00
1.07634629593790265e+00
1.07634629593790265e+00
1.05088130577985517e+00
1.05088130577985517e+00
1.05088130577985517e+00
9.66816323241661002e-01
9.66816323241661002e-01
9.66816323241661002e-01
1.06756763758252893e+00
1.06756763758252893e+00
1.06756763758252893e+00
1.03945213315082907e+00
1.03945213315082907e+00
1.03945213315082907e+00
1.05921402584820235e+00
1.05921402584820235e+00
1.05921402584820235e+00
1.02896505669741867e+00
1.02896505669741867e+00
1.02896505669741867e+00
1.01708705404533295e+00
1.01708705404533295e+00
1.01708705404533295e+00
1.08756208358448081e+00
1.08756208358448081e+00
1.08756208358448081e+00
1.03294934038263952e+00
1.03294934038263952e+00
1.03294934038263952e+00
9.89438865431469750e-01
9.89438865431469750e-01
9.89438865431469750e-01
9.42302716109498562e-01
9.42302716109498562e-01
9.42302716109498562e-01
9.81280023473683150e-01
9.81280023473683150e-01
9.81280023473683150e-01
1.06167618553631660e+00
1.06167618553631660e+00
1.06167618553631660e+00
1.08382344777113504e+00
1.08382344777113504e+00
1.08382344777113504e+00
1.10019184271405845e+00
1.10019184271405845e+00
1.10019184271405845e+00
1.04630473705965699e+00
1.04630473705965699e+00
1.04630473705965699e+00
9.47696098445573898e-01
9.47696098445573898e-01
9.47696098445573898e-01
1.07248282758992119e+00
1.07248282758992119e+00
1.07248282758992119e+00
1.04099095986938295e+00
1.04099095986938295e+00
1.04099095986938295e+00
1.07652556157000623e+00
1.07652556157000623e+00
1.07652556157000623e+00
9.50651675311641742e-01
9.50651675311641742e-01
9.50651675311641742e-01
9.81478144104359185e-01
9.81478144104359185e-01
9.81478144104359185e-01
1.00293291420881370e+00
1.00293291420881370e+00
1.00293291420881370e+00
9.55730461318010316e-01
9.55730461318010316e-01
9.55730461318010316e-01
9.80039963357077326e-01
9.80039963357077326e-01
9.80039963357077326e-01
9.26716886445855259e-01
9.26716886445855259e-01
9.26716886445855259e-01
9.51509444850101138e-01
9.51509444850101138e-01
9.51509444850101138e-01
9.48168826430539902e-01
9.48168826430539902e-01
9.48168826430539902e-01
9.17300827555031950e-01
9.17300827555031950e-01
9.17300827555031950e-01
9.70163436624902231e-01
9.70163436624902231e-01
9.70163436624902231e-01
1.13278917684548985e+00
1.13278917684548985e+00
1.13278917684548985e+00
9.35035614659533998e-01
9.35035614659533998e-01
9.35035614659533998e-01
9.23291789030410648e-01
9.23291789030410648e-01
9.23291789030410648e-01
1.08432925852745732e+00
1.08432925852745732e+00
1.08432925852745732e+00
9.48277752240860083e-01
9.48277752240860083e-01
9.48277752240860083e-01
9.12773859525525366e-01
9.12773859525525366e-01
9.12773859525525366e-01
9.96817540493603937e-01
9.96817540493603937e-01
9.96817540493603937e-01
1.01037306017084738e+00
1.01037306017084738e+00
1.01037306017084738e+00
9.69460380602841898e-01
9.69460380602841898e-01
9.69460380602841898e-01
1.03540686828819695e+00
1.03540686828819695e+00
1.03540686828819695e+00
1.00854632632693098e+00
1.00854632632693098e+00
1.00854632632693098e+00
1.10416311860390581e+00
1.10416311860390581e+00
1.10416311860390581e+00
1.08499483879284098e+00
1.08499483879284098e+00
1.08499483879284098e+00
9.65230033481406124e-01
9.65230033481406124e-01
9.65230033481406124e-01
1.04314587671144166e+00
1.04314587671144166e+00
1.04314587671144166e+00
1.06647483227219442e+00
1.06647483227219442e+00
1.06647483227219442e+00
1.02753640507571120e+00
1.02753640507571120e+00
1.02753640507571120e+00
9.81514785590409389e-01
9.81514785590409389e-01
9.81514785590409389e-01
9.90097878642650420e-01
9.90097878642650420e-01
9.90097878642650420e-01
1.00019671488441864e+00
1.00019671488441864e+00
1.00019671488441864e+00
9.94621962751103150e-01
9.94621962751103150e-01
9.94621962751103150e-01
9.27835984148093651e-01
9.27835984148093651e-01
9.27835984148093651e-01
9.19254016517561112e-01
9.19254016517561112e-01
9.19254016517561112e-01
1.01049979877465357e+00
1.01049979877465357e+00
1.01049979877465357e+00
9.89410437445548685e-01
9.89410437445548685e-01
9.89410437445548685e-01
1.02204217964648048e+00
1.02204217964648048e+00
1.02204217964648048e+00
9.67555456961232796e-01
9.67555456961232796e-01
9.67555456961232796e-01
9.75198096972814343e-01
9.75198096972814343e-01
9.75198096972814343e-01
9.41919575787711572e-01
9.41919575787711572e-01
9.41919575787711572e-01
9.86866817965364129e-01
9.86866817965364129e-01
9.86866817965364129e-01
1.00298143732519884e+00
1.00298143732519884e+00
1.00298143732519884e+00
9.67935065115256288e-01
9.67935065115256288e-01
9.67935065115256288e-01
1.08366734380204544e+00
1.08366734380204544e+00
1.08366734380204544e+00
1.01215012849619046e+00
1.01215012849619046e+00
1.01215012849619046e+00
1.00955033580685805e+00
1.00955033580685805e+00
1.00955033580685805e+00
9.23016995569815757e-01
9.23016995569815757e-01
9.23016995569815757e-01
9.63598176553982166e-01
9.63598176553982166e-01
9.63598176553982166e-01
9.38190232953022063e-01
9.38190232953022063e-01
9.38190232953022063e-01
1.03569775248237317e+00
1.03569775248237317e+00
1.03569775248237317e+00
1.02203043803372595e+00
1.02203043803372595e+00
1.02203043803372595e+00
1.00531719941341757e+00
1.00531719941341757e+00
1.00531719941341757e+00
9.51086901328570100e-01
9.51086901328570100e-01
9.51086901328570100e-01
9.21858714666326851e-01
9.21858714666326851e-01
9.21858714666326851e-01
9.68455729477325056e-01
9.68455729477325056e-01
9.68455729477325056e-01
9.19901236113058518e-01
9.19901236113058518e-01
9.19901236113058518e-01
9.42990875077532098e-01
9.42990875077532098e-01
9.42990875077532098e-01
9.14524277423562237e-01
9.14524277423562237e-01
9.14524277423562237e-01
8.86406161040894314e-01
8.86406161040894314e-01
8.86406161040894314e-01
8.87135159792881933e-01
8.87135159792881933e-01
8.87135159792881933e-01
9.36158266800215189e-01
9.36158266800215189e-01
9.36158266800215189e-01
8.95421626447722052e-01
8.95421626447722052e-01
8.95421626447722052e-01
9.26122635980385356e-01
9.26122635980385356e-01
9.26122635980385356e-01
9.37272085768849572e-01
9.37272085768849572e-01
9.37272085768849572e-01
9.30697113832119061e-01
9.30697113832119061e-01
9.30697113832119061e-01
9.24794066599384124e-01
9.24794066599384124e-01
9.24794066599384124e-01
9.13649713028725774e-01
9.13649713028725774e-01
9.13649713028725774e-01
9.30033336879170669e-01
9.30033336879170669e-01
9.30033336879170669e-01
9.99826720474190966e-01
9.99826720474190966e-01
9.99826720474190966e-01
9.10769661525407392e-01
9.10769661525407392e-01
9.10769661525407392e-01
9.29733808566874931e-01
9.29733808566874931e-01
9.29733808566874931e-01
9.39907158955534006e-01
9.39907158955534006e-01
9.39907158955534006e-01
9.37995059423001543e-01
9.37995059423001543e-01
9.37995059423001543e-01
9.78869729396436794e-01
9.78869729396436794e-01
9.78869729396436794e-01
9.22090761632902378e-01
9.22090761632902378e-01
9.22090761632902378e-01
9.26468191585212764e-01
9.26468191585212764e-01
9.26468191585212764e-01
9.51810165685089249e-01
9.51810165685089249e-01
9.51810165685089249e-01


        </DataArray>

      </PointData>

      <CellData/>

      <Points>

        <DataArray type="Float64" NumberOfComponents="3" format="ascii">

0.1082531754723032 0.6875000000007816 0 0.23533274979922561 0.77093399389351469 0 0.10409951422139101 0.81206782209691231 0 0.23533274979922561 0.77093399389351469 0 0.1082531754723032 0.6875000000007816 0 0.21809253452218619 0.65480892822618109 0 0.24418615484441761 0.35773612382016978 0 0.121259140952891 0.43112117036853742 0 0.1082531754734323 0.31250000000117473 0 0.75000000000057243 0.35048094716480432 0 0.88173731489851925 0.33077402607778361 0 0.81242894672211508 0.45500248311961472 0 0.121259140952891 0.43112117036853742 0 0.24418615484441761 0.35773612382016978 0 0.22257735880419699 0.47344721641341742 0 0.81242894672211508 0.45500248311961472 0 0.88173731489851925 0.33077402607778361 0 0.915464298762109 0.43749999999886913 0 0 0.62500000000121547 0 0 0.50000000000206146 0 0.1371230538040123 0.56179824718362847 0 0.82212678063041267 0.67678595194836966 0 0.89051480781310632 0.79665793440246835 0 0.76243180583607129 0.78687675331113149 0 0.76243180583607129 0.78687675331113149 0 0.69010814643829166 0.89298495739101336 0 0.62844955668446423 0.7850749770380413 0 0.89051480781310632 0.79665793440246835 0 0.82212678063041267 0.67678595194836966 0 0.92266244547590082 0.68749999999917555 0 0 0.50000000000206146 0 0.121259140952891 0.43112117036853742 0 0.1371230538040123 0.56179824718362847 0 0.1082531754723032 0.6875000000007816 0 0 0.62500000000121547 0 0.1371230538040123 0.56179824718362847 0 0.75000000000032374 0.56698729811007709 0 0.88927506082488361 0.56409486310635837 0 0.82212678063041267 0.67678595194836966 0 0.81242894672211508 0.45500248311961472 0 0.88927506082488361 0.56409486310635837 0 0.75000000000032374 0.56698729811007709 0 0.69851598570178741 0.68211701800612057 0 0.56496004948275869 0.67675037307860475 0 0.62752533658682441 0.56838075195614346 0 0.69851598570178741 0.68211701800612057 0 0.76243180583607129 0.78687675331113149 0 0.62844955668446423 0.7850749770380413 0 0.23533274979922561 0.77093399389351469 0 0.18802967116092181 0.89415349436770275 0 0.10409951422139101 0.81206782209691231 0 0.121259140952891 0.43112117036853742 0 0.22257735880419699 0.47344721641341742 0 0.1371230538040123 0.56179824718362847 0 0.75000000000032374 0.56698729811007709 0 0.69851598570178741 0.68211701800612057 0 0.62752533658682441 0.56838075195614346 0 0.56496004948275869 0.67675037307860475 0 0.69851598570178741 0.68211701800612057 0 0.62844955668446423 0.7850749770380413 0 0.1371230538040123 0.56179824718362847 0 0.22257735880419699 0.47344721641341742 0 0.26982811998763367 0.56544650815856912 0 0.21809253452218619 0.65480892822618109 0 0.1371230538040123 0.56179824718362847 0 0.26982811998763367 0.56544650815856912 0 0.24418615484441761 0.35773612382016978 0 0.1082531754734323 0.31250000000117473 0 0.20767261601459541 0.25628918442207171 0 0.88173731489851925 0.33077402607778361 0 0.75000000000057243 0.35048094716480432 0 0.79891106056046712 0.25007334953587562 0 0.75000000000032374 0.56698729811007709 0 0.82212678063041267 0.67678595194836966 0 0.69851598570178741 0.68211701800612057 0 0.81249999999950517 0.1082531754733404 0 0.89658421694297741 0.1933620068391701 0 0.79891106056046712 0.25007334953587562 0 0.81249999999950517 0.1082531754733404 0 0.79891106056046712 0.25007334953587562 0 0.73983916756365475 0.17530677078674589 0 0.23533274979922561 0.77093399389351469 0 0.21809253452218619 0.65480892822618109 0 0.32607333794064219 0.67760114260606152 0 0.1082531754723032 0.6875000000007816 0 0.1371230538040123 0.56179824718362847 0 0.21809253452218619 0.65480892822618109 0 0.69851598570178741 0.68211701800612057 0 0.82212678063041267 0.67678595194836966 0 0.76243180583607129 0.78687675331113149 0 0.69010814643829166 0.89298495739101336 0 0.76243180583607129 0.78687675331113149 0 0.80886664387416207 0.89717308644237903 0 0.43750000000181222 0.89174682452709564 0 0.31258827852827581 0.89214793616708443 0 0.37776173212361452 0.78514649317305008 0 0.43750000000181222 0.89174682452709564 0 0.37500000000156292 1 0 0.31258827852827581 0.89214793616708443 0 0.121259140952891 0.43112117036853742 0 0 0.37500000000156292 0 0.1082531754734323 0.31250000000117473 0 0.50000000000206146 1 0 0.37500000000156292 1 0 0.43750000000181222 0.89174682452709564 0 0.31258827852827581 0.89214793616708443 0 0.18802967116092181 0.89415349436770275 0 0.23533274979922561 0.77093399389351469 0 0 0.50000000000206146 0 0 0.37500000000156292 0 0.121259140952891 0.43112117036853742 0 0.62844955668446423 0.7850749770380413 0 0.69010814643829166 0.89298495739101336 0 0.56327595140699671 0.89211526915426331 0 0.69010814643829166 0.89298495739101336 0 0.62500000000121547 1 0 0.56327595140699671 0.89211526915426331 0 0.25000000000104189 1 0 0.18802967116092181 0.89415349436770275 0 0.31258827852827581 0.89214793616708443 0 0.50000000000206146 1 0 0.43750000000181222 0.89174682452709564 0 0.56327595140699671 0.89211526915426331 0 0.56249999999885147 0.1082531754730395 0 0.62499999999901068 0 0 0.68749999999926592 0.1082531754732875 0 1 0.49999999999869221 0 1 0.62499999999901068 0 0.88927506082488361 0.56409486310635837 0 0 0.25000000000104189 0 0.12076953676380731 0.18690935762408761 0 0.1082531754734323 0.31250000000117473 0 0.49999999999869221 0 0 0.62499999999901068 0 0 0.56249999999885147 0.1082531754730395 0 0.62500000000121547 1 0 0.50000000000206146 1 0 0.56327595140699671 0.89211526915426331 0 0.37500000000156292 1 0 0.25000000000104189 1 0 0.31258827852827581 0.89214793616708443 0 0.31281086598417152 0.10449318608631281 0 0.37499999999904599 0 0 0.43749999999910871 0.1082531754729984 0 0.43750000000181222 0.89174682452709564 0 0.37776173212361452 0.78514649317305008 0 0.50046028868828263 0.78376912307435687 0 0 0.37500000000156292 0 0 0.25000000000104189 0 0.1082531754734323 0.31250000000117473 0 0.49999999999869221 0 0 0.56249999999885147 0.1082531754730395 0 0.43749999999910871 0.1082531754729984 0 0.43750000000181222 0.89174682452709564 0 0.50046028868828263 0.78376912307435687 0 0.56327595140699671 0.89211526915426331 0 0.74999999999934042 0 0 0.81249999999950517 0.1082531754733404 0 0.68749999999926592 0.1082531754732875 0 0.37499999999904599 0 0 0.49999999999869221 0 0 0.43749999999910871 0.1082531754729984 0 0.25000000000104189 1 0 0.12500000000052089 1 0 0.18802967116092181 0.89415349436770275 0 0.50046028868828263 0.78376912307435687 0 0.62844955668446423 0.7850749770380413 0 0.56327595140699671 0.89211526915426331 0 0.37776173212361452 0.78514649317305008 0 0.31258827852827581 0.89214793616708443 0 0.23533274979922561 0.77093399389351469 0 0.62499999999901068 0 0 0.74999999999934042 0 0 0.68749999999926592 0.1082531754732875 0 1 0.74999999999934042 0 1 0.87499999999967015 0 0.89051480781310632 0.79665793440246835 0 0 0.25000000000104189 0 0 0.12500000000052089 0 0.12076953676380731 0.18690935762408761 0 0.74999999999934042 0 0 0.87499999999967015 0 0 0.81249999999950517 0.1082531754733404 0 0.24999999999941069 0 0 0.37499999999904599 0 0 0.31281086598417152 0.10449318608631281 0 0.50046028868828263 0.78376912307435687 0 0.37776173212361452 0.78514649317305008 0 0.44078402250377968 0.67714785211715212 0 0.68768773896438518 0.4586835206367198 0 0.75000000000032374 0.56698729811007709 0 0.62752533658682441 0.56838075195614346 0 0.31411863959822661 0.24965544328045999 0 0.37953773393552892 0.34812185820708452 0 0.24418615484441761 0.35773612382016978 0 0.68768773896438518 0.4586835206367198 0 0.81242894672211508 0.45500248311961472 0 0.75000000000032374 0.56698729811007709 0 1 0.24999999999941069 0 1 0.37499999999904599 0 0.88173731489851925 0.33077402607778361 0 0 0.75000000000034761 0 0 0.62500000000121547 0 0.1082531754723032 0.6875000000007816 0 0.50048844149666749 0.56727788297625459 0 0.44078402250377968 0.67714785211715212 0 0.38694285807596462 0.5672991787102919 0 0.50108503093851109 0.35012252869403671 0 0.44301038174930041 0.45684931552185398 0 0.37953773393552892 0.34812185820708452 0 0.50046028868828263 0.78376912307435687 0 0.56496004948275869 0.67675037307860475 0 0.62844955668446423 0.7850749770380413 0 0.68768773896438518 0.4586835206367198 0 0.75000000000057243 0.35048094716480432 0 0.81242894672211508 0.45500248311961472 0 0.56349980387502452 0.45846841892908402 0 0.62512662990940393 0.35044303886909911 0 0.68768773896438518 0.4586835206367198 0 0.50048844149666749 0.56727788297625459 0 0.38694285807596462 0.5672991787102919 0 0.44301038174930041 0.45684931552185398 0 0.50046028868828263 0.78376912307435687 0 0.44078402250377968 0.67714785211715212 0 0.56496004948275869 0.67675037307860475 0 0.50108503093851109 0.35012252869403671 0 0.37953773393552892 0.34812185820708452 0 0.43750000000200551 0.24222777169198509 0 0.75000000000034761 1 0 0.62500000000121547 1 0 0.69010814643829166 0.89298495739101336 0 0.68768773896438518 0.4586835206367198 0 0.62512662990940393 0.35044303886909911 0 0.75000000000057243 0.35048094716480432 0 0.56496004948275869 0.67675037307860475 0 0.44078402250377968 0.67714785211715212 0 0.50048844149666749 0.56727788297625459 0 0.56349980387502452 0.45846841892908402 0 0.44301038174930041 0.45684931552185398 0 0.50108503093851109 0.35012252869403671 0 0.50048844149666749 0.56727788297625459 0 0.44301038174930041 0.45684931552185398 0 0.56349980387502452 0.45846841892908402 0 0.56349980387502452 0.45846841892908402 0 0.50108503093851109 0.35012252869403671 0 0.62512662990940393 0.35044303886909911 0 0.43750000000200551 0.24222777169198509 0 0.37953773393552892 0.34812185820708452 0 0.31411863959822661 0.24965544328045999 0 0.56496004948275869 0.67675037307860475 0 0.50048844149666749 0.56727788297625459 0 0.62752533658682441 0.56838075195614346 0 0.56349980387502452 0.45846841892908402 0 0.68768773896438518 0.4586835206367198 0 0.62752533658682441 0.56838075195614346 0 0.50048844149666749 0.56727788297625459 0 0.56349980387502452 0.45846841892908402 0 0.62752533658682441 0.56838075195614346 0 0.75000000000057243 0.35048094716480432 0 0.62512662990940393 0.35044303886909911 0 0.68668231842078242 0.24762892664808989 0 0.50108503093851109 0.35012252869403671 0 0.43750000000200551 0.24222777169198509 0 0.56250000000143974 0.2422277716920859 0 0.62512662990940393 0.35044303886909911 0 0.50108503093851109 0.35012252869403671 0 0.56250000000143974 0.2422277716920859 0 0.68668231842078242 0.24762892664808989 0 0.62512662990940393 0.35044303886909911 0 0.56250000000143974 0.2422277716920859 0 0.22257735880419699 0.47344721641341742 0 0.24418615484441761 0.35773612382016978 0 0.32815957677880009 0.4577243358118348 0 0.12076953676380731 0.18690935762408761 0 0.19185372118111221 0.092925648673580788 0 0.25103557339309318 0.17464499738446629 0 0.20767261601459541 0.25628918442207171 0 0.12076953676380731 0.18690935762408761 0 0.25103557339309318 0.17464499738446629 0 0 0.87499999999950151 0 0 0.75000000000034761 0 0.10409951422139101 0.81206782209691231 0 0.1249999999997731 0 0 0.24999999999941069 0 0 0.19185372118111221 0.092925648673580788 0 1 0.1249999999997731 0 1 0.24999999999941069 0 0.89658421694297741 0.1933620068391701 0 0.88927506082488361 0.56409486310635837 0 0.81242894672211508 0.45500248311961472 0 0.915464298762109 0.43749999999886913 0 0.87499999999950151 1 0 0.75000000000034761 1 0 0.80886664387416207 0.89717308644237903 0 0.75000000000034761 1 0 0.69010814643829166 0.89298495739101336 0 0.80886664387416207 0.89717308644237903 0 0.82212678063041267 0.67678595194836966 0 0.88927506082488361 0.56409486310635837 0 0.92266244547590082 0.68749999999917555 0 0 0.75000000000034761 0 0.1082531754723032 0.6875000000007816 0 0.10409951422139101 0.81206782209691231 0 0.24999999999941069 0 0 0.31281086598417152 0.10449318608631281 0 0.19185372118111221 0.092925648673580788 0 1 0.24999999999941069 0 0.88173731489851925 0.33077402607778361 0 0.89658421694297741 0.1933620068391701 0 0.32815957677880009 0.4577243358118348 0 0.38694285807596462 0.5672991787102919 0 0.26982811998763367 0.56544650815856912 0 0.76243180583607129 0.78687675331113149 0 0.89051480781310632 0.79665793440246835 0 0.80886664387416207 0.89717308644237903 0 0.38694285807596462 0.5672991787102919 0 0.44078402250377968 0.67714785211715212 0 0.32607333794064219 0.67760114260606152 0 0.37776173212361452 0.78514649317305008 0 0.23533274979922561 0.77093399389351469 0 0.32607333794064219 0.67760114260606152 0 1 0.49999999999869221 0 0.88927506082488361 0.56409486310635837 0 0.915464298762109 0.43749999999886913 0 0.88173731489851925 0.33077402607778361 0 1 0.37499999999904599 0 0.915464298762109 0.43749999999886913 0 0.24418615484441761 0.35773612382016978 0 0.37953773393552892 0.34812185820708452 0 0.32815957677880009 0.4577243358118348 0 0.44301038174930041 0.45684931552185398 0 0.38694285807596462 0.5672991787102919 0 0.32815957677880009 0.4577243358118348 0 0.88927506082488361 0.56409486310635837 0 1 0.62499999999901068 0 0.92266244547590082 0.68749999999917555 0 1 0.74999999999934042 0 0.89051480781310632 0.79665793440246835 0 0.92266244547590082 0.68749999999917555 0 0 1 0 0 0.87499999999950151 0 0.091506350946494744 0.90849364905351082 0 1 1 0 0.87499999999950151 1 0 0.90849364905363228 0.90849364905367769 0 0 0 0 0.1249999999997731 0 0 0.091506350946417708 0.091506350946618076 0 0 0.12500000000052089 0 0 0 0 0.091506350946417708 0.091506350946618076 0 1 0 0 1 0.1249999999997731 0 0.90849364905355434 0.091506350946296292 0 0.87499999999967015 0 0 1 0 0 0.90849364905355434 0.091506350946296292 0 0.12500000000052089 1 0 0 1 0 0.091506350946494744 0.90849364905351082 0 1 0.87499999999967015 0 1 1 0 0.90849364905363228 0.90849364905367769 0 0.38694285807596462 0.5672991787102919 0 0.32607333794064219 0.67760114260606152 0 0.26982811998763367 0.56544650815856912 0 0.31411863959822661 0.24965544328045999 0 0.24418615484441761 0.35773612382016978 0 0.20767261601459541 0.25628918442207171 0 0.1082531754734323 0.31250000000117473 0 0.12076953676380731 0.18690935762408761 0 0.20767261601459541 0.25628918442207171 0 0.75000000000057243 0.35048094716480432 0 0.68668231842078242 0.24762892664808989 0 0.79891106056046712 0.25007334953587562 0 0.22257735880419699 0.47344721641341742 0 0.32815957677880009 0.4577243358118348 0 0.26982811998763367 0.56544650815856912 0 0.44078402250377968 0.67714785211715212 0 0.37776173212361452 0.78514649317305008 0 0.32607333794064219 0.67760114260606152 0 0.89658421694297741 0.1933620068391701 0 0.88173731489851925 0.33077402607778361 0 0.79891106056046712 0.25007334953587562 0 1 0.37499999999904599 0 1 0.49999999999869221 0 0.915464298762109 0.43749999999886913 0 0.37953773393552892 0.34812185820708452 0 0.44301038174930041 0.45684931552185398 0 0.32815957677880009 0.4577243358118348 0 0.32607333794064219 0.67760114260606152 0 0.21809253452218619 0.65480892822618109 0 0.26982811998763367 0.56544650815856912 0 1 0.1249999999997731 0 0.89658421694297741 0.1933620068391701 0 0.90849364905355434 0.091506350946296292 0 0 0.87499999999950151 0 0.10409951422139101 0.81206782209691231 0 0.091506350946494744 0.90849364905351082 0 0.1249999999997731 0 0 0.19185372118111221 0.092925648673580788 0 0.091506350946417708 0.091506350946618076 0 1 0.62499999999901068 0 1 0.74999999999934042 0 0.92266244547590082 0.68749999999917555 0 0.18802967116092181 0.89415349436770275 0 0.12500000000052089 1 0 0.091506350946494744 0.90849364905351082 0 0.89051480781310632 0.79665793440246835 0 1 0.87499999999967015 0 0.90849364905363228 0.90849364905367769 0 0.12076953676380731 0.18690935762408761 0 0 0.12500000000052089 0 0.091506350946417708 0.091506350946618076 0 0.81249999999950517 0.1082531754733404 0 0.87499999999967015 0 0 0.90849364905355434 0.091506350946296292 0 0.87499999999950151 1 0 0.80886664387416207 0.89717308644237903 0 0.90849364905363228 0.90849364905367769 0 0.68668231842078242 0.24762892664808989 0 0.62499999999892575 0.17524047358135519 0 0.73983916756365475 0.17530677078674589 0 0.31281086598417152 0.10449318608631281 0 0.43749999999910871 0.1082531754729984 0 0.37500000000232431 0.17524047358384309 0 0.62499999999892575 0.17524047358135519 0 0.56250000000143974 0.2422277716920859 0 0.49999999999934441 0.1752404735815076 0 0.56249999999885147 0.1082531754730395 0 0.68749999999926592 0.1082531754732875 0 0.62499999999892575 0.17524047358135519 0 0.56249999999885147 0.1082531754730395 0 0.62499999999892575 0.17524047358135519 0 0.49999999999934441 0.1752404735815076 0 0.56250000000143974 0.2422277716920859 0 0.43750000000200551 0.24222777169198509 0 0.49999999999934441 0.1752404735815076 0 0.43749999999910871 0.1082531754729984 0 0.56249999999885147 0.1082531754730395 0 0.49999999999934441 0.1752404735815076 0 0.68668231842078242 0.24762892664808989 0 0.56250000000143974 0.2422277716920859 0 0.62499999999892575 0.17524047358135519 0 0.43750000000200551 0.24222777169198509 0 0.31411863959822661 0.24965544328045999 0 0.37500000000232431 0.17524047358384309 0 0.49999999999934441 0.1752404735815076 0 0.43750000000200551 0.24222777169198509 0 0.37500000000232431 0.17524047358384309 0 0.43749999999910871 0.1082531754729984 0 0.49999999999934441 0.1752404735815076 0 0.37500000000232431 0.17524047358384309 0 0.62499999999892575 0.17524047358135519 0 0.68749999999926592 0.1082531754732875 0 0.73983916756365475 0.17530677078674589 0 0.68749999999926592 0.1082531754732875 0 0.81249999999950517 0.1082531754733404 0 0.73983916756365475 0.17530677078674589 0 0.10409951422139101 0.81206782209691231 0 0.18802967116092181 0.89415349436770275 0 0.091506350946494744 0.90849364905351082 0 0.89658421694297741 0.1933620068391701 0 0.81249999999950517 0.1082531754733404 0 0.90849364905355434 0.091506350946296292 0 0.19185372118111221 0.092925648673580788 0 0.12076953676380731 0.18690935762408761 0 0.091506350946417708 0.091506350946618076 0 0.37500000000232431 0.17524047358384309 0 0.31411863959822661 0.24965544328045999 0 0.25103557339309318 0.17464499738446629 0 0.31281086598417152 0.10449318608631281 0 0.37500000000232431 0.17524047358384309 0 0.25103557339309318 0.17464499738446629 0 0.80886664387416207 0.89717308644237903 0 0.89051480781310632 0.79665793440246835 0 0.90849364905363228 0.90849364905367769 0 0.19185372118111221 0.092925648673580788 0 0.31281086598417152 0.10449318608631281 0 0.25103557339309318 0.17464499738446629 0 0.79891106056046712 0.25007334953587562 0 0.68668231842078242 0.24762892664808989 0 0.73983916756365475 0.17530677078674589 0 0.31411863959822661 0.24965544328045999 0 0.20767261601459541 0.25628918442207171 0 0.25103557339309318 0.17464499738446629 0 

        </DataArray>

      </Points>

      <Cells>

        <DataArray type="Int32" Name="connectivity" format="ascii">

0 1 2 3 4 5 6 7 8 9 10 11 12 13 14 15 16 17 18 19 20 21 22 23 24 25 26 27 28 29 30 31 32 33 34 35 36 37 38 39 40 41 42 43 44 45 46 47 48 49 50 51 52 53 54 55 56 57 58 59 60 61 62 63 64 65 66 67 68 69 70 71 72 73 74 75 76 77 78 79 80 81 82 83 84 85 86 87 88 89 90 91 92 93 94 95 96 97 98 99 100 101 102 103 104 105 106 107 108 109 110 111 112 113 114 115 116 117 118 119 120 121 122 123 124 125 126 127 128 129 130 131 132 133 134 135 136 137 138 139 140 141 142 143 144 145 146 147 148 149 150 151 152 153 154 155 156 157 158 159 160 161 162 163 164 165 166 167 168 169 170 171 172 173 174 175 176 177 178 179 180 181 182 183 184 185 186 187 188 189 190 191 192 193 194 195 196 197 198 199 200 201 202 203 204 205 206 207 208 209 210 211 212 213 214 215 216 217 218 219 220 221 222 223 224 225 226 227 228 229 230 231 232 233 234 235 236 237 238 239 240 241 242 243 244 245 246 247 248 249 250 251 252 253 254 255 256 257 258 259 260 261 262 263 264 265 266 267 268 269 270 271 272 273 274 275 276 277 278 279 280 281 282 283 284 285 286 287 288 289 290 291 292 293 294 295 296 297 298 299 300 301 302 303 304 305 306 307 308 309 310 311 312 313 314 315 316 317 318 319 320 321 322 323 324 325 326 327 328 329 330 331 332 333 334 335 336 337 338 339 340 341 342 343 344 345 346 347 348 349 350 351 352 353 354 355 356 357 358 359 360 361 362 363 364 365 366 367 368 369 370 371 372 373 374 375 376 377 378 379 380 381 382 383 384 385 386 387 388 389 390 391 392 393 394 395 396 397 398 399 400 401 402 403 404 405 406 407 408 409 410 411 412 413 414 415 416 417 418 419 420 421 422 423 424 425 426 427 428 429 430 431 432 433 434 435 436 437 438 439 440 441 442 443 444 445 446 447 448 449 450 451 452 453 454 455 456 457 458 459 460 461 462 463 464 465 466 467 468 469 470 471 472 473 474 475 476 477 478 479 480 481 482 483 484 485 

        </DataArray>

        <DataArray type="Int32" Name="offsets" format="ascii">

3 6 9 12 15 18 21 24 27 30 33 36 39 42 45 48 51 54 57 60 63 66 69 72 75 78 81 84 87 90 93 96 99 102 105 108 111 114 117 120 123 126 129 132 135 138 141 144 147 150 153 156 159 162 165 168 171 174 177 180 183 186 189 192 195 198 201 204 207 210 213 216 219 222 225 228 231 234 237 240 243 246 249 252 255 258 261 264 267 270 273 276 279 282 285 288 291 294 297 300 303 306 309 312 315 318 321 324 327 330 333 336 339 342 345 348 351 354 357 360 363 366 369 372 375 378 381 384 387 390 393 396 399 402 405 408 411 414 417 420 423 426 429 432 435 438 441 444 447 450 453 456 459 462 465 468 471 474 477 480 483 486 

        </DataArray>

        <DataArray type="Int32" Name="types" format="ascii">

5 5 5 5 5 5 5 5 5 5 5 5 5 5 5 5 5 5 5 5 5 5 5 5 5 5 5 5 5 5 5 5 5 5 5 5 5 5 5 5 5 5 5 5 5 5 5 5 5 5 5 5 5 5 5 5 5 5 5 5 5 5 5 5 5 5 5 5 5 5 5 5 5 5 5 5 5 5 5 5 5 5 5 5 5 5 5 5 5 5 5 5 5 5 5 5 5 5 5 5 5 5 5 5 5 5 5 5 5 5 5 5 5 5 5 5 5 5 5 5 5 5 5 5 5 5 5 5 5 5 5 5 5 5 5 5 5 5 5 5 5 5 5 5 5 5 5 5 5 5 5 5 5 5 5 5 5 5 5 5 5 5 

        </DataArray>

      </Cells>

    </Piece>

  </UnstructuredGrid>

</VTKFile>

