<?xml version="1.0"?>

<VTKFile type="UnstructuredGrid" version="0.1">

  <UnstructuredGrid>

    <Piece NumberOfPoints="486" NumberOfCells="162">

      <PointData>

        <DataArray type="Float64" Name="K" format="ascii">

1.07041683155753353e+00
1.07041683155753353e+00
1.07041683155753353e+00
1.04431527987249329e+00
1.04431527987249329e+00
1.04431527987249329e+00
9.42177330084202902e-01
9.42177330084202902e-01
9.42177330084202902e-01
9.39920963301046797e-01
9.39920963301046797e-01
9.39920963301046797e-01
9.58640774994467315e-01
9.58640774994467315e-01
9.58640774994467315e-01
9.42000874078665951e-01
9.42000874078665951e-01
9.42000874078665951e-01
1.00770342688180237e+00
1.00770342688180237e+00
1.00770342688180237e+00
1.06257082197664321e+00
1.06257082197664321e+00
1.06257082197664321e+00
1.06951232201152990e+00
1.06951232201152990e+00
1.06951232201152990e+00
1.02611960470195163e+00
1.02611960470195163e+00
1.02611960470195163e+00
9.78295174160001557e-01
9.78295174160001557e-01
9.78295174160001557e-01
1.04869504298969640e+00
1.04869504298969640e+00
1.04869504298969640e+00
1.02400633871512814e+00
1.02400633871512814e+00
1.02400633871512814e+00
9.86012457570724754e-01
9.86012457570724754e-01
9.86012457570724754e-01
9.77433997767491736e-01
9.77433997767491736e-01
9.77433997767491736e-01
1.06143784125246077e+00
1.06143784125246077e+00
1.06143784125246077e+00
1.08558664464308108e+00
1.08558664464308108e+00
1.08558664464308108e+00
9.74356817624501770e-01
9.74356817624501770e-01
9.74356817624501770e-01
9.92496612836014314e-01
9.92496612836014314e-01
9.92496612836014314e-01
1.00588757018695030e+00
1.00588757018695030e+00
1.00588757018695030e+00
9.73812024613049831e-01
9.73812024613049831e-01
9.73812024613049831e-01
9.92678563409195247e-01
9.92678563409195247e-01
9.92678563409195247e-01
9.49993649614646829e-01
9.49993649614646829e-01
9.49993649614646829e-01
9.55317325364391179e-01
9.55317325364391179e-01
9.55317325364391179e-01
1.04188390421611188e+00
1.04188390421611188e+00
1.04188390421611188e+00
1.00590326286509368e+00
1.00590326286509368e+00
1.00590326286509368e+00
1.04512042879980860e+00
1.04512042879980860e+00
1.04512042879980860e+00
1.04395231448025316e+00
1.04395231448025316e+00
1.04395231448025316e+00
1.02889490492518587e+00
1.02889490492518587e+00
1.02889490492518587e+00
1.07400030377370914e+00
1.07400030377370914e+00
1.07400030377370914e+00
1.07085001139826441e+00
1.07085001139826441e+00
1.07085001139826441e+00
1.06925995074923774e+00
1.06925995074923774e+00
1.06925995074923774e+00
1.03930025299019002e+00
1.03930025299019002e+00
1.03930025299019002e+00
9.22642782380228343e-01
9.22642782380228343e-01
9.22642782380228343e-01
1.02077590590617540e+00
1.02077590590617540e+00
1.02077590590617540e+00
1.09341398736974771e+00
1.09341398736974771e+00
1.09341398736974771e+00
9.34165565584119229e-01
9.34165565584119229e-01
9.34165565584119229e-01
1.04204650898724260e+00
1.04204650898724260e+00
1.04204650898724260e+00
1.03431492947819836e+00
1.03431492947819836e+00
1.03431492947819836e+00
1.07971375043096907e+00
1.07971375043096907e+00
1.07971375043096907e+00
1.02579548368240348e+00
1.02579548368240348e+00
1.02579548368240348e+00
1.07500789204185043e+00
1.07500789204185043e+00
1.07500789204185043e+00
9.62192853393244896e-01
9.62192853393244896e-01
9.62192853393244896e-01
9.30679112692412103e-01
9.30679112692412103e-01
9.30679112692412103e-01
1.06444716341288403e+00
1.06444716341288403e+00
1.06444716341288403e+00
1.02652632238381969e+00
1.02652632238381969e+00
1.02652632238381969e+00
1.03905942577215438e+00
1.03905942577215438e+00
1.03905942577215438e+00
1.04120605589973869e+00
1.04120605589973869e+00
1.04120605589973869e+00
1.05078370498979612e+00
1.05078370498979612e+00
1.05078370498979612e+00
9.23738946230268865e-01
9.23738946230268865e-01
9.23738946230268865e-01
1.05153228230830309e+00
1.05153228230830309e+00
1.05153228230830309e+00
1.02461152223078211e+00
1.02461152223078211e+00
1.02461152223078211e+00
1.08420019921526256e+00
1.08420019921526256e+00
1.08420019921526256e+00
1.04205469951982610e+00
1.04205469951982610e+00
1.04205469951982610e+00
1.08192721284699012e+00
1.08192721284699012e+00
1.08192721284699012e+00
1.01658727033203733e+00
1.01658727033203733e+00
1.01658727033203733e+00
1.09256629072058842e+00
1.09256629072058842e+00
1.09256629072058842e+00
1.07767334305527118e+00
1.07767334305527118e+00
1.07767334305527118e+00
1.01642521722629486e+00
1.01642521722629486e+00
1.01642521722629486e+00
9.67954599488565326e-01
9.67954599488565326e-01
9.67954599488565326e-01
1.07190525838874406e+00
1.07190525838874406e+00
1.07190525838874406e+00
1.01447988477104278e+00
1.01447988477104278e+00
1.01447988477104278e+00
1.05468395734272646e+00
1.05468395734272646e+00
1.05468395734272646e+00
9.65259063332349010e-01
9.65259063332349010e-01
9.65259063332349010e-01
9.86124286147090912e-01
9.86124286147090912e-01
9.86124286147090912e-01
9.65159949163775788e-01
9.65159949163775788e-01
9.65159949163775788e-01
9.61535360134372019e-01
9.61535360134372019e-01
9.61535360134372019e-01
1.07194825759688550e+00
1.07194825759688550e+00
1.07194825759688550e+00
1.01158840427669072e+00
1.01158840427669072e+00
1.01158840427669072e+00
9.32754439332702301e-01
9.32754439332702301e-01
9.32754439332702301e-01
9.98448761845282973e-01
9.98448761845282973e-01
9.98448761845282973e-01
9.56382181445171731e-01
9.56382181445171731e-01
9.56382181445171731e-01
9.73312402444175717e-01
9.73312402444175717e-01
9.73312402444175717e-01
9.73660045149911224e-01
9.73660045149911224e-01
9.73660045149911224e-01
1.01198642674033490e+00
1.01198642674033490e+00
1.01198642674033490e+00
9.49456263527382438e-01
9.49456263527382438e-01
9.49456263527382438e-01
1.02146538998820446e+00
1.02146538998820446e+00
1.02146538998820446e+00
9.84009685164426218e-01
9.84009685164426218e-01
9.84009685164426218e-01
9.98083068796983275e-01
9.98083068796983275e-01
9.98083068796983275e-01
9.43370175840229530e-01
9.43370175840229530e-01
9.43370175840229530e-01
9.57214290681148938e-01
9.57214290681148938e-01
9.57214290681148938e-01
9.65512694933827742e-01
9.65512694933827742e-01
9.65512694933827742e-01
9.88066434974886221e-01
9.88066434974886221e-01
9.88066434974886221e-01
9.65087147391901490e-01
9.65087147391901490e-01
9.65087147391901490e-01
9.57354354609705860e-01
9.57354354609705860e-01
9.57354354609705860e-01
9.57518419683287103e-01
9.57518419683287103e-01
9.57518419683287103e-01
1.01898203966362577e+00
1.01898203966362577e+00
1.01898203966362577e+00
9.63869389554272371e-01
9.63869389554272371e-01
9.63869389554272371e-01
9.81678701183329228e-01
9.81678701183329228e-01
9.81678701183329228e-01
1.02834459901261788e+00
1.02834459901261788e+00
1.02834459901261788e+00
9.56825063811090892e-01
9.56825063811090892e-01
9.56825063811090892e-01
9.68774855948178693e-01
9.68774855948178693e-01
9.68774855948178693e-01
9.61549739274705662e-01
9.61549739274705662e-01
9.61549739274705662e-01
1.08366038971807432e+00
1.08366038971807432e+00
1.08366038971807432e+00
9.99141550676862833e-01
9.99141550676862833e-01
9.99141550676862833e-01
9.75242608942461064e-01
9.75242608942461064e-01
9.75242608942461064e-01
9.66153171363891561e-01
9.66153171363891561e-01
9.66153171363891561e-01
1.03363839879502595e+00
1.03363839879502595e+00
1.03363839879502595e+00
1.04229671709098426e+00
1.04229671709098426e+00
1.04229671709098426e+00
1.01375550992030994e+00
1.01375550992030994e+00
1.01375550992030994e+00
1.08548490852363622e+00
1.08548490852363622e+00
1.08548490852363622e+00
1.00365875256631432e+00
1.00365875256631432e+00
1.00365875256631432e+00
9.53204302644435675e-01
9.53204302644435675e-01
9.53204302644435675e-01
9.62855428607359731e-01
9.62855428607359731e-01
9.62855428607359731e-01
1.06114255101951005e+00
1.06114255101951005e+00
1.06114255101951005e+00
1.03834594281078130e+00
1.03834594281078130e+00
1.03834594281078130e+00
1.07934019698846040e+00
1.07934019698846040e+00
1.07934019698846040e+00
9.65910332972757413e-01
9.65910332972757413e-01
9.65910332972757413e-01
9.53019910668290726e-01
9.53019910668290726e-01
9.53019910668290726e-01
9.58285626398139967e-01
9.58285626398139967e-01
9.58285626398139967e-01
9.53323107202470599e-01
9.53323107202470599e-01
9.53323107202470599e-01
9.77938375360012269e-01
9.77938375360012269e-01
9.77938375360012269e-01
1.00039451877315200e+00
1.00039451877315200e+00
1.00039451877315200e+00
1.04978162597889257e+00
1.04978162597889257e+00
1.04978162597889257e+00
1.03954790260005936e+00
1.03954790260005936e+00
1.03954790260005936e+00
1.01085901597505279e+00
1.01085901597505279e+00
1.01085901597505279e+00
1.00830414741795815e+00
1.00830414741795815e+00
1.00830414741795815e+00
1.00752616125235073e+00
1.00752616125235073e+00
1.00752616125235073e+00
1.03992244194130135e+00
1.03992244194130135e+00
1.03992244194130135e+00
1.05278796662229568e+00
1.05278796662229568e+00
1.05278796662229568e+00
1.03930300832597067e+00
1.03930300832597067e+00
1.03930300832597067e+00
1.00254554196664736e+00
1.00254554196664736e+00
1.00254554196664736e+00
9.87534404830115120e-01
9.87534404830115120e-01
9.87534404830115120e-01
9.33121927690830688e-01
9.33121927690830688e-01
9.33121927690830688e-01
1.01168219409056226e+00
1.01168219409056226e+00
1.01168219409056226e+00
9.54839169122443820e-01
9.54839169122443820e-01
9.54839169122443820e-01
1.07215186815380137e+00
1.07215186815380137e+00
1.07215186815380137e+00
9.54661408084487739e-01
9.54661408084487739e-01
9.54661408084487739e-01
9.62240472493454124e-01
9.62240472493454124e-01
9.62240472493454124e-01
9.38161220052710298e-01
9.38161220052710298e-01
9.38161220052710298e-01
1.00618215105567566e+00
1.00618215105567566e+00
1.00618215105567566e+00
9.91220678131515043e-01
9.91220678131515043e-01
9.91220678131515043e-01
1.07641015501759640e+00
1.07641015501759640e+00
1.07641015501759640e+00
9.92971296777708567e-01
9.92971296777708567e-01
9.92971296777708567e-01
9.77385982433139788e-01
9.77385982433139788e-01
9.77385982433139788e-01
1.08320815567130158e+00
1.08320815567130158e+00
1.08320815567130158e+00
1.03031734454580359e+00
1.03031734454580359e+00
1.03031734454580359e+00
9.79386882647700352e-01
9.79386882647700352e-01
9.79386882647700352e-01
1.05066783521477558e+00
1.05066783521477558e+00
1.05066783521477558e+00
1.04114513361653205e+00
1.04114513361653205e+00
1.04114513361653205e+00
1.07406724946812293e+00
1.07406724946812293e+00
1.07406724946812293e+00
1.04688984227984916e+00
1.04688984227984916e+00
1.04688984227984916e+00
1.02210141919767605e+00
1.02210141919767605e+00
1.02210141919767605e+00
1.07117878931575050e+00
1.07117878931575050e+00
1.07117878931575050e+00
1.03870546620735427e+00
1.03870546620735427e+00
1.03870546620735427e+00
9.90790432299795687e-01
9.90790432299795687e-01
9.90790432299795687e-01
1.03442509257487969e+00
1.03442509257487969e+00
1.03442509257487969e+00
1.04950795128914409e+00
1.04950795128914409e+00
1.04950795128914409e+00
1.01912679493605407e+00
1.01912679493605407e+00
1.01912679493605407e+00
1.01103446357450077e+00
1.01103446357450077e+00
1.01103446357450077e+00
1.03234118391977558e+00
1.03234118391977558e+00
1.03234118391977558e+00
1.08541624564975359e+00
1.08541624564975359e+00
1.08541624564975359e+00
1.08158249713020571e+00
1.08158249713020571e+00
1.08158249713020571e+00
1.08582790248088390e+00
1.08582790248088390e+00
1.08582790248088390e+00
1.01593892746726433e+00
1.01593892746726433e+00
1.01593892746726433e+00
9.69026697554651983e-01
9.69026697554651983e-01
9.69026697554651983e-01
1.02954312652468150e+00
1.02954312652468150e+00
1.02954312652468150e+00
1.03523443141103577e+00
1.03523443141103577e+00
1.03523443141103577e+00
1.04096233727812226e+00
1.04096233727812226e+00
1.04096233727812226e+00
1.00441486645238798e+00
1.00441486645238798e+00
1.00441486645238798e+00
1.04721280493534707e+00
1.04721280493534707e+00
1.04721280493534707e+00
1.00041164852703579e+00
1.00041164852703579e+00
1.00041164852703579e+00


        </DataArray>

      </PointData>

      <CellData/>

      <Points>

        <DataArray type="Float64" NumberOfComponents="3" format="ascii">

0.1082531754723032 0.6875000000007816 0 0.23533274979922561 0.77093399389351469 0 0.10409951422139101 0.81206782209691231 0 0.23533274979922561 0.77093399389351469 0 0.1082531754723032 0.6875000000007816 0 0.21809253452218619 0.65480892822618109 0 0.24418615484441761 0.35773612382016978 0 0.121259140952891 0.43112117036853742 0 0.1082531754734323 0.31250000000117473 0 0.75000000000057243 0.35048094716480432 0 0.88173731489851925 0.33077402607778361 0 0.81242894672211508 0.45500248311961472 0 0.121259140952891 0.43112117036853742 0 0.24418615484441761 0.35773612382016978 0 0.22257735880419699 0.47344721641341742 0 0.81242894672211508 0.45500248311961472 0 0.88173731489851925 0.33077402607778361 0 0.915464298762109 0.43749999999886913 0 0 0.62500000000121547 0 0 0.50000000000206146 0 0.1371230538040123 0.56179824718362847 0 0.82212678063041267 0.67678595194836966 0 0.89051480781310632 0.79665793440246835 0 0.76243180583607129 0.78687675331113149 0 0.76243180583607129 0.78687675331113149 0 0.69010814643829166 0.89298495739101336 0 0.62844955668446423 0.7850749770380413 0 0.89051480781310632 0.79665793440246835 0 0.82212678063041267 0.67678595194836966 0 0.92266244547590082 0.68749999999917555 0 0 0.50000000000206146 0 0.121259140952891 0.43112117036853742 0 0.1371230538040123 0.56179824718362847 0 0.1082531754723032 0.6875000000007816 0 0 0.62500000000121547 0 0.1371230538040123 0.56179824718362847 0 0.75000000000032374 0.56698729811007709 0 0.88927506082488361 0.56409486310635837 0 0.82212678063041267 0.67678595194836966 0 0.81242894672211508 0.45500248311961472 0 0.88927506082488361 0.56409486310635837 0 0.75000000000032374 0.56698729811007709 0 0.69851598570178741 0.68211701800612057 0 0.56496004948275869 0.67675037307860475 0 0.62752533658682441 0.56838075195614346 0 0.69851598570178741 0.68211701800612057 0 0.76243180583607129 0.78687675331113149 0 0.62844955668446423 0.7850749770380413 0 0.23533274979922561 0.77093399389351469 0 0.18802967116092181 0.89415349436770275 0 0.10409951422139101 0.81206782209691231 0 0.121259140952891 0.43112117036853742 0 0.22257735880419699 0.47344721641341742 0 0.1371230538040123 0.56179824718362847 0 0.75000000000032374 0.56698729811007709 0 0.69851598570178741 0.68211701800612057 0 0.62752533658682441 0.56838075195614346 0 0.56496004948275869 0.67675037307860475 0 0.69851598570178741 0.68211701800612057 0 0.62844955668446423 0.7850749770380413 0 0.1371230538040123 0.56179824718362847 0 0.22257735880419699 0.47344721641341742 0 0.26982811998763367 0.56544650815856912 0 0.21809253452218619 0.65480892822618109 0 0.1371230538040123 0.56179824718362847 0 0.26982811998763367 0.56544650815856912 0 0.24418615484441761 0.35773612382016978 0 0.1082531754734323 0.31250000000117473 0 0.20767261601459541 0.25628918442207171 0 0.88173731489851925 0.33077402607778361 0 0.75000000000057243 0.35048094716480432 0 0.79891106056046712 0.25007334953587562 0 0.75000000000032374 0.56698729811007709 0 0.82212678063041267 0.67678595194836966 0 0.69851598570178741 0.68211701800612057 0 0.81249999999950517 0.1082531754733404 0 0.89658421694297741 0.1933620068391701 0 0.79891106056046712 0.25007334953587562 0 0.81249999999950517 0.1082531754733404 0 0.79891106056046712 0.25007334953587562 0 0.73983916756365475 0.17530677078674589 0 0.23533274979922561 0.77093399389351469 0 0.21809253452218619 0.65480892822618109 0 0.32607333794064219 0.67760114260606152 0 0.1082531754723032 0.6875000000007816 0 0.1371230538040123 0.56179824718362847 0 0.21809253452218619 0.65480892822618109 0 0.69851598570178741 0.68211701800612057 0 0.82212678063041267 0.67678595194836966 0 0.76243180583607129 0.78687675331113149 0 0.69010814643829166 0.89298495739101336 0 0.76243180583607129 0.78687675331113149 0 0.80886664387416207 0.89717308644237903 0 0.43750000000181222 0.89174682452709564 0 0.31258827852827581 0.89214793616708443 0 0.37776173212361452 0.78514649317305008 0 0.43750000000181222 0.89174682452709564 0 0.37500000000156292 1 0 0.31258827852827581 0.89214793616708443 0 0.121259140952891 0.43112117036853742 0 0 0.37500000000156292 0 0.1082531754734323 0.31250000000117473 0 0.50000000000206146 1 0 0.37500000000156292 1 0 0.43750000000181222 0.89174682452709564 0 0.31258827852827581 0.89214793616708443 0 0.18802967116092181 0.89415349436770275 0 0.23533274979922561 0.77093399389351469 0 0 0.50000000000206146 0 0 0.37500000000156292 0 0.121259140952891 0.43112117036853742 0 0.62844955668446423 0.7850749770380413 0 0.69010814643829166 0.89298495739101336 0 0.56327595140699671 0.89211526915426331 0 0.69010814643829166 0.89298495739101336 0 0.62500000000121547 1 0 0.56327595140699671 0.89211526915426331 0 0.25000000000104189 1 0 0.18802967116092181 0.89415349436770275 0 0.31258827852827581 0.89214793616708443 0 0.50000000000206146 1 0 0.43750000000181222 0.89174682452709564 0 0.56327595140699671 0.89211526915426331 0 0.56249999999885147 0.1082531754730395 0 0.62499999999901068 0 0 0.68749999999926592 0.1082531754732875 0 1 0.49999999999869221 0 1 0.62499999999901068 0 0.88927506082488361 0.56409486310635837 0 0 0.25000000000104189 0 0.12076953676380731 0.18690935762408761 0 0.1082531754734323 0.31250000000117473 0 0.49999999999869221 0 0 0.62499999999901068 0 0 0.56249999999885147 0.1082531754730395 0 0.62500000000121547 1 0 0.50000000000206146 1 0 0.56327595140699671 0.89211526915426331 0 0.37500000000156292 1 0 0.25000000000104189 1 0 0.31258827852827581 0.89214793616708443 0 0.31281086598417152 0.10449318608631281 0 0.37499999999904599 0 0 0.43749999999910871 0.1082531754729984 0 0.43750000000181222 0.89174682452709564 0 0.37776173212361452 0.78514649317305008 0 0.50046028868828263 0.78376912307435687 0 0 0.37500000000156292 0 0 0.25000000000104189 0 0.1082531754734323 0.31250000000117473 0 0.49999999999869221 0 0 0.56249999999885147 0.1082531754730395 0 0.43749999999910871 0.1082531754729984 0 0.43750000000181222 0.89174682452709564 0 0.50046028868828263 0.78376912307435687 0 0.56327595140699671 0.89211526915426331 0 0.74999999999934042 0 0 0.81249999999950517 0.1082531754733404 0 0.68749999999926592 0.1082531754732875 0 0.37499999999904599 0 0 0.49999999999869221 0 0 0.43749999999910871 0.1082531754729984 0 0.25000000000104189 1 0 0.12500000000052089 1 0 0.18802967116092181 0.89415349436770275 0 0.50046028868828263 0.78376912307435687 0 0.62844955668446423 0.7850749770380413 0 0.56327595140699671 0.89211526915426331 0 0.37776173212361452 0.78514649317305008 0 0.31258827852827581 0.89214793616708443 0 0.23533274979922561 0.77093399389351469 0 0.62499999999901068 0 0 0.74999999999934042 0 0 0.68749999999926592 0.1082531754732875 0 1 0.74999999999934042 0 1 0.87499999999967015 0 0.89051480781310632 0.79665793440246835 0 0 0.25000000000104189 0 0 0.12500000000052089 0 0.12076953676380731 0.18690935762408761 0 0.74999999999934042 0 0 0.87499999999967015 0 0 0.81249999999950517 0.1082531754733404 0 0.24999999999941069 0 0 0.37499999999904599 0 0 0.31281086598417152 0.10449318608631281 0 0.50046028868828263 0.78376912307435687 0 0.37776173212361452 0.78514649317305008 0 0.44078402250377968 0.67714785211715212 0 0.68768773896438518 0.4586835206367198 0 0.75000000000032374 0.56698729811007709 0 0.62752533658682441 0.56838075195614346 0 0.31411863959822661 0.24965544328045999 0 0.37953773393552892 0.34812185820708452 0 0.24418615484441761 0.35773612382016978 0 0.68768773896438518 0.4586835206367198 0 0.81242894672211508 0.45500248311961472 0 0.75000000000032374 0.56698729811007709 0 1 0.24999999999941069 0 1 0.37499999999904599 0 0.88173731489851925 0.33077402607778361 0 0 0.75000000000034761 0 0 0.62500000000121547 0 0.1082531754723032 0.6875000000007816 0 0.50048844149666749 0.56727788297625459 0 0.44078402250377968 0.67714785211715212 0 0.38694285807596462 0.5672991787102919 0 0.50108503093851109 0.35012252869403671 0 0.44301038174930041 0.45684931552185398 0 0.37953773393552892 0.34812185820708452 0 0.50046028868828263 0.78376912307435687 0 0.56496004948275869 0.67675037307860475 0 0.62844955668446423 0.7850749770380413 0 0.68768773896438518 0.4586835206367198 0 0.75000000000057243 0.35048094716480432 0 0.81242894672211508 0.45500248311961472 0 0.56349980387502452 0.45846841892908402 0 0.62512662990940393 0.35044303886909911 0 0.68768773896438518 0.4586835206367198 0 0.50048844149666749 0.56727788297625459 0 0.38694285807596462 0.5672991787102919 0 0.44301038174930041 0.45684931552185398 0 0.50046028868828263 0.78376912307435687 0 0.44078402250377968 0.67714785211715212 0 0.56496004948275869 0.67675037307860475 0 0.50108503093851109 0.35012252869403671 0 0.37953773393552892 0.34812185820708452 0 0.43750000000200551 0.24222777169198509 0 0.75000000000034761 1 0 0.62500000000121547 1 0 0.69010814643829166 0.89298495739101336 0 0.68768773896438518 0.4586835206367198 0 0.62512662990940393 0.35044303886909911 0 0.75000000000057243 0.35048094716480432 0 0.56496004948275869 0.67675037307860475 0 0.44078402250377968 0.67714785211715212 0 0.50048844149666749 0.56727788297625459 0 0.56349980387502452 0.45846841892908402 0 0.44301038174930041 0.45684931552185398 0 0.50108503093851109 0.35012252869403671 0 0.50048844149666749 0.56727788297625459 0 0.44301038174930041 0.45684931552185398 0 0.56349980387502452 0.45846841892908402 0 0.56349980387502452 0.45846841892908402 0 0.50108503093851109 0.35012252869403671 0 0.62512662990940393 0.35044303886909911 0 0.43750000000200551 0.24222777169198509 0 0.37953773393552892 0.34812185820708452 0 0.31411863959822661 0.24965544328045999 0 0.56496004948275869 0.67675037307860475 0 0.50048844149666749 0.56727788297625459 0 0.62752533658682441 0.56838075195614346 0 0.56349980387502452 0.45846841892908402 0 0.68768773896438518 0.4586835206367198 0 0.62752533658682441 0.56838075195614346 0 0.50048844149666749 0.56727788297625459 0 0.56349980387502452 0.45846841892908402 0 0.62752533658682441 0.56838075195614346 0 0.75000000000057243 0.35048094716480432 0 0.62512662990940393 0.35044303886909911 0 0.68668231842078242 0.24762892664808989 0 0.50108503093851109 0.35012252869403671 0 0.43750000000200551 0.24222777169198509 0 0.56250000000143974 0.2422277716920859 0 0.62512662990940393 0.35044303886909911 0 0.50108503093851109 0.35012252869403671 0 0.56250000000143974 0.2422277716920859 0 0.68668231842078242 0.24762892664808989 0 0.62512662990940393 0.35044303886909911 0 0.56250000000143974 0.2422277716920859 0 0.22257735880419699 0.47344721641341742 0 0.24418615484441761 0.35773612382016978 0 0.32815957677880009 0.4577243358118348 0 0.12076953676380731 0.18690935762408761 0 0.19185372118111221 0.092925648673580788 0 0.25103557339309318 0.17464499738446629 0 0.20767261601459541 0.25628918442207171 0 0.12076953676380731 0.18690935762408761 0 0.25103557339309318 0.17464499738446629 0 0 0.87499999999950151 0 0 0.75000000000034761 0 0.10409951422139101 0.81206782209691231 0 0.1249999999997731 0 0 0.24999999999941069 0 0 0.19185372118111221 0.092925648673580788 0 1 0.1249999999997731 0 1 0.24999999999941069 0 0.89658421694297741 0.1933620068391701 0 0.88927506082488361 0.56409486310635837 0 0.81242894672211508 0.45500248311961472 0 0.915464298762109 0.43749999999886913 0 0.87499999999950151 1 0 0.75000000000034761 1 0 0.80886664387416207 0.89717308644237903 0 0.75000000000034761 1 0 0.69010814643829166 0.89298495739101336 0 0.80886664387416207 0.89717308644237903 0 0.82212678063041267 0.67678595194836966 0 0.88927506082488361 0.56409486310635837 0 0.92266244547590082 0.68749999999917555 0 0 0.75000000000034761 0 0.1082531754723032 0.6875000000007816 0 0.10409951422139101 0.81206782209691231 0 0.24999999999941069 0 0 0.31281086598417152 0.10449318608631281 0 0.19185372118111221 0.092925648673580788 0 1 0.24999999999941069 0 0.88173731489851925 0.33077402607778361 0 0.89658421694297741 0.1933620068391701 0 0.32815957677880009 0.4577243358118348 0 0.38694285807596462 0.5672991787102919 0 0.26982811998763367 0.56544650815856912 0 0.76243180583607129 0.78687675331113149 0 0.89051480781310632 0.79665793440246835 0 0.80886664387416207 0.89717308644237903 0 0.38694285807596462 0.5672991787102919 0 0.44078402250377968 0.67714785211715212 0 0.32607333794064219 0.67760114260606152 0 0.37776173212361452 0.78514649317305008 0 0.23533274979922561 0.77093399389351469 0 0.32607333794064219 0.67760114260606152 0 1 0.49999999999869221 0 0.88927506082488361 0.56409486310635837 0 0.915464298762109 0.43749999999886913 0 0.88173731489851925 0.33077402607778361 0 1 0.37499999999904599 0 0.915464298762109 0.43749999999886913 0 0.24418615484441761 0.35773612382016978 0 0.37953773393552892 0.34812185820708452 0 0.32815957677880009 0.4577243358118348 0 0.44301038174930041 0.45684931552185398 0 0.38694285807596462 0.5672991787102919 0 0.32815957677880009 0.4577243358118348 0 0.88927506082488361 0.56409486310635837 0 1 0.62499999999901068 0 0.92266244547590082 0.68749999999917555 0 1 0.74999999999934042 0 0.89051480781310632 0.79665793440246835 0 0.92266244547590082 0.68749999999917555 0 0 1 0 0 0.87499999999950151 0 0.091506350946494744 0.90849364905351082 0 1 1 0 0.87499999999950151 1 0 0.90849364905363228 0.90849364905367769 0 0 0 0 0.1249999999997731 0 0 0.091506350946417708 0.091506350946618076 0 0 0.12500000000052089 0 0 0 0 0.091506350946417708 0.091506350946618076 0 1 0 0 1 0.1249999999997731 0 0.90849364905355434 0.091506350946296292 0 0.87499999999967015 0 0 1 0 0 0.90849364905355434 0.091506350946296292 0 0.12500000000052089 1 0 0 1 0 0.091506350946494744 0.90849364905351082 0 1 0.87499999999967015 0 1 1 0 0.90849364905363228 0.90849364905367769 0 0.38694285807596462 0.5672991787102919 0 0.32607333794064219 0.67760114260606152 0 0.26982811998763367 0.56544650815856912 0 0.31411863959822661 0.24965544328045999 0 0.24418615484441761 0.35773612382016978 0 0.20767261601459541 0.25628918442207171 0 0.1082531754734323 0.31250000000117473 0 0.12076953676380731 0.18690935762408761 0 0.20767261601459541 0.25628918442207171 0 0.75000000000057243 0.35048094716480432 0 0.68668231842078242 0.24762892664808989 0 0.79891106056046712 0.25007334953587562 0 0.22257735880419699 0.47344721641341742 0 0.32815957677880009 0.4577243358118348 0 0.26982811998763367 0.56544650815856912 0 0.44078402250377968 0.67714785211715212 0 0.37776173212361452 0.78514649317305008 0 0.32607333794064219 0.67760114260606152 0 0.89658421694297741 0.1933620068391701 0 0.88173731489851925 0.33077402607778361 0 0.79891106056046712 0.25007334953587562 0 1 0.37499999999904599 0 1 0.49999999999869221 0 0.915464298762109 0.43749999999886913 0 0.37953773393552892 0.34812185820708452 0 0.44301038174930041 0.45684931552185398 0 0.32815957677880009 0.4577243358118348 0 0.32607333794064219 0.67760114260606152 0 0.21809253452218619 0.65480892822618109 0 0.26982811998763367 0.56544650815856912 0 1 0.1249999999997731 0 0.89658421694297741 0.1933620068391701 0 0.90849364905355434 0.091506350946296292 0 0 0.87499999999950151 0 0.10409951422139101 0.81206782209691231 0 0.091506350946494744 0.90849364905351082 0 0.1249999999997731 0 0 0.19185372118111221 0.092925648673580788 0 0.091506350946417708 0.091506350946618076 0 1 0.62499999999901068 0 1 0.74999999999934042 0 0.92266244547590082 0.68749999999917555 0 0.18802967116092181 0.89415349436770275 0 0.12500000000052089 1 0 0.091506350946494744 0.90849364905351082 0 0.89051480781310632 0.79665793440246835 0 1 0.87499999999967015 0 0.90849364905363228 0.90849364905367769 0 0.12076953676380731 0.18690935762408761 0 0 0.12500000000052089 0 0.091506350946417708 0.091506350946618076 0 0.81249999999950517 0.1082531754733404 0 0.87499999999967015 0 0 0.90849364905355434 0.091506350946296292 0 0.87499999999950151 1 0 0.80886664387416207 0.89717308644237903 0 0.90849364905363228 0.90849364905367769 0 0.68668231842078242 0.24762892664808989 0 0.62499999999892575 0.17524047358135519 0 0.73983916756365475 0.17530677078674589 0 0.31281086598417152 0.10449318608631281 0 0.43749999999910871 0.1082531754729984 0 0.37500000000232431 0.17524047358384309 0 0.62499999999892575 0.17524047358135519 0 0.56250000000143974 0.2422277716920859 0 0.49999999999934441 0.1752404735815076 0 0.56249999999885147 0.1082531754730395 0 0.68749999999926592 0.1082531754732875 0 0.62499999999892575 0.17524047358135519 0 0.56249999999885147 0.1082531754730395 0 0.62499999999892575 0.17524047358135519 0 0.49999999999934441 0.1752404735815076 0 0.56250000000143974 0.2422277716920859 0 0.43750000000200551 0.24222777169198509 0 0.49999999999934441 0.1752404735815076 0 0.43749999999910871 0.1082531754729984 0 0.56249999999885147 0.1082531754730395 0 0.49999999999934441 0.1752404735815076 0 0.68668231842078242 0.24762892664808989 0 0.56250000000143974 0.2422277716920859 0 0.62499999999892575 0.17524047358135519 0 0.43750000000200551 0.24222777169198509 0 0.31411863959822661 0.24965544328045999 0 0.37500000000232431 0.17524047358384309 0 0.49999999999934441 0.1752404735815076 0 0.43750000000200551 0.24222777169198509 0 0.37500000000232431 0.17524047358384309 0 0.43749999999910871 0.1082531754729984 0 0.49999999999934441 0.1752404735815076 0 0.37500000000232431 0.17524047358384309 0 0.62499999999892575 0.17524047358135519 0 0.68749999999926592 0.1082531754732875 0 0.73983916756365475 0.17530677078674589 0 0.68749999999926592 0.1082531754732875 0 0.81249999999950517 0.1082531754733404 0 0.73983916756365475 0.17530677078674589 0 0.10409951422139101 0.81206782209691231 0 0.18802967116092181 0.89415349436770275 0 0.091506350946494744 0.90849364905351082 0 0.89658421694297741 0.1933620068391701 0 0.81249999999950517 0.1082531754733404 0 0.90849364905355434 0.091506350946296292 0 0.19185372118111221 0.092925648673580788 0 0.12076953676380731 0.18690935762408761 0 0.091506350946417708 0.091506350946618076 0 0.37500000000232431 0.17524047358384309 0 0.31411863959822661 0.24965544328045999 0 0.25103557339309318 0.17464499738446629 0 0.31281086598417152 0.10449318608631281 0 0.37500000000232431 0.17524047358384309 0 0.25103557339309318 0.17464499738446629 0 0.80886664387416207 0.89717308644237903 0 0.89051480781310632 0.79665793440246835 0 0.90849364905363228 0.90849364905367769 0 0.19185372118111221 0.092925648673580788 0 0.31281086598417152 0.10449318608631281 0 0.25103557339309318 0.17464499738446629 0 0.79891106056046712 0.25007334953587562 0 0.68668231842078242 0.24762892664808989 0 0.73983916756365475 0.17530677078674589 0 0.31411863959822661 0.24965544328045999 0 0.20767261601459541 0.25628918442207171 0 0.25103557339309318 0.17464499738446629 0 

        </DataArray>

      </Points>

      <Cells>

        <DataArray type="Int32" Name="connectivity" format="ascii">

0 1 2 3 4 5 6 7 8 9 10 11 12 13 14 15 16 17 18 19 20 21 22 23 24 25 26 27 28 29 30 31 32 33 34 35 36 37 38 39 40 41 42 43 44 45 46 47 48 49 50 51 52 53 54 55 56 57 58 59 60 61 62 63 64 65 66 67 68 69 70 71 72 73 74 75 76 77 78 79 80 81 82 83 84 85 86 87 88 89 90 91 92 93 94 95 96 97 98 99 100 101 102 103 104 105 106 107 108 109 110 111 112 113 114 115 116 117 118 119 120 121 122 123 124 125 126 127 128 129 130 131 132 133 134 135 136 137 138 139 140 141 142 143 144 145 146 147 148 149 150 151 152 153 154 155 156 157 158 159 160 161 162 163 164 165 166 167 168 169 170 171 172 173 174 175 176 177 178 179 180 181 182 183 184 185 186 187 188 189 190 191 192 193 194 195 196 197 198 199 200 201 202 203 204 205 206 207 208 209 210 211 212 213 214 215 216 217 218 219 220 221 222 223 224 225 226 227 228 229 230 231 232 233 234 235 236 237 238 239 240 241 242 243 244 245 246 247 248 249 250 251 252 253 254 255 256 257 258 259 260 261 262 263 264 265 266 267 268 269 270 271 272 273 274 275 276 277 278 279 280 281 282 283 284 285 286 287 288 289 290 291 292 293 294 295 296 297 298 299 300 301 302 303 304 305 306 307 308 309 310 311 312 313 314 315 316 317 318 319 320 321 322 323 324 325 326 327 328 329 330 331 332 333 334 335 336 337 338 339 340 341 342 343 344 345 346 347 348 349 350 351 352 353 354 355 356 357 358 359 360 361 362 363 364 365 366 367 368 369 370 371 372 373 374 375 376 377 378 379 380 381 382 383 384 385 386 387 388 389 390 391 392 393 394 395 396 397 398 399 400 401 402 403 404 405 406 407 408 409 410 411 412 413 414 415 416 417 418 419 420 421 422 423 424 425 426 427 428 429 430 431 432 433 434 435 436 437 438 439 440 441 442 443 444 445 446 447 448 449 450 451 452 453 454 455 456 457 458 459 460 461 462 463 464 465 466 467 468 469 470 471 472 473 474 475 476 477 478 479 480 481 482 483 484 485 

        </DataArray>

        <DataArray type="Int32" Name="offsets" format="ascii">

3 6 9 12 15 18 21 24 27 30 33 36 39 42 45 48 51 54 57 60 63 66 69 72 75 78 81 84 87 90 93 96 99 102 105 108 111 114 117 120 123 126 129 132 135 138 141 144 147 150 153 156 159 162 165 168 171 174 177 180 183 186 189 192 195 198 201 204 207 210 213 216 219 222 225 228 231 234 237 240 243 246 249 252 255 258 261 264 267 270 273 276 279 282 285 288 291 294 297 300 303 306 309 312 315 318 321 324 327 330 333 336 339 342 345 348 351 354 357 360 363 366 369 372 375 378 381 384 387 390 393 396 399 402 405 408 411 414 417 420 423 426 429 432 435 438 441 444 447 450 453 456 459 462 465 468 471 474 477 480 483 486 

        </DataArray>

        <DataArray type="Int32" Name="types" format="ascii">

5 5 5 5 5 5 5 5 5 5 5 5 5 5 5 5 5 5 5 5 5 5 5 5 5 5 5 5 5 5 5 5 5 5 5 5 5 5 5 5 5 5 5 5 5 5 5 5 5 5 5 5 5 5 5 5 5 5 5 5 5 5 5 5 5 5 5 5 5 5 5 5 5 5 5 5 5 5 5 5 5 5 5 5 5 5 5 5 5 5 5 5 5 5 5 5 5 5 5 5 5 5 5 5 5 5 5 5 5 5 5 5 5 5 5 5 5 5 5 5 5 5 5 5 5 5 5 5 5 5 5 5 5 5 5 5 5 5 5 5 5 5 5 5 5 5 5 5 5 5 5 5 5 5 5 5 5 5 5 5 5 5 

        </DataArray>

      </Cells>

    </Piece>

  </UnstructuredGrid>

</VTKFile>

