<?xml version="1.0"?>

<VTKFile type="UnstructuredGrid" version="0.1">

  <UnstructuredGrid>

    <Piece NumberOfPoints="486" NumberOfCells="162">

      <PointData>

        <DataArray type="Float64" Name="K" format="ascii">

9.75084031512861160e-01
9.75084031512861160e-01
9.75084031512861160e-01
9.75899554492967281e-01
9.75899554492967281e-01
9.75899554492967281e-01
1.02966561266342804e+00
1.02966561266342804e+00
1.02966561266342804e+00
9.39291579191388726e-01
9.39291579191388726e-01
9.39291579191388726e-01
1.01777952449868336e+00
1.01777952449868336e+00
1.01777952449868336e+00
9.45323373605734596e-01
9.45323373605734596e-01
9.45323373605734596e-01
1.01121063928392729e+00
1.01121063928392729e+00
1.01121063928392729e+00
1.05494136327038102e+00
1.05494136327038102e+00
1.05494136327038102e+00
1.07449873425708375e+00
1.07449873425708375e+00
1.07449873425708375e+00
1.05544188565603725e+00
1.05544188565603725e+00
1.05544188565603725e+00
1.01928728385290923e+00
1.01928728385290923e+00
1.01928728385290923e+00
9.81279284574386068e-01
9.81279284574386068e-01
9.81279284574386068e-01
1.01566521185251268e+00
1.01566521185251268e+00
1.01566521185251268e+00
9.84006299223366909e-01
9.84006299223366909e-01
9.84006299223366909e-01
1.01931918490888673e+00
1.01931918490888673e+00
1.01931918490888673e+00
1.07495702709799823e+00
1.07495702709799823e+00
1.07495702709799823e+00
9.91032222001139718e-01
9.91032222001139718e-01
9.91032222001139718e-01
1.00726510252492307e+00
1.00726510252492307e+00
1.00726510252492307e+00
1.01390712920555348e+00
1.01390712920555348e+00
1.01390712920555348e+00
1.06433630692293746e+00
1.06433630692293746e+00
1.06433630692293746e+00
9.92043086140727781e-01
9.92043086140727781e-01
9.92043086140727781e-01
9.82493349965954166e-01
9.82493349965954166e-01
9.82493349965954166e-01
1.02844471092873246e+00
1.02844471092873246e+00
1.02844471092873246e+00
9.39910430290724852e-01
9.39910430290724852e-01
9.39910430290724852e-01
1.03620365563555650e+00
1.03620365563555650e+00
1.03620365563555650e+00
9.73063006577272627e-01
9.73063006577272627e-01
9.73063006577272627e-01
9.90510473698792193e-01
9.90510473698792193e-01
9.90510473698792193e-01
9.77477829951217125e-01
9.77477829951217125e-01
9.77477829951217125e-01
9.73716722598146123e-01
9.73716722598146123e-01
9.73716722598146123e-01
1.05682300422455411e+00
1.05682300422455411e+00
1.05682300422455411e+00
1.04938506248226560e+00
1.04938506248226560e+00
1.04938506248226560e+00
1.00528754582880930e+00
1.00528754582880930e+00
1.00528754582880930e+00
1.04235700198222214e+00
1.04235700198222214e+00
1.04235700198222214e+00
1.01910513140877934e+00
1.01910513140877934e+00
1.01910513140877934e+00
1.08334813102176564e+00
1.08334813102176564e+00
1.08334813102176564e+00
9.90402272899126968e-01
9.90402272899126968e-01
9.90402272899126968e-01
1.02067021951966219e+00
1.02067021951966219e+00
1.02067021951966219e+00
1.09005541141239592e+00
1.09005541141239592e+00
1.09005541141239592e+00
1.06917539690999397e+00
1.06917539690999397e+00
1.06917539690999397e+00
1.00768910430902836e+00
1.00768910430902836e+00
1.00768910430902836e+00
1.09367785090961656e+00
1.09367785090961656e+00
1.09367785090961656e+00
1.07161489795417575e+00
1.07161489795417575e+00
1.07161489795417575e+00
1.01269028441844000e+00
1.01269028441844000e+00
1.01269028441844000e+00
9.76757857349011327e-01
9.76757857349011327e-01
9.76757857349011327e-01
1.03280791154677831e+00
1.03280791154677831e+00
1.03280791154677831e+00
1.07832077937800808e+00
1.07832077937800808e+00
1.07832077937800808e+00
1.03245752635089683e+00
1.03245752635089683e+00
1.03245752635089683e+00
1.00991946219949980e+00
1.00991946219949980e+00
1.00991946219949980e+00
1.02030163265809892e+00
1.02030163265809892e+00
1.02030163265809892e+00
9.78974143820542153e-01
9.78974143820542153e-01
9.78974143820542153e-01
1.03119243996212018e+00
1.03119243996212018e+00
1.03119243996212018e+00
1.07834123081882205e+00
1.07834123081882205e+00
1.07834123081882205e+00
1.05169851893113031e+00
1.05169851893113031e+00
1.05169851893113031e+00
1.00637857684614618e+00
1.00637857684614618e+00
1.00637857684614618e+00
1.01788942552296735e+00
1.01788942552296735e+00
1.01788942552296735e+00
1.09088260806135495e+00
1.09088260806135495e+00
1.09088260806135495e+00
9.77018227935817163e-01
9.77018227935817163e-01
9.77018227935817163e-01
1.06678519715811060e+00
1.06678519715811060e+00
1.06678519715811060e+00
1.03441593103517393e+00
1.03441593103517393e+00
1.03441593103517393e+00
9.48122185700339681e-01
9.48122185700339681e-01
9.48122185700339681e-01
1.02876679896021672e+00
1.02876679896021672e+00
1.02876679896021672e+00
9.91194088486229252e-01
9.91194088486229252e-01
9.91194088486229252e-01
9.81462340905508546e-01
9.81462340905508546e-01
9.81462340905508546e-01
9.67182114705236962e-01
9.67182114705236962e-01
9.67182114705236962e-01
1.02832139070318140e+00
1.02832139070318140e+00
1.02832139070318140e+00
9.62558213319846034e-01
9.62558213319846034e-01
9.62558213319846034e-01
9.40752029399355094e-01
9.40752029399355094e-01
9.40752029399355094e-01
9.74613682866489639e-01
9.74613682866489639e-01
9.74613682866489639e-01
9.56284279786168923e-01
9.56284279786168923e-01
9.56284279786168923e-01
1.04616571472448472e+00
1.04616571472448472e+00
1.04616571472448472e+00
1.05865062678360355e+00
1.05865062678360355e+00
1.05865062678360355e+00
9.37064358316968438e-01
9.37064358316968438e-01
9.37064358316968438e-01
9.42850798894206310e-01
9.42850798894206310e-01
9.42850798894206310e-01
9.78459759251121719e-01
9.78459759251121719e-01
9.78459759251121719e-01
9.96924141529008545e-01
9.96924141529008545e-01
9.96924141529008545e-01
1.06372131729872943e+00
1.06372131729872943e+00
1.06372131729872943e+00
1.03188275069186886e+00
1.03188275069186886e+00
1.03188275069186886e+00
9.33686327282927331e-01
9.33686327282927331e-01
9.33686327282927331e-01
9.62088395138122721e-01
9.62088395138122721e-01
9.62088395138122721e-01
1.00931234596068298e+00
1.00931234596068298e+00
1.00931234596068298e+00
9.71181702689960513e-01
9.71181702689960513e-01
9.71181702689960513e-01
9.94855920694288520e-01
9.94855920694288520e-01
9.94855920694288520e-01
1.04414735157357774e+00
1.04414735157357774e+00
1.04414735157357774e+00
9.67370854673994640e-01
9.67370854673994640e-01
9.67370854673994640e-01
9.40146100177495225e-01
9.40146100177495225e-01
9.40146100177495225e-01
9.46415132435775130e-01
9.46415132435775130e-01
9.46415132435775130e-01
9.59312142065129048e-01
9.59312142065129048e-01
9.59312142065129048e-01
1.07607072435613227e+00
1.07607072435613227e+00
1.07607072435613227e+00
1.04119481077216203e+00
1.04119481077216203e+00
1.04119481077216203e+00
1.02254371888596807e+00
1.02254371888596807e+00
1.02254371888596807e+00
1.01218609346415311e+00
1.01218609346415311e+00
1.01218609346415311e+00
9.89510570057944849e-01
9.89510570057944849e-01
9.89510570057944849e-01
1.00965365787546690e+00
1.00965365787546690e+00
1.00965365787546690e+00
9.64253532268204760e-01
9.64253532268204760e-01
9.64253532268204760e-01
9.54072250639979691e-01
9.54072250639979691e-01
9.54072250639979691e-01
9.75630033339163205e-01
9.75630033339163205e-01
9.75630033339163205e-01
9.64917914195254522e-01
9.64917914195254522e-01
9.64917914195254522e-01
9.98615481976781183e-01
9.98615481976781183e-01
9.98615481976781183e-01
1.02806684601653808e+00
1.02806684601653808e+00
1.02806684601653808e+00
1.03297030397201617e+00
1.03297030397201617e+00
1.03297030397201617e+00
9.61801156522961276e-01
9.61801156522961276e-01
9.61801156522961276e-01
9.82004178276088879e-01
9.82004178276088879e-01
9.82004178276088879e-01
9.54384810583638665e-01
9.54384810583638665e-01
9.54384810583638665e-01
1.00005524321146977e+00
1.00005524321146977e+00
1.00005524321146977e+00
1.04883049453855914e+00
1.04883049453855914e+00
1.04883049453855914e+00
9.60855895515933200e-01
9.60855895515933200e-01
9.60855895515933200e-01
9.67477286657686508e-01
9.67477286657686508e-01
9.67477286657686508e-01
9.71857131061312551e-01
9.71857131061312551e-01
9.71857131061312551e-01
9.39163171411483422e-01
9.39163171411483422e-01
9.39163171411483422e-01
1.02433100146033840e+00
1.02433100146033840e+00
1.02433100146033840e+00
1.00855429024432208e+00
1.00855429024432208e+00
1.00855429024432208e+00
1.03749174660201549e+00
1.03749174660201549e+00
1.03749174660201549e+00
1.06159857663528268e+00
1.06159857663528268e+00
1.06159857663528268e+00
9.97360504877972232e-01
9.97360504877972232e-01
9.97360504877972232e-01
9.37930070290182605e-01
9.37930070290182605e-01
9.37930070290182605e-01
9.71422831495295402e-01
9.71422831495295402e-01
9.71422831495295402e-01
9.72830982412438150e-01
9.72830982412438150e-01
9.72830982412438150e-01
1.00182612558735396e+00
1.00182612558735396e+00
1.00182612558735396e+00
9.98349610859084025e-01
9.98349610859084025e-01
9.98349610859084025e-01
1.02139074258117457e+00
1.02139074258117457e+00
1.02139074258117457e+00
9.42842374110573145e-01
9.42842374110573145e-01
9.42842374110573145e-01
9.81771520866758451e-01
9.81771520866758451e-01
9.81771520866758451e-01
1.02650308072928076e+00
1.02650308072928076e+00
1.02650308072928076e+00
1.00928644467202866e+00
1.00928644467202866e+00
1.00928644467202866e+00
9.53164862172696026e-01
9.53164862172696026e-01
9.53164862172696026e-01
1.00187636202958430e+00
1.00187636202958430e+00
1.00187636202958430e+00
9.57950619050711993e-01
9.57950619050711993e-01
9.57950619050711993e-01
9.51415019648211846e-01
9.51415019648211846e-01
9.51415019648211846e-01
9.51482095988200993e-01
9.51482095988200993e-01
9.51482095988200993e-01
1.03240513379521670e+00
1.03240513379521670e+00
1.03240513379521670e+00
9.81988217605636260e-01
9.81988217605636260e-01
9.81988217605636260e-01
9.85793646064183626e-01
9.85793646064183626e-01
9.85793646064183626e-01
9.82972744300970924e-01
9.82972744300970924e-01
9.82972744300970924e-01
9.52327211725306877e-01
9.52327211725306877e-01
9.52327211725306877e-01
1.06435635483365099e+00
1.06435635483365099e+00
1.06435635483365099e+00
1.01505307769295383e+00
1.01505307769295383e+00
1.01505307769295383e+00
1.01362019103473600e+00
1.01362019103473600e+00
1.01362019103473600e+00
9.50641936041363489e-01
9.50641936041363489e-01
9.50641936041363489e-01
1.00164153510066534e+00
1.00164153510066534e+00
1.00164153510066534e+00
9.94801566709806462e-01
9.94801566709806462e-01
9.94801566709806462e-01
1.03475143037786510e+00
1.03475143037786510e+00
1.03475143037786510e+00
1.02208286017682926e+00
1.02208286017682926e+00
1.02208286017682926e+00
1.08517826243613813e+00
1.08517826243613813e+00
1.08517826243613813e+00
1.08249131508639440e+00
1.08249131508639440e+00
1.08249131508639440e+00
1.08279675805080933e+00
1.08279675805080933e+00
1.08279675805080933e+00
1.07980848737677637e+00
1.07980848737677637e+00
1.07980848737677637e+00
1.05718680899892226e+00
1.05718680899892226e+00
1.05718680899892226e+00
1.05808761581290423e+00
1.05808761581290423e+00
1.05808761581290423e+00
1.03813152229712280e+00
1.03813152229712280e+00
1.03813152229712280e+00
1.05472006029340593e+00
1.05472006029340593e+00
1.05472006029340593e+00
1.04271434541371666e+00
1.04271434541371666e+00
1.04271434541371666e+00
1.05840164759238275e+00
1.05840164759238275e+00
1.05840164759238275e+00
1.03349244287126329e+00
1.03349244287126329e+00
1.03349244287126329e+00
9.97966908052851598e-01
9.97966908052851598e-01
9.97966908052851598e-01
9.84832168755269466e-01
9.84832168755269466e-01
9.84832168755269466e-01
9.61455640684313995e-01
9.61455640684313995e-01
9.61455640684313995e-01
1.02449473851052475e+00
1.02449473851052475e+00
1.02449473851052475e+00
1.01785655828976251e+00
1.01785655828976251e+00
1.01785655828976251e+00
1.03021520958695367e+00
1.03021520958695367e+00
1.03021520958695367e+00
1.00057898338526141e+00
1.00057898338526141e+00
1.00057898338526141e+00
9.84673549427433681e-01
9.84673549427433681e-01
9.84673549427433681e-01
1.02341018290260921e+00
1.02341018290260921e+00
1.02341018290260921e+00


        </DataArray>

      </PointData>

      <CellData/>

      <Points>

        <DataArray type="Float64" NumberOfComponents="3" format="ascii">

0.1082531754723032 0.6875000000007816 0 0.23533274979922561 0.77093399389351469 0 0.10409951422139101 0.81206782209691231 0 0.23533274979922561 0.77093399389351469 0 0.1082531754723032 0.6875000000007816 0 0.21809253452218619 0.65480892822618109 0 0.24418615484441761 0.35773612382016978 0 0.121259140952891 0.43112117036853742 0 0.1082531754734323 0.31250000000117473 0 0.75000000000057243 0.35048094716480432 0 0.88173731489851925 0.33077402607778361 0 0.81242894672211508 0.45500248311961472 0 0.121259140952891 0.43112117036853742 0 0.24418615484441761 0.35773612382016978 0 0.22257735880419699 0.47344721641341742 0 0.81242894672211508 0.45500248311961472 0 0.88173731489851925 0.33077402607778361 0 0.915464298762109 0.43749999999886913 0 0 0.62500000000121547 0 0 0.50000000000206146 0 0.1371230538040123 0.56179824718362847 0 0.82212678063041267 0.67678595194836966 0 0.89051480781310632 0.79665793440246835 0 0.76243180583607129 0.78687675331113149 0 0.76243180583607129 0.78687675331113149 0 0.69010814643829166 0.89298495739101336 0 0.62844955668446423 0.7850749770380413 0 0.89051480781310632 0.79665793440246835 0 0.82212678063041267 0.67678595194836966 0 0.92266244547590082 0.68749999999917555 0 0 0.50000000000206146 0 0.121259140952891 0.43112117036853742 0 0.1371230538040123 0.56179824718362847 0 0.1082531754723032 0.6875000000007816 0 0 0.62500000000121547 0 0.1371230538040123 0.56179824718362847 0 0.75000000000032374 0.56698729811007709 0 0.88927506082488361 0.56409486310635837 0 0.82212678063041267 0.67678595194836966 0 0.81242894672211508 0.45500248311961472 0 0.88927506082488361 0.56409486310635837 0 0.75000000000032374 0.56698729811007709 0 0.69851598570178741 0.68211701800612057 0 0.56496004948275869 0.67675037307860475 0 0.62752533658682441 0.56838075195614346 0 0.69851598570178741 0.68211701800612057 0 0.76243180583607129 0.78687675331113149 0 0.62844955668446423 0.7850749770380413 0 0.23533274979922561 0.77093399389351469 0 0.18802967116092181 0.89415349436770275 0 0.10409951422139101 0.81206782209691231 0 0.121259140952891 0.43112117036853742 0 0.22257735880419699 0.47344721641341742 0 0.1371230538040123 0.56179824718362847 0 0.75000000000032374 0.56698729811007709 0 0.69851598570178741 0.68211701800612057 0 0.62752533658682441 0.56838075195614346 0 0.56496004948275869 0.67675037307860475 0 0.69851598570178741 0.68211701800612057 0 0.62844955668446423 0.7850749770380413 0 0.1371230538040123 0.56179824718362847 0 0.22257735880419699 0.47344721641341742 0 0.26982811998763367 0.56544650815856912 0 0.21809253452218619 0.65480892822618109 0 0.1371230538040123 0.56179824718362847 0 0.26982811998763367 0.56544650815856912 0 0.24418615484441761 0.35773612382016978 0 0.1082531754734323 0.31250000000117473 0 0.20767261601459541 0.25628918442207171 0 0.88173731489851925 0.33077402607778361 0 0.75000000000057243 0.35048094716480432 0 0.79891106056046712 0.25007334953587562 0 0.75000000000032374 0.56698729811007709 0 0.82212678063041267 0.67678595194836966 0 0.69851598570178741 0.68211701800612057 0 0.81249999999950517 0.1082531754733404 0 0.89658421694297741 0.1933620068391701 0 0.79891106056046712 0.25007334953587562 0 0.81249999999950517 0.1082531754733404 0 0.79891106056046712 0.25007334953587562 0 0.73983916756365475 0.17530677078674589 0 0.23533274979922561 0.77093399389351469 0 0.21809253452218619 0.65480892822618109 0 0.32607333794064219 0.67760114260606152 0 0.1082531754723032 0.6875000000007816 0 0.1371230538040123 0.56179824718362847 0 0.21809253452218619 0.65480892822618109 0 0.69851598570178741 0.68211701800612057 0 0.82212678063041267 0.67678595194836966 0 0.76243180583607129 0.78687675331113149 0 0.69010814643829166 0.89298495739101336 0 0.76243180583607129 0.78687675331113149 0 0.80886664387416207 0.89717308644237903 0 0.43750000000181222 0.89174682452709564 0 0.31258827852827581 0.89214793616708443 0 0.37776173212361452 0.78514649317305008 0 0.43750000000181222 0.89174682452709564 0 0.37500000000156292 1 0 0.31258827852827581 0.89214793616708443 0 0.121259140952891 0.43112117036853742 0 0 0.37500000000156292 0 0.1082531754734323 0.31250000000117473 0 0.50000000000206146 1 0 0.37500000000156292 1 0 0.43750000000181222 0.89174682452709564 0 0.31258827852827581 0.89214793616708443 0 0.18802967116092181 0.89415349436770275 0 0.23533274979922561 0.77093399389351469 0 0 0.50000000000206146 0 0 0.37500000000156292 0 0.121259140952891 0.43112117036853742 0 0.62844955668446423 0.7850749770380413 0 0.69010814643829166 0.89298495739101336 0 0.56327595140699671 0.89211526915426331 0 0.69010814643829166 0.89298495739101336 0 0.62500000000121547 1 0 0.56327595140699671 0.89211526915426331 0 0.25000000000104189 1 0 0.18802967116092181 0.89415349436770275 0 0.31258827852827581 0.89214793616708443 0 0.50000000000206146 1 0 0.43750000000181222 0.89174682452709564 0 0.56327595140699671 0.89211526915426331 0 0.56249999999885147 0.1082531754730395 0 0.62499999999901068 0 0 0.68749999999926592 0.1082531754732875 0 1 0.49999999999869221 0 1 0.62499999999901068 0 0.88927506082488361 0.56409486310635837 0 0 0.25000000000104189 0 0.12076953676380731 0.18690935762408761 0 0.1082531754734323 0.31250000000117473 0 0.49999999999869221 0 0 0.62499999999901068 0 0 0.56249999999885147 0.1082531754730395 0 0.62500000000121547 1 0 0.50000000000206146 1 0 0.56327595140699671 0.89211526915426331 0 0.37500000000156292 1 0 0.25000000000104189 1 0 0.31258827852827581 0.89214793616708443 0 0.31281086598417152 0.10449318608631281 0 0.37499999999904599 0 0 0.43749999999910871 0.1082531754729984 0 0.43750000000181222 0.89174682452709564 0 0.37776173212361452 0.78514649317305008 0 0.50046028868828263 0.78376912307435687 0 0 0.37500000000156292 0 0 0.25000000000104189 0 0.1082531754734323 0.31250000000117473 0 0.49999999999869221 0 0 0.56249999999885147 0.1082531754730395 0 0.43749999999910871 0.1082531754729984 0 0.43750000000181222 0.89174682452709564 0 0.50046028868828263 0.78376912307435687 0 0.56327595140699671 0.89211526915426331 0 0.74999999999934042 0 0 0.81249999999950517 0.1082531754733404 0 0.68749999999926592 0.1082531754732875 0 0.37499999999904599 0 0 0.49999999999869221 0 0 0.43749999999910871 0.1082531754729984 0 0.25000000000104189 1 0 0.12500000000052089 1 0 0.18802967116092181 0.89415349436770275 0 0.50046028868828263 0.78376912307435687 0 0.62844955668446423 0.7850749770380413 0 0.56327595140699671 0.89211526915426331 0 0.37776173212361452 0.78514649317305008 0 0.31258827852827581 0.89214793616708443 0 0.23533274979922561 0.77093399389351469 0 0.62499999999901068 0 0 0.74999999999934042 0 0 0.68749999999926592 0.1082531754732875 0 1 0.74999999999934042 0 1 0.87499999999967015 0 0.89051480781310632 0.79665793440246835 0 0 0.25000000000104189 0 0 0.12500000000052089 0 0.12076953676380731 0.18690935762408761 0 0.74999999999934042 0 0 0.87499999999967015 0 0 0.81249999999950517 0.1082531754733404 0 0.24999999999941069 0 0 0.37499999999904599 0 0 0.31281086598417152 0.10449318608631281 0 0.50046028868828263 0.78376912307435687 0 0.37776173212361452 0.78514649317305008 0 0.44078402250377968 0.67714785211715212 0 0.68768773896438518 0.4586835206367198 0 0.75000000000032374 0.56698729811007709 0 0.62752533658682441 0.56838075195614346 0 0.31411863959822661 0.24965544328045999 0 0.37953773393552892 0.34812185820708452 0 0.24418615484441761 0.35773612382016978 0 0.68768773896438518 0.4586835206367198 0 0.81242894672211508 0.45500248311961472 0 0.75000000000032374 0.56698729811007709 0 1 0.24999999999941069 0 1 0.37499999999904599 0 0.88173731489851925 0.33077402607778361 0 0 0.75000000000034761 0 0 0.62500000000121547 0 0.1082531754723032 0.6875000000007816 0 0.50048844149666749 0.56727788297625459 0 0.44078402250377968 0.67714785211715212 0 0.38694285807596462 0.5672991787102919 0 0.50108503093851109 0.35012252869403671 0 0.44301038174930041 0.45684931552185398 0 0.37953773393552892 0.34812185820708452 0 0.50046028868828263 0.78376912307435687 0 0.56496004948275869 0.67675037307860475 0 0.62844955668446423 0.7850749770380413 0 0.68768773896438518 0.4586835206367198 0 0.75000000000057243 0.35048094716480432 0 0.81242894672211508 0.45500248311961472 0 0.56349980387502452 0.45846841892908402 0 0.62512662990940393 0.35044303886909911 0 0.68768773896438518 0.4586835206367198 0 0.50048844149666749 0.56727788297625459 0 0.38694285807596462 0.5672991787102919 0 0.44301038174930041 0.45684931552185398 0 0.50046028868828263 0.78376912307435687 0 0.44078402250377968 0.67714785211715212 0 0.56496004948275869 0.67675037307860475 0 0.50108503093851109 0.35012252869403671 0 0.37953773393552892 0.34812185820708452 0 0.43750000000200551 0.24222777169198509 0 0.75000000000034761 1 0 0.62500000000121547 1 0 0.69010814643829166 0.89298495739101336 0 0.68768773896438518 0.4586835206367198 0 0.62512662990940393 0.35044303886909911 0 0.75000000000057243 0.35048094716480432 0 0.56496004948275869 0.67675037307860475 0 0.44078402250377968 0.67714785211715212 0 0.50048844149666749 0.56727788297625459 0 0.56349980387502452 0.45846841892908402 0 0.44301038174930041 0.45684931552185398 0 0.50108503093851109 0.35012252869403671 0 0.50048844149666749 0.56727788297625459 0 0.44301038174930041 0.45684931552185398 0 0.56349980387502452 0.45846841892908402 0 0.56349980387502452 0.45846841892908402 0 0.50108503093851109 0.35012252869403671 0 0.62512662990940393 0.35044303886909911 0 0.43750000000200551 0.24222777169198509 0 0.37953773393552892 0.34812185820708452 0 0.31411863959822661 0.24965544328045999 0 0.56496004948275869 0.67675037307860475 0 0.50048844149666749 0.56727788297625459 0 0.62752533658682441 0.56838075195614346 0 0.56349980387502452 0.45846841892908402 0 0.68768773896438518 0.4586835206367198 0 0.62752533658682441 0.56838075195614346 0 0.50048844149666749 0.56727788297625459 0 0.56349980387502452 0.45846841892908402 0 0.62752533658682441 0.56838075195614346 0 0.75000000000057243 0.35048094716480432 0 0.62512662990940393 0.35044303886909911 0 0.68668231842078242 0.24762892664808989 0 0.50108503093851109 0.35012252869403671 0 0.43750000000200551 0.24222777169198509 0 0.56250000000143974 0.2422277716920859 0 0.62512662990940393 0.35044303886909911 0 0.50108503093851109 0.35012252869403671 0 0.56250000000143974 0.2422277716920859 0 0.68668231842078242 0.24762892664808989 0 0.62512662990940393 0.35044303886909911 0 0.56250000000143974 0.2422277716920859 0 0.22257735880419699 0.47344721641341742 0 0.24418615484441761 0.35773612382016978 0 0.32815957677880009 0.4577243358118348 0 0.12076953676380731 0.18690935762408761 0 0.19185372118111221 0.092925648673580788 0 0.25103557339309318 0.17464499738446629 0 0.20767261601459541 0.25628918442207171 0 0.12076953676380731 0.18690935762408761 0 0.25103557339309318 0.17464499738446629 0 0 0.87499999999950151 0 0 0.75000000000034761 0 0.10409951422139101 0.81206782209691231 0 0.1249999999997731 0 0 0.24999999999941069 0 0 0.19185372118111221 0.092925648673580788 0 1 0.1249999999997731 0 1 0.24999999999941069 0 0.89658421694297741 0.1933620068391701 0 0.88927506082488361 0.56409486310635837 0 0.81242894672211508 0.45500248311961472 0 0.915464298762109 0.43749999999886913 0 0.87499999999950151 1 0 0.75000000000034761 1 0 0.80886664387416207 0.89717308644237903 0 0.75000000000034761 1 0 0.69010814643829166 0.89298495739101336 0 0.80886664387416207 0.89717308644237903 0 0.82212678063041267 0.67678595194836966 0 0.88927506082488361 0.56409486310635837 0 0.92266244547590082 0.68749999999917555 0 0 0.75000000000034761 0 0.1082531754723032 0.6875000000007816 0 0.10409951422139101 0.81206782209691231 0 0.24999999999941069 0 0 0.31281086598417152 0.10449318608631281 0 0.19185372118111221 0.092925648673580788 0 1 0.24999999999941069 0 0.88173731489851925 0.33077402607778361 0 0.89658421694297741 0.1933620068391701 0 0.32815957677880009 0.4577243358118348 0 0.38694285807596462 0.5672991787102919 0 0.26982811998763367 0.56544650815856912 0 0.76243180583607129 0.78687675331113149 0 0.89051480781310632 0.79665793440246835 0 0.80886664387416207 0.89717308644237903 0 0.38694285807596462 0.5672991787102919 0 0.44078402250377968 0.67714785211715212 0 0.32607333794064219 0.67760114260606152 0 0.37776173212361452 0.78514649317305008 0 0.23533274979922561 0.77093399389351469 0 0.32607333794064219 0.67760114260606152 0 1 0.49999999999869221 0 0.88927506082488361 0.56409486310635837 0 0.915464298762109 0.43749999999886913 0 0.88173731489851925 0.33077402607778361 0 1 0.37499999999904599 0 0.915464298762109 0.43749999999886913 0 0.24418615484441761 0.35773612382016978 0 0.37953773393552892 0.34812185820708452 0 0.32815957677880009 0.4577243358118348 0 0.44301038174930041 0.45684931552185398 0 0.38694285807596462 0.5672991787102919 0 0.32815957677880009 0.4577243358118348 0 0.88927506082488361 0.56409486310635837 0 1 0.62499999999901068 0 0.92266244547590082 0.68749999999917555 0 1 0.74999999999934042 0 0.89051480781310632 0.79665793440246835 0 0.92266244547590082 0.68749999999917555 0 0 1 0 0 0.87499999999950151 0 0.091506350946494744 0.90849364905351082 0 1 1 0 0.87499999999950151 1 0 0.90849364905363228 0.90849364905367769 0 0 0 0 0.1249999999997731 0 0 0.091506350946417708 0.091506350946618076 0 0 0.12500000000052089 0 0 0 0 0.091506350946417708 0.091506350946618076 0 1 0 0 1 0.1249999999997731 0 0.90849364905355434 0.091506350946296292 0 0.87499999999967015 0 0 1 0 0 0.90849364905355434 0.091506350946296292 0 0.12500000000052089 1 0 0 1 0 0.091506350946494744 0.90849364905351082 0 1 0.87499999999967015 0 1 1 0 0.90849364905363228 0.90849364905367769 0 0.38694285807596462 0.5672991787102919 0 0.32607333794064219 0.67760114260606152 0 0.26982811998763367 0.56544650815856912 0 0.31411863959822661 0.24965544328045999 0 0.24418615484441761 0.35773612382016978 0 0.20767261601459541 0.25628918442207171 0 0.1082531754734323 0.31250000000117473 0 0.12076953676380731 0.18690935762408761 0 0.20767261601459541 0.25628918442207171 0 0.75000000000057243 0.35048094716480432 0 0.68668231842078242 0.24762892664808989 0 0.79891106056046712 0.25007334953587562 0 0.22257735880419699 0.47344721641341742 0 0.32815957677880009 0.4577243358118348 0 0.26982811998763367 0.56544650815856912 0 0.44078402250377968 0.67714785211715212 0 0.37776173212361452 0.78514649317305008 0 0.32607333794064219 0.67760114260606152 0 0.89658421694297741 0.1933620068391701 0 0.88173731489851925 0.33077402607778361 0 0.79891106056046712 0.25007334953587562 0 1 0.37499999999904599 0 1 0.49999999999869221 0 0.915464298762109 0.43749999999886913 0 0.37953773393552892 0.34812185820708452 0 0.44301038174930041 0.45684931552185398 0 0.32815957677880009 0.4577243358118348 0 0.32607333794064219 0.67760114260606152 0 0.21809253452218619 0.65480892822618109 0 0.26982811998763367 0.56544650815856912 0 1 0.1249999999997731 0 0.89658421694297741 0.1933620068391701 0 0.90849364905355434 0.091506350946296292 0 0 0.87499999999950151 0 0.10409951422139101 0.81206782209691231 0 0.091506350946494744 0.90849364905351082 0 0.1249999999997731 0 0 0.19185372118111221 0.092925648673580788 0 0.091506350946417708 0.091506350946618076 0 1 0.62499999999901068 0 1 0.74999999999934042 0 0.92266244547590082 0.68749999999917555 0 0.18802967116092181 0.89415349436770275 0 0.12500000000052089 1 0 0.091506350946494744 0.90849364905351082 0 0.89051480781310632 0.79665793440246835 0 1 0.87499999999967015 0 0.90849364905363228 0.90849364905367769 0 0.12076953676380731 0.18690935762408761 0 0 0.12500000000052089 0 0.091506350946417708 0.091506350946618076 0 0.81249999999950517 0.1082531754733404 0 0.87499999999967015 0 0 0.90849364905355434 0.091506350946296292 0 0.87499999999950151 1 0 0.80886664387416207 0.89717308644237903 0 0.90849364905363228 0.90849364905367769 0 0.68668231842078242 0.24762892664808989 0 0.62499999999892575 0.17524047358135519 0 0.73983916756365475 0.17530677078674589 0 0.31281086598417152 0.10449318608631281 0 0.43749999999910871 0.1082531754729984 0 0.37500000000232431 0.17524047358384309 0 0.62499999999892575 0.17524047358135519 0 0.56250000000143974 0.2422277716920859 0 0.49999999999934441 0.1752404735815076 0 0.56249999999885147 0.1082531754730395 0 0.68749999999926592 0.1082531754732875 0 0.62499999999892575 0.17524047358135519 0 0.56249999999885147 0.1082531754730395 0 0.62499999999892575 0.17524047358135519 0 0.49999999999934441 0.1752404735815076 0 0.56250000000143974 0.2422277716920859 0 0.43750000000200551 0.24222777169198509 0 0.49999999999934441 0.1752404735815076 0 0.43749999999910871 0.1082531754729984 0 0.56249999999885147 0.1082531754730395 0 0.49999999999934441 0.1752404735815076 0 0.68668231842078242 0.24762892664808989 0 0.56250000000143974 0.2422277716920859 0 0.62499999999892575 0.17524047358135519 0 0.43750000000200551 0.24222777169198509 0 0.31411863959822661 0.24965544328045999 0 0.37500000000232431 0.17524047358384309 0 0.49999999999934441 0.1752404735815076 0 0.43750000000200551 0.24222777169198509 0 0.37500000000232431 0.17524047358384309 0 0.43749999999910871 0.1082531754729984 0 0.49999999999934441 0.1752404735815076 0 0.37500000000232431 0.17524047358384309 0 0.62499999999892575 0.17524047358135519 0 0.68749999999926592 0.1082531754732875 0 0.73983916756365475 0.17530677078674589 0 0.68749999999926592 0.1082531754732875 0 0.81249999999950517 0.1082531754733404 0 0.73983916756365475 0.17530677078674589 0 0.10409951422139101 0.81206782209691231 0 0.18802967116092181 0.89415349436770275 0 0.091506350946494744 0.90849364905351082 0 0.89658421694297741 0.1933620068391701 0 0.81249999999950517 0.1082531754733404 0 0.90849364905355434 0.091506350946296292 0 0.19185372118111221 0.092925648673580788 0 0.12076953676380731 0.18690935762408761 0 0.091506350946417708 0.091506350946618076 0 0.37500000000232431 0.17524047358384309 0 0.31411863959822661 0.24965544328045999 0 0.25103557339309318 0.17464499738446629 0 0.31281086598417152 0.10449318608631281 0 0.37500000000232431 0.17524047358384309 0 0.25103557339309318 0.17464499738446629 0 0.80886664387416207 0.89717308644237903 0 0.89051480781310632 0.79665793440246835 0 0.90849364905363228 0.90849364905367769 0 0.19185372118111221 0.092925648673580788 0 0.31281086598417152 0.10449318608631281 0 0.25103557339309318 0.17464499738446629 0 0.79891106056046712 0.25007334953587562 0 0.68668231842078242 0.24762892664808989 0 0.73983916756365475 0.17530677078674589 0 0.31411863959822661 0.24965544328045999 0 0.20767261601459541 0.25628918442207171 0 0.25103557339309318 0.17464499738446629 0 

        </DataArray>

      </Points>

      <Cells>

        <DataArray type="Int32" Name="connectivity" format="ascii">

0 1 2 3 4 5 6 7 8 9 10 11 12 13 14 15 16 17 18 19 20 21 22 23 24 25 26 27 28 29 30 31 32 33 34 35 36 37 38 39 40 41 42 43 44 45 46 47 48 49 50 51 52 53 54 55 56 57 58 59 60 61 62 63 64 65 66 67 68 69 70 71 72 73 74 75 76 77 78 79 80 81 82 83 84 85 86 87 88 89 90 91 92 93 94 95 96 97 98 99 100 101 102 103 104 105 106 107 108 109 110 111 112 113 114 115 116 117 118 119 120 121 122 123 124 125 126 127 128 129 130 131 132 133 134 135 136 137 138 139 140 141 142 143 144 145 146 147 148 149 150 151 152 153 154 155 156 157 158 159 160 161 162 163 164 165 166 167 168 169 170 171 172 173 174 175 176 177 178 179 180 181 182 183 184 185 186 187 188 189 190 191 192 193 194 195 196 197 198 199 200 201 202 203 204 205 206 207 208 209 210 211 212 213 214 215 216 217 218 219 220 221 222 223 224 225 226 227 228 229 230 231 232 233 234 235 236 237 238 239 240 241 242 243 244 245 246 247 248 249 250 251 252 253 254 255 256 257 258 259 260 261 262 263 264 265 266 267 268 269 270 271 272 273 274 275 276 277 278 279 280 281 282 283 284 285 286 287 288 289 290 291 292 293 294 295 296 297 298 299 300 301 302 303 304 305 306 307 308 309 310 311 312 313 314 315 316 317 318 319 320 321 322 323 324 325 326 327 328 329 330 331 332 333 334 335 336 337 338 339 340 341 342 343 344 345 346 347 348 349 350 351 352 353 354 355 356 357 358 359 360 361 362 363 364 365 366 367 368 369 370 371 372 373 374 375 376 377 378 379 380 381 382 383 384 385 386 387 388 389 390 391 392 393 394 395 396 397 398 399 400 401 402 403 404 405 406 407 408 409 410 411 412 413 414 415 416 417 418 419 420 421 422 423 424 425 426 427 428 429 430 431 432 433 434 435 436 437 438 439 440 441 442 443 444 445 446 447 448 449 450 451 452 453 454 455 456 457 458 459 460 461 462 463 464 465 466 467 468 469 470 471 472 473 474 475 476 477 478 479 480 481 482 483 484 485 

        </DataArray>

        <DataArray type="Int32" Name="offsets" format="ascii">

3 6 9 12 15 18 21 24 27 30 33 36 39 42 45 48 51 54 57 60 63 66 69 72 75 78 81 84 87 90 93 96 99 102 105 108 111 114 117 120 123 126 129 132 135 138 141 144 147 150 153 156 159 162 165 168 171 174 177 180 183 186 189 192 195 198 201 204 207 210 213 216 219 222 225 228 231 234 237 240 243 246 249 252 255 258 261 264 267 270 273 276 279 282 285 288 291 294 297 300 303 306 309 312 315 318 321 324 327 330 333 336 339 342 345 348 351 354 357 360 363 366 369 372 375 378 381 384 387 390 393 396 399 402 405 408 411 414 417 420 423 426 429 432 435 438 441 444 447 450 453 456 459 462 465 468 471 474 477 480 483 486 

        </DataArray>

        <DataArray type="Int32" Name="types" format="ascii">

5 5 5 5 5 5 5 5 5 5 5 5 5 5 5 5 5 5 5 5 5 5 5 5 5 5 5 5 5 5 5 5 5 5 5 5 5 5 5 5 5 5 5 5 5 5 5 5 5 5 5 5 5 5 5 5 5 5 5 5 5 5 5 5 5 5 5 5 5 5 5 5 5 5 5 5 5 5 5 5 5 5 5 5 5 5 5 5 5 5 5 5 5 5 5 5 5 5 5 5 5 5 5 5 5 5 5 5 5 5 5 5 5 5 5 5 5 5 5 5 5 5 5 5 5 5 5 5 5 5 5 5 5 5 5 5 5 5 5 5 5 5 5 5 5 5 5 5 5 5 5 5 5 5 5 5 5 5 5 5 5 5 

        </DataArray>

      </Cells>

    </Piece>

  </UnstructuredGrid>

</VTKFile>

