<?xml version="1.0"?>

<VTKFile type="UnstructuredGrid" version="0.1">

  <UnstructuredGrid>

    <Piece NumberOfPoints="486" NumberOfCells="162">

      <PointData>

        <DataArray type="Float64" Name="K" format="ascii">

9.80603998069893068e-01
9.80603998069893068e-01
9.80603998069893068e-01
1.02267147236523548e+00
1.02267147236523548e+00
1.02267147236523548e+00
9.33377953679432881e-01
9.33377953679432881e-01
9.33377953679432881e-01
9.37430050758347844e-01
9.37430050758347844e-01
9.37430050758347844e-01
9.41998214925625188e-01
9.41998214925625188e-01
9.41998214925625188e-01
9.77046355051361726e-01
9.77046355051361726e-01
9.77046355051361726e-01
1.02261154003859112e+00
1.02261154003859112e+00
1.02261154003859112e+00
9.90772311754744894e-01
9.90772311754744894e-01
9.90772311754744894e-01
1.06470023241574663e+00
1.06470023241574663e+00
1.06470023241574663e+00
9.97630535525290463e-01
9.97630535525290463e-01
9.97630535525290463e-01
9.87319055095737808e-01
9.87319055095737808e-01
9.87319055095737808e-01
1.00643698101841439e+00
1.00643698101841439e+00
1.00643698101841439e+00
9.94554853990671006e-01
9.94554853990671006e-01
9.94554853990671006e-01
9.78170876057248950e-01
9.78170876057248950e-01
9.78170876057248950e-01
1.08340040357560197e+00
1.08340040357560197e+00
1.08340040357560197e+00
1.08432942800955678e+00
1.08432942800955678e+00
1.08432942800955678e+00
9.72807921588876301e-01
9.72807921588876301e-01
9.72807921588876301e-01
9.73605472375535963e-01
9.73605472375535963e-01
9.73605472375535963e-01
1.04061219373746061e+00
1.04061219373746061e+00
1.04061219373746061e+00
1.11533735678032264e+00
1.11533735678032264e+00
1.11533735678032264e+00
9.90824840122319972e-01
9.90824840122319972e-01
9.90824840122319972e-01
1.01916562751106454e+00
1.01916562751106454e+00
1.01916562751106454e+00
9.28976148063387575e-01
9.28976148063387575e-01
9.28976148063387575e-01
9.33536478005010162e-01
9.33536478005010162e-01
9.33536478005010162e-01
1.02622447912645498e+00
1.02622447912645498e+00
1.02622447912645498e+00
9.88030450409209782e-01
9.88030450409209782e-01
9.88030450409209782e-01
9.79299802984956225e-01
9.79299802984956225e-01
9.79299802984956225e-01
1.07299662469658719e+00
1.07299662469658719e+00
1.07299662469658719e+00
1.00625737867221710e+00
1.00625737867221710e+00
1.00625737867221710e+00
1.03093772968667152e+00
1.03093772968667152e+00
1.03093772968667152e+00
9.93922882733036528e-01
9.93922882733036528e-01
9.93922882733036528e-01
1.01206979548260967e+00
1.01206979548260967e+00
1.01206979548260967e+00
9.84453187265421081e-01
9.84453187265421081e-01
9.84453187265421081e-01
9.19402938746706977e-01
9.19402938746706977e-01
9.19402938746706977e-01
9.91510336875360609e-01
9.91510336875360609e-01
9.91510336875360609e-01
1.00188428456747691e+00
1.00188428456747691e+00
1.00188428456747691e+00
9.57313767556257744e-01
9.57313767556257744e-01
9.57313767556257744e-01
1.08607026278013974e+00
1.08607026278013974e+00
1.08607026278013974e+00
1.03592892003167614e+00
1.03592892003167614e+00
1.03592892003167614e+00
9.54289727093700302e-01
9.54289727093700302e-01
9.54289727093700302e-01
1.02066003713682552e+00
1.02066003713682552e+00
1.02066003713682552e+00
1.06473536946942327e+00
1.06473536946942327e+00
1.06473536946942327e+00
9.89217819550759270e-01
9.89217819550759270e-01
9.89217819550759270e-01
8.87791654141377728e-01
8.87791654141377728e-01
8.87791654141377728e-01
1.10851347192473204e+00
1.10851347192473204e+00
1.10851347192473204e+00
1.01474093383828645e+00
1.01474093383828645e+00
1.01474093383828645e+00
9.59316342213016426e-01
9.59316342213016426e-01
9.59316342213016426e-01
1.10995245048414359e+00
1.10995245048414359e+00
1.10995245048414359e+00
1.03068315674416899e+00
1.03068315674416899e+00
1.03068315674416899e+00
8.82935779026830403e-01
8.82935779026830403e-01
8.82935779026830403e-01
1.11607347738399310e+00
1.11607347738399310e+00
1.11607347738399310e+00
1.04782144163996449e+00
1.04782144163996449e+00
1.04782144163996449e+00
1.04714706355851894e+00
1.04714706355851894e+00
1.04714706355851894e+00
1.15868186197598066e+00
1.15868186197598066e+00
1.15868186197598066e+00
9.16477556141172878e-01
9.16477556141172878e-01
9.16477556141172878e-01
1.09589551388600781e+00
1.09589551388600781e+00
1.09589551388600781e+00
1.04064741095591651e+00
1.04064741095591651e+00
1.04064741095591651e+00
1.06035397768778106e+00
1.06035397768778106e+00
1.06035397768778106e+00
1.03955290824107016e+00
1.03955290824107016e+00
1.03955290824107016e+00
8.96332869402755805e-01
8.96332869402755805e-01
8.96332869402755805e-01
1.05515144562841967e+00
1.05515144562841967e+00
1.05515144562841967e+00
1.10826545976117319e+00
1.10826545976117319e+00
1.10826545976117319e+00
1.05135791860500882e+00
1.05135791860500882e+00
1.05135791860500882e+00
9.83612532836842579e-01
9.83612532836842579e-01
9.83612532836842579e-01
8.81893070281915659e-01
8.81893070281915659e-01
8.81893070281915659e-01
9.50055113655080996e-01
9.50055113655080996e-01
9.50055113655080996e-01
1.00513139186261147e+00
1.00513139186261147e+00
1.00513139186261147e+00
1.00724282834005852e+00
1.00724282834005852e+00
1.00724282834005852e+00
1.04704247293395802e+00
1.04704247293395802e+00
1.04704247293395802e+00
9.27944537053092988e-01
9.27944537053092988e-01
9.27944537053092988e-01
1.10605439252433557e+00
1.10605439252433557e+00
1.10605439252433557e+00
9.12155331228351129e-01
9.12155331228351129e-01
9.12155331228351129e-01
9.46188250157102950e-01
9.46188250157102950e-01
9.46188250157102950e-01
1.01285884464583398e+00
1.01285884464583398e+00
1.01285884464583398e+00
1.07101552797023558e+00
1.07101552797023558e+00
1.07101552797023558e+00
9.15786442227673025e-01
9.15786442227673025e-01
9.15786442227673025e-01
9.84074779256278065e-01
9.84074779256278065e-01
9.84074779256278065e-01
9.04392001168803250e-01
9.04392001168803250e-01
9.04392001168803250e-01
1.06068837957894391e+00
1.06068837957894391e+00
1.06068837957894391e+00
9.75559952192648461e-01
9.75559952192648461e-01
9.75559952192648461e-01
1.00504132291521775e+00
1.00504132291521775e+00
1.00504132291521775e+00
9.70526429198362073e-01
9.70526429198362073e-01
9.70526429198362073e-01
8.92243884921496866e-01
8.92243884921496866e-01
8.92243884921496866e-01
1.05854471816372220e+00
1.05854471816372220e+00
1.05854471816372220e+00
9.79204354486221118e-01
9.79204354486221118e-01
9.79204354486221118e-01
1.01963365577497123e+00
1.01963365577497123e+00
1.01963365577497123e+00
9.10342451587125678e-01
9.10342451587125678e-01
9.10342451587125678e-01
9.66478418644148296e-01
9.66478418644148296e-01
9.66478418644148296e-01
9.74049343264752121e-01
9.74049343264752121e-01
9.74049343264752121e-01
9.60805917520634489e-01
9.60805917520634489e-01
9.60805917520634489e-01
9.21801352711426047e-01
9.21801352711426047e-01
9.21801352711426047e-01
9.87247690306717551e-01
9.87247690306717551e-01
9.87247690306717551e-01
9.59839420572006996e-01
9.59839420572006996e-01
9.59839420572006996e-01
9.32800866343976076e-01
9.32800866343976076e-01
9.32800866343976076e-01
1.05737587742225947e+00
1.05737587742225947e+00
1.05737587742225947e+00
1.02407668297715659e+00
1.02407668297715659e+00
1.02407668297715659e+00
9.82545897795336076e-01
9.82545897795336076e-01
9.82545897795336076e-01
9.34420316116001959e-01
9.34420316116001959e-01
9.34420316116001959e-01
9.65764683517344125e-01
9.65764683517344125e-01
9.65764683517344125e-01
9.94465349904249063e-01
9.94465349904249063e-01
9.94465349904249063e-01
9.59495338036228218e-01
9.59495338036228218e-01
9.59495338036228218e-01
1.06242151988567679e+00
1.06242151988567679e+00
1.06242151988567679e+00
1.01060181722406006e+00
1.01060181722406006e+00
1.01060181722406006e+00
9.96592722397513842e-01
9.96592722397513842e-01
9.96592722397513842e-01
9.75363545803235477e-01
9.75363545803235477e-01
9.75363545803235477e-01
1.06572279025674344e+00
1.06572279025674344e+00
1.06572279025674344e+00
1.07670121240813987e+00
1.07670121240813987e+00
1.07670121240813987e+00
9.84358388212183244e-01
9.84358388212183244e-01
9.84358388212183244e-01
9.94443507811268224e-01
9.94443507811268224e-01
9.94443507811268224e-01
8.86785554614314853e-01
8.86785554614314853e-01
8.86785554614314853e-01
9.72519339651765957e-01
9.72519339651765957e-01
9.72519339651765957e-01
1.00219168222347488e+00
1.00219168222347488e+00
1.00219168222347488e+00
1.02692480395312491e+00
1.02692480395312491e+00
1.02692480395312491e+00
9.01150043376927723e-01
9.01150043376927723e-01
9.01150043376927723e-01
9.51499420292440168e-01
9.51499420292440168e-01
9.51499420292440168e-01
1.02575910644939605e+00
1.02575910644939605e+00
1.02575910644939605e+00
9.80214128685270358e-01
9.80214128685270358e-01
9.80214128685270358e-01
1.01248348609775740e+00
1.01248348609775740e+00
1.01248348609775740e+00
1.01065105301200897e+00
1.01065105301200897e+00
1.01065105301200897e+00
9.07850342766246765e-01
9.07850342766246765e-01
9.07850342766246765e-01
9.90118329158886867e-01
9.90118329158886867e-01
9.90118329158886867e-01
1.05550054794901205e+00
1.05550054794901205e+00
1.05550054794901205e+00
9.16748285990053868e-01
9.16748285990053868e-01
9.16748285990053868e-01
9.25457159461164802e-01
9.25457159461164802e-01
9.25457159461164802e-01
9.12034040937426793e-01
9.12034040937426793e-01
9.12034040937426793e-01
9.67395137263281857e-01
9.67395137263281857e-01
9.67395137263281857e-01
1.06896867216547031e+00
1.06896867216547031e+00
1.06896867216547031e+00
9.77231308297444090e-01
9.77231308297444090e-01
9.77231308297444090e-01
9.78653417476182730e-01
9.78653417476182730e-01
9.78653417476182730e-01
9.13414012002435216e-01
9.13414012002435216e-01
9.13414012002435216e-01
1.06252268162755703e+00
1.06252268162755703e+00
1.06252268162755703e+00
1.01738483975685035e+00
1.01738483975685035e+00
1.01738483975685035e+00
9.08276320373749835e-01
9.08276320373749835e-01
9.08276320373749835e-01
1.02277034639295272e+00
1.02277034639295272e+00
1.02277034639295272e+00
1.03123335910793390e+00
1.03123335910793390e+00
1.03123335910793390e+00
9.11124989891177295e-01
9.11124989891177295e-01
9.11124989891177295e-01
1.01144810164778320e+00
1.01144810164778320e+00
1.01144810164778320e+00
9.39362937794165243e-01
9.39362937794165243e-01
9.39362937794165243e-01
1.03042237733975783e+00
1.03042237733975783e+00
1.03042237733975783e+00
9.49608582793553202e-01
9.49608582793553202e-01
9.49608582793553202e-01
9.76812070883432582e-01
9.76812070883432582e-01
9.76812070883432582e-01
1.04254483832144773e+00
1.04254483832144773e+00
1.04254483832144773e+00
1.01918694023245537e+00
1.01918694023245537e+00
1.01918694023245537e+00
1.04013193766183853e+00
1.04013193766183853e+00
1.04013193766183853e+00
1.04477001130792924e+00
1.04477001130792924e+00
1.04477001130792924e+00
9.93316858226667043e-01
9.93316858226667043e-01
9.93316858226667043e-01
1.06364957671083493e+00
1.06364957671083493e+00
1.06364957671083493e+00
9.90014615876450566e-01
9.90014615876450566e-01
9.90014615876450566e-01
9.34884655277521737e-01
9.34884655277521737e-01
9.34884655277521737e-01
9.80391790277081565e-01
9.80391790277081565e-01
9.80391790277081565e-01
1.02857376069216055e+00
1.02857376069216055e+00
1.02857376069216055e+00
1.00844369087453334e+00
1.00844369087453334e+00
1.00844369087453334e+00
1.01243191267066979e+00
1.01243191267066979e+00
1.01243191267066979e+00
9.23875897088665021e-01
9.23875897088665021e-01
9.23875897088665021e-01
1.01302605718418204e+00
1.01302605718418204e+00
1.01302605718418204e+00
9.77643596539209181e-01
9.77643596539209181e-01
9.77643596539209181e-01
9.59329112640842085e-01
9.59329112640842085e-01
9.59329112640842085e-01
1.00895895969806149e+00
1.00895895969806149e+00
1.00895895969806149e+00
9.74875618016859624e-01
9.74875618016859624e-01
9.74875618016859624e-01
1.02511885972694206e+00
1.02511885972694206e+00
1.02511885972694206e+00
9.44838072242149662e-01
9.44838072242149662e-01
9.44838072242149662e-01
9.48978913010637526e-01
9.48978913010637526e-01
9.48978913010637526e-01


        </DataArray>

      </PointData>

      <CellData/>

      <Points>

        <DataArray type="Float64" NumberOfComponents="3" format="ascii">

0.1082531754723032 0.6875000000007816 0 0.23533274979922561 0.77093399389351469 0 0.10409951422139101 0.81206782209691231 0 0.23533274979922561 0.77093399389351469 0 0.1082531754723032 0.6875000000007816 0 0.21809253452218619 0.65480892822618109 0 0.24418615484441761 0.35773612382016978 0 0.121259140952891 0.43112117036853742 0 0.1082531754734323 0.31250000000117473 0 0.75000000000057243 0.35048094716480432 0 0.88173731489851925 0.33077402607778361 0 0.81242894672211508 0.45500248311961472 0 0.121259140952891 0.43112117036853742 0 0.24418615484441761 0.35773612382016978 0 0.22257735880419699 0.47344721641341742 0 0.81242894672211508 0.45500248311961472 0 0.88173731489851925 0.33077402607778361 0 0.915464298762109 0.43749999999886913 0 0 0.62500000000121547 0 0 0.50000000000206146 0 0.1371230538040123 0.56179824718362847 0 0.82212678063041267 0.67678595194836966 0 0.89051480781310632 0.79665793440246835 0 0.76243180583607129 0.78687675331113149 0 0.76243180583607129 0.78687675331113149 0 0.69010814643829166 0.89298495739101336 0 0.62844955668446423 0.7850749770380413 0 0.89051480781310632 0.79665793440246835 0 0.82212678063041267 0.67678595194836966 0 0.92266244547590082 0.68749999999917555 0 0 0.50000000000206146 0 0.121259140952891 0.43112117036853742 0 0.1371230538040123 0.56179824718362847 0 0.1082531754723032 0.6875000000007816 0 0 0.62500000000121547 0 0.1371230538040123 0.56179824718362847 0 0.75000000000032374 0.56698729811007709 0 0.88927506082488361 0.56409486310635837 0 0.82212678063041267 0.67678595194836966 0 0.81242894672211508 0.45500248311961472 0 0.88927506082488361 0.56409486310635837 0 0.75000000000032374 0.56698729811007709 0 0.69851598570178741 0.68211701800612057 0 0.56496004948275869 0.67675037307860475 0 0.62752533658682441 0.56838075195614346 0 0.69851598570178741 0.68211701800612057 0 0.76243180583607129 0.78687675331113149 0 0.62844955668446423 0.7850749770380413 0 0.23533274979922561 0.77093399389351469 0 0.18802967116092181 0.89415349436770275 0 0.10409951422139101 0.81206782209691231 0 0.121259140952891 0.43112117036853742 0 0.22257735880419699 0.47344721641341742 0 0.1371230538040123 0.56179824718362847 0 0.75000000000032374 0.56698729811007709 0 0.69851598570178741 0.68211701800612057 0 0.62752533658682441 0.56838075195614346 0 0.56496004948275869 0.67675037307860475 0 0.69851598570178741 0.68211701800612057 0 0.62844955668446423 0.7850749770380413 0 0.1371230538040123 0.56179824718362847 0 0.22257735880419699 0.47344721641341742 0 0.26982811998763367 0.56544650815856912 0 0.21809253452218619 0.65480892822618109 0 0.1371230538040123 0.56179824718362847 0 0.26982811998763367 0.56544650815856912 0 0.24418615484441761 0.35773612382016978 0 0.1082531754734323 0.31250000000117473 0 0.20767261601459541 0.25628918442207171 0 0.88173731489851925 0.33077402607778361 0 0.75000000000057243 0.35048094716480432 0 0.79891106056046712 0.25007334953587562 0 0.75000000000032374 0.56698729811007709 0 0.82212678063041267 0.67678595194836966 0 0.69851598570178741 0.68211701800612057 0 0.81249999999950517 0.1082531754733404 0 0.89658421694297741 0.1933620068391701 0 0.79891106056046712 0.25007334953587562 0 0.81249999999950517 0.1082531754733404 0 0.79891106056046712 0.25007334953587562 0 0.73983916756365475 0.17530677078674589 0 0.23533274979922561 0.77093399389351469 0 0.21809253452218619 0.65480892822618109 0 0.32607333794064219 0.67760114260606152 0 0.1082531754723032 0.6875000000007816 0 0.1371230538040123 0.56179824718362847 0 0.21809253452218619 0.65480892822618109 0 0.69851598570178741 0.68211701800612057 0 0.82212678063041267 0.67678595194836966 0 0.76243180583607129 0.78687675331113149 0 0.69010814643829166 0.89298495739101336 0 0.76243180583607129 0.78687675331113149 0 0.80886664387416207 0.89717308644237903 0 0.43750000000181222 0.89174682452709564 0 0.31258827852827581 0.89214793616708443 0 0.37776173212361452 0.78514649317305008 0 0.43750000000181222 0.89174682452709564 0 0.37500000000156292 1 0 0.31258827852827581 0.89214793616708443 0 0.121259140952891 0.43112117036853742 0 0 0.37500000000156292 0 0.1082531754734323 0.31250000000117473 0 0.50000000000206146 1 0 0.37500000000156292 1 0 0.43750000000181222 0.89174682452709564 0 0.31258827852827581 0.89214793616708443 0 0.18802967116092181 0.89415349436770275 0 0.23533274979922561 0.77093399389351469 0 0 0.50000000000206146 0 0 0.37500000000156292 0 0.121259140952891 0.43112117036853742 0 0.62844955668446423 0.7850749770380413 0 0.69010814643829166 0.89298495739101336 0 0.56327595140699671 0.89211526915426331 0 0.69010814643829166 0.89298495739101336 0 0.62500000000121547 1 0 0.56327595140699671 0.89211526915426331 0 0.25000000000104189 1 0 0.18802967116092181 0.89415349436770275 0 0.31258827852827581 0.89214793616708443 0 0.50000000000206146 1 0 0.43750000000181222 0.89174682452709564 0 0.56327595140699671 0.89211526915426331 0 0.56249999999885147 0.1082531754730395 0 0.62499999999901068 0 0 0.68749999999926592 0.1082531754732875 0 1 0.49999999999869221 0 1 0.62499999999901068 0 0.88927506082488361 0.56409486310635837 0 0 0.25000000000104189 0 0.12076953676380731 0.18690935762408761 0 0.1082531754734323 0.31250000000117473 0 0.49999999999869221 0 0 0.62499999999901068 0 0 0.56249999999885147 0.1082531754730395 0 0.62500000000121547 1 0 0.50000000000206146 1 0 0.56327595140699671 0.89211526915426331 0 0.37500000000156292 1 0 0.25000000000104189 1 0 0.31258827852827581 0.89214793616708443 0 0.31281086598417152 0.10449318608631281 0 0.37499999999904599 0 0 0.43749999999910871 0.1082531754729984 0 0.43750000000181222 0.89174682452709564 0 0.37776173212361452 0.78514649317305008 0 0.50046028868828263 0.78376912307435687 0 0 0.37500000000156292 0 0 0.25000000000104189 0 0.1082531754734323 0.31250000000117473 0 0.49999999999869221 0 0 0.56249999999885147 0.1082531754730395 0 0.43749999999910871 0.1082531754729984 0 0.43750000000181222 0.89174682452709564 0 0.50046028868828263 0.78376912307435687 0 0.56327595140699671 0.89211526915426331 0 0.74999999999934042 0 0 0.81249999999950517 0.1082531754733404 0 0.68749999999926592 0.1082531754732875 0 0.37499999999904599 0 0 0.49999999999869221 0 0 0.43749999999910871 0.1082531754729984 0 0.25000000000104189 1 0 0.12500000000052089 1 0 0.18802967116092181 0.89415349436770275 0 0.50046028868828263 0.78376912307435687 0 0.62844955668446423 0.7850749770380413 0 0.56327595140699671 0.89211526915426331 0 0.37776173212361452 0.78514649317305008 0 0.31258827852827581 0.89214793616708443 0 0.23533274979922561 0.77093399389351469 0 0.62499999999901068 0 0 0.74999999999934042 0 0 0.68749999999926592 0.1082531754732875 0 1 0.74999999999934042 0 1 0.87499999999967015 0 0.89051480781310632 0.79665793440246835 0 0 0.25000000000104189 0 0 0.12500000000052089 0 0.12076953676380731 0.18690935762408761 0 0.74999999999934042 0 0 0.87499999999967015 0 0 0.81249999999950517 0.1082531754733404 0 0.24999999999941069 0 0 0.37499999999904599 0 0 0.31281086598417152 0.10449318608631281 0 0.50046028868828263 0.78376912307435687 0 0.37776173212361452 0.78514649317305008 0 0.44078402250377968 0.67714785211715212 0 0.68768773896438518 0.4586835206367198 0 0.75000000000032374 0.56698729811007709 0 0.62752533658682441 0.56838075195614346 0 0.31411863959822661 0.24965544328045999 0 0.37953773393552892 0.34812185820708452 0 0.24418615484441761 0.35773612382016978 0 0.68768773896438518 0.4586835206367198 0 0.81242894672211508 0.45500248311961472 0 0.75000000000032374 0.56698729811007709 0 1 0.24999999999941069 0 1 0.37499999999904599 0 0.88173731489851925 0.33077402607778361 0 0 0.75000000000034761 0 0 0.62500000000121547 0 0.1082531754723032 0.6875000000007816 0 0.50048844149666749 0.56727788297625459 0 0.44078402250377968 0.67714785211715212 0 0.38694285807596462 0.5672991787102919 0 0.50108503093851109 0.35012252869403671 0 0.44301038174930041 0.45684931552185398 0 0.37953773393552892 0.34812185820708452 0 0.50046028868828263 0.78376912307435687 0 0.56496004948275869 0.67675037307860475 0 0.62844955668446423 0.7850749770380413 0 0.68768773896438518 0.4586835206367198 0 0.75000000000057243 0.35048094716480432 0 0.81242894672211508 0.45500248311961472 0 0.56349980387502452 0.45846841892908402 0 0.62512662990940393 0.35044303886909911 0 0.68768773896438518 0.4586835206367198 0 0.50048844149666749 0.56727788297625459 0 0.38694285807596462 0.5672991787102919 0 0.44301038174930041 0.45684931552185398 0 0.50046028868828263 0.78376912307435687 0 0.44078402250377968 0.67714785211715212 0 0.56496004948275869 0.67675037307860475 0 0.50108503093851109 0.35012252869403671 0 0.37953773393552892 0.34812185820708452 0 0.43750000000200551 0.24222777169198509 0 0.75000000000034761 1 0 0.62500000000121547 1 0 0.69010814643829166 0.89298495739101336 0 0.68768773896438518 0.4586835206367198 0 0.62512662990940393 0.35044303886909911 0 0.75000000000057243 0.35048094716480432 0 0.56496004948275869 0.67675037307860475 0 0.44078402250377968 0.67714785211715212 0 0.50048844149666749 0.56727788297625459 0 0.56349980387502452 0.45846841892908402 0 0.44301038174930041 0.45684931552185398 0 0.50108503093851109 0.35012252869403671 0 0.50048844149666749 0.56727788297625459 0 0.44301038174930041 0.45684931552185398 0 0.56349980387502452 0.45846841892908402 0 0.56349980387502452 0.45846841892908402 0 0.50108503093851109 0.35012252869403671 0 0.62512662990940393 0.35044303886909911 0 0.43750000000200551 0.24222777169198509 0 0.37953773393552892 0.34812185820708452 0 0.31411863959822661 0.24965544328045999 0 0.56496004948275869 0.67675037307860475 0 0.50048844149666749 0.56727788297625459 0 0.62752533658682441 0.56838075195614346 0 0.56349980387502452 0.45846841892908402 0 0.68768773896438518 0.4586835206367198 0 0.62752533658682441 0.56838075195614346 0 0.50048844149666749 0.56727788297625459 0 0.56349980387502452 0.45846841892908402 0 0.62752533658682441 0.56838075195614346 0 0.75000000000057243 0.35048094716480432 0 0.62512662990940393 0.35044303886909911 0 0.68668231842078242 0.24762892664808989 0 0.50108503093851109 0.35012252869403671 0 0.43750000000200551 0.24222777169198509 0 0.56250000000143974 0.2422277716920859 0 0.62512662990940393 0.35044303886909911 0 0.50108503093851109 0.35012252869403671 0 0.56250000000143974 0.2422277716920859 0 0.68668231842078242 0.24762892664808989 0 0.62512662990940393 0.35044303886909911 0 0.56250000000143974 0.2422277716920859 0 0.22257735880419699 0.47344721641341742 0 0.24418615484441761 0.35773612382016978 0 0.32815957677880009 0.4577243358118348 0 0.12076953676380731 0.18690935762408761 0 0.19185372118111221 0.092925648673580788 0 0.25103557339309318 0.17464499738446629 0 0.20767261601459541 0.25628918442207171 0 0.12076953676380731 0.18690935762408761 0 0.25103557339309318 0.17464499738446629 0 0 0.87499999999950151 0 0 0.75000000000034761 0 0.10409951422139101 0.81206782209691231 0 0.1249999999997731 0 0 0.24999999999941069 0 0 0.19185372118111221 0.092925648673580788 0 1 0.1249999999997731 0 1 0.24999999999941069 0 0.89658421694297741 0.1933620068391701 0 0.88927506082488361 0.56409486310635837 0 0.81242894672211508 0.45500248311961472 0 0.915464298762109 0.43749999999886913 0 0.87499999999950151 1 0 0.75000000000034761 1 0 0.80886664387416207 0.89717308644237903 0 0.75000000000034761 1 0 0.69010814643829166 0.89298495739101336 0 0.80886664387416207 0.89717308644237903 0 0.82212678063041267 0.67678595194836966 0 0.88927506082488361 0.56409486310635837 0 0.92266244547590082 0.68749999999917555 0 0 0.75000000000034761 0 0.1082531754723032 0.6875000000007816 0 0.10409951422139101 0.81206782209691231 0 0.24999999999941069 0 0 0.31281086598417152 0.10449318608631281 0 0.19185372118111221 0.092925648673580788 0 1 0.24999999999941069 0 0.88173731489851925 0.33077402607778361 0 0.89658421694297741 0.1933620068391701 0 0.32815957677880009 0.4577243358118348 0 0.38694285807596462 0.5672991787102919 0 0.26982811998763367 0.56544650815856912 0 0.76243180583607129 0.78687675331113149 0 0.89051480781310632 0.79665793440246835 0 0.80886664387416207 0.89717308644237903 0 0.38694285807596462 0.5672991787102919 0 0.44078402250377968 0.67714785211715212 0 0.32607333794064219 0.67760114260606152 0 0.37776173212361452 0.78514649317305008 0 0.23533274979922561 0.77093399389351469 0 0.32607333794064219 0.67760114260606152 0 1 0.49999999999869221 0 0.88927506082488361 0.56409486310635837 0 0.915464298762109 0.43749999999886913 0 0.88173731489851925 0.33077402607778361 0 1 0.37499999999904599 0 0.915464298762109 0.43749999999886913 0 0.24418615484441761 0.35773612382016978 0 0.37953773393552892 0.34812185820708452 0 0.32815957677880009 0.4577243358118348 0 0.44301038174930041 0.45684931552185398 0 0.38694285807596462 0.5672991787102919 0 0.32815957677880009 0.4577243358118348 0 0.88927506082488361 0.56409486310635837 0 1 0.62499999999901068 0 0.92266244547590082 0.68749999999917555 0 1 0.74999999999934042 0 0.89051480781310632 0.79665793440246835 0 0.92266244547590082 0.68749999999917555 0 0 1 0 0 0.87499999999950151 0 0.091506350946494744 0.90849364905351082 0 1 1 0 0.87499999999950151 1 0 0.90849364905363228 0.90849364905367769 0 0 0 0 0.1249999999997731 0 0 0.091506350946417708 0.091506350946618076 0 0 0.12500000000052089 0 0 0 0 0.091506350946417708 0.091506350946618076 0 1 0 0 1 0.1249999999997731 0 0.90849364905355434 0.091506350946296292 0 0.87499999999967015 0 0 1 0 0 0.90849364905355434 0.091506350946296292 0 0.12500000000052089 1 0 0 1 0 0.091506350946494744 0.90849364905351082 0 1 0.87499999999967015 0 1 1 0 0.90849364905363228 0.90849364905367769 0 0.38694285807596462 0.5672991787102919 0 0.32607333794064219 0.67760114260606152 0 0.26982811998763367 0.56544650815856912 0 0.31411863959822661 0.24965544328045999 0 0.24418615484441761 0.35773612382016978 0 0.20767261601459541 0.25628918442207171 0 0.1082531754734323 0.31250000000117473 0 0.12076953676380731 0.18690935762408761 0 0.20767261601459541 0.25628918442207171 0 0.75000000000057243 0.35048094716480432 0 0.68668231842078242 0.24762892664808989 0 0.79891106056046712 0.25007334953587562 0 0.22257735880419699 0.47344721641341742 0 0.32815957677880009 0.4577243358118348 0 0.26982811998763367 0.56544650815856912 0 0.44078402250377968 0.67714785211715212 0 0.37776173212361452 0.78514649317305008 0 0.32607333794064219 0.67760114260606152 0 0.89658421694297741 0.1933620068391701 0 0.88173731489851925 0.33077402607778361 0 0.79891106056046712 0.25007334953587562 0 1 0.37499999999904599 0 1 0.49999999999869221 0 0.915464298762109 0.43749999999886913 0 0.37953773393552892 0.34812185820708452 0 0.44301038174930041 0.45684931552185398 0 0.32815957677880009 0.4577243358118348 0 0.32607333794064219 0.67760114260606152 0 0.21809253452218619 0.65480892822618109 0 0.26982811998763367 0.56544650815856912 0 1 0.1249999999997731 0 0.89658421694297741 0.1933620068391701 0 0.90849364905355434 0.091506350946296292 0 0 0.87499999999950151 0 0.10409951422139101 0.81206782209691231 0 0.091506350946494744 0.90849364905351082 0 0.1249999999997731 0 0 0.19185372118111221 0.092925648673580788 0 0.091506350946417708 0.091506350946618076 0 1 0.62499999999901068 0 1 0.74999999999934042 0 0.92266244547590082 0.68749999999917555 0 0.18802967116092181 0.89415349436770275 0 0.12500000000052089 1 0 0.091506350946494744 0.90849364905351082 0 0.89051480781310632 0.79665793440246835 0 1 0.87499999999967015 0 0.90849364905363228 0.90849364905367769 0 0.12076953676380731 0.18690935762408761 0 0 0.12500000000052089 0 0.091506350946417708 0.091506350946618076 0 0.81249999999950517 0.1082531754733404 0 0.87499999999967015 0 0 0.90849364905355434 0.091506350946296292 0 0.87499999999950151 1 0 0.80886664387416207 0.89717308644237903 0 0.90849364905363228 0.90849364905367769 0 0.68668231842078242 0.24762892664808989 0 0.62499999999892575 0.17524047358135519 0 0.73983916756365475 0.17530677078674589 0 0.31281086598417152 0.10449318608631281 0 0.43749999999910871 0.1082531754729984 0 0.37500000000232431 0.17524047358384309 0 0.62499999999892575 0.17524047358135519 0 0.56250000000143974 0.2422277716920859 0 0.49999999999934441 0.1752404735815076 0 0.56249999999885147 0.1082531754730395 0 0.68749999999926592 0.1082531754732875 0 0.62499999999892575 0.17524047358135519 0 0.56249999999885147 0.1082531754730395 0 0.62499999999892575 0.17524047358135519 0 0.49999999999934441 0.1752404735815076 0 0.56250000000143974 0.2422277716920859 0 0.43750000000200551 0.24222777169198509 0 0.49999999999934441 0.1752404735815076 0 0.43749999999910871 0.1082531754729984 0 0.56249999999885147 0.1082531754730395 0 0.49999999999934441 0.1752404735815076 0 0.68668231842078242 0.24762892664808989 0 0.56250000000143974 0.2422277716920859 0 0.62499999999892575 0.17524047358135519 0 0.43750000000200551 0.24222777169198509 0 0.31411863959822661 0.24965544328045999 0 0.37500000000232431 0.17524047358384309 0 0.49999999999934441 0.1752404735815076 0 0.43750000000200551 0.24222777169198509 0 0.37500000000232431 0.17524047358384309 0 0.43749999999910871 0.1082531754729984 0 0.49999999999934441 0.1752404735815076 0 0.37500000000232431 0.17524047358384309 0 0.62499999999892575 0.17524047358135519 0 0.68749999999926592 0.1082531754732875 0 0.73983916756365475 0.17530677078674589 0 0.68749999999926592 0.1082531754732875 0 0.81249999999950517 0.1082531754733404 0 0.73983916756365475 0.17530677078674589 0 0.10409951422139101 0.81206782209691231 0 0.18802967116092181 0.89415349436770275 0 0.091506350946494744 0.90849364905351082 0 0.89658421694297741 0.1933620068391701 0 0.81249999999950517 0.1082531754733404 0 0.90849364905355434 0.091506350946296292 0 0.19185372118111221 0.092925648673580788 0 0.12076953676380731 0.18690935762408761 0 0.091506350946417708 0.091506350946618076 0 0.37500000000232431 0.17524047358384309 0 0.31411863959822661 0.24965544328045999 0 0.25103557339309318 0.17464499738446629 0 0.31281086598417152 0.10449318608631281 0 0.37500000000232431 0.17524047358384309 0 0.25103557339309318 0.17464499738446629 0 0.80886664387416207 0.89717308644237903 0 0.89051480781310632 0.79665793440246835 0 0.90849364905363228 0.90849364905367769 0 0.19185372118111221 0.092925648673580788 0 0.31281086598417152 0.10449318608631281 0 0.25103557339309318 0.17464499738446629 0 0.79891106056046712 0.25007334953587562 0 0.68668231842078242 0.24762892664808989 0 0.73983916756365475 0.17530677078674589 0 0.31411863959822661 0.24965544328045999 0 0.20767261601459541 0.25628918442207171 0 0.25103557339309318 0.17464499738446629 0 

        </DataArray>

      </Points>

      <Cells>

        <DataArray type="Int32" Name="connectivity" format="ascii">

0 1 2 3 4 5 6 7 8 9 10 11 12 13 14 15 16 17 18 19 20 21 22 23 24 25 26 27 28 29 30 31 32 33 34 35 36 37 38 39 40 41 42 43 44 45 46 47 48 49 50 51 52 53 54 55 56 57 58 59 60 61 62 63 64 65 66 67 68 69 70 71 72 73 74 75 76 77 78 79 80 81 82 83 84 85 86 87 88 89 90 91 92 93 94 95 96 97 98 99 100 101 102 103 104 105 106 107 108 109 110 111 112 113 114 115 116 117 118 119 120 121 122 123 124 125 126 127 128 129 130 131 132 133 134 135 136 137 138 139 140 141 142 143 144 145 146 147 148 149 150 151 152 153 154 155 156 157 158 159 160 161 162 163 164 165 166 167 168 169 170 171 172 173 174 175 176 177 178 179 180 181 182 183 184 185 186 187 188 189 190 191 192 193 194 195 196 197 198 199 200 201 202 203 204 205 206 207 208 209 210 211 212 213 214 215 216 217 218 219 220 221 222 223 224 225 226 227 228 229 230 231 232 233 234 235 236 237 238 239 240 241 242 243 244 245 246 247 248 249 250 251 252 253 254 255 256 257 258 259 260 261 262 263 264 265 266 267 268 269 270 271 272 273 274 275 276 277 278 279 280 281 282 283 284 285 286 287 288 289 290 291 292 293 294 295 296 297 298 299 300 301 302 303 304 305 306 307 308 309 310 311 312 313 314 315 316 317 318 319 320 321 322 323 324 325 326 327 328 329 330 331 332 333 334 335 336 337 338 339 340 341 342 343 344 345 346 347 348 349 350 351 352 353 354 355 356 357 358 359 360 361 362 363 364 365 366 367 368 369 370 371 372 373 374 375 376 377 378 379 380 381 382 383 384 385 386 387 388 389 390 391 392 393 394 395 396 397 398 399 400 401 402 403 404 405 406 407 408 409 410 411 412 413 414 415 416 417 418 419 420 421 422 423 424 425 426 427 428 429 430 431 432 433 434 435 436 437 438 439 440 441 442 443 444 445 446 447 448 449 450 451 452 453 454 455 456 457 458 459 460 461 462 463 464 465 466 467 468 469 470 471 472 473 474 475 476 477 478 479 480 481 482 483 484 485 

        </DataArray>

        <DataArray type="Int32" Name="offsets" format="ascii">

3 6 9 12 15 18 21 24 27 30 33 36 39 42 45 48 51 54 57 60 63 66 69 72 75 78 81 84 87 90 93 96 99 102 105 108 111 114 117 120 123 126 129 132 135 138 141 144 147 150 153 156 159 162 165 168 171 174 177 180 183 186 189 192 195 198 201 204 207 210 213 216 219 222 225 228 231 234 237 240 243 246 249 252 255 258 261 264 267 270 273 276 279 282 285 288 291 294 297 300 303 306 309 312 315 318 321 324 327 330 333 336 339 342 345 348 351 354 357 360 363 366 369 372 375 378 381 384 387 390 393 396 399 402 405 408 411 414 417 420 423 426 429 432 435 438 441 444 447 450 453 456 459 462 465 468 471 474 477 480 483 486 

        </DataArray>

        <DataArray type="Int32" Name="types" format="ascii">

5 5 5 5 5 5 5 5 5 5 5 5 5 5 5 5 5 5 5 5 5 5 5 5 5 5 5 5 5 5 5 5 5 5 5 5 5 5 5 5 5 5 5 5 5 5 5 5 5 5 5 5 5 5 5 5 5 5 5 5 5 5 5 5 5 5 5 5 5 5 5 5 5 5 5 5 5 5 5 5 5 5 5 5 5 5 5 5 5 5 5 5 5 5 5 5 5 5 5 5 5 5 5 5 5 5 5 5 5 5 5 5 5 5 5 5 5 5 5 5 5 5 5 5 5 5 5 5 5 5 5 5 5 5 5 5 5 5 5 5 5 5 5 5 5 5 5 5 5 5 5 5 5 5 5 5 5 5 5 5 5 5 

        </DataArray>

      </Cells>

    </Piece>

  </UnstructuredGrid>

</VTKFile>

