<?xml version="1.0"?>

<VTKFile type="UnstructuredGrid" version="0.1">

  <UnstructuredGrid>

    <Piece NumberOfPoints="486" NumberOfCells="162">

      <PointData>

        <DataArray type="Float64" Name="K" format="ascii">

1.07584571609875534e+00
1.07584571609875534e+00
1.07584571609875534e+00
1.08085095115375962e+00
1.08085095115375962e+00
1.08085095115375962e+00
9.96583930867608436e-01
9.96583930867608436e-01
9.96583930867608436e-01
9.80181577602838860e-01
9.80181577602838860e-01
9.80181577602838860e-01
1.02063309260582313e+00
1.02063309260582313e+00
1.02063309260582313e+00
9.61857111563185763e-01
9.61857111563185763e-01
9.61857111563185763e-01
1.02549537618281605e+00
1.02549537618281605e+00
1.02549537618281605e+00
9.69487976909924276e-01
9.69487976909924276e-01
9.69487976909924276e-01
9.62692108997844187e-01
9.62692108997844187e-01
9.62692108997844187e-01
9.71853131392429015e-01
9.71853131392429015e-01
9.71853131392429015e-01
1.00801388699240579e+00
1.00801388699240579e+00
1.00801388699240579e+00
1.05312041947460111e+00
1.05312041947460111e+00
1.05312041947460111e+00
9.54535105163123454e-01
9.54535105163123454e-01
9.54535105163123454e-01
9.53423274668119713e-01
9.53423274668119713e-01
9.53423274668119713e-01
9.99714052159667688e-01
9.99714052159667688e-01
9.99714052159667688e-01
9.71424815064837244e-01
9.71424815064837244e-01
9.71424815064837244e-01
1.06541622641651745e+00
1.06541622641651745e+00
1.06541622641651745e+00
1.02832185313957969e+00
1.02832185313957969e+00
1.02832185313957969e+00
9.94279845334348433e-01
9.94279845334348433e-01
9.94279845334348433e-01
9.75181791681397070e-01
9.75181791681397070e-01
9.75181791681397070e-01
1.05778304744238416e+00
1.05778304744238416e+00
1.05778304744238416e+00
1.07287615178691986e+00
1.07287615178691986e+00
1.07287615178691986e+00
1.00175051424461281e+00
1.00175051424461281e+00
1.00175051424461281e+00
1.00517974521420772e+00
1.00517974521420772e+00
1.00517974521420772e+00
9.69686708946164821e-01
9.69686708946164821e-01
9.69686708946164821e-01
1.05556460302121402e+00
1.05556460302121402e+00
1.05556460302121402e+00
1.04939625995840902e+00
1.04939625995840902e+00
1.04939625995840902e+00
1.08540388427224688e+00
1.08540388427224688e+00
1.08540388427224688e+00
1.06917987980946094e+00
1.06917987980946094e+00
1.06917987980946094e+00
9.69648067474284558e-01
9.69648067474284558e-01
9.69648067474284558e-01
9.69058390705293760e-01
9.69058390705293760e-01
9.69058390705293760e-01
1.00613137843776057e+00
1.00613137843776057e+00
1.00613137843776057e+00
9.91008881754182780e-01
9.91008881754182780e-01
9.91008881754182780e-01
9.75845227535106718e-01
9.75845227535106718e-01
9.75845227535106718e-01
9.46379593929840390e-01
9.46379593929840390e-01
9.46379593929840390e-01
1.05777385675991709e+00
1.05777385675991709e+00
1.05777385675991709e+00
9.86334960633717284e-01
9.86334960633717284e-01
9.86334960633717284e-01
9.36034958929755301e-01
9.36034958929755301e-01
9.36034958929755301e-01
9.28303780582424798e-01
9.28303780582424798e-01
9.28303780582424798e-01
1.03687037710615626e+00
1.03687037710615626e+00
1.03687037710615626e+00
9.12023352688710376e-01
9.12023352688710376e-01
9.12023352688710376e-01
1.04705590503260648e+00
1.04705590503260648e+00
1.04705590503260648e+00
9.36897150166985826e-01
9.36897150166985826e-01
9.36897150166985826e-01
9.76901463760856403e-01
9.76901463760856403e-01
9.76901463760856403e-01
1.05858816507721309e+00
1.05858816507721309e+00
1.05858816507721309e+00
9.09057137929380588e-01
9.09057137929380588e-01
9.09057137929380588e-01
1.01715132716455736e+00
1.01715132716455736e+00
1.01715132716455736e+00
1.03009118730969385e+00
1.03009118730969385e+00
1.03009118730969385e+00
9.68223604894056011e-01
9.68223604894056011e-01
9.68223604894056011e-01
9.73806080392506379e-01
9.73806080392506379e-01
9.73806080392506379e-01
1.05862529802596805e+00
1.05862529802596805e+00
1.05862529802596805e+00
9.21893136544433944e-01
9.21893136544433944e-01
9.21893136544433944e-01
1.05072772146952986e+00
1.05072772146952986e+00
1.05072772146952986e+00
1.04712602804198895e+00
1.04712602804198895e+00
1.04712602804198895e+00
1.03356186977726616e+00
1.03356186977726616e+00
1.03356186977726616e+00
9.26410517323405625e-01
9.26410517323405625e-01
9.26410517323405625e-01
1.05578450344305996e+00
1.05578450344305996e+00
1.05578450344305996e+00
1.03611192909102101e+00
1.03611192909102101e+00
1.03611192909102101e+00
1.02026035630021039e+00
1.02026035630021039e+00
1.02026035630021039e+00
9.76419642244424790e-01
9.76419642244424790e-01
9.76419642244424790e-01
1.07489067572123131e+00
1.07489067572123131e+00
1.07489067572123131e+00
1.03258342335211628e+00
1.03258342335211628e+00
1.03258342335211628e+00
9.92634635165701718e-01
9.92634635165701718e-01
9.92634635165701718e-01
1.00829668937577033e+00
1.00829668937577033e+00
1.00829668937577033e+00
1.00662367421349863e+00
1.00662367421349863e+00
1.00662367421349863e+00
9.80922824560731543e-01
9.80922824560731543e-01
9.80922824560731543e-01
9.72174881234520560e-01
9.72174881234520560e-01
9.72174881234520560e-01
1.06512865465277495e+00
1.06512865465277495e+00
1.06512865465277495e+00
1.02377032200914986e+00
1.02377032200914986e+00
1.02377032200914986e+00
1.00351256017351886e+00
1.00351256017351886e+00
1.00351256017351886e+00
9.54579320387211938e-01
9.54579320387211938e-01
9.54579320387211938e-01
9.92484453284344759e-01
9.92484453284344759e-01
9.92484453284344759e-01
1.04698943593637717e+00
1.04698943593637717e+00
1.04698943593637717e+00
1.02215043343782219e+00
1.02215043343782219e+00
1.02215043343782219e+00
9.77558520196446401e-01
9.77558520196446401e-01
9.77558520196446401e-01
1.00149670316197503e+00
1.00149670316197503e+00
1.00149670316197503e+00
9.51867684757191856e-01
9.51867684757191856e-01
9.51867684757191856e-01
1.02896841104399051e+00
1.02896841104399051e+00
1.02896841104399051e+00
1.00534838568653284e+00
1.00534838568653284e+00
1.00534838568653284e+00
1.02496675924404834e+00
1.02496675924404834e+00
1.02496675924404834e+00
1.02754198959542831e+00
1.02754198959542831e+00
1.02754198959542831e+00
1.04474103782899896e+00
1.04474103782899896e+00
1.04474103782899896e+00
9.97793895638023232e-01
9.97793895638023232e-01
9.97793895638023232e-01
1.01621471263824237e+00
1.01621471263824237e+00
1.01621471263824237e+00
1.03874422154477264e+00
1.03874422154477264e+00
1.03874422154477264e+00
1.03559200710175703e+00
1.03559200710175703e+00
1.03559200710175703e+00
1.03594982921317347e+00
1.03594982921317347e+00
1.03594982921317347e+00
1.02437207394352936e+00
1.02437207394352936e+00
1.02437207394352936e+00
1.04380012087150198e+00
1.04380012087150198e+00
1.04380012087150198e+00
1.04919085709044069e+00
1.04919085709044069e+00
1.04919085709044069e+00
1.03292528431237507e+00
1.03292528431237507e+00
1.03292528431237507e+00
1.02484886750297699e+00
1.02484886750297699e+00
1.02484886750297699e+00
1.01365101161630555e+00
1.01365101161630555e+00
1.01365101161630555e+00
1.07978833250311923e+00
1.07978833250311923e+00
1.07978833250311923e+00
1.04732685521546487e+00
1.04732685521546487e+00
1.04732685521546487e+00
1.03594773995430312e+00
1.03594773995430312e+00
1.03594773995430312e+00
9.47558506630067021e-01
9.47558506630067021e-01
9.47558506630067021e-01
9.71851525378487180e-01
9.71851525378487180e-01
9.71851525378487180e-01
9.66338018325533565e-01
9.66338018325533565e-01
9.66338018325533565e-01
9.57653445424487604e-01
9.57653445424487604e-01
9.57653445424487604e-01
1.07787484935006628e+00
1.07787484935006628e+00
1.07787484935006628e+00
1.04034721505365790e+00
1.04034721505365790e+00
1.04034721505365790e+00
1.01317995136296690e+00
1.01317995136296690e+00
1.01317995136296690e+00
1.04964986095342749e+00
1.04964986095342749e+00
1.04964986095342749e+00
9.74027683393628663e-01
9.74027683393628663e-01
9.74027683393628663e-01
1.04532576642262565e+00
1.04532576642262565e+00
1.04532576642262565e+00
1.07037225081224463e+00
1.07037225081224463e+00
1.07037225081224463e+00
9.37318192352635804e-01
9.37318192352635804e-01
9.37318192352635804e-01
9.57354875446556952e-01
9.57354875446556952e-01
9.57354875446556952e-01
1.01515674698641489e+00
1.01515674698641489e+00
1.01515674698641489e+00
1.02352430942688621e+00
1.02352430942688621e+00
1.02352430942688621e+00
9.55911516971886255e-01
9.55911516971886255e-01
9.55911516971886255e-01
9.92433080473919982e-01
9.92433080473919982e-01
9.92433080473919982e-01
1.06588488274411808e+00
1.06588488274411808e+00
1.06588488274411808e+00
1.01093465882301325e+00
1.01093465882301325e+00
1.01093465882301325e+00
9.92741949026969550e-01
9.92741949026969550e-01
9.92741949026969550e-01
9.68916332208220155e-01
9.68916332208220155e-01
9.68916332208220155e-01
1.08114551689394101e+00
1.08114551689394101e+00
1.08114551689394101e+00
1.09593851505415252e+00
1.09593851505415252e+00
1.09593851505415252e+00
1.05255828919610983e+00
1.05255828919610983e+00
1.05255828919610983e+00
1.03834926747411171e+00
1.03834926747411171e+00
1.03834926747411171e+00
1.06598129110565032e+00
1.06598129110565032e+00
1.06598129110565032e+00
1.01121309343113785e+00
1.01121309343113785e+00
1.01121309343113785e+00
9.93830724463149795e-01
9.93830724463149795e-01
9.93830724463149795e-01
1.02490873420670026e+00
1.02490873420670026e+00
1.02490873420670026e+00
1.05235179266261847e+00
1.05235179266261847e+00
1.05235179266261847e+00
1.04033060485319373e+00
1.04033060485319373e+00
1.04033060485319373e+00
1.02378123365330365e+00
1.02378123365330365e+00
1.02378123365330365e+00
9.29426703837228030e-01
9.29426703837228030e-01
9.29426703837228030e-01
1.00753982776810158e+00
1.00753982776810158e+00
1.00753982776810158e+00
1.08253807902975208e+00
1.08253807902975208e+00
1.08253807902975208e+00
1.06913237969139963e+00
1.06913237969139963e+00
1.06913237969139963e+00
1.07298144824696551e+00
1.07298144824696551e+00
1.07298144824696551e+00
1.02906737200926601e+00
1.02906737200926601e+00
1.02906737200926601e+00
9.77832388958184473e-01
9.77832388958184473e-01
9.77832388958184473e-01
1.04680576982018181e+00
1.04680576982018181e+00
1.04680576982018181e+00
1.01550743262110088e+00
1.01550743262110088e+00
1.01550743262110088e+00
9.88791876128892189e-01
9.88791876128892189e-01
9.88791876128892189e-01
1.09070955029076244e+00
1.09070955029076244e+00
1.09070955029076244e+00
9.84869390597493677e-01
9.84869390597493677e-01
9.84869390597493677e-01
1.04279051910635134e+00
1.04279051910635134e+00
1.04279051910635134e+00
1.02127791583232996e+00
1.02127791583232996e+00
1.02127791583232996e+00
1.04918742776525620e+00
1.04918742776525620e+00
1.04918742776525620e+00
1.04885813646576675e+00
1.04885813646576675e+00
1.04885813646576675e+00
1.05344223727634456e+00
1.05344223727634456e+00
1.05344223727634456e+00
1.03239759161899092e+00
1.03239759161899092e+00
1.03239759161899092e+00
1.04987937852914115e+00
1.04987937852914115e+00
1.04987937852914115e+00
1.04897069662382458e+00
1.04897069662382458e+00
1.04897069662382458e+00
1.00435000736599678e+00
1.00435000736599678e+00
1.00435000736599678e+00
1.01837168399901357e+00
1.01837168399901357e+00
1.01837168399901357e+00
1.02869823215792611e+00
1.02869823215792611e+00
1.02869823215792611e+00
1.04310859667316369e+00
1.04310859667316369e+00
1.04310859667316369e+00
1.04879516685676211e+00
1.04879516685676211e+00
1.04879516685676211e+00
1.06069770279863662e+00
1.06069770279863662e+00
1.06069770279863662e+00
1.07742952017562188e+00
1.07742952017562188e+00
1.07742952017562188e+00
1.01754936244135008e+00
1.01754936244135008e+00
1.01754936244135008e+00
1.01130667881836511e+00
1.01130667881836511e+00
1.01130667881836511e+00
1.01846665628818522e+00
1.01846665628818522e+00
1.01846665628818522e+00
9.86824604551561846e-01
9.86824604551561846e-01
9.86824604551561846e-01
1.03096647826893406e+00
1.03096647826893406e+00
1.03096647826893406e+00
1.03686189517305505e+00
1.03686189517305505e+00
1.03686189517305505e+00
1.01411019108764444e+00
1.01411019108764444e+00
1.01411019108764444e+00


        </DataArray>

      </PointData>

      <CellData/>

      <Points>

        <DataArray type="Float64" NumberOfComponents="3" format="ascii">

0.1082531754723032 0.6875000000007816 0 0.23533274979922561 0.77093399389351469 0 0.10409951422139101 0.81206782209691231 0 0.23533274979922561 0.77093399389351469 0 0.1082531754723032 0.6875000000007816 0 0.21809253452218619 0.65480892822618109 0 0.24418615484441761 0.35773612382016978 0 0.121259140952891 0.43112117036853742 0 0.1082531754734323 0.31250000000117473 0 0.75000000000057243 0.35048094716480432 0 0.88173731489851925 0.33077402607778361 0 0.81242894672211508 0.45500248311961472 0 0.121259140952891 0.43112117036853742 0 0.24418615484441761 0.35773612382016978 0 0.22257735880419699 0.47344721641341742 0 0.81242894672211508 0.45500248311961472 0 0.88173731489851925 0.33077402607778361 0 0.915464298762109 0.43749999999886913 0 0 0.62500000000121547 0 0 0.50000000000206146 0 0.1371230538040123 0.56179824718362847 0 0.82212678063041267 0.67678595194836966 0 0.89051480781310632 0.79665793440246835 0 0.76243180583607129 0.78687675331113149 0 0.76243180583607129 0.78687675331113149 0 0.69010814643829166 0.89298495739101336 0 0.62844955668446423 0.7850749770380413 0 0.89051480781310632 0.79665793440246835 0 0.82212678063041267 0.67678595194836966 0 0.92266244547590082 0.68749999999917555 0 0 0.50000000000206146 0 0.121259140952891 0.43112117036853742 0 0.1371230538040123 0.56179824718362847 0 0.1082531754723032 0.6875000000007816 0 0 0.62500000000121547 0 0.1371230538040123 0.56179824718362847 0 0.75000000000032374 0.56698729811007709 0 0.88927506082488361 0.56409486310635837 0 0.82212678063041267 0.67678595194836966 0 0.81242894672211508 0.45500248311961472 0 0.88927506082488361 0.56409486310635837 0 0.75000000000032374 0.56698729811007709 0 0.69851598570178741 0.68211701800612057 0 0.56496004948275869 0.67675037307860475 0 0.62752533658682441 0.56838075195614346 0 0.69851598570178741 0.68211701800612057 0 0.76243180583607129 0.78687675331113149 0 0.62844955668446423 0.7850749770380413 0 0.23533274979922561 0.77093399389351469 0 0.18802967116092181 0.89415349436770275 0 0.10409951422139101 0.81206782209691231 0 0.121259140952891 0.43112117036853742 0 0.22257735880419699 0.47344721641341742 0 0.1371230538040123 0.56179824718362847 0 0.75000000000032374 0.56698729811007709 0 0.69851598570178741 0.68211701800612057 0 0.62752533658682441 0.56838075195614346 0 0.56496004948275869 0.67675037307860475 0 0.69851598570178741 0.68211701800612057 0 0.62844955668446423 0.7850749770380413 0 0.1371230538040123 0.56179824718362847 0 0.22257735880419699 0.47344721641341742 0 0.26982811998763367 0.56544650815856912 0 0.21809253452218619 0.65480892822618109 0 0.1371230538040123 0.56179824718362847 0 0.26982811998763367 0.56544650815856912 0 0.24418615484441761 0.35773612382016978 0 0.1082531754734323 0.31250000000117473 0 0.20767261601459541 0.25628918442207171 0 0.88173731489851925 0.33077402607778361 0 0.75000000000057243 0.35048094716480432 0 0.79891106056046712 0.25007334953587562 0 0.75000000000032374 0.56698729811007709 0 0.82212678063041267 0.67678595194836966 0 0.69851598570178741 0.68211701800612057 0 0.81249999999950517 0.1082531754733404 0 0.89658421694297741 0.1933620068391701 0 0.79891106056046712 0.25007334953587562 0 0.81249999999950517 0.1082531754733404 0 0.79891106056046712 0.25007334953587562 0 0.73983916756365475 0.17530677078674589 0 0.23533274979922561 0.77093399389351469 0 0.21809253452218619 0.65480892822618109 0 0.32607333794064219 0.67760114260606152 0 0.1082531754723032 0.6875000000007816 0 0.1371230538040123 0.56179824718362847 0 0.21809253452218619 0.65480892822618109 0 0.69851598570178741 0.68211701800612057 0 0.82212678063041267 0.67678595194836966 0 0.76243180583607129 0.78687675331113149 0 0.69010814643829166 0.89298495739101336 0 0.76243180583607129 0.78687675331113149 0 0.80886664387416207 0.89717308644237903 0 0.43750000000181222 0.89174682452709564 0 0.31258827852827581 0.89214793616708443 0 0.37776173212361452 0.78514649317305008 0 0.43750000000181222 0.89174682452709564 0 0.37500000000156292 1 0 0.31258827852827581 0.89214793616708443 0 0.121259140952891 0.43112117036853742 0 0 0.37500000000156292 0 0.1082531754734323 0.31250000000117473 0 0.50000000000206146 1 0 0.37500000000156292 1 0 0.43750000000181222 0.89174682452709564 0 0.31258827852827581 0.89214793616708443 0 0.18802967116092181 0.89415349436770275 0 0.23533274979922561 0.77093399389351469 0 0 0.50000000000206146 0 0 0.37500000000156292 0 0.121259140952891 0.43112117036853742 0 0.62844955668446423 0.7850749770380413 0 0.69010814643829166 0.89298495739101336 0 0.56327595140699671 0.89211526915426331 0 0.69010814643829166 0.89298495739101336 0 0.62500000000121547 1 0 0.56327595140699671 0.89211526915426331 0 0.25000000000104189 1 0 0.18802967116092181 0.89415349436770275 0 0.31258827852827581 0.89214793616708443 0 0.50000000000206146 1 0 0.43750000000181222 0.89174682452709564 0 0.56327595140699671 0.89211526915426331 0 0.56249999999885147 0.1082531754730395 0 0.62499999999901068 0 0 0.68749999999926592 0.1082531754732875 0 1 0.49999999999869221 0 1 0.62499999999901068 0 0.88927506082488361 0.56409486310635837 0 0 0.25000000000104189 0 0.12076953676380731 0.18690935762408761 0 0.1082531754734323 0.31250000000117473 0 0.49999999999869221 0 0 0.62499999999901068 0 0 0.56249999999885147 0.1082531754730395 0 0.62500000000121547 1 0 0.50000000000206146 1 0 0.56327595140699671 0.89211526915426331 0 0.37500000000156292 1 0 0.25000000000104189 1 0 0.31258827852827581 0.89214793616708443 0 0.31281086598417152 0.10449318608631281 0 0.37499999999904599 0 0 0.43749999999910871 0.1082531754729984 0 0.43750000000181222 0.89174682452709564 0 0.37776173212361452 0.78514649317305008 0 0.50046028868828263 0.78376912307435687 0 0 0.37500000000156292 0 0 0.25000000000104189 0 0.1082531754734323 0.31250000000117473 0 0.49999999999869221 0 0 0.56249999999885147 0.1082531754730395 0 0.43749999999910871 0.1082531754729984 0 0.43750000000181222 0.89174682452709564 0 0.50046028868828263 0.78376912307435687 0 0.56327595140699671 0.89211526915426331 0 0.74999999999934042 0 0 0.81249999999950517 0.1082531754733404 0 0.68749999999926592 0.1082531754732875 0 0.37499999999904599 0 0 0.49999999999869221 0 0 0.43749999999910871 0.1082531754729984 0 0.25000000000104189 1 0 0.12500000000052089 1 0 0.18802967116092181 0.89415349436770275 0 0.50046028868828263 0.78376912307435687 0 0.62844955668446423 0.7850749770380413 0 0.56327595140699671 0.89211526915426331 0 0.37776173212361452 0.78514649317305008 0 0.31258827852827581 0.89214793616708443 0 0.23533274979922561 0.77093399389351469 0 0.62499999999901068 0 0 0.74999999999934042 0 0 0.68749999999926592 0.1082531754732875 0 1 0.74999999999934042 0 1 0.87499999999967015 0 0.89051480781310632 0.79665793440246835 0 0 0.25000000000104189 0 0 0.12500000000052089 0 0.12076953676380731 0.18690935762408761 0 0.74999999999934042 0 0 0.87499999999967015 0 0 0.81249999999950517 0.1082531754733404 0 0.24999999999941069 0 0 0.37499999999904599 0 0 0.31281086598417152 0.10449318608631281 0 0.50046028868828263 0.78376912307435687 0 0.37776173212361452 0.78514649317305008 0 0.44078402250377968 0.67714785211715212 0 0.68768773896438518 0.4586835206367198 0 0.75000000000032374 0.56698729811007709 0 0.62752533658682441 0.56838075195614346 0 0.31411863959822661 0.24965544328045999 0 0.37953773393552892 0.34812185820708452 0 0.24418615484441761 0.35773612382016978 0 0.68768773896438518 0.4586835206367198 0 0.81242894672211508 0.45500248311961472 0 0.75000000000032374 0.56698729811007709 0 1 0.24999999999941069 0 1 0.37499999999904599 0 0.88173731489851925 0.33077402607778361 0 0 0.75000000000034761 0 0 0.62500000000121547 0 0.1082531754723032 0.6875000000007816 0 0.50048844149666749 0.56727788297625459 0 0.44078402250377968 0.67714785211715212 0 0.38694285807596462 0.5672991787102919 0 0.50108503093851109 0.35012252869403671 0 0.44301038174930041 0.45684931552185398 0 0.37953773393552892 0.34812185820708452 0 0.50046028868828263 0.78376912307435687 0 0.56496004948275869 0.67675037307860475 0 0.62844955668446423 0.7850749770380413 0 0.68768773896438518 0.4586835206367198 0 0.75000000000057243 0.35048094716480432 0 0.81242894672211508 0.45500248311961472 0 0.56349980387502452 0.45846841892908402 0 0.62512662990940393 0.35044303886909911 0 0.68768773896438518 0.4586835206367198 0 0.50048844149666749 0.56727788297625459 0 0.38694285807596462 0.5672991787102919 0 0.44301038174930041 0.45684931552185398 0 0.50046028868828263 0.78376912307435687 0 0.44078402250377968 0.67714785211715212 0 0.56496004948275869 0.67675037307860475 0 0.50108503093851109 0.35012252869403671 0 0.37953773393552892 0.34812185820708452 0 0.43750000000200551 0.24222777169198509 0 0.75000000000034761 1 0 0.62500000000121547 1 0 0.69010814643829166 0.89298495739101336 0 0.68768773896438518 0.4586835206367198 0 0.62512662990940393 0.35044303886909911 0 0.75000000000057243 0.35048094716480432 0 0.56496004948275869 0.67675037307860475 0 0.44078402250377968 0.67714785211715212 0 0.50048844149666749 0.56727788297625459 0 0.56349980387502452 0.45846841892908402 0 0.44301038174930041 0.45684931552185398 0 0.50108503093851109 0.35012252869403671 0 0.50048844149666749 0.56727788297625459 0 0.44301038174930041 0.45684931552185398 0 0.56349980387502452 0.45846841892908402 0 0.56349980387502452 0.45846841892908402 0 0.50108503093851109 0.35012252869403671 0 0.62512662990940393 0.35044303886909911 0 0.43750000000200551 0.24222777169198509 0 0.37953773393552892 0.34812185820708452 0 0.31411863959822661 0.24965544328045999 0 0.56496004948275869 0.67675037307860475 0 0.50048844149666749 0.56727788297625459 0 0.62752533658682441 0.56838075195614346 0 0.56349980387502452 0.45846841892908402 0 0.68768773896438518 0.4586835206367198 0 0.62752533658682441 0.56838075195614346 0 0.50048844149666749 0.56727788297625459 0 0.56349980387502452 0.45846841892908402 0 0.62752533658682441 0.56838075195614346 0 0.75000000000057243 0.35048094716480432 0 0.62512662990940393 0.35044303886909911 0 0.68668231842078242 0.24762892664808989 0 0.50108503093851109 0.35012252869403671 0 0.43750000000200551 0.24222777169198509 0 0.56250000000143974 0.2422277716920859 0 0.62512662990940393 0.35044303886909911 0 0.50108503093851109 0.35012252869403671 0 0.56250000000143974 0.2422277716920859 0 0.68668231842078242 0.24762892664808989 0 0.62512662990940393 0.35044303886909911 0 0.56250000000143974 0.2422277716920859 0 0.22257735880419699 0.47344721641341742 0 0.24418615484441761 0.35773612382016978 0 0.32815957677880009 0.4577243358118348 0 0.12076953676380731 0.18690935762408761 0 0.19185372118111221 0.092925648673580788 0 0.25103557339309318 0.17464499738446629 0 0.20767261601459541 0.25628918442207171 0 0.12076953676380731 0.18690935762408761 0 0.25103557339309318 0.17464499738446629 0 0 0.87499999999950151 0 0 0.75000000000034761 0 0.10409951422139101 0.81206782209691231 0 0.1249999999997731 0 0 0.24999999999941069 0 0 0.19185372118111221 0.092925648673580788 0 1 0.1249999999997731 0 1 0.24999999999941069 0 0.89658421694297741 0.1933620068391701 0 0.88927506082488361 0.56409486310635837 0 0.81242894672211508 0.45500248311961472 0 0.915464298762109 0.43749999999886913 0 0.87499999999950151 1 0 0.75000000000034761 1 0 0.80886664387416207 0.89717308644237903 0 0.75000000000034761 1 0 0.69010814643829166 0.89298495739101336 0 0.80886664387416207 0.89717308644237903 0 0.82212678063041267 0.67678595194836966 0 0.88927506082488361 0.56409486310635837 0 0.92266244547590082 0.68749999999917555 0 0 0.75000000000034761 0 0.1082531754723032 0.6875000000007816 0 0.10409951422139101 0.81206782209691231 0 0.24999999999941069 0 0 0.31281086598417152 0.10449318608631281 0 0.19185372118111221 0.092925648673580788 0 1 0.24999999999941069 0 0.88173731489851925 0.33077402607778361 0 0.89658421694297741 0.1933620068391701 0 0.32815957677880009 0.4577243358118348 0 0.38694285807596462 0.5672991787102919 0 0.26982811998763367 0.56544650815856912 0 0.76243180583607129 0.78687675331113149 0 0.89051480781310632 0.79665793440246835 0 0.80886664387416207 0.89717308644237903 0 0.38694285807596462 0.5672991787102919 0 0.44078402250377968 0.67714785211715212 0 0.32607333794064219 0.67760114260606152 0 0.37776173212361452 0.78514649317305008 0 0.23533274979922561 0.77093399389351469 0 0.32607333794064219 0.67760114260606152 0 1 0.49999999999869221 0 0.88927506082488361 0.56409486310635837 0 0.915464298762109 0.43749999999886913 0 0.88173731489851925 0.33077402607778361 0 1 0.37499999999904599 0 0.915464298762109 0.43749999999886913 0 0.24418615484441761 0.35773612382016978 0 0.37953773393552892 0.34812185820708452 0 0.32815957677880009 0.4577243358118348 0 0.44301038174930041 0.45684931552185398 0 0.38694285807596462 0.5672991787102919 0 0.32815957677880009 0.4577243358118348 0 0.88927506082488361 0.56409486310635837 0 1 0.62499999999901068 0 0.92266244547590082 0.68749999999917555 0 1 0.74999999999934042 0 0.89051480781310632 0.79665793440246835 0 0.92266244547590082 0.68749999999917555 0 0 1 0 0 0.87499999999950151 0 0.091506350946494744 0.90849364905351082 0 1 1 0 0.87499999999950151 1 0 0.90849364905363228 0.90849364905367769 0 0 0 0 0.1249999999997731 0 0 0.091506350946417708 0.091506350946618076 0 0 0.12500000000052089 0 0 0 0 0.091506350946417708 0.091506350946618076 0 1 0 0 1 0.1249999999997731 0 0.90849364905355434 0.091506350946296292 0 0.87499999999967015 0 0 1 0 0 0.90849364905355434 0.091506350946296292 0 0.12500000000052089 1 0 0 1 0 0.091506350946494744 0.90849364905351082 0 1 0.87499999999967015 0 1 1 0 0.90849364905363228 0.90849364905367769 0 0.38694285807596462 0.5672991787102919 0 0.32607333794064219 0.67760114260606152 0 0.26982811998763367 0.56544650815856912 0 0.31411863959822661 0.24965544328045999 0 0.24418615484441761 0.35773612382016978 0 0.20767261601459541 0.25628918442207171 0 0.1082531754734323 0.31250000000117473 0 0.12076953676380731 0.18690935762408761 0 0.20767261601459541 0.25628918442207171 0 0.75000000000057243 0.35048094716480432 0 0.68668231842078242 0.24762892664808989 0 0.79891106056046712 0.25007334953587562 0 0.22257735880419699 0.47344721641341742 0 0.32815957677880009 0.4577243358118348 0 0.26982811998763367 0.56544650815856912 0 0.44078402250377968 0.67714785211715212 0 0.37776173212361452 0.78514649317305008 0 0.32607333794064219 0.67760114260606152 0 0.89658421694297741 0.1933620068391701 0 0.88173731489851925 0.33077402607778361 0 0.79891106056046712 0.25007334953587562 0 1 0.37499999999904599 0 1 0.49999999999869221 0 0.915464298762109 0.43749999999886913 0 0.37953773393552892 0.34812185820708452 0 0.44301038174930041 0.45684931552185398 0 0.32815957677880009 0.4577243358118348 0 0.32607333794064219 0.67760114260606152 0 0.21809253452218619 0.65480892822618109 0 0.26982811998763367 0.56544650815856912 0 1 0.1249999999997731 0 0.89658421694297741 0.1933620068391701 0 0.90849364905355434 0.091506350946296292 0 0 0.87499999999950151 0 0.10409951422139101 0.81206782209691231 0 0.091506350946494744 0.90849364905351082 0 0.1249999999997731 0 0 0.19185372118111221 0.092925648673580788 0 0.091506350946417708 0.091506350946618076 0 1 0.62499999999901068 0 1 0.74999999999934042 0 0.92266244547590082 0.68749999999917555 0 0.18802967116092181 0.89415349436770275 0 0.12500000000052089 1 0 0.091506350946494744 0.90849364905351082 0 0.89051480781310632 0.79665793440246835 0 1 0.87499999999967015 0 0.90849364905363228 0.90849364905367769 0 0.12076953676380731 0.18690935762408761 0 0 0.12500000000052089 0 0.091506350946417708 0.091506350946618076 0 0.81249999999950517 0.1082531754733404 0 0.87499999999967015 0 0 0.90849364905355434 0.091506350946296292 0 0.87499999999950151 1 0 0.80886664387416207 0.89717308644237903 0 0.90849364905363228 0.90849364905367769 0 0.68668231842078242 0.24762892664808989 0 0.62499999999892575 0.17524047358135519 0 0.73983916756365475 0.17530677078674589 0 0.31281086598417152 0.10449318608631281 0 0.43749999999910871 0.1082531754729984 0 0.37500000000232431 0.17524047358384309 0 0.62499999999892575 0.17524047358135519 0 0.56250000000143974 0.2422277716920859 0 0.49999999999934441 0.1752404735815076 0 0.56249999999885147 0.1082531754730395 0 0.68749999999926592 0.1082531754732875 0 0.62499999999892575 0.17524047358135519 0 0.56249999999885147 0.1082531754730395 0 0.62499999999892575 0.17524047358135519 0 0.49999999999934441 0.1752404735815076 0 0.56250000000143974 0.2422277716920859 0 0.43750000000200551 0.24222777169198509 0 0.49999999999934441 0.1752404735815076 0 0.43749999999910871 0.1082531754729984 0 0.56249999999885147 0.1082531754730395 0 0.49999999999934441 0.1752404735815076 0 0.68668231842078242 0.24762892664808989 0 0.56250000000143974 0.2422277716920859 0 0.62499999999892575 0.17524047358135519 0 0.43750000000200551 0.24222777169198509 0 0.31411863959822661 0.24965544328045999 0 0.37500000000232431 0.17524047358384309 0 0.49999999999934441 0.1752404735815076 0 0.43750000000200551 0.24222777169198509 0 0.37500000000232431 0.17524047358384309 0 0.43749999999910871 0.1082531754729984 0 0.49999999999934441 0.1752404735815076 0 0.37500000000232431 0.17524047358384309 0 0.62499999999892575 0.17524047358135519 0 0.68749999999926592 0.1082531754732875 0 0.73983916756365475 0.17530677078674589 0 0.68749999999926592 0.1082531754732875 0 0.81249999999950517 0.1082531754733404 0 0.73983916756365475 0.17530677078674589 0 0.10409951422139101 0.81206782209691231 0 0.18802967116092181 0.89415349436770275 0 0.091506350946494744 0.90849364905351082 0 0.89658421694297741 0.1933620068391701 0 0.81249999999950517 0.1082531754733404 0 0.90849364905355434 0.091506350946296292 0 0.19185372118111221 0.092925648673580788 0 0.12076953676380731 0.18690935762408761 0 0.091506350946417708 0.091506350946618076 0 0.37500000000232431 0.17524047358384309 0 0.31411863959822661 0.24965544328045999 0 0.25103557339309318 0.17464499738446629 0 0.31281086598417152 0.10449318608631281 0 0.37500000000232431 0.17524047358384309 0 0.25103557339309318 0.17464499738446629 0 0.80886664387416207 0.89717308644237903 0 0.89051480781310632 0.79665793440246835 0 0.90849364905363228 0.90849364905367769 0 0.19185372118111221 0.092925648673580788 0 0.31281086598417152 0.10449318608631281 0 0.25103557339309318 0.17464499738446629 0 0.79891106056046712 0.25007334953587562 0 0.68668231842078242 0.24762892664808989 0 0.73983916756365475 0.17530677078674589 0 0.31411863959822661 0.24965544328045999 0 0.20767261601459541 0.25628918442207171 0 0.25103557339309318 0.17464499738446629 0 

        </DataArray>

      </Points>

      <Cells>

        <DataArray type="Int32" Name="connectivity" format="ascii">

0 1 2 3 4 5 6 7 8 9 10 11 12 13 14 15 16 17 18 19 20 21 22 23 24 25 26 27 28 29 30 31 32 33 34 35 36 37 38 39 40 41 42 43 44 45 46 47 48 49 50 51 52 53 54 55 56 57 58 59 60 61 62 63 64 65 66 67 68 69 70 71 72 73 74 75 76 77 78 79 80 81 82 83 84 85 86 87 88 89 90 91 92 93 94 95 96 97 98 99 100 101 102 103 104 105 106 107 108 109 110 111 112 113 114 115 116 117 118 119 120 121 122 123 124 125 126 127 128 129 130 131 132 133 134 135 136 137 138 139 140 141 142 143 144 145 146 147 148 149 150 151 152 153 154 155 156 157 158 159 160 161 162 163 164 165 166 167 168 169 170 171 172 173 174 175 176 177 178 179 180 181 182 183 184 185 186 187 188 189 190 191 192 193 194 195 196 197 198 199 200 201 202 203 204 205 206 207 208 209 210 211 212 213 214 215 216 217 218 219 220 221 222 223 224 225 226 227 228 229 230 231 232 233 234 235 236 237 238 239 240 241 242 243 244 245 246 247 248 249 250 251 252 253 254 255 256 257 258 259 260 261 262 263 264 265 266 267 268 269 270 271 272 273 274 275 276 277 278 279 280 281 282 283 284 285 286 287 288 289 290 291 292 293 294 295 296 297 298 299 300 301 302 303 304 305 306 307 308 309 310 311 312 313 314 315 316 317 318 319 320 321 322 323 324 325 326 327 328 329 330 331 332 333 334 335 336 337 338 339 340 341 342 343 344 345 346 347 348 349 350 351 352 353 354 355 356 357 358 359 360 361 362 363 364 365 366 367 368 369 370 371 372 373 374 375 376 377 378 379 380 381 382 383 384 385 386 387 388 389 390 391 392 393 394 395 396 397 398 399 400 401 402 403 404 405 406 407 408 409 410 411 412 413 414 415 416 417 418 419 420 421 422 423 424 425 426 427 428 429 430 431 432 433 434 435 436 437 438 439 440 441 442 443 444 445 446 447 448 449 450 451 452 453 454 455 456 457 458 459 460 461 462 463 464 465 466 467 468 469 470 471 472 473 474 475 476 477 478 479 480 481 482 483 484 485 

        </DataArray>

        <DataArray type="Int32" Name="offsets" format="ascii">

3 6 9 12 15 18 21 24 27 30 33 36 39 42 45 48 51 54 57 60 63 66 69 72 75 78 81 84 87 90 93 96 99 102 105 108 111 114 117 120 123 126 129 132 135 138 141 144 147 150 153 156 159 162 165 168 171 174 177 180 183 186 189 192 195 198 201 204 207 210 213 216 219 222 225 228 231 234 237 240 243 246 249 252 255 258 261 264 267 270 273 276 279 282 285 288 291 294 297 300 303 306 309 312 315 318 321 324 327 330 333 336 339 342 345 348 351 354 357 360 363 366 369 372 375 378 381 384 387 390 393 396 399 402 405 408 411 414 417 420 423 426 429 432 435 438 441 444 447 450 453 456 459 462 465 468 471 474 477 480 483 486 

        </DataArray>

        <DataArray type="Int32" Name="types" format="ascii">

5 5 5 5 5 5 5 5 5 5 5 5 5 5 5 5 5 5 5 5 5 5 5 5 5 5 5 5 5 5 5 5 5 5 5 5 5 5 5 5 5 5 5 5 5 5 5 5 5 5 5 5 5 5 5 5 5 5 5 5 5 5 5 5 5 5 5 5 5 5 5 5 5 5 5 5 5 5 5 5 5 5 5 5 5 5 5 5 5 5 5 5 5 5 5 5 5 5 5 5 5 5 5 5 5 5 5 5 5 5 5 5 5 5 5 5 5 5 5 5 5 5 5 5 5 5 5 5 5 5 5 5 5 5 5 5 5 5 5 5 5 5 5 5 5 5 5 5 5 5 5 5 5 5 5 5 5 5 5 5 5 5 

        </DataArray>

      </Cells>

    </Piece>

  </UnstructuredGrid>

</VTKFile>

