<?xml version="1.0"?>

<VTKFile type="UnstructuredGrid" version="0.1">

  <UnstructuredGrid>

    <Piece NumberOfPoints="486" NumberOfCells="162">

      <PointData>

        <DataArray type="Float64" Name="K" format="ascii">

9.90562693993445098e-01
9.90562693993445098e-01
9.90562693993445098e-01
9.79680197282328025e-01
9.79680197282328025e-01
9.79680197282328025e-01
1.04227896930492969e+00
1.04227896930492969e+00
1.04227896930492969e+00
1.02473913412992634e+00
1.02473913412992634e+00
1.02473913412992634e+00
1.03396725825043490e+00
1.03396725825043490e+00
1.03396725825043490e+00
1.02104600254104927e+00
1.02104600254104927e+00
1.02104600254104927e+00
9.33996423435265566e-01
9.33996423435265566e-01
9.33996423435265566e-01
1.01437102319659767e+00
1.01437102319659767e+00
1.01437102319659767e+00
9.84775606538709103e-01
9.84775606538709103e-01
9.84775606538709103e-01
1.03800562801541552e+00
1.03800562801541552e+00
1.03800562801541552e+00
9.62016179938169569e-01
9.62016179938169569e-01
9.62016179938169569e-01
9.39928240449239505e-01
9.39928240449239505e-01
9.39928240449239505e-01
1.01285905050990310e+00
1.01285905050990310e+00
1.01285905050990310e+00
1.01285366243357422e+00
1.01285366243357422e+00
1.01285366243357422e+00
9.78190788542513845e-01
9.78190788542513845e-01
9.78190788542513845e-01
9.77630882448335403e-01
9.77630882448335403e-01
9.77630882448335403e-01
1.01847327076725813e+00
1.01847327076725813e+00
1.01847327076725813e+00
9.94113887844075172e-01
9.94113887844075172e-01
9.94113887844075172e-01
9.79456431740213906e-01
9.79456431740213906e-01
9.79456431740213906e-01
9.81299936602134215e-01
9.81299936602134215e-01
9.81299936602134215e-01
9.97214800495070830e-01
9.97214800495070830e-01
9.97214800495070830e-01
9.81519119152714947e-01
9.81519119152714947e-01
9.81519119152714947e-01
1.06616174723124679e+00
1.06616174723124679e+00
1.06616174723124679e+00
1.02812392328987601e+00
1.02812392328987601e+00
1.02812392328987601e+00
9.87531751896261301e-01
9.87531751896261301e-01
9.87531751896261301e-01
1.01787527365182151e+00
1.01787527365182151e+00
1.01787527365182151e+00
1.01011410640844623e+00
1.01011410640844623e+00
1.01011410640844623e+00
9.75269690098637287e-01
9.75269690098637287e-01
9.75269690098637287e-01
9.65381336687969882e-01
9.65381336687969882e-01
9.65381336687969882e-01
9.88208023674240321e-01
9.88208023674240321e-01
9.88208023674240321e-01
9.92793080670984929e-01
9.92793080670984929e-01
9.92793080670984929e-01
1.03937379391438522e+00
1.03937379391438522e+00
1.03937379391438522e+00
1.07411144684713111e+00
1.07411144684713111e+00
1.07411144684713111e+00
1.01278965814977218e+00
1.01278965814977218e+00
1.01278965814977218e+00
1.06984711191903070e+00
1.06984711191903070e+00
1.06984711191903070e+00
1.03079954742592284e+00
1.03079954742592284e+00
1.03079954742592284e+00
9.72874108955206651e-01
9.72874108955206651e-01
9.72874108955206651e-01
1.00003158642205059e+00
1.00003158642205059e+00
1.00003158642205059e+00
1.01160029797273832e+00
1.01160029797273832e+00
1.01160029797273832e+00
1.06831244258185443e+00
1.06831244258185443e+00
1.06831244258185443e+00
1.04817028249271949e+00
1.04817028249271949e+00
1.04817028249271949e+00
9.60831175507575574e-01
9.60831175507575574e-01
9.60831175507575574e-01
1.06371122502688209e+00
1.06371122502688209e+00
1.06371122502688209e+00
1.04933353756571357e+00
1.04933353756571357e+00
1.04933353756571357e+00
9.32549966867065150e-01
9.32549966867065150e-01
9.32549966867065150e-01
1.03178505201310333e+00
1.03178505201310333e+00
1.03178505201310333e+00
1.08906007767131796e+00
1.08906007767131796e+00
1.08906007767131796e+00
9.76253085933144860e-01
9.76253085933144860e-01
9.76253085933144860e-01
1.02474219248329335e+00
1.02474219248329335e+00
1.02474219248329335e+00
1.01617285369393584e+00
1.01617285369393584e+00
1.01617285369393584e+00
9.60080686686287876e-01
9.60080686686287876e-01
9.60080686686287876e-01
1.03482829160394108e+00
1.03482829160394108e+00
1.03482829160394108e+00
9.75668995234344472e-01
9.75668995234344472e-01
9.75668995234344472e-01
9.37571381318880182e-01
9.37571381318880182e-01
9.37571381318880182e-01
1.06858781610608355e+00
1.06858781610608355e+00
1.06858781610608355e+00
1.01218368510469126e+00
1.01218368510469126e+00
1.01218368510469126e+00
1.01154408613816327e+00
1.01154408613816327e+00
1.01154408613816327e+00
9.54495345161660014e-01
9.54495345161660014e-01
9.54495345161660014e-01
1.01231096070373572e+00
1.01231096070373572e+00
1.01231096070373572e+00
1.03720165545873355e+00
1.03720165545873355e+00
1.03720165545873355e+00
9.77111817143064498e-01
9.77111817143064498e-01
9.77111817143064498e-01
9.74710344900036052e-01
9.74710344900036052e-01
9.74710344900036052e-01
9.91095608229740743e-01
9.91095608229740743e-01
9.91095608229740743e-01
9.88592379685941602e-01
9.88592379685941602e-01
9.88592379685941602e-01
1.09107567912726600e+00
1.09107567912726600e+00
1.09107567912726600e+00
1.00326619448160215e+00
1.00326619448160215e+00
1.00326619448160215e+00
1.00285237923158910e+00
1.00285237923158910e+00
1.00285237923158910e+00
9.41617541829402604e-01
9.41617541829402604e-01
9.41617541829402604e-01
9.68084394777297463e-01
9.68084394777297463e-01
9.68084394777297463e-01
1.07730804930797697e+00
1.07730804930797697e+00
1.07730804930797697e+00
9.97319774316982377e-01
9.97319774316982377e-01
9.97319774316982377e-01
1.01457349002011066e+00
1.01457349002011066e+00
1.01457349002011066e+00
1.00268181190720340e+00
1.00268181190720340e+00
1.00268181190720340e+00
9.93534953607942972e-01
9.93534953607942972e-01
9.93534953607942972e-01
9.88574516137815884e-01
9.88574516137815884e-01
9.88574516137815884e-01
1.09855478581108179e+00
1.09855478581108179e+00
1.09855478581108179e+00
1.00604179812982841e+00
1.00604179812982841e+00
1.00604179812982841e+00
1.00965594324066132e+00
1.00965594324066132e+00
1.00965594324066132e+00
9.74125558135118252e-01
9.74125558135118252e-01
9.74125558135118252e-01
1.03562702262104156e+00
1.03562702262104156e+00
1.03562702262104156e+00
1.00120974300570409e+00
1.00120974300570409e+00
1.00120974300570409e+00
1.02536564262248731e+00
1.02536564262248731e+00
1.02536564262248731e+00
1.09942638116209190e+00
1.09942638116209190e+00
1.09942638116209190e+00
9.78317944005624884e-01
9.78317944005624884e-01
9.78317944005624884e-01
9.89749671237222128e-01
9.89749671237222128e-01
9.89749671237222128e-01
9.84340630647875026e-01
9.84340630647875026e-01
9.84340630647875026e-01
1.01393575635736166e+00
1.01393575635736166e+00
1.01393575635736166e+00
1.07758484303830793e+00
1.07758484303830793e+00
1.07758484303830793e+00
1.04287729649955985e+00
1.04287729649955985e+00
1.04287729649955985e+00
1.02033358667635676e+00
1.02033358667635676e+00
1.02033358667635676e+00
1.05281296214371256e+00
1.05281296214371256e+00
1.05281296214371256e+00
1.05840242425479514e+00
1.05840242425479514e+00
1.05840242425479514e+00
1.06996710809813544e+00
1.06996710809813544e+00
1.06996710809813544e+00
9.95721131136513615e-01
9.95721131136513615e-01
9.95721131136513615e-01
1.00948708314571767e+00
1.00948708314571767e+00
1.00948708314571767e+00
1.00267245893694867e+00
1.00267245893694867e+00
1.00267245893694867e+00
1.02472134467730069e+00
1.02472134467730069e+00
1.02472134467730069e+00
9.89040753244723181e-01
9.89040753244723181e-01
9.89040753244723181e-01
9.96001228210547929e-01
9.96001228210547929e-01
9.96001228210547929e-01
1.04127389115355951e+00
1.04127389115355951e+00
1.04127389115355951e+00
9.71968865519670211e-01
9.71968865519670211e-01
9.71968865519670211e-01
1.00952119629612480e+00
1.00952119629612480e+00
1.00952119629612480e+00
1.00962238802299376e+00
1.00962238802299376e+00
1.00962238802299376e+00
1.00931245165256578e+00
1.00931245165256578e+00
1.00931245165256578e+00
1.00630106914148643e+00
1.00630106914148643e+00
1.00630106914148643e+00
9.61146518158232155e-01
9.61146518158232155e-01
9.61146518158232155e-01
9.77983348322269630e-01
9.77983348322269630e-01
9.77983348322269630e-01
1.04125481219103788e+00
1.04125481219103788e+00
1.04125481219103788e+00
1.01434908522062095e+00
1.01434908522062095e+00
1.01434908522062095e+00
1.08037960403079092e+00
1.08037960403079092e+00
1.08037960403079092e+00
1.02455165754790056e+00
1.02455165754790056e+00
1.02455165754790056e+00
1.06257004850845327e+00
1.06257004850845327e+00
1.06257004850845327e+00
1.04179630445689475e+00
1.04179630445689475e+00
1.04179630445689475e+00
1.04353743783560482e+00
1.04353743783560482e+00
1.04353743783560482e+00
9.73864584010405876e-01
9.73864584010405876e-01
9.73864584010405876e-01
1.02332051959491732e+00
1.02332051959491732e+00
1.02332051959491732e+00
1.02989454897299937e+00
1.02989454897299937e+00
1.02989454897299937e+00
1.00936751166658323e+00
1.00936751166658323e+00
1.00936751166658323e+00
1.00019326926552043e+00
1.00019326926552043e+00
1.00019326926552043e+00
1.05315223856579299e+00
1.05315223856579299e+00
1.05315223856579299e+00
9.71531587302921773e-01
9.71531587302921773e-01
9.71531587302921773e-01
9.75409721037625355e-01
9.75409721037625355e-01
9.75409721037625355e-01
1.07841029933358623e+00
1.07841029933358623e+00
1.07841029933358623e+00
1.06886200369905748e+00
1.06886200369905748e+00
1.06886200369905748e+00
1.02024445553314980e+00
1.02024445553314980e+00
1.02024445553314980e+00
1.02439792794025730e+00
1.02439792794025730e+00
1.02439792794025730e+00
9.68283281067533919e-01
9.68283281067533919e-01
9.68283281067533919e-01
1.02435005857052763e+00
1.02435005857052763e+00
1.02435005857052763e+00
1.03036709761063028e+00
1.03036709761063028e+00
1.03036709761063028e+00
1.07016275156936547e+00
1.07016275156936547e+00
1.07016275156936547e+00
9.75755935705266642e-01
9.75755935705266642e-01
9.75755935705266642e-01
1.01030938273072235e+00
1.01030938273072235e+00
1.01030938273072235e+00
1.02448518043173453e+00
1.02448518043173453e+00
1.02448518043173453e+00
1.03004490162009144e+00
1.03004490162009144e+00
1.03004490162009144e+00
1.05899854401735150e+00
1.05899854401735150e+00
1.05899854401735150e+00
1.05283835169979212e+00
1.05283835169979212e+00
1.05283835169979212e+00
9.97065103903967409e-01
9.97065103903967409e-01
9.97065103903967409e-01
1.04465177842200085e+00
1.04465177842200085e+00
1.04465177842200085e+00
9.95301360875432306e-01
9.95301360875432306e-01
9.95301360875432306e-01
9.86682012548157461e-01
9.86682012548157461e-01
9.86682012548157461e-01
1.00303020877976534e+00
1.00303020877976534e+00
1.00303020877976534e+00
1.01850872625246125e+00
1.01850872625246125e+00
1.01850872625246125e+00
1.03198324118574236e+00
1.03198324118574236e+00
1.03198324118574236e+00
9.88360410192117400e-01
9.88360410192117400e-01
9.88360410192117400e-01
1.01160908646120640e+00
1.01160908646120640e+00
1.01160908646120640e+00
1.06475503074353872e+00
1.06475503074353872e+00
1.06475503074353872e+00
1.00930796058115368e+00
1.00930796058115368e+00
1.00930796058115368e+00
1.01560372385417974e+00
1.01560372385417974e+00
1.01560372385417974e+00
1.07889888873130757e+00
1.07889888873130757e+00
1.07889888873130757e+00
1.06595869143865274e+00
1.06595869143865274e+00
1.06595869143865274e+00
1.03395967784096721e+00
1.03395967784096721e+00
1.03395967784096721e+00
9.91949875082211330e-01
9.91949875082211330e-01
9.91949875082211330e-01
9.91608551923321646e-01
9.91608551923321646e-01
9.91608551923321646e-01
1.03326831635420646e+00
1.03326831635420646e+00
1.03326831635420646e+00
1.01047484161374990e+00
1.01047484161374990e+00
1.01047484161374990e+00
1.05227185954354496e+00
1.05227185954354496e+00
1.05227185954354496e+00
1.06270980768939283e+00
1.06270980768939283e+00
1.06270980768939283e+00
1.03819106244486226e+00
1.03819106244486226e+00
1.03819106244486226e+00
1.00251024962542012e+00
1.00251024962542012e+00
1.00251024962542012e+00
1.03616887302369620e+00
1.03616887302369620e+00
1.03616887302369620e+00
1.01262186790822484e+00
1.01262186790822484e+00
1.01262186790822484e+00
1.07098865597410775e+00
1.07098865597410775e+00
1.07098865597410775e+00


        </DataArray>

      </PointData>

      <CellData/>

      <Points>

        <DataArray type="Float64" NumberOfComponents="3" format="ascii">

0.1082531754723032 0.6875000000007816 0 0.23533274979922561 0.77093399389351469 0 0.10409951422139101 0.81206782209691231 0 0.23533274979922561 0.77093399389351469 0 0.1082531754723032 0.6875000000007816 0 0.21809253452218619 0.65480892822618109 0 0.24418615484441761 0.35773612382016978 0 0.121259140952891 0.43112117036853742 0 0.1082531754734323 0.31250000000117473 0 0.75000000000057243 0.35048094716480432 0 0.88173731489851925 0.33077402607778361 0 0.81242894672211508 0.45500248311961472 0 0.121259140952891 0.43112117036853742 0 0.24418615484441761 0.35773612382016978 0 0.22257735880419699 0.47344721641341742 0 0.81242894672211508 0.45500248311961472 0 0.88173731489851925 0.33077402607778361 0 0.915464298762109 0.43749999999886913 0 0 0.62500000000121547 0 0 0.50000000000206146 0 0.1371230538040123 0.56179824718362847 0 0.82212678063041267 0.67678595194836966 0 0.89051480781310632 0.79665793440246835 0 0.76243180583607129 0.78687675331113149 0 0.76243180583607129 0.78687675331113149 0 0.69010814643829166 0.89298495739101336 0 0.62844955668446423 0.7850749770380413 0 0.89051480781310632 0.79665793440246835 0 0.82212678063041267 0.67678595194836966 0 0.92266244547590082 0.68749999999917555 0 0 0.50000000000206146 0 0.121259140952891 0.43112117036853742 0 0.1371230538040123 0.56179824718362847 0 0.1082531754723032 0.6875000000007816 0 0 0.62500000000121547 0 0.1371230538040123 0.56179824718362847 0 0.75000000000032374 0.56698729811007709 0 0.88927506082488361 0.56409486310635837 0 0.82212678063041267 0.67678595194836966 0 0.81242894672211508 0.45500248311961472 0 0.88927506082488361 0.56409486310635837 0 0.75000000000032374 0.56698729811007709 0 0.69851598570178741 0.68211701800612057 0 0.56496004948275869 0.67675037307860475 0 0.62752533658682441 0.56838075195614346 0 0.69851598570178741 0.68211701800612057 0 0.76243180583607129 0.78687675331113149 0 0.62844955668446423 0.7850749770380413 0 0.23533274979922561 0.77093399389351469 0 0.18802967116092181 0.89415349436770275 0 0.10409951422139101 0.81206782209691231 0 0.121259140952891 0.43112117036853742 0 0.22257735880419699 0.47344721641341742 0 0.1371230538040123 0.56179824718362847 0 0.75000000000032374 0.56698729811007709 0 0.69851598570178741 0.68211701800612057 0 0.62752533658682441 0.56838075195614346 0 0.56496004948275869 0.67675037307860475 0 0.69851598570178741 0.68211701800612057 0 0.62844955668446423 0.7850749770380413 0 0.1371230538040123 0.56179824718362847 0 0.22257735880419699 0.47344721641341742 0 0.26982811998763367 0.56544650815856912 0 0.21809253452218619 0.65480892822618109 0 0.1371230538040123 0.56179824718362847 0 0.26982811998763367 0.56544650815856912 0 0.24418615484441761 0.35773612382016978 0 0.1082531754734323 0.31250000000117473 0 0.20767261601459541 0.25628918442207171 0 0.88173731489851925 0.33077402607778361 0 0.75000000000057243 0.35048094716480432 0 0.79891106056046712 0.25007334953587562 0 0.75000000000032374 0.56698729811007709 0 0.82212678063041267 0.67678595194836966 0 0.69851598570178741 0.68211701800612057 0 0.81249999999950517 0.1082531754733404 0 0.89658421694297741 0.1933620068391701 0 0.79891106056046712 0.25007334953587562 0 0.81249999999950517 0.1082531754733404 0 0.79891106056046712 0.25007334953587562 0 0.73983916756365475 0.17530677078674589 0 0.23533274979922561 0.77093399389351469 0 0.21809253452218619 0.65480892822618109 0 0.32607333794064219 0.67760114260606152 0 0.1082531754723032 0.6875000000007816 0 0.1371230538040123 0.56179824718362847 0 0.21809253452218619 0.65480892822618109 0 0.69851598570178741 0.68211701800612057 0 0.82212678063041267 0.67678595194836966 0 0.76243180583607129 0.78687675331113149 0 0.69010814643829166 0.89298495739101336 0 0.76243180583607129 0.78687675331113149 0 0.80886664387416207 0.89717308644237903 0 0.43750000000181222 0.89174682452709564 0 0.31258827852827581 0.89214793616708443 0 0.37776173212361452 0.78514649317305008 0 0.43750000000181222 0.89174682452709564 0 0.37500000000156292 1 0 0.31258827852827581 0.89214793616708443 0 0.121259140952891 0.43112117036853742 0 0 0.37500000000156292 0 0.1082531754734323 0.31250000000117473 0 0.50000000000206146 1 0 0.37500000000156292 1 0 0.43750000000181222 0.89174682452709564 0 0.31258827852827581 0.89214793616708443 0 0.18802967116092181 0.89415349436770275 0 0.23533274979922561 0.77093399389351469 0 0 0.50000000000206146 0 0 0.37500000000156292 0 0.121259140952891 0.43112117036853742 0 0.62844955668446423 0.7850749770380413 0 0.69010814643829166 0.89298495739101336 0 0.56327595140699671 0.89211526915426331 0 0.69010814643829166 0.89298495739101336 0 0.62500000000121547 1 0 0.56327595140699671 0.89211526915426331 0 0.25000000000104189 1 0 0.18802967116092181 0.89415349436770275 0 0.31258827852827581 0.89214793616708443 0 0.50000000000206146 1 0 0.43750000000181222 0.89174682452709564 0 0.56327595140699671 0.89211526915426331 0 0.56249999999885147 0.1082531754730395 0 0.62499999999901068 0 0 0.68749999999926592 0.1082531754732875 0 1 0.49999999999869221 0 1 0.62499999999901068 0 0.88927506082488361 0.56409486310635837 0 0 0.25000000000104189 0 0.12076953676380731 0.18690935762408761 0 0.1082531754734323 0.31250000000117473 0 0.49999999999869221 0 0 0.62499999999901068 0 0 0.56249999999885147 0.1082531754730395 0 0.62500000000121547 1 0 0.50000000000206146 1 0 0.56327595140699671 0.89211526915426331 0 0.37500000000156292 1 0 0.25000000000104189 1 0 0.31258827852827581 0.89214793616708443 0 0.31281086598417152 0.10449318608631281 0 0.37499999999904599 0 0 0.43749999999910871 0.1082531754729984 0 0.43750000000181222 0.89174682452709564 0 0.37776173212361452 0.78514649317305008 0 0.50046028868828263 0.78376912307435687 0 0 0.37500000000156292 0 0 0.25000000000104189 0 0.1082531754734323 0.31250000000117473 0 0.49999999999869221 0 0 0.56249999999885147 0.1082531754730395 0 0.43749999999910871 0.1082531754729984 0 0.43750000000181222 0.89174682452709564 0 0.50046028868828263 0.78376912307435687 0 0.56327595140699671 0.89211526915426331 0 0.74999999999934042 0 0 0.81249999999950517 0.1082531754733404 0 0.68749999999926592 0.1082531754732875 0 0.37499999999904599 0 0 0.49999999999869221 0 0 0.43749999999910871 0.1082531754729984 0 0.25000000000104189 1 0 0.12500000000052089 1 0 0.18802967116092181 0.89415349436770275 0 0.50046028868828263 0.78376912307435687 0 0.62844955668446423 0.7850749770380413 0 0.56327595140699671 0.89211526915426331 0 0.37776173212361452 0.78514649317305008 0 0.31258827852827581 0.89214793616708443 0 0.23533274979922561 0.77093399389351469 0 0.62499999999901068 0 0 0.74999999999934042 0 0 0.68749999999926592 0.1082531754732875 0 1 0.74999999999934042 0 1 0.87499999999967015 0 0.89051480781310632 0.79665793440246835 0 0 0.25000000000104189 0 0 0.12500000000052089 0 0.12076953676380731 0.18690935762408761 0 0.74999999999934042 0 0 0.87499999999967015 0 0 0.81249999999950517 0.1082531754733404 0 0.24999999999941069 0 0 0.37499999999904599 0 0 0.31281086598417152 0.10449318608631281 0 0.50046028868828263 0.78376912307435687 0 0.37776173212361452 0.78514649317305008 0 0.44078402250377968 0.67714785211715212 0 0.68768773896438518 0.4586835206367198 0 0.75000000000032374 0.56698729811007709 0 0.62752533658682441 0.56838075195614346 0 0.31411863959822661 0.24965544328045999 0 0.37953773393552892 0.34812185820708452 0 0.24418615484441761 0.35773612382016978 0 0.68768773896438518 0.4586835206367198 0 0.81242894672211508 0.45500248311961472 0 0.75000000000032374 0.56698729811007709 0 1 0.24999999999941069 0 1 0.37499999999904599 0 0.88173731489851925 0.33077402607778361 0 0 0.75000000000034761 0 0 0.62500000000121547 0 0.1082531754723032 0.6875000000007816 0 0.50048844149666749 0.56727788297625459 0 0.44078402250377968 0.67714785211715212 0 0.38694285807596462 0.5672991787102919 0 0.50108503093851109 0.35012252869403671 0 0.44301038174930041 0.45684931552185398 0 0.37953773393552892 0.34812185820708452 0 0.50046028868828263 0.78376912307435687 0 0.56496004948275869 0.67675037307860475 0 0.62844955668446423 0.7850749770380413 0 0.68768773896438518 0.4586835206367198 0 0.75000000000057243 0.35048094716480432 0 0.81242894672211508 0.45500248311961472 0 0.56349980387502452 0.45846841892908402 0 0.62512662990940393 0.35044303886909911 0 0.68768773896438518 0.4586835206367198 0 0.50048844149666749 0.56727788297625459 0 0.38694285807596462 0.5672991787102919 0 0.44301038174930041 0.45684931552185398 0 0.50046028868828263 0.78376912307435687 0 0.44078402250377968 0.67714785211715212 0 0.56496004948275869 0.67675037307860475 0 0.50108503093851109 0.35012252869403671 0 0.37953773393552892 0.34812185820708452 0 0.43750000000200551 0.24222777169198509 0 0.75000000000034761 1 0 0.62500000000121547 1 0 0.69010814643829166 0.89298495739101336 0 0.68768773896438518 0.4586835206367198 0 0.62512662990940393 0.35044303886909911 0 0.75000000000057243 0.35048094716480432 0 0.56496004948275869 0.67675037307860475 0 0.44078402250377968 0.67714785211715212 0 0.50048844149666749 0.56727788297625459 0 0.56349980387502452 0.45846841892908402 0 0.44301038174930041 0.45684931552185398 0 0.50108503093851109 0.35012252869403671 0 0.50048844149666749 0.56727788297625459 0 0.44301038174930041 0.45684931552185398 0 0.56349980387502452 0.45846841892908402 0 0.56349980387502452 0.45846841892908402 0 0.50108503093851109 0.35012252869403671 0 0.62512662990940393 0.35044303886909911 0 0.43750000000200551 0.24222777169198509 0 0.37953773393552892 0.34812185820708452 0 0.31411863959822661 0.24965544328045999 0 0.56496004948275869 0.67675037307860475 0 0.50048844149666749 0.56727788297625459 0 0.62752533658682441 0.56838075195614346 0 0.56349980387502452 0.45846841892908402 0 0.68768773896438518 0.4586835206367198 0 0.62752533658682441 0.56838075195614346 0 0.50048844149666749 0.56727788297625459 0 0.56349980387502452 0.45846841892908402 0 0.62752533658682441 0.56838075195614346 0 0.75000000000057243 0.35048094716480432 0 0.62512662990940393 0.35044303886909911 0 0.68668231842078242 0.24762892664808989 0 0.50108503093851109 0.35012252869403671 0 0.43750000000200551 0.24222777169198509 0 0.56250000000143974 0.2422277716920859 0 0.62512662990940393 0.35044303886909911 0 0.50108503093851109 0.35012252869403671 0 0.56250000000143974 0.2422277716920859 0 0.68668231842078242 0.24762892664808989 0 0.62512662990940393 0.35044303886909911 0 0.56250000000143974 0.2422277716920859 0 0.22257735880419699 0.47344721641341742 0 0.24418615484441761 0.35773612382016978 0 0.32815957677880009 0.4577243358118348 0 0.12076953676380731 0.18690935762408761 0 0.19185372118111221 0.092925648673580788 0 0.25103557339309318 0.17464499738446629 0 0.20767261601459541 0.25628918442207171 0 0.12076953676380731 0.18690935762408761 0 0.25103557339309318 0.17464499738446629 0 0 0.87499999999950151 0 0 0.75000000000034761 0 0.10409951422139101 0.81206782209691231 0 0.1249999999997731 0 0 0.24999999999941069 0 0 0.19185372118111221 0.092925648673580788 0 1 0.1249999999997731 0 1 0.24999999999941069 0 0.89658421694297741 0.1933620068391701 0 0.88927506082488361 0.56409486310635837 0 0.81242894672211508 0.45500248311961472 0 0.915464298762109 0.43749999999886913 0 0.87499999999950151 1 0 0.75000000000034761 1 0 0.80886664387416207 0.89717308644237903 0 0.75000000000034761 1 0 0.69010814643829166 0.89298495739101336 0 0.80886664387416207 0.89717308644237903 0 0.82212678063041267 0.67678595194836966 0 0.88927506082488361 0.56409486310635837 0 0.92266244547590082 0.68749999999917555 0 0 0.75000000000034761 0 0.1082531754723032 0.6875000000007816 0 0.10409951422139101 0.81206782209691231 0 0.24999999999941069 0 0 0.31281086598417152 0.10449318608631281 0 0.19185372118111221 0.092925648673580788 0 1 0.24999999999941069 0 0.88173731489851925 0.33077402607778361 0 0.89658421694297741 0.1933620068391701 0 0.32815957677880009 0.4577243358118348 0 0.38694285807596462 0.5672991787102919 0 0.26982811998763367 0.56544650815856912 0 0.76243180583607129 0.78687675331113149 0 0.89051480781310632 0.79665793440246835 0 0.80886664387416207 0.89717308644237903 0 0.38694285807596462 0.5672991787102919 0 0.44078402250377968 0.67714785211715212 0 0.32607333794064219 0.67760114260606152 0 0.37776173212361452 0.78514649317305008 0 0.23533274979922561 0.77093399389351469 0 0.32607333794064219 0.67760114260606152 0 1 0.49999999999869221 0 0.88927506082488361 0.56409486310635837 0 0.915464298762109 0.43749999999886913 0 0.88173731489851925 0.33077402607778361 0 1 0.37499999999904599 0 0.915464298762109 0.43749999999886913 0 0.24418615484441761 0.35773612382016978 0 0.37953773393552892 0.34812185820708452 0 0.32815957677880009 0.4577243358118348 0 0.44301038174930041 0.45684931552185398 0 0.38694285807596462 0.5672991787102919 0 0.32815957677880009 0.4577243358118348 0 0.88927506082488361 0.56409486310635837 0 1 0.62499999999901068 0 0.92266244547590082 0.68749999999917555 0 1 0.74999999999934042 0 0.89051480781310632 0.79665793440246835 0 0.92266244547590082 0.68749999999917555 0 0 1 0 0 0.87499999999950151 0 0.091506350946494744 0.90849364905351082 0 1 1 0 0.87499999999950151 1 0 0.90849364905363228 0.90849364905367769 0 0 0 0 0.1249999999997731 0 0 0.091506350946417708 0.091506350946618076 0 0 0.12500000000052089 0 0 0 0 0.091506350946417708 0.091506350946618076 0 1 0 0 1 0.1249999999997731 0 0.90849364905355434 0.091506350946296292 0 0.87499999999967015 0 0 1 0 0 0.90849364905355434 0.091506350946296292 0 0.12500000000052089 1 0 0 1 0 0.091506350946494744 0.90849364905351082 0 1 0.87499999999967015 0 1 1 0 0.90849364905363228 0.90849364905367769 0 0.38694285807596462 0.5672991787102919 0 0.32607333794064219 0.67760114260606152 0 0.26982811998763367 0.56544650815856912 0 0.31411863959822661 0.24965544328045999 0 0.24418615484441761 0.35773612382016978 0 0.20767261601459541 0.25628918442207171 0 0.1082531754734323 0.31250000000117473 0 0.12076953676380731 0.18690935762408761 0 0.20767261601459541 0.25628918442207171 0 0.75000000000057243 0.35048094716480432 0 0.68668231842078242 0.24762892664808989 0 0.79891106056046712 0.25007334953587562 0 0.22257735880419699 0.47344721641341742 0 0.32815957677880009 0.4577243358118348 0 0.26982811998763367 0.56544650815856912 0 0.44078402250377968 0.67714785211715212 0 0.37776173212361452 0.78514649317305008 0 0.32607333794064219 0.67760114260606152 0 0.89658421694297741 0.1933620068391701 0 0.88173731489851925 0.33077402607778361 0 0.79891106056046712 0.25007334953587562 0 1 0.37499999999904599 0 1 0.49999999999869221 0 0.915464298762109 0.43749999999886913 0 0.37953773393552892 0.34812185820708452 0 0.44301038174930041 0.45684931552185398 0 0.32815957677880009 0.4577243358118348 0 0.32607333794064219 0.67760114260606152 0 0.21809253452218619 0.65480892822618109 0 0.26982811998763367 0.56544650815856912 0 1 0.1249999999997731 0 0.89658421694297741 0.1933620068391701 0 0.90849364905355434 0.091506350946296292 0 0 0.87499999999950151 0 0.10409951422139101 0.81206782209691231 0 0.091506350946494744 0.90849364905351082 0 0.1249999999997731 0 0 0.19185372118111221 0.092925648673580788 0 0.091506350946417708 0.091506350946618076 0 1 0.62499999999901068 0 1 0.74999999999934042 0 0.92266244547590082 0.68749999999917555 0 0.18802967116092181 0.89415349436770275 0 0.12500000000052089 1 0 0.091506350946494744 0.90849364905351082 0 0.89051480781310632 0.79665793440246835 0 1 0.87499999999967015 0 0.90849364905363228 0.90849364905367769 0 0.12076953676380731 0.18690935762408761 0 0 0.12500000000052089 0 0.091506350946417708 0.091506350946618076 0 0.81249999999950517 0.1082531754733404 0 0.87499999999967015 0 0 0.90849364905355434 0.091506350946296292 0 0.87499999999950151 1 0 0.80886664387416207 0.89717308644237903 0 0.90849364905363228 0.90849364905367769 0 0.68668231842078242 0.24762892664808989 0 0.62499999999892575 0.17524047358135519 0 0.73983916756365475 0.17530677078674589 0 0.31281086598417152 0.10449318608631281 0 0.43749999999910871 0.1082531754729984 0 0.37500000000232431 0.17524047358384309 0 0.62499999999892575 0.17524047358135519 0 0.56250000000143974 0.2422277716920859 0 0.49999999999934441 0.1752404735815076 0 0.56249999999885147 0.1082531754730395 0 0.68749999999926592 0.1082531754732875 0 0.62499999999892575 0.17524047358135519 0 0.56249999999885147 0.1082531754730395 0 0.62499999999892575 0.17524047358135519 0 0.49999999999934441 0.1752404735815076 0 0.56250000000143974 0.2422277716920859 0 0.43750000000200551 0.24222777169198509 0 0.49999999999934441 0.1752404735815076 0 0.43749999999910871 0.1082531754729984 0 0.56249999999885147 0.1082531754730395 0 0.49999999999934441 0.1752404735815076 0 0.68668231842078242 0.24762892664808989 0 0.56250000000143974 0.2422277716920859 0 0.62499999999892575 0.17524047358135519 0 0.43750000000200551 0.24222777169198509 0 0.31411863959822661 0.24965544328045999 0 0.37500000000232431 0.17524047358384309 0 0.49999999999934441 0.1752404735815076 0 0.43750000000200551 0.24222777169198509 0 0.37500000000232431 0.17524047358384309 0 0.43749999999910871 0.1082531754729984 0 0.49999999999934441 0.1752404735815076 0 0.37500000000232431 0.17524047358384309 0 0.62499999999892575 0.17524047358135519 0 0.68749999999926592 0.1082531754732875 0 0.73983916756365475 0.17530677078674589 0 0.68749999999926592 0.1082531754732875 0 0.81249999999950517 0.1082531754733404 0 0.73983916756365475 0.17530677078674589 0 0.10409951422139101 0.81206782209691231 0 0.18802967116092181 0.89415349436770275 0 0.091506350946494744 0.90849364905351082 0 0.89658421694297741 0.1933620068391701 0 0.81249999999950517 0.1082531754733404 0 0.90849364905355434 0.091506350946296292 0 0.19185372118111221 0.092925648673580788 0 0.12076953676380731 0.18690935762408761 0 0.091506350946417708 0.091506350946618076 0 0.37500000000232431 0.17524047358384309 0 0.31411863959822661 0.24965544328045999 0 0.25103557339309318 0.17464499738446629 0 0.31281086598417152 0.10449318608631281 0 0.37500000000232431 0.17524047358384309 0 0.25103557339309318 0.17464499738446629 0 0.80886664387416207 0.89717308644237903 0 0.89051480781310632 0.79665793440246835 0 0.90849364905363228 0.90849364905367769 0 0.19185372118111221 0.092925648673580788 0 0.31281086598417152 0.10449318608631281 0 0.25103557339309318 0.17464499738446629 0 0.79891106056046712 0.25007334953587562 0 0.68668231842078242 0.24762892664808989 0 0.73983916756365475 0.17530677078674589 0 0.31411863959822661 0.24965544328045999 0 0.20767261601459541 0.25628918442207171 0 0.25103557339309318 0.17464499738446629 0 

        </DataArray>

      </Points>

      <Cells>

        <DataArray type="Int32" Name="connectivity" format="ascii">

0 1 2 3 4 5 6 7 8 9 10 11 12 13 14 15 16 17 18 19 20 21 22 23 24 25 26 27 28 29 30 31 32 33 34 35 36 37 38 39 40 41 42 43 44 45 46 47 48 49 50 51 52 53 54 55 56 57 58 59 60 61 62 63 64 65 66 67 68 69 70 71 72 73 74 75 76 77 78 79 80 81 82 83 84 85 86 87 88 89 90 91 92 93 94 95 96 97 98 99 100 101 102 103 104 105 106 107 108 109 110 111 112 113 114 115 116 117 118 119 120 121 122 123 124 125 126 127 128 129 130 131 132 133 134 135 136 137 138 139 140 141 142 143 144 145 146 147 148 149 150 151 152 153 154 155 156 157 158 159 160 161 162 163 164 165 166 167 168 169 170 171 172 173 174 175 176 177 178 179 180 181 182 183 184 185 186 187 188 189 190 191 192 193 194 195 196 197 198 199 200 201 202 203 204 205 206 207 208 209 210 211 212 213 214 215 216 217 218 219 220 221 222 223 224 225 226 227 228 229 230 231 232 233 234 235 236 237 238 239 240 241 242 243 244 245 246 247 248 249 250 251 252 253 254 255 256 257 258 259 260 261 262 263 264 265 266 267 268 269 270 271 272 273 274 275 276 277 278 279 280 281 282 283 284 285 286 287 288 289 290 291 292 293 294 295 296 297 298 299 300 301 302 303 304 305 306 307 308 309 310 311 312 313 314 315 316 317 318 319 320 321 322 323 324 325 326 327 328 329 330 331 332 333 334 335 336 337 338 339 340 341 342 343 344 345 346 347 348 349 350 351 352 353 354 355 356 357 358 359 360 361 362 363 364 365 366 367 368 369 370 371 372 373 374 375 376 377 378 379 380 381 382 383 384 385 386 387 388 389 390 391 392 393 394 395 396 397 398 399 400 401 402 403 404 405 406 407 408 409 410 411 412 413 414 415 416 417 418 419 420 421 422 423 424 425 426 427 428 429 430 431 432 433 434 435 436 437 438 439 440 441 442 443 444 445 446 447 448 449 450 451 452 453 454 455 456 457 458 459 460 461 462 463 464 465 466 467 468 469 470 471 472 473 474 475 476 477 478 479 480 481 482 483 484 485 

        </DataArray>

        <DataArray type="Int32" Name="offsets" format="ascii">

3 6 9 12 15 18 21 24 27 30 33 36 39 42 45 48 51 54 57 60 63 66 69 72 75 78 81 84 87 90 93 96 99 102 105 108 111 114 117 120 123 126 129 132 135 138 141 144 147 150 153 156 159 162 165 168 171 174 177 180 183 186 189 192 195 198 201 204 207 210 213 216 219 222 225 228 231 234 237 240 243 246 249 252 255 258 261 264 267 270 273 276 279 282 285 288 291 294 297 300 303 306 309 312 315 318 321 324 327 330 333 336 339 342 345 348 351 354 357 360 363 366 369 372 375 378 381 384 387 390 393 396 399 402 405 408 411 414 417 420 423 426 429 432 435 438 441 444 447 450 453 456 459 462 465 468 471 474 477 480 483 486 

        </DataArray>

        <DataArray type="Int32" Name="types" format="ascii">

5 5 5 5 5 5 5 5 5 5 5 5 5 5 5 5 5 5 5 5 5 5 5 5 5 5 5 5 5 5 5 5 5 5 5 5 5 5 5 5 5 5 5 5 5 5 5 5 5 5 5 5 5 5 5 5 5 5 5 5 5 5 5 5 5 5 5 5 5 5 5 5 5 5 5 5 5 5 5 5 5 5 5 5 5 5 5 5 5 5 5 5 5 5 5 5 5 5 5 5 5 5 5 5 5 5 5 5 5 5 5 5 5 5 5 5 5 5 5 5 5 5 5 5 5 5 5 5 5 5 5 5 5 5 5 5 5 5 5 5 5 5 5 5 5 5 5 5 5 5 5 5 5 5 5 5 5 5 5 5 5 5 

        </DataArray>

      </Cells>

    </Piece>

  </UnstructuredGrid>

</VTKFile>

