<?xml version="1.0"?>

<VTKFile type="UnstructuredGrid" version="0.1">

  <UnstructuredGrid>

    <Piece NumberOfPoints="486" NumberOfCells="162">

      <PointData>

        <DataArray type="Float64" Name="K" format="ascii">

9.96023026953435697e-01
9.96023026953435697e-01
9.96023026953435697e-01
9.90908689215420746e-01
9.90908689215420746e-01
9.90908689215420746e-01
1.05016340148069598e+00
1.05016340148069598e+00
1.05016340148069598e+00
1.05565351666897800e+00
1.05565351666897800e+00
1.05565351666897800e+00
1.04154503658841291e+00
1.04154503658841291e+00
1.04154503658841291e+00
1.04107764982931594e+00
1.04107764982931594e+00
1.04107764982931594e+00
1.05393570174839346e+00
1.05393570174839346e+00
1.05393570174839346e+00
1.01311930781340997e+00
1.01311930781340997e+00
1.01311930781340997e+00
9.84235459949858060e-01
9.84235459949858060e-01
9.84235459949858060e-01
1.00971420433717229e+00
1.00971420433717229e+00
1.00971420433717229e+00
1.07332892916058675e+00
1.07332892916058675e+00
1.07332892916058675e+00
1.03115312706566642e+00
1.03115312706566642e+00
1.03115312706566642e+00
1.03166201150444503e+00
1.03166201150444503e+00
1.03166201150444503e+00
1.04096524969006521e+00
1.04096524969006521e+00
1.04096524969006521e+00
1.00242794147797176e+00
1.00242794147797176e+00
1.00242794147797176e+00
9.96458541653403307e-01
9.96458541653403307e-01
9.96458541653403307e-01
9.89264593355110189e-01
9.89264593355110189e-01
9.89264593355110189e-01
1.05060268628101405e+00
1.05060268628101405e+00
1.05060268628101405e+00
1.02707319258228802e+00
1.02707319258228802e+00
1.02707319258228802e+00
9.91839328354248595e-01
9.91839328354248595e-01
9.91839328354248595e-01
1.02578219401254844e+00
1.02578219401254844e+00
1.02578219401254844e+00
1.01044578338232416e+00
1.01044578338232416e+00
1.01044578338232416e+00
1.02604365491072835e+00
1.02604365491072835e+00
1.02604365491072835e+00
1.05030999190818775e+00
1.05030999190818775e+00
1.05030999190818775e+00
1.02795118828907839e+00
1.02795118828907839e+00
1.02795118828907839e+00
1.01270131015662823e+00
1.01270131015662823e+00
1.01270131015662823e+00
1.00599884715506849e+00
1.00599884715506849e+00
1.00599884715506849e+00
9.59770323795152591e-01
9.59770323795152591e-01
9.59770323795152591e-01
1.01983027460323750e+00
1.01983027460323750e+00
1.01983027460323750e+00
1.01603036453948259e+00
1.01603036453948259e+00
1.01603036453948259e+00
9.87936949451859281e-01
9.87936949451859281e-01
9.87936949451859281e-01
1.01452329112052109e+00
1.01452329112052109e+00
1.01452329112052109e+00
1.04729762093526646e+00
1.04729762093526646e+00
1.04729762093526646e+00
1.08797494407172879e+00
1.08797494407172879e+00
1.08797494407172879e+00
1.04543627137562667e+00
1.04543627137562667e+00
1.04543627137562667e+00
9.86746685299632054e-01
9.86746685299632054e-01
9.86746685299632054e-01
1.09830046278644100e+00
1.09830046278644100e+00
1.09830046278644100e+00
9.74479483180818562e-01
9.74479483180818562e-01
9.74479483180818562e-01
9.69783089882421567e-01
9.69783089882421567e-01
9.69783089882421567e-01
1.02703263685174373e+00
1.02703263685174373e+00
1.02703263685174373e+00
1.01690616074902462e+00
1.01690616074902462e+00
1.01690616074902462e+00
1.02985103539015688e+00
1.02985103539015688e+00
1.02985103539015688e+00
1.01718074905509903e+00
1.01718074905509903e+00
1.01718074905509903e+00
1.03626625877438805e+00
1.03626625877438805e+00
1.03626625877438805e+00
1.03181350185218301e+00
1.03181350185218301e+00
1.03181350185218301e+00
9.87604399284986889e-01
9.87604399284986889e-01
9.87604399284986889e-01
1.05741121065991095e+00
1.05741121065991095e+00
1.05741121065991095e+00
9.72938928233120892e-01
9.72938928233120892e-01
9.72938928233120892e-01
1.00839430361960880e+00
1.00839430361960880e+00
1.00839430361960880e+00
1.07822382351866608e+00
1.07822382351866608e+00
1.07822382351866608e+00
1.01278653797424512e+00
1.01278653797424512e+00
1.01278653797424512e+00
1.01006715926908641e+00
1.01006715926908641e+00
1.01006715926908641e+00
9.78515855385076905e-01
9.78515855385076905e-01
9.78515855385076905e-01
9.84949873881186377e-01
9.84949873881186377e-01
9.84949873881186377e-01
1.03624590401583316e+00
1.03624590401583316e+00
1.03624590401583316e+00
9.87880224278059216e-01
9.87880224278059216e-01
9.87880224278059216e-01
9.75802884830669015e-01
9.75802884830669015e-01
9.75802884830669015e-01
1.00874489575087889e+00
1.00874489575087889e+00
1.00874489575087889e+00
9.55476814905780736e-01
9.55476814905780736e-01
9.55476814905780736e-01
9.88026544264387407e-01
9.88026544264387407e-01
9.88026544264387407e-01
9.54293212779436684e-01
9.54293212779436684e-01
9.54293212779436684e-01
9.61790581602859684e-01
9.61790581602859684e-01
9.61790581602859684e-01
9.79207949097061214e-01
9.79207949097061214e-01
9.79207949097061214e-01
1.04056460881404944e+00
1.04056460881404944e+00
1.04056460881404944e+00
1.01586453191553683e+00
1.01586453191553683e+00
1.01586453191553683e+00
1.05650376801740475e+00
1.05650376801740475e+00
1.05650376801740475e+00
1.04309779639113764e+00
1.04309779639113764e+00
1.04309779639113764e+00
9.98248129492859904e-01
9.98248129492859904e-01
9.98248129492859904e-01
9.40391688000870141e-01
9.40391688000870141e-01
9.40391688000870141e-01
9.81283091961023479e-01
9.81283091961023479e-01
9.81283091961023479e-01
9.86658083552689247e-01
9.86658083552689247e-01
9.86658083552689247e-01
1.06276949867665538e+00
1.06276949867665538e+00
1.06276949867665538e+00
1.00914152784905764e+00
1.00914152784905764e+00
1.00914152784905764e+00
9.42650845613562383e-01
9.42650845613562383e-01
9.42650845613562383e-01
9.78195571760539950e-01
9.78195571760539950e-01
9.78195571760539950e-01
9.99640721673907273e-01
9.99640721673907273e-01
9.99640721673907273e-01
9.60911891939132179e-01
9.60911891939132179e-01
9.60911891939132179e-01
1.04392291822768102e+00
1.04392291822768102e+00
1.04392291822768102e+00
9.60276680657386028e-01
9.60276680657386028e-01
9.60276680657386028e-01
9.58344825879371753e-01
9.58344825879371753e-01
9.58344825879371753e-01
9.47671005463988747e-01
9.47671005463988747e-01
9.47671005463988747e-01
9.75762793371594994e-01
9.75762793371594994e-01
9.75762793371594994e-01
1.01072085913639009e+00
1.01072085913639009e+00
1.01072085913639009e+00
9.77870396618996329e-01
9.77870396618996329e-01
9.77870396618996329e-01
1.01104247141711201e+00
1.01104247141711201e+00
1.01104247141711201e+00
9.72475961246719867e-01
9.72475961246719867e-01
9.72475961246719867e-01
1.03354862122404367e+00
1.03354862122404367e+00
1.03354862122404367e+00
9.96125315066133776e-01
9.96125315066133776e-01
9.96125315066133776e-01
9.87511359203820938e-01
9.87511359203820938e-01
9.87511359203820938e-01
1.00746192885128605e+00
1.00746192885128605e+00
1.00746192885128605e+00
1.02525012242993840e+00
1.02525012242993840e+00
1.02525012242993840e+00
9.66764964973316876e-01
9.66764964973316876e-01
9.66764964973316876e-01
9.88483577157014959e-01
9.88483577157014959e-01
9.88483577157014959e-01
9.75384320847793251e-01
9.75384320847793251e-01
9.75384320847793251e-01
9.26135870097750891e-01
9.26135870097750891e-01
9.26135870097750891e-01
1.03966855978523243e+00
1.03966855978523243e+00
1.03966855978523243e+00
1.03350710183153316e+00
1.03350710183153316e+00
1.03350710183153316e+00
9.42742944969537033e-01
9.42742944969537033e-01
9.42742944969537033e-01
9.67605654230421219e-01
9.67605654230421219e-01
9.67605654230421219e-01
1.02073325769983603e+00
1.02073325769983603e+00
1.02073325769983603e+00
9.96097304855298016e-01
9.96097304855298016e-01
9.96097304855298016e-01
9.52911509561286452e-01
9.52911509561286452e-01
9.52911509561286452e-01
1.03975076069214856e+00
1.03975076069214856e+00
1.03975076069214856e+00
9.79155616225144021e-01
9.79155616225144021e-01
9.79155616225144021e-01
9.95340185963824675e-01
9.95340185963824675e-01
9.95340185963824675e-01
9.40033896009579095e-01
9.40033896009579095e-01
9.40033896009579095e-01
9.51385999984899144e-01
9.51385999984899144e-01
9.51385999984899144e-01
1.02621613132914713e+00
1.02621613132914713e+00
1.02621613132914713e+00
1.03671407965196538e+00
1.03671407965196538e+00
1.03671407965196538e+00
1.01851001867262281e+00
1.01851001867262281e+00
1.01851001867262281e+00
9.67970636219353753e-01
9.67970636219353753e-01
9.67970636219353753e-01
1.01154999821992808e+00
1.01154999821992808e+00
1.01154999821992808e+00
9.83654206231201922e-01
9.83654206231201922e-01
9.83654206231201922e-01
9.81915177777181958e-01
9.81915177777181958e-01
9.81915177777181958e-01
9.14760805557213619e-01
9.14760805557213619e-01
9.14760805557213619e-01
8.87483429251662348e-01
8.87483429251662348e-01
8.87483429251662348e-01
9.02369650639755383e-01
9.02369650639755383e-01
9.02369650639755383e-01
1.01385868996482009e+00
1.01385868996482009e+00
1.01385868996482009e+00
9.81486301900263425e-01
9.81486301900263425e-01
9.81486301900263425e-01
1.00571642478550949e+00
1.00571642478550949e+00
1.00571642478550949e+00
9.26158496201629378e-01
9.26158496201629378e-01
9.26158496201629378e-01
9.55325041684499499e-01
9.55325041684499499e-01
9.55325041684499499e-01
1.00896950247866068e+00
1.00896950247866068e+00
1.00896950247866068e+00
1.01896437043239141e+00
1.01896437043239141e+00
1.01896437043239141e+00
1.04110847888920843e+00
1.04110847888920843e+00
1.04110847888920843e+00
1.01108905988555065e+00
1.01108905988555065e+00
1.01108905988555065e+00
9.51629928449736040e-01
9.51629928449736040e-01
9.51629928449736040e-01
1.03739399824833556e+00
1.03739399824833556e+00
1.03739399824833556e+00
1.03415425696249130e+00
1.03415425696249130e+00
1.03415425696249130e+00
9.92910350132246822e-01
9.92910350132246822e-01
9.92910350132246822e-01
9.69269554440777337e-01
9.69269554440777337e-01
9.69269554440777337e-01
1.02062755172018016e+00
1.02062755172018016e+00
1.02062755172018016e+00
9.89380490213877861e-01
9.89380490213877861e-01
9.89380490213877861e-01
9.16231128555819008e-01
9.16231128555819008e-01
9.16231128555819008e-01
9.87228858052457414e-01
9.87228858052457414e-01
9.87228858052457414e-01
1.01476675254004944e+00
1.01476675254004944e+00
1.01476675254004944e+00
9.45902441741003019e-01
9.45902441741003019e-01
9.45902441741003019e-01
9.48109254714096905e-01
9.48109254714096905e-01
9.48109254714096905e-01
9.70215060524209583e-01
9.70215060524209583e-01
9.70215060524209583e-01
9.38745609637311129e-01
9.38745609637311129e-01
9.38745609637311129e-01
1.01360962728579684e+00
1.01360962728579684e+00
1.01360962728579684e+00
9.82517953742743755e-01
9.82517953742743755e-01
9.82517953742743755e-01
1.01345510905213154e+00
1.01345510905213154e+00
1.01345510905213154e+00
1.02252486336426562e+00
1.02252486336426562e+00
1.02252486336426562e+00
1.02203041373054537e+00
1.02203041373054537e+00
1.02203041373054537e+00
1.00799498607637084e+00
1.00799498607637084e+00
1.00799498607637084e+00
1.01498296023434098e+00
1.01498296023434098e+00
1.01498296023434098e+00
1.01146800883432975e+00
1.01146800883432975e+00
1.01146800883432975e+00
1.00250204426254297e+00
1.00250204426254297e+00
1.00250204426254297e+00
1.00587028163884562e+00
1.00587028163884562e+00
1.00587028163884562e+00
1.00120920261432245e+00
1.00120920261432245e+00
1.00120920261432245e+00
1.00945090846145047e+00
1.00945090846145047e+00
1.00945090846145047e+00
9.92158651667409686e-01
9.92158651667409686e-01
9.92158651667409686e-01
1.00053172643218780e+00
1.00053172643218780e+00
1.00053172643218780e+00
9.98788401324852249e-01
9.98788401324852249e-01
9.98788401324852249e-01
9.48607391159440816e-01
9.48607391159440816e-01
9.48607391159440816e-01
9.88563666358665105e-01
9.88563666358665105e-01
9.88563666358665105e-01
9.76511611882541097e-01
9.76511611882541097e-01
9.76511611882541097e-01
9.65736719614535999e-01
9.65736719614535999e-01
9.65736719614535999e-01
9.63450794209520622e-01
9.63450794209520622e-01
9.63450794209520622e-01
1.02191943781590533e+00
1.02191943781590533e+00
1.02191943781590533e+00
9.91482703255080033e-01
9.91482703255080033e-01
9.91482703255080033e-01


        </DataArray>

      </PointData>

      <CellData/>

      <Points>

        <DataArray type="Float64" NumberOfComponents="3" format="ascii">

0.1082531754723032 0.6875000000007816 0 0.23533274979922561 0.77093399389351469 0 0.10409951422139101 0.81206782209691231 0 0.23533274979922561 0.77093399389351469 0 0.1082531754723032 0.6875000000007816 0 0.21809253452218619 0.65480892822618109 0 0.24418615484441761 0.35773612382016978 0 0.121259140952891 0.43112117036853742 0 0.1082531754734323 0.31250000000117473 0 0.75000000000057243 0.35048094716480432 0 0.88173731489851925 0.33077402607778361 0 0.81242894672211508 0.45500248311961472 0 0.121259140952891 0.43112117036853742 0 0.24418615484441761 0.35773612382016978 0 0.22257735880419699 0.47344721641341742 0 0.81242894672211508 0.45500248311961472 0 0.88173731489851925 0.33077402607778361 0 0.915464298762109 0.43749999999886913 0 0 0.62500000000121547 0 0 0.50000000000206146 0 0.1371230538040123 0.56179824718362847 0 0.82212678063041267 0.67678595194836966 0 0.89051480781310632 0.79665793440246835 0 0.76243180583607129 0.78687675331113149 0 0.76243180583607129 0.78687675331113149 0 0.69010814643829166 0.89298495739101336 0 0.62844955668446423 0.7850749770380413 0 0.89051480781310632 0.79665793440246835 0 0.82212678063041267 0.67678595194836966 0 0.92266244547590082 0.68749999999917555 0 0 0.50000000000206146 0 0.121259140952891 0.43112117036853742 0 0.1371230538040123 0.56179824718362847 0 0.1082531754723032 0.6875000000007816 0 0 0.62500000000121547 0 0.1371230538040123 0.56179824718362847 0 0.75000000000032374 0.56698729811007709 0 0.88927506082488361 0.56409486310635837 0 0.82212678063041267 0.67678595194836966 0 0.81242894672211508 0.45500248311961472 0 0.88927506082488361 0.56409486310635837 0 0.75000000000032374 0.56698729811007709 0 0.69851598570178741 0.68211701800612057 0 0.56496004948275869 0.67675037307860475 0 0.62752533658682441 0.56838075195614346 0 0.69851598570178741 0.68211701800612057 0 0.76243180583607129 0.78687675331113149 0 0.62844955668446423 0.7850749770380413 0 0.23533274979922561 0.77093399389351469 0 0.18802967116092181 0.89415349436770275 0 0.10409951422139101 0.81206782209691231 0 0.121259140952891 0.43112117036853742 0 0.22257735880419699 0.47344721641341742 0 0.1371230538040123 0.56179824718362847 0 0.75000000000032374 0.56698729811007709 0 0.69851598570178741 0.68211701800612057 0 0.62752533658682441 0.56838075195614346 0 0.56496004948275869 0.67675037307860475 0 0.69851598570178741 0.68211701800612057 0 0.62844955668446423 0.7850749770380413 0 0.1371230538040123 0.56179824718362847 0 0.22257735880419699 0.47344721641341742 0 0.26982811998763367 0.56544650815856912 0 0.21809253452218619 0.65480892822618109 0 0.1371230538040123 0.56179824718362847 0 0.26982811998763367 0.56544650815856912 0 0.24418615484441761 0.35773612382016978 0 0.1082531754734323 0.31250000000117473 0 0.20767261601459541 0.25628918442207171 0 0.88173731489851925 0.33077402607778361 0 0.75000000000057243 0.35048094716480432 0 0.79891106056046712 0.25007334953587562 0 0.75000000000032374 0.56698729811007709 0 0.82212678063041267 0.67678595194836966 0 0.69851598570178741 0.68211701800612057 0 0.81249999999950517 0.1082531754733404 0 0.89658421694297741 0.1933620068391701 0 0.79891106056046712 0.25007334953587562 0 0.81249999999950517 0.1082531754733404 0 0.79891106056046712 0.25007334953587562 0 0.73983916756365475 0.17530677078674589 0 0.23533274979922561 0.77093399389351469 0 0.21809253452218619 0.65480892822618109 0 0.32607333794064219 0.67760114260606152 0 0.1082531754723032 0.6875000000007816 0 0.1371230538040123 0.56179824718362847 0 0.21809253452218619 0.65480892822618109 0 0.69851598570178741 0.68211701800612057 0 0.82212678063041267 0.67678595194836966 0 0.76243180583607129 0.78687675331113149 0 0.69010814643829166 0.89298495739101336 0 0.76243180583607129 0.78687675331113149 0 0.80886664387416207 0.89717308644237903 0 0.43750000000181222 0.89174682452709564 0 0.31258827852827581 0.89214793616708443 0 0.37776173212361452 0.78514649317305008 0 0.43750000000181222 0.89174682452709564 0 0.37500000000156292 1 0 0.31258827852827581 0.89214793616708443 0 0.121259140952891 0.43112117036853742 0 0 0.37500000000156292 0 0.1082531754734323 0.31250000000117473 0 0.50000000000206146 1 0 0.37500000000156292 1 0 0.43750000000181222 0.89174682452709564 0 0.31258827852827581 0.89214793616708443 0 0.18802967116092181 0.89415349436770275 0 0.23533274979922561 0.77093399389351469 0 0 0.50000000000206146 0 0 0.37500000000156292 0 0.121259140952891 0.43112117036853742 0 0.62844955668446423 0.7850749770380413 0 0.69010814643829166 0.89298495739101336 0 0.56327595140699671 0.89211526915426331 0 0.69010814643829166 0.89298495739101336 0 0.62500000000121547 1 0 0.56327595140699671 0.89211526915426331 0 0.25000000000104189 1 0 0.18802967116092181 0.89415349436770275 0 0.31258827852827581 0.89214793616708443 0 0.50000000000206146 1 0 0.43750000000181222 0.89174682452709564 0 0.56327595140699671 0.89211526915426331 0 0.56249999999885147 0.1082531754730395 0 0.62499999999901068 0 0 0.68749999999926592 0.1082531754732875 0 1 0.49999999999869221 0 1 0.62499999999901068 0 0.88927506082488361 0.56409486310635837 0 0 0.25000000000104189 0 0.12076953676380731 0.18690935762408761 0 0.1082531754734323 0.31250000000117473 0 0.49999999999869221 0 0 0.62499999999901068 0 0 0.56249999999885147 0.1082531754730395 0 0.62500000000121547 1 0 0.50000000000206146 1 0 0.56327595140699671 0.89211526915426331 0 0.37500000000156292 1 0 0.25000000000104189 1 0 0.31258827852827581 0.89214793616708443 0 0.31281086598417152 0.10449318608631281 0 0.37499999999904599 0 0 0.43749999999910871 0.1082531754729984 0 0.43750000000181222 0.89174682452709564 0 0.37776173212361452 0.78514649317305008 0 0.50046028868828263 0.78376912307435687 0 0 0.37500000000156292 0 0 0.25000000000104189 0 0.1082531754734323 0.31250000000117473 0 0.49999999999869221 0 0 0.56249999999885147 0.1082531754730395 0 0.43749999999910871 0.1082531754729984 0 0.43750000000181222 0.89174682452709564 0 0.50046028868828263 0.78376912307435687 0 0.56327595140699671 0.89211526915426331 0 0.74999999999934042 0 0 0.81249999999950517 0.1082531754733404 0 0.68749999999926592 0.1082531754732875 0 0.37499999999904599 0 0 0.49999999999869221 0 0 0.43749999999910871 0.1082531754729984 0 0.25000000000104189 1 0 0.12500000000052089 1 0 0.18802967116092181 0.89415349436770275 0 0.50046028868828263 0.78376912307435687 0 0.62844955668446423 0.7850749770380413 0 0.56327595140699671 0.89211526915426331 0 0.37776173212361452 0.78514649317305008 0 0.31258827852827581 0.89214793616708443 0 0.23533274979922561 0.77093399389351469 0 0.62499999999901068 0 0 0.74999999999934042 0 0 0.68749999999926592 0.1082531754732875 0 1 0.74999999999934042 0 1 0.87499999999967015 0 0.89051480781310632 0.79665793440246835 0 0 0.25000000000104189 0 0 0.12500000000052089 0 0.12076953676380731 0.18690935762408761 0 0.74999999999934042 0 0 0.87499999999967015 0 0 0.81249999999950517 0.1082531754733404 0 0.24999999999941069 0 0 0.37499999999904599 0 0 0.31281086598417152 0.10449318608631281 0 0.50046028868828263 0.78376912307435687 0 0.37776173212361452 0.78514649317305008 0 0.44078402250377968 0.67714785211715212 0 0.68768773896438518 0.4586835206367198 0 0.75000000000032374 0.56698729811007709 0 0.62752533658682441 0.56838075195614346 0 0.31411863959822661 0.24965544328045999 0 0.37953773393552892 0.34812185820708452 0 0.24418615484441761 0.35773612382016978 0 0.68768773896438518 0.4586835206367198 0 0.81242894672211508 0.45500248311961472 0 0.75000000000032374 0.56698729811007709 0 1 0.24999999999941069 0 1 0.37499999999904599 0 0.88173731489851925 0.33077402607778361 0 0 0.75000000000034761 0 0 0.62500000000121547 0 0.1082531754723032 0.6875000000007816 0 0.50048844149666749 0.56727788297625459 0 0.44078402250377968 0.67714785211715212 0 0.38694285807596462 0.5672991787102919 0 0.50108503093851109 0.35012252869403671 0 0.44301038174930041 0.45684931552185398 0 0.37953773393552892 0.34812185820708452 0 0.50046028868828263 0.78376912307435687 0 0.56496004948275869 0.67675037307860475 0 0.62844955668446423 0.7850749770380413 0 0.68768773896438518 0.4586835206367198 0 0.75000000000057243 0.35048094716480432 0 0.81242894672211508 0.45500248311961472 0 0.56349980387502452 0.45846841892908402 0 0.62512662990940393 0.35044303886909911 0 0.68768773896438518 0.4586835206367198 0 0.50048844149666749 0.56727788297625459 0 0.38694285807596462 0.5672991787102919 0 0.44301038174930041 0.45684931552185398 0 0.50046028868828263 0.78376912307435687 0 0.44078402250377968 0.67714785211715212 0 0.56496004948275869 0.67675037307860475 0 0.50108503093851109 0.35012252869403671 0 0.37953773393552892 0.34812185820708452 0 0.43750000000200551 0.24222777169198509 0 0.75000000000034761 1 0 0.62500000000121547 1 0 0.69010814643829166 0.89298495739101336 0 0.68768773896438518 0.4586835206367198 0 0.62512662990940393 0.35044303886909911 0 0.75000000000057243 0.35048094716480432 0 0.56496004948275869 0.67675037307860475 0 0.44078402250377968 0.67714785211715212 0 0.50048844149666749 0.56727788297625459 0 0.56349980387502452 0.45846841892908402 0 0.44301038174930041 0.45684931552185398 0 0.50108503093851109 0.35012252869403671 0 0.50048844149666749 0.56727788297625459 0 0.44301038174930041 0.45684931552185398 0 0.56349980387502452 0.45846841892908402 0 0.56349980387502452 0.45846841892908402 0 0.50108503093851109 0.35012252869403671 0 0.62512662990940393 0.35044303886909911 0 0.43750000000200551 0.24222777169198509 0 0.37953773393552892 0.34812185820708452 0 0.31411863959822661 0.24965544328045999 0 0.56496004948275869 0.67675037307860475 0 0.50048844149666749 0.56727788297625459 0 0.62752533658682441 0.56838075195614346 0 0.56349980387502452 0.45846841892908402 0 0.68768773896438518 0.4586835206367198 0 0.62752533658682441 0.56838075195614346 0 0.50048844149666749 0.56727788297625459 0 0.56349980387502452 0.45846841892908402 0 0.62752533658682441 0.56838075195614346 0 0.75000000000057243 0.35048094716480432 0 0.62512662990940393 0.35044303886909911 0 0.68668231842078242 0.24762892664808989 0 0.50108503093851109 0.35012252869403671 0 0.43750000000200551 0.24222777169198509 0 0.56250000000143974 0.2422277716920859 0 0.62512662990940393 0.35044303886909911 0 0.50108503093851109 0.35012252869403671 0 0.56250000000143974 0.2422277716920859 0 0.68668231842078242 0.24762892664808989 0 0.62512662990940393 0.35044303886909911 0 0.56250000000143974 0.2422277716920859 0 0.22257735880419699 0.47344721641341742 0 0.24418615484441761 0.35773612382016978 0 0.32815957677880009 0.4577243358118348 0 0.12076953676380731 0.18690935762408761 0 0.19185372118111221 0.092925648673580788 0 0.25103557339309318 0.17464499738446629 0 0.20767261601459541 0.25628918442207171 0 0.12076953676380731 0.18690935762408761 0 0.25103557339309318 0.17464499738446629 0 0 0.87499999999950151 0 0 0.75000000000034761 0 0.10409951422139101 0.81206782209691231 0 0.1249999999997731 0 0 0.24999999999941069 0 0 0.19185372118111221 0.092925648673580788 0 1 0.1249999999997731 0 1 0.24999999999941069 0 0.89658421694297741 0.1933620068391701 0 0.88927506082488361 0.56409486310635837 0 0.81242894672211508 0.45500248311961472 0 0.915464298762109 0.43749999999886913 0 0.87499999999950151 1 0 0.75000000000034761 1 0 0.80886664387416207 0.89717308644237903 0 0.75000000000034761 1 0 0.69010814643829166 0.89298495739101336 0 0.80886664387416207 0.89717308644237903 0 0.82212678063041267 0.67678595194836966 0 0.88927506082488361 0.56409486310635837 0 0.92266244547590082 0.68749999999917555 0 0 0.75000000000034761 0 0.1082531754723032 0.6875000000007816 0 0.10409951422139101 0.81206782209691231 0 0.24999999999941069 0 0 0.31281086598417152 0.10449318608631281 0 0.19185372118111221 0.092925648673580788 0 1 0.24999999999941069 0 0.88173731489851925 0.33077402607778361 0 0.89658421694297741 0.1933620068391701 0 0.32815957677880009 0.4577243358118348 0 0.38694285807596462 0.5672991787102919 0 0.26982811998763367 0.56544650815856912 0 0.76243180583607129 0.78687675331113149 0 0.89051480781310632 0.79665793440246835 0 0.80886664387416207 0.89717308644237903 0 0.38694285807596462 0.5672991787102919 0 0.44078402250377968 0.67714785211715212 0 0.32607333794064219 0.67760114260606152 0 0.37776173212361452 0.78514649317305008 0 0.23533274979922561 0.77093399389351469 0 0.32607333794064219 0.67760114260606152 0 1 0.49999999999869221 0 0.88927506082488361 0.56409486310635837 0 0.915464298762109 0.43749999999886913 0 0.88173731489851925 0.33077402607778361 0 1 0.37499999999904599 0 0.915464298762109 0.43749999999886913 0 0.24418615484441761 0.35773612382016978 0 0.37953773393552892 0.34812185820708452 0 0.32815957677880009 0.4577243358118348 0 0.44301038174930041 0.45684931552185398 0 0.38694285807596462 0.5672991787102919 0 0.32815957677880009 0.4577243358118348 0 0.88927506082488361 0.56409486310635837 0 1 0.62499999999901068 0 0.92266244547590082 0.68749999999917555 0 1 0.74999999999934042 0 0.89051480781310632 0.79665793440246835 0 0.92266244547590082 0.68749999999917555 0 0 1 0 0 0.87499999999950151 0 0.091506350946494744 0.90849364905351082 0 1 1 0 0.87499999999950151 1 0 0.90849364905363228 0.90849364905367769 0 0 0 0 0.1249999999997731 0 0 0.091506350946417708 0.091506350946618076 0 0 0.12500000000052089 0 0 0 0 0.091506350946417708 0.091506350946618076 0 1 0 0 1 0.1249999999997731 0 0.90849364905355434 0.091506350946296292 0 0.87499999999967015 0 0 1 0 0 0.90849364905355434 0.091506350946296292 0 0.12500000000052089 1 0 0 1 0 0.091506350946494744 0.90849364905351082 0 1 0.87499999999967015 0 1 1 0 0.90849364905363228 0.90849364905367769 0 0.38694285807596462 0.5672991787102919 0 0.32607333794064219 0.67760114260606152 0 0.26982811998763367 0.56544650815856912 0 0.31411863959822661 0.24965544328045999 0 0.24418615484441761 0.35773612382016978 0 0.20767261601459541 0.25628918442207171 0 0.1082531754734323 0.31250000000117473 0 0.12076953676380731 0.18690935762408761 0 0.20767261601459541 0.25628918442207171 0 0.75000000000057243 0.35048094716480432 0 0.68668231842078242 0.24762892664808989 0 0.79891106056046712 0.25007334953587562 0 0.22257735880419699 0.47344721641341742 0 0.32815957677880009 0.4577243358118348 0 0.26982811998763367 0.56544650815856912 0 0.44078402250377968 0.67714785211715212 0 0.37776173212361452 0.78514649317305008 0 0.32607333794064219 0.67760114260606152 0 0.89658421694297741 0.1933620068391701 0 0.88173731489851925 0.33077402607778361 0 0.79891106056046712 0.25007334953587562 0 1 0.37499999999904599 0 1 0.49999999999869221 0 0.915464298762109 0.43749999999886913 0 0.37953773393552892 0.34812185820708452 0 0.44301038174930041 0.45684931552185398 0 0.32815957677880009 0.4577243358118348 0 0.32607333794064219 0.67760114260606152 0 0.21809253452218619 0.65480892822618109 0 0.26982811998763367 0.56544650815856912 0 1 0.1249999999997731 0 0.89658421694297741 0.1933620068391701 0 0.90849364905355434 0.091506350946296292 0 0 0.87499999999950151 0 0.10409951422139101 0.81206782209691231 0 0.091506350946494744 0.90849364905351082 0 0.1249999999997731 0 0 0.19185372118111221 0.092925648673580788 0 0.091506350946417708 0.091506350946618076 0 1 0.62499999999901068 0 1 0.74999999999934042 0 0.92266244547590082 0.68749999999917555 0 0.18802967116092181 0.89415349436770275 0 0.12500000000052089 1 0 0.091506350946494744 0.90849364905351082 0 0.89051480781310632 0.79665793440246835 0 1 0.87499999999967015 0 0.90849364905363228 0.90849364905367769 0 0.12076953676380731 0.18690935762408761 0 0 0.12500000000052089 0 0.091506350946417708 0.091506350946618076 0 0.81249999999950517 0.1082531754733404 0 0.87499999999967015 0 0 0.90849364905355434 0.091506350946296292 0 0.87499999999950151 1 0 0.80886664387416207 0.89717308644237903 0 0.90849364905363228 0.90849364905367769 0 0.68668231842078242 0.24762892664808989 0 0.62499999999892575 0.17524047358135519 0 0.73983916756365475 0.17530677078674589 0 0.31281086598417152 0.10449318608631281 0 0.43749999999910871 0.1082531754729984 0 0.37500000000232431 0.17524047358384309 0 0.62499999999892575 0.17524047358135519 0 0.56250000000143974 0.2422277716920859 0 0.49999999999934441 0.1752404735815076 0 0.56249999999885147 0.1082531754730395 0 0.68749999999926592 0.1082531754732875 0 0.62499999999892575 0.17524047358135519 0 0.56249999999885147 0.1082531754730395 0 0.62499999999892575 0.17524047358135519 0 0.49999999999934441 0.1752404735815076 0 0.56250000000143974 0.2422277716920859 0 0.43750000000200551 0.24222777169198509 0 0.49999999999934441 0.1752404735815076 0 0.43749999999910871 0.1082531754729984 0 0.56249999999885147 0.1082531754730395 0 0.49999999999934441 0.1752404735815076 0 0.68668231842078242 0.24762892664808989 0 0.56250000000143974 0.2422277716920859 0 0.62499999999892575 0.17524047358135519 0 0.43750000000200551 0.24222777169198509 0 0.31411863959822661 0.24965544328045999 0 0.37500000000232431 0.17524047358384309 0 0.49999999999934441 0.1752404735815076 0 0.43750000000200551 0.24222777169198509 0 0.37500000000232431 0.17524047358384309 0 0.43749999999910871 0.1082531754729984 0 0.49999999999934441 0.1752404735815076 0 0.37500000000232431 0.17524047358384309 0 0.62499999999892575 0.17524047358135519 0 0.68749999999926592 0.1082531754732875 0 0.73983916756365475 0.17530677078674589 0 0.68749999999926592 0.1082531754732875 0 0.81249999999950517 0.1082531754733404 0 0.73983916756365475 0.17530677078674589 0 0.10409951422139101 0.81206782209691231 0 0.18802967116092181 0.89415349436770275 0 0.091506350946494744 0.90849364905351082 0 0.89658421694297741 0.1933620068391701 0 0.81249999999950517 0.1082531754733404 0 0.90849364905355434 0.091506350946296292 0 0.19185372118111221 0.092925648673580788 0 0.12076953676380731 0.18690935762408761 0 0.091506350946417708 0.091506350946618076 0 0.37500000000232431 0.17524047358384309 0 0.31411863959822661 0.24965544328045999 0 0.25103557339309318 0.17464499738446629 0 0.31281086598417152 0.10449318608631281 0 0.37500000000232431 0.17524047358384309 0 0.25103557339309318 0.17464499738446629 0 0.80886664387416207 0.89717308644237903 0 0.89051480781310632 0.79665793440246835 0 0.90849364905363228 0.90849364905367769 0 0.19185372118111221 0.092925648673580788 0 0.31281086598417152 0.10449318608631281 0 0.25103557339309318 0.17464499738446629 0 0.79891106056046712 0.25007334953587562 0 0.68668231842078242 0.24762892664808989 0 0.73983916756365475 0.17530677078674589 0 0.31411863959822661 0.24965544328045999 0 0.20767261601459541 0.25628918442207171 0 0.25103557339309318 0.17464499738446629 0 

        </DataArray>

      </Points>

      <Cells>

        <DataArray type="Int32" Name="connectivity" format="ascii">

0 1 2 3 4 5 6 7 8 9 10 11 12 13 14 15 16 17 18 19 20 21 22 23 24 25 26 27 28 29 30 31 32 33 34 35 36 37 38 39 40 41 42 43 44 45 46 47 48 49 50 51 52 53 54 55 56 57 58 59 60 61 62 63 64 65 66 67 68 69 70 71 72 73 74 75 76 77 78 79 80 81 82 83 84 85 86 87 88 89 90 91 92 93 94 95 96 97 98 99 100 101 102 103 104 105 106 107 108 109 110 111 112 113 114 115 116 117 118 119 120 121 122 123 124 125 126 127 128 129 130 131 132 133 134 135 136 137 138 139 140 141 142 143 144 145 146 147 148 149 150 151 152 153 154 155 156 157 158 159 160 161 162 163 164 165 166 167 168 169 170 171 172 173 174 175 176 177 178 179 180 181 182 183 184 185 186 187 188 189 190 191 192 193 194 195 196 197 198 199 200 201 202 203 204 205 206 207 208 209 210 211 212 213 214 215 216 217 218 219 220 221 222 223 224 225 226 227 228 229 230 231 232 233 234 235 236 237 238 239 240 241 242 243 244 245 246 247 248 249 250 251 252 253 254 255 256 257 258 259 260 261 262 263 264 265 266 267 268 269 270 271 272 273 274 275 276 277 278 279 280 281 282 283 284 285 286 287 288 289 290 291 292 293 294 295 296 297 298 299 300 301 302 303 304 305 306 307 308 309 310 311 312 313 314 315 316 317 318 319 320 321 322 323 324 325 326 327 328 329 330 331 332 333 334 335 336 337 338 339 340 341 342 343 344 345 346 347 348 349 350 351 352 353 354 355 356 357 358 359 360 361 362 363 364 365 366 367 368 369 370 371 372 373 374 375 376 377 378 379 380 381 382 383 384 385 386 387 388 389 390 391 392 393 394 395 396 397 398 399 400 401 402 403 404 405 406 407 408 409 410 411 412 413 414 415 416 417 418 419 420 421 422 423 424 425 426 427 428 429 430 431 432 433 434 435 436 437 438 439 440 441 442 443 444 445 446 447 448 449 450 451 452 453 454 455 456 457 458 459 460 461 462 463 464 465 466 467 468 469 470 471 472 473 474 475 476 477 478 479 480 481 482 483 484 485 

        </DataArray>

        <DataArray type="Int32" Name="offsets" format="ascii">

3 6 9 12 15 18 21 24 27 30 33 36 39 42 45 48 51 54 57 60 63 66 69 72 75 78 81 84 87 90 93 96 99 102 105 108 111 114 117 120 123 126 129 132 135 138 141 144 147 150 153 156 159 162 165 168 171 174 177 180 183 186 189 192 195 198 201 204 207 210 213 216 219 222 225 228 231 234 237 240 243 246 249 252 255 258 261 264 267 270 273 276 279 282 285 288 291 294 297 300 303 306 309 312 315 318 321 324 327 330 333 336 339 342 345 348 351 354 357 360 363 366 369 372 375 378 381 384 387 390 393 396 399 402 405 408 411 414 417 420 423 426 429 432 435 438 441 444 447 450 453 456 459 462 465 468 471 474 477 480 483 486 

        </DataArray>

        <DataArray type="Int32" Name="types" format="ascii">

5 5 5 5 5 5 5 5 5 5 5 5 5 5 5 5 5 5 5 5 5 5 5 5 5 5 5 5 5 5 5 5 5 5 5 5 5 5 5 5 5 5 5 5 5 5 5 5 5 5 5 5 5 5 5 5 5 5 5 5 5 5 5 5 5 5 5 5 5 5 5 5 5 5 5 5 5 5 5 5 5 5 5 5 5 5 5 5 5 5 5 5 5 5 5 5 5 5 5 5 5 5 5 5 5 5 5 5 5 5 5 5 5 5 5 5 5 5 5 5 5 5 5 5 5 5 5 5 5 5 5 5 5 5 5 5 5 5 5 5 5 5 5 5 5 5 5 5 5 5 5 5 5 5 5 5 5 5 5 5 5 5 

        </DataArray>

      </Cells>

    </Piece>

  </UnstructuredGrid>

</VTKFile>

