<?xml version="1.0"?>

<VTKFile type="UnstructuredGrid" version="0.1">

  <UnstructuredGrid>

    <Piece NumberOfPoints="486" NumberOfCells="162">

      <PointData>

        <DataArray type="Float64" Name="K" format="ascii">

1.07326593734502262e+00
1.07326593734502262e+00
1.07326593734502262e+00
1.05850151127922976e+00
1.05850151127922976e+00
1.05850151127922976e+00
9.84494567506410290e-01
9.84494567506410290e-01
9.84494567506410290e-01
1.08958974581103774e+00
1.08958974581103774e+00
1.08958974581103774e+00
9.54459038278980820e-01
9.54459038278980820e-01
9.54459038278980820e-01
1.06901702025675238e+00
1.06901702025675238e+00
1.06901702025675238e+00
9.45701478113475047e-01
9.45701478113475047e-01
9.45701478113475047e-01
9.25991353792824823e-01
9.25991353792824823e-01
9.25991353792824823e-01
8.80230133580534702e-01
8.80230133580534702e-01
8.80230133580534702e-01
9.47217448259669692e-01
9.47217448259669692e-01
9.47217448259669692e-01
9.54057086181183456e-01
9.54057086181183456e-01
9.54057086181183456e-01
9.72214740501392227e-01
9.72214740501392227e-01
9.72214740501392227e-01
9.69135889039032583e-01
9.69135889039032583e-01
9.69135889039032583e-01
1.02343284462502448e+00
1.02343284462502448e+00
1.02343284462502448e+00
9.81577644293308627e-01
9.81577644293308627e-01
9.81577644293308627e-01
8.92444418049972210e-01
8.92444418049972210e-01
8.92444418049972210e-01
1.08848059679919995e+00
1.08848059679919995e+00
1.08848059679919995e+00
9.56037988398865668e-01
9.56037988398865668e-01
9.56037988398865668e-01
9.87521875275065408e-01
9.87521875275065408e-01
9.87521875275065408e-01
9.37157171883000961e-01
9.37157171883000961e-01
9.37157171883000961e-01
9.73342069381846864e-01
9.73342069381846864e-01
9.73342069381846864e-01
1.00314774500679516e+00
1.00314774500679516e+00
1.00314774500679516e+00
1.00322689699022227e+00
1.00322689699022227e+00
1.00322689699022227e+00
1.07303177603245192e+00
1.07303177603245192e+00
1.07303177603245192e+00
9.47845303519066928e-01
9.47845303519066928e-01
9.47845303519066928e-01
9.93054954094952813e-01
9.93054954094952813e-01
9.93054954094952813e-01
9.73266260474628830e-01
9.73266260474628830e-01
9.73266260474628830e-01
1.04646756433589427e+00
1.04646756433589427e+00
1.04646756433589427e+00
1.01102926037372587e+00
1.01102926037372587e+00
1.01102926037372587e+00
9.05681824892433984e-01
9.05681824892433984e-01
9.05681824892433984e-01
9.08422469733043414e-01
9.08422469733043414e-01
9.08422469733043414e-01
9.70633693352963012e-01
9.70633693352963012e-01
9.70633693352963012e-01
9.68773793064500843e-01
9.68773793064500843e-01
9.68773793064500843e-01
1.00425890528101647e+00
1.00425890528101647e+00
1.00425890528101647e+00
9.50923990892953652e-01
9.50923990892953652e-01
9.50923990892953652e-01
1.05591262899233707e+00
1.05591262899233707e+00
1.05591262899233707e+00
9.74199534637290365e-01
9.74199534637290365e-01
9.74199534637290365e-01
8.94535365942738414e-01
8.94535365942738414e-01
8.94535365942738414e-01
9.09388121149152018e-01
9.09388121149152018e-01
9.09388121149152018e-01
1.03899899627916015e+00
1.03899899627916015e+00
1.03899899627916015e+00
9.35068486045052549e-01
9.35068486045052549e-01
9.35068486045052549e-01
9.20780011112885655e-01
9.20780011112885655e-01
9.20780011112885655e-01
9.54055646754975117e-01
9.54055646754975117e-01
9.54055646754975117e-01
1.06826279029401117e+00
1.06826279029401117e+00
1.06826279029401117e+00
9.35263265599143967e-01
9.35263265599143967e-01
9.35263265599143967e-01
9.29459846837044634e-01
9.29459846837044634e-01
9.29459846837044634e-01
1.00182045923803154e+00
1.00182045923803154e+00
1.00182045923803154e+00
1.05635079934058984e+00
1.05635079934058984e+00
1.05635079934058984e+00
9.58090012220172427e-01
9.58090012220172427e-01
9.58090012220172427e-01
1.03559763415338701e+00
1.03559763415338701e+00
1.03559763415338701e+00
9.67883468207482167e-01
9.67883468207482167e-01
9.67883468207482167e-01
9.39618807780481013e-01
9.39618807780481013e-01
9.39618807780481013e-01
9.17654400134022441e-01
9.17654400134022441e-01
9.17654400134022441e-01
1.02229699174776978e+00
1.02229699174776978e+00
1.02229699174776978e+00
1.05464395559169088e+00
1.05464395559169088e+00
1.05464395559169088e+00
9.26397333704792048e-01
9.26397333704792048e-01
9.26397333704792048e-01
1.01552871181621662e+00
1.01552871181621662e+00
1.01552871181621662e+00
9.18674216284835254e-01
9.18674216284835254e-01
9.18674216284835254e-01
1.01329168579188278e+00
1.01329168579188278e+00
1.01329168579188278e+00
1.07421843073389089e+00
1.07421843073389089e+00
1.07421843073389089e+00
9.07148764510951056e-01
9.07148764510951056e-01
9.07148764510951056e-01
1.09556870890765445e+00
1.09556870890765445e+00
1.09556870890765445e+00
9.77501957561777601e-01
9.77501957561777601e-01
9.77501957561777601e-01
1.03565587780160606e+00
1.03565587780160606e+00
1.03565587780160606e+00
9.69932723626808380e-01
9.69932723626808380e-01
9.69932723626808380e-01
1.05747133392009229e+00
1.05747133392009229e+00
1.05747133392009229e+00
1.05030948679033642e+00
1.05030948679033642e+00
1.05030948679033642e+00
9.78403498345515987e-01
9.78403498345515987e-01
9.78403498345515987e-01
1.02459608457011697e+00
1.02459608457011697e+00
1.02459608457011697e+00
1.02731301053609592e+00
1.02731301053609592e+00
1.02731301053609592e+00
9.52158501847370498e-01
9.52158501847370498e-01
9.52158501847370498e-01
1.08004252881901053e+00
1.08004252881901053e+00
1.08004252881901053e+00
1.04324392796688570e+00
1.04324392796688570e+00
1.04324392796688570e+00
1.03827389295276129e+00
1.03827389295276129e+00
1.03827389295276129e+00
9.84876978591161634e-01
9.84876978591161634e-01
9.84876978591161634e-01
1.01123384381002501e+00
1.01123384381002501e+00
1.01123384381002501e+00
9.34667581826512661e-01
9.34667581826512661e-01
9.34667581826512661e-01
1.05310107048146628e+00
1.05310107048146628e+00
1.05310107048146628e+00
1.01408409365114305e+00
1.01408409365114305e+00
1.01408409365114305e+00
1.04411150461844371e+00
1.04411150461844371e+00
1.04411150461844371e+00
1.04827231112347574e+00
1.04827231112347574e+00
1.04827231112347574e+00
1.03317162715183142e+00
1.03317162715183142e+00
1.03317162715183142e+00
9.91538121867224453e-01
9.91538121867224453e-01
9.91538121867224453e-01
1.02010962188911702e+00
1.02010962188911702e+00
1.02010962188911702e+00
1.04473096598741000e+00
1.04473096598741000e+00
1.04473096598741000e+00
1.04166181295392790e+00
1.04166181295392790e+00
1.04166181295392790e+00
1.02431585384733936e+00
1.02431585384733936e+00
1.02431585384733936e+00
1.00406078819260647e+00
1.00406078819260647e+00
1.00406078819260647e+00
1.00801609079095411e+00
1.00801609079095411e+00
1.00801609079095411e+00
9.89480583183296014e-01
9.89480583183296014e-01
9.89480583183296014e-01
9.53882109950723867e-01
9.53882109950723867e-01
9.53882109950723867e-01
1.08843797551548094e+00
1.08843797551548094e+00
1.08843797551548094e+00
1.06230828306075953e+00
1.06230828306075953e+00
1.06230828306075953e+00
1.03844453211861398e+00
1.03844453211861398e+00
1.03844453211861398e+00
1.09389140722719236e+00
1.09389140722719236e+00
1.09389140722719236e+00
1.03219107442509683e+00
1.03219107442509683e+00
1.03219107442509683e+00
1.02848863003670443e+00
1.02848863003670443e+00
1.02848863003670443e+00
1.00894712845415202e+00
1.00894712845415202e+00
1.00894712845415202e+00
9.43410306764991380e-01
9.43410306764991380e-01
9.43410306764991380e-01
9.47261489432258186e-01
9.47261489432258186e-01
9.47261489432258186e-01
1.03032451236811373e+00
1.03032451236811373e+00
1.03032451236811373e+00
1.09824584479387144e+00
1.09824584479387144e+00
1.09824584479387144e+00
1.05240867452776832e+00
1.05240867452776832e+00
1.05240867452776832e+00
1.00187659421505826e+00
1.00187659421505826e+00
1.00187659421505826e+00
9.45536321126543178e-01
9.45536321126543178e-01
9.45536321126543178e-01
1.01355885245253519e+00
1.01355885245253519e+00
1.01355885245253519e+00
1.02164089600312535e+00
1.02164089600312535e+00
1.02164089600312535e+00
9.86775782105347665e-01
9.86775782105347665e-01
9.86775782105347665e-01
1.04546988819099274e+00
1.04546988819099274e+00
1.04546988819099274e+00
9.66730734329211749e-01
9.66730734329211749e-01
9.66730734329211749e-01
1.01948635453520353e+00
1.01948635453520353e+00
1.01948635453520353e+00
9.48243633357497728e-01
9.48243633357497728e-01
9.48243633357497728e-01
9.75581322275681062e-01
9.75581322275681062e-01
9.75581322275681062e-01
1.05875008704903073e+00
1.05875008704903073e+00
1.05875008704903073e+00
1.07279055552385172e+00
1.07279055552385172e+00
1.07279055552385172e+00
1.06493482564494890e+00
1.06493482564494890e+00
1.06493482564494890e+00
1.05773564116188457e+00
1.05773564116188457e+00
1.05773564116188457e+00
9.74743513760141123e-01
9.74743513760141123e-01
9.74743513760141123e-01
9.29198907180862288e-01
9.29198907180862288e-01
9.29198907180862288e-01
1.05705310673722286e+00
1.05705310673722286e+00
1.05705310673722286e+00
1.06895019737359154e+00
1.06895019737359154e+00
1.06895019737359154e+00
1.01587515520699645e+00
1.01587515520699645e+00
1.01587515520699645e+00
9.85162635386421126e-01
9.85162635386421126e-01
9.85162635386421126e-01
1.05702775479993383e+00
1.05702775479993383e+00
1.05702775479993383e+00
1.03267477390520601e+00
1.03267477390520601e+00
1.03267477390520601e+00
9.73451278542582399e-01
9.73451278542582399e-01
9.73451278542582399e-01
9.97841271653639117e-01
9.97841271653639117e-01
9.97841271653639117e-01
1.05197892525965253e+00
1.05197892525965253e+00
1.05197892525965253e+00
1.00242934406058315e+00
1.00242934406058315e+00
1.00242934406058315e+00
1.00719422990672491e+00
1.00719422990672491e+00
1.00719422990672491e+00
1.02515429388555623e+00
1.02515429388555623e+00
1.02515429388555623e+00
9.91937305455485419e-01
9.91937305455485419e-01
9.91937305455485419e-01
1.06791298839281446e+00
1.06791298839281446e+00
1.06791298839281446e+00
1.09265328148133389e+00
1.09265328148133389e+00
1.09265328148133389e+00
9.59310044147228536e-01
9.59310044147228536e-01
9.59310044147228536e-01
1.07290624393369272e+00
1.07290624393369272e+00
1.07290624393369272e+00
1.03445506182720970e+00
1.03445506182720970e+00
1.03445506182720970e+00
1.08696659662343187e+00
1.08696659662343187e+00
1.08696659662343187e+00
9.20628134234297346e-01
9.20628134234297346e-01
9.20628134234297346e-01
1.03459981352388053e+00
1.03459981352388053e+00
1.03459981352388053e+00
9.57764166921639792e-01
9.57764166921639792e-01
9.57764166921639792e-01
1.03254658274818190e+00
1.03254658274818190e+00
1.03254658274818190e+00
9.61148435054964612e-01
9.61148435054964612e-01
9.61148435054964612e-01
9.29252291691274102e-01
9.29252291691274102e-01
9.29252291691274102e-01
9.47363090347354220e-01
9.47363090347354220e-01
9.47363090347354220e-01
9.85916898571850719e-01
9.85916898571850719e-01
9.85916898571850719e-01
9.68805343781473094e-01
9.68805343781473094e-01
9.68805343781473094e-01
9.61641957028433025e-01
9.61641957028433025e-01
9.61641957028433025e-01
1.00048595451817279e+00
1.00048595451817279e+00
1.00048595451817279e+00
9.96690446894145876e-01
9.96690446894145876e-01
9.96690446894145876e-01
9.98873663957390523e-01
9.98873663957390523e-01
9.98873663957390523e-01
9.36982696377968161e-01
9.36982696377968161e-01
9.36982696377968161e-01
9.36537337646635715e-01
9.36537337646635715e-01
9.36537337646635715e-01
1.08648761823416451e+00
1.08648761823416451e+00
1.08648761823416451e+00
9.62869186381187236e-01
9.62869186381187236e-01
9.62869186381187236e-01
1.09929718112149644e+00
1.09929718112149644e+00
1.09929718112149644e+00
1.01816840391179553e+00
1.01816840391179553e+00
1.01816840391179553e+00
1.04546134546054481e+00
1.04546134546054481e+00
1.04546134546054481e+00
1.00553519133157643e+00
1.00553519133157643e+00
1.00553519133157643e+00
1.08052411766049294e+00
1.08052411766049294e+00
1.08052411766049294e+00
9.91560218125275616e-01
9.91560218125275616e-01
9.91560218125275616e-01
1.02004463528219036e+00
1.02004463528219036e+00
1.02004463528219036e+00


        </DataArray>

      </PointData>

      <CellData/>

      <Points>

        <DataArray type="Float64" NumberOfComponents="3" format="ascii">

0.1082531754723032 0.6875000000007816 0 0.23533274979922561 0.77093399389351469 0 0.10409951422139101 0.81206782209691231 0 0.23533274979922561 0.77093399389351469 0 0.1082531754723032 0.6875000000007816 0 0.21809253452218619 0.65480892822618109 0 0.24418615484441761 0.35773612382016978 0 0.121259140952891 0.43112117036853742 0 0.1082531754734323 0.31250000000117473 0 0.75000000000057243 0.35048094716480432 0 0.88173731489851925 0.33077402607778361 0 0.81242894672211508 0.45500248311961472 0 0.121259140952891 0.43112117036853742 0 0.24418615484441761 0.35773612382016978 0 0.22257735880419699 0.47344721641341742 0 0.81242894672211508 0.45500248311961472 0 0.88173731489851925 0.33077402607778361 0 0.915464298762109 0.43749999999886913 0 0 0.62500000000121547 0 0 0.50000000000206146 0 0.1371230538040123 0.56179824718362847 0 0.82212678063041267 0.67678595194836966 0 0.89051480781310632 0.79665793440246835 0 0.76243180583607129 0.78687675331113149 0 0.76243180583607129 0.78687675331113149 0 0.69010814643829166 0.89298495739101336 0 0.62844955668446423 0.7850749770380413 0 0.89051480781310632 0.79665793440246835 0 0.82212678063041267 0.67678595194836966 0 0.92266244547590082 0.68749999999917555 0 0 0.50000000000206146 0 0.121259140952891 0.43112117036853742 0 0.1371230538040123 0.56179824718362847 0 0.1082531754723032 0.6875000000007816 0 0 0.62500000000121547 0 0.1371230538040123 0.56179824718362847 0 0.75000000000032374 0.56698729811007709 0 0.88927506082488361 0.56409486310635837 0 0.82212678063041267 0.67678595194836966 0 0.81242894672211508 0.45500248311961472 0 0.88927506082488361 0.56409486310635837 0 0.75000000000032374 0.56698729811007709 0 0.69851598570178741 0.68211701800612057 0 0.56496004948275869 0.67675037307860475 0 0.62752533658682441 0.56838075195614346 0 0.69851598570178741 0.68211701800612057 0 0.76243180583607129 0.78687675331113149 0 0.62844955668446423 0.7850749770380413 0 0.23533274979922561 0.77093399389351469 0 0.18802967116092181 0.89415349436770275 0 0.10409951422139101 0.81206782209691231 0 0.121259140952891 0.43112117036853742 0 0.22257735880419699 0.47344721641341742 0 0.1371230538040123 0.56179824718362847 0 0.75000000000032374 0.56698729811007709 0 0.69851598570178741 0.68211701800612057 0 0.62752533658682441 0.56838075195614346 0 0.56496004948275869 0.67675037307860475 0 0.69851598570178741 0.68211701800612057 0 0.62844955668446423 0.7850749770380413 0 0.1371230538040123 0.56179824718362847 0 0.22257735880419699 0.47344721641341742 0 0.26982811998763367 0.56544650815856912 0 0.21809253452218619 0.65480892822618109 0 0.1371230538040123 0.56179824718362847 0 0.26982811998763367 0.56544650815856912 0 0.24418615484441761 0.35773612382016978 0 0.1082531754734323 0.31250000000117473 0 0.20767261601459541 0.25628918442207171 0 0.88173731489851925 0.33077402607778361 0 0.75000000000057243 0.35048094716480432 0 0.79891106056046712 0.25007334953587562 0 0.75000000000032374 0.56698729811007709 0 0.82212678063041267 0.67678595194836966 0 0.69851598570178741 0.68211701800612057 0 0.81249999999950517 0.1082531754733404 0 0.89658421694297741 0.1933620068391701 0 0.79891106056046712 0.25007334953587562 0 0.81249999999950517 0.1082531754733404 0 0.79891106056046712 0.25007334953587562 0 0.73983916756365475 0.17530677078674589 0 0.23533274979922561 0.77093399389351469 0 0.21809253452218619 0.65480892822618109 0 0.32607333794064219 0.67760114260606152 0 0.1082531754723032 0.6875000000007816 0 0.1371230538040123 0.56179824718362847 0 0.21809253452218619 0.65480892822618109 0 0.69851598570178741 0.68211701800612057 0 0.82212678063041267 0.67678595194836966 0 0.76243180583607129 0.78687675331113149 0 0.69010814643829166 0.89298495739101336 0 0.76243180583607129 0.78687675331113149 0 0.80886664387416207 0.89717308644237903 0 0.43750000000181222 0.89174682452709564 0 0.31258827852827581 0.89214793616708443 0 0.37776173212361452 0.78514649317305008 0 0.43750000000181222 0.89174682452709564 0 0.37500000000156292 1 0 0.31258827852827581 0.89214793616708443 0 0.121259140952891 0.43112117036853742 0 0 0.37500000000156292 0 0.1082531754734323 0.31250000000117473 0 0.50000000000206146 1 0 0.37500000000156292 1 0 0.43750000000181222 0.89174682452709564 0 0.31258827852827581 0.89214793616708443 0 0.18802967116092181 0.89415349436770275 0 0.23533274979922561 0.77093399389351469 0 0 0.50000000000206146 0 0 0.37500000000156292 0 0.121259140952891 0.43112117036853742 0 0.62844955668446423 0.7850749770380413 0 0.69010814643829166 0.89298495739101336 0 0.56327595140699671 0.89211526915426331 0 0.69010814643829166 0.89298495739101336 0 0.62500000000121547 1 0 0.56327595140699671 0.89211526915426331 0 0.25000000000104189 1 0 0.18802967116092181 0.89415349436770275 0 0.31258827852827581 0.89214793616708443 0 0.50000000000206146 1 0 0.43750000000181222 0.89174682452709564 0 0.56327595140699671 0.89211526915426331 0 0.56249999999885147 0.1082531754730395 0 0.62499999999901068 0 0 0.68749999999926592 0.1082531754732875 0 1 0.49999999999869221 0 1 0.62499999999901068 0 0.88927506082488361 0.56409486310635837 0 0 0.25000000000104189 0 0.12076953676380731 0.18690935762408761 0 0.1082531754734323 0.31250000000117473 0 0.49999999999869221 0 0 0.62499999999901068 0 0 0.56249999999885147 0.1082531754730395 0 0.62500000000121547 1 0 0.50000000000206146 1 0 0.56327595140699671 0.89211526915426331 0 0.37500000000156292 1 0 0.25000000000104189 1 0 0.31258827852827581 0.89214793616708443 0 0.31281086598417152 0.10449318608631281 0 0.37499999999904599 0 0 0.43749999999910871 0.1082531754729984 0 0.43750000000181222 0.89174682452709564 0 0.37776173212361452 0.78514649317305008 0 0.50046028868828263 0.78376912307435687 0 0 0.37500000000156292 0 0 0.25000000000104189 0 0.1082531754734323 0.31250000000117473 0 0.49999999999869221 0 0 0.56249999999885147 0.1082531754730395 0 0.43749999999910871 0.1082531754729984 0 0.43750000000181222 0.89174682452709564 0 0.50046028868828263 0.78376912307435687 0 0.56327595140699671 0.89211526915426331 0 0.74999999999934042 0 0 0.81249999999950517 0.1082531754733404 0 0.68749999999926592 0.1082531754732875 0 0.37499999999904599 0 0 0.49999999999869221 0 0 0.43749999999910871 0.1082531754729984 0 0.25000000000104189 1 0 0.12500000000052089 1 0 0.18802967116092181 0.89415349436770275 0 0.50046028868828263 0.78376912307435687 0 0.62844955668446423 0.7850749770380413 0 0.56327595140699671 0.89211526915426331 0 0.37776173212361452 0.78514649317305008 0 0.31258827852827581 0.89214793616708443 0 0.23533274979922561 0.77093399389351469 0 0.62499999999901068 0 0 0.74999999999934042 0 0 0.68749999999926592 0.1082531754732875 0 1 0.74999999999934042 0 1 0.87499999999967015 0 0.89051480781310632 0.79665793440246835 0 0 0.25000000000104189 0 0 0.12500000000052089 0 0.12076953676380731 0.18690935762408761 0 0.74999999999934042 0 0 0.87499999999967015 0 0 0.81249999999950517 0.1082531754733404 0 0.24999999999941069 0 0 0.37499999999904599 0 0 0.31281086598417152 0.10449318608631281 0 0.50046028868828263 0.78376912307435687 0 0.37776173212361452 0.78514649317305008 0 0.44078402250377968 0.67714785211715212 0 0.68768773896438518 0.4586835206367198 0 0.75000000000032374 0.56698729811007709 0 0.62752533658682441 0.56838075195614346 0 0.31411863959822661 0.24965544328045999 0 0.37953773393552892 0.34812185820708452 0 0.24418615484441761 0.35773612382016978 0 0.68768773896438518 0.4586835206367198 0 0.81242894672211508 0.45500248311961472 0 0.75000000000032374 0.56698729811007709 0 1 0.24999999999941069 0 1 0.37499999999904599 0 0.88173731489851925 0.33077402607778361 0 0 0.75000000000034761 0 0 0.62500000000121547 0 0.1082531754723032 0.6875000000007816 0 0.50048844149666749 0.56727788297625459 0 0.44078402250377968 0.67714785211715212 0 0.38694285807596462 0.5672991787102919 0 0.50108503093851109 0.35012252869403671 0 0.44301038174930041 0.45684931552185398 0 0.37953773393552892 0.34812185820708452 0 0.50046028868828263 0.78376912307435687 0 0.56496004948275869 0.67675037307860475 0 0.62844955668446423 0.7850749770380413 0 0.68768773896438518 0.4586835206367198 0 0.75000000000057243 0.35048094716480432 0 0.81242894672211508 0.45500248311961472 0 0.56349980387502452 0.45846841892908402 0 0.62512662990940393 0.35044303886909911 0 0.68768773896438518 0.4586835206367198 0 0.50048844149666749 0.56727788297625459 0 0.38694285807596462 0.5672991787102919 0 0.44301038174930041 0.45684931552185398 0 0.50046028868828263 0.78376912307435687 0 0.44078402250377968 0.67714785211715212 0 0.56496004948275869 0.67675037307860475 0 0.50108503093851109 0.35012252869403671 0 0.37953773393552892 0.34812185820708452 0 0.43750000000200551 0.24222777169198509 0 0.75000000000034761 1 0 0.62500000000121547 1 0 0.69010814643829166 0.89298495739101336 0 0.68768773896438518 0.4586835206367198 0 0.62512662990940393 0.35044303886909911 0 0.75000000000057243 0.35048094716480432 0 0.56496004948275869 0.67675037307860475 0 0.44078402250377968 0.67714785211715212 0 0.50048844149666749 0.56727788297625459 0 0.56349980387502452 0.45846841892908402 0 0.44301038174930041 0.45684931552185398 0 0.50108503093851109 0.35012252869403671 0 0.50048844149666749 0.56727788297625459 0 0.44301038174930041 0.45684931552185398 0 0.56349980387502452 0.45846841892908402 0 0.56349980387502452 0.45846841892908402 0 0.50108503093851109 0.35012252869403671 0 0.62512662990940393 0.35044303886909911 0 0.43750000000200551 0.24222777169198509 0 0.37953773393552892 0.34812185820708452 0 0.31411863959822661 0.24965544328045999 0 0.56496004948275869 0.67675037307860475 0 0.50048844149666749 0.56727788297625459 0 0.62752533658682441 0.56838075195614346 0 0.56349980387502452 0.45846841892908402 0 0.68768773896438518 0.4586835206367198 0 0.62752533658682441 0.56838075195614346 0 0.50048844149666749 0.56727788297625459 0 0.56349980387502452 0.45846841892908402 0 0.62752533658682441 0.56838075195614346 0 0.75000000000057243 0.35048094716480432 0 0.62512662990940393 0.35044303886909911 0 0.68668231842078242 0.24762892664808989 0 0.50108503093851109 0.35012252869403671 0 0.43750000000200551 0.24222777169198509 0 0.56250000000143974 0.2422277716920859 0 0.62512662990940393 0.35044303886909911 0 0.50108503093851109 0.35012252869403671 0 0.56250000000143974 0.2422277716920859 0 0.68668231842078242 0.24762892664808989 0 0.62512662990940393 0.35044303886909911 0 0.56250000000143974 0.2422277716920859 0 0.22257735880419699 0.47344721641341742 0 0.24418615484441761 0.35773612382016978 0 0.32815957677880009 0.4577243358118348 0 0.12076953676380731 0.18690935762408761 0 0.19185372118111221 0.092925648673580788 0 0.25103557339309318 0.17464499738446629 0 0.20767261601459541 0.25628918442207171 0 0.12076953676380731 0.18690935762408761 0 0.25103557339309318 0.17464499738446629 0 0 0.87499999999950151 0 0 0.75000000000034761 0 0.10409951422139101 0.81206782209691231 0 0.1249999999997731 0 0 0.24999999999941069 0 0 0.19185372118111221 0.092925648673580788 0 1 0.1249999999997731 0 1 0.24999999999941069 0 0.89658421694297741 0.1933620068391701 0 0.88927506082488361 0.56409486310635837 0 0.81242894672211508 0.45500248311961472 0 0.915464298762109 0.43749999999886913 0 0.87499999999950151 1 0 0.75000000000034761 1 0 0.80886664387416207 0.89717308644237903 0 0.75000000000034761 1 0 0.69010814643829166 0.89298495739101336 0 0.80886664387416207 0.89717308644237903 0 0.82212678063041267 0.67678595194836966 0 0.88927506082488361 0.56409486310635837 0 0.92266244547590082 0.68749999999917555 0 0 0.75000000000034761 0 0.1082531754723032 0.6875000000007816 0 0.10409951422139101 0.81206782209691231 0 0.24999999999941069 0 0 0.31281086598417152 0.10449318608631281 0 0.19185372118111221 0.092925648673580788 0 1 0.24999999999941069 0 0.88173731489851925 0.33077402607778361 0 0.89658421694297741 0.1933620068391701 0 0.32815957677880009 0.4577243358118348 0 0.38694285807596462 0.5672991787102919 0 0.26982811998763367 0.56544650815856912 0 0.76243180583607129 0.78687675331113149 0 0.89051480781310632 0.79665793440246835 0 0.80886664387416207 0.89717308644237903 0 0.38694285807596462 0.5672991787102919 0 0.44078402250377968 0.67714785211715212 0 0.32607333794064219 0.67760114260606152 0 0.37776173212361452 0.78514649317305008 0 0.23533274979922561 0.77093399389351469 0 0.32607333794064219 0.67760114260606152 0 1 0.49999999999869221 0 0.88927506082488361 0.56409486310635837 0 0.915464298762109 0.43749999999886913 0 0.88173731489851925 0.33077402607778361 0 1 0.37499999999904599 0 0.915464298762109 0.43749999999886913 0 0.24418615484441761 0.35773612382016978 0 0.37953773393552892 0.34812185820708452 0 0.32815957677880009 0.4577243358118348 0 0.44301038174930041 0.45684931552185398 0 0.38694285807596462 0.5672991787102919 0 0.32815957677880009 0.4577243358118348 0 0.88927506082488361 0.56409486310635837 0 1 0.62499999999901068 0 0.92266244547590082 0.68749999999917555 0 1 0.74999999999934042 0 0.89051480781310632 0.79665793440246835 0 0.92266244547590082 0.68749999999917555 0 0 1 0 0 0.87499999999950151 0 0.091506350946494744 0.90849364905351082 0 1 1 0 0.87499999999950151 1 0 0.90849364905363228 0.90849364905367769 0 0 0 0 0.1249999999997731 0 0 0.091506350946417708 0.091506350946618076 0 0 0.12500000000052089 0 0 0 0 0.091506350946417708 0.091506350946618076 0 1 0 0 1 0.1249999999997731 0 0.90849364905355434 0.091506350946296292 0 0.87499999999967015 0 0 1 0 0 0.90849364905355434 0.091506350946296292 0 0.12500000000052089 1 0 0 1 0 0.091506350946494744 0.90849364905351082 0 1 0.87499999999967015 0 1 1 0 0.90849364905363228 0.90849364905367769 0 0.38694285807596462 0.5672991787102919 0 0.32607333794064219 0.67760114260606152 0 0.26982811998763367 0.56544650815856912 0 0.31411863959822661 0.24965544328045999 0 0.24418615484441761 0.35773612382016978 0 0.20767261601459541 0.25628918442207171 0 0.1082531754734323 0.31250000000117473 0 0.12076953676380731 0.18690935762408761 0 0.20767261601459541 0.25628918442207171 0 0.75000000000057243 0.35048094716480432 0 0.68668231842078242 0.24762892664808989 0 0.79891106056046712 0.25007334953587562 0 0.22257735880419699 0.47344721641341742 0 0.32815957677880009 0.4577243358118348 0 0.26982811998763367 0.56544650815856912 0 0.44078402250377968 0.67714785211715212 0 0.37776173212361452 0.78514649317305008 0 0.32607333794064219 0.67760114260606152 0 0.89658421694297741 0.1933620068391701 0 0.88173731489851925 0.33077402607778361 0 0.79891106056046712 0.25007334953587562 0 1 0.37499999999904599 0 1 0.49999999999869221 0 0.915464298762109 0.43749999999886913 0 0.37953773393552892 0.34812185820708452 0 0.44301038174930041 0.45684931552185398 0 0.32815957677880009 0.4577243358118348 0 0.32607333794064219 0.67760114260606152 0 0.21809253452218619 0.65480892822618109 0 0.26982811998763367 0.56544650815856912 0 1 0.1249999999997731 0 0.89658421694297741 0.1933620068391701 0 0.90849364905355434 0.091506350946296292 0 0 0.87499999999950151 0 0.10409951422139101 0.81206782209691231 0 0.091506350946494744 0.90849364905351082 0 0.1249999999997731 0 0 0.19185372118111221 0.092925648673580788 0 0.091506350946417708 0.091506350946618076 0 1 0.62499999999901068 0 1 0.74999999999934042 0 0.92266244547590082 0.68749999999917555 0 0.18802967116092181 0.89415349436770275 0 0.12500000000052089 1 0 0.091506350946494744 0.90849364905351082 0 0.89051480781310632 0.79665793440246835 0 1 0.87499999999967015 0 0.90849364905363228 0.90849364905367769 0 0.12076953676380731 0.18690935762408761 0 0 0.12500000000052089 0 0.091506350946417708 0.091506350946618076 0 0.81249999999950517 0.1082531754733404 0 0.87499999999967015 0 0 0.90849364905355434 0.091506350946296292 0 0.87499999999950151 1 0 0.80886664387416207 0.89717308644237903 0 0.90849364905363228 0.90849364905367769 0 0.68668231842078242 0.24762892664808989 0 0.62499999999892575 0.17524047358135519 0 0.73983916756365475 0.17530677078674589 0 0.31281086598417152 0.10449318608631281 0 0.43749999999910871 0.1082531754729984 0 0.37500000000232431 0.17524047358384309 0 0.62499999999892575 0.17524047358135519 0 0.56250000000143974 0.2422277716920859 0 0.49999999999934441 0.1752404735815076 0 0.56249999999885147 0.1082531754730395 0 0.68749999999926592 0.1082531754732875 0 0.62499999999892575 0.17524047358135519 0 0.56249999999885147 0.1082531754730395 0 0.62499999999892575 0.17524047358135519 0 0.49999999999934441 0.1752404735815076 0 0.56250000000143974 0.2422277716920859 0 0.43750000000200551 0.24222777169198509 0 0.49999999999934441 0.1752404735815076 0 0.43749999999910871 0.1082531754729984 0 0.56249999999885147 0.1082531754730395 0 0.49999999999934441 0.1752404735815076 0 0.68668231842078242 0.24762892664808989 0 0.56250000000143974 0.2422277716920859 0 0.62499999999892575 0.17524047358135519 0 0.43750000000200551 0.24222777169198509 0 0.31411863959822661 0.24965544328045999 0 0.37500000000232431 0.17524047358384309 0 0.49999999999934441 0.1752404735815076 0 0.43750000000200551 0.24222777169198509 0 0.37500000000232431 0.17524047358384309 0 0.43749999999910871 0.1082531754729984 0 0.49999999999934441 0.1752404735815076 0 0.37500000000232431 0.17524047358384309 0 0.62499999999892575 0.17524047358135519 0 0.68749999999926592 0.1082531754732875 0 0.73983916756365475 0.17530677078674589 0 0.68749999999926592 0.1082531754732875 0 0.81249999999950517 0.1082531754733404 0 0.73983916756365475 0.17530677078674589 0 0.10409951422139101 0.81206782209691231 0 0.18802967116092181 0.89415349436770275 0 0.091506350946494744 0.90849364905351082 0 0.89658421694297741 0.1933620068391701 0 0.81249999999950517 0.1082531754733404 0 0.90849364905355434 0.091506350946296292 0 0.19185372118111221 0.092925648673580788 0 0.12076953676380731 0.18690935762408761 0 0.091506350946417708 0.091506350946618076 0 0.37500000000232431 0.17524047358384309 0 0.31411863959822661 0.24965544328045999 0 0.25103557339309318 0.17464499738446629 0 0.31281086598417152 0.10449318608631281 0 0.37500000000232431 0.17524047358384309 0 0.25103557339309318 0.17464499738446629 0 0.80886664387416207 0.89717308644237903 0 0.89051480781310632 0.79665793440246835 0 0.90849364905363228 0.90849364905367769 0 0.19185372118111221 0.092925648673580788 0 0.31281086598417152 0.10449318608631281 0 0.25103557339309318 0.17464499738446629 0 0.79891106056046712 0.25007334953587562 0 0.68668231842078242 0.24762892664808989 0 0.73983916756365475 0.17530677078674589 0 0.31411863959822661 0.24965544328045999 0 0.20767261601459541 0.25628918442207171 0 0.25103557339309318 0.17464499738446629 0 

        </DataArray>

      </Points>

      <Cells>

        <DataArray type="Int32" Name="connectivity" format="ascii">

0 1 2 3 4 5 6 7 8 9 10 11 12 13 14 15 16 17 18 19 20 21 22 23 24 25 26 27 28 29 30 31 32 33 34 35 36 37 38 39 40 41 42 43 44 45 46 47 48 49 50 51 52 53 54 55 56 57 58 59 60 61 62 63 64 65 66 67 68 69 70 71 72 73 74 75 76 77 78 79 80 81 82 83 84 85 86 87 88 89 90 91 92 93 94 95 96 97 98 99 100 101 102 103 104 105 106 107 108 109 110 111 112 113 114 115 116 117 118 119 120 121 122 123 124 125 126 127 128 129 130 131 132 133 134 135 136 137 138 139 140 141 142 143 144 145 146 147 148 149 150 151 152 153 154 155 156 157 158 159 160 161 162 163 164 165 166 167 168 169 170 171 172 173 174 175 176 177 178 179 180 181 182 183 184 185 186 187 188 189 190 191 192 193 194 195 196 197 198 199 200 201 202 203 204 205 206 207 208 209 210 211 212 213 214 215 216 217 218 219 220 221 222 223 224 225 226 227 228 229 230 231 232 233 234 235 236 237 238 239 240 241 242 243 244 245 246 247 248 249 250 251 252 253 254 255 256 257 258 259 260 261 262 263 264 265 266 267 268 269 270 271 272 273 274 275 276 277 278 279 280 281 282 283 284 285 286 287 288 289 290 291 292 293 294 295 296 297 298 299 300 301 302 303 304 305 306 307 308 309 310 311 312 313 314 315 316 317 318 319 320 321 322 323 324 325 326 327 328 329 330 331 332 333 334 335 336 337 338 339 340 341 342 343 344 345 346 347 348 349 350 351 352 353 354 355 356 357 358 359 360 361 362 363 364 365 366 367 368 369 370 371 372 373 374 375 376 377 378 379 380 381 382 383 384 385 386 387 388 389 390 391 392 393 394 395 396 397 398 399 400 401 402 403 404 405 406 407 408 409 410 411 412 413 414 415 416 417 418 419 420 421 422 423 424 425 426 427 428 429 430 431 432 433 434 435 436 437 438 439 440 441 442 443 444 445 446 447 448 449 450 451 452 453 454 455 456 457 458 459 460 461 462 463 464 465 466 467 468 469 470 471 472 473 474 475 476 477 478 479 480 481 482 483 484 485 

        </DataArray>

        <DataArray type="Int32" Name="offsets" format="ascii">

3 6 9 12 15 18 21 24 27 30 33 36 39 42 45 48 51 54 57 60 63 66 69 72 75 78 81 84 87 90 93 96 99 102 105 108 111 114 117 120 123 126 129 132 135 138 141 144 147 150 153 156 159 162 165 168 171 174 177 180 183 186 189 192 195 198 201 204 207 210 213 216 219 222 225 228 231 234 237 240 243 246 249 252 255 258 261 264 267 270 273 276 279 282 285 288 291 294 297 300 303 306 309 312 315 318 321 324 327 330 333 336 339 342 345 348 351 354 357 360 363 366 369 372 375 378 381 384 387 390 393 396 399 402 405 408 411 414 417 420 423 426 429 432 435 438 441 444 447 450 453 456 459 462 465 468 471 474 477 480 483 486 

        </DataArray>

        <DataArray type="Int32" Name="types" format="ascii">

5 5 5 5 5 5 5 5 5 5 5 5 5 5 5 5 5 5 5 5 5 5 5 5 5 5 5 5 5 5 5 5 5 5 5 5 5 5 5 5 5 5 5 5 5 5 5 5 5 5 5 5 5 5 5 5 5 5 5 5 5 5 5 5 5 5 5 5 5 5 5 5 5 5 5 5 5 5 5 5 5 5 5 5 5 5 5 5 5 5 5 5 5 5 5 5 5 5 5 5 5 5 5 5 5 5 5 5 5 5 5 5 5 5 5 5 5 5 5 5 5 5 5 5 5 5 5 5 5 5 5 5 5 5 5 5 5 5 5 5 5 5 5 5 5 5 5 5 5 5 5 5 5 5 5 5 5 5 5 5 5 5 

        </DataArray>

      </Cells>

    </Piece>

  </UnstructuredGrid>

</VTKFile>

