<?xml version="1.0"?>

<VTKFile type="UnstructuredGrid" version="0.1">

  <UnstructuredGrid>

    <Piece NumberOfPoints="486" NumberOfCells="162">

      <PointData>

        <DataArray type="Float64" Name="K" format="ascii">

1.00637032378522240e+00
1.00637032378522240e+00
1.00637032378522240e+00
1.00092176784399722e+00
1.00092176784399722e+00
1.00092176784399722e+00
1.01981230544831436e+00
1.01981230544831436e+00
1.01981230544831436e+00
1.00154611483825318e+00
1.00154611483825318e+00
1.00154611483825318e+00
1.03707480101836969e+00
1.03707480101836969e+00
1.03707480101836969e+00
9.82424490336794576e-01
9.82424490336794576e-01
9.82424490336794576e-01
1.00883909430144492e+00
1.00883909430144492e+00
1.00883909430144492e+00
1.10273359119688075e+00
1.10273359119688075e+00
1.10273359119688075e+00
1.01456523718363889e+00
1.01456523718363889e+00
1.01456523718363889e+00
1.10352377736944129e+00
1.10352377736944129e+00
1.10352377736944129e+00
1.01672449353290317e+00
1.01672449353290317e+00
1.01672449353290317e+00
1.02637791894668595e+00
1.02637791894668595e+00
1.02637791894668595e+00
1.05777257313759554e+00
1.05777257313759554e+00
1.05777257313759554e+00
1.02480956902385723e+00
1.02480956902385723e+00
1.02480956902385723e+00
1.00912975762127988e+00
1.00912975762127988e+00
1.00912975762127988e+00
1.01600907648696737e+00
1.01600907648696737e+00
1.01600907648696737e+00
9.82684988271062321e-01
9.82684988271062321e-01
9.82684988271062321e-01
1.03435342118319729e+00
1.03435342118319729e+00
1.03435342118319729e+00
1.02813245881555781e+00
1.02813245881555781e+00
1.02813245881555781e+00
9.83952956805547063e-01
9.83952956805547063e-01
9.83952956805547063e-01
1.04287009497141936e+00
1.04287009497141936e+00
1.04287009497141936e+00
1.02840587821244722e+00
1.02840587821244722e+00
1.02840587821244722e+00
1.02112099041505755e+00
1.02112099041505755e+00
1.02112099041505755e+00
1.00528462479323277e+00
1.00528462479323277e+00
1.00528462479323277e+00
1.04543594209356616e+00
1.04543594209356616e+00
1.04543594209356616e+00
9.94534323707161105e-01
9.94534323707161105e-01
9.94534323707161105e-01
9.82941175996217775e-01
9.82941175996217775e-01
9.82941175996217775e-01
9.66820433977959359e-01
9.66820433977959359e-01
9.66820433977959359e-01
1.03380031773022152e+00
1.03380031773022152e+00
1.03380031773022152e+00
1.06522053246384885e+00
1.06522053246384885e+00
1.06522053246384885e+00
1.06101855771196507e+00
1.06101855771196507e+00
1.06101855771196507e+00
1.04031796879200522e+00
1.04031796879200522e+00
1.04031796879200522e+00
1.04924334103637618e+00
1.04924334103637618e+00
1.04924334103637618e+00
1.03497468539264248e+00
1.03497468539264248e+00
1.03497468539264248e+00
9.95369478419106057e-01
9.95369478419106057e-01
9.95369478419106057e-01
9.91728668358043852e-01
9.91728668358043852e-01
9.91728668358043852e-01
1.03265602801928225e+00
1.03265602801928225e+00
1.03265602801928225e+00
9.54653599849255130e-01
9.54653599849255130e-01
9.54653599849255130e-01
9.53756714555668683e-01
9.53756714555668683e-01
9.53756714555668683e-01
1.03554450423671685e+00
1.03554450423671685e+00
1.03554450423671685e+00
9.51284845167145288e-01
9.51284845167145288e-01
9.51284845167145288e-01
9.83159495766256164e-01
9.83159495766256164e-01
9.83159495766256164e-01
1.08030036030630860e+00
1.08030036030630860e+00
1.08030036030630860e+00
1.06183618751562769e+00
1.06183618751562769e+00
1.06183618751562769e+00
1.01656855250173495e+00
1.01656855250173495e+00
1.01656855250173495e+00
9.30859818309285214e-01
9.30859818309285214e-01
9.30859818309285214e-01
1.06783820663783691e+00
1.06783820663783691e+00
1.06783820663783691e+00
9.80583132417575221e-01
9.80583132417575221e-01
9.80583132417575221e-01
1.01792355108495247e+00
1.01792355108495247e+00
1.01792355108495247e+00
1.06714202166678773e+00
1.06714202166678773e+00
1.06714202166678773e+00
1.00424307718224171e+00
1.00424307718224171e+00
1.00424307718224171e+00
9.68909298874873648e-01
9.68909298874873648e-01
9.68909298874873648e-01
9.40641095012160089e-01
9.40641095012160089e-01
9.40641095012160089e-01
9.78054820752746523e-01
9.78054820752746523e-01
9.78054820752746523e-01
1.02448554277132287e+00
1.02448554277132287e+00
1.02448554277132287e+00
9.46235723809583873e-01
9.46235723809583873e-01
9.46235723809583873e-01
1.00160929561221290e+00
1.00160929561221290e+00
1.00160929561221290e+00
9.61595954476009540e-01
9.61595954476009540e-01
9.61595954476009540e-01
1.03220693095867078e+00
1.03220693095867078e+00
1.03220693095867078e+00
1.05554076189879131e+00
1.05554076189879131e+00
1.05554076189879131e+00
9.54146897892551693e-01
9.54146897892551693e-01
9.54146897892551693e-01
1.01053355503351328e+00
1.01053355503351328e+00
1.01053355503351328e+00
1.00719391019164317e+00
1.00719391019164317e+00
1.00719391019164317e+00
1.04334163569682725e+00
1.04334163569682725e+00
1.04334163569682725e+00
1.04746023679066869e+00
1.04746023679066869e+00
1.04746023679066869e+00
1.03381468010003674e+00
1.03381468010003674e+00
1.03381468010003674e+00
9.64023569743998499e-01
9.64023569743998499e-01
9.64023569743998499e-01
1.01119465525416508e+00
1.01119465525416508e+00
1.01119465525416508e+00
9.53335798823483183e-01
9.53335798823483183e-01
9.53335798823483183e-01
9.51791732746225194e-01
9.51791732746225194e-01
9.51791732746225194e-01
9.70651466575604083e-01
9.70651466575604083e-01
9.70651466575604083e-01
1.03633805529327461e+00
1.03633805529327461e+00
1.03633805529327461e+00
1.01339753960324974e+00
1.01339753960324974e+00
1.01339753960324974e+00
9.33258862845965265e-01
9.33258862845965265e-01
9.33258862845965265e-01
9.94736737928421766e-01
9.94736737928421766e-01
9.94736737928421766e-01
9.79257058012249937e-01
9.79257058012249937e-01
9.79257058012249937e-01
9.91598015719363901e-01
9.91598015719363901e-01
9.91598015719363901e-01
1.03820694208918973e+00
1.03820694208918973e+00
1.03820694208918973e+00
9.86315816028875858e-01
9.86315816028875858e-01
9.86315816028875858e-01
9.25609790752491501e-01
9.25609790752491501e-01
9.25609790752491501e-01
9.39255229719059281e-01
9.39255229719059281e-01
9.39255229719059281e-01
9.47605542355279051e-01
9.47605542355279051e-01
9.47605542355279051e-01
1.02753724238681854e+00
1.02753724238681854e+00
1.02753724238681854e+00
1.00330129499179144e+00
1.00330129499179144e+00
1.00330129499179144e+00
1.03107403466161518e+00
1.03107403466161518e+00
1.03107403466161518e+00
9.94095928286533814e-01
9.94095928286533814e-01
9.94095928286533814e-01
1.01119371327094609e+00
1.01119371327094609e+00
1.01119371327094609e+00
9.51979996502190784e-01
9.51979996502190784e-01
9.51979996502190784e-01
9.36609388513219399e-01
9.36609388513219399e-01
9.36609388513219399e-01
9.58998396401056219e-01
9.58998396401056219e-01
9.58998396401056219e-01
1.05367323038955951e+00
1.05367323038955951e+00
1.05367323038955951e+00
1.04847062072572950e+00
1.04847062072572950e+00
1.04847062072572950e+00
1.03167228791014054e+00
1.03167228791014054e+00
1.03167228791014054e+00
1.01426171753723482e+00
1.01426171753723482e+00
1.01426171753723482e+00
1.07893289803020331e+00
1.07893289803020331e+00
1.07893289803020331e+00
9.63104044460673991e-01
9.63104044460673991e-01
9.63104044460673991e-01
1.01287863402923461e+00
1.01287863402923461e+00
1.01287863402923461e+00
1.00021792705398016e+00
1.00021792705398016e+00
1.00021792705398016e+00
1.03005384263854394e+00
1.03005384263854394e+00
1.03005384263854394e+00
1.09547099931266212e+00
1.09547099931266212e+00
1.09547099931266212e+00
1.02708134165139353e+00
1.02708134165139353e+00
1.02708134165139353e+00
1.04534180149312728e+00
1.04534180149312728e+00
1.04534180149312728e+00
9.61728834691412460e-01
9.61728834691412460e-01
9.61728834691412460e-01
9.88465398520288585e-01
9.88465398520288585e-01
9.88465398520288585e-01
1.08514100947438696e+00
1.08514100947438696e+00
1.08514100947438696e+00
9.54586660523896069e-01
9.54586660523896069e-01
9.54586660523896069e-01
9.71164924067328128e-01
9.71164924067328128e-01
9.71164924067328128e-01
1.04594657920561995e+00
1.04594657920561995e+00
1.04594657920561995e+00
9.78920001946852802e-01
9.78920001946852802e-01
9.78920001946852802e-01
1.04732267790516964e+00
1.04732267790516964e+00
1.04732267790516964e+00
9.58775620281884899e-01
9.58775620281884899e-01
9.58775620281884899e-01
1.09331576535703534e+00
1.09331576535703534e+00
1.09331576535703534e+00
1.07103942729206114e+00
1.07103942729206114e+00
1.07103942729206114e+00
9.92553981518816686e-01
9.92553981518816686e-01
9.92553981518816686e-01
9.87464302987232312e-01
9.87464302987232312e-01
9.87464302987232312e-01
1.01650583202533418e+00
1.01650583202533418e+00
1.01650583202533418e+00
1.00068199177305961e+00
1.00068199177305961e+00
1.00068199177305961e+00
1.00062947452267847e+00
1.00062947452267847e+00
1.00062947452267847e+00
1.01200408167928924e+00
1.01200408167928924e+00
1.01200408167928924e+00
9.87171463065760535e-01
9.87171463065760535e-01
9.87171463065760535e-01
1.00588985401813735e+00
1.00588985401813735e+00
1.00588985401813735e+00
9.62780237524096028e-01
9.62780237524096028e-01
9.62780237524096028e-01
1.03180143689369386e+00
1.03180143689369386e+00
1.03180143689369386e+00
1.03564755139918785e+00
1.03564755139918785e+00
1.03564755139918785e+00
1.01419026959614089e+00
1.01419026959614089e+00
1.01419026959614089e+00
1.03681286410284601e+00
1.03681286410284601e+00
1.03681286410284601e+00
9.81433546003925183e-01
9.81433546003925183e-01
9.81433546003925183e-01
9.86881878200956408e-01
9.86881878200956408e-01
9.86881878200956408e-01
1.02597052984506343e+00
1.02597052984506343e+00
1.02597052984506343e+00
9.88661086554473267e-01
9.88661086554473267e-01
9.88661086554473267e-01
9.80824772597027605e-01
9.80824772597027605e-01
9.80824772597027605e-01
9.90083378315995910e-01
9.90083378315995910e-01
9.90083378315995910e-01
1.00803083049487041e+00
1.00803083049487041e+00
1.00803083049487041e+00
1.06694597998566265e+00
1.06694597998566265e+00
1.06694597998566265e+00
1.07045603260749322e+00
1.07045603260749322e+00
1.07045603260749322e+00
9.95438312234506073e-01
9.95438312234506073e-01
9.95438312234506073e-01
1.01979606967951852e+00
1.01979606967951852e+00
1.01979606967951852e+00
1.05170598522118719e+00
1.05170598522118719e+00
1.05170598522118719e+00
9.89622453325570861e-01
9.89622453325570861e-01
9.89622453325570861e-01
1.00300774815241911e+00
1.00300774815241911e+00
1.00300774815241911e+00
9.58641404036635669e-01
9.58641404036635669e-01
9.58641404036635669e-01
9.94629785406486167e-01
9.94629785406486167e-01
9.94629785406486167e-01
9.58676914091663446e-01
9.58676914091663446e-01
9.58676914091663446e-01
9.61371760785637353e-01
9.61371760785637353e-01
9.61371760785637353e-01
9.76102082037422436e-01
9.76102082037422436e-01
9.76102082037422436e-01
9.74025805541636536e-01
9.74025805541636536e-01
9.74025805541636536e-01
9.99313897802905693e-01
9.99313897802905693e-01
9.99313897802905693e-01
9.49137105384921687e-01
9.49137105384921687e-01
9.49137105384921687e-01
1.02099370245183008e+00
1.02099370245183008e+00
1.02099370245183008e+00
1.00419787265118643e+00
1.00419787265118643e+00
1.00419787265118643e+00
1.00194519093380729e+00
1.00194519093380729e+00
1.00194519093380729e+00
9.48161609439209907e-01
9.48161609439209907e-01
9.48161609439209907e-01
9.52643123238933187e-01
9.52643123238933187e-01
9.52643123238933187e-01
9.93715994901115507e-01
9.93715994901115507e-01
9.93715994901115507e-01
9.96499516530299556e-01
9.96499516530299556e-01
9.96499516530299556e-01
1.06592606008395863e+00
1.06592606008395863e+00
1.06592606008395863e+00
1.01691080573329651e+00
1.01691080573329651e+00
1.01691080573329651e+00
1.00612034628386859e+00
1.00612034628386859e+00
1.00612034628386859e+00
1.04362985137463249e+00
1.04362985137463249e+00
1.04362985137463249e+00
1.02840630305570557e+00
1.02840630305570557e+00
1.02840630305570557e+00
9.89274296563071420e-01
9.89274296563071420e-01
9.89274296563071420e-01
1.02135851751734563e+00
1.02135851751734563e+00
1.02135851751734563e+00


        </DataArray>

      </PointData>

      <CellData/>

      <Points>

        <DataArray type="Float64" NumberOfComponents="3" format="ascii">

0.1082531754723032 0.6875000000007816 0 0.23533274979922561 0.77093399389351469 0 0.10409951422139101 0.81206782209691231 0 0.23533274979922561 0.77093399389351469 0 0.1082531754723032 0.6875000000007816 0 0.21809253452218619 0.65480892822618109 0 0.24418615484441761 0.35773612382016978 0 0.121259140952891 0.43112117036853742 0 0.1082531754734323 0.31250000000117473 0 0.75000000000057243 0.35048094716480432 0 0.88173731489851925 0.33077402607778361 0 0.81242894672211508 0.45500248311961472 0 0.121259140952891 0.43112117036853742 0 0.24418615484441761 0.35773612382016978 0 0.22257735880419699 0.47344721641341742 0 0.81242894672211508 0.45500248311961472 0 0.88173731489851925 0.33077402607778361 0 0.915464298762109 0.43749999999886913 0 0 0.62500000000121547 0 0 0.50000000000206146 0 0.1371230538040123 0.56179824718362847 0 0.82212678063041267 0.67678595194836966 0 0.89051480781310632 0.79665793440246835 0 0.76243180583607129 0.78687675331113149 0 0.76243180583607129 0.78687675331113149 0 0.69010814643829166 0.89298495739101336 0 0.62844955668446423 0.7850749770380413 0 0.89051480781310632 0.79665793440246835 0 0.82212678063041267 0.67678595194836966 0 0.92266244547590082 0.68749999999917555 0 0 0.50000000000206146 0 0.121259140952891 0.43112117036853742 0 0.1371230538040123 0.56179824718362847 0 0.1082531754723032 0.6875000000007816 0 0 0.62500000000121547 0 0.1371230538040123 0.56179824718362847 0 0.75000000000032374 0.56698729811007709 0 0.88927506082488361 0.56409486310635837 0 0.82212678063041267 0.67678595194836966 0 0.81242894672211508 0.45500248311961472 0 0.88927506082488361 0.56409486310635837 0 0.75000000000032374 0.56698729811007709 0 0.69851598570178741 0.68211701800612057 0 0.56496004948275869 0.67675037307860475 0 0.62752533658682441 0.56838075195614346 0 0.69851598570178741 0.68211701800612057 0 0.76243180583607129 0.78687675331113149 0 0.62844955668446423 0.7850749770380413 0 0.23533274979922561 0.77093399389351469 0 0.18802967116092181 0.89415349436770275 0 0.10409951422139101 0.81206782209691231 0 0.121259140952891 0.43112117036853742 0 0.22257735880419699 0.47344721641341742 0 0.1371230538040123 0.56179824718362847 0 0.75000000000032374 0.56698729811007709 0 0.69851598570178741 0.68211701800612057 0 0.62752533658682441 0.56838075195614346 0 0.56496004948275869 0.67675037307860475 0 0.69851598570178741 0.68211701800612057 0 0.62844955668446423 0.7850749770380413 0 0.1371230538040123 0.56179824718362847 0 0.22257735880419699 0.47344721641341742 0 0.26982811998763367 0.56544650815856912 0 0.21809253452218619 0.65480892822618109 0 0.1371230538040123 0.56179824718362847 0 0.26982811998763367 0.56544650815856912 0 0.24418615484441761 0.35773612382016978 0 0.1082531754734323 0.31250000000117473 0 0.20767261601459541 0.25628918442207171 0 0.88173731489851925 0.33077402607778361 0 0.75000000000057243 0.35048094716480432 0 0.79891106056046712 0.25007334953587562 0 0.75000000000032374 0.56698729811007709 0 0.82212678063041267 0.67678595194836966 0 0.69851598570178741 0.68211701800612057 0 0.81249999999950517 0.1082531754733404 0 0.89658421694297741 0.1933620068391701 0 0.79891106056046712 0.25007334953587562 0 0.81249999999950517 0.1082531754733404 0 0.79891106056046712 0.25007334953587562 0 0.73983916756365475 0.17530677078674589 0 0.23533274979922561 0.77093399389351469 0 0.21809253452218619 0.65480892822618109 0 0.32607333794064219 0.67760114260606152 0 0.1082531754723032 0.6875000000007816 0 0.1371230538040123 0.56179824718362847 0 0.21809253452218619 0.65480892822618109 0 0.69851598570178741 0.68211701800612057 0 0.82212678063041267 0.67678595194836966 0 0.76243180583607129 0.78687675331113149 0 0.69010814643829166 0.89298495739101336 0 0.76243180583607129 0.78687675331113149 0 0.80886664387416207 0.89717308644237903 0 0.43750000000181222 0.89174682452709564 0 0.31258827852827581 0.89214793616708443 0 0.37776173212361452 0.78514649317305008 0 0.43750000000181222 0.89174682452709564 0 0.37500000000156292 1 0 0.31258827852827581 0.89214793616708443 0 0.121259140952891 0.43112117036853742 0 0 0.37500000000156292 0 0.1082531754734323 0.31250000000117473 0 0.50000000000206146 1 0 0.37500000000156292 1 0 0.43750000000181222 0.89174682452709564 0 0.31258827852827581 0.89214793616708443 0 0.18802967116092181 0.89415349436770275 0 0.23533274979922561 0.77093399389351469 0 0 0.50000000000206146 0 0 0.37500000000156292 0 0.121259140952891 0.43112117036853742 0 0.62844955668446423 0.7850749770380413 0 0.69010814643829166 0.89298495739101336 0 0.56327595140699671 0.89211526915426331 0 0.69010814643829166 0.89298495739101336 0 0.62500000000121547 1 0 0.56327595140699671 0.89211526915426331 0 0.25000000000104189 1 0 0.18802967116092181 0.89415349436770275 0 0.31258827852827581 0.89214793616708443 0 0.50000000000206146 1 0 0.43750000000181222 0.89174682452709564 0 0.56327595140699671 0.89211526915426331 0 0.56249999999885147 0.1082531754730395 0 0.62499999999901068 0 0 0.68749999999926592 0.1082531754732875 0 1 0.49999999999869221 0 1 0.62499999999901068 0 0.88927506082488361 0.56409486310635837 0 0 0.25000000000104189 0 0.12076953676380731 0.18690935762408761 0 0.1082531754734323 0.31250000000117473 0 0.49999999999869221 0 0 0.62499999999901068 0 0 0.56249999999885147 0.1082531754730395 0 0.62500000000121547 1 0 0.50000000000206146 1 0 0.56327595140699671 0.89211526915426331 0 0.37500000000156292 1 0 0.25000000000104189 1 0 0.31258827852827581 0.89214793616708443 0 0.31281086598417152 0.10449318608631281 0 0.37499999999904599 0 0 0.43749999999910871 0.1082531754729984 0 0.43750000000181222 0.89174682452709564 0 0.37776173212361452 0.78514649317305008 0 0.50046028868828263 0.78376912307435687 0 0 0.37500000000156292 0 0 0.25000000000104189 0 0.1082531754734323 0.31250000000117473 0 0.49999999999869221 0 0 0.56249999999885147 0.1082531754730395 0 0.43749999999910871 0.1082531754729984 0 0.43750000000181222 0.89174682452709564 0 0.50046028868828263 0.78376912307435687 0 0.56327595140699671 0.89211526915426331 0 0.74999999999934042 0 0 0.81249999999950517 0.1082531754733404 0 0.68749999999926592 0.1082531754732875 0 0.37499999999904599 0 0 0.49999999999869221 0 0 0.43749999999910871 0.1082531754729984 0 0.25000000000104189 1 0 0.12500000000052089 1 0 0.18802967116092181 0.89415349436770275 0 0.50046028868828263 0.78376912307435687 0 0.62844955668446423 0.7850749770380413 0 0.56327595140699671 0.89211526915426331 0 0.37776173212361452 0.78514649317305008 0 0.31258827852827581 0.89214793616708443 0 0.23533274979922561 0.77093399389351469 0 0.62499999999901068 0 0 0.74999999999934042 0 0 0.68749999999926592 0.1082531754732875 0 1 0.74999999999934042 0 1 0.87499999999967015 0 0.89051480781310632 0.79665793440246835 0 0 0.25000000000104189 0 0 0.12500000000052089 0 0.12076953676380731 0.18690935762408761 0 0.74999999999934042 0 0 0.87499999999967015 0 0 0.81249999999950517 0.1082531754733404 0 0.24999999999941069 0 0 0.37499999999904599 0 0 0.31281086598417152 0.10449318608631281 0 0.50046028868828263 0.78376912307435687 0 0.37776173212361452 0.78514649317305008 0 0.44078402250377968 0.67714785211715212 0 0.68768773896438518 0.4586835206367198 0 0.75000000000032374 0.56698729811007709 0 0.62752533658682441 0.56838075195614346 0 0.31411863959822661 0.24965544328045999 0 0.37953773393552892 0.34812185820708452 0 0.24418615484441761 0.35773612382016978 0 0.68768773896438518 0.4586835206367198 0 0.81242894672211508 0.45500248311961472 0 0.75000000000032374 0.56698729811007709 0 1 0.24999999999941069 0 1 0.37499999999904599 0 0.88173731489851925 0.33077402607778361 0 0 0.75000000000034761 0 0 0.62500000000121547 0 0.1082531754723032 0.6875000000007816 0 0.50048844149666749 0.56727788297625459 0 0.44078402250377968 0.67714785211715212 0 0.38694285807596462 0.5672991787102919 0 0.50108503093851109 0.35012252869403671 0 0.44301038174930041 0.45684931552185398 0 0.37953773393552892 0.34812185820708452 0 0.50046028868828263 0.78376912307435687 0 0.56496004948275869 0.67675037307860475 0 0.62844955668446423 0.7850749770380413 0 0.68768773896438518 0.4586835206367198 0 0.75000000000057243 0.35048094716480432 0 0.81242894672211508 0.45500248311961472 0 0.56349980387502452 0.45846841892908402 0 0.62512662990940393 0.35044303886909911 0 0.68768773896438518 0.4586835206367198 0 0.50048844149666749 0.56727788297625459 0 0.38694285807596462 0.5672991787102919 0 0.44301038174930041 0.45684931552185398 0 0.50046028868828263 0.78376912307435687 0 0.44078402250377968 0.67714785211715212 0 0.56496004948275869 0.67675037307860475 0 0.50108503093851109 0.35012252869403671 0 0.37953773393552892 0.34812185820708452 0 0.43750000000200551 0.24222777169198509 0 0.75000000000034761 1 0 0.62500000000121547 1 0 0.69010814643829166 0.89298495739101336 0 0.68768773896438518 0.4586835206367198 0 0.62512662990940393 0.35044303886909911 0 0.75000000000057243 0.35048094716480432 0 0.56496004948275869 0.67675037307860475 0 0.44078402250377968 0.67714785211715212 0 0.50048844149666749 0.56727788297625459 0 0.56349980387502452 0.45846841892908402 0 0.44301038174930041 0.45684931552185398 0 0.50108503093851109 0.35012252869403671 0 0.50048844149666749 0.56727788297625459 0 0.44301038174930041 0.45684931552185398 0 0.56349980387502452 0.45846841892908402 0 0.56349980387502452 0.45846841892908402 0 0.50108503093851109 0.35012252869403671 0 0.62512662990940393 0.35044303886909911 0 0.43750000000200551 0.24222777169198509 0 0.37953773393552892 0.34812185820708452 0 0.31411863959822661 0.24965544328045999 0 0.56496004948275869 0.67675037307860475 0 0.50048844149666749 0.56727788297625459 0 0.62752533658682441 0.56838075195614346 0 0.56349980387502452 0.45846841892908402 0 0.68768773896438518 0.4586835206367198 0 0.62752533658682441 0.56838075195614346 0 0.50048844149666749 0.56727788297625459 0 0.56349980387502452 0.45846841892908402 0 0.62752533658682441 0.56838075195614346 0 0.75000000000057243 0.35048094716480432 0 0.62512662990940393 0.35044303886909911 0 0.68668231842078242 0.24762892664808989 0 0.50108503093851109 0.35012252869403671 0 0.43750000000200551 0.24222777169198509 0 0.56250000000143974 0.2422277716920859 0 0.62512662990940393 0.35044303886909911 0 0.50108503093851109 0.35012252869403671 0 0.56250000000143974 0.2422277716920859 0 0.68668231842078242 0.24762892664808989 0 0.62512662990940393 0.35044303886909911 0 0.56250000000143974 0.2422277716920859 0 0.22257735880419699 0.47344721641341742 0 0.24418615484441761 0.35773612382016978 0 0.32815957677880009 0.4577243358118348 0 0.12076953676380731 0.18690935762408761 0 0.19185372118111221 0.092925648673580788 0 0.25103557339309318 0.17464499738446629 0 0.20767261601459541 0.25628918442207171 0 0.12076953676380731 0.18690935762408761 0 0.25103557339309318 0.17464499738446629 0 0 0.87499999999950151 0 0 0.75000000000034761 0 0.10409951422139101 0.81206782209691231 0 0.1249999999997731 0 0 0.24999999999941069 0 0 0.19185372118111221 0.092925648673580788 0 1 0.1249999999997731 0 1 0.24999999999941069 0 0.89658421694297741 0.1933620068391701 0 0.88927506082488361 0.56409486310635837 0 0.81242894672211508 0.45500248311961472 0 0.915464298762109 0.43749999999886913 0 0.87499999999950151 1 0 0.75000000000034761 1 0 0.80886664387416207 0.89717308644237903 0 0.75000000000034761 1 0 0.69010814643829166 0.89298495739101336 0 0.80886664387416207 0.89717308644237903 0 0.82212678063041267 0.67678595194836966 0 0.88927506082488361 0.56409486310635837 0 0.92266244547590082 0.68749999999917555 0 0 0.75000000000034761 0 0.1082531754723032 0.6875000000007816 0 0.10409951422139101 0.81206782209691231 0 0.24999999999941069 0 0 0.31281086598417152 0.10449318608631281 0 0.19185372118111221 0.092925648673580788 0 1 0.24999999999941069 0 0.88173731489851925 0.33077402607778361 0 0.89658421694297741 0.1933620068391701 0 0.32815957677880009 0.4577243358118348 0 0.38694285807596462 0.5672991787102919 0 0.26982811998763367 0.56544650815856912 0 0.76243180583607129 0.78687675331113149 0 0.89051480781310632 0.79665793440246835 0 0.80886664387416207 0.89717308644237903 0 0.38694285807596462 0.5672991787102919 0 0.44078402250377968 0.67714785211715212 0 0.32607333794064219 0.67760114260606152 0 0.37776173212361452 0.78514649317305008 0 0.23533274979922561 0.77093399389351469 0 0.32607333794064219 0.67760114260606152 0 1 0.49999999999869221 0 0.88927506082488361 0.56409486310635837 0 0.915464298762109 0.43749999999886913 0 0.88173731489851925 0.33077402607778361 0 1 0.37499999999904599 0 0.915464298762109 0.43749999999886913 0 0.24418615484441761 0.35773612382016978 0 0.37953773393552892 0.34812185820708452 0 0.32815957677880009 0.4577243358118348 0 0.44301038174930041 0.45684931552185398 0 0.38694285807596462 0.5672991787102919 0 0.32815957677880009 0.4577243358118348 0 0.88927506082488361 0.56409486310635837 0 1 0.62499999999901068 0 0.92266244547590082 0.68749999999917555 0 1 0.74999999999934042 0 0.89051480781310632 0.79665793440246835 0 0.92266244547590082 0.68749999999917555 0 0 1 0 0 0.87499999999950151 0 0.091506350946494744 0.90849364905351082 0 1 1 0 0.87499999999950151 1 0 0.90849364905363228 0.90849364905367769 0 0 0 0 0.1249999999997731 0 0 0.091506350946417708 0.091506350946618076 0 0 0.12500000000052089 0 0 0 0 0.091506350946417708 0.091506350946618076 0 1 0 0 1 0.1249999999997731 0 0.90849364905355434 0.091506350946296292 0 0.87499999999967015 0 0 1 0 0 0.90849364905355434 0.091506350946296292 0 0.12500000000052089 1 0 0 1 0 0.091506350946494744 0.90849364905351082 0 1 0.87499999999967015 0 1 1 0 0.90849364905363228 0.90849364905367769 0 0.38694285807596462 0.5672991787102919 0 0.32607333794064219 0.67760114260606152 0 0.26982811998763367 0.56544650815856912 0 0.31411863959822661 0.24965544328045999 0 0.24418615484441761 0.35773612382016978 0 0.20767261601459541 0.25628918442207171 0 0.1082531754734323 0.31250000000117473 0 0.12076953676380731 0.18690935762408761 0 0.20767261601459541 0.25628918442207171 0 0.75000000000057243 0.35048094716480432 0 0.68668231842078242 0.24762892664808989 0 0.79891106056046712 0.25007334953587562 0 0.22257735880419699 0.47344721641341742 0 0.32815957677880009 0.4577243358118348 0 0.26982811998763367 0.56544650815856912 0 0.44078402250377968 0.67714785211715212 0 0.37776173212361452 0.78514649317305008 0 0.32607333794064219 0.67760114260606152 0 0.89658421694297741 0.1933620068391701 0 0.88173731489851925 0.33077402607778361 0 0.79891106056046712 0.25007334953587562 0 1 0.37499999999904599 0 1 0.49999999999869221 0 0.915464298762109 0.43749999999886913 0 0.37953773393552892 0.34812185820708452 0 0.44301038174930041 0.45684931552185398 0 0.32815957677880009 0.4577243358118348 0 0.32607333794064219 0.67760114260606152 0 0.21809253452218619 0.65480892822618109 0 0.26982811998763367 0.56544650815856912 0 1 0.1249999999997731 0 0.89658421694297741 0.1933620068391701 0 0.90849364905355434 0.091506350946296292 0 0 0.87499999999950151 0 0.10409951422139101 0.81206782209691231 0 0.091506350946494744 0.90849364905351082 0 0.1249999999997731 0 0 0.19185372118111221 0.092925648673580788 0 0.091506350946417708 0.091506350946618076 0 1 0.62499999999901068 0 1 0.74999999999934042 0 0.92266244547590082 0.68749999999917555 0 0.18802967116092181 0.89415349436770275 0 0.12500000000052089 1 0 0.091506350946494744 0.90849364905351082 0 0.89051480781310632 0.79665793440246835 0 1 0.87499999999967015 0 0.90849364905363228 0.90849364905367769 0 0.12076953676380731 0.18690935762408761 0 0 0.12500000000052089 0 0.091506350946417708 0.091506350946618076 0 0.81249999999950517 0.1082531754733404 0 0.87499999999967015 0 0 0.90849364905355434 0.091506350946296292 0 0.87499999999950151 1 0 0.80886664387416207 0.89717308644237903 0 0.90849364905363228 0.90849364905367769 0 0.68668231842078242 0.24762892664808989 0 0.62499999999892575 0.17524047358135519 0 0.73983916756365475 0.17530677078674589 0 0.31281086598417152 0.10449318608631281 0 0.43749999999910871 0.1082531754729984 0 0.37500000000232431 0.17524047358384309 0 0.62499999999892575 0.17524047358135519 0 0.56250000000143974 0.2422277716920859 0 0.49999999999934441 0.1752404735815076 0 0.56249999999885147 0.1082531754730395 0 0.68749999999926592 0.1082531754732875 0 0.62499999999892575 0.17524047358135519 0 0.56249999999885147 0.1082531754730395 0 0.62499999999892575 0.17524047358135519 0 0.49999999999934441 0.1752404735815076 0 0.56250000000143974 0.2422277716920859 0 0.43750000000200551 0.24222777169198509 0 0.49999999999934441 0.1752404735815076 0 0.43749999999910871 0.1082531754729984 0 0.56249999999885147 0.1082531754730395 0 0.49999999999934441 0.1752404735815076 0 0.68668231842078242 0.24762892664808989 0 0.56250000000143974 0.2422277716920859 0 0.62499999999892575 0.17524047358135519 0 0.43750000000200551 0.24222777169198509 0 0.31411863959822661 0.24965544328045999 0 0.37500000000232431 0.17524047358384309 0 0.49999999999934441 0.1752404735815076 0 0.43750000000200551 0.24222777169198509 0 0.37500000000232431 0.17524047358384309 0 0.43749999999910871 0.1082531754729984 0 0.49999999999934441 0.1752404735815076 0 0.37500000000232431 0.17524047358384309 0 0.62499999999892575 0.17524047358135519 0 0.68749999999926592 0.1082531754732875 0 0.73983916756365475 0.17530677078674589 0 0.68749999999926592 0.1082531754732875 0 0.81249999999950517 0.1082531754733404 0 0.73983916756365475 0.17530677078674589 0 0.10409951422139101 0.81206782209691231 0 0.18802967116092181 0.89415349436770275 0 0.091506350946494744 0.90849364905351082 0 0.89658421694297741 0.1933620068391701 0 0.81249999999950517 0.1082531754733404 0 0.90849364905355434 0.091506350946296292 0 0.19185372118111221 0.092925648673580788 0 0.12076953676380731 0.18690935762408761 0 0.091506350946417708 0.091506350946618076 0 0.37500000000232431 0.17524047358384309 0 0.31411863959822661 0.24965544328045999 0 0.25103557339309318 0.17464499738446629 0 0.31281086598417152 0.10449318608631281 0 0.37500000000232431 0.17524047358384309 0 0.25103557339309318 0.17464499738446629 0 0.80886664387416207 0.89717308644237903 0 0.89051480781310632 0.79665793440246835 0 0.90849364905363228 0.90849364905367769 0 0.19185372118111221 0.092925648673580788 0 0.31281086598417152 0.10449318608631281 0 0.25103557339309318 0.17464499738446629 0 0.79891106056046712 0.25007334953587562 0 0.68668231842078242 0.24762892664808989 0 0.73983916756365475 0.17530677078674589 0 0.31411863959822661 0.24965544328045999 0 0.20767261601459541 0.25628918442207171 0 0.25103557339309318 0.17464499738446629 0 

        </DataArray>

      </Points>

      <Cells>

        <DataArray type="Int32" Name="connectivity" format="ascii">

0 1 2 3 4 5 6 7 8 9 10 11 12 13 14 15 16 17 18 19 20 21 22 23 24 25 26 27 28 29 30 31 32 33 34 35 36 37 38 39 40 41 42 43 44 45 46 47 48 49 50 51 52 53 54 55 56 57 58 59 60 61 62 63 64 65 66 67 68 69 70 71 72 73 74 75 76 77 78 79 80 81 82 83 84 85 86 87 88 89 90 91 92 93 94 95 96 97 98 99 100 101 102 103 104 105 106 107 108 109 110 111 112 113 114 115 116 117 118 119 120 121 122 123 124 125 126 127 128 129 130 131 132 133 134 135 136 137 138 139 140 141 142 143 144 145 146 147 148 149 150 151 152 153 154 155 156 157 158 159 160 161 162 163 164 165 166 167 168 169 170 171 172 173 174 175 176 177 178 179 180 181 182 183 184 185 186 187 188 189 190 191 192 193 194 195 196 197 198 199 200 201 202 203 204 205 206 207 208 209 210 211 212 213 214 215 216 217 218 219 220 221 222 223 224 225 226 227 228 229 230 231 232 233 234 235 236 237 238 239 240 241 242 243 244 245 246 247 248 249 250 251 252 253 254 255 256 257 258 259 260 261 262 263 264 265 266 267 268 269 270 271 272 273 274 275 276 277 278 279 280 281 282 283 284 285 286 287 288 289 290 291 292 293 294 295 296 297 298 299 300 301 302 303 304 305 306 307 308 309 310 311 312 313 314 315 316 317 318 319 320 321 322 323 324 325 326 327 328 329 330 331 332 333 334 335 336 337 338 339 340 341 342 343 344 345 346 347 348 349 350 351 352 353 354 355 356 357 358 359 360 361 362 363 364 365 366 367 368 369 370 371 372 373 374 375 376 377 378 379 380 381 382 383 384 385 386 387 388 389 390 391 392 393 394 395 396 397 398 399 400 401 402 403 404 405 406 407 408 409 410 411 412 413 414 415 416 417 418 419 420 421 422 423 424 425 426 427 428 429 430 431 432 433 434 435 436 437 438 439 440 441 442 443 444 445 446 447 448 449 450 451 452 453 454 455 456 457 458 459 460 461 462 463 464 465 466 467 468 469 470 471 472 473 474 475 476 477 478 479 480 481 482 483 484 485 

        </DataArray>

        <DataArray type="Int32" Name="offsets" format="ascii">

3 6 9 12 15 18 21 24 27 30 33 36 39 42 45 48 51 54 57 60 63 66 69 72 75 78 81 84 87 90 93 96 99 102 105 108 111 114 117 120 123 126 129 132 135 138 141 144 147 150 153 156 159 162 165 168 171 174 177 180 183 186 189 192 195 198 201 204 207 210 213 216 219 222 225 228 231 234 237 240 243 246 249 252 255 258 261 264 267 270 273 276 279 282 285 288 291 294 297 300 303 306 309 312 315 318 321 324 327 330 333 336 339 342 345 348 351 354 357 360 363 366 369 372 375 378 381 384 387 390 393 396 399 402 405 408 411 414 417 420 423 426 429 432 435 438 441 444 447 450 453 456 459 462 465 468 471 474 477 480 483 486 

        </DataArray>

        <DataArray type="Int32" Name="types" format="ascii">

5 5 5 5 5 5 5 5 5 5 5 5 5 5 5 5 5 5 5 5 5 5 5 5 5 5 5 5 5 5 5 5 5 5 5 5 5 5 5 5 5 5 5 5 5 5 5 5 5 5 5 5 5 5 5 5 5 5 5 5 5 5 5 5 5 5 5 5 5 5 5 5 5 5 5 5 5 5 5 5 5 5 5 5 5 5 5 5 5 5 5 5 5 5 5 5 5 5 5 5 5 5 5 5 5 5 5 5 5 5 5 5 5 5 5 5 5 5 5 5 5 5 5 5 5 5 5 5 5 5 5 5 5 5 5 5 5 5 5 5 5 5 5 5 5 5 5 5 5 5 5 5 5 5 5 5 5 5 5 5 5 5 

        </DataArray>

      </Cells>

    </Piece>

  </UnstructuredGrid>

</VTKFile>

