<?xml version="1.0"?>

<VTKFile type="UnstructuredGrid" version="0.1">

  <UnstructuredGrid>

    <Piece NumberOfPoints="486" NumberOfCells="162">

      <PointData>

        <DataArray type="Float64" Name="K" format="ascii">

1.02493885423592213e+00
1.02493885423592213e+00
1.02493885423592213e+00
1.01967061008295135e+00
1.01967061008295135e+00
1.01967061008295135e+00
9.60934835082216221e-01
9.60934835082216221e-01
9.60934835082216221e-01
1.03848308551869906e+00
1.03848308551869906e+00
1.03848308551869906e+00
9.68936778950433841e-01
9.68936778950433841e-01
9.68936778950433841e-01
1.02261345163664275e+00
1.02261345163664275e+00
1.02261345163664275e+00
1.02857485032856699e+00
1.02857485032856699e+00
1.02857485032856699e+00
1.02959856296538343e+00
1.02959856296538343e+00
1.02959856296538343e+00
1.01555877950361673e+00
1.01555877950361673e+00
1.01555877950361673e+00
1.01990111074898082e+00
1.01990111074898082e+00
1.01990111074898082e+00
1.01470129162356670e+00
1.01470129162356670e+00
1.01470129162356670e+00
1.02789857843008892e+00
1.02789857843008892e+00
1.02789857843008892e+00
1.04571759563081290e+00
1.04571759563081290e+00
1.04571759563081290e+00
1.04536951167965197e+00
1.04536951167965197e+00
1.04536951167965197e+00
1.03262465273948223e+00
1.03262465273948223e+00
1.03262465273948223e+00
1.02898630623267096e+00
1.02898630623267096e+00
1.02898630623267096e+00
1.03097829039070699e+00
1.03097829039070699e+00
1.03097829039070699e+00
9.95547336276697004e-01
9.95547336276697004e-01
9.95547336276697004e-01
1.03637028887859795e+00
1.03637028887859795e+00
1.03637028887859795e+00
1.03510474027558308e+00
1.03510474027558308e+00
1.03510474027558308e+00
9.90190609858913384e-01
9.90190609858913384e-01
9.90190609858913384e-01
1.00060371582071972e+00
1.00060371582071972e+00
1.00060371582071972e+00
9.42910648958207531e-01
9.42910648958207531e-01
9.42910648958207531e-01
1.03439208086540835e+00
1.03439208086540835e+00
1.03439208086540835e+00
1.04478273987138737e+00
1.04478273987138737e+00
1.04478273987138737e+00
1.00667875972979970e+00
1.00667875972979970e+00
1.00667875972979970e+00
1.02169029190970573e+00
1.02169029190970573e+00
1.02169029190970573e+00
1.00657996422708629e+00
1.00657996422708629e+00
1.00657996422708629e+00
1.02005515400513902e+00
1.02005515400513902e+00
1.02005515400513902e+00
1.03817074602253667e+00
1.03817074602253667e+00
1.03817074602253667e+00
1.00320570691266808e+00
1.00320570691266808e+00
1.00320570691266808e+00
1.03672876299950678e+00
1.03672876299950678e+00
1.03672876299950678e+00
1.03221622760021225e+00
1.03221622760021225e+00
1.03221622760021225e+00
9.75071536845065534e-01
9.75071536845065534e-01
9.75071536845065534e-01
1.02115321720709806e+00
1.02115321720709806e+00
1.02115321720709806e+00
1.03685880832188504e+00
1.03685880832188504e+00
1.03685880832188504e+00
1.00080675898205063e+00
1.00080675898205063e+00
1.00080675898205063e+00
1.01962557296001499e+00
1.01962557296001499e+00
1.01962557296001499e+00
1.00012263313861638e+00
1.00012263313861638e+00
1.00012263313861638e+00
1.04508509531633220e+00
1.04508509531633220e+00
1.04508509531633220e+00
1.02988270231173118e+00
1.02988270231173118e+00
1.02988270231173118e+00
9.97601935577662191e-01
9.97601935577662191e-01
9.97601935577662191e-01
9.95645831085805622e-01
9.95645831085805622e-01
9.95645831085805622e-01
9.37327265045857061e-01
9.37327265045857061e-01
9.37327265045857061e-01
9.85288465731003593e-01
9.85288465731003593e-01
9.85288465731003593e-01
1.00743215979185097e+00
1.00743215979185097e+00
1.00743215979185097e+00
1.03632235320283073e+00
1.03632235320283073e+00
1.03632235320283073e+00
1.00040006517999558e+00
1.00040006517999558e+00
1.00040006517999558e+00
1.04585170430243202e+00
1.04585170430243202e+00
1.04585170430243202e+00
9.52803537820128166e-01
9.52803537820128166e-01
9.52803537820128166e-01
9.91566316221470401e-01
9.91566316221470401e-01
9.91566316221470401e-01
1.04682821053498110e+00
1.04682821053498110e+00
1.04682821053498110e+00
1.00217264153667318e+00
1.00217264153667318e+00
1.00217264153667318e+00
9.97258348956333918e-01
9.97258348956333918e-01
9.97258348956333918e-01
1.04211060196143124e+00
1.04211060196143124e+00
1.04211060196143124e+00
1.04276333538386723e+00
1.04276333538386723e+00
1.04276333538386723e+00
1.02836417372307021e+00
1.02836417372307021e+00
1.02836417372307021e+00
9.98055687260081759e-01
9.98055687260081759e-01
9.98055687260081759e-01
9.65042218961675857e-01
9.65042218961675857e-01
9.65042218961675857e-01
9.28845452727998011e-01
9.28845452727998011e-01
9.28845452727998011e-01
9.77880257763613314e-01
9.77880257763613314e-01
9.77880257763613314e-01
9.98375167038983879e-01
9.98375167038983879e-01
9.98375167038983879e-01
1.04153753251337178e+00
1.04153753251337178e+00
1.04153753251337178e+00
1.03502366622249875e+00
1.03502366622249875e+00
1.03502366622249875e+00
9.67026622525472002e-01
9.67026622525472002e-01
9.67026622525472002e-01
1.04624717226059705e+00
1.04624717226059705e+00
1.04624717226059705e+00
9.88933583166516472e-01
9.88933583166516472e-01
9.88933583166516472e-01
1.01854862747625963e+00
1.01854862747625963e+00
1.01854862747625963e+00
1.01746211693227684e+00
1.01746211693227684e+00
1.01746211693227684e+00
1.00294431553745955e+00
1.00294431553745955e+00
1.00294431553745955e+00
1.04589104072965378e+00
1.04589104072965378e+00
1.04589104072965378e+00
1.04625487726295985e+00
1.04625487726295985e+00
1.04625487726295985e+00
1.02005784586759840e+00
1.02005784586759840e+00
1.02005784586759840e+00
1.00762610741291914e+00
1.00762610741291914e+00
1.00762610741291914e+00
1.04685745063641678e+00
1.04685745063641678e+00
1.04685745063641678e+00
1.00449251581218446e+00
1.00449251581218446e+00
1.00449251581218446e+00
9.72296773659705016e-01
9.72296773659705016e-01
9.72296773659705016e-01
1.03573476306950685e+00
1.03573476306950685e+00
1.03573476306950685e+00
1.03512002093815769e+00
1.03512002093815769e+00
1.03512002093815769e+00
1.00837039719543453e+00
1.00837039719543453e+00
1.00837039719543453e+00
1.01280891561301623e+00
1.01280891561301623e+00
1.01280891561301623e+00
1.01021055296915097e+00
1.01021055296915097e+00
1.01021055296915097e+00
9.91659439179961688e-01
9.91659439179961688e-01
9.91659439179961688e-01
1.03014997305022638e+00
1.03014997305022638e+00
1.03014997305022638e+00
1.02226499835639251e+00
1.02226499835639251e+00
1.02226499835639251e+00
1.02001101356683099e+00
1.02001101356683099e+00
1.02001101356683099e+00
1.03565551594013150e+00
1.03565551594013150e+00
1.03565551594013150e+00
1.00702645047683204e+00
1.00702645047683204e+00
1.00702645047683204e+00
1.00913133750445505e+00
1.00913133750445505e+00
1.00913133750445505e+00
1.01871792051134680e+00
1.01871792051134680e+00
1.01871792051134680e+00
9.64476804515176589e-01
9.64476804515176589e-01
9.64476804515176589e-01
9.38631316390386550e-01
9.38631316390386550e-01
9.38631316390386550e-01
9.33614360612070038e-01
9.33614360612070038e-01
9.33614360612070038e-01
9.92393087553595232e-01
9.92393087553595232e-01
9.92393087553595232e-01
9.75362082810226849e-01
9.75362082810226849e-01
9.75362082810226849e-01
9.76151044398037793e-01
9.76151044398037793e-01
9.76151044398037793e-01
1.02805901243601716e+00
1.02805901243601716e+00
1.02805901243601716e+00
9.73052440264446483e-01
9.73052440264446483e-01
9.73052440264446483e-01
9.78997448395000025e-01
9.78997448395000025e-01
9.78997448395000025e-01
1.02808400362962948e+00
1.02808400362962948e+00
1.02808400362962948e+00
1.01292776618624414e+00
1.01292776618624414e+00
1.01292776618624414e+00
9.74665358406402671e-01
9.74665358406402671e-01
9.74665358406402671e-01
9.88057824917834004e-01
9.88057824917834004e-01
9.88057824917834004e-01
9.78929845091691897e-01
9.78929845091691897e-01
9.78929845091691897e-01
1.01247429131658695e+00
1.01247429131658695e+00
1.01247429131658695e+00
1.00628212319384369e+00
1.00628212319384369e+00
1.00628212319384369e+00
1.01383613156589814e+00
1.01383613156589814e+00
1.01383613156589814e+00
1.00641579148165872e+00
1.00641579148165872e+00
1.00641579148165872e+00
9.99510079506531257e-01
9.99510079506531257e-01
9.99510079506531257e-01
9.70011240687784770e-01
9.70011240687784770e-01
9.70011240687784770e-01
9.90375357335978701e-01
9.90375357335978701e-01
9.90375357335978701e-01
1.00144294398340428e+00
1.00144294398340428e+00
1.00144294398340428e+00
9.86410537109902674e-01
9.86410537109902674e-01
9.86410537109902674e-01
9.79519009375304339e-01
9.79519009375304339e-01
9.79519009375304339e-01
9.75228850255627000e-01
9.75228850255627000e-01
9.75228850255627000e-01
9.73292956178720470e-01
9.73292956178720470e-01
9.73292956178720470e-01
9.52644744138841371e-01
9.52644744138841371e-01
9.52644744138841371e-01
9.68103422663872837e-01
9.68103422663872837e-01
9.68103422663872837e-01
9.62195912788166963e-01
9.62195912788166963e-01
9.62195912788166963e-01
9.96701130630931464e-01
9.96701130630931464e-01
9.96701130630931464e-01
9.62708649805099737e-01
9.62708649805099737e-01
9.62708649805099737e-01
9.87275565717245840e-01
9.87275565717245840e-01
9.87275565717245840e-01
9.47335035022012661e-01
9.47335035022012661e-01
9.47335035022012661e-01
9.35075821849750133e-01
9.35075821849750133e-01
9.35075821849750133e-01
1.04196117602805827e+00
1.04196117602805827e+00
1.04196117602805827e+00
9.72938623355134591e-01
9.72938623355134591e-01
9.72938623355134591e-01
1.01948040120061956e+00
1.01948040120061956e+00
1.01948040120061956e+00
1.01029535288509265e+00
1.01029535288509265e+00
1.01029535288509265e+00
9.96308619892086744e-01
9.96308619892086744e-01
9.96308619892086744e-01
9.89316089447369706e-01
9.89316089447369706e-01
9.89316089447369706e-01
9.92241660131369385e-01
9.92241660131369385e-01
9.92241660131369385e-01
9.72921024371306897e-01
9.72921024371306897e-01
9.72921024371306897e-01
9.96212111008634049e-01
9.96212111008634049e-01
9.96212111008634049e-01
9.60652234935175042e-01
9.60652234935175042e-01
9.60652234935175042e-01
9.75207593490064140e-01
9.75207593490064140e-01
9.75207593490064140e-01
1.02465457436992469e+00
1.02465457436992469e+00
1.02465457436992469e+00
9.75117380231346420e-01
9.75117380231346420e-01
9.75117380231346420e-01
9.37773073076665464e-01
9.37773073076665464e-01
9.37773073076665464e-01
9.72457881335579977e-01
9.72457881335579977e-01
9.72457881335579977e-01
9.82580260262695959e-01
9.82580260262695959e-01
9.82580260262695959e-01
1.02705599642307766e+00
1.02705599642307766e+00
1.02705599642307766e+00
9.96407177660600163e-01
9.96407177660600163e-01
9.96407177660600163e-01
1.00431801428513734e+00
1.00431801428513734e+00
1.00431801428513734e+00
1.00625753802324613e+00
1.00625753802324613e+00
1.00625753802324613e+00
1.00017845221402890e+00
1.00017845221402890e+00
1.00017845221402890e+00
1.00515389580304526e+00
1.00515389580304526e+00
1.00515389580304526e+00
9.98094096800149821e-01
9.98094096800149821e-01
9.98094096800149821e-01
1.01586849766629728e+00
1.01586849766629728e+00
1.01586849766629728e+00
9.92857345370262601e-01
9.92857345370262601e-01
9.92857345370262601e-01
1.00423377848404116e+00
1.00423377848404116e+00
1.00423377848404116e+00
1.00263458705040831e+00
1.00263458705040831e+00
1.00263458705040831e+00
1.02035163083064706e+00
1.02035163083064706e+00
1.02035163083064706e+00
1.01735292401397959e+00
1.01735292401397959e+00
1.01735292401397959e+00
1.02108461148207885e+00
1.02108461148207885e+00
1.02108461148207885e+00
9.83930111170933985e-01
9.83930111170933985e-01
9.83930111170933985e-01
9.41422075556654359e-01
9.41422075556654359e-01
9.41422075556654359e-01
9.70420724398933121e-01
9.70420724398933121e-01
9.70420724398933121e-01
9.75350466808480920e-01
9.75350466808480920e-01
9.75350466808480920e-01
9.94864306427489464e-01
9.94864306427489464e-01
9.94864306427489464e-01
9.58427830809870596e-01
9.58427830809870596e-01
9.58427830809870596e-01
1.03567216584661259e+00
1.03567216584661259e+00
1.03567216584661259e+00
9.46859128565066932e-01
9.46859128565066932e-01
9.46859128565066932e-01


        </DataArray>

      </PointData>

      <CellData/>

      <Points>

        <DataArray type="Float64" NumberOfComponents="3" format="ascii">

0.1082531754723032 0.6875000000007816 0 0.23533274979922561 0.77093399389351469 0 0.10409951422139101 0.81206782209691231 0 0.23533274979922561 0.77093399389351469 0 0.1082531754723032 0.6875000000007816 0 0.21809253452218619 0.65480892822618109 0 0.24418615484441761 0.35773612382016978 0 0.121259140952891 0.43112117036853742 0 0.1082531754734323 0.31250000000117473 0 0.75000000000057243 0.35048094716480432 0 0.88173731489851925 0.33077402607778361 0 0.81242894672211508 0.45500248311961472 0 0.121259140952891 0.43112117036853742 0 0.24418615484441761 0.35773612382016978 0 0.22257735880419699 0.47344721641341742 0 0.81242894672211508 0.45500248311961472 0 0.88173731489851925 0.33077402607778361 0 0.915464298762109 0.43749999999886913 0 0 0.62500000000121547 0 0 0.50000000000206146 0 0.1371230538040123 0.56179824718362847 0 0.82212678063041267 0.67678595194836966 0 0.89051480781310632 0.79665793440246835 0 0.76243180583607129 0.78687675331113149 0 0.76243180583607129 0.78687675331113149 0 0.69010814643829166 0.89298495739101336 0 0.62844955668446423 0.7850749770380413 0 0.89051480781310632 0.79665793440246835 0 0.82212678063041267 0.67678595194836966 0 0.92266244547590082 0.68749999999917555 0 0 0.50000000000206146 0 0.121259140952891 0.43112117036853742 0 0.1371230538040123 0.56179824718362847 0 0.1082531754723032 0.6875000000007816 0 0 0.62500000000121547 0 0.1371230538040123 0.56179824718362847 0 0.75000000000032374 0.56698729811007709 0 0.88927506082488361 0.56409486310635837 0 0.82212678063041267 0.67678595194836966 0 0.81242894672211508 0.45500248311961472 0 0.88927506082488361 0.56409486310635837 0 0.75000000000032374 0.56698729811007709 0 0.69851598570178741 0.68211701800612057 0 0.56496004948275869 0.67675037307860475 0 0.62752533658682441 0.56838075195614346 0 0.69851598570178741 0.68211701800612057 0 0.76243180583607129 0.78687675331113149 0 0.62844955668446423 0.7850749770380413 0 0.23533274979922561 0.77093399389351469 0 0.18802967116092181 0.89415349436770275 0 0.10409951422139101 0.81206782209691231 0 0.121259140952891 0.43112117036853742 0 0.22257735880419699 0.47344721641341742 0 0.1371230538040123 0.56179824718362847 0 0.75000000000032374 0.56698729811007709 0 0.69851598570178741 0.68211701800612057 0 0.62752533658682441 0.56838075195614346 0 0.56496004948275869 0.67675037307860475 0 0.69851598570178741 0.68211701800612057 0 0.62844955668446423 0.7850749770380413 0 0.1371230538040123 0.56179824718362847 0 0.22257735880419699 0.47344721641341742 0 0.26982811998763367 0.56544650815856912 0 0.21809253452218619 0.65480892822618109 0 0.1371230538040123 0.56179824718362847 0 0.26982811998763367 0.56544650815856912 0 0.24418615484441761 0.35773612382016978 0 0.1082531754734323 0.31250000000117473 0 0.20767261601459541 0.25628918442207171 0 0.88173731489851925 0.33077402607778361 0 0.75000000000057243 0.35048094716480432 0 0.79891106056046712 0.25007334953587562 0 0.75000000000032374 0.56698729811007709 0 0.82212678063041267 0.67678595194836966 0 0.69851598570178741 0.68211701800612057 0 0.81249999999950517 0.1082531754733404 0 0.89658421694297741 0.1933620068391701 0 0.79891106056046712 0.25007334953587562 0 0.81249999999950517 0.1082531754733404 0 0.79891106056046712 0.25007334953587562 0 0.73983916756365475 0.17530677078674589 0 0.23533274979922561 0.77093399389351469 0 0.21809253452218619 0.65480892822618109 0 0.32607333794064219 0.67760114260606152 0 0.1082531754723032 0.6875000000007816 0 0.1371230538040123 0.56179824718362847 0 0.21809253452218619 0.65480892822618109 0 0.69851598570178741 0.68211701800612057 0 0.82212678063041267 0.67678595194836966 0 0.76243180583607129 0.78687675331113149 0 0.69010814643829166 0.89298495739101336 0 0.76243180583607129 0.78687675331113149 0 0.80886664387416207 0.89717308644237903 0 0.43750000000181222 0.89174682452709564 0 0.31258827852827581 0.89214793616708443 0 0.37776173212361452 0.78514649317305008 0 0.43750000000181222 0.89174682452709564 0 0.37500000000156292 1 0 0.31258827852827581 0.89214793616708443 0 0.121259140952891 0.43112117036853742 0 0 0.37500000000156292 0 0.1082531754734323 0.31250000000117473 0 0.50000000000206146 1 0 0.37500000000156292 1 0 0.43750000000181222 0.89174682452709564 0 0.31258827852827581 0.89214793616708443 0 0.18802967116092181 0.89415349436770275 0 0.23533274979922561 0.77093399389351469 0 0 0.50000000000206146 0 0 0.37500000000156292 0 0.121259140952891 0.43112117036853742 0 0.62844955668446423 0.7850749770380413 0 0.69010814643829166 0.89298495739101336 0 0.56327595140699671 0.89211526915426331 0 0.69010814643829166 0.89298495739101336 0 0.62500000000121547 1 0 0.56327595140699671 0.89211526915426331 0 0.25000000000104189 1 0 0.18802967116092181 0.89415349436770275 0 0.31258827852827581 0.89214793616708443 0 0.50000000000206146 1 0 0.43750000000181222 0.89174682452709564 0 0.56327595140699671 0.89211526915426331 0 0.56249999999885147 0.1082531754730395 0 0.62499999999901068 0 0 0.68749999999926592 0.1082531754732875 0 1 0.49999999999869221 0 1 0.62499999999901068 0 0.88927506082488361 0.56409486310635837 0 0 0.25000000000104189 0 0.12076953676380731 0.18690935762408761 0 0.1082531754734323 0.31250000000117473 0 0.49999999999869221 0 0 0.62499999999901068 0 0 0.56249999999885147 0.1082531754730395 0 0.62500000000121547 1 0 0.50000000000206146 1 0 0.56327595140699671 0.89211526915426331 0 0.37500000000156292 1 0 0.25000000000104189 1 0 0.31258827852827581 0.89214793616708443 0 0.31281086598417152 0.10449318608631281 0 0.37499999999904599 0 0 0.43749999999910871 0.1082531754729984 0 0.43750000000181222 0.89174682452709564 0 0.37776173212361452 0.78514649317305008 0 0.50046028868828263 0.78376912307435687 0 0 0.37500000000156292 0 0 0.25000000000104189 0 0.1082531754734323 0.31250000000117473 0 0.49999999999869221 0 0 0.56249999999885147 0.1082531754730395 0 0.43749999999910871 0.1082531754729984 0 0.43750000000181222 0.89174682452709564 0 0.50046028868828263 0.78376912307435687 0 0.56327595140699671 0.89211526915426331 0 0.74999999999934042 0 0 0.81249999999950517 0.1082531754733404 0 0.68749999999926592 0.1082531754732875 0 0.37499999999904599 0 0 0.49999999999869221 0 0 0.43749999999910871 0.1082531754729984 0 0.25000000000104189 1 0 0.12500000000052089 1 0 0.18802967116092181 0.89415349436770275 0 0.50046028868828263 0.78376912307435687 0 0.62844955668446423 0.7850749770380413 0 0.56327595140699671 0.89211526915426331 0 0.37776173212361452 0.78514649317305008 0 0.31258827852827581 0.89214793616708443 0 0.23533274979922561 0.77093399389351469 0 0.62499999999901068 0 0 0.74999999999934042 0 0 0.68749999999926592 0.1082531754732875 0 1 0.74999999999934042 0 1 0.87499999999967015 0 0.89051480781310632 0.79665793440246835 0 0 0.25000000000104189 0 0 0.12500000000052089 0 0.12076953676380731 0.18690935762408761 0 0.74999999999934042 0 0 0.87499999999967015 0 0 0.81249999999950517 0.1082531754733404 0 0.24999999999941069 0 0 0.37499999999904599 0 0 0.31281086598417152 0.10449318608631281 0 0.50046028868828263 0.78376912307435687 0 0.37776173212361452 0.78514649317305008 0 0.44078402250377968 0.67714785211715212 0 0.68768773896438518 0.4586835206367198 0 0.75000000000032374 0.56698729811007709 0 0.62752533658682441 0.56838075195614346 0 0.31411863959822661 0.24965544328045999 0 0.37953773393552892 0.34812185820708452 0 0.24418615484441761 0.35773612382016978 0 0.68768773896438518 0.4586835206367198 0 0.81242894672211508 0.45500248311961472 0 0.75000000000032374 0.56698729811007709 0 1 0.24999999999941069 0 1 0.37499999999904599 0 0.88173731489851925 0.33077402607778361 0 0 0.75000000000034761 0 0 0.62500000000121547 0 0.1082531754723032 0.6875000000007816 0 0.50048844149666749 0.56727788297625459 0 0.44078402250377968 0.67714785211715212 0 0.38694285807596462 0.5672991787102919 0 0.50108503093851109 0.35012252869403671 0 0.44301038174930041 0.45684931552185398 0 0.37953773393552892 0.34812185820708452 0 0.50046028868828263 0.78376912307435687 0 0.56496004948275869 0.67675037307860475 0 0.62844955668446423 0.7850749770380413 0 0.68768773896438518 0.4586835206367198 0 0.75000000000057243 0.35048094716480432 0 0.81242894672211508 0.45500248311961472 0 0.56349980387502452 0.45846841892908402 0 0.62512662990940393 0.35044303886909911 0 0.68768773896438518 0.4586835206367198 0 0.50048844149666749 0.56727788297625459 0 0.38694285807596462 0.5672991787102919 0 0.44301038174930041 0.45684931552185398 0 0.50046028868828263 0.78376912307435687 0 0.44078402250377968 0.67714785211715212 0 0.56496004948275869 0.67675037307860475 0 0.50108503093851109 0.35012252869403671 0 0.37953773393552892 0.34812185820708452 0 0.43750000000200551 0.24222777169198509 0 0.75000000000034761 1 0 0.62500000000121547 1 0 0.69010814643829166 0.89298495739101336 0 0.68768773896438518 0.4586835206367198 0 0.62512662990940393 0.35044303886909911 0 0.75000000000057243 0.35048094716480432 0 0.56496004948275869 0.67675037307860475 0 0.44078402250377968 0.67714785211715212 0 0.50048844149666749 0.56727788297625459 0 0.56349980387502452 0.45846841892908402 0 0.44301038174930041 0.45684931552185398 0 0.50108503093851109 0.35012252869403671 0 0.50048844149666749 0.56727788297625459 0 0.44301038174930041 0.45684931552185398 0 0.56349980387502452 0.45846841892908402 0 0.56349980387502452 0.45846841892908402 0 0.50108503093851109 0.35012252869403671 0 0.62512662990940393 0.35044303886909911 0 0.43750000000200551 0.24222777169198509 0 0.37953773393552892 0.34812185820708452 0 0.31411863959822661 0.24965544328045999 0 0.56496004948275869 0.67675037307860475 0 0.50048844149666749 0.56727788297625459 0 0.62752533658682441 0.56838075195614346 0 0.56349980387502452 0.45846841892908402 0 0.68768773896438518 0.4586835206367198 0 0.62752533658682441 0.56838075195614346 0 0.50048844149666749 0.56727788297625459 0 0.56349980387502452 0.45846841892908402 0 0.62752533658682441 0.56838075195614346 0 0.75000000000057243 0.35048094716480432 0 0.62512662990940393 0.35044303886909911 0 0.68668231842078242 0.24762892664808989 0 0.50108503093851109 0.35012252869403671 0 0.43750000000200551 0.24222777169198509 0 0.56250000000143974 0.2422277716920859 0 0.62512662990940393 0.35044303886909911 0 0.50108503093851109 0.35012252869403671 0 0.56250000000143974 0.2422277716920859 0 0.68668231842078242 0.24762892664808989 0 0.62512662990940393 0.35044303886909911 0 0.56250000000143974 0.2422277716920859 0 0.22257735880419699 0.47344721641341742 0 0.24418615484441761 0.35773612382016978 0 0.32815957677880009 0.4577243358118348 0 0.12076953676380731 0.18690935762408761 0 0.19185372118111221 0.092925648673580788 0 0.25103557339309318 0.17464499738446629 0 0.20767261601459541 0.25628918442207171 0 0.12076953676380731 0.18690935762408761 0 0.25103557339309318 0.17464499738446629 0 0 0.87499999999950151 0 0 0.75000000000034761 0 0.10409951422139101 0.81206782209691231 0 0.1249999999997731 0 0 0.24999999999941069 0 0 0.19185372118111221 0.092925648673580788 0 1 0.1249999999997731 0 1 0.24999999999941069 0 0.89658421694297741 0.1933620068391701 0 0.88927506082488361 0.56409486310635837 0 0.81242894672211508 0.45500248311961472 0 0.915464298762109 0.43749999999886913 0 0.87499999999950151 1 0 0.75000000000034761 1 0 0.80886664387416207 0.89717308644237903 0 0.75000000000034761 1 0 0.69010814643829166 0.89298495739101336 0 0.80886664387416207 0.89717308644237903 0 0.82212678063041267 0.67678595194836966 0 0.88927506082488361 0.56409486310635837 0 0.92266244547590082 0.68749999999917555 0 0 0.75000000000034761 0 0.1082531754723032 0.6875000000007816 0 0.10409951422139101 0.81206782209691231 0 0.24999999999941069 0 0 0.31281086598417152 0.10449318608631281 0 0.19185372118111221 0.092925648673580788 0 1 0.24999999999941069 0 0.88173731489851925 0.33077402607778361 0 0.89658421694297741 0.1933620068391701 0 0.32815957677880009 0.4577243358118348 0 0.38694285807596462 0.5672991787102919 0 0.26982811998763367 0.56544650815856912 0 0.76243180583607129 0.78687675331113149 0 0.89051480781310632 0.79665793440246835 0 0.80886664387416207 0.89717308644237903 0 0.38694285807596462 0.5672991787102919 0 0.44078402250377968 0.67714785211715212 0 0.32607333794064219 0.67760114260606152 0 0.37776173212361452 0.78514649317305008 0 0.23533274979922561 0.77093399389351469 0 0.32607333794064219 0.67760114260606152 0 1 0.49999999999869221 0 0.88927506082488361 0.56409486310635837 0 0.915464298762109 0.43749999999886913 0 0.88173731489851925 0.33077402607778361 0 1 0.37499999999904599 0 0.915464298762109 0.43749999999886913 0 0.24418615484441761 0.35773612382016978 0 0.37953773393552892 0.34812185820708452 0 0.32815957677880009 0.4577243358118348 0 0.44301038174930041 0.45684931552185398 0 0.38694285807596462 0.5672991787102919 0 0.32815957677880009 0.4577243358118348 0 0.88927506082488361 0.56409486310635837 0 1 0.62499999999901068 0 0.92266244547590082 0.68749999999917555 0 1 0.74999999999934042 0 0.89051480781310632 0.79665793440246835 0 0.92266244547590082 0.68749999999917555 0 0 1 0 0 0.87499999999950151 0 0.091506350946494744 0.90849364905351082 0 1 1 0 0.87499999999950151 1 0 0.90849364905363228 0.90849364905367769 0 0 0 0 0.1249999999997731 0 0 0.091506350946417708 0.091506350946618076 0 0 0.12500000000052089 0 0 0 0 0.091506350946417708 0.091506350946618076 0 1 0 0 1 0.1249999999997731 0 0.90849364905355434 0.091506350946296292 0 0.87499999999967015 0 0 1 0 0 0.90849364905355434 0.091506350946296292 0 0.12500000000052089 1 0 0 1 0 0.091506350946494744 0.90849364905351082 0 1 0.87499999999967015 0 1 1 0 0.90849364905363228 0.90849364905367769 0 0.38694285807596462 0.5672991787102919 0 0.32607333794064219 0.67760114260606152 0 0.26982811998763367 0.56544650815856912 0 0.31411863959822661 0.24965544328045999 0 0.24418615484441761 0.35773612382016978 0 0.20767261601459541 0.25628918442207171 0 0.1082531754734323 0.31250000000117473 0 0.12076953676380731 0.18690935762408761 0 0.20767261601459541 0.25628918442207171 0 0.75000000000057243 0.35048094716480432 0 0.68668231842078242 0.24762892664808989 0 0.79891106056046712 0.25007334953587562 0 0.22257735880419699 0.47344721641341742 0 0.32815957677880009 0.4577243358118348 0 0.26982811998763367 0.56544650815856912 0 0.44078402250377968 0.67714785211715212 0 0.37776173212361452 0.78514649317305008 0 0.32607333794064219 0.67760114260606152 0 0.89658421694297741 0.1933620068391701 0 0.88173731489851925 0.33077402607778361 0 0.79891106056046712 0.25007334953587562 0 1 0.37499999999904599 0 1 0.49999999999869221 0 0.915464298762109 0.43749999999886913 0 0.37953773393552892 0.34812185820708452 0 0.44301038174930041 0.45684931552185398 0 0.32815957677880009 0.4577243358118348 0 0.32607333794064219 0.67760114260606152 0 0.21809253452218619 0.65480892822618109 0 0.26982811998763367 0.56544650815856912 0 1 0.1249999999997731 0 0.89658421694297741 0.1933620068391701 0 0.90849364905355434 0.091506350946296292 0 0 0.87499999999950151 0 0.10409951422139101 0.81206782209691231 0 0.091506350946494744 0.90849364905351082 0 0.1249999999997731 0 0 0.19185372118111221 0.092925648673580788 0 0.091506350946417708 0.091506350946618076 0 1 0.62499999999901068 0 1 0.74999999999934042 0 0.92266244547590082 0.68749999999917555 0 0.18802967116092181 0.89415349436770275 0 0.12500000000052089 1 0 0.091506350946494744 0.90849364905351082 0 0.89051480781310632 0.79665793440246835 0 1 0.87499999999967015 0 0.90849364905363228 0.90849364905367769 0 0.12076953676380731 0.18690935762408761 0 0 0.12500000000052089 0 0.091506350946417708 0.091506350946618076 0 0.81249999999950517 0.1082531754733404 0 0.87499999999967015 0 0 0.90849364905355434 0.091506350946296292 0 0.87499999999950151 1 0 0.80886664387416207 0.89717308644237903 0 0.90849364905363228 0.90849364905367769 0 0.68668231842078242 0.24762892664808989 0 0.62499999999892575 0.17524047358135519 0 0.73983916756365475 0.17530677078674589 0 0.31281086598417152 0.10449318608631281 0 0.43749999999910871 0.1082531754729984 0 0.37500000000232431 0.17524047358384309 0 0.62499999999892575 0.17524047358135519 0 0.56250000000143974 0.2422277716920859 0 0.49999999999934441 0.1752404735815076 0 0.56249999999885147 0.1082531754730395 0 0.68749999999926592 0.1082531754732875 0 0.62499999999892575 0.17524047358135519 0 0.56249999999885147 0.1082531754730395 0 0.62499999999892575 0.17524047358135519 0 0.49999999999934441 0.1752404735815076 0 0.56250000000143974 0.2422277716920859 0 0.43750000000200551 0.24222777169198509 0 0.49999999999934441 0.1752404735815076 0 0.43749999999910871 0.1082531754729984 0 0.56249999999885147 0.1082531754730395 0 0.49999999999934441 0.1752404735815076 0 0.68668231842078242 0.24762892664808989 0 0.56250000000143974 0.2422277716920859 0 0.62499999999892575 0.17524047358135519 0 0.43750000000200551 0.24222777169198509 0 0.31411863959822661 0.24965544328045999 0 0.37500000000232431 0.17524047358384309 0 0.49999999999934441 0.1752404735815076 0 0.43750000000200551 0.24222777169198509 0 0.37500000000232431 0.17524047358384309 0 0.43749999999910871 0.1082531754729984 0 0.49999999999934441 0.1752404735815076 0 0.37500000000232431 0.17524047358384309 0 0.62499999999892575 0.17524047358135519 0 0.68749999999926592 0.1082531754732875 0 0.73983916756365475 0.17530677078674589 0 0.68749999999926592 0.1082531754732875 0 0.81249999999950517 0.1082531754733404 0 0.73983916756365475 0.17530677078674589 0 0.10409951422139101 0.81206782209691231 0 0.18802967116092181 0.89415349436770275 0 0.091506350946494744 0.90849364905351082 0 0.89658421694297741 0.1933620068391701 0 0.81249999999950517 0.1082531754733404 0 0.90849364905355434 0.091506350946296292 0 0.19185372118111221 0.092925648673580788 0 0.12076953676380731 0.18690935762408761 0 0.091506350946417708 0.091506350946618076 0 0.37500000000232431 0.17524047358384309 0 0.31411863959822661 0.24965544328045999 0 0.25103557339309318 0.17464499738446629 0 0.31281086598417152 0.10449318608631281 0 0.37500000000232431 0.17524047358384309 0 0.25103557339309318 0.17464499738446629 0 0.80886664387416207 0.89717308644237903 0 0.89051480781310632 0.79665793440246835 0 0.90849364905363228 0.90849364905367769 0 0.19185372118111221 0.092925648673580788 0 0.31281086598417152 0.10449318608631281 0 0.25103557339309318 0.17464499738446629 0 0.79891106056046712 0.25007334953587562 0 0.68668231842078242 0.24762892664808989 0 0.73983916756365475 0.17530677078674589 0 0.31411863959822661 0.24965544328045999 0 0.20767261601459541 0.25628918442207171 0 0.25103557339309318 0.17464499738446629 0 

        </DataArray>

      </Points>

      <Cells>

        <DataArray type="Int32" Name="connectivity" format="ascii">

0 1 2 3 4 5 6 7 8 9 10 11 12 13 14 15 16 17 18 19 20 21 22 23 24 25 26 27 28 29 30 31 32 33 34 35 36 37 38 39 40 41 42 43 44 45 46 47 48 49 50 51 52 53 54 55 56 57 58 59 60 61 62 63 64 65 66 67 68 69 70 71 72 73 74 75 76 77 78 79 80 81 82 83 84 85 86 87 88 89 90 91 92 93 94 95 96 97 98 99 100 101 102 103 104 105 106 107 108 109 110 111 112 113 114 115 116 117 118 119 120 121 122 123 124 125 126 127 128 129 130 131 132 133 134 135 136 137 138 139 140 141 142 143 144 145 146 147 148 149 150 151 152 153 154 155 156 157 158 159 160 161 162 163 164 165 166 167 168 169 170 171 172 173 174 175 176 177 178 179 180 181 182 183 184 185 186 187 188 189 190 191 192 193 194 195 196 197 198 199 200 201 202 203 204 205 206 207 208 209 210 211 212 213 214 215 216 217 218 219 220 221 222 223 224 225 226 227 228 229 230 231 232 233 234 235 236 237 238 239 240 241 242 243 244 245 246 247 248 249 250 251 252 253 254 255 256 257 258 259 260 261 262 263 264 265 266 267 268 269 270 271 272 273 274 275 276 277 278 279 280 281 282 283 284 285 286 287 288 289 290 291 292 293 294 295 296 297 298 299 300 301 302 303 304 305 306 307 308 309 310 311 312 313 314 315 316 317 318 319 320 321 322 323 324 325 326 327 328 329 330 331 332 333 334 335 336 337 338 339 340 341 342 343 344 345 346 347 348 349 350 351 352 353 354 355 356 357 358 359 360 361 362 363 364 365 366 367 368 369 370 371 372 373 374 375 376 377 378 379 380 381 382 383 384 385 386 387 388 389 390 391 392 393 394 395 396 397 398 399 400 401 402 403 404 405 406 407 408 409 410 411 412 413 414 415 416 417 418 419 420 421 422 423 424 425 426 427 428 429 430 431 432 433 434 435 436 437 438 439 440 441 442 443 444 445 446 447 448 449 450 451 452 453 454 455 456 457 458 459 460 461 462 463 464 465 466 467 468 469 470 471 472 473 474 475 476 477 478 479 480 481 482 483 484 485 

        </DataArray>

        <DataArray type="Int32" Name="offsets" format="ascii">

3 6 9 12 15 18 21 24 27 30 33 36 39 42 45 48 51 54 57 60 63 66 69 72 75 78 81 84 87 90 93 96 99 102 105 108 111 114 117 120 123 126 129 132 135 138 141 144 147 150 153 156 159 162 165 168 171 174 177 180 183 186 189 192 195 198 201 204 207 210 213 216 219 222 225 228 231 234 237 240 243 246 249 252 255 258 261 264 267 270 273 276 279 282 285 288 291 294 297 300 303 306 309 312 315 318 321 324 327 330 333 336 339 342 345 348 351 354 357 360 363 366 369 372 375 378 381 384 387 390 393 396 399 402 405 408 411 414 417 420 423 426 429 432 435 438 441 444 447 450 453 456 459 462 465 468 471 474 477 480 483 486 

        </DataArray>

        <DataArray type="Int32" Name="types" format="ascii">

5 5 5 5 5 5 5 5 5 5 5 5 5 5 5 5 5 5 5 5 5 5 5 5 5 5 5 5 5 5 5 5 5 5 5 5 5 5 5 5 5 5 5 5 5 5 5 5 5 5 5 5 5 5 5 5 5 5 5 5 5 5 5 5 5 5 5 5 5 5 5 5 5 5 5 5 5 5 5 5 5 5 5 5 5 5 5 5 5 5 5 5 5 5 5 5 5 5 5 5 5 5 5 5 5 5 5 5 5 5 5 5 5 5 5 5 5 5 5 5 5 5 5 5 5 5 5 5 5 5 5 5 5 5 5 5 5 5 5 5 5 5 5 5 5 5 5 5 5 5 5 5 5 5 5 5 5 5 5 5 5 5 

        </DataArray>

      </Cells>

    </Piece>

  </UnstructuredGrid>

</VTKFile>

