<?xml version="1.0"?>

<VTKFile type="UnstructuredGrid" version="0.1">

  <UnstructuredGrid>

    <Piece NumberOfPoints="486" NumberOfCells="162">

      <PointData>

        <DataArray type="Float64" Name="K" format="ascii">

1.02104109176958913e+00
1.02104109176958913e+00
1.02104109176958913e+00
1.00784072357302490e+00
1.00784072357302490e+00
1.00784072357302490e+00
9.40228899875634738e-01
9.40228899875634738e-01
9.40228899875634738e-01
9.64535880386980793e-01
9.64535880386980793e-01
9.64535880386980793e-01
9.37858005806245010e-01
9.37858005806245010e-01
9.37858005806245010e-01
9.74983519063192139e-01
9.74983519063192139e-01
9.74983519063192139e-01
9.52748176766836208e-01
9.52748176766836208e-01
9.52748176766836208e-01
1.03898299093865099e+00
1.03898299093865099e+00
1.03898299093865099e+00
1.04396709324623704e+00
1.04396709324623704e+00
1.04396709324623704e+00
1.04026493394616315e+00
1.04026493394616315e+00
1.04026493394616315e+00
9.28869416946289772e-01
9.28869416946289772e-01
9.28869416946289772e-01
9.82909562837584239e-01
9.82909562837584239e-01
9.82909562837584239e-01
1.00099186920611793e+00
1.00099186920611793e+00
1.00099186920611793e+00
9.74591682836301820e-01
9.74591682836301820e-01
9.74591682836301820e-01
9.97673568340995409e-01
9.97673568340995409e-01
9.97673568340995409e-01
1.03434573630857307e+00
1.03434573630857307e+00
1.03434573630857307e+00
1.02535471000285816e+00
1.02535471000285816e+00
1.02535471000285816e+00
9.34426950072799190e-01
9.34426950072799190e-01
9.34426950072799190e-01
9.85075490089888040e-01
9.85075490089888040e-01
9.85075490089888040e-01
1.01781486195442872e+00
1.01781486195442872e+00
1.01781486195442872e+00
9.49437124202216043e-01
9.49437124202216043e-01
9.49437124202216043e-01
9.68396491767450351e-01
9.68396491767450351e-01
9.68396491767450351e-01
9.67462980014903162e-01
9.67462980014903162e-01
9.67462980014903162e-01
9.83308407029825582e-01
9.83308407029825582e-01
9.83308407029825582e-01
1.00317859907611839e+00
1.00317859907611839e+00
1.00317859907611839e+00
1.02970714394794105e+00
1.02970714394794105e+00
1.02970714394794105e+00
1.02645952769648008e+00
1.02645952769648008e+00
1.02645952769648008e+00
1.01511255921020394e+00
1.01511255921020394e+00
1.01511255921020394e+00
9.83801060637529257e-01
9.83801060637529257e-01
9.83801060637529257e-01
1.03007636592774943e+00
1.03007636592774943e+00
1.03007636592774943e+00
1.03950937464583082e+00
1.03950937464583082e+00
1.03950937464583082e+00
1.05517316360540780e+00
1.05517316360540780e+00
1.05517316360540780e+00
1.03362637577823224e+00
1.03362637577823224e+00
1.03362637577823224e+00
9.34316804295831971e-01
9.34316804295831971e-01
9.34316804295831971e-01
1.01150292422115973e+00
1.01150292422115973e+00
1.01150292422115973e+00
1.03849151137717244e+00
1.03849151137717244e+00
1.03849151137717244e+00
9.26788660232418682e-01
9.26788660232418682e-01
9.26788660232418682e-01
1.03459802489875385e+00
1.03459802489875385e+00
1.03459802489875385e+00
1.02584074484418264e+00
1.02584074484418264e+00
1.02584074484418264e+00
1.02471634127423039e+00
1.02471634127423039e+00
1.02471634127423039e+00
1.01423187719704155e+00
1.01423187719704155e+00
1.01423187719704155e+00
1.02766554148031908e+00
1.02766554148031908e+00
1.02766554148031908e+00
1.03130604461157360e+00
1.03130604461157360e+00
1.03130604461157360e+00
9.98208370807710965e-01
9.98208370807710965e-01
9.98208370807710965e-01
1.04371039779280572e+00
1.04371039779280572e+00
1.04371039779280572e+00
1.01024333743677852e+00
1.01024333743677852e+00
1.01024333743677852e+00
1.02036054121283182e+00
1.02036054121283182e+00
1.02036054121283182e+00
1.04687187989490593e+00
1.04687187989490593e+00
1.04687187989490593e+00
1.04700615600951052e+00
1.04700615600951052e+00
1.04700615600951052e+00
9.71880936107380022e-01
9.71880936107380022e-01
9.71880936107380022e-01
1.05431287554973441e+00
1.05431287554973441e+00
1.05431287554973441e+00
1.02779139432171518e+00
1.02779139432171518e+00
1.02779139432171518e+00
1.02486204357668598e+00
1.02486204357668598e+00
1.02486204357668598e+00
1.04940088637950568e+00
1.04940088637950568e+00
1.04940088637950568e+00
1.00320443203152165e+00
1.00320443203152165e+00
1.00320443203152165e+00
1.02675264299970981e+00
1.02675264299970981e+00
1.02675264299970981e+00
1.05550885452867083e+00
1.05550885452867083e+00
1.05550885452867083e+00
1.01409486955481887e+00
1.01409486955481887e+00
1.01409486955481887e+00
1.04803932475510009e+00
1.04803932475510009e+00
1.04803932475510009e+00
1.03778131086302228e+00
1.03778131086302228e+00
1.03778131086302228e+00
1.03781341833808805e+00
1.03781341833808805e+00
1.03781341833808805e+00
1.04190673677052303e+00
1.04190673677052303e+00
1.04190673677052303e+00
1.04291965122853725e+00
1.04291965122853725e+00
1.04291965122853725e+00
9.65757980955198936e-01
9.65757980955198936e-01
9.65757980955198936e-01
9.74878197433356908e-01
9.74878197433356908e-01
9.74878197433356908e-01
9.56063241791586194e-01
9.56063241791586194e-01
9.56063241791586194e-01
1.00085000268915492e+00
1.00085000268915492e+00
1.00085000268915492e+00
1.01553588983688470e+00
1.01553588983688470e+00
1.01553588983688470e+00
9.83274077061707774e-01
9.83274077061707774e-01
9.83274077061707774e-01
9.33626792280893736e-01
9.33626792280893736e-01
9.33626792280893736e-01
1.02238958102880839e+00
1.02238958102880839e+00
1.02238958102880839e+00
9.56017640470565144e-01
9.56017640470565144e-01
9.56017640470565144e-01
9.66593424600930118e-01
9.66593424600930118e-01
9.66593424600930118e-01
9.47998990011796550e-01
9.47998990011796550e-01
9.47998990011796550e-01
1.02347757534650308e+00
1.02347757534650308e+00
1.02347757534650308e+00
9.61125691839098018e-01
9.61125691839098018e-01
9.61125691839098018e-01
1.01926001157313117e+00
1.01926001157313117e+00
1.01926001157313117e+00
9.69098170969888928e-01
9.69098170969888928e-01
9.69098170969888928e-01
1.00129753831788415e+00
1.00129753831788415e+00
1.00129753831788415e+00
9.39377874213416786e-01
9.39377874213416786e-01
9.39377874213416786e-01
9.47967177820348561e-01
9.47967177820348561e-01
9.47967177820348561e-01
9.59245026307180559e-01
9.59245026307180559e-01
9.59245026307180559e-01
9.85805355356780599e-01
9.85805355356780599e-01
9.85805355356780599e-01
9.88886369774962914e-01
9.88886369774962914e-01
9.88886369774962914e-01
9.67031495688348341e-01
9.67031495688348341e-01
9.67031495688348341e-01
9.69449854209494366e-01
9.69449854209494366e-01
9.69449854209494366e-01
9.86166680755079073e-01
9.86166680755079073e-01
9.86166680755079073e-01
9.79656905984149562e-01
9.79656905984149562e-01
9.79656905984149562e-01
9.74644211169814145e-01
9.74644211169814145e-01
9.74644211169814145e-01
9.93202171278386170e-01
9.93202171278386170e-01
9.93202171278386170e-01
9.43609353683931285e-01
9.43609353683931285e-01
9.43609353683931285e-01
1.04155345974318281e+00
1.04155345974318281e+00
1.04155345974318281e+00
1.01818455645519967e+00
1.01818455645519967e+00
1.01818455645519967e+00
1.04402783982679037e+00
1.04402783982679037e+00
1.04402783982679037e+00
1.06017022683360884e+00
1.06017022683360884e+00
1.06017022683360884e+00
1.01812108435483717e+00
1.01812108435483717e+00
1.01812108435483717e+00
9.84666994108280402e-01
9.84666994108280402e-01
9.84666994108280402e-01
9.97251170118894192e-01
9.97251170118894192e-01
9.97251170118894192e-01
1.02189637016532453e+00
1.02189637016532453e+00
1.02189637016532453e+00
1.02926106534489237e+00
1.02926106534489237e+00
1.02926106534489237e+00
1.03241035480803567e+00
1.03241035480803567e+00
1.03241035480803567e+00
1.05220213300462428e+00
1.05220213300462428e+00
1.05220213300462428e+00
1.00698859521178230e+00
1.00698859521178230e+00
1.00698859521178230e+00
9.45822199077560266e-01
9.45822199077560266e-01
9.45822199077560266e-01
1.03475816755401762e+00
1.03475816755401762e+00
1.03475816755401762e+00
1.00084052503609189e+00
1.00084052503609189e+00
1.00084052503609189e+00
1.04271804270203949e+00
1.04271804270203949e+00
1.04271804270203949e+00
1.01196026662079697e+00
1.01196026662079697e+00
1.01196026662079697e+00
9.94799161940589149e-01
9.94799161940589149e-01
9.94799161940589149e-01
9.47923648941391139e-01
9.47923648941391139e-01
9.47923648941391139e-01
9.32536163819427832e-01
9.32536163819427832e-01
9.32536163819427832e-01
1.03907030830406333e+00
1.03907030830406333e+00
1.03907030830406333e+00
1.04780310873273130e+00
1.04780310873273130e+00
1.04780310873273130e+00
1.02070550348886102e+00
1.02070550348886102e+00
1.02070550348886102e+00
1.00226779722870751e+00
1.00226779722870751e+00
1.00226779722870751e+00
1.05246403335090943e+00
1.05246403335090943e+00
1.05246403335090943e+00
1.05512135683579067e+00
1.05512135683579067e+00
1.05512135683579067e+00
1.03757397420503694e+00
1.03757397420503694e+00
1.03757397420503694e+00
1.05119458126598797e+00
1.05119458126598797e+00
1.05119458126598797e+00
1.00212808013277455e+00
1.00212808013277455e+00
1.00212808013277455e+00
1.02534525728578862e+00
1.02534525728578862e+00
1.02534525728578862e+00
9.76691714075789919e-01
9.76691714075789919e-01
9.76691714075789919e-01
9.87385452146152254e-01
9.87385452146152254e-01
9.87385452146152254e-01
9.91620845662886663e-01
9.91620845662886663e-01
9.91620845662886663e-01
9.93861138449815384e-01
9.93861138449815384e-01
9.93861138449815384e-01
9.43366484457589083e-01
9.43366484457589083e-01
9.43366484457589083e-01
1.03784122619946517e+00
1.03784122619946517e+00
1.03784122619946517e+00
1.00463226246543114e+00
1.00463226246543114e+00
1.00463226246543114e+00
1.00897027061378397e+00
1.00897027061378397e+00
1.00897027061378397e+00
9.29504434522743672e-01
9.29504434522743672e-01
9.29504434522743672e-01
9.86950899170100704e-01
9.86950899170100704e-01
9.86950899170100704e-01
1.03565012397048295e+00
1.03565012397048295e+00
1.03565012397048295e+00
1.03209248972830392e+00
1.03209248972830392e+00
1.03209248972830392e+00
1.06291637774425318e+00
1.06291637774425318e+00
1.06291637774425318e+00
1.05154126273725246e+00
1.05154126273725246e+00
1.05154126273725246e+00
1.00729959363531885e+00
1.00729959363531885e+00
1.00729959363531885e+00
1.03166874365222672e+00
1.03166874365222672e+00
1.03166874365222672e+00
1.05257988416176840e+00
1.05257988416176840e+00
1.05257988416176840e+00
1.05158558501246380e+00
1.05158558501246380e+00
1.05158558501246380e+00
1.00254137723411341e+00
1.00254137723411341e+00
1.00254137723411341e+00
1.01373226809304451e+00
1.01373226809304451e+00
1.01373226809304451e+00
1.04493505297847689e+00
1.04493505297847689e+00
1.04493505297847689e+00
1.01594456463961036e+00
1.01594456463961036e+00
1.01594456463961036e+00
1.02478391806396862e+00
1.02478391806396862e+00
1.02478391806396862e+00
1.03025677673626048e+00
1.03025677673626048e+00
1.03025677673626048e+00
1.00870543272503710e+00
1.00870543272503710e+00
1.00870543272503710e+00
1.04496157817214730e+00
1.04496157817214730e+00
1.04496157817214730e+00
1.00802905150168165e+00
1.00802905150168165e+00
1.00802905150168165e+00
1.01513195086546859e+00
1.01513195086546859e+00
1.01513195086546859e+00
1.02297634089364387e+00
1.02297634089364387e+00
1.02297634089364387e+00
1.04091254747964079e+00
1.04091254747964079e+00
1.04091254747964079e+00
1.01928743419337220e+00
1.01928743419337220e+00
1.01928743419337220e+00
1.02655940474304841e+00
1.02655940474304841e+00
1.02655940474304841e+00
1.02093932076571536e+00
1.02093932076571536e+00
1.02093932076571536e+00
1.04429129392812126e+00
1.04429129392812126e+00
1.04429129392812126e+00
1.05341244020400859e+00
1.05341244020400859e+00
1.05341244020400859e+00
1.02597816654091756e+00
1.02597816654091756e+00
1.02597816654091756e+00
1.03954293097414152e+00
1.03954293097414152e+00
1.03954293097414152e+00
1.02191976794448314e+00
1.02191976794448314e+00
1.02191976794448314e+00
1.04623486332783466e+00
1.04623486332783466e+00
1.04623486332783466e+00
1.01157084979508838e+00
1.01157084979508838e+00
1.01157084979508838e+00
1.01376594412936583e+00
1.01376594412936583e+00
1.01376594412936583e+00


        </DataArray>

      </PointData>

      <CellData/>

      <Points>

        <DataArray type="Float64" NumberOfComponents="3" format="ascii">

0.1082531754723032 0.6875000000007816 0 0.23533274979922561 0.77093399389351469 0 0.10409951422139101 0.81206782209691231 0 0.23533274979922561 0.77093399389351469 0 0.1082531754723032 0.6875000000007816 0 0.21809253452218619 0.65480892822618109 0 0.24418615484441761 0.35773612382016978 0 0.121259140952891 0.43112117036853742 0 0.1082531754734323 0.31250000000117473 0 0.75000000000057243 0.35048094716480432 0 0.88173731489851925 0.33077402607778361 0 0.81242894672211508 0.45500248311961472 0 0.121259140952891 0.43112117036853742 0 0.24418615484441761 0.35773612382016978 0 0.22257735880419699 0.47344721641341742 0 0.81242894672211508 0.45500248311961472 0 0.88173731489851925 0.33077402607778361 0 0.915464298762109 0.43749999999886913 0 0 0.62500000000121547 0 0 0.50000000000206146 0 0.1371230538040123 0.56179824718362847 0 0.82212678063041267 0.67678595194836966 0 0.89051480781310632 0.79665793440246835 0 0.76243180583607129 0.78687675331113149 0 0.76243180583607129 0.78687675331113149 0 0.69010814643829166 0.89298495739101336 0 0.62844955668446423 0.7850749770380413 0 0.89051480781310632 0.79665793440246835 0 0.82212678063041267 0.67678595194836966 0 0.92266244547590082 0.68749999999917555 0 0 0.50000000000206146 0 0.121259140952891 0.43112117036853742 0 0.1371230538040123 0.56179824718362847 0 0.1082531754723032 0.6875000000007816 0 0 0.62500000000121547 0 0.1371230538040123 0.56179824718362847 0 0.75000000000032374 0.56698729811007709 0 0.88927506082488361 0.56409486310635837 0 0.82212678063041267 0.67678595194836966 0 0.81242894672211508 0.45500248311961472 0 0.88927506082488361 0.56409486310635837 0 0.75000000000032374 0.56698729811007709 0 0.69851598570178741 0.68211701800612057 0 0.56496004948275869 0.67675037307860475 0 0.62752533658682441 0.56838075195614346 0 0.69851598570178741 0.68211701800612057 0 0.76243180583607129 0.78687675331113149 0 0.62844955668446423 0.7850749770380413 0 0.23533274979922561 0.77093399389351469 0 0.18802967116092181 0.89415349436770275 0 0.10409951422139101 0.81206782209691231 0 0.121259140952891 0.43112117036853742 0 0.22257735880419699 0.47344721641341742 0 0.1371230538040123 0.56179824718362847 0 0.75000000000032374 0.56698729811007709 0 0.69851598570178741 0.68211701800612057 0 0.62752533658682441 0.56838075195614346 0 0.56496004948275869 0.67675037307860475 0 0.69851598570178741 0.68211701800612057 0 0.62844955668446423 0.7850749770380413 0 0.1371230538040123 0.56179824718362847 0 0.22257735880419699 0.47344721641341742 0 0.26982811998763367 0.56544650815856912 0 0.21809253452218619 0.65480892822618109 0 0.1371230538040123 0.56179824718362847 0 0.26982811998763367 0.56544650815856912 0 0.24418615484441761 0.35773612382016978 0 0.1082531754734323 0.31250000000117473 0 0.20767261601459541 0.25628918442207171 0 0.88173731489851925 0.33077402607778361 0 0.75000000000057243 0.35048094716480432 0 0.79891106056046712 0.25007334953587562 0 0.75000000000032374 0.56698729811007709 0 0.82212678063041267 0.67678595194836966 0 0.69851598570178741 0.68211701800612057 0 0.81249999999950517 0.1082531754733404 0 0.89658421694297741 0.1933620068391701 0 0.79891106056046712 0.25007334953587562 0 0.81249999999950517 0.1082531754733404 0 0.79891106056046712 0.25007334953587562 0 0.73983916756365475 0.17530677078674589 0 0.23533274979922561 0.77093399389351469 0 0.21809253452218619 0.65480892822618109 0 0.32607333794064219 0.67760114260606152 0 0.1082531754723032 0.6875000000007816 0 0.1371230538040123 0.56179824718362847 0 0.21809253452218619 0.65480892822618109 0 0.69851598570178741 0.68211701800612057 0 0.82212678063041267 0.67678595194836966 0 0.76243180583607129 0.78687675331113149 0 0.69010814643829166 0.89298495739101336 0 0.76243180583607129 0.78687675331113149 0 0.80886664387416207 0.89717308644237903 0 0.43750000000181222 0.89174682452709564 0 0.31258827852827581 0.89214793616708443 0 0.37776173212361452 0.78514649317305008 0 0.43750000000181222 0.89174682452709564 0 0.37500000000156292 1 0 0.31258827852827581 0.89214793616708443 0 0.121259140952891 0.43112117036853742 0 0 0.37500000000156292 0 0.1082531754734323 0.31250000000117473 0 0.50000000000206146 1 0 0.37500000000156292 1 0 0.43750000000181222 0.89174682452709564 0 0.31258827852827581 0.89214793616708443 0 0.18802967116092181 0.89415349436770275 0 0.23533274979922561 0.77093399389351469 0 0 0.50000000000206146 0 0 0.37500000000156292 0 0.121259140952891 0.43112117036853742 0 0.62844955668446423 0.7850749770380413 0 0.69010814643829166 0.89298495739101336 0 0.56327595140699671 0.89211526915426331 0 0.69010814643829166 0.89298495739101336 0 0.62500000000121547 1 0 0.56327595140699671 0.89211526915426331 0 0.25000000000104189 1 0 0.18802967116092181 0.89415349436770275 0 0.31258827852827581 0.89214793616708443 0 0.50000000000206146 1 0 0.43750000000181222 0.89174682452709564 0 0.56327595140699671 0.89211526915426331 0 0.56249999999885147 0.1082531754730395 0 0.62499999999901068 0 0 0.68749999999926592 0.1082531754732875 0 1 0.49999999999869221 0 1 0.62499999999901068 0 0.88927506082488361 0.56409486310635837 0 0 0.25000000000104189 0 0.12076953676380731 0.18690935762408761 0 0.1082531754734323 0.31250000000117473 0 0.49999999999869221 0 0 0.62499999999901068 0 0 0.56249999999885147 0.1082531754730395 0 0.62500000000121547 1 0 0.50000000000206146 1 0 0.56327595140699671 0.89211526915426331 0 0.37500000000156292 1 0 0.25000000000104189 1 0 0.31258827852827581 0.89214793616708443 0 0.31281086598417152 0.10449318608631281 0 0.37499999999904599 0 0 0.43749999999910871 0.1082531754729984 0 0.43750000000181222 0.89174682452709564 0 0.37776173212361452 0.78514649317305008 0 0.50046028868828263 0.78376912307435687 0 0 0.37500000000156292 0 0 0.25000000000104189 0 0.1082531754734323 0.31250000000117473 0 0.49999999999869221 0 0 0.56249999999885147 0.1082531754730395 0 0.43749999999910871 0.1082531754729984 0 0.43750000000181222 0.89174682452709564 0 0.50046028868828263 0.78376912307435687 0 0.56327595140699671 0.89211526915426331 0 0.74999999999934042 0 0 0.81249999999950517 0.1082531754733404 0 0.68749999999926592 0.1082531754732875 0 0.37499999999904599 0 0 0.49999999999869221 0 0 0.43749999999910871 0.1082531754729984 0 0.25000000000104189 1 0 0.12500000000052089 1 0 0.18802967116092181 0.89415349436770275 0 0.50046028868828263 0.78376912307435687 0 0.62844955668446423 0.7850749770380413 0 0.56327595140699671 0.89211526915426331 0 0.37776173212361452 0.78514649317305008 0 0.31258827852827581 0.89214793616708443 0 0.23533274979922561 0.77093399389351469 0 0.62499999999901068 0 0 0.74999999999934042 0 0 0.68749999999926592 0.1082531754732875 0 1 0.74999999999934042 0 1 0.87499999999967015 0 0.89051480781310632 0.79665793440246835 0 0 0.25000000000104189 0 0 0.12500000000052089 0 0.12076953676380731 0.18690935762408761 0 0.74999999999934042 0 0 0.87499999999967015 0 0 0.81249999999950517 0.1082531754733404 0 0.24999999999941069 0 0 0.37499999999904599 0 0 0.31281086598417152 0.10449318608631281 0 0.50046028868828263 0.78376912307435687 0 0.37776173212361452 0.78514649317305008 0 0.44078402250377968 0.67714785211715212 0 0.68768773896438518 0.4586835206367198 0 0.75000000000032374 0.56698729811007709 0 0.62752533658682441 0.56838075195614346 0 0.31411863959822661 0.24965544328045999 0 0.37953773393552892 0.34812185820708452 0 0.24418615484441761 0.35773612382016978 0 0.68768773896438518 0.4586835206367198 0 0.81242894672211508 0.45500248311961472 0 0.75000000000032374 0.56698729811007709 0 1 0.24999999999941069 0 1 0.37499999999904599 0 0.88173731489851925 0.33077402607778361 0 0 0.75000000000034761 0 0 0.62500000000121547 0 0.1082531754723032 0.6875000000007816 0 0.50048844149666749 0.56727788297625459 0 0.44078402250377968 0.67714785211715212 0 0.38694285807596462 0.5672991787102919 0 0.50108503093851109 0.35012252869403671 0 0.44301038174930041 0.45684931552185398 0 0.37953773393552892 0.34812185820708452 0 0.50046028868828263 0.78376912307435687 0 0.56496004948275869 0.67675037307860475 0 0.62844955668446423 0.7850749770380413 0 0.68768773896438518 0.4586835206367198 0 0.75000000000057243 0.35048094716480432 0 0.81242894672211508 0.45500248311961472 0 0.56349980387502452 0.45846841892908402 0 0.62512662990940393 0.35044303886909911 0 0.68768773896438518 0.4586835206367198 0 0.50048844149666749 0.56727788297625459 0 0.38694285807596462 0.5672991787102919 0 0.44301038174930041 0.45684931552185398 0 0.50046028868828263 0.78376912307435687 0 0.44078402250377968 0.67714785211715212 0 0.56496004948275869 0.67675037307860475 0 0.50108503093851109 0.35012252869403671 0 0.37953773393552892 0.34812185820708452 0 0.43750000000200551 0.24222777169198509 0 0.75000000000034761 1 0 0.62500000000121547 1 0 0.69010814643829166 0.89298495739101336 0 0.68768773896438518 0.4586835206367198 0 0.62512662990940393 0.35044303886909911 0 0.75000000000057243 0.35048094716480432 0 0.56496004948275869 0.67675037307860475 0 0.44078402250377968 0.67714785211715212 0 0.50048844149666749 0.56727788297625459 0 0.56349980387502452 0.45846841892908402 0 0.44301038174930041 0.45684931552185398 0 0.50108503093851109 0.35012252869403671 0 0.50048844149666749 0.56727788297625459 0 0.44301038174930041 0.45684931552185398 0 0.56349980387502452 0.45846841892908402 0 0.56349980387502452 0.45846841892908402 0 0.50108503093851109 0.35012252869403671 0 0.62512662990940393 0.35044303886909911 0 0.43750000000200551 0.24222777169198509 0 0.37953773393552892 0.34812185820708452 0 0.31411863959822661 0.24965544328045999 0 0.56496004948275869 0.67675037307860475 0 0.50048844149666749 0.56727788297625459 0 0.62752533658682441 0.56838075195614346 0 0.56349980387502452 0.45846841892908402 0 0.68768773896438518 0.4586835206367198 0 0.62752533658682441 0.56838075195614346 0 0.50048844149666749 0.56727788297625459 0 0.56349980387502452 0.45846841892908402 0 0.62752533658682441 0.56838075195614346 0 0.75000000000057243 0.35048094716480432 0 0.62512662990940393 0.35044303886909911 0 0.68668231842078242 0.24762892664808989 0 0.50108503093851109 0.35012252869403671 0 0.43750000000200551 0.24222777169198509 0 0.56250000000143974 0.2422277716920859 0 0.62512662990940393 0.35044303886909911 0 0.50108503093851109 0.35012252869403671 0 0.56250000000143974 0.2422277716920859 0 0.68668231842078242 0.24762892664808989 0 0.62512662990940393 0.35044303886909911 0 0.56250000000143974 0.2422277716920859 0 0.22257735880419699 0.47344721641341742 0 0.24418615484441761 0.35773612382016978 0 0.32815957677880009 0.4577243358118348 0 0.12076953676380731 0.18690935762408761 0 0.19185372118111221 0.092925648673580788 0 0.25103557339309318 0.17464499738446629 0 0.20767261601459541 0.25628918442207171 0 0.12076953676380731 0.18690935762408761 0 0.25103557339309318 0.17464499738446629 0 0 0.87499999999950151 0 0 0.75000000000034761 0 0.10409951422139101 0.81206782209691231 0 0.1249999999997731 0 0 0.24999999999941069 0 0 0.19185372118111221 0.092925648673580788 0 1 0.1249999999997731 0 1 0.24999999999941069 0 0.89658421694297741 0.1933620068391701 0 0.88927506082488361 0.56409486310635837 0 0.81242894672211508 0.45500248311961472 0 0.915464298762109 0.43749999999886913 0 0.87499999999950151 1 0 0.75000000000034761 1 0 0.80886664387416207 0.89717308644237903 0 0.75000000000034761 1 0 0.69010814643829166 0.89298495739101336 0 0.80886664387416207 0.89717308644237903 0 0.82212678063041267 0.67678595194836966 0 0.88927506082488361 0.56409486310635837 0 0.92266244547590082 0.68749999999917555 0 0 0.75000000000034761 0 0.1082531754723032 0.6875000000007816 0 0.10409951422139101 0.81206782209691231 0 0.24999999999941069 0 0 0.31281086598417152 0.10449318608631281 0 0.19185372118111221 0.092925648673580788 0 1 0.24999999999941069 0 0.88173731489851925 0.33077402607778361 0 0.89658421694297741 0.1933620068391701 0 0.32815957677880009 0.4577243358118348 0 0.38694285807596462 0.5672991787102919 0 0.26982811998763367 0.56544650815856912 0 0.76243180583607129 0.78687675331113149 0 0.89051480781310632 0.79665793440246835 0 0.80886664387416207 0.89717308644237903 0 0.38694285807596462 0.5672991787102919 0 0.44078402250377968 0.67714785211715212 0 0.32607333794064219 0.67760114260606152 0 0.37776173212361452 0.78514649317305008 0 0.23533274979922561 0.77093399389351469 0 0.32607333794064219 0.67760114260606152 0 1 0.49999999999869221 0 0.88927506082488361 0.56409486310635837 0 0.915464298762109 0.43749999999886913 0 0.88173731489851925 0.33077402607778361 0 1 0.37499999999904599 0 0.915464298762109 0.43749999999886913 0 0.24418615484441761 0.35773612382016978 0 0.37953773393552892 0.34812185820708452 0 0.32815957677880009 0.4577243358118348 0 0.44301038174930041 0.45684931552185398 0 0.38694285807596462 0.5672991787102919 0 0.32815957677880009 0.4577243358118348 0 0.88927506082488361 0.56409486310635837 0 1 0.62499999999901068 0 0.92266244547590082 0.68749999999917555 0 1 0.74999999999934042 0 0.89051480781310632 0.79665793440246835 0 0.92266244547590082 0.68749999999917555 0 0 1 0 0 0.87499999999950151 0 0.091506350946494744 0.90849364905351082 0 1 1 0 0.87499999999950151 1 0 0.90849364905363228 0.90849364905367769 0 0 0 0 0.1249999999997731 0 0 0.091506350946417708 0.091506350946618076 0 0 0.12500000000052089 0 0 0 0 0.091506350946417708 0.091506350946618076 0 1 0 0 1 0.1249999999997731 0 0.90849364905355434 0.091506350946296292 0 0.87499999999967015 0 0 1 0 0 0.90849364905355434 0.091506350946296292 0 0.12500000000052089 1 0 0 1 0 0.091506350946494744 0.90849364905351082 0 1 0.87499999999967015 0 1 1 0 0.90849364905363228 0.90849364905367769 0 0.38694285807596462 0.5672991787102919 0 0.32607333794064219 0.67760114260606152 0 0.26982811998763367 0.56544650815856912 0 0.31411863959822661 0.24965544328045999 0 0.24418615484441761 0.35773612382016978 0 0.20767261601459541 0.25628918442207171 0 0.1082531754734323 0.31250000000117473 0 0.12076953676380731 0.18690935762408761 0 0.20767261601459541 0.25628918442207171 0 0.75000000000057243 0.35048094716480432 0 0.68668231842078242 0.24762892664808989 0 0.79891106056046712 0.25007334953587562 0 0.22257735880419699 0.47344721641341742 0 0.32815957677880009 0.4577243358118348 0 0.26982811998763367 0.56544650815856912 0 0.44078402250377968 0.67714785211715212 0 0.37776173212361452 0.78514649317305008 0 0.32607333794064219 0.67760114260606152 0 0.89658421694297741 0.1933620068391701 0 0.88173731489851925 0.33077402607778361 0 0.79891106056046712 0.25007334953587562 0 1 0.37499999999904599 0 1 0.49999999999869221 0 0.915464298762109 0.43749999999886913 0 0.37953773393552892 0.34812185820708452 0 0.44301038174930041 0.45684931552185398 0 0.32815957677880009 0.4577243358118348 0 0.32607333794064219 0.67760114260606152 0 0.21809253452218619 0.65480892822618109 0 0.26982811998763367 0.56544650815856912 0 1 0.1249999999997731 0 0.89658421694297741 0.1933620068391701 0 0.90849364905355434 0.091506350946296292 0 0 0.87499999999950151 0 0.10409951422139101 0.81206782209691231 0 0.091506350946494744 0.90849364905351082 0 0.1249999999997731 0 0 0.19185372118111221 0.092925648673580788 0 0.091506350946417708 0.091506350946618076 0 1 0.62499999999901068 0 1 0.74999999999934042 0 0.92266244547590082 0.68749999999917555 0 0.18802967116092181 0.89415349436770275 0 0.12500000000052089 1 0 0.091506350946494744 0.90849364905351082 0 0.89051480781310632 0.79665793440246835 0 1 0.87499999999967015 0 0.90849364905363228 0.90849364905367769 0 0.12076953676380731 0.18690935762408761 0 0 0.12500000000052089 0 0.091506350946417708 0.091506350946618076 0 0.81249999999950517 0.1082531754733404 0 0.87499999999967015 0 0 0.90849364905355434 0.091506350946296292 0 0.87499999999950151 1 0 0.80886664387416207 0.89717308644237903 0 0.90849364905363228 0.90849364905367769 0 0.68668231842078242 0.24762892664808989 0 0.62499999999892575 0.17524047358135519 0 0.73983916756365475 0.17530677078674589 0 0.31281086598417152 0.10449318608631281 0 0.43749999999910871 0.1082531754729984 0 0.37500000000232431 0.17524047358384309 0 0.62499999999892575 0.17524047358135519 0 0.56250000000143974 0.2422277716920859 0 0.49999999999934441 0.1752404735815076 0 0.56249999999885147 0.1082531754730395 0 0.68749999999926592 0.1082531754732875 0 0.62499999999892575 0.17524047358135519 0 0.56249999999885147 0.1082531754730395 0 0.62499999999892575 0.17524047358135519 0 0.49999999999934441 0.1752404735815076 0 0.56250000000143974 0.2422277716920859 0 0.43750000000200551 0.24222777169198509 0 0.49999999999934441 0.1752404735815076 0 0.43749999999910871 0.1082531754729984 0 0.56249999999885147 0.1082531754730395 0 0.49999999999934441 0.1752404735815076 0 0.68668231842078242 0.24762892664808989 0 0.56250000000143974 0.2422277716920859 0 0.62499999999892575 0.17524047358135519 0 0.43750000000200551 0.24222777169198509 0 0.31411863959822661 0.24965544328045999 0 0.37500000000232431 0.17524047358384309 0 0.49999999999934441 0.1752404735815076 0 0.43750000000200551 0.24222777169198509 0 0.37500000000232431 0.17524047358384309 0 0.43749999999910871 0.1082531754729984 0 0.49999999999934441 0.1752404735815076 0 0.37500000000232431 0.17524047358384309 0 0.62499999999892575 0.17524047358135519 0 0.68749999999926592 0.1082531754732875 0 0.73983916756365475 0.17530677078674589 0 0.68749999999926592 0.1082531754732875 0 0.81249999999950517 0.1082531754733404 0 0.73983916756365475 0.17530677078674589 0 0.10409951422139101 0.81206782209691231 0 0.18802967116092181 0.89415349436770275 0 0.091506350946494744 0.90849364905351082 0 0.89658421694297741 0.1933620068391701 0 0.81249999999950517 0.1082531754733404 0 0.90849364905355434 0.091506350946296292 0 0.19185372118111221 0.092925648673580788 0 0.12076953676380731 0.18690935762408761 0 0.091506350946417708 0.091506350946618076 0 0.37500000000232431 0.17524047358384309 0 0.31411863959822661 0.24965544328045999 0 0.25103557339309318 0.17464499738446629 0 0.31281086598417152 0.10449318608631281 0 0.37500000000232431 0.17524047358384309 0 0.25103557339309318 0.17464499738446629 0 0.80886664387416207 0.89717308644237903 0 0.89051480781310632 0.79665793440246835 0 0.90849364905363228 0.90849364905367769 0 0.19185372118111221 0.092925648673580788 0 0.31281086598417152 0.10449318608631281 0 0.25103557339309318 0.17464499738446629 0 0.79891106056046712 0.25007334953587562 0 0.68668231842078242 0.24762892664808989 0 0.73983916756365475 0.17530677078674589 0 0.31411863959822661 0.24965544328045999 0 0.20767261601459541 0.25628918442207171 0 0.25103557339309318 0.17464499738446629 0 

        </DataArray>

      </Points>

      <Cells>

        <DataArray type="Int32" Name="connectivity" format="ascii">

0 1 2 3 4 5 6 7 8 9 10 11 12 13 14 15 16 17 18 19 20 21 22 23 24 25 26 27 28 29 30 31 32 33 34 35 36 37 38 39 40 41 42 43 44 45 46 47 48 49 50 51 52 53 54 55 56 57 58 59 60 61 62 63 64 65 66 67 68 69 70 71 72 73 74 75 76 77 78 79 80 81 82 83 84 85 86 87 88 89 90 91 92 93 94 95 96 97 98 99 100 101 102 103 104 105 106 107 108 109 110 111 112 113 114 115 116 117 118 119 120 121 122 123 124 125 126 127 128 129 130 131 132 133 134 135 136 137 138 139 140 141 142 143 144 145 146 147 148 149 150 151 152 153 154 155 156 157 158 159 160 161 162 163 164 165 166 167 168 169 170 171 172 173 174 175 176 177 178 179 180 181 182 183 184 185 186 187 188 189 190 191 192 193 194 195 196 197 198 199 200 201 202 203 204 205 206 207 208 209 210 211 212 213 214 215 216 217 218 219 220 221 222 223 224 225 226 227 228 229 230 231 232 233 234 235 236 237 238 239 240 241 242 243 244 245 246 247 248 249 250 251 252 253 254 255 256 257 258 259 260 261 262 263 264 265 266 267 268 269 270 271 272 273 274 275 276 277 278 279 280 281 282 283 284 285 286 287 288 289 290 291 292 293 294 295 296 297 298 299 300 301 302 303 304 305 306 307 308 309 310 311 312 313 314 315 316 317 318 319 320 321 322 323 324 325 326 327 328 329 330 331 332 333 334 335 336 337 338 339 340 341 342 343 344 345 346 347 348 349 350 351 352 353 354 355 356 357 358 359 360 361 362 363 364 365 366 367 368 369 370 371 372 373 374 375 376 377 378 379 380 381 382 383 384 385 386 387 388 389 390 391 392 393 394 395 396 397 398 399 400 401 402 403 404 405 406 407 408 409 410 411 412 413 414 415 416 417 418 419 420 421 422 423 424 425 426 427 428 429 430 431 432 433 434 435 436 437 438 439 440 441 442 443 444 445 446 447 448 449 450 451 452 453 454 455 456 457 458 459 460 461 462 463 464 465 466 467 468 469 470 471 472 473 474 475 476 477 478 479 480 481 482 483 484 485 

        </DataArray>

        <DataArray type="Int32" Name="offsets" format="ascii">

3 6 9 12 15 18 21 24 27 30 33 36 39 42 45 48 51 54 57 60 63 66 69 72 75 78 81 84 87 90 93 96 99 102 105 108 111 114 117 120 123 126 129 132 135 138 141 144 147 150 153 156 159 162 165 168 171 174 177 180 183 186 189 192 195 198 201 204 207 210 213 216 219 222 225 228 231 234 237 240 243 246 249 252 255 258 261 264 267 270 273 276 279 282 285 288 291 294 297 300 303 306 309 312 315 318 321 324 327 330 333 336 339 342 345 348 351 354 357 360 363 366 369 372 375 378 381 384 387 390 393 396 399 402 405 408 411 414 417 420 423 426 429 432 435 438 441 444 447 450 453 456 459 462 465 468 471 474 477 480 483 486 

        </DataArray>

        <DataArray type="Int32" Name="types" format="ascii">

5 5 5 5 5 5 5 5 5 5 5 5 5 5 5 5 5 5 5 5 5 5 5 5 5 5 5 5 5 5 5 5 5 5 5 5 5 5 5 5 5 5 5 5 5 5 5 5 5 5 5 5 5 5 5 5 5 5 5 5 5 5 5 5 5 5 5 5 5 5 5 5 5 5 5 5 5 5 5 5 5 5 5 5 5 5 5 5 5 5 5 5 5 5 5 5 5 5 5 5 5 5 5 5 5 5 5 5 5 5 5 5 5 5 5 5 5 5 5 5 5 5 5 5 5 5 5 5 5 5 5 5 5 5 5 5 5 5 5 5 5 5 5 5 5 5 5 5 5 5 5 5 5 5 5 5 5 5 5 5 5 5 

        </DataArray>

      </Cells>

    </Piece>

  </UnstructuredGrid>

</VTKFile>

