<?xml version="1.0"?>

<VTKFile type="UnstructuredGrid" version="0.1">

  <UnstructuredGrid>

    <Piece NumberOfPoints="486" NumberOfCells="162">

      <PointData>

        <DataArray type="Float64" Name="K" format="ascii">

8.94649680626095956e-01
8.94649680626095956e-01
8.94649680626095956e-01
8.90711815268838580e-01
8.90711815268838580e-01
8.90711815268838580e-01
1.05712849710076040e+00
1.05712849710076040e+00
1.05712849710076040e+00
9.91203097303970271e-01
9.91203097303970271e-01
9.91203097303970271e-01
9.99656339678203554e-01
9.99656339678203554e-01
9.99656339678203554e-01
9.96836254145285650e-01
9.96836254145285650e-01
9.96836254145285650e-01
9.21992118664473059e-01
9.21992118664473059e-01
9.21992118664473059e-01
9.59747716980557164e-01
9.59747716980557164e-01
9.59747716980557164e-01
1.00330631284753236e+00
1.00330631284753236e+00
1.00330631284753236e+00
9.61538535744294487e-01
9.61538535744294487e-01
9.61538535744294487e-01
9.56832630486811997e-01
9.56832630486811997e-01
9.56832630486811997e-01
8.71692782929886278e-01
8.71692782929886278e-01
8.71692782929886278e-01
9.70503535676292439e-01
9.70503535676292439e-01
9.70503535676292439e-01
9.78424207020049841e-01
9.78424207020049841e-01
9.78424207020049841e-01
9.92482805922294320e-01
9.92482805922294320e-01
9.92482805922294320e-01
1.00137162209276642e+00
1.00137162209276642e+00
1.00137162209276642e+00
9.53118046053288204e-01
9.53118046053288204e-01
9.53118046053288204e-01
9.47032003236070619e-01
9.47032003236070619e-01
9.47032003236070619e-01
9.74141261740854913e-01
9.74141261740854913e-01
9.74141261740854913e-01
1.02132225003050481e+00
1.02132225003050481e+00
1.02132225003050481e+00
9.03915930854350624e-01
9.03915930854350624e-01
9.03915930854350624e-01
8.81589044789399923e-01
8.81589044789399923e-01
8.81589044789399923e-01
1.08981592822221374e+00
1.08981592822221374e+00
1.08981592822221374e+00
9.96864990419914498e-01
9.96864990419914498e-01
9.96864990419914498e-01
9.73285755162073052e-01
9.73285755162073052e-01
9.73285755162073052e-01
1.01207699084654656e+00
1.01207699084654656e+00
1.01207699084654656e+00
1.01848310721334134e+00
1.01848310721334134e+00
1.01848310721334134e+00
9.23233685712614993e-01
9.23233685712614993e-01
9.23233685712614993e-01
8.66224417169933592e-01
8.66224417169933592e-01
8.66224417169933592e-01
9.72156186504137487e-01
9.72156186504137487e-01
9.72156186504137487e-01
9.69593594468849074e-01
9.69593594468849074e-01
9.69593594468849074e-01
1.02440138456204344e+00
1.02440138456204344e+00
1.02440138456204344e+00
1.04137916066217140e+00
1.04137916066217140e+00
1.04137916066217140e+00
1.04877789958068646e+00
1.04877789958068646e+00
1.04877789958068646e+00
1.04658708160829406e+00
1.04658708160829406e+00
1.04658708160829406e+00
1.00380548192445662e+00
1.00380548192445662e+00
1.00380548192445662e+00
1.01024384675050083e+00
1.01024384675050083e+00
1.01024384675050083e+00
1.04301054225895795e+00
1.04301054225895795e+00
1.04301054225895795e+00
1.03003801603413225e+00
1.03003801603413225e+00
1.03003801603413225e+00
1.02786282477384150e+00
1.02786282477384150e+00
1.02786282477384150e+00
1.05775772140394131e+00
1.05775772140394131e+00
1.05775772140394131e+00
1.03703712948947047e+00
1.03703712948947047e+00
1.03703712948947047e+00
9.47891908123751570e-01
9.47891908123751570e-01
9.47891908123751570e-01
1.06898501768125653e+00
1.06898501768125653e+00
1.06898501768125653e+00
1.03785905483181007e+00
1.03785905483181007e+00
1.03785905483181007e+00
1.04242440406645231e+00
1.04242440406645231e+00
1.04242440406645231e+00
1.03939262622123296e+00
1.03939262622123296e+00
1.03939262622123296e+00
1.09831188151731118e+00
1.09831188151731118e+00
1.09831188151731118e+00
1.02565277350689210e+00
1.02565277350689210e+00
1.02565277350689210e+00
1.05287774886085916e+00
1.05287774886085916e+00
1.05287774886085916e+00
1.07404014781231183e+00
1.07404014781231183e+00
1.07404014781231183e+00
1.05724958763087562e+00
1.05724958763087562e+00
1.05724958763087562e+00
1.03949422629941735e+00
1.03949422629941735e+00
1.03949422629941735e+00
1.08550374305686326e+00
1.08550374305686326e+00
1.08550374305686326e+00
1.00983191547975215e+00
1.00983191547975215e+00
1.00983191547975215e+00
1.06075180733799712e+00
1.06075180733799712e+00
1.06075180733799712e+00
1.00054063225299594e+00
1.00054063225299594e+00
1.00054063225299594e+00
1.03392376577869349e+00
1.03392376577869349e+00
1.03392376577869349e+00
9.87024095939589730e-01
9.87024095939589730e-01
9.87024095939589730e-01
1.03065300452929320e+00
1.03065300452929320e+00
1.03065300452929320e+00
1.02922023536876850e+00
1.02922023536876850e+00
1.02922023536876850e+00
1.06015112856697646e+00
1.06015112856697646e+00
1.06015112856697646e+00
9.94174493977152074e-01
9.94174493977152074e-01
9.94174493977152074e-01
9.56069075537180346e-01
9.56069075537180346e-01
9.56069075537180346e-01
1.04861856732018977e+00
1.04861856732018977e+00
1.04861856732018977e+00
9.64205490173230206e-01
9.64205490173230206e-01
9.64205490173230206e-01
9.92984155132912494e-01
9.92984155132912494e-01
9.92984155132912494e-01
8.73965752237302662e-01
8.73965752237302662e-01
8.73965752237302662e-01
9.47534867020132676e-01
9.47534867020132676e-01
9.47534867020132676e-01
1.01682413438988606e+00
1.01682413438988606e+00
1.01682413438988606e+00
1.03901509552400340e+00
1.03901509552400340e+00
1.03901509552400340e+00
9.64873546280746175e-01
9.64873546280746175e-01
9.64873546280746175e-01
9.62416153898065119e-01
9.62416153898065119e-01
9.62416153898065119e-01
9.52370452969949488e-01
9.52370452969949488e-01
9.52370452969949488e-01
1.00388246515936519e+00
1.00388246515936519e+00
1.00388246515936519e+00
1.05727515483799506e+00
1.05727515483799506e+00
1.05727515483799506e+00
9.91106183208700475e-01
9.91106183208700475e-01
9.91106183208700475e-01
9.58633788714525203e-01
9.58633788714525203e-01
9.58633788714525203e-01
9.74823204174958380e-01
9.74823204174958380e-01
9.74823204174958380e-01
1.00193252248523956e+00
1.00193252248523956e+00
1.00193252248523956e+00
9.72828764651137656e-01
9.72828764651137656e-01
9.72828764651137656e-01
1.00204268575349387e+00
1.00204268575349387e+00
1.00204268575349387e+00
1.07023412557258668e+00
1.07023412557258668e+00
1.07023412557258668e+00
9.76501417226318225e-01
9.76501417226318225e-01
9.76501417226318225e-01
9.53299143742909472e-01
9.53299143742909472e-01
9.53299143742909472e-01
9.64014370635131956e-01
9.64014370635131956e-01
9.64014370635131956e-01
9.81010895428862773e-01
9.81010895428862773e-01
9.81010895428862773e-01
1.07056393191323962e+00
1.07056393191323962e+00
1.07056393191323962e+00
1.03510903391862974e+00
1.03510903391862974e+00
1.03510903391862974e+00
1.01771990247600419e+00
1.01771990247600419e+00
1.01771990247600419e+00
9.68206192311376390e-01
9.68206192311376390e-01
9.68206192311376390e-01
1.08129915683857569e+00
1.08129915683857569e+00
1.08129915683857569e+00
1.10444382217022619e+00
1.10444382217022619e+00
1.10444382217022619e+00
8.92771631241715324e-01
8.92771631241715324e-01
8.92771631241715324e-01
9.96381020627353564e-01
9.96381020627353564e-01
9.96381020627353564e-01
1.00168980254806539e+00
1.00168980254806539e+00
1.00168980254806539e+00
9.84233235723478872e-01
9.84233235723478872e-01
9.84233235723478872e-01
9.79386850471683834e-01
9.79386850471683834e-01
9.79386850471683834e-01
9.71581335497992638e-01
9.71581335497992638e-01
9.71581335497992638e-01
9.61242720678438745e-01
9.61242720678438745e-01
9.61242720678438745e-01
8.66619082646927108e-01
8.66619082646927108e-01
8.66619082646927108e-01
1.04952499726194448e+00
1.04952499726194448e+00
1.04952499726194448e+00
1.00477023691797385e+00
1.00477023691797385e+00
1.00477023691797385e+00
9.13238089444536549e-01
9.13238089444536549e-01
9.13238089444536549e-01
9.62382955840823895e-01
9.62382955840823895e-01
9.62382955840823895e-01
9.33916286838399334e-01
9.33916286838399334e-01
9.33916286838399334e-01
9.62428024780191960e-01
9.62428024780191960e-01
9.62428024780191960e-01
9.64237821329574252e-01
9.64237821329574252e-01
9.64237821329574252e-01
9.89696253277711935e-01
9.89696253277711935e-01
9.89696253277711935e-01
9.93372143407992736e-01
9.93372143407992736e-01
9.93372143407992736e-01
9.42912754113097495e-01
9.42912754113097495e-01
9.42912754113097495e-01
9.53592741042082137e-01
9.53592741042082137e-01
9.53592741042082137e-01
9.70263035147574948e-01
9.70263035147574948e-01
9.70263035147574948e-01
9.49432877836267397e-01
9.49432877836267397e-01
9.49432877836267397e-01
1.01736894235371400e+00
1.01736894235371400e+00
1.01736894235371400e+00
9.63678277025740160e-01
9.63678277025740160e-01
9.63678277025740160e-01
9.70653472267718476e-01
9.70653472267718476e-01
9.70653472267718476e-01
9.91354848686486378e-01
9.91354848686486378e-01
9.91354848686486378e-01
9.88777601279564711e-01
9.88777601279564711e-01
9.88777601279564711e-01
9.73225733776714508e-01
9.73225733776714508e-01
9.73225733776714508e-01
1.01441713757862839e+00
1.01441713757862839e+00
1.01441713757862839e+00
9.09268019122379645e-01
9.09268019122379645e-01
9.09268019122379645e-01
1.08438117724963301e+00
1.08438117724963301e+00
1.08438117724963301e+00
1.09965952421987900e+00
1.09965952421987900e+00
1.09965952421987900e+00
9.90529722372130439e-01
9.90529722372130439e-01
9.90529722372130439e-01
9.18387204805271029e-01
9.18387204805271029e-01
9.18387204805271029e-01
9.59742969387985756e-01
9.59742969387985756e-01
9.59742969387985756e-01
1.00760156071865570e+00
1.00760156071865570e+00
1.00760156071865570e+00
9.63002593448029520e-01
9.63002593448029520e-01
9.63002593448029520e-01
9.79152918464714750e-01
9.79152918464714750e-01
9.79152918464714750e-01
8.99493573975395533e-01
8.99493573975395533e-01
8.99493573975395533e-01
9.98159697521779243e-01
9.98159697521779243e-01
9.98159697521779243e-01
9.19448888808011011e-01
9.19448888808011011e-01
9.19448888808011011e-01
1.00031464888384813e+00
1.00031464888384813e+00
1.00031464888384813e+00
9.57819199302721080e-01
9.57819199302721080e-01
9.57819199302721080e-01
9.81589201500532638e-01
9.81589201500532638e-01
9.81589201500532638e-01
9.97116898608020996e-01
9.97116898608020996e-01
9.97116898608020996e-01
1.01954374407252812e+00
1.01954374407252812e+00
1.01954374407252812e+00
1.00916792574301861e+00
1.00916792574301861e+00
1.00916792574301861e+00
9.91496591750301359e-01
9.91496591750301359e-01
9.91496591750301359e-01
1.02480655289707512e+00
1.02480655289707512e+00
1.02480655289707512e+00
1.11058708623457880e+00
1.11058708623457880e+00
1.11058708623457880e+00
1.06662254949379842e+00
1.06662254949379842e+00
1.06662254949379842e+00
1.04588595029546139e+00
1.04588595029546139e+00
1.04588595029546139e+00
1.06602365957399958e+00
1.06602365957399958e+00
1.06602365957399958e+00
1.08587337395642769e+00
1.08587337395642769e+00
1.08587337395642769e+00
1.08634536381430635e+00
1.08634536381430635e+00
1.08634536381430635e+00
1.03712643700125540e+00
1.03712643700125540e+00
1.03712643700125540e+00
1.09753928303640436e+00
1.09753928303640436e+00
1.09753928303640436e+00
1.10092645027478797e+00
1.10092645027478797e+00
1.10092645027478797e+00
1.10542839270436799e+00
1.10542839270436799e+00
1.10542839270436799e+00
1.03534770337696780e+00
1.03534770337696780e+00
1.03534770337696780e+00
1.03290846240501932e+00
1.03290846240501932e+00
1.03290846240501932e+00
9.49310180323793995e-01
9.49310180323793995e-01
9.49310180323793995e-01
1.00726239559598474e+00
1.00726239559598474e+00
1.00726239559598474e+00
1.04259739888859104e+00
1.04259739888859104e+00
1.04259739888859104e+00
1.10676726364669364e+00
1.10676726364669364e+00
1.10676726364669364e+00
1.10775465387957683e+00
1.10775465387957683e+00
1.10775465387957683e+00
9.80413815652223741e-01
9.80413815652223741e-01
9.80413815652223741e-01
1.08609765928280422e+00
1.08609765928280422e+00
1.08609765928280422e+00
1.00882558673098410e+00
1.00882558673098410e+00
1.00882558673098410e+00
1.10649222232932321e+00
1.10649222232932321e+00
1.10649222232932321e+00


        </DataArray>

      </PointData>

      <CellData/>

      <Points>

        <DataArray type="Float64" NumberOfComponents="3" format="ascii">

0.1082531754723032 0.6875000000007816 0 0.23533274979922561 0.77093399389351469 0 0.10409951422139101 0.81206782209691231 0 0.23533274979922561 0.77093399389351469 0 0.1082531754723032 0.6875000000007816 0 0.21809253452218619 0.65480892822618109 0 0.24418615484441761 0.35773612382016978 0 0.121259140952891 0.43112117036853742 0 0.1082531754734323 0.31250000000117473 0 0.75000000000057243 0.35048094716480432 0 0.88173731489851925 0.33077402607778361 0 0.81242894672211508 0.45500248311961472 0 0.121259140952891 0.43112117036853742 0 0.24418615484441761 0.35773612382016978 0 0.22257735880419699 0.47344721641341742 0 0.81242894672211508 0.45500248311961472 0 0.88173731489851925 0.33077402607778361 0 0.915464298762109 0.43749999999886913 0 0 0.62500000000121547 0 0 0.50000000000206146 0 0.1371230538040123 0.56179824718362847 0 0.82212678063041267 0.67678595194836966 0 0.89051480781310632 0.79665793440246835 0 0.76243180583607129 0.78687675331113149 0 0.76243180583607129 0.78687675331113149 0 0.69010814643829166 0.89298495739101336 0 0.62844955668446423 0.7850749770380413 0 0.89051480781310632 0.79665793440246835 0 0.82212678063041267 0.67678595194836966 0 0.92266244547590082 0.68749999999917555 0 0 0.50000000000206146 0 0.121259140952891 0.43112117036853742 0 0.1371230538040123 0.56179824718362847 0 0.1082531754723032 0.6875000000007816 0 0 0.62500000000121547 0 0.1371230538040123 0.56179824718362847 0 0.75000000000032374 0.56698729811007709 0 0.88927506082488361 0.56409486310635837 0 0.82212678063041267 0.67678595194836966 0 0.81242894672211508 0.45500248311961472 0 0.88927506082488361 0.56409486310635837 0 0.75000000000032374 0.56698729811007709 0 0.69851598570178741 0.68211701800612057 0 0.56496004948275869 0.67675037307860475 0 0.62752533658682441 0.56838075195614346 0 0.69851598570178741 0.68211701800612057 0 0.76243180583607129 0.78687675331113149 0 0.62844955668446423 0.7850749770380413 0 0.23533274979922561 0.77093399389351469 0 0.18802967116092181 0.89415349436770275 0 0.10409951422139101 0.81206782209691231 0 0.121259140952891 0.43112117036853742 0 0.22257735880419699 0.47344721641341742 0 0.1371230538040123 0.56179824718362847 0 0.75000000000032374 0.56698729811007709 0 0.69851598570178741 0.68211701800612057 0 0.62752533658682441 0.56838075195614346 0 0.56496004948275869 0.67675037307860475 0 0.69851598570178741 0.68211701800612057 0 0.62844955668446423 0.7850749770380413 0 0.1371230538040123 0.56179824718362847 0 0.22257735880419699 0.47344721641341742 0 0.26982811998763367 0.56544650815856912 0 0.21809253452218619 0.65480892822618109 0 0.1371230538040123 0.56179824718362847 0 0.26982811998763367 0.56544650815856912 0 0.24418615484441761 0.35773612382016978 0 0.1082531754734323 0.31250000000117473 0 0.20767261601459541 0.25628918442207171 0 0.88173731489851925 0.33077402607778361 0 0.75000000000057243 0.35048094716480432 0 0.79891106056046712 0.25007334953587562 0 0.75000000000032374 0.56698729811007709 0 0.82212678063041267 0.67678595194836966 0 0.69851598570178741 0.68211701800612057 0 0.81249999999950517 0.1082531754733404 0 0.89658421694297741 0.1933620068391701 0 0.79891106056046712 0.25007334953587562 0 0.81249999999950517 0.1082531754733404 0 0.79891106056046712 0.25007334953587562 0 0.73983916756365475 0.17530677078674589 0 0.23533274979922561 0.77093399389351469 0 0.21809253452218619 0.65480892822618109 0 0.32607333794064219 0.67760114260606152 0 0.1082531754723032 0.6875000000007816 0 0.1371230538040123 0.56179824718362847 0 0.21809253452218619 0.65480892822618109 0 0.69851598570178741 0.68211701800612057 0 0.82212678063041267 0.67678595194836966 0 0.76243180583607129 0.78687675331113149 0 0.69010814643829166 0.89298495739101336 0 0.76243180583607129 0.78687675331113149 0 0.80886664387416207 0.89717308644237903 0 0.43750000000181222 0.89174682452709564 0 0.31258827852827581 0.89214793616708443 0 0.37776173212361452 0.78514649317305008 0 0.43750000000181222 0.89174682452709564 0 0.37500000000156292 1 0 0.31258827852827581 0.89214793616708443 0 0.121259140952891 0.43112117036853742 0 0 0.37500000000156292 0 0.1082531754734323 0.31250000000117473 0 0.50000000000206146 1 0 0.37500000000156292 1 0 0.43750000000181222 0.89174682452709564 0 0.31258827852827581 0.89214793616708443 0 0.18802967116092181 0.89415349436770275 0 0.23533274979922561 0.77093399389351469 0 0 0.50000000000206146 0 0 0.37500000000156292 0 0.121259140952891 0.43112117036853742 0 0.62844955668446423 0.7850749770380413 0 0.69010814643829166 0.89298495739101336 0 0.56327595140699671 0.89211526915426331 0 0.69010814643829166 0.89298495739101336 0 0.62500000000121547 1 0 0.56327595140699671 0.89211526915426331 0 0.25000000000104189 1 0 0.18802967116092181 0.89415349436770275 0 0.31258827852827581 0.89214793616708443 0 0.50000000000206146 1 0 0.43750000000181222 0.89174682452709564 0 0.56327595140699671 0.89211526915426331 0 0.56249999999885147 0.1082531754730395 0 0.62499999999901068 0 0 0.68749999999926592 0.1082531754732875 0 1 0.49999999999869221 0 1 0.62499999999901068 0 0.88927506082488361 0.56409486310635837 0 0 0.25000000000104189 0 0.12076953676380731 0.18690935762408761 0 0.1082531754734323 0.31250000000117473 0 0.49999999999869221 0 0 0.62499999999901068 0 0 0.56249999999885147 0.1082531754730395 0 0.62500000000121547 1 0 0.50000000000206146 1 0 0.56327595140699671 0.89211526915426331 0 0.37500000000156292 1 0 0.25000000000104189 1 0 0.31258827852827581 0.89214793616708443 0 0.31281086598417152 0.10449318608631281 0 0.37499999999904599 0 0 0.43749999999910871 0.1082531754729984 0 0.43750000000181222 0.89174682452709564 0 0.37776173212361452 0.78514649317305008 0 0.50046028868828263 0.78376912307435687 0 0 0.37500000000156292 0 0 0.25000000000104189 0 0.1082531754734323 0.31250000000117473 0 0.49999999999869221 0 0 0.56249999999885147 0.1082531754730395 0 0.43749999999910871 0.1082531754729984 0 0.43750000000181222 0.89174682452709564 0 0.50046028868828263 0.78376912307435687 0 0.56327595140699671 0.89211526915426331 0 0.74999999999934042 0 0 0.81249999999950517 0.1082531754733404 0 0.68749999999926592 0.1082531754732875 0 0.37499999999904599 0 0 0.49999999999869221 0 0 0.43749999999910871 0.1082531754729984 0 0.25000000000104189 1 0 0.12500000000052089 1 0 0.18802967116092181 0.89415349436770275 0 0.50046028868828263 0.78376912307435687 0 0.62844955668446423 0.7850749770380413 0 0.56327595140699671 0.89211526915426331 0 0.37776173212361452 0.78514649317305008 0 0.31258827852827581 0.89214793616708443 0 0.23533274979922561 0.77093399389351469 0 0.62499999999901068 0 0 0.74999999999934042 0 0 0.68749999999926592 0.1082531754732875 0 1 0.74999999999934042 0 1 0.87499999999967015 0 0.89051480781310632 0.79665793440246835 0 0 0.25000000000104189 0 0 0.12500000000052089 0 0.12076953676380731 0.18690935762408761 0 0.74999999999934042 0 0 0.87499999999967015 0 0 0.81249999999950517 0.1082531754733404 0 0.24999999999941069 0 0 0.37499999999904599 0 0 0.31281086598417152 0.10449318608631281 0 0.50046028868828263 0.78376912307435687 0 0.37776173212361452 0.78514649317305008 0 0.44078402250377968 0.67714785211715212 0 0.68768773896438518 0.4586835206367198 0 0.75000000000032374 0.56698729811007709 0 0.62752533658682441 0.56838075195614346 0 0.31411863959822661 0.24965544328045999 0 0.37953773393552892 0.34812185820708452 0 0.24418615484441761 0.35773612382016978 0 0.68768773896438518 0.4586835206367198 0 0.81242894672211508 0.45500248311961472 0 0.75000000000032374 0.56698729811007709 0 1 0.24999999999941069 0 1 0.37499999999904599 0 0.88173731489851925 0.33077402607778361 0 0 0.75000000000034761 0 0 0.62500000000121547 0 0.1082531754723032 0.6875000000007816 0 0.50048844149666749 0.56727788297625459 0 0.44078402250377968 0.67714785211715212 0 0.38694285807596462 0.5672991787102919 0 0.50108503093851109 0.35012252869403671 0 0.44301038174930041 0.45684931552185398 0 0.37953773393552892 0.34812185820708452 0 0.50046028868828263 0.78376912307435687 0 0.56496004948275869 0.67675037307860475 0 0.62844955668446423 0.7850749770380413 0 0.68768773896438518 0.4586835206367198 0 0.75000000000057243 0.35048094716480432 0 0.81242894672211508 0.45500248311961472 0 0.56349980387502452 0.45846841892908402 0 0.62512662990940393 0.35044303886909911 0 0.68768773896438518 0.4586835206367198 0 0.50048844149666749 0.56727788297625459 0 0.38694285807596462 0.5672991787102919 0 0.44301038174930041 0.45684931552185398 0 0.50046028868828263 0.78376912307435687 0 0.44078402250377968 0.67714785211715212 0 0.56496004948275869 0.67675037307860475 0 0.50108503093851109 0.35012252869403671 0 0.37953773393552892 0.34812185820708452 0 0.43750000000200551 0.24222777169198509 0 0.75000000000034761 1 0 0.62500000000121547 1 0 0.69010814643829166 0.89298495739101336 0 0.68768773896438518 0.4586835206367198 0 0.62512662990940393 0.35044303886909911 0 0.75000000000057243 0.35048094716480432 0 0.56496004948275869 0.67675037307860475 0 0.44078402250377968 0.67714785211715212 0 0.50048844149666749 0.56727788297625459 0 0.56349980387502452 0.45846841892908402 0 0.44301038174930041 0.45684931552185398 0 0.50108503093851109 0.35012252869403671 0 0.50048844149666749 0.56727788297625459 0 0.44301038174930041 0.45684931552185398 0 0.56349980387502452 0.45846841892908402 0 0.56349980387502452 0.45846841892908402 0 0.50108503093851109 0.35012252869403671 0 0.62512662990940393 0.35044303886909911 0 0.43750000000200551 0.24222777169198509 0 0.37953773393552892 0.34812185820708452 0 0.31411863959822661 0.24965544328045999 0 0.56496004948275869 0.67675037307860475 0 0.50048844149666749 0.56727788297625459 0 0.62752533658682441 0.56838075195614346 0 0.56349980387502452 0.45846841892908402 0 0.68768773896438518 0.4586835206367198 0 0.62752533658682441 0.56838075195614346 0 0.50048844149666749 0.56727788297625459 0 0.56349980387502452 0.45846841892908402 0 0.62752533658682441 0.56838075195614346 0 0.75000000000057243 0.35048094716480432 0 0.62512662990940393 0.35044303886909911 0 0.68668231842078242 0.24762892664808989 0 0.50108503093851109 0.35012252869403671 0 0.43750000000200551 0.24222777169198509 0 0.56250000000143974 0.2422277716920859 0 0.62512662990940393 0.35044303886909911 0 0.50108503093851109 0.35012252869403671 0 0.56250000000143974 0.2422277716920859 0 0.68668231842078242 0.24762892664808989 0 0.62512662990940393 0.35044303886909911 0 0.56250000000143974 0.2422277716920859 0 0.22257735880419699 0.47344721641341742 0 0.24418615484441761 0.35773612382016978 0 0.32815957677880009 0.4577243358118348 0 0.12076953676380731 0.18690935762408761 0 0.19185372118111221 0.092925648673580788 0 0.25103557339309318 0.17464499738446629 0 0.20767261601459541 0.25628918442207171 0 0.12076953676380731 0.18690935762408761 0 0.25103557339309318 0.17464499738446629 0 0 0.87499999999950151 0 0 0.75000000000034761 0 0.10409951422139101 0.81206782209691231 0 0.1249999999997731 0 0 0.24999999999941069 0 0 0.19185372118111221 0.092925648673580788 0 1 0.1249999999997731 0 1 0.24999999999941069 0 0.89658421694297741 0.1933620068391701 0 0.88927506082488361 0.56409486310635837 0 0.81242894672211508 0.45500248311961472 0 0.915464298762109 0.43749999999886913 0 0.87499999999950151 1 0 0.75000000000034761 1 0 0.80886664387416207 0.89717308644237903 0 0.75000000000034761 1 0 0.69010814643829166 0.89298495739101336 0 0.80886664387416207 0.89717308644237903 0 0.82212678063041267 0.67678595194836966 0 0.88927506082488361 0.56409486310635837 0 0.92266244547590082 0.68749999999917555 0 0 0.75000000000034761 0 0.1082531754723032 0.6875000000007816 0 0.10409951422139101 0.81206782209691231 0 0.24999999999941069 0 0 0.31281086598417152 0.10449318608631281 0 0.19185372118111221 0.092925648673580788 0 1 0.24999999999941069 0 0.88173731489851925 0.33077402607778361 0 0.89658421694297741 0.1933620068391701 0 0.32815957677880009 0.4577243358118348 0 0.38694285807596462 0.5672991787102919 0 0.26982811998763367 0.56544650815856912 0 0.76243180583607129 0.78687675331113149 0 0.89051480781310632 0.79665793440246835 0 0.80886664387416207 0.89717308644237903 0 0.38694285807596462 0.5672991787102919 0 0.44078402250377968 0.67714785211715212 0 0.32607333794064219 0.67760114260606152 0 0.37776173212361452 0.78514649317305008 0 0.23533274979922561 0.77093399389351469 0 0.32607333794064219 0.67760114260606152 0 1 0.49999999999869221 0 0.88927506082488361 0.56409486310635837 0 0.915464298762109 0.43749999999886913 0 0.88173731489851925 0.33077402607778361 0 1 0.37499999999904599 0 0.915464298762109 0.43749999999886913 0 0.24418615484441761 0.35773612382016978 0 0.37953773393552892 0.34812185820708452 0 0.32815957677880009 0.4577243358118348 0 0.44301038174930041 0.45684931552185398 0 0.38694285807596462 0.5672991787102919 0 0.32815957677880009 0.4577243358118348 0 0.88927506082488361 0.56409486310635837 0 1 0.62499999999901068 0 0.92266244547590082 0.68749999999917555 0 1 0.74999999999934042 0 0.89051480781310632 0.79665793440246835 0 0.92266244547590082 0.68749999999917555 0 0 1 0 0 0.87499999999950151 0 0.091506350946494744 0.90849364905351082 0 1 1 0 0.87499999999950151 1 0 0.90849364905363228 0.90849364905367769 0 0 0 0 0.1249999999997731 0 0 0.091506350946417708 0.091506350946618076 0 0 0.12500000000052089 0 0 0 0 0.091506350946417708 0.091506350946618076 0 1 0 0 1 0.1249999999997731 0 0.90849364905355434 0.091506350946296292 0 0.87499999999967015 0 0 1 0 0 0.90849364905355434 0.091506350946296292 0 0.12500000000052089 1 0 0 1 0 0.091506350946494744 0.90849364905351082 0 1 0.87499999999967015 0 1 1 0 0.90849364905363228 0.90849364905367769 0 0.38694285807596462 0.5672991787102919 0 0.32607333794064219 0.67760114260606152 0 0.26982811998763367 0.56544650815856912 0 0.31411863959822661 0.24965544328045999 0 0.24418615484441761 0.35773612382016978 0 0.20767261601459541 0.25628918442207171 0 0.1082531754734323 0.31250000000117473 0 0.12076953676380731 0.18690935762408761 0 0.20767261601459541 0.25628918442207171 0 0.75000000000057243 0.35048094716480432 0 0.68668231842078242 0.24762892664808989 0 0.79891106056046712 0.25007334953587562 0 0.22257735880419699 0.47344721641341742 0 0.32815957677880009 0.4577243358118348 0 0.26982811998763367 0.56544650815856912 0 0.44078402250377968 0.67714785211715212 0 0.37776173212361452 0.78514649317305008 0 0.32607333794064219 0.67760114260606152 0 0.89658421694297741 0.1933620068391701 0 0.88173731489851925 0.33077402607778361 0 0.79891106056046712 0.25007334953587562 0 1 0.37499999999904599 0 1 0.49999999999869221 0 0.915464298762109 0.43749999999886913 0 0.37953773393552892 0.34812185820708452 0 0.44301038174930041 0.45684931552185398 0 0.32815957677880009 0.4577243358118348 0 0.32607333794064219 0.67760114260606152 0 0.21809253452218619 0.65480892822618109 0 0.26982811998763367 0.56544650815856912 0 1 0.1249999999997731 0 0.89658421694297741 0.1933620068391701 0 0.90849364905355434 0.091506350946296292 0 0 0.87499999999950151 0 0.10409951422139101 0.81206782209691231 0 0.091506350946494744 0.90849364905351082 0 0.1249999999997731 0 0 0.19185372118111221 0.092925648673580788 0 0.091506350946417708 0.091506350946618076 0 1 0.62499999999901068 0 1 0.74999999999934042 0 0.92266244547590082 0.68749999999917555 0 0.18802967116092181 0.89415349436770275 0 0.12500000000052089 1 0 0.091506350946494744 0.90849364905351082 0 0.89051480781310632 0.79665793440246835 0 1 0.87499999999967015 0 0.90849364905363228 0.90849364905367769 0 0.12076953676380731 0.18690935762408761 0 0 0.12500000000052089 0 0.091506350946417708 0.091506350946618076 0 0.81249999999950517 0.1082531754733404 0 0.87499999999967015 0 0 0.90849364905355434 0.091506350946296292 0 0.87499999999950151 1 0 0.80886664387416207 0.89717308644237903 0 0.90849364905363228 0.90849364905367769 0 0.68668231842078242 0.24762892664808989 0 0.62499999999892575 0.17524047358135519 0 0.73983916756365475 0.17530677078674589 0 0.31281086598417152 0.10449318608631281 0 0.43749999999910871 0.1082531754729984 0 0.37500000000232431 0.17524047358384309 0 0.62499999999892575 0.17524047358135519 0 0.56250000000143974 0.2422277716920859 0 0.49999999999934441 0.1752404735815076 0 0.56249999999885147 0.1082531754730395 0 0.68749999999926592 0.1082531754732875 0 0.62499999999892575 0.17524047358135519 0 0.56249999999885147 0.1082531754730395 0 0.62499999999892575 0.17524047358135519 0 0.49999999999934441 0.1752404735815076 0 0.56250000000143974 0.2422277716920859 0 0.43750000000200551 0.24222777169198509 0 0.49999999999934441 0.1752404735815076 0 0.43749999999910871 0.1082531754729984 0 0.56249999999885147 0.1082531754730395 0 0.49999999999934441 0.1752404735815076 0 0.68668231842078242 0.24762892664808989 0 0.56250000000143974 0.2422277716920859 0 0.62499999999892575 0.17524047358135519 0 0.43750000000200551 0.24222777169198509 0 0.31411863959822661 0.24965544328045999 0 0.37500000000232431 0.17524047358384309 0 0.49999999999934441 0.1752404735815076 0 0.43750000000200551 0.24222777169198509 0 0.37500000000232431 0.17524047358384309 0 0.43749999999910871 0.1082531754729984 0 0.49999999999934441 0.1752404735815076 0 0.37500000000232431 0.17524047358384309 0 0.62499999999892575 0.17524047358135519 0 0.68749999999926592 0.1082531754732875 0 0.73983916756365475 0.17530677078674589 0 0.68749999999926592 0.1082531754732875 0 0.81249999999950517 0.1082531754733404 0 0.73983916756365475 0.17530677078674589 0 0.10409951422139101 0.81206782209691231 0 0.18802967116092181 0.89415349436770275 0 0.091506350946494744 0.90849364905351082 0 0.89658421694297741 0.1933620068391701 0 0.81249999999950517 0.1082531754733404 0 0.90849364905355434 0.091506350946296292 0 0.19185372118111221 0.092925648673580788 0 0.12076953676380731 0.18690935762408761 0 0.091506350946417708 0.091506350946618076 0 0.37500000000232431 0.17524047358384309 0 0.31411863959822661 0.24965544328045999 0 0.25103557339309318 0.17464499738446629 0 0.31281086598417152 0.10449318608631281 0 0.37500000000232431 0.17524047358384309 0 0.25103557339309318 0.17464499738446629 0 0.80886664387416207 0.89717308644237903 0 0.89051480781310632 0.79665793440246835 0 0.90849364905363228 0.90849364905367769 0 0.19185372118111221 0.092925648673580788 0 0.31281086598417152 0.10449318608631281 0 0.25103557339309318 0.17464499738446629 0 0.79891106056046712 0.25007334953587562 0 0.68668231842078242 0.24762892664808989 0 0.73983916756365475 0.17530677078674589 0 0.31411863959822661 0.24965544328045999 0 0.20767261601459541 0.25628918442207171 0 0.25103557339309318 0.17464499738446629 0 

        </DataArray>

      </Points>

      <Cells>

        <DataArray type="Int32" Name="connectivity" format="ascii">

0 1 2 3 4 5 6 7 8 9 10 11 12 13 14 15 16 17 18 19 20 21 22 23 24 25 26 27 28 29 30 31 32 33 34 35 36 37 38 39 40 41 42 43 44 45 46 47 48 49 50 51 52 53 54 55 56 57 58 59 60 61 62 63 64 65 66 67 68 69 70 71 72 73 74 75 76 77 78 79 80 81 82 83 84 85 86 87 88 89 90 91 92 93 94 95 96 97 98 99 100 101 102 103 104 105 106 107 108 109 110 111 112 113 114 115 116 117 118 119 120 121 122 123 124 125 126 127 128 129 130 131 132 133 134 135 136 137 138 139 140 141 142 143 144 145 146 147 148 149 150 151 152 153 154 155 156 157 158 159 160 161 162 163 164 165 166 167 168 169 170 171 172 173 174 175 176 177 178 179 180 181 182 183 184 185 186 187 188 189 190 191 192 193 194 195 196 197 198 199 200 201 202 203 204 205 206 207 208 209 210 211 212 213 214 215 216 217 218 219 220 221 222 223 224 225 226 227 228 229 230 231 232 233 234 235 236 237 238 239 240 241 242 243 244 245 246 247 248 249 250 251 252 253 254 255 256 257 258 259 260 261 262 263 264 265 266 267 268 269 270 271 272 273 274 275 276 277 278 279 280 281 282 283 284 285 286 287 288 289 290 291 292 293 294 295 296 297 298 299 300 301 302 303 304 305 306 307 308 309 310 311 312 313 314 315 316 317 318 319 320 321 322 323 324 325 326 327 328 329 330 331 332 333 334 335 336 337 338 339 340 341 342 343 344 345 346 347 348 349 350 351 352 353 354 355 356 357 358 359 360 361 362 363 364 365 366 367 368 369 370 371 372 373 374 375 376 377 378 379 380 381 382 383 384 385 386 387 388 389 390 391 392 393 394 395 396 397 398 399 400 401 402 403 404 405 406 407 408 409 410 411 412 413 414 415 416 417 418 419 420 421 422 423 424 425 426 427 428 429 430 431 432 433 434 435 436 437 438 439 440 441 442 443 444 445 446 447 448 449 450 451 452 453 454 455 456 457 458 459 460 461 462 463 464 465 466 467 468 469 470 471 472 473 474 475 476 477 478 479 480 481 482 483 484 485 

        </DataArray>

        <DataArray type="Int32" Name="offsets" format="ascii">

3 6 9 12 15 18 21 24 27 30 33 36 39 42 45 48 51 54 57 60 63 66 69 72 75 78 81 84 87 90 93 96 99 102 105 108 111 114 117 120 123 126 129 132 135 138 141 144 147 150 153 156 159 162 165 168 171 174 177 180 183 186 189 192 195 198 201 204 207 210 213 216 219 222 225 228 231 234 237 240 243 246 249 252 255 258 261 264 267 270 273 276 279 282 285 288 291 294 297 300 303 306 309 312 315 318 321 324 327 330 333 336 339 342 345 348 351 354 357 360 363 366 369 372 375 378 381 384 387 390 393 396 399 402 405 408 411 414 417 420 423 426 429 432 435 438 441 444 447 450 453 456 459 462 465 468 471 474 477 480 483 486 

        </DataArray>

        <DataArray type="Int32" Name="types" format="ascii">

5 5 5 5 5 5 5 5 5 5 5 5 5 5 5 5 5 5 5 5 5 5 5 5 5 5 5 5 5 5 5 5 5 5 5 5 5 5 5 5 5 5 5 5 5 5 5 5 5 5 5 5 5 5 5 5 5 5 5 5 5 5 5 5 5 5 5 5 5 5 5 5 5 5 5 5 5 5 5 5 5 5 5 5 5 5 5 5 5 5 5 5 5 5 5 5 5 5 5 5 5 5 5 5 5 5 5 5 5 5 5 5 5 5 5 5 5 5 5 5 5 5 5 5 5 5 5 5 5 5 5 5 5 5 5 5 5 5 5 5 5 5 5 5 5 5 5 5 5 5 5 5 5 5 5 5 5 5 5 5 5 5 

        </DataArray>

      </Cells>

    </Piece>

  </UnstructuredGrid>

</VTKFile>

