<?xml version="1.0"?>

<VTKFile type="UnstructuredGrid" version="0.1">

  <UnstructuredGrid>

    <Piece NumberOfPoints="486" NumberOfCells="162">

      <PointData>

        <DataArray type="Float64" Name="K" format="ascii">

8.72280692047118555e-01
8.72280692047118555e-01
8.72280692047118555e-01
9.04989182575876017e-01
9.04989182575876017e-01
9.04989182575876017e-01
9.81124749215579128e-01
9.81124749215579128e-01
9.81124749215579128e-01
9.53937078648995018e-01
9.53937078648995018e-01
9.53937078648995018e-01
9.83401066918701772e-01
9.83401066918701772e-01
9.83401066918701772e-01
9.80004710637775278e-01
9.80004710637775278e-01
9.80004710637775278e-01
9.57971020521081074e-01
9.57971020521081074e-01
9.57971020521081074e-01
9.88671481148364895e-01
9.88671481148364895e-01
9.88671481148364895e-01
1.03034819164805680e+00
1.03034819164805680e+00
1.03034819164805680e+00
9.95229681582138648e-01
9.95229681582138648e-01
9.95229681582138648e-01
9.69150726296078457e-01
9.69150726296078457e-01
9.69150726296078457e-01
8.99257031034239041e-01
8.99257031034239041e-01
8.99257031034239041e-01
9.84309802020722713e-01
9.84309802020722713e-01
9.84309802020722713e-01
9.81091587777664031e-01
9.81091587777664031e-01
9.81091587777664031e-01
1.06252494144126253e+00
1.06252494144126253e+00
1.06252494144126253e+00
1.05113477734952165e+00
1.05113477734952165e+00
1.05113477734952165e+00
8.91434378868790844e-01
8.91434378868790844e-01
8.91434378868790844e-01
9.62905740853123082e-01
9.62905740853123082e-01
9.62905740853123082e-01
1.05149587330683802e+00
1.05149587330683802e+00
1.05149587330683802e+00
1.07087799109925319e+00
1.07087799109925319e+00
1.07087799109925319e+00
9.71657848364022692e-01
9.71657848364022692e-01
9.71657848364022692e-01
9.55115500950260210e-01
9.55115500950260210e-01
9.55115500950260210e-01
9.76447722359945369e-01
9.76447722359945369e-01
9.76447722359945369e-01
9.36114955976093066e-01
9.36114955976093066e-01
9.36114955976093066e-01
1.02257911074815477e+00
1.02257911074815477e+00
1.02257911074815477e+00
9.56104765311997284e-01
9.56104765311997284e-01
9.56104765311997284e-01
9.19857372074049273e-01
9.19857372074049273e-01
9.19857372074049273e-01
9.70758836646261170e-01
9.70758836646261170e-01
9.70758836646261170e-01
9.00439751037561020e-01
9.00439751037561020e-01
9.00439751037561020e-01
1.01635072676066551e+00
1.01635072676066551e+00
1.01635072676066551e+00
9.97333016076132561e-01
9.97333016076132561e-01
9.97333016076132561e-01
9.95659526763996050e-01
9.95659526763996050e-01
9.95659526763996050e-01
1.02251886930447644e+00
1.02251886930447644e+00
1.02251886930447644e+00
9.79483323771535797e-01
9.79483323771535797e-01
9.79483323771535797e-01
1.05872235787007662e+00
1.05872235787007662e+00
1.05872235787007662e+00
9.25074114094824540e-01
9.25074114094824540e-01
9.25074114094824540e-01
9.98238345435752961e-01
9.98238345435752961e-01
9.98238345435752961e-01
1.03531827137535370e+00
1.03531827137535370e+00
1.03531827137535370e+00
1.00383098862542930e+00
1.00383098862542930e+00
1.00383098862542930e+00
9.37703137474696247e-01
9.37703137474696247e-01
9.37703137474696247e-01
1.04159630519694679e+00
1.04159630519694679e+00
1.04159630519694679e+00
9.62176220368687218e-01
9.62176220368687218e-01
9.62176220368687218e-01
9.95407789904142470e-01
9.95407789904142470e-01
9.95407789904142470e-01
9.21208603116807301e-01
9.21208603116807301e-01
9.21208603116807301e-01
9.71637611846781990e-01
9.71637611846781990e-01
9.71637611846781990e-01
1.01125209537062721e+00
1.01125209537062721e+00
1.01125209537062721e+00
9.94496504492750955e-01
9.94496504492750955e-01
9.94496504492750955e-01
9.56094211899847779e-01
9.56094211899847779e-01
9.56094211899847779e-01
1.00853176960930080e+00
1.00853176960930080e+00
1.00853176960930080e+00
9.53762670129642109e-01
9.53762670129642109e-01
9.53762670129642109e-01
9.50724991304398359e-01
9.50724991304398359e-01
9.50724991304398359e-01
1.03372376153418810e+00
1.03372376153418810e+00
1.03372376153418810e+00
9.55190030451248950e-01
9.55190030451248950e-01
9.55190030451248950e-01
9.74181192468448587e-01
9.74181192468448587e-01
9.74181192468448587e-01
9.35548549529651940e-01
9.35548549529651940e-01
9.35548549529651940e-01
1.04563914695438465e+00
1.04563914695438465e+00
1.04563914695438465e+00
9.62426581527633496e-01
9.62426581527633496e-01
9.62426581527633496e-01
9.65856196401039591e-01
9.65856196401039591e-01
9.65856196401039591e-01
1.05430218127050801e+00
1.05430218127050801e+00
1.05430218127050801e+00
8.93044174546036573e-01
8.93044174546036573e-01
8.93044174546036573e-01
9.92360768890378941e-01
9.92360768890378941e-01
9.92360768890378941e-01
9.93702178005119285e-01
9.93702178005119285e-01
9.93702178005119285e-01
9.98241630244523170e-01
9.98241630244523170e-01
9.98241630244523170e-01
1.02083185387812270e+00
1.02083185387812270e+00
1.02083185387812270e+00
9.58357526465020260e-01
9.58357526465020260e-01
9.58357526465020260e-01
9.88638577192982981e-01
9.88638577192982981e-01
9.88638577192982981e-01
1.01879963606004709e+00
1.01879963606004709e+00
1.01879963606004709e+00
8.86330421496148269e-01
8.86330421496148269e-01
8.86330421496148269e-01
1.01818169993591856e+00
1.01818169993591856e+00
1.01818169993591856e+00
9.97370922662132231e-01
9.97370922662132231e-01
9.97370922662132231e-01
1.04776640072711058e+00
1.04776640072711058e+00
1.04776640072711058e+00
9.53097694273101093e-01
9.53097694273101093e-01
9.53097694273101093e-01
9.78153775349650090e-01
9.78153775349650090e-01
9.78153775349650090e-01
1.02937223882337414e+00
1.02937223882337414e+00
1.02937223882337414e+00
1.01207190164524174e+00
1.01207190164524174e+00
1.01207190164524174e+00
9.56634284697848503e-01
9.56634284697848503e-01
9.56634284697848503e-01
9.82637731887912702e-01
9.82637731887912702e-01
9.82637731887912702e-01
9.42590216148051718e-01
9.42590216148051718e-01
9.42590216148051718e-01
1.00883980801396889e+00
1.00883980801396889e+00
1.00883980801396889e+00
1.00823041087023557e+00
1.00823041087023557e+00
1.00823041087023557e+00
1.01441254257278946e+00
1.01441254257278946e+00
1.01441254257278946e+00
9.91107772294676392e-01
9.91107772294676392e-01
9.91107772294676392e-01
9.27902139883258981e-01
9.27902139883258981e-01
9.27902139883258981e-01
1.02633828686670037e+00
1.02633828686670037e+00
1.02633828686670037e+00
1.00588042932506183e+00
1.00588042932506183e+00
1.00588042932506183e+00
1.01299132333251984e+00
1.01299132333251984e+00
1.01299132333251984e+00
9.19512117070798052e-01
9.19512117070798052e-01
9.19512117070798052e-01
9.61336458372450853e-01
9.61336458372450853e-01
9.61336458372450853e-01
9.78681656387423438e-01
9.78681656387423438e-01
9.78681656387423438e-01
9.50594192440581631e-01
9.50594192440581631e-01
9.50594192440581631e-01
9.99803705798457343e-01
9.99803705798457343e-01
9.99803705798457343e-01
9.45685433483318683e-01
9.45685433483318683e-01
9.45685433483318683e-01
9.55938386985186184e-01
9.55938386985186184e-01
9.55938386985186184e-01
8.67672476017711358e-01
8.67672476017711358e-01
8.67672476017711358e-01
9.63570258495383136e-01
9.63570258495383136e-01
9.63570258495383136e-01
1.05809833262222486e+00
1.05809833262222486e+00
1.05809833262222486e+00
9.75247799273957106e-01
9.75247799273957106e-01
9.75247799273957106e-01
9.76298648356342724e-01
9.76298648356342724e-01
9.76298648356342724e-01
9.86561048097103099e-01
9.86561048097103099e-01
9.86561048097103099e-01
9.81309711275676788e-01
9.81309711275676788e-01
9.81309711275676788e-01
8.55937490403140933e-01
8.55937490403140933e-01
8.55937490403140933e-01
9.77540751960004783e-01
9.77540751960004783e-01
9.77540751960004783e-01
1.02870891793692443e+00
1.02870891793692443e+00
1.02870891793692443e+00
1.04515436809439910e+00
1.04515436809439910e+00
1.04515436809439910e+00
9.90634603327587793e-01
9.90634603327587793e-01
9.90634603327587793e-01
1.02622360886317465e+00
1.02622360886317465e+00
1.02622360886317465e+00
9.83801831041164365e-01
9.83801831041164365e-01
9.83801831041164365e-01
9.79617749914701186e-01
9.79617749914701186e-01
9.79617749914701186e-01
9.98540265548621853e-01
9.98540265548621853e-01
9.98540265548621853e-01
9.91174969360800628e-01
9.91174969360800628e-01
9.91174969360800628e-01
1.04196356892838438e+00
1.04196356892838438e+00
1.04196356892838438e+00
1.00283265939618604e+00
1.00283265939618604e+00
1.00283265939618604e+00
1.03727059206127614e+00
1.03727059206127614e+00
1.03727059206127614e+00
9.34849221269578035e-01
9.34849221269578035e-01
9.34849221269578035e-01
9.69683220431192705e-01
9.69683220431192705e-01
9.69683220431192705e-01
9.15557740138760345e-01
9.15557740138760345e-01
9.15557740138760345e-01
9.02286818912095279e-01
9.02286818912095279e-01
9.02286818912095279e-01
1.06351805954723044e+00
1.06351805954723044e+00
1.06351805954723044e+00
1.04315056282145568e+00
1.04315056282145568e+00
1.04315056282145568e+00
9.68179388506408722e-01
9.68179388506408722e-01
9.68179388506408722e-01
1.00653023005846576e+00
1.00653023005846576e+00
1.00653023005846576e+00
1.03982052065380093e+00
1.03982052065380093e+00
1.03982052065380093e+00
9.67122813322434105e-01
9.67122813322434105e-01
9.67122813322434105e-01
9.49794423825527145e-01
9.49794423825527145e-01
9.49794423825527145e-01
9.01683783137699701e-01
9.01683783137699701e-01
9.01683783137699701e-01
1.01630364002902529e+00
1.01630364002902529e+00
1.01630364002902529e+00
1.00270834501118311e+00
1.00270834501118311e+00
1.00270834501118311e+00
9.74951054210889345e-01
9.74951054210889345e-01
9.74951054210889345e-01
9.84092225424961886e-01
9.84092225424961886e-01
9.84092225424961886e-01
1.01358246211764169e+00
1.01358246211764169e+00
1.01358246211764169e+00
1.00288966354905162e+00
1.00288966354905162e+00
1.00288966354905162e+00
1.04801533568221061e+00
1.04801533568221061e+00
1.04801533568221061e+00
8.90137604499841695e-01
8.90137604499841695e-01
8.90137604499841695e-01
9.21671061639684375e-01
9.21671061639684375e-01
9.21671061639684375e-01
1.04677137759504757e+00
1.04677137759504757e+00
1.04677137759504757e+00
9.28399390614870201e-01
9.28399390614870201e-01
9.28399390614870201e-01
1.02702564301594945e+00
1.02702564301594945e+00
1.02702564301594945e+00
8.83854103275762748e-01
8.83854103275762748e-01
8.83854103275762748e-01
1.00686575064328809e+00
1.00686575064328809e+00
1.00686575064328809e+00
9.81899162759665156e-01
9.81899162759665156e-01
9.81899162759665156e-01
9.21444202547872182e-01
9.21444202547872182e-01
9.21444202547872182e-01
9.21363439567690956e-01
9.21363439567690956e-01
9.21363439567690956e-01
9.57744279652501751e-01
9.57744279652501751e-01
9.57744279652501751e-01
9.54502642053748351e-01
9.54502642053748351e-01
9.54502642053748351e-01
9.53854457577254178e-01
9.53854457577254178e-01
9.53854457577254178e-01
9.40594613731769780e-01
9.40594613731769780e-01
9.40594613731769780e-01
9.32400966880784887e-01
9.32400966880784887e-01
9.32400966880784887e-01
9.49122302647350091e-01
9.49122302647350091e-01
9.49122302647350091e-01
9.08690315946822147e-01
9.08690315946822147e-01
9.08690315946822147e-01
9.07643836424403716e-01
9.07643836424403716e-01
9.07643836424403716e-01
9.08336442087981921e-01
9.08336442087981921e-01
9.08336442087981921e-01
9.31854213570074252e-01
9.31854213570074252e-01
9.31854213570074252e-01
9.27833978087064137e-01
9.27833978087064137e-01
9.27833978087064137e-01
8.95039703831917777e-01
8.95039703831917777e-01
8.95039703831917777e-01
9.98236073253084388e-01
9.98236073253084388e-01
9.98236073253084388e-01
9.10736427535446702e-01
9.10736427535446702e-01
9.10736427535446702e-01
9.33118022064011177e-01
9.33118022064011177e-01
9.33118022064011177e-01
9.40688667813071810e-01
9.40688667813071810e-01
9.40688667813071810e-01
9.99118578316553041e-01
9.99118578316553041e-01
9.99118578316553041e-01
9.63545786163968021e-01
9.63545786163968021e-01
9.63545786163968021e-01
9.00963799753051964e-01
9.00963799753051964e-01
9.00963799753051964e-01
9.58271983072804368e-01
9.58271983072804368e-01
9.58271983072804368e-01


        </DataArray>

      </PointData>

      <CellData/>

      <Points>

        <DataArray type="Float64" NumberOfComponents="3" format="ascii">

0.1082531754723032 0.6875000000007816 0 0.23533274979922561 0.77093399389351469 0 0.10409951422139101 0.81206782209691231 0 0.23533274979922561 0.77093399389351469 0 0.1082531754723032 0.6875000000007816 0 0.21809253452218619 0.65480892822618109 0 0.24418615484441761 0.35773612382016978 0 0.121259140952891 0.43112117036853742 0 0.1082531754734323 0.31250000000117473 0 0.75000000000057243 0.35048094716480432 0 0.88173731489851925 0.33077402607778361 0 0.81242894672211508 0.45500248311961472 0 0.121259140952891 0.43112117036853742 0 0.24418615484441761 0.35773612382016978 0 0.22257735880419699 0.47344721641341742 0 0.81242894672211508 0.45500248311961472 0 0.88173731489851925 0.33077402607778361 0 0.915464298762109 0.43749999999886913 0 0 0.62500000000121547 0 0 0.50000000000206146 0 0.1371230538040123 0.56179824718362847 0 0.82212678063041267 0.67678595194836966 0 0.89051480781310632 0.79665793440246835 0 0.76243180583607129 0.78687675331113149 0 0.76243180583607129 0.78687675331113149 0 0.69010814643829166 0.89298495739101336 0 0.62844955668446423 0.7850749770380413 0 0.89051480781310632 0.79665793440246835 0 0.82212678063041267 0.67678595194836966 0 0.92266244547590082 0.68749999999917555 0 0 0.50000000000206146 0 0.121259140952891 0.43112117036853742 0 0.1371230538040123 0.56179824718362847 0 0.1082531754723032 0.6875000000007816 0 0 0.62500000000121547 0 0.1371230538040123 0.56179824718362847 0 0.75000000000032374 0.56698729811007709 0 0.88927506082488361 0.56409486310635837 0 0.82212678063041267 0.67678595194836966 0 0.81242894672211508 0.45500248311961472 0 0.88927506082488361 0.56409486310635837 0 0.75000000000032374 0.56698729811007709 0 0.69851598570178741 0.68211701800612057 0 0.56496004948275869 0.67675037307860475 0 0.62752533658682441 0.56838075195614346 0 0.69851598570178741 0.68211701800612057 0 0.76243180583607129 0.78687675331113149 0 0.62844955668446423 0.7850749770380413 0 0.23533274979922561 0.77093399389351469 0 0.18802967116092181 0.89415349436770275 0 0.10409951422139101 0.81206782209691231 0 0.121259140952891 0.43112117036853742 0 0.22257735880419699 0.47344721641341742 0 0.1371230538040123 0.56179824718362847 0 0.75000000000032374 0.56698729811007709 0 0.69851598570178741 0.68211701800612057 0 0.62752533658682441 0.56838075195614346 0 0.56496004948275869 0.67675037307860475 0 0.69851598570178741 0.68211701800612057 0 0.62844955668446423 0.7850749770380413 0 0.1371230538040123 0.56179824718362847 0 0.22257735880419699 0.47344721641341742 0 0.26982811998763367 0.56544650815856912 0 0.21809253452218619 0.65480892822618109 0 0.1371230538040123 0.56179824718362847 0 0.26982811998763367 0.56544650815856912 0 0.24418615484441761 0.35773612382016978 0 0.1082531754734323 0.31250000000117473 0 0.20767261601459541 0.25628918442207171 0 0.88173731489851925 0.33077402607778361 0 0.75000000000057243 0.35048094716480432 0 0.79891106056046712 0.25007334953587562 0 0.75000000000032374 0.56698729811007709 0 0.82212678063041267 0.67678595194836966 0 0.69851598570178741 0.68211701800612057 0 0.81249999999950517 0.1082531754733404 0 0.89658421694297741 0.1933620068391701 0 0.79891106056046712 0.25007334953587562 0 0.81249999999950517 0.1082531754733404 0 0.79891106056046712 0.25007334953587562 0 0.73983916756365475 0.17530677078674589 0 0.23533274979922561 0.77093399389351469 0 0.21809253452218619 0.65480892822618109 0 0.32607333794064219 0.67760114260606152 0 0.1082531754723032 0.6875000000007816 0 0.1371230538040123 0.56179824718362847 0 0.21809253452218619 0.65480892822618109 0 0.69851598570178741 0.68211701800612057 0 0.82212678063041267 0.67678595194836966 0 0.76243180583607129 0.78687675331113149 0 0.69010814643829166 0.89298495739101336 0 0.76243180583607129 0.78687675331113149 0 0.80886664387416207 0.89717308644237903 0 0.43750000000181222 0.89174682452709564 0 0.31258827852827581 0.89214793616708443 0 0.37776173212361452 0.78514649317305008 0 0.43750000000181222 0.89174682452709564 0 0.37500000000156292 1 0 0.31258827852827581 0.89214793616708443 0 0.121259140952891 0.43112117036853742 0 0 0.37500000000156292 0 0.1082531754734323 0.31250000000117473 0 0.50000000000206146 1 0 0.37500000000156292 1 0 0.43750000000181222 0.89174682452709564 0 0.31258827852827581 0.89214793616708443 0 0.18802967116092181 0.89415349436770275 0 0.23533274979922561 0.77093399389351469 0 0 0.50000000000206146 0 0 0.37500000000156292 0 0.121259140952891 0.43112117036853742 0 0.62844955668446423 0.7850749770380413 0 0.69010814643829166 0.89298495739101336 0 0.56327595140699671 0.89211526915426331 0 0.69010814643829166 0.89298495739101336 0 0.62500000000121547 1 0 0.56327595140699671 0.89211526915426331 0 0.25000000000104189 1 0 0.18802967116092181 0.89415349436770275 0 0.31258827852827581 0.89214793616708443 0 0.50000000000206146 1 0 0.43750000000181222 0.89174682452709564 0 0.56327595140699671 0.89211526915426331 0 0.56249999999885147 0.1082531754730395 0 0.62499999999901068 0 0 0.68749999999926592 0.1082531754732875 0 1 0.49999999999869221 0 1 0.62499999999901068 0 0.88927506082488361 0.56409486310635837 0 0 0.25000000000104189 0 0.12076953676380731 0.18690935762408761 0 0.1082531754734323 0.31250000000117473 0 0.49999999999869221 0 0 0.62499999999901068 0 0 0.56249999999885147 0.1082531754730395 0 0.62500000000121547 1 0 0.50000000000206146 1 0 0.56327595140699671 0.89211526915426331 0 0.37500000000156292 1 0 0.25000000000104189 1 0 0.31258827852827581 0.89214793616708443 0 0.31281086598417152 0.10449318608631281 0 0.37499999999904599 0 0 0.43749999999910871 0.1082531754729984 0 0.43750000000181222 0.89174682452709564 0 0.37776173212361452 0.78514649317305008 0 0.50046028868828263 0.78376912307435687 0 0 0.37500000000156292 0 0 0.25000000000104189 0 0.1082531754734323 0.31250000000117473 0 0.49999999999869221 0 0 0.56249999999885147 0.1082531754730395 0 0.43749999999910871 0.1082531754729984 0 0.43750000000181222 0.89174682452709564 0 0.50046028868828263 0.78376912307435687 0 0.56327595140699671 0.89211526915426331 0 0.74999999999934042 0 0 0.81249999999950517 0.1082531754733404 0 0.68749999999926592 0.1082531754732875 0 0.37499999999904599 0 0 0.49999999999869221 0 0 0.43749999999910871 0.1082531754729984 0 0.25000000000104189 1 0 0.12500000000052089 1 0 0.18802967116092181 0.89415349436770275 0 0.50046028868828263 0.78376912307435687 0 0.62844955668446423 0.7850749770380413 0 0.56327595140699671 0.89211526915426331 0 0.37776173212361452 0.78514649317305008 0 0.31258827852827581 0.89214793616708443 0 0.23533274979922561 0.77093399389351469 0 0.62499999999901068 0 0 0.74999999999934042 0 0 0.68749999999926592 0.1082531754732875 0 1 0.74999999999934042 0 1 0.87499999999967015 0 0.89051480781310632 0.79665793440246835 0 0 0.25000000000104189 0 0 0.12500000000052089 0 0.12076953676380731 0.18690935762408761 0 0.74999999999934042 0 0 0.87499999999967015 0 0 0.81249999999950517 0.1082531754733404 0 0.24999999999941069 0 0 0.37499999999904599 0 0 0.31281086598417152 0.10449318608631281 0 0.50046028868828263 0.78376912307435687 0 0.37776173212361452 0.78514649317305008 0 0.44078402250377968 0.67714785211715212 0 0.68768773896438518 0.4586835206367198 0 0.75000000000032374 0.56698729811007709 0 0.62752533658682441 0.56838075195614346 0 0.31411863959822661 0.24965544328045999 0 0.37953773393552892 0.34812185820708452 0 0.24418615484441761 0.35773612382016978 0 0.68768773896438518 0.4586835206367198 0 0.81242894672211508 0.45500248311961472 0 0.75000000000032374 0.56698729811007709 0 1 0.24999999999941069 0 1 0.37499999999904599 0 0.88173731489851925 0.33077402607778361 0 0 0.75000000000034761 0 0 0.62500000000121547 0 0.1082531754723032 0.6875000000007816 0 0.50048844149666749 0.56727788297625459 0 0.44078402250377968 0.67714785211715212 0 0.38694285807596462 0.5672991787102919 0 0.50108503093851109 0.35012252869403671 0 0.44301038174930041 0.45684931552185398 0 0.37953773393552892 0.34812185820708452 0 0.50046028868828263 0.78376912307435687 0 0.56496004948275869 0.67675037307860475 0 0.62844955668446423 0.7850749770380413 0 0.68768773896438518 0.4586835206367198 0 0.75000000000057243 0.35048094716480432 0 0.81242894672211508 0.45500248311961472 0 0.56349980387502452 0.45846841892908402 0 0.62512662990940393 0.35044303886909911 0 0.68768773896438518 0.4586835206367198 0 0.50048844149666749 0.56727788297625459 0 0.38694285807596462 0.5672991787102919 0 0.44301038174930041 0.45684931552185398 0 0.50046028868828263 0.78376912307435687 0 0.44078402250377968 0.67714785211715212 0 0.56496004948275869 0.67675037307860475 0 0.50108503093851109 0.35012252869403671 0 0.37953773393552892 0.34812185820708452 0 0.43750000000200551 0.24222777169198509 0 0.75000000000034761 1 0 0.62500000000121547 1 0 0.69010814643829166 0.89298495739101336 0 0.68768773896438518 0.4586835206367198 0 0.62512662990940393 0.35044303886909911 0 0.75000000000057243 0.35048094716480432 0 0.56496004948275869 0.67675037307860475 0 0.44078402250377968 0.67714785211715212 0 0.50048844149666749 0.56727788297625459 0 0.56349980387502452 0.45846841892908402 0 0.44301038174930041 0.45684931552185398 0 0.50108503093851109 0.35012252869403671 0 0.50048844149666749 0.56727788297625459 0 0.44301038174930041 0.45684931552185398 0 0.56349980387502452 0.45846841892908402 0 0.56349980387502452 0.45846841892908402 0 0.50108503093851109 0.35012252869403671 0 0.62512662990940393 0.35044303886909911 0 0.43750000000200551 0.24222777169198509 0 0.37953773393552892 0.34812185820708452 0 0.31411863959822661 0.24965544328045999 0 0.56496004948275869 0.67675037307860475 0 0.50048844149666749 0.56727788297625459 0 0.62752533658682441 0.56838075195614346 0 0.56349980387502452 0.45846841892908402 0 0.68768773896438518 0.4586835206367198 0 0.62752533658682441 0.56838075195614346 0 0.50048844149666749 0.56727788297625459 0 0.56349980387502452 0.45846841892908402 0 0.62752533658682441 0.56838075195614346 0 0.75000000000057243 0.35048094716480432 0 0.62512662990940393 0.35044303886909911 0 0.68668231842078242 0.24762892664808989 0 0.50108503093851109 0.35012252869403671 0 0.43750000000200551 0.24222777169198509 0 0.56250000000143974 0.2422277716920859 0 0.62512662990940393 0.35044303886909911 0 0.50108503093851109 0.35012252869403671 0 0.56250000000143974 0.2422277716920859 0 0.68668231842078242 0.24762892664808989 0 0.62512662990940393 0.35044303886909911 0 0.56250000000143974 0.2422277716920859 0 0.22257735880419699 0.47344721641341742 0 0.24418615484441761 0.35773612382016978 0 0.32815957677880009 0.4577243358118348 0 0.12076953676380731 0.18690935762408761 0 0.19185372118111221 0.092925648673580788 0 0.25103557339309318 0.17464499738446629 0 0.20767261601459541 0.25628918442207171 0 0.12076953676380731 0.18690935762408761 0 0.25103557339309318 0.17464499738446629 0 0 0.87499999999950151 0 0 0.75000000000034761 0 0.10409951422139101 0.81206782209691231 0 0.1249999999997731 0 0 0.24999999999941069 0 0 0.19185372118111221 0.092925648673580788 0 1 0.1249999999997731 0 1 0.24999999999941069 0 0.89658421694297741 0.1933620068391701 0 0.88927506082488361 0.56409486310635837 0 0.81242894672211508 0.45500248311961472 0 0.915464298762109 0.43749999999886913 0 0.87499999999950151 1 0 0.75000000000034761 1 0 0.80886664387416207 0.89717308644237903 0 0.75000000000034761 1 0 0.69010814643829166 0.89298495739101336 0 0.80886664387416207 0.89717308644237903 0 0.82212678063041267 0.67678595194836966 0 0.88927506082488361 0.56409486310635837 0 0.92266244547590082 0.68749999999917555 0 0 0.75000000000034761 0 0.1082531754723032 0.6875000000007816 0 0.10409951422139101 0.81206782209691231 0 0.24999999999941069 0 0 0.31281086598417152 0.10449318608631281 0 0.19185372118111221 0.092925648673580788 0 1 0.24999999999941069 0 0.88173731489851925 0.33077402607778361 0 0.89658421694297741 0.1933620068391701 0 0.32815957677880009 0.4577243358118348 0 0.38694285807596462 0.5672991787102919 0 0.26982811998763367 0.56544650815856912 0 0.76243180583607129 0.78687675331113149 0 0.89051480781310632 0.79665793440246835 0 0.80886664387416207 0.89717308644237903 0 0.38694285807596462 0.5672991787102919 0 0.44078402250377968 0.67714785211715212 0 0.32607333794064219 0.67760114260606152 0 0.37776173212361452 0.78514649317305008 0 0.23533274979922561 0.77093399389351469 0 0.32607333794064219 0.67760114260606152 0 1 0.49999999999869221 0 0.88927506082488361 0.56409486310635837 0 0.915464298762109 0.43749999999886913 0 0.88173731489851925 0.33077402607778361 0 1 0.37499999999904599 0 0.915464298762109 0.43749999999886913 0 0.24418615484441761 0.35773612382016978 0 0.37953773393552892 0.34812185820708452 0 0.32815957677880009 0.4577243358118348 0 0.44301038174930041 0.45684931552185398 0 0.38694285807596462 0.5672991787102919 0 0.32815957677880009 0.4577243358118348 0 0.88927506082488361 0.56409486310635837 0 1 0.62499999999901068 0 0.92266244547590082 0.68749999999917555 0 1 0.74999999999934042 0 0.89051480781310632 0.79665793440246835 0 0.92266244547590082 0.68749999999917555 0 0 1 0 0 0.87499999999950151 0 0.091506350946494744 0.90849364905351082 0 1 1 0 0.87499999999950151 1 0 0.90849364905363228 0.90849364905367769 0 0 0 0 0.1249999999997731 0 0 0.091506350946417708 0.091506350946618076 0 0 0.12500000000052089 0 0 0 0 0.091506350946417708 0.091506350946618076 0 1 0 0 1 0.1249999999997731 0 0.90849364905355434 0.091506350946296292 0 0.87499999999967015 0 0 1 0 0 0.90849364905355434 0.091506350946296292 0 0.12500000000052089 1 0 0 1 0 0.091506350946494744 0.90849364905351082 0 1 0.87499999999967015 0 1 1 0 0.90849364905363228 0.90849364905367769 0 0.38694285807596462 0.5672991787102919 0 0.32607333794064219 0.67760114260606152 0 0.26982811998763367 0.56544650815856912 0 0.31411863959822661 0.24965544328045999 0 0.24418615484441761 0.35773612382016978 0 0.20767261601459541 0.25628918442207171 0 0.1082531754734323 0.31250000000117473 0 0.12076953676380731 0.18690935762408761 0 0.20767261601459541 0.25628918442207171 0 0.75000000000057243 0.35048094716480432 0 0.68668231842078242 0.24762892664808989 0 0.79891106056046712 0.25007334953587562 0 0.22257735880419699 0.47344721641341742 0 0.32815957677880009 0.4577243358118348 0 0.26982811998763367 0.56544650815856912 0 0.44078402250377968 0.67714785211715212 0 0.37776173212361452 0.78514649317305008 0 0.32607333794064219 0.67760114260606152 0 0.89658421694297741 0.1933620068391701 0 0.88173731489851925 0.33077402607778361 0 0.79891106056046712 0.25007334953587562 0 1 0.37499999999904599 0 1 0.49999999999869221 0 0.915464298762109 0.43749999999886913 0 0.37953773393552892 0.34812185820708452 0 0.44301038174930041 0.45684931552185398 0 0.32815957677880009 0.4577243358118348 0 0.32607333794064219 0.67760114260606152 0 0.21809253452218619 0.65480892822618109 0 0.26982811998763367 0.56544650815856912 0 1 0.1249999999997731 0 0.89658421694297741 0.1933620068391701 0 0.90849364905355434 0.091506350946296292 0 0 0.87499999999950151 0 0.10409951422139101 0.81206782209691231 0 0.091506350946494744 0.90849364905351082 0 0.1249999999997731 0 0 0.19185372118111221 0.092925648673580788 0 0.091506350946417708 0.091506350946618076 0 1 0.62499999999901068 0 1 0.74999999999934042 0 0.92266244547590082 0.68749999999917555 0 0.18802967116092181 0.89415349436770275 0 0.12500000000052089 1 0 0.091506350946494744 0.90849364905351082 0 0.89051480781310632 0.79665793440246835 0 1 0.87499999999967015 0 0.90849364905363228 0.90849364905367769 0 0.12076953676380731 0.18690935762408761 0 0 0.12500000000052089 0 0.091506350946417708 0.091506350946618076 0 0.81249999999950517 0.1082531754733404 0 0.87499999999967015 0 0 0.90849364905355434 0.091506350946296292 0 0.87499999999950151 1 0 0.80886664387416207 0.89717308644237903 0 0.90849364905363228 0.90849364905367769 0 0.68668231842078242 0.24762892664808989 0 0.62499999999892575 0.17524047358135519 0 0.73983916756365475 0.17530677078674589 0 0.31281086598417152 0.10449318608631281 0 0.43749999999910871 0.1082531754729984 0 0.37500000000232431 0.17524047358384309 0 0.62499999999892575 0.17524047358135519 0 0.56250000000143974 0.2422277716920859 0 0.49999999999934441 0.1752404735815076 0 0.56249999999885147 0.1082531754730395 0 0.68749999999926592 0.1082531754732875 0 0.62499999999892575 0.17524047358135519 0 0.56249999999885147 0.1082531754730395 0 0.62499999999892575 0.17524047358135519 0 0.49999999999934441 0.1752404735815076 0 0.56250000000143974 0.2422277716920859 0 0.43750000000200551 0.24222777169198509 0 0.49999999999934441 0.1752404735815076 0 0.43749999999910871 0.1082531754729984 0 0.56249999999885147 0.1082531754730395 0 0.49999999999934441 0.1752404735815076 0 0.68668231842078242 0.24762892664808989 0 0.56250000000143974 0.2422277716920859 0 0.62499999999892575 0.17524047358135519 0 0.43750000000200551 0.24222777169198509 0 0.31411863959822661 0.24965544328045999 0 0.37500000000232431 0.17524047358384309 0 0.49999999999934441 0.1752404735815076 0 0.43750000000200551 0.24222777169198509 0 0.37500000000232431 0.17524047358384309 0 0.43749999999910871 0.1082531754729984 0 0.49999999999934441 0.1752404735815076 0 0.37500000000232431 0.17524047358384309 0 0.62499999999892575 0.17524047358135519 0 0.68749999999926592 0.1082531754732875 0 0.73983916756365475 0.17530677078674589 0 0.68749999999926592 0.1082531754732875 0 0.81249999999950517 0.1082531754733404 0 0.73983916756365475 0.17530677078674589 0 0.10409951422139101 0.81206782209691231 0 0.18802967116092181 0.89415349436770275 0 0.091506350946494744 0.90849364905351082 0 0.89658421694297741 0.1933620068391701 0 0.81249999999950517 0.1082531754733404 0 0.90849364905355434 0.091506350946296292 0 0.19185372118111221 0.092925648673580788 0 0.12076953676380731 0.18690935762408761 0 0.091506350946417708 0.091506350946618076 0 0.37500000000232431 0.17524047358384309 0 0.31411863959822661 0.24965544328045999 0 0.25103557339309318 0.17464499738446629 0 0.31281086598417152 0.10449318608631281 0 0.37500000000232431 0.17524047358384309 0 0.25103557339309318 0.17464499738446629 0 0.80886664387416207 0.89717308644237903 0 0.89051480781310632 0.79665793440246835 0 0.90849364905363228 0.90849364905367769 0 0.19185372118111221 0.092925648673580788 0 0.31281086598417152 0.10449318608631281 0 0.25103557339309318 0.17464499738446629 0 0.79891106056046712 0.25007334953587562 0 0.68668231842078242 0.24762892664808989 0 0.73983916756365475 0.17530677078674589 0 0.31411863959822661 0.24965544328045999 0 0.20767261601459541 0.25628918442207171 0 0.25103557339309318 0.17464499738446629 0 

        </DataArray>

      </Points>

      <Cells>

        <DataArray type="Int32" Name="connectivity" format="ascii">

0 1 2 3 4 5 6 7 8 9 10 11 12 13 14 15 16 17 18 19 20 21 22 23 24 25 26 27 28 29 30 31 32 33 34 35 36 37 38 39 40 41 42 43 44 45 46 47 48 49 50 51 52 53 54 55 56 57 58 59 60 61 62 63 64 65 66 67 68 69 70 71 72 73 74 75 76 77 78 79 80 81 82 83 84 85 86 87 88 89 90 91 92 93 94 95 96 97 98 99 100 101 102 103 104 105 106 107 108 109 110 111 112 113 114 115 116 117 118 119 120 121 122 123 124 125 126 127 128 129 130 131 132 133 134 135 136 137 138 139 140 141 142 143 144 145 146 147 148 149 150 151 152 153 154 155 156 157 158 159 160 161 162 163 164 165 166 167 168 169 170 171 172 173 174 175 176 177 178 179 180 181 182 183 184 185 186 187 188 189 190 191 192 193 194 195 196 197 198 199 200 201 202 203 204 205 206 207 208 209 210 211 212 213 214 215 216 217 218 219 220 221 222 223 224 225 226 227 228 229 230 231 232 233 234 235 236 237 238 239 240 241 242 243 244 245 246 247 248 249 250 251 252 253 254 255 256 257 258 259 260 261 262 263 264 265 266 267 268 269 270 271 272 273 274 275 276 277 278 279 280 281 282 283 284 285 286 287 288 289 290 291 292 293 294 295 296 297 298 299 300 301 302 303 304 305 306 307 308 309 310 311 312 313 314 315 316 317 318 319 320 321 322 323 324 325 326 327 328 329 330 331 332 333 334 335 336 337 338 339 340 341 342 343 344 345 346 347 348 349 350 351 352 353 354 355 356 357 358 359 360 361 362 363 364 365 366 367 368 369 370 371 372 373 374 375 376 377 378 379 380 381 382 383 384 385 386 387 388 389 390 391 392 393 394 395 396 397 398 399 400 401 402 403 404 405 406 407 408 409 410 411 412 413 414 415 416 417 418 419 420 421 422 423 424 425 426 427 428 429 430 431 432 433 434 435 436 437 438 439 440 441 442 443 444 445 446 447 448 449 450 451 452 453 454 455 456 457 458 459 460 461 462 463 464 465 466 467 468 469 470 471 472 473 474 475 476 477 478 479 480 481 482 483 484 485 

        </DataArray>

        <DataArray type="Int32" Name="offsets" format="ascii">

3 6 9 12 15 18 21 24 27 30 33 36 39 42 45 48 51 54 57 60 63 66 69 72 75 78 81 84 87 90 93 96 99 102 105 108 111 114 117 120 123 126 129 132 135 138 141 144 147 150 153 156 159 162 165 168 171 174 177 180 183 186 189 192 195 198 201 204 207 210 213 216 219 222 225 228 231 234 237 240 243 246 249 252 255 258 261 264 267 270 273 276 279 282 285 288 291 294 297 300 303 306 309 312 315 318 321 324 327 330 333 336 339 342 345 348 351 354 357 360 363 366 369 372 375 378 381 384 387 390 393 396 399 402 405 408 411 414 417 420 423 426 429 432 435 438 441 444 447 450 453 456 459 462 465 468 471 474 477 480 483 486 

        </DataArray>

        <DataArray type="Int32" Name="types" format="ascii">

5 5 5 5 5 5 5 5 5 5 5 5 5 5 5 5 5 5 5 5 5 5 5 5 5 5 5 5 5 5 5 5 5 5 5 5 5 5 5 5 5 5 5 5 5 5 5 5 5 5 5 5 5 5 5 5 5 5 5 5 5 5 5 5 5 5 5 5 5 5 5 5 5 5 5 5 5 5 5 5 5 5 5 5 5 5 5 5 5 5 5 5 5 5 5 5 5 5 5 5 5 5 5 5 5 5 5 5 5 5 5 5 5 5 5 5 5 5 5 5 5 5 5 5 5 5 5 5 5 5 5 5 5 5 5 5 5 5 5 5 5 5 5 5 5 5 5 5 5 5 5 5 5 5 5 5 5 5 5 5 5 5 

        </DataArray>

      </Cells>

    </Piece>

  </UnstructuredGrid>

</VTKFile>

