<?xml version="1.0"?>

<VTKFile type="UnstructuredGrid" version="0.1">

  <UnstructuredGrid>

    <Piece NumberOfPoints="486" NumberOfCells="162">

      <PointData>

        <DataArray type="Float64" Name="K" format="ascii">

1.02114864044807119e+00
1.02114864044807119e+00
1.02114864044807119e+00
1.01384460723287617e+00
1.01384460723287617e+00
1.01384460723287617e+00
9.73227167622551015e-01
9.73227167622551015e-01
9.73227167622551015e-01
1.01272818594390790e+00
1.01272818594390790e+00
1.01272818594390790e+00
9.77092759545485690e-01
9.77092759545485690e-01
9.77092759545485690e-01
9.97395653434344553e-01
9.97395653434344553e-01
9.97395653434344553e-01
9.64186712092116815e-01
9.64186712092116815e-01
9.64186712092116815e-01
1.04436666813812362e+00
1.04436666813812362e+00
1.04436666813812362e+00
1.00322593300657248e+00
1.00322593300657248e+00
1.00322593300657248e+00
1.03456761547818377e+00
1.03456761547818377e+00
1.03456761547818377e+00
9.61969500279003187e-01
9.61969500279003187e-01
9.61969500279003187e-01
9.87542921835463439e-01
9.87542921835463439e-01
9.87542921835463439e-01
1.01267056547413237e+00
1.01267056547413237e+00
1.01267056547413237e+00
1.00619675205342674e+00
1.00619675205342674e+00
1.00619675205342674e+00
9.88021525473680828e-01
9.88021525473680828e-01
9.88021525473680828e-01
9.94323587979231927e-01
9.94323587979231927e-01
9.94323587979231927e-01
1.02292142099450167e+00
1.02292142099450167e+00
1.02292142099450167e+00
9.74809734047342835e-01
9.74809734047342835e-01
9.74809734047342835e-01
1.00272760723669108e+00
1.00272760723669108e+00
1.00272760723669108e+00
9.71375695200822120e-01
9.71375695200822120e-01
9.71375695200822120e-01
9.93556530847501729e-01
9.93556530847501729e-01
9.93556530847501729e-01
1.00173334795115343e+00
1.00173334795115343e+00
1.00173334795115343e+00
9.85637822443026224e-01
9.85637822443026224e-01
9.85637822443026224e-01
1.01832744682163634e+00
1.01832744682163634e+00
1.01832744682163634e+00
1.00942191799474790e+00
1.00942191799474790e+00
1.00942191799474790e+00
1.02011754404774679e+00
1.02011754404774679e+00
1.02011754404774679e+00
1.01198893825595149e+00
1.01198893825595149e+00
1.01198893825595149e+00
1.01193026352961857e+00
1.01193026352961857e+00
1.01193026352961857e+00
1.00358618240403197e+00
1.00358618240403197e+00
1.00358618240403197e+00
1.01973788783723940e+00
1.01973788783723940e+00
1.01973788783723940e+00
1.04856077391511637e+00
1.04856077391511637e+00
1.04856077391511637e+00
1.02749618386000408e+00
1.02749618386000408e+00
1.02749618386000408e+00
1.02431962846440916e+00
1.02431962846440916e+00
1.02431962846440916e+00
9.81124996352838896e-01
9.81124996352838896e-01
9.81124996352838896e-01
9.94638069814331227e-01
9.94638069814331227e-01
9.94638069814331227e-01
1.02746101344907204e+00
1.02746101344907204e+00
1.02746101344907204e+00
9.72315904286980448e-01
9.72315904286980448e-01
9.72315904286980448e-01
9.68170092267337745e-01
9.68170092267337745e-01
9.68170092267337745e-01
9.82201561743420659e-01
9.82201561743420659e-01
9.82201561743420659e-01
1.03766899338300211e+00
1.03766899338300211e+00
1.03766899338300211e+00
9.67916059668520345e-01
9.67916059668520345e-01
9.67916059668520345e-01
9.68784958509489869e-01
9.68784958509489869e-01
9.68784958509489869e-01
1.00030359249845180e+00
1.00030359249845180e+00
1.00030359249845180e+00
1.02863273635593022e+00
1.02863273635593022e+00
1.02863273635593022e+00
9.71258300856800094e-01
9.71258300856800094e-01
9.71258300856800094e-01
9.68131936681566940e-01
9.68131936681566940e-01
9.68131936681566940e-01
1.03852843806168793e+00
1.03852843806168793e+00
1.03852843806168793e+00
9.72923152020265136e-01
9.72923152020265136e-01
9.72923152020265136e-01
1.00547057639461102e+00
1.00547057639461102e+00
1.00547057639461102e+00
1.01740911473545537e+00
1.01740911473545537e+00
1.01740911473545537e+00
9.54724353107804125e-01
9.54724353107804125e-01
9.54724353107804125e-01
9.69306954763817341e-01
9.69306954763817341e-01
9.69306954763817341e-01
9.92422796163541454e-01
9.92422796163541454e-01
9.92422796163541454e-01
9.57885732054951422e-01
9.57885732054951422e-01
9.57885732054951422e-01
1.03579782536249043e+00
1.03579782536249043e+00
1.03579782536249043e+00
9.53326433851437116e-01
9.53326433851437116e-01
9.53326433851437116e-01
1.02960633199130935e+00
1.02960633199130935e+00
1.02960633199130935e+00
9.83837492825793136e-01
9.83837492825793136e-01
9.83837492825793136e-01
1.02854885326192469e+00
1.02854885326192469e+00
1.02854885326192469e+00
1.04641645195051658e+00
1.04641645195051658e+00
1.04641645195051658e+00
1.01308774939452251e+00
1.01308774939452251e+00
1.01308774939452251e+00
1.01179016708589731e+00
1.01179016708589731e+00
1.01179016708589731e+00
1.00940828064207611e+00
1.00940828064207611e+00
1.00940828064207611e+00
1.01739454768763893e+00
1.01739454768763893e+00
1.01739454768763893e+00
9.83676338288520413e-01
9.83676338288520413e-01
9.83676338288520413e-01
1.01819780992627851e+00
1.01819780992627851e+00
1.01819780992627851e+00
9.85063071623033748e-01
9.85063071623033748e-01
9.85063071623033748e-01
9.93261477554001626e-01
9.93261477554001626e-01
9.93261477554001626e-01
9.93853444234327088e-01
9.93853444234327088e-01
9.93853444234327088e-01
9.43708315428276379e-01
9.43708315428276379e-01
9.43708315428276379e-01
9.63904392973154112e-01
9.63904392973154112e-01
9.63904392973154112e-01
1.02542622345711942e+00
1.02542622345711942e+00
1.02542622345711942e+00
1.00488520201298259e+00
1.00488520201298259e+00
1.00488520201298259e+00
9.75492541410596936e-01
9.75492541410596936e-01
9.75492541410596936e-01
9.89409269981323503e-01
9.89409269981323503e-01
9.89409269981323503e-01
9.38976099955639243e-01
9.38976099955639243e-01
9.38976099955639243e-01
1.02690491059341382e+00
1.02690491059341382e+00
1.02690491059341382e+00
1.02324850532179679e+00
1.02324850532179679e+00
1.02324850532179679e+00
9.93983279863818514e-01
9.93983279863818514e-01
9.93983279863818514e-01
9.48852357065276708e-01
9.48852357065276708e-01
9.48852357065276708e-01
9.69798493340426337e-01
9.69798493340426337e-01
9.69798493340426337e-01
9.60980695093867410e-01
9.60980695093867410e-01
9.60980695093867410e-01
9.63884994301796527e-01
9.63884994301796527e-01
9.63884994301796527e-01
9.93388850717774829e-01
9.93388850717774829e-01
9.93388850717774829e-01
1.01241342873459961e+00
1.01241342873459961e+00
1.01241342873459961e+00
9.94358358269682774e-01
9.94358358269682774e-01
9.94358358269682774e-01
1.00933343151413268e+00
1.00933343151413268e+00
1.00933343151413268e+00
9.25923992960763886e-01
9.25923992960763886e-01
9.25923992960763886e-01
9.41936804019394280e-01
9.41936804019394280e-01
9.41936804019394280e-01
9.66391298971865598e-01
9.66391298971865598e-01
9.66391298971865598e-01
9.90376333019240662e-01
9.90376333019240662e-01
9.90376333019240662e-01
1.04066594407862678e+00
1.04066594407862678e+00
1.04066594407862678e+00
1.01833780599462309e+00
1.01833780599462309e+00
1.01833780599462309e+00
1.02297404768598499e+00
1.02297404768598499e+00
1.02297404768598499e+00
1.06933181050059134e+00
1.06933181050059134e+00
1.06933181050059134e+00
9.92236853790081197e-01
9.92236853790081197e-01
9.92236853790081197e-01
9.99077391554095473e-01
9.99077391554095473e-01
9.99077391554095473e-01
1.07588762992060660e+00
1.07588762992060660e+00
1.07588762992060660e+00
1.05735874189791157e+00
1.05735874189791157e+00
1.05735874189791157e+00
1.02026150332617371e+00
1.02026150332617371e+00
1.02026150332617371e+00
1.01912866135063096e+00
1.01912866135063096e+00
1.01912866135063096e+00
1.04273450852291161e+00
1.04273450852291161e+00
1.04273450852291161e+00
9.95553055775287410e-01
9.95553055775287410e-01
9.95553055775287410e-01
9.93206843788621785e-01
9.93206843788621785e-01
9.93206843788621785e-01
1.06050304057793632e+00
1.06050304057793632e+00
1.06050304057793632e+00
1.00518026896992119e+00
1.00518026896992119e+00
1.00518026896992119e+00
1.02060639051791258e+00
1.02060639051791258e+00
1.02060639051791258e+00
9.98459811371787076e-01
9.98459811371787076e-01
9.98459811371787076e-01
9.89573938746075132e-01
9.89573938746075132e-01
9.89573938746075132e-01
9.85186374149020105e-01
9.85186374149020105e-01
9.85186374149020105e-01
9.75967475265211770e-01
9.75967475265211770e-01
9.75967475265211770e-01
1.00963555922426029e+00
1.00963555922426029e+00
1.00963555922426029e+00
1.02363429343216028e+00
1.02363429343216028e+00
1.02363429343216028e+00
1.02342178019892605e+00
1.02342178019892605e+00
1.02342178019892605e+00
1.07570865086260214e+00
1.07570865086260214e+00
1.07570865086260214e+00
1.03591585359976568e+00
1.03591585359976568e+00
1.03591585359976568e+00
1.02698118049443665e+00
1.02698118049443665e+00
1.02698118049443665e+00
1.01225133057271854e+00
1.01225133057271854e+00
1.01225133057271854e+00
1.03137497409844903e+00
1.03137497409844903e+00
1.03137497409844903e+00
1.02233124960914079e+00
1.02233124960914079e+00
1.02233124960914079e+00
1.06117125411397573e+00
1.06117125411397573e+00
1.06117125411397573e+00
1.00156297094819169e+00
1.00156297094819169e+00
1.00156297094819169e+00
9.89441936588735027e-01
9.89441936588735027e-01
9.89441936588735027e-01
1.01026846216603694e+00
1.01026846216603694e+00
1.01026846216603694e+00
1.01894937431975352e+00
1.01894937431975352e+00
1.01894937431975352e+00
9.96047283831379970e-01
9.96047283831379970e-01
9.96047283831379970e-01
1.01798484172974790e+00
1.01798484172974790e+00
1.01798484172974790e+00
1.01237655948730199e+00
1.01237655948730199e+00
1.01237655948730199e+00
9.91523353689193976e-01
9.91523353689193976e-01
9.91523353689193976e-01
9.67137000980802908e-01
9.67137000980802908e-01
9.67137000980802908e-01
1.00632445961667072e+00
1.00632445961667072e+00
1.00632445961667072e+00
1.01272226713231683e+00
1.01272226713231683e+00
1.01272226713231683e+00
1.02917579355463862e+00
1.02917579355463862e+00
1.02917579355463862e+00
1.06520129149657561e+00
1.06520129149657561e+00
1.06520129149657561e+00
1.00432929923456871e+00
1.00432929923456871e+00
1.00432929923456871e+00
1.02826546728647306e+00
1.02826546728647306e+00
1.02826546728647306e+00
1.04943516128994596e+00
1.04943516128994596e+00
1.04943516128994596e+00
1.05189095458122250e+00
1.05189095458122250e+00
1.05189095458122250e+00
1.02738729070745682e+00
1.02738729070745682e+00
1.02738729070745682e+00
1.07560742221067240e+00
1.07560742221067240e+00
1.07560742221067240e+00
9.79036037520218505e-01
9.79036037520218505e-01
9.79036037520218505e-01
9.69220411057105657e-01
9.69220411057105657e-01
9.69220411057105657e-01
9.34924323780280342e-01
9.34924323780280342e-01
9.34924323780280342e-01
9.56625306408491527e-01
9.56625306408491527e-01
9.56625306408491527e-01
9.41613151876049215e-01
9.41613151876049215e-01
9.41613151876049215e-01
9.29162686596964660e-01
9.29162686596964660e-01
9.29162686596964660e-01
9.43721383942721759e-01
9.43721383942721759e-01
9.43721383942721759e-01
9.55365501514260029e-01
9.55365501514260029e-01
9.55365501514260029e-01
9.65232425682483353e-01
9.65232425682483353e-01
9.65232425682483353e-01
9.44681805091183491e-01
9.44681805091183491e-01
9.44681805091183491e-01
9.48715759174061479e-01
9.48715759174061479e-01
9.48715759174061479e-01
9.73236691285999989e-01
9.73236691285999989e-01
9.73236691285999989e-01
9.94032609981993942e-01
9.94032609981993942e-01
9.94032609981993942e-01
1.02748080929142227e+00
1.02748080929142227e+00
1.02748080929142227e+00
1.02405466521980215e+00
1.02405466521980215e+00
1.02405466521980215e+00
1.05820566541309202e+00
1.05820566541309202e+00
1.05820566541309202e+00
9.87698287623073434e-01
9.87698287623073434e-01
9.87698287623073434e-01
9.93380158794287649e-01
9.93380158794287649e-01
9.93380158794287649e-01
1.06458465858623530e+00
1.06458465858623530e+00
1.06458465858623530e+00
1.02689837716797427e+00
1.02689837716797427e+00
1.02689837716797427e+00
1.00745476561401870e+00
1.00745476561401870e+00
1.00745476561401870e+00
9.98389331631598931e-01
9.98389331631598931e-01
9.98389331631598931e-01


        </DataArray>

      </PointData>

      <CellData/>

      <Points>

        <DataArray type="Float64" NumberOfComponents="3" format="ascii">

0.1082531754723032 0.6875000000007816 0 0.23533274979922561 0.77093399389351469 0 0.10409951422139101 0.81206782209691231 0 0.23533274979922561 0.77093399389351469 0 0.1082531754723032 0.6875000000007816 0 0.21809253452218619 0.65480892822618109 0 0.24418615484441761 0.35773612382016978 0 0.121259140952891 0.43112117036853742 0 0.1082531754734323 0.31250000000117473 0 0.75000000000057243 0.35048094716480432 0 0.88173731489851925 0.33077402607778361 0 0.81242894672211508 0.45500248311961472 0 0.121259140952891 0.43112117036853742 0 0.24418615484441761 0.35773612382016978 0 0.22257735880419699 0.47344721641341742 0 0.81242894672211508 0.45500248311961472 0 0.88173731489851925 0.33077402607778361 0 0.915464298762109 0.43749999999886913 0 0 0.62500000000121547 0 0 0.50000000000206146 0 0.1371230538040123 0.56179824718362847 0 0.82212678063041267 0.67678595194836966 0 0.89051480781310632 0.79665793440246835 0 0.76243180583607129 0.78687675331113149 0 0.76243180583607129 0.78687675331113149 0 0.69010814643829166 0.89298495739101336 0 0.62844955668446423 0.7850749770380413 0 0.89051480781310632 0.79665793440246835 0 0.82212678063041267 0.67678595194836966 0 0.92266244547590082 0.68749999999917555 0 0 0.50000000000206146 0 0.121259140952891 0.43112117036853742 0 0.1371230538040123 0.56179824718362847 0 0.1082531754723032 0.6875000000007816 0 0 0.62500000000121547 0 0.1371230538040123 0.56179824718362847 0 0.75000000000032374 0.56698729811007709 0 0.88927506082488361 0.56409486310635837 0 0.82212678063041267 0.67678595194836966 0 0.81242894672211508 0.45500248311961472 0 0.88927506082488361 0.56409486310635837 0 0.75000000000032374 0.56698729811007709 0 0.69851598570178741 0.68211701800612057 0 0.56496004948275869 0.67675037307860475 0 0.62752533658682441 0.56838075195614346 0 0.69851598570178741 0.68211701800612057 0 0.76243180583607129 0.78687675331113149 0 0.62844955668446423 0.7850749770380413 0 0.23533274979922561 0.77093399389351469 0 0.18802967116092181 0.89415349436770275 0 0.10409951422139101 0.81206782209691231 0 0.121259140952891 0.43112117036853742 0 0.22257735880419699 0.47344721641341742 0 0.1371230538040123 0.56179824718362847 0 0.75000000000032374 0.56698729811007709 0 0.69851598570178741 0.68211701800612057 0 0.62752533658682441 0.56838075195614346 0 0.56496004948275869 0.67675037307860475 0 0.69851598570178741 0.68211701800612057 0 0.62844955668446423 0.7850749770380413 0 0.1371230538040123 0.56179824718362847 0 0.22257735880419699 0.47344721641341742 0 0.26982811998763367 0.56544650815856912 0 0.21809253452218619 0.65480892822618109 0 0.1371230538040123 0.56179824718362847 0 0.26982811998763367 0.56544650815856912 0 0.24418615484441761 0.35773612382016978 0 0.1082531754734323 0.31250000000117473 0 0.20767261601459541 0.25628918442207171 0 0.88173731489851925 0.33077402607778361 0 0.75000000000057243 0.35048094716480432 0 0.79891106056046712 0.25007334953587562 0 0.75000000000032374 0.56698729811007709 0 0.82212678063041267 0.67678595194836966 0 0.69851598570178741 0.68211701800612057 0 0.81249999999950517 0.1082531754733404 0 0.89658421694297741 0.1933620068391701 0 0.79891106056046712 0.25007334953587562 0 0.81249999999950517 0.1082531754733404 0 0.79891106056046712 0.25007334953587562 0 0.73983916756365475 0.17530677078674589 0 0.23533274979922561 0.77093399389351469 0 0.21809253452218619 0.65480892822618109 0 0.32607333794064219 0.67760114260606152 0 0.1082531754723032 0.6875000000007816 0 0.1371230538040123 0.56179824718362847 0 0.21809253452218619 0.65480892822618109 0 0.69851598570178741 0.68211701800612057 0 0.82212678063041267 0.67678595194836966 0 0.76243180583607129 0.78687675331113149 0 0.69010814643829166 0.89298495739101336 0 0.76243180583607129 0.78687675331113149 0 0.80886664387416207 0.89717308644237903 0 0.43750000000181222 0.89174682452709564 0 0.31258827852827581 0.89214793616708443 0 0.37776173212361452 0.78514649317305008 0 0.43750000000181222 0.89174682452709564 0 0.37500000000156292 1 0 0.31258827852827581 0.89214793616708443 0 0.121259140952891 0.43112117036853742 0 0 0.37500000000156292 0 0.1082531754734323 0.31250000000117473 0 0.50000000000206146 1 0 0.37500000000156292 1 0 0.43750000000181222 0.89174682452709564 0 0.31258827852827581 0.89214793616708443 0 0.18802967116092181 0.89415349436770275 0 0.23533274979922561 0.77093399389351469 0 0 0.50000000000206146 0 0 0.37500000000156292 0 0.121259140952891 0.43112117036853742 0 0.62844955668446423 0.7850749770380413 0 0.69010814643829166 0.89298495739101336 0 0.56327595140699671 0.89211526915426331 0 0.69010814643829166 0.89298495739101336 0 0.62500000000121547 1 0 0.56327595140699671 0.89211526915426331 0 0.25000000000104189 1 0 0.18802967116092181 0.89415349436770275 0 0.31258827852827581 0.89214793616708443 0 0.50000000000206146 1 0 0.43750000000181222 0.89174682452709564 0 0.56327595140699671 0.89211526915426331 0 0.56249999999885147 0.1082531754730395 0 0.62499999999901068 0 0 0.68749999999926592 0.1082531754732875 0 1 0.49999999999869221 0 1 0.62499999999901068 0 0.88927506082488361 0.56409486310635837 0 0 0.25000000000104189 0 0.12076953676380731 0.18690935762408761 0 0.1082531754734323 0.31250000000117473 0 0.49999999999869221 0 0 0.62499999999901068 0 0 0.56249999999885147 0.1082531754730395 0 0.62500000000121547 1 0 0.50000000000206146 1 0 0.56327595140699671 0.89211526915426331 0 0.37500000000156292 1 0 0.25000000000104189 1 0 0.31258827852827581 0.89214793616708443 0 0.31281086598417152 0.10449318608631281 0 0.37499999999904599 0 0 0.43749999999910871 0.1082531754729984 0 0.43750000000181222 0.89174682452709564 0 0.37776173212361452 0.78514649317305008 0 0.50046028868828263 0.78376912307435687 0 0 0.37500000000156292 0 0 0.25000000000104189 0 0.1082531754734323 0.31250000000117473 0 0.49999999999869221 0 0 0.56249999999885147 0.1082531754730395 0 0.43749999999910871 0.1082531754729984 0 0.43750000000181222 0.89174682452709564 0 0.50046028868828263 0.78376912307435687 0 0.56327595140699671 0.89211526915426331 0 0.74999999999934042 0 0 0.81249999999950517 0.1082531754733404 0 0.68749999999926592 0.1082531754732875 0 0.37499999999904599 0 0 0.49999999999869221 0 0 0.43749999999910871 0.1082531754729984 0 0.25000000000104189 1 0 0.12500000000052089 1 0 0.18802967116092181 0.89415349436770275 0 0.50046028868828263 0.78376912307435687 0 0.62844955668446423 0.7850749770380413 0 0.56327595140699671 0.89211526915426331 0 0.37776173212361452 0.78514649317305008 0 0.31258827852827581 0.89214793616708443 0 0.23533274979922561 0.77093399389351469 0 0.62499999999901068 0 0 0.74999999999934042 0 0 0.68749999999926592 0.1082531754732875 0 1 0.74999999999934042 0 1 0.87499999999967015 0 0.89051480781310632 0.79665793440246835 0 0 0.25000000000104189 0 0 0.12500000000052089 0 0.12076953676380731 0.18690935762408761 0 0.74999999999934042 0 0 0.87499999999967015 0 0 0.81249999999950517 0.1082531754733404 0 0.24999999999941069 0 0 0.37499999999904599 0 0 0.31281086598417152 0.10449318608631281 0 0.50046028868828263 0.78376912307435687 0 0.37776173212361452 0.78514649317305008 0 0.44078402250377968 0.67714785211715212 0 0.68768773896438518 0.4586835206367198 0 0.75000000000032374 0.56698729811007709 0 0.62752533658682441 0.56838075195614346 0 0.31411863959822661 0.24965544328045999 0 0.37953773393552892 0.34812185820708452 0 0.24418615484441761 0.35773612382016978 0 0.68768773896438518 0.4586835206367198 0 0.81242894672211508 0.45500248311961472 0 0.75000000000032374 0.56698729811007709 0 1 0.24999999999941069 0 1 0.37499999999904599 0 0.88173731489851925 0.33077402607778361 0 0 0.75000000000034761 0 0 0.62500000000121547 0 0.1082531754723032 0.6875000000007816 0 0.50048844149666749 0.56727788297625459 0 0.44078402250377968 0.67714785211715212 0 0.38694285807596462 0.5672991787102919 0 0.50108503093851109 0.35012252869403671 0 0.44301038174930041 0.45684931552185398 0 0.37953773393552892 0.34812185820708452 0 0.50046028868828263 0.78376912307435687 0 0.56496004948275869 0.67675037307860475 0 0.62844955668446423 0.7850749770380413 0 0.68768773896438518 0.4586835206367198 0 0.75000000000057243 0.35048094716480432 0 0.81242894672211508 0.45500248311961472 0 0.56349980387502452 0.45846841892908402 0 0.62512662990940393 0.35044303886909911 0 0.68768773896438518 0.4586835206367198 0 0.50048844149666749 0.56727788297625459 0 0.38694285807596462 0.5672991787102919 0 0.44301038174930041 0.45684931552185398 0 0.50046028868828263 0.78376912307435687 0 0.44078402250377968 0.67714785211715212 0 0.56496004948275869 0.67675037307860475 0 0.50108503093851109 0.35012252869403671 0 0.37953773393552892 0.34812185820708452 0 0.43750000000200551 0.24222777169198509 0 0.75000000000034761 1 0 0.62500000000121547 1 0 0.69010814643829166 0.89298495739101336 0 0.68768773896438518 0.4586835206367198 0 0.62512662990940393 0.35044303886909911 0 0.75000000000057243 0.35048094716480432 0 0.56496004948275869 0.67675037307860475 0 0.44078402250377968 0.67714785211715212 0 0.50048844149666749 0.56727788297625459 0 0.56349980387502452 0.45846841892908402 0 0.44301038174930041 0.45684931552185398 0 0.50108503093851109 0.35012252869403671 0 0.50048844149666749 0.56727788297625459 0 0.44301038174930041 0.45684931552185398 0 0.56349980387502452 0.45846841892908402 0 0.56349980387502452 0.45846841892908402 0 0.50108503093851109 0.35012252869403671 0 0.62512662990940393 0.35044303886909911 0 0.43750000000200551 0.24222777169198509 0 0.37953773393552892 0.34812185820708452 0 0.31411863959822661 0.24965544328045999 0 0.56496004948275869 0.67675037307860475 0 0.50048844149666749 0.56727788297625459 0 0.62752533658682441 0.56838075195614346 0 0.56349980387502452 0.45846841892908402 0 0.68768773896438518 0.4586835206367198 0 0.62752533658682441 0.56838075195614346 0 0.50048844149666749 0.56727788297625459 0 0.56349980387502452 0.45846841892908402 0 0.62752533658682441 0.56838075195614346 0 0.75000000000057243 0.35048094716480432 0 0.62512662990940393 0.35044303886909911 0 0.68668231842078242 0.24762892664808989 0 0.50108503093851109 0.35012252869403671 0 0.43750000000200551 0.24222777169198509 0 0.56250000000143974 0.2422277716920859 0 0.62512662990940393 0.35044303886909911 0 0.50108503093851109 0.35012252869403671 0 0.56250000000143974 0.2422277716920859 0 0.68668231842078242 0.24762892664808989 0 0.62512662990940393 0.35044303886909911 0 0.56250000000143974 0.2422277716920859 0 0.22257735880419699 0.47344721641341742 0 0.24418615484441761 0.35773612382016978 0 0.32815957677880009 0.4577243358118348 0 0.12076953676380731 0.18690935762408761 0 0.19185372118111221 0.092925648673580788 0 0.25103557339309318 0.17464499738446629 0 0.20767261601459541 0.25628918442207171 0 0.12076953676380731 0.18690935762408761 0 0.25103557339309318 0.17464499738446629 0 0 0.87499999999950151 0 0 0.75000000000034761 0 0.10409951422139101 0.81206782209691231 0 0.1249999999997731 0 0 0.24999999999941069 0 0 0.19185372118111221 0.092925648673580788 0 1 0.1249999999997731 0 1 0.24999999999941069 0 0.89658421694297741 0.1933620068391701 0 0.88927506082488361 0.56409486310635837 0 0.81242894672211508 0.45500248311961472 0 0.915464298762109 0.43749999999886913 0 0.87499999999950151 1 0 0.75000000000034761 1 0 0.80886664387416207 0.89717308644237903 0 0.75000000000034761 1 0 0.69010814643829166 0.89298495739101336 0 0.80886664387416207 0.89717308644237903 0 0.82212678063041267 0.67678595194836966 0 0.88927506082488361 0.56409486310635837 0 0.92266244547590082 0.68749999999917555 0 0 0.75000000000034761 0 0.1082531754723032 0.6875000000007816 0 0.10409951422139101 0.81206782209691231 0 0.24999999999941069 0 0 0.31281086598417152 0.10449318608631281 0 0.19185372118111221 0.092925648673580788 0 1 0.24999999999941069 0 0.88173731489851925 0.33077402607778361 0 0.89658421694297741 0.1933620068391701 0 0.32815957677880009 0.4577243358118348 0 0.38694285807596462 0.5672991787102919 0 0.26982811998763367 0.56544650815856912 0 0.76243180583607129 0.78687675331113149 0 0.89051480781310632 0.79665793440246835 0 0.80886664387416207 0.89717308644237903 0 0.38694285807596462 0.5672991787102919 0 0.44078402250377968 0.67714785211715212 0 0.32607333794064219 0.67760114260606152 0 0.37776173212361452 0.78514649317305008 0 0.23533274979922561 0.77093399389351469 0 0.32607333794064219 0.67760114260606152 0 1 0.49999999999869221 0 0.88927506082488361 0.56409486310635837 0 0.915464298762109 0.43749999999886913 0 0.88173731489851925 0.33077402607778361 0 1 0.37499999999904599 0 0.915464298762109 0.43749999999886913 0 0.24418615484441761 0.35773612382016978 0 0.37953773393552892 0.34812185820708452 0 0.32815957677880009 0.4577243358118348 0 0.44301038174930041 0.45684931552185398 0 0.38694285807596462 0.5672991787102919 0 0.32815957677880009 0.4577243358118348 0 0.88927506082488361 0.56409486310635837 0 1 0.62499999999901068 0 0.92266244547590082 0.68749999999917555 0 1 0.74999999999934042 0 0.89051480781310632 0.79665793440246835 0 0.92266244547590082 0.68749999999917555 0 0 1 0 0 0.87499999999950151 0 0.091506350946494744 0.90849364905351082 0 1 1 0 0.87499999999950151 1 0 0.90849364905363228 0.90849364905367769 0 0 0 0 0.1249999999997731 0 0 0.091506350946417708 0.091506350946618076 0 0 0.12500000000052089 0 0 0 0 0.091506350946417708 0.091506350946618076 0 1 0 0 1 0.1249999999997731 0 0.90849364905355434 0.091506350946296292 0 0.87499999999967015 0 0 1 0 0 0.90849364905355434 0.091506350946296292 0 0.12500000000052089 1 0 0 1 0 0.091506350946494744 0.90849364905351082 0 1 0.87499999999967015 0 1 1 0 0.90849364905363228 0.90849364905367769 0 0.38694285807596462 0.5672991787102919 0 0.32607333794064219 0.67760114260606152 0 0.26982811998763367 0.56544650815856912 0 0.31411863959822661 0.24965544328045999 0 0.24418615484441761 0.35773612382016978 0 0.20767261601459541 0.25628918442207171 0 0.1082531754734323 0.31250000000117473 0 0.12076953676380731 0.18690935762408761 0 0.20767261601459541 0.25628918442207171 0 0.75000000000057243 0.35048094716480432 0 0.68668231842078242 0.24762892664808989 0 0.79891106056046712 0.25007334953587562 0 0.22257735880419699 0.47344721641341742 0 0.32815957677880009 0.4577243358118348 0 0.26982811998763367 0.56544650815856912 0 0.44078402250377968 0.67714785211715212 0 0.37776173212361452 0.78514649317305008 0 0.32607333794064219 0.67760114260606152 0 0.89658421694297741 0.1933620068391701 0 0.88173731489851925 0.33077402607778361 0 0.79891106056046712 0.25007334953587562 0 1 0.37499999999904599 0 1 0.49999999999869221 0 0.915464298762109 0.43749999999886913 0 0.37953773393552892 0.34812185820708452 0 0.44301038174930041 0.45684931552185398 0 0.32815957677880009 0.4577243358118348 0 0.32607333794064219 0.67760114260606152 0 0.21809253452218619 0.65480892822618109 0 0.26982811998763367 0.56544650815856912 0 1 0.1249999999997731 0 0.89658421694297741 0.1933620068391701 0 0.90849364905355434 0.091506350946296292 0 0 0.87499999999950151 0 0.10409951422139101 0.81206782209691231 0 0.091506350946494744 0.90849364905351082 0 0.1249999999997731 0 0 0.19185372118111221 0.092925648673580788 0 0.091506350946417708 0.091506350946618076 0 1 0.62499999999901068 0 1 0.74999999999934042 0 0.92266244547590082 0.68749999999917555 0 0.18802967116092181 0.89415349436770275 0 0.12500000000052089 1 0 0.091506350946494744 0.90849364905351082 0 0.89051480781310632 0.79665793440246835 0 1 0.87499999999967015 0 0.90849364905363228 0.90849364905367769 0 0.12076953676380731 0.18690935762408761 0 0 0.12500000000052089 0 0.091506350946417708 0.091506350946618076 0 0.81249999999950517 0.1082531754733404 0 0.87499999999967015 0 0 0.90849364905355434 0.091506350946296292 0 0.87499999999950151 1 0 0.80886664387416207 0.89717308644237903 0 0.90849364905363228 0.90849364905367769 0 0.68668231842078242 0.24762892664808989 0 0.62499999999892575 0.17524047358135519 0 0.73983916756365475 0.17530677078674589 0 0.31281086598417152 0.10449318608631281 0 0.43749999999910871 0.1082531754729984 0 0.37500000000232431 0.17524047358384309 0 0.62499999999892575 0.17524047358135519 0 0.56250000000143974 0.2422277716920859 0 0.49999999999934441 0.1752404735815076 0 0.56249999999885147 0.1082531754730395 0 0.68749999999926592 0.1082531754732875 0 0.62499999999892575 0.17524047358135519 0 0.56249999999885147 0.1082531754730395 0 0.62499999999892575 0.17524047358135519 0 0.49999999999934441 0.1752404735815076 0 0.56250000000143974 0.2422277716920859 0 0.43750000000200551 0.24222777169198509 0 0.49999999999934441 0.1752404735815076 0 0.43749999999910871 0.1082531754729984 0 0.56249999999885147 0.1082531754730395 0 0.49999999999934441 0.1752404735815076 0 0.68668231842078242 0.24762892664808989 0 0.56250000000143974 0.2422277716920859 0 0.62499999999892575 0.17524047358135519 0 0.43750000000200551 0.24222777169198509 0 0.31411863959822661 0.24965544328045999 0 0.37500000000232431 0.17524047358384309 0 0.49999999999934441 0.1752404735815076 0 0.43750000000200551 0.24222777169198509 0 0.37500000000232431 0.17524047358384309 0 0.43749999999910871 0.1082531754729984 0 0.49999999999934441 0.1752404735815076 0 0.37500000000232431 0.17524047358384309 0 0.62499999999892575 0.17524047358135519 0 0.68749999999926592 0.1082531754732875 0 0.73983916756365475 0.17530677078674589 0 0.68749999999926592 0.1082531754732875 0 0.81249999999950517 0.1082531754733404 0 0.73983916756365475 0.17530677078674589 0 0.10409951422139101 0.81206782209691231 0 0.18802967116092181 0.89415349436770275 0 0.091506350946494744 0.90849364905351082 0 0.89658421694297741 0.1933620068391701 0 0.81249999999950517 0.1082531754733404 0 0.90849364905355434 0.091506350946296292 0 0.19185372118111221 0.092925648673580788 0 0.12076953676380731 0.18690935762408761 0 0.091506350946417708 0.091506350946618076 0 0.37500000000232431 0.17524047358384309 0 0.31411863959822661 0.24965544328045999 0 0.25103557339309318 0.17464499738446629 0 0.31281086598417152 0.10449318608631281 0 0.37500000000232431 0.17524047358384309 0 0.25103557339309318 0.17464499738446629 0 0.80886664387416207 0.89717308644237903 0 0.89051480781310632 0.79665793440246835 0 0.90849364905363228 0.90849364905367769 0 0.19185372118111221 0.092925648673580788 0 0.31281086598417152 0.10449318608631281 0 0.25103557339309318 0.17464499738446629 0 0.79891106056046712 0.25007334953587562 0 0.68668231842078242 0.24762892664808989 0 0.73983916756365475 0.17530677078674589 0 0.31411863959822661 0.24965544328045999 0 0.20767261601459541 0.25628918442207171 0 0.25103557339309318 0.17464499738446629 0 

        </DataArray>

      </Points>

      <Cells>

        <DataArray type="Int32" Name="connectivity" format="ascii">

0 1 2 3 4 5 6 7 8 9 10 11 12 13 14 15 16 17 18 19 20 21 22 23 24 25 26 27 28 29 30 31 32 33 34 35 36 37 38 39 40 41 42 43 44 45 46 47 48 49 50 51 52 53 54 55 56 57 58 59 60 61 62 63 64 65 66 67 68 69 70 71 72 73 74 75 76 77 78 79 80 81 82 83 84 85 86 87 88 89 90 91 92 93 94 95 96 97 98 99 100 101 102 103 104 105 106 107 108 109 110 111 112 113 114 115 116 117 118 119 120 121 122 123 124 125 126 127 128 129 130 131 132 133 134 135 136 137 138 139 140 141 142 143 144 145 146 147 148 149 150 151 152 153 154 155 156 157 158 159 160 161 162 163 164 165 166 167 168 169 170 171 172 173 174 175 176 177 178 179 180 181 182 183 184 185 186 187 188 189 190 191 192 193 194 195 196 197 198 199 200 201 202 203 204 205 206 207 208 209 210 211 212 213 214 215 216 217 218 219 220 221 222 223 224 225 226 227 228 229 230 231 232 233 234 235 236 237 238 239 240 241 242 243 244 245 246 247 248 249 250 251 252 253 254 255 256 257 258 259 260 261 262 263 264 265 266 267 268 269 270 271 272 273 274 275 276 277 278 279 280 281 282 283 284 285 286 287 288 289 290 291 292 293 294 295 296 297 298 299 300 301 302 303 304 305 306 307 308 309 310 311 312 313 314 315 316 317 318 319 320 321 322 323 324 325 326 327 328 329 330 331 332 333 334 335 336 337 338 339 340 341 342 343 344 345 346 347 348 349 350 351 352 353 354 355 356 357 358 359 360 361 362 363 364 365 366 367 368 369 370 371 372 373 374 375 376 377 378 379 380 381 382 383 384 385 386 387 388 389 390 391 392 393 394 395 396 397 398 399 400 401 402 403 404 405 406 407 408 409 410 411 412 413 414 415 416 417 418 419 420 421 422 423 424 425 426 427 428 429 430 431 432 433 434 435 436 437 438 439 440 441 442 443 444 445 446 447 448 449 450 451 452 453 454 455 456 457 458 459 460 461 462 463 464 465 466 467 468 469 470 471 472 473 474 475 476 477 478 479 480 481 482 483 484 485 

        </DataArray>

        <DataArray type="Int32" Name="offsets" format="ascii">

3 6 9 12 15 18 21 24 27 30 33 36 39 42 45 48 51 54 57 60 63 66 69 72 75 78 81 84 87 90 93 96 99 102 105 108 111 114 117 120 123 126 129 132 135 138 141 144 147 150 153 156 159 162 165 168 171 174 177 180 183 186 189 192 195 198 201 204 207 210 213 216 219 222 225 228 231 234 237 240 243 246 249 252 255 258 261 264 267 270 273 276 279 282 285 288 291 294 297 300 303 306 309 312 315 318 321 324 327 330 333 336 339 342 345 348 351 354 357 360 363 366 369 372 375 378 381 384 387 390 393 396 399 402 405 408 411 414 417 420 423 426 429 432 435 438 441 444 447 450 453 456 459 462 465 468 471 474 477 480 483 486 

        </DataArray>

        <DataArray type="Int32" Name="types" format="ascii">

5 5 5 5 5 5 5 5 5 5 5 5 5 5 5 5 5 5 5 5 5 5 5 5 5 5 5 5 5 5 5 5 5 5 5 5 5 5 5 5 5 5 5 5 5 5 5 5 5 5 5 5 5 5 5 5 5 5 5 5 5 5 5 5 5 5 5 5 5 5 5 5 5 5 5 5 5 5 5 5 5 5 5 5 5 5 5 5 5 5 5 5 5 5 5 5 5 5 5 5 5 5 5 5 5 5 5 5 5 5 5 5 5 5 5 5 5 5 5 5 5 5 5 5 5 5 5 5 5 5 5 5 5 5 5 5 5 5 5 5 5 5 5 5 5 5 5 5 5 5 5 5 5 5 5 5 5 5 5 5 5 5 

        </DataArray>

      </Cells>

    </Piece>

  </UnstructuredGrid>

</VTKFile>

