<?xml version="1.0"?>

<VTKFile type="UnstructuredGrid" version="0.1">

  <UnstructuredGrid>

    <Piece NumberOfPoints="486" NumberOfCells="162">

      <PointData>

        <DataArray type="Float64" Name="K" format="ascii">

1.02390456388658979e+00
1.02390456388658979e+00
1.02390456388658979e+00
1.03851529175729484e+00
1.03851529175729484e+00
1.03851529175729484e+00
9.51393919196697913e-01
9.51393919196697913e-01
9.51393919196697913e-01
1.03088441465561154e+00
1.03088441465561154e+00
1.03088441465561154e+00
9.82991535773237279e-01
9.82991535773237279e-01
9.82991535773237279e-01
1.02555762638363279e+00
1.02555762638363279e+00
1.02555762638363279e+00
1.02201532840896303e+00
1.02201532840896303e+00
1.02201532840896303e+00
1.01402537700710971e+00
1.01402537700710971e+00
1.01402537700710971e+00
9.99997507397594410e-01
9.99997507397594410e-01
9.99997507397594410e-01
1.00866685998263317e+00
1.00866685998263317e+00
1.00866685998263317e+00
9.95098126302804808e-01
9.95098126302804808e-01
9.95098126302804808e-01
1.03094474550096371e+00
1.03094474550096371e+00
1.03094474550096371e+00
1.02752570640209440e+00
1.02752570640209440e+00
1.02752570640209440e+00
1.03353949176430082e+00
1.03353949176430082e+00
1.03353949176430082e+00
1.04948242364387090e+00
1.04948242364387090e+00
1.04948242364387090e+00
1.01823938142352954e+00
1.01823938142352954e+00
1.01823938142352954e+00
1.00528094271155988e+00
1.00528094271155988e+00
1.00528094271155988e+00
9.99650081763915788e-01
9.99650081763915788e-01
9.99650081763915788e-01
1.05875568892109340e+00
1.05875568892109340e+00
1.05875568892109340e+00
1.02043704025454884e+00
1.02043704025454884e+00
1.02043704025454884e+00
1.03090332660461459e+00
1.03090332660461459e+00
1.03090332660461459e+00
1.04478316046904052e+00
1.04478316046904052e+00
1.04478316046904052e+00
9.45374699056414469e-01
9.45374699056414469e-01
9.45374699056414469e-01
1.02569948374139930e+00
1.02569948374139930e+00
1.02569948374139930e+00
1.03920632749404462e+00
1.03920632749404462e+00
1.03920632749404462e+00
1.01810454153253560e+00
1.01810454153253560e+00
1.01810454153253560e+00
1.01558812068798265e+00
1.01558812068798265e+00
1.01558812068798265e+00
1.05538369037421265e+00
1.05538369037421265e+00
1.05538369037421265e+00
1.03608862286245063e+00
1.03608862286245063e+00
1.03608862286245063e+00
1.02621900300464652e+00
1.02621900300464652e+00
1.02621900300464652e+00
1.00968395437944092e+00
1.00968395437944092e+00
1.00968395437944092e+00
9.94813834987112733e-01
9.94813834987112733e-01
9.94813834987112733e-01
9.72399560033977761e-01
9.72399560033977761e-01
9.72399560033977761e-01
9.45686874128679911e-01
9.45686874128679911e-01
9.45686874128679911e-01
9.52403771318057646e-01
9.52403771318057646e-01
9.52403771318057646e-01
1.00125138551375370e+00
1.00125138551375370e+00
1.00125138551375370e+00
9.78346817142453085e-01
9.78346817142453085e-01
9.78346817142453085e-01
9.66660820684366096e-01
9.66660820684366096e-01
9.66660820684366096e-01
9.56132037076607544e-01
9.56132037076607544e-01
9.56132037076607544e-01
9.76624972511433764e-01
9.76624972511433764e-01
9.76624972511433764e-01
9.36386599516053408e-01
9.36386599516053408e-01
9.36386599516053408e-01
1.00072105986009530e+00
1.00072105986009530e+00
1.00072105986009530e+00
1.00275811321110364e+00
1.00275811321110364e+00
1.00275811321110364e+00
9.20175639821784630e-01
9.20175639821784630e-01
9.20175639821784630e-01
9.94476678716863960e-01
9.94476678716863960e-01
9.94476678716863960e-01
9.36538105309267177e-01
9.36538105309267177e-01
9.36538105309267177e-01
9.71689594741420026e-01
9.71689594741420026e-01
9.71689594741420026e-01
9.60373801933982585e-01
9.60373801933982585e-01
9.60373801933982585e-01
9.86651577810172098e-01
9.86651577810172098e-01
9.86651577810172098e-01
9.35877732100290460e-01
9.35877732100290460e-01
9.35877732100290460e-01
9.81765624034454554e-01
9.81765624034454554e-01
9.81765624034454554e-01
9.51208622375061208e-01
9.51208622375061208e-01
9.51208622375061208e-01
1.00566497278912248e+00
1.00566497278912248e+00
1.00566497278912248e+00
9.67816731977145683e-01
9.67816731977145683e-01
9.67816731977145683e-01
9.71116476667703399e-01
9.71116476667703399e-01
9.71116476667703399e-01
9.60853469400213767e-01
9.60853469400213767e-01
9.60853469400213767e-01
1.02130927356251178e+00
1.02130927356251178e+00
1.02130927356251178e+00
9.97128484443971619e-01
9.97128484443971619e-01
9.97128484443971619e-01
1.01436867985777046e+00
1.01436867985777046e+00
1.01436867985777046e+00
9.23389262945179423e-01
9.23389262945179423e-01
9.23389262945179423e-01
1.01531628200588142e+00
1.01531628200588142e+00
1.01531628200588142e+00
9.74349097391303265e-01
9.74349097391303265e-01
9.74349097391303265e-01
1.01829764977550252e+00
1.01829764977550252e+00
1.01829764977550252e+00
1.06998066020650495e+00
1.06998066020650495e+00
1.06998066020650495e+00
9.70826327680435752e-01
9.70826327680435752e-01
9.70826327680435752e-01
1.05397456899761588e+00
1.05397456899761588e+00
1.05397456899761588e+00
1.01036067824988485e+00
1.01036067824988485e+00
1.01036067824988485e+00
1.03583601434817574e+00
1.03583601434817574e+00
1.03583601434817574e+00
1.05470059008019956e+00
1.05470059008019956e+00
1.05470059008019956e+00
9.97427955665274979e-01
9.97427955665274979e-01
9.97427955665274979e-01
9.94038154851883626e-01
9.94038154851883626e-01
9.94038154851883626e-01
1.04951753478216259e+00
1.04951753478216259e+00
1.04951753478216259e+00
1.06625038500316593e+00
1.06625038500316593e+00
1.06625038500316593e+00
1.04694925106786729e+00
1.04694925106786729e+00
1.04694925106786729e+00
1.01530566819941237e+00
1.01530566819941237e+00
1.01530566819941237e+00
9.74481616477718360e-01
9.74481616477718360e-01
9.74481616477718360e-01
9.86501836243710239e-01
9.86501836243710239e-01
9.86501836243710239e-01
1.05840880007516924e+00
1.05840880007516924e+00
1.05840880007516924e+00
1.04210934203354255e+00
1.04210934203354255e+00
1.04210934203354255e+00
1.02680253857823778e+00
1.02680253857823778e+00
1.02680253857823778e+00
1.04594302016395702e+00
1.04594302016395702e+00
1.04594302016395702e+00
1.04064215075239064e+00
1.04064215075239064e+00
1.04064215075239064e+00
9.60636056539920125e-01
9.60636056539920125e-01
9.60636056539920125e-01
1.05436850974864926e+00
1.05436850974864926e+00
1.05436850974864926e+00
1.07476968889741076e+00
1.07476968889741076e+00
1.07476968889741076e+00
1.06420566703972419e+00
1.06420566703972419e+00
1.06420566703972419e+00
1.04278437398862445e+00
1.04278437398862445e+00
1.04278437398862445e+00
9.86719567606716641e-01
9.86719567606716641e-01
9.86719567606716641e-01
1.02116259910883023e+00
1.02116259910883023e+00
1.02116259910883023e+00
1.03117341462422307e+00
1.03117341462422307e+00
1.03117341462422307e+00
1.00682154093459175e+00
1.00682154093459175e+00
1.00682154093459175e+00
9.55942163949281776e-01
9.55942163949281776e-01
9.55942163949281776e-01
9.45466839914144375e-01
9.45466839914144375e-01
9.45466839914144375e-01
1.01804100054096480e+00
1.01804100054096480e+00
1.01804100054096480e+00
9.97040734373348281e-01
9.97040734373348281e-01
9.97040734373348281e-01
9.99474907541539892e-01
9.99474907541539892e-01
9.99474907541539892e-01
1.02468553292592857e+00
1.02468553292592857e+00
1.02468553292592857e+00
1.02212785377732462e+00
1.02212785377732462e+00
1.02212785377732462e+00
1.00858753477597474e+00
1.00858753477597474e+00
1.00858753477597474e+00
1.01238985386931923e+00
1.01238985386931923e+00
1.01238985386931923e+00
1.02814584756371996e+00
1.02814584756371996e+00
1.02814584756371996e+00
9.82123150590690774e-01
9.82123150590690774e-01
9.82123150590690774e-01
1.01343810205637119e+00
1.01343810205637119e+00
1.01343810205637119e+00
1.05347856411636687e+00
1.05347856411636687e+00
1.05347856411636687e+00
1.01368406268154465e+00
1.01368406268154465e+00
1.01368406268154465e+00
1.06463923589990994e+00
1.06463923589990994e+00
1.06463923589990994e+00
1.04994865746951493e+00
1.04994865746951493e+00
1.04994865746951493e+00
1.01443734778354555e+00
1.01443734778354555e+00
1.01443734778354555e+00
1.01829991980318590e+00
1.01829991980318590e+00
1.01829991980318590e+00
9.95240201307174166e-01
9.95240201307174166e-01
9.95240201307174166e-01
1.03810765151974405e+00
1.03810765151974405e+00
1.03810765151974405e+00
1.00406275524136102e+00
1.00406275524136102e+00
1.00406275524136102e+00
1.00551415441112280e+00
1.00551415441112280e+00
1.00551415441112280e+00
9.98967766568481852e-01
9.98967766568481852e-01
9.98967766568481852e-01
1.03325120469013121e+00
1.03325120469013121e+00
1.03325120469013121e+00
9.71245796444209275e-01
9.71245796444209275e-01
9.71245796444209275e-01
9.47790416927662971e-01
9.47790416927662971e-01
9.47790416927662971e-01
9.95666421171163218e-01
9.95666421171163218e-01
9.95666421171163218e-01
1.01247137175462920e+00
1.01247137175462920e+00
1.01247137175462920e+00
9.91517185212306806e-01
9.91517185212306806e-01
9.91517185212306806e-01
1.03601207176038601e+00
1.03601207176038601e+00
1.03601207176038601e+00
1.06954305662909399e+00
1.06954305662909399e+00
1.06954305662909399e+00
9.59161394744031726e-01
9.59161394744031726e-01
9.59161394744031726e-01
9.29367511639123123e-01
9.29367511639123123e-01
9.29367511639123123e-01
1.02934730737226277e+00
1.02934730737226277e+00
1.02934730737226277e+00
1.03680575834172184e+00
1.03680575834172184e+00
1.03680575834172184e+00
1.05135649591125824e+00
1.05135649591125824e+00
1.05135649591125824e+00
1.01986856690463257e+00
1.01986856690463257e+00
1.01986856690463257e+00
1.00959741911764667e+00
1.00959741911764667e+00
1.00959741911764667e+00
1.00804052498662822e+00
1.00804052498662822e+00
1.00804052498662822e+00
1.06490715832478777e+00
1.06490715832478777e+00
1.06490715832478777e+00
1.00757889902751208e+00
1.00757889902751208e+00
1.00757889902751208e+00
1.00600612409729617e+00
1.00600612409729617e+00
1.00600612409729617e+00
9.76923781818617609e-01
9.76923781818617609e-01
9.76923781818617609e-01
9.97150735555921708e-01
9.97150735555921708e-01
9.97150735555921708e-01
9.82751001141705216e-01
9.82751001141705216e-01
9.82751001141705216e-01
1.02142118082961963e+00
1.02142118082961963e+00
1.02142118082961963e+00
9.34803867568063773e-01
9.34803867568063773e-01
9.34803867568063773e-01
1.02037042697824853e+00
1.02037042697824853e+00
1.02037042697824853e+00
1.02396492171897990e+00
1.02396492171897990e+00
1.02396492171897990e+00
1.01779467011264968e+00
1.01779467011264968e+00
1.01779467011264968e+00
9.54971312625435331e-01
9.54971312625435331e-01
9.54971312625435331e-01
1.00083029082646546e+00
1.00083029082646546e+00
1.00083029082646546e+00
1.00602662046385971e+00
1.00602662046385971e+00
1.00602662046385971e+00
9.97967396517374095e-01
9.97967396517374095e-01
9.97967396517374095e-01
9.79619450809421699e-01
9.79619450809421699e-01
9.79619450809421699e-01
9.79351721151621502e-01
9.79351721151621502e-01
9.79351721151621502e-01
1.01863284713554103e+00
1.01863284713554103e+00
1.01863284713554103e+00
9.53200761158878973e-01
9.53200761158878973e-01
9.53200761158878973e-01
9.59257207932827649e-01
9.59257207932827649e-01
9.59257207932827649e-01
9.60253356473778963e-01
9.60253356473778963e-01
9.60253356473778963e-01
1.01044597803908953e+00
1.01044597803908953e+00
1.01044597803908953e+00
1.00965309871242748e+00
1.00965309871242748e+00
1.00965309871242748e+00
9.95898385013342602e-01
9.95898385013342602e-01
9.95898385013342602e-01
1.01834581078029807e+00
1.01834581078029807e+00
1.01834581078029807e+00
9.52644898065574508e-01
9.52644898065574508e-01
9.52644898065574508e-01
9.54868148991210308e-01
9.54868148991210308e-01
9.54868148991210308e-01
9.57663191527185820e-01
9.57663191527185820e-01
9.57663191527185820e-01
1.01705817347534766e+00
1.01705817347534766e+00
1.01705817347534766e+00
9.67632719908661176e-01
9.67632719908661176e-01
9.67632719908661176e-01
1.02034537437826756e+00
1.02034537437826756e+00
1.02034537437826756e+00
9.54559391402402313e-01
9.54559391402402313e-01
9.54559391402402313e-01


        </DataArray>

      </PointData>

      <CellData/>

      <Points>

        <DataArray type="Float64" NumberOfComponents="3" format="ascii">

0.1082531754723032 0.6875000000007816 0 0.23533274979922561 0.77093399389351469 0 0.10409951422139101 0.81206782209691231 0 0.23533274979922561 0.77093399389351469 0 0.1082531754723032 0.6875000000007816 0 0.21809253452218619 0.65480892822618109 0 0.24418615484441761 0.35773612382016978 0 0.121259140952891 0.43112117036853742 0 0.1082531754734323 0.31250000000117473 0 0.75000000000057243 0.35048094716480432 0 0.88173731489851925 0.33077402607778361 0 0.81242894672211508 0.45500248311961472 0 0.121259140952891 0.43112117036853742 0 0.24418615484441761 0.35773612382016978 0 0.22257735880419699 0.47344721641341742 0 0.81242894672211508 0.45500248311961472 0 0.88173731489851925 0.33077402607778361 0 0.915464298762109 0.43749999999886913 0 0 0.62500000000121547 0 0 0.50000000000206146 0 0.1371230538040123 0.56179824718362847 0 0.82212678063041267 0.67678595194836966 0 0.89051480781310632 0.79665793440246835 0 0.76243180583607129 0.78687675331113149 0 0.76243180583607129 0.78687675331113149 0 0.69010814643829166 0.89298495739101336 0 0.62844955668446423 0.7850749770380413 0 0.89051480781310632 0.79665793440246835 0 0.82212678063041267 0.67678595194836966 0 0.92266244547590082 0.68749999999917555 0 0 0.50000000000206146 0 0.121259140952891 0.43112117036853742 0 0.1371230538040123 0.56179824718362847 0 0.1082531754723032 0.6875000000007816 0 0 0.62500000000121547 0 0.1371230538040123 0.56179824718362847 0 0.75000000000032374 0.56698729811007709 0 0.88927506082488361 0.56409486310635837 0 0.82212678063041267 0.67678595194836966 0 0.81242894672211508 0.45500248311961472 0 0.88927506082488361 0.56409486310635837 0 0.75000000000032374 0.56698729811007709 0 0.69851598570178741 0.68211701800612057 0 0.56496004948275869 0.67675037307860475 0 0.62752533658682441 0.56838075195614346 0 0.69851598570178741 0.68211701800612057 0 0.76243180583607129 0.78687675331113149 0 0.62844955668446423 0.7850749770380413 0 0.23533274979922561 0.77093399389351469 0 0.18802967116092181 0.89415349436770275 0 0.10409951422139101 0.81206782209691231 0 0.121259140952891 0.43112117036853742 0 0.22257735880419699 0.47344721641341742 0 0.1371230538040123 0.56179824718362847 0 0.75000000000032374 0.56698729811007709 0 0.69851598570178741 0.68211701800612057 0 0.62752533658682441 0.56838075195614346 0 0.56496004948275869 0.67675037307860475 0 0.69851598570178741 0.68211701800612057 0 0.62844955668446423 0.7850749770380413 0 0.1371230538040123 0.56179824718362847 0 0.22257735880419699 0.47344721641341742 0 0.26982811998763367 0.56544650815856912 0 0.21809253452218619 0.65480892822618109 0 0.1371230538040123 0.56179824718362847 0 0.26982811998763367 0.56544650815856912 0 0.24418615484441761 0.35773612382016978 0 0.1082531754734323 0.31250000000117473 0 0.20767261601459541 0.25628918442207171 0 0.88173731489851925 0.33077402607778361 0 0.75000000000057243 0.35048094716480432 0 0.79891106056046712 0.25007334953587562 0 0.75000000000032374 0.56698729811007709 0 0.82212678063041267 0.67678595194836966 0 0.69851598570178741 0.68211701800612057 0 0.81249999999950517 0.1082531754733404 0 0.89658421694297741 0.1933620068391701 0 0.79891106056046712 0.25007334953587562 0 0.81249999999950517 0.1082531754733404 0 0.79891106056046712 0.25007334953587562 0 0.73983916756365475 0.17530677078674589 0 0.23533274979922561 0.77093399389351469 0 0.21809253452218619 0.65480892822618109 0 0.32607333794064219 0.67760114260606152 0 0.1082531754723032 0.6875000000007816 0 0.1371230538040123 0.56179824718362847 0 0.21809253452218619 0.65480892822618109 0 0.69851598570178741 0.68211701800612057 0 0.82212678063041267 0.67678595194836966 0 0.76243180583607129 0.78687675331113149 0 0.69010814643829166 0.89298495739101336 0 0.76243180583607129 0.78687675331113149 0 0.80886664387416207 0.89717308644237903 0 0.43750000000181222 0.89174682452709564 0 0.31258827852827581 0.89214793616708443 0 0.37776173212361452 0.78514649317305008 0 0.43750000000181222 0.89174682452709564 0 0.37500000000156292 1 0 0.31258827852827581 0.89214793616708443 0 0.121259140952891 0.43112117036853742 0 0 0.37500000000156292 0 0.1082531754734323 0.31250000000117473 0 0.50000000000206146 1 0 0.37500000000156292 1 0 0.43750000000181222 0.89174682452709564 0 0.31258827852827581 0.89214793616708443 0 0.18802967116092181 0.89415349436770275 0 0.23533274979922561 0.77093399389351469 0 0 0.50000000000206146 0 0 0.37500000000156292 0 0.121259140952891 0.43112117036853742 0 0.62844955668446423 0.7850749770380413 0 0.69010814643829166 0.89298495739101336 0 0.56327595140699671 0.89211526915426331 0 0.69010814643829166 0.89298495739101336 0 0.62500000000121547 1 0 0.56327595140699671 0.89211526915426331 0 0.25000000000104189 1 0 0.18802967116092181 0.89415349436770275 0 0.31258827852827581 0.89214793616708443 0 0.50000000000206146 1 0 0.43750000000181222 0.89174682452709564 0 0.56327595140699671 0.89211526915426331 0 0.56249999999885147 0.1082531754730395 0 0.62499999999901068 0 0 0.68749999999926592 0.1082531754732875 0 1 0.49999999999869221 0 1 0.62499999999901068 0 0.88927506082488361 0.56409486310635837 0 0 0.25000000000104189 0 0.12076953676380731 0.18690935762408761 0 0.1082531754734323 0.31250000000117473 0 0.49999999999869221 0 0 0.62499999999901068 0 0 0.56249999999885147 0.1082531754730395 0 0.62500000000121547 1 0 0.50000000000206146 1 0 0.56327595140699671 0.89211526915426331 0 0.37500000000156292 1 0 0.25000000000104189 1 0 0.31258827852827581 0.89214793616708443 0 0.31281086598417152 0.10449318608631281 0 0.37499999999904599 0 0 0.43749999999910871 0.1082531754729984 0 0.43750000000181222 0.89174682452709564 0 0.37776173212361452 0.78514649317305008 0 0.50046028868828263 0.78376912307435687 0 0 0.37500000000156292 0 0 0.25000000000104189 0 0.1082531754734323 0.31250000000117473 0 0.49999999999869221 0 0 0.56249999999885147 0.1082531754730395 0 0.43749999999910871 0.1082531754729984 0 0.43750000000181222 0.89174682452709564 0 0.50046028868828263 0.78376912307435687 0 0.56327595140699671 0.89211526915426331 0 0.74999999999934042 0 0 0.81249999999950517 0.1082531754733404 0 0.68749999999926592 0.1082531754732875 0 0.37499999999904599 0 0 0.49999999999869221 0 0 0.43749999999910871 0.1082531754729984 0 0.25000000000104189 1 0 0.12500000000052089 1 0 0.18802967116092181 0.89415349436770275 0 0.50046028868828263 0.78376912307435687 0 0.62844955668446423 0.7850749770380413 0 0.56327595140699671 0.89211526915426331 0 0.37776173212361452 0.78514649317305008 0 0.31258827852827581 0.89214793616708443 0 0.23533274979922561 0.77093399389351469 0 0.62499999999901068 0 0 0.74999999999934042 0 0 0.68749999999926592 0.1082531754732875 0 1 0.74999999999934042 0 1 0.87499999999967015 0 0.89051480781310632 0.79665793440246835 0 0 0.25000000000104189 0 0 0.12500000000052089 0 0.12076953676380731 0.18690935762408761 0 0.74999999999934042 0 0 0.87499999999967015 0 0 0.81249999999950517 0.1082531754733404 0 0.24999999999941069 0 0 0.37499999999904599 0 0 0.31281086598417152 0.10449318608631281 0 0.50046028868828263 0.78376912307435687 0 0.37776173212361452 0.78514649317305008 0 0.44078402250377968 0.67714785211715212 0 0.68768773896438518 0.4586835206367198 0 0.75000000000032374 0.56698729811007709 0 0.62752533658682441 0.56838075195614346 0 0.31411863959822661 0.24965544328045999 0 0.37953773393552892 0.34812185820708452 0 0.24418615484441761 0.35773612382016978 0 0.68768773896438518 0.4586835206367198 0 0.81242894672211508 0.45500248311961472 0 0.75000000000032374 0.56698729811007709 0 1 0.24999999999941069 0 1 0.37499999999904599 0 0.88173731489851925 0.33077402607778361 0 0 0.75000000000034761 0 0 0.62500000000121547 0 0.1082531754723032 0.6875000000007816 0 0.50048844149666749 0.56727788297625459 0 0.44078402250377968 0.67714785211715212 0 0.38694285807596462 0.5672991787102919 0 0.50108503093851109 0.35012252869403671 0 0.44301038174930041 0.45684931552185398 0 0.37953773393552892 0.34812185820708452 0 0.50046028868828263 0.78376912307435687 0 0.56496004948275869 0.67675037307860475 0 0.62844955668446423 0.7850749770380413 0 0.68768773896438518 0.4586835206367198 0 0.75000000000057243 0.35048094716480432 0 0.81242894672211508 0.45500248311961472 0 0.56349980387502452 0.45846841892908402 0 0.62512662990940393 0.35044303886909911 0 0.68768773896438518 0.4586835206367198 0 0.50048844149666749 0.56727788297625459 0 0.38694285807596462 0.5672991787102919 0 0.44301038174930041 0.45684931552185398 0 0.50046028868828263 0.78376912307435687 0 0.44078402250377968 0.67714785211715212 0 0.56496004948275869 0.67675037307860475 0 0.50108503093851109 0.35012252869403671 0 0.37953773393552892 0.34812185820708452 0 0.43750000000200551 0.24222777169198509 0 0.75000000000034761 1 0 0.62500000000121547 1 0 0.69010814643829166 0.89298495739101336 0 0.68768773896438518 0.4586835206367198 0 0.62512662990940393 0.35044303886909911 0 0.75000000000057243 0.35048094716480432 0 0.56496004948275869 0.67675037307860475 0 0.44078402250377968 0.67714785211715212 0 0.50048844149666749 0.56727788297625459 0 0.56349980387502452 0.45846841892908402 0 0.44301038174930041 0.45684931552185398 0 0.50108503093851109 0.35012252869403671 0 0.50048844149666749 0.56727788297625459 0 0.44301038174930041 0.45684931552185398 0 0.56349980387502452 0.45846841892908402 0 0.56349980387502452 0.45846841892908402 0 0.50108503093851109 0.35012252869403671 0 0.62512662990940393 0.35044303886909911 0 0.43750000000200551 0.24222777169198509 0 0.37953773393552892 0.34812185820708452 0 0.31411863959822661 0.24965544328045999 0 0.56496004948275869 0.67675037307860475 0 0.50048844149666749 0.56727788297625459 0 0.62752533658682441 0.56838075195614346 0 0.56349980387502452 0.45846841892908402 0 0.68768773896438518 0.4586835206367198 0 0.62752533658682441 0.56838075195614346 0 0.50048844149666749 0.56727788297625459 0 0.56349980387502452 0.45846841892908402 0 0.62752533658682441 0.56838075195614346 0 0.75000000000057243 0.35048094716480432 0 0.62512662990940393 0.35044303886909911 0 0.68668231842078242 0.24762892664808989 0 0.50108503093851109 0.35012252869403671 0 0.43750000000200551 0.24222777169198509 0 0.56250000000143974 0.2422277716920859 0 0.62512662990940393 0.35044303886909911 0 0.50108503093851109 0.35012252869403671 0 0.56250000000143974 0.2422277716920859 0 0.68668231842078242 0.24762892664808989 0 0.62512662990940393 0.35044303886909911 0 0.56250000000143974 0.2422277716920859 0 0.22257735880419699 0.47344721641341742 0 0.24418615484441761 0.35773612382016978 0 0.32815957677880009 0.4577243358118348 0 0.12076953676380731 0.18690935762408761 0 0.19185372118111221 0.092925648673580788 0 0.25103557339309318 0.17464499738446629 0 0.20767261601459541 0.25628918442207171 0 0.12076953676380731 0.18690935762408761 0 0.25103557339309318 0.17464499738446629 0 0 0.87499999999950151 0 0 0.75000000000034761 0 0.10409951422139101 0.81206782209691231 0 0.1249999999997731 0 0 0.24999999999941069 0 0 0.19185372118111221 0.092925648673580788 0 1 0.1249999999997731 0 1 0.24999999999941069 0 0.89658421694297741 0.1933620068391701 0 0.88927506082488361 0.56409486310635837 0 0.81242894672211508 0.45500248311961472 0 0.915464298762109 0.43749999999886913 0 0.87499999999950151 1 0 0.75000000000034761 1 0 0.80886664387416207 0.89717308644237903 0 0.75000000000034761 1 0 0.69010814643829166 0.89298495739101336 0 0.80886664387416207 0.89717308644237903 0 0.82212678063041267 0.67678595194836966 0 0.88927506082488361 0.56409486310635837 0 0.92266244547590082 0.68749999999917555 0 0 0.75000000000034761 0 0.1082531754723032 0.6875000000007816 0 0.10409951422139101 0.81206782209691231 0 0.24999999999941069 0 0 0.31281086598417152 0.10449318608631281 0 0.19185372118111221 0.092925648673580788 0 1 0.24999999999941069 0 0.88173731489851925 0.33077402607778361 0 0.89658421694297741 0.1933620068391701 0 0.32815957677880009 0.4577243358118348 0 0.38694285807596462 0.5672991787102919 0 0.26982811998763367 0.56544650815856912 0 0.76243180583607129 0.78687675331113149 0 0.89051480781310632 0.79665793440246835 0 0.80886664387416207 0.89717308644237903 0 0.38694285807596462 0.5672991787102919 0 0.44078402250377968 0.67714785211715212 0 0.32607333794064219 0.67760114260606152 0 0.37776173212361452 0.78514649317305008 0 0.23533274979922561 0.77093399389351469 0 0.32607333794064219 0.67760114260606152 0 1 0.49999999999869221 0 0.88927506082488361 0.56409486310635837 0 0.915464298762109 0.43749999999886913 0 0.88173731489851925 0.33077402607778361 0 1 0.37499999999904599 0 0.915464298762109 0.43749999999886913 0 0.24418615484441761 0.35773612382016978 0 0.37953773393552892 0.34812185820708452 0 0.32815957677880009 0.4577243358118348 0 0.44301038174930041 0.45684931552185398 0 0.38694285807596462 0.5672991787102919 0 0.32815957677880009 0.4577243358118348 0 0.88927506082488361 0.56409486310635837 0 1 0.62499999999901068 0 0.92266244547590082 0.68749999999917555 0 1 0.74999999999934042 0 0.89051480781310632 0.79665793440246835 0 0.92266244547590082 0.68749999999917555 0 0 1 0 0 0.87499999999950151 0 0.091506350946494744 0.90849364905351082 0 1 1 0 0.87499999999950151 1 0 0.90849364905363228 0.90849364905367769 0 0 0 0 0.1249999999997731 0 0 0.091506350946417708 0.091506350946618076 0 0 0.12500000000052089 0 0 0 0 0.091506350946417708 0.091506350946618076 0 1 0 0 1 0.1249999999997731 0 0.90849364905355434 0.091506350946296292 0 0.87499999999967015 0 0 1 0 0 0.90849364905355434 0.091506350946296292 0 0.12500000000052089 1 0 0 1 0 0.091506350946494744 0.90849364905351082 0 1 0.87499999999967015 0 1 1 0 0.90849364905363228 0.90849364905367769 0 0.38694285807596462 0.5672991787102919 0 0.32607333794064219 0.67760114260606152 0 0.26982811998763367 0.56544650815856912 0 0.31411863959822661 0.24965544328045999 0 0.24418615484441761 0.35773612382016978 0 0.20767261601459541 0.25628918442207171 0 0.1082531754734323 0.31250000000117473 0 0.12076953676380731 0.18690935762408761 0 0.20767261601459541 0.25628918442207171 0 0.75000000000057243 0.35048094716480432 0 0.68668231842078242 0.24762892664808989 0 0.79891106056046712 0.25007334953587562 0 0.22257735880419699 0.47344721641341742 0 0.32815957677880009 0.4577243358118348 0 0.26982811998763367 0.56544650815856912 0 0.44078402250377968 0.67714785211715212 0 0.37776173212361452 0.78514649317305008 0 0.32607333794064219 0.67760114260606152 0 0.89658421694297741 0.1933620068391701 0 0.88173731489851925 0.33077402607778361 0 0.79891106056046712 0.25007334953587562 0 1 0.37499999999904599 0 1 0.49999999999869221 0 0.915464298762109 0.43749999999886913 0 0.37953773393552892 0.34812185820708452 0 0.44301038174930041 0.45684931552185398 0 0.32815957677880009 0.4577243358118348 0 0.32607333794064219 0.67760114260606152 0 0.21809253452218619 0.65480892822618109 0 0.26982811998763367 0.56544650815856912 0 1 0.1249999999997731 0 0.89658421694297741 0.1933620068391701 0 0.90849364905355434 0.091506350946296292 0 0 0.87499999999950151 0 0.10409951422139101 0.81206782209691231 0 0.091506350946494744 0.90849364905351082 0 0.1249999999997731 0 0 0.19185372118111221 0.092925648673580788 0 0.091506350946417708 0.091506350946618076 0 1 0.62499999999901068 0 1 0.74999999999934042 0 0.92266244547590082 0.68749999999917555 0 0.18802967116092181 0.89415349436770275 0 0.12500000000052089 1 0 0.091506350946494744 0.90849364905351082 0 0.89051480781310632 0.79665793440246835 0 1 0.87499999999967015 0 0.90849364905363228 0.90849364905367769 0 0.12076953676380731 0.18690935762408761 0 0 0.12500000000052089 0 0.091506350946417708 0.091506350946618076 0 0.81249999999950517 0.1082531754733404 0 0.87499999999967015 0 0 0.90849364905355434 0.091506350946296292 0 0.87499999999950151 1 0 0.80886664387416207 0.89717308644237903 0 0.90849364905363228 0.90849364905367769 0 0.68668231842078242 0.24762892664808989 0 0.62499999999892575 0.17524047358135519 0 0.73983916756365475 0.17530677078674589 0 0.31281086598417152 0.10449318608631281 0 0.43749999999910871 0.1082531754729984 0 0.37500000000232431 0.17524047358384309 0 0.62499999999892575 0.17524047358135519 0 0.56250000000143974 0.2422277716920859 0 0.49999999999934441 0.1752404735815076 0 0.56249999999885147 0.1082531754730395 0 0.68749999999926592 0.1082531754732875 0 0.62499999999892575 0.17524047358135519 0 0.56249999999885147 0.1082531754730395 0 0.62499999999892575 0.17524047358135519 0 0.49999999999934441 0.1752404735815076 0 0.56250000000143974 0.2422277716920859 0 0.43750000000200551 0.24222777169198509 0 0.49999999999934441 0.1752404735815076 0 0.43749999999910871 0.1082531754729984 0 0.56249999999885147 0.1082531754730395 0 0.49999999999934441 0.1752404735815076 0 0.68668231842078242 0.24762892664808989 0 0.56250000000143974 0.2422277716920859 0 0.62499999999892575 0.17524047358135519 0 0.43750000000200551 0.24222777169198509 0 0.31411863959822661 0.24965544328045999 0 0.37500000000232431 0.17524047358384309 0 0.49999999999934441 0.1752404735815076 0 0.43750000000200551 0.24222777169198509 0 0.37500000000232431 0.17524047358384309 0 0.43749999999910871 0.1082531754729984 0 0.49999999999934441 0.1752404735815076 0 0.37500000000232431 0.17524047358384309 0 0.62499999999892575 0.17524047358135519 0 0.68749999999926592 0.1082531754732875 0 0.73983916756365475 0.17530677078674589 0 0.68749999999926592 0.1082531754732875 0 0.81249999999950517 0.1082531754733404 0 0.73983916756365475 0.17530677078674589 0 0.10409951422139101 0.81206782209691231 0 0.18802967116092181 0.89415349436770275 0 0.091506350946494744 0.90849364905351082 0 0.89658421694297741 0.1933620068391701 0 0.81249999999950517 0.1082531754733404 0 0.90849364905355434 0.091506350946296292 0 0.19185372118111221 0.092925648673580788 0 0.12076953676380731 0.18690935762408761 0 0.091506350946417708 0.091506350946618076 0 0.37500000000232431 0.17524047358384309 0 0.31411863959822661 0.24965544328045999 0 0.25103557339309318 0.17464499738446629 0 0.31281086598417152 0.10449318608631281 0 0.37500000000232431 0.17524047358384309 0 0.25103557339309318 0.17464499738446629 0 0.80886664387416207 0.89717308644237903 0 0.89051480781310632 0.79665793440246835 0 0.90849364905363228 0.90849364905367769 0 0.19185372118111221 0.092925648673580788 0 0.31281086598417152 0.10449318608631281 0 0.25103557339309318 0.17464499738446629 0 0.79891106056046712 0.25007334953587562 0 0.68668231842078242 0.24762892664808989 0 0.73983916756365475 0.17530677078674589 0 0.31411863959822661 0.24965544328045999 0 0.20767261601459541 0.25628918442207171 0 0.25103557339309318 0.17464499738446629 0 

        </DataArray>

      </Points>

      <Cells>

        <DataArray type="Int32" Name="connectivity" format="ascii">

0 1 2 3 4 5 6 7 8 9 10 11 12 13 14 15 16 17 18 19 20 21 22 23 24 25 26 27 28 29 30 31 32 33 34 35 36 37 38 39 40 41 42 43 44 45 46 47 48 49 50 51 52 53 54 55 56 57 58 59 60 61 62 63 64 65 66 67 68 69 70 71 72 73 74 75 76 77 78 79 80 81 82 83 84 85 86 87 88 89 90 91 92 93 94 95 96 97 98 99 100 101 102 103 104 105 106 107 108 109 110 111 112 113 114 115 116 117 118 119 120 121 122 123 124 125 126 127 128 129 130 131 132 133 134 135 136 137 138 139 140 141 142 143 144 145 146 147 148 149 150 151 152 153 154 155 156 157 158 159 160 161 162 163 164 165 166 167 168 169 170 171 172 173 174 175 176 177 178 179 180 181 182 183 184 185 186 187 188 189 190 191 192 193 194 195 196 197 198 199 200 201 202 203 204 205 206 207 208 209 210 211 212 213 214 215 216 217 218 219 220 221 222 223 224 225 226 227 228 229 230 231 232 233 234 235 236 237 238 239 240 241 242 243 244 245 246 247 248 249 250 251 252 253 254 255 256 257 258 259 260 261 262 263 264 265 266 267 268 269 270 271 272 273 274 275 276 277 278 279 280 281 282 283 284 285 286 287 288 289 290 291 292 293 294 295 296 297 298 299 300 301 302 303 304 305 306 307 308 309 310 311 312 313 314 315 316 317 318 319 320 321 322 323 324 325 326 327 328 329 330 331 332 333 334 335 336 337 338 339 340 341 342 343 344 345 346 347 348 349 350 351 352 353 354 355 356 357 358 359 360 361 362 363 364 365 366 367 368 369 370 371 372 373 374 375 376 377 378 379 380 381 382 383 384 385 386 387 388 389 390 391 392 393 394 395 396 397 398 399 400 401 402 403 404 405 406 407 408 409 410 411 412 413 414 415 416 417 418 419 420 421 422 423 424 425 426 427 428 429 430 431 432 433 434 435 436 437 438 439 440 441 442 443 444 445 446 447 448 449 450 451 452 453 454 455 456 457 458 459 460 461 462 463 464 465 466 467 468 469 470 471 472 473 474 475 476 477 478 479 480 481 482 483 484 485 

        </DataArray>

        <DataArray type="Int32" Name="offsets" format="ascii">

3 6 9 12 15 18 21 24 27 30 33 36 39 42 45 48 51 54 57 60 63 66 69 72 75 78 81 84 87 90 93 96 99 102 105 108 111 114 117 120 123 126 129 132 135 138 141 144 147 150 153 156 159 162 165 168 171 174 177 180 183 186 189 192 195 198 201 204 207 210 213 216 219 222 225 228 231 234 237 240 243 246 249 252 255 258 261 264 267 270 273 276 279 282 285 288 291 294 297 300 303 306 309 312 315 318 321 324 327 330 333 336 339 342 345 348 351 354 357 360 363 366 369 372 375 378 381 384 387 390 393 396 399 402 405 408 411 414 417 420 423 426 429 432 435 438 441 444 447 450 453 456 459 462 465 468 471 474 477 480 483 486 

        </DataArray>

        <DataArray type="Int32" Name="types" format="ascii">

5 5 5 5 5 5 5 5 5 5 5 5 5 5 5 5 5 5 5 5 5 5 5 5 5 5 5 5 5 5 5 5 5 5 5 5 5 5 5 5 5 5 5 5 5 5 5 5 5 5 5 5 5 5 5 5 5 5 5 5 5 5 5 5 5 5 5 5 5 5 5 5 5 5 5 5 5 5 5 5 5 5 5 5 5 5 5 5 5 5 5 5 5 5 5 5 5 5 5 5 5 5 5 5 5 5 5 5 5 5 5 5 5 5 5 5 5 5 5 5 5 5 5 5 5 5 5 5 5 5 5 5 5 5 5 5 5 5 5 5 5 5 5 5 5 5 5 5 5 5 5 5 5 5 5 5 5 5 5 5 5 5 

        </DataArray>

      </Cells>

    </Piece>

  </UnstructuredGrid>

</VTKFile>

