<?xml version="1.0"?>

<VTKFile type="UnstructuredGrid" version="0.1">

  <UnstructuredGrid>

    <Piece NumberOfPoints="486" NumberOfCells="162">

      <PointData>

        <DataArray type="Float64" Name="K" format="ascii">

1.08052346444046776e+00
1.08052346444046776e+00
1.08052346444046776e+00
1.09672383684013530e+00
1.09672383684013530e+00
1.09672383684013530e+00
9.60688972936483920e-01
9.60688972936483920e-01
9.60688972936483920e-01
1.03321142503835017e+00
1.03321142503835017e+00
1.03321142503835017e+00
1.00040917440869248e+00
1.00040917440869248e+00
1.00040917440869248e+00
1.01873999497026269e+00
1.01873999497026269e+00
1.01873999497026269e+00
1.03982132944468830e+00
1.03982132944468830e+00
1.03982132944468830e+00
9.91139180690913446e-01
9.91139180690913446e-01
9.91139180690913446e-01
1.01715915109404254e+00
1.01715915109404254e+00
1.01715915109404254e+00
9.92097071164031674e-01
9.92097071164031674e-01
9.92097071164031674e-01
1.01767651572709750e+00
1.01767651572709750e+00
1.01767651572709750e+00
1.07758653368263579e+00
1.07758653368263579e+00
1.07758653368263579e+00
9.74252214088635937e-01
9.74252214088635937e-01
9.74252214088635937e-01
9.82033662309169109e-01
9.82033662309169109e-01
9.82033662309169109e-01
9.95720762766780343e-01
9.95720762766780343e-01
9.95720762766780343e-01
9.96781169462138350e-01
9.96781169462138350e-01
9.96781169462138350e-01
1.05685142664521026e+00
1.05685142664521026e+00
1.05685142664521026e+00
1.03640604011585902e+00
1.03640604011585902e+00
1.03640604011585902e+00
9.84005173266971456e-01
9.84005173266971456e-01
9.84005173266971456e-01
9.94994717931471984e-01
9.94994717931471984e-01
9.94994717931471984e-01
1.06874483940235154e+00
1.06874483940235154e+00
1.06874483940235154e+00
1.09169035392321834e+00
1.09169035392321834e+00
1.09169035392321834e+00
9.42962164883705656e-01
9.42962164883705656e-01
9.42962164883705656e-01
1.06068871145782073e+00
1.06068871145782073e+00
1.06068871145782073e+00
9.72913403068893734e-01
9.72913403068893734e-01
9.72913403068893734e-01
1.08274406578150439e+00
1.08274406578150439e+00
1.08274406578150439e+00
1.08621179849180738e+00
1.08621179849180738e+00
1.08621179849180738e+00
1.09233605454031246e+00
1.09233605454031246e+00
1.09233605454031246e+00
1.09658591528964577e+00
1.09658591528964577e+00
1.09658591528964577e+00
9.83414682050197109e-01
9.83414682050197109e-01
9.83414682050197109e-01
1.01872076738484751e+00
1.01872076738484751e+00
1.01872076738484751e+00
1.04071295451220491e+00
1.04071295451220491e+00
1.04071295451220491e+00
1.03621580066891816e+00
1.03621580066891816e+00
1.03621580066891816e+00
9.45460447528621906e-01
9.45460447528621906e-01
9.45460447528621906e-01
1.02715028086008808e+00
1.02715028086008808e+00
1.02715028086008808e+00
1.05758825421946367e+00
1.05758825421946367e+00
1.05758825421946367e+00
9.68546023208787910e-01
9.68546023208787910e-01
9.68546023208787910e-01
1.02461203532690193e+00
1.02461203532690193e+00
1.02461203532690193e+00
1.04211554887311930e+00
1.04211554887311930e+00
1.04211554887311930e+00
1.03849908169838945e+00
1.03849908169838945e+00
1.03849908169838945e+00
1.01996082708572255e+00
1.01996082708572255e+00
1.01996082708572255e+00
1.05900717741135741e+00
1.05900717741135741e+00
1.05900717741135741e+00
9.92387220261305325e-01
9.92387220261305325e-01
9.92387220261305325e-01
9.29986190032622506e-01
9.29986190032622506e-01
9.29986190032622506e-01
1.05917459126502944e+00
1.05917459126502944e+00
1.05917459126502944e+00
1.03672282288507889e+00
1.03672282288507889e+00
1.03672282288507889e+00
1.04010667539957691e+00
1.04010667539957691e+00
1.04010667539957691e+00
1.00018549887119645e+00
1.00018549887119645e+00
1.00018549887119645e+00
1.02117495519570389e+00
1.02117495519570389e+00
1.02117495519570389e+00
9.30537752251108907e-01
9.30537752251108907e-01
9.30537752251108907e-01
1.05396882037609951e+00
1.05396882037609951e+00
1.05396882037609951e+00
1.00964137045208280e+00
1.00964137045208280e+00
1.00964137045208280e+00
1.06148482642877084e+00
1.06148482642877084e+00
1.06148482642877084e+00
1.03476849063236287e+00
1.03476849063236287e+00
1.03476849063236287e+00
1.01466645860151727e+00
1.01466645860151727e+00
1.01466645860151727e+00
1.00739105826066044e+00
1.00739105826066044e+00
1.00739105826066044e+00
1.06471050626279529e+00
1.06471050626279529e+00
1.06471050626279529e+00
1.04570365413936095e+00
1.04570365413936095e+00
1.04570365413936095e+00
1.01682222291513780e+00
1.01682222291513780e+00
1.01682222291513780e+00
9.49134436194939424e-01
9.49134436194939424e-01
9.49134436194939424e-01
1.05300405445445988e+00
1.05300405445445988e+00
1.05300405445445988e+00
9.90691139332305348e-01
9.90691139332305348e-01
9.90691139332305348e-01
1.02558930590329322e+00
1.02558930590329322e+00
1.02558930590329322e+00
1.00056502710265427e+00
1.00056502710265427e+00
1.00056502710265427e+00
9.61056067457370600e-01
9.61056067457370600e-01
9.61056067457370600e-01
9.95893829236647599e-01
9.95893829236647599e-01
9.95893829236647599e-01
1.02820407244274037e+00
1.02820407244274037e+00
1.02820407244274037e+00
1.07212255604190299e+00
1.07212255604190299e+00
1.07212255604190299e+00
1.03054233694295294e+00
1.03054233694295294e+00
1.03054233694295294e+00
1.00250875007529205e+00
1.00250875007529205e+00
1.00250875007529205e+00
1.00060256367562395e+00
1.00060256367562395e+00
1.00060256367562395e+00
1.02433300870828892e+00
1.02433300870828892e+00
1.02433300870828892e+00
1.05090082885164815e+00
1.05090082885164815e+00
1.05090082885164815e+00
1.02461510004545708e+00
1.02461510004545708e+00
1.02461510004545708e+00
1.01051924306203311e+00
1.01051924306203311e+00
1.01051924306203311e+00
9.96590605783670536e-01
9.96590605783670536e-01
9.96590605783670536e-01
1.04539467835988842e+00
1.04539467835988842e+00
1.04539467835988842e+00
1.05213108846204828e+00
1.05213108846204828e+00
1.05213108846204828e+00
1.01869691416919950e+00
1.01869691416919950e+00
1.01869691416919950e+00
1.02888441803628927e+00
1.02888441803628927e+00
1.02888441803628927e+00
1.02929845195642855e+00
1.02929845195642855e+00
1.02929845195642855e+00
1.05092508029685483e+00
1.05092508029685483e+00
1.05092508029685483e+00
9.69788262561173564e-01
9.69788262561173564e-01
9.69788262561173564e-01
1.01535081411360539e+00
1.01535081411360539e+00
1.01535081411360539e+00
1.03038385558385026e+00
1.03038385558385026e+00
1.03038385558385026e+00
1.02990422394898817e+00
1.02990422394898817e+00
1.02990422394898817e+00
1.07205200855378568e+00
1.07205200855378568e+00
1.07205200855378568e+00
1.02937022049351157e+00
1.02937022049351157e+00
1.02937022049351157e+00
1.05574059483793303e+00
1.05574059483793303e+00
1.05574059483793303e+00
1.07355893451190831e+00
1.07355893451190831e+00
1.07355893451190831e+00
1.00927396202718267e+00
1.00927396202718267e+00
1.00927396202718267e+00
9.52519010964270829e-01
9.52519010964270829e-01
9.52519010964270829e-01
9.37272495662724525e-01
9.37272495662724525e-01
9.37272495662724525e-01
1.04795071962913977e+00
1.04795071962913977e+00
1.04795071962913977e+00
1.00432197601088236e+00
1.00432197601088236e+00
1.00432197601088236e+00
1.04244080117634286e+00
1.04244080117634286e+00
1.04244080117634286e+00
9.96472456325274702e-01
9.96472456325274702e-01
9.96472456325274702e-01
1.00547639526525812e+00
1.00547639526525812e+00
1.00547639526525812e+00
1.02820878298313345e+00
1.02820878298313345e+00
1.02820878298313345e+00
9.84581203938552529e-01
9.84581203938552529e-01
9.84581203938552529e-01
1.07358433289629951e+00
1.07358433289629951e+00
1.07358433289629951e+00
9.79664578761397120e-01
9.79664578761397120e-01
9.79664578761397120e-01
1.04966126405005178e+00
1.04966126405005178e+00
1.04966126405005178e+00
1.04352135865528672e+00
1.04352135865528672e+00
1.04352135865528672e+00
1.00289008524710255e+00
1.00289008524710255e+00
1.00289008524710255e+00
1.04918760464267269e+00
1.04918760464267269e+00
1.04918760464267269e+00
1.07527645389142967e+00
1.07527645389142967e+00
1.07527645389142967e+00
9.96914951591018950e-01
9.96914951591018950e-01
9.96914951591018950e-01
1.02075460800041040e+00
1.02075460800041040e+00
1.02075460800041040e+00
9.85490961371723206e-01
9.85490961371723206e-01
9.85490961371723206e-01
1.01897409747385748e+00
1.01897409747385748e+00
1.01897409747385748e+00
9.92867216950860221e-01
9.92867216950860221e-01
9.92867216950860221e-01
1.00556742392487974e+00
1.00556742392487974e+00
1.00556742392487974e+00
1.00139450600210944e+00
1.00139450600210944e+00
1.00139450600210944e+00
9.92478885416895551e-01
9.92478885416895551e-01
9.92478885416895551e-01
1.01134797177479441e+00
1.01134797177479441e+00
1.01134797177479441e+00
9.93241949648301370e-01
9.93241949648301370e-01
9.93241949648301370e-01
1.03435688805845216e+00
1.03435688805845216e+00
1.03435688805845216e+00
1.03748258526921888e+00
1.03748258526921888e+00
1.03748258526921888e+00
9.91129475407214744e-01
9.91129475407214744e-01
9.91129475407214744e-01
1.00888748102519532e+00
1.00888748102519532e+00
1.00888748102519532e+00
1.06495326914066668e+00
1.06495326914066668e+00
1.06495326914066668e+00
9.46228645349429964e-01
9.46228645349429964e-01
9.46228645349429964e-01
9.30700908716007413e-01
9.30700908716007413e-01
9.30700908716007413e-01
1.07596231993763691e+00
1.07596231993763691e+00
1.07596231993763691e+00
1.04487975938024436e+00
1.04487975938024436e+00
1.04487975938024436e+00
1.05164559175104344e+00
1.05164559175104344e+00
1.05164559175104344e+00
1.06816364808077635e+00
1.06816364808077635e+00
1.06816364808077635e+00
1.00294120283134935e+00
1.00294120283134935e+00
1.00294120283134935e+00
9.97180176052779643e-01
9.97180176052779643e-01
9.97180176052779643e-01
1.08875883950416474e+00
1.08875883950416474e+00
1.08875883950416474e+00
1.05322584079355641e+00
1.05322584079355641e+00
1.05322584079355641e+00
1.02849069941794724e+00
1.02849069941794724e+00
1.02849069941794724e+00
9.98945182223414441e-01
9.98945182223414441e-01
9.98945182223414441e-01
1.00361084784684396e+00
1.00361084784684396e+00
1.00361084784684396e+00
1.00891388764039536e+00
1.00891388764039536e+00
1.00891388764039536e+00
1.01123592836477649e+00
1.01123592836477649e+00
1.01123592836477649e+00
9.68082134625900204e-01
9.68082134625900204e-01
9.68082134625900204e-01
1.06104230541777023e+00
1.06104230541777023e+00
1.06104230541777023e+00
9.99096769266677676e-01
9.99096769266677676e-01
9.99096769266677676e-01
1.08064449001730112e+00
1.08064449001730112e+00
1.08064449001730112e+00
9.86439840458805839e-01
9.86439840458805839e-01
9.86439840458805839e-01
1.06094983102284246e+00
1.06094983102284246e+00
1.06094983102284246e+00
1.06789670065561482e+00
1.06789670065561482e+00
1.06789670065561482e+00
1.06251397597691288e+00
1.06251397597691288e+00
1.06251397597691288e+00
1.03494127403786873e+00
1.03494127403786873e+00
1.03494127403786873e+00
1.04758607165242879e+00
1.04758607165242879e+00
1.04758607165242879e+00
1.07449649817260151e+00
1.07449649817260151e+00
1.07449649817260151e+00
9.70657784589283423e-01
9.70657784589283423e-01
9.70657784589283423e-01
1.00573805768666724e+00
1.00573805768666724e+00
1.00573805768666724e+00
1.01435879041528665e+00
1.01435879041528665e+00
1.01435879041528665e+00
1.07533883187058077e+00
1.07533883187058077e+00
1.07533883187058077e+00
1.07757245917032285e+00
1.07757245917032285e+00
1.07757245917032285e+00
1.03069478307336859e+00
1.03069478307336859e+00
1.03069478307336859e+00
1.07298873163563702e+00
1.07298873163563702e+00
1.07298873163563702e+00
9.69523364707264856e-01
9.69523364707264856e-01
9.69523364707264856e-01
9.50458696933948022e-01
9.50458696933948022e-01
9.50458696933948022e-01
9.58003127842675495e-01
9.58003127842675495e-01
9.58003127842675495e-01
1.00367885886500363e+00
1.00367885886500363e+00
1.00367885886500363e+00
9.58137723732958246e-01
9.58137723732958246e-01
9.58137723732958246e-01
1.08476246376844476e+00
1.08476246376844476e+00
1.08476246376844476e+00
9.39251248229820535e-01
9.39251248229820535e-01
9.39251248229820535e-01


        </DataArray>

      </PointData>

      <CellData/>

      <Points>

        <DataArray type="Float64" NumberOfComponents="3" format="ascii">

0.1082531754723032 0.6875000000007816 0 0.23533274979922561 0.77093399389351469 0 0.10409951422139101 0.81206782209691231 0 0.23533274979922561 0.77093399389351469 0 0.1082531754723032 0.6875000000007816 0 0.21809253452218619 0.65480892822618109 0 0.24418615484441761 0.35773612382016978 0 0.121259140952891 0.43112117036853742 0 0.1082531754734323 0.31250000000117473 0 0.75000000000057243 0.35048094716480432 0 0.88173731489851925 0.33077402607778361 0 0.81242894672211508 0.45500248311961472 0 0.121259140952891 0.43112117036853742 0 0.24418615484441761 0.35773612382016978 0 0.22257735880419699 0.47344721641341742 0 0.81242894672211508 0.45500248311961472 0 0.88173731489851925 0.33077402607778361 0 0.915464298762109 0.43749999999886913 0 0 0.62500000000121547 0 0 0.50000000000206146 0 0.1371230538040123 0.56179824718362847 0 0.82212678063041267 0.67678595194836966 0 0.89051480781310632 0.79665793440246835 0 0.76243180583607129 0.78687675331113149 0 0.76243180583607129 0.78687675331113149 0 0.69010814643829166 0.89298495739101336 0 0.62844955668446423 0.7850749770380413 0 0.89051480781310632 0.79665793440246835 0 0.82212678063041267 0.67678595194836966 0 0.92266244547590082 0.68749999999917555 0 0 0.50000000000206146 0 0.121259140952891 0.43112117036853742 0 0.1371230538040123 0.56179824718362847 0 0.1082531754723032 0.6875000000007816 0 0 0.62500000000121547 0 0.1371230538040123 0.56179824718362847 0 0.75000000000032374 0.56698729811007709 0 0.88927506082488361 0.56409486310635837 0 0.82212678063041267 0.67678595194836966 0 0.81242894672211508 0.45500248311961472 0 0.88927506082488361 0.56409486310635837 0 0.75000000000032374 0.56698729811007709 0 0.69851598570178741 0.68211701800612057 0 0.56496004948275869 0.67675037307860475 0 0.62752533658682441 0.56838075195614346 0 0.69851598570178741 0.68211701800612057 0 0.76243180583607129 0.78687675331113149 0 0.62844955668446423 0.7850749770380413 0 0.23533274979922561 0.77093399389351469 0 0.18802967116092181 0.89415349436770275 0 0.10409951422139101 0.81206782209691231 0 0.121259140952891 0.43112117036853742 0 0.22257735880419699 0.47344721641341742 0 0.1371230538040123 0.56179824718362847 0 0.75000000000032374 0.56698729811007709 0 0.69851598570178741 0.68211701800612057 0 0.62752533658682441 0.56838075195614346 0 0.56496004948275869 0.67675037307860475 0 0.69851598570178741 0.68211701800612057 0 0.62844955668446423 0.7850749770380413 0 0.1371230538040123 0.56179824718362847 0 0.22257735880419699 0.47344721641341742 0 0.26982811998763367 0.56544650815856912 0 0.21809253452218619 0.65480892822618109 0 0.1371230538040123 0.56179824718362847 0 0.26982811998763367 0.56544650815856912 0 0.24418615484441761 0.35773612382016978 0 0.1082531754734323 0.31250000000117473 0 0.20767261601459541 0.25628918442207171 0 0.88173731489851925 0.33077402607778361 0 0.75000000000057243 0.35048094716480432 0 0.79891106056046712 0.25007334953587562 0 0.75000000000032374 0.56698729811007709 0 0.82212678063041267 0.67678595194836966 0 0.69851598570178741 0.68211701800612057 0 0.81249999999950517 0.1082531754733404 0 0.89658421694297741 0.1933620068391701 0 0.79891106056046712 0.25007334953587562 0 0.81249999999950517 0.1082531754733404 0 0.79891106056046712 0.25007334953587562 0 0.73983916756365475 0.17530677078674589 0 0.23533274979922561 0.77093399389351469 0 0.21809253452218619 0.65480892822618109 0 0.32607333794064219 0.67760114260606152 0 0.1082531754723032 0.6875000000007816 0 0.1371230538040123 0.56179824718362847 0 0.21809253452218619 0.65480892822618109 0 0.69851598570178741 0.68211701800612057 0 0.82212678063041267 0.67678595194836966 0 0.76243180583607129 0.78687675331113149 0 0.69010814643829166 0.89298495739101336 0 0.76243180583607129 0.78687675331113149 0 0.80886664387416207 0.89717308644237903 0 0.43750000000181222 0.89174682452709564 0 0.31258827852827581 0.89214793616708443 0 0.37776173212361452 0.78514649317305008 0 0.43750000000181222 0.89174682452709564 0 0.37500000000156292 1 0 0.31258827852827581 0.89214793616708443 0 0.121259140952891 0.43112117036853742 0 0 0.37500000000156292 0 0.1082531754734323 0.31250000000117473 0 0.50000000000206146 1 0 0.37500000000156292 1 0 0.43750000000181222 0.89174682452709564 0 0.31258827852827581 0.89214793616708443 0 0.18802967116092181 0.89415349436770275 0 0.23533274979922561 0.77093399389351469 0 0 0.50000000000206146 0 0 0.37500000000156292 0 0.121259140952891 0.43112117036853742 0 0.62844955668446423 0.7850749770380413 0 0.69010814643829166 0.89298495739101336 0 0.56327595140699671 0.89211526915426331 0 0.69010814643829166 0.89298495739101336 0 0.62500000000121547 1 0 0.56327595140699671 0.89211526915426331 0 0.25000000000104189 1 0 0.18802967116092181 0.89415349436770275 0 0.31258827852827581 0.89214793616708443 0 0.50000000000206146 1 0 0.43750000000181222 0.89174682452709564 0 0.56327595140699671 0.89211526915426331 0 0.56249999999885147 0.1082531754730395 0 0.62499999999901068 0 0 0.68749999999926592 0.1082531754732875 0 1 0.49999999999869221 0 1 0.62499999999901068 0 0.88927506082488361 0.56409486310635837 0 0 0.25000000000104189 0 0.12076953676380731 0.18690935762408761 0 0.1082531754734323 0.31250000000117473 0 0.49999999999869221 0 0 0.62499999999901068 0 0 0.56249999999885147 0.1082531754730395 0 0.62500000000121547 1 0 0.50000000000206146 1 0 0.56327595140699671 0.89211526915426331 0 0.37500000000156292 1 0 0.25000000000104189 1 0 0.31258827852827581 0.89214793616708443 0 0.31281086598417152 0.10449318608631281 0 0.37499999999904599 0 0 0.43749999999910871 0.1082531754729984 0 0.43750000000181222 0.89174682452709564 0 0.37776173212361452 0.78514649317305008 0 0.50046028868828263 0.78376912307435687 0 0 0.37500000000156292 0 0 0.25000000000104189 0 0.1082531754734323 0.31250000000117473 0 0.49999999999869221 0 0 0.56249999999885147 0.1082531754730395 0 0.43749999999910871 0.1082531754729984 0 0.43750000000181222 0.89174682452709564 0 0.50046028868828263 0.78376912307435687 0 0.56327595140699671 0.89211526915426331 0 0.74999999999934042 0 0 0.81249999999950517 0.1082531754733404 0 0.68749999999926592 0.1082531754732875 0 0.37499999999904599 0 0 0.49999999999869221 0 0 0.43749999999910871 0.1082531754729984 0 0.25000000000104189 1 0 0.12500000000052089 1 0 0.18802967116092181 0.89415349436770275 0 0.50046028868828263 0.78376912307435687 0 0.62844955668446423 0.7850749770380413 0 0.56327595140699671 0.89211526915426331 0 0.37776173212361452 0.78514649317305008 0 0.31258827852827581 0.89214793616708443 0 0.23533274979922561 0.77093399389351469 0 0.62499999999901068 0 0 0.74999999999934042 0 0 0.68749999999926592 0.1082531754732875 0 1 0.74999999999934042 0 1 0.87499999999967015 0 0.89051480781310632 0.79665793440246835 0 0 0.25000000000104189 0 0 0.12500000000052089 0 0.12076953676380731 0.18690935762408761 0 0.74999999999934042 0 0 0.87499999999967015 0 0 0.81249999999950517 0.1082531754733404 0 0.24999999999941069 0 0 0.37499999999904599 0 0 0.31281086598417152 0.10449318608631281 0 0.50046028868828263 0.78376912307435687 0 0.37776173212361452 0.78514649317305008 0 0.44078402250377968 0.67714785211715212 0 0.68768773896438518 0.4586835206367198 0 0.75000000000032374 0.56698729811007709 0 0.62752533658682441 0.56838075195614346 0 0.31411863959822661 0.24965544328045999 0 0.37953773393552892 0.34812185820708452 0 0.24418615484441761 0.35773612382016978 0 0.68768773896438518 0.4586835206367198 0 0.81242894672211508 0.45500248311961472 0 0.75000000000032374 0.56698729811007709 0 1 0.24999999999941069 0 1 0.37499999999904599 0 0.88173731489851925 0.33077402607778361 0 0 0.75000000000034761 0 0 0.62500000000121547 0 0.1082531754723032 0.6875000000007816 0 0.50048844149666749 0.56727788297625459 0 0.44078402250377968 0.67714785211715212 0 0.38694285807596462 0.5672991787102919 0 0.50108503093851109 0.35012252869403671 0 0.44301038174930041 0.45684931552185398 0 0.37953773393552892 0.34812185820708452 0 0.50046028868828263 0.78376912307435687 0 0.56496004948275869 0.67675037307860475 0 0.62844955668446423 0.7850749770380413 0 0.68768773896438518 0.4586835206367198 0 0.75000000000057243 0.35048094716480432 0 0.81242894672211508 0.45500248311961472 0 0.56349980387502452 0.45846841892908402 0 0.62512662990940393 0.35044303886909911 0 0.68768773896438518 0.4586835206367198 0 0.50048844149666749 0.56727788297625459 0 0.38694285807596462 0.5672991787102919 0 0.44301038174930041 0.45684931552185398 0 0.50046028868828263 0.78376912307435687 0 0.44078402250377968 0.67714785211715212 0 0.56496004948275869 0.67675037307860475 0 0.50108503093851109 0.35012252869403671 0 0.37953773393552892 0.34812185820708452 0 0.43750000000200551 0.24222777169198509 0 0.75000000000034761 1 0 0.62500000000121547 1 0 0.69010814643829166 0.89298495739101336 0 0.68768773896438518 0.4586835206367198 0 0.62512662990940393 0.35044303886909911 0 0.75000000000057243 0.35048094716480432 0 0.56496004948275869 0.67675037307860475 0 0.44078402250377968 0.67714785211715212 0 0.50048844149666749 0.56727788297625459 0 0.56349980387502452 0.45846841892908402 0 0.44301038174930041 0.45684931552185398 0 0.50108503093851109 0.35012252869403671 0 0.50048844149666749 0.56727788297625459 0 0.44301038174930041 0.45684931552185398 0 0.56349980387502452 0.45846841892908402 0 0.56349980387502452 0.45846841892908402 0 0.50108503093851109 0.35012252869403671 0 0.62512662990940393 0.35044303886909911 0 0.43750000000200551 0.24222777169198509 0 0.37953773393552892 0.34812185820708452 0 0.31411863959822661 0.24965544328045999 0 0.56496004948275869 0.67675037307860475 0 0.50048844149666749 0.56727788297625459 0 0.62752533658682441 0.56838075195614346 0 0.56349980387502452 0.45846841892908402 0 0.68768773896438518 0.4586835206367198 0 0.62752533658682441 0.56838075195614346 0 0.50048844149666749 0.56727788297625459 0 0.56349980387502452 0.45846841892908402 0 0.62752533658682441 0.56838075195614346 0 0.75000000000057243 0.35048094716480432 0 0.62512662990940393 0.35044303886909911 0 0.68668231842078242 0.24762892664808989 0 0.50108503093851109 0.35012252869403671 0 0.43750000000200551 0.24222777169198509 0 0.56250000000143974 0.2422277716920859 0 0.62512662990940393 0.35044303886909911 0 0.50108503093851109 0.35012252869403671 0 0.56250000000143974 0.2422277716920859 0 0.68668231842078242 0.24762892664808989 0 0.62512662990940393 0.35044303886909911 0 0.56250000000143974 0.2422277716920859 0 0.22257735880419699 0.47344721641341742 0 0.24418615484441761 0.35773612382016978 0 0.32815957677880009 0.4577243358118348 0 0.12076953676380731 0.18690935762408761 0 0.19185372118111221 0.092925648673580788 0 0.25103557339309318 0.17464499738446629 0 0.20767261601459541 0.25628918442207171 0 0.12076953676380731 0.18690935762408761 0 0.25103557339309318 0.17464499738446629 0 0 0.87499999999950151 0 0 0.75000000000034761 0 0.10409951422139101 0.81206782209691231 0 0.1249999999997731 0 0 0.24999999999941069 0 0 0.19185372118111221 0.092925648673580788 0 1 0.1249999999997731 0 1 0.24999999999941069 0 0.89658421694297741 0.1933620068391701 0 0.88927506082488361 0.56409486310635837 0 0.81242894672211508 0.45500248311961472 0 0.915464298762109 0.43749999999886913 0 0.87499999999950151 1 0 0.75000000000034761 1 0 0.80886664387416207 0.89717308644237903 0 0.75000000000034761 1 0 0.69010814643829166 0.89298495739101336 0 0.80886664387416207 0.89717308644237903 0 0.82212678063041267 0.67678595194836966 0 0.88927506082488361 0.56409486310635837 0 0.92266244547590082 0.68749999999917555 0 0 0.75000000000034761 0 0.1082531754723032 0.6875000000007816 0 0.10409951422139101 0.81206782209691231 0 0.24999999999941069 0 0 0.31281086598417152 0.10449318608631281 0 0.19185372118111221 0.092925648673580788 0 1 0.24999999999941069 0 0.88173731489851925 0.33077402607778361 0 0.89658421694297741 0.1933620068391701 0 0.32815957677880009 0.4577243358118348 0 0.38694285807596462 0.5672991787102919 0 0.26982811998763367 0.56544650815856912 0 0.76243180583607129 0.78687675331113149 0 0.89051480781310632 0.79665793440246835 0 0.80886664387416207 0.89717308644237903 0 0.38694285807596462 0.5672991787102919 0 0.44078402250377968 0.67714785211715212 0 0.32607333794064219 0.67760114260606152 0 0.37776173212361452 0.78514649317305008 0 0.23533274979922561 0.77093399389351469 0 0.32607333794064219 0.67760114260606152 0 1 0.49999999999869221 0 0.88927506082488361 0.56409486310635837 0 0.915464298762109 0.43749999999886913 0 0.88173731489851925 0.33077402607778361 0 1 0.37499999999904599 0 0.915464298762109 0.43749999999886913 0 0.24418615484441761 0.35773612382016978 0 0.37953773393552892 0.34812185820708452 0 0.32815957677880009 0.4577243358118348 0 0.44301038174930041 0.45684931552185398 0 0.38694285807596462 0.5672991787102919 0 0.32815957677880009 0.4577243358118348 0 0.88927506082488361 0.56409486310635837 0 1 0.62499999999901068 0 0.92266244547590082 0.68749999999917555 0 1 0.74999999999934042 0 0.89051480781310632 0.79665793440246835 0 0.92266244547590082 0.68749999999917555 0 0 1 0 0 0.87499999999950151 0 0.091506350946494744 0.90849364905351082 0 1 1 0 0.87499999999950151 1 0 0.90849364905363228 0.90849364905367769 0 0 0 0 0.1249999999997731 0 0 0.091506350946417708 0.091506350946618076 0 0 0.12500000000052089 0 0 0 0 0.091506350946417708 0.091506350946618076 0 1 0 0 1 0.1249999999997731 0 0.90849364905355434 0.091506350946296292 0 0.87499999999967015 0 0 1 0 0 0.90849364905355434 0.091506350946296292 0 0.12500000000052089 1 0 0 1 0 0.091506350946494744 0.90849364905351082 0 1 0.87499999999967015 0 1 1 0 0.90849364905363228 0.90849364905367769 0 0.38694285807596462 0.5672991787102919 0 0.32607333794064219 0.67760114260606152 0 0.26982811998763367 0.56544650815856912 0 0.31411863959822661 0.24965544328045999 0 0.24418615484441761 0.35773612382016978 0 0.20767261601459541 0.25628918442207171 0 0.1082531754734323 0.31250000000117473 0 0.12076953676380731 0.18690935762408761 0 0.20767261601459541 0.25628918442207171 0 0.75000000000057243 0.35048094716480432 0 0.68668231842078242 0.24762892664808989 0 0.79891106056046712 0.25007334953587562 0 0.22257735880419699 0.47344721641341742 0 0.32815957677880009 0.4577243358118348 0 0.26982811998763367 0.56544650815856912 0 0.44078402250377968 0.67714785211715212 0 0.37776173212361452 0.78514649317305008 0 0.32607333794064219 0.67760114260606152 0 0.89658421694297741 0.1933620068391701 0 0.88173731489851925 0.33077402607778361 0 0.79891106056046712 0.25007334953587562 0 1 0.37499999999904599 0 1 0.49999999999869221 0 0.915464298762109 0.43749999999886913 0 0.37953773393552892 0.34812185820708452 0 0.44301038174930041 0.45684931552185398 0 0.32815957677880009 0.4577243358118348 0 0.32607333794064219 0.67760114260606152 0 0.21809253452218619 0.65480892822618109 0 0.26982811998763367 0.56544650815856912 0 1 0.1249999999997731 0 0.89658421694297741 0.1933620068391701 0 0.90849364905355434 0.091506350946296292 0 0 0.87499999999950151 0 0.10409951422139101 0.81206782209691231 0 0.091506350946494744 0.90849364905351082 0 0.1249999999997731 0 0 0.19185372118111221 0.092925648673580788 0 0.091506350946417708 0.091506350946618076 0 1 0.62499999999901068 0 1 0.74999999999934042 0 0.92266244547590082 0.68749999999917555 0 0.18802967116092181 0.89415349436770275 0 0.12500000000052089 1 0 0.091506350946494744 0.90849364905351082 0 0.89051480781310632 0.79665793440246835 0 1 0.87499999999967015 0 0.90849364905363228 0.90849364905367769 0 0.12076953676380731 0.18690935762408761 0 0 0.12500000000052089 0 0.091506350946417708 0.091506350946618076 0 0.81249999999950517 0.1082531754733404 0 0.87499999999967015 0 0 0.90849364905355434 0.091506350946296292 0 0.87499999999950151 1 0 0.80886664387416207 0.89717308644237903 0 0.90849364905363228 0.90849364905367769 0 0.68668231842078242 0.24762892664808989 0 0.62499999999892575 0.17524047358135519 0 0.73983916756365475 0.17530677078674589 0 0.31281086598417152 0.10449318608631281 0 0.43749999999910871 0.1082531754729984 0 0.37500000000232431 0.17524047358384309 0 0.62499999999892575 0.17524047358135519 0 0.56250000000143974 0.2422277716920859 0 0.49999999999934441 0.1752404735815076 0 0.56249999999885147 0.1082531754730395 0 0.68749999999926592 0.1082531754732875 0 0.62499999999892575 0.17524047358135519 0 0.56249999999885147 0.1082531754730395 0 0.62499999999892575 0.17524047358135519 0 0.49999999999934441 0.1752404735815076 0 0.56250000000143974 0.2422277716920859 0 0.43750000000200551 0.24222777169198509 0 0.49999999999934441 0.1752404735815076 0 0.43749999999910871 0.1082531754729984 0 0.56249999999885147 0.1082531754730395 0 0.49999999999934441 0.1752404735815076 0 0.68668231842078242 0.24762892664808989 0 0.56250000000143974 0.2422277716920859 0 0.62499999999892575 0.17524047358135519 0 0.43750000000200551 0.24222777169198509 0 0.31411863959822661 0.24965544328045999 0 0.37500000000232431 0.17524047358384309 0 0.49999999999934441 0.1752404735815076 0 0.43750000000200551 0.24222777169198509 0 0.37500000000232431 0.17524047358384309 0 0.43749999999910871 0.1082531754729984 0 0.49999999999934441 0.1752404735815076 0 0.37500000000232431 0.17524047358384309 0 0.62499999999892575 0.17524047358135519 0 0.68749999999926592 0.1082531754732875 0 0.73983916756365475 0.17530677078674589 0 0.68749999999926592 0.1082531754732875 0 0.81249999999950517 0.1082531754733404 0 0.73983916756365475 0.17530677078674589 0 0.10409951422139101 0.81206782209691231 0 0.18802967116092181 0.89415349436770275 0 0.091506350946494744 0.90849364905351082 0 0.89658421694297741 0.1933620068391701 0 0.81249999999950517 0.1082531754733404 0 0.90849364905355434 0.091506350946296292 0 0.19185372118111221 0.092925648673580788 0 0.12076953676380731 0.18690935762408761 0 0.091506350946417708 0.091506350946618076 0 0.37500000000232431 0.17524047358384309 0 0.31411863959822661 0.24965544328045999 0 0.25103557339309318 0.17464499738446629 0 0.31281086598417152 0.10449318608631281 0 0.37500000000232431 0.17524047358384309 0 0.25103557339309318 0.17464499738446629 0 0.80886664387416207 0.89717308644237903 0 0.89051480781310632 0.79665793440246835 0 0.90849364905363228 0.90849364905367769 0 0.19185372118111221 0.092925648673580788 0 0.31281086598417152 0.10449318608631281 0 0.25103557339309318 0.17464499738446629 0 0.79891106056046712 0.25007334953587562 0 0.68668231842078242 0.24762892664808989 0 0.73983916756365475 0.17530677078674589 0 0.31411863959822661 0.24965544328045999 0 0.20767261601459541 0.25628918442207171 0 0.25103557339309318 0.17464499738446629 0 

        </DataArray>

      </Points>

      <Cells>

        <DataArray type="Int32" Name="connectivity" format="ascii">

0 1 2 3 4 5 6 7 8 9 10 11 12 13 14 15 16 17 18 19 20 21 22 23 24 25 26 27 28 29 30 31 32 33 34 35 36 37 38 39 40 41 42 43 44 45 46 47 48 49 50 51 52 53 54 55 56 57 58 59 60 61 62 63 64 65 66 67 68 69 70 71 72 73 74 75 76 77 78 79 80 81 82 83 84 85 86 87 88 89 90 91 92 93 94 95 96 97 98 99 100 101 102 103 104 105 106 107 108 109 110 111 112 113 114 115 116 117 118 119 120 121 122 123 124 125 126 127 128 129 130 131 132 133 134 135 136 137 138 139 140 141 142 143 144 145 146 147 148 149 150 151 152 153 154 155 156 157 158 159 160 161 162 163 164 165 166 167 168 169 170 171 172 173 174 175 176 177 178 179 180 181 182 183 184 185 186 187 188 189 190 191 192 193 194 195 196 197 198 199 200 201 202 203 204 205 206 207 208 209 210 211 212 213 214 215 216 217 218 219 220 221 222 223 224 225 226 227 228 229 230 231 232 233 234 235 236 237 238 239 240 241 242 243 244 245 246 247 248 249 250 251 252 253 254 255 256 257 258 259 260 261 262 263 264 265 266 267 268 269 270 271 272 273 274 275 276 277 278 279 280 281 282 283 284 285 286 287 288 289 290 291 292 293 294 295 296 297 298 299 300 301 302 303 304 305 306 307 308 309 310 311 312 313 314 315 316 317 318 319 320 321 322 323 324 325 326 327 328 329 330 331 332 333 334 335 336 337 338 339 340 341 342 343 344 345 346 347 348 349 350 351 352 353 354 355 356 357 358 359 360 361 362 363 364 365 366 367 368 369 370 371 372 373 374 375 376 377 378 379 380 381 382 383 384 385 386 387 388 389 390 391 392 393 394 395 396 397 398 399 400 401 402 403 404 405 406 407 408 409 410 411 412 413 414 415 416 417 418 419 420 421 422 423 424 425 426 427 428 429 430 431 432 433 434 435 436 437 438 439 440 441 442 443 444 445 446 447 448 449 450 451 452 453 454 455 456 457 458 459 460 461 462 463 464 465 466 467 468 469 470 471 472 473 474 475 476 477 478 479 480 481 482 483 484 485 

        </DataArray>

        <DataArray type="Int32" Name="offsets" format="ascii">

3 6 9 12 15 18 21 24 27 30 33 36 39 42 45 48 51 54 57 60 63 66 69 72 75 78 81 84 87 90 93 96 99 102 105 108 111 114 117 120 123 126 129 132 135 138 141 144 147 150 153 156 159 162 165 168 171 174 177 180 183 186 189 192 195 198 201 204 207 210 213 216 219 222 225 228 231 234 237 240 243 246 249 252 255 258 261 264 267 270 273 276 279 282 285 288 291 294 297 300 303 306 309 312 315 318 321 324 327 330 333 336 339 342 345 348 351 354 357 360 363 366 369 372 375 378 381 384 387 390 393 396 399 402 405 408 411 414 417 420 423 426 429 432 435 438 441 444 447 450 453 456 459 462 465 468 471 474 477 480 483 486 

        </DataArray>

        <DataArray type="Int32" Name="types" format="ascii">

5 5 5 5 5 5 5 5 5 5 5 5 5 5 5 5 5 5 5 5 5 5 5 5 5 5 5 5 5 5 5 5 5 5 5 5 5 5 5 5 5 5 5 5 5 5 5 5 5 5 5 5 5 5 5 5 5 5 5 5 5 5 5 5 5 5 5 5 5 5 5 5 5 5 5 5 5 5 5 5 5 5 5 5 5 5 5 5 5 5 5 5 5 5 5 5 5 5 5 5 5 5 5 5 5 5 5 5 5 5 5 5 5 5 5 5 5 5 5 5 5 5 5 5 5 5 5 5 5 5 5 5 5 5 5 5 5 5 5 5 5 5 5 5 5 5 5 5 5 5 5 5 5 5 5 5 5 5 5 5 5 5 

        </DataArray>

      </Cells>

    </Piece>

  </UnstructuredGrid>

</VTKFile>

