<?xml version="1.0"?>

<VTKFile type="UnstructuredGrid" version="0.1">

  <UnstructuredGrid>

    <Piece NumberOfPoints="486" NumberOfCells="162">

      <PointData>

        <DataArray type="Float64" Name="K" format="ascii">

9.83742019356654174e-01
9.83742019356654174e-01
9.83742019356654174e-01
9.71851424576831380e-01
9.71851424576831380e-01
9.71851424576831380e-01
9.75767456136787059e-01
9.75767456136787059e-01
9.75767456136787059e-01
9.64960711445731256e-01
9.64960711445731256e-01
9.64960711445731256e-01
9.75588461319432665e-01
9.75588461319432665e-01
9.75588461319432665e-01
9.93335229966986533e-01
9.93335229966986533e-01
9.93335229966986533e-01
9.44479089602452526e-01
9.44479089602452526e-01
9.44479089602452526e-01
1.06121878194242614e+00
1.06121878194242614e+00
1.06121878194242614e+00
1.04592164699830548e+00
1.04592164699830548e+00
1.04592164699830548e+00
1.06262958611493374e+00
1.06262958611493374e+00
1.06262958611493374e+00
9.36204212184683526e-01
9.36204212184683526e-01
9.36204212184683526e-01
9.55934389040131394e-01
9.55934389040131394e-01
9.55934389040131394e-01
1.06002701854138470e+00
1.06002701854138470e+00
1.06002701854138470e+00
1.03116714828841993e+00
1.03116714828841993e+00
1.03116714828841993e+00
1.04046831660667238e+00
1.04046831660667238e+00
1.04046831660667238e+00
1.06154510430520510e+00
1.06154510430520510e+00
1.06154510430520510e+00
9.99868781135309193e-01
9.99868781135309193e-01
9.99868781135309193e-01
9.51646608495903545e-01
9.51646608495903545e-01
9.51646608495903545e-01
1.04568812875469219e+00
1.04568812875469219e+00
1.04568812875469219e+00
1.04409466711281795e+00
1.04409466711281795e+00
1.04409466711281795e+00
9.60545440283396279e-01
9.60545440283396279e-01
9.60545440283396279e-01
9.59262657669343821e-01
9.59262657669343821e-01
9.59262657669343821e-01
1.00377023311870039e+00
1.00377023311870039e+00
1.00377023311870039e+00
9.48703142616599160e-01
9.48703142616599160e-01
9.48703142616599160e-01
1.06277060524160372e+00
1.06277060524160372e+00
1.06277060524160372e+00
9.58233403862879807e-01
9.58233403862879807e-01
9.58233403862879807e-01
9.49341390557577713e-01
9.49341390557577713e-01
9.49341390557577713e-01
9.88531354832132170e-01
9.88531354832132170e-01
9.88531354832132170e-01
9.55892102979535419e-01
9.55892102979535419e-01
9.55892102979535419e-01
1.07135348446135326e+00
1.07135348446135326e+00
1.07135348446135326e+00
1.03689091214100948e+00
1.03689091214100948e+00
1.03689091214100948e+00
1.03767953433297810e+00
1.03767953433297810e+00
1.03767953433297810e+00
1.02197842459140764e+00
1.02197842459140764e+00
1.02197842459140764e+00
9.54598883162590228e-01
9.54598883162590228e-01
9.54598883162590228e-01
9.85792714736913100e-01
9.85792714736913100e-01
9.85792714736913100e-01
1.01924252700122109e+00
1.01924252700122109e+00
1.01924252700122109e+00
9.42400473311239328e-01
9.42400473311239328e-01
9.42400473311239328e-01
1.01226269171471817e+00
1.01226269171471817e+00
1.01226269171471817e+00
9.84718318055635367e-01
9.84718318055635367e-01
9.84718318055635367e-01
1.02223415360061876e+00
1.02223415360061876e+00
1.02223415360061876e+00
9.73889983751871080e-01
9.73889983751871080e-01
9.73889983751871080e-01
9.67541942901286256e-01
9.67541942901286256e-01
9.67541942901286256e-01
1.07473377684749383e+00
1.07473377684749383e+00
1.07473377684749383e+00
9.99509169776667483e-01
9.99509169776667483e-01
9.99509169776667483e-01
9.89933326429769833e-01
9.89933326429769833e-01
9.89933326429769833e-01
9.57739207015479654e-01
9.57739207015479654e-01
9.57739207015479654e-01
1.02029579620892474e+00
1.02029579620892474e+00
1.02029579620892474e+00
9.96238905768381366e-01
9.96238905768381366e-01
9.96238905768381366e-01
1.02395733127314115e+00
1.02395733127314115e+00
1.02395733127314115e+00
9.76250874194650065e-01
9.76250874194650065e-01
9.76250874194650065e-01
9.91655673731241194e-01
9.91655673731241194e-01
9.91655673731241194e-01
9.96714153113563706e-01
9.96714153113563706e-01
9.96714153113563706e-01
9.60487118738224122e-01
9.60487118738224122e-01
9.60487118738224122e-01
9.89493681613779152e-01
9.89493681613779152e-01
9.89493681613779152e-01
1.01414904411926887e+00
1.01414904411926887e+00
1.01414904411926887e+00
1.00519134189469916e+00
1.00519134189469916e+00
1.00519134189469916e+00
1.03408638354399263e+00
1.03408638354399263e+00
1.03408638354399263e+00
9.62551576501234574e-01
9.62551576501234574e-01
9.62551576501234574e-01
1.02858185798262958e+00
1.02858185798262958e+00
1.02858185798262958e+00
1.01864823587525155e+00
1.01864823587525155e+00
1.01864823587525155e+00
9.88664777426914498e-01
9.88664777426914498e-01
9.88664777426914498e-01
1.01139067111207703e+00
1.01139067111207703e+00
1.01139067111207703e+00
1.02393532543043997e+00
1.02393532543043997e+00
1.02393532543043997e+00
1.02018859564203135e+00
1.02018859564203135e+00
1.02018859564203135e+00
1.00467167487612907e+00
1.00467167487612907e+00
1.00467167487612907e+00
1.00507595286490403e+00
1.00507595286490403e+00
1.00507595286490403e+00
9.85536739765052960e-01
9.85536739765052960e-01
9.85536739765052960e-01
9.84269356549458685e-01
9.84269356549458685e-01
9.84269356549458685e-01
9.80561619330374779e-01
9.80561619330374779e-01
9.80561619330374779e-01
9.36836010938551289e-01
9.36836010938551289e-01
9.36836010938551289e-01
1.02084705656797214e+00
1.02084705656797214e+00
1.02084705656797214e+00
9.74993135833013280e-01
9.74993135833013280e-01
9.74993135833013280e-01
9.76202392364300842e-01
9.76202392364300842e-01
9.76202392364300842e-01
9.53273385761345793e-01
9.53273385761345793e-01
9.53273385761345793e-01
1.01549878231278790e+00
1.01549878231278790e+00
1.01549878231278790e+00
9.50945801467832585e-01
9.50945801467832585e-01
9.50945801467832585e-01
9.87485873500367872e-01
9.87485873500367872e-01
9.87485873500367872e-01
9.67856239462781431e-01
9.67856239462781431e-01
9.67856239462781431e-01
1.00307601335476360e+00
1.00307601335476360e+00
1.00307601335476360e+00
9.38890018681899363e-01
9.38890018681899363e-01
9.38890018681899363e-01
9.55037232475957287e-01
9.55037232475957287e-01
9.55037232475957287e-01
9.51172193971815738e-01
9.51172193971815738e-01
9.51172193971815738e-01
9.85785090468145886e-01
9.85785090468145886e-01
9.85785090468145886e-01
1.01262802998012624e+00
1.01262802998012624e+00
1.01262802998012624e+00
1.00037319687191650e+00
1.00037319687191650e+00
1.00037319687191650e+00
9.91671053616642095e-01
9.91671053616642095e-01
9.91671053616642095e-01
9.50700300493388717e-01
9.50700300493388717e-01
9.50700300493388717e-01
9.47569261753903436e-01
9.47569261753903436e-01
9.47569261753903436e-01
9.44959591109957420e-01
9.44959591109957420e-01
9.44959591109957420e-01
9.47692747425915138e-01
9.47692747425915138e-01
9.47692747425915138e-01
9.85153775012158284e-01
9.85153775012158284e-01
9.85153775012158284e-01
1.04713607754967475e+00
1.04713607754967475e+00
1.04713607754967475e+00
1.03475929271060130e+00
1.03475929271060130e+00
1.03475929271060130e+00
1.02791601216053952e+00
1.02791601216053952e+00
1.02791601216053952e+00
1.06285162136118116e+00
1.06285162136118116e+00
1.06285162136118116e+00
9.58343153047095497e-01
9.58343153047095497e-01
9.58343153047095497e-01
1.03070775831463002e+00
1.03070775831463002e+00
1.03070775831463002e+00
9.87741850080401607e-01
9.87741850080401607e-01
9.87741850080401607e-01
1.00679744142801009e+00
1.00679744142801009e+00
1.00679744142801009e+00
1.07373067464843364e+00
1.07373067464843364e+00
1.07373067464843364e+00
9.98822841163202524e-01
9.98822841163202524e-01
9.98822841163202524e-01
1.04151041595835814e+00
1.04151041595835814e+00
1.04151041595835814e+00
9.63991416765555331e-01
9.63991416765555331e-01
9.63991416765555331e-01
9.63893581752076845e-01
9.63893581752076845e-01
9.63893581752076845e-01
1.03729895651048665e+00
1.03729895651048665e+00
1.03729895651048665e+00
9.91789072903889624e-01
9.91789072903889624e-01
9.91789072903889624e-01
1.01866344492087446e+00
1.01866344492087446e+00
1.01866344492087446e+00
1.05888879431493077e+00
1.05888879431493077e+00
1.05888879431493077e+00
1.00565142293415133e+00
1.00565142293415133e+00
1.00565142293415133e+00
9.85267989533772148e-01
9.85267989533772148e-01
9.85267989533772148e-01
9.48919643075486929e-01
9.48919643075486929e-01
9.48919643075486929e-01
1.07611308515425064e+00
1.07611308515425064e+00
1.07611308515425064e+00
1.04859021182414835e+00
1.04859021182414835e+00
1.04859021182414835e+00
1.04614183567167718e+00
1.04614183567167718e+00
1.04614183567167718e+00
9.96576568859218526e-01
9.96576568859218526e-01
9.96576568859218526e-01
1.05137928770144229e+00
1.05137928770144229e+00
1.05137928770144229e+00
1.03953426338468202e+00
1.03953426338468202e+00
1.03953426338468202e+00
9.76510036639431700e-01
9.76510036639431700e-01
9.76510036639431700e-01
1.00256501658123187e+00
1.00256501658123187e+00
1.00256501658123187e+00
1.03485464522744275e+00
1.03485464522744275e+00
1.03485464522744275e+00
1.01117743927590920e+00
1.01117743927590920e+00
1.01117743927590920e+00
9.75964816342594466e-01
9.75964816342594466e-01
9.75964816342594466e-01
1.02127747851751516e+00
1.02127747851751516e+00
1.02127747851751516e+00
1.01103633875986487e+00
1.01103633875986487e+00
1.01103633875986487e+00
9.42655208751360441e-01
9.42655208751360441e-01
9.42655208751360441e-01
9.71345565339414407e-01
9.71345565339414407e-01
9.71345565339414407e-01
1.01940387912549113e+00
1.01940387912549113e+00
1.01940387912549113e+00
9.53889030648640501e-01
9.53889030648640501e-01
9.53889030648640501e-01
1.04109232591747647e+00
1.04109232591747647e+00
1.04109232591747647e+00
9.50788934997199076e-01
9.50788934997199076e-01
9.50788934997199076e-01
9.75370992061351916e-01
9.75370992061351916e-01
9.75370992061351916e-01
9.70305894137100333e-01
9.70305894137100333e-01
9.70305894137100333e-01
1.03039161033046978e+00
1.03039161033046978e+00
1.03039161033046978e+00
1.06183619083986480e+00
1.06183619083986480e+00
1.06183619083986480e+00
1.05960201821125199e+00
1.05960201821125199e+00
1.05960201821125199e+00
1.01877358953352037e+00
1.01877358953352037e+00
1.01877358953352037e+00
1.01339949164813903e+00
1.01339949164813903e+00
1.01339949164813903e+00
1.03666660185213644e+00
1.03666660185213644e+00
1.03666660185213644e+00
9.94347627282252899e-01
9.94347627282252899e-01
9.94347627282252899e-01
9.91844013841733707e-01
9.91844013841733707e-01
9.91844013841733707e-01
9.41582004695707853e-01
9.41582004695707853e-01
9.41582004695707853e-01
1.00172545373143795e+00
1.00172545373143795e+00
1.00172545373143795e+00
9.58259854116907950e-01
9.58259854116907950e-01
9.58259854116907950e-01
9.56973470213212551e-01
9.56973470213212551e-01
9.56973470213212551e-01
9.67631316248043105e-01
9.67631316248043105e-01
9.67631316248043105e-01
9.62151931516987968e-01
9.62151931516987968e-01
9.62151931516987968e-01
9.83337546437816568e-01
9.83337546437816568e-01
9.83337546437816568e-01
9.47059950346651136e-01
9.47059950346651136e-01
9.47059950346651136e-01
9.97623644698302781e-01
9.97623644698302781e-01
9.97623644698302781e-01
9.81107411994732725e-01
9.81107411994732725e-01
9.81107411994732725e-01
9.88325378545078181e-01
9.88325378545078181e-01
9.88325378545078181e-01
9.44233173047043461e-01
9.44233173047043461e-01
9.44233173047043461e-01
9.49463282449253598e-01
9.49463282449253598e-01
9.49463282449253598e-01
1.01297343681637231e+00
1.01297343681637231e+00
1.01297343681637231e+00
9.75959210892753948e-01
9.75959210892753948e-01
9.75959210892753948e-01
1.05022957541134554e+00
1.05022957541134554e+00
1.05022957541134554e+00
1.02208243375673291e+00
1.02208243375673291e+00
1.02208243375673291e+00
1.02211579721097867e+00
1.02211579721097867e+00
1.02211579721097867e+00
1.01172127954994817e+00
1.01172127954994817e+00
1.01172127954994817e+00
1.04100103868263472e+00
1.04100103868263472e+00
1.04100103868263472e+00
9.40632208001993764e-01
9.40632208001993764e-01
9.40632208001993764e-01
1.03198867749183587e+00
1.03198867749183587e+00
1.03198867749183587e+00


        </DataArray>

      </PointData>

      <CellData/>

      <Points>

        <DataArray type="Float64" NumberOfComponents="3" format="ascii">

0.1082531754723032 0.6875000000007816 0 0.23533274979922561 0.77093399389351469 0 0.10409951422139101 0.81206782209691231 0 0.23533274979922561 0.77093399389351469 0 0.1082531754723032 0.6875000000007816 0 0.21809253452218619 0.65480892822618109 0 0.24418615484441761 0.35773612382016978 0 0.121259140952891 0.43112117036853742 0 0.1082531754734323 0.31250000000117473 0 0.75000000000057243 0.35048094716480432 0 0.88173731489851925 0.33077402607778361 0 0.81242894672211508 0.45500248311961472 0 0.121259140952891 0.43112117036853742 0 0.24418615484441761 0.35773612382016978 0 0.22257735880419699 0.47344721641341742 0 0.81242894672211508 0.45500248311961472 0 0.88173731489851925 0.33077402607778361 0 0.915464298762109 0.43749999999886913 0 0 0.62500000000121547 0 0 0.50000000000206146 0 0.1371230538040123 0.56179824718362847 0 0.82212678063041267 0.67678595194836966 0 0.89051480781310632 0.79665793440246835 0 0.76243180583607129 0.78687675331113149 0 0.76243180583607129 0.78687675331113149 0 0.69010814643829166 0.89298495739101336 0 0.62844955668446423 0.7850749770380413 0 0.89051480781310632 0.79665793440246835 0 0.82212678063041267 0.67678595194836966 0 0.92266244547590082 0.68749999999917555 0 0 0.50000000000206146 0 0.121259140952891 0.43112117036853742 0 0.1371230538040123 0.56179824718362847 0 0.1082531754723032 0.6875000000007816 0 0 0.62500000000121547 0 0.1371230538040123 0.56179824718362847 0 0.75000000000032374 0.56698729811007709 0 0.88927506082488361 0.56409486310635837 0 0.82212678063041267 0.67678595194836966 0 0.81242894672211508 0.45500248311961472 0 0.88927506082488361 0.56409486310635837 0 0.75000000000032374 0.56698729811007709 0 0.69851598570178741 0.68211701800612057 0 0.56496004948275869 0.67675037307860475 0 0.62752533658682441 0.56838075195614346 0 0.69851598570178741 0.68211701800612057 0 0.76243180583607129 0.78687675331113149 0 0.62844955668446423 0.7850749770380413 0 0.23533274979922561 0.77093399389351469 0 0.18802967116092181 0.89415349436770275 0 0.10409951422139101 0.81206782209691231 0 0.121259140952891 0.43112117036853742 0 0.22257735880419699 0.47344721641341742 0 0.1371230538040123 0.56179824718362847 0 0.75000000000032374 0.56698729811007709 0 0.69851598570178741 0.68211701800612057 0 0.62752533658682441 0.56838075195614346 0 0.56496004948275869 0.67675037307860475 0 0.69851598570178741 0.68211701800612057 0 0.62844955668446423 0.7850749770380413 0 0.1371230538040123 0.56179824718362847 0 0.22257735880419699 0.47344721641341742 0 0.26982811998763367 0.56544650815856912 0 0.21809253452218619 0.65480892822618109 0 0.1371230538040123 0.56179824718362847 0 0.26982811998763367 0.56544650815856912 0 0.24418615484441761 0.35773612382016978 0 0.1082531754734323 0.31250000000117473 0 0.20767261601459541 0.25628918442207171 0 0.88173731489851925 0.33077402607778361 0 0.75000000000057243 0.35048094716480432 0 0.79891106056046712 0.25007334953587562 0 0.75000000000032374 0.56698729811007709 0 0.82212678063041267 0.67678595194836966 0 0.69851598570178741 0.68211701800612057 0 0.81249999999950517 0.1082531754733404 0 0.89658421694297741 0.1933620068391701 0 0.79891106056046712 0.25007334953587562 0 0.81249999999950517 0.1082531754733404 0 0.79891106056046712 0.25007334953587562 0 0.73983916756365475 0.17530677078674589 0 0.23533274979922561 0.77093399389351469 0 0.21809253452218619 0.65480892822618109 0 0.32607333794064219 0.67760114260606152 0 0.1082531754723032 0.6875000000007816 0 0.1371230538040123 0.56179824718362847 0 0.21809253452218619 0.65480892822618109 0 0.69851598570178741 0.68211701800612057 0 0.82212678063041267 0.67678595194836966 0 0.76243180583607129 0.78687675331113149 0 0.69010814643829166 0.89298495739101336 0 0.76243180583607129 0.78687675331113149 0 0.80886664387416207 0.89717308644237903 0 0.43750000000181222 0.89174682452709564 0 0.31258827852827581 0.89214793616708443 0 0.37776173212361452 0.78514649317305008 0 0.43750000000181222 0.89174682452709564 0 0.37500000000156292 1 0 0.31258827852827581 0.89214793616708443 0 0.121259140952891 0.43112117036853742 0 0 0.37500000000156292 0 0.1082531754734323 0.31250000000117473 0 0.50000000000206146 1 0 0.37500000000156292 1 0 0.43750000000181222 0.89174682452709564 0 0.31258827852827581 0.89214793616708443 0 0.18802967116092181 0.89415349436770275 0 0.23533274979922561 0.77093399389351469 0 0 0.50000000000206146 0 0 0.37500000000156292 0 0.121259140952891 0.43112117036853742 0 0.62844955668446423 0.7850749770380413 0 0.69010814643829166 0.89298495739101336 0 0.56327595140699671 0.89211526915426331 0 0.69010814643829166 0.89298495739101336 0 0.62500000000121547 1 0 0.56327595140699671 0.89211526915426331 0 0.25000000000104189 1 0 0.18802967116092181 0.89415349436770275 0 0.31258827852827581 0.89214793616708443 0 0.50000000000206146 1 0 0.43750000000181222 0.89174682452709564 0 0.56327595140699671 0.89211526915426331 0 0.56249999999885147 0.1082531754730395 0 0.62499999999901068 0 0 0.68749999999926592 0.1082531754732875 0 1 0.49999999999869221 0 1 0.62499999999901068 0 0.88927506082488361 0.56409486310635837 0 0 0.25000000000104189 0 0.12076953676380731 0.18690935762408761 0 0.1082531754734323 0.31250000000117473 0 0.49999999999869221 0 0 0.62499999999901068 0 0 0.56249999999885147 0.1082531754730395 0 0.62500000000121547 1 0 0.50000000000206146 1 0 0.56327595140699671 0.89211526915426331 0 0.37500000000156292 1 0 0.25000000000104189 1 0 0.31258827852827581 0.89214793616708443 0 0.31281086598417152 0.10449318608631281 0 0.37499999999904599 0 0 0.43749999999910871 0.1082531754729984 0 0.43750000000181222 0.89174682452709564 0 0.37776173212361452 0.78514649317305008 0 0.50046028868828263 0.78376912307435687 0 0 0.37500000000156292 0 0 0.25000000000104189 0 0.1082531754734323 0.31250000000117473 0 0.49999999999869221 0 0 0.56249999999885147 0.1082531754730395 0 0.43749999999910871 0.1082531754729984 0 0.43750000000181222 0.89174682452709564 0 0.50046028868828263 0.78376912307435687 0 0.56327595140699671 0.89211526915426331 0 0.74999999999934042 0 0 0.81249999999950517 0.1082531754733404 0 0.68749999999926592 0.1082531754732875 0 0.37499999999904599 0 0 0.49999999999869221 0 0 0.43749999999910871 0.1082531754729984 0 0.25000000000104189 1 0 0.12500000000052089 1 0 0.18802967116092181 0.89415349436770275 0 0.50046028868828263 0.78376912307435687 0 0.62844955668446423 0.7850749770380413 0 0.56327595140699671 0.89211526915426331 0 0.37776173212361452 0.78514649317305008 0 0.31258827852827581 0.89214793616708443 0 0.23533274979922561 0.77093399389351469 0 0.62499999999901068 0 0 0.74999999999934042 0 0 0.68749999999926592 0.1082531754732875 0 1 0.74999999999934042 0 1 0.87499999999967015 0 0.89051480781310632 0.79665793440246835 0 0 0.25000000000104189 0 0 0.12500000000052089 0 0.12076953676380731 0.18690935762408761 0 0.74999999999934042 0 0 0.87499999999967015 0 0 0.81249999999950517 0.1082531754733404 0 0.24999999999941069 0 0 0.37499999999904599 0 0 0.31281086598417152 0.10449318608631281 0 0.50046028868828263 0.78376912307435687 0 0.37776173212361452 0.78514649317305008 0 0.44078402250377968 0.67714785211715212 0 0.68768773896438518 0.4586835206367198 0 0.75000000000032374 0.56698729811007709 0 0.62752533658682441 0.56838075195614346 0 0.31411863959822661 0.24965544328045999 0 0.37953773393552892 0.34812185820708452 0 0.24418615484441761 0.35773612382016978 0 0.68768773896438518 0.4586835206367198 0 0.81242894672211508 0.45500248311961472 0 0.75000000000032374 0.56698729811007709 0 1 0.24999999999941069 0 1 0.37499999999904599 0 0.88173731489851925 0.33077402607778361 0 0 0.75000000000034761 0 0 0.62500000000121547 0 0.1082531754723032 0.6875000000007816 0 0.50048844149666749 0.56727788297625459 0 0.44078402250377968 0.67714785211715212 0 0.38694285807596462 0.5672991787102919 0 0.50108503093851109 0.35012252869403671 0 0.44301038174930041 0.45684931552185398 0 0.37953773393552892 0.34812185820708452 0 0.50046028868828263 0.78376912307435687 0 0.56496004948275869 0.67675037307860475 0 0.62844955668446423 0.7850749770380413 0 0.68768773896438518 0.4586835206367198 0 0.75000000000057243 0.35048094716480432 0 0.81242894672211508 0.45500248311961472 0 0.56349980387502452 0.45846841892908402 0 0.62512662990940393 0.35044303886909911 0 0.68768773896438518 0.4586835206367198 0 0.50048844149666749 0.56727788297625459 0 0.38694285807596462 0.5672991787102919 0 0.44301038174930041 0.45684931552185398 0 0.50046028868828263 0.78376912307435687 0 0.44078402250377968 0.67714785211715212 0 0.56496004948275869 0.67675037307860475 0 0.50108503093851109 0.35012252869403671 0 0.37953773393552892 0.34812185820708452 0 0.43750000000200551 0.24222777169198509 0 0.75000000000034761 1 0 0.62500000000121547 1 0 0.69010814643829166 0.89298495739101336 0 0.68768773896438518 0.4586835206367198 0 0.62512662990940393 0.35044303886909911 0 0.75000000000057243 0.35048094716480432 0 0.56496004948275869 0.67675037307860475 0 0.44078402250377968 0.67714785211715212 0 0.50048844149666749 0.56727788297625459 0 0.56349980387502452 0.45846841892908402 0 0.44301038174930041 0.45684931552185398 0 0.50108503093851109 0.35012252869403671 0 0.50048844149666749 0.56727788297625459 0 0.44301038174930041 0.45684931552185398 0 0.56349980387502452 0.45846841892908402 0 0.56349980387502452 0.45846841892908402 0 0.50108503093851109 0.35012252869403671 0 0.62512662990940393 0.35044303886909911 0 0.43750000000200551 0.24222777169198509 0 0.37953773393552892 0.34812185820708452 0 0.31411863959822661 0.24965544328045999 0 0.56496004948275869 0.67675037307860475 0 0.50048844149666749 0.56727788297625459 0 0.62752533658682441 0.56838075195614346 0 0.56349980387502452 0.45846841892908402 0 0.68768773896438518 0.4586835206367198 0 0.62752533658682441 0.56838075195614346 0 0.50048844149666749 0.56727788297625459 0 0.56349980387502452 0.45846841892908402 0 0.62752533658682441 0.56838075195614346 0 0.75000000000057243 0.35048094716480432 0 0.62512662990940393 0.35044303886909911 0 0.68668231842078242 0.24762892664808989 0 0.50108503093851109 0.35012252869403671 0 0.43750000000200551 0.24222777169198509 0 0.56250000000143974 0.2422277716920859 0 0.62512662990940393 0.35044303886909911 0 0.50108503093851109 0.35012252869403671 0 0.56250000000143974 0.2422277716920859 0 0.68668231842078242 0.24762892664808989 0 0.62512662990940393 0.35044303886909911 0 0.56250000000143974 0.2422277716920859 0 0.22257735880419699 0.47344721641341742 0 0.24418615484441761 0.35773612382016978 0 0.32815957677880009 0.4577243358118348 0 0.12076953676380731 0.18690935762408761 0 0.19185372118111221 0.092925648673580788 0 0.25103557339309318 0.17464499738446629 0 0.20767261601459541 0.25628918442207171 0 0.12076953676380731 0.18690935762408761 0 0.25103557339309318 0.17464499738446629 0 0 0.87499999999950151 0 0 0.75000000000034761 0 0.10409951422139101 0.81206782209691231 0 0.1249999999997731 0 0 0.24999999999941069 0 0 0.19185372118111221 0.092925648673580788 0 1 0.1249999999997731 0 1 0.24999999999941069 0 0.89658421694297741 0.1933620068391701 0 0.88927506082488361 0.56409486310635837 0 0.81242894672211508 0.45500248311961472 0 0.915464298762109 0.43749999999886913 0 0.87499999999950151 1 0 0.75000000000034761 1 0 0.80886664387416207 0.89717308644237903 0 0.75000000000034761 1 0 0.69010814643829166 0.89298495739101336 0 0.80886664387416207 0.89717308644237903 0 0.82212678063041267 0.67678595194836966 0 0.88927506082488361 0.56409486310635837 0 0.92266244547590082 0.68749999999917555 0 0 0.75000000000034761 0 0.1082531754723032 0.6875000000007816 0 0.10409951422139101 0.81206782209691231 0 0.24999999999941069 0 0 0.31281086598417152 0.10449318608631281 0 0.19185372118111221 0.092925648673580788 0 1 0.24999999999941069 0 0.88173731489851925 0.33077402607778361 0 0.89658421694297741 0.1933620068391701 0 0.32815957677880009 0.4577243358118348 0 0.38694285807596462 0.5672991787102919 0 0.26982811998763367 0.56544650815856912 0 0.76243180583607129 0.78687675331113149 0 0.89051480781310632 0.79665793440246835 0 0.80886664387416207 0.89717308644237903 0 0.38694285807596462 0.5672991787102919 0 0.44078402250377968 0.67714785211715212 0 0.32607333794064219 0.67760114260606152 0 0.37776173212361452 0.78514649317305008 0 0.23533274979922561 0.77093399389351469 0 0.32607333794064219 0.67760114260606152 0 1 0.49999999999869221 0 0.88927506082488361 0.56409486310635837 0 0.915464298762109 0.43749999999886913 0 0.88173731489851925 0.33077402607778361 0 1 0.37499999999904599 0 0.915464298762109 0.43749999999886913 0 0.24418615484441761 0.35773612382016978 0 0.37953773393552892 0.34812185820708452 0 0.32815957677880009 0.4577243358118348 0 0.44301038174930041 0.45684931552185398 0 0.38694285807596462 0.5672991787102919 0 0.32815957677880009 0.4577243358118348 0 0.88927506082488361 0.56409486310635837 0 1 0.62499999999901068 0 0.92266244547590082 0.68749999999917555 0 1 0.74999999999934042 0 0.89051480781310632 0.79665793440246835 0 0.92266244547590082 0.68749999999917555 0 0 1 0 0 0.87499999999950151 0 0.091506350946494744 0.90849364905351082 0 1 1 0 0.87499999999950151 1 0 0.90849364905363228 0.90849364905367769 0 0 0 0 0.1249999999997731 0 0 0.091506350946417708 0.091506350946618076 0 0 0.12500000000052089 0 0 0 0 0.091506350946417708 0.091506350946618076 0 1 0 0 1 0.1249999999997731 0 0.90849364905355434 0.091506350946296292 0 0.87499999999967015 0 0 1 0 0 0.90849364905355434 0.091506350946296292 0 0.12500000000052089 1 0 0 1 0 0.091506350946494744 0.90849364905351082 0 1 0.87499999999967015 0 1 1 0 0.90849364905363228 0.90849364905367769 0 0.38694285807596462 0.5672991787102919 0 0.32607333794064219 0.67760114260606152 0 0.26982811998763367 0.56544650815856912 0 0.31411863959822661 0.24965544328045999 0 0.24418615484441761 0.35773612382016978 0 0.20767261601459541 0.25628918442207171 0 0.1082531754734323 0.31250000000117473 0 0.12076953676380731 0.18690935762408761 0 0.20767261601459541 0.25628918442207171 0 0.75000000000057243 0.35048094716480432 0 0.68668231842078242 0.24762892664808989 0 0.79891106056046712 0.25007334953587562 0 0.22257735880419699 0.47344721641341742 0 0.32815957677880009 0.4577243358118348 0 0.26982811998763367 0.56544650815856912 0 0.44078402250377968 0.67714785211715212 0 0.37776173212361452 0.78514649317305008 0 0.32607333794064219 0.67760114260606152 0 0.89658421694297741 0.1933620068391701 0 0.88173731489851925 0.33077402607778361 0 0.79891106056046712 0.25007334953587562 0 1 0.37499999999904599 0 1 0.49999999999869221 0 0.915464298762109 0.43749999999886913 0 0.37953773393552892 0.34812185820708452 0 0.44301038174930041 0.45684931552185398 0 0.32815957677880009 0.4577243358118348 0 0.32607333794064219 0.67760114260606152 0 0.21809253452218619 0.65480892822618109 0 0.26982811998763367 0.56544650815856912 0 1 0.1249999999997731 0 0.89658421694297741 0.1933620068391701 0 0.90849364905355434 0.091506350946296292 0 0 0.87499999999950151 0 0.10409951422139101 0.81206782209691231 0 0.091506350946494744 0.90849364905351082 0 0.1249999999997731 0 0 0.19185372118111221 0.092925648673580788 0 0.091506350946417708 0.091506350946618076 0 1 0.62499999999901068 0 1 0.74999999999934042 0 0.92266244547590082 0.68749999999917555 0 0.18802967116092181 0.89415349436770275 0 0.12500000000052089 1 0 0.091506350946494744 0.90849364905351082 0 0.89051480781310632 0.79665793440246835 0 1 0.87499999999967015 0 0.90849364905363228 0.90849364905367769 0 0.12076953676380731 0.18690935762408761 0 0 0.12500000000052089 0 0.091506350946417708 0.091506350946618076 0 0.81249999999950517 0.1082531754733404 0 0.87499999999967015 0 0 0.90849364905355434 0.091506350946296292 0 0.87499999999950151 1 0 0.80886664387416207 0.89717308644237903 0 0.90849364905363228 0.90849364905367769 0 0.68668231842078242 0.24762892664808989 0 0.62499999999892575 0.17524047358135519 0 0.73983916756365475 0.17530677078674589 0 0.31281086598417152 0.10449318608631281 0 0.43749999999910871 0.1082531754729984 0 0.37500000000232431 0.17524047358384309 0 0.62499999999892575 0.17524047358135519 0 0.56250000000143974 0.2422277716920859 0 0.49999999999934441 0.1752404735815076 0 0.56249999999885147 0.1082531754730395 0 0.68749999999926592 0.1082531754732875 0 0.62499999999892575 0.17524047358135519 0 0.56249999999885147 0.1082531754730395 0 0.62499999999892575 0.17524047358135519 0 0.49999999999934441 0.1752404735815076 0 0.56250000000143974 0.2422277716920859 0 0.43750000000200551 0.24222777169198509 0 0.49999999999934441 0.1752404735815076 0 0.43749999999910871 0.1082531754729984 0 0.56249999999885147 0.1082531754730395 0 0.49999999999934441 0.1752404735815076 0 0.68668231842078242 0.24762892664808989 0 0.56250000000143974 0.2422277716920859 0 0.62499999999892575 0.17524047358135519 0 0.43750000000200551 0.24222777169198509 0 0.31411863959822661 0.24965544328045999 0 0.37500000000232431 0.17524047358384309 0 0.49999999999934441 0.1752404735815076 0 0.43750000000200551 0.24222777169198509 0 0.37500000000232431 0.17524047358384309 0 0.43749999999910871 0.1082531754729984 0 0.49999999999934441 0.1752404735815076 0 0.37500000000232431 0.17524047358384309 0 0.62499999999892575 0.17524047358135519 0 0.68749999999926592 0.1082531754732875 0 0.73983916756365475 0.17530677078674589 0 0.68749999999926592 0.1082531754732875 0 0.81249999999950517 0.1082531754733404 0 0.73983916756365475 0.17530677078674589 0 0.10409951422139101 0.81206782209691231 0 0.18802967116092181 0.89415349436770275 0 0.091506350946494744 0.90849364905351082 0 0.89658421694297741 0.1933620068391701 0 0.81249999999950517 0.1082531754733404 0 0.90849364905355434 0.091506350946296292 0 0.19185372118111221 0.092925648673580788 0 0.12076953676380731 0.18690935762408761 0 0.091506350946417708 0.091506350946618076 0 0.37500000000232431 0.17524047358384309 0 0.31411863959822661 0.24965544328045999 0 0.25103557339309318 0.17464499738446629 0 0.31281086598417152 0.10449318608631281 0 0.37500000000232431 0.17524047358384309 0 0.25103557339309318 0.17464499738446629 0 0.80886664387416207 0.89717308644237903 0 0.89051480781310632 0.79665793440246835 0 0.90849364905363228 0.90849364905367769 0 0.19185372118111221 0.092925648673580788 0 0.31281086598417152 0.10449318608631281 0 0.25103557339309318 0.17464499738446629 0 0.79891106056046712 0.25007334953587562 0 0.68668231842078242 0.24762892664808989 0 0.73983916756365475 0.17530677078674589 0 0.31411863959822661 0.24965544328045999 0 0.20767261601459541 0.25628918442207171 0 0.25103557339309318 0.17464499738446629 0 

        </DataArray>

      </Points>

      <Cells>

        <DataArray type="Int32" Name="connectivity" format="ascii">

0 1 2 3 4 5 6 7 8 9 10 11 12 13 14 15 16 17 18 19 20 21 22 23 24 25 26 27 28 29 30 31 32 33 34 35 36 37 38 39 40 41 42 43 44 45 46 47 48 49 50 51 52 53 54 55 56 57 58 59 60 61 62 63 64 65 66 67 68 69 70 71 72 73 74 75 76 77 78 79 80 81 82 83 84 85 86 87 88 89 90 91 92 93 94 95 96 97 98 99 100 101 102 103 104 105 106 107 108 109 110 111 112 113 114 115 116 117 118 119 120 121 122 123 124 125 126 127 128 129 130 131 132 133 134 135 136 137 138 139 140 141 142 143 144 145 146 147 148 149 150 151 152 153 154 155 156 157 158 159 160 161 162 163 164 165 166 167 168 169 170 171 172 173 174 175 176 177 178 179 180 181 182 183 184 185 186 187 188 189 190 191 192 193 194 195 196 197 198 199 200 201 202 203 204 205 206 207 208 209 210 211 212 213 214 215 216 217 218 219 220 221 222 223 224 225 226 227 228 229 230 231 232 233 234 235 236 237 238 239 240 241 242 243 244 245 246 247 248 249 250 251 252 253 254 255 256 257 258 259 260 261 262 263 264 265 266 267 268 269 270 271 272 273 274 275 276 277 278 279 280 281 282 283 284 285 286 287 288 289 290 291 292 293 294 295 296 297 298 299 300 301 302 303 304 305 306 307 308 309 310 311 312 313 314 315 316 317 318 319 320 321 322 323 324 325 326 327 328 329 330 331 332 333 334 335 336 337 338 339 340 341 342 343 344 345 346 347 348 349 350 351 352 353 354 355 356 357 358 359 360 361 362 363 364 365 366 367 368 369 370 371 372 373 374 375 376 377 378 379 380 381 382 383 384 385 386 387 388 389 390 391 392 393 394 395 396 397 398 399 400 401 402 403 404 405 406 407 408 409 410 411 412 413 414 415 416 417 418 419 420 421 422 423 424 425 426 427 428 429 430 431 432 433 434 435 436 437 438 439 440 441 442 443 444 445 446 447 448 449 450 451 452 453 454 455 456 457 458 459 460 461 462 463 464 465 466 467 468 469 470 471 472 473 474 475 476 477 478 479 480 481 482 483 484 485 

        </DataArray>

        <DataArray type="Int32" Name="offsets" format="ascii">

3 6 9 12 15 18 21 24 27 30 33 36 39 42 45 48 51 54 57 60 63 66 69 72 75 78 81 84 87 90 93 96 99 102 105 108 111 114 117 120 123 126 129 132 135 138 141 144 147 150 153 156 159 162 165 168 171 174 177 180 183 186 189 192 195 198 201 204 207 210 213 216 219 222 225 228 231 234 237 240 243 246 249 252 255 258 261 264 267 270 273 276 279 282 285 288 291 294 297 300 303 306 309 312 315 318 321 324 327 330 333 336 339 342 345 348 351 354 357 360 363 366 369 372 375 378 381 384 387 390 393 396 399 402 405 408 411 414 417 420 423 426 429 432 435 438 441 444 447 450 453 456 459 462 465 468 471 474 477 480 483 486 

        </DataArray>

        <DataArray type="Int32" Name="types" format="ascii">

5 5 5 5 5 5 5 5 5 5 5 5 5 5 5 5 5 5 5 5 5 5 5 5 5 5 5 5 5 5 5 5 5 5 5 5 5 5 5 5 5 5 5 5 5 5 5 5 5 5 5 5 5 5 5 5 5 5 5 5 5 5 5 5 5 5 5 5 5 5 5 5 5 5 5 5 5 5 5 5 5 5 5 5 5 5 5 5 5 5 5 5 5 5 5 5 5 5 5 5 5 5 5 5 5 5 5 5 5 5 5 5 5 5 5 5 5 5 5 5 5 5 5 5 5 5 5 5 5 5 5 5 5 5 5 5 5 5 5 5 5 5 5 5 5 5 5 5 5 5 5 5 5 5 5 5 5 5 5 5 5 5 

        </DataArray>

      </Cells>

    </Piece>

  </UnstructuredGrid>

</VTKFile>

