<?xml version="1.0"?>

<VTKFile type="UnstructuredGrid" version="0.1">

  <UnstructuredGrid>

    <Piece NumberOfPoints="486" NumberOfCells="162">

      <PointData>

        <DataArray type="Float64" Name="K" format="ascii">

9.93862097970533154e-01
9.93862097970533154e-01
9.93862097970533154e-01
9.89637202878815514e-01
9.89637202878815514e-01
9.89637202878815514e-01
1.00442144748745932e+00
1.00442144748745932e+00
1.00442144748745932e+00
9.39889424579455124e-01
9.39889424579455124e-01
9.39889424579455124e-01
9.99614294930463387e-01
9.99614294930463387e-01
9.99614294930463387e-01
9.28333259129859978e-01
9.28333259129859978e-01
9.28333259129859978e-01
9.99295775109769746e-01
9.99295775109769746e-01
9.99295775109769746e-01
1.03630020113980059e+00
1.03630020113980059e+00
1.03630020113980059e+00
1.02190302138892197e+00
1.02190302138892197e+00
1.02190302138892197e+00
1.01902559969468842e+00
1.01902559969468842e+00
1.01902559969468842e+00
1.00638989285800173e+00
1.00638989285800173e+00
1.00638989285800173e+00
9.90958002929444026e-01
9.90958002929444026e-01
9.90958002929444026e-01
1.00410721944851655e+00
1.00410721944851655e+00
1.00410721944851655e+00
9.78097311099989319e-01
9.78097311099989319e-01
9.78097311099989319e-01
1.01216991206994877e+00
1.01216991206994877e+00
1.01216991206994877e+00
1.03504091571405987e+00
1.03504091571405987e+00
1.03504091571405987e+00
9.98602135567702942e-01
9.98602135567702942e-01
9.98602135567702942e-01
9.95416067252574810e-01
9.95416067252574810e-01
9.95416067252574810e-01
1.02090600714952595e+00
1.02090600714952595e+00
1.02090600714952595e+00
1.02085156862446658e+00
1.02085156862446658e+00
1.02085156862446658e+00
9.93310202221421634e-01
9.93310202221421634e-01
9.93310202221421634e-01
9.90936623192336219e-01
9.90936623192336219e-01
9.90936623192336219e-01
1.00425806849495203e+00
1.00425806849495203e+00
1.00425806849495203e+00
9.43884193113950887e-01
9.43884193113950887e-01
9.43884193113950887e-01
1.03257467508312506e+00
1.03257467508312506e+00
1.03257467508312506e+00
9.86158846856272975e-01
9.86158846856272975e-01
9.86158846856272975e-01
9.99731318820408332e-01
9.99731318820408332e-01
9.99731318820408332e-01
9.99694844241622471e-01
9.99694844241622471e-01
9.99694844241622471e-01
9.87179609573774486e-01
9.87179609573774486e-01
9.87179609573774486e-01
1.04286313960814558e+00
1.04286313960814558e+00
1.04286313960814558e+00
1.02739025142076401e+00
1.02739025142076401e+00
1.02739025142076401e+00
1.01598199600201755e+00
1.01598199600201755e+00
1.01598199600201755e+00
1.00703337111599467e+00
1.00703337111599467e+00
1.00703337111599467e+00
1.01711825097024988e+00
1.01711825097024988e+00
1.01711825097024988e+00
1.01124106497449051e+00
1.01124106497449051e+00
1.01124106497449051e+00
9.92046691942375936e-01
9.92046691942375936e-01
9.92046691942375936e-01
1.01801285692545362e+00
1.01801285692545362e+00
1.01801285692545362e+00
1.00069247075876122e+00
1.00069247075876122e+00
1.00069247075876122e+00
9.79205689081763975e-01
9.79205689081763975e-01
9.79205689081763975e-01
9.90096019199414479e-01
9.90096019199414479e-01
9.90096019199414479e-01
1.00990498448261090e+00
1.00990498448261090e+00
1.00990498448261090e+00
1.07314602641517509e+00
1.07314602641517509e+00
1.07314602641517509e+00
9.68074436770961610e-01
9.68074436770961610e-01
9.68074436770961610e-01
1.00289973111259734e+00
1.00289973111259734e+00
1.00289973111259734e+00
1.05804641107632613e+00
1.05804641107632613e+00
1.05804641107632613e+00
9.81220924462432476e-01
9.81220924462432476e-01
9.81220924462432476e-01
9.89107523494782259e-01
9.89107523494782259e-01
9.89107523494782259e-01
1.01016125508918453e+00
1.01016125508918453e+00
1.01016125508918453e+00
1.02928929824268089e+00
1.02928929824268089e+00
1.02928929824268089e+00
1.01673230070955900e+00
1.01673230070955900e+00
1.01673230070955900e+00
1.01500443507118532e+00
1.01500443507118532e+00
1.01500443507118532e+00
1.02113290108560339e+00
1.02113290108560339e+00
1.02113290108560339e+00
1.06619976291694396e+00
1.06619976291694396e+00
1.06619976291694396e+00
1.01081119370700656e+00
1.01081119370700656e+00
1.01081119370700656e+00
1.00566965478447656e+00
1.00566965478447656e+00
1.00566965478447656e+00
1.01201572136996476e+00
1.01201572136996476e+00
1.01201572136996476e+00
1.00187414185122248e+00
1.00187414185122248e+00
1.00187414185122248e+00
1.09301284645250241e+00
1.09301284645250241e+00
1.09301284645250241e+00
1.01088278515671082e+00
1.01088278515671082e+00
1.01088278515671082e+00
9.93736966139405986e-01
9.93736966139405986e-01
9.93736966139405986e-01
1.06880346288402506e+00
1.06880346288402506e+00
1.06880346288402506e+00
1.02321067249135234e+00
1.02321067249135234e+00
1.02321067249135234e+00
1.03006558846160656e+00
1.03006558846160656e+00
1.03006558846160656e+00
9.97757995697449496e-01
9.97757995697449496e-01
9.97757995697449496e-01
1.00960334740879532e+00
1.00960334740879532e+00
1.00960334740879532e+00
9.85650938153789236e-01
9.85650938153789236e-01
9.85650938153789236e-01
9.34134745652809406e-01
9.34134745652809406e-01
9.34134745652809406e-01
9.83589838992731003e-01
9.83589838992731003e-01
9.83589838992731003e-01
1.01555199911687688e+00
1.01555199911687688e+00
1.01555199911687688e+00
9.81109413432056932e-01
9.81109413432056932e-01
9.81109413432056932e-01
1.01519703194668653e+00
1.01519703194668653e+00
1.01519703194668653e+00
9.64810775327662573e-01
9.64810775327662573e-01
9.64810775327662573e-01
9.59652146010482987e-01
9.59652146010482987e-01
9.59652146010482987e-01
1.00313319860814532e+00
1.00313319860814532e+00
1.00313319860814532e+00
1.01866064386484090e+00
1.01866064386484090e+00
1.01866064386484090e+00
9.75677908901664614e-01
9.75677908901664614e-01
9.75677908901664614e-01
9.77117190558461024e-01
9.77117190558461024e-01
9.77117190558461024e-01
9.65466278845663273e-01
9.65466278845663273e-01
9.65466278845663273e-01
1.00576002630645012e+00
1.00576002630645012e+00
1.00576002630645012e+00
9.62037614120287987e-01
9.62037614120287987e-01
9.62037614120287987e-01
9.72950862144424833e-01
9.72950862144424833e-01
9.72950862144424833e-01
9.51924483767183194e-01
9.51924483767183194e-01
9.51924483767183194e-01
9.94878934323516262e-01
9.94878934323516262e-01
9.94878934323516262e-01
9.90426686091237962e-01
9.90426686091237962e-01
9.90426686091237962e-01
9.72129260026681985e-01
9.72129260026681985e-01
9.72129260026681985e-01
9.71026540783827108e-01
9.71026540783827108e-01
9.71026540783827108e-01
9.70990611873182474e-01
9.70990611873182474e-01
9.70990611873182474e-01
9.64165542158560429e-01
9.64165542158560429e-01
9.64165542158560429e-01
9.60162285615699940e-01
9.60162285615699940e-01
9.60162285615699940e-01
9.78906699328299990e-01
9.78906699328299990e-01
9.78906699328299990e-01
1.00725903632419422e+00
1.00725903632419422e+00
1.00725903632419422e+00
9.96554288938192534e-01
9.96554288938192534e-01
9.96554288938192534e-01
1.00153212434206740e+00
1.00153212434206740e+00
1.00153212434206740e+00
9.90340122856741556e-01
9.90340122856741556e-01
9.90340122856741556e-01
9.92806840324563789e-01
9.92806840324563789e-01
9.92806840324563789e-01
9.89853574995525509e-01
9.89853574995525509e-01
9.89853574995525509e-01
9.44356711251032821e-01
9.44356711251032821e-01
9.44356711251032821e-01
1.00998597164787096e+00
1.00998597164787096e+00
1.00998597164787096e+00
1.00761091378714140e+00
1.00761091378714140e+00
1.00761091378714140e+00
9.99114039176661528e-01
9.99114039176661528e-01
9.99114039176661528e-01
9.90462428532472572e-01
9.90462428532472572e-01
9.90462428532472572e-01
1.01470645830009953e+00
1.01470645830009953e+00
1.01470645830009953e+00
9.52327842149398474e-01
9.52327842149398474e-01
9.52327842149398474e-01
1.02131636427748540e+00
1.02131636427748540e+00
1.02131636427748540e+00
1.03582593742627682e+00
1.03582593742627682e+00
1.03582593742627682e+00
1.02860921741417788e+00
1.02860921741417788e+00
1.02860921741417788e+00
1.01038083381851140e+00
1.01038083381851140e+00
1.01038083381851140e+00
9.42441821389040757e-01
9.42441821389040757e-01
9.42441821389040757e-01
9.23257083346237684e-01
9.23257083346237684e-01
9.23257083346237684e-01
1.01202975964464659e+00
1.01202975964464659e+00
1.01202975964464659e+00
1.01635056151358927e+00
1.01635056151358927e+00
1.01635056151358927e+00
9.87385215890594470e-01
9.87385215890594470e-01
9.87385215890594470e-01
1.01380472019043810e+00
1.01380472019043810e+00
1.01380472019043810e+00
1.00876584391011015e+00
1.00876584391011015e+00
1.00876584391011015e+00
9.82254521550484982e-01
9.82254521550484982e-01
9.82254521550484982e-01
9.65878842450843877e-01
9.65878842450843877e-01
9.65878842450843877e-01
9.75053939304765804e-01
9.75053939304765804e-01
9.75053939304765804e-01
1.05329761621008045e+00
1.05329761621008045e+00
1.05329761621008045e+00
1.07192841535520400e+00
1.07192841535520400e+00
1.07192841535520400e+00
1.02190771897440502e+00
1.02190771897440502e+00
1.02190771897440502e+00
9.82034583813950479e-01
9.82034583813950479e-01
9.82034583813950479e-01
1.02253581223088053e+00
1.02253581223088053e+00
1.02253581223088053e+00
1.00981114102354486e+00
1.00981114102354486e+00
1.00981114102354486e+00
9.99915659344564722e-01
9.99915659344564722e-01
9.99915659344564722e-01
9.68074311461347037e-01
9.68074311461347037e-01
9.68074311461347037e-01
1.00855705758695580e+00
1.00855705758695580e+00
1.00855705758695580e+00
1.02812770498292649e+00
1.02812770498292649e+00
1.02812770498292649e+00
9.50006059083081666e-01
9.50006059083081666e-01
9.50006059083081666e-01
9.31445836499320556e-01
9.31445836499320556e-01
9.31445836499320556e-01
1.00701099236578728e+00
1.00701099236578728e+00
1.00701099236578728e+00
1.00570224260873764e+00
1.00570224260873764e+00
1.00570224260873764e+00
1.01832282179656475e+00
1.01832282179656475e+00
1.01832282179656475e+00
1.00566197095477894e+00
1.00566197095477894e+00
1.00566197095477894e+00
9.74097118876760759e-01
9.74097118876760759e-01
9.74097118876760759e-01
1.00867202312799420e+00
1.00867202312799420e+00
1.00867202312799420e+00
1.01653191347248484e+00
1.01653191347248484e+00
1.01653191347248484e+00
1.00649270708350724e+00
1.00649270708350724e+00
1.00649270708350724e+00
9.78742660687507149e-01
9.78742660687507149e-01
9.78742660687507149e-01
1.05158600807660196e+00
1.05158600807660196e+00
1.05158600807660196e+00
1.01069411239743800e+00
1.01069411239743800e+00
1.01069411239743800e+00
1.01541789057477083e+00
1.01541789057477083e+00
1.01541789057477083e+00
1.00218016505462049e+00
1.00218016505462049e+00
1.00218016505462049e+00
9.95921941263749222e-01
9.95921941263749222e-01
9.95921941263749222e-01
1.04711006424205744e+00
1.04711006424205744e+00
1.04711006424205744e+00
1.01371321565126782e+00
1.01371321565126782e+00
1.01371321565126782e+00
9.74029369922555732e-01
9.74029369922555732e-01
9.74029369922555732e-01
9.97081893736483926e-01
9.97081893736483926e-01
9.97081893736483926e-01
1.00267869136504162e+00
1.00267869136504162e+00
1.00267869136504162e+00
9.94949949768634045e-01
9.94949949768634045e-01
9.94949949768634045e-01
9.79683260661245559e-01
9.79683260661245559e-01
9.79683260661245559e-01
9.85898177484736515e-01
9.85898177484736515e-01
9.85898177484736515e-01
1.03977581296792332e+00
1.03977581296792332e+00
1.03977581296792332e+00
1.03693636492378038e+00
1.03693636492378038e+00
1.03693636492378038e+00
1.00988389400647960e+00
1.00988389400647960e+00
1.00988389400647960e+00
1.01563884093189150e+00
1.01563884093189150e+00
1.01563884093189150e+00
9.79872743010978708e-01
9.79872743010978708e-01
9.79872743010978708e-01
1.01110687081730366e+00
1.01110687081730366e+00
1.01110687081730366e+00
1.01393863190309763e+00
1.01393863190309763e+00
1.01393863190309763e+00
1.02209149585572034e+00
1.02209149585572034e+00
1.02209149585572034e+00
1.01321135313799671e+00
1.01321135313799671e+00
1.01321135313799671e+00
9.90030554989353218e-01
9.90030554989353218e-01
9.90030554989353218e-01
1.01164961015978405e+00
1.01164961015978405e+00
1.01164961015978405e+00


        </DataArray>

      </PointData>

      <CellData/>

      <Points>

        <DataArray type="Float64" NumberOfComponents="3" format="ascii">

0.1082531754723032 0.6875000000007816 0 0.23533274979922561 0.77093399389351469 0 0.10409951422139101 0.81206782209691231 0 0.23533274979922561 0.77093399389351469 0 0.1082531754723032 0.6875000000007816 0 0.21809253452218619 0.65480892822618109 0 0.24418615484441761 0.35773612382016978 0 0.121259140952891 0.43112117036853742 0 0.1082531754734323 0.31250000000117473 0 0.75000000000057243 0.35048094716480432 0 0.88173731489851925 0.33077402607778361 0 0.81242894672211508 0.45500248311961472 0 0.121259140952891 0.43112117036853742 0 0.24418615484441761 0.35773612382016978 0 0.22257735880419699 0.47344721641341742 0 0.81242894672211508 0.45500248311961472 0 0.88173731489851925 0.33077402607778361 0 0.915464298762109 0.43749999999886913 0 0 0.62500000000121547 0 0 0.50000000000206146 0 0.1371230538040123 0.56179824718362847 0 0.82212678063041267 0.67678595194836966 0 0.89051480781310632 0.79665793440246835 0 0.76243180583607129 0.78687675331113149 0 0.76243180583607129 0.78687675331113149 0 0.69010814643829166 0.89298495739101336 0 0.62844955668446423 0.7850749770380413 0 0.89051480781310632 0.79665793440246835 0 0.82212678063041267 0.67678595194836966 0 0.92266244547590082 0.68749999999917555 0 0 0.50000000000206146 0 0.121259140952891 0.43112117036853742 0 0.1371230538040123 0.56179824718362847 0 0.1082531754723032 0.6875000000007816 0 0 0.62500000000121547 0 0.1371230538040123 0.56179824718362847 0 0.75000000000032374 0.56698729811007709 0 0.88927506082488361 0.56409486310635837 0 0.82212678063041267 0.67678595194836966 0 0.81242894672211508 0.45500248311961472 0 0.88927506082488361 0.56409486310635837 0 0.75000000000032374 0.56698729811007709 0 0.69851598570178741 0.68211701800612057 0 0.56496004948275869 0.67675037307860475 0 0.62752533658682441 0.56838075195614346 0 0.69851598570178741 0.68211701800612057 0 0.76243180583607129 0.78687675331113149 0 0.62844955668446423 0.7850749770380413 0 0.23533274979922561 0.77093399389351469 0 0.18802967116092181 0.89415349436770275 0 0.10409951422139101 0.81206782209691231 0 0.121259140952891 0.43112117036853742 0 0.22257735880419699 0.47344721641341742 0 0.1371230538040123 0.56179824718362847 0 0.75000000000032374 0.56698729811007709 0 0.69851598570178741 0.68211701800612057 0 0.62752533658682441 0.56838075195614346 0 0.56496004948275869 0.67675037307860475 0 0.69851598570178741 0.68211701800612057 0 0.62844955668446423 0.7850749770380413 0 0.1371230538040123 0.56179824718362847 0 0.22257735880419699 0.47344721641341742 0 0.26982811998763367 0.56544650815856912 0 0.21809253452218619 0.65480892822618109 0 0.1371230538040123 0.56179824718362847 0 0.26982811998763367 0.56544650815856912 0 0.24418615484441761 0.35773612382016978 0 0.1082531754734323 0.31250000000117473 0 0.20767261601459541 0.25628918442207171 0 0.88173731489851925 0.33077402607778361 0 0.75000000000057243 0.35048094716480432 0 0.79891106056046712 0.25007334953587562 0 0.75000000000032374 0.56698729811007709 0 0.82212678063041267 0.67678595194836966 0 0.69851598570178741 0.68211701800612057 0 0.81249999999950517 0.1082531754733404 0 0.89658421694297741 0.1933620068391701 0 0.79891106056046712 0.25007334953587562 0 0.81249999999950517 0.1082531754733404 0 0.79891106056046712 0.25007334953587562 0 0.73983916756365475 0.17530677078674589 0 0.23533274979922561 0.77093399389351469 0 0.21809253452218619 0.65480892822618109 0 0.32607333794064219 0.67760114260606152 0 0.1082531754723032 0.6875000000007816 0 0.1371230538040123 0.56179824718362847 0 0.21809253452218619 0.65480892822618109 0 0.69851598570178741 0.68211701800612057 0 0.82212678063041267 0.67678595194836966 0 0.76243180583607129 0.78687675331113149 0 0.69010814643829166 0.89298495739101336 0 0.76243180583607129 0.78687675331113149 0 0.80886664387416207 0.89717308644237903 0 0.43750000000181222 0.89174682452709564 0 0.31258827852827581 0.89214793616708443 0 0.37776173212361452 0.78514649317305008 0 0.43750000000181222 0.89174682452709564 0 0.37500000000156292 1 0 0.31258827852827581 0.89214793616708443 0 0.121259140952891 0.43112117036853742 0 0 0.37500000000156292 0 0.1082531754734323 0.31250000000117473 0 0.50000000000206146 1 0 0.37500000000156292 1 0 0.43750000000181222 0.89174682452709564 0 0.31258827852827581 0.89214793616708443 0 0.18802967116092181 0.89415349436770275 0 0.23533274979922561 0.77093399389351469 0 0 0.50000000000206146 0 0 0.37500000000156292 0 0.121259140952891 0.43112117036853742 0 0.62844955668446423 0.7850749770380413 0 0.69010814643829166 0.89298495739101336 0 0.56327595140699671 0.89211526915426331 0 0.69010814643829166 0.89298495739101336 0 0.62500000000121547 1 0 0.56327595140699671 0.89211526915426331 0 0.25000000000104189 1 0 0.18802967116092181 0.89415349436770275 0 0.31258827852827581 0.89214793616708443 0 0.50000000000206146 1 0 0.43750000000181222 0.89174682452709564 0 0.56327595140699671 0.89211526915426331 0 0.56249999999885147 0.1082531754730395 0 0.62499999999901068 0 0 0.68749999999926592 0.1082531754732875 0 1 0.49999999999869221 0 1 0.62499999999901068 0 0.88927506082488361 0.56409486310635837 0 0 0.25000000000104189 0 0.12076953676380731 0.18690935762408761 0 0.1082531754734323 0.31250000000117473 0 0.49999999999869221 0 0 0.62499999999901068 0 0 0.56249999999885147 0.1082531754730395 0 0.62500000000121547 1 0 0.50000000000206146 1 0 0.56327595140699671 0.89211526915426331 0 0.37500000000156292 1 0 0.25000000000104189 1 0 0.31258827852827581 0.89214793616708443 0 0.31281086598417152 0.10449318608631281 0 0.37499999999904599 0 0 0.43749999999910871 0.1082531754729984 0 0.43750000000181222 0.89174682452709564 0 0.37776173212361452 0.78514649317305008 0 0.50046028868828263 0.78376912307435687 0 0 0.37500000000156292 0 0 0.25000000000104189 0 0.1082531754734323 0.31250000000117473 0 0.49999999999869221 0 0 0.56249999999885147 0.1082531754730395 0 0.43749999999910871 0.1082531754729984 0 0.43750000000181222 0.89174682452709564 0 0.50046028868828263 0.78376912307435687 0 0.56327595140699671 0.89211526915426331 0 0.74999999999934042 0 0 0.81249999999950517 0.1082531754733404 0 0.68749999999926592 0.1082531754732875 0 0.37499999999904599 0 0 0.49999999999869221 0 0 0.43749999999910871 0.1082531754729984 0 0.25000000000104189 1 0 0.12500000000052089 1 0 0.18802967116092181 0.89415349436770275 0 0.50046028868828263 0.78376912307435687 0 0.62844955668446423 0.7850749770380413 0 0.56327595140699671 0.89211526915426331 0 0.37776173212361452 0.78514649317305008 0 0.31258827852827581 0.89214793616708443 0 0.23533274979922561 0.77093399389351469 0 0.62499999999901068 0 0 0.74999999999934042 0 0 0.68749999999926592 0.1082531754732875 0 1 0.74999999999934042 0 1 0.87499999999967015 0 0.89051480781310632 0.79665793440246835 0 0 0.25000000000104189 0 0 0.12500000000052089 0 0.12076953676380731 0.18690935762408761 0 0.74999999999934042 0 0 0.87499999999967015 0 0 0.81249999999950517 0.1082531754733404 0 0.24999999999941069 0 0 0.37499999999904599 0 0 0.31281086598417152 0.10449318608631281 0 0.50046028868828263 0.78376912307435687 0 0.37776173212361452 0.78514649317305008 0 0.44078402250377968 0.67714785211715212 0 0.68768773896438518 0.4586835206367198 0 0.75000000000032374 0.56698729811007709 0 0.62752533658682441 0.56838075195614346 0 0.31411863959822661 0.24965544328045999 0 0.37953773393552892 0.34812185820708452 0 0.24418615484441761 0.35773612382016978 0 0.68768773896438518 0.4586835206367198 0 0.81242894672211508 0.45500248311961472 0 0.75000000000032374 0.56698729811007709 0 1 0.24999999999941069 0 1 0.37499999999904599 0 0.88173731489851925 0.33077402607778361 0 0 0.75000000000034761 0 0 0.62500000000121547 0 0.1082531754723032 0.6875000000007816 0 0.50048844149666749 0.56727788297625459 0 0.44078402250377968 0.67714785211715212 0 0.38694285807596462 0.5672991787102919 0 0.50108503093851109 0.35012252869403671 0 0.44301038174930041 0.45684931552185398 0 0.37953773393552892 0.34812185820708452 0 0.50046028868828263 0.78376912307435687 0 0.56496004948275869 0.67675037307860475 0 0.62844955668446423 0.7850749770380413 0 0.68768773896438518 0.4586835206367198 0 0.75000000000057243 0.35048094716480432 0 0.81242894672211508 0.45500248311961472 0 0.56349980387502452 0.45846841892908402 0 0.62512662990940393 0.35044303886909911 0 0.68768773896438518 0.4586835206367198 0 0.50048844149666749 0.56727788297625459 0 0.38694285807596462 0.5672991787102919 0 0.44301038174930041 0.45684931552185398 0 0.50046028868828263 0.78376912307435687 0 0.44078402250377968 0.67714785211715212 0 0.56496004948275869 0.67675037307860475 0 0.50108503093851109 0.35012252869403671 0 0.37953773393552892 0.34812185820708452 0 0.43750000000200551 0.24222777169198509 0 0.75000000000034761 1 0 0.62500000000121547 1 0 0.69010814643829166 0.89298495739101336 0 0.68768773896438518 0.4586835206367198 0 0.62512662990940393 0.35044303886909911 0 0.75000000000057243 0.35048094716480432 0 0.56496004948275869 0.67675037307860475 0 0.44078402250377968 0.67714785211715212 0 0.50048844149666749 0.56727788297625459 0 0.56349980387502452 0.45846841892908402 0 0.44301038174930041 0.45684931552185398 0 0.50108503093851109 0.35012252869403671 0 0.50048844149666749 0.56727788297625459 0 0.44301038174930041 0.45684931552185398 0 0.56349980387502452 0.45846841892908402 0 0.56349980387502452 0.45846841892908402 0 0.50108503093851109 0.35012252869403671 0 0.62512662990940393 0.35044303886909911 0 0.43750000000200551 0.24222777169198509 0 0.37953773393552892 0.34812185820708452 0 0.31411863959822661 0.24965544328045999 0 0.56496004948275869 0.67675037307860475 0 0.50048844149666749 0.56727788297625459 0 0.62752533658682441 0.56838075195614346 0 0.56349980387502452 0.45846841892908402 0 0.68768773896438518 0.4586835206367198 0 0.62752533658682441 0.56838075195614346 0 0.50048844149666749 0.56727788297625459 0 0.56349980387502452 0.45846841892908402 0 0.62752533658682441 0.56838075195614346 0 0.75000000000057243 0.35048094716480432 0 0.62512662990940393 0.35044303886909911 0 0.68668231842078242 0.24762892664808989 0 0.50108503093851109 0.35012252869403671 0 0.43750000000200551 0.24222777169198509 0 0.56250000000143974 0.2422277716920859 0 0.62512662990940393 0.35044303886909911 0 0.50108503093851109 0.35012252869403671 0 0.56250000000143974 0.2422277716920859 0 0.68668231842078242 0.24762892664808989 0 0.62512662990940393 0.35044303886909911 0 0.56250000000143974 0.2422277716920859 0 0.22257735880419699 0.47344721641341742 0 0.24418615484441761 0.35773612382016978 0 0.32815957677880009 0.4577243358118348 0 0.12076953676380731 0.18690935762408761 0 0.19185372118111221 0.092925648673580788 0 0.25103557339309318 0.17464499738446629 0 0.20767261601459541 0.25628918442207171 0 0.12076953676380731 0.18690935762408761 0 0.25103557339309318 0.17464499738446629 0 0 0.87499999999950151 0 0 0.75000000000034761 0 0.10409951422139101 0.81206782209691231 0 0.1249999999997731 0 0 0.24999999999941069 0 0 0.19185372118111221 0.092925648673580788 0 1 0.1249999999997731 0 1 0.24999999999941069 0 0.89658421694297741 0.1933620068391701 0 0.88927506082488361 0.56409486310635837 0 0.81242894672211508 0.45500248311961472 0 0.915464298762109 0.43749999999886913 0 0.87499999999950151 1 0 0.75000000000034761 1 0 0.80886664387416207 0.89717308644237903 0 0.75000000000034761 1 0 0.69010814643829166 0.89298495739101336 0 0.80886664387416207 0.89717308644237903 0 0.82212678063041267 0.67678595194836966 0 0.88927506082488361 0.56409486310635837 0 0.92266244547590082 0.68749999999917555 0 0 0.75000000000034761 0 0.1082531754723032 0.6875000000007816 0 0.10409951422139101 0.81206782209691231 0 0.24999999999941069 0 0 0.31281086598417152 0.10449318608631281 0 0.19185372118111221 0.092925648673580788 0 1 0.24999999999941069 0 0.88173731489851925 0.33077402607778361 0 0.89658421694297741 0.1933620068391701 0 0.32815957677880009 0.4577243358118348 0 0.38694285807596462 0.5672991787102919 0 0.26982811998763367 0.56544650815856912 0 0.76243180583607129 0.78687675331113149 0 0.89051480781310632 0.79665793440246835 0 0.80886664387416207 0.89717308644237903 0 0.38694285807596462 0.5672991787102919 0 0.44078402250377968 0.67714785211715212 0 0.32607333794064219 0.67760114260606152 0 0.37776173212361452 0.78514649317305008 0 0.23533274979922561 0.77093399389351469 0 0.32607333794064219 0.67760114260606152 0 1 0.49999999999869221 0 0.88927506082488361 0.56409486310635837 0 0.915464298762109 0.43749999999886913 0 0.88173731489851925 0.33077402607778361 0 1 0.37499999999904599 0 0.915464298762109 0.43749999999886913 0 0.24418615484441761 0.35773612382016978 0 0.37953773393552892 0.34812185820708452 0 0.32815957677880009 0.4577243358118348 0 0.44301038174930041 0.45684931552185398 0 0.38694285807596462 0.5672991787102919 0 0.32815957677880009 0.4577243358118348 0 0.88927506082488361 0.56409486310635837 0 1 0.62499999999901068 0 0.92266244547590082 0.68749999999917555 0 1 0.74999999999934042 0 0.89051480781310632 0.79665793440246835 0 0.92266244547590082 0.68749999999917555 0 0 1 0 0 0.87499999999950151 0 0.091506350946494744 0.90849364905351082 0 1 1 0 0.87499999999950151 1 0 0.90849364905363228 0.90849364905367769 0 0 0 0 0.1249999999997731 0 0 0.091506350946417708 0.091506350946618076 0 0 0.12500000000052089 0 0 0 0 0.091506350946417708 0.091506350946618076 0 1 0 0 1 0.1249999999997731 0 0.90849364905355434 0.091506350946296292 0 0.87499999999967015 0 0 1 0 0 0.90849364905355434 0.091506350946296292 0 0.12500000000052089 1 0 0 1 0 0.091506350946494744 0.90849364905351082 0 1 0.87499999999967015 0 1 1 0 0.90849364905363228 0.90849364905367769 0 0.38694285807596462 0.5672991787102919 0 0.32607333794064219 0.67760114260606152 0 0.26982811998763367 0.56544650815856912 0 0.31411863959822661 0.24965544328045999 0 0.24418615484441761 0.35773612382016978 0 0.20767261601459541 0.25628918442207171 0 0.1082531754734323 0.31250000000117473 0 0.12076953676380731 0.18690935762408761 0 0.20767261601459541 0.25628918442207171 0 0.75000000000057243 0.35048094716480432 0 0.68668231842078242 0.24762892664808989 0 0.79891106056046712 0.25007334953587562 0 0.22257735880419699 0.47344721641341742 0 0.32815957677880009 0.4577243358118348 0 0.26982811998763367 0.56544650815856912 0 0.44078402250377968 0.67714785211715212 0 0.37776173212361452 0.78514649317305008 0 0.32607333794064219 0.67760114260606152 0 0.89658421694297741 0.1933620068391701 0 0.88173731489851925 0.33077402607778361 0 0.79891106056046712 0.25007334953587562 0 1 0.37499999999904599 0 1 0.49999999999869221 0 0.915464298762109 0.43749999999886913 0 0.37953773393552892 0.34812185820708452 0 0.44301038174930041 0.45684931552185398 0 0.32815957677880009 0.4577243358118348 0 0.32607333794064219 0.67760114260606152 0 0.21809253452218619 0.65480892822618109 0 0.26982811998763367 0.56544650815856912 0 1 0.1249999999997731 0 0.89658421694297741 0.1933620068391701 0 0.90849364905355434 0.091506350946296292 0 0 0.87499999999950151 0 0.10409951422139101 0.81206782209691231 0 0.091506350946494744 0.90849364905351082 0 0.1249999999997731 0 0 0.19185372118111221 0.092925648673580788 0 0.091506350946417708 0.091506350946618076 0 1 0.62499999999901068 0 1 0.74999999999934042 0 0.92266244547590082 0.68749999999917555 0 0.18802967116092181 0.89415349436770275 0 0.12500000000052089 1 0 0.091506350946494744 0.90849364905351082 0 0.89051480781310632 0.79665793440246835 0 1 0.87499999999967015 0 0.90849364905363228 0.90849364905367769 0 0.12076953676380731 0.18690935762408761 0 0 0.12500000000052089 0 0.091506350946417708 0.091506350946618076 0 0.81249999999950517 0.1082531754733404 0 0.87499999999967015 0 0 0.90849364905355434 0.091506350946296292 0 0.87499999999950151 1 0 0.80886664387416207 0.89717308644237903 0 0.90849364905363228 0.90849364905367769 0 0.68668231842078242 0.24762892664808989 0 0.62499999999892575 0.17524047358135519 0 0.73983916756365475 0.17530677078674589 0 0.31281086598417152 0.10449318608631281 0 0.43749999999910871 0.1082531754729984 0 0.37500000000232431 0.17524047358384309 0 0.62499999999892575 0.17524047358135519 0 0.56250000000143974 0.2422277716920859 0 0.49999999999934441 0.1752404735815076 0 0.56249999999885147 0.1082531754730395 0 0.68749999999926592 0.1082531754732875 0 0.62499999999892575 0.17524047358135519 0 0.56249999999885147 0.1082531754730395 0 0.62499999999892575 0.17524047358135519 0 0.49999999999934441 0.1752404735815076 0 0.56250000000143974 0.2422277716920859 0 0.43750000000200551 0.24222777169198509 0 0.49999999999934441 0.1752404735815076 0 0.43749999999910871 0.1082531754729984 0 0.56249999999885147 0.1082531754730395 0 0.49999999999934441 0.1752404735815076 0 0.68668231842078242 0.24762892664808989 0 0.56250000000143974 0.2422277716920859 0 0.62499999999892575 0.17524047358135519 0 0.43750000000200551 0.24222777169198509 0 0.31411863959822661 0.24965544328045999 0 0.37500000000232431 0.17524047358384309 0 0.49999999999934441 0.1752404735815076 0 0.43750000000200551 0.24222777169198509 0 0.37500000000232431 0.17524047358384309 0 0.43749999999910871 0.1082531754729984 0 0.49999999999934441 0.1752404735815076 0 0.37500000000232431 0.17524047358384309 0 0.62499999999892575 0.17524047358135519 0 0.68749999999926592 0.1082531754732875 0 0.73983916756365475 0.17530677078674589 0 0.68749999999926592 0.1082531754732875 0 0.81249999999950517 0.1082531754733404 0 0.73983916756365475 0.17530677078674589 0 0.10409951422139101 0.81206782209691231 0 0.18802967116092181 0.89415349436770275 0 0.091506350946494744 0.90849364905351082 0 0.89658421694297741 0.1933620068391701 0 0.81249999999950517 0.1082531754733404 0 0.90849364905355434 0.091506350946296292 0 0.19185372118111221 0.092925648673580788 0 0.12076953676380731 0.18690935762408761 0 0.091506350946417708 0.091506350946618076 0 0.37500000000232431 0.17524047358384309 0 0.31411863959822661 0.24965544328045999 0 0.25103557339309318 0.17464499738446629 0 0.31281086598417152 0.10449318608631281 0 0.37500000000232431 0.17524047358384309 0 0.25103557339309318 0.17464499738446629 0 0.80886664387416207 0.89717308644237903 0 0.89051480781310632 0.79665793440246835 0 0.90849364905363228 0.90849364905367769 0 0.19185372118111221 0.092925648673580788 0 0.31281086598417152 0.10449318608631281 0 0.25103557339309318 0.17464499738446629 0 0.79891106056046712 0.25007334953587562 0 0.68668231842078242 0.24762892664808989 0 0.73983916756365475 0.17530677078674589 0 0.31411863959822661 0.24965544328045999 0 0.20767261601459541 0.25628918442207171 0 0.25103557339309318 0.17464499738446629 0 

        </DataArray>

      </Points>

      <Cells>

        <DataArray type="Int32" Name="connectivity" format="ascii">

0 1 2 3 4 5 6 7 8 9 10 11 12 13 14 15 16 17 18 19 20 21 22 23 24 25 26 27 28 29 30 31 32 33 34 35 36 37 38 39 40 41 42 43 44 45 46 47 48 49 50 51 52 53 54 55 56 57 58 59 60 61 62 63 64 65 66 67 68 69 70 71 72 73 74 75 76 77 78 79 80 81 82 83 84 85 86 87 88 89 90 91 92 93 94 95 96 97 98 99 100 101 102 103 104 105 106 107 108 109 110 111 112 113 114 115 116 117 118 119 120 121 122 123 124 125 126 127 128 129 130 131 132 133 134 135 136 137 138 139 140 141 142 143 144 145 146 147 148 149 150 151 152 153 154 155 156 157 158 159 160 161 162 163 164 165 166 167 168 169 170 171 172 173 174 175 176 177 178 179 180 181 182 183 184 185 186 187 188 189 190 191 192 193 194 195 196 197 198 199 200 201 202 203 204 205 206 207 208 209 210 211 212 213 214 215 216 217 218 219 220 221 222 223 224 225 226 227 228 229 230 231 232 233 234 235 236 237 238 239 240 241 242 243 244 245 246 247 248 249 250 251 252 253 254 255 256 257 258 259 260 261 262 263 264 265 266 267 268 269 270 271 272 273 274 275 276 277 278 279 280 281 282 283 284 285 286 287 288 289 290 291 292 293 294 295 296 297 298 299 300 301 302 303 304 305 306 307 308 309 310 311 312 313 314 315 316 317 318 319 320 321 322 323 324 325 326 327 328 329 330 331 332 333 334 335 336 337 338 339 340 341 342 343 344 345 346 347 348 349 350 351 352 353 354 355 356 357 358 359 360 361 362 363 364 365 366 367 368 369 370 371 372 373 374 375 376 377 378 379 380 381 382 383 384 385 386 387 388 389 390 391 392 393 394 395 396 397 398 399 400 401 402 403 404 405 406 407 408 409 410 411 412 413 414 415 416 417 418 419 420 421 422 423 424 425 426 427 428 429 430 431 432 433 434 435 436 437 438 439 440 441 442 443 444 445 446 447 448 449 450 451 452 453 454 455 456 457 458 459 460 461 462 463 464 465 466 467 468 469 470 471 472 473 474 475 476 477 478 479 480 481 482 483 484 485 

        </DataArray>

        <DataArray type="Int32" Name="offsets" format="ascii">

3 6 9 12 15 18 21 24 27 30 33 36 39 42 45 48 51 54 57 60 63 66 69 72 75 78 81 84 87 90 93 96 99 102 105 108 111 114 117 120 123 126 129 132 135 138 141 144 147 150 153 156 159 162 165 168 171 174 177 180 183 186 189 192 195 198 201 204 207 210 213 216 219 222 225 228 231 234 237 240 243 246 249 252 255 258 261 264 267 270 273 276 279 282 285 288 291 294 297 300 303 306 309 312 315 318 321 324 327 330 333 336 339 342 345 348 351 354 357 360 363 366 369 372 375 378 381 384 387 390 393 396 399 402 405 408 411 414 417 420 423 426 429 432 435 438 441 444 447 450 453 456 459 462 465 468 471 474 477 480 483 486 

        </DataArray>

        <DataArray type="Int32" Name="types" format="ascii">

5 5 5 5 5 5 5 5 5 5 5 5 5 5 5 5 5 5 5 5 5 5 5 5 5 5 5 5 5 5 5 5 5 5 5 5 5 5 5 5 5 5 5 5 5 5 5 5 5 5 5 5 5 5 5 5 5 5 5 5 5 5 5 5 5 5 5 5 5 5 5 5 5 5 5 5 5 5 5 5 5 5 5 5 5 5 5 5 5 5 5 5 5 5 5 5 5 5 5 5 5 5 5 5 5 5 5 5 5 5 5 5 5 5 5 5 5 5 5 5 5 5 5 5 5 5 5 5 5 5 5 5 5 5 5 5 5 5 5 5 5 5 5 5 5 5 5 5 5 5 5 5 5 5 5 5 5 5 5 5 5 5 

        </DataArray>

      </Cells>

    </Piece>

  </UnstructuredGrid>

</VTKFile>

