<?xml version="1.0"?>

<VTKFile type="UnstructuredGrid" version="0.1">

  <UnstructuredGrid>

    <Piece NumberOfPoints="486" NumberOfCells="162">

      <PointData>

        <DataArray type="Float64" Name="K" format="ascii">

9.61030111874784265e-01
9.61030111874784265e-01
9.61030111874784265e-01
9.59232538017784520e-01
9.59232538017784520e-01
9.59232538017784520e-01
1.05321002101649475e+00
1.05321002101649475e+00
1.05321002101649475e+00
1.03524755693944015e+00
1.03524755693944015e+00
1.03524755693944015e+00
1.02217974654506993e+00
1.02217974654506993e+00
1.02217974654506993e+00
1.04529194749710075e+00
1.04529194749710075e+00
1.04529194749710075e+00
1.04794587695671360e+00
1.04794587695671360e+00
1.04794587695671360e+00
9.14271675252438243e-01
9.14271675252438243e-01
9.14271675252438243e-01
9.09421835576502691e-01
9.09421835576502691e-01
9.09421835576502691e-01
9.22157717032715984e-01
9.22157717032715984e-01
9.22157717032715984e-01
1.04782107773684618e+00
1.04782107773684618e+00
1.04782107773684618e+00
1.00070678486612330e+00
1.00070678486612330e+00
1.00070678486612330e+00
1.03453173754567285e+00
1.03453173754567285e+00
1.03453173754567285e+00
1.06962685832016446e+00
1.06962685832016446e+00
1.06962685832016446e+00
1.01960059437778883e+00
1.01960059437778883e+00
1.01960059437778883e+00
9.66050648705859105e-01
9.66050648705859105e-01
9.66050648705859105e-01
9.62389825613399696e-01
9.62389825613399696e-01
9.62389825613399696e-01
1.00962891793413401e+00
1.00962891793413401e+00
1.00962891793413401e+00
1.06259895550144101e+00
1.06259895550144101e+00
1.06259895550144101e+00
9.88950819114601587e-01
9.88950819114601587e-01
9.88950819114601587e-01
9.79319544856982249e-01
9.79319544856982249e-01
9.79319544856982249e-01
9.67603060458421371e-01
9.67603060458421371e-01
9.67603060458421371e-01
1.05904548374551633e+00
1.05904548374551633e+00
1.05904548374551633e+00
9.93480530545669538e-01
9.93480530545669538e-01
9.93480530545669538e-01
1.04008422135932466e+00
1.04008422135932466e+00
1.04008422135932466e+00
9.45107467879156449e-01
9.45107467879156449e-01
9.45107467879156449e-01
9.56150214648364694e-01
9.56150214648364694e-01
9.56150214648364694e-01
9.63637412439707575e-01
9.63637412439707575e-01
9.63637412439707575e-01
9.66577409893774830e-01
9.66577409893774830e-01
9.66577409893774830e-01
9.75697486023347604e-01
9.75697486023347604e-01
9.75697486023347604e-01
8.75811765528948571e-01
8.75811765528948571e-01
8.75811765528948571e-01
9.30448181468441105e-01
9.30448181468441105e-01
9.30448181468441105e-01
9.43706786574697531e-01
9.43706786574697531e-01
9.43706786574697531e-01
1.06462870115595232e+00
1.06462870115595232e+00
1.06462870115595232e+00
9.58184689619373753e-01
9.58184689619373753e-01
9.58184689619373753e-01
9.46133855944557678e-01
9.46133855944557678e-01
9.46133855944557678e-01
1.07209127790710590e+00
1.07209127790710590e+00
1.07209127790710590e+00
9.03305567987591429e-01
9.03305567987591429e-01
9.03305567987591429e-01
8.77368940380735984e-01
8.77368940380735984e-01
8.77368940380735984e-01
9.40666843042217593e-01
9.40666843042217593e-01
9.40666843042217593e-01
9.33750519774472321e-01
9.33750519774472321e-01
9.33750519774472321e-01
1.06010413315476892e+00
1.06010413315476892e+00
1.06010413315476892e+00
9.98198631393228286e-01
9.98198631393228286e-01
9.98198631393228286e-01
1.02475767841037002e+00
1.02475767841037002e+00
1.02475767841037002e+00
1.05726667964578058e+00
1.05726667964578058e+00
1.05726667964578058e+00
9.02671214051853910e-01
9.02671214051853910e-01
9.02671214051853910e-01
9.42887590297794564e-01
9.42887590297794564e-01
9.42887590297794564e-01
1.04543886922697316e+00
1.04543886922697316e+00
1.04543886922697316e+00
9.27574860280742208e-01
9.27574860280742208e-01
9.27574860280742208e-01
1.03917624869462011e+00
1.03917624869462011e+00
1.03917624869462011e+00
1.03904931579932480e+00
1.03904931579932480e+00
1.03904931579932480e+00
9.29155850713771603e-01
9.29155850713771603e-01
9.29155850713771603e-01
1.00707470898236751e+00
1.00707470898236751e+00
1.00707470898236751e+00
1.04244972587005358e+00
1.04244972587005358e+00
1.04244972587005358e+00
9.59468741852436358e-01
9.59468741852436358e-01
9.59468741852436358e-01
9.29126157271736974e-01
9.29126157271736974e-01
9.29126157271736974e-01
9.38215710963371752e-01
9.38215710963371752e-01
9.38215710963371752e-01
1.05110685836518991e+00
1.05110685836518991e+00
1.05110685836518991e+00
8.89262068741946354e-01
8.89262068741946354e-01
8.89262068741946354e-01
9.87223670241962559e-01
9.87223670241962559e-01
9.87223670241962559e-01
9.89021777331386964e-01
9.89021777331386964e-01
9.89021777331386964e-01
1.04399154127204152e+00
1.04399154127204152e+00
1.04399154127204152e+00
9.28495562453833467e-01
9.28495562453833467e-01
9.28495562453833467e-01
1.06858777657174064e+00
1.06858777657174064e+00
1.06858777657174064e+00
1.02025033470136051e+00
1.02025033470136051e+00
1.02025033470136051e+00
1.08119675340050647e+00
1.08119675340050647e+00
1.08119675340050647e+00
1.00174173938505939e+00
1.00174173938505939e+00
1.00174173938505939e+00
1.00015576672533357e+00
1.00015576672533357e+00
1.00015576672533357e+00
9.59534813991308022e-01
9.59534813991308022e-01
9.59534813991308022e-01
9.99569132045582509e-01
9.99569132045582509e-01
9.99569132045582509e-01
9.50469610628810968e-01
9.50469610628810968e-01
9.50469610628810968e-01
1.05310392722542367e+00
1.05310392722542367e+00
1.05310392722542367e+00
1.01922034793104554e+00
1.01922034793104554e+00
1.01922034793104554e+00
9.78842510490388396e-01
9.78842510490388396e-01
9.78842510490388396e-01
9.36498855425168419e-01
9.36498855425168419e-01
9.36498855425168419e-01
1.00214159697222294e+00
1.00214159697222294e+00
1.00214159697222294e+00
8.69548675983038311e-01
8.69548675983038311e-01
8.69548675983038311e-01
1.02579465762741062e+00
1.02579465762741062e+00
1.02579465762741062e+00
9.48380048874839288e-01
9.48380048874839288e-01
9.48380048874839288e-01
9.97361940102246658e-01
9.97361940102246658e-01
9.97361940102246658e-01
9.82096558489823579e-01
9.82096558489823579e-01
9.82096558489823579e-01
1.00960662672590784e+00
1.00960662672590784e+00
1.00960662672590784e+00
1.00820899910248363e+00
1.00820899910248363e+00
1.00820899910248363e+00
9.80507469061446923e-01
9.80507469061446923e-01
9.80507469061446923e-01
1.02614873522210348e+00
1.02614873522210348e+00
1.02614873522210348e+00
9.89568576133713962e-01
9.89568576133713962e-01
9.89568576133713962e-01
1.00738774652461105e+00
1.00738774652461105e+00
1.00738774652461105e+00
1.01511448651411995e+00
1.01511448651411995e+00
1.01511448651411995e+00
1.02166199815921588e+00
1.02166199815921588e+00
1.02166199815921588e+00
1.02389340596545053e+00
1.02389340596545053e+00
1.02389340596545053e+00
1.00178796029828399e+00
1.00178796029828399e+00
1.00178796029828399e+00
1.03790401505465257e+00
1.03790401505465257e+00
1.03790401505465257e+00
1.05683918817507738e+00
1.05683918817507738e+00
1.05683918817507738e+00
9.65321871658049502e-01
9.65321871658049502e-01
9.65321871658049502e-01
9.85540977556528808e-01
9.85540977556528808e-01
9.85540977556528808e-01
9.71368703884839979e-01
9.71368703884839979e-01
9.71368703884839979e-01
1.05235778294951698e+00
1.05235778294951698e+00
1.05235778294951698e+00
8.94658266013722003e-01
8.94658266013722003e-01
8.94658266013722003e-01
8.70771406312092044e-01
8.70771406312092044e-01
8.70771406312092044e-01
9.75731483490454798e-01
9.75731483490454798e-01
9.75731483490454798e-01
9.70278644902534682e-01
9.70278644902534682e-01
9.70278644902534682e-01
1.03629975080284931e+00
1.03629975080284931e+00
1.03629975080284931e+00
9.85253267872152616e-01
9.85253267872152616e-01
9.85253267872152616e-01
9.90199726169322725e-01
9.90199726169322725e-01
9.90199726169322725e-01
8.77163007863749344e-01
8.77163007863749344e-01
8.77163007863749344e-01
9.64334639296854812e-01
9.64334639296854812e-01
9.64334639296854812e-01
9.51988417256857011e-01
9.51988417256857011e-01
9.51988417256857011e-01
1.02295118076113423e+00
1.02295118076113423e+00
1.02295118076113423e+00
1.02387073984444088e+00
1.02387073984444088e+00
1.02387073984444088e+00
1.00430015317154520e+00
1.00430015317154520e+00
1.00430015317154520e+00
9.93581372367673743e-01
9.93581372367673743e-01
9.93581372367673743e-01
9.73492404133469269e-01
9.73492404133469269e-01
9.73492404133469269e-01
9.09921780102277977e-01
9.09921780102277977e-01
9.09921780102277977e-01
9.64718384518294392e-01
9.64718384518294392e-01
9.64718384518294392e-01
8.92711977275001400e-01
8.92711977275001400e-01
8.92711977275001400e-01
9.48617808450060940e-01
9.48617808450060940e-01
9.48617808450060940e-01
9.59116744807350097e-01
9.59116744807350097e-01
9.59116744807350097e-01
9.67102240292020077e-01
9.67102240292020077e-01
9.67102240292020077e-01
9.67781470808677935e-01
9.67781470808677935e-01
9.67781470808677935e-01
9.80006866365050633e-01
9.80006866365050633e-01
9.80006866365050633e-01
8.80442529175358257e-01
8.80442529175358257e-01
8.80442529175358257e-01
9.81193318103531720e-01
9.81193318103531720e-01
9.81193318103531720e-01
1.04964399129627006e+00
1.04964399129627006e+00
1.04964399129627006e+00
1.05131800901961459e+00
1.05131800901961459e+00
1.05131800901961459e+00
9.84311109468187562e-01
9.84311109468187562e-01
9.84311109468187562e-01
9.87156157806842405e-01
9.87156157806842405e-01
9.87156157806842405e-01
9.45146134514485703e-01
9.45146134514485703e-01
9.45146134514485703e-01
9.72224250213258756e-01
9.72224250213258756e-01
9.72224250213258756e-01
1.01469847270120384e+00
1.01469847270120384e+00
1.01469847270120384e+00
9.98066759351738497e-01
9.98066759351738497e-01
9.98066759351738497e-01
9.72334863231307800e-01
9.72334863231307800e-01
9.72334863231307800e-01
9.57567073503773569e-01
9.57567073503773569e-01
9.57567073503773569e-01
9.67645136486664503e-01
9.67645136486664503e-01
9.67645136486664503e-01
9.68562371993723414e-01
9.68562371993723414e-01
9.68562371993723414e-01
9.44856105443921290e-01
9.44856105443921290e-01
9.44856105443921290e-01
9.74884217424810573e-01
9.74884217424810573e-01
9.74884217424810573e-01
8.74003038632133689e-01
8.74003038632133689e-01
8.74003038632133689e-01
9.72598237802415722e-01
9.72598237802415722e-01
9.72598237802415722e-01
9.58364737154255741e-01
9.58364737154255741e-01
9.58364737154255741e-01
8.82785866045819212e-01
8.82785866045819212e-01
8.82785866045819212e-01
1.01237799719980304e+00
1.01237799719980304e+00
1.01237799719980304e+00
1.03770719874135198e+00
1.03770719874135198e+00
1.03770719874135198e+00
1.03948774501213115e+00
1.03948774501213115e+00
1.03948774501213115e+00
1.05174241380384315e+00
1.05174241380384315e+00
1.05174241380384315e+00
1.04501191636722002e+00
1.04501191636722002e+00
1.04501191636722002e+00
1.01973979230893552e+00
1.01973979230893552e+00
1.01973979230893552e+00
1.02956260921152198e+00
1.02956260921152198e+00
1.02956260921152198e+00
1.03408693208699809e+00
1.03408693208699809e+00
1.03408693208699809e+00
1.01861117192453943e+00
1.01861117192453943e+00
1.01861117192453943e+00
1.01126017924308398e+00
1.01126017924308398e+00
1.01126017924308398e+00
1.01865398122852469e+00
1.01865398122852469e+00
1.01865398122852469e+00
1.02323100982394055e+00
1.02323100982394055e+00
1.02323100982394055e+00
9.87487996510773791e-01
9.87487996510773791e-01
9.87487996510773791e-01
9.71286947799324452e-01
9.71286947799324452e-01
9.71286947799324452e-01
9.44515018571508325e-01
9.44515018571508325e-01
9.44515018571508325e-01
9.93567002225641205e-01
9.93567002225641205e-01
9.93567002225641205e-01
1.04934342361394939e+00
1.04934342361394939e+00
1.04934342361394939e+00
1.05611901930784846e+00
1.05611901930784846e+00
1.05611901930784846e+00
8.70005565801759584e-01
8.70005565801759584e-01
8.70005565801759584e-01
1.05588550186876384e+00
1.05588550186876384e+00
1.05588550186876384e+00
9.75436960911319928e-01
9.75436960911319928e-01
9.75436960911319928e-01
1.06201232321114714e+00
1.06201232321114714e+00
1.06201232321114714e+00


        </DataArray>

      </PointData>

      <CellData/>

      <Points>

        <DataArray type="Float64" NumberOfComponents="3" format="ascii">

0.1082531754723032 0.6875000000007816 0 0.23533274979922561 0.77093399389351469 0 0.10409951422139101 0.81206782209691231 0 0.23533274979922561 0.77093399389351469 0 0.1082531754723032 0.6875000000007816 0 0.21809253452218619 0.65480892822618109 0 0.24418615484441761 0.35773612382016978 0 0.121259140952891 0.43112117036853742 0 0.1082531754734323 0.31250000000117473 0 0.75000000000057243 0.35048094716480432 0 0.88173731489851925 0.33077402607778361 0 0.81242894672211508 0.45500248311961472 0 0.121259140952891 0.43112117036853742 0 0.24418615484441761 0.35773612382016978 0 0.22257735880419699 0.47344721641341742 0 0.81242894672211508 0.45500248311961472 0 0.88173731489851925 0.33077402607778361 0 0.915464298762109 0.43749999999886913 0 0 0.62500000000121547 0 0 0.50000000000206146 0 0.1371230538040123 0.56179824718362847 0 0.82212678063041267 0.67678595194836966 0 0.89051480781310632 0.79665793440246835 0 0.76243180583607129 0.78687675331113149 0 0.76243180583607129 0.78687675331113149 0 0.69010814643829166 0.89298495739101336 0 0.62844955668446423 0.7850749770380413 0 0.89051480781310632 0.79665793440246835 0 0.82212678063041267 0.67678595194836966 0 0.92266244547590082 0.68749999999917555 0 0 0.50000000000206146 0 0.121259140952891 0.43112117036853742 0 0.1371230538040123 0.56179824718362847 0 0.1082531754723032 0.6875000000007816 0 0 0.62500000000121547 0 0.1371230538040123 0.56179824718362847 0 0.75000000000032374 0.56698729811007709 0 0.88927506082488361 0.56409486310635837 0 0.82212678063041267 0.67678595194836966 0 0.81242894672211508 0.45500248311961472 0 0.88927506082488361 0.56409486310635837 0 0.75000000000032374 0.56698729811007709 0 0.69851598570178741 0.68211701800612057 0 0.56496004948275869 0.67675037307860475 0 0.62752533658682441 0.56838075195614346 0 0.69851598570178741 0.68211701800612057 0 0.76243180583607129 0.78687675331113149 0 0.62844955668446423 0.7850749770380413 0 0.23533274979922561 0.77093399389351469 0 0.18802967116092181 0.89415349436770275 0 0.10409951422139101 0.81206782209691231 0 0.121259140952891 0.43112117036853742 0 0.22257735880419699 0.47344721641341742 0 0.1371230538040123 0.56179824718362847 0 0.75000000000032374 0.56698729811007709 0 0.69851598570178741 0.68211701800612057 0 0.62752533658682441 0.56838075195614346 0 0.56496004948275869 0.67675037307860475 0 0.69851598570178741 0.68211701800612057 0 0.62844955668446423 0.7850749770380413 0 0.1371230538040123 0.56179824718362847 0 0.22257735880419699 0.47344721641341742 0 0.26982811998763367 0.56544650815856912 0 0.21809253452218619 0.65480892822618109 0 0.1371230538040123 0.56179824718362847 0 0.26982811998763367 0.56544650815856912 0 0.24418615484441761 0.35773612382016978 0 0.1082531754734323 0.31250000000117473 0 0.20767261601459541 0.25628918442207171 0 0.88173731489851925 0.33077402607778361 0 0.75000000000057243 0.35048094716480432 0 0.79891106056046712 0.25007334953587562 0 0.75000000000032374 0.56698729811007709 0 0.82212678063041267 0.67678595194836966 0 0.69851598570178741 0.68211701800612057 0 0.81249999999950517 0.1082531754733404 0 0.89658421694297741 0.1933620068391701 0 0.79891106056046712 0.25007334953587562 0 0.81249999999950517 0.1082531754733404 0 0.79891106056046712 0.25007334953587562 0 0.73983916756365475 0.17530677078674589 0 0.23533274979922561 0.77093399389351469 0 0.21809253452218619 0.65480892822618109 0 0.32607333794064219 0.67760114260606152 0 0.1082531754723032 0.6875000000007816 0 0.1371230538040123 0.56179824718362847 0 0.21809253452218619 0.65480892822618109 0 0.69851598570178741 0.68211701800612057 0 0.82212678063041267 0.67678595194836966 0 0.76243180583607129 0.78687675331113149 0 0.69010814643829166 0.89298495739101336 0 0.76243180583607129 0.78687675331113149 0 0.80886664387416207 0.89717308644237903 0 0.43750000000181222 0.89174682452709564 0 0.31258827852827581 0.89214793616708443 0 0.37776173212361452 0.78514649317305008 0 0.43750000000181222 0.89174682452709564 0 0.37500000000156292 1 0 0.31258827852827581 0.89214793616708443 0 0.121259140952891 0.43112117036853742 0 0 0.37500000000156292 0 0.1082531754734323 0.31250000000117473 0 0.50000000000206146 1 0 0.37500000000156292 1 0 0.43750000000181222 0.89174682452709564 0 0.31258827852827581 0.89214793616708443 0 0.18802967116092181 0.89415349436770275 0 0.23533274979922561 0.77093399389351469 0 0 0.50000000000206146 0 0 0.37500000000156292 0 0.121259140952891 0.43112117036853742 0 0.62844955668446423 0.7850749770380413 0 0.69010814643829166 0.89298495739101336 0 0.56327595140699671 0.89211526915426331 0 0.69010814643829166 0.89298495739101336 0 0.62500000000121547 1 0 0.56327595140699671 0.89211526915426331 0 0.25000000000104189 1 0 0.18802967116092181 0.89415349436770275 0 0.31258827852827581 0.89214793616708443 0 0.50000000000206146 1 0 0.43750000000181222 0.89174682452709564 0 0.56327595140699671 0.89211526915426331 0 0.56249999999885147 0.1082531754730395 0 0.62499999999901068 0 0 0.68749999999926592 0.1082531754732875 0 1 0.49999999999869221 0 1 0.62499999999901068 0 0.88927506082488361 0.56409486310635837 0 0 0.25000000000104189 0 0.12076953676380731 0.18690935762408761 0 0.1082531754734323 0.31250000000117473 0 0.49999999999869221 0 0 0.62499999999901068 0 0 0.56249999999885147 0.1082531754730395 0 0.62500000000121547 1 0 0.50000000000206146 1 0 0.56327595140699671 0.89211526915426331 0 0.37500000000156292 1 0 0.25000000000104189 1 0 0.31258827852827581 0.89214793616708443 0 0.31281086598417152 0.10449318608631281 0 0.37499999999904599 0 0 0.43749999999910871 0.1082531754729984 0 0.43750000000181222 0.89174682452709564 0 0.37776173212361452 0.78514649317305008 0 0.50046028868828263 0.78376912307435687 0 0 0.37500000000156292 0 0 0.25000000000104189 0 0.1082531754734323 0.31250000000117473 0 0.49999999999869221 0 0 0.56249999999885147 0.1082531754730395 0 0.43749999999910871 0.1082531754729984 0 0.43750000000181222 0.89174682452709564 0 0.50046028868828263 0.78376912307435687 0 0.56327595140699671 0.89211526915426331 0 0.74999999999934042 0 0 0.81249999999950517 0.1082531754733404 0 0.68749999999926592 0.1082531754732875 0 0.37499999999904599 0 0 0.49999999999869221 0 0 0.43749999999910871 0.1082531754729984 0 0.25000000000104189 1 0 0.12500000000052089 1 0 0.18802967116092181 0.89415349436770275 0 0.50046028868828263 0.78376912307435687 0 0.62844955668446423 0.7850749770380413 0 0.56327595140699671 0.89211526915426331 0 0.37776173212361452 0.78514649317305008 0 0.31258827852827581 0.89214793616708443 0 0.23533274979922561 0.77093399389351469 0 0.62499999999901068 0 0 0.74999999999934042 0 0 0.68749999999926592 0.1082531754732875 0 1 0.74999999999934042 0 1 0.87499999999967015 0 0.89051480781310632 0.79665793440246835 0 0 0.25000000000104189 0 0 0.12500000000052089 0 0.12076953676380731 0.18690935762408761 0 0.74999999999934042 0 0 0.87499999999967015 0 0 0.81249999999950517 0.1082531754733404 0 0.24999999999941069 0 0 0.37499999999904599 0 0 0.31281086598417152 0.10449318608631281 0 0.50046028868828263 0.78376912307435687 0 0.37776173212361452 0.78514649317305008 0 0.44078402250377968 0.67714785211715212 0 0.68768773896438518 0.4586835206367198 0 0.75000000000032374 0.56698729811007709 0 0.62752533658682441 0.56838075195614346 0 0.31411863959822661 0.24965544328045999 0 0.37953773393552892 0.34812185820708452 0 0.24418615484441761 0.35773612382016978 0 0.68768773896438518 0.4586835206367198 0 0.81242894672211508 0.45500248311961472 0 0.75000000000032374 0.56698729811007709 0 1 0.24999999999941069 0 1 0.37499999999904599 0 0.88173731489851925 0.33077402607778361 0 0 0.75000000000034761 0 0 0.62500000000121547 0 0.1082531754723032 0.6875000000007816 0 0.50048844149666749 0.56727788297625459 0 0.44078402250377968 0.67714785211715212 0 0.38694285807596462 0.5672991787102919 0 0.50108503093851109 0.35012252869403671 0 0.44301038174930041 0.45684931552185398 0 0.37953773393552892 0.34812185820708452 0 0.50046028868828263 0.78376912307435687 0 0.56496004948275869 0.67675037307860475 0 0.62844955668446423 0.7850749770380413 0 0.68768773896438518 0.4586835206367198 0 0.75000000000057243 0.35048094716480432 0 0.81242894672211508 0.45500248311961472 0 0.56349980387502452 0.45846841892908402 0 0.62512662990940393 0.35044303886909911 0 0.68768773896438518 0.4586835206367198 0 0.50048844149666749 0.56727788297625459 0 0.38694285807596462 0.5672991787102919 0 0.44301038174930041 0.45684931552185398 0 0.50046028868828263 0.78376912307435687 0 0.44078402250377968 0.67714785211715212 0 0.56496004948275869 0.67675037307860475 0 0.50108503093851109 0.35012252869403671 0 0.37953773393552892 0.34812185820708452 0 0.43750000000200551 0.24222777169198509 0 0.75000000000034761 1 0 0.62500000000121547 1 0 0.69010814643829166 0.89298495739101336 0 0.68768773896438518 0.4586835206367198 0 0.62512662990940393 0.35044303886909911 0 0.75000000000057243 0.35048094716480432 0 0.56496004948275869 0.67675037307860475 0 0.44078402250377968 0.67714785211715212 0 0.50048844149666749 0.56727788297625459 0 0.56349980387502452 0.45846841892908402 0 0.44301038174930041 0.45684931552185398 0 0.50108503093851109 0.35012252869403671 0 0.50048844149666749 0.56727788297625459 0 0.44301038174930041 0.45684931552185398 0 0.56349980387502452 0.45846841892908402 0 0.56349980387502452 0.45846841892908402 0 0.50108503093851109 0.35012252869403671 0 0.62512662990940393 0.35044303886909911 0 0.43750000000200551 0.24222777169198509 0 0.37953773393552892 0.34812185820708452 0 0.31411863959822661 0.24965544328045999 0 0.56496004948275869 0.67675037307860475 0 0.50048844149666749 0.56727788297625459 0 0.62752533658682441 0.56838075195614346 0 0.56349980387502452 0.45846841892908402 0 0.68768773896438518 0.4586835206367198 0 0.62752533658682441 0.56838075195614346 0 0.50048844149666749 0.56727788297625459 0 0.56349980387502452 0.45846841892908402 0 0.62752533658682441 0.56838075195614346 0 0.75000000000057243 0.35048094716480432 0 0.62512662990940393 0.35044303886909911 0 0.68668231842078242 0.24762892664808989 0 0.50108503093851109 0.35012252869403671 0 0.43750000000200551 0.24222777169198509 0 0.56250000000143974 0.2422277716920859 0 0.62512662990940393 0.35044303886909911 0 0.50108503093851109 0.35012252869403671 0 0.56250000000143974 0.2422277716920859 0 0.68668231842078242 0.24762892664808989 0 0.62512662990940393 0.35044303886909911 0 0.56250000000143974 0.2422277716920859 0 0.22257735880419699 0.47344721641341742 0 0.24418615484441761 0.35773612382016978 0 0.32815957677880009 0.4577243358118348 0 0.12076953676380731 0.18690935762408761 0 0.19185372118111221 0.092925648673580788 0 0.25103557339309318 0.17464499738446629 0 0.20767261601459541 0.25628918442207171 0 0.12076953676380731 0.18690935762408761 0 0.25103557339309318 0.17464499738446629 0 0 0.87499999999950151 0 0 0.75000000000034761 0 0.10409951422139101 0.81206782209691231 0 0.1249999999997731 0 0 0.24999999999941069 0 0 0.19185372118111221 0.092925648673580788 0 1 0.1249999999997731 0 1 0.24999999999941069 0 0.89658421694297741 0.1933620068391701 0 0.88927506082488361 0.56409486310635837 0 0.81242894672211508 0.45500248311961472 0 0.915464298762109 0.43749999999886913 0 0.87499999999950151 1 0 0.75000000000034761 1 0 0.80886664387416207 0.89717308644237903 0 0.75000000000034761 1 0 0.69010814643829166 0.89298495739101336 0 0.80886664387416207 0.89717308644237903 0 0.82212678063041267 0.67678595194836966 0 0.88927506082488361 0.56409486310635837 0 0.92266244547590082 0.68749999999917555 0 0 0.75000000000034761 0 0.1082531754723032 0.6875000000007816 0 0.10409951422139101 0.81206782209691231 0 0.24999999999941069 0 0 0.31281086598417152 0.10449318608631281 0 0.19185372118111221 0.092925648673580788 0 1 0.24999999999941069 0 0.88173731489851925 0.33077402607778361 0 0.89658421694297741 0.1933620068391701 0 0.32815957677880009 0.4577243358118348 0 0.38694285807596462 0.5672991787102919 0 0.26982811998763367 0.56544650815856912 0 0.76243180583607129 0.78687675331113149 0 0.89051480781310632 0.79665793440246835 0 0.80886664387416207 0.89717308644237903 0 0.38694285807596462 0.5672991787102919 0 0.44078402250377968 0.67714785211715212 0 0.32607333794064219 0.67760114260606152 0 0.37776173212361452 0.78514649317305008 0 0.23533274979922561 0.77093399389351469 0 0.32607333794064219 0.67760114260606152 0 1 0.49999999999869221 0 0.88927506082488361 0.56409486310635837 0 0.915464298762109 0.43749999999886913 0 0.88173731489851925 0.33077402607778361 0 1 0.37499999999904599 0 0.915464298762109 0.43749999999886913 0 0.24418615484441761 0.35773612382016978 0 0.37953773393552892 0.34812185820708452 0 0.32815957677880009 0.4577243358118348 0 0.44301038174930041 0.45684931552185398 0 0.38694285807596462 0.5672991787102919 0 0.32815957677880009 0.4577243358118348 0 0.88927506082488361 0.56409486310635837 0 1 0.62499999999901068 0 0.92266244547590082 0.68749999999917555 0 1 0.74999999999934042 0 0.89051480781310632 0.79665793440246835 0 0.92266244547590082 0.68749999999917555 0 0 1 0 0 0.87499999999950151 0 0.091506350946494744 0.90849364905351082 0 1 1 0 0.87499999999950151 1 0 0.90849364905363228 0.90849364905367769 0 0 0 0 0.1249999999997731 0 0 0.091506350946417708 0.091506350946618076 0 0 0.12500000000052089 0 0 0 0 0.091506350946417708 0.091506350946618076 0 1 0 0 1 0.1249999999997731 0 0.90849364905355434 0.091506350946296292 0 0.87499999999967015 0 0 1 0 0 0.90849364905355434 0.091506350946296292 0 0.12500000000052089 1 0 0 1 0 0.091506350946494744 0.90849364905351082 0 1 0.87499999999967015 0 1 1 0 0.90849364905363228 0.90849364905367769 0 0.38694285807596462 0.5672991787102919 0 0.32607333794064219 0.67760114260606152 0 0.26982811998763367 0.56544650815856912 0 0.31411863959822661 0.24965544328045999 0 0.24418615484441761 0.35773612382016978 0 0.20767261601459541 0.25628918442207171 0 0.1082531754734323 0.31250000000117473 0 0.12076953676380731 0.18690935762408761 0 0.20767261601459541 0.25628918442207171 0 0.75000000000057243 0.35048094716480432 0 0.68668231842078242 0.24762892664808989 0 0.79891106056046712 0.25007334953587562 0 0.22257735880419699 0.47344721641341742 0 0.32815957677880009 0.4577243358118348 0 0.26982811998763367 0.56544650815856912 0 0.44078402250377968 0.67714785211715212 0 0.37776173212361452 0.78514649317305008 0 0.32607333794064219 0.67760114260606152 0 0.89658421694297741 0.1933620068391701 0 0.88173731489851925 0.33077402607778361 0 0.79891106056046712 0.25007334953587562 0 1 0.37499999999904599 0 1 0.49999999999869221 0 0.915464298762109 0.43749999999886913 0 0.37953773393552892 0.34812185820708452 0 0.44301038174930041 0.45684931552185398 0 0.32815957677880009 0.4577243358118348 0 0.32607333794064219 0.67760114260606152 0 0.21809253452218619 0.65480892822618109 0 0.26982811998763367 0.56544650815856912 0 1 0.1249999999997731 0 0.89658421694297741 0.1933620068391701 0 0.90849364905355434 0.091506350946296292 0 0 0.87499999999950151 0 0.10409951422139101 0.81206782209691231 0 0.091506350946494744 0.90849364905351082 0 0.1249999999997731 0 0 0.19185372118111221 0.092925648673580788 0 0.091506350946417708 0.091506350946618076 0 1 0.62499999999901068 0 1 0.74999999999934042 0 0.92266244547590082 0.68749999999917555 0 0.18802967116092181 0.89415349436770275 0 0.12500000000052089 1 0 0.091506350946494744 0.90849364905351082 0 0.89051480781310632 0.79665793440246835 0 1 0.87499999999967015 0 0.90849364905363228 0.90849364905367769 0 0.12076953676380731 0.18690935762408761 0 0 0.12500000000052089 0 0.091506350946417708 0.091506350946618076 0 0.81249999999950517 0.1082531754733404 0 0.87499999999967015 0 0 0.90849364905355434 0.091506350946296292 0 0.87499999999950151 1 0 0.80886664387416207 0.89717308644237903 0 0.90849364905363228 0.90849364905367769 0 0.68668231842078242 0.24762892664808989 0 0.62499999999892575 0.17524047358135519 0 0.73983916756365475 0.17530677078674589 0 0.31281086598417152 0.10449318608631281 0 0.43749999999910871 0.1082531754729984 0 0.37500000000232431 0.17524047358384309 0 0.62499999999892575 0.17524047358135519 0 0.56250000000143974 0.2422277716920859 0 0.49999999999934441 0.1752404735815076 0 0.56249999999885147 0.1082531754730395 0 0.68749999999926592 0.1082531754732875 0 0.62499999999892575 0.17524047358135519 0 0.56249999999885147 0.1082531754730395 0 0.62499999999892575 0.17524047358135519 0 0.49999999999934441 0.1752404735815076 0 0.56250000000143974 0.2422277716920859 0 0.43750000000200551 0.24222777169198509 0 0.49999999999934441 0.1752404735815076 0 0.43749999999910871 0.1082531754729984 0 0.56249999999885147 0.1082531754730395 0 0.49999999999934441 0.1752404735815076 0 0.68668231842078242 0.24762892664808989 0 0.56250000000143974 0.2422277716920859 0 0.62499999999892575 0.17524047358135519 0 0.43750000000200551 0.24222777169198509 0 0.31411863959822661 0.24965544328045999 0 0.37500000000232431 0.17524047358384309 0 0.49999999999934441 0.1752404735815076 0 0.43750000000200551 0.24222777169198509 0 0.37500000000232431 0.17524047358384309 0 0.43749999999910871 0.1082531754729984 0 0.49999999999934441 0.1752404735815076 0 0.37500000000232431 0.17524047358384309 0 0.62499999999892575 0.17524047358135519 0 0.68749999999926592 0.1082531754732875 0 0.73983916756365475 0.17530677078674589 0 0.68749999999926592 0.1082531754732875 0 0.81249999999950517 0.1082531754733404 0 0.73983916756365475 0.17530677078674589 0 0.10409951422139101 0.81206782209691231 0 0.18802967116092181 0.89415349436770275 0 0.091506350946494744 0.90849364905351082 0 0.89658421694297741 0.1933620068391701 0 0.81249999999950517 0.1082531754733404 0 0.90849364905355434 0.091506350946296292 0 0.19185372118111221 0.092925648673580788 0 0.12076953676380731 0.18690935762408761 0 0.091506350946417708 0.091506350946618076 0 0.37500000000232431 0.17524047358384309 0 0.31411863959822661 0.24965544328045999 0 0.25103557339309318 0.17464499738446629 0 0.31281086598417152 0.10449318608631281 0 0.37500000000232431 0.17524047358384309 0 0.25103557339309318 0.17464499738446629 0 0.80886664387416207 0.89717308644237903 0 0.89051480781310632 0.79665793440246835 0 0.90849364905363228 0.90849364905367769 0 0.19185372118111221 0.092925648673580788 0 0.31281086598417152 0.10449318608631281 0 0.25103557339309318 0.17464499738446629 0 0.79891106056046712 0.25007334953587562 0 0.68668231842078242 0.24762892664808989 0 0.73983916756365475 0.17530677078674589 0 0.31411863959822661 0.24965544328045999 0 0.20767261601459541 0.25628918442207171 0 0.25103557339309318 0.17464499738446629 0 

        </DataArray>

      </Points>

      <Cells>

        <DataArray type="Int32" Name="connectivity" format="ascii">

0 1 2 3 4 5 6 7 8 9 10 11 12 13 14 15 16 17 18 19 20 21 22 23 24 25 26 27 28 29 30 31 32 33 34 35 36 37 38 39 40 41 42 43 44 45 46 47 48 49 50 51 52 53 54 55 56 57 58 59 60 61 62 63 64 65 66 67 68 69 70 71 72 73 74 75 76 77 78 79 80 81 82 83 84 85 86 87 88 89 90 91 92 93 94 95 96 97 98 99 100 101 102 103 104 105 106 107 108 109 110 111 112 113 114 115 116 117 118 119 120 121 122 123 124 125 126 127 128 129 130 131 132 133 134 135 136 137 138 139 140 141 142 143 144 145 146 147 148 149 150 151 152 153 154 155 156 157 158 159 160 161 162 163 164 165 166 167 168 169 170 171 172 173 174 175 176 177 178 179 180 181 182 183 184 185 186 187 188 189 190 191 192 193 194 195 196 197 198 199 200 201 202 203 204 205 206 207 208 209 210 211 212 213 214 215 216 217 218 219 220 221 222 223 224 225 226 227 228 229 230 231 232 233 234 235 236 237 238 239 240 241 242 243 244 245 246 247 248 249 250 251 252 253 254 255 256 257 258 259 260 261 262 263 264 265 266 267 268 269 270 271 272 273 274 275 276 277 278 279 280 281 282 283 284 285 286 287 288 289 290 291 292 293 294 295 296 297 298 299 300 301 302 303 304 305 306 307 308 309 310 311 312 313 314 315 316 317 318 319 320 321 322 323 324 325 326 327 328 329 330 331 332 333 334 335 336 337 338 339 340 341 342 343 344 345 346 347 348 349 350 351 352 353 354 355 356 357 358 359 360 361 362 363 364 365 366 367 368 369 370 371 372 373 374 375 376 377 378 379 380 381 382 383 384 385 386 387 388 389 390 391 392 393 394 395 396 397 398 399 400 401 402 403 404 405 406 407 408 409 410 411 412 413 414 415 416 417 418 419 420 421 422 423 424 425 426 427 428 429 430 431 432 433 434 435 436 437 438 439 440 441 442 443 444 445 446 447 448 449 450 451 452 453 454 455 456 457 458 459 460 461 462 463 464 465 466 467 468 469 470 471 472 473 474 475 476 477 478 479 480 481 482 483 484 485 

        </DataArray>

        <DataArray type="Int32" Name="offsets" format="ascii">

3 6 9 12 15 18 21 24 27 30 33 36 39 42 45 48 51 54 57 60 63 66 69 72 75 78 81 84 87 90 93 96 99 102 105 108 111 114 117 120 123 126 129 132 135 138 141 144 147 150 153 156 159 162 165 168 171 174 177 180 183 186 189 192 195 198 201 204 207 210 213 216 219 222 225 228 231 234 237 240 243 246 249 252 255 258 261 264 267 270 273 276 279 282 285 288 291 294 297 300 303 306 309 312 315 318 321 324 327 330 333 336 339 342 345 348 351 354 357 360 363 366 369 372 375 378 381 384 387 390 393 396 399 402 405 408 411 414 417 420 423 426 429 432 435 438 441 444 447 450 453 456 459 462 465 468 471 474 477 480 483 486 

        </DataArray>

        <DataArray type="Int32" Name="types" format="ascii">

5 5 5 5 5 5 5 5 5 5 5 5 5 5 5 5 5 5 5 5 5 5 5 5 5 5 5 5 5 5 5 5 5 5 5 5 5 5 5 5 5 5 5 5 5 5 5 5 5 5 5 5 5 5 5 5 5 5 5 5 5 5 5 5 5 5 5 5 5 5 5 5 5 5 5 5 5 5 5 5 5 5 5 5 5 5 5 5 5 5 5 5 5 5 5 5 5 5 5 5 5 5 5 5 5 5 5 5 5 5 5 5 5 5 5 5 5 5 5 5 5 5 5 5 5 5 5 5 5 5 5 5 5 5 5 5 5 5 5 5 5 5 5 5 5 5 5 5 5 5 5 5 5 5 5 5 5 5 5 5 5 5 

        </DataArray>

      </Cells>

    </Piece>

  </UnstructuredGrid>

</VTKFile>

