<?xml version="1.0"?>

<VTKFile type="UnstructuredGrid" version="0.1">

  <UnstructuredGrid>

    <Piece NumberOfPoints="486" NumberOfCells="162">

      <PointData>

        <DataArray type="Float64" Name="K" format="ascii">

9.14038121279690086e-01
9.14038121279690086e-01
9.14038121279690086e-01
9.07603698449492624e-01
9.07603698449492624e-01
9.07603698449492624e-01
1.02761623120789225e+00
1.02761623120789225e+00
1.02761623120789225e+00
9.50016444933612481e-01
9.50016444933612481e-01
9.50016444933612481e-01
1.00549368085721436e+00
1.00549368085721436e+00
1.00549368085721436e+00
9.80446046973435625e-01
9.80446046973435625e-01
9.80446046973435625e-01
9.20433817485169170e-01
9.20433817485169170e-01
9.20433817485169170e-01
9.67579073356712782e-01
9.67579073356712782e-01
9.67579073356712782e-01
9.78665515689299270e-01
9.78665515689299270e-01
9.78665515689299270e-01
9.94083743780609042e-01
9.94083743780609042e-01
9.94083743780609042e-01
9.43477728678761673e-01
9.43477728678761673e-01
9.43477728678761673e-01
9.06045746843073374e-01
9.06045746843073374e-01
9.06045746843073374e-01
9.59862740680477389e-01
9.59862740680477389e-01
9.59862740680477389e-01
9.51155020144429875e-01
9.51155020144429875e-01
9.51155020144429875e-01
9.06861845183563720e-01
9.06861845183563720e-01
9.06861845183563720e-01
9.54641958460648365e-01
9.54641958460648365e-01
9.54641958460648365e-01
9.53786086754155438e-01
9.53786086754155438e-01
9.53786086754155438e-01
9.61890632696681069e-01
9.61890632696681069e-01
9.61890632696681069e-01
9.01611028521277724e-01
9.01611028521277724e-01
9.01611028521277724e-01
9.34478452147961103e-01
9.34478452147961103e-01
9.34478452147961103e-01
9.34807548114366504e-01
9.34807548114366504e-01
9.34807548114366504e-01
9.11212508545767519e-01
9.11212508545767519e-01
9.11212508545767519e-01
1.05539178788668120e+00
1.05539178788668120e+00
1.05539178788668120e+00
9.64023825002997659e-01
9.64023825002997659e-01
9.64023825002997659e-01
9.31545895674529723e-01
9.31545895674529723e-01
9.31545895674529723e-01
1.01222182989349840e+00
1.01222182989349840e+00
1.01222182989349840e+00
1.01403863510411396e+00
1.01403863510411396e+00
1.01403863510411396e+00
9.25007551561059405e-01
9.25007551561059405e-01
9.25007551561059405e-01
8.99770449350357993e-01
8.99770449350357993e-01
8.99770449350357993e-01
9.47823062157342577e-01
9.47823062157342577e-01
9.47823062157342577e-01
9.68563285251410888e-01
9.68563285251410888e-01
9.68563285251410888e-01
9.69614526900460127e-01
9.69614526900460127e-01
9.69614526900460127e-01
9.98040465497803342e-01
9.98040465497803342e-01
9.98040465497803342e-01
9.88277591480619444e-01
9.88277591480619444e-01
9.88277591480619444e-01
1.01389961691464947e+00
1.01389961691464947e+00
1.01389961691464947e+00
9.88315156332593370e-01
9.88315156332593370e-01
9.88315156332593370e-01
9.52306932084876268e-01
9.52306932084876268e-01
9.52306932084876268e-01
1.00332258967459831e+00
1.00332258967459831e+00
1.00332258967459831e+00
1.02840280770255288e+00
1.02840280770255288e+00
1.02840280770255288e+00
1.01210680331583958e+00
1.01210680331583958e+00
1.01210680331583958e+00
1.00982749075804001e+00
1.00982749075804001e+00
1.00982749075804001e+00
9.93393225602744678e-01
9.93393225602744678e-01
9.93393225602744678e-01
1.01123472933600311e+00
1.01123472933600311e+00
1.01123472933600311e+00
1.02551939144480397e+00
1.02551939144480397e+00
1.02551939144480397e+00
9.99414896018437027e-01
9.99414896018437027e-01
9.99414896018437027e-01
1.04115906927389212e+00
1.04115906927389212e+00
1.04115906927389212e+00
1.01665813413344774e+00
1.01665813413344774e+00
1.01665813413344774e+00
1.05438496576555196e+00
1.05438496576555196e+00
1.05438496576555196e+00
9.42436034086213237e-01
9.42436034086213237e-01
9.42436034086213237e-01
9.96765103346584636e-01
9.96765103346584636e-01
9.96765103346584636e-01
1.04184202595112074e+00
1.04184202595112074e+00
1.04184202595112074e+00
9.69711794150224349e-01
9.69711794150224349e-01
9.69711794150224349e-01
1.02606733979377385e+00
1.02606733979377385e+00
1.02606733979377385e+00
1.04969294639816701e+00
1.04969294639816701e+00
1.04969294639816701e+00
1.00741706850994550e+00
1.00741706850994550e+00
1.00741706850994550e+00
9.73191604478851224e-01
9.73191604478851224e-01
9.73191604478851224e-01
9.73582728976119305e-01
9.73582728976119305e-01
9.73582728976119305e-01
9.91047800447333871e-01
9.91047800447333871e-01
9.91047800447333871e-01
1.05666575616254588e+00
1.05666575616254588e+00
1.05666575616254588e+00
1.03723964173510219e+00
1.03723964173510219e+00
1.03723964173510219e+00
1.04470880045417025e+00
1.04470880045417025e+00
1.04470880045417025e+00
1.01796728436012573e+00
1.01796728436012573e+00
1.01796728436012573e+00
9.17970863748719945e-01
9.17970863748719945e-01
9.17970863748719945e-01
8.90906514529707261e-01
8.90906514529707261e-01
8.90906514529707261e-01
1.04074855395012755e+00
1.04074855395012755e+00
1.04074855395012755e+00
9.05034068750746767e-01
9.05034068750746767e-01
9.05034068750746767e-01
1.00111406067550091e+00
1.00111406067550091e+00
1.00111406067550091e+00
9.20697117318971525e-01
9.20697117318971525e-01
9.20697117318971525e-01
9.15041713171556137e-01
9.15041713171556137e-01
9.15041713171556137e-01
1.00393064009725630e+00
1.00393064009725630e+00
1.00393064009725630e+00
9.36007286733855581e-01
9.36007286733855581e-01
9.36007286733855581e-01
9.12881576379711235e-01
9.12881576379711235e-01
9.12881576379711235e-01
9.45579455176049688e-01
9.45579455176049688e-01
9.45579455176049688e-01
9.36989073816066109e-01
9.36989073816066109e-01
9.36989073816066109e-01
9.10776376114594499e-01
9.10776376114594499e-01
9.10776376114594499e-01
1.03653652917502725e+00
1.03653652917502725e+00
1.03653652917502725e+00
1.01186709825990739e+00
1.01186709825990739e+00
1.01186709825990739e+00
9.29615390354918358e-01
9.29615390354918358e-01
9.29615390354918358e-01
9.07804689654992392e-01
9.07804689654992392e-01
9.07804689654992392e-01
9.94850763615979239e-01
9.94850763615979239e-01
9.94850763615979239e-01
9.57660018299444471e-01
9.57660018299444471e-01
9.57660018299444471e-01
9.99611151731953140e-01
9.99611151731953140e-01
9.99611151731953140e-01
1.04921547212096966e+00
1.04921547212096966e+00
1.04921547212096966e+00
9.07806126887772291e-01
9.07806126887772291e-01
9.07806126887772291e-01
9.13204500381562090e-01
9.13204500381562090e-01
9.13204500381562090e-01
9.26913141190326639e-01
9.26913141190326639e-01
9.26913141190326639e-01
9.65105693422078526e-01
9.65105693422078526e-01
9.65105693422078526e-01
1.05012414351146433e+00
1.05012414351146433e+00
1.05012414351146433e+00
1.02894627840018305e+00
1.02894627840018305e+00
1.02894627840018305e+00
1.01063518534098606e+00
1.01063518534098606e+00
1.01063518534098606e+00
9.86759322946710538e-01
9.86759322946710538e-01
9.86759322946710538e-01
1.04774665482173934e+00
1.04774665482173934e+00
1.04774665482173934e+00
1.06063680467640875e+00
1.06063680467640875e+00
1.06063680467640875e+00
9.54092742080856038e-01
9.54092742080856038e-01
9.54092742080856038e-01
1.01244521600914616e+00
1.01244521600914616e+00
1.01244521600914616e+00
1.00821286650371600e+00
1.00821286650371600e+00
1.00821286650371600e+00
9.85032214515229820e-01
9.85032214515229820e-01
9.85032214515229820e-01
9.81846382971742093e-01
9.81846382971742093e-01
9.81846382971742093e-01
9.79797767469641645e-01
9.79797767469641645e-01
9.79797767469641645e-01
9.92911122176740601e-01
9.92911122176740601e-01
9.92911122176740601e-01
9.17119269365535672e-01
9.17119269365535672e-01
9.17119269365535672e-01
1.01927029998217678e+00
1.01927029998217678e+00
1.01927029998217678e+00
1.00078205015767208e+00
1.00078205015767208e+00
1.00078205015767208e+00
9.23634573284446092e-01
9.23634573284446092e-01
9.23634573284446092e-01
9.68208523607497318e-01
9.68208523607497318e-01
9.68208523607497318e-01
9.12493364742817392e-01
9.12493364742817392e-01
9.12493364742817392e-01
9.44208118313438427e-01
9.44208118313438427e-01
9.44208118313438427e-01
1.00521496743813099e+00
1.00521496743813099e+00
1.00521496743813099e+00
1.00019513419587813e+00
1.00019513419587813e+00
1.00019513419587813e+00
9.98859658258192451e-01
9.98859658258192451e-01
9.98859658258192451e-01
9.40247314173461746e-01
9.40247314173461746e-01
9.40247314173461746e-01
1.01529172825042946e+00
1.01529172825042946e+00
1.01529172825042946e+00
1.03168057908867561e+00
1.03168057908867561e+00
1.03168057908867561e+00
9.99361647240543993e-01
9.99361647240543993e-01
9.99361647240543993e-01
1.03660609519611269e+00
1.03660609519611269e+00
1.03660609519611269e+00
1.04044550727560026e+00
1.04044550727560026e+00
1.04044550727560026e+00
1.04744524969953989e+00
1.04744524969953989e+00
1.04744524969953989e+00
1.02185011833318828e+00
1.02185011833318828e+00
1.02185011833318828e+00
1.03369025556489302e+00
1.03369025556489302e+00
1.03369025556489302e+00
1.00237685110501173e+00
1.00237685110501173e+00
1.00237685110501173e+00
1.06087453560268208e+00
1.06087453560268208e+00
1.06087453560268208e+00
9.12337769062307902e-01
9.12337769062307902e-01
9.12337769062307902e-01
1.06413237351036605e+00
1.06413237351036605e+00
1.06413237351036605e+00
1.04933676786062646e+00
1.04933676786062646e+00
1.04933676786062646e+00
9.67802769811270225e-01
9.67802769811270225e-01
9.67802769811270225e-01
9.42610328896502647e-01
9.42610328896502647e-01
9.42610328896502647e-01
9.21817283721679481e-01
9.21817283721679481e-01
9.21817283721679481e-01
9.90986614048637637e-01
9.90986614048637637e-01
9.90986614048637637e-01
1.00021357051096427e+00
1.00021357051096427e+00
1.00021357051096427e+00
9.74541573183163035e-01
9.74541573183163035e-01
9.74541573183163035e-01
9.11762156467120000e-01
9.11762156467120000e-01
9.11762156467120000e-01
1.01499936167610438e+00
1.01499936167610438e+00
1.01499936167610438e+00
9.62535775395798598e-01
9.62535775395798598e-01
9.62535775395798598e-01
1.03199686265699575e+00
1.03199686265699575e+00
1.03199686265699575e+00
1.03771447991972687e+00
1.03771447991972687e+00
1.03771447991972687e+00
9.90621192887577440e-01
9.90621192887577440e-01
9.90621192887577440e-01
1.04184084906298691e+00
1.04184084906298691e+00
1.04184084906298691e+00
1.04333371304933875e+00
1.04333371304933875e+00
1.04333371304933875e+00
1.04154655089709913e+00
1.04154655089709913e+00
1.04154655089709913e+00
9.98476307516425687e-01
9.98476307516425687e-01
9.98476307516425687e-01
1.00900267751560513e+00
1.00900267751560513e+00
1.00900267751560513e+00
1.07025308017869070e+00
1.07025308017869070e+00
1.07025308017869070e+00
1.04105988796244908e+00
1.04105988796244908e+00
1.04105988796244908e+00
1.01162241056816660e+00
1.01162241056816660e+00
1.01162241056816660e+00
1.03409464225638414e+00
1.03409464225638414e+00
1.03409464225638414e+00
1.05844981498710200e+00
1.05844981498710200e+00
1.05844981498710200e+00
1.05398313656073084e+00
1.05398313656073084e+00
1.05398313656073084e+00
1.02112236182206950e+00
1.02112236182206950e+00
1.02112236182206950e+00
1.06820572103604228e+00
1.06820572103604228e+00
1.06820572103604228e+00
1.06949052545236034e+00
1.06949052545236034e+00
1.06949052545236034e+00
1.07183403187275017e+00
1.07183403187275017e+00
1.07183403187275017e+00
1.01280873625909984e+00
1.01280873625909984e+00
1.01280873625909984e+00
1.02297737773460939e+00
1.02297737773460939e+00
1.02297737773460939e+00
9.62704072797473609e-01
9.62704072797473609e-01
9.62704072797473609e-01
1.02531266083261219e+00
1.02531266083261219e+00
1.02531266083261219e+00
1.04041612114304094e+00
1.04041612114304094e+00
1.04041612114304094e+00
1.07162837737206140e+00
1.07162837737206140e+00
1.07162837737206140e+00
1.06502970119237172e+00
1.06502970119237172e+00
1.06502970119237172e+00
9.95655142663414483e-01
9.95655142663414483e-01
9.95655142663414483e-01
1.04501210470671002e+00
1.04501210470671002e+00
1.04501210470671002e+00
9.95314636579908152e-01
9.95314636579908152e-01
9.95314636579908152e-01
1.07131582176125106e+00
1.07131582176125106e+00
1.07131582176125106e+00


        </DataArray>

      </PointData>

      <CellData/>

      <Points>

        <DataArray type="Float64" NumberOfComponents="3" format="ascii">

0.1082531754723032 0.6875000000007816 0 0.23533274979922561 0.77093399389351469 0 0.10409951422139101 0.81206782209691231 0 0.23533274979922561 0.77093399389351469 0 0.1082531754723032 0.6875000000007816 0 0.21809253452218619 0.65480892822618109 0 0.24418615484441761 0.35773612382016978 0 0.121259140952891 0.43112117036853742 0 0.1082531754734323 0.31250000000117473 0 0.75000000000057243 0.35048094716480432 0 0.88173731489851925 0.33077402607778361 0 0.81242894672211508 0.45500248311961472 0 0.121259140952891 0.43112117036853742 0 0.24418615484441761 0.35773612382016978 0 0.22257735880419699 0.47344721641341742 0 0.81242894672211508 0.45500248311961472 0 0.88173731489851925 0.33077402607778361 0 0.915464298762109 0.43749999999886913 0 0 0.62500000000121547 0 0 0.50000000000206146 0 0.1371230538040123 0.56179824718362847 0 0.82212678063041267 0.67678595194836966 0 0.89051480781310632 0.79665793440246835 0 0.76243180583607129 0.78687675331113149 0 0.76243180583607129 0.78687675331113149 0 0.69010814643829166 0.89298495739101336 0 0.62844955668446423 0.7850749770380413 0 0.89051480781310632 0.79665793440246835 0 0.82212678063041267 0.67678595194836966 0 0.92266244547590082 0.68749999999917555 0 0 0.50000000000206146 0 0.121259140952891 0.43112117036853742 0 0.1371230538040123 0.56179824718362847 0 0.1082531754723032 0.6875000000007816 0 0 0.62500000000121547 0 0.1371230538040123 0.56179824718362847 0 0.75000000000032374 0.56698729811007709 0 0.88927506082488361 0.56409486310635837 0 0.82212678063041267 0.67678595194836966 0 0.81242894672211508 0.45500248311961472 0 0.88927506082488361 0.56409486310635837 0 0.75000000000032374 0.56698729811007709 0 0.69851598570178741 0.68211701800612057 0 0.56496004948275869 0.67675037307860475 0 0.62752533658682441 0.56838075195614346 0 0.69851598570178741 0.68211701800612057 0 0.76243180583607129 0.78687675331113149 0 0.62844955668446423 0.7850749770380413 0 0.23533274979922561 0.77093399389351469 0 0.18802967116092181 0.89415349436770275 0 0.10409951422139101 0.81206782209691231 0 0.121259140952891 0.43112117036853742 0 0.22257735880419699 0.47344721641341742 0 0.1371230538040123 0.56179824718362847 0 0.75000000000032374 0.56698729811007709 0 0.69851598570178741 0.68211701800612057 0 0.62752533658682441 0.56838075195614346 0 0.56496004948275869 0.67675037307860475 0 0.69851598570178741 0.68211701800612057 0 0.62844955668446423 0.7850749770380413 0 0.1371230538040123 0.56179824718362847 0 0.22257735880419699 0.47344721641341742 0 0.26982811998763367 0.56544650815856912 0 0.21809253452218619 0.65480892822618109 0 0.1371230538040123 0.56179824718362847 0 0.26982811998763367 0.56544650815856912 0 0.24418615484441761 0.35773612382016978 0 0.1082531754734323 0.31250000000117473 0 0.20767261601459541 0.25628918442207171 0 0.88173731489851925 0.33077402607778361 0 0.75000000000057243 0.35048094716480432 0 0.79891106056046712 0.25007334953587562 0 0.75000000000032374 0.56698729811007709 0 0.82212678063041267 0.67678595194836966 0 0.69851598570178741 0.68211701800612057 0 0.81249999999950517 0.1082531754733404 0 0.89658421694297741 0.1933620068391701 0 0.79891106056046712 0.25007334953587562 0 0.81249999999950517 0.1082531754733404 0 0.79891106056046712 0.25007334953587562 0 0.73983916756365475 0.17530677078674589 0 0.23533274979922561 0.77093399389351469 0 0.21809253452218619 0.65480892822618109 0 0.32607333794064219 0.67760114260606152 0 0.1082531754723032 0.6875000000007816 0 0.1371230538040123 0.56179824718362847 0 0.21809253452218619 0.65480892822618109 0 0.69851598570178741 0.68211701800612057 0 0.82212678063041267 0.67678595194836966 0 0.76243180583607129 0.78687675331113149 0 0.69010814643829166 0.89298495739101336 0 0.76243180583607129 0.78687675331113149 0 0.80886664387416207 0.89717308644237903 0 0.43750000000181222 0.89174682452709564 0 0.31258827852827581 0.89214793616708443 0 0.37776173212361452 0.78514649317305008 0 0.43750000000181222 0.89174682452709564 0 0.37500000000156292 1 0 0.31258827852827581 0.89214793616708443 0 0.121259140952891 0.43112117036853742 0 0 0.37500000000156292 0 0.1082531754734323 0.31250000000117473 0 0.50000000000206146 1 0 0.37500000000156292 1 0 0.43750000000181222 0.89174682452709564 0 0.31258827852827581 0.89214793616708443 0 0.18802967116092181 0.89415349436770275 0 0.23533274979922561 0.77093399389351469 0 0 0.50000000000206146 0 0 0.37500000000156292 0 0.121259140952891 0.43112117036853742 0 0.62844955668446423 0.7850749770380413 0 0.69010814643829166 0.89298495739101336 0 0.56327595140699671 0.89211526915426331 0 0.69010814643829166 0.89298495739101336 0 0.62500000000121547 1 0 0.56327595140699671 0.89211526915426331 0 0.25000000000104189 1 0 0.18802967116092181 0.89415349436770275 0 0.31258827852827581 0.89214793616708443 0 0.50000000000206146 1 0 0.43750000000181222 0.89174682452709564 0 0.56327595140699671 0.89211526915426331 0 0.56249999999885147 0.1082531754730395 0 0.62499999999901068 0 0 0.68749999999926592 0.1082531754732875 0 1 0.49999999999869221 0 1 0.62499999999901068 0 0.88927506082488361 0.56409486310635837 0 0 0.25000000000104189 0 0.12076953676380731 0.18690935762408761 0 0.1082531754734323 0.31250000000117473 0 0.49999999999869221 0 0 0.62499999999901068 0 0 0.56249999999885147 0.1082531754730395 0 0.62500000000121547 1 0 0.50000000000206146 1 0 0.56327595140699671 0.89211526915426331 0 0.37500000000156292 1 0 0.25000000000104189 1 0 0.31258827852827581 0.89214793616708443 0 0.31281086598417152 0.10449318608631281 0 0.37499999999904599 0 0 0.43749999999910871 0.1082531754729984 0 0.43750000000181222 0.89174682452709564 0 0.37776173212361452 0.78514649317305008 0 0.50046028868828263 0.78376912307435687 0 0 0.37500000000156292 0 0 0.25000000000104189 0 0.1082531754734323 0.31250000000117473 0 0.49999999999869221 0 0 0.56249999999885147 0.1082531754730395 0 0.43749999999910871 0.1082531754729984 0 0.43750000000181222 0.89174682452709564 0 0.50046028868828263 0.78376912307435687 0 0.56327595140699671 0.89211526915426331 0 0.74999999999934042 0 0 0.81249999999950517 0.1082531754733404 0 0.68749999999926592 0.1082531754732875 0 0.37499999999904599 0 0 0.49999999999869221 0 0 0.43749999999910871 0.1082531754729984 0 0.25000000000104189 1 0 0.12500000000052089 1 0 0.18802967116092181 0.89415349436770275 0 0.50046028868828263 0.78376912307435687 0 0.62844955668446423 0.7850749770380413 0 0.56327595140699671 0.89211526915426331 0 0.37776173212361452 0.78514649317305008 0 0.31258827852827581 0.89214793616708443 0 0.23533274979922561 0.77093399389351469 0 0.62499999999901068 0 0 0.74999999999934042 0 0 0.68749999999926592 0.1082531754732875 0 1 0.74999999999934042 0 1 0.87499999999967015 0 0.89051480781310632 0.79665793440246835 0 0 0.25000000000104189 0 0 0.12500000000052089 0 0.12076953676380731 0.18690935762408761 0 0.74999999999934042 0 0 0.87499999999967015 0 0 0.81249999999950517 0.1082531754733404 0 0.24999999999941069 0 0 0.37499999999904599 0 0 0.31281086598417152 0.10449318608631281 0 0.50046028868828263 0.78376912307435687 0 0.37776173212361452 0.78514649317305008 0 0.44078402250377968 0.67714785211715212 0 0.68768773896438518 0.4586835206367198 0 0.75000000000032374 0.56698729811007709 0 0.62752533658682441 0.56838075195614346 0 0.31411863959822661 0.24965544328045999 0 0.37953773393552892 0.34812185820708452 0 0.24418615484441761 0.35773612382016978 0 0.68768773896438518 0.4586835206367198 0 0.81242894672211508 0.45500248311961472 0 0.75000000000032374 0.56698729811007709 0 1 0.24999999999941069 0 1 0.37499999999904599 0 0.88173731489851925 0.33077402607778361 0 0 0.75000000000034761 0 0 0.62500000000121547 0 0.1082531754723032 0.6875000000007816 0 0.50048844149666749 0.56727788297625459 0 0.44078402250377968 0.67714785211715212 0 0.38694285807596462 0.5672991787102919 0 0.50108503093851109 0.35012252869403671 0 0.44301038174930041 0.45684931552185398 0 0.37953773393552892 0.34812185820708452 0 0.50046028868828263 0.78376912307435687 0 0.56496004948275869 0.67675037307860475 0 0.62844955668446423 0.7850749770380413 0 0.68768773896438518 0.4586835206367198 0 0.75000000000057243 0.35048094716480432 0 0.81242894672211508 0.45500248311961472 0 0.56349980387502452 0.45846841892908402 0 0.62512662990940393 0.35044303886909911 0 0.68768773896438518 0.4586835206367198 0 0.50048844149666749 0.56727788297625459 0 0.38694285807596462 0.5672991787102919 0 0.44301038174930041 0.45684931552185398 0 0.50046028868828263 0.78376912307435687 0 0.44078402250377968 0.67714785211715212 0 0.56496004948275869 0.67675037307860475 0 0.50108503093851109 0.35012252869403671 0 0.37953773393552892 0.34812185820708452 0 0.43750000000200551 0.24222777169198509 0 0.75000000000034761 1 0 0.62500000000121547 1 0 0.69010814643829166 0.89298495739101336 0 0.68768773896438518 0.4586835206367198 0 0.62512662990940393 0.35044303886909911 0 0.75000000000057243 0.35048094716480432 0 0.56496004948275869 0.67675037307860475 0 0.44078402250377968 0.67714785211715212 0 0.50048844149666749 0.56727788297625459 0 0.56349980387502452 0.45846841892908402 0 0.44301038174930041 0.45684931552185398 0 0.50108503093851109 0.35012252869403671 0 0.50048844149666749 0.56727788297625459 0 0.44301038174930041 0.45684931552185398 0 0.56349980387502452 0.45846841892908402 0 0.56349980387502452 0.45846841892908402 0 0.50108503093851109 0.35012252869403671 0 0.62512662990940393 0.35044303886909911 0 0.43750000000200551 0.24222777169198509 0 0.37953773393552892 0.34812185820708452 0 0.31411863959822661 0.24965544328045999 0 0.56496004948275869 0.67675037307860475 0 0.50048844149666749 0.56727788297625459 0 0.62752533658682441 0.56838075195614346 0 0.56349980387502452 0.45846841892908402 0 0.68768773896438518 0.4586835206367198 0 0.62752533658682441 0.56838075195614346 0 0.50048844149666749 0.56727788297625459 0 0.56349980387502452 0.45846841892908402 0 0.62752533658682441 0.56838075195614346 0 0.75000000000057243 0.35048094716480432 0 0.62512662990940393 0.35044303886909911 0 0.68668231842078242 0.24762892664808989 0 0.50108503093851109 0.35012252869403671 0 0.43750000000200551 0.24222777169198509 0 0.56250000000143974 0.2422277716920859 0 0.62512662990940393 0.35044303886909911 0 0.50108503093851109 0.35012252869403671 0 0.56250000000143974 0.2422277716920859 0 0.68668231842078242 0.24762892664808989 0 0.62512662990940393 0.35044303886909911 0 0.56250000000143974 0.2422277716920859 0 0.22257735880419699 0.47344721641341742 0 0.24418615484441761 0.35773612382016978 0 0.32815957677880009 0.4577243358118348 0 0.12076953676380731 0.18690935762408761 0 0.19185372118111221 0.092925648673580788 0 0.25103557339309318 0.17464499738446629 0 0.20767261601459541 0.25628918442207171 0 0.12076953676380731 0.18690935762408761 0 0.25103557339309318 0.17464499738446629 0 0 0.87499999999950151 0 0 0.75000000000034761 0 0.10409951422139101 0.81206782209691231 0 0.1249999999997731 0 0 0.24999999999941069 0 0 0.19185372118111221 0.092925648673580788 0 1 0.1249999999997731 0 1 0.24999999999941069 0 0.89658421694297741 0.1933620068391701 0 0.88927506082488361 0.56409486310635837 0 0.81242894672211508 0.45500248311961472 0 0.915464298762109 0.43749999999886913 0 0.87499999999950151 1 0 0.75000000000034761 1 0 0.80886664387416207 0.89717308644237903 0 0.75000000000034761 1 0 0.69010814643829166 0.89298495739101336 0 0.80886664387416207 0.89717308644237903 0 0.82212678063041267 0.67678595194836966 0 0.88927506082488361 0.56409486310635837 0 0.92266244547590082 0.68749999999917555 0 0 0.75000000000034761 0 0.1082531754723032 0.6875000000007816 0 0.10409951422139101 0.81206782209691231 0 0.24999999999941069 0 0 0.31281086598417152 0.10449318608631281 0 0.19185372118111221 0.092925648673580788 0 1 0.24999999999941069 0 0.88173731489851925 0.33077402607778361 0 0.89658421694297741 0.1933620068391701 0 0.32815957677880009 0.4577243358118348 0 0.38694285807596462 0.5672991787102919 0 0.26982811998763367 0.56544650815856912 0 0.76243180583607129 0.78687675331113149 0 0.89051480781310632 0.79665793440246835 0 0.80886664387416207 0.89717308644237903 0 0.38694285807596462 0.5672991787102919 0 0.44078402250377968 0.67714785211715212 0 0.32607333794064219 0.67760114260606152 0 0.37776173212361452 0.78514649317305008 0 0.23533274979922561 0.77093399389351469 0 0.32607333794064219 0.67760114260606152 0 1 0.49999999999869221 0 0.88927506082488361 0.56409486310635837 0 0.915464298762109 0.43749999999886913 0 0.88173731489851925 0.33077402607778361 0 1 0.37499999999904599 0 0.915464298762109 0.43749999999886913 0 0.24418615484441761 0.35773612382016978 0 0.37953773393552892 0.34812185820708452 0 0.32815957677880009 0.4577243358118348 0 0.44301038174930041 0.45684931552185398 0 0.38694285807596462 0.5672991787102919 0 0.32815957677880009 0.4577243358118348 0 0.88927506082488361 0.56409486310635837 0 1 0.62499999999901068 0 0.92266244547590082 0.68749999999917555 0 1 0.74999999999934042 0 0.89051480781310632 0.79665793440246835 0 0.92266244547590082 0.68749999999917555 0 0 1 0 0 0.87499999999950151 0 0.091506350946494744 0.90849364905351082 0 1 1 0 0.87499999999950151 1 0 0.90849364905363228 0.90849364905367769 0 0 0 0 0.1249999999997731 0 0 0.091506350946417708 0.091506350946618076 0 0 0.12500000000052089 0 0 0 0 0.091506350946417708 0.091506350946618076 0 1 0 0 1 0.1249999999997731 0 0.90849364905355434 0.091506350946296292 0 0.87499999999967015 0 0 1 0 0 0.90849364905355434 0.091506350946296292 0 0.12500000000052089 1 0 0 1 0 0.091506350946494744 0.90849364905351082 0 1 0.87499999999967015 0 1 1 0 0.90849364905363228 0.90849364905367769 0 0.38694285807596462 0.5672991787102919 0 0.32607333794064219 0.67760114260606152 0 0.26982811998763367 0.56544650815856912 0 0.31411863959822661 0.24965544328045999 0 0.24418615484441761 0.35773612382016978 0 0.20767261601459541 0.25628918442207171 0 0.1082531754734323 0.31250000000117473 0 0.12076953676380731 0.18690935762408761 0 0.20767261601459541 0.25628918442207171 0 0.75000000000057243 0.35048094716480432 0 0.68668231842078242 0.24762892664808989 0 0.79891106056046712 0.25007334953587562 0 0.22257735880419699 0.47344721641341742 0 0.32815957677880009 0.4577243358118348 0 0.26982811998763367 0.56544650815856912 0 0.44078402250377968 0.67714785211715212 0 0.37776173212361452 0.78514649317305008 0 0.32607333794064219 0.67760114260606152 0 0.89658421694297741 0.1933620068391701 0 0.88173731489851925 0.33077402607778361 0 0.79891106056046712 0.25007334953587562 0 1 0.37499999999904599 0 1 0.49999999999869221 0 0.915464298762109 0.43749999999886913 0 0.37953773393552892 0.34812185820708452 0 0.44301038174930041 0.45684931552185398 0 0.32815957677880009 0.4577243358118348 0 0.32607333794064219 0.67760114260606152 0 0.21809253452218619 0.65480892822618109 0 0.26982811998763367 0.56544650815856912 0 1 0.1249999999997731 0 0.89658421694297741 0.1933620068391701 0 0.90849364905355434 0.091506350946296292 0 0 0.87499999999950151 0 0.10409951422139101 0.81206782209691231 0 0.091506350946494744 0.90849364905351082 0 0.1249999999997731 0 0 0.19185372118111221 0.092925648673580788 0 0.091506350946417708 0.091506350946618076 0 1 0.62499999999901068 0 1 0.74999999999934042 0 0.92266244547590082 0.68749999999917555 0 0.18802967116092181 0.89415349436770275 0 0.12500000000052089 1 0 0.091506350946494744 0.90849364905351082 0 0.89051480781310632 0.79665793440246835 0 1 0.87499999999967015 0 0.90849364905363228 0.90849364905367769 0 0.12076953676380731 0.18690935762408761 0 0 0.12500000000052089 0 0.091506350946417708 0.091506350946618076 0 0.81249999999950517 0.1082531754733404 0 0.87499999999967015 0 0 0.90849364905355434 0.091506350946296292 0 0.87499999999950151 1 0 0.80886664387416207 0.89717308644237903 0 0.90849364905363228 0.90849364905367769 0 0.68668231842078242 0.24762892664808989 0 0.62499999999892575 0.17524047358135519 0 0.73983916756365475 0.17530677078674589 0 0.31281086598417152 0.10449318608631281 0 0.43749999999910871 0.1082531754729984 0 0.37500000000232431 0.17524047358384309 0 0.62499999999892575 0.17524047358135519 0 0.56250000000143974 0.2422277716920859 0 0.49999999999934441 0.1752404735815076 0 0.56249999999885147 0.1082531754730395 0 0.68749999999926592 0.1082531754732875 0 0.62499999999892575 0.17524047358135519 0 0.56249999999885147 0.1082531754730395 0 0.62499999999892575 0.17524047358135519 0 0.49999999999934441 0.1752404735815076 0 0.56250000000143974 0.2422277716920859 0 0.43750000000200551 0.24222777169198509 0 0.49999999999934441 0.1752404735815076 0 0.43749999999910871 0.1082531754729984 0 0.56249999999885147 0.1082531754730395 0 0.49999999999934441 0.1752404735815076 0 0.68668231842078242 0.24762892664808989 0 0.56250000000143974 0.2422277716920859 0 0.62499999999892575 0.17524047358135519 0 0.43750000000200551 0.24222777169198509 0 0.31411863959822661 0.24965544328045999 0 0.37500000000232431 0.17524047358384309 0 0.49999999999934441 0.1752404735815076 0 0.43750000000200551 0.24222777169198509 0 0.37500000000232431 0.17524047358384309 0 0.43749999999910871 0.1082531754729984 0 0.49999999999934441 0.1752404735815076 0 0.37500000000232431 0.17524047358384309 0 0.62499999999892575 0.17524047358135519 0 0.68749999999926592 0.1082531754732875 0 0.73983916756365475 0.17530677078674589 0 0.68749999999926592 0.1082531754732875 0 0.81249999999950517 0.1082531754733404 0 0.73983916756365475 0.17530677078674589 0 0.10409951422139101 0.81206782209691231 0 0.18802967116092181 0.89415349436770275 0 0.091506350946494744 0.90849364905351082 0 0.89658421694297741 0.1933620068391701 0 0.81249999999950517 0.1082531754733404 0 0.90849364905355434 0.091506350946296292 0 0.19185372118111221 0.092925648673580788 0 0.12076953676380731 0.18690935762408761 0 0.091506350946417708 0.091506350946618076 0 0.37500000000232431 0.17524047358384309 0 0.31411863959822661 0.24965544328045999 0 0.25103557339309318 0.17464499738446629 0 0.31281086598417152 0.10449318608631281 0 0.37500000000232431 0.17524047358384309 0 0.25103557339309318 0.17464499738446629 0 0.80886664387416207 0.89717308644237903 0 0.89051480781310632 0.79665793440246835 0 0.90849364905363228 0.90849364905367769 0 0.19185372118111221 0.092925648673580788 0 0.31281086598417152 0.10449318608631281 0 0.25103557339309318 0.17464499738446629 0 0.79891106056046712 0.25007334953587562 0 0.68668231842078242 0.24762892664808989 0 0.73983916756365475 0.17530677078674589 0 0.31411863959822661 0.24965544328045999 0 0.20767261601459541 0.25628918442207171 0 0.25103557339309318 0.17464499738446629 0 

        </DataArray>

      </Points>

      <Cells>

        <DataArray type="Int32" Name="connectivity" format="ascii">

0 1 2 3 4 5 6 7 8 9 10 11 12 13 14 15 16 17 18 19 20 21 22 23 24 25 26 27 28 29 30 31 32 33 34 35 36 37 38 39 40 41 42 43 44 45 46 47 48 49 50 51 52 53 54 55 56 57 58 59 60 61 62 63 64 65 66 67 68 69 70 71 72 73 74 75 76 77 78 79 80 81 82 83 84 85 86 87 88 89 90 91 92 93 94 95 96 97 98 99 100 101 102 103 104 105 106 107 108 109 110 111 112 113 114 115 116 117 118 119 120 121 122 123 124 125 126 127 128 129 130 131 132 133 134 135 136 137 138 139 140 141 142 143 144 145 146 147 148 149 150 151 152 153 154 155 156 157 158 159 160 161 162 163 164 165 166 167 168 169 170 171 172 173 174 175 176 177 178 179 180 181 182 183 184 185 186 187 188 189 190 191 192 193 194 195 196 197 198 199 200 201 202 203 204 205 206 207 208 209 210 211 212 213 214 215 216 217 218 219 220 221 222 223 224 225 226 227 228 229 230 231 232 233 234 235 236 237 238 239 240 241 242 243 244 245 246 247 248 249 250 251 252 253 254 255 256 257 258 259 260 261 262 263 264 265 266 267 268 269 270 271 272 273 274 275 276 277 278 279 280 281 282 283 284 285 286 287 288 289 290 291 292 293 294 295 296 297 298 299 300 301 302 303 304 305 306 307 308 309 310 311 312 313 314 315 316 317 318 319 320 321 322 323 324 325 326 327 328 329 330 331 332 333 334 335 336 337 338 339 340 341 342 343 344 345 346 347 348 349 350 351 352 353 354 355 356 357 358 359 360 361 362 363 364 365 366 367 368 369 370 371 372 373 374 375 376 377 378 379 380 381 382 383 384 385 386 387 388 389 390 391 392 393 394 395 396 397 398 399 400 401 402 403 404 405 406 407 408 409 410 411 412 413 414 415 416 417 418 419 420 421 422 423 424 425 426 427 428 429 430 431 432 433 434 435 436 437 438 439 440 441 442 443 444 445 446 447 448 449 450 451 452 453 454 455 456 457 458 459 460 461 462 463 464 465 466 467 468 469 470 471 472 473 474 475 476 477 478 479 480 481 482 483 484 485 

        </DataArray>

        <DataArray type="Int32" Name="offsets" format="ascii">

3 6 9 12 15 18 21 24 27 30 33 36 39 42 45 48 51 54 57 60 63 66 69 72 75 78 81 84 87 90 93 96 99 102 105 108 111 114 117 120 123 126 129 132 135 138 141 144 147 150 153 156 159 162 165 168 171 174 177 180 183 186 189 192 195 198 201 204 207 210 213 216 219 222 225 228 231 234 237 240 243 246 249 252 255 258 261 264 267 270 273 276 279 282 285 288 291 294 297 300 303 306 309 312 315 318 321 324 327 330 333 336 339 342 345 348 351 354 357 360 363 366 369 372 375 378 381 384 387 390 393 396 399 402 405 408 411 414 417 420 423 426 429 432 435 438 441 444 447 450 453 456 459 462 465 468 471 474 477 480 483 486 

        </DataArray>

        <DataArray type="Int32" Name="types" format="ascii">

5 5 5 5 5 5 5 5 5 5 5 5 5 5 5 5 5 5 5 5 5 5 5 5 5 5 5 5 5 5 5 5 5 5 5 5 5 5 5 5 5 5 5 5 5 5 5 5 5 5 5 5 5 5 5 5 5 5 5 5 5 5 5 5 5 5 5 5 5 5 5 5 5 5 5 5 5 5 5 5 5 5 5 5 5 5 5 5 5 5 5 5 5 5 5 5 5 5 5 5 5 5 5 5 5 5 5 5 5 5 5 5 5 5 5 5 5 5 5 5 5 5 5 5 5 5 5 5 5 5 5 5 5 5 5 5 5 5 5 5 5 5 5 5 5 5 5 5 5 5 5 5 5 5 5 5 5 5 5 5 5 5 

        </DataArray>

      </Cells>

    </Piece>

  </UnstructuredGrid>

</VTKFile>

