<?xml version="1.0"?>

<VTKFile type="UnstructuredGrid" version="0.1">

  <UnstructuredGrid>

    <Piece NumberOfPoints="486" NumberOfCells="162">

      <PointData>

        <DataArray type="Float64" Name="K" format="ascii">

9.58429772977108518e-01
9.58429772977108518e-01
9.58429772977108518e-01
9.46342518995012871e-01
9.46342518995012871e-01
9.46342518995012871e-01
9.90053481300675386e-01
9.90053481300675386e-01
9.90053481300675386e-01
9.68623039061391800e-01
9.68623039061391800e-01
9.68623039061391800e-01
9.92973063609138396e-01
9.92973063609138396e-01
9.92973063609138396e-01
9.64494411038645749e-01
9.64494411038645749e-01
9.64494411038645749e-01
9.81736403785677725e-01
9.81736403785677725e-01
9.81736403785677725e-01
1.03942578726790735e+00
1.03942578726790735e+00
1.03942578726790735e+00
1.00265818293779541e+00
1.00265818293779541e+00
1.00265818293779541e+00
1.03770200212113317e+00
1.03770200212113317e+00
1.03770200212113317e+00
9.83754511494812744e-01
9.83754511494812744e-01
9.83754511494812744e-01
9.76545439943104721e-01
9.76545439943104721e-01
9.76545439943104721e-01
1.02391884533682265e+00
1.02391884533682265e+00
1.02391884533682265e+00
9.98516794931029517e-01
9.98516794931029517e-01
9.98516794931029517e-01
9.72825747929114026e-01
9.72825747929114026e-01
9.72825747929114026e-01
1.00324627646520370e+00
1.00324627646520370e+00
1.00324627646520370e+00
9.66837214214969820e-01
9.66837214214969820e-01
9.66837214214969820e-01
9.78629257459825874e-01
9.78629257459825874e-01
9.78629257459825874e-01
9.94436854533590431e-01
9.94436854533590431e-01
9.94436854533590431e-01
9.71313471463825961e-01
9.71313471463825961e-01
9.71313471463825961e-01
9.69804153086108123e-01
9.69804153086108123e-01
9.69804153086108123e-01
9.55107902352442473e-01
9.55107902352442473e-01
9.55107902352442473e-01
1.00231690337959001e+00
1.00231690337959001e+00
1.00231690337959001e+00
9.77915791578448990e-01
9.77915791578448990e-01
9.77915791578448990e-01
1.01992322241647426e+00
1.01992322241647426e+00
1.01992322241647426e+00
1.00893820167686110e+00
1.00893820167686110e+00
1.00893820167686110e+00
1.02231672046104305e+00
1.02231672046104305e+00
1.02231672046104305e+00
9.45748120989217345e-01
9.45748120989217345e-01
9.45748120989217345e-01
9.60323538787689168e-01
9.60323538787689168e-01
9.60323538787689168e-01
1.03164694556565095e+00
1.03164694556565095e+00
1.03164694556565095e+00
1.01877771697869557e+00
1.01877771697869557e+00
1.01877771697869557e+00
1.04758400308222543e+00
1.04758400308222543e+00
1.04758400308222543e+00
1.06231186525082455e+00
1.06231186525082455e+00
1.06231186525082455e+00
9.97273671618447710e-01
9.97273671618447710e-01
9.97273671618447710e-01
1.05487022902870708e+00
1.05487022902870708e+00
1.05487022902870708e+00
9.91039407003021067e-01
9.91039407003021067e-01
9.91039407003021067e-01
1.00083310871200593e+00
1.00083310871200593e+00
1.00083310871200593e+00
9.77920953257605641e-01
9.77920953257605641e-01
9.77920953257605641e-01
9.85971612899039451e-01
9.85971612899039451e-01
9.85971612899039451e-01
1.02882230672425790e+00
1.02882230672425790e+00
1.02882230672425790e+00
1.02095714118888226e+00
1.02095714118888226e+00
1.02095714118888226e+00
1.06950563169402391e+00
1.06950563169402391e+00
1.06950563169402391e+00
1.04502852506855137e+00
1.04502852506855137e+00
1.04502852506855137e+00
1.00447905365866430e+00
1.00447905365866430e+00
1.00447905365866430e+00
1.07486535992680321e+00
1.07486535992680321e+00
1.07486535992680321e+00
1.00257883045383944e+00
1.00257883045383944e+00
1.00257883045383944e+00
1.05885634777920434e+00
1.05885634777920434e+00
1.05885634777920434e+00
1.04127103768024343e+00
1.04127103768024343e+00
1.04127103768024343e+00
1.03193056312294451e+00
1.03193056312294451e+00
1.03193056312294451e+00
1.01629960651001428e+00
1.01629960651001428e+00
1.01629960651001428e+00
1.06213759469395153e+00
1.06213759469395153e+00
1.06213759469395153e+00
1.00769908776959238e+00
1.00769908776959238e+00
1.00769908776959238e+00
1.03892448344245869e+00
1.03892448344245869e+00
1.03892448344245869e+00
1.03827127765638516e+00
1.03827127765638516e+00
1.03827127765638516e+00
1.02709476651381881e+00
1.02709476651381881e+00
1.02709476651381881e+00
9.73730760867677292e-01
9.73730760867677292e-01
9.73730760867677292e-01
1.00616075073643607e+00
1.00616075073643607e+00
1.00616075073643607e+00
1.05287041791247904e+00
1.05287041791247904e+00
1.05287041791247904e+00
1.00962442225807147e+00
1.00962442225807147e+00
1.00962442225807147e+00
1.00703101340910117e+00
1.00703101340910117e+00
1.00703101340910117e+00
1.04206467287991300e+00
1.04206467287991300e+00
1.04206467287991300e+00
1.03609391308291099e+00
1.03609391308291099e+00
1.03609391308291099e+00
1.01142408735562350e+00
1.01142408735562350e+00
1.01142408735562350e+00
9.93845137887060193e-01
9.93845137887060193e-01
9.93845137887060193e-01
1.04459671831142420e+00
1.04459671831142420e+00
1.04459671831142420e+00
9.93571877270556625e-01
9.93571877270556625e-01
9.93571877270556625e-01
9.68002580937400769e-01
9.68002580937400769e-01
9.68002580937400769e-01
9.72209136259731488e-01
9.72209136259731488e-01
9.72209136259731488e-01
9.60496153241929607e-01
9.60496153241929607e-01
9.60496153241929607e-01
9.66381943781328800e-01
9.66381943781328800e-01
9.66381943781328800e-01
9.67282913240492981e-01
9.67282913240492981e-01
9.67282913240492981e-01
9.91416580914237677e-01
9.91416580914237677e-01
9.91416580914237677e-01
9.87003997137792854e-01
9.87003997137792854e-01
9.87003997137792854e-01
9.44593838380130113e-01
9.44593838380130113e-01
9.44593838380130113e-01
9.82378854185905981e-01
9.82378854185905981e-01
9.82378854185905981e-01
9.98886806094792634e-01
9.98886806094792634e-01
9.98886806094792634e-01
9.91051224971690403e-01
9.91051224971690403e-01
9.91051224971690403e-01
1.00631010141193333e+00
1.00631010141193333e+00
1.00631010141193333e+00
9.66280737405132317e-01
9.66280737405132317e-01
9.66280737405132317e-01
9.42053935191507930e-01
9.42053935191507930e-01
9.42053935191507930e-01
9.39036591734419224e-01
9.39036591734419224e-01
9.39036591734419224e-01
9.63094211617066209e-01
9.63094211617066209e-01
9.63094211617066209e-01
1.04317481522610112e+00
1.04317481522610112e+00
1.04317481522610112e+00
9.60197995116584990e-01
9.60197995116584990e-01
9.60197995116584990e-01
9.80544933759716630e-01
9.80544933759716630e-01
9.80544933759716630e-01
9.56280596025721241e-01
9.56280596025721241e-01
9.56280596025721241e-01
1.01704535388897210e+00
1.01704535388897210e+00
1.01704535388897210e+00
9.94327865073393768e-01
9.94327865073393768e-01
9.94327865073393768e-01
9.82526747503778108e-01
9.82526747503778108e-01
9.82526747503778108e-01
1.01353994251603541e+00
1.01353994251603541e+00
1.01353994251603541e+00
1.00607453695726234e+00
1.00607453695726234e+00
1.00607453695726234e+00
1.01589066890552648e+00
1.01589066890552648e+00
1.01589066890552648e+00
1.01278448109428232e+00
1.01278448109428232e+00
1.01278448109428232e+00
9.73063626623191236e-01
9.73063626623191236e-01
9.73063626623191236e-01
1.02657436822275816e+00
1.02657436822275816e+00
1.02657436822275816e+00
9.83770468090471972e-01
9.83770468090471972e-01
9.83770468090471972e-01
9.90565852107865630e-01
9.90565852107865630e-01
9.90565852107865630e-01
9.83641108691062249e-01
9.83641108691062249e-01
9.83641108691062249e-01
1.00113202666427092e+00
1.00113202666427092e+00
1.00113202666427092e+00
1.04049027327894139e+00
1.04049027327894139e+00
1.04049027327894139e+00
9.74829887339584089e-01
9.74829887339584089e-01
9.74829887339584089e-01
1.03821293742529952e+00
1.03821293742529952e+00
1.03821293742529952e+00
9.66247953094738765e-01
9.66247953094738765e-01
9.66247953094738765e-01
9.65283884004747739e-01
9.65283884004747739e-01
9.65283884004747739e-01
1.02360746672503788e+00
1.02360746672503788e+00
1.02360746672503788e+00
9.69519371072324110e-01
9.69519371072324110e-01
9.69519371072324110e-01
9.78497023816735312e-01
9.78497023816735312e-01
9.78497023816735312e-01
1.01885223945751080e+00
1.01885223945751080e+00
1.01885223945751080e+00
9.73023778021317676e-01
9.73023778021317676e-01
9.73023778021317676e-01
1.02148716945989548e+00
1.02148716945989548e+00
1.02148716945989548e+00
9.59763442922679455e-01
9.59763442922679455e-01
9.59763442922679455e-01
1.04572659932753642e+00
1.04572659932753642e+00
1.04572659932753642e+00
1.02590249605199824e+00
1.02590249605199824e+00
1.02590249605199824e+00
9.78463730285213829e-01
9.78463730285213829e-01
9.78463730285213829e-01
9.72209706593836320e-01
9.72209706593836320e-01
9.72209706593836320e-01
9.83613086265942460e-01
9.83613086265942460e-01
9.83613086265942460e-01
9.84557516289488621e-01
9.84557516289488621e-01
9.84557516289488621e-01
1.04158936820991244e+00
1.04158936820991244e+00
1.04158936820991244e+00
1.06944626258332365e+00
1.06944626258332365e+00
1.06944626258332365e+00
9.96221962789128224e-01
9.96221962789128224e-01
9.96221962789128224e-01
9.87336235695664866e-01
9.87336235695664866e-01
9.87336235695664866e-01
9.55017444192344245e-01
9.55017444192344245e-01
9.55017444192344245e-01
1.03467271375254755e+00
1.03467271375254755e+00
1.03467271375254755e+00
9.97275618695347643e-01
9.97275618695347643e-01
9.97275618695347643e-01
1.01168837414186030e+00
1.01168837414186030e+00
1.01168837414186030e+00
9.80820272639960411e-01
9.80820272639960411e-01
9.80820272639960411e-01
9.95206025046291853e-01
9.95206025046291853e-01
9.95206025046291853e-01
9.74766855089547413e-01
9.74766855089547413e-01
9.74766855089547413e-01
1.00923193154531488e+00
1.00923193154531488e+00
1.00923193154531488e+00
9.82946576878975131e-01
9.82946576878975131e-01
9.82946576878975131e-01
9.46123394426280684e-01
9.46123394426280684e-01
9.46123394426280684e-01
1.01591306660962832e+00
1.01591306660962832e+00
1.01591306660962832e+00
9.80182632658927577e-01
9.80182632658927577e-01
9.80182632658927577e-01
1.00618458281854828e+00
1.00618458281854828e+00
1.00618458281854828e+00
1.04206166637590703e+00
1.04206166637590703e+00
1.04206166637590703e+00
1.00241697699203436e+00
1.00241697699203436e+00
1.00241697699203436e+00
9.90755237164276936e-01
9.90755237164276936e-01
9.90755237164276936e-01
9.97781364679152571e-01
9.97781364679152571e-01
9.97781364679152571e-01
1.05020498190426603e+00
1.05020498190426603e+00
1.05020498190426603e+00
9.79076125745874215e-01
9.79076125745874215e-01
9.79076125745874215e-01
1.03810053492752741e+00
1.03810053492752741e+00
1.03810053492752741e+00
1.05437366830217094e+00
1.05437366830217094e+00
1.05437366830217094e+00
1.03279301821106317e+00
1.03279301821106317e+00
1.03279301821106317e+00
1.05793872043403092e+00
1.05793872043403092e+00
1.05793872043403092e+00
1.05174976039191859e+00
1.05174976039191859e+00
1.05174976039191859e+00
1.02354385343589027e+00
1.02354385343589027e+00
1.02354385343589027e+00
1.05639085302129287e+00
1.05639085302129287e+00
1.05639085302129287e+00
1.03066847901922110e+00
1.03066847901922110e+00
1.03066847901922110e+00
1.05637757860797654e+00
1.05637757860797654e+00
1.05637757860797654e+00
1.04575173656392395e+00
1.04575173656392395e+00
1.04575173656392395e+00
1.05340292019629111e+00
1.05340292019629111e+00
1.05340292019629111e+00
1.04575220794834634e+00
1.04575220794834634e+00
1.04575220794834634e+00
1.03671971140900121e+00
1.03671971140900121e+00
1.03671971140900121e+00
9.82035092118420105e-01
9.82035092118420105e-01
9.82035092118420105e-01
1.02663714300610276e+00
1.02663714300610276e+00
1.02663714300610276e+00
1.00454316163837332e+00
1.00454316163837332e+00
1.00454316163837332e+00
1.05706560228310353e+00
1.05706560228310353e+00
1.05706560228310353e+00
1.05327898342896664e+00
1.05327898342896664e+00
1.05327898342896664e+00
9.96699103416566867e-01
9.96699103416566867e-01
9.96699103416566867e-01
1.03769018786721356e+00
1.03769018786721356e+00
1.03769018786721356e+00
1.02404195745504745e+00
1.02404195745504745e+00
1.02404195745504745e+00
1.03922822237199108e+00
1.03922822237199108e+00
1.03922822237199108e+00


        </DataArray>

      </PointData>

      <CellData/>

      <Points>

        <DataArray type="Float64" NumberOfComponents="3" format="ascii">

0.1082531754723032 0.6875000000007816 0 0.23533274979922561 0.77093399389351469 0 0.10409951422139101 0.81206782209691231 0 0.23533274979922561 0.77093399389351469 0 0.1082531754723032 0.6875000000007816 0 0.21809253452218619 0.65480892822618109 0 0.24418615484441761 0.35773612382016978 0 0.121259140952891 0.43112117036853742 0 0.1082531754734323 0.31250000000117473 0 0.75000000000057243 0.35048094716480432 0 0.88173731489851925 0.33077402607778361 0 0.81242894672211508 0.45500248311961472 0 0.121259140952891 0.43112117036853742 0 0.24418615484441761 0.35773612382016978 0 0.22257735880419699 0.47344721641341742 0 0.81242894672211508 0.45500248311961472 0 0.88173731489851925 0.33077402607778361 0 0.915464298762109 0.43749999999886913 0 0 0.62500000000121547 0 0 0.50000000000206146 0 0.1371230538040123 0.56179824718362847 0 0.82212678063041267 0.67678595194836966 0 0.89051480781310632 0.79665793440246835 0 0.76243180583607129 0.78687675331113149 0 0.76243180583607129 0.78687675331113149 0 0.69010814643829166 0.89298495739101336 0 0.62844955668446423 0.7850749770380413 0 0.89051480781310632 0.79665793440246835 0 0.82212678063041267 0.67678595194836966 0 0.92266244547590082 0.68749999999917555 0 0 0.50000000000206146 0 0.121259140952891 0.43112117036853742 0 0.1371230538040123 0.56179824718362847 0 0.1082531754723032 0.6875000000007816 0 0 0.62500000000121547 0 0.1371230538040123 0.56179824718362847 0 0.75000000000032374 0.56698729811007709 0 0.88927506082488361 0.56409486310635837 0 0.82212678063041267 0.67678595194836966 0 0.81242894672211508 0.45500248311961472 0 0.88927506082488361 0.56409486310635837 0 0.75000000000032374 0.56698729811007709 0 0.69851598570178741 0.68211701800612057 0 0.56496004948275869 0.67675037307860475 0 0.62752533658682441 0.56838075195614346 0 0.69851598570178741 0.68211701800612057 0 0.76243180583607129 0.78687675331113149 0 0.62844955668446423 0.7850749770380413 0 0.23533274979922561 0.77093399389351469 0 0.18802967116092181 0.89415349436770275 0 0.10409951422139101 0.81206782209691231 0 0.121259140952891 0.43112117036853742 0 0.22257735880419699 0.47344721641341742 0 0.1371230538040123 0.56179824718362847 0 0.75000000000032374 0.56698729811007709 0 0.69851598570178741 0.68211701800612057 0 0.62752533658682441 0.56838075195614346 0 0.56496004948275869 0.67675037307860475 0 0.69851598570178741 0.68211701800612057 0 0.62844955668446423 0.7850749770380413 0 0.1371230538040123 0.56179824718362847 0 0.22257735880419699 0.47344721641341742 0 0.26982811998763367 0.56544650815856912 0 0.21809253452218619 0.65480892822618109 0 0.1371230538040123 0.56179824718362847 0 0.26982811998763367 0.56544650815856912 0 0.24418615484441761 0.35773612382016978 0 0.1082531754734323 0.31250000000117473 0 0.20767261601459541 0.25628918442207171 0 0.88173731489851925 0.33077402607778361 0 0.75000000000057243 0.35048094716480432 0 0.79891106056046712 0.25007334953587562 0 0.75000000000032374 0.56698729811007709 0 0.82212678063041267 0.67678595194836966 0 0.69851598570178741 0.68211701800612057 0 0.81249999999950517 0.1082531754733404 0 0.89658421694297741 0.1933620068391701 0 0.79891106056046712 0.25007334953587562 0 0.81249999999950517 0.1082531754733404 0 0.79891106056046712 0.25007334953587562 0 0.73983916756365475 0.17530677078674589 0 0.23533274979922561 0.77093399389351469 0 0.21809253452218619 0.65480892822618109 0 0.32607333794064219 0.67760114260606152 0 0.1082531754723032 0.6875000000007816 0 0.1371230538040123 0.56179824718362847 0 0.21809253452218619 0.65480892822618109 0 0.69851598570178741 0.68211701800612057 0 0.82212678063041267 0.67678595194836966 0 0.76243180583607129 0.78687675331113149 0 0.69010814643829166 0.89298495739101336 0 0.76243180583607129 0.78687675331113149 0 0.80886664387416207 0.89717308644237903 0 0.43750000000181222 0.89174682452709564 0 0.31258827852827581 0.89214793616708443 0 0.37776173212361452 0.78514649317305008 0 0.43750000000181222 0.89174682452709564 0 0.37500000000156292 1 0 0.31258827852827581 0.89214793616708443 0 0.121259140952891 0.43112117036853742 0 0 0.37500000000156292 0 0.1082531754734323 0.31250000000117473 0 0.50000000000206146 1 0 0.37500000000156292 1 0 0.43750000000181222 0.89174682452709564 0 0.31258827852827581 0.89214793616708443 0 0.18802967116092181 0.89415349436770275 0 0.23533274979922561 0.77093399389351469 0 0 0.50000000000206146 0 0 0.37500000000156292 0 0.121259140952891 0.43112117036853742 0 0.62844955668446423 0.7850749770380413 0 0.69010814643829166 0.89298495739101336 0 0.56327595140699671 0.89211526915426331 0 0.69010814643829166 0.89298495739101336 0 0.62500000000121547 1 0 0.56327595140699671 0.89211526915426331 0 0.25000000000104189 1 0 0.18802967116092181 0.89415349436770275 0 0.31258827852827581 0.89214793616708443 0 0.50000000000206146 1 0 0.43750000000181222 0.89174682452709564 0 0.56327595140699671 0.89211526915426331 0 0.56249999999885147 0.1082531754730395 0 0.62499999999901068 0 0 0.68749999999926592 0.1082531754732875 0 1 0.49999999999869221 0 1 0.62499999999901068 0 0.88927506082488361 0.56409486310635837 0 0 0.25000000000104189 0 0.12076953676380731 0.18690935762408761 0 0.1082531754734323 0.31250000000117473 0 0.49999999999869221 0 0 0.62499999999901068 0 0 0.56249999999885147 0.1082531754730395 0 0.62500000000121547 1 0 0.50000000000206146 1 0 0.56327595140699671 0.89211526915426331 0 0.37500000000156292 1 0 0.25000000000104189 1 0 0.31258827852827581 0.89214793616708443 0 0.31281086598417152 0.10449318608631281 0 0.37499999999904599 0 0 0.43749999999910871 0.1082531754729984 0 0.43750000000181222 0.89174682452709564 0 0.37776173212361452 0.78514649317305008 0 0.50046028868828263 0.78376912307435687 0 0 0.37500000000156292 0 0 0.25000000000104189 0 0.1082531754734323 0.31250000000117473 0 0.49999999999869221 0 0 0.56249999999885147 0.1082531754730395 0 0.43749999999910871 0.1082531754729984 0 0.43750000000181222 0.89174682452709564 0 0.50046028868828263 0.78376912307435687 0 0.56327595140699671 0.89211526915426331 0 0.74999999999934042 0 0 0.81249999999950517 0.1082531754733404 0 0.68749999999926592 0.1082531754732875 0 0.37499999999904599 0 0 0.49999999999869221 0 0 0.43749999999910871 0.1082531754729984 0 0.25000000000104189 1 0 0.12500000000052089 1 0 0.18802967116092181 0.89415349436770275 0 0.50046028868828263 0.78376912307435687 0 0.62844955668446423 0.7850749770380413 0 0.56327595140699671 0.89211526915426331 0 0.37776173212361452 0.78514649317305008 0 0.31258827852827581 0.89214793616708443 0 0.23533274979922561 0.77093399389351469 0 0.62499999999901068 0 0 0.74999999999934042 0 0 0.68749999999926592 0.1082531754732875 0 1 0.74999999999934042 0 1 0.87499999999967015 0 0.89051480781310632 0.79665793440246835 0 0 0.25000000000104189 0 0 0.12500000000052089 0 0.12076953676380731 0.18690935762408761 0 0.74999999999934042 0 0 0.87499999999967015 0 0 0.81249999999950517 0.1082531754733404 0 0.24999999999941069 0 0 0.37499999999904599 0 0 0.31281086598417152 0.10449318608631281 0 0.50046028868828263 0.78376912307435687 0 0.37776173212361452 0.78514649317305008 0 0.44078402250377968 0.67714785211715212 0 0.68768773896438518 0.4586835206367198 0 0.75000000000032374 0.56698729811007709 0 0.62752533658682441 0.56838075195614346 0 0.31411863959822661 0.24965544328045999 0 0.37953773393552892 0.34812185820708452 0 0.24418615484441761 0.35773612382016978 0 0.68768773896438518 0.4586835206367198 0 0.81242894672211508 0.45500248311961472 0 0.75000000000032374 0.56698729811007709 0 1 0.24999999999941069 0 1 0.37499999999904599 0 0.88173731489851925 0.33077402607778361 0 0 0.75000000000034761 0 0 0.62500000000121547 0 0.1082531754723032 0.6875000000007816 0 0.50048844149666749 0.56727788297625459 0 0.44078402250377968 0.67714785211715212 0 0.38694285807596462 0.5672991787102919 0 0.50108503093851109 0.35012252869403671 0 0.44301038174930041 0.45684931552185398 0 0.37953773393552892 0.34812185820708452 0 0.50046028868828263 0.78376912307435687 0 0.56496004948275869 0.67675037307860475 0 0.62844955668446423 0.7850749770380413 0 0.68768773896438518 0.4586835206367198 0 0.75000000000057243 0.35048094716480432 0 0.81242894672211508 0.45500248311961472 0 0.56349980387502452 0.45846841892908402 0 0.62512662990940393 0.35044303886909911 0 0.68768773896438518 0.4586835206367198 0 0.50048844149666749 0.56727788297625459 0 0.38694285807596462 0.5672991787102919 0 0.44301038174930041 0.45684931552185398 0 0.50046028868828263 0.78376912307435687 0 0.44078402250377968 0.67714785211715212 0 0.56496004948275869 0.67675037307860475 0 0.50108503093851109 0.35012252869403671 0 0.37953773393552892 0.34812185820708452 0 0.43750000000200551 0.24222777169198509 0 0.75000000000034761 1 0 0.62500000000121547 1 0 0.69010814643829166 0.89298495739101336 0 0.68768773896438518 0.4586835206367198 0 0.62512662990940393 0.35044303886909911 0 0.75000000000057243 0.35048094716480432 0 0.56496004948275869 0.67675037307860475 0 0.44078402250377968 0.67714785211715212 0 0.50048844149666749 0.56727788297625459 0 0.56349980387502452 0.45846841892908402 0 0.44301038174930041 0.45684931552185398 0 0.50108503093851109 0.35012252869403671 0 0.50048844149666749 0.56727788297625459 0 0.44301038174930041 0.45684931552185398 0 0.56349980387502452 0.45846841892908402 0 0.56349980387502452 0.45846841892908402 0 0.50108503093851109 0.35012252869403671 0 0.62512662990940393 0.35044303886909911 0 0.43750000000200551 0.24222777169198509 0 0.37953773393552892 0.34812185820708452 0 0.31411863959822661 0.24965544328045999 0 0.56496004948275869 0.67675037307860475 0 0.50048844149666749 0.56727788297625459 0 0.62752533658682441 0.56838075195614346 0 0.56349980387502452 0.45846841892908402 0 0.68768773896438518 0.4586835206367198 0 0.62752533658682441 0.56838075195614346 0 0.50048844149666749 0.56727788297625459 0 0.56349980387502452 0.45846841892908402 0 0.62752533658682441 0.56838075195614346 0 0.75000000000057243 0.35048094716480432 0 0.62512662990940393 0.35044303886909911 0 0.68668231842078242 0.24762892664808989 0 0.50108503093851109 0.35012252869403671 0 0.43750000000200551 0.24222777169198509 0 0.56250000000143974 0.2422277716920859 0 0.62512662990940393 0.35044303886909911 0 0.50108503093851109 0.35012252869403671 0 0.56250000000143974 0.2422277716920859 0 0.68668231842078242 0.24762892664808989 0 0.62512662990940393 0.35044303886909911 0 0.56250000000143974 0.2422277716920859 0 0.22257735880419699 0.47344721641341742 0 0.24418615484441761 0.35773612382016978 0 0.32815957677880009 0.4577243358118348 0 0.12076953676380731 0.18690935762408761 0 0.19185372118111221 0.092925648673580788 0 0.25103557339309318 0.17464499738446629 0 0.20767261601459541 0.25628918442207171 0 0.12076953676380731 0.18690935762408761 0 0.25103557339309318 0.17464499738446629 0 0 0.87499999999950151 0 0 0.75000000000034761 0 0.10409951422139101 0.81206782209691231 0 0.1249999999997731 0 0 0.24999999999941069 0 0 0.19185372118111221 0.092925648673580788 0 1 0.1249999999997731 0 1 0.24999999999941069 0 0.89658421694297741 0.1933620068391701 0 0.88927506082488361 0.56409486310635837 0 0.81242894672211508 0.45500248311961472 0 0.915464298762109 0.43749999999886913 0 0.87499999999950151 1 0 0.75000000000034761 1 0 0.80886664387416207 0.89717308644237903 0 0.75000000000034761 1 0 0.69010814643829166 0.89298495739101336 0 0.80886664387416207 0.89717308644237903 0 0.82212678063041267 0.67678595194836966 0 0.88927506082488361 0.56409486310635837 0 0.92266244547590082 0.68749999999917555 0 0 0.75000000000034761 0 0.1082531754723032 0.6875000000007816 0 0.10409951422139101 0.81206782209691231 0 0.24999999999941069 0 0 0.31281086598417152 0.10449318608631281 0 0.19185372118111221 0.092925648673580788 0 1 0.24999999999941069 0 0.88173731489851925 0.33077402607778361 0 0.89658421694297741 0.1933620068391701 0 0.32815957677880009 0.4577243358118348 0 0.38694285807596462 0.5672991787102919 0 0.26982811998763367 0.56544650815856912 0 0.76243180583607129 0.78687675331113149 0 0.89051480781310632 0.79665793440246835 0 0.80886664387416207 0.89717308644237903 0 0.38694285807596462 0.5672991787102919 0 0.44078402250377968 0.67714785211715212 0 0.32607333794064219 0.67760114260606152 0 0.37776173212361452 0.78514649317305008 0 0.23533274979922561 0.77093399389351469 0 0.32607333794064219 0.67760114260606152 0 1 0.49999999999869221 0 0.88927506082488361 0.56409486310635837 0 0.915464298762109 0.43749999999886913 0 0.88173731489851925 0.33077402607778361 0 1 0.37499999999904599 0 0.915464298762109 0.43749999999886913 0 0.24418615484441761 0.35773612382016978 0 0.37953773393552892 0.34812185820708452 0 0.32815957677880009 0.4577243358118348 0 0.44301038174930041 0.45684931552185398 0 0.38694285807596462 0.5672991787102919 0 0.32815957677880009 0.4577243358118348 0 0.88927506082488361 0.56409486310635837 0 1 0.62499999999901068 0 0.92266244547590082 0.68749999999917555 0 1 0.74999999999934042 0 0.89051480781310632 0.79665793440246835 0 0.92266244547590082 0.68749999999917555 0 0 1 0 0 0.87499999999950151 0 0.091506350946494744 0.90849364905351082 0 1 1 0 0.87499999999950151 1 0 0.90849364905363228 0.90849364905367769 0 0 0 0 0.1249999999997731 0 0 0.091506350946417708 0.091506350946618076 0 0 0.12500000000052089 0 0 0 0 0.091506350946417708 0.091506350946618076 0 1 0 0 1 0.1249999999997731 0 0.90849364905355434 0.091506350946296292 0 0.87499999999967015 0 0 1 0 0 0.90849364905355434 0.091506350946296292 0 0.12500000000052089 1 0 0 1 0 0.091506350946494744 0.90849364905351082 0 1 0.87499999999967015 0 1 1 0 0.90849364905363228 0.90849364905367769 0 0.38694285807596462 0.5672991787102919 0 0.32607333794064219 0.67760114260606152 0 0.26982811998763367 0.56544650815856912 0 0.31411863959822661 0.24965544328045999 0 0.24418615484441761 0.35773612382016978 0 0.20767261601459541 0.25628918442207171 0 0.1082531754734323 0.31250000000117473 0 0.12076953676380731 0.18690935762408761 0 0.20767261601459541 0.25628918442207171 0 0.75000000000057243 0.35048094716480432 0 0.68668231842078242 0.24762892664808989 0 0.79891106056046712 0.25007334953587562 0 0.22257735880419699 0.47344721641341742 0 0.32815957677880009 0.4577243358118348 0 0.26982811998763367 0.56544650815856912 0 0.44078402250377968 0.67714785211715212 0 0.37776173212361452 0.78514649317305008 0 0.32607333794064219 0.67760114260606152 0 0.89658421694297741 0.1933620068391701 0 0.88173731489851925 0.33077402607778361 0 0.79891106056046712 0.25007334953587562 0 1 0.37499999999904599 0 1 0.49999999999869221 0 0.915464298762109 0.43749999999886913 0 0.37953773393552892 0.34812185820708452 0 0.44301038174930041 0.45684931552185398 0 0.32815957677880009 0.4577243358118348 0 0.32607333794064219 0.67760114260606152 0 0.21809253452218619 0.65480892822618109 0 0.26982811998763367 0.56544650815856912 0 1 0.1249999999997731 0 0.89658421694297741 0.1933620068391701 0 0.90849364905355434 0.091506350946296292 0 0 0.87499999999950151 0 0.10409951422139101 0.81206782209691231 0 0.091506350946494744 0.90849364905351082 0 0.1249999999997731 0 0 0.19185372118111221 0.092925648673580788 0 0.091506350946417708 0.091506350946618076 0 1 0.62499999999901068 0 1 0.74999999999934042 0 0.92266244547590082 0.68749999999917555 0 0.18802967116092181 0.89415349436770275 0 0.12500000000052089 1 0 0.091506350946494744 0.90849364905351082 0 0.89051480781310632 0.79665793440246835 0 1 0.87499999999967015 0 0.90849364905363228 0.90849364905367769 0 0.12076953676380731 0.18690935762408761 0 0 0.12500000000052089 0 0.091506350946417708 0.091506350946618076 0 0.81249999999950517 0.1082531754733404 0 0.87499999999967015 0 0 0.90849364905355434 0.091506350946296292 0 0.87499999999950151 1 0 0.80886664387416207 0.89717308644237903 0 0.90849364905363228 0.90849364905367769 0 0.68668231842078242 0.24762892664808989 0 0.62499999999892575 0.17524047358135519 0 0.73983916756365475 0.17530677078674589 0 0.31281086598417152 0.10449318608631281 0 0.43749999999910871 0.1082531754729984 0 0.37500000000232431 0.17524047358384309 0 0.62499999999892575 0.17524047358135519 0 0.56250000000143974 0.2422277716920859 0 0.49999999999934441 0.1752404735815076 0 0.56249999999885147 0.1082531754730395 0 0.68749999999926592 0.1082531754732875 0 0.62499999999892575 0.17524047358135519 0 0.56249999999885147 0.1082531754730395 0 0.62499999999892575 0.17524047358135519 0 0.49999999999934441 0.1752404735815076 0 0.56250000000143974 0.2422277716920859 0 0.43750000000200551 0.24222777169198509 0 0.49999999999934441 0.1752404735815076 0 0.43749999999910871 0.1082531754729984 0 0.56249999999885147 0.1082531754730395 0 0.49999999999934441 0.1752404735815076 0 0.68668231842078242 0.24762892664808989 0 0.56250000000143974 0.2422277716920859 0 0.62499999999892575 0.17524047358135519 0 0.43750000000200551 0.24222777169198509 0 0.31411863959822661 0.24965544328045999 0 0.37500000000232431 0.17524047358384309 0 0.49999999999934441 0.1752404735815076 0 0.43750000000200551 0.24222777169198509 0 0.37500000000232431 0.17524047358384309 0 0.43749999999910871 0.1082531754729984 0 0.49999999999934441 0.1752404735815076 0 0.37500000000232431 0.17524047358384309 0 0.62499999999892575 0.17524047358135519 0 0.68749999999926592 0.1082531754732875 0 0.73983916756365475 0.17530677078674589 0 0.68749999999926592 0.1082531754732875 0 0.81249999999950517 0.1082531754733404 0 0.73983916756365475 0.17530677078674589 0 0.10409951422139101 0.81206782209691231 0 0.18802967116092181 0.89415349436770275 0 0.091506350946494744 0.90849364905351082 0 0.89658421694297741 0.1933620068391701 0 0.81249999999950517 0.1082531754733404 0 0.90849364905355434 0.091506350946296292 0 0.19185372118111221 0.092925648673580788 0 0.12076953676380731 0.18690935762408761 0 0.091506350946417708 0.091506350946618076 0 0.37500000000232431 0.17524047358384309 0 0.31411863959822661 0.24965544328045999 0 0.25103557339309318 0.17464499738446629 0 0.31281086598417152 0.10449318608631281 0 0.37500000000232431 0.17524047358384309 0 0.25103557339309318 0.17464499738446629 0 0.80886664387416207 0.89717308644237903 0 0.89051480781310632 0.79665793440246835 0 0.90849364905363228 0.90849364905367769 0 0.19185372118111221 0.092925648673580788 0 0.31281086598417152 0.10449318608631281 0 0.25103557339309318 0.17464499738446629 0 0.79891106056046712 0.25007334953587562 0 0.68668231842078242 0.24762892664808989 0 0.73983916756365475 0.17530677078674589 0 0.31411863959822661 0.24965544328045999 0 0.20767261601459541 0.25628918442207171 0 0.25103557339309318 0.17464499738446629 0 

        </DataArray>

      </Points>

      <Cells>

        <DataArray type="Int32" Name="connectivity" format="ascii">

0 1 2 3 4 5 6 7 8 9 10 11 12 13 14 15 16 17 18 19 20 21 22 23 24 25 26 27 28 29 30 31 32 33 34 35 36 37 38 39 40 41 42 43 44 45 46 47 48 49 50 51 52 53 54 55 56 57 58 59 60 61 62 63 64 65 66 67 68 69 70 71 72 73 74 75 76 77 78 79 80 81 82 83 84 85 86 87 88 89 90 91 92 93 94 95 96 97 98 99 100 101 102 103 104 105 106 107 108 109 110 111 112 113 114 115 116 117 118 119 120 121 122 123 124 125 126 127 128 129 130 131 132 133 134 135 136 137 138 139 140 141 142 143 144 145 146 147 148 149 150 151 152 153 154 155 156 157 158 159 160 161 162 163 164 165 166 167 168 169 170 171 172 173 174 175 176 177 178 179 180 181 182 183 184 185 186 187 188 189 190 191 192 193 194 195 196 197 198 199 200 201 202 203 204 205 206 207 208 209 210 211 212 213 214 215 216 217 218 219 220 221 222 223 224 225 226 227 228 229 230 231 232 233 234 235 236 237 238 239 240 241 242 243 244 245 246 247 248 249 250 251 252 253 254 255 256 257 258 259 260 261 262 263 264 265 266 267 268 269 270 271 272 273 274 275 276 277 278 279 280 281 282 283 284 285 286 287 288 289 290 291 292 293 294 295 296 297 298 299 300 301 302 303 304 305 306 307 308 309 310 311 312 313 314 315 316 317 318 319 320 321 322 323 324 325 326 327 328 329 330 331 332 333 334 335 336 337 338 339 340 341 342 343 344 345 346 347 348 349 350 351 352 353 354 355 356 357 358 359 360 361 362 363 364 365 366 367 368 369 370 371 372 373 374 375 376 377 378 379 380 381 382 383 384 385 386 387 388 389 390 391 392 393 394 395 396 397 398 399 400 401 402 403 404 405 406 407 408 409 410 411 412 413 414 415 416 417 418 419 420 421 422 423 424 425 426 427 428 429 430 431 432 433 434 435 436 437 438 439 440 441 442 443 444 445 446 447 448 449 450 451 452 453 454 455 456 457 458 459 460 461 462 463 464 465 466 467 468 469 470 471 472 473 474 475 476 477 478 479 480 481 482 483 484 485 

        </DataArray>

        <DataArray type="Int32" Name="offsets" format="ascii">

3 6 9 12 15 18 21 24 27 30 33 36 39 42 45 48 51 54 57 60 63 66 69 72 75 78 81 84 87 90 93 96 99 102 105 108 111 114 117 120 123 126 129 132 135 138 141 144 147 150 153 156 159 162 165 168 171 174 177 180 183 186 189 192 195 198 201 204 207 210 213 216 219 222 225 228 231 234 237 240 243 246 249 252 255 258 261 264 267 270 273 276 279 282 285 288 291 294 297 300 303 306 309 312 315 318 321 324 327 330 333 336 339 342 345 348 351 354 357 360 363 366 369 372 375 378 381 384 387 390 393 396 399 402 405 408 411 414 417 420 423 426 429 432 435 438 441 444 447 450 453 456 459 462 465 468 471 474 477 480 483 486 

        </DataArray>

        <DataArray type="Int32" Name="types" format="ascii">

5 5 5 5 5 5 5 5 5 5 5 5 5 5 5 5 5 5 5 5 5 5 5 5 5 5 5 5 5 5 5 5 5 5 5 5 5 5 5 5 5 5 5 5 5 5 5 5 5 5 5 5 5 5 5 5 5 5 5 5 5 5 5 5 5 5 5 5 5 5 5 5 5 5 5 5 5 5 5 5 5 5 5 5 5 5 5 5 5 5 5 5 5 5 5 5 5 5 5 5 5 5 5 5 5 5 5 5 5 5 5 5 5 5 5 5 5 5 5 5 5 5 5 5 5 5 5 5 5 5 5 5 5 5 5 5 5 5 5 5 5 5 5 5 5 5 5 5 5 5 5 5 5 5 5 5 5 5 5 5 5 5 

        </DataArray>

      </Cells>

    </Piece>

  </UnstructuredGrid>

</VTKFile>

