<?xml version="1.0"?>

<VTKFile type="UnstructuredGrid" version="0.1">

  <UnstructuredGrid>

    <Piece NumberOfPoints="486" NumberOfCells="162">

      <PointData>

        <DataArray type="Float64" Name="K" format="ascii">

1.02190639912473902e+00
1.02190639912473902e+00
1.02190639912473902e+00
1.03133727164787614e+00
1.03133727164787614e+00
1.03133727164787614e+00
1.02898491951198046e+00
1.02898491951198046e+00
1.02898491951198046e+00
9.79140247747757653e-01
9.79140247747757653e-01
9.79140247747757653e-01
1.04163963517251323e+00
1.04163963517251323e+00
1.04163963517251323e+00
9.65142615392953429e-01
9.65142615392953429e-01
9.65142615392953429e-01
1.01687613659461218e+00
1.01687613659461218e+00
1.01687613659461218e+00
9.64601160950650849e-01
9.64601160950650849e-01
9.64601160950650849e-01
9.59360170137529056e-01
9.59360170137529056e-01
9.59360170137529056e-01
9.77639048234491215e-01
9.77639048234491215e-01
9.77639048234491215e-01
1.03131223749499235e+00
1.03131223749499235e+00
1.03131223749499235e+00
1.03285875785035786e+00
1.03285875785035786e+00
1.03285875785035786e+00
9.39517212802945534e-01
9.39517212802945534e-01
9.39517212802945534e-01
9.33508624999857539e-01
9.33508624999857539e-01
9.33508624999857539e-01
9.77188366980958567e-01
9.77188366980958567e-01
9.77188366980958567e-01
9.46893159645135429e-01
9.46893159645135429e-01
9.46893159645135429e-01
1.00058991471578707e+00
1.00058991471578707e+00
1.00058991471578707e+00
1.05157954391936181e+00
1.05157954391936181e+00
1.05157954391936181e+00
9.32894433854032701e-01
9.32894433854032701e-01
9.32894433854032701e-01
9.76595116272765851e-01
9.76595116272765851e-01
9.76595116272765851e-01
1.05264334701757356e+00
1.05264334701757356e+00
1.05264334701757356e+00
1.04829177559434283e+00
1.04829177559434283e+00
1.04829177559434283e+00
1.01191248207607054e+00
1.01191248207607054e+00
1.01191248207607054e+00
1.01760416074444149e+00
1.01760416074444149e+00
1.01760416074444149e+00
9.23778792045093278e-01
9.23778792045093278e-01
9.23778792045093278e-01
1.07367386322859693e+00
1.07367386322859693e+00
1.07367386322859693e+00
1.06597905288292094e+00
1.06597905288292094e+00
1.06597905288292094e+00
1.01074637018293179e+00
1.01074637018293179e+00
1.01074637018293179e+00
1.05014920166919179e+00
1.05014920166919179e+00
1.05014920166919179e+00
9.38578406389012576e-01
9.38578406389012576e-01
9.38578406389012576e-01
9.53219017371363386e-01
9.53219017371363386e-01
9.53219017371363386e-01
9.93659394345708824e-01
9.93659394345708824e-01
9.93659394345708824e-01
9.71779015972327409e-01
9.71779015972327409e-01
9.71779015972327409e-01
1.02972259556675816e+00
1.02972259556675816e+00
1.02972259556675816e+00
9.47043763240963510e-01
9.47043763240963510e-01
9.47043763240963510e-01
9.97462039958150304e-01
9.97462039958150304e-01
9.97462039958150304e-01
1.02360901939851701e+00
1.02360901939851701e+00
1.02360901939851701e+00
9.82021763527005653e-01
9.82021763527005653e-01
9.82021763527005653e-01
9.84267730416160780e-01
9.84267730416160780e-01
9.84267730416160780e-01
9.92717544127567519e-01
9.92717544127567519e-01
9.92717544127567519e-01
9.68395279300524381e-01
9.68395279300524381e-01
9.68395279300524381e-01
1.02301384943574436e+00
1.02301384943574436e+00
1.02301384943574436e+00
9.60623725147481733e-01
9.60623725147481733e-01
9.60623725147481733e-01
1.02367027911952579e+00
1.02367027911952579e+00
1.02367027911952579e+00
1.03634641135143224e+00
1.03634641135143224e+00
1.03634641135143224e+00
9.77940571571287887e-01
9.77940571571287887e-01
9.77940571571287887e-01
9.80649751148202631e-01
9.80649751148202631e-01
9.80649751148202631e-01
1.01775737270363087e+00
1.01775737270363087e+00
1.01775737270363087e+00
1.00750171985695292e+00
1.00750171985695292e+00
1.00750171985695292e+00
1.03192987238829836e+00
1.03192987238829836e+00
1.03192987238829836e+00
1.05885957869412017e+00
1.05885957869412017e+00
1.05885957869412017e+00
9.96419485517341830e-01
9.96419485517341830e-01
9.96419485517341830e-01
1.04992882457971914e+00
1.04992882457971914e+00
1.04992882457971914e+00
1.04105121437197212e+00
1.04105121437197212e+00
1.04105121437197212e+00
9.82025550866258867e-01
9.82025550866258867e-01
9.82025550866258867e-01
1.00180430905055018e+00
1.00180430905055018e+00
1.00180430905055018e+00
9.99012202781951575e-01
9.99012202781951575e-01
9.99012202781951575e-01
1.02735894671948924e+00
1.02735894671948924e+00
1.02735894671948924e+00
9.83727483463773811e-01
9.83727483463773811e-01
9.83727483463773811e-01
1.00862904555328758e+00
1.00862904555328758e+00
1.00862904555328758e+00
1.06292083660869974e+00
1.06292083660869974e+00
1.06292083660869974e+00
9.69864237335236412e-01
9.69864237335236412e-01
9.69864237335236412e-01
1.02636869744111037e+00
1.02636869744111037e+00
1.02636869744111037e+00
9.41566433180082818e-01
9.41566433180082818e-01
9.41566433180082818e-01
1.03006272408554733e+00
1.03006272408554733e+00
1.03006272408554733e+00
9.31330320645408327e-01
9.31330320645408327e-01
9.31330320645408327e-01
9.91965491381360809e-01
9.91965491381360809e-01
9.91965491381360809e-01
1.01923952221138703e+00
1.01923952221138703e+00
1.01923952221138703e+00
1.02852673206630407e+00
1.02852673206630407e+00
1.02852673206630407e+00
1.03927681595637811e+00
1.03927681595637811e+00
1.03927681595637811e+00
1.01620475466496463e+00
1.01620475466496463e+00
1.01620475466496463e+00
9.58495664063695685e-01
9.58495664063695685e-01
9.58495664063695685e-01
9.87167625348668976e-01
9.87167625348668976e-01
9.87167625348668976e-01
1.02379075777353301e+00
1.02379075777353301e+00
1.02379075777353301e+00
1.04161658486392139e+00
1.04161658486392139e+00
1.04161658486392139e+00
1.05764964945499962e+00
1.05764964945499962e+00
1.05764964945499962e+00
9.67565953554835323e-01
9.67565953554835323e-01
9.67565953554835323e-01
9.76897984946503040e-01
9.76897984946503040e-01
9.76897984946503040e-01
1.04639821429655888e+00
1.04639821429655888e+00
1.04639821429655888e+00
1.02742050660288298e+00
1.02742050660288298e+00
1.02742050660288298e+00
1.03099925855238217e+00
1.03099925855238217e+00
1.03099925855238217e+00
1.00959111960066594e+00
1.00959111960066594e+00
1.00959111960066594e+00
1.05405328554885691e+00
1.05405328554885691e+00
1.05405328554885691e+00
1.02826100643134577e+00
1.02826100643134577e+00
1.02826100643134577e+00
9.84612456979058859e-01
9.84612456979058859e-01
9.84612456979058859e-01
1.02294177792800123e+00
1.02294177792800123e+00
1.02294177792800123e+00
9.95451209755075062e-01
9.95451209755075062e-01
9.95451209755075062e-01
1.04892777133779802e+00
1.04892777133779802e+00
1.04892777133779802e+00
1.01241492754085849e+00
1.01241492754085849e+00
1.01241492754085849e+00
9.97051265121408181e-01
9.97051265121408181e-01
9.97051265121408181e-01
1.03684680943992014e+00
1.03684680943992014e+00
1.03684680943992014e+00
9.70408849732950829e-01
9.70408849732950829e-01
9.70408849732950829e-01
9.82178007933265151e-01
9.82178007933265151e-01
9.82178007933265151e-01
1.02262090153791707e+00
1.02262090153791707e+00
1.02262090153791707e+00
9.45456873452862778e-01
9.45456873452862778e-01
9.45456873452862778e-01
1.04234184248921014e+00
1.04234184248921014e+00
1.04234184248921014e+00
9.50561881540900044e-01
9.50561881540900044e-01
9.50561881540900044e-01
9.31019351622695113e-01
9.31019351622695113e-01
9.31019351622695113e-01
9.47154742621119983e-01
9.47154742621119983e-01
9.47154742621119983e-01
9.68611288341052035e-01
9.68611288341052035e-01
9.68611288341052035e-01
1.02422489889878809e+00
1.02422489889878809e+00
1.02422489889878809e+00
9.49611648669376307e-01
9.49611648669376307e-01
9.49611648669376307e-01
1.02076578043980293e+00
1.02076578043980293e+00
1.02076578043980293e+00
1.01185050168248236e+00
1.01185050168248236e+00
1.01185050168248236e+00
9.61068463506734361e-01
9.61068463506734361e-01
9.61068463506734361e-01
1.00771735684659292e+00
1.00771735684659292e+00
1.00771735684659292e+00
9.99734625610771754e-01
9.99734625610771754e-01
9.99734625610771754e-01
9.59412910624567794e-01
9.59412910624567794e-01
9.59412910624567794e-01
9.72334393782973594e-01
9.72334393782973594e-01
9.72334393782973594e-01
1.03324531899784056e+00
1.03324531899784056e+00
1.03324531899784056e+00
1.01449974085210237e+00
1.01449974085210237e+00
1.01449974085210237e+00
9.69671155459202128e-01
9.69671155459202128e-01
9.69671155459202128e-01
9.79572232374412932e-01
9.79572232374412932e-01
9.79572232374412932e-01
1.01547713760537972e+00
1.01547713760537972e+00
1.01547713760537972e+00
9.82345354524205905e-01
9.82345354524205905e-01
9.82345354524205905e-01
9.50379050717503060e-01
9.50379050717503060e-01
9.50379050717503060e-01
9.58713001542840781e-01
9.58713001542840781e-01
9.58713001542840781e-01
1.07218166977718310e+00
1.07218166977718310e+00
1.07218166977718310e+00
1.07336032645428769e+00
1.07336032645428769e+00
1.07336032645428769e+00
9.87664902163761682e-01
9.87664902163761682e-01
9.87664902163761682e-01
1.00273523269310738e+00
1.00273523269310738e+00
1.00273523269310738e+00
1.00269027098559627e+00
1.00269027098559627e+00
1.00269027098559627e+00
1.00656523393153230e+00
1.00656523393153230e+00
1.00656523393153230e+00
1.00722438042849505e+00
1.00722438042849505e+00
1.00722438042849505e+00
1.02180192608375964e+00
1.02180192608375964e+00
1.02180192608375964e+00
1.03362940107278711e+00
1.03362940107278711e+00
1.03362940107278711e+00
1.00961494917489247e+00
1.00961494917489247e+00
1.00961494917489247e+00
1.03961713833344760e+00
1.03961713833344760e+00
1.03961713833344760e+00
9.64692558752132667e-01
9.64692558752132667e-01
9.64692558752132667e-01
1.02969970635920460e+00
1.02969970635920460e+00
1.02969970635920460e+00
1.01627739634421665e+00
1.01627739634421665e+00
1.01627739634421665e+00
1.06640640065863446e+00
1.06640640065863446e+00
1.06640640065863446e+00
1.00739877855177018e+00
1.00739877855177018e+00
1.00739877855177018e+00
9.61150326566456270e-01
9.61150326566456270e-01
9.61150326566456270e-01
9.67192409022864075e-01
9.67192409022864075e-01
9.67192409022864075e-01
9.78569005239246836e-01
9.78569005239246836e-01
9.78569005239246836e-01
9.82812719932734113e-01
9.82812719932734113e-01
9.82812719932734113e-01
9.92428507707029062e-01
9.92428507707029062e-01
9.92428507707029062e-01
1.07896623248172818e+00
1.07896623248172818e+00
1.07896623248172818e+00
9.50440000299131005e-01
9.50440000299131005e-01
9.50440000299131005e-01
1.01630566961031787e+00
1.01630566961031787e+00
1.01630566961031787e+00
1.03355480273014089e+00
1.03355480273014089e+00
1.03355480273014089e+00
1.03044946399535786e+00
1.03044946399535786e+00
1.03044946399535786e+00
1.01746173335746337e+00
1.01746173335746337e+00
1.01746173335746337e+00
1.03707637467884606e+00
1.03707637467884606e+00
1.03707637467884606e+00
1.06092794953897673e+00
1.06092794953897673e+00
1.06092794953897673e+00
1.06721484745435857e+00
1.06721484745435857e+00
1.06721484745435857e+00
1.00456996143179400e+00
1.00456996143179400e+00
1.00456996143179400e+00
1.05183743007399966e+00
1.05183743007399966e+00
1.05183743007399966e+00
1.07499302112936745e+00
1.07499302112936745e+00
1.07499302112936745e+00
1.07220322907045684e+00
1.07220322907045684e+00
1.07220322907045684e+00
1.02162144841326841e+00
1.02162144841326841e+00
1.02162144841326841e+00
1.05211043592827580e+00
1.05211043592827580e+00
1.05211043592827580e+00
9.91254151391456229e-01
9.91254151391456229e-01
9.91254151391456229e-01
1.08090969195806297e+00
1.08090969195806297e+00
1.08090969195806297e+00
9.80645748959897978e-01
9.80645748959897978e-01
9.80645748959897978e-01
1.00539620140073849e+00
1.00539620140073849e+00
1.00539620140073849e+00
9.91866914863635651e-01
9.91866914863635651e-01
9.91866914863635651e-01
9.64897094774075592e-01
9.64897094774075592e-01
9.64897094774075592e-01
9.58591257549264886e-01
9.58591257549264886e-01
9.58591257549264886e-01
1.03875119155062845e+00
1.03875119155062845e+00
1.03875119155062845e+00
9.87499148529008552e-01
9.87499148529008552e-01
9.87499148529008552e-01


        </DataArray>

      </PointData>

      <CellData/>

      <Points>

        <DataArray type="Float64" NumberOfComponents="3" format="ascii">

0.1082531754723032 0.6875000000007816 0 0.23533274979922561 0.77093399389351469 0 0.10409951422139101 0.81206782209691231 0 0.23533274979922561 0.77093399389351469 0 0.1082531754723032 0.6875000000007816 0 0.21809253452218619 0.65480892822618109 0 0.24418615484441761 0.35773612382016978 0 0.121259140952891 0.43112117036853742 0 0.1082531754734323 0.31250000000117473 0 0.75000000000057243 0.35048094716480432 0 0.88173731489851925 0.33077402607778361 0 0.81242894672211508 0.45500248311961472 0 0.121259140952891 0.43112117036853742 0 0.24418615484441761 0.35773612382016978 0 0.22257735880419699 0.47344721641341742 0 0.81242894672211508 0.45500248311961472 0 0.88173731489851925 0.33077402607778361 0 0.915464298762109 0.43749999999886913 0 0 0.62500000000121547 0 0 0.50000000000206146 0 0.1371230538040123 0.56179824718362847 0 0.82212678063041267 0.67678595194836966 0 0.89051480781310632 0.79665793440246835 0 0.76243180583607129 0.78687675331113149 0 0.76243180583607129 0.78687675331113149 0 0.69010814643829166 0.89298495739101336 0 0.62844955668446423 0.7850749770380413 0 0.89051480781310632 0.79665793440246835 0 0.82212678063041267 0.67678595194836966 0 0.92266244547590082 0.68749999999917555 0 0 0.50000000000206146 0 0.121259140952891 0.43112117036853742 0 0.1371230538040123 0.56179824718362847 0 0.1082531754723032 0.6875000000007816 0 0 0.62500000000121547 0 0.1371230538040123 0.56179824718362847 0 0.75000000000032374 0.56698729811007709 0 0.88927506082488361 0.56409486310635837 0 0.82212678063041267 0.67678595194836966 0 0.81242894672211508 0.45500248311961472 0 0.88927506082488361 0.56409486310635837 0 0.75000000000032374 0.56698729811007709 0 0.69851598570178741 0.68211701800612057 0 0.56496004948275869 0.67675037307860475 0 0.62752533658682441 0.56838075195614346 0 0.69851598570178741 0.68211701800612057 0 0.76243180583607129 0.78687675331113149 0 0.62844955668446423 0.7850749770380413 0 0.23533274979922561 0.77093399389351469 0 0.18802967116092181 0.89415349436770275 0 0.10409951422139101 0.81206782209691231 0 0.121259140952891 0.43112117036853742 0 0.22257735880419699 0.47344721641341742 0 0.1371230538040123 0.56179824718362847 0 0.75000000000032374 0.56698729811007709 0 0.69851598570178741 0.68211701800612057 0 0.62752533658682441 0.56838075195614346 0 0.56496004948275869 0.67675037307860475 0 0.69851598570178741 0.68211701800612057 0 0.62844955668446423 0.7850749770380413 0 0.1371230538040123 0.56179824718362847 0 0.22257735880419699 0.47344721641341742 0 0.26982811998763367 0.56544650815856912 0 0.21809253452218619 0.65480892822618109 0 0.1371230538040123 0.56179824718362847 0 0.26982811998763367 0.56544650815856912 0 0.24418615484441761 0.35773612382016978 0 0.1082531754734323 0.31250000000117473 0 0.20767261601459541 0.25628918442207171 0 0.88173731489851925 0.33077402607778361 0 0.75000000000057243 0.35048094716480432 0 0.79891106056046712 0.25007334953587562 0 0.75000000000032374 0.56698729811007709 0 0.82212678063041267 0.67678595194836966 0 0.69851598570178741 0.68211701800612057 0 0.81249999999950517 0.1082531754733404 0 0.89658421694297741 0.1933620068391701 0 0.79891106056046712 0.25007334953587562 0 0.81249999999950517 0.1082531754733404 0 0.79891106056046712 0.25007334953587562 0 0.73983916756365475 0.17530677078674589 0 0.23533274979922561 0.77093399389351469 0 0.21809253452218619 0.65480892822618109 0 0.32607333794064219 0.67760114260606152 0 0.1082531754723032 0.6875000000007816 0 0.1371230538040123 0.56179824718362847 0 0.21809253452218619 0.65480892822618109 0 0.69851598570178741 0.68211701800612057 0 0.82212678063041267 0.67678595194836966 0 0.76243180583607129 0.78687675331113149 0 0.69010814643829166 0.89298495739101336 0 0.76243180583607129 0.78687675331113149 0 0.80886664387416207 0.89717308644237903 0 0.43750000000181222 0.89174682452709564 0 0.31258827852827581 0.89214793616708443 0 0.37776173212361452 0.78514649317305008 0 0.43750000000181222 0.89174682452709564 0 0.37500000000156292 1 0 0.31258827852827581 0.89214793616708443 0 0.121259140952891 0.43112117036853742 0 0 0.37500000000156292 0 0.1082531754734323 0.31250000000117473 0 0.50000000000206146 1 0 0.37500000000156292 1 0 0.43750000000181222 0.89174682452709564 0 0.31258827852827581 0.89214793616708443 0 0.18802967116092181 0.89415349436770275 0 0.23533274979922561 0.77093399389351469 0 0 0.50000000000206146 0 0 0.37500000000156292 0 0.121259140952891 0.43112117036853742 0 0.62844955668446423 0.7850749770380413 0 0.69010814643829166 0.89298495739101336 0 0.56327595140699671 0.89211526915426331 0 0.69010814643829166 0.89298495739101336 0 0.62500000000121547 1 0 0.56327595140699671 0.89211526915426331 0 0.25000000000104189 1 0 0.18802967116092181 0.89415349436770275 0 0.31258827852827581 0.89214793616708443 0 0.50000000000206146 1 0 0.43750000000181222 0.89174682452709564 0 0.56327595140699671 0.89211526915426331 0 0.56249999999885147 0.1082531754730395 0 0.62499999999901068 0 0 0.68749999999926592 0.1082531754732875 0 1 0.49999999999869221 0 1 0.62499999999901068 0 0.88927506082488361 0.56409486310635837 0 0 0.25000000000104189 0 0.12076953676380731 0.18690935762408761 0 0.1082531754734323 0.31250000000117473 0 0.49999999999869221 0 0 0.62499999999901068 0 0 0.56249999999885147 0.1082531754730395 0 0.62500000000121547 1 0 0.50000000000206146 1 0 0.56327595140699671 0.89211526915426331 0 0.37500000000156292 1 0 0.25000000000104189 1 0 0.31258827852827581 0.89214793616708443 0 0.31281086598417152 0.10449318608631281 0 0.37499999999904599 0 0 0.43749999999910871 0.1082531754729984 0 0.43750000000181222 0.89174682452709564 0 0.37776173212361452 0.78514649317305008 0 0.50046028868828263 0.78376912307435687 0 0 0.37500000000156292 0 0 0.25000000000104189 0 0.1082531754734323 0.31250000000117473 0 0.49999999999869221 0 0 0.56249999999885147 0.1082531754730395 0 0.43749999999910871 0.1082531754729984 0 0.43750000000181222 0.89174682452709564 0 0.50046028868828263 0.78376912307435687 0 0.56327595140699671 0.89211526915426331 0 0.74999999999934042 0 0 0.81249999999950517 0.1082531754733404 0 0.68749999999926592 0.1082531754732875 0 0.37499999999904599 0 0 0.49999999999869221 0 0 0.43749999999910871 0.1082531754729984 0 0.25000000000104189 1 0 0.12500000000052089 1 0 0.18802967116092181 0.89415349436770275 0 0.50046028868828263 0.78376912307435687 0 0.62844955668446423 0.7850749770380413 0 0.56327595140699671 0.89211526915426331 0 0.37776173212361452 0.78514649317305008 0 0.31258827852827581 0.89214793616708443 0 0.23533274979922561 0.77093399389351469 0 0.62499999999901068 0 0 0.74999999999934042 0 0 0.68749999999926592 0.1082531754732875 0 1 0.74999999999934042 0 1 0.87499999999967015 0 0.89051480781310632 0.79665793440246835 0 0 0.25000000000104189 0 0 0.12500000000052089 0 0.12076953676380731 0.18690935762408761 0 0.74999999999934042 0 0 0.87499999999967015 0 0 0.81249999999950517 0.1082531754733404 0 0.24999999999941069 0 0 0.37499999999904599 0 0 0.31281086598417152 0.10449318608631281 0 0.50046028868828263 0.78376912307435687 0 0.37776173212361452 0.78514649317305008 0 0.44078402250377968 0.67714785211715212 0 0.68768773896438518 0.4586835206367198 0 0.75000000000032374 0.56698729811007709 0 0.62752533658682441 0.56838075195614346 0 0.31411863959822661 0.24965544328045999 0 0.37953773393552892 0.34812185820708452 0 0.24418615484441761 0.35773612382016978 0 0.68768773896438518 0.4586835206367198 0 0.81242894672211508 0.45500248311961472 0 0.75000000000032374 0.56698729811007709 0 1 0.24999999999941069 0 1 0.37499999999904599 0 0.88173731489851925 0.33077402607778361 0 0 0.75000000000034761 0 0 0.62500000000121547 0 0.1082531754723032 0.6875000000007816 0 0.50048844149666749 0.56727788297625459 0 0.44078402250377968 0.67714785211715212 0 0.38694285807596462 0.5672991787102919 0 0.50108503093851109 0.35012252869403671 0 0.44301038174930041 0.45684931552185398 0 0.37953773393552892 0.34812185820708452 0 0.50046028868828263 0.78376912307435687 0 0.56496004948275869 0.67675037307860475 0 0.62844955668446423 0.7850749770380413 0 0.68768773896438518 0.4586835206367198 0 0.75000000000057243 0.35048094716480432 0 0.81242894672211508 0.45500248311961472 0 0.56349980387502452 0.45846841892908402 0 0.62512662990940393 0.35044303886909911 0 0.68768773896438518 0.4586835206367198 0 0.50048844149666749 0.56727788297625459 0 0.38694285807596462 0.5672991787102919 0 0.44301038174930041 0.45684931552185398 0 0.50046028868828263 0.78376912307435687 0 0.44078402250377968 0.67714785211715212 0 0.56496004948275869 0.67675037307860475 0 0.50108503093851109 0.35012252869403671 0 0.37953773393552892 0.34812185820708452 0 0.43750000000200551 0.24222777169198509 0 0.75000000000034761 1 0 0.62500000000121547 1 0 0.69010814643829166 0.89298495739101336 0 0.68768773896438518 0.4586835206367198 0 0.62512662990940393 0.35044303886909911 0 0.75000000000057243 0.35048094716480432 0 0.56496004948275869 0.67675037307860475 0 0.44078402250377968 0.67714785211715212 0 0.50048844149666749 0.56727788297625459 0 0.56349980387502452 0.45846841892908402 0 0.44301038174930041 0.45684931552185398 0 0.50108503093851109 0.35012252869403671 0 0.50048844149666749 0.56727788297625459 0 0.44301038174930041 0.45684931552185398 0 0.56349980387502452 0.45846841892908402 0 0.56349980387502452 0.45846841892908402 0 0.50108503093851109 0.35012252869403671 0 0.62512662990940393 0.35044303886909911 0 0.43750000000200551 0.24222777169198509 0 0.37953773393552892 0.34812185820708452 0 0.31411863959822661 0.24965544328045999 0 0.56496004948275869 0.67675037307860475 0 0.50048844149666749 0.56727788297625459 0 0.62752533658682441 0.56838075195614346 0 0.56349980387502452 0.45846841892908402 0 0.68768773896438518 0.4586835206367198 0 0.62752533658682441 0.56838075195614346 0 0.50048844149666749 0.56727788297625459 0 0.56349980387502452 0.45846841892908402 0 0.62752533658682441 0.56838075195614346 0 0.75000000000057243 0.35048094716480432 0 0.62512662990940393 0.35044303886909911 0 0.68668231842078242 0.24762892664808989 0 0.50108503093851109 0.35012252869403671 0 0.43750000000200551 0.24222777169198509 0 0.56250000000143974 0.2422277716920859 0 0.62512662990940393 0.35044303886909911 0 0.50108503093851109 0.35012252869403671 0 0.56250000000143974 0.2422277716920859 0 0.68668231842078242 0.24762892664808989 0 0.62512662990940393 0.35044303886909911 0 0.56250000000143974 0.2422277716920859 0 0.22257735880419699 0.47344721641341742 0 0.24418615484441761 0.35773612382016978 0 0.32815957677880009 0.4577243358118348 0 0.12076953676380731 0.18690935762408761 0 0.19185372118111221 0.092925648673580788 0 0.25103557339309318 0.17464499738446629 0 0.20767261601459541 0.25628918442207171 0 0.12076953676380731 0.18690935762408761 0 0.25103557339309318 0.17464499738446629 0 0 0.87499999999950151 0 0 0.75000000000034761 0 0.10409951422139101 0.81206782209691231 0 0.1249999999997731 0 0 0.24999999999941069 0 0 0.19185372118111221 0.092925648673580788 0 1 0.1249999999997731 0 1 0.24999999999941069 0 0.89658421694297741 0.1933620068391701 0 0.88927506082488361 0.56409486310635837 0 0.81242894672211508 0.45500248311961472 0 0.915464298762109 0.43749999999886913 0 0.87499999999950151 1 0 0.75000000000034761 1 0 0.80886664387416207 0.89717308644237903 0 0.75000000000034761 1 0 0.69010814643829166 0.89298495739101336 0 0.80886664387416207 0.89717308644237903 0 0.82212678063041267 0.67678595194836966 0 0.88927506082488361 0.56409486310635837 0 0.92266244547590082 0.68749999999917555 0 0 0.75000000000034761 0 0.1082531754723032 0.6875000000007816 0 0.10409951422139101 0.81206782209691231 0 0.24999999999941069 0 0 0.31281086598417152 0.10449318608631281 0 0.19185372118111221 0.092925648673580788 0 1 0.24999999999941069 0 0.88173731489851925 0.33077402607778361 0 0.89658421694297741 0.1933620068391701 0 0.32815957677880009 0.4577243358118348 0 0.38694285807596462 0.5672991787102919 0 0.26982811998763367 0.56544650815856912 0 0.76243180583607129 0.78687675331113149 0 0.89051480781310632 0.79665793440246835 0 0.80886664387416207 0.89717308644237903 0 0.38694285807596462 0.5672991787102919 0 0.44078402250377968 0.67714785211715212 0 0.32607333794064219 0.67760114260606152 0 0.37776173212361452 0.78514649317305008 0 0.23533274979922561 0.77093399389351469 0 0.32607333794064219 0.67760114260606152 0 1 0.49999999999869221 0 0.88927506082488361 0.56409486310635837 0 0.915464298762109 0.43749999999886913 0 0.88173731489851925 0.33077402607778361 0 1 0.37499999999904599 0 0.915464298762109 0.43749999999886913 0 0.24418615484441761 0.35773612382016978 0 0.37953773393552892 0.34812185820708452 0 0.32815957677880009 0.4577243358118348 0 0.44301038174930041 0.45684931552185398 0 0.38694285807596462 0.5672991787102919 0 0.32815957677880009 0.4577243358118348 0 0.88927506082488361 0.56409486310635837 0 1 0.62499999999901068 0 0.92266244547590082 0.68749999999917555 0 1 0.74999999999934042 0 0.89051480781310632 0.79665793440246835 0 0.92266244547590082 0.68749999999917555 0 0 1 0 0 0.87499999999950151 0 0.091506350946494744 0.90849364905351082 0 1 1 0 0.87499999999950151 1 0 0.90849364905363228 0.90849364905367769 0 0 0 0 0.1249999999997731 0 0 0.091506350946417708 0.091506350946618076 0 0 0.12500000000052089 0 0 0 0 0.091506350946417708 0.091506350946618076 0 1 0 0 1 0.1249999999997731 0 0.90849364905355434 0.091506350946296292 0 0.87499999999967015 0 0 1 0 0 0.90849364905355434 0.091506350946296292 0 0.12500000000052089 1 0 0 1 0 0.091506350946494744 0.90849364905351082 0 1 0.87499999999967015 0 1 1 0 0.90849364905363228 0.90849364905367769 0 0.38694285807596462 0.5672991787102919 0 0.32607333794064219 0.67760114260606152 0 0.26982811998763367 0.56544650815856912 0 0.31411863959822661 0.24965544328045999 0 0.24418615484441761 0.35773612382016978 0 0.20767261601459541 0.25628918442207171 0 0.1082531754734323 0.31250000000117473 0 0.12076953676380731 0.18690935762408761 0 0.20767261601459541 0.25628918442207171 0 0.75000000000057243 0.35048094716480432 0 0.68668231842078242 0.24762892664808989 0 0.79891106056046712 0.25007334953587562 0 0.22257735880419699 0.47344721641341742 0 0.32815957677880009 0.4577243358118348 0 0.26982811998763367 0.56544650815856912 0 0.44078402250377968 0.67714785211715212 0 0.37776173212361452 0.78514649317305008 0 0.32607333794064219 0.67760114260606152 0 0.89658421694297741 0.1933620068391701 0 0.88173731489851925 0.33077402607778361 0 0.79891106056046712 0.25007334953587562 0 1 0.37499999999904599 0 1 0.49999999999869221 0 0.915464298762109 0.43749999999886913 0 0.37953773393552892 0.34812185820708452 0 0.44301038174930041 0.45684931552185398 0 0.32815957677880009 0.4577243358118348 0 0.32607333794064219 0.67760114260606152 0 0.21809253452218619 0.65480892822618109 0 0.26982811998763367 0.56544650815856912 0 1 0.1249999999997731 0 0.89658421694297741 0.1933620068391701 0 0.90849364905355434 0.091506350946296292 0 0 0.87499999999950151 0 0.10409951422139101 0.81206782209691231 0 0.091506350946494744 0.90849364905351082 0 0.1249999999997731 0 0 0.19185372118111221 0.092925648673580788 0 0.091506350946417708 0.091506350946618076 0 1 0.62499999999901068 0 1 0.74999999999934042 0 0.92266244547590082 0.68749999999917555 0 0.18802967116092181 0.89415349436770275 0 0.12500000000052089 1 0 0.091506350946494744 0.90849364905351082 0 0.89051480781310632 0.79665793440246835 0 1 0.87499999999967015 0 0.90849364905363228 0.90849364905367769 0 0.12076953676380731 0.18690935762408761 0 0 0.12500000000052089 0 0.091506350946417708 0.091506350946618076 0 0.81249999999950517 0.1082531754733404 0 0.87499999999967015 0 0 0.90849364905355434 0.091506350946296292 0 0.87499999999950151 1 0 0.80886664387416207 0.89717308644237903 0 0.90849364905363228 0.90849364905367769 0 0.68668231842078242 0.24762892664808989 0 0.62499999999892575 0.17524047358135519 0 0.73983916756365475 0.17530677078674589 0 0.31281086598417152 0.10449318608631281 0 0.43749999999910871 0.1082531754729984 0 0.37500000000232431 0.17524047358384309 0 0.62499999999892575 0.17524047358135519 0 0.56250000000143974 0.2422277716920859 0 0.49999999999934441 0.1752404735815076 0 0.56249999999885147 0.1082531754730395 0 0.68749999999926592 0.1082531754732875 0 0.62499999999892575 0.17524047358135519 0 0.56249999999885147 0.1082531754730395 0 0.62499999999892575 0.17524047358135519 0 0.49999999999934441 0.1752404735815076 0 0.56250000000143974 0.2422277716920859 0 0.43750000000200551 0.24222777169198509 0 0.49999999999934441 0.1752404735815076 0 0.43749999999910871 0.1082531754729984 0 0.56249999999885147 0.1082531754730395 0 0.49999999999934441 0.1752404735815076 0 0.68668231842078242 0.24762892664808989 0 0.56250000000143974 0.2422277716920859 0 0.62499999999892575 0.17524047358135519 0 0.43750000000200551 0.24222777169198509 0 0.31411863959822661 0.24965544328045999 0 0.37500000000232431 0.17524047358384309 0 0.49999999999934441 0.1752404735815076 0 0.43750000000200551 0.24222777169198509 0 0.37500000000232431 0.17524047358384309 0 0.43749999999910871 0.1082531754729984 0 0.49999999999934441 0.1752404735815076 0 0.37500000000232431 0.17524047358384309 0 0.62499999999892575 0.17524047358135519 0 0.68749999999926592 0.1082531754732875 0 0.73983916756365475 0.17530677078674589 0 0.68749999999926592 0.1082531754732875 0 0.81249999999950517 0.1082531754733404 0 0.73983916756365475 0.17530677078674589 0 0.10409951422139101 0.81206782209691231 0 0.18802967116092181 0.89415349436770275 0 0.091506350946494744 0.90849364905351082 0 0.89658421694297741 0.1933620068391701 0 0.81249999999950517 0.1082531754733404 0 0.90849364905355434 0.091506350946296292 0 0.19185372118111221 0.092925648673580788 0 0.12076953676380731 0.18690935762408761 0 0.091506350946417708 0.091506350946618076 0 0.37500000000232431 0.17524047358384309 0 0.31411863959822661 0.24965544328045999 0 0.25103557339309318 0.17464499738446629 0 0.31281086598417152 0.10449318608631281 0 0.37500000000232431 0.17524047358384309 0 0.25103557339309318 0.17464499738446629 0 0.80886664387416207 0.89717308644237903 0 0.89051480781310632 0.79665793440246835 0 0.90849364905363228 0.90849364905367769 0 0.19185372118111221 0.092925648673580788 0 0.31281086598417152 0.10449318608631281 0 0.25103557339309318 0.17464499738446629 0 0.79891106056046712 0.25007334953587562 0 0.68668231842078242 0.24762892664808989 0 0.73983916756365475 0.17530677078674589 0 0.31411863959822661 0.24965544328045999 0 0.20767261601459541 0.25628918442207171 0 0.25103557339309318 0.17464499738446629 0 

        </DataArray>

      </Points>

      <Cells>

        <DataArray type="Int32" Name="connectivity" format="ascii">

0 1 2 3 4 5 6 7 8 9 10 11 12 13 14 15 16 17 18 19 20 21 22 23 24 25 26 27 28 29 30 31 32 33 34 35 36 37 38 39 40 41 42 43 44 45 46 47 48 49 50 51 52 53 54 55 56 57 58 59 60 61 62 63 64 65 66 67 68 69 70 71 72 73 74 75 76 77 78 79 80 81 82 83 84 85 86 87 88 89 90 91 92 93 94 95 96 97 98 99 100 101 102 103 104 105 106 107 108 109 110 111 112 113 114 115 116 117 118 119 120 121 122 123 124 125 126 127 128 129 130 131 132 133 134 135 136 137 138 139 140 141 142 143 144 145 146 147 148 149 150 151 152 153 154 155 156 157 158 159 160 161 162 163 164 165 166 167 168 169 170 171 172 173 174 175 176 177 178 179 180 181 182 183 184 185 186 187 188 189 190 191 192 193 194 195 196 197 198 199 200 201 202 203 204 205 206 207 208 209 210 211 212 213 214 215 216 217 218 219 220 221 222 223 224 225 226 227 228 229 230 231 232 233 234 235 236 237 238 239 240 241 242 243 244 245 246 247 248 249 250 251 252 253 254 255 256 257 258 259 260 261 262 263 264 265 266 267 268 269 270 271 272 273 274 275 276 277 278 279 280 281 282 283 284 285 286 287 288 289 290 291 292 293 294 295 296 297 298 299 300 301 302 303 304 305 306 307 308 309 310 311 312 313 314 315 316 317 318 319 320 321 322 323 324 325 326 327 328 329 330 331 332 333 334 335 336 337 338 339 340 341 342 343 344 345 346 347 348 349 350 351 352 353 354 355 356 357 358 359 360 361 362 363 364 365 366 367 368 369 370 371 372 373 374 375 376 377 378 379 380 381 382 383 384 385 386 387 388 389 390 391 392 393 394 395 396 397 398 399 400 401 402 403 404 405 406 407 408 409 410 411 412 413 414 415 416 417 418 419 420 421 422 423 424 425 426 427 428 429 430 431 432 433 434 435 436 437 438 439 440 441 442 443 444 445 446 447 448 449 450 451 452 453 454 455 456 457 458 459 460 461 462 463 464 465 466 467 468 469 470 471 472 473 474 475 476 477 478 479 480 481 482 483 484 485 

        </DataArray>

        <DataArray type="Int32" Name="offsets" format="ascii">

3 6 9 12 15 18 21 24 27 30 33 36 39 42 45 48 51 54 57 60 63 66 69 72 75 78 81 84 87 90 93 96 99 102 105 108 111 114 117 120 123 126 129 132 135 138 141 144 147 150 153 156 159 162 165 168 171 174 177 180 183 186 189 192 195 198 201 204 207 210 213 216 219 222 225 228 231 234 237 240 243 246 249 252 255 258 261 264 267 270 273 276 279 282 285 288 291 294 297 300 303 306 309 312 315 318 321 324 327 330 333 336 339 342 345 348 351 354 357 360 363 366 369 372 375 378 381 384 387 390 393 396 399 402 405 408 411 414 417 420 423 426 429 432 435 438 441 444 447 450 453 456 459 462 465 468 471 474 477 480 483 486 

        </DataArray>

        <DataArray type="Int32" Name="types" format="ascii">

5 5 5 5 5 5 5 5 5 5 5 5 5 5 5 5 5 5 5 5 5 5 5 5 5 5 5 5 5 5 5 5 5 5 5 5 5 5 5 5 5 5 5 5 5 5 5 5 5 5 5 5 5 5 5 5 5 5 5 5 5 5 5 5 5 5 5 5 5 5 5 5 5 5 5 5 5 5 5 5 5 5 5 5 5 5 5 5 5 5 5 5 5 5 5 5 5 5 5 5 5 5 5 5 5 5 5 5 5 5 5 5 5 5 5 5 5 5 5 5 5 5 5 5 5 5 5 5 5 5 5 5 5 5 5 5 5 5 5 5 5 5 5 5 5 5 5 5 5 5 5 5 5 5 5 5 5 5 5 5 5 5 

        </DataArray>

      </Cells>

    </Piece>

  </UnstructuredGrid>

</VTKFile>

