<?xml version="1.0"?>

<VTKFile type="UnstructuredGrid" version="0.1">

  <UnstructuredGrid>

    <Piece NumberOfPoints="486" NumberOfCells="162">

      <PointData>

        <DataArray type="Float64" Name="K" format="ascii">

1.02793336639173027e+00
1.02793336639173027e+00
1.02793336639173027e+00
1.05885740533176231e+00
1.05885740533176231e+00
1.05885740533176231e+00
9.79154390422841692e-01
9.79154390422841692e-01
9.79154390422841692e-01
9.91823148140023370e-01
9.91823148140023370e-01
9.91823148140023370e-01
1.00961921137199728e+00
1.00961921137199728e+00
1.00961921137199728e+00
9.91460768451285390e-01
9.91460768451285390e-01
9.91460768451285390e-01
1.00174385169631242e+00
1.00174385169631242e+00
1.00174385169631242e+00
1.08089487086097713e+00
1.08089487086097713e+00
1.08089487086097713e+00
1.04216125301560125e+00
1.04216125301560125e+00
1.04216125301560125e+00
1.09364857508542856e+00
1.09364857508542856e+00
1.09364857508542856e+00
1.01503849292831516e+00
1.01503849292831516e+00
1.01503849292831516e+00
1.03383375148513035e+00
1.03383375148513035e+00
1.03383375148513035e+00
1.02682785986345615e+00
1.02682785986345615e+00
1.02682785986345615e+00
9.95499714700092353e-01
9.95499714700092353e-01
9.95499714700092353e-01
9.99994959658764504e-01
9.99994959658764504e-01
9.99994959658764504e-01
1.02268137049798913e+00
1.02268137049798913e+00
1.02268137049798913e+00
1.00625243722618096e+00
1.00625243722618096e+00
1.00625243722618096e+00
1.04658761715520332e+00
1.04658761715520332e+00
1.04658761715520332e+00
9.70150254219698138e-01
9.70150254219698138e-01
9.70150254219698138e-01
1.01603502031478476e+00
1.01603502031478476e+00
1.01603502031478476e+00
1.06179865849739663e+00
1.06179865849739663e+00
1.06179865849739663e+00
1.07287033359935413e+00
1.07287033359935413e+00
1.07287033359935413e+00
9.48789821120998078e-01
9.48789821120998078e-01
9.48789821120998078e-01
1.01536650711145349e+00
1.01536650711145349e+00
1.01536650711145349e+00
1.00125279995999272e+00
1.00125279995999272e+00
1.00125279995999272e+00
1.05112598729636453e+00
1.05112598729636453e+00
1.05112598729636453e+00
1.05045309369227602e+00
1.05045309369227602e+00
1.05045309369227602e+00
1.05071726032302948e+00
1.05071726032302948e+00
1.05071726032302948e+00
1.07242644210106186e+00
1.07242644210106186e+00
1.07242644210106186e+00
1.03474502844662419e+00
1.03474502844662419e+00
1.03474502844662419e+00
1.05405258301527960e+00
1.05405258301527960e+00
1.05405258301527960e+00
1.01639894502995509e+00
1.01639894502995509e+00
1.01639894502995509e+00
9.87652650385951514e-01
9.87652650385951514e-01
9.87652650385951514e-01
9.71446218459734223e-01
9.71446218459734223e-01
9.71446218459734223e-01
9.63080136275329179e-01
9.63080136275329179e-01
9.63080136275329179e-01
1.02500459355126794e+00
1.02500459355126794e+00
1.02500459355126794e+00
9.74211022379082969e-01
9.74211022379082969e-01
9.74211022379082969e-01
1.04249164304576891e+00
1.04249164304576891e+00
1.04249164304576891e+00
1.04527896740070259e+00
1.04527896740070259e+00
1.04527896740070259e+00
1.00864203905129712e+00
1.00864203905129712e+00
1.00864203905129712e+00
9.93717613964110735e-01
9.93717613964110735e-01
9.93717613964110735e-01
9.68539624600948779e-01
9.68539624600948779e-01
9.68539624600948779e-01
1.03951821350930618e+00
1.03951821350930618e+00
1.03951821350930618e+00
9.70088628435961442e-01
9.70088628435961442e-01
9.70088628435961442e-01
9.84296151089603666e-01
9.84296151089603666e-01
9.84296151089603666e-01
1.02068768609657701e+00
1.02068768609657701e+00
1.02068768609657701e+00
9.96082567364172444e-01
9.96082567364172444e-01
9.96082567364172444e-01
9.95062362623450047e-01
9.95062362623450047e-01
9.95062362623450047e-01
1.02573671213805828e+00
1.02573671213805828e+00
1.02573671213805828e+00
9.63648661453587740e-01
9.63648661453587740e-01
9.63648661453587740e-01
9.97838114155073508e-01
9.97838114155073508e-01
9.97838114155073508e-01
1.01803032007038641e+00
1.01803032007038641e+00
1.01803032007038641e+00
1.02199924149683841e+00
1.02199924149683841e+00
1.02199924149683841e+00
1.01851233771218874e+00
1.01851233771218874e+00
1.01851233771218874e+00
9.69463804515501959e-01
9.69463804515501959e-01
9.69463804515501959e-01
1.03606253336208520e+00
1.03606253336208520e+00
1.03606253336208520e+00
1.03551907346293892e+00
1.03551907346293892e+00
1.03551907346293892e+00
9.88205608497620736e-01
9.88205608497620736e-01
9.88205608497620736e-01
1.08849382376829351e+00
1.08849382376829351e+00
1.08849382376829351e+00
9.88851236538252465e-01
9.88851236538252465e-01
9.88851236538252465e-01
1.02318840467725058e+00
1.02318840467725058e+00
1.02318840467725058e+00
1.00012057596371706e+00
1.00012057596371706e+00
1.00012057596371706e+00
1.04731127865400131e+00
1.04731127865400131e+00
1.04731127865400131e+00
9.57206613496342840e-01
9.57206613496342840e-01
9.57206613496342840e-01
9.43478918633134600e-01
9.43478918633134600e-01
9.43478918633134600e-01
9.59955122304872233e-01
9.59955122304872233e-01
9.59955122304872233e-01
9.89445141064862366e-01
9.89445141064862366e-01
9.89445141064862366e-01
9.94377851448506322e-01
9.94377851448506322e-01
9.94377851448506322e-01
1.03748811415022857e+00
1.03748811415022857e+00
1.03748811415022857e+00
9.63428641549726850e-01
9.63428641549726850e-01
9.63428641549726850e-01
1.04113778274133328e+00
1.04113778274133328e+00
1.04113778274133328e+00
9.68923515862740281e-01
9.68923515862740281e-01
9.68923515862740281e-01
9.64213707512344809e-01
9.64213707512344809e-01
9.64213707512344809e-01
1.01101889342961515e+00
1.01101889342961515e+00
1.01101889342961515e+00
1.05661986784897710e+00
1.05661986784897710e+00
1.05661986784897710e+00
9.57657418079542189e-01
9.57657418079542189e-01
9.57657418079542189e-01
1.03945088836044586e+00
1.03945088836044586e+00
1.03945088836044586e+00
9.65208162008759141e-01
9.65208162008759141e-01
9.65208162008759141e-01
1.05537066467866159e+00
1.05537066467866159e+00
1.05537066467866159e+00
9.77255045259895927e-01
9.77255045259895927e-01
9.77255045259895927e-01
1.00733492056382312e+00
1.00733492056382312e+00
1.00733492056382312e+00
9.61992476521091211e-01
9.61992476521091211e-01
9.61992476521091211e-01
9.51405386633235262e-01
9.51405386633235262e-01
9.51405386633235262e-01
1.03141556494307030e+00
1.03141556494307030e+00
1.03141556494307030e+00
9.75250075105254077e-01
9.75250075105254077e-01
9.75250075105254077e-01
1.01252363535918111e+00
1.01252363535918111e+00
1.01252363535918111e+00
9.75969532792398176e-01
9.75969532792398176e-01
9.75969532792398176e-01
9.52056889538214435e-01
9.52056889538214435e-01
9.52056889538214435e-01
9.45128531881661571e-01
9.45128531881661571e-01
9.45128531881661571e-01
9.49606756468169277e-01
9.49606756468169277e-01
9.49606756468169277e-01
9.96320968095726123e-01
9.96320968095726123e-01
9.96320968095726123e-01
9.54570438277376199e-01
9.54570438277376199e-01
9.54570438277376199e-01
9.33572729444471450e-01
9.33572729444471450e-01
9.33572729444471450e-01
9.57383055403314143e-01
9.57383055403314143e-01
9.57383055403314143e-01
1.03849664856142421e+00
1.03849664856142421e+00
1.03849664856142421e+00
1.00215233377736901e+00
1.00215233377736901e+00
1.00215233377736901e+00
1.00562992155723308e+00
1.00562992155723308e+00
1.00562992155723308e+00
1.02569443539511163e+00
1.02569443539511163e+00
1.02569443539511163e+00
1.03810107077259239e+00
1.03810107077259239e+00
1.03810107077259239e+00
1.07237713681728120e+00
1.07237713681728120e+00
1.07237713681728120e+00
9.95375321994653950e-01
9.95375321994653950e-01
9.95375321994653950e-01
9.80859291449416859e-01
9.80859291449416859e-01
9.80859291449416859e-01
9.98754426002248175e-01
9.98754426002248175e-01
9.98754426002248175e-01
1.00420782093894445e+00
1.00420782093894445e+00
1.00420782093894445e+00
1.07689770616860669e+00
1.07689770616860669e+00
1.07689770616860669e+00
1.03095465758842653e+00
1.03095465758842653e+00
1.03095465758842653e+00
1.04078666349470272e+00
1.04078666349470272e+00
1.04078666349470272e+00
1.02038474471096419e+00
1.02038474471096419e+00
1.02038474471096419e+00
9.90513370362204770e-01
9.90513370362204770e-01
9.90513370362204770e-01
9.64564238492204407e-01
9.64564238492204407e-01
9.64564238492204407e-01
9.86207055326833393e-01
9.86207055326833393e-01
9.86207055326833393e-01
1.06575651349956191e+00
1.06575651349956191e+00
1.06575651349956191e+00
1.09124699216147958e+00
1.09124699216147958e+00
1.09124699216147958e+00
9.15707631014091916e-01
9.15707631014091916e-01
9.15707631014091916e-01
1.06360494518100146e+00
1.06360494518100146e+00
1.06360494518100146e+00
1.07033657302705953e+00
1.07033657302705953e+00
1.07033657302705953e+00
1.03436343424600152e+00
1.03436343424600152e+00
1.03436343424600152e+00
1.00683068581713542e+00
1.00683068581713542e+00
1.00683068581713542e+00
1.00389839527900193e+00
1.00389839527900193e+00
1.00389839527900193e+00
9.02675750942699917e-01
9.02675750942699917e-01
9.02675750942699917e-01
1.07850400949786884e+00
1.07850400949786884e+00
1.07850400949786884e+00
1.02255308648505672e+00
1.02255308648505672e+00
1.02255308648505672e+00
9.30456973017322331e-01
9.30456973017322331e-01
9.30456973017322331e-01
9.50446269923305609e-01
9.50446269923305609e-01
9.50446269923305609e-01
1.01271618633853588e+00
1.01271618633853588e+00
1.01271618633853588e+00
1.02081019278861440e+00
1.02081019278861440e+00
1.02081019278861440e+00
1.04089980747125788e+00
1.04089980747125788e+00
1.04089980747125788e+00
1.02424090103112331e+00
1.02424090103112331e+00
1.02424090103112331e+00
1.00404792018103173e+00
1.00404792018103173e+00
1.00404792018103173e+00
9.66748318987002198e-01
9.66748318987002198e-01
9.66748318987002198e-01
1.04771983814561009e+00
1.04771983814561009e+00
1.04771983814561009e+00
1.01547862819650403e+00
1.01547862819650403e+00
1.01547862819650403e+00
9.39108225728873980e-01
9.39108225728873980e-01
9.39108225728873980e-01
1.04334088708816553e+00
1.04334088708816553e+00
1.04334088708816553e+00
1.06955085606751621e+00
1.06955085606751621e+00
1.06955085606751621e+00
9.39474025838715865e-01
9.39474025838715865e-01
9.39474025838715865e-01
1.08896464113450508e+00
1.08896464113450508e+00
1.08896464113450508e+00
1.01421808609109410e+00
1.01421808609109410e+00
1.01421808609109410e+00
1.03171375150166567e+00
1.03171375150166567e+00
1.03171375150166567e+00
1.05395123419729742e+00
1.05395123419729742e+00
1.05395123419729742e+00
9.85653566643543089e-01
9.85653566643543089e-01
9.85653566643543089e-01
9.73360606064449407e-01
9.73360606064449407e-01
9.73360606064449407e-01
9.46153285184226700e-01
9.46153285184226700e-01
9.46153285184226700e-01
9.58793614746121681e-01
9.58793614746121681e-01
9.58793614746121681e-01
9.54913418977242134e-01
9.54913418977242134e-01
9.54913418977242134e-01
9.59211394240202964e-01
9.59211394240202964e-01
9.59211394240202964e-01
9.81774768545648269e-01
9.81774768545648269e-01
9.81774768545648269e-01
9.49697257839443809e-01
9.49697257839443809e-01
9.49697257839443809e-01
9.54266371039749872e-01
9.54266371039749872e-01
9.54266371039749872e-01
9.73674492378833745e-01
9.73674492378833745e-01
9.73674492378833745e-01
9.85026085483524438e-01
9.85026085483524438e-01
9.85026085483524438e-01
9.87506787747170267e-01
9.87506787747170267e-01
9.87506787747170267e-01
1.03123002984656020e+00
1.03123002984656020e+00
1.03123002984656020e+00
9.59409454818413776e-01
9.59409454818413776e-01
9.59409454818413776e-01
1.04207171089695794e+00
1.04207171089695794e+00
1.04207171089695794e+00
1.00242654651885066e+00
1.00242654651885066e+00
1.00242654651885066e+00
9.29135808488084192e-01
9.29135808488084192e-01
9.29135808488084192e-01
9.37868808360046047e-01
9.37868808360046047e-01
9.37868808360046047e-01
1.07938789316578321e+00
1.07938789316578321e+00
1.07938789316578321e+00
9.41893749753005216e-01
9.41893749753005216e-01
9.41893749753005216e-01
1.02514058055513635e+00
1.02514058055513635e+00
1.02514058055513635e+00
9.17320975048060872e-01
9.17320975048060872e-01
9.17320975048060872e-01


        </DataArray>

      </PointData>

      <CellData/>

      <Points>

        <DataArray type="Float64" NumberOfComponents="3" format="ascii">

0.1082531754723032 0.6875000000007816 0 0.23533274979922561 0.77093399389351469 0 0.10409951422139101 0.81206782209691231 0 0.23533274979922561 0.77093399389351469 0 0.1082531754723032 0.6875000000007816 0 0.21809253452218619 0.65480892822618109 0 0.24418615484441761 0.35773612382016978 0 0.121259140952891 0.43112117036853742 0 0.1082531754734323 0.31250000000117473 0 0.75000000000057243 0.35048094716480432 0 0.88173731489851925 0.33077402607778361 0 0.81242894672211508 0.45500248311961472 0 0.121259140952891 0.43112117036853742 0 0.24418615484441761 0.35773612382016978 0 0.22257735880419699 0.47344721641341742 0 0.81242894672211508 0.45500248311961472 0 0.88173731489851925 0.33077402607778361 0 0.915464298762109 0.43749999999886913 0 0 0.62500000000121547 0 0 0.50000000000206146 0 0.1371230538040123 0.56179824718362847 0 0.82212678063041267 0.67678595194836966 0 0.89051480781310632 0.79665793440246835 0 0.76243180583607129 0.78687675331113149 0 0.76243180583607129 0.78687675331113149 0 0.69010814643829166 0.89298495739101336 0 0.62844955668446423 0.7850749770380413 0 0.89051480781310632 0.79665793440246835 0 0.82212678063041267 0.67678595194836966 0 0.92266244547590082 0.68749999999917555 0 0 0.50000000000206146 0 0.121259140952891 0.43112117036853742 0 0.1371230538040123 0.56179824718362847 0 0.1082531754723032 0.6875000000007816 0 0 0.62500000000121547 0 0.1371230538040123 0.56179824718362847 0 0.75000000000032374 0.56698729811007709 0 0.88927506082488361 0.56409486310635837 0 0.82212678063041267 0.67678595194836966 0 0.81242894672211508 0.45500248311961472 0 0.88927506082488361 0.56409486310635837 0 0.75000000000032374 0.56698729811007709 0 0.69851598570178741 0.68211701800612057 0 0.56496004948275869 0.67675037307860475 0 0.62752533658682441 0.56838075195614346 0 0.69851598570178741 0.68211701800612057 0 0.76243180583607129 0.78687675331113149 0 0.62844955668446423 0.7850749770380413 0 0.23533274979922561 0.77093399389351469 0 0.18802967116092181 0.89415349436770275 0 0.10409951422139101 0.81206782209691231 0 0.121259140952891 0.43112117036853742 0 0.22257735880419699 0.47344721641341742 0 0.1371230538040123 0.56179824718362847 0 0.75000000000032374 0.56698729811007709 0 0.69851598570178741 0.68211701800612057 0 0.62752533658682441 0.56838075195614346 0 0.56496004948275869 0.67675037307860475 0 0.69851598570178741 0.68211701800612057 0 0.62844955668446423 0.7850749770380413 0 0.1371230538040123 0.56179824718362847 0 0.22257735880419699 0.47344721641341742 0 0.26982811998763367 0.56544650815856912 0 0.21809253452218619 0.65480892822618109 0 0.1371230538040123 0.56179824718362847 0 0.26982811998763367 0.56544650815856912 0 0.24418615484441761 0.35773612382016978 0 0.1082531754734323 0.31250000000117473 0 0.20767261601459541 0.25628918442207171 0 0.88173731489851925 0.33077402607778361 0 0.75000000000057243 0.35048094716480432 0 0.79891106056046712 0.25007334953587562 0 0.75000000000032374 0.56698729811007709 0 0.82212678063041267 0.67678595194836966 0 0.69851598570178741 0.68211701800612057 0 0.81249999999950517 0.1082531754733404 0 0.89658421694297741 0.1933620068391701 0 0.79891106056046712 0.25007334953587562 0 0.81249999999950517 0.1082531754733404 0 0.79891106056046712 0.25007334953587562 0 0.73983916756365475 0.17530677078674589 0 0.23533274979922561 0.77093399389351469 0 0.21809253452218619 0.65480892822618109 0 0.32607333794064219 0.67760114260606152 0 0.1082531754723032 0.6875000000007816 0 0.1371230538040123 0.56179824718362847 0 0.21809253452218619 0.65480892822618109 0 0.69851598570178741 0.68211701800612057 0 0.82212678063041267 0.67678595194836966 0 0.76243180583607129 0.78687675331113149 0 0.69010814643829166 0.89298495739101336 0 0.76243180583607129 0.78687675331113149 0 0.80886664387416207 0.89717308644237903 0 0.43750000000181222 0.89174682452709564 0 0.31258827852827581 0.89214793616708443 0 0.37776173212361452 0.78514649317305008 0 0.43750000000181222 0.89174682452709564 0 0.37500000000156292 1 0 0.31258827852827581 0.89214793616708443 0 0.121259140952891 0.43112117036853742 0 0 0.37500000000156292 0 0.1082531754734323 0.31250000000117473 0 0.50000000000206146 1 0 0.37500000000156292 1 0 0.43750000000181222 0.89174682452709564 0 0.31258827852827581 0.89214793616708443 0 0.18802967116092181 0.89415349436770275 0 0.23533274979922561 0.77093399389351469 0 0 0.50000000000206146 0 0 0.37500000000156292 0 0.121259140952891 0.43112117036853742 0 0.62844955668446423 0.7850749770380413 0 0.69010814643829166 0.89298495739101336 0 0.56327595140699671 0.89211526915426331 0 0.69010814643829166 0.89298495739101336 0 0.62500000000121547 1 0 0.56327595140699671 0.89211526915426331 0 0.25000000000104189 1 0 0.18802967116092181 0.89415349436770275 0 0.31258827852827581 0.89214793616708443 0 0.50000000000206146 1 0 0.43750000000181222 0.89174682452709564 0 0.56327595140699671 0.89211526915426331 0 0.56249999999885147 0.1082531754730395 0 0.62499999999901068 0 0 0.68749999999926592 0.1082531754732875 0 1 0.49999999999869221 0 1 0.62499999999901068 0 0.88927506082488361 0.56409486310635837 0 0 0.25000000000104189 0 0.12076953676380731 0.18690935762408761 0 0.1082531754734323 0.31250000000117473 0 0.49999999999869221 0 0 0.62499999999901068 0 0 0.56249999999885147 0.1082531754730395 0 0.62500000000121547 1 0 0.50000000000206146 1 0 0.56327595140699671 0.89211526915426331 0 0.37500000000156292 1 0 0.25000000000104189 1 0 0.31258827852827581 0.89214793616708443 0 0.31281086598417152 0.10449318608631281 0 0.37499999999904599 0 0 0.43749999999910871 0.1082531754729984 0 0.43750000000181222 0.89174682452709564 0 0.37776173212361452 0.78514649317305008 0 0.50046028868828263 0.78376912307435687 0 0 0.37500000000156292 0 0 0.25000000000104189 0 0.1082531754734323 0.31250000000117473 0 0.49999999999869221 0 0 0.56249999999885147 0.1082531754730395 0 0.43749999999910871 0.1082531754729984 0 0.43750000000181222 0.89174682452709564 0 0.50046028868828263 0.78376912307435687 0 0.56327595140699671 0.89211526915426331 0 0.74999999999934042 0 0 0.81249999999950517 0.1082531754733404 0 0.68749999999926592 0.1082531754732875 0 0.37499999999904599 0 0 0.49999999999869221 0 0 0.43749999999910871 0.1082531754729984 0 0.25000000000104189 1 0 0.12500000000052089 1 0 0.18802967116092181 0.89415349436770275 0 0.50046028868828263 0.78376912307435687 0 0.62844955668446423 0.7850749770380413 0 0.56327595140699671 0.89211526915426331 0 0.37776173212361452 0.78514649317305008 0 0.31258827852827581 0.89214793616708443 0 0.23533274979922561 0.77093399389351469 0 0.62499999999901068 0 0 0.74999999999934042 0 0 0.68749999999926592 0.1082531754732875 0 1 0.74999999999934042 0 1 0.87499999999967015 0 0.89051480781310632 0.79665793440246835 0 0 0.25000000000104189 0 0 0.12500000000052089 0 0.12076953676380731 0.18690935762408761 0 0.74999999999934042 0 0 0.87499999999967015 0 0 0.81249999999950517 0.1082531754733404 0 0.24999999999941069 0 0 0.37499999999904599 0 0 0.31281086598417152 0.10449318608631281 0 0.50046028868828263 0.78376912307435687 0 0.37776173212361452 0.78514649317305008 0 0.44078402250377968 0.67714785211715212 0 0.68768773896438518 0.4586835206367198 0 0.75000000000032374 0.56698729811007709 0 0.62752533658682441 0.56838075195614346 0 0.31411863959822661 0.24965544328045999 0 0.37953773393552892 0.34812185820708452 0 0.24418615484441761 0.35773612382016978 0 0.68768773896438518 0.4586835206367198 0 0.81242894672211508 0.45500248311961472 0 0.75000000000032374 0.56698729811007709 0 1 0.24999999999941069 0 1 0.37499999999904599 0 0.88173731489851925 0.33077402607778361 0 0 0.75000000000034761 0 0 0.62500000000121547 0 0.1082531754723032 0.6875000000007816 0 0.50048844149666749 0.56727788297625459 0 0.44078402250377968 0.67714785211715212 0 0.38694285807596462 0.5672991787102919 0 0.50108503093851109 0.35012252869403671 0 0.44301038174930041 0.45684931552185398 0 0.37953773393552892 0.34812185820708452 0 0.50046028868828263 0.78376912307435687 0 0.56496004948275869 0.67675037307860475 0 0.62844955668446423 0.7850749770380413 0 0.68768773896438518 0.4586835206367198 0 0.75000000000057243 0.35048094716480432 0 0.81242894672211508 0.45500248311961472 0 0.56349980387502452 0.45846841892908402 0 0.62512662990940393 0.35044303886909911 0 0.68768773896438518 0.4586835206367198 0 0.50048844149666749 0.56727788297625459 0 0.38694285807596462 0.5672991787102919 0 0.44301038174930041 0.45684931552185398 0 0.50046028868828263 0.78376912307435687 0 0.44078402250377968 0.67714785211715212 0 0.56496004948275869 0.67675037307860475 0 0.50108503093851109 0.35012252869403671 0 0.37953773393552892 0.34812185820708452 0 0.43750000000200551 0.24222777169198509 0 0.75000000000034761 1 0 0.62500000000121547 1 0 0.69010814643829166 0.89298495739101336 0 0.68768773896438518 0.4586835206367198 0 0.62512662990940393 0.35044303886909911 0 0.75000000000057243 0.35048094716480432 0 0.56496004948275869 0.67675037307860475 0 0.44078402250377968 0.67714785211715212 0 0.50048844149666749 0.56727788297625459 0 0.56349980387502452 0.45846841892908402 0 0.44301038174930041 0.45684931552185398 0 0.50108503093851109 0.35012252869403671 0 0.50048844149666749 0.56727788297625459 0 0.44301038174930041 0.45684931552185398 0 0.56349980387502452 0.45846841892908402 0 0.56349980387502452 0.45846841892908402 0 0.50108503093851109 0.35012252869403671 0 0.62512662990940393 0.35044303886909911 0 0.43750000000200551 0.24222777169198509 0 0.37953773393552892 0.34812185820708452 0 0.31411863959822661 0.24965544328045999 0 0.56496004948275869 0.67675037307860475 0 0.50048844149666749 0.56727788297625459 0 0.62752533658682441 0.56838075195614346 0 0.56349980387502452 0.45846841892908402 0 0.68768773896438518 0.4586835206367198 0 0.62752533658682441 0.56838075195614346 0 0.50048844149666749 0.56727788297625459 0 0.56349980387502452 0.45846841892908402 0 0.62752533658682441 0.56838075195614346 0 0.75000000000057243 0.35048094716480432 0 0.62512662990940393 0.35044303886909911 0 0.68668231842078242 0.24762892664808989 0 0.50108503093851109 0.35012252869403671 0 0.43750000000200551 0.24222777169198509 0 0.56250000000143974 0.2422277716920859 0 0.62512662990940393 0.35044303886909911 0 0.50108503093851109 0.35012252869403671 0 0.56250000000143974 0.2422277716920859 0 0.68668231842078242 0.24762892664808989 0 0.62512662990940393 0.35044303886909911 0 0.56250000000143974 0.2422277716920859 0 0.22257735880419699 0.47344721641341742 0 0.24418615484441761 0.35773612382016978 0 0.32815957677880009 0.4577243358118348 0 0.12076953676380731 0.18690935762408761 0 0.19185372118111221 0.092925648673580788 0 0.25103557339309318 0.17464499738446629 0 0.20767261601459541 0.25628918442207171 0 0.12076953676380731 0.18690935762408761 0 0.25103557339309318 0.17464499738446629 0 0 0.87499999999950151 0 0 0.75000000000034761 0 0.10409951422139101 0.81206782209691231 0 0.1249999999997731 0 0 0.24999999999941069 0 0 0.19185372118111221 0.092925648673580788 0 1 0.1249999999997731 0 1 0.24999999999941069 0 0.89658421694297741 0.1933620068391701 0 0.88927506082488361 0.56409486310635837 0 0.81242894672211508 0.45500248311961472 0 0.915464298762109 0.43749999999886913 0 0.87499999999950151 1 0 0.75000000000034761 1 0 0.80886664387416207 0.89717308644237903 0 0.75000000000034761 1 0 0.69010814643829166 0.89298495739101336 0 0.80886664387416207 0.89717308644237903 0 0.82212678063041267 0.67678595194836966 0 0.88927506082488361 0.56409486310635837 0 0.92266244547590082 0.68749999999917555 0 0 0.75000000000034761 0 0.1082531754723032 0.6875000000007816 0 0.10409951422139101 0.81206782209691231 0 0.24999999999941069 0 0 0.31281086598417152 0.10449318608631281 0 0.19185372118111221 0.092925648673580788 0 1 0.24999999999941069 0 0.88173731489851925 0.33077402607778361 0 0.89658421694297741 0.1933620068391701 0 0.32815957677880009 0.4577243358118348 0 0.38694285807596462 0.5672991787102919 0 0.26982811998763367 0.56544650815856912 0 0.76243180583607129 0.78687675331113149 0 0.89051480781310632 0.79665793440246835 0 0.80886664387416207 0.89717308644237903 0 0.38694285807596462 0.5672991787102919 0 0.44078402250377968 0.67714785211715212 0 0.32607333794064219 0.67760114260606152 0 0.37776173212361452 0.78514649317305008 0 0.23533274979922561 0.77093399389351469 0 0.32607333794064219 0.67760114260606152 0 1 0.49999999999869221 0 0.88927506082488361 0.56409486310635837 0 0.915464298762109 0.43749999999886913 0 0.88173731489851925 0.33077402607778361 0 1 0.37499999999904599 0 0.915464298762109 0.43749999999886913 0 0.24418615484441761 0.35773612382016978 0 0.37953773393552892 0.34812185820708452 0 0.32815957677880009 0.4577243358118348 0 0.44301038174930041 0.45684931552185398 0 0.38694285807596462 0.5672991787102919 0 0.32815957677880009 0.4577243358118348 0 0.88927506082488361 0.56409486310635837 0 1 0.62499999999901068 0 0.92266244547590082 0.68749999999917555 0 1 0.74999999999934042 0 0.89051480781310632 0.79665793440246835 0 0.92266244547590082 0.68749999999917555 0 0 1 0 0 0.87499999999950151 0 0.091506350946494744 0.90849364905351082 0 1 1 0 0.87499999999950151 1 0 0.90849364905363228 0.90849364905367769 0 0 0 0 0.1249999999997731 0 0 0.091506350946417708 0.091506350946618076 0 0 0.12500000000052089 0 0 0 0 0.091506350946417708 0.091506350946618076 0 1 0 0 1 0.1249999999997731 0 0.90849364905355434 0.091506350946296292 0 0.87499999999967015 0 0 1 0 0 0.90849364905355434 0.091506350946296292 0 0.12500000000052089 1 0 0 1 0 0.091506350946494744 0.90849364905351082 0 1 0.87499999999967015 0 1 1 0 0.90849364905363228 0.90849364905367769 0 0.38694285807596462 0.5672991787102919 0 0.32607333794064219 0.67760114260606152 0 0.26982811998763367 0.56544650815856912 0 0.31411863959822661 0.24965544328045999 0 0.24418615484441761 0.35773612382016978 0 0.20767261601459541 0.25628918442207171 0 0.1082531754734323 0.31250000000117473 0 0.12076953676380731 0.18690935762408761 0 0.20767261601459541 0.25628918442207171 0 0.75000000000057243 0.35048094716480432 0 0.68668231842078242 0.24762892664808989 0 0.79891106056046712 0.25007334953587562 0 0.22257735880419699 0.47344721641341742 0 0.32815957677880009 0.4577243358118348 0 0.26982811998763367 0.56544650815856912 0 0.44078402250377968 0.67714785211715212 0 0.37776173212361452 0.78514649317305008 0 0.32607333794064219 0.67760114260606152 0 0.89658421694297741 0.1933620068391701 0 0.88173731489851925 0.33077402607778361 0 0.79891106056046712 0.25007334953587562 0 1 0.37499999999904599 0 1 0.49999999999869221 0 0.915464298762109 0.43749999999886913 0 0.37953773393552892 0.34812185820708452 0 0.44301038174930041 0.45684931552185398 0 0.32815957677880009 0.4577243358118348 0 0.32607333794064219 0.67760114260606152 0 0.21809253452218619 0.65480892822618109 0 0.26982811998763367 0.56544650815856912 0 1 0.1249999999997731 0 0.89658421694297741 0.1933620068391701 0 0.90849364905355434 0.091506350946296292 0 0 0.87499999999950151 0 0.10409951422139101 0.81206782209691231 0 0.091506350946494744 0.90849364905351082 0 0.1249999999997731 0 0 0.19185372118111221 0.092925648673580788 0 0.091506350946417708 0.091506350946618076 0 1 0.62499999999901068 0 1 0.74999999999934042 0 0.92266244547590082 0.68749999999917555 0 0.18802967116092181 0.89415349436770275 0 0.12500000000052089 1 0 0.091506350946494744 0.90849364905351082 0 0.89051480781310632 0.79665793440246835 0 1 0.87499999999967015 0 0.90849364905363228 0.90849364905367769 0 0.12076953676380731 0.18690935762408761 0 0 0.12500000000052089 0 0.091506350946417708 0.091506350946618076 0 0.81249999999950517 0.1082531754733404 0 0.87499999999967015 0 0 0.90849364905355434 0.091506350946296292 0 0.87499999999950151 1 0 0.80886664387416207 0.89717308644237903 0 0.90849364905363228 0.90849364905367769 0 0.68668231842078242 0.24762892664808989 0 0.62499999999892575 0.17524047358135519 0 0.73983916756365475 0.17530677078674589 0 0.31281086598417152 0.10449318608631281 0 0.43749999999910871 0.1082531754729984 0 0.37500000000232431 0.17524047358384309 0 0.62499999999892575 0.17524047358135519 0 0.56250000000143974 0.2422277716920859 0 0.49999999999934441 0.1752404735815076 0 0.56249999999885147 0.1082531754730395 0 0.68749999999926592 0.1082531754732875 0 0.62499999999892575 0.17524047358135519 0 0.56249999999885147 0.1082531754730395 0 0.62499999999892575 0.17524047358135519 0 0.49999999999934441 0.1752404735815076 0 0.56250000000143974 0.2422277716920859 0 0.43750000000200551 0.24222777169198509 0 0.49999999999934441 0.1752404735815076 0 0.43749999999910871 0.1082531754729984 0 0.56249999999885147 0.1082531754730395 0 0.49999999999934441 0.1752404735815076 0 0.68668231842078242 0.24762892664808989 0 0.56250000000143974 0.2422277716920859 0 0.62499999999892575 0.17524047358135519 0 0.43750000000200551 0.24222777169198509 0 0.31411863959822661 0.24965544328045999 0 0.37500000000232431 0.17524047358384309 0 0.49999999999934441 0.1752404735815076 0 0.43750000000200551 0.24222777169198509 0 0.37500000000232431 0.17524047358384309 0 0.43749999999910871 0.1082531754729984 0 0.49999999999934441 0.1752404735815076 0 0.37500000000232431 0.17524047358384309 0 0.62499999999892575 0.17524047358135519 0 0.68749999999926592 0.1082531754732875 0 0.73983916756365475 0.17530677078674589 0 0.68749999999926592 0.1082531754732875 0 0.81249999999950517 0.1082531754733404 0 0.73983916756365475 0.17530677078674589 0 0.10409951422139101 0.81206782209691231 0 0.18802967116092181 0.89415349436770275 0 0.091506350946494744 0.90849364905351082 0 0.89658421694297741 0.1933620068391701 0 0.81249999999950517 0.1082531754733404 0 0.90849364905355434 0.091506350946296292 0 0.19185372118111221 0.092925648673580788 0 0.12076953676380731 0.18690935762408761 0 0.091506350946417708 0.091506350946618076 0 0.37500000000232431 0.17524047358384309 0 0.31411863959822661 0.24965544328045999 0 0.25103557339309318 0.17464499738446629 0 0.31281086598417152 0.10449318608631281 0 0.37500000000232431 0.17524047358384309 0 0.25103557339309318 0.17464499738446629 0 0.80886664387416207 0.89717308644237903 0 0.89051480781310632 0.79665793440246835 0 0.90849364905363228 0.90849364905367769 0 0.19185372118111221 0.092925648673580788 0 0.31281086598417152 0.10449318608631281 0 0.25103557339309318 0.17464499738446629 0 0.79891106056046712 0.25007334953587562 0 0.68668231842078242 0.24762892664808989 0 0.73983916756365475 0.17530677078674589 0 0.31411863959822661 0.24965544328045999 0 0.20767261601459541 0.25628918442207171 0 0.25103557339309318 0.17464499738446629 0 

        </DataArray>

      </Points>

      <Cells>

        <DataArray type="Int32" Name="connectivity" format="ascii">

0 1 2 3 4 5 6 7 8 9 10 11 12 13 14 15 16 17 18 19 20 21 22 23 24 25 26 27 28 29 30 31 32 33 34 35 36 37 38 39 40 41 42 43 44 45 46 47 48 49 50 51 52 53 54 55 56 57 58 59 60 61 62 63 64 65 66 67 68 69 70 71 72 73 74 75 76 77 78 79 80 81 82 83 84 85 86 87 88 89 90 91 92 93 94 95 96 97 98 99 100 101 102 103 104 105 106 107 108 109 110 111 112 113 114 115 116 117 118 119 120 121 122 123 124 125 126 127 128 129 130 131 132 133 134 135 136 137 138 139 140 141 142 143 144 145 146 147 148 149 150 151 152 153 154 155 156 157 158 159 160 161 162 163 164 165 166 167 168 169 170 171 172 173 174 175 176 177 178 179 180 181 182 183 184 185 186 187 188 189 190 191 192 193 194 195 196 197 198 199 200 201 202 203 204 205 206 207 208 209 210 211 212 213 214 215 216 217 218 219 220 221 222 223 224 225 226 227 228 229 230 231 232 233 234 235 236 237 238 239 240 241 242 243 244 245 246 247 248 249 250 251 252 253 254 255 256 257 258 259 260 261 262 263 264 265 266 267 268 269 270 271 272 273 274 275 276 277 278 279 280 281 282 283 284 285 286 287 288 289 290 291 292 293 294 295 296 297 298 299 300 301 302 303 304 305 306 307 308 309 310 311 312 313 314 315 316 317 318 319 320 321 322 323 324 325 326 327 328 329 330 331 332 333 334 335 336 337 338 339 340 341 342 343 344 345 346 347 348 349 350 351 352 353 354 355 356 357 358 359 360 361 362 363 364 365 366 367 368 369 370 371 372 373 374 375 376 377 378 379 380 381 382 383 384 385 386 387 388 389 390 391 392 393 394 395 396 397 398 399 400 401 402 403 404 405 406 407 408 409 410 411 412 413 414 415 416 417 418 419 420 421 422 423 424 425 426 427 428 429 430 431 432 433 434 435 436 437 438 439 440 441 442 443 444 445 446 447 448 449 450 451 452 453 454 455 456 457 458 459 460 461 462 463 464 465 466 467 468 469 470 471 472 473 474 475 476 477 478 479 480 481 482 483 484 485 

        </DataArray>

        <DataArray type="Int32" Name="offsets" format="ascii">

3 6 9 12 15 18 21 24 27 30 33 36 39 42 45 48 51 54 57 60 63 66 69 72 75 78 81 84 87 90 93 96 99 102 105 108 111 114 117 120 123 126 129 132 135 138 141 144 147 150 153 156 159 162 165 168 171 174 177 180 183 186 189 192 195 198 201 204 207 210 213 216 219 222 225 228 231 234 237 240 243 246 249 252 255 258 261 264 267 270 273 276 279 282 285 288 291 294 297 300 303 306 309 312 315 318 321 324 327 330 333 336 339 342 345 348 351 354 357 360 363 366 369 372 375 378 381 384 387 390 393 396 399 402 405 408 411 414 417 420 423 426 429 432 435 438 441 444 447 450 453 456 459 462 465 468 471 474 477 480 483 486 

        </DataArray>

        <DataArray type="Int32" Name="types" format="ascii">

5 5 5 5 5 5 5 5 5 5 5 5 5 5 5 5 5 5 5 5 5 5 5 5 5 5 5 5 5 5 5 5 5 5 5 5 5 5 5 5 5 5 5 5 5 5 5 5 5 5 5 5 5 5 5 5 5 5 5 5 5 5 5 5 5 5 5 5 5 5 5 5 5 5 5 5 5 5 5 5 5 5 5 5 5 5 5 5 5 5 5 5 5 5 5 5 5 5 5 5 5 5 5 5 5 5 5 5 5 5 5 5 5 5 5 5 5 5 5 5 5 5 5 5 5 5 5 5 5 5 5 5 5 5 5 5 5 5 5 5 5 5 5 5 5 5 5 5 5 5 5 5 5 5 5 5 5 5 5 5 5 5 

        </DataArray>

      </Cells>

    </Piece>

  </UnstructuredGrid>

</VTKFile>

