<?xml version="1.0"?>

<VTKFile type="UnstructuredGrid" version="0.1">

  <UnstructuredGrid>

    <Piece NumberOfPoints="486" NumberOfCells="162">

      <PointData>

        <DataArray type="Float64" Name="K" format="ascii">

9.69900043809043266e-01
9.69900043809043266e-01
9.69900043809043266e-01
9.53577746761918421e-01
9.53577746761918421e-01
9.53577746761918421e-01
1.00792160246546625e+00
1.00792160246546625e+00
1.00792160246546625e+00
9.48675077820456569e-01
9.48675077820456569e-01
9.48675077820456569e-01
1.00288878849428342e+00
1.00288878849428342e+00
1.00288878849428342e+00
9.26644941537150157e-01
9.26644941537150157e-01
9.26644941537150157e-01
1.00627283363852005e+00
1.00627283363852005e+00
1.00627283363852005e+00
9.97335844528419502e-01
9.97335844528419502e-01
9.97335844528419502e-01
9.82875147096680557e-01
9.82875147096680557e-01
9.82875147096680557e-01
9.81152489390517468e-01
9.81152489390517468e-01
9.81152489390517468e-01
1.02385115652747571e+00
1.02385115652747571e+00
1.02385115652747571e+00
1.00022608388198919e+00
1.00022608388198919e+00
1.00022608388198919e+00
9.85618432318640547e-01
9.85618432318640547e-01
9.85618432318640547e-01
9.71105439564948991e-01
9.71105439564948991e-01
9.71105439564948991e-01
9.75269971561752325e-01
9.75269971561752325e-01
9.75269971561752325e-01
9.73706914752854646e-01
9.73706914752854646e-01
9.73706914752854646e-01
9.74352589570433802e-01
9.74352589570433802e-01
9.74352589570433802e-01
1.01129969774029460e+00
1.01129969774029460e+00
1.01129969774029460e+00
9.70025196308675564e-01
9.70025196308675564e-01
9.70025196308675564e-01
9.70798043160935986e-01
9.70798043160935986e-01
9.70798043160935986e-01
9.80030401378267579e-01
9.80030401378267579e-01
9.80030401378267579e-01
9.62674425346949469e-01
9.62674425346949469e-01
9.62674425346949469e-01
9.88973118401285545e-01
9.88973118401285545e-01
9.88973118401285545e-01
9.48796896359519804e-01
9.48796896359519804e-01
9.48796896359519804e-01
9.81787398839351400e-01
9.81787398839351400e-01
9.81787398839351400e-01
9.36370618305432778e-01
9.36370618305432778e-01
9.36370618305432778e-01
9.62217475982171444e-01
9.62217475982171444e-01
9.62217475982171444e-01
9.20845993847256961e-01
9.20845993847256961e-01
9.20845993847256961e-01
9.83238690046115416e-01
9.83238690046115416e-01
9.83238690046115416e-01
9.89190739008702913e-01
9.89190739008702913e-01
9.89190739008702913e-01
9.93536504981372470e-01
9.93536504981372470e-01
9.93536504981372470e-01
9.70214018587305382e-01
9.70214018587305382e-01
9.70214018587305382e-01
9.71910808780900637e-01
9.71910808780900637e-01
9.71910808780900637e-01
1.03288254189415962e+00
1.03288254189415962e+00
1.03288254189415962e+00
9.75760304353695096e-01
9.75760304353695096e-01
9.75760304353695096e-01
9.71162890954618163e-01
9.71162890954618163e-01
9.71162890954618163e-01
1.03124432148954370e+00
1.03124432148954370e+00
1.03124432148954370e+00
9.89664195121631063e-01
9.89664195121631063e-01
9.89664195121631063e-01
1.00762297315293248e+00
1.00762297315293248e+00
1.00762297315293248e+00
1.00603495616677607e+00
1.00603495616677607e+00
1.00603495616677607e+00
9.97081369051291078e-01
9.97081369051291078e-01
9.97081369051291078e-01
9.76053515326016807e-01
9.76053515326016807e-01
9.76053515326016807e-01
9.48376924650342956e-01
9.48376924650342956e-01
9.48376924650342956e-01
1.02358772797093844e+00
1.02358772797093844e+00
1.02358772797093844e+00
9.94008932309403015e-01
9.94008932309403015e-01
9.94008932309403015e-01
1.01700893571428619e+00
1.01700893571428619e+00
1.01700893571428619e+00
9.90419863551962210e-01
9.90419863551962210e-01
9.90419863551962210e-01
1.01148700821400173e+00
1.01148700821400173e+00
1.01148700821400173e+00
9.89235935932156751e-01
9.89235935932156751e-01
9.89235935932156751e-01
1.03972999681128853e+00
1.03972999681128853e+00
1.03972999681128853e+00
1.00025348281591575e+00
1.00025348281591575e+00
1.00025348281591575e+00
9.97488456138089008e-01
9.97488456138089008e-01
9.97488456138089008e-01
9.65882037098786617e-01
9.65882037098786617e-01
9.65882037098786617e-01
1.01337739544598371e+00
1.01337739544598371e+00
1.01337739544598371e+00
1.03167058955258595e+00
1.03167058955258595e+00
1.03167058955258595e+00
9.93054225694508075e-01
9.93054225694508075e-01
9.93054225694508075e-01
9.50130442909439599e-01
9.50130442909439599e-01
9.50130442909439599e-01
9.81346052831495008e-01
9.81346052831495008e-01
9.81346052831495008e-01
9.41042387845096084e-01
9.41042387845096084e-01
9.41042387845096084e-01
1.02110637060592979e+00
1.02110637060592979e+00
1.02110637060592979e+00
9.50010333149405306e-01
9.50010333149405306e-01
9.50010333149405306e-01
9.92584176538746088e-01
9.92584176538746088e-01
9.92584176538746088e-01
9.94960796490454769e-01
9.94960796490454769e-01
9.94960796490454769e-01
9.78696301031425686e-01
9.78696301031425686e-01
9.78696301031425686e-01
1.01285217643691383e+00
1.01285217643691383e+00
1.01285217643691383e+00
9.76328507408829260e-01
9.76328507408829260e-01
9.76328507408829260e-01
9.07996237114844784e-01
9.07996237114844784e-01
9.07996237114844784e-01
9.80900115961590546e-01
9.80900115961590546e-01
9.80900115961590546e-01
1.00214188043441976e+00
1.00214188043441976e+00
1.00214188043441976e+00
1.01454099059459812e+00
1.01454099059459812e+00
1.01454099059459812e+00
9.92207564304924738e-01
9.92207564304924738e-01
9.92207564304924738e-01
9.78916713586969300e-01
9.78916713586969300e-01
9.78916713586969300e-01
9.93369562754990110e-01
9.93369562754990110e-01
9.93369562754990110e-01
1.00488827379468004e+00
1.00488827379468004e+00
1.00488827379468004e+00
1.01134623086819730e+00
1.01134623086819730e+00
1.01134623086819730e+00
1.02060852954669268e+00
1.02060852954669268e+00
1.02060852954669268e+00
1.00320389981920055e+00
1.00320389981920055e+00
1.00320389981920055e+00
9.91355637976779169e-01
9.91355637976779169e-01
9.91355637976779169e-01
1.01820219509770826e+00
1.01820219509770826e+00
1.01820219509770826e+00
1.00669296733164293e+00
1.00669296733164293e+00
1.00669296733164293e+00
1.01543131226396843e+00
1.01543131226396843e+00
1.01543131226396843e+00
9.90773012384689178e-01
9.90773012384689178e-01
9.90773012384689178e-01
1.03185163606183306e+00
1.03185163606183306e+00
1.03185163606183306e+00
1.00680905637434992e+00
1.00680905637434992e+00
1.00680905637434992e+00
9.94054358224372714e-01
9.94054358224372714e-01
9.94054358224372714e-01
1.01007991906803340e+00
1.01007991906803340e+00
1.01007991906803340e+00
9.87467891093296912e-01
9.87467891093296912e-01
9.87467891093296912e-01
9.92574916883396052e-01
9.92574916883396052e-01
9.92574916883396052e-01
9.75176606856146599e-01
9.75176606856146599e-01
9.75176606856146599e-01
9.70073787887619332e-01
9.70073787887619332e-01
9.70073787887619332e-01
9.90177716975722988e-01
9.90177716975722988e-01
9.90177716975722988e-01
9.59738043975419841e-01
9.59738043975419841e-01
9.59738043975419841e-01
9.65090785933733764e-01
9.65090785933733764e-01
9.65090785933733764e-01
9.78046120197738622e-01
9.78046120197738622e-01
9.78046120197738622e-01
9.67509149089505138e-01
9.67509149089505138e-01
9.67509149089505138e-01
9.12762838607667160e-01
9.12762838607667160e-01
9.12762838607667160e-01
9.48079093428529918e-01
9.48079093428529918e-01
9.48079093428529918e-01
9.94203049864523902e-01
9.94203049864523902e-01
9.94203049864523902e-01
9.93538662894681623e-01
9.93538662894681623e-01
9.93538662894681623e-01
9.80063663652614325e-01
9.80063663652614325e-01
9.80063663652614325e-01
9.80934705293104114e-01
9.80934705293104114e-01
9.80934705293104114e-01
9.66420616309072167e-01
9.66420616309072167e-01
9.66420616309072167e-01
8.95578016356960660e-01
8.95578016356960660e-01
8.95578016356960660e-01
9.55054253238870166e-01
9.55054253238870166e-01
9.55054253238870166e-01
9.94693800381049820e-01
9.94693800381049820e-01
9.94693800381049820e-01
9.61161344497467374e-01
9.61161344497467374e-01
9.61161344497467374e-01
9.29337311560207824e-01
9.29337311560207824e-01
9.29337311560207824e-01
9.43409143063493105e-01
9.43409143063493105e-01
9.43409143063493105e-01
9.12106198353303865e-01
9.12106198353303865e-01
9.12106198353303865e-01
1.00481306677323401e+00
1.00481306677323401e+00
1.00481306677323401e+00
9.86368190244179988e-01
9.86368190244179988e-01
9.86368190244179988e-01
9.54317633333319870e-01
9.54317633333319870e-01
9.54317633333319870e-01
9.48118872061735285e-01
9.48118872061735285e-01
9.48118872061735285e-01
9.93587031122710851e-01
9.93587031122710851e-01
9.93587031122710851e-01
9.96947150994252573e-01
9.96947150994252573e-01
9.96947150994252573e-01
9.86935758739240776e-01
9.86935758739240776e-01
9.86935758739240776e-01
9.93560051271251243e-01
9.93560051271251243e-01
9.93560051271251243e-01
9.53292325627562498e-01
9.53292325627562498e-01
9.53292325627562498e-01
9.55334659176430123e-01
9.55334659176430123e-01
9.55334659176430123e-01
1.00605470958949672e+00
1.00605470958949672e+00
1.00605470958949672e+00
9.74470153280650231e-01
9.74470153280650231e-01
9.74470153280650231e-01
9.32637071955114805e-01
9.32637071955114805e-01
9.32637071955114805e-01
9.88885889905429138e-01
9.88885889905429138e-01
9.88885889905429138e-01
9.90128898141573122e-01
9.90128898141573122e-01
9.90128898141573122e-01
9.81099491805826673e-01
9.81099491805826673e-01
9.81099491805826673e-01
9.67360735137725025e-01
9.67360735137725025e-01
9.67360735137725025e-01
9.60126523373607488e-01
9.60126523373607488e-01
9.60126523373607488e-01
9.17044399167694313e-01
9.17044399167694313e-01
9.17044399167694313e-01
9.36983940229779044e-01
9.36983940229779044e-01
9.36983940229779044e-01
1.00669504613660532e+00
1.00669504613660532e+00
1.00669504613660532e+00
9.23099806339203632e-01
9.23099806339203632e-01
9.23099806339203632e-01
9.20034845259217637e-01
9.20034845259217637e-01
9.20034845259217637e-01
9.85320381749806296e-01
9.85320381749806296e-01
9.85320381749806296e-01
9.75293120302342498e-01
9.75293120302342498e-01
9.75293120302342498e-01
9.36690959045503924e-01
9.36690959045503924e-01
9.36690959045503924e-01
1.01275029738714961e+00
1.01275029738714961e+00
1.01275029738714961e+00
9.60007784504809614e-01
9.60007784504809614e-01
9.60007784504809614e-01
1.00530606880376672e+00
1.00530606880376672e+00
1.00530606880376672e+00
9.39921036689977285e-01
9.39921036689977285e-01
9.39921036689977285e-01
9.91191092043555932e-01
9.91191092043555932e-01
9.91191092043555932e-01
9.71954158525314194e-01
9.71954158525314194e-01
9.71954158525314194e-01
1.01788162900723322e+00
1.01788162900723322e+00
1.01788162900723322e+00
9.63408279594967554e-01
9.63408279594967554e-01
9.63408279594967554e-01
9.62957381747109986e-01
9.62957381747109986e-01
9.62957381747109986e-01
9.66696974667749509e-01
9.66696974667749509e-01
9.66696974667749509e-01
9.91509646318959659e-01
9.91509646318959659e-01
9.91509646318959659e-01
9.95171838654365981e-01
9.95171838654365981e-01
9.95171838654365981e-01
9.61483795501412386e-01
9.61483795501412386e-01
9.61483795501412386e-01
1.03002054356335337e+00
1.03002054356335337e+00
1.03002054356335337e+00
1.02307083918409192e+00
1.02307083918409192e+00
1.02307083918409192e+00
1.02071313415904696e+00
1.02071313415904696e+00
1.02071313415904696e+00
9.68754127874484894e-01
9.68754127874484894e-01
9.68754127874484894e-01
9.68518440876607323e-01
9.68518440876607323e-01
9.68518440876607323e-01
9.91659834141158436e-01
9.91659834141158436e-01
9.91659834141158436e-01
9.27615730367287172e-01
9.27615730367287172e-01
9.27615730367287172e-01
9.78408166473346053e-01
9.78408166473346053e-01
9.78408166473346053e-01
1.00098807957868230e+00
1.00098807957868230e+00
1.00098807957868230e+00
9.92967282883438940e-01
9.92967282883438940e-01
9.92967282883438940e-01
9.82476289996351837e-01
9.82476289996351837e-01
9.82476289996351837e-01
9.61848132676411560e-01
9.61848132676411560e-01
9.61848132676411560e-01
9.77489848554935259e-01
9.77489848554935259e-01
9.77489848554935259e-01
9.77213679771544941e-01
9.77213679771544941e-01
9.77213679771544941e-01


        </DataArray>

      </PointData>

      <CellData/>

      <Points>

        <DataArray type="Float64" NumberOfComponents="3" format="ascii">

0.1082531754723032 0.6875000000007816 0 0.23533274979922561 0.77093399389351469 0 0.10409951422139101 0.81206782209691231 0 0.23533274979922561 0.77093399389351469 0 0.1082531754723032 0.6875000000007816 0 0.21809253452218619 0.65480892822618109 0 0.24418615484441761 0.35773612382016978 0 0.121259140952891 0.43112117036853742 0 0.1082531754734323 0.31250000000117473 0 0.75000000000057243 0.35048094716480432 0 0.88173731489851925 0.33077402607778361 0 0.81242894672211508 0.45500248311961472 0 0.121259140952891 0.43112117036853742 0 0.24418615484441761 0.35773612382016978 0 0.22257735880419699 0.47344721641341742 0 0.81242894672211508 0.45500248311961472 0 0.88173731489851925 0.33077402607778361 0 0.915464298762109 0.43749999999886913 0 0 0.62500000000121547 0 0 0.50000000000206146 0 0.1371230538040123 0.56179824718362847 0 0.82212678063041267 0.67678595194836966 0 0.89051480781310632 0.79665793440246835 0 0.76243180583607129 0.78687675331113149 0 0.76243180583607129 0.78687675331113149 0 0.69010814643829166 0.89298495739101336 0 0.62844955668446423 0.7850749770380413 0 0.89051480781310632 0.79665793440246835 0 0.82212678063041267 0.67678595194836966 0 0.92266244547590082 0.68749999999917555 0 0 0.50000000000206146 0 0.121259140952891 0.43112117036853742 0 0.1371230538040123 0.56179824718362847 0 0.1082531754723032 0.6875000000007816 0 0 0.62500000000121547 0 0.1371230538040123 0.56179824718362847 0 0.75000000000032374 0.56698729811007709 0 0.88927506082488361 0.56409486310635837 0 0.82212678063041267 0.67678595194836966 0 0.81242894672211508 0.45500248311961472 0 0.88927506082488361 0.56409486310635837 0 0.75000000000032374 0.56698729811007709 0 0.69851598570178741 0.68211701800612057 0 0.56496004948275869 0.67675037307860475 0 0.62752533658682441 0.56838075195614346 0 0.69851598570178741 0.68211701800612057 0 0.76243180583607129 0.78687675331113149 0 0.62844955668446423 0.7850749770380413 0 0.23533274979922561 0.77093399389351469 0 0.18802967116092181 0.89415349436770275 0 0.10409951422139101 0.81206782209691231 0 0.121259140952891 0.43112117036853742 0 0.22257735880419699 0.47344721641341742 0 0.1371230538040123 0.56179824718362847 0 0.75000000000032374 0.56698729811007709 0 0.69851598570178741 0.68211701800612057 0 0.62752533658682441 0.56838075195614346 0 0.56496004948275869 0.67675037307860475 0 0.69851598570178741 0.68211701800612057 0 0.62844955668446423 0.7850749770380413 0 0.1371230538040123 0.56179824718362847 0 0.22257735880419699 0.47344721641341742 0 0.26982811998763367 0.56544650815856912 0 0.21809253452218619 0.65480892822618109 0 0.1371230538040123 0.56179824718362847 0 0.26982811998763367 0.56544650815856912 0 0.24418615484441761 0.35773612382016978 0 0.1082531754734323 0.31250000000117473 0 0.20767261601459541 0.25628918442207171 0 0.88173731489851925 0.33077402607778361 0 0.75000000000057243 0.35048094716480432 0 0.79891106056046712 0.25007334953587562 0 0.75000000000032374 0.56698729811007709 0 0.82212678063041267 0.67678595194836966 0 0.69851598570178741 0.68211701800612057 0 0.81249999999950517 0.1082531754733404 0 0.89658421694297741 0.1933620068391701 0 0.79891106056046712 0.25007334953587562 0 0.81249999999950517 0.1082531754733404 0 0.79891106056046712 0.25007334953587562 0 0.73983916756365475 0.17530677078674589 0 0.23533274979922561 0.77093399389351469 0 0.21809253452218619 0.65480892822618109 0 0.32607333794064219 0.67760114260606152 0 0.1082531754723032 0.6875000000007816 0 0.1371230538040123 0.56179824718362847 0 0.21809253452218619 0.65480892822618109 0 0.69851598570178741 0.68211701800612057 0 0.82212678063041267 0.67678595194836966 0 0.76243180583607129 0.78687675331113149 0 0.69010814643829166 0.89298495739101336 0 0.76243180583607129 0.78687675331113149 0 0.80886664387416207 0.89717308644237903 0 0.43750000000181222 0.89174682452709564 0 0.31258827852827581 0.89214793616708443 0 0.37776173212361452 0.78514649317305008 0 0.43750000000181222 0.89174682452709564 0 0.37500000000156292 1 0 0.31258827852827581 0.89214793616708443 0 0.121259140952891 0.43112117036853742 0 0 0.37500000000156292 0 0.1082531754734323 0.31250000000117473 0 0.50000000000206146 1 0 0.37500000000156292 1 0 0.43750000000181222 0.89174682452709564 0 0.31258827852827581 0.89214793616708443 0 0.18802967116092181 0.89415349436770275 0 0.23533274979922561 0.77093399389351469 0 0 0.50000000000206146 0 0 0.37500000000156292 0 0.121259140952891 0.43112117036853742 0 0.62844955668446423 0.7850749770380413 0 0.69010814643829166 0.89298495739101336 0 0.56327595140699671 0.89211526915426331 0 0.69010814643829166 0.89298495739101336 0 0.62500000000121547 1 0 0.56327595140699671 0.89211526915426331 0 0.25000000000104189 1 0 0.18802967116092181 0.89415349436770275 0 0.31258827852827581 0.89214793616708443 0 0.50000000000206146 1 0 0.43750000000181222 0.89174682452709564 0 0.56327595140699671 0.89211526915426331 0 0.56249999999885147 0.1082531754730395 0 0.62499999999901068 0 0 0.68749999999926592 0.1082531754732875 0 1 0.49999999999869221 0 1 0.62499999999901068 0 0.88927506082488361 0.56409486310635837 0 0 0.25000000000104189 0 0.12076953676380731 0.18690935762408761 0 0.1082531754734323 0.31250000000117473 0 0.49999999999869221 0 0 0.62499999999901068 0 0 0.56249999999885147 0.1082531754730395 0 0.62500000000121547 1 0 0.50000000000206146 1 0 0.56327595140699671 0.89211526915426331 0 0.37500000000156292 1 0 0.25000000000104189 1 0 0.31258827852827581 0.89214793616708443 0 0.31281086598417152 0.10449318608631281 0 0.37499999999904599 0 0 0.43749999999910871 0.1082531754729984 0 0.43750000000181222 0.89174682452709564 0 0.37776173212361452 0.78514649317305008 0 0.50046028868828263 0.78376912307435687 0 0 0.37500000000156292 0 0 0.25000000000104189 0 0.1082531754734323 0.31250000000117473 0 0.49999999999869221 0 0 0.56249999999885147 0.1082531754730395 0 0.43749999999910871 0.1082531754729984 0 0.43750000000181222 0.89174682452709564 0 0.50046028868828263 0.78376912307435687 0 0.56327595140699671 0.89211526915426331 0 0.74999999999934042 0 0 0.81249999999950517 0.1082531754733404 0 0.68749999999926592 0.1082531754732875 0 0.37499999999904599 0 0 0.49999999999869221 0 0 0.43749999999910871 0.1082531754729984 0 0.25000000000104189 1 0 0.12500000000052089 1 0 0.18802967116092181 0.89415349436770275 0 0.50046028868828263 0.78376912307435687 0 0.62844955668446423 0.7850749770380413 0 0.56327595140699671 0.89211526915426331 0 0.37776173212361452 0.78514649317305008 0 0.31258827852827581 0.89214793616708443 0 0.23533274979922561 0.77093399389351469 0 0.62499999999901068 0 0 0.74999999999934042 0 0 0.68749999999926592 0.1082531754732875 0 1 0.74999999999934042 0 1 0.87499999999967015 0 0.89051480781310632 0.79665793440246835 0 0 0.25000000000104189 0 0 0.12500000000052089 0 0.12076953676380731 0.18690935762408761 0 0.74999999999934042 0 0 0.87499999999967015 0 0 0.81249999999950517 0.1082531754733404 0 0.24999999999941069 0 0 0.37499999999904599 0 0 0.31281086598417152 0.10449318608631281 0 0.50046028868828263 0.78376912307435687 0 0.37776173212361452 0.78514649317305008 0 0.44078402250377968 0.67714785211715212 0 0.68768773896438518 0.4586835206367198 0 0.75000000000032374 0.56698729811007709 0 0.62752533658682441 0.56838075195614346 0 0.31411863959822661 0.24965544328045999 0 0.37953773393552892 0.34812185820708452 0 0.24418615484441761 0.35773612382016978 0 0.68768773896438518 0.4586835206367198 0 0.81242894672211508 0.45500248311961472 0 0.75000000000032374 0.56698729811007709 0 1 0.24999999999941069 0 1 0.37499999999904599 0 0.88173731489851925 0.33077402607778361 0 0 0.75000000000034761 0 0 0.62500000000121547 0 0.1082531754723032 0.6875000000007816 0 0.50048844149666749 0.56727788297625459 0 0.44078402250377968 0.67714785211715212 0 0.38694285807596462 0.5672991787102919 0 0.50108503093851109 0.35012252869403671 0 0.44301038174930041 0.45684931552185398 0 0.37953773393552892 0.34812185820708452 0 0.50046028868828263 0.78376912307435687 0 0.56496004948275869 0.67675037307860475 0 0.62844955668446423 0.7850749770380413 0 0.68768773896438518 0.4586835206367198 0 0.75000000000057243 0.35048094716480432 0 0.81242894672211508 0.45500248311961472 0 0.56349980387502452 0.45846841892908402 0 0.62512662990940393 0.35044303886909911 0 0.68768773896438518 0.4586835206367198 0 0.50048844149666749 0.56727788297625459 0 0.38694285807596462 0.5672991787102919 0 0.44301038174930041 0.45684931552185398 0 0.50046028868828263 0.78376912307435687 0 0.44078402250377968 0.67714785211715212 0 0.56496004948275869 0.67675037307860475 0 0.50108503093851109 0.35012252869403671 0 0.37953773393552892 0.34812185820708452 0 0.43750000000200551 0.24222777169198509 0 0.75000000000034761 1 0 0.62500000000121547 1 0 0.69010814643829166 0.89298495739101336 0 0.68768773896438518 0.4586835206367198 0 0.62512662990940393 0.35044303886909911 0 0.75000000000057243 0.35048094716480432 0 0.56496004948275869 0.67675037307860475 0 0.44078402250377968 0.67714785211715212 0 0.50048844149666749 0.56727788297625459 0 0.56349980387502452 0.45846841892908402 0 0.44301038174930041 0.45684931552185398 0 0.50108503093851109 0.35012252869403671 0 0.50048844149666749 0.56727788297625459 0 0.44301038174930041 0.45684931552185398 0 0.56349980387502452 0.45846841892908402 0 0.56349980387502452 0.45846841892908402 0 0.50108503093851109 0.35012252869403671 0 0.62512662990940393 0.35044303886909911 0 0.43750000000200551 0.24222777169198509 0 0.37953773393552892 0.34812185820708452 0 0.31411863959822661 0.24965544328045999 0 0.56496004948275869 0.67675037307860475 0 0.50048844149666749 0.56727788297625459 0 0.62752533658682441 0.56838075195614346 0 0.56349980387502452 0.45846841892908402 0 0.68768773896438518 0.4586835206367198 0 0.62752533658682441 0.56838075195614346 0 0.50048844149666749 0.56727788297625459 0 0.56349980387502452 0.45846841892908402 0 0.62752533658682441 0.56838075195614346 0 0.75000000000057243 0.35048094716480432 0 0.62512662990940393 0.35044303886909911 0 0.68668231842078242 0.24762892664808989 0 0.50108503093851109 0.35012252869403671 0 0.43750000000200551 0.24222777169198509 0 0.56250000000143974 0.2422277716920859 0 0.62512662990940393 0.35044303886909911 0 0.50108503093851109 0.35012252869403671 0 0.56250000000143974 0.2422277716920859 0 0.68668231842078242 0.24762892664808989 0 0.62512662990940393 0.35044303886909911 0 0.56250000000143974 0.2422277716920859 0 0.22257735880419699 0.47344721641341742 0 0.24418615484441761 0.35773612382016978 0 0.32815957677880009 0.4577243358118348 0 0.12076953676380731 0.18690935762408761 0 0.19185372118111221 0.092925648673580788 0 0.25103557339309318 0.17464499738446629 0 0.20767261601459541 0.25628918442207171 0 0.12076953676380731 0.18690935762408761 0 0.25103557339309318 0.17464499738446629 0 0 0.87499999999950151 0 0 0.75000000000034761 0 0.10409951422139101 0.81206782209691231 0 0.1249999999997731 0 0 0.24999999999941069 0 0 0.19185372118111221 0.092925648673580788 0 1 0.1249999999997731 0 1 0.24999999999941069 0 0.89658421694297741 0.1933620068391701 0 0.88927506082488361 0.56409486310635837 0 0.81242894672211508 0.45500248311961472 0 0.915464298762109 0.43749999999886913 0 0.87499999999950151 1 0 0.75000000000034761 1 0 0.80886664387416207 0.89717308644237903 0 0.75000000000034761 1 0 0.69010814643829166 0.89298495739101336 0 0.80886664387416207 0.89717308644237903 0 0.82212678063041267 0.67678595194836966 0 0.88927506082488361 0.56409486310635837 0 0.92266244547590082 0.68749999999917555 0 0 0.75000000000034761 0 0.1082531754723032 0.6875000000007816 0 0.10409951422139101 0.81206782209691231 0 0.24999999999941069 0 0 0.31281086598417152 0.10449318608631281 0 0.19185372118111221 0.092925648673580788 0 1 0.24999999999941069 0 0.88173731489851925 0.33077402607778361 0 0.89658421694297741 0.1933620068391701 0 0.32815957677880009 0.4577243358118348 0 0.38694285807596462 0.5672991787102919 0 0.26982811998763367 0.56544650815856912 0 0.76243180583607129 0.78687675331113149 0 0.89051480781310632 0.79665793440246835 0 0.80886664387416207 0.89717308644237903 0 0.38694285807596462 0.5672991787102919 0 0.44078402250377968 0.67714785211715212 0 0.32607333794064219 0.67760114260606152 0 0.37776173212361452 0.78514649317305008 0 0.23533274979922561 0.77093399389351469 0 0.32607333794064219 0.67760114260606152 0 1 0.49999999999869221 0 0.88927506082488361 0.56409486310635837 0 0.915464298762109 0.43749999999886913 0 0.88173731489851925 0.33077402607778361 0 1 0.37499999999904599 0 0.915464298762109 0.43749999999886913 0 0.24418615484441761 0.35773612382016978 0 0.37953773393552892 0.34812185820708452 0 0.32815957677880009 0.4577243358118348 0 0.44301038174930041 0.45684931552185398 0 0.38694285807596462 0.5672991787102919 0 0.32815957677880009 0.4577243358118348 0 0.88927506082488361 0.56409486310635837 0 1 0.62499999999901068 0 0.92266244547590082 0.68749999999917555 0 1 0.74999999999934042 0 0.89051480781310632 0.79665793440246835 0 0.92266244547590082 0.68749999999917555 0 0 1 0 0 0.87499999999950151 0 0.091506350946494744 0.90849364905351082 0 1 1 0 0.87499999999950151 1 0 0.90849364905363228 0.90849364905367769 0 0 0 0 0.1249999999997731 0 0 0.091506350946417708 0.091506350946618076 0 0 0.12500000000052089 0 0 0 0 0.091506350946417708 0.091506350946618076 0 1 0 0 1 0.1249999999997731 0 0.90849364905355434 0.091506350946296292 0 0.87499999999967015 0 0 1 0 0 0.90849364905355434 0.091506350946296292 0 0.12500000000052089 1 0 0 1 0 0.091506350946494744 0.90849364905351082 0 1 0.87499999999967015 0 1 1 0 0.90849364905363228 0.90849364905367769 0 0.38694285807596462 0.5672991787102919 0 0.32607333794064219 0.67760114260606152 0 0.26982811998763367 0.56544650815856912 0 0.31411863959822661 0.24965544328045999 0 0.24418615484441761 0.35773612382016978 0 0.20767261601459541 0.25628918442207171 0 0.1082531754734323 0.31250000000117473 0 0.12076953676380731 0.18690935762408761 0 0.20767261601459541 0.25628918442207171 0 0.75000000000057243 0.35048094716480432 0 0.68668231842078242 0.24762892664808989 0 0.79891106056046712 0.25007334953587562 0 0.22257735880419699 0.47344721641341742 0 0.32815957677880009 0.4577243358118348 0 0.26982811998763367 0.56544650815856912 0 0.44078402250377968 0.67714785211715212 0 0.37776173212361452 0.78514649317305008 0 0.32607333794064219 0.67760114260606152 0 0.89658421694297741 0.1933620068391701 0 0.88173731489851925 0.33077402607778361 0 0.79891106056046712 0.25007334953587562 0 1 0.37499999999904599 0 1 0.49999999999869221 0 0.915464298762109 0.43749999999886913 0 0.37953773393552892 0.34812185820708452 0 0.44301038174930041 0.45684931552185398 0 0.32815957677880009 0.4577243358118348 0 0.32607333794064219 0.67760114260606152 0 0.21809253452218619 0.65480892822618109 0 0.26982811998763367 0.56544650815856912 0 1 0.1249999999997731 0 0.89658421694297741 0.1933620068391701 0 0.90849364905355434 0.091506350946296292 0 0 0.87499999999950151 0 0.10409951422139101 0.81206782209691231 0 0.091506350946494744 0.90849364905351082 0 0.1249999999997731 0 0 0.19185372118111221 0.092925648673580788 0 0.091506350946417708 0.091506350946618076 0 1 0.62499999999901068 0 1 0.74999999999934042 0 0.92266244547590082 0.68749999999917555 0 0.18802967116092181 0.89415349436770275 0 0.12500000000052089 1 0 0.091506350946494744 0.90849364905351082 0 0.89051480781310632 0.79665793440246835 0 1 0.87499999999967015 0 0.90849364905363228 0.90849364905367769 0 0.12076953676380731 0.18690935762408761 0 0 0.12500000000052089 0 0.091506350946417708 0.091506350946618076 0 0.81249999999950517 0.1082531754733404 0 0.87499999999967015 0 0 0.90849364905355434 0.091506350946296292 0 0.87499999999950151 1 0 0.80886664387416207 0.89717308644237903 0 0.90849364905363228 0.90849364905367769 0 0.68668231842078242 0.24762892664808989 0 0.62499999999892575 0.17524047358135519 0 0.73983916756365475 0.17530677078674589 0 0.31281086598417152 0.10449318608631281 0 0.43749999999910871 0.1082531754729984 0 0.37500000000232431 0.17524047358384309 0 0.62499999999892575 0.17524047358135519 0 0.56250000000143974 0.2422277716920859 0 0.49999999999934441 0.1752404735815076 0 0.56249999999885147 0.1082531754730395 0 0.68749999999926592 0.1082531754732875 0 0.62499999999892575 0.17524047358135519 0 0.56249999999885147 0.1082531754730395 0 0.62499999999892575 0.17524047358135519 0 0.49999999999934441 0.1752404735815076 0 0.56250000000143974 0.2422277716920859 0 0.43750000000200551 0.24222777169198509 0 0.49999999999934441 0.1752404735815076 0 0.43749999999910871 0.1082531754729984 0 0.56249999999885147 0.1082531754730395 0 0.49999999999934441 0.1752404735815076 0 0.68668231842078242 0.24762892664808989 0 0.56250000000143974 0.2422277716920859 0 0.62499999999892575 0.17524047358135519 0 0.43750000000200551 0.24222777169198509 0 0.31411863959822661 0.24965544328045999 0 0.37500000000232431 0.17524047358384309 0 0.49999999999934441 0.1752404735815076 0 0.43750000000200551 0.24222777169198509 0 0.37500000000232431 0.17524047358384309 0 0.43749999999910871 0.1082531754729984 0 0.49999999999934441 0.1752404735815076 0 0.37500000000232431 0.17524047358384309 0 0.62499999999892575 0.17524047358135519 0 0.68749999999926592 0.1082531754732875 0 0.73983916756365475 0.17530677078674589 0 0.68749999999926592 0.1082531754732875 0 0.81249999999950517 0.1082531754733404 0 0.73983916756365475 0.17530677078674589 0 0.10409951422139101 0.81206782209691231 0 0.18802967116092181 0.89415349436770275 0 0.091506350946494744 0.90849364905351082 0 0.89658421694297741 0.1933620068391701 0 0.81249999999950517 0.1082531754733404 0 0.90849364905355434 0.091506350946296292 0 0.19185372118111221 0.092925648673580788 0 0.12076953676380731 0.18690935762408761 0 0.091506350946417708 0.091506350946618076 0 0.37500000000232431 0.17524047358384309 0 0.31411863959822661 0.24965544328045999 0 0.25103557339309318 0.17464499738446629 0 0.31281086598417152 0.10449318608631281 0 0.37500000000232431 0.17524047358384309 0 0.25103557339309318 0.17464499738446629 0 0.80886664387416207 0.89717308644237903 0 0.89051480781310632 0.79665793440246835 0 0.90849364905363228 0.90849364905367769 0 0.19185372118111221 0.092925648673580788 0 0.31281086598417152 0.10449318608631281 0 0.25103557339309318 0.17464499738446629 0 0.79891106056046712 0.25007334953587562 0 0.68668231842078242 0.24762892664808989 0 0.73983916756365475 0.17530677078674589 0 0.31411863959822661 0.24965544328045999 0 0.20767261601459541 0.25628918442207171 0 0.25103557339309318 0.17464499738446629 0 

        </DataArray>

      </Points>

      <Cells>

        <DataArray type="Int32" Name="connectivity" format="ascii">

0 1 2 3 4 5 6 7 8 9 10 11 12 13 14 15 16 17 18 19 20 21 22 23 24 25 26 27 28 29 30 31 32 33 34 35 36 37 38 39 40 41 42 43 44 45 46 47 48 49 50 51 52 53 54 55 56 57 58 59 60 61 62 63 64 65 66 67 68 69 70 71 72 73 74 75 76 77 78 79 80 81 82 83 84 85 86 87 88 89 90 91 92 93 94 95 96 97 98 99 100 101 102 103 104 105 106 107 108 109 110 111 112 113 114 115 116 117 118 119 120 121 122 123 124 125 126 127 128 129 130 131 132 133 134 135 136 137 138 139 140 141 142 143 144 145 146 147 148 149 150 151 152 153 154 155 156 157 158 159 160 161 162 163 164 165 166 167 168 169 170 171 172 173 174 175 176 177 178 179 180 181 182 183 184 185 186 187 188 189 190 191 192 193 194 195 196 197 198 199 200 201 202 203 204 205 206 207 208 209 210 211 212 213 214 215 216 217 218 219 220 221 222 223 224 225 226 227 228 229 230 231 232 233 234 235 236 237 238 239 240 241 242 243 244 245 246 247 248 249 250 251 252 253 254 255 256 257 258 259 260 261 262 263 264 265 266 267 268 269 270 271 272 273 274 275 276 277 278 279 280 281 282 283 284 285 286 287 288 289 290 291 292 293 294 295 296 297 298 299 300 301 302 303 304 305 306 307 308 309 310 311 312 313 314 315 316 317 318 319 320 321 322 323 324 325 326 327 328 329 330 331 332 333 334 335 336 337 338 339 340 341 342 343 344 345 346 347 348 349 350 351 352 353 354 355 356 357 358 359 360 361 362 363 364 365 366 367 368 369 370 371 372 373 374 375 376 377 378 379 380 381 382 383 384 385 386 387 388 389 390 391 392 393 394 395 396 397 398 399 400 401 402 403 404 405 406 407 408 409 410 411 412 413 414 415 416 417 418 419 420 421 422 423 424 425 426 427 428 429 430 431 432 433 434 435 436 437 438 439 440 441 442 443 444 445 446 447 448 449 450 451 452 453 454 455 456 457 458 459 460 461 462 463 464 465 466 467 468 469 470 471 472 473 474 475 476 477 478 479 480 481 482 483 484 485 

        </DataArray>

        <DataArray type="Int32" Name="offsets" format="ascii">

3 6 9 12 15 18 21 24 27 30 33 36 39 42 45 48 51 54 57 60 63 66 69 72 75 78 81 84 87 90 93 96 99 102 105 108 111 114 117 120 123 126 129 132 135 138 141 144 147 150 153 156 159 162 165 168 171 174 177 180 183 186 189 192 195 198 201 204 207 210 213 216 219 222 225 228 231 234 237 240 243 246 249 252 255 258 261 264 267 270 273 276 279 282 285 288 291 294 297 300 303 306 309 312 315 318 321 324 327 330 333 336 339 342 345 348 351 354 357 360 363 366 369 372 375 378 381 384 387 390 393 396 399 402 405 408 411 414 417 420 423 426 429 432 435 438 441 444 447 450 453 456 459 462 465 468 471 474 477 480 483 486 

        </DataArray>

        <DataArray type="Int32" Name="types" format="ascii">

5 5 5 5 5 5 5 5 5 5 5 5 5 5 5 5 5 5 5 5 5 5 5 5 5 5 5 5 5 5 5 5 5 5 5 5 5 5 5 5 5 5 5 5 5 5 5 5 5 5 5 5 5 5 5 5 5 5 5 5 5 5 5 5 5 5 5 5 5 5 5 5 5 5 5 5 5 5 5 5 5 5 5 5 5 5 5 5 5 5 5 5 5 5 5 5 5 5 5 5 5 5 5 5 5 5 5 5 5 5 5 5 5 5 5 5 5 5 5 5 5 5 5 5 5 5 5 5 5 5 5 5 5 5 5 5 5 5 5 5 5 5 5 5 5 5 5 5 5 5 5 5 5 5 5 5 5 5 5 5 5 5 

        </DataArray>

      </Cells>

    </Piece>

  </UnstructuredGrid>

</VTKFile>

