<?xml version="1.0"?>

<VTKFile type="UnstructuredGrid" version="0.1">

  <UnstructuredGrid>

    <Piece NumberOfPoints="486" NumberOfCells="162">

      <PointData>

        <DataArray type="Float64" Name="K" format="ascii">

1.03873244522127228e+00
1.03873244522127228e+00
1.03873244522127228e+00
1.05484520692590200e+00
1.05484520692590200e+00
1.05484520692590200e+00
1.01353531502148231e+00
1.01353531502148231e+00
1.01353531502148231e+00
1.05606704959905495e+00
1.05606704959905495e+00
1.05606704959905495e+00
1.03891245876578941e+00
1.03891245876578941e+00
1.03891245876578941e+00
1.06795985336264110e+00
1.06795985336264110e+00
1.06795985336264110e+00
1.03059980253076278e+00
1.03059980253076278e+00
1.03059980253076278e+00
9.76175420849510478e-01
9.76175420849510478e-01
9.76175420849510478e-01
1.00003015209470347e+00
1.00003015209470347e+00
1.00003015209470347e+00
9.91963692692259369e-01
9.91963692692259369e-01
9.91963692692259369e-01
1.01556724682862787e+00
1.01556724682862787e+00
1.01556724682862787e+00
1.03087925094353028e+00
1.03087925094353028e+00
1.03087925094353028e+00
9.76164780021296474e-01
9.76164780021296474e-01
9.76164780021296474e-01
1.00265009267549887e+00
1.00265009267549887e+00
1.00265009267549887e+00
9.98226231438134493e-01
9.98226231438134493e-01
9.98226231438134493e-01
9.87160947723169646e-01
9.87160947723169646e-01
9.87160947723169646e-01
1.02593742538668287e+00
1.02593742538668287e+00
1.02593742538668287e+00
1.03435095437437807e+00
1.03435095437437807e+00
1.03435095437437807e+00
1.00000741910697211e+00
1.00000741910697211e+00
1.00000741910697211e+00
9.90650139382824979e-01
9.90650139382824979e-01
9.90650139382824979e-01
1.06680916243728996e+00
1.06680916243728996e+00
1.06680916243728996e+00
1.07109112423964525e+00
1.07109112423964525e+00
1.07109112423964525e+00
1.01342619887849184e+00
1.01342619887849184e+00
1.01342619887849184e+00
1.05923072586257438e+00
1.05923072586257438e+00
1.05923072586257438e+00
9.72854506945464936e-01
9.72854506945464936e-01
9.72854506945464936e-01
1.05188718010555382e+00
1.05188718010555382e+00
1.05188718010555382e+00
1.01871428006097942e+00
1.01871428006097942e+00
1.01871428006097942e+00
1.07031493563432178e+00
1.07031493563432178e+00
1.07031493563432178e+00
1.04586167567572019e+00
1.04586167567572019e+00
1.04586167567572019e+00
9.68564641877147414e-01
9.68564641877147414e-01
9.68564641877147414e-01
1.01235304363839562e+00
1.01235304363839562e+00
1.01235304363839562e+00
1.02179231309764429e+00
1.02179231309764429e+00
1.02179231309764429e+00
1.03894786661868332e+00
1.03894786661868332e+00
1.03894786661868332e+00
9.88151559207908758e-01
9.88151559207908758e-01
9.88151559207908758e-01
1.03462362683431741e+00
1.03462362683431741e+00
1.03462362683431741e+00
1.02300664140621156e+00
1.02300664140621156e+00
1.02300664140621156e+00
1.00541964514536586e+00
1.00541964514536586e+00
1.00541964514536586e+00
9.98503327938442875e-01
9.98503327938442875e-01
9.98503327938442875e-01
1.01074871833706892e+00
1.01074871833706892e+00
1.01074871833706892e+00
1.00763942760027292e+00
1.00763942760027292e+00
1.00763942760027292e+00
1.00208094066766185e+00
1.00208094066766185e+00
1.00208094066766185e+00
9.76668778201678411e-01
9.76668778201678411e-01
9.76668778201678411e-01
1.04315945339889327e+00
1.04315945339889327e+00
1.04315945339889327e+00
9.54965288161341297e-01
9.54965288161341297e-01
9.54965288161341297e-01
9.62759802246671126e-01
9.62759802246671126e-01
9.62759802246671126e-01
1.00006731927729664e+00
1.00006731927729664e+00
1.00006731927729664e+00
1.03334956900316088e+00
1.03334956900316088e+00
1.03334956900316088e+00
9.30616499646290452e-01
9.30616499646290452e-01
9.30616499646290452e-01
9.91018746820584662e-01
9.91018746820584662e-01
9.91018746820584662e-01
9.62920221693637890e-01
9.62920221693637890e-01
9.62920221693637890e-01
9.60079852015909951e-01
9.60079852015909951e-01
9.60079852015909951e-01
9.84780557645129728e-01
9.84780557645129728e-01
9.84780557645129728e-01
9.82120682366983577e-01
9.82120682366983577e-01
9.82120682366983577e-01
9.34790508375020091e-01
9.34790508375020091e-01
9.34790508375020091e-01
9.89528871611281557e-01
9.89528871611281557e-01
9.89528871611281557e-01
9.80379915550333769e-01
9.80379915550333769e-01
9.80379915550333769e-01
1.03365784128544358e+00
1.03365784128544358e+00
1.03365784128544358e+00
9.62652654429414056e-01
9.62652654429414056e-01
9.62652654429414056e-01
1.04042403244994408e+00
1.04042403244994408e+00
1.04042403244994408e+00
9.32128761438059117e-01
9.32128761438059117e-01
9.32128761438059117e-01
1.00374705862785318e+00
1.00374705862785318e+00
1.00374705862785318e+00
9.52146355724986071e-01
9.52146355724986071e-01
9.52146355724986071e-01
9.76918990227782835e-01
9.76918990227782835e-01
9.76918990227782835e-01
1.01688316389155298e+00
1.01688316389155298e+00
1.01688316389155298e+00
1.01295121741739047e+00
1.01295121741739047e+00
1.01295121741739047e+00
1.01573507959220355e+00
1.01573507959220355e+00
1.01573507959220355e+00
1.08495615851594884e+00
1.08495615851594884e+00
1.08495615851594884e+00
1.04326864112936457e+00
1.04326864112936457e+00
1.04326864112936457e+00
9.88163798652474057e-01
9.88163798652474057e-01
9.88163798652474057e-01
1.02753946182482925e+00
1.02753946182482925e+00
1.02753946182482925e+00
9.74760568657586757e-01
9.74760568657586757e-01
9.74760568657586757e-01
1.03178837229264753e+00
1.03178837229264753e+00
1.03178837229264753e+00
1.03809586532411902e+00
1.03809586532411902e+00
1.03809586532411902e+00
1.00785443130887042e+00
1.00785443130887042e+00
1.00785443130887042e+00
9.61308656189734712e-01
9.61308656189734712e-01
9.61308656189734712e-01
1.01390510903512010e+00
1.01390510903512010e+00
1.01390510903512010e+00
1.04266005942975215e+00
1.04266005942975215e+00
1.04266005942975215e+00
1.03407044751275112e+00
1.03407044751275112e+00
1.03407044751275112e+00
9.66094810291576955e-01
9.66094810291576955e-01
9.66094810291576955e-01
1.02870137331878864e+00
1.02870137331878864e+00
1.02870137331878864e+00
1.00759701196590568e+00
1.00759701196590568e+00
1.00759701196590568e+00
1.04330305691413416e+00
1.04330305691413416e+00
1.04330305691413416e+00
9.87858272499193335e-01
9.87858272499193335e-01
9.87858272499193335e-01
9.87088039444785181e-01
9.87088039444785181e-01
9.87088039444785181e-01
1.02608543661700025e+00
1.02608543661700025e+00
1.02608543661700025e+00
1.00532000906033869e+00
1.00532000906033869e+00
1.00532000906033869e+00
1.02953012130858834e+00
1.02953012130858834e+00
1.02953012130858834e+00
1.03019168255868676e+00
1.03019168255868676e+00
1.03019168255868676e+00
1.04915855995409579e+00
1.04915855995409579e+00
1.04915855995409579e+00
1.03945887373116874e+00
1.03945887373116874e+00
1.03945887373116874e+00
1.06120286133400343e+00
1.06120286133400343e+00
1.06120286133400343e+00
9.92965389509256724e-01
9.92965389509256724e-01
9.92965389509256724e-01
9.98988385302120419e-01
9.98988385302120419e-01
9.98988385302120419e-01
1.04698488304858106e+00
1.04698488304858106e+00
1.04698488304858106e+00
9.93022198442713999e-01
9.93022198442713999e-01
9.93022198442713999e-01
1.06856527134530288e+00
1.06856527134530288e+00
1.06856527134530288e+00
1.03629034801887121e+00
1.03629034801887121e+00
1.03629034801887121e+00
1.04726259500838537e+00
1.04726259500838537e+00
1.04726259500838537e+00
1.04241249139644876e+00
1.04241249139644876e+00
1.04241249139644876e+00
9.89957681618631180e-01
9.89957681618631180e-01
9.89957681618631180e-01
1.04014502489824334e+00
1.04014502489824334e+00
1.04014502489824334e+00
9.80331481016731732e-01
9.80331481016731732e-01
9.80331481016731732e-01
1.09519750003906524e+00
1.09519750003906524e+00
1.09519750003906524e+00
1.07545980610106806e+00
1.07545980610106806e+00
1.07545980610106806e+00
1.00015390974422536e+00
1.00015390974422536e+00
1.00015390974422536e+00
1.02113182526582946e+00
1.02113182526582946e+00
1.02113182526582946e+00
1.04672469110821753e+00
1.04672469110821753e+00
1.04672469110821753e+00
1.04922581208407517e+00
1.04922581208407517e+00
1.04922581208407517e+00
1.08376801135751988e+00
1.08376801135751988e+00
1.08376801135751988e+00
1.04297040998838586e+00
1.04297040998838586e+00
1.04297040998838586e+00
1.04421864789145524e+00
1.04421864789145524e+00
1.04421864789145524e+00
1.02616591087355902e+00
1.02616591087355902e+00
1.02616591087355902e+00
1.02799993239772469e+00
1.02799993239772469e+00
1.02799993239772469e+00
1.04382076102623444e+00
1.04382076102623444e+00
1.04382076102623444e+00
1.03549706975611655e+00
1.03549706975611655e+00
1.03549706975611655e+00
9.62541188849566853e-01
9.62541188849566853e-01
9.62541188849566853e-01
9.41755183058231360e-01
9.41755183058231360e-01
9.41755183058231360e-01
1.02595742333027018e+00
1.02595742333027018e+00
1.02595742333027018e+00
1.02096021520009472e+00
1.02096021520009472e+00
1.02096021520009472e+00
1.02781708921857473e+00
1.02781708921857473e+00
1.02781708921857473e+00
1.04306403822604388e+00
1.04306403822604388e+00
1.04306403822604388e+00
1.07099533034240291e+00
1.07099533034240291e+00
1.07099533034240291e+00
1.01258484749648692e+00
1.01258484749648692e+00
1.01258484749648692e+00
9.89411461260981007e-01
9.89411461260981007e-01
9.89411461260981007e-01
1.02699528133148088e+00
1.02699528133148088e+00
1.02699528133148088e+00
1.08135971162709632e+00
1.08135971162709632e+00
1.08135971162709632e+00
1.01149838982538176e+00
1.01149838982538176e+00
1.01149838982538176e+00
1.08210976095784073e+00
1.08210976095784073e+00
1.08210976095784073e+00
1.06474780807846869e+00
1.06474780807846869e+00
1.06474780807846869e+00
1.03926360964256559e+00
1.03926360964256559e+00
1.03926360964256559e+00
1.08480137802486709e+00
1.08480137802486709e+00
1.08480137802486709e+00
1.06162103465692992e+00
1.06162103465692992e+00
1.06162103465692992e+00
1.04074577585912564e+00
1.04074577585912564e+00
1.04074577585912564e+00
9.78590670435386611e-01
9.78590670435386611e-01
9.78590670435386611e-01
1.03917037140147905e+00
1.03917037140147905e+00
1.03917037140147905e+00
1.00685986828040530e+00
1.00685986828040530e+00
1.00685986828040530e+00
1.03627199773637391e+00
1.03627199773637391e+00
1.03627199773637391e+00
9.40411623485354231e-01
9.40411623485354231e-01
9.40411623485354231e-01
1.02941197723807143e+00
1.02941197723807143e+00
1.02941197723807143e+00
1.03457177418883028e+00
1.03457177418883028e+00
1.03457177418883028e+00
1.00692243953941385e+00
1.00692243953941385e+00
1.00692243953941385e+00
9.35499656980526617e-01
9.35499656980526617e-01
9.35499656980526617e-01
1.02769655175546681e+00
1.02769655175546681e+00
1.02769655175546681e+00
9.99516626673386477e-01
9.99516626673386477e-01
9.99516626673386477e-01
1.01107601489022425e+00
1.01107601489022425e+00
1.01107601489022425e+00
1.01348363580111034e+00
1.01348363580111034e+00
1.01348363580111034e+00
9.79684580363177293e-01
9.79684580363177293e-01
9.79684580363177293e-01
1.02851072047195613e+00
1.02851072047195613e+00
1.02851072047195613e+00
9.62733577928265416e-01
9.62733577928265416e-01
9.62733577928265416e-01
9.70330944289353292e-01
9.70330944289353292e-01
9.70330944289353292e-01
9.54422635832957500e-01
9.54422635832957500e-01
9.54422635832957500e-01
9.94462337835887111e-01
9.94462337835887111e-01
9.94462337835887111e-01
9.92224565872798170e-01
9.92224565872798170e-01
9.92224565872798170e-01
1.02187861484982023e+00
1.02187861484982023e+00
1.02187861484982023e+00
1.05310356984835907e+00
1.05310356984835907e+00
1.05310356984835907e+00
9.73121050675407773e-01
9.73121050675407773e-01
9.73121050675407773e-01
9.67784004549327337e-01
9.67784004549327337e-01
9.67784004549327337e-01
9.57455834330000588e-01
9.57455834330000588e-01
9.57455834330000588e-01
1.02205351969559244e+00
1.02205351969559244e+00
1.02205351969559244e+00
9.82947496406155641e-01
9.82947496406155641e-01
9.82947496406155641e-01
1.01359657338189013e+00
1.01359657338189013e+00
1.01359657338189013e+00
9.96052693432835756e-01
9.96052693432835756e-01
9.96052693432835756e-01


        </DataArray>

      </PointData>

      <CellData/>

      <Points>

        <DataArray type="Float64" NumberOfComponents="3" format="ascii">

0.1082531754723032 0.6875000000007816 0 0.23533274979922561 0.77093399389351469 0 0.10409951422139101 0.81206782209691231 0 0.23533274979922561 0.77093399389351469 0 0.1082531754723032 0.6875000000007816 0 0.21809253452218619 0.65480892822618109 0 0.24418615484441761 0.35773612382016978 0 0.121259140952891 0.43112117036853742 0 0.1082531754734323 0.31250000000117473 0 0.75000000000057243 0.35048094716480432 0 0.88173731489851925 0.33077402607778361 0 0.81242894672211508 0.45500248311961472 0 0.121259140952891 0.43112117036853742 0 0.24418615484441761 0.35773612382016978 0 0.22257735880419699 0.47344721641341742 0 0.81242894672211508 0.45500248311961472 0 0.88173731489851925 0.33077402607778361 0 0.915464298762109 0.43749999999886913 0 0 0.62500000000121547 0 0 0.50000000000206146 0 0.1371230538040123 0.56179824718362847 0 0.82212678063041267 0.67678595194836966 0 0.89051480781310632 0.79665793440246835 0 0.76243180583607129 0.78687675331113149 0 0.76243180583607129 0.78687675331113149 0 0.69010814643829166 0.89298495739101336 0 0.62844955668446423 0.7850749770380413 0 0.89051480781310632 0.79665793440246835 0 0.82212678063041267 0.67678595194836966 0 0.92266244547590082 0.68749999999917555 0 0 0.50000000000206146 0 0.121259140952891 0.43112117036853742 0 0.1371230538040123 0.56179824718362847 0 0.1082531754723032 0.6875000000007816 0 0 0.62500000000121547 0 0.1371230538040123 0.56179824718362847 0 0.75000000000032374 0.56698729811007709 0 0.88927506082488361 0.56409486310635837 0 0.82212678063041267 0.67678595194836966 0 0.81242894672211508 0.45500248311961472 0 0.88927506082488361 0.56409486310635837 0 0.75000000000032374 0.56698729811007709 0 0.69851598570178741 0.68211701800612057 0 0.56496004948275869 0.67675037307860475 0 0.62752533658682441 0.56838075195614346 0 0.69851598570178741 0.68211701800612057 0 0.76243180583607129 0.78687675331113149 0 0.62844955668446423 0.7850749770380413 0 0.23533274979922561 0.77093399389351469 0 0.18802967116092181 0.89415349436770275 0 0.10409951422139101 0.81206782209691231 0 0.121259140952891 0.43112117036853742 0 0.22257735880419699 0.47344721641341742 0 0.1371230538040123 0.56179824718362847 0 0.75000000000032374 0.56698729811007709 0 0.69851598570178741 0.68211701800612057 0 0.62752533658682441 0.56838075195614346 0 0.56496004948275869 0.67675037307860475 0 0.69851598570178741 0.68211701800612057 0 0.62844955668446423 0.7850749770380413 0 0.1371230538040123 0.56179824718362847 0 0.22257735880419699 0.47344721641341742 0 0.26982811998763367 0.56544650815856912 0 0.21809253452218619 0.65480892822618109 0 0.1371230538040123 0.56179824718362847 0 0.26982811998763367 0.56544650815856912 0 0.24418615484441761 0.35773612382016978 0 0.1082531754734323 0.31250000000117473 0 0.20767261601459541 0.25628918442207171 0 0.88173731489851925 0.33077402607778361 0 0.75000000000057243 0.35048094716480432 0 0.79891106056046712 0.25007334953587562 0 0.75000000000032374 0.56698729811007709 0 0.82212678063041267 0.67678595194836966 0 0.69851598570178741 0.68211701800612057 0 0.81249999999950517 0.1082531754733404 0 0.89658421694297741 0.1933620068391701 0 0.79891106056046712 0.25007334953587562 0 0.81249999999950517 0.1082531754733404 0 0.79891106056046712 0.25007334953587562 0 0.73983916756365475 0.17530677078674589 0 0.23533274979922561 0.77093399389351469 0 0.21809253452218619 0.65480892822618109 0 0.32607333794064219 0.67760114260606152 0 0.1082531754723032 0.6875000000007816 0 0.1371230538040123 0.56179824718362847 0 0.21809253452218619 0.65480892822618109 0 0.69851598570178741 0.68211701800612057 0 0.82212678063041267 0.67678595194836966 0 0.76243180583607129 0.78687675331113149 0 0.69010814643829166 0.89298495739101336 0 0.76243180583607129 0.78687675331113149 0 0.80886664387416207 0.89717308644237903 0 0.43750000000181222 0.89174682452709564 0 0.31258827852827581 0.89214793616708443 0 0.37776173212361452 0.78514649317305008 0 0.43750000000181222 0.89174682452709564 0 0.37500000000156292 1 0 0.31258827852827581 0.89214793616708443 0 0.121259140952891 0.43112117036853742 0 0 0.37500000000156292 0 0.1082531754734323 0.31250000000117473 0 0.50000000000206146 1 0 0.37500000000156292 1 0 0.43750000000181222 0.89174682452709564 0 0.31258827852827581 0.89214793616708443 0 0.18802967116092181 0.89415349436770275 0 0.23533274979922561 0.77093399389351469 0 0 0.50000000000206146 0 0 0.37500000000156292 0 0.121259140952891 0.43112117036853742 0 0.62844955668446423 0.7850749770380413 0 0.69010814643829166 0.89298495739101336 0 0.56327595140699671 0.89211526915426331 0 0.69010814643829166 0.89298495739101336 0 0.62500000000121547 1 0 0.56327595140699671 0.89211526915426331 0 0.25000000000104189 1 0 0.18802967116092181 0.89415349436770275 0 0.31258827852827581 0.89214793616708443 0 0.50000000000206146 1 0 0.43750000000181222 0.89174682452709564 0 0.56327595140699671 0.89211526915426331 0 0.56249999999885147 0.1082531754730395 0 0.62499999999901068 0 0 0.68749999999926592 0.1082531754732875 0 1 0.49999999999869221 0 1 0.62499999999901068 0 0.88927506082488361 0.56409486310635837 0 0 0.25000000000104189 0 0.12076953676380731 0.18690935762408761 0 0.1082531754734323 0.31250000000117473 0 0.49999999999869221 0 0 0.62499999999901068 0 0 0.56249999999885147 0.1082531754730395 0 0.62500000000121547 1 0 0.50000000000206146 1 0 0.56327595140699671 0.89211526915426331 0 0.37500000000156292 1 0 0.25000000000104189 1 0 0.31258827852827581 0.89214793616708443 0 0.31281086598417152 0.10449318608631281 0 0.37499999999904599 0 0 0.43749999999910871 0.1082531754729984 0 0.43750000000181222 0.89174682452709564 0 0.37776173212361452 0.78514649317305008 0 0.50046028868828263 0.78376912307435687 0 0 0.37500000000156292 0 0 0.25000000000104189 0 0.1082531754734323 0.31250000000117473 0 0.49999999999869221 0 0 0.56249999999885147 0.1082531754730395 0 0.43749999999910871 0.1082531754729984 0 0.43750000000181222 0.89174682452709564 0 0.50046028868828263 0.78376912307435687 0 0.56327595140699671 0.89211526915426331 0 0.74999999999934042 0 0 0.81249999999950517 0.1082531754733404 0 0.68749999999926592 0.1082531754732875 0 0.37499999999904599 0 0 0.49999999999869221 0 0 0.43749999999910871 0.1082531754729984 0 0.25000000000104189 1 0 0.12500000000052089 1 0 0.18802967116092181 0.89415349436770275 0 0.50046028868828263 0.78376912307435687 0 0.62844955668446423 0.7850749770380413 0 0.56327595140699671 0.89211526915426331 0 0.37776173212361452 0.78514649317305008 0 0.31258827852827581 0.89214793616708443 0 0.23533274979922561 0.77093399389351469 0 0.62499999999901068 0 0 0.74999999999934042 0 0 0.68749999999926592 0.1082531754732875 0 1 0.74999999999934042 0 1 0.87499999999967015 0 0.89051480781310632 0.79665793440246835 0 0 0.25000000000104189 0 0 0.12500000000052089 0 0.12076953676380731 0.18690935762408761 0 0.74999999999934042 0 0 0.87499999999967015 0 0 0.81249999999950517 0.1082531754733404 0 0.24999999999941069 0 0 0.37499999999904599 0 0 0.31281086598417152 0.10449318608631281 0 0.50046028868828263 0.78376912307435687 0 0.37776173212361452 0.78514649317305008 0 0.44078402250377968 0.67714785211715212 0 0.68768773896438518 0.4586835206367198 0 0.75000000000032374 0.56698729811007709 0 0.62752533658682441 0.56838075195614346 0 0.31411863959822661 0.24965544328045999 0 0.37953773393552892 0.34812185820708452 0 0.24418615484441761 0.35773612382016978 0 0.68768773896438518 0.4586835206367198 0 0.81242894672211508 0.45500248311961472 0 0.75000000000032374 0.56698729811007709 0 1 0.24999999999941069 0 1 0.37499999999904599 0 0.88173731489851925 0.33077402607778361 0 0 0.75000000000034761 0 0 0.62500000000121547 0 0.1082531754723032 0.6875000000007816 0 0.50048844149666749 0.56727788297625459 0 0.44078402250377968 0.67714785211715212 0 0.38694285807596462 0.5672991787102919 0 0.50108503093851109 0.35012252869403671 0 0.44301038174930041 0.45684931552185398 0 0.37953773393552892 0.34812185820708452 0 0.50046028868828263 0.78376912307435687 0 0.56496004948275869 0.67675037307860475 0 0.62844955668446423 0.7850749770380413 0 0.68768773896438518 0.4586835206367198 0 0.75000000000057243 0.35048094716480432 0 0.81242894672211508 0.45500248311961472 0 0.56349980387502452 0.45846841892908402 0 0.62512662990940393 0.35044303886909911 0 0.68768773896438518 0.4586835206367198 0 0.50048844149666749 0.56727788297625459 0 0.38694285807596462 0.5672991787102919 0 0.44301038174930041 0.45684931552185398 0 0.50046028868828263 0.78376912307435687 0 0.44078402250377968 0.67714785211715212 0 0.56496004948275869 0.67675037307860475 0 0.50108503093851109 0.35012252869403671 0 0.37953773393552892 0.34812185820708452 0 0.43750000000200551 0.24222777169198509 0 0.75000000000034761 1 0 0.62500000000121547 1 0 0.69010814643829166 0.89298495739101336 0 0.68768773896438518 0.4586835206367198 0 0.62512662990940393 0.35044303886909911 0 0.75000000000057243 0.35048094716480432 0 0.56496004948275869 0.67675037307860475 0 0.44078402250377968 0.67714785211715212 0 0.50048844149666749 0.56727788297625459 0 0.56349980387502452 0.45846841892908402 0 0.44301038174930041 0.45684931552185398 0 0.50108503093851109 0.35012252869403671 0 0.50048844149666749 0.56727788297625459 0 0.44301038174930041 0.45684931552185398 0 0.56349980387502452 0.45846841892908402 0 0.56349980387502452 0.45846841892908402 0 0.50108503093851109 0.35012252869403671 0 0.62512662990940393 0.35044303886909911 0 0.43750000000200551 0.24222777169198509 0 0.37953773393552892 0.34812185820708452 0 0.31411863959822661 0.24965544328045999 0 0.56496004948275869 0.67675037307860475 0 0.50048844149666749 0.56727788297625459 0 0.62752533658682441 0.56838075195614346 0 0.56349980387502452 0.45846841892908402 0 0.68768773896438518 0.4586835206367198 0 0.62752533658682441 0.56838075195614346 0 0.50048844149666749 0.56727788297625459 0 0.56349980387502452 0.45846841892908402 0 0.62752533658682441 0.56838075195614346 0 0.75000000000057243 0.35048094716480432 0 0.62512662990940393 0.35044303886909911 0 0.68668231842078242 0.24762892664808989 0 0.50108503093851109 0.35012252869403671 0 0.43750000000200551 0.24222777169198509 0 0.56250000000143974 0.2422277716920859 0 0.62512662990940393 0.35044303886909911 0 0.50108503093851109 0.35012252869403671 0 0.56250000000143974 0.2422277716920859 0 0.68668231842078242 0.24762892664808989 0 0.62512662990940393 0.35044303886909911 0 0.56250000000143974 0.2422277716920859 0 0.22257735880419699 0.47344721641341742 0 0.24418615484441761 0.35773612382016978 0 0.32815957677880009 0.4577243358118348 0 0.12076953676380731 0.18690935762408761 0 0.19185372118111221 0.092925648673580788 0 0.25103557339309318 0.17464499738446629 0 0.20767261601459541 0.25628918442207171 0 0.12076953676380731 0.18690935762408761 0 0.25103557339309318 0.17464499738446629 0 0 0.87499999999950151 0 0 0.75000000000034761 0 0.10409951422139101 0.81206782209691231 0 0.1249999999997731 0 0 0.24999999999941069 0 0 0.19185372118111221 0.092925648673580788 0 1 0.1249999999997731 0 1 0.24999999999941069 0 0.89658421694297741 0.1933620068391701 0 0.88927506082488361 0.56409486310635837 0 0.81242894672211508 0.45500248311961472 0 0.915464298762109 0.43749999999886913 0 0.87499999999950151 1 0 0.75000000000034761 1 0 0.80886664387416207 0.89717308644237903 0 0.75000000000034761 1 0 0.69010814643829166 0.89298495739101336 0 0.80886664387416207 0.89717308644237903 0 0.82212678063041267 0.67678595194836966 0 0.88927506082488361 0.56409486310635837 0 0.92266244547590082 0.68749999999917555 0 0 0.75000000000034761 0 0.1082531754723032 0.6875000000007816 0 0.10409951422139101 0.81206782209691231 0 0.24999999999941069 0 0 0.31281086598417152 0.10449318608631281 0 0.19185372118111221 0.092925648673580788 0 1 0.24999999999941069 0 0.88173731489851925 0.33077402607778361 0 0.89658421694297741 0.1933620068391701 0 0.32815957677880009 0.4577243358118348 0 0.38694285807596462 0.5672991787102919 0 0.26982811998763367 0.56544650815856912 0 0.76243180583607129 0.78687675331113149 0 0.89051480781310632 0.79665793440246835 0 0.80886664387416207 0.89717308644237903 0 0.38694285807596462 0.5672991787102919 0 0.44078402250377968 0.67714785211715212 0 0.32607333794064219 0.67760114260606152 0 0.37776173212361452 0.78514649317305008 0 0.23533274979922561 0.77093399389351469 0 0.32607333794064219 0.67760114260606152 0 1 0.49999999999869221 0 0.88927506082488361 0.56409486310635837 0 0.915464298762109 0.43749999999886913 0 0.88173731489851925 0.33077402607778361 0 1 0.37499999999904599 0 0.915464298762109 0.43749999999886913 0 0.24418615484441761 0.35773612382016978 0 0.37953773393552892 0.34812185820708452 0 0.32815957677880009 0.4577243358118348 0 0.44301038174930041 0.45684931552185398 0 0.38694285807596462 0.5672991787102919 0 0.32815957677880009 0.4577243358118348 0 0.88927506082488361 0.56409486310635837 0 1 0.62499999999901068 0 0.92266244547590082 0.68749999999917555 0 1 0.74999999999934042 0 0.89051480781310632 0.79665793440246835 0 0.92266244547590082 0.68749999999917555 0 0 1 0 0 0.87499999999950151 0 0.091506350946494744 0.90849364905351082 0 1 1 0 0.87499999999950151 1 0 0.90849364905363228 0.90849364905367769 0 0 0 0 0.1249999999997731 0 0 0.091506350946417708 0.091506350946618076 0 0 0.12500000000052089 0 0 0 0 0.091506350946417708 0.091506350946618076 0 1 0 0 1 0.1249999999997731 0 0.90849364905355434 0.091506350946296292 0 0.87499999999967015 0 0 1 0 0 0.90849364905355434 0.091506350946296292 0 0.12500000000052089 1 0 0 1 0 0.091506350946494744 0.90849364905351082 0 1 0.87499999999967015 0 1 1 0 0.90849364905363228 0.90849364905367769 0 0.38694285807596462 0.5672991787102919 0 0.32607333794064219 0.67760114260606152 0 0.26982811998763367 0.56544650815856912 0 0.31411863959822661 0.24965544328045999 0 0.24418615484441761 0.35773612382016978 0 0.20767261601459541 0.25628918442207171 0 0.1082531754734323 0.31250000000117473 0 0.12076953676380731 0.18690935762408761 0 0.20767261601459541 0.25628918442207171 0 0.75000000000057243 0.35048094716480432 0 0.68668231842078242 0.24762892664808989 0 0.79891106056046712 0.25007334953587562 0 0.22257735880419699 0.47344721641341742 0 0.32815957677880009 0.4577243358118348 0 0.26982811998763367 0.56544650815856912 0 0.44078402250377968 0.67714785211715212 0 0.37776173212361452 0.78514649317305008 0 0.32607333794064219 0.67760114260606152 0 0.89658421694297741 0.1933620068391701 0 0.88173731489851925 0.33077402607778361 0 0.79891106056046712 0.25007334953587562 0 1 0.37499999999904599 0 1 0.49999999999869221 0 0.915464298762109 0.43749999999886913 0 0.37953773393552892 0.34812185820708452 0 0.44301038174930041 0.45684931552185398 0 0.32815957677880009 0.4577243358118348 0 0.32607333794064219 0.67760114260606152 0 0.21809253452218619 0.65480892822618109 0 0.26982811998763367 0.56544650815856912 0 1 0.1249999999997731 0 0.89658421694297741 0.1933620068391701 0 0.90849364905355434 0.091506350946296292 0 0 0.87499999999950151 0 0.10409951422139101 0.81206782209691231 0 0.091506350946494744 0.90849364905351082 0 0.1249999999997731 0 0 0.19185372118111221 0.092925648673580788 0 0.091506350946417708 0.091506350946618076 0 1 0.62499999999901068 0 1 0.74999999999934042 0 0.92266244547590082 0.68749999999917555 0 0.18802967116092181 0.89415349436770275 0 0.12500000000052089 1 0 0.091506350946494744 0.90849364905351082 0 0.89051480781310632 0.79665793440246835 0 1 0.87499999999967015 0 0.90849364905363228 0.90849364905367769 0 0.12076953676380731 0.18690935762408761 0 0 0.12500000000052089 0 0.091506350946417708 0.091506350946618076 0 0.81249999999950517 0.1082531754733404 0 0.87499999999967015 0 0 0.90849364905355434 0.091506350946296292 0 0.87499999999950151 1 0 0.80886664387416207 0.89717308644237903 0 0.90849364905363228 0.90849364905367769 0 0.68668231842078242 0.24762892664808989 0 0.62499999999892575 0.17524047358135519 0 0.73983916756365475 0.17530677078674589 0 0.31281086598417152 0.10449318608631281 0 0.43749999999910871 0.1082531754729984 0 0.37500000000232431 0.17524047358384309 0 0.62499999999892575 0.17524047358135519 0 0.56250000000143974 0.2422277716920859 0 0.49999999999934441 0.1752404735815076 0 0.56249999999885147 0.1082531754730395 0 0.68749999999926592 0.1082531754732875 0 0.62499999999892575 0.17524047358135519 0 0.56249999999885147 0.1082531754730395 0 0.62499999999892575 0.17524047358135519 0 0.49999999999934441 0.1752404735815076 0 0.56250000000143974 0.2422277716920859 0 0.43750000000200551 0.24222777169198509 0 0.49999999999934441 0.1752404735815076 0 0.43749999999910871 0.1082531754729984 0 0.56249999999885147 0.1082531754730395 0 0.49999999999934441 0.1752404735815076 0 0.68668231842078242 0.24762892664808989 0 0.56250000000143974 0.2422277716920859 0 0.62499999999892575 0.17524047358135519 0 0.43750000000200551 0.24222777169198509 0 0.31411863959822661 0.24965544328045999 0 0.37500000000232431 0.17524047358384309 0 0.49999999999934441 0.1752404735815076 0 0.43750000000200551 0.24222777169198509 0 0.37500000000232431 0.17524047358384309 0 0.43749999999910871 0.1082531754729984 0 0.49999999999934441 0.1752404735815076 0 0.37500000000232431 0.17524047358384309 0 0.62499999999892575 0.17524047358135519 0 0.68749999999926592 0.1082531754732875 0 0.73983916756365475 0.17530677078674589 0 0.68749999999926592 0.1082531754732875 0 0.81249999999950517 0.1082531754733404 0 0.73983916756365475 0.17530677078674589 0 0.10409951422139101 0.81206782209691231 0 0.18802967116092181 0.89415349436770275 0 0.091506350946494744 0.90849364905351082 0 0.89658421694297741 0.1933620068391701 0 0.81249999999950517 0.1082531754733404 0 0.90849364905355434 0.091506350946296292 0 0.19185372118111221 0.092925648673580788 0 0.12076953676380731 0.18690935762408761 0 0.091506350946417708 0.091506350946618076 0 0.37500000000232431 0.17524047358384309 0 0.31411863959822661 0.24965544328045999 0 0.25103557339309318 0.17464499738446629 0 0.31281086598417152 0.10449318608631281 0 0.37500000000232431 0.17524047358384309 0 0.25103557339309318 0.17464499738446629 0 0.80886664387416207 0.89717308644237903 0 0.89051480781310632 0.79665793440246835 0 0.90849364905363228 0.90849364905367769 0 0.19185372118111221 0.092925648673580788 0 0.31281086598417152 0.10449318608631281 0 0.25103557339309318 0.17464499738446629 0 0.79891106056046712 0.25007334953587562 0 0.68668231842078242 0.24762892664808989 0 0.73983916756365475 0.17530677078674589 0 0.31411863959822661 0.24965544328045999 0 0.20767261601459541 0.25628918442207171 0 0.25103557339309318 0.17464499738446629 0 

        </DataArray>

      </Points>

      <Cells>

        <DataArray type="Int32" Name="connectivity" format="ascii">

0 1 2 3 4 5 6 7 8 9 10 11 12 13 14 15 16 17 18 19 20 21 22 23 24 25 26 27 28 29 30 31 32 33 34 35 36 37 38 39 40 41 42 43 44 45 46 47 48 49 50 51 52 53 54 55 56 57 58 59 60 61 62 63 64 65 66 67 68 69 70 71 72 73 74 75 76 77 78 79 80 81 82 83 84 85 86 87 88 89 90 91 92 93 94 95 96 97 98 99 100 101 102 103 104 105 106 107 108 109 110 111 112 113 114 115 116 117 118 119 120 121 122 123 124 125 126 127 128 129 130 131 132 133 134 135 136 137 138 139 140 141 142 143 144 145 146 147 148 149 150 151 152 153 154 155 156 157 158 159 160 161 162 163 164 165 166 167 168 169 170 171 172 173 174 175 176 177 178 179 180 181 182 183 184 185 186 187 188 189 190 191 192 193 194 195 196 197 198 199 200 201 202 203 204 205 206 207 208 209 210 211 212 213 214 215 216 217 218 219 220 221 222 223 224 225 226 227 228 229 230 231 232 233 234 235 236 237 238 239 240 241 242 243 244 245 246 247 248 249 250 251 252 253 254 255 256 257 258 259 260 261 262 263 264 265 266 267 268 269 270 271 272 273 274 275 276 277 278 279 280 281 282 283 284 285 286 287 288 289 290 291 292 293 294 295 296 297 298 299 300 301 302 303 304 305 306 307 308 309 310 311 312 313 314 315 316 317 318 319 320 321 322 323 324 325 326 327 328 329 330 331 332 333 334 335 336 337 338 339 340 341 342 343 344 345 346 347 348 349 350 351 352 353 354 355 356 357 358 359 360 361 362 363 364 365 366 367 368 369 370 371 372 373 374 375 376 377 378 379 380 381 382 383 384 385 386 387 388 389 390 391 392 393 394 395 396 397 398 399 400 401 402 403 404 405 406 407 408 409 410 411 412 413 414 415 416 417 418 419 420 421 422 423 424 425 426 427 428 429 430 431 432 433 434 435 436 437 438 439 440 441 442 443 444 445 446 447 448 449 450 451 452 453 454 455 456 457 458 459 460 461 462 463 464 465 466 467 468 469 470 471 472 473 474 475 476 477 478 479 480 481 482 483 484 485 

        </DataArray>

        <DataArray type="Int32" Name="offsets" format="ascii">

3 6 9 12 15 18 21 24 27 30 33 36 39 42 45 48 51 54 57 60 63 66 69 72 75 78 81 84 87 90 93 96 99 102 105 108 111 114 117 120 123 126 129 132 135 138 141 144 147 150 153 156 159 162 165 168 171 174 177 180 183 186 189 192 195 198 201 204 207 210 213 216 219 222 225 228 231 234 237 240 243 246 249 252 255 258 261 264 267 270 273 276 279 282 285 288 291 294 297 300 303 306 309 312 315 318 321 324 327 330 333 336 339 342 345 348 351 354 357 360 363 366 369 372 375 378 381 384 387 390 393 396 399 402 405 408 411 414 417 420 423 426 429 432 435 438 441 444 447 450 453 456 459 462 465 468 471 474 477 480 483 486 

        </DataArray>

        <DataArray type="Int32" Name="types" format="ascii">

5 5 5 5 5 5 5 5 5 5 5 5 5 5 5 5 5 5 5 5 5 5 5 5 5 5 5 5 5 5 5 5 5 5 5 5 5 5 5 5 5 5 5 5 5 5 5 5 5 5 5 5 5 5 5 5 5 5 5 5 5 5 5 5 5 5 5 5 5 5 5 5 5 5 5 5 5 5 5 5 5 5 5 5 5 5 5 5 5 5 5 5 5 5 5 5 5 5 5 5 5 5 5 5 5 5 5 5 5 5 5 5 5 5 5 5 5 5 5 5 5 5 5 5 5 5 5 5 5 5 5 5 5 5 5 5 5 5 5 5 5 5 5 5 5 5 5 5 5 5 5 5 5 5 5 5 5 5 5 5 5 5 

        </DataArray>

      </Cells>

    </Piece>

  </UnstructuredGrid>

</VTKFile>

