<?xml version="1.0"?>

<VTKFile type="UnstructuredGrid" version="0.1">

  <UnstructuredGrid>

    <Piece NumberOfPoints="486" NumberOfCells="162">

      <PointData>

        <DataArray type="Float64" Name="K" format="ascii">

9.80733811343505013e-01
9.80733811343505013e-01
9.80733811343505013e-01
1.01043549572851621e+00
1.01043549572851621e+00
1.01043549572851621e+00
1.05072012785524738e+00
1.05072012785524738e+00
1.05072012785524738e+00
1.04176208912724189e+00
1.04176208912724189e+00
1.04176208912724189e+00
1.04476586958676720e+00
1.04476586958676720e+00
1.04476586958676720e+00
1.03058026035403749e+00
1.03058026035403749e+00
1.03058026035403749e+00
1.01510160832675522e+00
1.01510160832675522e+00
1.01510160832675522e+00
9.53521202358817876e-01
9.53521202358817876e-01
9.53521202358817876e-01
9.84518318796873459e-01
9.84518318796873459e-01
9.84518318796873459e-01
9.59677158660846130e-01
9.59677158660846130e-01
9.59677158660846130e-01
1.04852194830290468e+00
1.04852194830290468e+00
1.04852194830290468e+00
1.00816042997089150e+00
1.00816042997089150e+00
1.00816042997089150e+00
9.55821405735275520e-01
9.55821405735275520e-01
9.55821405735275520e-01
9.82595554467725729e-01
9.82595554467725729e-01
9.82595554467725729e-01
1.01446951823003761e+00
1.01446951823003761e+00
1.01446951823003761e+00
9.65125556310453825e-01
9.65125556310453825e-01
9.65125556310453825e-01
9.58650242966454957e-01
9.58650242966454957e-01
9.58650242966454957e-01
1.06244795323088037e+00
1.06244795323088037e+00
1.06244795323088037e+00
9.82986411301762342e-01
9.82986411301762342e-01
9.82986411301762342e-01
1.00004586167732712e+00
1.00004586167732712e+00
1.00004586167732712e+00
1.05595541288233008e+00
1.05595541288233008e+00
1.05595541288233008e+00
1.04906388155260344e+00
1.04906388155260344e+00
1.04906388155260344e+00
1.02079549592971675e+00
1.02079549592971675e+00
1.02079549592971675e+00
1.04916436274021474e+00
1.04916436274021474e+00
1.04916436274021474e+00
9.46509232963355096e-01
9.46509232963355096e-01
9.46509232963355096e-01
1.02441405882464398e+00
1.02441405882464398e+00
1.02441405882464398e+00
1.00867668171552038e+00
1.00867668171552038e+00
1.00867668171552038e+00
9.96149300269753901e-01
9.96149300269753901e-01
9.96149300269753901e-01
1.03528368001120175e+00
1.03528368001120175e+00
1.03528368001120175e+00
9.41574992856124560e-01
9.41574992856124560e-01
9.41574992856124560e-01
9.88572577988596546e-01
9.88572577988596546e-01
9.88572577988596546e-01
9.36698776434580660e-01
9.36698776434580660e-01
9.36698776434580660e-01
9.39548594769150869e-01
9.39548594769150869e-01
9.39548594769150869e-01
1.07009105361819867e+00
1.07009105361819867e+00
1.07009105361819867e+00
9.38228146569353161e-01
9.38228146569353161e-01
9.38228146569353161e-01
9.57193709671724235e-01
9.57193709671724235e-01
9.57193709671724235e-01
1.05568938810743007e+00
1.05568938810743007e+00
1.05568938810743007e+00
1.00814518156517208e+00
1.00814518156517208e+00
1.00814518156517208e+00
1.03094793124459683e+00
1.03094793124459683e+00
1.03094793124459683e+00
9.60164807264898168e-01
9.60164807264898168e-01
9.60164807264898168e-01
9.61228687052062547e-01
9.61228687052062547e-01
9.61228687052062547e-01
9.55105856293900102e-01
9.55105856293900102e-01
9.55105856293900102e-01
9.68098501114692089e-01
9.68098501114692089e-01
9.68098501114692089e-01
1.07571995788918251e+00
1.07571995788918251e+00
1.07571995788918251e+00
9.77526081105112188e-01
9.77526081105112188e-01
9.77526081105112188e-01
1.00714623434886552e+00
1.00714623434886552e+00
1.00714623434886552e+00
9.62554960561603834e-01
9.62554960561603834e-01
9.62554960561603834e-01
9.51067716186756451e-01
9.51067716186756451e-01
9.51067716186756451e-01
9.48745423826878431e-01
9.48745423826878431e-01
9.48745423826878431e-01
1.07595032361742993e+00
1.07595032361742993e+00
1.07595032361742993e+00
9.81267165581414580e-01
9.81267165581414580e-01
9.81267165581414580e-01
9.67641181630584879e-01
9.67641181630584879e-01
9.67641181630584879e-01
9.66762560191483988e-01
9.66762560191483988e-01
9.66762560191483988e-01
9.85977767515155978e-01
9.85977767515155978e-01
9.85977767515155978e-01
9.55094107827709204e-01
9.55094107827709204e-01
9.55094107827709204e-01
9.98616887199433534e-01
9.98616887199433534e-01
9.98616887199433534e-01
9.50204466971426021e-01
9.50204466971426021e-01
9.50204466971426021e-01
9.60613561915630632e-01
9.60613561915630632e-01
9.60613561915630632e-01
9.87030373125134863e-01
9.87030373125134863e-01
9.87030373125134863e-01
1.07101054255614114e+00
1.07101054255614114e+00
1.07101054255614114e+00
9.60205986737254547e-01
9.60205986737254547e-01
9.60205986737254547e-01
9.50776196177529509e-01
9.50776196177529509e-01
9.50776196177529509e-01
9.66513643329891758e-01
9.66513643329891758e-01
9.66513643329891758e-01
1.00611500703838885e+00
1.00611500703838885e+00
1.00611500703838885e+00
9.49779290581491242e-01
9.49779290581491242e-01
9.49779290581491242e-01
1.00016619008168695e+00
1.00016619008168695e+00
1.00016619008168695e+00
1.02626173106504037e+00
1.02626173106504037e+00
1.02626173106504037e+00
9.68071007853960719e-01
9.68071007853960719e-01
9.68071007853960719e-01
1.00418659394812981e+00
1.00418659394812981e+00
1.00418659394812981e+00
9.95022236505731072e-01
9.95022236505731072e-01
9.95022236505731072e-01
1.01165270588335909e+00
1.01165270588335909e+00
1.01165270588335909e+00
1.02316821399940050e+00
1.02316821399940050e+00
1.02316821399940050e+00
1.02718334838471148e+00
1.02718334838471148e+00
1.02718334838471148e+00
1.01208223141128628e+00
1.01208223141128628e+00
1.01208223141128628e+00
1.00737251241543557e+00
1.00737251241543557e+00
1.00737251241543557e+00
9.77755055393419004e-01
9.77755055393419004e-01
9.77755055393419004e-01
1.05329900898423645e+00
1.05329900898423645e+00
1.05329900898423645e+00
1.01805094440888388e+00
1.01805094440888388e+00
1.01805094440888388e+00
1.02774168959280043e+00
1.02774168959280043e+00
1.02774168959280043e+00
1.02412755777882958e+00
1.02412755777882958e+00
1.02412755777882958e+00
1.03755957414672761e+00
1.03755957414672761e+00
1.03755957414672761e+00
1.02039167199992953e+00
1.02039167199992953e+00
1.02039167199992953e+00
9.45039798187057634e-01
9.45039798187057634e-01
9.45039798187057634e-01
1.04746731927592918e+00
1.04746731927592918e+00
1.04746731927592918e+00
1.03723970785097741e+00
1.03723970785097741e+00
1.03723970785097741e+00
1.05265792606894992e+00
1.05265792606894992e+00
1.05265792606894992e+00
1.00276152789121409e+00
1.00276152789121409e+00
1.00276152789121409e+00
9.84616724845141733e-01
9.84616724845141733e-01
9.84616724845141733e-01
9.93605934744102859e-01
9.93605934744102859e-01
9.93605934744102859e-01
9.77619873832549002e-01
9.77619873832549002e-01
9.77619873832549002e-01
1.01221410016662183e+00
1.01221410016662183e+00
1.01221410016662183e+00
9.98792174254098719e-01
9.98792174254098719e-01
9.98792174254098719e-01
9.97026501335966042e-01
9.97026501335966042e-01
9.97026501335966042e-01
9.42537057473782469e-01
9.42537057473782469e-01
9.42537057473782469e-01
9.97996698163435725e-01
9.97996698163435725e-01
9.97996698163435725e-01
1.00751489004488493e+00
1.00751489004488493e+00
1.00751489004488493e+00
1.00133593359569217e+00
1.00133593359569217e+00
1.00133593359569217e+00
1.02995583740524532e+00
1.02995583740524532e+00
1.02995583740524532e+00
1.02489769175841539e+00
1.02489769175841539e+00
1.02489769175841539e+00
9.57796468350589181e-01
9.57796468350589181e-01
9.57796468350589181e-01
9.60192731613934924e-01
9.60192731613934924e-01
9.60192731613934924e-01
9.54321114108005908e-01
9.54321114108005908e-01
9.54321114108005908e-01
1.03143041335279673e+00
1.03143041335279673e+00
1.03143041335279673e+00
1.00110468888886572e+00
1.00110468888886572e+00
1.00110468888886572e+00
9.75567043036123183e-01
9.75567043036123183e-01
9.75567043036123183e-01
9.77138157516981853e-01
9.77138157516981853e-01
9.77138157516981853e-01
9.61905461871023659e-01
9.61905461871023659e-01
9.61905461871023659e-01
9.89333879852473785e-01
9.89333879852473785e-01
9.89333879852473785e-01
1.02397506748222278e+00
1.02397506748222278e+00
1.02397506748222278e+00
9.76027588814162073e-01
9.76027588814162073e-01
9.76027588814162073e-01
9.93876637494712334e-01
9.93876637494712334e-01
9.93876637494712334e-01
9.60903575339845051e-01
9.60903575339845051e-01
9.60903575339845051e-01
9.68602435663074579e-01
9.68602435663074579e-01
9.68602435663074579e-01
9.49447697495934717e-01
9.49447697495934717e-01
9.49447697495934717e-01
1.04691512075429261e+00
1.04691512075429261e+00
1.04691512075429261e+00
1.05058087972716985e+00
1.05058087972716985e+00
1.05058087972716985e+00
1.05281766356490158e+00
1.05281766356490158e+00
1.05281766356490158e+00
9.58425952129935421e-01
9.58425952129935421e-01
9.58425952129935421e-01
9.36326534267126420e-01
9.36326534267126420e-01
9.36326534267126420e-01
9.46864152932127667e-01
9.46864152932127667e-01
9.46864152932127667e-01
1.03923113093938158e+00
1.03923113093938158e+00
1.03923113093938158e+00
9.93358959794192864e-01
9.93358959794192864e-01
9.93358959794192864e-01
9.61605863678263839e-01
9.61605863678263839e-01
9.61605863678263839e-01
1.04420188272911751e+00
1.04420188272911751e+00
1.04420188272911751e+00
1.02081961771149654e+00
1.02081961771149654e+00
1.02081961771149654e+00
1.02480874665617860e+00
1.02480874665617860e+00
1.02480874665617860e+00
9.59117012038295247e-01
9.59117012038295247e-01
9.59117012038295247e-01
1.04691765569961825e+00
1.04691765569961825e+00
1.04691765569961825e+00
1.00311249583209428e+00
1.00311249583209428e+00
1.00311249583209428e+00
9.84385358269983968e-01
9.84385358269983968e-01
9.84385358269983968e-01
1.01389883082338672e+00
1.01389883082338672e+00
1.01389883082338672e+00
9.90357780665321097e-01
9.90357780665321097e-01
9.90357780665321097e-01
9.38026676781048563e-01
9.38026676781048563e-01
9.38026676781048563e-01
1.03465224219818475e+00
1.03465224219818475e+00
1.03465224219818475e+00
9.55539289747714293e-01
9.55539289747714293e-01
9.55539289747714293e-01
9.38732950008604794e-01
9.38732950008604794e-01
9.38732950008604794e-01
1.00682489431763522e+00
1.00682489431763522e+00
1.00682489431763522e+00
1.06601924684985683e+00
1.06601924684985683e+00
1.06601924684985683e+00
9.65114330002615928e-01
9.65114330002615928e-01
9.65114330002615928e-01
1.02254150947044642e+00
1.02254150947044642e+00
1.02254150947044642e+00
9.65771404268868761e-01
9.65771404268868761e-01
9.65771404268868761e-01
9.34758934921516071e-01
9.34758934921516071e-01
9.34758934921516071e-01
9.63283015414911681e-01
9.63283015414911681e-01
9.63283015414911681e-01
9.48572477273582071e-01
9.48572477273582071e-01
9.48572477273582071e-01
9.60523941260530978e-01
9.60523941260530978e-01
9.60523941260530978e-01
9.74037513133121924e-01
9.74037513133121924e-01
9.74037513133121924e-01
9.72243870791739573e-01
9.72243870791739573e-01
9.72243870791739573e-01
9.59366209934275016e-01
9.59366209934275016e-01
9.59366209934275016e-01
9.33071170687648332e-01
9.33071170687648332e-01
9.33071170687648332e-01
9.58683726826048743e-01
9.58683726826048743e-01
9.58683726826048743e-01
9.59145271480178141e-01
9.59145271480178141e-01
9.59145271480178141e-01
9.56556024519291559e-01
9.56556024519291559e-01
9.56556024519291559e-01
9.77190846070743024e-01
9.77190846070743024e-01
9.77190846070743024e-01
9.39860899424909468e-01
9.39860899424909468e-01
9.39860899424909468e-01
9.98372253411232480e-01
9.98372253411232480e-01
9.98372253411232480e-01
1.04186739318810684e+00
1.04186739318810684e+00
1.04186739318810684e+00
9.18145059052669521e-01
9.18145059052669521e-01
9.18145059052669521e-01
9.18212717165776016e-01
9.18212717165776016e-01
9.18212717165776016e-01
9.99231511263335981e-01
9.99231511263335981e-01
9.99231511263335981e-01
9.44257030688033128e-01
9.44257030688033128e-01
9.44257030688033128e-01
1.00284439040129025e+00
1.00284439040129025e+00
1.00284439040129025e+00
9.43549354068233370e-01
9.43549354068233370e-01
9.43549354068233370e-01


        </DataArray>

      </PointData>

      <CellData/>

      <Points>

        <DataArray type="Float64" NumberOfComponents="3" format="ascii">

0.1082531754723032 0.6875000000007816 0 0.23533274979922561 0.77093399389351469 0 0.10409951422139101 0.81206782209691231 0 0.23533274979922561 0.77093399389351469 0 0.1082531754723032 0.6875000000007816 0 0.21809253452218619 0.65480892822618109 0 0.24418615484441761 0.35773612382016978 0 0.121259140952891 0.43112117036853742 0 0.1082531754734323 0.31250000000117473 0 0.75000000000057243 0.35048094716480432 0 0.88173731489851925 0.33077402607778361 0 0.81242894672211508 0.45500248311961472 0 0.121259140952891 0.43112117036853742 0 0.24418615484441761 0.35773612382016978 0 0.22257735880419699 0.47344721641341742 0 0.81242894672211508 0.45500248311961472 0 0.88173731489851925 0.33077402607778361 0 0.915464298762109 0.43749999999886913 0 0 0.62500000000121547 0 0 0.50000000000206146 0 0.1371230538040123 0.56179824718362847 0 0.82212678063041267 0.67678595194836966 0 0.89051480781310632 0.79665793440246835 0 0.76243180583607129 0.78687675331113149 0 0.76243180583607129 0.78687675331113149 0 0.69010814643829166 0.89298495739101336 0 0.62844955668446423 0.7850749770380413 0 0.89051480781310632 0.79665793440246835 0 0.82212678063041267 0.67678595194836966 0 0.92266244547590082 0.68749999999917555 0 0 0.50000000000206146 0 0.121259140952891 0.43112117036853742 0 0.1371230538040123 0.56179824718362847 0 0.1082531754723032 0.6875000000007816 0 0 0.62500000000121547 0 0.1371230538040123 0.56179824718362847 0 0.75000000000032374 0.56698729811007709 0 0.88927506082488361 0.56409486310635837 0 0.82212678063041267 0.67678595194836966 0 0.81242894672211508 0.45500248311961472 0 0.88927506082488361 0.56409486310635837 0 0.75000000000032374 0.56698729811007709 0 0.69851598570178741 0.68211701800612057 0 0.56496004948275869 0.67675037307860475 0 0.62752533658682441 0.56838075195614346 0 0.69851598570178741 0.68211701800612057 0 0.76243180583607129 0.78687675331113149 0 0.62844955668446423 0.7850749770380413 0 0.23533274979922561 0.77093399389351469 0 0.18802967116092181 0.89415349436770275 0 0.10409951422139101 0.81206782209691231 0 0.121259140952891 0.43112117036853742 0 0.22257735880419699 0.47344721641341742 0 0.1371230538040123 0.56179824718362847 0 0.75000000000032374 0.56698729811007709 0 0.69851598570178741 0.68211701800612057 0 0.62752533658682441 0.56838075195614346 0 0.56496004948275869 0.67675037307860475 0 0.69851598570178741 0.68211701800612057 0 0.62844955668446423 0.7850749770380413 0 0.1371230538040123 0.56179824718362847 0 0.22257735880419699 0.47344721641341742 0 0.26982811998763367 0.56544650815856912 0 0.21809253452218619 0.65480892822618109 0 0.1371230538040123 0.56179824718362847 0 0.26982811998763367 0.56544650815856912 0 0.24418615484441761 0.35773612382016978 0 0.1082531754734323 0.31250000000117473 0 0.20767261601459541 0.25628918442207171 0 0.88173731489851925 0.33077402607778361 0 0.75000000000057243 0.35048094716480432 0 0.79891106056046712 0.25007334953587562 0 0.75000000000032374 0.56698729811007709 0 0.82212678063041267 0.67678595194836966 0 0.69851598570178741 0.68211701800612057 0 0.81249999999950517 0.1082531754733404 0 0.89658421694297741 0.1933620068391701 0 0.79891106056046712 0.25007334953587562 0 0.81249999999950517 0.1082531754733404 0 0.79891106056046712 0.25007334953587562 0 0.73983916756365475 0.17530677078674589 0 0.23533274979922561 0.77093399389351469 0 0.21809253452218619 0.65480892822618109 0 0.32607333794064219 0.67760114260606152 0 0.1082531754723032 0.6875000000007816 0 0.1371230538040123 0.56179824718362847 0 0.21809253452218619 0.65480892822618109 0 0.69851598570178741 0.68211701800612057 0 0.82212678063041267 0.67678595194836966 0 0.76243180583607129 0.78687675331113149 0 0.69010814643829166 0.89298495739101336 0 0.76243180583607129 0.78687675331113149 0 0.80886664387416207 0.89717308644237903 0 0.43750000000181222 0.89174682452709564 0 0.31258827852827581 0.89214793616708443 0 0.37776173212361452 0.78514649317305008 0 0.43750000000181222 0.89174682452709564 0 0.37500000000156292 1 0 0.31258827852827581 0.89214793616708443 0 0.121259140952891 0.43112117036853742 0 0 0.37500000000156292 0 0.1082531754734323 0.31250000000117473 0 0.50000000000206146 1 0 0.37500000000156292 1 0 0.43750000000181222 0.89174682452709564 0 0.31258827852827581 0.89214793616708443 0 0.18802967116092181 0.89415349436770275 0 0.23533274979922561 0.77093399389351469 0 0 0.50000000000206146 0 0 0.37500000000156292 0 0.121259140952891 0.43112117036853742 0 0.62844955668446423 0.7850749770380413 0 0.69010814643829166 0.89298495739101336 0 0.56327595140699671 0.89211526915426331 0 0.69010814643829166 0.89298495739101336 0 0.62500000000121547 1 0 0.56327595140699671 0.89211526915426331 0 0.25000000000104189 1 0 0.18802967116092181 0.89415349436770275 0 0.31258827852827581 0.89214793616708443 0 0.50000000000206146 1 0 0.43750000000181222 0.89174682452709564 0 0.56327595140699671 0.89211526915426331 0 0.56249999999885147 0.1082531754730395 0 0.62499999999901068 0 0 0.68749999999926592 0.1082531754732875 0 1 0.49999999999869221 0 1 0.62499999999901068 0 0.88927506082488361 0.56409486310635837 0 0 0.25000000000104189 0 0.12076953676380731 0.18690935762408761 0 0.1082531754734323 0.31250000000117473 0 0.49999999999869221 0 0 0.62499999999901068 0 0 0.56249999999885147 0.1082531754730395 0 0.62500000000121547 1 0 0.50000000000206146 1 0 0.56327595140699671 0.89211526915426331 0 0.37500000000156292 1 0 0.25000000000104189 1 0 0.31258827852827581 0.89214793616708443 0 0.31281086598417152 0.10449318608631281 0 0.37499999999904599 0 0 0.43749999999910871 0.1082531754729984 0 0.43750000000181222 0.89174682452709564 0 0.37776173212361452 0.78514649317305008 0 0.50046028868828263 0.78376912307435687 0 0 0.37500000000156292 0 0 0.25000000000104189 0 0.1082531754734323 0.31250000000117473 0 0.49999999999869221 0 0 0.56249999999885147 0.1082531754730395 0 0.43749999999910871 0.1082531754729984 0 0.43750000000181222 0.89174682452709564 0 0.50046028868828263 0.78376912307435687 0 0.56327595140699671 0.89211526915426331 0 0.74999999999934042 0 0 0.81249999999950517 0.1082531754733404 0 0.68749999999926592 0.1082531754732875 0 0.37499999999904599 0 0 0.49999999999869221 0 0 0.43749999999910871 0.1082531754729984 0 0.25000000000104189 1 0 0.12500000000052089 1 0 0.18802967116092181 0.89415349436770275 0 0.50046028868828263 0.78376912307435687 0 0.62844955668446423 0.7850749770380413 0 0.56327595140699671 0.89211526915426331 0 0.37776173212361452 0.78514649317305008 0 0.31258827852827581 0.89214793616708443 0 0.23533274979922561 0.77093399389351469 0 0.62499999999901068 0 0 0.74999999999934042 0 0 0.68749999999926592 0.1082531754732875 0 1 0.74999999999934042 0 1 0.87499999999967015 0 0.89051480781310632 0.79665793440246835 0 0 0.25000000000104189 0 0 0.12500000000052089 0 0.12076953676380731 0.18690935762408761 0 0.74999999999934042 0 0 0.87499999999967015 0 0 0.81249999999950517 0.1082531754733404 0 0.24999999999941069 0 0 0.37499999999904599 0 0 0.31281086598417152 0.10449318608631281 0 0.50046028868828263 0.78376912307435687 0 0.37776173212361452 0.78514649317305008 0 0.44078402250377968 0.67714785211715212 0 0.68768773896438518 0.4586835206367198 0 0.75000000000032374 0.56698729811007709 0 0.62752533658682441 0.56838075195614346 0 0.31411863959822661 0.24965544328045999 0 0.37953773393552892 0.34812185820708452 0 0.24418615484441761 0.35773612382016978 0 0.68768773896438518 0.4586835206367198 0 0.81242894672211508 0.45500248311961472 0 0.75000000000032374 0.56698729811007709 0 1 0.24999999999941069 0 1 0.37499999999904599 0 0.88173731489851925 0.33077402607778361 0 0 0.75000000000034761 0 0 0.62500000000121547 0 0.1082531754723032 0.6875000000007816 0 0.50048844149666749 0.56727788297625459 0 0.44078402250377968 0.67714785211715212 0 0.38694285807596462 0.5672991787102919 0 0.50108503093851109 0.35012252869403671 0 0.44301038174930041 0.45684931552185398 0 0.37953773393552892 0.34812185820708452 0 0.50046028868828263 0.78376912307435687 0 0.56496004948275869 0.67675037307860475 0 0.62844955668446423 0.7850749770380413 0 0.68768773896438518 0.4586835206367198 0 0.75000000000057243 0.35048094716480432 0 0.81242894672211508 0.45500248311961472 0 0.56349980387502452 0.45846841892908402 0 0.62512662990940393 0.35044303886909911 0 0.68768773896438518 0.4586835206367198 0 0.50048844149666749 0.56727788297625459 0 0.38694285807596462 0.5672991787102919 0 0.44301038174930041 0.45684931552185398 0 0.50046028868828263 0.78376912307435687 0 0.44078402250377968 0.67714785211715212 0 0.56496004948275869 0.67675037307860475 0 0.50108503093851109 0.35012252869403671 0 0.37953773393552892 0.34812185820708452 0 0.43750000000200551 0.24222777169198509 0 0.75000000000034761 1 0 0.62500000000121547 1 0 0.69010814643829166 0.89298495739101336 0 0.68768773896438518 0.4586835206367198 0 0.62512662990940393 0.35044303886909911 0 0.75000000000057243 0.35048094716480432 0 0.56496004948275869 0.67675037307860475 0 0.44078402250377968 0.67714785211715212 0 0.50048844149666749 0.56727788297625459 0 0.56349980387502452 0.45846841892908402 0 0.44301038174930041 0.45684931552185398 0 0.50108503093851109 0.35012252869403671 0 0.50048844149666749 0.56727788297625459 0 0.44301038174930041 0.45684931552185398 0 0.56349980387502452 0.45846841892908402 0 0.56349980387502452 0.45846841892908402 0 0.50108503093851109 0.35012252869403671 0 0.62512662990940393 0.35044303886909911 0 0.43750000000200551 0.24222777169198509 0 0.37953773393552892 0.34812185820708452 0 0.31411863959822661 0.24965544328045999 0 0.56496004948275869 0.67675037307860475 0 0.50048844149666749 0.56727788297625459 0 0.62752533658682441 0.56838075195614346 0 0.56349980387502452 0.45846841892908402 0 0.68768773896438518 0.4586835206367198 0 0.62752533658682441 0.56838075195614346 0 0.50048844149666749 0.56727788297625459 0 0.56349980387502452 0.45846841892908402 0 0.62752533658682441 0.56838075195614346 0 0.75000000000057243 0.35048094716480432 0 0.62512662990940393 0.35044303886909911 0 0.68668231842078242 0.24762892664808989 0 0.50108503093851109 0.35012252869403671 0 0.43750000000200551 0.24222777169198509 0 0.56250000000143974 0.2422277716920859 0 0.62512662990940393 0.35044303886909911 0 0.50108503093851109 0.35012252869403671 0 0.56250000000143974 0.2422277716920859 0 0.68668231842078242 0.24762892664808989 0 0.62512662990940393 0.35044303886909911 0 0.56250000000143974 0.2422277716920859 0 0.22257735880419699 0.47344721641341742 0 0.24418615484441761 0.35773612382016978 0 0.32815957677880009 0.4577243358118348 0 0.12076953676380731 0.18690935762408761 0 0.19185372118111221 0.092925648673580788 0 0.25103557339309318 0.17464499738446629 0 0.20767261601459541 0.25628918442207171 0 0.12076953676380731 0.18690935762408761 0 0.25103557339309318 0.17464499738446629 0 0 0.87499999999950151 0 0 0.75000000000034761 0 0.10409951422139101 0.81206782209691231 0 0.1249999999997731 0 0 0.24999999999941069 0 0 0.19185372118111221 0.092925648673580788 0 1 0.1249999999997731 0 1 0.24999999999941069 0 0.89658421694297741 0.1933620068391701 0 0.88927506082488361 0.56409486310635837 0 0.81242894672211508 0.45500248311961472 0 0.915464298762109 0.43749999999886913 0 0.87499999999950151 1 0 0.75000000000034761 1 0 0.80886664387416207 0.89717308644237903 0 0.75000000000034761 1 0 0.69010814643829166 0.89298495739101336 0 0.80886664387416207 0.89717308644237903 0 0.82212678063041267 0.67678595194836966 0 0.88927506082488361 0.56409486310635837 0 0.92266244547590082 0.68749999999917555 0 0 0.75000000000034761 0 0.1082531754723032 0.6875000000007816 0 0.10409951422139101 0.81206782209691231 0 0.24999999999941069 0 0 0.31281086598417152 0.10449318608631281 0 0.19185372118111221 0.092925648673580788 0 1 0.24999999999941069 0 0.88173731489851925 0.33077402607778361 0 0.89658421694297741 0.1933620068391701 0 0.32815957677880009 0.4577243358118348 0 0.38694285807596462 0.5672991787102919 0 0.26982811998763367 0.56544650815856912 0 0.76243180583607129 0.78687675331113149 0 0.89051480781310632 0.79665793440246835 0 0.80886664387416207 0.89717308644237903 0 0.38694285807596462 0.5672991787102919 0 0.44078402250377968 0.67714785211715212 0 0.32607333794064219 0.67760114260606152 0 0.37776173212361452 0.78514649317305008 0 0.23533274979922561 0.77093399389351469 0 0.32607333794064219 0.67760114260606152 0 1 0.49999999999869221 0 0.88927506082488361 0.56409486310635837 0 0.915464298762109 0.43749999999886913 0 0.88173731489851925 0.33077402607778361 0 1 0.37499999999904599 0 0.915464298762109 0.43749999999886913 0 0.24418615484441761 0.35773612382016978 0 0.37953773393552892 0.34812185820708452 0 0.32815957677880009 0.4577243358118348 0 0.44301038174930041 0.45684931552185398 0 0.38694285807596462 0.5672991787102919 0 0.32815957677880009 0.4577243358118348 0 0.88927506082488361 0.56409486310635837 0 1 0.62499999999901068 0 0.92266244547590082 0.68749999999917555 0 1 0.74999999999934042 0 0.89051480781310632 0.79665793440246835 0 0.92266244547590082 0.68749999999917555 0 0 1 0 0 0.87499999999950151 0 0.091506350946494744 0.90849364905351082 0 1 1 0 0.87499999999950151 1 0 0.90849364905363228 0.90849364905367769 0 0 0 0 0.1249999999997731 0 0 0.091506350946417708 0.091506350946618076 0 0 0.12500000000052089 0 0 0 0 0.091506350946417708 0.091506350946618076 0 1 0 0 1 0.1249999999997731 0 0.90849364905355434 0.091506350946296292 0 0.87499999999967015 0 0 1 0 0 0.90849364905355434 0.091506350946296292 0 0.12500000000052089 1 0 0 1 0 0.091506350946494744 0.90849364905351082 0 1 0.87499999999967015 0 1 1 0 0.90849364905363228 0.90849364905367769 0 0.38694285807596462 0.5672991787102919 0 0.32607333794064219 0.67760114260606152 0 0.26982811998763367 0.56544650815856912 0 0.31411863959822661 0.24965544328045999 0 0.24418615484441761 0.35773612382016978 0 0.20767261601459541 0.25628918442207171 0 0.1082531754734323 0.31250000000117473 0 0.12076953676380731 0.18690935762408761 0 0.20767261601459541 0.25628918442207171 0 0.75000000000057243 0.35048094716480432 0 0.68668231842078242 0.24762892664808989 0 0.79891106056046712 0.25007334953587562 0 0.22257735880419699 0.47344721641341742 0 0.32815957677880009 0.4577243358118348 0 0.26982811998763367 0.56544650815856912 0 0.44078402250377968 0.67714785211715212 0 0.37776173212361452 0.78514649317305008 0 0.32607333794064219 0.67760114260606152 0 0.89658421694297741 0.1933620068391701 0 0.88173731489851925 0.33077402607778361 0 0.79891106056046712 0.25007334953587562 0 1 0.37499999999904599 0 1 0.49999999999869221 0 0.915464298762109 0.43749999999886913 0 0.37953773393552892 0.34812185820708452 0 0.44301038174930041 0.45684931552185398 0 0.32815957677880009 0.4577243358118348 0 0.32607333794064219 0.67760114260606152 0 0.21809253452218619 0.65480892822618109 0 0.26982811998763367 0.56544650815856912 0 1 0.1249999999997731 0 0.89658421694297741 0.1933620068391701 0 0.90849364905355434 0.091506350946296292 0 0 0.87499999999950151 0 0.10409951422139101 0.81206782209691231 0 0.091506350946494744 0.90849364905351082 0 0.1249999999997731 0 0 0.19185372118111221 0.092925648673580788 0 0.091506350946417708 0.091506350946618076 0 1 0.62499999999901068 0 1 0.74999999999934042 0 0.92266244547590082 0.68749999999917555 0 0.18802967116092181 0.89415349436770275 0 0.12500000000052089 1 0 0.091506350946494744 0.90849364905351082 0 0.89051480781310632 0.79665793440246835 0 1 0.87499999999967015 0 0.90849364905363228 0.90849364905367769 0 0.12076953676380731 0.18690935762408761 0 0 0.12500000000052089 0 0.091506350946417708 0.091506350946618076 0 0.81249999999950517 0.1082531754733404 0 0.87499999999967015 0 0 0.90849364905355434 0.091506350946296292 0 0.87499999999950151 1 0 0.80886664387416207 0.89717308644237903 0 0.90849364905363228 0.90849364905367769 0 0.68668231842078242 0.24762892664808989 0 0.62499999999892575 0.17524047358135519 0 0.73983916756365475 0.17530677078674589 0 0.31281086598417152 0.10449318608631281 0 0.43749999999910871 0.1082531754729984 0 0.37500000000232431 0.17524047358384309 0 0.62499999999892575 0.17524047358135519 0 0.56250000000143974 0.2422277716920859 0 0.49999999999934441 0.1752404735815076 0 0.56249999999885147 0.1082531754730395 0 0.68749999999926592 0.1082531754732875 0 0.62499999999892575 0.17524047358135519 0 0.56249999999885147 0.1082531754730395 0 0.62499999999892575 0.17524047358135519 0 0.49999999999934441 0.1752404735815076 0 0.56250000000143974 0.2422277716920859 0 0.43750000000200551 0.24222777169198509 0 0.49999999999934441 0.1752404735815076 0 0.43749999999910871 0.1082531754729984 0 0.56249999999885147 0.1082531754730395 0 0.49999999999934441 0.1752404735815076 0 0.68668231842078242 0.24762892664808989 0 0.56250000000143974 0.2422277716920859 0 0.62499999999892575 0.17524047358135519 0 0.43750000000200551 0.24222777169198509 0 0.31411863959822661 0.24965544328045999 0 0.37500000000232431 0.17524047358384309 0 0.49999999999934441 0.1752404735815076 0 0.43750000000200551 0.24222777169198509 0 0.37500000000232431 0.17524047358384309 0 0.43749999999910871 0.1082531754729984 0 0.49999999999934441 0.1752404735815076 0 0.37500000000232431 0.17524047358384309 0 0.62499999999892575 0.17524047358135519 0 0.68749999999926592 0.1082531754732875 0 0.73983916756365475 0.17530677078674589 0 0.68749999999926592 0.1082531754732875 0 0.81249999999950517 0.1082531754733404 0 0.73983916756365475 0.17530677078674589 0 0.10409951422139101 0.81206782209691231 0 0.18802967116092181 0.89415349436770275 0 0.091506350946494744 0.90849364905351082 0 0.89658421694297741 0.1933620068391701 0 0.81249999999950517 0.1082531754733404 0 0.90849364905355434 0.091506350946296292 0 0.19185372118111221 0.092925648673580788 0 0.12076953676380731 0.18690935762408761 0 0.091506350946417708 0.091506350946618076 0 0.37500000000232431 0.17524047358384309 0 0.31411863959822661 0.24965544328045999 0 0.25103557339309318 0.17464499738446629 0 0.31281086598417152 0.10449318608631281 0 0.37500000000232431 0.17524047358384309 0 0.25103557339309318 0.17464499738446629 0 0.80886664387416207 0.89717308644237903 0 0.89051480781310632 0.79665793440246835 0 0.90849364905363228 0.90849364905367769 0 0.19185372118111221 0.092925648673580788 0 0.31281086598417152 0.10449318608631281 0 0.25103557339309318 0.17464499738446629 0 0.79891106056046712 0.25007334953587562 0 0.68668231842078242 0.24762892664808989 0 0.73983916756365475 0.17530677078674589 0 0.31411863959822661 0.24965544328045999 0 0.20767261601459541 0.25628918442207171 0 0.25103557339309318 0.17464499738446629 0 

        </DataArray>

      </Points>

      <Cells>

        <DataArray type="Int32" Name="connectivity" format="ascii">

0 1 2 3 4 5 6 7 8 9 10 11 12 13 14 15 16 17 18 19 20 21 22 23 24 25 26 27 28 29 30 31 32 33 34 35 36 37 38 39 40 41 42 43 44 45 46 47 48 49 50 51 52 53 54 55 56 57 58 59 60 61 62 63 64 65 66 67 68 69 70 71 72 73 74 75 76 77 78 79 80 81 82 83 84 85 86 87 88 89 90 91 92 93 94 95 96 97 98 99 100 101 102 103 104 105 106 107 108 109 110 111 112 113 114 115 116 117 118 119 120 121 122 123 124 125 126 127 128 129 130 131 132 133 134 135 136 137 138 139 140 141 142 143 144 145 146 147 148 149 150 151 152 153 154 155 156 157 158 159 160 161 162 163 164 165 166 167 168 169 170 171 172 173 174 175 176 177 178 179 180 181 182 183 184 185 186 187 188 189 190 191 192 193 194 195 196 197 198 199 200 201 202 203 204 205 206 207 208 209 210 211 212 213 214 215 216 217 218 219 220 221 222 223 224 225 226 227 228 229 230 231 232 233 234 235 236 237 238 239 240 241 242 243 244 245 246 247 248 249 250 251 252 253 254 255 256 257 258 259 260 261 262 263 264 265 266 267 268 269 270 271 272 273 274 275 276 277 278 279 280 281 282 283 284 285 286 287 288 289 290 291 292 293 294 295 296 297 298 299 300 301 302 303 304 305 306 307 308 309 310 311 312 313 314 315 316 317 318 319 320 321 322 323 324 325 326 327 328 329 330 331 332 333 334 335 336 337 338 339 340 341 342 343 344 345 346 347 348 349 350 351 352 353 354 355 356 357 358 359 360 361 362 363 364 365 366 367 368 369 370 371 372 373 374 375 376 377 378 379 380 381 382 383 384 385 386 387 388 389 390 391 392 393 394 395 396 397 398 399 400 401 402 403 404 405 406 407 408 409 410 411 412 413 414 415 416 417 418 419 420 421 422 423 424 425 426 427 428 429 430 431 432 433 434 435 436 437 438 439 440 441 442 443 444 445 446 447 448 449 450 451 452 453 454 455 456 457 458 459 460 461 462 463 464 465 466 467 468 469 470 471 472 473 474 475 476 477 478 479 480 481 482 483 484 485 

        </DataArray>

        <DataArray type="Int32" Name="offsets" format="ascii">

3 6 9 12 15 18 21 24 27 30 33 36 39 42 45 48 51 54 57 60 63 66 69 72 75 78 81 84 87 90 93 96 99 102 105 108 111 114 117 120 123 126 129 132 135 138 141 144 147 150 153 156 159 162 165 168 171 174 177 180 183 186 189 192 195 198 201 204 207 210 213 216 219 222 225 228 231 234 237 240 243 246 249 252 255 258 261 264 267 270 273 276 279 282 285 288 291 294 297 300 303 306 309 312 315 318 321 324 327 330 333 336 339 342 345 348 351 354 357 360 363 366 369 372 375 378 381 384 387 390 393 396 399 402 405 408 411 414 417 420 423 426 429 432 435 438 441 444 447 450 453 456 459 462 465 468 471 474 477 480 483 486 

        </DataArray>

        <DataArray type="Int32" Name="types" format="ascii">

5 5 5 5 5 5 5 5 5 5 5 5 5 5 5 5 5 5 5 5 5 5 5 5 5 5 5 5 5 5 5 5 5 5 5 5 5 5 5 5 5 5 5 5 5 5 5 5 5 5 5 5 5 5 5 5 5 5 5 5 5 5 5 5 5 5 5 5 5 5 5 5 5 5 5 5 5 5 5 5 5 5 5 5 5 5 5 5 5 5 5 5 5 5 5 5 5 5 5 5 5 5 5 5 5 5 5 5 5 5 5 5 5 5 5 5 5 5 5 5 5 5 5 5 5 5 5 5 5 5 5 5 5 5 5 5 5 5 5 5 5 5 5 5 5 5 5 5 5 5 5 5 5 5 5 5 5 5 5 5 5 5 

        </DataArray>

      </Cells>

    </Piece>

  </UnstructuredGrid>

</VTKFile>

