<?xml version="1.0"?>

<VTKFile type="UnstructuredGrid" version="0.1">

  <UnstructuredGrid>

    <Piece NumberOfPoints="486" NumberOfCells="162">

      <PointData>

        <DataArray type="Float64" Name="K" format="ascii">

1.05101467470719823e+00
1.05101467470719823e+00
1.05101467470719823e+00
1.05176016119818505e+00
1.05176016119818505e+00
1.05176016119818505e+00
1.06957423236010074e+00
1.06957423236010074e+00
1.06957423236010074e+00
1.05029083105064003e+00
1.05029083105064003e+00
1.05029083105064003e+00
1.05737875812479976e+00
1.05737875812479976e+00
1.05737875812479976e+00
1.04057690260503888e+00
1.04057690260503888e+00
1.04057690260503888e+00
1.02380364983479333e+00
1.02380364983479333e+00
1.02380364983479333e+00
1.05343873064225235e+00
1.05343873064225235e+00
1.05343873064225235e+00
1.01782023469485616e+00
1.01782023469485616e+00
1.01782023469485616e+00
1.06804846600854608e+00
1.06804846600854608e+00
1.06804846600854608e+00
1.05310251582581982e+00
1.05310251582581982e+00
1.05310251582581982e+00
1.01776917876445050e+00
1.01776917876445050e+00
1.01776917876445050e+00
1.05090131546312970e+00
1.05090131546312970e+00
1.05090131546312970e+00
1.04988904551644158e+00
1.04988904551644158e+00
1.04988904551644158e+00
1.02888587728272451e+00
1.02888587728272451e+00
1.02888587728272451e+00
1.02083447415149964e+00
1.02083447415149964e+00
1.02083447415149964e+00
1.05979543910532548e+00
1.05979543910532548e+00
1.05979543910532548e+00
1.05502169761670217e+00
1.05502169761670217e+00
1.05502169761670217e+00
1.02994216369304703e+00
1.02994216369304703e+00
1.02994216369304703e+00
1.03097681595759338e+00
1.03097681595759338e+00
1.03097681595759338e+00
1.04947445441360077e+00
1.04947445441360077e+00
1.04947445441360077e+00
1.04789987854495892e+00
1.04789987854495892e+00
1.04789987854495892e+00
1.05716092995507460e+00
1.05716092995507460e+00
1.05716092995507460e+00
1.04720399096197769e+00
1.04720399096197769e+00
1.04720399096197769e+00
1.03565576986411378e+00
1.03565576986411378e+00
1.03565576986411378e+00
1.03020633419860519e+00
1.03020633419860519e+00
1.03020633419860519e+00
1.03431723212794968e+00
1.03431723212794968e+00
1.03431723212794968e+00
1.03953411787789740e+00
1.03953411787789740e+00
1.03953411787789740e+00
1.04350834758494515e+00
1.04350834758494515e+00
1.04350834758494515e+00
1.03272847439594684e+00
1.03272847439594684e+00
1.03272847439594684e+00
1.02517325639064150e+00
1.02517325639064150e+00
1.02517325639064150e+00
1.06008226893851765e+00
1.06008226893851765e+00
1.06008226893851765e+00
1.07147855382930035e+00
1.07147855382930035e+00
1.07147855382930035e+00
1.08662452470624049e+00
1.08662452470624049e+00
1.08662452470624049e+00
1.06143178691052431e+00
1.06143178691052431e+00
1.06143178691052431e+00
1.05931879199245560e+00
1.05931879199245560e+00
1.05931879199245560e+00
1.07514424546573384e+00
1.07514424546573384e+00
1.07514424546573384e+00
1.02577943246584979e+00
1.02577943246584979e+00
1.02577943246584979e+00
1.02303236319918867e+00
1.02303236319918867e+00
1.02303236319918867e+00
1.06818773407364520e+00
1.06818773407364520e+00
1.06818773407364520e+00
1.05470561138427654e+00
1.05470561138427654e+00
1.05470561138427654e+00
1.04438183755630587e+00
1.04438183755630587e+00
1.04438183755630587e+00
1.05998694471645916e+00
1.05998694471645916e+00
1.05998694471645916e+00
1.05882474719190212e+00
1.05882474719190212e+00
1.05882474719190212e+00
1.01988337728359046e+00
1.01988337728359046e+00
1.01988337728359046e+00
1.03332649987897063e+00
1.03332649987897063e+00
1.03332649987897063e+00
1.07502887053041052e+00
1.07502887053041052e+00
1.07502887053041052e+00
9.82752747270324911e-01
9.82752747270324911e-01
9.82752747270324911e-01
1.05897319368857112e+00
1.05897319368857112e+00
1.05897319368857112e+00
1.07748103936705908e+00
1.07748103936705908e+00
1.07748103936705908e+00
1.01617315630081229e+00
1.01617315630081229e+00
1.01617315630081229e+00
1.06195370502113318e+00
1.06195370502113318e+00
1.06195370502113318e+00
1.03478058616401314e+00
1.03478058616401314e+00
1.03478058616401314e+00
9.81512077020353479e-01
9.81512077020353479e-01
9.81512077020353479e-01
1.05972045471727072e+00
1.05972045471727072e+00
1.05972045471727072e+00
1.04794893773458253e+00
1.04794893773458253e+00
1.04794893773458253e+00
1.04679069341809794e+00
1.04679069341809794e+00
1.04679069341809794e+00
1.04422318946172688e+00
1.04422318946172688e+00
1.04422318946172688e+00
1.03741282350074604e+00
1.03741282350074604e+00
1.03741282350074604e+00
1.00878050495069305e+00
1.00878050495069305e+00
1.00878050495069305e+00
1.01575309773696865e+00
1.01575309773696865e+00
1.01575309773696865e+00
9.58802946419826996e-01
9.58802946419826996e-01
9.58802946419826996e-01
1.03930258599194048e+00
1.03930258599194048e+00
1.03930258599194048e+00
1.03029881807930979e+00
1.03029881807930979e+00
1.03029881807930979e+00
1.04442287983769022e+00
1.04442287983769022e+00
1.04442287983769022e+00
1.04455925015234086e+00
1.04455925015234086e+00
1.04455925015234086e+00
1.00533731947474103e+00
1.00533731947474103e+00
1.00533731947474103e+00
9.90934643375645186e-01
9.90934643375645186e-01
9.90934643375645186e-01
1.00342482727141546e+00
1.00342482727141546e+00
1.00342482727141546e+00
1.03982120011693602e+00
1.03982120011693602e+00
1.03982120011693602e+00
1.04618264564257424e+00
1.04618264564257424e+00
1.04618264564257424e+00
1.04563647380808877e+00
1.04563647380808877e+00
1.04563647380808877e+00
1.00526588829455643e+00
1.00526588829455643e+00
1.00526588829455643e+00
1.00378369403862688e+00
1.00378369403862688e+00
1.00378369403862688e+00
1.04050029390394005e+00
1.04050029390394005e+00
1.04050029390394005e+00
1.05550569276224748e+00
1.05550569276224748e+00
1.05550569276224748e+00
1.01657572824337095e+00
1.01657572824337095e+00
1.01657572824337095e+00
1.02373793468357510e+00
1.02373793468357510e+00
1.02373793468357510e+00
1.01962953052761551e+00
1.01962953052761551e+00
1.01962953052761551e+00
1.01156976011925925e+00
1.01156976011925925e+00
1.01156976011925925e+00
1.00042513378208597e+00
1.00042513378208597e+00
1.00042513378208597e+00
1.00488306915642100e+00
1.00488306915642100e+00
1.00488306915642100e+00
1.05137998684570499e+00
1.05137998684570499e+00
1.05137998684570499e+00
1.01955825881355833e+00
1.01955825881355833e+00
1.01955825881355833e+00
1.01123096196071138e+00
1.01123096196071138e+00
1.01123096196071138e+00
1.00453337315180913e+00
1.00453337315180913e+00
1.00453337315180913e+00
1.02297309573181217e+00
1.02297309573181217e+00
1.02297309573181217e+00
1.04915972840109162e+00
1.04915972840109162e+00
1.04915972840109162e+00
1.02113186742670026e+00
1.02113186742670026e+00
1.02113186742670026e+00
1.01881632341142736e+00
1.01881632341142736e+00
1.01881632341142736e+00
1.04837869096580105e+00
1.04837869096580105e+00
1.04837869096580105e+00
1.00014430799234977e+00
1.00014430799234977e+00
1.00014430799234977e+00
1.02617236677141421e+00
1.02617236677141421e+00
1.02617236677141421e+00
1.00653135252466752e+00
1.00653135252466752e+00
1.00653135252466752e+00
9.31938925585273803e-01
9.31938925585273803e-01
9.31938925585273803e-01
9.97617562415023196e-01
9.97617562415023196e-01
9.97617562415023196e-01
1.04646726792056932e+00
1.04646726792056932e+00
1.04646726792056932e+00
1.01103523464790146e+00
1.01103523464790146e+00
1.01103523464790146e+00
1.01882606234941719e+00
1.01882606234941719e+00
1.01882606234941719e+00
1.06580146841014933e+00
1.06580146841014933e+00
1.06580146841014933e+00
1.01490677277721097e+00
1.01490677277721097e+00
1.01490677277721097e+00
9.59619250715123995e-01
9.59619250715123995e-01
9.59619250715123995e-01
1.01180480133290907e+00
1.01180480133290907e+00
1.01180480133290907e+00
1.02817725085526823e+00
1.02817725085526823e+00
1.02817725085526823e+00
1.04512607787182832e+00
1.04512607787182832e+00
1.04512607787182832e+00
1.00646435750215280e+00
1.00646435750215280e+00
1.00646435750215280e+00
1.03019636650130675e+00
1.03019636650130675e+00
1.03019636650130675e+00
1.04539230519153326e+00
1.04539230519153326e+00
1.04539230519153326e+00
1.02083189351169557e+00
1.02083189351169557e+00
1.02083189351169557e+00
1.04801450703141130e+00
1.04801450703141130e+00
1.04801450703141130e+00
1.02227935426871497e+00
1.02227935426871497e+00
1.02227935426871497e+00
1.06906738799726564e+00
1.06906738799726564e+00
1.06906738799726564e+00
1.06279723401346549e+00
1.06279723401346549e+00
1.06279723401346549e+00
1.02883789447225249e+00
1.02883789447225249e+00
1.02883789447225249e+00
9.91490493379539428e-01
9.91490493379539428e-01
9.91490493379539428e-01
9.15956669924068878e-01
9.15956669924068878e-01
9.15956669924068878e-01
9.30533781349054623e-01
9.30533781349054623e-01
9.30533781349054623e-01
9.98052232403573214e-01
9.98052232403573214e-01
9.98052232403573214e-01
9.96789681478588818e-01
9.96789681478588818e-01
9.96789681478588818e-01
1.03731669685650307e+00
1.03731669685650307e+00
1.03731669685650307e+00
9.95448915014610636e-01
9.95448915014610636e-01
9.95448915014610636e-01
1.01849469380996882e+00
1.01849469380996882e+00
1.01849469380996882e+00
1.03789852753627110e+00
1.03789852753627110e+00
1.03789852753627110e+00
1.05557719262435978e+00
1.05557719262435978e+00
1.05557719262435978e+00
1.03821547791056390e+00
1.03821547791056390e+00
1.03821547791056390e+00
1.04367302633518855e+00
1.04367302633518855e+00
1.04367302633518855e+00
1.01882019894340137e+00
1.01882019894340137e+00
1.01882019894340137e+00
1.03451736267742422e+00
1.03451736267742422e+00
1.03451736267742422e+00
1.02877181640156956e+00
1.02877181640156956e+00
1.02877181640156956e+00
1.04120395799122933e+00
1.04120395799122933e+00
1.04120395799122933e+00
1.03487794728455218e+00
1.03487794728455218e+00
1.03487794728455218e+00
1.00433319418373590e+00
1.00433319418373590e+00
1.00433319418373590e+00
1.03245808996001687e+00
1.03245808996001687e+00
1.03245808996001687e+00
9.39863219530634786e-01
9.39863219530634786e-01
9.39863219530634786e-01
1.06328983224721640e+00
1.06328983224721640e+00
1.06328983224721640e+00
1.05251214322302067e+00
1.05251214322302067e+00
1.05251214322302067e+00
1.02917075384310786e+00
1.02917075384310786e+00
1.02917075384310786e+00
9.78447056640455282e-01
9.78447056640455282e-01
9.78447056640455282e-01
1.00753360253725277e+00
1.00753360253725277e+00
1.00753360253725277e+00
1.01593827349669619e+00
1.01593827349669619e+00
1.01593827349669619e+00
1.03255428421130913e+00
1.03255428421130913e+00
1.03255428421130913e+00
1.00625682579832820e+00
1.00625682579832820e+00
1.00625682579832820e+00
1.04595564553895515e+00
1.04595564553895515e+00
1.04595564553895515e+00
1.04531004946305450e+00
1.04531004946305450e+00
1.04531004946305450e+00
1.04754097355482356e+00
1.04754097355482356e+00
1.04754097355482356e+00
1.05437129734787161e+00
1.05437129734787161e+00
1.05437129734787161e+00
1.03951117674224092e+00
1.03951117674224092e+00
1.03951117674224092e+00
1.03118682266274297e+00
1.03118682266274297e+00
1.03118682266274297e+00
1.03931487876055395e+00
1.03931487876055395e+00
1.03931487876055395e+00
1.04826711503284864e+00
1.04826711503284864e+00
1.04826711503284864e+00
1.03400235331918289e+00
1.03400235331918289e+00
1.03400235331918289e+00
1.03870959570059740e+00
1.03870959570059740e+00
1.03870959570059740e+00
1.03512421993611747e+00
1.03512421993611747e+00
1.03512421993611747e+00
1.05366903344715590e+00
1.05366903344715590e+00
1.05366903344715590e+00
1.01601287938262042e+00
1.01601287938262042e+00
1.01601287938262042e+00
9.81842042474645127e-01
9.81842042474645127e-01
9.81842042474645127e-01
1.01695476783219907e+00
1.01695476783219907e+00
1.01695476783219907e+00
1.00016574901307154e+00
1.00016574901307154e+00
1.00016574901307154e+00
1.03945597843880844e+00
1.03945597843880844e+00
1.03945597843880844e+00
9.84699143276860034e-01
9.84699143276860034e-01
9.84699143276860034e-01
1.03540746387074600e+00
1.03540746387074600e+00
1.03540746387074600e+00
1.02260921617641642e+00
1.02260921617641642e+00
1.02260921617641642e+00


        </DataArray>

      </PointData>

      <CellData/>

      <Points>

        <DataArray type="Float64" NumberOfComponents="3" format="ascii">

0.1082531754723032 0.6875000000007816 0 0.23533274979922561 0.77093399389351469 0 0.10409951422139101 0.81206782209691231 0 0.23533274979922561 0.77093399389351469 0 0.1082531754723032 0.6875000000007816 0 0.21809253452218619 0.65480892822618109 0 0.24418615484441761 0.35773612382016978 0 0.121259140952891 0.43112117036853742 0 0.1082531754734323 0.31250000000117473 0 0.75000000000057243 0.35048094716480432 0 0.88173731489851925 0.33077402607778361 0 0.81242894672211508 0.45500248311961472 0 0.121259140952891 0.43112117036853742 0 0.24418615484441761 0.35773612382016978 0 0.22257735880419699 0.47344721641341742 0 0.81242894672211508 0.45500248311961472 0 0.88173731489851925 0.33077402607778361 0 0.915464298762109 0.43749999999886913 0 0 0.62500000000121547 0 0 0.50000000000206146 0 0.1371230538040123 0.56179824718362847 0 0.82212678063041267 0.67678595194836966 0 0.89051480781310632 0.79665793440246835 0 0.76243180583607129 0.78687675331113149 0 0.76243180583607129 0.78687675331113149 0 0.69010814643829166 0.89298495739101336 0 0.62844955668446423 0.7850749770380413 0 0.89051480781310632 0.79665793440246835 0 0.82212678063041267 0.67678595194836966 0 0.92266244547590082 0.68749999999917555 0 0 0.50000000000206146 0 0.121259140952891 0.43112117036853742 0 0.1371230538040123 0.56179824718362847 0 0.1082531754723032 0.6875000000007816 0 0 0.62500000000121547 0 0.1371230538040123 0.56179824718362847 0 0.75000000000032374 0.56698729811007709 0 0.88927506082488361 0.56409486310635837 0 0.82212678063041267 0.67678595194836966 0 0.81242894672211508 0.45500248311961472 0 0.88927506082488361 0.56409486310635837 0 0.75000000000032374 0.56698729811007709 0 0.69851598570178741 0.68211701800612057 0 0.56496004948275869 0.67675037307860475 0 0.62752533658682441 0.56838075195614346 0 0.69851598570178741 0.68211701800612057 0 0.76243180583607129 0.78687675331113149 0 0.62844955668446423 0.7850749770380413 0 0.23533274979922561 0.77093399389351469 0 0.18802967116092181 0.89415349436770275 0 0.10409951422139101 0.81206782209691231 0 0.121259140952891 0.43112117036853742 0 0.22257735880419699 0.47344721641341742 0 0.1371230538040123 0.56179824718362847 0 0.75000000000032374 0.56698729811007709 0 0.69851598570178741 0.68211701800612057 0 0.62752533658682441 0.56838075195614346 0 0.56496004948275869 0.67675037307860475 0 0.69851598570178741 0.68211701800612057 0 0.62844955668446423 0.7850749770380413 0 0.1371230538040123 0.56179824718362847 0 0.22257735880419699 0.47344721641341742 0 0.26982811998763367 0.56544650815856912 0 0.21809253452218619 0.65480892822618109 0 0.1371230538040123 0.56179824718362847 0 0.26982811998763367 0.56544650815856912 0 0.24418615484441761 0.35773612382016978 0 0.1082531754734323 0.31250000000117473 0 0.20767261601459541 0.25628918442207171 0 0.88173731489851925 0.33077402607778361 0 0.75000000000057243 0.35048094716480432 0 0.79891106056046712 0.25007334953587562 0 0.75000000000032374 0.56698729811007709 0 0.82212678063041267 0.67678595194836966 0 0.69851598570178741 0.68211701800612057 0 0.81249999999950517 0.1082531754733404 0 0.89658421694297741 0.1933620068391701 0 0.79891106056046712 0.25007334953587562 0 0.81249999999950517 0.1082531754733404 0 0.79891106056046712 0.25007334953587562 0 0.73983916756365475 0.17530677078674589 0 0.23533274979922561 0.77093399389351469 0 0.21809253452218619 0.65480892822618109 0 0.32607333794064219 0.67760114260606152 0 0.1082531754723032 0.6875000000007816 0 0.1371230538040123 0.56179824718362847 0 0.21809253452218619 0.65480892822618109 0 0.69851598570178741 0.68211701800612057 0 0.82212678063041267 0.67678595194836966 0 0.76243180583607129 0.78687675331113149 0 0.69010814643829166 0.89298495739101336 0 0.76243180583607129 0.78687675331113149 0 0.80886664387416207 0.89717308644237903 0 0.43750000000181222 0.89174682452709564 0 0.31258827852827581 0.89214793616708443 0 0.37776173212361452 0.78514649317305008 0 0.43750000000181222 0.89174682452709564 0 0.37500000000156292 1 0 0.31258827852827581 0.89214793616708443 0 0.121259140952891 0.43112117036853742 0 0 0.37500000000156292 0 0.1082531754734323 0.31250000000117473 0 0.50000000000206146 1 0 0.37500000000156292 1 0 0.43750000000181222 0.89174682452709564 0 0.31258827852827581 0.89214793616708443 0 0.18802967116092181 0.89415349436770275 0 0.23533274979922561 0.77093399389351469 0 0 0.50000000000206146 0 0 0.37500000000156292 0 0.121259140952891 0.43112117036853742 0 0.62844955668446423 0.7850749770380413 0 0.69010814643829166 0.89298495739101336 0 0.56327595140699671 0.89211526915426331 0 0.69010814643829166 0.89298495739101336 0 0.62500000000121547 1 0 0.56327595140699671 0.89211526915426331 0 0.25000000000104189 1 0 0.18802967116092181 0.89415349436770275 0 0.31258827852827581 0.89214793616708443 0 0.50000000000206146 1 0 0.43750000000181222 0.89174682452709564 0 0.56327595140699671 0.89211526915426331 0 0.56249999999885147 0.1082531754730395 0 0.62499999999901068 0 0 0.68749999999926592 0.1082531754732875 0 1 0.49999999999869221 0 1 0.62499999999901068 0 0.88927506082488361 0.56409486310635837 0 0 0.25000000000104189 0 0.12076953676380731 0.18690935762408761 0 0.1082531754734323 0.31250000000117473 0 0.49999999999869221 0 0 0.62499999999901068 0 0 0.56249999999885147 0.1082531754730395 0 0.62500000000121547 1 0 0.50000000000206146 1 0 0.56327595140699671 0.89211526915426331 0 0.37500000000156292 1 0 0.25000000000104189 1 0 0.31258827852827581 0.89214793616708443 0 0.31281086598417152 0.10449318608631281 0 0.37499999999904599 0 0 0.43749999999910871 0.1082531754729984 0 0.43750000000181222 0.89174682452709564 0 0.37776173212361452 0.78514649317305008 0 0.50046028868828263 0.78376912307435687 0 0 0.37500000000156292 0 0 0.25000000000104189 0 0.1082531754734323 0.31250000000117473 0 0.49999999999869221 0 0 0.56249999999885147 0.1082531754730395 0 0.43749999999910871 0.1082531754729984 0 0.43750000000181222 0.89174682452709564 0 0.50046028868828263 0.78376912307435687 0 0.56327595140699671 0.89211526915426331 0 0.74999999999934042 0 0 0.81249999999950517 0.1082531754733404 0 0.68749999999926592 0.1082531754732875 0 0.37499999999904599 0 0 0.49999999999869221 0 0 0.43749999999910871 0.1082531754729984 0 0.25000000000104189 1 0 0.12500000000052089 1 0 0.18802967116092181 0.89415349436770275 0 0.50046028868828263 0.78376912307435687 0 0.62844955668446423 0.7850749770380413 0 0.56327595140699671 0.89211526915426331 0 0.37776173212361452 0.78514649317305008 0 0.31258827852827581 0.89214793616708443 0 0.23533274979922561 0.77093399389351469 0 0.62499999999901068 0 0 0.74999999999934042 0 0 0.68749999999926592 0.1082531754732875 0 1 0.74999999999934042 0 1 0.87499999999967015 0 0.89051480781310632 0.79665793440246835 0 0 0.25000000000104189 0 0 0.12500000000052089 0 0.12076953676380731 0.18690935762408761 0 0.74999999999934042 0 0 0.87499999999967015 0 0 0.81249999999950517 0.1082531754733404 0 0.24999999999941069 0 0 0.37499999999904599 0 0 0.31281086598417152 0.10449318608631281 0 0.50046028868828263 0.78376912307435687 0 0.37776173212361452 0.78514649317305008 0 0.44078402250377968 0.67714785211715212 0 0.68768773896438518 0.4586835206367198 0 0.75000000000032374 0.56698729811007709 0 0.62752533658682441 0.56838075195614346 0 0.31411863959822661 0.24965544328045999 0 0.37953773393552892 0.34812185820708452 0 0.24418615484441761 0.35773612382016978 0 0.68768773896438518 0.4586835206367198 0 0.81242894672211508 0.45500248311961472 0 0.75000000000032374 0.56698729811007709 0 1 0.24999999999941069 0 1 0.37499999999904599 0 0.88173731489851925 0.33077402607778361 0 0 0.75000000000034761 0 0 0.62500000000121547 0 0.1082531754723032 0.6875000000007816 0 0.50048844149666749 0.56727788297625459 0 0.44078402250377968 0.67714785211715212 0 0.38694285807596462 0.5672991787102919 0 0.50108503093851109 0.35012252869403671 0 0.44301038174930041 0.45684931552185398 0 0.37953773393552892 0.34812185820708452 0 0.50046028868828263 0.78376912307435687 0 0.56496004948275869 0.67675037307860475 0 0.62844955668446423 0.7850749770380413 0 0.68768773896438518 0.4586835206367198 0 0.75000000000057243 0.35048094716480432 0 0.81242894672211508 0.45500248311961472 0 0.56349980387502452 0.45846841892908402 0 0.62512662990940393 0.35044303886909911 0 0.68768773896438518 0.4586835206367198 0 0.50048844149666749 0.56727788297625459 0 0.38694285807596462 0.5672991787102919 0 0.44301038174930041 0.45684931552185398 0 0.50046028868828263 0.78376912307435687 0 0.44078402250377968 0.67714785211715212 0 0.56496004948275869 0.67675037307860475 0 0.50108503093851109 0.35012252869403671 0 0.37953773393552892 0.34812185820708452 0 0.43750000000200551 0.24222777169198509 0 0.75000000000034761 1 0 0.62500000000121547 1 0 0.69010814643829166 0.89298495739101336 0 0.68768773896438518 0.4586835206367198 0 0.62512662990940393 0.35044303886909911 0 0.75000000000057243 0.35048094716480432 0 0.56496004948275869 0.67675037307860475 0 0.44078402250377968 0.67714785211715212 0 0.50048844149666749 0.56727788297625459 0 0.56349980387502452 0.45846841892908402 0 0.44301038174930041 0.45684931552185398 0 0.50108503093851109 0.35012252869403671 0 0.50048844149666749 0.56727788297625459 0 0.44301038174930041 0.45684931552185398 0 0.56349980387502452 0.45846841892908402 0 0.56349980387502452 0.45846841892908402 0 0.50108503093851109 0.35012252869403671 0 0.62512662990940393 0.35044303886909911 0 0.43750000000200551 0.24222777169198509 0 0.37953773393552892 0.34812185820708452 0 0.31411863959822661 0.24965544328045999 0 0.56496004948275869 0.67675037307860475 0 0.50048844149666749 0.56727788297625459 0 0.62752533658682441 0.56838075195614346 0 0.56349980387502452 0.45846841892908402 0 0.68768773896438518 0.4586835206367198 0 0.62752533658682441 0.56838075195614346 0 0.50048844149666749 0.56727788297625459 0 0.56349980387502452 0.45846841892908402 0 0.62752533658682441 0.56838075195614346 0 0.75000000000057243 0.35048094716480432 0 0.62512662990940393 0.35044303886909911 0 0.68668231842078242 0.24762892664808989 0 0.50108503093851109 0.35012252869403671 0 0.43750000000200551 0.24222777169198509 0 0.56250000000143974 0.2422277716920859 0 0.62512662990940393 0.35044303886909911 0 0.50108503093851109 0.35012252869403671 0 0.56250000000143974 0.2422277716920859 0 0.68668231842078242 0.24762892664808989 0 0.62512662990940393 0.35044303886909911 0 0.56250000000143974 0.2422277716920859 0 0.22257735880419699 0.47344721641341742 0 0.24418615484441761 0.35773612382016978 0 0.32815957677880009 0.4577243358118348 0 0.12076953676380731 0.18690935762408761 0 0.19185372118111221 0.092925648673580788 0 0.25103557339309318 0.17464499738446629 0 0.20767261601459541 0.25628918442207171 0 0.12076953676380731 0.18690935762408761 0 0.25103557339309318 0.17464499738446629 0 0 0.87499999999950151 0 0 0.75000000000034761 0 0.10409951422139101 0.81206782209691231 0 0.1249999999997731 0 0 0.24999999999941069 0 0 0.19185372118111221 0.092925648673580788 0 1 0.1249999999997731 0 1 0.24999999999941069 0 0.89658421694297741 0.1933620068391701 0 0.88927506082488361 0.56409486310635837 0 0.81242894672211508 0.45500248311961472 0 0.915464298762109 0.43749999999886913 0 0.87499999999950151 1 0 0.75000000000034761 1 0 0.80886664387416207 0.89717308644237903 0 0.75000000000034761 1 0 0.69010814643829166 0.89298495739101336 0 0.80886664387416207 0.89717308644237903 0 0.82212678063041267 0.67678595194836966 0 0.88927506082488361 0.56409486310635837 0 0.92266244547590082 0.68749999999917555 0 0 0.75000000000034761 0 0.1082531754723032 0.6875000000007816 0 0.10409951422139101 0.81206782209691231 0 0.24999999999941069 0 0 0.31281086598417152 0.10449318608631281 0 0.19185372118111221 0.092925648673580788 0 1 0.24999999999941069 0 0.88173731489851925 0.33077402607778361 0 0.89658421694297741 0.1933620068391701 0 0.32815957677880009 0.4577243358118348 0 0.38694285807596462 0.5672991787102919 0 0.26982811998763367 0.56544650815856912 0 0.76243180583607129 0.78687675331113149 0 0.89051480781310632 0.79665793440246835 0 0.80886664387416207 0.89717308644237903 0 0.38694285807596462 0.5672991787102919 0 0.44078402250377968 0.67714785211715212 0 0.32607333794064219 0.67760114260606152 0 0.37776173212361452 0.78514649317305008 0 0.23533274979922561 0.77093399389351469 0 0.32607333794064219 0.67760114260606152 0 1 0.49999999999869221 0 0.88927506082488361 0.56409486310635837 0 0.915464298762109 0.43749999999886913 0 0.88173731489851925 0.33077402607778361 0 1 0.37499999999904599 0 0.915464298762109 0.43749999999886913 0 0.24418615484441761 0.35773612382016978 0 0.37953773393552892 0.34812185820708452 0 0.32815957677880009 0.4577243358118348 0 0.44301038174930041 0.45684931552185398 0 0.38694285807596462 0.5672991787102919 0 0.32815957677880009 0.4577243358118348 0 0.88927506082488361 0.56409486310635837 0 1 0.62499999999901068 0 0.92266244547590082 0.68749999999917555 0 1 0.74999999999934042 0 0.89051480781310632 0.79665793440246835 0 0.92266244547590082 0.68749999999917555 0 0 1 0 0 0.87499999999950151 0 0.091506350946494744 0.90849364905351082 0 1 1 0 0.87499999999950151 1 0 0.90849364905363228 0.90849364905367769 0 0 0 0 0.1249999999997731 0 0 0.091506350946417708 0.091506350946618076 0 0 0.12500000000052089 0 0 0 0 0.091506350946417708 0.091506350946618076 0 1 0 0 1 0.1249999999997731 0 0.90849364905355434 0.091506350946296292 0 0.87499999999967015 0 0 1 0 0 0.90849364905355434 0.091506350946296292 0 0.12500000000052089 1 0 0 1 0 0.091506350946494744 0.90849364905351082 0 1 0.87499999999967015 0 1 1 0 0.90849364905363228 0.90849364905367769 0 0.38694285807596462 0.5672991787102919 0 0.32607333794064219 0.67760114260606152 0 0.26982811998763367 0.56544650815856912 0 0.31411863959822661 0.24965544328045999 0 0.24418615484441761 0.35773612382016978 0 0.20767261601459541 0.25628918442207171 0 0.1082531754734323 0.31250000000117473 0 0.12076953676380731 0.18690935762408761 0 0.20767261601459541 0.25628918442207171 0 0.75000000000057243 0.35048094716480432 0 0.68668231842078242 0.24762892664808989 0 0.79891106056046712 0.25007334953587562 0 0.22257735880419699 0.47344721641341742 0 0.32815957677880009 0.4577243358118348 0 0.26982811998763367 0.56544650815856912 0 0.44078402250377968 0.67714785211715212 0 0.37776173212361452 0.78514649317305008 0 0.32607333794064219 0.67760114260606152 0 0.89658421694297741 0.1933620068391701 0 0.88173731489851925 0.33077402607778361 0 0.79891106056046712 0.25007334953587562 0 1 0.37499999999904599 0 1 0.49999999999869221 0 0.915464298762109 0.43749999999886913 0 0.37953773393552892 0.34812185820708452 0 0.44301038174930041 0.45684931552185398 0 0.32815957677880009 0.4577243358118348 0 0.32607333794064219 0.67760114260606152 0 0.21809253452218619 0.65480892822618109 0 0.26982811998763367 0.56544650815856912 0 1 0.1249999999997731 0 0.89658421694297741 0.1933620068391701 0 0.90849364905355434 0.091506350946296292 0 0 0.87499999999950151 0 0.10409951422139101 0.81206782209691231 0 0.091506350946494744 0.90849364905351082 0 0.1249999999997731 0 0 0.19185372118111221 0.092925648673580788 0 0.091506350946417708 0.091506350946618076 0 1 0.62499999999901068 0 1 0.74999999999934042 0 0.92266244547590082 0.68749999999917555 0 0.18802967116092181 0.89415349436770275 0 0.12500000000052089 1 0 0.091506350946494744 0.90849364905351082 0 0.89051480781310632 0.79665793440246835 0 1 0.87499999999967015 0 0.90849364905363228 0.90849364905367769 0 0.12076953676380731 0.18690935762408761 0 0 0.12500000000052089 0 0.091506350946417708 0.091506350946618076 0 0.81249999999950517 0.1082531754733404 0 0.87499999999967015 0 0 0.90849364905355434 0.091506350946296292 0 0.87499999999950151 1 0 0.80886664387416207 0.89717308644237903 0 0.90849364905363228 0.90849364905367769 0 0.68668231842078242 0.24762892664808989 0 0.62499999999892575 0.17524047358135519 0 0.73983916756365475 0.17530677078674589 0 0.31281086598417152 0.10449318608631281 0 0.43749999999910871 0.1082531754729984 0 0.37500000000232431 0.17524047358384309 0 0.62499999999892575 0.17524047358135519 0 0.56250000000143974 0.2422277716920859 0 0.49999999999934441 0.1752404735815076 0 0.56249999999885147 0.1082531754730395 0 0.68749999999926592 0.1082531754732875 0 0.62499999999892575 0.17524047358135519 0 0.56249999999885147 0.1082531754730395 0 0.62499999999892575 0.17524047358135519 0 0.49999999999934441 0.1752404735815076 0 0.56250000000143974 0.2422277716920859 0 0.43750000000200551 0.24222777169198509 0 0.49999999999934441 0.1752404735815076 0 0.43749999999910871 0.1082531754729984 0 0.56249999999885147 0.1082531754730395 0 0.49999999999934441 0.1752404735815076 0 0.68668231842078242 0.24762892664808989 0 0.56250000000143974 0.2422277716920859 0 0.62499999999892575 0.17524047358135519 0 0.43750000000200551 0.24222777169198509 0 0.31411863959822661 0.24965544328045999 0 0.37500000000232431 0.17524047358384309 0 0.49999999999934441 0.1752404735815076 0 0.43750000000200551 0.24222777169198509 0 0.37500000000232431 0.17524047358384309 0 0.43749999999910871 0.1082531754729984 0 0.49999999999934441 0.1752404735815076 0 0.37500000000232431 0.17524047358384309 0 0.62499999999892575 0.17524047358135519 0 0.68749999999926592 0.1082531754732875 0 0.73983916756365475 0.17530677078674589 0 0.68749999999926592 0.1082531754732875 0 0.81249999999950517 0.1082531754733404 0 0.73983916756365475 0.17530677078674589 0 0.10409951422139101 0.81206782209691231 0 0.18802967116092181 0.89415349436770275 0 0.091506350946494744 0.90849364905351082 0 0.89658421694297741 0.1933620068391701 0 0.81249999999950517 0.1082531754733404 0 0.90849364905355434 0.091506350946296292 0 0.19185372118111221 0.092925648673580788 0 0.12076953676380731 0.18690935762408761 0 0.091506350946417708 0.091506350946618076 0 0.37500000000232431 0.17524047358384309 0 0.31411863959822661 0.24965544328045999 0 0.25103557339309318 0.17464499738446629 0 0.31281086598417152 0.10449318608631281 0 0.37500000000232431 0.17524047358384309 0 0.25103557339309318 0.17464499738446629 0 0.80886664387416207 0.89717308644237903 0 0.89051480781310632 0.79665793440246835 0 0.90849364905363228 0.90849364905367769 0 0.19185372118111221 0.092925648673580788 0 0.31281086598417152 0.10449318608631281 0 0.25103557339309318 0.17464499738446629 0 0.79891106056046712 0.25007334953587562 0 0.68668231842078242 0.24762892664808989 0 0.73983916756365475 0.17530677078674589 0 0.31411863959822661 0.24965544328045999 0 0.20767261601459541 0.25628918442207171 0 0.25103557339309318 0.17464499738446629 0 

        </DataArray>

      </Points>

      <Cells>

        <DataArray type="Int32" Name="connectivity" format="ascii">

0 1 2 3 4 5 6 7 8 9 10 11 12 13 14 15 16 17 18 19 20 21 22 23 24 25 26 27 28 29 30 31 32 33 34 35 36 37 38 39 40 41 42 43 44 45 46 47 48 49 50 51 52 53 54 55 56 57 58 59 60 61 62 63 64 65 66 67 68 69 70 71 72 73 74 75 76 77 78 79 80 81 82 83 84 85 86 87 88 89 90 91 92 93 94 95 96 97 98 99 100 101 102 103 104 105 106 107 108 109 110 111 112 113 114 115 116 117 118 119 120 121 122 123 124 125 126 127 128 129 130 131 132 133 134 135 136 137 138 139 140 141 142 143 144 145 146 147 148 149 150 151 152 153 154 155 156 157 158 159 160 161 162 163 164 165 166 167 168 169 170 171 172 173 174 175 176 177 178 179 180 181 182 183 184 185 186 187 188 189 190 191 192 193 194 195 196 197 198 199 200 201 202 203 204 205 206 207 208 209 210 211 212 213 214 215 216 217 218 219 220 221 222 223 224 225 226 227 228 229 230 231 232 233 234 235 236 237 238 239 240 241 242 243 244 245 246 247 248 249 250 251 252 253 254 255 256 257 258 259 260 261 262 263 264 265 266 267 268 269 270 271 272 273 274 275 276 277 278 279 280 281 282 283 284 285 286 287 288 289 290 291 292 293 294 295 296 297 298 299 300 301 302 303 304 305 306 307 308 309 310 311 312 313 314 315 316 317 318 319 320 321 322 323 324 325 326 327 328 329 330 331 332 333 334 335 336 337 338 339 340 341 342 343 344 345 346 347 348 349 350 351 352 353 354 355 356 357 358 359 360 361 362 363 364 365 366 367 368 369 370 371 372 373 374 375 376 377 378 379 380 381 382 383 384 385 386 387 388 389 390 391 392 393 394 395 396 397 398 399 400 401 402 403 404 405 406 407 408 409 410 411 412 413 414 415 416 417 418 419 420 421 422 423 424 425 426 427 428 429 430 431 432 433 434 435 436 437 438 439 440 441 442 443 444 445 446 447 448 449 450 451 452 453 454 455 456 457 458 459 460 461 462 463 464 465 466 467 468 469 470 471 472 473 474 475 476 477 478 479 480 481 482 483 484 485 

        </DataArray>

        <DataArray type="Int32" Name="offsets" format="ascii">

3 6 9 12 15 18 21 24 27 30 33 36 39 42 45 48 51 54 57 60 63 66 69 72 75 78 81 84 87 90 93 96 99 102 105 108 111 114 117 120 123 126 129 132 135 138 141 144 147 150 153 156 159 162 165 168 171 174 177 180 183 186 189 192 195 198 201 204 207 210 213 216 219 222 225 228 231 234 237 240 243 246 249 252 255 258 261 264 267 270 273 276 279 282 285 288 291 294 297 300 303 306 309 312 315 318 321 324 327 330 333 336 339 342 345 348 351 354 357 360 363 366 369 372 375 378 381 384 387 390 393 396 399 402 405 408 411 414 417 420 423 426 429 432 435 438 441 444 447 450 453 456 459 462 465 468 471 474 477 480 483 486 

        </DataArray>

        <DataArray type="Int32" Name="types" format="ascii">

5 5 5 5 5 5 5 5 5 5 5 5 5 5 5 5 5 5 5 5 5 5 5 5 5 5 5 5 5 5 5 5 5 5 5 5 5 5 5 5 5 5 5 5 5 5 5 5 5 5 5 5 5 5 5 5 5 5 5 5 5 5 5 5 5 5 5 5 5 5 5 5 5 5 5 5 5 5 5 5 5 5 5 5 5 5 5 5 5 5 5 5 5 5 5 5 5 5 5 5 5 5 5 5 5 5 5 5 5 5 5 5 5 5 5 5 5 5 5 5 5 5 5 5 5 5 5 5 5 5 5 5 5 5 5 5 5 5 5 5 5 5 5 5 5 5 5 5 5 5 5 5 5 5 5 5 5 5 5 5 5 5 

        </DataArray>

      </Cells>

    </Piece>

  </UnstructuredGrid>

</VTKFile>

