<?xml version="1.0"?>

<VTKFile type="UnstructuredGrid" version="0.1">

  <UnstructuredGrid>

    <Piece NumberOfPoints="486" NumberOfCells="162">

      <PointData>

        <DataArray type="Float64" Name="K" format="ascii">

1.06680585589502486e+00
1.06680585589502486e+00
1.06680585589502486e+00
1.04230804870315552e+00
1.04230804870315552e+00
1.04230804870315552e+00
9.83262715574942936e-01
9.83262715574942936e-01
9.83262715574942936e-01
1.04831161308523235e+00
1.04831161308523235e+00
1.04831161308523235e+00
9.68939170804746341e-01
9.68939170804746341e-01
9.68939170804746341e-01
1.02241827626466608e+00
1.02241827626466608e+00
1.02241827626466608e+00
1.01782948948211538e+00
1.01782948948211538e+00
1.01782948948211538e+00
9.29423280281313380e-01
9.29423280281313380e-01
9.29423280281313380e-01
9.26716802497019376e-01
9.26716802497019376e-01
9.26716802497019376e-01
9.25903257729760787e-01
9.25903257729760787e-01
9.25903257729760787e-01
1.00040576882485466e+00
1.00040576882485466e+00
1.00040576882485466e+00
1.01900890197687244e+00
1.01900890197687244e+00
1.01900890197687244e+00
9.45768591441401019e-01
9.45768591441401019e-01
9.45768591441401019e-01
9.81082771614205651e-01
9.81082771614205651e-01
9.81082771614205651e-01
9.58986603045839603e-01
9.58986603045839603e-01
9.58986603045839603e-01
9.36750878237711415e-01
9.36750878237711415e-01
9.36750878237711415e-01
1.07407413517267702e+00
1.07407413517267702e+00
1.07407413517267702e+00
9.72313558944750134e-01
9.72313558944750134e-01
9.72313558944750134e-01
9.86255932353234832e-01
9.86255932353234832e-01
9.86255932353234832e-01
9.37738273432271896e-01
9.37738273432271896e-01
9.37738273432271896e-01
9.79458265645821946e-01
9.79458265645821946e-01
9.79458265645821946e-01
9.98632302103192204e-01
9.98632302103192204e-01
9.98632302103192204e-01
9.89019304755303530e-01
9.89019304755303530e-01
9.89019304755303530e-01
1.05969567384611607e+00
1.05969567384611607e+00
1.05969567384611607e+00
9.59475611997750222e-01
9.59475611997750222e-01
9.59475611997750222e-01
1.04196209259718620e+00
1.04196209259718620e+00
1.04196209259718620e+00
1.04303890785409514e+00
1.04303890785409514e+00
1.04303890785409514e+00
1.03525731927118669e+00
1.03525731927118669e+00
1.03525731927118669e+00
1.01222744079863891e+00
1.01222744079863891e+00
1.01222744079863891e+00
9.38169458734498529e-01
9.38169458734498529e-01
9.38169458734498529e-01
9.44552215873204482e-01
9.44552215873204482e-01
9.44552215873204482e-01
9.78488297475169189e-01
9.78488297475169189e-01
9.78488297475169189e-01
9.73350506389961567e-01
9.73350506389961567e-01
9.73350506389961567e-01
1.01242792164262529e+00
1.01242792164262529e+00
1.01242792164262529e+00
9.63047503363607560e-01
9.63047503363607560e-01
9.63047503363607560e-01
1.03348311563094652e+00
1.03348311563094652e+00
1.03348311563094652e+00
1.02278091252129788e+00
1.02278091252129788e+00
1.02278091252129788e+00
9.12920715824925844e-01
9.12920715824925844e-01
9.12920715824925844e-01
9.11363332532696746e-01
9.11363332532696746e-01
9.11363332532696746e-01
1.00675496921331087e+00
1.00675496921331087e+00
1.00675496921331087e+00
9.39565414272838129e-01
9.39565414272838129e-01
9.39565414272838129e-01
1.03800553611348079e+00
1.03800553611348079e+00
1.03800553611348079e+00
9.44769658340584573e-01
9.44769658340584573e-01
9.44769658340584573e-01
1.01161706265618823e+00
1.01161706265618823e+00
1.01161706265618823e+00
9.99448887451547252e-01
9.99448887451547252e-01
9.99448887451547252e-01
9.17115030112420015e-01
9.17115030112420015e-01
9.17115030112420015e-01
9.74390078530317783e-01
9.74390078530317783e-01
9.74390078530317783e-01
9.72900654177783153e-01
9.72900654177783153e-01
9.72900654177783153e-01
9.56254369308827901e-01
9.56254369308827901e-01
9.56254369308827901e-01
1.02760627304128516e+00
1.02760627304128516e+00
1.02760627304128516e+00
9.82441741222235931e-01
9.82441741222235931e-01
9.82441741222235931e-01
9.35380422622509977e-01
9.35380422622509977e-01
9.35380422622509977e-01
1.01683313697488598e+00
1.01683313697488598e+00
1.01683313697488598e+00
9.61915293894342827e-01
9.61915293894342827e-01
9.61915293894342827e-01
1.03414648541601162e+00
1.03414648541601162e+00
1.03414648541601162e+00
9.17735334026215765e-01
9.17735334026215765e-01
9.17735334026215765e-01
1.01049950111812969e+00
1.01049950111812969e+00
1.01049950111812969e+00
1.01634762803817957e+00
1.01634762803817957e+00
1.01634762803817957e+00
9.74093531871521923e-01
9.74093531871521923e-01
9.74093531871521923e-01
1.01417998748567029e+00
1.01417998748567029e+00
1.01417998748567029e+00
9.95555253807845708e-01
9.95555253807845708e-01
9.95555253807845708e-01
9.92560053873340342e-01
9.92560053873340342e-01
9.92560053873340342e-01
9.54638957161751067e-01
9.54638957161751067e-01
9.54638957161751067e-01
1.01809801933667110e+00
1.01809801933667110e+00
1.01809801933667110e+00
9.84807304679129136e-01
9.84807304679129136e-01
9.84807304679129136e-01
1.02767085470964670e+00
1.02767085470964670e+00
1.02767085470964670e+00
1.04486754050351749e+00
1.04486754050351749e+00
1.04486754050351749e+00
1.03777050854141262e+00
1.03777050854141262e+00
1.03777050854141262e+00
9.72602939595309635e-01
9.72602939595309635e-01
9.72602939595309635e-01
1.01612277247161820e+00
1.01612277247161820e+00
1.01612277247161820e+00
9.21915416418279676e-01
9.21915416418279676e-01
9.21915416418279676e-01
1.05436977012920829e+00
1.05436977012920829e+00
1.05436977012920829e+00
1.05198285544059478e+00
1.05198285544059478e+00
1.05198285544059478e+00
9.91261950073836773e-01
9.91261950073836773e-01
9.91261950073836773e-01
9.30176108835656601e-01
9.30176108835656601e-01
9.30176108835656601e-01
1.01165211681193989e+00
1.01165211681193989e+00
1.01165211681193989e+00
9.38635156113352243e-01
9.38635156113352243e-01
9.38635156113352243e-01
1.07258206528595346e+00
1.07258206528595346e+00
1.07258206528595346e+00
9.39794685818860831e-01
9.39794685818860831e-01
9.39794685818860831e-01
1.02075304882527673e+00
1.02075304882527673e+00
1.02075304882527673e+00
9.91522166307094666e-01
9.91522166307094666e-01
9.91522166307094666e-01
1.05091210801354507e+00
1.05091210801354507e+00
1.05091210801354507e+00
9.87910527613889866e-01
9.87910527613889866e-01
9.87910527613889866e-01
9.50092800329610521e-01
9.50092800329610521e-01
9.50092800329610521e-01
1.01794846380470672e+00
1.01794846380470672e+00
1.01794846380470672e+00
9.79522497207000020e-01
9.79522497207000020e-01
9.79522497207000020e-01
1.08752413722813812e+00
1.08752413722813812e+00
1.08752413722813812e+00
1.04040178451962717e+00
1.04040178451962717e+00
1.04040178451962717e+00
1.07348706128127103e+00
1.07348706128127103e+00
1.07348706128127103e+00
1.09653879104758878e+00
1.09653879104758878e+00
1.09653879104758878e+00
9.77685560322355873e-01
9.77685560322355873e-01
9.77685560322355873e-01
1.00387622728044201e+00
1.00387622728044201e+00
1.00387622728044201e+00
1.00367722786409130e+00
1.00367722786409130e+00
1.00367722786409130e+00
1.07043653052234933e+00
1.07043653052234933e+00
1.07043653052234933e+00
9.91979733043520606e-01
9.91979733043520606e-01
9.91979733043520606e-01
1.06586224692706200e+00
1.06586224692706200e+00
1.06586224692706200e+00
9.79705958141739996e-01
9.79705958141739996e-01
9.79705958141739996e-01
9.94655402883354078e-01
9.94655402883354078e-01
9.94655402883354078e-01
9.62389386030218397e-01
9.62389386030218397e-01
9.62389386030218397e-01
9.20923412120962848e-01
9.20923412120962848e-01
9.20923412120962848e-01
1.06342948148467809e+00
1.06342948148467809e+00
1.06342948148467809e+00
1.00447329552534814e+00
1.00447329552534814e+00
1.00447329552534814e+00
1.06458059973530172e+00
1.06458059973530172e+00
1.06458059973530172e+00
1.01085843782150087e+00
1.01085843782150087e+00
1.01085843782150087e+00
9.48890709809265709e-01
9.48890709809265709e-01
9.48890709809265709e-01
9.97887953971726915e-01
9.97887953971726915e-01
9.97887953971726915e-01
1.02009577676328633e+00
1.02009577676328633e+00
1.02009577676328633e+00
9.60035644991100612e-01
9.60035644991100612e-01
9.60035644991100612e-01
1.02225270640009547e+00
1.02225270640009547e+00
1.02225270640009547e+00
9.88522638526855402e-01
9.88522638526855402e-01
9.88522638526855402e-01
1.00976363485615050e+00
1.00976363485615050e+00
1.00976363485615050e+00
9.31637146769752511e-01
9.31637146769752511e-01
9.31637146769752511e-01
9.50197133309560682e-01
9.50197133309560682e-01
9.50197133309560682e-01
1.07938659469135834e+00
1.07938659469135834e+00
1.07938659469135834e+00
9.84703621833153853e-01
9.84703621833153853e-01
9.84703621833153853e-01
9.80884791295774328e-01
9.80884791295774328e-01
9.80884791295774328e-01
9.97854164896592399e-01
9.97854164896592399e-01
9.97854164896592399e-01
1.03840623261643406e+00
1.03840623261643406e+00
1.03840623261643406e+00
1.01552011419402510e+00
1.01552011419402510e+00
1.01552011419402510e+00
1.08454806312634222e+00
1.08454806312634222e+00
1.08454806312634222e+00
9.84192279391951974e-01
9.84192279391951974e-01
9.84192279391951974e-01
1.01844261212016485e+00
1.01844261212016485e+00
1.01844261212016485e+00
9.88176359588155195e-01
9.88176359588155195e-01
9.88176359588155195e-01
1.00089971379681719e+00
1.00089971379681719e+00
1.00089971379681719e+00
1.07301909540287754e+00
1.07301909540287754e+00
1.07301909540287754e+00
9.90100155481223210e-01
9.90100155481223210e-01
9.90100155481223210e-01
9.90294744702658658e-01
9.90294744702658658e-01
9.90294744702658658e-01
1.05828855456695092e+00
1.05828855456695092e+00
1.05828855456695092e+00
9.86717536936661088e-01
9.86717536936661088e-01
9.86717536936661088e-01
1.00708139809081576e+00
1.00708139809081576e+00
1.00708139809081576e+00
1.02218318870117497e+00
1.02218318870117497e+00
1.02218318870117497e+00
1.05249151659728390e+00
1.05249151659728390e+00
1.05249151659728390e+00
1.09304298533516087e+00
1.09304298533516087e+00
1.09304298533516087e+00
9.84388575181659231e-01
9.84388575181659231e-01
9.84388575181659231e-01
9.54250225869264113e-01
9.54250225869264113e-01
9.54250225869264113e-01
1.08013702525343347e+00
1.08013702525343347e+00
1.08013702525343347e+00
9.76422433654613564e-01
9.76422433654613564e-01
9.76422433654613564e-01
9.96526456129154692e-01
9.96526456129154692e-01
9.96526456129154692e-01
1.01004540157121281e+00
1.01004540157121281e+00
1.01004540157121281e+00
9.89228886959386822e-01
9.89228886959386822e-01
9.89228886959386822e-01
1.08441779919828440e+00
1.08441779919828440e+00
1.08441779919828440e+00
9.74426438935122707e-01
9.74426438935122707e-01
9.74426438935122707e-01
1.06759456816938969e+00
1.06759456816938969e+00
1.06759456816938969e+00
1.06797274695821409e+00
1.06797274695821409e+00
1.06797274695821409e+00
1.05222515526611349e+00
1.05222515526611349e+00
1.05222515526611349e+00
1.02956787294584307e+00
1.02956787294584307e+00
1.02956787294584307e+00
1.00105243062439841e+00
1.00105243062439841e+00
1.00105243062439841e+00
1.09566097758835546e+00
1.09566097758835546e+00
1.09566097758835546e+00
9.80927032094090490e-01
9.80927032094090490e-01
9.80927032094090490e-01
9.87347864169329403e-01
9.87347864169329403e-01
9.87347864169329403e-01
9.77297447494337890e-01
9.77297447494337890e-01
9.77297447494337890e-01
1.07129380905006388e+00
1.07129380905006388e+00
1.07129380905006388e+00
1.03961078616367897e+00
1.03961078616367897e+00
1.03961078616367897e+00
1.09319259253445056e+00
1.09319259253445056e+00
1.09319259253445056e+00
1.03284202982351281e+00
1.03284202982351281e+00
1.03284202982351281e+00
9.92613618837302703e-01
9.92613618837302703e-01
9.92613618837302703e-01
9.90547128063148596e-01
9.90547128063148596e-01
9.90547128063148596e-01
9.93471531116696616e-01
9.93471531116696616e-01
9.93471531116696616e-01
9.70316420159952342e-01
9.70316420159952342e-01
9.70316420159952342e-01
1.00741760825067583e+00
1.00741760825067583e+00
1.00741760825067583e+00
1.06717774428317802e+00
1.06717774428317802e+00
1.06717774428317802e+00
9.98341050923776674e-01
9.98341050923776674e-01
9.98341050923776674e-01


        </DataArray>

      </PointData>

      <CellData/>

      <Points>

        <DataArray type="Float64" NumberOfComponents="3" format="ascii">

0.1082531754723032 0.6875000000007816 0 0.23533274979922561 0.77093399389351469 0 0.10409951422139101 0.81206782209691231 0 0.23533274979922561 0.77093399389351469 0 0.1082531754723032 0.6875000000007816 0 0.21809253452218619 0.65480892822618109 0 0.24418615484441761 0.35773612382016978 0 0.121259140952891 0.43112117036853742 0 0.1082531754734323 0.31250000000117473 0 0.75000000000057243 0.35048094716480432 0 0.88173731489851925 0.33077402607778361 0 0.81242894672211508 0.45500248311961472 0 0.121259140952891 0.43112117036853742 0 0.24418615484441761 0.35773612382016978 0 0.22257735880419699 0.47344721641341742 0 0.81242894672211508 0.45500248311961472 0 0.88173731489851925 0.33077402607778361 0 0.915464298762109 0.43749999999886913 0 0 0.62500000000121547 0 0 0.50000000000206146 0 0.1371230538040123 0.56179824718362847 0 0.82212678063041267 0.67678595194836966 0 0.89051480781310632 0.79665793440246835 0 0.76243180583607129 0.78687675331113149 0 0.76243180583607129 0.78687675331113149 0 0.69010814643829166 0.89298495739101336 0 0.62844955668446423 0.7850749770380413 0 0.89051480781310632 0.79665793440246835 0 0.82212678063041267 0.67678595194836966 0 0.92266244547590082 0.68749999999917555 0 0 0.50000000000206146 0 0.121259140952891 0.43112117036853742 0 0.1371230538040123 0.56179824718362847 0 0.1082531754723032 0.6875000000007816 0 0 0.62500000000121547 0 0.1371230538040123 0.56179824718362847 0 0.75000000000032374 0.56698729811007709 0 0.88927506082488361 0.56409486310635837 0 0.82212678063041267 0.67678595194836966 0 0.81242894672211508 0.45500248311961472 0 0.88927506082488361 0.56409486310635837 0 0.75000000000032374 0.56698729811007709 0 0.69851598570178741 0.68211701800612057 0 0.56496004948275869 0.67675037307860475 0 0.62752533658682441 0.56838075195614346 0 0.69851598570178741 0.68211701800612057 0 0.76243180583607129 0.78687675331113149 0 0.62844955668446423 0.7850749770380413 0 0.23533274979922561 0.77093399389351469 0 0.18802967116092181 0.89415349436770275 0 0.10409951422139101 0.81206782209691231 0 0.121259140952891 0.43112117036853742 0 0.22257735880419699 0.47344721641341742 0 0.1371230538040123 0.56179824718362847 0 0.75000000000032374 0.56698729811007709 0 0.69851598570178741 0.68211701800612057 0 0.62752533658682441 0.56838075195614346 0 0.56496004948275869 0.67675037307860475 0 0.69851598570178741 0.68211701800612057 0 0.62844955668446423 0.7850749770380413 0 0.1371230538040123 0.56179824718362847 0 0.22257735880419699 0.47344721641341742 0 0.26982811998763367 0.56544650815856912 0 0.21809253452218619 0.65480892822618109 0 0.1371230538040123 0.56179824718362847 0 0.26982811998763367 0.56544650815856912 0 0.24418615484441761 0.35773612382016978 0 0.1082531754734323 0.31250000000117473 0 0.20767261601459541 0.25628918442207171 0 0.88173731489851925 0.33077402607778361 0 0.75000000000057243 0.35048094716480432 0 0.79891106056046712 0.25007334953587562 0 0.75000000000032374 0.56698729811007709 0 0.82212678063041267 0.67678595194836966 0 0.69851598570178741 0.68211701800612057 0 0.81249999999950517 0.1082531754733404 0 0.89658421694297741 0.1933620068391701 0 0.79891106056046712 0.25007334953587562 0 0.81249999999950517 0.1082531754733404 0 0.79891106056046712 0.25007334953587562 0 0.73983916756365475 0.17530677078674589 0 0.23533274979922561 0.77093399389351469 0 0.21809253452218619 0.65480892822618109 0 0.32607333794064219 0.67760114260606152 0 0.1082531754723032 0.6875000000007816 0 0.1371230538040123 0.56179824718362847 0 0.21809253452218619 0.65480892822618109 0 0.69851598570178741 0.68211701800612057 0 0.82212678063041267 0.67678595194836966 0 0.76243180583607129 0.78687675331113149 0 0.69010814643829166 0.89298495739101336 0 0.76243180583607129 0.78687675331113149 0 0.80886664387416207 0.89717308644237903 0 0.43750000000181222 0.89174682452709564 0 0.31258827852827581 0.89214793616708443 0 0.37776173212361452 0.78514649317305008 0 0.43750000000181222 0.89174682452709564 0 0.37500000000156292 1 0 0.31258827852827581 0.89214793616708443 0 0.121259140952891 0.43112117036853742 0 0 0.37500000000156292 0 0.1082531754734323 0.31250000000117473 0 0.50000000000206146 1 0 0.37500000000156292 1 0 0.43750000000181222 0.89174682452709564 0 0.31258827852827581 0.89214793616708443 0 0.18802967116092181 0.89415349436770275 0 0.23533274979922561 0.77093399389351469 0 0 0.50000000000206146 0 0 0.37500000000156292 0 0.121259140952891 0.43112117036853742 0 0.62844955668446423 0.7850749770380413 0 0.69010814643829166 0.89298495739101336 0 0.56327595140699671 0.89211526915426331 0 0.69010814643829166 0.89298495739101336 0 0.62500000000121547 1 0 0.56327595140699671 0.89211526915426331 0 0.25000000000104189 1 0 0.18802967116092181 0.89415349436770275 0 0.31258827852827581 0.89214793616708443 0 0.50000000000206146 1 0 0.43750000000181222 0.89174682452709564 0 0.56327595140699671 0.89211526915426331 0 0.56249999999885147 0.1082531754730395 0 0.62499999999901068 0 0 0.68749999999926592 0.1082531754732875 0 1 0.49999999999869221 0 1 0.62499999999901068 0 0.88927506082488361 0.56409486310635837 0 0 0.25000000000104189 0 0.12076953676380731 0.18690935762408761 0 0.1082531754734323 0.31250000000117473 0 0.49999999999869221 0 0 0.62499999999901068 0 0 0.56249999999885147 0.1082531754730395 0 0.62500000000121547 1 0 0.50000000000206146 1 0 0.56327595140699671 0.89211526915426331 0 0.37500000000156292 1 0 0.25000000000104189 1 0 0.31258827852827581 0.89214793616708443 0 0.31281086598417152 0.10449318608631281 0 0.37499999999904599 0 0 0.43749999999910871 0.1082531754729984 0 0.43750000000181222 0.89174682452709564 0 0.37776173212361452 0.78514649317305008 0 0.50046028868828263 0.78376912307435687 0 0 0.37500000000156292 0 0 0.25000000000104189 0 0.1082531754734323 0.31250000000117473 0 0.49999999999869221 0 0 0.56249999999885147 0.1082531754730395 0 0.43749999999910871 0.1082531754729984 0 0.43750000000181222 0.89174682452709564 0 0.50046028868828263 0.78376912307435687 0 0.56327595140699671 0.89211526915426331 0 0.74999999999934042 0 0 0.81249999999950517 0.1082531754733404 0 0.68749999999926592 0.1082531754732875 0 0.37499999999904599 0 0 0.49999999999869221 0 0 0.43749999999910871 0.1082531754729984 0 0.25000000000104189 1 0 0.12500000000052089 1 0 0.18802967116092181 0.89415349436770275 0 0.50046028868828263 0.78376912307435687 0 0.62844955668446423 0.7850749770380413 0 0.56327595140699671 0.89211526915426331 0 0.37776173212361452 0.78514649317305008 0 0.31258827852827581 0.89214793616708443 0 0.23533274979922561 0.77093399389351469 0 0.62499999999901068 0 0 0.74999999999934042 0 0 0.68749999999926592 0.1082531754732875 0 1 0.74999999999934042 0 1 0.87499999999967015 0 0.89051480781310632 0.79665793440246835 0 0 0.25000000000104189 0 0 0.12500000000052089 0 0.12076953676380731 0.18690935762408761 0 0.74999999999934042 0 0 0.87499999999967015 0 0 0.81249999999950517 0.1082531754733404 0 0.24999999999941069 0 0 0.37499999999904599 0 0 0.31281086598417152 0.10449318608631281 0 0.50046028868828263 0.78376912307435687 0 0.37776173212361452 0.78514649317305008 0 0.44078402250377968 0.67714785211715212 0 0.68768773896438518 0.4586835206367198 0 0.75000000000032374 0.56698729811007709 0 0.62752533658682441 0.56838075195614346 0 0.31411863959822661 0.24965544328045999 0 0.37953773393552892 0.34812185820708452 0 0.24418615484441761 0.35773612382016978 0 0.68768773896438518 0.4586835206367198 0 0.81242894672211508 0.45500248311961472 0 0.75000000000032374 0.56698729811007709 0 1 0.24999999999941069 0 1 0.37499999999904599 0 0.88173731489851925 0.33077402607778361 0 0 0.75000000000034761 0 0 0.62500000000121547 0 0.1082531754723032 0.6875000000007816 0 0.50048844149666749 0.56727788297625459 0 0.44078402250377968 0.67714785211715212 0 0.38694285807596462 0.5672991787102919 0 0.50108503093851109 0.35012252869403671 0 0.44301038174930041 0.45684931552185398 0 0.37953773393552892 0.34812185820708452 0 0.50046028868828263 0.78376912307435687 0 0.56496004948275869 0.67675037307860475 0 0.62844955668446423 0.7850749770380413 0 0.68768773896438518 0.4586835206367198 0 0.75000000000057243 0.35048094716480432 0 0.81242894672211508 0.45500248311961472 0 0.56349980387502452 0.45846841892908402 0 0.62512662990940393 0.35044303886909911 0 0.68768773896438518 0.4586835206367198 0 0.50048844149666749 0.56727788297625459 0 0.38694285807596462 0.5672991787102919 0 0.44301038174930041 0.45684931552185398 0 0.50046028868828263 0.78376912307435687 0 0.44078402250377968 0.67714785211715212 0 0.56496004948275869 0.67675037307860475 0 0.50108503093851109 0.35012252869403671 0 0.37953773393552892 0.34812185820708452 0 0.43750000000200551 0.24222777169198509 0 0.75000000000034761 1 0 0.62500000000121547 1 0 0.69010814643829166 0.89298495739101336 0 0.68768773896438518 0.4586835206367198 0 0.62512662990940393 0.35044303886909911 0 0.75000000000057243 0.35048094716480432 0 0.56496004948275869 0.67675037307860475 0 0.44078402250377968 0.67714785211715212 0 0.50048844149666749 0.56727788297625459 0 0.56349980387502452 0.45846841892908402 0 0.44301038174930041 0.45684931552185398 0 0.50108503093851109 0.35012252869403671 0 0.50048844149666749 0.56727788297625459 0 0.44301038174930041 0.45684931552185398 0 0.56349980387502452 0.45846841892908402 0 0.56349980387502452 0.45846841892908402 0 0.50108503093851109 0.35012252869403671 0 0.62512662990940393 0.35044303886909911 0 0.43750000000200551 0.24222777169198509 0 0.37953773393552892 0.34812185820708452 0 0.31411863959822661 0.24965544328045999 0 0.56496004948275869 0.67675037307860475 0 0.50048844149666749 0.56727788297625459 0 0.62752533658682441 0.56838075195614346 0 0.56349980387502452 0.45846841892908402 0 0.68768773896438518 0.4586835206367198 0 0.62752533658682441 0.56838075195614346 0 0.50048844149666749 0.56727788297625459 0 0.56349980387502452 0.45846841892908402 0 0.62752533658682441 0.56838075195614346 0 0.75000000000057243 0.35048094716480432 0 0.62512662990940393 0.35044303886909911 0 0.68668231842078242 0.24762892664808989 0 0.50108503093851109 0.35012252869403671 0 0.43750000000200551 0.24222777169198509 0 0.56250000000143974 0.2422277716920859 0 0.62512662990940393 0.35044303886909911 0 0.50108503093851109 0.35012252869403671 0 0.56250000000143974 0.2422277716920859 0 0.68668231842078242 0.24762892664808989 0 0.62512662990940393 0.35044303886909911 0 0.56250000000143974 0.2422277716920859 0 0.22257735880419699 0.47344721641341742 0 0.24418615484441761 0.35773612382016978 0 0.32815957677880009 0.4577243358118348 0 0.12076953676380731 0.18690935762408761 0 0.19185372118111221 0.092925648673580788 0 0.25103557339309318 0.17464499738446629 0 0.20767261601459541 0.25628918442207171 0 0.12076953676380731 0.18690935762408761 0 0.25103557339309318 0.17464499738446629 0 0 0.87499999999950151 0 0 0.75000000000034761 0 0.10409951422139101 0.81206782209691231 0 0.1249999999997731 0 0 0.24999999999941069 0 0 0.19185372118111221 0.092925648673580788 0 1 0.1249999999997731 0 1 0.24999999999941069 0 0.89658421694297741 0.1933620068391701 0 0.88927506082488361 0.56409486310635837 0 0.81242894672211508 0.45500248311961472 0 0.915464298762109 0.43749999999886913 0 0.87499999999950151 1 0 0.75000000000034761 1 0 0.80886664387416207 0.89717308644237903 0 0.75000000000034761 1 0 0.69010814643829166 0.89298495739101336 0 0.80886664387416207 0.89717308644237903 0 0.82212678063041267 0.67678595194836966 0 0.88927506082488361 0.56409486310635837 0 0.92266244547590082 0.68749999999917555 0 0 0.75000000000034761 0 0.1082531754723032 0.6875000000007816 0 0.10409951422139101 0.81206782209691231 0 0.24999999999941069 0 0 0.31281086598417152 0.10449318608631281 0 0.19185372118111221 0.092925648673580788 0 1 0.24999999999941069 0 0.88173731489851925 0.33077402607778361 0 0.89658421694297741 0.1933620068391701 0 0.32815957677880009 0.4577243358118348 0 0.38694285807596462 0.5672991787102919 0 0.26982811998763367 0.56544650815856912 0 0.76243180583607129 0.78687675331113149 0 0.89051480781310632 0.79665793440246835 0 0.80886664387416207 0.89717308644237903 0 0.38694285807596462 0.5672991787102919 0 0.44078402250377968 0.67714785211715212 0 0.32607333794064219 0.67760114260606152 0 0.37776173212361452 0.78514649317305008 0 0.23533274979922561 0.77093399389351469 0 0.32607333794064219 0.67760114260606152 0 1 0.49999999999869221 0 0.88927506082488361 0.56409486310635837 0 0.915464298762109 0.43749999999886913 0 0.88173731489851925 0.33077402607778361 0 1 0.37499999999904599 0 0.915464298762109 0.43749999999886913 0 0.24418615484441761 0.35773612382016978 0 0.37953773393552892 0.34812185820708452 0 0.32815957677880009 0.4577243358118348 0 0.44301038174930041 0.45684931552185398 0 0.38694285807596462 0.5672991787102919 0 0.32815957677880009 0.4577243358118348 0 0.88927506082488361 0.56409486310635837 0 1 0.62499999999901068 0 0.92266244547590082 0.68749999999917555 0 1 0.74999999999934042 0 0.89051480781310632 0.79665793440246835 0 0.92266244547590082 0.68749999999917555 0 0 1 0 0 0.87499999999950151 0 0.091506350946494744 0.90849364905351082 0 1 1 0 0.87499999999950151 1 0 0.90849364905363228 0.90849364905367769 0 0 0 0 0.1249999999997731 0 0 0.091506350946417708 0.091506350946618076 0 0 0.12500000000052089 0 0 0 0 0.091506350946417708 0.091506350946618076 0 1 0 0 1 0.1249999999997731 0 0.90849364905355434 0.091506350946296292 0 0.87499999999967015 0 0 1 0 0 0.90849364905355434 0.091506350946296292 0 0.12500000000052089 1 0 0 1 0 0.091506350946494744 0.90849364905351082 0 1 0.87499999999967015 0 1 1 0 0.90849364905363228 0.90849364905367769 0 0.38694285807596462 0.5672991787102919 0 0.32607333794064219 0.67760114260606152 0 0.26982811998763367 0.56544650815856912 0 0.31411863959822661 0.24965544328045999 0 0.24418615484441761 0.35773612382016978 0 0.20767261601459541 0.25628918442207171 0 0.1082531754734323 0.31250000000117473 0 0.12076953676380731 0.18690935762408761 0 0.20767261601459541 0.25628918442207171 0 0.75000000000057243 0.35048094716480432 0 0.68668231842078242 0.24762892664808989 0 0.79891106056046712 0.25007334953587562 0 0.22257735880419699 0.47344721641341742 0 0.32815957677880009 0.4577243358118348 0 0.26982811998763367 0.56544650815856912 0 0.44078402250377968 0.67714785211715212 0 0.37776173212361452 0.78514649317305008 0 0.32607333794064219 0.67760114260606152 0 0.89658421694297741 0.1933620068391701 0 0.88173731489851925 0.33077402607778361 0 0.79891106056046712 0.25007334953587562 0 1 0.37499999999904599 0 1 0.49999999999869221 0 0.915464298762109 0.43749999999886913 0 0.37953773393552892 0.34812185820708452 0 0.44301038174930041 0.45684931552185398 0 0.32815957677880009 0.4577243358118348 0 0.32607333794064219 0.67760114260606152 0 0.21809253452218619 0.65480892822618109 0 0.26982811998763367 0.56544650815856912 0 1 0.1249999999997731 0 0.89658421694297741 0.1933620068391701 0 0.90849364905355434 0.091506350946296292 0 0 0.87499999999950151 0 0.10409951422139101 0.81206782209691231 0 0.091506350946494744 0.90849364905351082 0 0.1249999999997731 0 0 0.19185372118111221 0.092925648673580788 0 0.091506350946417708 0.091506350946618076 0 1 0.62499999999901068 0 1 0.74999999999934042 0 0.92266244547590082 0.68749999999917555 0 0.18802967116092181 0.89415349436770275 0 0.12500000000052089 1 0 0.091506350946494744 0.90849364905351082 0 0.89051480781310632 0.79665793440246835 0 1 0.87499999999967015 0 0.90849364905363228 0.90849364905367769 0 0.12076953676380731 0.18690935762408761 0 0 0.12500000000052089 0 0.091506350946417708 0.091506350946618076 0 0.81249999999950517 0.1082531754733404 0 0.87499999999967015 0 0 0.90849364905355434 0.091506350946296292 0 0.87499999999950151 1 0 0.80886664387416207 0.89717308644237903 0 0.90849364905363228 0.90849364905367769 0 0.68668231842078242 0.24762892664808989 0 0.62499999999892575 0.17524047358135519 0 0.73983916756365475 0.17530677078674589 0 0.31281086598417152 0.10449318608631281 0 0.43749999999910871 0.1082531754729984 0 0.37500000000232431 0.17524047358384309 0 0.62499999999892575 0.17524047358135519 0 0.56250000000143974 0.2422277716920859 0 0.49999999999934441 0.1752404735815076 0 0.56249999999885147 0.1082531754730395 0 0.68749999999926592 0.1082531754732875 0 0.62499999999892575 0.17524047358135519 0 0.56249999999885147 0.1082531754730395 0 0.62499999999892575 0.17524047358135519 0 0.49999999999934441 0.1752404735815076 0 0.56250000000143974 0.2422277716920859 0 0.43750000000200551 0.24222777169198509 0 0.49999999999934441 0.1752404735815076 0 0.43749999999910871 0.1082531754729984 0 0.56249999999885147 0.1082531754730395 0 0.49999999999934441 0.1752404735815076 0 0.68668231842078242 0.24762892664808989 0 0.56250000000143974 0.2422277716920859 0 0.62499999999892575 0.17524047358135519 0 0.43750000000200551 0.24222777169198509 0 0.31411863959822661 0.24965544328045999 0 0.37500000000232431 0.17524047358384309 0 0.49999999999934441 0.1752404735815076 0 0.43750000000200551 0.24222777169198509 0 0.37500000000232431 0.17524047358384309 0 0.43749999999910871 0.1082531754729984 0 0.49999999999934441 0.1752404735815076 0 0.37500000000232431 0.17524047358384309 0 0.62499999999892575 0.17524047358135519 0 0.68749999999926592 0.1082531754732875 0 0.73983916756365475 0.17530677078674589 0 0.68749999999926592 0.1082531754732875 0 0.81249999999950517 0.1082531754733404 0 0.73983916756365475 0.17530677078674589 0 0.10409951422139101 0.81206782209691231 0 0.18802967116092181 0.89415349436770275 0 0.091506350946494744 0.90849364905351082 0 0.89658421694297741 0.1933620068391701 0 0.81249999999950517 0.1082531754733404 0 0.90849364905355434 0.091506350946296292 0 0.19185372118111221 0.092925648673580788 0 0.12076953676380731 0.18690935762408761 0 0.091506350946417708 0.091506350946618076 0 0.37500000000232431 0.17524047358384309 0 0.31411863959822661 0.24965544328045999 0 0.25103557339309318 0.17464499738446629 0 0.31281086598417152 0.10449318608631281 0 0.37500000000232431 0.17524047358384309 0 0.25103557339309318 0.17464499738446629 0 0.80886664387416207 0.89717308644237903 0 0.89051480781310632 0.79665793440246835 0 0.90849364905363228 0.90849364905367769 0 0.19185372118111221 0.092925648673580788 0 0.31281086598417152 0.10449318608631281 0 0.25103557339309318 0.17464499738446629 0 0.79891106056046712 0.25007334953587562 0 0.68668231842078242 0.24762892664808989 0 0.73983916756365475 0.17530677078674589 0 0.31411863959822661 0.24965544328045999 0 0.20767261601459541 0.25628918442207171 0 0.25103557339309318 0.17464499738446629 0 

        </DataArray>

      </Points>

      <Cells>

        <DataArray type="Int32" Name="connectivity" format="ascii">

0 1 2 3 4 5 6 7 8 9 10 11 12 13 14 15 16 17 18 19 20 21 22 23 24 25 26 27 28 29 30 31 32 33 34 35 36 37 38 39 40 41 42 43 44 45 46 47 48 49 50 51 52 53 54 55 56 57 58 59 60 61 62 63 64 65 66 67 68 69 70 71 72 73 74 75 76 77 78 79 80 81 82 83 84 85 86 87 88 89 90 91 92 93 94 95 96 97 98 99 100 101 102 103 104 105 106 107 108 109 110 111 112 113 114 115 116 117 118 119 120 121 122 123 124 125 126 127 128 129 130 131 132 133 134 135 136 137 138 139 140 141 142 143 144 145 146 147 148 149 150 151 152 153 154 155 156 157 158 159 160 161 162 163 164 165 166 167 168 169 170 171 172 173 174 175 176 177 178 179 180 181 182 183 184 185 186 187 188 189 190 191 192 193 194 195 196 197 198 199 200 201 202 203 204 205 206 207 208 209 210 211 212 213 214 215 216 217 218 219 220 221 222 223 224 225 226 227 228 229 230 231 232 233 234 235 236 237 238 239 240 241 242 243 244 245 246 247 248 249 250 251 252 253 254 255 256 257 258 259 260 261 262 263 264 265 266 267 268 269 270 271 272 273 274 275 276 277 278 279 280 281 282 283 284 285 286 287 288 289 290 291 292 293 294 295 296 297 298 299 300 301 302 303 304 305 306 307 308 309 310 311 312 313 314 315 316 317 318 319 320 321 322 323 324 325 326 327 328 329 330 331 332 333 334 335 336 337 338 339 340 341 342 343 344 345 346 347 348 349 350 351 352 353 354 355 356 357 358 359 360 361 362 363 364 365 366 367 368 369 370 371 372 373 374 375 376 377 378 379 380 381 382 383 384 385 386 387 388 389 390 391 392 393 394 395 396 397 398 399 400 401 402 403 404 405 406 407 408 409 410 411 412 413 414 415 416 417 418 419 420 421 422 423 424 425 426 427 428 429 430 431 432 433 434 435 436 437 438 439 440 441 442 443 444 445 446 447 448 449 450 451 452 453 454 455 456 457 458 459 460 461 462 463 464 465 466 467 468 469 470 471 472 473 474 475 476 477 478 479 480 481 482 483 484 485 

        </DataArray>

        <DataArray type="Int32" Name="offsets" format="ascii">

3 6 9 12 15 18 21 24 27 30 33 36 39 42 45 48 51 54 57 60 63 66 69 72 75 78 81 84 87 90 93 96 99 102 105 108 111 114 117 120 123 126 129 132 135 138 141 144 147 150 153 156 159 162 165 168 171 174 177 180 183 186 189 192 195 198 201 204 207 210 213 216 219 222 225 228 231 234 237 240 243 246 249 252 255 258 261 264 267 270 273 276 279 282 285 288 291 294 297 300 303 306 309 312 315 318 321 324 327 330 333 336 339 342 345 348 351 354 357 360 363 366 369 372 375 378 381 384 387 390 393 396 399 402 405 408 411 414 417 420 423 426 429 432 435 438 441 444 447 450 453 456 459 462 465 468 471 474 477 480 483 486 

        </DataArray>

        <DataArray type="Int32" Name="types" format="ascii">

5 5 5 5 5 5 5 5 5 5 5 5 5 5 5 5 5 5 5 5 5 5 5 5 5 5 5 5 5 5 5 5 5 5 5 5 5 5 5 5 5 5 5 5 5 5 5 5 5 5 5 5 5 5 5 5 5 5 5 5 5 5 5 5 5 5 5 5 5 5 5 5 5 5 5 5 5 5 5 5 5 5 5 5 5 5 5 5 5 5 5 5 5 5 5 5 5 5 5 5 5 5 5 5 5 5 5 5 5 5 5 5 5 5 5 5 5 5 5 5 5 5 5 5 5 5 5 5 5 5 5 5 5 5 5 5 5 5 5 5 5 5 5 5 5 5 5 5 5 5 5 5 5 5 5 5 5 5 5 5 5 5 

        </DataArray>

      </Cells>

    </Piece>

  </UnstructuredGrid>

</VTKFile>

