<?xml version="1.0"?>

<VTKFile type="UnstructuredGrid" version="0.1">

  <UnstructuredGrid>

    <Piece NumberOfPoints="486" NumberOfCells="162">

      <PointData>

        <DataArray type="Float64" Name="K" format="ascii">

1.02264276788102060e+00
1.02264276788102060e+00
1.02264276788102060e+00
1.00814668928792850e+00
1.00814668928792850e+00
1.00814668928792850e+00
9.32247414043349765e-01
9.32247414043349765e-01
9.32247414043349765e-01
9.79523920035801909e-01
9.79523920035801909e-01
9.79523920035801909e-01
9.38129075475168106e-01
9.38129075475168106e-01
9.38129075475168106e-01
9.81931025687091896e-01
9.81931025687091896e-01
9.81931025687091896e-01
9.92305718987719687e-01
9.92305718987719687e-01
9.92305718987719687e-01
9.91862389068227990e-01
9.91862389068227990e-01
9.91862389068227990e-01
1.02989949281186499e+00
1.02989949281186499e+00
1.02989949281186499e+00
9.68617524978671596e-01
9.68617524978671596e-01
9.68617524978671596e-01
9.61786457251484816e-01
9.61786457251484816e-01
9.61786457251484816e-01
1.00604595174925349e+00
1.00604595174925349e+00
1.00604595174925349e+00
9.75798406314747568e-01
9.75798406314747568e-01
9.75798406314747568e-01
9.71976656807141293e-01
9.71976656807141293e-01
9.71976656807141293e-01
1.00204773019715554e+00
1.00204773019715554e+00
1.00204773019715554e+00
1.02419049398051443e+00
1.02419049398051443e+00
1.02419049398051443e+00
1.02743103678075109e+00
1.02743103678075109e+00
1.02743103678075109e+00
9.47980994389513332e-01
9.47980994389513332e-01
9.47980994389513332e-01
9.98954375431748809e-01
9.98954375431748809e-01
9.98954375431748809e-01
1.01622998305052015e+00
1.01622998305052015e+00
1.01622998305052015e+00
9.58341691457761047e-01
9.58341691457761047e-01
9.58341691457761047e-01
9.75291301744350303e-01
9.75291301744350303e-01
9.75291301744350303e-01
9.44153339290848326e-01
9.44153339290848326e-01
9.44153339290848326e-01
9.85577429231353386e-01
9.85577429231353386e-01
9.85577429231353386e-01
9.97092277664075266e-01
9.97092277664075266e-01
9.97092277664075266e-01
9.90156004739947804e-01
9.90156004739947804e-01
9.90156004739947804e-01
9.86037756356277439e-01
9.86037756356277439e-01
9.86037756356277439e-01
1.01036458946060415e+00
1.01036458946060415e+00
1.01036458946060415e+00
9.93747713908851082e-01
9.93747713908851082e-01
9.93747713908851082e-01
1.00923217214783123e+00
1.00923217214783123e+00
1.00923217214783123e+00
1.02175110189069174e+00
1.02175110189069174e+00
1.02175110189069174e+00
1.07087000042681812e+00
1.07087000042681812e+00
1.07087000042681812e+00
1.06596905232517747e+00
1.06596905232517747e+00
1.06596905232517747e+00
9.37540969207502517e-01
9.37540969207502517e-01
9.37540969207502517e-01
1.05401941856607917e+00
1.05401941856607917e+00
1.05401941856607917e+00
1.03838375936430571e+00
1.03838375936430571e+00
1.03838375936430571e+00
9.56395674117846539e-01
9.56395674117846539e-01
9.56395674117846539e-01
1.02808354608718089e+00
1.02808354608718089e+00
1.02808354608718089e+00
1.01903968656546962e+00
1.01903968656546962e+00
1.01903968656546962e+00
1.03917574331874585e+00
1.03917574331874585e+00
1.03917574331874585e+00
1.04421205774540637e+00
1.04421205774540637e+00
1.04421205774540637e+00
1.01951914543151112e+00
1.01951914543151112e+00
1.01951914543151112e+00
9.72105647279231322e-01
9.72105647279231322e-01
9.72105647279231322e-01
9.46137518780112763e-01
9.46137518780112763e-01
9.46137518780112763e-01
1.03762049245155774e+00
1.03762049245155774e+00
1.03762049245155774e+00
1.01966930709388870e+00
1.01966930709388870e+00
1.01966930709388870e+00
1.04891429651813373e+00
1.04891429651813373e+00
1.04891429651813373e+00
1.04020294979524253e+00
1.04020294979524253e+00
1.04020294979524253e+00
1.06327259699610255e+00
1.06327259699610255e+00
1.06327259699610255e+00
9.45022323218404958e-01
9.45022323218404958e-01
9.45022323218404958e-01
1.03854130637849629e+00
1.03854130637849629e+00
1.03854130637849629e+00
1.04919020655019546e+00
1.04919020655019546e+00
1.04919020655019546e+00
9.75488111797942814e-01
9.75488111797942814e-01
9.75488111797942814e-01
1.04045747587985216e+00
1.04045747587985216e+00
1.04045747587985216e+00
1.02492319898850326e+00
1.02492319898850326e+00
1.02492319898850326e+00
1.03193114542644193e+00
1.03193114542644193e+00
1.03193114542644193e+00
1.05244291047357907e+00
1.05244291047357907e+00
1.05244291047357907e+00
9.90808211958127183e-01
9.90808211958127183e-01
9.90808211958127183e-01
9.60313584594203351e-01
9.60313584594203351e-01
9.60313584594203351e-01
9.60836198754244641e-01
9.60836198754244641e-01
9.60836198754244641e-01
9.66188364806650046e-01
9.66188364806650046e-01
9.66188364806650046e-01
1.05176408379291408e+00
1.05176408379291408e+00
1.05176408379291408e+00
1.04543745810084876e+00
1.04543745810084876e+00
1.04543745810084876e+00
9.89555425958608348e-01
9.89555425958608348e-01
9.89555425958608348e-01
9.66412253594345350e-01
9.66412253594345350e-01
9.66412253594345350e-01
9.81634467801876687e-01
9.81634467801876687e-01
9.81634467801876687e-01
1.02439264745695824e+00
1.02439264745695824e+00
1.02439264745695824e+00
1.02692963126530978e+00
1.02692963126530978e+00
1.02692963126530978e+00
9.80966722230205979e-01
9.80966722230205979e-01
9.80966722230205979e-01
9.36657465648834564e-01
9.36657465648834564e-01
9.36657465648834564e-01
1.02221609282955939e+00
1.02221609282955939e+00
1.02221609282955939e+00
9.82402862931387344e-01
9.82402862931387344e-01
9.82402862931387344e-01
9.76949958363024451e-01
9.76949958363024451e-01
9.76949958363024451e-01
9.51086440213251061e-01
9.51086440213251061e-01
9.51086440213251061e-01
1.02127898513310678e+00
1.02127898513310678e+00
1.02127898513310678e+00
9.54600777058099648e-01
9.54600777058099648e-01
9.54600777058099648e-01
1.00888232926680899e+00
1.00888232926680899e+00
1.00888232926680899e+00
9.88379043749864850e-01
9.88379043749864850e-01
9.88379043749864850e-01
9.93837701899230264e-01
9.93837701899230264e-01
9.93837701899230264e-01
9.37455320635612988e-01
9.37455320635612988e-01
9.37455320635612988e-01
9.44414894081447742e-01
9.44414894081447742e-01
9.44414894081447742e-01
9.57662608411212202e-01
9.57662608411212202e-01
9.57662608411212202e-01
9.74317136123813765e-01
9.74317136123813765e-01
9.74317136123813765e-01
9.84440713345316798e-01
9.84440713345316798e-01
9.84440713345316798e-01
9.78957067995252839e-01
9.78957067995252839e-01
9.78957067995252839e-01
9.66445273485076695e-01
9.66445273485076695e-01
9.66445273485076695e-01
9.93157838985774921e-01
9.93157838985774921e-01
9.93157838985774921e-01
9.68588651734237138e-01
9.68588651734237138e-01
9.68588651734237138e-01
9.70387901235574168e-01
9.70387901235574168e-01
9.70387901235574168e-01
9.92340238750648918e-01
9.92340238750648918e-01
9.92340238750648918e-01
9.47506562448650391e-01
9.47506562448650391e-01
9.47506562448650391e-01
1.00036269218921037e+00
1.00036269218921037e+00
1.00036269218921037e+00
9.79013018582141070e-01
9.79013018582141070e-01
9.79013018582141070e-01
1.03147324545878916e+00
1.03147324545878916e+00
1.03147324545878916e+00
1.04491191293210917e+00
1.04491191293210917e+00
1.04491191293210917e+00
1.02437029624332032e+00
1.02437029624332032e+00
1.02437029624332032e+00
9.72959411081145586e-01
9.72959411081145586e-01
9.72959411081145586e-01
9.93863252630662442e-01
9.93863252630662442e-01
9.93863252630662442e-01
1.01330266533244728e+00
1.01330266533244728e+00
1.01330266533244728e+00
9.65717847485353942e-01
9.65717847485353942e-01
9.65717847485353942e-01
1.03305746862750714e+00
1.03305746862750714e+00
1.03305746862750714e+00
1.04707235308170943e+00
1.04707235308170943e+00
1.04707235308170943e+00
1.01520122490849807e+00
1.01520122490849807e+00
1.01520122490849807e+00
9.59950886540987147e-01
9.59950886540987147e-01
9.59950886540987147e-01
9.98968396922299551e-01
9.98968396922299551e-01
9.98968396922299551e-01
1.00135616952198592e+00
1.00135616952198592e+00
1.00135616952198592e+00
1.03575292426007848e+00
1.03575292426007848e+00
1.03575292426007848e+00
9.81821095817085876e-01
9.81821095817085876e-01
9.81821095817085876e-01
1.00517168889753972e+00
1.00517168889753972e+00
1.00517168889753972e+00
9.52052753028237109e-01
9.52052753028237109e-01
9.52052753028237109e-01
9.46511800184485885e-01
9.46511800184485885e-01
9.46511800184485885e-01
9.60402991500974079e-01
9.60402991500974079e-01
9.60402991500974079e-01
9.56274236514517484e-01
9.56274236514517484e-01
9.56274236514517484e-01
1.00846051049066365e+00
1.00846051049066365e+00
1.00846051049066365e+00
9.77557794057515084e-01
9.77557794057515084e-01
9.77557794057515084e-01
1.00543127479887917e+00
1.00543127479887917e+00
1.00543127479887917e+00
9.87424403576000254e-01
9.87424403576000254e-01
9.87424403576000254e-01
1.00496339498661524e+00
1.00496339498661524e+00
1.00496339498661524e+00
9.90324281305221876e-01
9.90324281305221876e-01
9.90324281305221876e-01
1.00787195487169701e+00
1.00787195487169701e+00
1.00787195487169701e+00
9.79072743888447006e-01
9.79072743888447006e-01
9.79072743888447006e-01
9.83549605193540177e-01
9.83549605193540177e-01
9.83549605193540177e-01
9.67627096855481317e-01
9.67627096855481317e-01
9.67627096855481317e-01
9.49997305769477607e-01
9.49997305769477607e-01
9.49997305769477607e-01
9.90724005827586462e-01
9.90724005827586462e-01
9.90724005827586462e-01
9.53790071492874092e-01
9.53790071492874092e-01
9.53790071492874092e-01
1.03479713310873733e+00
1.03479713310873733e+00
1.03479713310873733e+00
9.94945435276926360e-01
9.94945435276926360e-01
9.94945435276926360e-01
1.00640406507792379e+00
1.00640406507792379e+00
1.00640406507792379e+00
9.41064926639550769e-01
9.41064926639550769e-01
9.41064926639550769e-01
9.89246899716906047e-01
9.89246899716906047e-01
9.89246899716906047e-01
1.01011444219782764e+00
1.01011444219782764e+00
1.01011444219782764e+00
1.02728690539974155e+00
1.02728690539974155e+00
1.02728690539974155e+00
1.01817073344532272e+00
1.01817073344532272e+00
1.01817073344532272e+00
9.54081740923449662e-01
9.54081740923449662e-01
9.54081740923449662e-01
1.02245746229880385e+00
1.02245746229880385e+00
1.02245746229880385e+00
9.67027675274399368e-01
9.67027675274399368e-01
9.67027675274399368e-01
9.76753365212452818e-01
9.76753365212452818e-01
9.76753365212452818e-01
9.81813877015357273e-01
9.81813877015357273e-01
9.81813877015357273e-01
9.82952998445890680e-01
9.82952998445890680e-01
9.82952998445890680e-01
1.00011853134702045e+00
1.00011853134702045e+00
1.00011853134702045e+00
1.02793445726450949e+00
1.02793445726450949e+00
1.02793445726450949e+00
1.00570954899209464e+00
1.00570954899209464e+00
1.00570954899209464e+00
1.01595494486287219e+00
1.01595494486287219e+00
1.01595494486287219e+00
1.01909605472358034e+00
1.01909605472358034e+00
1.01909605472358034e+00
9.92006169701933005e-01
9.92006169701933005e-01
9.92006169701933005e-01
1.02520914425075205e+00
1.02520914425075205e+00
1.02520914425075205e+00
1.00258916054485470e+00
1.00258916054485470e+00
1.00258916054485470e+00
9.96262053355953747e-01
9.96262053355953747e-01
9.96262053355953747e-01
1.00079689801102378e+00
1.00079689801102378e+00
1.00079689801102378e+00
1.01743976395431845e+00
1.01743976395431845e+00
1.01743976395431845e+00
1.00043596926385536e+00
1.00043596926385536e+00
1.00043596926385536e+00
9.84567474925704733e-01
9.84567474925704733e-01
9.84567474925704733e-01
1.02788785841288899e+00
1.02788785841288899e+00
1.02788785841288899e+00
9.93248069031932523e-01
9.93248069031932523e-01
9.93248069031932523e-01
9.95253976261001427e-01
9.95253976261001427e-01
9.95253976261001427e-01
1.00677706370063835e+00
1.00677706370063835e+00
1.00677706370063835e+00
1.02384666101861410e+00
1.02384666101861410e+00
1.02384666101861410e+00
9.80715844847251050e-01
9.80715844847251050e-01
9.80715844847251050e-01
1.02793914315155788e+00
1.02793914315155788e+00
1.02793914315155788e+00
9.91710350419899744e-01
9.91710350419899744e-01
9.91710350419899744e-01
9.89044694486706732e-01
9.89044694486706732e-01
9.89044694486706732e-01


        </DataArray>

      </PointData>

      <CellData/>

      <Points>

        <DataArray type="Float64" NumberOfComponents="3" format="ascii">

0.1082531754723032 0.6875000000007816 0 0.23533274979922561 0.77093399389351469 0 0.10409951422139101 0.81206782209691231 0 0.23533274979922561 0.77093399389351469 0 0.1082531754723032 0.6875000000007816 0 0.21809253452218619 0.65480892822618109 0 0.24418615484441761 0.35773612382016978 0 0.121259140952891 0.43112117036853742 0 0.1082531754734323 0.31250000000117473 0 0.75000000000057243 0.35048094716480432 0 0.88173731489851925 0.33077402607778361 0 0.81242894672211508 0.45500248311961472 0 0.121259140952891 0.43112117036853742 0 0.24418615484441761 0.35773612382016978 0 0.22257735880419699 0.47344721641341742 0 0.81242894672211508 0.45500248311961472 0 0.88173731489851925 0.33077402607778361 0 0.915464298762109 0.43749999999886913 0 0 0.62500000000121547 0 0 0.50000000000206146 0 0.1371230538040123 0.56179824718362847 0 0.82212678063041267 0.67678595194836966 0 0.89051480781310632 0.79665793440246835 0 0.76243180583607129 0.78687675331113149 0 0.76243180583607129 0.78687675331113149 0 0.69010814643829166 0.89298495739101336 0 0.62844955668446423 0.7850749770380413 0 0.89051480781310632 0.79665793440246835 0 0.82212678063041267 0.67678595194836966 0 0.92266244547590082 0.68749999999917555 0 0 0.50000000000206146 0 0.121259140952891 0.43112117036853742 0 0.1371230538040123 0.56179824718362847 0 0.1082531754723032 0.6875000000007816 0 0 0.62500000000121547 0 0.1371230538040123 0.56179824718362847 0 0.75000000000032374 0.56698729811007709 0 0.88927506082488361 0.56409486310635837 0 0.82212678063041267 0.67678595194836966 0 0.81242894672211508 0.45500248311961472 0 0.88927506082488361 0.56409486310635837 0 0.75000000000032374 0.56698729811007709 0 0.69851598570178741 0.68211701800612057 0 0.56496004948275869 0.67675037307860475 0 0.62752533658682441 0.56838075195614346 0 0.69851598570178741 0.68211701800612057 0 0.76243180583607129 0.78687675331113149 0 0.62844955668446423 0.7850749770380413 0 0.23533274979922561 0.77093399389351469 0 0.18802967116092181 0.89415349436770275 0 0.10409951422139101 0.81206782209691231 0 0.121259140952891 0.43112117036853742 0 0.22257735880419699 0.47344721641341742 0 0.1371230538040123 0.56179824718362847 0 0.75000000000032374 0.56698729811007709 0 0.69851598570178741 0.68211701800612057 0 0.62752533658682441 0.56838075195614346 0 0.56496004948275869 0.67675037307860475 0 0.69851598570178741 0.68211701800612057 0 0.62844955668446423 0.7850749770380413 0 0.1371230538040123 0.56179824718362847 0 0.22257735880419699 0.47344721641341742 0 0.26982811998763367 0.56544650815856912 0 0.21809253452218619 0.65480892822618109 0 0.1371230538040123 0.56179824718362847 0 0.26982811998763367 0.56544650815856912 0 0.24418615484441761 0.35773612382016978 0 0.1082531754734323 0.31250000000117473 0 0.20767261601459541 0.25628918442207171 0 0.88173731489851925 0.33077402607778361 0 0.75000000000057243 0.35048094716480432 0 0.79891106056046712 0.25007334953587562 0 0.75000000000032374 0.56698729811007709 0 0.82212678063041267 0.67678595194836966 0 0.69851598570178741 0.68211701800612057 0 0.81249999999950517 0.1082531754733404 0 0.89658421694297741 0.1933620068391701 0 0.79891106056046712 0.25007334953587562 0 0.81249999999950517 0.1082531754733404 0 0.79891106056046712 0.25007334953587562 0 0.73983916756365475 0.17530677078674589 0 0.23533274979922561 0.77093399389351469 0 0.21809253452218619 0.65480892822618109 0 0.32607333794064219 0.67760114260606152 0 0.1082531754723032 0.6875000000007816 0 0.1371230538040123 0.56179824718362847 0 0.21809253452218619 0.65480892822618109 0 0.69851598570178741 0.68211701800612057 0 0.82212678063041267 0.67678595194836966 0 0.76243180583607129 0.78687675331113149 0 0.69010814643829166 0.89298495739101336 0 0.76243180583607129 0.78687675331113149 0 0.80886664387416207 0.89717308644237903 0 0.43750000000181222 0.89174682452709564 0 0.31258827852827581 0.89214793616708443 0 0.37776173212361452 0.78514649317305008 0 0.43750000000181222 0.89174682452709564 0 0.37500000000156292 1 0 0.31258827852827581 0.89214793616708443 0 0.121259140952891 0.43112117036853742 0 0 0.37500000000156292 0 0.1082531754734323 0.31250000000117473 0 0.50000000000206146 1 0 0.37500000000156292 1 0 0.43750000000181222 0.89174682452709564 0 0.31258827852827581 0.89214793616708443 0 0.18802967116092181 0.89415349436770275 0 0.23533274979922561 0.77093399389351469 0 0 0.50000000000206146 0 0 0.37500000000156292 0 0.121259140952891 0.43112117036853742 0 0.62844955668446423 0.7850749770380413 0 0.69010814643829166 0.89298495739101336 0 0.56327595140699671 0.89211526915426331 0 0.69010814643829166 0.89298495739101336 0 0.62500000000121547 1 0 0.56327595140699671 0.89211526915426331 0 0.25000000000104189 1 0 0.18802967116092181 0.89415349436770275 0 0.31258827852827581 0.89214793616708443 0 0.50000000000206146 1 0 0.43750000000181222 0.89174682452709564 0 0.56327595140699671 0.89211526915426331 0 0.56249999999885147 0.1082531754730395 0 0.62499999999901068 0 0 0.68749999999926592 0.1082531754732875 0 1 0.49999999999869221 0 1 0.62499999999901068 0 0.88927506082488361 0.56409486310635837 0 0 0.25000000000104189 0 0.12076953676380731 0.18690935762408761 0 0.1082531754734323 0.31250000000117473 0 0.49999999999869221 0 0 0.62499999999901068 0 0 0.56249999999885147 0.1082531754730395 0 0.62500000000121547 1 0 0.50000000000206146 1 0 0.56327595140699671 0.89211526915426331 0 0.37500000000156292 1 0 0.25000000000104189 1 0 0.31258827852827581 0.89214793616708443 0 0.31281086598417152 0.10449318608631281 0 0.37499999999904599 0 0 0.43749999999910871 0.1082531754729984 0 0.43750000000181222 0.89174682452709564 0 0.37776173212361452 0.78514649317305008 0 0.50046028868828263 0.78376912307435687 0 0 0.37500000000156292 0 0 0.25000000000104189 0 0.1082531754734323 0.31250000000117473 0 0.49999999999869221 0 0 0.56249999999885147 0.1082531754730395 0 0.43749999999910871 0.1082531754729984 0 0.43750000000181222 0.89174682452709564 0 0.50046028868828263 0.78376912307435687 0 0.56327595140699671 0.89211526915426331 0 0.74999999999934042 0 0 0.81249999999950517 0.1082531754733404 0 0.68749999999926592 0.1082531754732875 0 0.37499999999904599 0 0 0.49999999999869221 0 0 0.43749999999910871 0.1082531754729984 0 0.25000000000104189 1 0 0.12500000000052089 1 0 0.18802967116092181 0.89415349436770275 0 0.50046028868828263 0.78376912307435687 0 0.62844955668446423 0.7850749770380413 0 0.56327595140699671 0.89211526915426331 0 0.37776173212361452 0.78514649317305008 0 0.31258827852827581 0.89214793616708443 0 0.23533274979922561 0.77093399389351469 0 0.62499999999901068 0 0 0.74999999999934042 0 0 0.68749999999926592 0.1082531754732875 0 1 0.74999999999934042 0 1 0.87499999999967015 0 0.89051480781310632 0.79665793440246835 0 0 0.25000000000104189 0 0 0.12500000000052089 0 0.12076953676380731 0.18690935762408761 0 0.74999999999934042 0 0 0.87499999999967015 0 0 0.81249999999950517 0.1082531754733404 0 0.24999999999941069 0 0 0.37499999999904599 0 0 0.31281086598417152 0.10449318608631281 0 0.50046028868828263 0.78376912307435687 0 0.37776173212361452 0.78514649317305008 0 0.44078402250377968 0.67714785211715212 0 0.68768773896438518 0.4586835206367198 0 0.75000000000032374 0.56698729811007709 0 0.62752533658682441 0.56838075195614346 0 0.31411863959822661 0.24965544328045999 0 0.37953773393552892 0.34812185820708452 0 0.24418615484441761 0.35773612382016978 0 0.68768773896438518 0.4586835206367198 0 0.81242894672211508 0.45500248311961472 0 0.75000000000032374 0.56698729811007709 0 1 0.24999999999941069 0 1 0.37499999999904599 0 0.88173731489851925 0.33077402607778361 0 0 0.75000000000034761 0 0 0.62500000000121547 0 0.1082531754723032 0.6875000000007816 0 0.50048844149666749 0.56727788297625459 0 0.44078402250377968 0.67714785211715212 0 0.38694285807596462 0.5672991787102919 0 0.50108503093851109 0.35012252869403671 0 0.44301038174930041 0.45684931552185398 0 0.37953773393552892 0.34812185820708452 0 0.50046028868828263 0.78376912307435687 0 0.56496004948275869 0.67675037307860475 0 0.62844955668446423 0.7850749770380413 0 0.68768773896438518 0.4586835206367198 0 0.75000000000057243 0.35048094716480432 0 0.81242894672211508 0.45500248311961472 0 0.56349980387502452 0.45846841892908402 0 0.62512662990940393 0.35044303886909911 0 0.68768773896438518 0.4586835206367198 0 0.50048844149666749 0.56727788297625459 0 0.38694285807596462 0.5672991787102919 0 0.44301038174930041 0.45684931552185398 0 0.50046028868828263 0.78376912307435687 0 0.44078402250377968 0.67714785211715212 0 0.56496004948275869 0.67675037307860475 0 0.50108503093851109 0.35012252869403671 0 0.37953773393552892 0.34812185820708452 0 0.43750000000200551 0.24222777169198509 0 0.75000000000034761 1 0 0.62500000000121547 1 0 0.69010814643829166 0.89298495739101336 0 0.68768773896438518 0.4586835206367198 0 0.62512662990940393 0.35044303886909911 0 0.75000000000057243 0.35048094716480432 0 0.56496004948275869 0.67675037307860475 0 0.44078402250377968 0.67714785211715212 0 0.50048844149666749 0.56727788297625459 0 0.56349980387502452 0.45846841892908402 0 0.44301038174930041 0.45684931552185398 0 0.50108503093851109 0.35012252869403671 0 0.50048844149666749 0.56727788297625459 0 0.44301038174930041 0.45684931552185398 0 0.56349980387502452 0.45846841892908402 0 0.56349980387502452 0.45846841892908402 0 0.50108503093851109 0.35012252869403671 0 0.62512662990940393 0.35044303886909911 0 0.43750000000200551 0.24222777169198509 0 0.37953773393552892 0.34812185820708452 0 0.31411863959822661 0.24965544328045999 0 0.56496004948275869 0.67675037307860475 0 0.50048844149666749 0.56727788297625459 0 0.62752533658682441 0.56838075195614346 0 0.56349980387502452 0.45846841892908402 0 0.68768773896438518 0.4586835206367198 0 0.62752533658682441 0.56838075195614346 0 0.50048844149666749 0.56727788297625459 0 0.56349980387502452 0.45846841892908402 0 0.62752533658682441 0.56838075195614346 0 0.75000000000057243 0.35048094716480432 0 0.62512662990940393 0.35044303886909911 0 0.68668231842078242 0.24762892664808989 0 0.50108503093851109 0.35012252869403671 0 0.43750000000200551 0.24222777169198509 0 0.56250000000143974 0.2422277716920859 0 0.62512662990940393 0.35044303886909911 0 0.50108503093851109 0.35012252869403671 0 0.56250000000143974 0.2422277716920859 0 0.68668231842078242 0.24762892664808989 0 0.62512662990940393 0.35044303886909911 0 0.56250000000143974 0.2422277716920859 0 0.22257735880419699 0.47344721641341742 0 0.24418615484441761 0.35773612382016978 0 0.32815957677880009 0.4577243358118348 0 0.12076953676380731 0.18690935762408761 0 0.19185372118111221 0.092925648673580788 0 0.25103557339309318 0.17464499738446629 0 0.20767261601459541 0.25628918442207171 0 0.12076953676380731 0.18690935762408761 0 0.25103557339309318 0.17464499738446629 0 0 0.87499999999950151 0 0 0.75000000000034761 0 0.10409951422139101 0.81206782209691231 0 0.1249999999997731 0 0 0.24999999999941069 0 0 0.19185372118111221 0.092925648673580788 0 1 0.1249999999997731 0 1 0.24999999999941069 0 0.89658421694297741 0.1933620068391701 0 0.88927506082488361 0.56409486310635837 0 0.81242894672211508 0.45500248311961472 0 0.915464298762109 0.43749999999886913 0 0.87499999999950151 1 0 0.75000000000034761 1 0 0.80886664387416207 0.89717308644237903 0 0.75000000000034761 1 0 0.69010814643829166 0.89298495739101336 0 0.80886664387416207 0.89717308644237903 0 0.82212678063041267 0.67678595194836966 0 0.88927506082488361 0.56409486310635837 0 0.92266244547590082 0.68749999999917555 0 0 0.75000000000034761 0 0.1082531754723032 0.6875000000007816 0 0.10409951422139101 0.81206782209691231 0 0.24999999999941069 0 0 0.31281086598417152 0.10449318608631281 0 0.19185372118111221 0.092925648673580788 0 1 0.24999999999941069 0 0.88173731489851925 0.33077402607778361 0 0.89658421694297741 0.1933620068391701 0 0.32815957677880009 0.4577243358118348 0 0.38694285807596462 0.5672991787102919 0 0.26982811998763367 0.56544650815856912 0 0.76243180583607129 0.78687675331113149 0 0.89051480781310632 0.79665793440246835 0 0.80886664387416207 0.89717308644237903 0 0.38694285807596462 0.5672991787102919 0 0.44078402250377968 0.67714785211715212 0 0.32607333794064219 0.67760114260606152 0 0.37776173212361452 0.78514649317305008 0 0.23533274979922561 0.77093399389351469 0 0.32607333794064219 0.67760114260606152 0 1 0.49999999999869221 0 0.88927506082488361 0.56409486310635837 0 0.915464298762109 0.43749999999886913 0 0.88173731489851925 0.33077402607778361 0 1 0.37499999999904599 0 0.915464298762109 0.43749999999886913 0 0.24418615484441761 0.35773612382016978 0 0.37953773393552892 0.34812185820708452 0 0.32815957677880009 0.4577243358118348 0 0.44301038174930041 0.45684931552185398 0 0.38694285807596462 0.5672991787102919 0 0.32815957677880009 0.4577243358118348 0 0.88927506082488361 0.56409486310635837 0 1 0.62499999999901068 0 0.92266244547590082 0.68749999999917555 0 1 0.74999999999934042 0 0.89051480781310632 0.79665793440246835 0 0.92266244547590082 0.68749999999917555 0 0 1 0 0 0.87499999999950151 0 0.091506350946494744 0.90849364905351082 0 1 1 0 0.87499999999950151 1 0 0.90849364905363228 0.90849364905367769 0 0 0 0 0.1249999999997731 0 0 0.091506350946417708 0.091506350946618076 0 0 0.12500000000052089 0 0 0 0 0.091506350946417708 0.091506350946618076 0 1 0 0 1 0.1249999999997731 0 0.90849364905355434 0.091506350946296292 0 0.87499999999967015 0 0 1 0 0 0.90849364905355434 0.091506350946296292 0 0.12500000000052089 1 0 0 1 0 0.091506350946494744 0.90849364905351082 0 1 0.87499999999967015 0 1 1 0 0.90849364905363228 0.90849364905367769 0 0.38694285807596462 0.5672991787102919 0 0.32607333794064219 0.67760114260606152 0 0.26982811998763367 0.56544650815856912 0 0.31411863959822661 0.24965544328045999 0 0.24418615484441761 0.35773612382016978 0 0.20767261601459541 0.25628918442207171 0 0.1082531754734323 0.31250000000117473 0 0.12076953676380731 0.18690935762408761 0 0.20767261601459541 0.25628918442207171 0 0.75000000000057243 0.35048094716480432 0 0.68668231842078242 0.24762892664808989 0 0.79891106056046712 0.25007334953587562 0 0.22257735880419699 0.47344721641341742 0 0.32815957677880009 0.4577243358118348 0 0.26982811998763367 0.56544650815856912 0 0.44078402250377968 0.67714785211715212 0 0.37776173212361452 0.78514649317305008 0 0.32607333794064219 0.67760114260606152 0 0.89658421694297741 0.1933620068391701 0 0.88173731489851925 0.33077402607778361 0 0.79891106056046712 0.25007334953587562 0 1 0.37499999999904599 0 1 0.49999999999869221 0 0.915464298762109 0.43749999999886913 0 0.37953773393552892 0.34812185820708452 0 0.44301038174930041 0.45684931552185398 0 0.32815957677880009 0.4577243358118348 0 0.32607333794064219 0.67760114260606152 0 0.21809253452218619 0.65480892822618109 0 0.26982811998763367 0.56544650815856912 0 1 0.1249999999997731 0 0.89658421694297741 0.1933620068391701 0 0.90849364905355434 0.091506350946296292 0 0 0.87499999999950151 0 0.10409951422139101 0.81206782209691231 0 0.091506350946494744 0.90849364905351082 0 0.1249999999997731 0 0 0.19185372118111221 0.092925648673580788 0 0.091506350946417708 0.091506350946618076 0 1 0.62499999999901068 0 1 0.74999999999934042 0 0.92266244547590082 0.68749999999917555 0 0.18802967116092181 0.89415349436770275 0 0.12500000000052089 1 0 0.091506350946494744 0.90849364905351082 0 0.89051480781310632 0.79665793440246835 0 1 0.87499999999967015 0 0.90849364905363228 0.90849364905367769 0 0.12076953676380731 0.18690935762408761 0 0 0.12500000000052089 0 0.091506350946417708 0.091506350946618076 0 0.81249999999950517 0.1082531754733404 0 0.87499999999967015 0 0 0.90849364905355434 0.091506350946296292 0 0.87499999999950151 1 0 0.80886664387416207 0.89717308644237903 0 0.90849364905363228 0.90849364905367769 0 0.68668231842078242 0.24762892664808989 0 0.62499999999892575 0.17524047358135519 0 0.73983916756365475 0.17530677078674589 0 0.31281086598417152 0.10449318608631281 0 0.43749999999910871 0.1082531754729984 0 0.37500000000232431 0.17524047358384309 0 0.62499999999892575 0.17524047358135519 0 0.56250000000143974 0.2422277716920859 0 0.49999999999934441 0.1752404735815076 0 0.56249999999885147 0.1082531754730395 0 0.68749999999926592 0.1082531754732875 0 0.62499999999892575 0.17524047358135519 0 0.56249999999885147 0.1082531754730395 0 0.62499999999892575 0.17524047358135519 0 0.49999999999934441 0.1752404735815076 0 0.56250000000143974 0.2422277716920859 0 0.43750000000200551 0.24222777169198509 0 0.49999999999934441 0.1752404735815076 0 0.43749999999910871 0.1082531754729984 0 0.56249999999885147 0.1082531754730395 0 0.49999999999934441 0.1752404735815076 0 0.68668231842078242 0.24762892664808989 0 0.56250000000143974 0.2422277716920859 0 0.62499999999892575 0.17524047358135519 0 0.43750000000200551 0.24222777169198509 0 0.31411863959822661 0.24965544328045999 0 0.37500000000232431 0.17524047358384309 0 0.49999999999934441 0.1752404735815076 0 0.43750000000200551 0.24222777169198509 0 0.37500000000232431 0.17524047358384309 0 0.43749999999910871 0.1082531754729984 0 0.49999999999934441 0.1752404735815076 0 0.37500000000232431 0.17524047358384309 0 0.62499999999892575 0.17524047358135519 0 0.68749999999926592 0.1082531754732875 0 0.73983916756365475 0.17530677078674589 0 0.68749999999926592 0.1082531754732875 0 0.81249999999950517 0.1082531754733404 0 0.73983916756365475 0.17530677078674589 0 0.10409951422139101 0.81206782209691231 0 0.18802967116092181 0.89415349436770275 0 0.091506350946494744 0.90849364905351082 0 0.89658421694297741 0.1933620068391701 0 0.81249999999950517 0.1082531754733404 0 0.90849364905355434 0.091506350946296292 0 0.19185372118111221 0.092925648673580788 0 0.12076953676380731 0.18690935762408761 0 0.091506350946417708 0.091506350946618076 0 0.37500000000232431 0.17524047358384309 0 0.31411863959822661 0.24965544328045999 0 0.25103557339309318 0.17464499738446629 0 0.31281086598417152 0.10449318608631281 0 0.37500000000232431 0.17524047358384309 0 0.25103557339309318 0.17464499738446629 0 0.80886664387416207 0.89717308644237903 0 0.89051480781310632 0.79665793440246835 0 0.90849364905363228 0.90849364905367769 0 0.19185372118111221 0.092925648673580788 0 0.31281086598417152 0.10449318608631281 0 0.25103557339309318 0.17464499738446629 0 0.79891106056046712 0.25007334953587562 0 0.68668231842078242 0.24762892664808989 0 0.73983916756365475 0.17530677078674589 0 0.31411863959822661 0.24965544328045999 0 0.20767261601459541 0.25628918442207171 0 0.25103557339309318 0.17464499738446629 0 

        </DataArray>

      </Points>

      <Cells>

        <DataArray type="Int32" Name="connectivity" format="ascii">

0 1 2 3 4 5 6 7 8 9 10 11 12 13 14 15 16 17 18 19 20 21 22 23 24 25 26 27 28 29 30 31 32 33 34 35 36 37 38 39 40 41 42 43 44 45 46 47 48 49 50 51 52 53 54 55 56 57 58 59 60 61 62 63 64 65 66 67 68 69 70 71 72 73 74 75 76 77 78 79 80 81 82 83 84 85 86 87 88 89 90 91 92 93 94 95 96 97 98 99 100 101 102 103 104 105 106 107 108 109 110 111 112 113 114 115 116 117 118 119 120 121 122 123 124 125 126 127 128 129 130 131 132 133 134 135 136 137 138 139 140 141 142 143 144 145 146 147 148 149 150 151 152 153 154 155 156 157 158 159 160 161 162 163 164 165 166 167 168 169 170 171 172 173 174 175 176 177 178 179 180 181 182 183 184 185 186 187 188 189 190 191 192 193 194 195 196 197 198 199 200 201 202 203 204 205 206 207 208 209 210 211 212 213 214 215 216 217 218 219 220 221 222 223 224 225 226 227 228 229 230 231 232 233 234 235 236 237 238 239 240 241 242 243 244 245 246 247 248 249 250 251 252 253 254 255 256 257 258 259 260 261 262 263 264 265 266 267 268 269 270 271 272 273 274 275 276 277 278 279 280 281 282 283 284 285 286 287 288 289 290 291 292 293 294 295 296 297 298 299 300 301 302 303 304 305 306 307 308 309 310 311 312 313 314 315 316 317 318 319 320 321 322 323 324 325 326 327 328 329 330 331 332 333 334 335 336 337 338 339 340 341 342 343 344 345 346 347 348 349 350 351 352 353 354 355 356 357 358 359 360 361 362 363 364 365 366 367 368 369 370 371 372 373 374 375 376 377 378 379 380 381 382 383 384 385 386 387 388 389 390 391 392 393 394 395 396 397 398 399 400 401 402 403 404 405 406 407 408 409 410 411 412 413 414 415 416 417 418 419 420 421 422 423 424 425 426 427 428 429 430 431 432 433 434 435 436 437 438 439 440 441 442 443 444 445 446 447 448 449 450 451 452 453 454 455 456 457 458 459 460 461 462 463 464 465 466 467 468 469 470 471 472 473 474 475 476 477 478 479 480 481 482 483 484 485 

        </DataArray>

        <DataArray type="Int32" Name="offsets" format="ascii">

3 6 9 12 15 18 21 24 27 30 33 36 39 42 45 48 51 54 57 60 63 66 69 72 75 78 81 84 87 90 93 96 99 102 105 108 111 114 117 120 123 126 129 132 135 138 141 144 147 150 153 156 159 162 165 168 171 174 177 180 183 186 189 192 195 198 201 204 207 210 213 216 219 222 225 228 231 234 237 240 243 246 249 252 255 258 261 264 267 270 273 276 279 282 285 288 291 294 297 300 303 306 309 312 315 318 321 324 327 330 333 336 339 342 345 348 351 354 357 360 363 366 369 372 375 378 381 384 387 390 393 396 399 402 405 408 411 414 417 420 423 426 429 432 435 438 441 444 447 450 453 456 459 462 465 468 471 474 477 480 483 486 

        </DataArray>

        <DataArray type="Int32" Name="types" format="ascii">

5 5 5 5 5 5 5 5 5 5 5 5 5 5 5 5 5 5 5 5 5 5 5 5 5 5 5 5 5 5 5 5 5 5 5 5 5 5 5 5 5 5 5 5 5 5 5 5 5 5 5 5 5 5 5 5 5 5 5 5 5 5 5 5 5 5 5 5 5 5 5 5 5 5 5 5 5 5 5 5 5 5 5 5 5 5 5 5 5 5 5 5 5 5 5 5 5 5 5 5 5 5 5 5 5 5 5 5 5 5 5 5 5 5 5 5 5 5 5 5 5 5 5 5 5 5 5 5 5 5 5 5 5 5 5 5 5 5 5 5 5 5 5 5 5 5 5 5 5 5 5 5 5 5 5 5 5 5 5 5 5 5 

        </DataArray>

      </Cells>

    </Piece>

  </UnstructuredGrid>

</VTKFile>

