<?xml version="1.0"?>

<VTKFile type="UnstructuredGrid" version="0.1">

  <UnstructuredGrid>

    <Piece NumberOfPoints="486" NumberOfCells="162">

      <PointData>

        <DataArray type="Float64" Name="K" format="ascii">

9.32005751546160832e-01
9.32005751546160832e-01
9.32005751546160832e-01
9.27818577561181357e-01
9.27818577561181357e-01
9.27818577561181357e-01
1.01159329597825054e+00
1.01159329597825054e+00
1.01159329597825054e+00
1.02921235014276058e+00
1.02921235014276058e+00
1.02921235014276058e+00
9.86797667522911537e-01
9.86797667522911537e-01
9.86797667522911537e-01
1.04565958001988557e+00
1.04565958001988557e+00
1.04565958001988557e+00
1.00198924893741892e+00
1.00198924893741892e+00
1.00198924893741892e+00
9.54103818470697251e-01
9.54103818470697251e-01
9.54103818470697251e-01
9.95586524422498953e-01
9.95586524422498953e-01
9.95586524422498953e-01
9.46926539268472256e-01
9.46926539268472256e-01
9.46926539268472256e-01
9.95335674198172260e-01
9.95335674198172260e-01
9.95335674198172260e-01
9.63331030707286318e-01
9.63331030707286318e-01
9.63331030707286318e-01
1.03065779554753734e+00
1.03065779554753734e+00
1.03065779554753734e+00
1.05705250866688627e+00
1.05705250866688627e+00
1.05705250866688627e+00
1.06937189904807228e+00
1.06937189904807228e+00
1.06937189904807228e+00
1.02203606737082553e+00
1.02203606737082553e+00
1.02203606737082553e+00
9.58946311311383304e-01
9.58946311311383304e-01
9.58946311311383304e-01
9.69992883163873998e-01
9.69992883163873998e-01
9.69992883163873998e-01
1.08271590486457470e+00
1.08271590486457470e+00
1.08271590486457470e+00
1.03594231840509909e+00
1.03594231840509909e+00
1.03594231840509909e+00
9.44950655833726394e-01
9.44950655833726394e-01
9.44950655833726394e-01
9.32674986367766801e-01
9.32674986367766801e-01
9.32674986367766801e-01
1.02180695566755664e+00
1.02180695566755664e+00
1.02180695566755664e+00
9.91386845869694500e-01
9.91386845869694500e-01
9.91386845869694500e-01
1.04786743963248030e+00
1.04786743963248030e+00
1.04786743963248030e+00
9.36488699223408494e-01
9.36488699223408494e-01
9.36488699223408494e-01
9.30034686298444990e-01
9.30034686298444990e-01
9.30034686298444990e-01
9.63882924714835720e-01
9.63882924714835720e-01
9.63882924714835720e-01
9.26566213098050540e-01
9.26566213098050540e-01
9.26566213098050540e-01
1.00980133554043405e+00
1.00980133554043405e+00
1.00980133554043405e+00
9.66273102440314169e-01
9.66273102440314169e-01
9.66273102440314169e-01
9.71448262857134925e-01
9.71448262857134925e-01
9.71448262857134925e-01
9.65399075494112413e-01
9.65399075494112413e-01
9.65399075494112413e-01
1.02411864011293030e+00
1.02411864011293030e+00
1.02411864011293030e+00
9.62277524163734466e-01
9.62277524163734466e-01
9.62277524163734466e-01
9.83961160548011748e-01
9.83961160548011748e-01
9.83961160548011748e-01
1.02871142560141915e+00
1.02871142560141915e+00
1.02871142560141915e+00
9.86017106164550627e-01
9.86017106164550627e-01
9.86017106164550627e-01
9.79255129472834329e-01
9.79255129472834329e-01
9.79255129472834329e-01
9.91037822782781186e-01
9.91037822782781186e-01
9.91037822782781186e-01
9.53776625773540276e-01
9.53776625773540276e-01
9.53776625773540276e-01
9.27489913529013110e-01
9.27489913529013110e-01
9.27489913529013110e-01
9.79336958420165438e-01
9.79336958420165438e-01
9.79336958420165438e-01
1.03544932189944938e+00
1.03544932189944938e+00
1.03544932189944938e+00
9.73807071479185882e-01
9.73807071479185882e-01
9.73807071479185882e-01
9.71578627296287967e-01
9.71578627296287967e-01
9.71578627296287967e-01
9.79009786253377756e-01
9.79009786253377756e-01
9.79009786253377756e-01
1.01454694406488954e+00
1.01454694406488954e+00
1.01454694406488954e+00
9.59297016465682661e-01
9.59297016465682661e-01
9.59297016465682661e-01
1.04649737670841758e+00
1.04649737670841758e+00
1.04649737670841758e+00
9.82171190002401051e-01
9.82171190002401051e-01
9.82171190002401051e-01
9.48124478162761464e-01
9.48124478162761464e-01
9.48124478162761464e-01
9.17377747072672722e-01
9.17377747072672722e-01
9.17377747072672722e-01
1.02393193968518492e+00
1.02393193968518492e+00
1.02393193968518492e+00
1.00640255356631636e+00
1.00640255356631636e+00
1.00640255356631636e+00
9.71293117428023489e-01
9.71293117428023489e-01
9.71293117428023489e-01
9.91259903599632231e-01
9.91259903599632231e-01
9.91259903599632231e-01
9.19039621259184702e-01
9.19039621259184702e-01
9.19039621259184702e-01
9.89155699524191689e-01
9.89155699524191689e-01
9.89155699524191689e-01
1.04618801924320137e+00
1.04618801924320137e+00
1.04618801924320137e+00
9.37133377719392313e-01
9.37133377719392313e-01
9.37133377719392313e-01
1.02092329299788398e+00
1.02092329299788398e+00
1.02092329299788398e+00
9.85898646602285877e-01
9.85898646602285877e-01
9.85898646602285877e-01
1.09614830759153481e+00
1.09614830759153481e+00
1.09614830759153481e+00
9.68043056238977240e-01
9.68043056238977240e-01
9.68043056238977240e-01
1.07603949147814215e+00
1.07603949147814215e+00
1.07603949147814215e+00
1.02022238500985751e+00
1.02022238500985751e+00
1.02022238500985751e+00
9.84909129219647128e-01
9.84909129219647128e-01
9.84909129219647128e-01
1.03792932407250671e+00
1.03792932407250671e+00
1.03792932407250671e+00
9.70839722247060166e-01
9.70839722247060166e-01
9.70839722247060166e-01
9.96306479963250169e-01
9.96306479963250169e-01
9.96306479963250169e-01
1.05539733479572750e+00
1.05539733479572750e+00
1.05539733479572750e+00
1.09357542671543095e+00
1.09357542671543095e+00
1.09357542671543095e+00
1.03577466948612273e+00
1.03577466948612273e+00
1.03577466948612273e+00
9.99502743907787483e-01
9.99502743907787483e-01
9.99502743907787483e-01
9.39794479256506277e-01
9.39794479256506277e-01
9.39794479256506277e-01
9.84541355822545650e-01
9.84541355822545650e-01
9.84541355822545650e-01
1.06157797078922034e+00
1.06157797078922034e+00
1.06157797078922034e+00
1.03914728474662588e+00
1.03914728474662588e+00
1.03914728474662588e+00
1.04024674174397602e+00
1.04024674174397602e+00
1.04024674174397602e+00
1.06730492620299033e+00
1.06730492620299033e+00
1.06730492620299033e+00
1.06302420877098136e+00
1.06302420877098136e+00
1.06302420877098136e+00
9.41095568562911100e-01
9.41095568562911100e-01
9.41095568562911100e-01
1.07251568038436140e+00
1.07251568038436140e+00
1.07251568038436140e+00
1.10741880562702133e+00
1.10741880562702133e+00
1.10741880562702133e+00
1.09660299083775215e+00
1.09660299083775215e+00
1.09660299083775215e+00
1.02081215851218321e+00
1.02081215851218321e+00
1.02081215851218321e+00
9.54583950318366625e-01
9.54583950318366625e-01
9.54583950318366625e-01
1.01399483207914942e+00
1.01399483207914942e+00
1.01399483207914942e+00
1.00659550618895821e+00
1.00659550618895821e+00
1.00659550618895821e+00
9.64635898119468593e-01
9.64635898119468593e-01
9.64635898119468593e-01
1.03256638397275902e+00
1.03256638397275902e+00
1.03256638397275902e+00
1.03295723836010156e+00
1.03295723836010156e+00
1.03295723836010156e+00
9.83133739804073148e-01
9.83133739804073148e-01
9.83133739804073148e-01
1.02144997280224614e+00
1.02144997280224614e+00
1.02144997280224614e+00
9.69584171695211383e-01
9.69584171695211383e-01
9.69584171695211383e-01
1.04892270030636880e+00
1.04892270030636880e+00
1.04892270030636880e+00
9.90068653160858014e-01
9.90068653160858014e-01
9.90068653160858014e-01
9.73708055014404272e-01
9.73708055014404272e-01
9.73708055014404272e-01
9.78991763937075321e-01
9.78991763937075321e-01
9.78991763937075321e-01
9.56930115491433586e-01
9.56930115491433586e-01
9.56930115491433586e-01
1.02432007932086155e+00
1.02432007932086155e+00
1.02432007932086155e+00
9.92969918964283327e-01
9.92969918964283327e-01
9.92969918964283327e-01
9.71127796702603963e-01
9.71127796702603963e-01
9.71127796702603963e-01
9.44141614989575717e-01
9.44141614989575717e-01
9.44141614989575717e-01
1.01788761560364871e+00
1.01788761560364871e+00
1.01788761560364871e+00
9.95210624758245621e-01
9.95210624758245621e-01
9.95210624758245621e-01
1.01969456599306496e+00
1.01969456599306496e+00
1.01969456599306496e+00
1.03774438322350471e+00
1.03774438322350471e+00
1.03774438322350471e+00
9.55049599029009211e-01
9.55049599029009211e-01
9.55049599029009211e-01
9.87685972985141714e-01
9.87685972985141714e-01
9.87685972985141714e-01
9.66486228474538911e-01
9.66486228474538911e-01
9.66486228474538911e-01
9.53634106111823865e-01
9.53634106111823865e-01
9.53634106111823865e-01
1.01162913915993413e+00
1.01162913915993413e+00
1.01162913915993413e+00
1.03429173707164068e+00
1.03429173707164068e+00
1.03429173707164068e+00
1.01072864116524208e+00
1.01072864116524208e+00
1.01072864116524208e+00
1.01996387440108371e+00
1.01996387440108371e+00
1.01996387440108371e+00
9.38827523438175437e-01
9.38827523438175437e-01
9.38827523438175437e-01
9.43184209378676197e-01
9.43184209378676197e-01
9.43184209378676197e-01
1.02696166861161209e+00
1.02696166861161209e+00
1.02696166861161209e+00
1.04306028521487715e+00
1.04306028521487715e+00
1.04306028521487715e+00
9.87642956625414903e-01
9.87642956625414903e-01
9.87642956625414903e-01
1.00821662448959160e+00
1.00821662448959160e+00
1.00821662448959160e+00
1.02959277470833377e+00
1.02959277470833377e+00
1.02959277470833377e+00
9.81369232863531837e-01
9.81369232863531837e-01
9.81369232863531837e-01
9.53298655225227276e-01
9.53298655225227276e-01
9.53298655225227276e-01
1.00764340345961201e+00
1.00764340345961201e+00
1.00764340345961201e+00
9.72729364581913503e-01
9.72729364581913503e-01
9.72729364581913503e-01
1.01652785408229995e+00
1.01652785408229995e+00
1.01652785408229995e+00
9.58453793005222265e-01
9.58453793005222265e-01
9.58453793005222265e-01
9.59765183284438494e-01
9.59765183284438494e-01
9.59765183284438494e-01
9.44419865141772674e-01
9.44419865141772674e-01
9.44419865141772674e-01
9.83206468488587948e-01
9.83206468488587948e-01
9.83206468488587948e-01
1.02434264103774186e+00
1.02434264103774186e+00
1.02434264103774186e+00
9.58948629850293055e-01
9.58948629850293055e-01
9.58948629850293055e-01
1.00451408963692623e+00
1.00451408963692623e+00
1.00451408963692623e+00
9.90426860646264173e-01
9.90426860646264173e-01
9.90426860646264173e-01
1.03359559893256803e+00
1.03359559893256803e+00
1.03359559893256803e+00
9.36383965168309684e-01
9.36383965168309684e-01
9.36383965168309684e-01
9.87932972336511561e-01
9.87932972336511561e-01
9.87932972336511561e-01
9.48526717779008544e-01
9.48526717779008544e-01
9.48526717779008544e-01
9.92106197019940073e-01
9.92106197019940073e-01
9.92106197019940073e-01
9.45552894373210662e-01
9.45552894373210662e-01
9.45552894373210662e-01
9.27256621528617764e-01
9.27256621528617764e-01
9.27256621528617764e-01
9.36796755677454129e-01
9.36796755677454129e-01
9.36796755677454129e-01
9.37098328624279109e-01
9.37098328624279109e-01
9.37098328624279109e-01
9.50228450807934388e-01
9.50228450807934388e-01
9.50228450807934388e-01
9.66059448657020425e-01
9.66059448657020425e-01
9.66059448657020425e-01
9.55481498038120436e-01
9.55481498038120436e-01
9.55481498038120436e-01
9.39291048308196541e-01
9.39291048308196541e-01
9.39291048308196541e-01
9.56780438892778085e-01
9.56780438892778085e-01
9.56780438892778085e-01
9.27586052971444253e-01
9.27586052971444253e-01
9.27586052971444253e-01
9.19352805607518531e-01
9.19352805607518531e-01
9.19352805607518531e-01
9.75300310663211878e-01
9.75300310663211878e-01
9.75300310663211878e-01
9.33115287759653800e-01
9.33115287759653800e-01
9.33115287759653800e-01
1.02969644229500212e+00
1.02969644229500212e+00
1.02969644229500212e+00
9.99235229386307489e-01
9.99235229386307489e-01
9.99235229386307489e-01
1.01077579905818293e+00
1.01077579905818293e+00
1.01077579905818293e+00
9.56942449854261135e-01
9.56942449854261135e-01
9.56942449854261135e-01
1.02850729970080046e+00
1.02850729970080046e+00
1.02850729970080046e+00
9.50827373834515432e-01
9.50827373834515432e-01
9.50827373834515432e-01
1.02022733037369728e+00
1.02022733037369728e+00
1.02022733037369728e+00


        </DataArray>

      </PointData>

      <CellData/>

      <Points>

        <DataArray type="Float64" NumberOfComponents="3" format="ascii">

0.1082531754723032 0.6875000000007816 0 0.23533274979922561 0.77093399389351469 0 0.10409951422139101 0.81206782209691231 0 0.23533274979922561 0.77093399389351469 0 0.1082531754723032 0.6875000000007816 0 0.21809253452218619 0.65480892822618109 0 0.24418615484441761 0.35773612382016978 0 0.121259140952891 0.43112117036853742 0 0.1082531754734323 0.31250000000117473 0 0.75000000000057243 0.35048094716480432 0 0.88173731489851925 0.33077402607778361 0 0.81242894672211508 0.45500248311961472 0 0.121259140952891 0.43112117036853742 0 0.24418615484441761 0.35773612382016978 0 0.22257735880419699 0.47344721641341742 0 0.81242894672211508 0.45500248311961472 0 0.88173731489851925 0.33077402607778361 0 0.915464298762109 0.43749999999886913 0 0 0.62500000000121547 0 0 0.50000000000206146 0 0.1371230538040123 0.56179824718362847 0 0.82212678063041267 0.67678595194836966 0 0.89051480781310632 0.79665793440246835 0 0.76243180583607129 0.78687675331113149 0 0.76243180583607129 0.78687675331113149 0 0.69010814643829166 0.89298495739101336 0 0.62844955668446423 0.7850749770380413 0 0.89051480781310632 0.79665793440246835 0 0.82212678063041267 0.67678595194836966 0 0.92266244547590082 0.68749999999917555 0 0 0.50000000000206146 0 0.121259140952891 0.43112117036853742 0 0.1371230538040123 0.56179824718362847 0 0.1082531754723032 0.6875000000007816 0 0 0.62500000000121547 0 0.1371230538040123 0.56179824718362847 0 0.75000000000032374 0.56698729811007709 0 0.88927506082488361 0.56409486310635837 0 0.82212678063041267 0.67678595194836966 0 0.81242894672211508 0.45500248311961472 0 0.88927506082488361 0.56409486310635837 0 0.75000000000032374 0.56698729811007709 0 0.69851598570178741 0.68211701800612057 0 0.56496004948275869 0.67675037307860475 0 0.62752533658682441 0.56838075195614346 0 0.69851598570178741 0.68211701800612057 0 0.76243180583607129 0.78687675331113149 0 0.62844955668446423 0.7850749770380413 0 0.23533274979922561 0.77093399389351469 0 0.18802967116092181 0.89415349436770275 0 0.10409951422139101 0.81206782209691231 0 0.121259140952891 0.43112117036853742 0 0.22257735880419699 0.47344721641341742 0 0.1371230538040123 0.56179824718362847 0 0.75000000000032374 0.56698729811007709 0 0.69851598570178741 0.68211701800612057 0 0.62752533658682441 0.56838075195614346 0 0.56496004948275869 0.67675037307860475 0 0.69851598570178741 0.68211701800612057 0 0.62844955668446423 0.7850749770380413 0 0.1371230538040123 0.56179824718362847 0 0.22257735880419699 0.47344721641341742 0 0.26982811998763367 0.56544650815856912 0 0.21809253452218619 0.65480892822618109 0 0.1371230538040123 0.56179824718362847 0 0.26982811998763367 0.56544650815856912 0 0.24418615484441761 0.35773612382016978 0 0.1082531754734323 0.31250000000117473 0 0.20767261601459541 0.25628918442207171 0 0.88173731489851925 0.33077402607778361 0 0.75000000000057243 0.35048094716480432 0 0.79891106056046712 0.25007334953587562 0 0.75000000000032374 0.56698729811007709 0 0.82212678063041267 0.67678595194836966 0 0.69851598570178741 0.68211701800612057 0 0.81249999999950517 0.1082531754733404 0 0.89658421694297741 0.1933620068391701 0 0.79891106056046712 0.25007334953587562 0 0.81249999999950517 0.1082531754733404 0 0.79891106056046712 0.25007334953587562 0 0.73983916756365475 0.17530677078674589 0 0.23533274979922561 0.77093399389351469 0 0.21809253452218619 0.65480892822618109 0 0.32607333794064219 0.67760114260606152 0 0.1082531754723032 0.6875000000007816 0 0.1371230538040123 0.56179824718362847 0 0.21809253452218619 0.65480892822618109 0 0.69851598570178741 0.68211701800612057 0 0.82212678063041267 0.67678595194836966 0 0.76243180583607129 0.78687675331113149 0 0.69010814643829166 0.89298495739101336 0 0.76243180583607129 0.78687675331113149 0 0.80886664387416207 0.89717308644237903 0 0.43750000000181222 0.89174682452709564 0 0.31258827852827581 0.89214793616708443 0 0.37776173212361452 0.78514649317305008 0 0.43750000000181222 0.89174682452709564 0 0.37500000000156292 1 0 0.31258827852827581 0.89214793616708443 0 0.121259140952891 0.43112117036853742 0 0 0.37500000000156292 0 0.1082531754734323 0.31250000000117473 0 0.50000000000206146 1 0 0.37500000000156292 1 0 0.43750000000181222 0.89174682452709564 0 0.31258827852827581 0.89214793616708443 0 0.18802967116092181 0.89415349436770275 0 0.23533274979922561 0.77093399389351469 0 0 0.50000000000206146 0 0 0.37500000000156292 0 0.121259140952891 0.43112117036853742 0 0.62844955668446423 0.7850749770380413 0 0.69010814643829166 0.89298495739101336 0 0.56327595140699671 0.89211526915426331 0 0.69010814643829166 0.89298495739101336 0 0.62500000000121547 1 0 0.56327595140699671 0.89211526915426331 0 0.25000000000104189 1 0 0.18802967116092181 0.89415349436770275 0 0.31258827852827581 0.89214793616708443 0 0.50000000000206146 1 0 0.43750000000181222 0.89174682452709564 0 0.56327595140699671 0.89211526915426331 0 0.56249999999885147 0.1082531754730395 0 0.62499999999901068 0 0 0.68749999999926592 0.1082531754732875 0 1 0.49999999999869221 0 1 0.62499999999901068 0 0.88927506082488361 0.56409486310635837 0 0 0.25000000000104189 0 0.12076953676380731 0.18690935762408761 0 0.1082531754734323 0.31250000000117473 0 0.49999999999869221 0 0 0.62499999999901068 0 0 0.56249999999885147 0.1082531754730395 0 0.62500000000121547 1 0 0.50000000000206146 1 0 0.56327595140699671 0.89211526915426331 0 0.37500000000156292 1 0 0.25000000000104189 1 0 0.31258827852827581 0.89214793616708443 0 0.31281086598417152 0.10449318608631281 0 0.37499999999904599 0 0 0.43749999999910871 0.1082531754729984 0 0.43750000000181222 0.89174682452709564 0 0.37776173212361452 0.78514649317305008 0 0.50046028868828263 0.78376912307435687 0 0 0.37500000000156292 0 0 0.25000000000104189 0 0.1082531754734323 0.31250000000117473 0 0.49999999999869221 0 0 0.56249999999885147 0.1082531754730395 0 0.43749999999910871 0.1082531754729984 0 0.43750000000181222 0.89174682452709564 0 0.50046028868828263 0.78376912307435687 0 0.56327595140699671 0.89211526915426331 0 0.74999999999934042 0 0 0.81249999999950517 0.1082531754733404 0 0.68749999999926592 0.1082531754732875 0 0.37499999999904599 0 0 0.49999999999869221 0 0 0.43749999999910871 0.1082531754729984 0 0.25000000000104189 1 0 0.12500000000052089 1 0 0.18802967116092181 0.89415349436770275 0 0.50046028868828263 0.78376912307435687 0 0.62844955668446423 0.7850749770380413 0 0.56327595140699671 0.89211526915426331 0 0.37776173212361452 0.78514649317305008 0 0.31258827852827581 0.89214793616708443 0 0.23533274979922561 0.77093399389351469 0 0.62499999999901068 0 0 0.74999999999934042 0 0 0.68749999999926592 0.1082531754732875 0 1 0.74999999999934042 0 1 0.87499999999967015 0 0.89051480781310632 0.79665793440246835 0 0 0.25000000000104189 0 0 0.12500000000052089 0 0.12076953676380731 0.18690935762408761 0 0.74999999999934042 0 0 0.87499999999967015 0 0 0.81249999999950517 0.1082531754733404 0 0.24999999999941069 0 0 0.37499999999904599 0 0 0.31281086598417152 0.10449318608631281 0 0.50046028868828263 0.78376912307435687 0 0.37776173212361452 0.78514649317305008 0 0.44078402250377968 0.67714785211715212 0 0.68768773896438518 0.4586835206367198 0 0.75000000000032374 0.56698729811007709 0 0.62752533658682441 0.56838075195614346 0 0.31411863959822661 0.24965544328045999 0 0.37953773393552892 0.34812185820708452 0 0.24418615484441761 0.35773612382016978 0 0.68768773896438518 0.4586835206367198 0 0.81242894672211508 0.45500248311961472 0 0.75000000000032374 0.56698729811007709 0 1 0.24999999999941069 0 1 0.37499999999904599 0 0.88173731489851925 0.33077402607778361 0 0 0.75000000000034761 0 0 0.62500000000121547 0 0.1082531754723032 0.6875000000007816 0 0.50048844149666749 0.56727788297625459 0 0.44078402250377968 0.67714785211715212 0 0.38694285807596462 0.5672991787102919 0 0.50108503093851109 0.35012252869403671 0 0.44301038174930041 0.45684931552185398 0 0.37953773393552892 0.34812185820708452 0 0.50046028868828263 0.78376912307435687 0 0.56496004948275869 0.67675037307860475 0 0.62844955668446423 0.7850749770380413 0 0.68768773896438518 0.4586835206367198 0 0.75000000000057243 0.35048094716480432 0 0.81242894672211508 0.45500248311961472 0 0.56349980387502452 0.45846841892908402 0 0.62512662990940393 0.35044303886909911 0 0.68768773896438518 0.4586835206367198 0 0.50048844149666749 0.56727788297625459 0 0.38694285807596462 0.5672991787102919 0 0.44301038174930041 0.45684931552185398 0 0.50046028868828263 0.78376912307435687 0 0.44078402250377968 0.67714785211715212 0 0.56496004948275869 0.67675037307860475 0 0.50108503093851109 0.35012252869403671 0 0.37953773393552892 0.34812185820708452 0 0.43750000000200551 0.24222777169198509 0 0.75000000000034761 1 0 0.62500000000121547 1 0 0.69010814643829166 0.89298495739101336 0 0.68768773896438518 0.4586835206367198 0 0.62512662990940393 0.35044303886909911 0 0.75000000000057243 0.35048094716480432 0 0.56496004948275869 0.67675037307860475 0 0.44078402250377968 0.67714785211715212 0 0.50048844149666749 0.56727788297625459 0 0.56349980387502452 0.45846841892908402 0 0.44301038174930041 0.45684931552185398 0 0.50108503093851109 0.35012252869403671 0 0.50048844149666749 0.56727788297625459 0 0.44301038174930041 0.45684931552185398 0 0.56349980387502452 0.45846841892908402 0 0.56349980387502452 0.45846841892908402 0 0.50108503093851109 0.35012252869403671 0 0.62512662990940393 0.35044303886909911 0 0.43750000000200551 0.24222777169198509 0 0.37953773393552892 0.34812185820708452 0 0.31411863959822661 0.24965544328045999 0 0.56496004948275869 0.67675037307860475 0 0.50048844149666749 0.56727788297625459 0 0.62752533658682441 0.56838075195614346 0 0.56349980387502452 0.45846841892908402 0 0.68768773896438518 0.4586835206367198 0 0.62752533658682441 0.56838075195614346 0 0.50048844149666749 0.56727788297625459 0 0.56349980387502452 0.45846841892908402 0 0.62752533658682441 0.56838075195614346 0 0.75000000000057243 0.35048094716480432 0 0.62512662990940393 0.35044303886909911 0 0.68668231842078242 0.24762892664808989 0 0.50108503093851109 0.35012252869403671 0 0.43750000000200551 0.24222777169198509 0 0.56250000000143974 0.2422277716920859 0 0.62512662990940393 0.35044303886909911 0 0.50108503093851109 0.35012252869403671 0 0.56250000000143974 0.2422277716920859 0 0.68668231842078242 0.24762892664808989 0 0.62512662990940393 0.35044303886909911 0 0.56250000000143974 0.2422277716920859 0 0.22257735880419699 0.47344721641341742 0 0.24418615484441761 0.35773612382016978 0 0.32815957677880009 0.4577243358118348 0 0.12076953676380731 0.18690935762408761 0 0.19185372118111221 0.092925648673580788 0 0.25103557339309318 0.17464499738446629 0 0.20767261601459541 0.25628918442207171 0 0.12076953676380731 0.18690935762408761 0 0.25103557339309318 0.17464499738446629 0 0 0.87499999999950151 0 0 0.75000000000034761 0 0.10409951422139101 0.81206782209691231 0 0.1249999999997731 0 0 0.24999999999941069 0 0 0.19185372118111221 0.092925648673580788 0 1 0.1249999999997731 0 1 0.24999999999941069 0 0.89658421694297741 0.1933620068391701 0 0.88927506082488361 0.56409486310635837 0 0.81242894672211508 0.45500248311961472 0 0.915464298762109 0.43749999999886913 0 0.87499999999950151 1 0 0.75000000000034761 1 0 0.80886664387416207 0.89717308644237903 0 0.75000000000034761 1 0 0.69010814643829166 0.89298495739101336 0 0.80886664387416207 0.89717308644237903 0 0.82212678063041267 0.67678595194836966 0 0.88927506082488361 0.56409486310635837 0 0.92266244547590082 0.68749999999917555 0 0 0.75000000000034761 0 0.1082531754723032 0.6875000000007816 0 0.10409951422139101 0.81206782209691231 0 0.24999999999941069 0 0 0.31281086598417152 0.10449318608631281 0 0.19185372118111221 0.092925648673580788 0 1 0.24999999999941069 0 0.88173731489851925 0.33077402607778361 0 0.89658421694297741 0.1933620068391701 0 0.32815957677880009 0.4577243358118348 0 0.38694285807596462 0.5672991787102919 0 0.26982811998763367 0.56544650815856912 0 0.76243180583607129 0.78687675331113149 0 0.89051480781310632 0.79665793440246835 0 0.80886664387416207 0.89717308644237903 0 0.38694285807596462 0.5672991787102919 0 0.44078402250377968 0.67714785211715212 0 0.32607333794064219 0.67760114260606152 0 0.37776173212361452 0.78514649317305008 0 0.23533274979922561 0.77093399389351469 0 0.32607333794064219 0.67760114260606152 0 1 0.49999999999869221 0 0.88927506082488361 0.56409486310635837 0 0.915464298762109 0.43749999999886913 0 0.88173731489851925 0.33077402607778361 0 1 0.37499999999904599 0 0.915464298762109 0.43749999999886913 0 0.24418615484441761 0.35773612382016978 0 0.37953773393552892 0.34812185820708452 0 0.32815957677880009 0.4577243358118348 0 0.44301038174930041 0.45684931552185398 0 0.38694285807596462 0.5672991787102919 0 0.32815957677880009 0.4577243358118348 0 0.88927506082488361 0.56409486310635837 0 1 0.62499999999901068 0 0.92266244547590082 0.68749999999917555 0 1 0.74999999999934042 0 0.89051480781310632 0.79665793440246835 0 0.92266244547590082 0.68749999999917555 0 0 1 0 0 0.87499999999950151 0 0.091506350946494744 0.90849364905351082 0 1 1 0 0.87499999999950151 1 0 0.90849364905363228 0.90849364905367769 0 0 0 0 0.1249999999997731 0 0 0.091506350946417708 0.091506350946618076 0 0 0.12500000000052089 0 0 0 0 0.091506350946417708 0.091506350946618076 0 1 0 0 1 0.1249999999997731 0 0.90849364905355434 0.091506350946296292 0 0.87499999999967015 0 0 1 0 0 0.90849364905355434 0.091506350946296292 0 0.12500000000052089 1 0 0 1 0 0.091506350946494744 0.90849364905351082 0 1 0.87499999999967015 0 1 1 0 0.90849364905363228 0.90849364905367769 0 0.38694285807596462 0.5672991787102919 0 0.32607333794064219 0.67760114260606152 0 0.26982811998763367 0.56544650815856912 0 0.31411863959822661 0.24965544328045999 0 0.24418615484441761 0.35773612382016978 0 0.20767261601459541 0.25628918442207171 0 0.1082531754734323 0.31250000000117473 0 0.12076953676380731 0.18690935762408761 0 0.20767261601459541 0.25628918442207171 0 0.75000000000057243 0.35048094716480432 0 0.68668231842078242 0.24762892664808989 0 0.79891106056046712 0.25007334953587562 0 0.22257735880419699 0.47344721641341742 0 0.32815957677880009 0.4577243358118348 0 0.26982811998763367 0.56544650815856912 0 0.44078402250377968 0.67714785211715212 0 0.37776173212361452 0.78514649317305008 0 0.32607333794064219 0.67760114260606152 0 0.89658421694297741 0.1933620068391701 0 0.88173731489851925 0.33077402607778361 0 0.79891106056046712 0.25007334953587562 0 1 0.37499999999904599 0 1 0.49999999999869221 0 0.915464298762109 0.43749999999886913 0 0.37953773393552892 0.34812185820708452 0 0.44301038174930041 0.45684931552185398 0 0.32815957677880009 0.4577243358118348 0 0.32607333794064219 0.67760114260606152 0 0.21809253452218619 0.65480892822618109 0 0.26982811998763367 0.56544650815856912 0 1 0.1249999999997731 0 0.89658421694297741 0.1933620068391701 0 0.90849364905355434 0.091506350946296292 0 0 0.87499999999950151 0 0.10409951422139101 0.81206782209691231 0 0.091506350946494744 0.90849364905351082 0 0.1249999999997731 0 0 0.19185372118111221 0.092925648673580788 0 0.091506350946417708 0.091506350946618076 0 1 0.62499999999901068 0 1 0.74999999999934042 0 0.92266244547590082 0.68749999999917555 0 0.18802967116092181 0.89415349436770275 0 0.12500000000052089 1 0 0.091506350946494744 0.90849364905351082 0 0.89051480781310632 0.79665793440246835 0 1 0.87499999999967015 0 0.90849364905363228 0.90849364905367769 0 0.12076953676380731 0.18690935762408761 0 0 0.12500000000052089 0 0.091506350946417708 0.091506350946618076 0 0.81249999999950517 0.1082531754733404 0 0.87499999999967015 0 0 0.90849364905355434 0.091506350946296292 0 0.87499999999950151 1 0 0.80886664387416207 0.89717308644237903 0 0.90849364905363228 0.90849364905367769 0 0.68668231842078242 0.24762892664808989 0 0.62499999999892575 0.17524047358135519 0 0.73983916756365475 0.17530677078674589 0 0.31281086598417152 0.10449318608631281 0 0.43749999999910871 0.1082531754729984 0 0.37500000000232431 0.17524047358384309 0 0.62499999999892575 0.17524047358135519 0 0.56250000000143974 0.2422277716920859 0 0.49999999999934441 0.1752404735815076 0 0.56249999999885147 0.1082531754730395 0 0.68749999999926592 0.1082531754732875 0 0.62499999999892575 0.17524047358135519 0 0.56249999999885147 0.1082531754730395 0 0.62499999999892575 0.17524047358135519 0 0.49999999999934441 0.1752404735815076 0 0.56250000000143974 0.2422277716920859 0 0.43750000000200551 0.24222777169198509 0 0.49999999999934441 0.1752404735815076 0 0.43749999999910871 0.1082531754729984 0 0.56249999999885147 0.1082531754730395 0 0.49999999999934441 0.1752404735815076 0 0.68668231842078242 0.24762892664808989 0 0.56250000000143974 0.2422277716920859 0 0.62499999999892575 0.17524047358135519 0 0.43750000000200551 0.24222777169198509 0 0.31411863959822661 0.24965544328045999 0 0.37500000000232431 0.17524047358384309 0 0.49999999999934441 0.1752404735815076 0 0.43750000000200551 0.24222777169198509 0 0.37500000000232431 0.17524047358384309 0 0.43749999999910871 0.1082531754729984 0 0.49999999999934441 0.1752404735815076 0 0.37500000000232431 0.17524047358384309 0 0.62499999999892575 0.17524047358135519 0 0.68749999999926592 0.1082531754732875 0 0.73983916756365475 0.17530677078674589 0 0.68749999999926592 0.1082531754732875 0 0.81249999999950517 0.1082531754733404 0 0.73983916756365475 0.17530677078674589 0 0.10409951422139101 0.81206782209691231 0 0.18802967116092181 0.89415349436770275 0 0.091506350946494744 0.90849364905351082 0 0.89658421694297741 0.1933620068391701 0 0.81249999999950517 0.1082531754733404 0 0.90849364905355434 0.091506350946296292 0 0.19185372118111221 0.092925648673580788 0 0.12076953676380731 0.18690935762408761 0 0.091506350946417708 0.091506350946618076 0 0.37500000000232431 0.17524047358384309 0 0.31411863959822661 0.24965544328045999 0 0.25103557339309318 0.17464499738446629 0 0.31281086598417152 0.10449318608631281 0 0.37500000000232431 0.17524047358384309 0 0.25103557339309318 0.17464499738446629 0 0.80886664387416207 0.89717308644237903 0 0.89051480781310632 0.79665793440246835 0 0.90849364905363228 0.90849364905367769 0 0.19185372118111221 0.092925648673580788 0 0.31281086598417152 0.10449318608631281 0 0.25103557339309318 0.17464499738446629 0 0.79891106056046712 0.25007334953587562 0 0.68668231842078242 0.24762892664808989 0 0.73983916756365475 0.17530677078674589 0 0.31411863959822661 0.24965544328045999 0 0.20767261601459541 0.25628918442207171 0 0.25103557339309318 0.17464499738446629 0 

        </DataArray>

      </Points>

      <Cells>

        <DataArray type="Int32" Name="connectivity" format="ascii">

0 1 2 3 4 5 6 7 8 9 10 11 12 13 14 15 16 17 18 19 20 21 22 23 24 25 26 27 28 29 30 31 32 33 34 35 36 37 38 39 40 41 42 43 44 45 46 47 48 49 50 51 52 53 54 55 56 57 58 59 60 61 62 63 64 65 66 67 68 69 70 71 72 73 74 75 76 77 78 79 80 81 82 83 84 85 86 87 88 89 90 91 92 93 94 95 96 97 98 99 100 101 102 103 104 105 106 107 108 109 110 111 112 113 114 115 116 117 118 119 120 121 122 123 124 125 126 127 128 129 130 131 132 133 134 135 136 137 138 139 140 141 142 143 144 145 146 147 148 149 150 151 152 153 154 155 156 157 158 159 160 161 162 163 164 165 166 167 168 169 170 171 172 173 174 175 176 177 178 179 180 181 182 183 184 185 186 187 188 189 190 191 192 193 194 195 196 197 198 199 200 201 202 203 204 205 206 207 208 209 210 211 212 213 214 215 216 217 218 219 220 221 222 223 224 225 226 227 228 229 230 231 232 233 234 235 236 237 238 239 240 241 242 243 244 245 246 247 248 249 250 251 252 253 254 255 256 257 258 259 260 261 262 263 264 265 266 267 268 269 270 271 272 273 274 275 276 277 278 279 280 281 282 283 284 285 286 287 288 289 290 291 292 293 294 295 296 297 298 299 300 301 302 303 304 305 306 307 308 309 310 311 312 313 314 315 316 317 318 319 320 321 322 323 324 325 326 327 328 329 330 331 332 333 334 335 336 337 338 339 340 341 342 343 344 345 346 347 348 349 350 351 352 353 354 355 356 357 358 359 360 361 362 363 364 365 366 367 368 369 370 371 372 373 374 375 376 377 378 379 380 381 382 383 384 385 386 387 388 389 390 391 392 393 394 395 396 397 398 399 400 401 402 403 404 405 406 407 408 409 410 411 412 413 414 415 416 417 418 419 420 421 422 423 424 425 426 427 428 429 430 431 432 433 434 435 436 437 438 439 440 441 442 443 444 445 446 447 448 449 450 451 452 453 454 455 456 457 458 459 460 461 462 463 464 465 466 467 468 469 470 471 472 473 474 475 476 477 478 479 480 481 482 483 484 485 

        </DataArray>

        <DataArray type="Int32" Name="offsets" format="ascii">

3 6 9 12 15 18 21 24 27 30 33 36 39 42 45 48 51 54 57 60 63 66 69 72 75 78 81 84 87 90 93 96 99 102 105 108 111 114 117 120 123 126 129 132 135 138 141 144 147 150 153 156 159 162 165 168 171 174 177 180 183 186 189 192 195 198 201 204 207 210 213 216 219 222 225 228 231 234 237 240 243 246 249 252 255 258 261 264 267 270 273 276 279 282 285 288 291 294 297 300 303 306 309 312 315 318 321 324 327 330 333 336 339 342 345 348 351 354 357 360 363 366 369 372 375 378 381 384 387 390 393 396 399 402 405 408 411 414 417 420 423 426 429 432 435 438 441 444 447 450 453 456 459 462 465 468 471 474 477 480 483 486 

        </DataArray>

        <DataArray type="Int32" Name="types" format="ascii">

5 5 5 5 5 5 5 5 5 5 5 5 5 5 5 5 5 5 5 5 5 5 5 5 5 5 5 5 5 5 5 5 5 5 5 5 5 5 5 5 5 5 5 5 5 5 5 5 5 5 5 5 5 5 5 5 5 5 5 5 5 5 5 5 5 5 5 5 5 5 5 5 5 5 5 5 5 5 5 5 5 5 5 5 5 5 5 5 5 5 5 5 5 5 5 5 5 5 5 5 5 5 5 5 5 5 5 5 5 5 5 5 5 5 5 5 5 5 5 5 5 5 5 5 5 5 5 5 5 5 5 5 5 5 5 5 5 5 5 5 5 5 5 5 5 5 5 5 5 5 5 5 5 5 5 5 5 5 5 5 5 5 

        </DataArray>

      </Cells>

    </Piece>

  </UnstructuredGrid>

</VTKFile>

