<?xml version="1.0"?>

<VTKFile type="UnstructuredGrid" version="0.1">

  <UnstructuredGrid>

    <Piece NumberOfPoints="486" NumberOfCells="162">

      <PointData>

        <DataArray type="Float64" Name="K" format="ascii">

9.80012722449651874e-01
9.80012722449651874e-01
9.80012722449651874e-01
1.00382418906551107e+00
1.00382418906551107e+00
1.00382418906551107e+00
1.02746237539013774e+00
1.02746237539013774e+00
1.02746237539013774e+00
9.51778875040766525e-01
9.51778875040766525e-01
9.51778875040766525e-01
1.03855290779587439e+00
1.03855290779587439e+00
1.03855290779587439e+00
9.54794333245279292e-01
9.54794333245279292e-01
9.54794333245279292e-01
9.95267735081893923e-01
9.95267735081893923e-01
9.95267735081893923e-01
1.02759364616541737e+00
1.02759364616541737e+00
1.02759364616541737e+00
1.01782024490447998e+00
1.01782024490447998e+00
1.01782024490447998e+00
1.03060887554527492e+00
1.03060887554527492e+00
1.03060887554527492e+00
1.00563298935431544e+00
1.00563298935431544e+00
1.00563298935431544e+00
9.93874597871095555e-01
9.93874597871095555e-01
9.93874597871095555e-01
9.81937244964304679e-01
9.81937244964304679e-01
9.81937244964304679e-01
9.59337832120317202e-01
9.59337832120317202e-01
9.59337832120317202e-01
1.00254286646350987e+00
1.00254286646350987e+00
1.00254286646350987e+00
1.01693841664553353e+00
1.01693841664553353e+00
1.01693841664553353e+00
9.61428677608152760e-01
9.61428677608152760e-01
9.61428677608152760e-01
1.02925897988983661e+00
1.02925897988983661e+00
1.02925897988983661e+00
9.91980155928473217e-01
9.91980155928473217e-01
9.91980155928473217e-01
1.01007218381683561e+00
1.01007218381683561e+00
1.01007218381683561e+00
1.04798173426047114e+00
1.04798173426047114e+00
1.04798173426047114e+00
1.04089894656775717e+00
1.04089894656775717e+00
1.04089894656775717e+00
1.03064365042112493e+00
1.03064365042112493e+00
1.03064365042112493e+00
9.67013888829083013e-01
9.67013888829083013e-01
9.67013888829083013e-01
9.93914564585842486e-01
9.93914564585842486e-01
9.93914564585842486e-01
1.02519205947314762e+00
1.02519205947314762e+00
1.02519205947314762e+00
1.00729002698501091e+00
1.00729002698501091e+00
1.00729002698501091e+00
1.01792398217881730e+00
1.01792398217881730e+00
1.01792398217881730e+00
1.01326921891544286e+00
1.01326921891544286e+00
1.01326921891544286e+00
1.01360089384532248e+00
1.01360089384532248e+00
1.01360089384532248e+00
1.02747460568271065e+00
1.02747460568271065e+00
1.02747460568271065e+00
9.87709224820783382e-01
9.87709224820783382e-01
9.87709224820783382e-01
9.84627335142442273e-01
9.84627335142442273e-01
9.84627335142442273e-01
1.01185060829625861e+00
1.01185060829625861e+00
1.01185060829625861e+00
9.76149417142125109e-01
9.76149417142125109e-01
9.76149417142125109e-01
9.62953737866196979e-01
9.62953737866196979e-01
9.62953737866196979e-01
1.00365788230920661e+00
1.00365788230920661e+00
1.00365788230920661e+00
9.97055032908322203e-01
9.97055032908322203e-01
9.97055032908322203e-01
9.82395296521792472e-01
9.82395296521792472e-01
9.82395296521792472e-01
9.56548214040351508e-01
9.56548214040351508e-01
9.56548214040351508e-01
9.68648200677467153e-01
9.68648200677467153e-01
9.68648200677467153e-01
1.01497723795740846e+00
1.01497723795740846e+00
1.01497723795740846e+00
1.00625164835467418e+00
1.00625164835467418e+00
1.00625164835467418e+00
1.02056239163836238e+00
1.02056239163836238e+00
1.02056239163836238e+00
1.00971579493735519e+00
1.00971579493735519e+00
1.00971579493735519e+00
9.59138310852481357e-01
9.59138310852481357e-01
9.59138310852481357e-01
9.76364399300252206e-01
9.76364399300252206e-01
9.76364399300252206e-01
9.70726157703106329e-01
9.70726157703106329e-01
9.70726157703106329e-01
9.89964331601043690e-01
9.89964331601043690e-01
9.89964331601043690e-01
1.00935071320897851e+00
1.00935071320897851e+00
1.00935071320897851e+00
9.82804992660765375e-01
9.82804992660765375e-01
9.82804992660765375e-01
9.82123747887108767e-01
9.82123747887108767e-01
9.82123747887108767e-01
1.03809154765298572e+00
1.03809154765298572e+00
1.03809154765298572e+00
9.74348354218191881e-01
9.74348354218191881e-01
9.74348354218191881e-01
9.49162625114544967e-01
9.49162625114544967e-01
9.49162625114544967e-01
9.91332541306038650e-01
9.91332541306038650e-01
9.91332541306038650e-01
9.84189732272507389e-01
9.84189732272507389e-01
9.84189732272507389e-01
1.03669172509545415e+00
1.03669172509545415e+00
1.03669172509545415e+00
1.03067057599978873e+00
1.03067057599978873e+00
1.03067057599978873e+00
1.01714013382888435e+00
1.01714013382888435e+00
1.01714013382888435e+00
1.06840076156055419e+00
1.06840076156055419e+00
1.06840076156055419e+00
1.00096341699380331e+00
1.00096341699380331e+00
1.00096341699380331e+00
9.94565561907262641e-01
9.94565561907262641e-01
9.94565561907262641e-01
9.72541103338649626e-01
9.72541103338649626e-01
9.72541103338649626e-01
1.01280726644737840e+00
1.01280726644737840e+00
1.01280726644737840e+00
9.55151408420773729e-01
9.55151408420773729e-01
9.55151408420773729e-01
9.74416692371107285e-01
9.74416692371107285e-01
9.74416692371107285e-01
9.82812910534289430e-01
9.82812910534289430e-01
9.82812910534289430e-01
9.95762802526308222e-01
9.95762802526308222e-01
9.95762802526308222e-01
9.79752883104884176e-01
9.79752883104884176e-01
9.79752883104884176e-01
1.00038683628915814e+00
1.00038683628915814e+00
1.00038683628915814e+00
9.45772526215554299e-01
9.45772526215554299e-01
9.45772526215554299e-01
9.50014632676103088e-01
9.50014632676103088e-01
9.50014632676103088e-01
9.92383473928361126e-01
9.92383473928361126e-01
9.92383473928361126e-01
9.94269508998074536e-01
9.94269508998074536e-01
9.94269508998074536e-01
9.70985032460964570e-01
9.70985032460964570e-01
9.70985032460964570e-01
9.98474607889333066e-01
9.98474607889333066e-01
9.98474607889333066e-01
9.43961210540038564e-01
9.43961210540038564e-01
9.43961210540038564e-01
9.89771858035367935e-01
9.89771858035367935e-01
9.89771858035367935e-01
9.62128558823586055e-01
9.62128558823586055e-01
9.62128558823586055e-01
9.70008468760911402e-01
9.70008468760911402e-01
9.70008468760911402e-01
9.49589954390320679e-01
9.49589954390320679e-01
9.49589954390320679e-01
9.80963521024506457e-01
9.80963521024506457e-01
9.80963521024506457e-01
9.89003741454778429e-01
9.89003741454778429e-01
9.89003741454778429e-01
9.66104446277981088e-01
9.66104446277981088e-01
9.66104446277981088e-01
9.72938261346852018e-01
9.72938261346852018e-01
9.72938261346852018e-01
9.44934397126455772e-01
9.44934397126455772e-01
9.44934397126455772e-01
9.59967772471008618e-01
9.59967772471008618e-01
9.59967772471008618e-01
9.51140870623855106e-01
9.51140870623855106e-01
9.51140870623855106e-01
9.50689462761408643e-01
9.50689462761408643e-01
9.50689462761408643e-01
1.05006602221898393e+00
1.05006602221898393e+00
1.05006602221898393e+00
1.03878285418770822e+00
1.03878285418770822e+00
1.03878285418770822e+00
1.03348557858742574e+00
1.03348557858742574e+00
1.03348557858742574e+00
9.73193280172398922e-01
9.73193280172398922e-01
9.73193280172398922e-01
1.04592172169121245e+00
1.04592172169121245e+00
1.04592172169121245e+00
1.02497998836954562e+00
1.02497998836954562e+00
1.02497998836954562e+00
9.58276889165637469e-01
9.58276889165637469e-01
9.58276889165637469e-01
1.01065055251398528e+00
1.01065055251398528e+00
1.01065055251398528e+00
1.01918518924473589e+00
1.01918518924473589e+00
1.01918518924473589e+00
1.00928329742572620e+00
1.00928329742572620e+00
1.00928329742572620e+00
9.76842746278475560e-01
9.76842746278475560e-01
9.76842746278475560e-01
1.02652389711561742e+00
1.02652389711561742e+00
1.02652389711561742e+00
1.00239111101268263e+00
1.00239111101268263e+00
1.00239111101268263e+00
1.04925408592034231e+00
1.04925408592034231e+00
1.04925408592034231e+00
1.03270700672533766e+00
1.03270700672533766e+00
1.03270700672533766e+00
1.01439351424311708e+00
1.01439351424311708e+00
1.01439351424311708e+00
1.00388338208217975e+00
1.00388338208217975e+00
1.00388338208217975e+00
9.77184503357017009e-01
9.77184503357017009e-01
9.77184503357017009e-01
9.63841550940914393e-01
9.63841550940914393e-01
9.63841550940914393e-01
1.03160419280809901e+00
1.03160419280809901e+00
1.03160419280809901e+00
1.02034172861335959e+00
1.02034172861335959e+00
1.02034172861335959e+00
1.02143122575315237e+00
1.02143122575315237e+00
1.02143122575315237e+00
1.04078271279413603e+00
1.04078271279413603e+00
1.04078271279413603e+00
9.76933392452471350e-01
9.76933392452471350e-01
9.76933392452471350e-01
9.89549223364849517e-01
9.89549223364849517e-01
9.89549223364849517e-01
1.03019079909207800e+00
1.03019079909207800e+00
1.03019079909207800e+00
1.02157938897257616e+00
1.02157938897257616e+00
1.02157938897257616e+00
1.06338640696119557e+00
1.06338640696119557e+00
1.06338640696119557e+00
1.07827195322689939e+00
1.07827195322689939e+00
1.07827195322689939e+00
9.71610191613738516e-01
9.71610191613738516e-01
9.71610191613738516e-01
9.95480606576479743e-01
9.95480606576479743e-01
9.95480606576479743e-01
1.04138819678781958e+00
1.04138819678781958e+00
1.04138819678781958e+00
1.02184921928251127e+00
1.02184921928251127e+00
1.02184921928251127e+00
1.03131104323764422e+00
1.03131104323764422e+00
1.03131104323764422e+00
9.58344735712896467e-01
9.58344735712896467e-01
9.58344735712896467e-01
1.05943340548761511e+00
1.05943340548761511e+00
1.05943340548761511e+00
1.00473698601399808e+00
1.00473698601399808e+00
1.00473698601399808e+00
9.98883826424182719e-01
9.98883826424182719e-01
9.98883826424182719e-01
9.68938071403888990e-01
9.68938071403888990e-01
9.68938071403888990e-01
1.01243932618168198e+00
1.01243932618168198e+00
1.01243932618168198e+00
1.04277391839925260e+00
1.04277391839925260e+00
1.04277391839925260e+00
1.05531487887106068e+00
1.05531487887106068e+00
1.05531487887106068e+00
9.67574588543513969e-01
9.67574588543513969e-01
9.67574588543513969e-01
1.04368502563432597e+00
1.04368502563432597e+00
1.04368502563432597e+00
1.04014317139338175e+00
1.04014317139338175e+00
1.04014317139338175e+00
9.51665016289896304e-01
9.51665016289896304e-01
9.51665016289896304e-01
1.02058317916109642e+00
1.02058317916109642e+00
1.02058317916109642e+00
1.02677712026160273e+00
1.02677712026160273e+00
1.02677712026160273e+00
1.07395842740710057e+00
1.07395842740710057e+00
1.07395842740710057e+00
1.00954844250595155e+00
1.00954844250595155e+00
1.00954844250595155e+00
9.73185938182784982e-01
9.73185938182784982e-01
9.73185938182784982e-01
9.64230146885410977e-01
9.64230146885410977e-01
9.64230146885410977e-01
9.71625948968814823e-01
9.71625948968814823e-01
9.71625948968814823e-01
9.95453816882505227e-01
9.95453816882505227e-01
9.95453816882505227e-01
9.82584507566302001e-01
9.82584507566302001e-01
9.82584507566302001e-01
9.63591376548685985e-01
9.63591376548685985e-01
9.63591376548685985e-01
9.73592056178536058e-01
9.73592056178536058e-01
9.73592056178536058e-01
9.64803948868845906e-01
9.64803948868845906e-01
9.64803948868845906e-01
9.69571138661851517e-01
9.69571138661851517e-01
9.69571138661851517e-01
9.59884371959482730e-01
9.59884371959482730e-01
9.59884371959482730e-01
9.59569609865942308e-01
9.59569609865942308e-01
9.59569609865942308e-01
9.91130301177777340e-01
9.91130301177777340e-01
9.91130301177777340e-01
1.01349477477520877e+00
1.01349477477520877e+00
1.01349477477520877e+00
9.55510839656350197e-01
9.55510839656350197e-01
9.55510839656350197e-01
1.05676932954466185e+00
1.05676932954466185e+00
1.05676932954466185e+00
1.04091242386188543e+00
1.04091242386188543e+00
1.04091242386188543e+00
9.88823434265430956e-01
9.88823434265430956e-01
9.88823434265430956e-01
9.87552416623817320e-01
9.87552416623817320e-01
9.87552416623817320e-01
1.02611892500448820e+00
1.02611892500448820e+00
1.02611892500448820e+00
1.02055843370322741e+00
1.02055843370322741e+00
1.02055843370322741e+00
9.74974363305496139e-01
9.74974363305496139e-01
9.74974363305496139e-01
1.01498905638844095e+00
1.01498905638844095e+00
1.01498905638844095e+00


        </DataArray>

      </PointData>

      <CellData/>

      <Points>

        <DataArray type="Float64" NumberOfComponents="3" format="ascii">

0.1082531754723032 0.6875000000007816 0 0.23533274979922561 0.77093399389351469 0 0.10409951422139101 0.81206782209691231 0 0.23533274979922561 0.77093399389351469 0 0.1082531754723032 0.6875000000007816 0 0.21809253452218619 0.65480892822618109 0 0.24418615484441761 0.35773612382016978 0 0.121259140952891 0.43112117036853742 0 0.1082531754734323 0.31250000000117473 0 0.75000000000057243 0.35048094716480432 0 0.88173731489851925 0.33077402607778361 0 0.81242894672211508 0.45500248311961472 0 0.121259140952891 0.43112117036853742 0 0.24418615484441761 0.35773612382016978 0 0.22257735880419699 0.47344721641341742 0 0.81242894672211508 0.45500248311961472 0 0.88173731489851925 0.33077402607778361 0 0.915464298762109 0.43749999999886913 0 0 0.62500000000121547 0 0 0.50000000000206146 0 0.1371230538040123 0.56179824718362847 0 0.82212678063041267 0.67678595194836966 0 0.89051480781310632 0.79665793440246835 0 0.76243180583607129 0.78687675331113149 0 0.76243180583607129 0.78687675331113149 0 0.69010814643829166 0.89298495739101336 0 0.62844955668446423 0.7850749770380413 0 0.89051480781310632 0.79665793440246835 0 0.82212678063041267 0.67678595194836966 0 0.92266244547590082 0.68749999999917555 0 0 0.50000000000206146 0 0.121259140952891 0.43112117036853742 0 0.1371230538040123 0.56179824718362847 0 0.1082531754723032 0.6875000000007816 0 0 0.62500000000121547 0 0.1371230538040123 0.56179824718362847 0 0.75000000000032374 0.56698729811007709 0 0.88927506082488361 0.56409486310635837 0 0.82212678063041267 0.67678595194836966 0 0.81242894672211508 0.45500248311961472 0 0.88927506082488361 0.56409486310635837 0 0.75000000000032374 0.56698729811007709 0 0.69851598570178741 0.68211701800612057 0 0.56496004948275869 0.67675037307860475 0 0.62752533658682441 0.56838075195614346 0 0.69851598570178741 0.68211701800612057 0 0.76243180583607129 0.78687675331113149 0 0.62844955668446423 0.7850749770380413 0 0.23533274979922561 0.77093399389351469 0 0.18802967116092181 0.89415349436770275 0 0.10409951422139101 0.81206782209691231 0 0.121259140952891 0.43112117036853742 0 0.22257735880419699 0.47344721641341742 0 0.1371230538040123 0.56179824718362847 0 0.75000000000032374 0.56698729811007709 0 0.69851598570178741 0.68211701800612057 0 0.62752533658682441 0.56838075195614346 0 0.56496004948275869 0.67675037307860475 0 0.69851598570178741 0.68211701800612057 0 0.62844955668446423 0.7850749770380413 0 0.1371230538040123 0.56179824718362847 0 0.22257735880419699 0.47344721641341742 0 0.26982811998763367 0.56544650815856912 0 0.21809253452218619 0.65480892822618109 0 0.1371230538040123 0.56179824718362847 0 0.26982811998763367 0.56544650815856912 0 0.24418615484441761 0.35773612382016978 0 0.1082531754734323 0.31250000000117473 0 0.20767261601459541 0.25628918442207171 0 0.88173731489851925 0.33077402607778361 0 0.75000000000057243 0.35048094716480432 0 0.79891106056046712 0.25007334953587562 0 0.75000000000032374 0.56698729811007709 0 0.82212678063041267 0.67678595194836966 0 0.69851598570178741 0.68211701800612057 0 0.81249999999950517 0.1082531754733404 0 0.89658421694297741 0.1933620068391701 0 0.79891106056046712 0.25007334953587562 0 0.81249999999950517 0.1082531754733404 0 0.79891106056046712 0.25007334953587562 0 0.73983916756365475 0.17530677078674589 0 0.23533274979922561 0.77093399389351469 0 0.21809253452218619 0.65480892822618109 0 0.32607333794064219 0.67760114260606152 0 0.1082531754723032 0.6875000000007816 0 0.1371230538040123 0.56179824718362847 0 0.21809253452218619 0.65480892822618109 0 0.69851598570178741 0.68211701800612057 0 0.82212678063041267 0.67678595194836966 0 0.76243180583607129 0.78687675331113149 0 0.69010814643829166 0.89298495739101336 0 0.76243180583607129 0.78687675331113149 0 0.80886664387416207 0.89717308644237903 0 0.43750000000181222 0.89174682452709564 0 0.31258827852827581 0.89214793616708443 0 0.37776173212361452 0.78514649317305008 0 0.43750000000181222 0.89174682452709564 0 0.37500000000156292 1 0 0.31258827852827581 0.89214793616708443 0 0.121259140952891 0.43112117036853742 0 0 0.37500000000156292 0 0.1082531754734323 0.31250000000117473 0 0.50000000000206146 1 0 0.37500000000156292 1 0 0.43750000000181222 0.89174682452709564 0 0.31258827852827581 0.89214793616708443 0 0.18802967116092181 0.89415349436770275 0 0.23533274979922561 0.77093399389351469 0 0 0.50000000000206146 0 0 0.37500000000156292 0 0.121259140952891 0.43112117036853742 0 0.62844955668446423 0.7850749770380413 0 0.69010814643829166 0.89298495739101336 0 0.56327595140699671 0.89211526915426331 0 0.69010814643829166 0.89298495739101336 0 0.62500000000121547 1 0 0.56327595140699671 0.89211526915426331 0 0.25000000000104189 1 0 0.18802967116092181 0.89415349436770275 0 0.31258827852827581 0.89214793616708443 0 0.50000000000206146 1 0 0.43750000000181222 0.89174682452709564 0 0.56327595140699671 0.89211526915426331 0 0.56249999999885147 0.1082531754730395 0 0.62499999999901068 0 0 0.68749999999926592 0.1082531754732875 0 1 0.49999999999869221 0 1 0.62499999999901068 0 0.88927506082488361 0.56409486310635837 0 0 0.25000000000104189 0 0.12076953676380731 0.18690935762408761 0 0.1082531754734323 0.31250000000117473 0 0.49999999999869221 0 0 0.62499999999901068 0 0 0.56249999999885147 0.1082531754730395 0 0.62500000000121547 1 0 0.50000000000206146 1 0 0.56327595140699671 0.89211526915426331 0 0.37500000000156292 1 0 0.25000000000104189 1 0 0.31258827852827581 0.89214793616708443 0 0.31281086598417152 0.10449318608631281 0 0.37499999999904599 0 0 0.43749999999910871 0.1082531754729984 0 0.43750000000181222 0.89174682452709564 0 0.37776173212361452 0.78514649317305008 0 0.50046028868828263 0.78376912307435687 0 0 0.37500000000156292 0 0 0.25000000000104189 0 0.1082531754734323 0.31250000000117473 0 0.49999999999869221 0 0 0.56249999999885147 0.1082531754730395 0 0.43749999999910871 0.1082531754729984 0 0.43750000000181222 0.89174682452709564 0 0.50046028868828263 0.78376912307435687 0 0.56327595140699671 0.89211526915426331 0 0.74999999999934042 0 0 0.81249999999950517 0.1082531754733404 0 0.68749999999926592 0.1082531754732875 0 0.37499999999904599 0 0 0.49999999999869221 0 0 0.43749999999910871 0.1082531754729984 0 0.25000000000104189 1 0 0.12500000000052089 1 0 0.18802967116092181 0.89415349436770275 0 0.50046028868828263 0.78376912307435687 0 0.62844955668446423 0.7850749770380413 0 0.56327595140699671 0.89211526915426331 0 0.37776173212361452 0.78514649317305008 0 0.31258827852827581 0.89214793616708443 0 0.23533274979922561 0.77093399389351469 0 0.62499999999901068 0 0 0.74999999999934042 0 0 0.68749999999926592 0.1082531754732875 0 1 0.74999999999934042 0 1 0.87499999999967015 0 0.89051480781310632 0.79665793440246835 0 0 0.25000000000104189 0 0 0.12500000000052089 0 0.12076953676380731 0.18690935762408761 0 0.74999999999934042 0 0 0.87499999999967015 0 0 0.81249999999950517 0.1082531754733404 0 0.24999999999941069 0 0 0.37499999999904599 0 0 0.31281086598417152 0.10449318608631281 0 0.50046028868828263 0.78376912307435687 0 0.37776173212361452 0.78514649317305008 0 0.44078402250377968 0.67714785211715212 0 0.68768773896438518 0.4586835206367198 0 0.75000000000032374 0.56698729811007709 0 0.62752533658682441 0.56838075195614346 0 0.31411863959822661 0.24965544328045999 0 0.37953773393552892 0.34812185820708452 0 0.24418615484441761 0.35773612382016978 0 0.68768773896438518 0.4586835206367198 0 0.81242894672211508 0.45500248311961472 0 0.75000000000032374 0.56698729811007709 0 1 0.24999999999941069 0 1 0.37499999999904599 0 0.88173731489851925 0.33077402607778361 0 0 0.75000000000034761 0 0 0.62500000000121547 0 0.1082531754723032 0.6875000000007816 0 0.50048844149666749 0.56727788297625459 0 0.44078402250377968 0.67714785211715212 0 0.38694285807596462 0.5672991787102919 0 0.50108503093851109 0.35012252869403671 0 0.44301038174930041 0.45684931552185398 0 0.37953773393552892 0.34812185820708452 0 0.50046028868828263 0.78376912307435687 0 0.56496004948275869 0.67675037307860475 0 0.62844955668446423 0.7850749770380413 0 0.68768773896438518 0.4586835206367198 0 0.75000000000057243 0.35048094716480432 0 0.81242894672211508 0.45500248311961472 0 0.56349980387502452 0.45846841892908402 0 0.62512662990940393 0.35044303886909911 0 0.68768773896438518 0.4586835206367198 0 0.50048844149666749 0.56727788297625459 0 0.38694285807596462 0.5672991787102919 0 0.44301038174930041 0.45684931552185398 0 0.50046028868828263 0.78376912307435687 0 0.44078402250377968 0.67714785211715212 0 0.56496004948275869 0.67675037307860475 0 0.50108503093851109 0.35012252869403671 0 0.37953773393552892 0.34812185820708452 0 0.43750000000200551 0.24222777169198509 0 0.75000000000034761 1 0 0.62500000000121547 1 0 0.69010814643829166 0.89298495739101336 0 0.68768773896438518 0.4586835206367198 0 0.62512662990940393 0.35044303886909911 0 0.75000000000057243 0.35048094716480432 0 0.56496004948275869 0.67675037307860475 0 0.44078402250377968 0.67714785211715212 0 0.50048844149666749 0.56727788297625459 0 0.56349980387502452 0.45846841892908402 0 0.44301038174930041 0.45684931552185398 0 0.50108503093851109 0.35012252869403671 0 0.50048844149666749 0.56727788297625459 0 0.44301038174930041 0.45684931552185398 0 0.56349980387502452 0.45846841892908402 0 0.56349980387502452 0.45846841892908402 0 0.50108503093851109 0.35012252869403671 0 0.62512662990940393 0.35044303886909911 0 0.43750000000200551 0.24222777169198509 0 0.37953773393552892 0.34812185820708452 0 0.31411863959822661 0.24965544328045999 0 0.56496004948275869 0.67675037307860475 0 0.50048844149666749 0.56727788297625459 0 0.62752533658682441 0.56838075195614346 0 0.56349980387502452 0.45846841892908402 0 0.68768773896438518 0.4586835206367198 0 0.62752533658682441 0.56838075195614346 0 0.50048844149666749 0.56727788297625459 0 0.56349980387502452 0.45846841892908402 0 0.62752533658682441 0.56838075195614346 0 0.75000000000057243 0.35048094716480432 0 0.62512662990940393 0.35044303886909911 0 0.68668231842078242 0.24762892664808989 0 0.50108503093851109 0.35012252869403671 0 0.43750000000200551 0.24222777169198509 0 0.56250000000143974 0.2422277716920859 0 0.62512662990940393 0.35044303886909911 0 0.50108503093851109 0.35012252869403671 0 0.56250000000143974 0.2422277716920859 0 0.68668231842078242 0.24762892664808989 0 0.62512662990940393 0.35044303886909911 0 0.56250000000143974 0.2422277716920859 0 0.22257735880419699 0.47344721641341742 0 0.24418615484441761 0.35773612382016978 0 0.32815957677880009 0.4577243358118348 0 0.12076953676380731 0.18690935762408761 0 0.19185372118111221 0.092925648673580788 0 0.25103557339309318 0.17464499738446629 0 0.20767261601459541 0.25628918442207171 0 0.12076953676380731 0.18690935762408761 0 0.25103557339309318 0.17464499738446629 0 0 0.87499999999950151 0 0 0.75000000000034761 0 0.10409951422139101 0.81206782209691231 0 0.1249999999997731 0 0 0.24999999999941069 0 0 0.19185372118111221 0.092925648673580788 0 1 0.1249999999997731 0 1 0.24999999999941069 0 0.89658421694297741 0.1933620068391701 0 0.88927506082488361 0.56409486310635837 0 0.81242894672211508 0.45500248311961472 0 0.915464298762109 0.43749999999886913 0 0.87499999999950151 1 0 0.75000000000034761 1 0 0.80886664387416207 0.89717308644237903 0 0.75000000000034761 1 0 0.69010814643829166 0.89298495739101336 0 0.80886664387416207 0.89717308644237903 0 0.82212678063041267 0.67678595194836966 0 0.88927506082488361 0.56409486310635837 0 0.92266244547590082 0.68749999999917555 0 0 0.75000000000034761 0 0.1082531754723032 0.6875000000007816 0 0.10409951422139101 0.81206782209691231 0 0.24999999999941069 0 0 0.31281086598417152 0.10449318608631281 0 0.19185372118111221 0.092925648673580788 0 1 0.24999999999941069 0 0.88173731489851925 0.33077402607778361 0 0.89658421694297741 0.1933620068391701 0 0.32815957677880009 0.4577243358118348 0 0.38694285807596462 0.5672991787102919 0 0.26982811998763367 0.56544650815856912 0 0.76243180583607129 0.78687675331113149 0 0.89051480781310632 0.79665793440246835 0 0.80886664387416207 0.89717308644237903 0 0.38694285807596462 0.5672991787102919 0 0.44078402250377968 0.67714785211715212 0 0.32607333794064219 0.67760114260606152 0 0.37776173212361452 0.78514649317305008 0 0.23533274979922561 0.77093399389351469 0 0.32607333794064219 0.67760114260606152 0 1 0.49999999999869221 0 0.88927506082488361 0.56409486310635837 0 0.915464298762109 0.43749999999886913 0 0.88173731489851925 0.33077402607778361 0 1 0.37499999999904599 0 0.915464298762109 0.43749999999886913 0 0.24418615484441761 0.35773612382016978 0 0.37953773393552892 0.34812185820708452 0 0.32815957677880009 0.4577243358118348 0 0.44301038174930041 0.45684931552185398 0 0.38694285807596462 0.5672991787102919 0 0.32815957677880009 0.4577243358118348 0 0.88927506082488361 0.56409486310635837 0 1 0.62499999999901068 0 0.92266244547590082 0.68749999999917555 0 1 0.74999999999934042 0 0.89051480781310632 0.79665793440246835 0 0.92266244547590082 0.68749999999917555 0 0 1 0 0 0.87499999999950151 0 0.091506350946494744 0.90849364905351082 0 1 1 0 0.87499999999950151 1 0 0.90849364905363228 0.90849364905367769 0 0 0 0 0.1249999999997731 0 0 0.091506350946417708 0.091506350946618076 0 0 0.12500000000052089 0 0 0 0 0.091506350946417708 0.091506350946618076 0 1 0 0 1 0.1249999999997731 0 0.90849364905355434 0.091506350946296292 0 0.87499999999967015 0 0 1 0 0 0.90849364905355434 0.091506350946296292 0 0.12500000000052089 1 0 0 1 0 0.091506350946494744 0.90849364905351082 0 1 0.87499999999967015 0 1 1 0 0.90849364905363228 0.90849364905367769 0 0.38694285807596462 0.5672991787102919 0 0.32607333794064219 0.67760114260606152 0 0.26982811998763367 0.56544650815856912 0 0.31411863959822661 0.24965544328045999 0 0.24418615484441761 0.35773612382016978 0 0.20767261601459541 0.25628918442207171 0 0.1082531754734323 0.31250000000117473 0 0.12076953676380731 0.18690935762408761 0 0.20767261601459541 0.25628918442207171 0 0.75000000000057243 0.35048094716480432 0 0.68668231842078242 0.24762892664808989 0 0.79891106056046712 0.25007334953587562 0 0.22257735880419699 0.47344721641341742 0 0.32815957677880009 0.4577243358118348 0 0.26982811998763367 0.56544650815856912 0 0.44078402250377968 0.67714785211715212 0 0.37776173212361452 0.78514649317305008 0 0.32607333794064219 0.67760114260606152 0 0.89658421694297741 0.1933620068391701 0 0.88173731489851925 0.33077402607778361 0 0.79891106056046712 0.25007334953587562 0 1 0.37499999999904599 0 1 0.49999999999869221 0 0.915464298762109 0.43749999999886913 0 0.37953773393552892 0.34812185820708452 0 0.44301038174930041 0.45684931552185398 0 0.32815957677880009 0.4577243358118348 0 0.32607333794064219 0.67760114260606152 0 0.21809253452218619 0.65480892822618109 0 0.26982811998763367 0.56544650815856912 0 1 0.1249999999997731 0 0.89658421694297741 0.1933620068391701 0 0.90849364905355434 0.091506350946296292 0 0 0.87499999999950151 0 0.10409951422139101 0.81206782209691231 0 0.091506350946494744 0.90849364905351082 0 0.1249999999997731 0 0 0.19185372118111221 0.092925648673580788 0 0.091506350946417708 0.091506350946618076 0 1 0.62499999999901068 0 1 0.74999999999934042 0 0.92266244547590082 0.68749999999917555 0 0.18802967116092181 0.89415349436770275 0 0.12500000000052089 1 0 0.091506350946494744 0.90849364905351082 0 0.89051480781310632 0.79665793440246835 0 1 0.87499999999967015 0 0.90849364905363228 0.90849364905367769 0 0.12076953676380731 0.18690935762408761 0 0 0.12500000000052089 0 0.091506350946417708 0.091506350946618076 0 0.81249999999950517 0.1082531754733404 0 0.87499999999967015 0 0 0.90849364905355434 0.091506350946296292 0 0.87499999999950151 1 0 0.80886664387416207 0.89717308644237903 0 0.90849364905363228 0.90849364905367769 0 0.68668231842078242 0.24762892664808989 0 0.62499999999892575 0.17524047358135519 0 0.73983916756365475 0.17530677078674589 0 0.31281086598417152 0.10449318608631281 0 0.43749999999910871 0.1082531754729984 0 0.37500000000232431 0.17524047358384309 0 0.62499999999892575 0.17524047358135519 0 0.56250000000143974 0.2422277716920859 0 0.49999999999934441 0.1752404735815076 0 0.56249999999885147 0.1082531754730395 0 0.68749999999926592 0.1082531754732875 0 0.62499999999892575 0.17524047358135519 0 0.56249999999885147 0.1082531754730395 0 0.62499999999892575 0.17524047358135519 0 0.49999999999934441 0.1752404735815076 0 0.56250000000143974 0.2422277716920859 0 0.43750000000200551 0.24222777169198509 0 0.49999999999934441 0.1752404735815076 0 0.43749999999910871 0.1082531754729984 0 0.56249999999885147 0.1082531754730395 0 0.49999999999934441 0.1752404735815076 0 0.68668231842078242 0.24762892664808989 0 0.56250000000143974 0.2422277716920859 0 0.62499999999892575 0.17524047358135519 0 0.43750000000200551 0.24222777169198509 0 0.31411863959822661 0.24965544328045999 0 0.37500000000232431 0.17524047358384309 0 0.49999999999934441 0.1752404735815076 0 0.43750000000200551 0.24222777169198509 0 0.37500000000232431 0.17524047358384309 0 0.43749999999910871 0.1082531754729984 0 0.49999999999934441 0.1752404735815076 0 0.37500000000232431 0.17524047358384309 0 0.62499999999892575 0.17524047358135519 0 0.68749999999926592 0.1082531754732875 0 0.73983916756365475 0.17530677078674589 0 0.68749999999926592 0.1082531754732875 0 0.81249999999950517 0.1082531754733404 0 0.73983916756365475 0.17530677078674589 0 0.10409951422139101 0.81206782209691231 0 0.18802967116092181 0.89415349436770275 0 0.091506350946494744 0.90849364905351082 0 0.89658421694297741 0.1933620068391701 0 0.81249999999950517 0.1082531754733404 0 0.90849364905355434 0.091506350946296292 0 0.19185372118111221 0.092925648673580788 0 0.12076953676380731 0.18690935762408761 0 0.091506350946417708 0.091506350946618076 0 0.37500000000232431 0.17524047358384309 0 0.31411863959822661 0.24965544328045999 0 0.25103557339309318 0.17464499738446629 0 0.31281086598417152 0.10449318608631281 0 0.37500000000232431 0.17524047358384309 0 0.25103557339309318 0.17464499738446629 0 0.80886664387416207 0.89717308644237903 0 0.89051480781310632 0.79665793440246835 0 0.90849364905363228 0.90849364905367769 0 0.19185372118111221 0.092925648673580788 0 0.31281086598417152 0.10449318608631281 0 0.25103557339309318 0.17464499738446629 0 0.79891106056046712 0.25007334953587562 0 0.68668231842078242 0.24762892664808989 0 0.73983916756365475 0.17530677078674589 0 0.31411863959822661 0.24965544328045999 0 0.20767261601459541 0.25628918442207171 0 0.25103557339309318 0.17464499738446629 0 

        </DataArray>

      </Points>

      <Cells>

        <DataArray type="Int32" Name="connectivity" format="ascii">

0 1 2 3 4 5 6 7 8 9 10 11 12 13 14 15 16 17 18 19 20 21 22 23 24 25 26 27 28 29 30 31 32 33 34 35 36 37 38 39 40 41 42 43 44 45 46 47 48 49 50 51 52 53 54 55 56 57 58 59 60 61 62 63 64 65 66 67 68 69 70 71 72 73 74 75 76 77 78 79 80 81 82 83 84 85 86 87 88 89 90 91 92 93 94 95 96 97 98 99 100 101 102 103 104 105 106 107 108 109 110 111 112 113 114 115 116 117 118 119 120 121 122 123 124 125 126 127 128 129 130 131 132 133 134 135 136 137 138 139 140 141 142 143 144 145 146 147 148 149 150 151 152 153 154 155 156 157 158 159 160 161 162 163 164 165 166 167 168 169 170 171 172 173 174 175 176 177 178 179 180 181 182 183 184 185 186 187 188 189 190 191 192 193 194 195 196 197 198 199 200 201 202 203 204 205 206 207 208 209 210 211 212 213 214 215 216 217 218 219 220 221 222 223 224 225 226 227 228 229 230 231 232 233 234 235 236 237 238 239 240 241 242 243 244 245 246 247 248 249 250 251 252 253 254 255 256 257 258 259 260 261 262 263 264 265 266 267 268 269 270 271 272 273 274 275 276 277 278 279 280 281 282 283 284 285 286 287 288 289 290 291 292 293 294 295 296 297 298 299 300 301 302 303 304 305 306 307 308 309 310 311 312 313 314 315 316 317 318 319 320 321 322 323 324 325 326 327 328 329 330 331 332 333 334 335 336 337 338 339 340 341 342 343 344 345 346 347 348 349 350 351 352 353 354 355 356 357 358 359 360 361 362 363 364 365 366 367 368 369 370 371 372 373 374 375 376 377 378 379 380 381 382 383 384 385 386 387 388 389 390 391 392 393 394 395 396 397 398 399 400 401 402 403 404 405 406 407 408 409 410 411 412 413 414 415 416 417 418 419 420 421 422 423 424 425 426 427 428 429 430 431 432 433 434 435 436 437 438 439 440 441 442 443 444 445 446 447 448 449 450 451 452 453 454 455 456 457 458 459 460 461 462 463 464 465 466 467 468 469 470 471 472 473 474 475 476 477 478 479 480 481 482 483 484 485 

        </DataArray>

        <DataArray type="Int32" Name="offsets" format="ascii">

3 6 9 12 15 18 21 24 27 30 33 36 39 42 45 48 51 54 57 60 63 66 69 72 75 78 81 84 87 90 93 96 99 102 105 108 111 114 117 120 123 126 129 132 135 138 141 144 147 150 153 156 159 162 165 168 171 174 177 180 183 186 189 192 195 198 201 204 207 210 213 216 219 222 225 228 231 234 237 240 243 246 249 252 255 258 261 264 267 270 273 276 279 282 285 288 291 294 297 300 303 306 309 312 315 318 321 324 327 330 333 336 339 342 345 348 351 354 357 360 363 366 369 372 375 378 381 384 387 390 393 396 399 402 405 408 411 414 417 420 423 426 429 432 435 438 441 444 447 450 453 456 459 462 465 468 471 474 477 480 483 486 

        </DataArray>

        <DataArray type="Int32" Name="types" format="ascii">

5 5 5 5 5 5 5 5 5 5 5 5 5 5 5 5 5 5 5 5 5 5 5 5 5 5 5 5 5 5 5 5 5 5 5 5 5 5 5 5 5 5 5 5 5 5 5 5 5 5 5 5 5 5 5 5 5 5 5 5 5 5 5 5 5 5 5 5 5 5 5 5 5 5 5 5 5 5 5 5 5 5 5 5 5 5 5 5 5 5 5 5 5 5 5 5 5 5 5 5 5 5 5 5 5 5 5 5 5 5 5 5 5 5 5 5 5 5 5 5 5 5 5 5 5 5 5 5 5 5 5 5 5 5 5 5 5 5 5 5 5 5 5 5 5 5 5 5 5 5 5 5 5 5 5 5 5 5 5 5 5 5 

        </DataArray>

      </Cells>

    </Piece>

  </UnstructuredGrid>

</VTKFile>

