<?xml version="1.0"?>

<VTKFile type="UnstructuredGrid" version="0.1">

  <UnstructuredGrid>

    <Piece NumberOfPoints="486" NumberOfCells="162">

      <PointData>

        <DataArray type="Float64" Name="K" format="ascii">

9.94464232480673394e-01
9.94464232480673394e-01
9.94464232480673394e-01
9.87696926715948442e-01
9.87696926715948442e-01
9.87696926715948442e-01
1.04364393345478179e+00
1.04364393345478179e+00
1.04364393345478179e+00
9.79268973232843676e-01
9.79268973232843676e-01
9.79268973232843676e-01
1.03555434061634699e+00
1.03555434061634699e+00
1.03555434061634699e+00
9.96683763732469918e-01
9.96683763732469918e-01
9.96683763732469918e-01
1.03613212473572402e+00
1.03613212473572402e+00
1.03613212473572402e+00
9.50236056137582996e-01
9.50236056137582996e-01
9.50236056137582996e-01
9.72899632087070088e-01
9.72899632087070088e-01
9.72899632087070088e-01
9.43125384432245029e-01
9.43125384432245029e-01
9.43125384432245029e-01
1.03642257023478823e+00
1.03642257023478823e+00
1.03642257023478823e+00
1.02994049457801973e+00
1.02994049457801973e+00
1.02994049457801973e+00
9.63719060105730496e-01
9.63719060105730496e-01
9.63719060105730496e-01
9.77098858647523660e-01
9.77098858647523660e-01
9.77098858647523660e-01
9.19560040932002387e-01
9.19560040932002387e-01
9.19560040932002387e-01
9.59689461654116172e-01
9.59689461654116172e-01
9.59689461654116172e-01
9.97231019650316464e-01
9.97231019650316464e-01
9.97231019650316464e-01
1.02845886924688079e+00
1.02845886924688079e+00
1.02845886924688079e+00
9.46489060649230662e-01
9.46489060649230662e-01
9.46489060649230662e-01
9.25683473740674945e-01
9.25683473740674945e-01
9.25683473740674945e-01
1.00498357942004923e+00
1.00498357942004923e+00
1.00498357942004923e+00
9.93483757894761954e-01
9.93483757894761954e-01
9.93483757894761954e-01
1.04899039018959739e+00
1.04899039018959739e+00
1.04899039018959739e+00
9.67980279046919745e-01
9.67980279046919745e-01
9.67980279046919745e-01
9.62258377576548529e-01
9.62258377576548529e-01
9.62258377576548529e-01
9.38689523216951538e-01
9.38689523216951538e-01
9.38689523216951538e-01
9.50131094798683185e-01
9.50131094798683185e-01
9.50131094798683185e-01
9.86148943514085774e-01
9.86148943514085774e-01
9.86148943514085774e-01
1.00069267570015952e+00
1.00069267570015952e+00
1.00069267570015952e+00
9.60579145381221133e-01
9.60579145381221133e-01
9.60579145381221133e-01
9.79092190178353250e-01
9.79092190178353250e-01
9.79092190178353250e-01
9.33466155577473478e-01
9.33466155577473478e-01
9.33466155577473478e-01
9.44429721222496243e-01
9.44429721222496243e-01
9.44429721222496243e-01
1.02373864929067726e+00
1.02373864929067726e+00
1.02373864929067726e+00
9.75914627502123988e-01
9.75914627502123988e-01
9.75914627502123988e-01
9.82784877850931937e-01
9.82784877850931937e-01
9.82784877850931937e-01
1.01570819984164484e+00
1.01570819984164484e+00
1.01570819984164484e+00
9.71812568690872403e-01
9.71812568690872403e-01
9.71812568690872403e-01
9.95323851380010227e-01
9.95323851380010227e-01
9.95323851380010227e-01
9.77319366871925332e-01
9.77319366871925332e-01
9.77319366871925332e-01
9.75605711252355512e-01
9.75605711252355512e-01
9.75605711252355512e-01
9.41844027620751034e-01
9.41844027620751034e-01
9.41844027620751034e-01
9.74276738741338799e-01
9.74276738741338799e-01
9.74276738741338799e-01
1.02850214018499031e+00
1.02850214018499031e+00
1.02850214018499031e+00
9.40681568625590381e-01
9.40681568625590381e-01
9.40681568625590381e-01
1.00557044848926314e+00
1.00557044848926314e+00
1.00557044848926314e+00
9.55207756079351156e-01
9.55207756079351156e-01
9.55207756079351156e-01
1.00627988632152654e+00
1.00627988632152654e+00
1.00627988632152654e+00
9.16960589583198260e-01
9.16960589583198260e-01
9.16960589583198260e-01
1.01335673384575409e+00
1.01335673384575409e+00
1.01335673384575409e+00
9.48930714106647755e-01
9.48930714106647755e-01
9.48930714106647755e-01
9.33001867466883406e-01
9.33001867466883406e-01
9.33001867466883406e-01
9.41137666280154939e-01
9.41137666280154939e-01
9.41137666280154939e-01
9.82168766073605592e-01
9.82168766073605592e-01
9.82168766073605592e-01
1.00448612542961868e+00
1.00448612542961868e+00
1.00448612542961868e+00
9.33924577314319548e-01
9.33924577314319548e-01
9.33924577314319548e-01
9.63480836814612940e-01
9.63480836814612940e-01
9.63480836814612940e-01
9.35975972454819449e-01
9.35975972454819449e-01
9.35975972454819449e-01
9.97064764730965059e-01
9.97064764730965059e-01
9.97064764730965059e-01
1.05218716517615585e+00
1.05218716517615585e+00
1.05218716517615585e+00
9.28305545083849992e-01
9.28305545083849992e-01
9.28305545083849992e-01
1.02107541439815663e+00
1.02107541439815663e+00
1.02107541439815663e+00
9.19054939697832585e-01
9.19054939697832585e-01
9.19054939697832585e-01
9.54469071469070451e-01
9.54469071469070451e-01
9.54469071469070451e-01
1.02571679817714734e+00
1.02571679817714734e+00
1.02571679817714734e+00
9.71044204000498956e-01
9.71044204000498956e-01
9.71044204000498956e-01
1.02583768926189389e+00
1.02583768926189389e+00
1.02583768926189389e+00
1.03375954013902871e+00
1.03375954013902871e+00
1.03375954013902871e+00
9.74491156744260456e-01
9.74491156744260456e-01
9.74491156744260456e-01
1.00732696989947024e+00
1.00732696989947024e+00
1.00732696989947024e+00
9.05819433288624687e-01
9.05819433288624687e-01
9.05819433288624687e-01
9.76045138208743279e-01
9.76045138208743279e-01
9.76045138208743279e-01
9.97067094191279146e-01
9.97067094191279146e-01
9.97067094191279146e-01
1.00272078529064435e+00
1.00272078529064435e+00
1.00272078529064435e+00
9.01232515528093248e-01
9.01232515528093248e-01
9.01232515528093248e-01
9.89679275093148125e-01
9.89679275093148125e-01
9.89679275093148125e-01
1.00266551418663830e+00
1.00266551418663830e+00
1.00266551418663830e+00
9.91939816579810230e-01
9.91939816579810230e-01
9.91939816579810230e-01
9.23838517020948213e-01
9.23838517020948213e-01
9.23838517020948213e-01
1.01512977522488423e+00
1.01512977522488423e+00
1.01512977522488423e+00
9.97550984565334309e-01
9.97550984565334309e-01
9.97550984565334309e-01
1.01850233930337253e+00
1.01850233930337253e+00
1.01850233930337253e+00
9.99060591593018410e-01
9.99060591593018410e-01
9.99060591593018410e-01
9.19498701235830551e-01
9.19498701235830551e-01
9.19498701235830551e-01
9.63708287115173534e-01
9.63708287115173534e-01
9.63708287115173534e-01
9.57225962339665948e-01
9.57225962339665948e-01
9.57225962339665948e-01
1.00360361720433433e+00
1.00360361720433433e+00
1.00360361720433433e+00
9.86374131371978047e-01
9.86374131371978047e-01
9.86374131371978047e-01
1.01625704141718365e+00
1.01625704141718365e+00
1.01625704141718365e+00
1.01751599526341696e+00
1.01751599526341696e+00
1.01751599526341696e+00
1.01950038243720753e+00
1.01950038243720753e+00
1.01950038243720753e+00
1.04220400345305531e+00
1.04220400345305531e+00
1.04220400345305531e+00
1.04663960333463368e+00
1.04663960333463368e+00
1.04663960333463368e+00
1.01081314227417751e+00
1.01081314227417751e+00
1.01081314227417751e+00
1.04070441334694030e+00
1.04070441334694030e+00
1.04070441334694030e+00
9.86367436234800721e-01
9.86367436234800721e-01
9.86367436234800721e-01
9.88557407601834193e-01
9.88557407601834193e-01
9.88557407601834193e-01
1.02116718515811922e+00
1.02116718515811922e+00
1.02116718515811922e+00
9.98664582363596454e-01
9.98664582363596454e-01
9.98664582363596454e-01
9.46919962215935995e-01
9.46919962215935995e-01
9.46919962215935995e-01
1.01390863272631626e+00
1.01390863272631626e+00
1.01390863272631626e+00
1.03374220661231142e+00
1.03374220661231142e+00
1.03374220661231142e+00
9.93372319540340665e-01
9.93372319540340665e-01
9.93372319540340665e-01
1.00646106442719008e+00
1.00646106442719008e+00
1.00646106442719008e+00
9.65969687163124924e-01
9.65969687163124924e-01
9.65969687163124924e-01
9.85088038292974200e-01
9.85088038292974200e-01
9.85088038292974200e-01
9.75994071901053251e-01
9.75994071901053251e-01
9.75994071901053251e-01
9.88903014663535918e-01
9.88903014663535918e-01
9.88903014663535918e-01
1.01745353100747371e+00
1.01745353100747371e+00
1.01745353100747371e+00
1.01586054493536504e+00
1.01586054493536504e+00
1.01586054493536504e+00
1.01324709656669465e+00
1.01324709656669465e+00
1.01324709656669465e+00
9.55559510272833812e-01
9.55559510272833812e-01
9.55559510272833812e-01
9.65285455334793929e-01
9.65285455334793929e-01
9.65285455334793929e-01
9.93983949213564588e-01
9.93983949213564588e-01
9.93983949213564588e-01
1.02125604199573816e+00
1.02125604199573816e+00
1.02125604199573816e+00
1.08446620590176068e+00
1.08446620590176068e+00
1.08446620590176068e+00
1.09233849015619344e+00
1.09233849015619344e+00
1.09233849015619344e+00
9.36456336687295443e-01
9.36456336687295443e-01
9.36456336687295443e-01
9.21608383064751790e-01
9.21608383064751790e-01
9.21608383064751790e-01
1.00768846846132054e+00
1.00768846846132054e+00
1.00768846846132054e+00
1.01405525997394319e+00
1.01405525997394319e+00
1.01405525997394319e+00
9.99935522336541593e-01
9.99935522336541593e-01
9.99935522336541593e-01
1.04880815905630387e+00
1.04880815905630387e+00
1.04880815905630387e+00
1.03883578919646857e+00
1.03883578919646857e+00
1.03883578919646857e+00
9.79244217984270859e-01
9.79244217984270859e-01
9.79244217984270859e-01
1.00513126805228126e+00
1.00513126805228126e+00
1.00513126805228126e+00
9.60181597807105103e-01
9.60181597807105103e-01
9.60181597807105103e-01
9.62112700884364180e-01
9.62112700884364180e-01
9.62112700884364180e-01
1.01326960634937691e+00
1.01326960634937691e+00
1.01326960634937691e+00
1.00973820491667232e+00
1.00973820491667232e+00
1.00973820491667232e+00
9.90710168814379011e-01
9.90710168814379011e-01
9.90710168814379011e-01
9.45992498523411274e-01
9.45992498523411274e-01
9.45992498523411274e-01
1.00311103137111624e+00
1.00311103137111624e+00
1.00311103137111624e+00
1.05412883582968231e+00
1.05412883582968231e+00
1.05412883582968231e+00
9.76593679540713633e-01
9.76593679540713633e-01
9.76593679540713633e-01
1.01375907575869428e+00
1.01375907575869428e+00
1.01375907575869428e+00
9.98841767857270857e-01
9.98841767857270857e-01
9.98841767857270857e-01
1.06098154986896898e+00
1.06098154986896898e+00
1.06098154986896898e+00
9.21042915819631380e-01
9.21042915819631380e-01
9.21042915819631380e-01
1.01457266314322792e+00
1.01457266314322792e+00
1.01457266314322792e+00
9.91585664716928550e-01
9.91585664716928550e-01
9.91585664716928550e-01
1.00447422782048035e+00
1.00447422782048035e+00
1.00447422782048035e+00
9.73341285216722585e-01
9.73341285216722585e-01
9.73341285216722585e-01
9.62340650463751834e-01
9.62340650463751834e-01
9.62340650463751834e-01
9.55357669934763787e-01
9.55357669934763787e-01
9.55357669934763787e-01
9.64940378542312183e-01
9.64940378542312183e-01
9.64940378542312183e-01
9.45825005745437375e-01
9.45825005745437375e-01
9.45825005745437375e-01
1.00137418953455426e+00
1.00137418953455426e+00
1.00137418953455426e+00
9.99967808342994480e-01
9.99967808342994480e-01
9.99967808342994480e-01
9.67567171884465171e-01
9.67567171884465171e-01
9.67567171884465171e-01
9.66459696608475305e-01
9.66459696608475305e-01
9.66459696608475305e-01
9.75928931704607372e-01
9.75928931704607372e-01
9.75928931704607372e-01
9.54989375445301159e-01
9.54989375445301159e-01
9.54989375445301159e-01
1.00637136710784181e+00
1.00637136710784181e+00
1.00637136710784181e+00
9.27512517712781537e-01
9.27512517712781537e-01
9.27512517712781537e-01
1.04488485955955168e+00
1.04488485955955168e+00
1.04488485955955168e+00
1.03583800283999428e+00
1.03583800283999428e+00
1.03583800283999428e+00
1.03544869421461572e+00
1.03544869421461572e+00
1.03544869421461572e+00
9.85720667404005435e-01
9.85720667404005435e-01
9.85720667404005435e-01
1.04280572865538512e+00
1.04280572865538512e+00
1.04280572865538512e+00
9.75185513385361302e-01
9.75185513385361302e-01
9.75185513385361302e-01
1.05151816539302878e+00
1.05151816539302878e+00
1.05151816539302878e+00


        </DataArray>

      </PointData>

      <CellData/>

      <Points>

        <DataArray type="Float64" NumberOfComponents="3" format="ascii">

0.1082531754723032 0.6875000000007816 0 0.23533274979922561 0.77093399389351469 0 0.10409951422139101 0.81206782209691231 0 0.23533274979922561 0.77093399389351469 0 0.1082531754723032 0.6875000000007816 0 0.21809253452218619 0.65480892822618109 0 0.24418615484441761 0.35773612382016978 0 0.121259140952891 0.43112117036853742 0 0.1082531754734323 0.31250000000117473 0 0.75000000000057243 0.35048094716480432 0 0.88173731489851925 0.33077402607778361 0 0.81242894672211508 0.45500248311961472 0 0.121259140952891 0.43112117036853742 0 0.24418615484441761 0.35773612382016978 0 0.22257735880419699 0.47344721641341742 0 0.81242894672211508 0.45500248311961472 0 0.88173731489851925 0.33077402607778361 0 0.915464298762109 0.43749999999886913 0 0 0.62500000000121547 0 0 0.50000000000206146 0 0.1371230538040123 0.56179824718362847 0 0.82212678063041267 0.67678595194836966 0 0.89051480781310632 0.79665793440246835 0 0.76243180583607129 0.78687675331113149 0 0.76243180583607129 0.78687675331113149 0 0.69010814643829166 0.89298495739101336 0 0.62844955668446423 0.7850749770380413 0 0.89051480781310632 0.79665793440246835 0 0.82212678063041267 0.67678595194836966 0 0.92266244547590082 0.68749999999917555 0 0 0.50000000000206146 0 0.121259140952891 0.43112117036853742 0 0.1371230538040123 0.56179824718362847 0 0.1082531754723032 0.6875000000007816 0 0 0.62500000000121547 0 0.1371230538040123 0.56179824718362847 0 0.75000000000032374 0.56698729811007709 0 0.88927506082488361 0.56409486310635837 0 0.82212678063041267 0.67678595194836966 0 0.81242894672211508 0.45500248311961472 0 0.88927506082488361 0.56409486310635837 0 0.75000000000032374 0.56698729811007709 0 0.69851598570178741 0.68211701800612057 0 0.56496004948275869 0.67675037307860475 0 0.62752533658682441 0.56838075195614346 0 0.69851598570178741 0.68211701800612057 0 0.76243180583607129 0.78687675331113149 0 0.62844955668446423 0.7850749770380413 0 0.23533274979922561 0.77093399389351469 0 0.18802967116092181 0.89415349436770275 0 0.10409951422139101 0.81206782209691231 0 0.121259140952891 0.43112117036853742 0 0.22257735880419699 0.47344721641341742 0 0.1371230538040123 0.56179824718362847 0 0.75000000000032374 0.56698729811007709 0 0.69851598570178741 0.68211701800612057 0 0.62752533658682441 0.56838075195614346 0 0.56496004948275869 0.67675037307860475 0 0.69851598570178741 0.68211701800612057 0 0.62844955668446423 0.7850749770380413 0 0.1371230538040123 0.56179824718362847 0 0.22257735880419699 0.47344721641341742 0 0.26982811998763367 0.56544650815856912 0 0.21809253452218619 0.65480892822618109 0 0.1371230538040123 0.56179824718362847 0 0.26982811998763367 0.56544650815856912 0 0.24418615484441761 0.35773612382016978 0 0.1082531754734323 0.31250000000117473 0 0.20767261601459541 0.25628918442207171 0 0.88173731489851925 0.33077402607778361 0 0.75000000000057243 0.35048094716480432 0 0.79891106056046712 0.25007334953587562 0 0.75000000000032374 0.56698729811007709 0 0.82212678063041267 0.67678595194836966 0 0.69851598570178741 0.68211701800612057 0 0.81249999999950517 0.1082531754733404 0 0.89658421694297741 0.1933620068391701 0 0.79891106056046712 0.25007334953587562 0 0.81249999999950517 0.1082531754733404 0 0.79891106056046712 0.25007334953587562 0 0.73983916756365475 0.17530677078674589 0 0.23533274979922561 0.77093399389351469 0 0.21809253452218619 0.65480892822618109 0 0.32607333794064219 0.67760114260606152 0 0.1082531754723032 0.6875000000007816 0 0.1371230538040123 0.56179824718362847 0 0.21809253452218619 0.65480892822618109 0 0.69851598570178741 0.68211701800612057 0 0.82212678063041267 0.67678595194836966 0 0.76243180583607129 0.78687675331113149 0 0.69010814643829166 0.89298495739101336 0 0.76243180583607129 0.78687675331113149 0 0.80886664387416207 0.89717308644237903 0 0.43750000000181222 0.89174682452709564 0 0.31258827852827581 0.89214793616708443 0 0.37776173212361452 0.78514649317305008 0 0.43750000000181222 0.89174682452709564 0 0.37500000000156292 1 0 0.31258827852827581 0.89214793616708443 0 0.121259140952891 0.43112117036853742 0 0 0.37500000000156292 0 0.1082531754734323 0.31250000000117473 0 0.50000000000206146 1 0 0.37500000000156292 1 0 0.43750000000181222 0.89174682452709564 0 0.31258827852827581 0.89214793616708443 0 0.18802967116092181 0.89415349436770275 0 0.23533274979922561 0.77093399389351469 0 0 0.50000000000206146 0 0 0.37500000000156292 0 0.121259140952891 0.43112117036853742 0 0.62844955668446423 0.7850749770380413 0 0.69010814643829166 0.89298495739101336 0 0.56327595140699671 0.89211526915426331 0 0.69010814643829166 0.89298495739101336 0 0.62500000000121547 1 0 0.56327595140699671 0.89211526915426331 0 0.25000000000104189 1 0 0.18802967116092181 0.89415349436770275 0 0.31258827852827581 0.89214793616708443 0 0.50000000000206146 1 0 0.43750000000181222 0.89174682452709564 0 0.56327595140699671 0.89211526915426331 0 0.56249999999885147 0.1082531754730395 0 0.62499999999901068 0 0 0.68749999999926592 0.1082531754732875 0 1 0.49999999999869221 0 1 0.62499999999901068 0 0.88927506082488361 0.56409486310635837 0 0 0.25000000000104189 0 0.12076953676380731 0.18690935762408761 0 0.1082531754734323 0.31250000000117473 0 0.49999999999869221 0 0 0.62499999999901068 0 0 0.56249999999885147 0.1082531754730395 0 0.62500000000121547 1 0 0.50000000000206146 1 0 0.56327595140699671 0.89211526915426331 0 0.37500000000156292 1 0 0.25000000000104189 1 0 0.31258827852827581 0.89214793616708443 0 0.31281086598417152 0.10449318608631281 0 0.37499999999904599 0 0 0.43749999999910871 0.1082531754729984 0 0.43750000000181222 0.89174682452709564 0 0.37776173212361452 0.78514649317305008 0 0.50046028868828263 0.78376912307435687 0 0 0.37500000000156292 0 0 0.25000000000104189 0 0.1082531754734323 0.31250000000117473 0 0.49999999999869221 0 0 0.56249999999885147 0.1082531754730395 0 0.43749999999910871 0.1082531754729984 0 0.43750000000181222 0.89174682452709564 0 0.50046028868828263 0.78376912307435687 0 0.56327595140699671 0.89211526915426331 0 0.74999999999934042 0 0 0.81249999999950517 0.1082531754733404 0 0.68749999999926592 0.1082531754732875 0 0.37499999999904599 0 0 0.49999999999869221 0 0 0.43749999999910871 0.1082531754729984 0 0.25000000000104189 1 0 0.12500000000052089 1 0 0.18802967116092181 0.89415349436770275 0 0.50046028868828263 0.78376912307435687 0 0.62844955668446423 0.7850749770380413 0 0.56327595140699671 0.89211526915426331 0 0.37776173212361452 0.78514649317305008 0 0.31258827852827581 0.89214793616708443 0 0.23533274979922561 0.77093399389351469 0 0.62499999999901068 0 0 0.74999999999934042 0 0 0.68749999999926592 0.1082531754732875 0 1 0.74999999999934042 0 1 0.87499999999967015 0 0.89051480781310632 0.79665793440246835 0 0 0.25000000000104189 0 0 0.12500000000052089 0 0.12076953676380731 0.18690935762408761 0 0.74999999999934042 0 0 0.87499999999967015 0 0 0.81249999999950517 0.1082531754733404 0 0.24999999999941069 0 0 0.37499999999904599 0 0 0.31281086598417152 0.10449318608631281 0 0.50046028868828263 0.78376912307435687 0 0.37776173212361452 0.78514649317305008 0 0.44078402250377968 0.67714785211715212 0 0.68768773896438518 0.4586835206367198 0 0.75000000000032374 0.56698729811007709 0 0.62752533658682441 0.56838075195614346 0 0.31411863959822661 0.24965544328045999 0 0.37953773393552892 0.34812185820708452 0 0.24418615484441761 0.35773612382016978 0 0.68768773896438518 0.4586835206367198 0 0.81242894672211508 0.45500248311961472 0 0.75000000000032374 0.56698729811007709 0 1 0.24999999999941069 0 1 0.37499999999904599 0 0.88173731489851925 0.33077402607778361 0 0 0.75000000000034761 0 0 0.62500000000121547 0 0.1082531754723032 0.6875000000007816 0 0.50048844149666749 0.56727788297625459 0 0.44078402250377968 0.67714785211715212 0 0.38694285807596462 0.5672991787102919 0 0.50108503093851109 0.35012252869403671 0 0.44301038174930041 0.45684931552185398 0 0.37953773393552892 0.34812185820708452 0 0.50046028868828263 0.78376912307435687 0 0.56496004948275869 0.67675037307860475 0 0.62844955668446423 0.7850749770380413 0 0.68768773896438518 0.4586835206367198 0 0.75000000000057243 0.35048094716480432 0 0.81242894672211508 0.45500248311961472 0 0.56349980387502452 0.45846841892908402 0 0.62512662990940393 0.35044303886909911 0 0.68768773896438518 0.4586835206367198 0 0.50048844149666749 0.56727788297625459 0 0.38694285807596462 0.5672991787102919 0 0.44301038174930041 0.45684931552185398 0 0.50046028868828263 0.78376912307435687 0 0.44078402250377968 0.67714785211715212 0 0.56496004948275869 0.67675037307860475 0 0.50108503093851109 0.35012252869403671 0 0.37953773393552892 0.34812185820708452 0 0.43750000000200551 0.24222777169198509 0 0.75000000000034761 1 0 0.62500000000121547 1 0 0.69010814643829166 0.89298495739101336 0 0.68768773896438518 0.4586835206367198 0 0.62512662990940393 0.35044303886909911 0 0.75000000000057243 0.35048094716480432 0 0.56496004948275869 0.67675037307860475 0 0.44078402250377968 0.67714785211715212 0 0.50048844149666749 0.56727788297625459 0 0.56349980387502452 0.45846841892908402 0 0.44301038174930041 0.45684931552185398 0 0.50108503093851109 0.35012252869403671 0 0.50048844149666749 0.56727788297625459 0 0.44301038174930041 0.45684931552185398 0 0.56349980387502452 0.45846841892908402 0 0.56349980387502452 0.45846841892908402 0 0.50108503093851109 0.35012252869403671 0 0.62512662990940393 0.35044303886909911 0 0.43750000000200551 0.24222777169198509 0 0.37953773393552892 0.34812185820708452 0 0.31411863959822661 0.24965544328045999 0 0.56496004948275869 0.67675037307860475 0 0.50048844149666749 0.56727788297625459 0 0.62752533658682441 0.56838075195614346 0 0.56349980387502452 0.45846841892908402 0 0.68768773896438518 0.4586835206367198 0 0.62752533658682441 0.56838075195614346 0 0.50048844149666749 0.56727788297625459 0 0.56349980387502452 0.45846841892908402 0 0.62752533658682441 0.56838075195614346 0 0.75000000000057243 0.35048094716480432 0 0.62512662990940393 0.35044303886909911 0 0.68668231842078242 0.24762892664808989 0 0.50108503093851109 0.35012252869403671 0 0.43750000000200551 0.24222777169198509 0 0.56250000000143974 0.2422277716920859 0 0.62512662990940393 0.35044303886909911 0 0.50108503093851109 0.35012252869403671 0 0.56250000000143974 0.2422277716920859 0 0.68668231842078242 0.24762892664808989 0 0.62512662990940393 0.35044303886909911 0 0.56250000000143974 0.2422277716920859 0 0.22257735880419699 0.47344721641341742 0 0.24418615484441761 0.35773612382016978 0 0.32815957677880009 0.4577243358118348 0 0.12076953676380731 0.18690935762408761 0 0.19185372118111221 0.092925648673580788 0 0.25103557339309318 0.17464499738446629 0 0.20767261601459541 0.25628918442207171 0 0.12076953676380731 0.18690935762408761 0 0.25103557339309318 0.17464499738446629 0 0 0.87499999999950151 0 0 0.75000000000034761 0 0.10409951422139101 0.81206782209691231 0 0.1249999999997731 0 0 0.24999999999941069 0 0 0.19185372118111221 0.092925648673580788 0 1 0.1249999999997731 0 1 0.24999999999941069 0 0.89658421694297741 0.1933620068391701 0 0.88927506082488361 0.56409486310635837 0 0.81242894672211508 0.45500248311961472 0 0.915464298762109 0.43749999999886913 0 0.87499999999950151 1 0 0.75000000000034761 1 0 0.80886664387416207 0.89717308644237903 0 0.75000000000034761 1 0 0.69010814643829166 0.89298495739101336 0 0.80886664387416207 0.89717308644237903 0 0.82212678063041267 0.67678595194836966 0 0.88927506082488361 0.56409486310635837 0 0.92266244547590082 0.68749999999917555 0 0 0.75000000000034761 0 0.1082531754723032 0.6875000000007816 0 0.10409951422139101 0.81206782209691231 0 0.24999999999941069 0 0 0.31281086598417152 0.10449318608631281 0 0.19185372118111221 0.092925648673580788 0 1 0.24999999999941069 0 0.88173731489851925 0.33077402607778361 0 0.89658421694297741 0.1933620068391701 0 0.32815957677880009 0.4577243358118348 0 0.38694285807596462 0.5672991787102919 0 0.26982811998763367 0.56544650815856912 0 0.76243180583607129 0.78687675331113149 0 0.89051480781310632 0.79665793440246835 0 0.80886664387416207 0.89717308644237903 0 0.38694285807596462 0.5672991787102919 0 0.44078402250377968 0.67714785211715212 0 0.32607333794064219 0.67760114260606152 0 0.37776173212361452 0.78514649317305008 0 0.23533274979922561 0.77093399389351469 0 0.32607333794064219 0.67760114260606152 0 1 0.49999999999869221 0 0.88927506082488361 0.56409486310635837 0 0.915464298762109 0.43749999999886913 0 0.88173731489851925 0.33077402607778361 0 1 0.37499999999904599 0 0.915464298762109 0.43749999999886913 0 0.24418615484441761 0.35773612382016978 0 0.37953773393552892 0.34812185820708452 0 0.32815957677880009 0.4577243358118348 0 0.44301038174930041 0.45684931552185398 0 0.38694285807596462 0.5672991787102919 0 0.32815957677880009 0.4577243358118348 0 0.88927506082488361 0.56409486310635837 0 1 0.62499999999901068 0 0.92266244547590082 0.68749999999917555 0 1 0.74999999999934042 0 0.89051480781310632 0.79665793440246835 0 0.92266244547590082 0.68749999999917555 0 0 1 0 0 0.87499999999950151 0 0.091506350946494744 0.90849364905351082 0 1 1 0 0.87499999999950151 1 0 0.90849364905363228 0.90849364905367769 0 0 0 0 0.1249999999997731 0 0 0.091506350946417708 0.091506350946618076 0 0 0.12500000000052089 0 0 0 0 0.091506350946417708 0.091506350946618076 0 1 0 0 1 0.1249999999997731 0 0.90849364905355434 0.091506350946296292 0 0.87499999999967015 0 0 1 0 0 0.90849364905355434 0.091506350946296292 0 0.12500000000052089 1 0 0 1 0 0.091506350946494744 0.90849364905351082 0 1 0.87499999999967015 0 1 1 0 0.90849364905363228 0.90849364905367769 0 0.38694285807596462 0.5672991787102919 0 0.32607333794064219 0.67760114260606152 0 0.26982811998763367 0.56544650815856912 0 0.31411863959822661 0.24965544328045999 0 0.24418615484441761 0.35773612382016978 0 0.20767261601459541 0.25628918442207171 0 0.1082531754734323 0.31250000000117473 0 0.12076953676380731 0.18690935762408761 0 0.20767261601459541 0.25628918442207171 0 0.75000000000057243 0.35048094716480432 0 0.68668231842078242 0.24762892664808989 0 0.79891106056046712 0.25007334953587562 0 0.22257735880419699 0.47344721641341742 0 0.32815957677880009 0.4577243358118348 0 0.26982811998763367 0.56544650815856912 0 0.44078402250377968 0.67714785211715212 0 0.37776173212361452 0.78514649317305008 0 0.32607333794064219 0.67760114260606152 0 0.89658421694297741 0.1933620068391701 0 0.88173731489851925 0.33077402607778361 0 0.79891106056046712 0.25007334953587562 0 1 0.37499999999904599 0 1 0.49999999999869221 0 0.915464298762109 0.43749999999886913 0 0.37953773393552892 0.34812185820708452 0 0.44301038174930041 0.45684931552185398 0 0.32815957677880009 0.4577243358118348 0 0.32607333794064219 0.67760114260606152 0 0.21809253452218619 0.65480892822618109 0 0.26982811998763367 0.56544650815856912 0 1 0.1249999999997731 0 0.89658421694297741 0.1933620068391701 0 0.90849364905355434 0.091506350946296292 0 0 0.87499999999950151 0 0.10409951422139101 0.81206782209691231 0 0.091506350946494744 0.90849364905351082 0 0.1249999999997731 0 0 0.19185372118111221 0.092925648673580788 0 0.091506350946417708 0.091506350946618076 0 1 0.62499999999901068 0 1 0.74999999999934042 0 0.92266244547590082 0.68749999999917555 0 0.18802967116092181 0.89415349436770275 0 0.12500000000052089 1 0 0.091506350946494744 0.90849364905351082 0 0.89051480781310632 0.79665793440246835 0 1 0.87499999999967015 0 0.90849364905363228 0.90849364905367769 0 0.12076953676380731 0.18690935762408761 0 0 0.12500000000052089 0 0.091506350946417708 0.091506350946618076 0 0.81249999999950517 0.1082531754733404 0 0.87499999999967015 0 0 0.90849364905355434 0.091506350946296292 0 0.87499999999950151 1 0 0.80886664387416207 0.89717308644237903 0 0.90849364905363228 0.90849364905367769 0 0.68668231842078242 0.24762892664808989 0 0.62499999999892575 0.17524047358135519 0 0.73983916756365475 0.17530677078674589 0 0.31281086598417152 0.10449318608631281 0 0.43749999999910871 0.1082531754729984 0 0.37500000000232431 0.17524047358384309 0 0.62499999999892575 0.17524047358135519 0 0.56250000000143974 0.2422277716920859 0 0.49999999999934441 0.1752404735815076 0 0.56249999999885147 0.1082531754730395 0 0.68749999999926592 0.1082531754732875 0 0.62499999999892575 0.17524047358135519 0 0.56249999999885147 0.1082531754730395 0 0.62499999999892575 0.17524047358135519 0 0.49999999999934441 0.1752404735815076 0 0.56250000000143974 0.2422277716920859 0 0.43750000000200551 0.24222777169198509 0 0.49999999999934441 0.1752404735815076 0 0.43749999999910871 0.1082531754729984 0 0.56249999999885147 0.1082531754730395 0 0.49999999999934441 0.1752404735815076 0 0.68668231842078242 0.24762892664808989 0 0.56250000000143974 0.2422277716920859 0 0.62499999999892575 0.17524047358135519 0 0.43750000000200551 0.24222777169198509 0 0.31411863959822661 0.24965544328045999 0 0.37500000000232431 0.17524047358384309 0 0.49999999999934441 0.1752404735815076 0 0.43750000000200551 0.24222777169198509 0 0.37500000000232431 0.17524047358384309 0 0.43749999999910871 0.1082531754729984 0 0.49999999999934441 0.1752404735815076 0 0.37500000000232431 0.17524047358384309 0 0.62499999999892575 0.17524047358135519 0 0.68749999999926592 0.1082531754732875 0 0.73983916756365475 0.17530677078674589 0 0.68749999999926592 0.1082531754732875 0 0.81249999999950517 0.1082531754733404 0 0.73983916756365475 0.17530677078674589 0 0.10409951422139101 0.81206782209691231 0 0.18802967116092181 0.89415349436770275 0 0.091506350946494744 0.90849364905351082 0 0.89658421694297741 0.1933620068391701 0 0.81249999999950517 0.1082531754733404 0 0.90849364905355434 0.091506350946296292 0 0.19185372118111221 0.092925648673580788 0 0.12076953676380731 0.18690935762408761 0 0.091506350946417708 0.091506350946618076 0 0.37500000000232431 0.17524047358384309 0 0.31411863959822661 0.24965544328045999 0 0.25103557339309318 0.17464499738446629 0 0.31281086598417152 0.10449318608631281 0 0.37500000000232431 0.17524047358384309 0 0.25103557339309318 0.17464499738446629 0 0.80886664387416207 0.89717308644237903 0 0.89051480781310632 0.79665793440246835 0 0.90849364905363228 0.90849364905367769 0 0.19185372118111221 0.092925648673580788 0 0.31281086598417152 0.10449318608631281 0 0.25103557339309318 0.17464499738446629 0 0.79891106056046712 0.25007334953587562 0 0.68668231842078242 0.24762892664808989 0 0.73983916756365475 0.17530677078674589 0 0.31411863959822661 0.24965544328045999 0 0.20767261601459541 0.25628918442207171 0 0.25103557339309318 0.17464499738446629 0 

        </DataArray>

      </Points>

      <Cells>

        <DataArray type="Int32" Name="connectivity" format="ascii">

0 1 2 3 4 5 6 7 8 9 10 11 12 13 14 15 16 17 18 19 20 21 22 23 24 25 26 27 28 29 30 31 32 33 34 35 36 37 38 39 40 41 42 43 44 45 46 47 48 49 50 51 52 53 54 55 56 57 58 59 60 61 62 63 64 65 66 67 68 69 70 71 72 73 74 75 76 77 78 79 80 81 82 83 84 85 86 87 88 89 90 91 92 93 94 95 96 97 98 99 100 101 102 103 104 105 106 107 108 109 110 111 112 113 114 115 116 117 118 119 120 121 122 123 124 125 126 127 128 129 130 131 132 133 134 135 136 137 138 139 140 141 142 143 144 145 146 147 148 149 150 151 152 153 154 155 156 157 158 159 160 161 162 163 164 165 166 167 168 169 170 171 172 173 174 175 176 177 178 179 180 181 182 183 184 185 186 187 188 189 190 191 192 193 194 195 196 197 198 199 200 201 202 203 204 205 206 207 208 209 210 211 212 213 214 215 216 217 218 219 220 221 222 223 224 225 226 227 228 229 230 231 232 233 234 235 236 237 238 239 240 241 242 243 244 245 246 247 248 249 250 251 252 253 254 255 256 257 258 259 260 261 262 263 264 265 266 267 268 269 270 271 272 273 274 275 276 277 278 279 280 281 282 283 284 285 286 287 288 289 290 291 292 293 294 295 296 297 298 299 300 301 302 303 304 305 306 307 308 309 310 311 312 313 314 315 316 317 318 319 320 321 322 323 324 325 326 327 328 329 330 331 332 333 334 335 336 337 338 339 340 341 342 343 344 345 346 347 348 349 350 351 352 353 354 355 356 357 358 359 360 361 362 363 364 365 366 367 368 369 370 371 372 373 374 375 376 377 378 379 380 381 382 383 384 385 386 387 388 389 390 391 392 393 394 395 396 397 398 399 400 401 402 403 404 405 406 407 408 409 410 411 412 413 414 415 416 417 418 419 420 421 422 423 424 425 426 427 428 429 430 431 432 433 434 435 436 437 438 439 440 441 442 443 444 445 446 447 448 449 450 451 452 453 454 455 456 457 458 459 460 461 462 463 464 465 466 467 468 469 470 471 472 473 474 475 476 477 478 479 480 481 482 483 484 485 

        </DataArray>

        <DataArray type="Int32" Name="offsets" format="ascii">

3 6 9 12 15 18 21 24 27 30 33 36 39 42 45 48 51 54 57 60 63 66 69 72 75 78 81 84 87 90 93 96 99 102 105 108 111 114 117 120 123 126 129 132 135 138 141 144 147 150 153 156 159 162 165 168 171 174 177 180 183 186 189 192 195 198 201 204 207 210 213 216 219 222 225 228 231 234 237 240 243 246 249 252 255 258 261 264 267 270 273 276 279 282 285 288 291 294 297 300 303 306 309 312 315 318 321 324 327 330 333 336 339 342 345 348 351 354 357 360 363 366 369 372 375 378 381 384 387 390 393 396 399 402 405 408 411 414 417 420 423 426 429 432 435 438 441 444 447 450 453 456 459 462 465 468 471 474 477 480 483 486 

        </DataArray>

        <DataArray type="Int32" Name="types" format="ascii">

5 5 5 5 5 5 5 5 5 5 5 5 5 5 5 5 5 5 5 5 5 5 5 5 5 5 5 5 5 5 5 5 5 5 5 5 5 5 5 5 5 5 5 5 5 5 5 5 5 5 5 5 5 5 5 5 5 5 5 5 5 5 5 5 5 5 5 5 5 5 5 5 5 5 5 5 5 5 5 5 5 5 5 5 5 5 5 5 5 5 5 5 5 5 5 5 5 5 5 5 5 5 5 5 5 5 5 5 5 5 5 5 5 5 5 5 5 5 5 5 5 5 5 5 5 5 5 5 5 5 5 5 5 5 5 5 5 5 5 5 5 5 5 5 5 5 5 5 5 5 5 5 5 5 5 5 5 5 5 5 5 5 

        </DataArray>

      </Cells>

    </Piece>

  </UnstructuredGrid>

</VTKFile>

