<?xml version="1.0"?>

<VTKFile type="UnstructuredGrid" version="0.1">

  <UnstructuredGrid>

    <Piece NumberOfPoints="486" NumberOfCells="162">

      <PointData>

        <DataArray type="Float64" Name="K" format="ascii">

9.98238432232134487e-01
9.98238432232134487e-01
9.98238432232134487e-01
1.00527350372607893e+00
1.00527350372607893e+00
1.00527350372607893e+00
1.02315249181047663e+00
1.02315249181047663e+00
1.02315249181047663e+00
1.05300011307448638e+00
1.05300011307448638e+00
1.05300011307448638e+00
1.02443074358276998e+00
1.02443074358276998e+00
1.02443074358276998e+00
1.04419644163772873e+00
1.04419644163772873e+00
1.04419644163772873e+00
1.05143095126478148e+00
1.05143095126478148e+00
1.05143095126478148e+00
9.82417932705975439e-01
9.82417932705975439e-01
9.82417932705975439e-01
9.58031997443342220e-01
9.58031997443342220e-01
9.58031997443342220e-01
9.80721504168742264e-01
9.80721504168742264e-01
9.80721504168742264e-01
1.04296011132144995e+00
1.04296011132144995e+00
1.04296011132144995e+00
1.03603503787698936e+00
1.03603503787698936e+00
1.03603503787698936e+00
9.77663275187927616e-01
9.77663275187927616e-01
9.77663275187927616e-01
1.00167841354344844e+00
1.00167841354344844e+00
1.00167841354344844e+00
9.73232262932226200e-01
9.73232262932226200e-01
9.73232262932226200e-01
9.56509571051195606e-01
9.56509571051195606e-01
9.56509571051195606e-01
9.65742989565779975e-01
9.65742989565779975e-01
9.65742989565779975e-01
1.02950240398594683e+00
1.02950240398594683e+00
1.02950240398594683e+00
9.87034711375790019e-01
9.87034711375790019e-01
9.87034711375790019e-01
9.57967079313491232e-01
9.57967079313491232e-01
9.57967079313491232e-01
1.03032352928575688e+00
1.03032352928575688e+00
1.03032352928575688e+00
1.02632520923143100e+00
1.02632520923143100e+00
1.02632520923143100e+00
1.02095484180526341e+00
1.02095484180526341e+00
1.02095484180526341e+00
1.05614138052420192e+00
1.05614138052420192e+00
1.05614138052420192e+00
9.74333185908814237e-01
9.74333185908814237e-01
9.74333185908814237e-01
1.03675802763402580e+00
1.03675802763402580e+00
1.03675802763402580e+00
1.01123307629969394e+00
1.01123307629969394e+00
1.01123307629969394e+00
9.87928225939563753e-01
9.87928225939563753e-01
9.87928225939563753e-01
1.02592170257644222e+00
1.02592170257644222e+00
1.02592170257644222e+00
9.66218802156186940e-01
9.66218802156186940e-01
9.66218802156186940e-01
9.92117586992518397e-01
9.92117586992518397e-01
9.92117586992518397e-01
9.53439003677779784e-01
9.53439003677779784e-01
9.53439003677779784e-01
9.58372926425380856e-01
9.58372926425380856e-01
9.58372926425380856e-01
1.03449110257794596e+00
1.03449110257794596e+00
1.03449110257794596e+00
9.64337059550938624e-01
9.64337059550938624e-01
9.64337059550938624e-01
9.40653455345781486e-01
9.40653455345781486e-01
9.40653455345781486e-01
1.05127799984781478e+00
1.05127799984781478e+00
1.05127799984781478e+00
9.44101504205702713e-01
9.44101504205702713e-01
9.44101504205702713e-01
9.51151867354569580e-01
9.51151867354569580e-01
9.51151867354569580e-01
9.31708244416208808e-01
9.31708244416208808e-01
9.31708244416208808e-01
9.54016364124301353e-01
9.54016364124301353e-01
9.54016364124301353e-01
9.87262537767494952e-01
9.87262537767494952e-01
9.87262537767494952e-01
9.85050641996681797e-01
9.85050641996681797e-01
9.85050641996681797e-01
1.00885458856798405e+00
1.00885458856798405e+00
1.00885458856798405e+00
9.84887322000558285e-01
9.84887322000558285e-01
9.84887322000558285e-01
9.47525449347068283e-01
9.47525449347068283e-01
9.47525449347068283e-01
9.47928307482911792e-01
9.47928307482911792e-01
9.47928307482911792e-01
1.01090879643898512e+00
1.01090879643898512e+00
1.01090879643898512e+00
9.59064441462658124e-01
9.59064441462658124e-01
9.59064441462658124e-01
1.01857819854466736e+00
1.01857819854466736e+00
1.01857819854466736e+00
9.83229503713759945e-01
9.83229503713759945e-01
9.83229503713759945e-01
9.54832802509542167e-01
9.54832802509542167e-01
9.54832802509542167e-01
9.77632600173057864e-01
9.77632600173057864e-01
9.77632600173057864e-01
9.90200726110714191e-01
9.90200726110714191e-01
9.90200726110714191e-01
9.29644511463408207e-01
9.29644511463408207e-01
9.29644511463408207e-01
9.46666953690025625e-01
9.46666953690025625e-01
9.46666953690025625e-01
9.45760865988377164e-01
9.45760865988377164e-01
9.45760865988377164e-01
9.82100014560436052e-01
9.82100014560436052e-01
9.82100014560436052e-01
1.00372710654139063e+00
1.00372710654139063e+00
1.00372710654139063e+00
9.82723218994506431e-01
9.82723218994506431e-01
9.82723218994506431e-01
9.77713694621973994e-01
9.77713694621973994e-01
9.77713694621973994e-01
1.04445573177160100e+00
1.04445573177160100e+00
1.04445573177160100e+00
9.58510456725274684e-01
9.58510456725274684e-01
9.58510456725274684e-01
1.00665728122272613e+00
1.00665728122272613e+00
1.00665728122272613e+00
1.02221914975662509e+00
1.02221914975662509e+00
1.02221914975662509e+00
1.02192290217947024e+00
1.02192290217947024e+00
1.02192290217947024e+00
1.06951619094117589e+00
1.06951619094117589e+00
1.06951619094117589e+00
1.03018432940242044e+00
1.03018432940242044e+00
1.03018432940242044e+00
9.68747764692086788e-01
9.68747764692086788e-01
9.68747764692086788e-01
1.00048048946014623e+00
1.00048048946014623e+00
1.00048048946014623e+00
9.54052236905596707e-01
9.54052236905596707e-01
9.54052236905596707e-01
1.03791254930214283e+00
1.03791254930214283e+00
1.03791254930214283e+00
9.92758220142802128e-01
9.92758220142802128e-01
9.92758220142802128e-01
9.79780910783399128e-01
9.79780910783399128e-01
9.79780910783399128e-01
9.58634205590952138e-01
9.58634205590952138e-01
9.58634205590952138e-01
1.00295659845936358e+00
1.00295659845936358e+00
1.00295659845936358e+00
9.87200151715466823e-01
9.87200151715466823e-01
9.87200151715466823e-01
1.01773864954705529e+00
1.01773864954705529e+00
1.01773864954705529e+00
9.60647312541863418e-01
9.60647312541863418e-01
9.60647312541863418e-01
9.77253130742448017e-01
9.77253130742448017e-01
9.77253130742448017e-01
9.69778664777499411e-01
9.69778664777499411e-01
9.69778664777499411e-01
9.76374301695432711e-01
9.76374301695432711e-01
9.76374301695432711e-01
1.01300871539680504e+00
1.01300871539680504e+00
1.01300871539680504e+00
9.68134755879540676e-01
9.68134755879540676e-01
9.68134755879540676e-01
9.92622245980452567e-01
9.92622245980452567e-01
9.92622245980452567e-01
9.71501711703114390e-01
9.71501711703114390e-01
9.71501711703114390e-01
1.00914000971490880e+00
1.00914000971490880e+00
1.00914000971490880e+00
9.89531491021467202e-01
9.89531491021467202e-01
9.89531491021467202e-01
9.80283358190899068e-01
9.80283358190899068e-01
9.80283358190899068e-01
9.86501158834374614e-01
9.86501158834374614e-01
9.86501158834374614e-01
1.03001019531730487e+00
1.03001019531730487e+00
1.03001019531730487e+00
1.03505629934160082e+00
1.03505629934160082e+00
1.03505629934160082e+00
1.02854185435854850e+00
1.02854185435854850e+00
1.02854185435854850e+00
9.96421201646844557e-01
9.96421201646844557e-01
9.96421201646844557e-01
1.05161123051427796e+00
1.05161123051427796e+00
1.05161123051427796e+00
1.07538243663141020e+00
1.07538243663141020e+00
1.07538243663141020e+00
1.01137832994454024e+00
1.01137832994454024e+00
1.01137832994454024e+00
1.04682802131827457e+00
1.04682802131827457e+00
1.04682802131827457e+00
1.01258073782586755e+00
1.01258073782586755e+00
1.01258073782586755e+00
9.71843783948058815e-01
9.71843783948058815e-01
9.71843783948058815e-01
1.01265637125500052e+00
1.01265637125500052e+00
1.01265637125500052e+00
1.05436413251231653e+00
1.05436413251231653e+00
1.05436413251231653e+00
1.07881964718949885e+00
1.07881964718949885e+00
1.07881964718949885e+00
1.02167141117670601e+00
1.02167141117670601e+00
1.02167141117670601e+00
1.00568388303827039e+00
1.00568388303827039e+00
1.00568388303827039e+00
9.76306560486063457e-01
9.76306560486063457e-01
9.76306560486063457e-01
9.61795644696353480e-01
9.61795644696353480e-01
9.61795644696353480e-01
1.00276164785926092e+00
1.00276164785926092e+00
1.00276164785926092e+00
1.05110008281852196e+00
1.05110008281852196e+00
1.05110008281852196e+00
1.02865646697309998e+00
1.02865646697309998e+00
1.02865646697309998e+00
1.00930550428051968e+00
1.00930550428051968e+00
1.00930550428051968e+00
9.74957508759814906e-01
9.74957508759814906e-01
9.74957508759814906e-01
9.87667274459071320e-01
9.87667274459071320e-01
9.87667274459071320e-01
9.61811564053671075e-01
9.61811564053671075e-01
9.61811564053671075e-01
1.05976426852804106e+00
1.05976426852804106e+00
1.05976426852804106e+00
1.00589955642661399e+00
1.00589955642661399e+00
1.00589955642661399e+00
9.81733625025822065e-01
9.81733625025822065e-01
9.81733625025822065e-01
1.03734309048703488e+00
1.03734309048703488e+00
1.03734309048703488e+00
1.00893366629637193e+00
1.00893366629637193e+00
1.00893366629637193e+00
9.45004820182145489e-01
9.45004820182145489e-01
9.45004820182145489e-01
1.04840957087667697e+00
1.04840957087667697e+00
1.04840957087667697e+00
1.00362313092252320e+00
1.00362313092252320e+00
1.00362313092252320e+00
1.02112296895813559e+00
1.02112296895813559e+00
1.02112296895813559e+00
1.02112629359374285e+00
1.02112629359374285e+00
1.02112629359374285e+00
1.02661744292428359e+00
1.02661744292428359e+00
1.02661744292428359e+00
1.03220728619918667e+00
1.03220728619918667e+00
1.03220728619918667e+00
9.62262555719400781e-01
9.62262555719400781e-01
9.62262555719400781e-01
1.06586916320880620e+00
1.06586916320880620e+00
1.06586916320880620e+00
1.02767420974393042e+00
1.02767420974393042e+00
1.02767420974393042e+00
1.01848023845620972e+00
1.01848023845620972e+00
1.01848023845620972e+00
1.00887300143523473e+00
1.00887300143523473e+00
1.00887300143523473e+00
1.05757457162715052e+00
1.05757457162715052e+00
1.05757457162715052e+00
9.79026813578361632e-01
9.79026813578361632e-01
9.79026813578361632e-01
1.02708465862004172e+00
1.02708465862004172e+00
1.02708465862004172e+00
9.75512257752055856e-01
9.75512257752055856e-01
9.75512257752055856e-01
9.42815188371814106e-01
9.42815188371814106e-01
9.42815188371814106e-01
1.02491188349578599e+00
1.02491188349578599e+00
1.02491188349578599e+00
9.91203480721123631e-01
9.91203480721123631e-01
9.91203480721123631e-01
1.00228189842819959e+00
1.00228189842819959e+00
1.00228189842819959e+00
1.04906552395498553e+00
1.04906552395498553e+00
1.04906552395498553e+00
9.89694776931922426e-01
9.89694776931922426e-01
9.89694776931922426e-01
1.00633411038542331e+00
1.00633411038542331e+00
1.00633411038542331e+00
9.86469764102493429e-01
9.86469764102493429e-01
9.86469764102493429e-01
9.86332350371834976e-01
9.86332350371834976e-01
9.86332350371834976e-01
9.87473813229420849e-01
9.87473813229420849e-01
9.87473813229420849e-01
9.90200906083844146e-01
9.90200906083844146e-01
9.90200906083844146e-01
9.86638233181412860e-01
9.86638233181412860e-01
9.86638233181412860e-01
9.85433702452683136e-01
9.85433702452683136e-01
9.85433702452683136e-01
1.00790118146767949e+00
1.00790118146767949e+00
1.00790118146767949e+00
9.95889916672893505e-01
9.95889916672893505e-01
9.95889916672893505e-01
9.92409735989883135e-01
9.92409735989883135e-01
9.92409735989883135e-01
9.84948921672411548e-01
9.84948921672411548e-01
9.84948921672411548e-01
9.86928383562158618e-01
9.86928383562158618e-01
9.86928383562158618e-01
9.64204517003462214e-01
9.64204517003462214e-01
9.64204517003462214e-01
1.03268161535095682e+00
1.03268161535095682e+00
1.03268161535095682e+00
1.02086464236115848e+00
1.02086464236115848e+00
1.02086464236115848e+00
1.01931267637817613e+00
1.01931267637817613e+00
1.01931267637817613e+00
1.02431428756287879e+00
1.02431428756287879e+00
1.02431428756287879e+00
1.02851738663182091e+00
1.02851738663182091e+00
1.02851738663182091e+00
1.04283865847599966e+00
1.04283865847599966e+00
1.04283865847599966e+00
1.00983599627274878e+00
1.00983599627274878e+00
1.00983599627274878e+00
1.02476280813006504e+00
1.02476280813006504e+00
1.02476280813006504e+00


        </DataArray>

      </PointData>

      <CellData/>

      <Points>

        <DataArray type="Float64" NumberOfComponents="3" format="ascii">

0.1082531754723032 0.6875000000007816 0 0.23533274979922561 0.77093399389351469 0 0.10409951422139101 0.81206782209691231 0 0.23533274979922561 0.77093399389351469 0 0.1082531754723032 0.6875000000007816 0 0.21809253452218619 0.65480892822618109 0 0.24418615484441761 0.35773612382016978 0 0.121259140952891 0.43112117036853742 0 0.1082531754734323 0.31250000000117473 0 0.75000000000057243 0.35048094716480432 0 0.88173731489851925 0.33077402607778361 0 0.81242894672211508 0.45500248311961472 0 0.121259140952891 0.43112117036853742 0 0.24418615484441761 0.35773612382016978 0 0.22257735880419699 0.47344721641341742 0 0.81242894672211508 0.45500248311961472 0 0.88173731489851925 0.33077402607778361 0 0.915464298762109 0.43749999999886913 0 0 0.62500000000121547 0 0 0.50000000000206146 0 0.1371230538040123 0.56179824718362847 0 0.82212678063041267 0.67678595194836966 0 0.89051480781310632 0.79665793440246835 0 0.76243180583607129 0.78687675331113149 0 0.76243180583607129 0.78687675331113149 0 0.69010814643829166 0.89298495739101336 0 0.62844955668446423 0.7850749770380413 0 0.89051480781310632 0.79665793440246835 0 0.82212678063041267 0.67678595194836966 0 0.92266244547590082 0.68749999999917555 0 0 0.50000000000206146 0 0.121259140952891 0.43112117036853742 0 0.1371230538040123 0.56179824718362847 0 0.1082531754723032 0.6875000000007816 0 0 0.62500000000121547 0 0.1371230538040123 0.56179824718362847 0 0.75000000000032374 0.56698729811007709 0 0.88927506082488361 0.56409486310635837 0 0.82212678063041267 0.67678595194836966 0 0.81242894672211508 0.45500248311961472 0 0.88927506082488361 0.56409486310635837 0 0.75000000000032374 0.56698729811007709 0 0.69851598570178741 0.68211701800612057 0 0.56496004948275869 0.67675037307860475 0 0.62752533658682441 0.56838075195614346 0 0.69851598570178741 0.68211701800612057 0 0.76243180583607129 0.78687675331113149 0 0.62844955668446423 0.7850749770380413 0 0.23533274979922561 0.77093399389351469 0 0.18802967116092181 0.89415349436770275 0 0.10409951422139101 0.81206782209691231 0 0.121259140952891 0.43112117036853742 0 0.22257735880419699 0.47344721641341742 0 0.1371230538040123 0.56179824718362847 0 0.75000000000032374 0.56698729811007709 0 0.69851598570178741 0.68211701800612057 0 0.62752533658682441 0.56838075195614346 0 0.56496004948275869 0.67675037307860475 0 0.69851598570178741 0.68211701800612057 0 0.62844955668446423 0.7850749770380413 0 0.1371230538040123 0.56179824718362847 0 0.22257735880419699 0.47344721641341742 0 0.26982811998763367 0.56544650815856912 0 0.21809253452218619 0.65480892822618109 0 0.1371230538040123 0.56179824718362847 0 0.26982811998763367 0.56544650815856912 0 0.24418615484441761 0.35773612382016978 0 0.1082531754734323 0.31250000000117473 0 0.20767261601459541 0.25628918442207171 0 0.88173731489851925 0.33077402607778361 0 0.75000000000057243 0.35048094716480432 0 0.79891106056046712 0.25007334953587562 0 0.75000000000032374 0.56698729811007709 0 0.82212678063041267 0.67678595194836966 0 0.69851598570178741 0.68211701800612057 0 0.81249999999950517 0.1082531754733404 0 0.89658421694297741 0.1933620068391701 0 0.79891106056046712 0.25007334953587562 0 0.81249999999950517 0.1082531754733404 0 0.79891106056046712 0.25007334953587562 0 0.73983916756365475 0.17530677078674589 0 0.23533274979922561 0.77093399389351469 0 0.21809253452218619 0.65480892822618109 0 0.32607333794064219 0.67760114260606152 0 0.1082531754723032 0.6875000000007816 0 0.1371230538040123 0.56179824718362847 0 0.21809253452218619 0.65480892822618109 0 0.69851598570178741 0.68211701800612057 0 0.82212678063041267 0.67678595194836966 0 0.76243180583607129 0.78687675331113149 0 0.69010814643829166 0.89298495739101336 0 0.76243180583607129 0.78687675331113149 0 0.80886664387416207 0.89717308644237903 0 0.43750000000181222 0.89174682452709564 0 0.31258827852827581 0.89214793616708443 0 0.37776173212361452 0.78514649317305008 0 0.43750000000181222 0.89174682452709564 0 0.37500000000156292 1 0 0.31258827852827581 0.89214793616708443 0 0.121259140952891 0.43112117036853742 0 0 0.37500000000156292 0 0.1082531754734323 0.31250000000117473 0 0.50000000000206146 1 0 0.37500000000156292 1 0 0.43750000000181222 0.89174682452709564 0 0.31258827852827581 0.89214793616708443 0 0.18802967116092181 0.89415349436770275 0 0.23533274979922561 0.77093399389351469 0 0 0.50000000000206146 0 0 0.37500000000156292 0 0.121259140952891 0.43112117036853742 0 0.62844955668446423 0.7850749770380413 0 0.69010814643829166 0.89298495739101336 0 0.56327595140699671 0.89211526915426331 0 0.69010814643829166 0.89298495739101336 0 0.62500000000121547 1 0 0.56327595140699671 0.89211526915426331 0 0.25000000000104189 1 0 0.18802967116092181 0.89415349436770275 0 0.31258827852827581 0.89214793616708443 0 0.50000000000206146 1 0 0.43750000000181222 0.89174682452709564 0 0.56327595140699671 0.89211526915426331 0 0.56249999999885147 0.1082531754730395 0 0.62499999999901068 0 0 0.68749999999926592 0.1082531754732875 0 1 0.49999999999869221 0 1 0.62499999999901068 0 0.88927506082488361 0.56409486310635837 0 0 0.25000000000104189 0 0.12076953676380731 0.18690935762408761 0 0.1082531754734323 0.31250000000117473 0 0.49999999999869221 0 0 0.62499999999901068 0 0 0.56249999999885147 0.1082531754730395 0 0.62500000000121547 1 0 0.50000000000206146 1 0 0.56327595140699671 0.89211526915426331 0 0.37500000000156292 1 0 0.25000000000104189 1 0 0.31258827852827581 0.89214793616708443 0 0.31281086598417152 0.10449318608631281 0 0.37499999999904599 0 0 0.43749999999910871 0.1082531754729984 0 0.43750000000181222 0.89174682452709564 0 0.37776173212361452 0.78514649317305008 0 0.50046028868828263 0.78376912307435687 0 0 0.37500000000156292 0 0 0.25000000000104189 0 0.1082531754734323 0.31250000000117473 0 0.49999999999869221 0 0 0.56249999999885147 0.1082531754730395 0 0.43749999999910871 0.1082531754729984 0 0.43750000000181222 0.89174682452709564 0 0.50046028868828263 0.78376912307435687 0 0.56327595140699671 0.89211526915426331 0 0.74999999999934042 0 0 0.81249999999950517 0.1082531754733404 0 0.68749999999926592 0.1082531754732875 0 0.37499999999904599 0 0 0.49999999999869221 0 0 0.43749999999910871 0.1082531754729984 0 0.25000000000104189 1 0 0.12500000000052089 1 0 0.18802967116092181 0.89415349436770275 0 0.50046028868828263 0.78376912307435687 0 0.62844955668446423 0.7850749770380413 0 0.56327595140699671 0.89211526915426331 0 0.37776173212361452 0.78514649317305008 0 0.31258827852827581 0.89214793616708443 0 0.23533274979922561 0.77093399389351469 0 0.62499999999901068 0 0 0.74999999999934042 0 0 0.68749999999926592 0.1082531754732875 0 1 0.74999999999934042 0 1 0.87499999999967015 0 0.89051480781310632 0.79665793440246835 0 0 0.25000000000104189 0 0 0.12500000000052089 0 0.12076953676380731 0.18690935762408761 0 0.74999999999934042 0 0 0.87499999999967015 0 0 0.81249999999950517 0.1082531754733404 0 0.24999999999941069 0 0 0.37499999999904599 0 0 0.31281086598417152 0.10449318608631281 0 0.50046028868828263 0.78376912307435687 0 0.37776173212361452 0.78514649317305008 0 0.44078402250377968 0.67714785211715212 0 0.68768773896438518 0.4586835206367198 0 0.75000000000032374 0.56698729811007709 0 0.62752533658682441 0.56838075195614346 0 0.31411863959822661 0.24965544328045999 0 0.37953773393552892 0.34812185820708452 0 0.24418615484441761 0.35773612382016978 0 0.68768773896438518 0.4586835206367198 0 0.81242894672211508 0.45500248311961472 0 0.75000000000032374 0.56698729811007709 0 1 0.24999999999941069 0 1 0.37499999999904599 0 0.88173731489851925 0.33077402607778361 0 0 0.75000000000034761 0 0 0.62500000000121547 0 0.1082531754723032 0.6875000000007816 0 0.50048844149666749 0.56727788297625459 0 0.44078402250377968 0.67714785211715212 0 0.38694285807596462 0.5672991787102919 0 0.50108503093851109 0.35012252869403671 0 0.44301038174930041 0.45684931552185398 0 0.37953773393552892 0.34812185820708452 0 0.50046028868828263 0.78376912307435687 0 0.56496004948275869 0.67675037307860475 0 0.62844955668446423 0.7850749770380413 0 0.68768773896438518 0.4586835206367198 0 0.75000000000057243 0.35048094716480432 0 0.81242894672211508 0.45500248311961472 0 0.56349980387502452 0.45846841892908402 0 0.62512662990940393 0.35044303886909911 0 0.68768773896438518 0.4586835206367198 0 0.50048844149666749 0.56727788297625459 0 0.38694285807596462 0.5672991787102919 0 0.44301038174930041 0.45684931552185398 0 0.50046028868828263 0.78376912307435687 0 0.44078402250377968 0.67714785211715212 0 0.56496004948275869 0.67675037307860475 0 0.50108503093851109 0.35012252869403671 0 0.37953773393552892 0.34812185820708452 0 0.43750000000200551 0.24222777169198509 0 0.75000000000034761 1 0 0.62500000000121547 1 0 0.69010814643829166 0.89298495739101336 0 0.68768773896438518 0.4586835206367198 0 0.62512662990940393 0.35044303886909911 0 0.75000000000057243 0.35048094716480432 0 0.56496004948275869 0.67675037307860475 0 0.44078402250377968 0.67714785211715212 0 0.50048844149666749 0.56727788297625459 0 0.56349980387502452 0.45846841892908402 0 0.44301038174930041 0.45684931552185398 0 0.50108503093851109 0.35012252869403671 0 0.50048844149666749 0.56727788297625459 0 0.44301038174930041 0.45684931552185398 0 0.56349980387502452 0.45846841892908402 0 0.56349980387502452 0.45846841892908402 0 0.50108503093851109 0.35012252869403671 0 0.62512662990940393 0.35044303886909911 0 0.43750000000200551 0.24222777169198509 0 0.37953773393552892 0.34812185820708452 0 0.31411863959822661 0.24965544328045999 0 0.56496004948275869 0.67675037307860475 0 0.50048844149666749 0.56727788297625459 0 0.62752533658682441 0.56838075195614346 0 0.56349980387502452 0.45846841892908402 0 0.68768773896438518 0.4586835206367198 0 0.62752533658682441 0.56838075195614346 0 0.50048844149666749 0.56727788297625459 0 0.56349980387502452 0.45846841892908402 0 0.62752533658682441 0.56838075195614346 0 0.75000000000057243 0.35048094716480432 0 0.62512662990940393 0.35044303886909911 0 0.68668231842078242 0.24762892664808989 0 0.50108503093851109 0.35012252869403671 0 0.43750000000200551 0.24222777169198509 0 0.56250000000143974 0.2422277716920859 0 0.62512662990940393 0.35044303886909911 0 0.50108503093851109 0.35012252869403671 0 0.56250000000143974 0.2422277716920859 0 0.68668231842078242 0.24762892664808989 0 0.62512662990940393 0.35044303886909911 0 0.56250000000143974 0.2422277716920859 0 0.22257735880419699 0.47344721641341742 0 0.24418615484441761 0.35773612382016978 0 0.32815957677880009 0.4577243358118348 0 0.12076953676380731 0.18690935762408761 0 0.19185372118111221 0.092925648673580788 0 0.25103557339309318 0.17464499738446629 0 0.20767261601459541 0.25628918442207171 0 0.12076953676380731 0.18690935762408761 0 0.25103557339309318 0.17464499738446629 0 0 0.87499999999950151 0 0 0.75000000000034761 0 0.10409951422139101 0.81206782209691231 0 0.1249999999997731 0 0 0.24999999999941069 0 0 0.19185372118111221 0.092925648673580788 0 1 0.1249999999997731 0 1 0.24999999999941069 0 0.89658421694297741 0.1933620068391701 0 0.88927506082488361 0.56409486310635837 0 0.81242894672211508 0.45500248311961472 0 0.915464298762109 0.43749999999886913 0 0.87499999999950151 1 0 0.75000000000034761 1 0 0.80886664387416207 0.89717308644237903 0 0.75000000000034761 1 0 0.69010814643829166 0.89298495739101336 0 0.80886664387416207 0.89717308644237903 0 0.82212678063041267 0.67678595194836966 0 0.88927506082488361 0.56409486310635837 0 0.92266244547590082 0.68749999999917555 0 0 0.75000000000034761 0 0.1082531754723032 0.6875000000007816 0 0.10409951422139101 0.81206782209691231 0 0.24999999999941069 0 0 0.31281086598417152 0.10449318608631281 0 0.19185372118111221 0.092925648673580788 0 1 0.24999999999941069 0 0.88173731489851925 0.33077402607778361 0 0.89658421694297741 0.1933620068391701 0 0.32815957677880009 0.4577243358118348 0 0.38694285807596462 0.5672991787102919 0 0.26982811998763367 0.56544650815856912 0 0.76243180583607129 0.78687675331113149 0 0.89051480781310632 0.79665793440246835 0 0.80886664387416207 0.89717308644237903 0 0.38694285807596462 0.5672991787102919 0 0.44078402250377968 0.67714785211715212 0 0.32607333794064219 0.67760114260606152 0 0.37776173212361452 0.78514649317305008 0 0.23533274979922561 0.77093399389351469 0 0.32607333794064219 0.67760114260606152 0 1 0.49999999999869221 0 0.88927506082488361 0.56409486310635837 0 0.915464298762109 0.43749999999886913 0 0.88173731489851925 0.33077402607778361 0 1 0.37499999999904599 0 0.915464298762109 0.43749999999886913 0 0.24418615484441761 0.35773612382016978 0 0.37953773393552892 0.34812185820708452 0 0.32815957677880009 0.4577243358118348 0 0.44301038174930041 0.45684931552185398 0 0.38694285807596462 0.5672991787102919 0 0.32815957677880009 0.4577243358118348 0 0.88927506082488361 0.56409486310635837 0 1 0.62499999999901068 0 0.92266244547590082 0.68749999999917555 0 1 0.74999999999934042 0 0.89051480781310632 0.79665793440246835 0 0.92266244547590082 0.68749999999917555 0 0 1 0 0 0.87499999999950151 0 0.091506350946494744 0.90849364905351082 0 1 1 0 0.87499999999950151 1 0 0.90849364905363228 0.90849364905367769 0 0 0 0 0.1249999999997731 0 0 0.091506350946417708 0.091506350946618076 0 0 0.12500000000052089 0 0 0 0 0.091506350946417708 0.091506350946618076 0 1 0 0 1 0.1249999999997731 0 0.90849364905355434 0.091506350946296292 0 0.87499999999967015 0 0 1 0 0 0.90849364905355434 0.091506350946296292 0 0.12500000000052089 1 0 0 1 0 0.091506350946494744 0.90849364905351082 0 1 0.87499999999967015 0 1 1 0 0.90849364905363228 0.90849364905367769 0 0.38694285807596462 0.5672991787102919 0 0.32607333794064219 0.67760114260606152 0 0.26982811998763367 0.56544650815856912 0 0.31411863959822661 0.24965544328045999 0 0.24418615484441761 0.35773612382016978 0 0.20767261601459541 0.25628918442207171 0 0.1082531754734323 0.31250000000117473 0 0.12076953676380731 0.18690935762408761 0 0.20767261601459541 0.25628918442207171 0 0.75000000000057243 0.35048094716480432 0 0.68668231842078242 0.24762892664808989 0 0.79891106056046712 0.25007334953587562 0 0.22257735880419699 0.47344721641341742 0 0.32815957677880009 0.4577243358118348 0 0.26982811998763367 0.56544650815856912 0 0.44078402250377968 0.67714785211715212 0 0.37776173212361452 0.78514649317305008 0 0.32607333794064219 0.67760114260606152 0 0.89658421694297741 0.1933620068391701 0 0.88173731489851925 0.33077402607778361 0 0.79891106056046712 0.25007334953587562 0 1 0.37499999999904599 0 1 0.49999999999869221 0 0.915464298762109 0.43749999999886913 0 0.37953773393552892 0.34812185820708452 0 0.44301038174930041 0.45684931552185398 0 0.32815957677880009 0.4577243358118348 0 0.32607333794064219 0.67760114260606152 0 0.21809253452218619 0.65480892822618109 0 0.26982811998763367 0.56544650815856912 0 1 0.1249999999997731 0 0.89658421694297741 0.1933620068391701 0 0.90849364905355434 0.091506350946296292 0 0 0.87499999999950151 0 0.10409951422139101 0.81206782209691231 0 0.091506350946494744 0.90849364905351082 0 0.1249999999997731 0 0 0.19185372118111221 0.092925648673580788 0 0.091506350946417708 0.091506350946618076 0 1 0.62499999999901068 0 1 0.74999999999934042 0 0.92266244547590082 0.68749999999917555 0 0.18802967116092181 0.89415349436770275 0 0.12500000000052089 1 0 0.091506350946494744 0.90849364905351082 0 0.89051480781310632 0.79665793440246835 0 1 0.87499999999967015 0 0.90849364905363228 0.90849364905367769 0 0.12076953676380731 0.18690935762408761 0 0 0.12500000000052089 0 0.091506350946417708 0.091506350946618076 0 0.81249999999950517 0.1082531754733404 0 0.87499999999967015 0 0 0.90849364905355434 0.091506350946296292 0 0.87499999999950151 1 0 0.80886664387416207 0.89717308644237903 0 0.90849364905363228 0.90849364905367769 0 0.68668231842078242 0.24762892664808989 0 0.62499999999892575 0.17524047358135519 0 0.73983916756365475 0.17530677078674589 0 0.31281086598417152 0.10449318608631281 0 0.43749999999910871 0.1082531754729984 0 0.37500000000232431 0.17524047358384309 0 0.62499999999892575 0.17524047358135519 0 0.56250000000143974 0.2422277716920859 0 0.49999999999934441 0.1752404735815076 0 0.56249999999885147 0.1082531754730395 0 0.68749999999926592 0.1082531754732875 0 0.62499999999892575 0.17524047358135519 0 0.56249999999885147 0.1082531754730395 0 0.62499999999892575 0.17524047358135519 0 0.49999999999934441 0.1752404735815076 0 0.56250000000143974 0.2422277716920859 0 0.43750000000200551 0.24222777169198509 0 0.49999999999934441 0.1752404735815076 0 0.43749999999910871 0.1082531754729984 0 0.56249999999885147 0.1082531754730395 0 0.49999999999934441 0.1752404735815076 0 0.68668231842078242 0.24762892664808989 0 0.56250000000143974 0.2422277716920859 0 0.62499999999892575 0.17524047358135519 0 0.43750000000200551 0.24222777169198509 0 0.31411863959822661 0.24965544328045999 0 0.37500000000232431 0.17524047358384309 0 0.49999999999934441 0.1752404735815076 0 0.43750000000200551 0.24222777169198509 0 0.37500000000232431 0.17524047358384309 0 0.43749999999910871 0.1082531754729984 0 0.49999999999934441 0.1752404735815076 0 0.37500000000232431 0.17524047358384309 0 0.62499999999892575 0.17524047358135519 0 0.68749999999926592 0.1082531754732875 0 0.73983916756365475 0.17530677078674589 0 0.68749999999926592 0.1082531754732875 0 0.81249999999950517 0.1082531754733404 0 0.73983916756365475 0.17530677078674589 0 0.10409951422139101 0.81206782209691231 0 0.18802967116092181 0.89415349436770275 0 0.091506350946494744 0.90849364905351082 0 0.89658421694297741 0.1933620068391701 0 0.81249999999950517 0.1082531754733404 0 0.90849364905355434 0.091506350946296292 0 0.19185372118111221 0.092925648673580788 0 0.12076953676380731 0.18690935762408761 0 0.091506350946417708 0.091506350946618076 0 0.37500000000232431 0.17524047358384309 0 0.31411863959822661 0.24965544328045999 0 0.25103557339309318 0.17464499738446629 0 0.31281086598417152 0.10449318608631281 0 0.37500000000232431 0.17524047358384309 0 0.25103557339309318 0.17464499738446629 0 0.80886664387416207 0.89717308644237903 0 0.89051480781310632 0.79665793440246835 0 0.90849364905363228 0.90849364905367769 0 0.19185372118111221 0.092925648673580788 0 0.31281086598417152 0.10449318608631281 0 0.25103557339309318 0.17464499738446629 0 0.79891106056046712 0.25007334953587562 0 0.68668231842078242 0.24762892664808989 0 0.73983916756365475 0.17530677078674589 0 0.31411863959822661 0.24965544328045999 0 0.20767261601459541 0.25628918442207171 0 0.25103557339309318 0.17464499738446629 0 

        </DataArray>

      </Points>

      <Cells>

        <DataArray type="Int32" Name="connectivity" format="ascii">

0 1 2 3 4 5 6 7 8 9 10 11 12 13 14 15 16 17 18 19 20 21 22 23 24 25 26 27 28 29 30 31 32 33 34 35 36 37 38 39 40 41 42 43 44 45 46 47 48 49 50 51 52 53 54 55 56 57 58 59 60 61 62 63 64 65 66 67 68 69 70 71 72 73 74 75 76 77 78 79 80 81 82 83 84 85 86 87 88 89 90 91 92 93 94 95 96 97 98 99 100 101 102 103 104 105 106 107 108 109 110 111 112 113 114 115 116 117 118 119 120 121 122 123 124 125 126 127 128 129 130 131 132 133 134 135 136 137 138 139 140 141 142 143 144 145 146 147 148 149 150 151 152 153 154 155 156 157 158 159 160 161 162 163 164 165 166 167 168 169 170 171 172 173 174 175 176 177 178 179 180 181 182 183 184 185 186 187 188 189 190 191 192 193 194 195 196 197 198 199 200 201 202 203 204 205 206 207 208 209 210 211 212 213 214 215 216 217 218 219 220 221 222 223 224 225 226 227 228 229 230 231 232 233 234 235 236 237 238 239 240 241 242 243 244 245 246 247 248 249 250 251 252 253 254 255 256 257 258 259 260 261 262 263 264 265 266 267 268 269 270 271 272 273 274 275 276 277 278 279 280 281 282 283 284 285 286 287 288 289 290 291 292 293 294 295 296 297 298 299 300 301 302 303 304 305 306 307 308 309 310 311 312 313 314 315 316 317 318 319 320 321 322 323 324 325 326 327 328 329 330 331 332 333 334 335 336 337 338 339 340 341 342 343 344 345 346 347 348 349 350 351 352 353 354 355 356 357 358 359 360 361 362 363 364 365 366 367 368 369 370 371 372 373 374 375 376 377 378 379 380 381 382 383 384 385 386 387 388 389 390 391 392 393 394 395 396 397 398 399 400 401 402 403 404 405 406 407 408 409 410 411 412 413 414 415 416 417 418 419 420 421 422 423 424 425 426 427 428 429 430 431 432 433 434 435 436 437 438 439 440 441 442 443 444 445 446 447 448 449 450 451 452 453 454 455 456 457 458 459 460 461 462 463 464 465 466 467 468 469 470 471 472 473 474 475 476 477 478 479 480 481 482 483 484 485 

        </DataArray>

        <DataArray type="Int32" Name="offsets" format="ascii">

3 6 9 12 15 18 21 24 27 30 33 36 39 42 45 48 51 54 57 60 63 66 69 72 75 78 81 84 87 90 93 96 99 102 105 108 111 114 117 120 123 126 129 132 135 138 141 144 147 150 153 156 159 162 165 168 171 174 177 180 183 186 189 192 195 198 201 204 207 210 213 216 219 222 225 228 231 234 237 240 243 246 249 252 255 258 261 264 267 270 273 276 279 282 285 288 291 294 297 300 303 306 309 312 315 318 321 324 327 330 333 336 339 342 345 348 351 354 357 360 363 366 369 372 375 378 381 384 387 390 393 396 399 402 405 408 411 414 417 420 423 426 429 432 435 438 441 444 447 450 453 456 459 462 465 468 471 474 477 480 483 486 

        </DataArray>

        <DataArray type="Int32" Name="types" format="ascii">

5 5 5 5 5 5 5 5 5 5 5 5 5 5 5 5 5 5 5 5 5 5 5 5 5 5 5 5 5 5 5 5 5 5 5 5 5 5 5 5 5 5 5 5 5 5 5 5 5 5 5 5 5 5 5 5 5 5 5 5 5 5 5 5 5 5 5 5 5 5 5 5 5 5 5 5 5 5 5 5 5 5 5 5 5 5 5 5 5 5 5 5 5 5 5 5 5 5 5 5 5 5 5 5 5 5 5 5 5 5 5 5 5 5 5 5 5 5 5 5 5 5 5 5 5 5 5 5 5 5 5 5 5 5 5 5 5 5 5 5 5 5 5 5 5 5 5 5 5 5 5 5 5 5 5 5 5 5 5 5 5 5 

        </DataArray>

      </Cells>

    </Piece>

  </UnstructuredGrid>

</VTKFile>

