<?xml version="1.0"?>

<VTKFile type="UnstructuredGrid" version="0.1">

  <UnstructuredGrid>

    <Piece NumberOfPoints="486" NumberOfCells="162">

      <PointData>

        <DataArray type="Float64" Name="K" format="ascii">

9.61920541635884474e-01
9.61920541635884474e-01
9.61920541635884474e-01
9.62599997837230381e-01
9.62599997837230381e-01
9.62599997837230381e-01
1.07086202947846432e+00
1.07086202947846432e+00
1.07086202947846432e+00
9.95952318488694144e-01
9.95952318488694144e-01
9.95952318488694144e-01
1.05425447222649460e+00
1.05425447222649460e+00
1.05425447222649460e+00
9.84795220142254957e-01
9.84795220142254957e-01
9.84795220142254957e-01
1.01079322596683463e+00
1.01079322596683463e+00
1.01079322596683463e+00
9.68435651182621093e-01
9.68435651182621093e-01
9.68435651182621093e-01
1.00075545101523722e+00
1.00075545101523722e+00
1.00075545101523722e+00
9.54211808834158015e-01
9.54211808834158015e-01
9.54211808834158015e-01
1.04232175415350592e+00
1.04232175415350592e+00
1.04232175415350592e+00
9.83825384171477690e-01
9.83825384171477690e-01
9.83825384171477690e-01
9.65801992666081244e-01
9.65801992666081244e-01
9.65801992666081244e-01
9.78371213939255857e-01
9.78371213939255857e-01
9.78371213939255857e-01
9.78411550863900970e-01
9.78411550863900970e-01
9.78411550863900970e-01
9.85673296726328863e-01
9.85673296726328863e-01
9.85673296726328863e-01
9.70969972956485683e-01
9.70969972956485683e-01
9.70969972956485683e-01
1.03800116425153766e+00
1.03800116425153766e+00
1.03800116425153766e+00
9.80847264173475231e-01
9.80847264173475231e-01
9.80847264173475231e-01
9.82498704579573112e-01
9.82498704579573112e-01
9.82498704579573112e-01
1.01255982637132780e+00
1.01255982637132780e+00
1.01255982637132780e+00
9.89201036054614846e-01
9.89201036054614846e-01
9.89201036054614846e-01
1.06352314828687633e+00
1.06352314828687633e+00
1.06352314828687633e+00
9.97509308404104789e-01
9.97509308404104789e-01
9.97509308404104789e-01
9.74017018309396798e-01
9.74017018309396798e-01
9.74017018309396798e-01
9.89564186592369333e-01
9.89564186592369333e-01
9.89564186592369333e-01
1.00634048417783961e+00
1.00634048417783961e+00
1.00634048417783961e+00
9.59120741141831656e-01
9.59120741141831656e-01
9.59120741141831656e-01
9.77925503504037175e-01
9.77925503504037175e-01
9.77925503504037175e-01
9.73455322438496862e-01
9.73455322438496862e-01
9.73455322438496862e-01
1.00692808071201845e+00
1.00692808071201845e+00
1.00692808071201845e+00
9.45400312090692641e-01
9.45400312090692641e-01
9.45400312090692641e-01
9.62117224860020603e-01
9.62117224860020603e-01
9.62117224860020603e-01
1.07570152682867781e+00
1.07570152682867781e+00
1.07570152682867781e+00
9.94682079166990918e-01
9.94682079166990918e-01
9.94682079166990918e-01
9.60031713339333348e-01
9.60031713339333348e-01
9.60031713339333348e-01
1.05893059955044144e+00
1.05893059955044144e+00
1.05893059955044144e+00
1.01505576249377483e+00
1.01505576249377483e+00
1.01505576249377483e+00
1.03320431160799231e+00
1.03320431160799231e+00
1.03320431160799231e+00
9.72738922205565348e-01
9.72738922205565348e-01
9.72738922205565348e-01
1.01264293045805398e+00
1.01264293045805398e+00
1.01264293045805398e+00
1.01367827175236935e+00
1.01367827175236935e+00
1.01367827175236935e+00
9.56404976689517849e-01
9.56404976689517849e-01
9.56404976689517849e-01
1.06488033461708009e+00
1.06488033461708009e+00
1.06488033461708009e+00
9.87918960652626521e-01
9.87918960652626521e-01
9.87918960652626521e-01
1.03604309140716300e+00
1.03604309140716300e+00
1.03604309140716300e+00
9.66858246827471235e-01
9.66858246827471235e-01
9.66858246827471235e-01
9.81936792627177257e-01
9.81936792627177257e-01
9.81936792627177257e-01
9.57771529559809931e-01
9.57771529559809931e-01
9.57771529559809931e-01
1.07106598152194632e+00
1.07106598152194632e+00
1.07106598152194632e+00
9.81445500117318459e-01
9.81445500117318459e-01
9.81445500117318459e-01
9.91847825284870366e-01
9.91847825284870366e-01
9.91847825284870366e-01
1.02114961361792234e+00
1.02114961361792234e+00
1.02114961361792234e+00
9.75115886624925432e-01
9.75115886624925432e-01
9.75115886624925432e-01
1.00155014229715067e+00
1.00155014229715067e+00
1.00155014229715067e+00
1.00007330684888385e+00
1.00007330684888385e+00
1.00007330684888385e+00
9.41728429382226784e-01
9.41728429382226784e-01
9.41728429382226784e-01
1.02240123734593591e+00
1.02240123734593591e+00
1.02240123734593591e+00
9.63940808405887140e-01
9.63940808405887140e-01
9.63940808405887140e-01
1.05652925153648791e+00
1.05652925153648791e+00
1.05652925153648791e+00
1.00673594929909971e+00
1.00673594929909971e+00
1.00673594929909971e+00
9.73699164067654110e-01
9.73699164067654110e-01
9.73699164067654110e-01
9.53988335272531018e-01
9.53988335272531018e-01
9.53988335272531018e-01
9.90203945089179749e-01
9.90203945089179749e-01
9.90203945089179749e-01
1.05086091436916496e+00
1.05086091436916496e+00
1.05086091436916496e+00
9.93327506785493086e-01
9.93327506785493086e-01
9.93327506785493086e-01
9.85546134574101562e-01
9.85546134574101562e-01
9.85546134574101562e-01
9.61919414487959701e-01
9.61919414487959701e-01
9.61919414487959701e-01
9.98642929653244082e-01
9.98642929653244082e-01
9.98642929653244082e-01
1.07441713713664178e+00
1.07441713713664178e+00
1.07441713713664178e+00
9.82293762173511609e-01
9.82293762173511609e-01
9.82293762173511609e-01
1.00267403654076315e+00
1.00267403654076315e+00
1.00267403654076315e+00
1.02475245277645732e+00
1.02475245277645732e+00
1.02475245277645732e+00
1.03493575002210325e+00
1.03493575002210325e+00
1.03493575002210325e+00
9.68352496448212086e-01
9.68352496448212086e-01
9.68352496448212086e-01
1.06453785320342620e+00
1.06453785320342620e+00
1.06453785320342620e+00
1.04055594691392961e+00
1.04055594691392961e+00
1.04055594691392961e+00
1.01755773167040142e+00
1.01755773167040142e+00
1.01755773167040142e+00
9.80441597309144486e-01
9.80441597309144486e-01
9.80441597309144486e-01
1.06455863408719997e+00
1.06455863408719997e+00
1.06455863408719997e+00
1.04042585245996166e+00
1.04042585245996166e+00
1.04042585245996166e+00
1.05415119848431926e+00
1.05415119848431926e+00
1.05415119848431926e+00
1.04759137306275085e+00
1.04759137306275085e+00
1.04759137306275085e+00
9.84819009869731921e-01
9.84819009869731921e-01
9.84819009869731921e-01
1.00395041039156152e+00
1.00395041039156152e+00
1.00395041039156152e+00
1.00710364346306003e+00
1.00710364346306003e+00
1.00710364346306003e+00
1.02838250008416754e+00
1.02838250008416754e+00
1.02838250008416754e+00
1.05754343732946676e+00
1.05754343732946676e+00
1.05754343732946676e+00
1.05950081244152350e+00
1.05950081244152350e+00
1.05950081244152350e+00
1.04695635813478427e+00
1.04695635813478427e+00
1.04695635813478427e+00
1.04464372374033165e+00
1.04464372374033165e+00
1.04464372374033165e+00
1.01280277084008596e+00
1.01280277084008596e+00
1.01280277084008596e+00
1.03413790653501647e+00
1.03413790653501647e+00
1.03413790653501647e+00
9.58667141068120121e-01
9.58667141068120121e-01
9.58667141068120121e-01
9.72165619573282846e-01
9.72165619573282846e-01
9.72165619573282846e-01
9.85637572409717611e-01
9.85637572409717611e-01
9.85637572409717611e-01
9.73740152886861887e-01
9.73740152886861887e-01
9.73740152886861887e-01
1.04676405175114207e+00
1.04676405175114207e+00
1.04676405175114207e+00
1.03243812217938657e+00
1.03243812217938657e+00
1.03243812217938657e+00
9.49651523408238440e-01
9.49651523408238440e-01
9.49651523408238440e-01
9.55960803341976750e-01
9.55960803341976750e-01
9.55960803341976750e-01
9.76935278837467669e-01
9.76935278837467669e-01
9.76935278837467669e-01
9.83414280934478136e-01
9.83414280934478136e-01
9.83414280934478136e-01
1.02359420731839990e+00
1.02359420731839990e+00
1.02359420731839990e+00
9.91217462761956325e-01
9.91217462761956325e-01
9.91217462761956325e-01
9.80717816850013802e-01
9.80717816850013802e-01
9.80717816850013802e-01
9.46400640144890781e-01
9.46400640144890781e-01
9.46400640144890781e-01
9.63569493027841451e-01
9.63569493027841451e-01
9.63569493027841451e-01
9.80895852236757126e-01
9.80895852236757126e-01
9.80895852236757126e-01
1.05432174033980508e+00
1.05432174033980508e+00
1.05432174033980508e+00
1.04797982754221630e+00
1.04797982754221630e+00
1.04797982754221630e+00
9.46624477806077613e-01
9.46624477806077613e-01
9.46624477806077613e-01
9.53728693916361170e-01
9.53728693916361170e-01
9.53728693916361170e-01
9.96835744851129912e-01
9.96835744851129912e-01
9.96835744851129912e-01
1.02136474030963642e+00
1.02136474030963642e+00
1.02136474030963642e+00
1.01748267160952199e+00
1.01748267160952199e+00
1.01748267160952199e+00
1.04107544247172523e+00
1.04107544247172523e+00
1.04107544247172523e+00
9.89092022158180928e-01
9.89092022158180928e-01
9.89092022158180928e-01
9.88976700716110324e-01
9.88976700716110324e-01
9.88976700716110324e-01
1.01739610604546882e+00
1.01739610604546882e+00
1.01739610604546882e+00
9.92559357527253661e-01
9.92559357527253661e-01
9.92559357527253661e-01
9.92987937400014231e-01
9.92987937400014231e-01
9.92987937400014231e-01
1.04891257087155276e+00
1.04891257087155276e+00
1.04891257087155276e+00
1.05777553616148734e+00
1.05777553616148734e+00
1.05777553616148734e+00
1.01498187802427786e+00
1.01498187802427786e+00
1.01498187802427786e+00
1.02570171472668448e+00
1.02570171472668448e+00
1.02570171472668448e+00
9.52962319059620144e-01
9.52962319059620144e-01
9.52962319059620144e-01
9.86761101244000516e-01
9.86761101244000516e-01
9.86761101244000516e-01
9.76742628442447414e-01
9.76742628442447414e-01
9.76742628442447414e-01
1.06489166487892373e+00
1.06489166487892373e+00
1.06489166487892373e+00
9.77192248159199806e-01
9.77192248159199806e-01
9.77192248159199806e-01
9.81721476208565536e-01
9.81721476208565536e-01
9.81721476208565536e-01
9.77636193799090503e-01
9.77636193799090503e-01
9.77636193799090503e-01
9.94642165886744034e-01
9.94642165886744034e-01
9.94642165886744034e-01
9.50090622994265055e-01
9.50090622994265055e-01
9.50090622994265055e-01
1.00516836748555782e+00
1.00516836748555782e+00
1.00516836748555782e+00
9.85505307733097080e-01
9.85505307733097080e-01
9.85505307733097080e-01
1.03797586622567262e+00
1.03797586622567262e+00
1.03797586622567262e+00
9.89764980070150902e-01
9.89764980070150902e-01
9.89764980070150902e-01
1.03065321600706894e+00
1.03065321600706894e+00
1.03065321600706894e+00
1.03518487437391871e+00
1.03518487437391871e+00
1.03518487437391871e+00
9.96275247534148756e-01
9.96275247534148756e-01
9.96275247534148756e-01
1.03449741638224335e+00
1.03449741638224335e+00
1.03449741638224335e+00
1.02618474529563009e+00
1.02618474529563009e+00
1.02618474529563009e+00
1.01893022507897646e+00
1.01893022507897646e+00
1.01893022507897646e+00
1.03571114175035417e+00
1.03571114175035417e+00
1.03571114175035417e+00
9.98545753504905820e-01
9.98545753504905820e-01
9.98545753504905820e-01
1.04322706647563446e+00
1.04322706647563446e+00
1.04322706647563446e+00
1.02821165579910123e+00
1.02821165579910123e+00
1.02821165579910123e+00
1.02065681955842891e+00
1.02065681955842891e+00
1.02065681955842891e+00
1.00260505250025300e+00
1.00260505250025300e+00
1.00260505250025300e+00
1.03302581511660740e+00
1.03302581511660740e+00
1.03302581511660740e+00
1.02073886092872601e+00
1.02073886092872601e+00
1.02073886092872601e+00
9.85675882972546713e-01
9.85675882972546713e-01
9.85675882972546713e-01
9.83270235962183881e-01
9.83270235962183881e-01
9.83270235962183881e-01
1.01370729932629455e+00
1.01370729932629455e+00
1.01370729932629455e+00
1.02132526295892134e+00
1.02132526295892134e+00
1.02132526295892134e+00
1.00520505278511729e+00
1.00520505278511729e+00
1.00520505278511729e+00
1.00247578468368115e+00
1.00247578468368115e+00
1.00247578468368115e+00
9.96583963120082461e-01
9.96583963120082461e-01
9.96583963120082461e-01
1.01900582710158472e+00
1.01900582710158472e+00
1.01900582710158472e+00
1.03350929410740577e+00
1.03350929410740577e+00
1.03350929410740577e+00


        </DataArray>

      </PointData>

      <CellData/>

      <Points>

        <DataArray type="Float64" NumberOfComponents="3" format="ascii">

0.1082531754723032 0.6875000000007816 0 0.23533274979922561 0.77093399389351469 0 0.10409951422139101 0.81206782209691231 0 0.23533274979922561 0.77093399389351469 0 0.1082531754723032 0.6875000000007816 0 0.21809253452218619 0.65480892822618109 0 0.24418615484441761 0.35773612382016978 0 0.121259140952891 0.43112117036853742 0 0.1082531754734323 0.31250000000117473 0 0.75000000000057243 0.35048094716480432 0 0.88173731489851925 0.33077402607778361 0 0.81242894672211508 0.45500248311961472 0 0.121259140952891 0.43112117036853742 0 0.24418615484441761 0.35773612382016978 0 0.22257735880419699 0.47344721641341742 0 0.81242894672211508 0.45500248311961472 0 0.88173731489851925 0.33077402607778361 0 0.915464298762109 0.43749999999886913 0 0 0.62500000000121547 0 0 0.50000000000206146 0 0.1371230538040123 0.56179824718362847 0 0.82212678063041267 0.67678595194836966 0 0.89051480781310632 0.79665793440246835 0 0.76243180583607129 0.78687675331113149 0 0.76243180583607129 0.78687675331113149 0 0.69010814643829166 0.89298495739101336 0 0.62844955668446423 0.7850749770380413 0 0.89051480781310632 0.79665793440246835 0 0.82212678063041267 0.67678595194836966 0 0.92266244547590082 0.68749999999917555 0 0 0.50000000000206146 0 0.121259140952891 0.43112117036853742 0 0.1371230538040123 0.56179824718362847 0 0.1082531754723032 0.6875000000007816 0 0 0.62500000000121547 0 0.1371230538040123 0.56179824718362847 0 0.75000000000032374 0.56698729811007709 0 0.88927506082488361 0.56409486310635837 0 0.82212678063041267 0.67678595194836966 0 0.81242894672211508 0.45500248311961472 0 0.88927506082488361 0.56409486310635837 0 0.75000000000032374 0.56698729811007709 0 0.69851598570178741 0.68211701800612057 0 0.56496004948275869 0.67675037307860475 0 0.62752533658682441 0.56838075195614346 0 0.69851598570178741 0.68211701800612057 0 0.76243180583607129 0.78687675331113149 0 0.62844955668446423 0.7850749770380413 0 0.23533274979922561 0.77093399389351469 0 0.18802967116092181 0.89415349436770275 0 0.10409951422139101 0.81206782209691231 0 0.121259140952891 0.43112117036853742 0 0.22257735880419699 0.47344721641341742 0 0.1371230538040123 0.56179824718362847 0 0.75000000000032374 0.56698729811007709 0 0.69851598570178741 0.68211701800612057 0 0.62752533658682441 0.56838075195614346 0 0.56496004948275869 0.67675037307860475 0 0.69851598570178741 0.68211701800612057 0 0.62844955668446423 0.7850749770380413 0 0.1371230538040123 0.56179824718362847 0 0.22257735880419699 0.47344721641341742 0 0.26982811998763367 0.56544650815856912 0 0.21809253452218619 0.65480892822618109 0 0.1371230538040123 0.56179824718362847 0 0.26982811998763367 0.56544650815856912 0 0.24418615484441761 0.35773612382016978 0 0.1082531754734323 0.31250000000117473 0 0.20767261601459541 0.25628918442207171 0 0.88173731489851925 0.33077402607778361 0 0.75000000000057243 0.35048094716480432 0 0.79891106056046712 0.25007334953587562 0 0.75000000000032374 0.56698729811007709 0 0.82212678063041267 0.67678595194836966 0 0.69851598570178741 0.68211701800612057 0 0.81249999999950517 0.1082531754733404 0 0.89658421694297741 0.1933620068391701 0 0.79891106056046712 0.25007334953587562 0 0.81249999999950517 0.1082531754733404 0 0.79891106056046712 0.25007334953587562 0 0.73983916756365475 0.17530677078674589 0 0.23533274979922561 0.77093399389351469 0 0.21809253452218619 0.65480892822618109 0 0.32607333794064219 0.67760114260606152 0 0.1082531754723032 0.6875000000007816 0 0.1371230538040123 0.56179824718362847 0 0.21809253452218619 0.65480892822618109 0 0.69851598570178741 0.68211701800612057 0 0.82212678063041267 0.67678595194836966 0 0.76243180583607129 0.78687675331113149 0 0.69010814643829166 0.89298495739101336 0 0.76243180583607129 0.78687675331113149 0 0.80886664387416207 0.89717308644237903 0 0.43750000000181222 0.89174682452709564 0 0.31258827852827581 0.89214793616708443 0 0.37776173212361452 0.78514649317305008 0 0.43750000000181222 0.89174682452709564 0 0.37500000000156292 1 0 0.31258827852827581 0.89214793616708443 0 0.121259140952891 0.43112117036853742 0 0 0.37500000000156292 0 0.1082531754734323 0.31250000000117473 0 0.50000000000206146 1 0 0.37500000000156292 1 0 0.43750000000181222 0.89174682452709564 0 0.31258827852827581 0.89214793616708443 0 0.18802967116092181 0.89415349436770275 0 0.23533274979922561 0.77093399389351469 0 0 0.50000000000206146 0 0 0.37500000000156292 0 0.121259140952891 0.43112117036853742 0 0.62844955668446423 0.7850749770380413 0 0.69010814643829166 0.89298495739101336 0 0.56327595140699671 0.89211526915426331 0 0.69010814643829166 0.89298495739101336 0 0.62500000000121547 1 0 0.56327595140699671 0.89211526915426331 0 0.25000000000104189 1 0 0.18802967116092181 0.89415349436770275 0 0.31258827852827581 0.89214793616708443 0 0.50000000000206146 1 0 0.43750000000181222 0.89174682452709564 0 0.56327595140699671 0.89211526915426331 0 0.56249999999885147 0.1082531754730395 0 0.62499999999901068 0 0 0.68749999999926592 0.1082531754732875 0 1 0.49999999999869221 0 1 0.62499999999901068 0 0.88927506082488361 0.56409486310635837 0 0 0.25000000000104189 0 0.12076953676380731 0.18690935762408761 0 0.1082531754734323 0.31250000000117473 0 0.49999999999869221 0 0 0.62499999999901068 0 0 0.56249999999885147 0.1082531754730395 0 0.62500000000121547 1 0 0.50000000000206146 1 0 0.56327595140699671 0.89211526915426331 0 0.37500000000156292 1 0 0.25000000000104189 1 0 0.31258827852827581 0.89214793616708443 0 0.31281086598417152 0.10449318608631281 0 0.37499999999904599 0 0 0.43749999999910871 0.1082531754729984 0 0.43750000000181222 0.89174682452709564 0 0.37776173212361452 0.78514649317305008 0 0.50046028868828263 0.78376912307435687 0 0 0.37500000000156292 0 0 0.25000000000104189 0 0.1082531754734323 0.31250000000117473 0 0.49999999999869221 0 0 0.56249999999885147 0.1082531754730395 0 0.43749999999910871 0.1082531754729984 0 0.43750000000181222 0.89174682452709564 0 0.50046028868828263 0.78376912307435687 0 0.56327595140699671 0.89211526915426331 0 0.74999999999934042 0 0 0.81249999999950517 0.1082531754733404 0 0.68749999999926592 0.1082531754732875 0 0.37499999999904599 0 0 0.49999999999869221 0 0 0.43749999999910871 0.1082531754729984 0 0.25000000000104189 1 0 0.12500000000052089 1 0 0.18802967116092181 0.89415349436770275 0 0.50046028868828263 0.78376912307435687 0 0.62844955668446423 0.7850749770380413 0 0.56327595140699671 0.89211526915426331 0 0.37776173212361452 0.78514649317305008 0 0.31258827852827581 0.89214793616708443 0 0.23533274979922561 0.77093399389351469 0 0.62499999999901068 0 0 0.74999999999934042 0 0 0.68749999999926592 0.1082531754732875 0 1 0.74999999999934042 0 1 0.87499999999967015 0 0.89051480781310632 0.79665793440246835 0 0 0.25000000000104189 0 0 0.12500000000052089 0 0.12076953676380731 0.18690935762408761 0 0.74999999999934042 0 0 0.87499999999967015 0 0 0.81249999999950517 0.1082531754733404 0 0.24999999999941069 0 0 0.37499999999904599 0 0 0.31281086598417152 0.10449318608631281 0 0.50046028868828263 0.78376912307435687 0 0.37776173212361452 0.78514649317305008 0 0.44078402250377968 0.67714785211715212 0 0.68768773896438518 0.4586835206367198 0 0.75000000000032374 0.56698729811007709 0 0.62752533658682441 0.56838075195614346 0 0.31411863959822661 0.24965544328045999 0 0.37953773393552892 0.34812185820708452 0 0.24418615484441761 0.35773612382016978 0 0.68768773896438518 0.4586835206367198 0 0.81242894672211508 0.45500248311961472 0 0.75000000000032374 0.56698729811007709 0 1 0.24999999999941069 0 1 0.37499999999904599 0 0.88173731489851925 0.33077402607778361 0 0 0.75000000000034761 0 0 0.62500000000121547 0 0.1082531754723032 0.6875000000007816 0 0.50048844149666749 0.56727788297625459 0 0.44078402250377968 0.67714785211715212 0 0.38694285807596462 0.5672991787102919 0 0.50108503093851109 0.35012252869403671 0 0.44301038174930041 0.45684931552185398 0 0.37953773393552892 0.34812185820708452 0 0.50046028868828263 0.78376912307435687 0 0.56496004948275869 0.67675037307860475 0 0.62844955668446423 0.7850749770380413 0 0.68768773896438518 0.4586835206367198 0 0.75000000000057243 0.35048094716480432 0 0.81242894672211508 0.45500248311961472 0 0.56349980387502452 0.45846841892908402 0 0.62512662990940393 0.35044303886909911 0 0.68768773896438518 0.4586835206367198 0 0.50048844149666749 0.56727788297625459 0 0.38694285807596462 0.5672991787102919 0 0.44301038174930041 0.45684931552185398 0 0.50046028868828263 0.78376912307435687 0 0.44078402250377968 0.67714785211715212 0 0.56496004948275869 0.67675037307860475 0 0.50108503093851109 0.35012252869403671 0 0.37953773393552892 0.34812185820708452 0 0.43750000000200551 0.24222777169198509 0 0.75000000000034761 1 0 0.62500000000121547 1 0 0.69010814643829166 0.89298495739101336 0 0.68768773896438518 0.4586835206367198 0 0.62512662990940393 0.35044303886909911 0 0.75000000000057243 0.35048094716480432 0 0.56496004948275869 0.67675037307860475 0 0.44078402250377968 0.67714785211715212 0 0.50048844149666749 0.56727788297625459 0 0.56349980387502452 0.45846841892908402 0 0.44301038174930041 0.45684931552185398 0 0.50108503093851109 0.35012252869403671 0 0.50048844149666749 0.56727788297625459 0 0.44301038174930041 0.45684931552185398 0 0.56349980387502452 0.45846841892908402 0 0.56349980387502452 0.45846841892908402 0 0.50108503093851109 0.35012252869403671 0 0.62512662990940393 0.35044303886909911 0 0.43750000000200551 0.24222777169198509 0 0.37953773393552892 0.34812185820708452 0 0.31411863959822661 0.24965544328045999 0 0.56496004948275869 0.67675037307860475 0 0.50048844149666749 0.56727788297625459 0 0.62752533658682441 0.56838075195614346 0 0.56349980387502452 0.45846841892908402 0 0.68768773896438518 0.4586835206367198 0 0.62752533658682441 0.56838075195614346 0 0.50048844149666749 0.56727788297625459 0 0.56349980387502452 0.45846841892908402 0 0.62752533658682441 0.56838075195614346 0 0.75000000000057243 0.35048094716480432 0 0.62512662990940393 0.35044303886909911 0 0.68668231842078242 0.24762892664808989 0 0.50108503093851109 0.35012252869403671 0 0.43750000000200551 0.24222777169198509 0 0.56250000000143974 0.2422277716920859 0 0.62512662990940393 0.35044303886909911 0 0.50108503093851109 0.35012252869403671 0 0.56250000000143974 0.2422277716920859 0 0.68668231842078242 0.24762892664808989 0 0.62512662990940393 0.35044303886909911 0 0.56250000000143974 0.2422277716920859 0 0.22257735880419699 0.47344721641341742 0 0.24418615484441761 0.35773612382016978 0 0.32815957677880009 0.4577243358118348 0 0.12076953676380731 0.18690935762408761 0 0.19185372118111221 0.092925648673580788 0 0.25103557339309318 0.17464499738446629 0 0.20767261601459541 0.25628918442207171 0 0.12076953676380731 0.18690935762408761 0 0.25103557339309318 0.17464499738446629 0 0 0.87499999999950151 0 0 0.75000000000034761 0 0.10409951422139101 0.81206782209691231 0 0.1249999999997731 0 0 0.24999999999941069 0 0 0.19185372118111221 0.092925648673580788 0 1 0.1249999999997731 0 1 0.24999999999941069 0 0.89658421694297741 0.1933620068391701 0 0.88927506082488361 0.56409486310635837 0 0.81242894672211508 0.45500248311961472 0 0.915464298762109 0.43749999999886913 0 0.87499999999950151 1 0 0.75000000000034761 1 0 0.80886664387416207 0.89717308644237903 0 0.75000000000034761 1 0 0.69010814643829166 0.89298495739101336 0 0.80886664387416207 0.89717308644237903 0 0.82212678063041267 0.67678595194836966 0 0.88927506082488361 0.56409486310635837 0 0.92266244547590082 0.68749999999917555 0 0 0.75000000000034761 0 0.1082531754723032 0.6875000000007816 0 0.10409951422139101 0.81206782209691231 0 0.24999999999941069 0 0 0.31281086598417152 0.10449318608631281 0 0.19185372118111221 0.092925648673580788 0 1 0.24999999999941069 0 0.88173731489851925 0.33077402607778361 0 0.89658421694297741 0.1933620068391701 0 0.32815957677880009 0.4577243358118348 0 0.38694285807596462 0.5672991787102919 0 0.26982811998763367 0.56544650815856912 0 0.76243180583607129 0.78687675331113149 0 0.89051480781310632 0.79665793440246835 0 0.80886664387416207 0.89717308644237903 0 0.38694285807596462 0.5672991787102919 0 0.44078402250377968 0.67714785211715212 0 0.32607333794064219 0.67760114260606152 0 0.37776173212361452 0.78514649317305008 0 0.23533274979922561 0.77093399389351469 0 0.32607333794064219 0.67760114260606152 0 1 0.49999999999869221 0 0.88927506082488361 0.56409486310635837 0 0.915464298762109 0.43749999999886913 0 0.88173731489851925 0.33077402607778361 0 1 0.37499999999904599 0 0.915464298762109 0.43749999999886913 0 0.24418615484441761 0.35773612382016978 0 0.37953773393552892 0.34812185820708452 0 0.32815957677880009 0.4577243358118348 0 0.44301038174930041 0.45684931552185398 0 0.38694285807596462 0.5672991787102919 0 0.32815957677880009 0.4577243358118348 0 0.88927506082488361 0.56409486310635837 0 1 0.62499999999901068 0 0.92266244547590082 0.68749999999917555 0 1 0.74999999999934042 0 0.89051480781310632 0.79665793440246835 0 0.92266244547590082 0.68749999999917555 0 0 1 0 0 0.87499999999950151 0 0.091506350946494744 0.90849364905351082 0 1 1 0 0.87499999999950151 1 0 0.90849364905363228 0.90849364905367769 0 0 0 0 0.1249999999997731 0 0 0.091506350946417708 0.091506350946618076 0 0 0.12500000000052089 0 0 0 0 0.091506350946417708 0.091506350946618076 0 1 0 0 1 0.1249999999997731 0 0.90849364905355434 0.091506350946296292 0 0.87499999999967015 0 0 1 0 0 0.90849364905355434 0.091506350946296292 0 0.12500000000052089 1 0 0 1 0 0.091506350946494744 0.90849364905351082 0 1 0.87499999999967015 0 1 1 0 0.90849364905363228 0.90849364905367769 0 0.38694285807596462 0.5672991787102919 0 0.32607333794064219 0.67760114260606152 0 0.26982811998763367 0.56544650815856912 0 0.31411863959822661 0.24965544328045999 0 0.24418615484441761 0.35773612382016978 0 0.20767261601459541 0.25628918442207171 0 0.1082531754734323 0.31250000000117473 0 0.12076953676380731 0.18690935762408761 0 0.20767261601459541 0.25628918442207171 0 0.75000000000057243 0.35048094716480432 0 0.68668231842078242 0.24762892664808989 0 0.79891106056046712 0.25007334953587562 0 0.22257735880419699 0.47344721641341742 0 0.32815957677880009 0.4577243358118348 0 0.26982811998763367 0.56544650815856912 0 0.44078402250377968 0.67714785211715212 0 0.37776173212361452 0.78514649317305008 0 0.32607333794064219 0.67760114260606152 0 0.89658421694297741 0.1933620068391701 0 0.88173731489851925 0.33077402607778361 0 0.79891106056046712 0.25007334953587562 0 1 0.37499999999904599 0 1 0.49999999999869221 0 0.915464298762109 0.43749999999886913 0 0.37953773393552892 0.34812185820708452 0 0.44301038174930041 0.45684931552185398 0 0.32815957677880009 0.4577243358118348 0 0.32607333794064219 0.67760114260606152 0 0.21809253452218619 0.65480892822618109 0 0.26982811998763367 0.56544650815856912 0 1 0.1249999999997731 0 0.89658421694297741 0.1933620068391701 0 0.90849364905355434 0.091506350946296292 0 0 0.87499999999950151 0 0.10409951422139101 0.81206782209691231 0 0.091506350946494744 0.90849364905351082 0 0.1249999999997731 0 0 0.19185372118111221 0.092925648673580788 0 0.091506350946417708 0.091506350946618076 0 1 0.62499999999901068 0 1 0.74999999999934042 0 0.92266244547590082 0.68749999999917555 0 0.18802967116092181 0.89415349436770275 0 0.12500000000052089 1 0 0.091506350946494744 0.90849364905351082 0 0.89051480781310632 0.79665793440246835 0 1 0.87499999999967015 0 0.90849364905363228 0.90849364905367769 0 0.12076953676380731 0.18690935762408761 0 0 0.12500000000052089 0 0.091506350946417708 0.091506350946618076 0 0.81249999999950517 0.1082531754733404 0 0.87499999999967015 0 0 0.90849364905355434 0.091506350946296292 0 0.87499999999950151 1 0 0.80886664387416207 0.89717308644237903 0 0.90849364905363228 0.90849364905367769 0 0.68668231842078242 0.24762892664808989 0 0.62499999999892575 0.17524047358135519 0 0.73983916756365475 0.17530677078674589 0 0.31281086598417152 0.10449318608631281 0 0.43749999999910871 0.1082531754729984 0 0.37500000000232431 0.17524047358384309 0 0.62499999999892575 0.17524047358135519 0 0.56250000000143974 0.2422277716920859 0 0.49999999999934441 0.1752404735815076 0 0.56249999999885147 0.1082531754730395 0 0.68749999999926592 0.1082531754732875 0 0.62499999999892575 0.17524047358135519 0 0.56249999999885147 0.1082531754730395 0 0.62499999999892575 0.17524047358135519 0 0.49999999999934441 0.1752404735815076 0 0.56250000000143974 0.2422277716920859 0 0.43750000000200551 0.24222777169198509 0 0.49999999999934441 0.1752404735815076 0 0.43749999999910871 0.1082531754729984 0 0.56249999999885147 0.1082531754730395 0 0.49999999999934441 0.1752404735815076 0 0.68668231842078242 0.24762892664808989 0 0.56250000000143974 0.2422277716920859 0 0.62499999999892575 0.17524047358135519 0 0.43750000000200551 0.24222777169198509 0 0.31411863959822661 0.24965544328045999 0 0.37500000000232431 0.17524047358384309 0 0.49999999999934441 0.1752404735815076 0 0.43750000000200551 0.24222777169198509 0 0.37500000000232431 0.17524047358384309 0 0.43749999999910871 0.1082531754729984 0 0.49999999999934441 0.1752404735815076 0 0.37500000000232431 0.17524047358384309 0 0.62499999999892575 0.17524047358135519 0 0.68749999999926592 0.1082531754732875 0 0.73983916756365475 0.17530677078674589 0 0.68749999999926592 0.1082531754732875 0 0.81249999999950517 0.1082531754733404 0 0.73983916756365475 0.17530677078674589 0 0.10409951422139101 0.81206782209691231 0 0.18802967116092181 0.89415349436770275 0 0.091506350946494744 0.90849364905351082 0 0.89658421694297741 0.1933620068391701 0 0.81249999999950517 0.1082531754733404 0 0.90849364905355434 0.091506350946296292 0 0.19185372118111221 0.092925648673580788 0 0.12076953676380731 0.18690935762408761 0 0.091506350946417708 0.091506350946618076 0 0.37500000000232431 0.17524047358384309 0 0.31411863959822661 0.24965544328045999 0 0.25103557339309318 0.17464499738446629 0 0.31281086598417152 0.10449318608631281 0 0.37500000000232431 0.17524047358384309 0 0.25103557339309318 0.17464499738446629 0 0.80886664387416207 0.89717308644237903 0 0.89051480781310632 0.79665793440246835 0 0.90849364905363228 0.90849364905367769 0 0.19185372118111221 0.092925648673580788 0 0.31281086598417152 0.10449318608631281 0 0.25103557339309318 0.17464499738446629 0 0.79891106056046712 0.25007334953587562 0 0.68668231842078242 0.24762892664808989 0 0.73983916756365475 0.17530677078674589 0 0.31411863959822661 0.24965544328045999 0 0.20767261601459541 0.25628918442207171 0 0.25103557339309318 0.17464499738446629 0 

        </DataArray>

      </Points>

      <Cells>

        <DataArray type="Int32" Name="connectivity" format="ascii">

0 1 2 3 4 5 6 7 8 9 10 11 12 13 14 15 16 17 18 19 20 21 22 23 24 25 26 27 28 29 30 31 32 33 34 35 36 37 38 39 40 41 42 43 44 45 46 47 48 49 50 51 52 53 54 55 56 57 58 59 60 61 62 63 64 65 66 67 68 69 70 71 72 73 74 75 76 77 78 79 80 81 82 83 84 85 86 87 88 89 90 91 92 93 94 95 96 97 98 99 100 101 102 103 104 105 106 107 108 109 110 111 112 113 114 115 116 117 118 119 120 121 122 123 124 125 126 127 128 129 130 131 132 133 134 135 136 137 138 139 140 141 142 143 144 145 146 147 148 149 150 151 152 153 154 155 156 157 158 159 160 161 162 163 164 165 166 167 168 169 170 171 172 173 174 175 176 177 178 179 180 181 182 183 184 185 186 187 188 189 190 191 192 193 194 195 196 197 198 199 200 201 202 203 204 205 206 207 208 209 210 211 212 213 214 215 216 217 218 219 220 221 222 223 224 225 226 227 228 229 230 231 232 233 234 235 236 237 238 239 240 241 242 243 244 245 246 247 248 249 250 251 252 253 254 255 256 257 258 259 260 261 262 263 264 265 266 267 268 269 270 271 272 273 274 275 276 277 278 279 280 281 282 283 284 285 286 287 288 289 290 291 292 293 294 295 296 297 298 299 300 301 302 303 304 305 306 307 308 309 310 311 312 313 314 315 316 317 318 319 320 321 322 323 324 325 326 327 328 329 330 331 332 333 334 335 336 337 338 339 340 341 342 343 344 345 346 347 348 349 350 351 352 353 354 355 356 357 358 359 360 361 362 363 364 365 366 367 368 369 370 371 372 373 374 375 376 377 378 379 380 381 382 383 384 385 386 387 388 389 390 391 392 393 394 395 396 397 398 399 400 401 402 403 404 405 406 407 408 409 410 411 412 413 414 415 416 417 418 419 420 421 422 423 424 425 426 427 428 429 430 431 432 433 434 435 436 437 438 439 440 441 442 443 444 445 446 447 448 449 450 451 452 453 454 455 456 457 458 459 460 461 462 463 464 465 466 467 468 469 470 471 472 473 474 475 476 477 478 479 480 481 482 483 484 485 

        </DataArray>

        <DataArray type="Int32" Name="offsets" format="ascii">

3 6 9 12 15 18 21 24 27 30 33 36 39 42 45 48 51 54 57 60 63 66 69 72 75 78 81 84 87 90 93 96 99 102 105 108 111 114 117 120 123 126 129 132 135 138 141 144 147 150 153 156 159 162 165 168 171 174 177 180 183 186 189 192 195 198 201 204 207 210 213 216 219 222 225 228 231 234 237 240 243 246 249 252 255 258 261 264 267 270 273 276 279 282 285 288 291 294 297 300 303 306 309 312 315 318 321 324 327 330 333 336 339 342 345 348 351 354 357 360 363 366 369 372 375 378 381 384 387 390 393 396 399 402 405 408 411 414 417 420 423 426 429 432 435 438 441 444 447 450 453 456 459 462 465 468 471 474 477 480 483 486 

        </DataArray>

        <DataArray type="Int32" Name="types" format="ascii">

5 5 5 5 5 5 5 5 5 5 5 5 5 5 5 5 5 5 5 5 5 5 5 5 5 5 5 5 5 5 5 5 5 5 5 5 5 5 5 5 5 5 5 5 5 5 5 5 5 5 5 5 5 5 5 5 5 5 5 5 5 5 5 5 5 5 5 5 5 5 5 5 5 5 5 5 5 5 5 5 5 5 5 5 5 5 5 5 5 5 5 5 5 5 5 5 5 5 5 5 5 5 5 5 5 5 5 5 5 5 5 5 5 5 5 5 5 5 5 5 5 5 5 5 5 5 5 5 5 5 5 5 5 5 5 5 5 5 5 5 5 5 5 5 5 5 5 5 5 5 5 5 5 5 5 5 5 5 5 5 5 5 

        </DataArray>

      </Cells>

    </Piece>

  </UnstructuredGrid>

</VTKFile>

