<?xml version="1.0"?>

<VTKFile type="UnstructuredGrid" version="0.1">

  <UnstructuredGrid>

    <Piece NumberOfPoints="486" NumberOfCells="162">

      <PointData>

        <DataArray type="Float64" Name="K" format="ascii">

9.94172033737928285e-01
9.94172033737928285e-01
9.94172033737928285e-01
1.01754445363672996e+00
1.01754445363672996e+00
1.01754445363672996e+00
9.91493484969830696e-01
9.91493484969830696e-01
9.91493484969830696e-01
9.71781367968082122e-01
9.71781367968082122e-01
9.71781367968082122e-01
1.00573178132616015e+00
1.00573178132616015e+00
1.00573178132616015e+00
9.72055878030535059e-01
9.72055878030535059e-01
9.72055878030535059e-01
9.75968743986025067e-01
9.75968743986025067e-01
9.75968743986025067e-01
1.03641559952390927e+00
1.03641559952390927e+00
1.03641559952390927e+00
1.00093856866289088e+00
1.00093856866289088e+00
1.00093856866289088e+00
1.05466216490409415e+00
1.05466216490409415e+00
1.05466216490409415e+00
9.84022826714842647e-01
9.84022826714842647e-01
9.84022826714842647e-01
9.80427310949734676e-01
9.80427310949734676e-01
9.80427310949734676e-01
9.84983496081016985e-01
9.84983496081016985e-01
9.84983496081016985e-01
9.67828840555454817e-01
9.67828840555454817e-01
9.67828840555454817e-01
1.00695098832583541e+00
1.00695098832583541e+00
1.00695098832583541e+00
1.00558932760926756e+00
1.00558932760926756e+00
1.00558932760926756e+00
9.70605573524030096e-01
9.70605573524030096e-01
9.70605573524030096e-01
1.00333055862560450e+00
1.00333055862560450e+00
1.00333055862560450e+00
9.95624008677146954e-01
9.95624008677146954e-01
9.95624008677146954e-01
1.00931857496375987e+00
1.00931857496375987e+00
1.00931857496375987e+00
1.03509357622197884e+00
1.03509357622197884e+00
1.03509357622197884e+00
1.04048267509269476e+00
1.04048267509269476e+00
1.04048267509269476e+00
9.87268404204640571e-01
9.87268404204640571e-01
9.87268404204640571e-01
9.86412974739346748e-01
9.86412974739346748e-01
9.86412974739346748e-01
9.93227043001914667e-01
9.93227043001914667e-01
9.93227043001914667e-01
1.03692448481052146e+00
1.03692448481052146e+00
1.03692448481052146e+00
1.01668305282617255e+00
1.01668305282617255e+00
1.01668305282617255e+00
1.03683319850145317e+00
1.03683319850145317e+00
1.03683319850145317e+00
1.01064498103545963e+00
1.01064498103545963e+00
1.01064498103545963e+00
1.00715732960394511e+00
1.00715732960394511e+00
1.00715732960394511e+00
1.01616773035594132e+00
1.01616773035594132e+00
1.01616773035594132e+00
9.68794256862343217e-01
9.68794256862343217e-01
9.68794256862343217e-01
9.57954367025939058e-01
9.57954367025939058e-01
9.57954367025939058e-01
9.88257207969083451e-01
9.88257207969083451e-01
9.88257207969083451e-01
9.71100003681512502e-01
9.71100003681512502e-01
9.71100003681512502e-01
9.51576058992171014e-01
9.51576058992171014e-01
9.51576058992171014e-01
9.86531655852225686e-01
9.86531655852225686e-01
9.86531655852225686e-01
9.86855653048294146e-01
9.86855653048294146e-01
9.86855653048294146e-01
9.73450060175364507e-01
9.73450060175364507e-01
9.73450060175364507e-01
9.19104143920346117e-01
9.19104143920346117e-01
9.19104143920346117e-01
9.73193422551980380e-01
9.73193422551980380e-01
9.73193422551980380e-01
1.02118991231500900e+00
1.02118991231500900e+00
1.02118991231500900e+00
1.01201291818484429e+00
1.01201291818484429e+00
1.01201291818484429e+00
9.78082557224360549e-01
9.78082557224360549e-01
9.78082557224360549e-01
1.00047994499666548e+00
1.00047994499666548e+00
1.00047994499666548e+00
9.64857654314179469e-01
9.64857654314179469e-01
9.64857654314179469e-01
9.32639778051898238e-01
9.32639778051898238e-01
9.32639778051898238e-01
9.55779677702492836e-01
9.55779677702492836e-01
9.55779677702492836e-01
9.86289760853582553e-01
9.86289760853582553e-01
9.86289760853582553e-01
9.86744383409632109e-01
9.86744383409632109e-01
9.86744383409632109e-01
9.78048994344940192e-01
9.78048994344940192e-01
9.78048994344940192e-01
9.84813493236673776e-01
9.84813493236673776e-01
9.84813493236673776e-01
1.04140817494366744e+00
1.04140817494366744e+00
1.04140817494366744e+00
9.63977909814178191e-01
9.63977909814178191e-01
9.63977909814178191e-01
9.12160703656449967e-01
9.12160703656449967e-01
9.12160703656449967e-01
9.93159246679449992e-01
9.93159246679449992e-01
9.93159246679449992e-01
9.74215013354635784e-01
9.74215013354635784e-01
9.74215013354635784e-01
1.03715686528368467e+00
1.03715686528368467e+00
1.03715686528368467e+00
1.10339402330008429e+00
1.10339402330008429e+00
1.10339402330008429e+00
9.70393939749561230e-01
9.70393939749561230e-01
9.70393939749561230e-01
1.06159944146049012e+00
1.06159944146049012e+00
1.06159944146049012e+00
9.68717373709107044e-01
9.68717373709107044e-01
9.68717373709107044e-01
1.00152319567897052e+00
1.00152319567897052e+00
1.00152319567897052e+00
9.80762697350943458e-01
9.80762697350943458e-01
9.80762697350943458e-01
9.93628000200865835e-01
9.93628000200865835e-01
9.93628000200865835e-01
9.67482158012783922e-01
9.67482158012783922e-01
9.67482158012783922e-01
1.00136195477584700e+00
1.00136195477584700e+00
1.00136195477584700e+00
9.73640974567996587e-01
9.73640974567996587e-01
9.73640974567996587e-01
1.02942264217976964e+00
1.02942264217976964e+00
1.02942264217976964e+00
1.01999698798852201e+00
1.01999698798852201e+00
1.01999698798852201e+00
1.00565616369291821e+00
1.00565616369291821e+00
1.00565616369291821e+00
9.60903071585524238e-01
9.60903071585524238e-01
9.60903071585524238e-01
9.66152126583120330e-01
9.66152126583120330e-01
9.66152126583120330e-01
1.03515795281692569e+00
1.03515795281692569e+00
1.03515795281692569e+00
1.00619167387130370e+00
1.00619167387130370e+00
1.00619167387130370e+00
1.00040489212430916e+00
1.00040489212430916e+00
1.00040489212430916e+00
9.84565497029746495e-01
9.84565497029746495e-01
9.84565497029746495e-01
9.57091480724931998e-01
9.57091480724931998e-01
9.57091480724931998e-01
1.01007319164223297e+00
1.01007319164223297e+00
1.01007319164223297e+00
1.00440278591526733e+00
1.00440278591526733e+00
1.00440278591526733e+00
1.00763308127924867e+00
1.00763308127924867e+00
1.00763308127924867e+00
9.81568755503649526e-01
9.81568755503649526e-01
9.81568755503649526e-01
9.82433001006148610e-01
9.82433001006148610e-01
9.82433001006148610e-01
1.00310247119226048e+00
1.00310247119226048e+00
1.00310247119226048e+00
9.77727358504690058e-01
9.77727358504690058e-01
9.77727358504690058e-01
9.92544052679615985e-01
9.92544052679615985e-01
9.92544052679615985e-01
9.61004060726454390e-01
9.61004060726454390e-01
9.61004060726454390e-01
9.94768736254391550e-01
9.94768736254391550e-01
9.94768736254391550e-01
9.86094379024375134e-01
9.86094379024375134e-01
9.86094379024375134e-01
9.76846335825999446e-01
9.76846335825999446e-01
9.76846335825999446e-01
1.03120259668043057e+00
1.03120259668043057e+00
1.03120259668043057e+00
9.70645735827924794e-01
9.70645735827924794e-01
9.70645735827924794e-01
9.76150301813790144e-01
9.76150301813790144e-01
9.76150301813790144e-01
9.84205093923571472e-01
9.84205093923571472e-01
9.84205093923571472e-01
9.62992354617527524e-01
9.62992354617527524e-01
9.62992354617527524e-01
1.06399094906708225e+00
1.06399094906708225e+00
1.06399094906708225e+00
9.66008686561873997e-01
9.66008686561873997e-01
9.66008686561873997e-01
1.00994194362421585e+00
1.00994194362421585e+00
1.00994194362421585e+00
1.00751518238113902e+00
1.00751518238113902e+00
1.00751518238113902e+00
1.01893907839284692e+00
1.01893907839284692e+00
1.01893907839284692e+00
9.81756909760200802e-01
9.81756909760200802e-01
9.81756909760200802e-01
9.68980515879535043e-01
9.68980515879535043e-01
9.68980515879535043e-01
1.03438372649056376e+00
1.03438372649056376e+00
1.03438372649056376e+00
1.07377650527419743e+00
1.07377650527419743e+00
1.07377650527419743e+00
1.04483200755837435e+00
1.04483200755837435e+00
1.04483200755837435e+00
1.04462648803539437e+00
1.04462648803539437e+00
1.04462648803539437e+00
1.01382313727513296e+00
1.01382313727513296e+00
1.01382313727513296e+00
9.77718585586898947e-01
9.77718585586898947e-01
9.77718585586898947e-01
9.80075135099731320e-01
9.80075135099731320e-01
9.80075135099731320e-01
1.02535946486304752e+00
1.02535946486304752e+00
1.02535946486304752e+00
1.05861617450335777e+00
1.05861617450335777e+00
1.05861617450335777e+00
1.03854137978080674e+00
1.03854137978080674e+00
1.03854137978080674e+00
1.09392207147504683e+00
1.09392207147504683e+00
1.09392207147504683e+00
9.90394775422794971e-01
9.90394775422794971e-01
9.90394775422794971e-01
1.00756641749074394e+00
1.00756641749074394e+00
1.00756641749074394e+00
9.52362816818267732e-01
9.52362816818267732e-01
9.52362816818267732e-01
9.62021974971620897e-01
9.62021974971620897e-01
9.62021974971620897e-01
1.08629515476052330e+00
1.08629515476052330e+00
1.08629515476052330e+00
1.08048853367800368e+00
1.08048853367800368e+00
1.08048853367800368e+00
9.66442686108739069e-01
9.66442686108739069e-01
9.66442686108739069e-01
1.04266954923635780e+00
1.04266954923635780e+00
1.04266954923635780e+00
1.07061451012936426e+00
1.07061451012936426e+00
1.07061451012936426e+00
9.82911165602162851e-01
9.82911165602162851e-01
9.82911165602162851e-01
9.80818379379643446e-01
9.80818379379643446e-01
9.80818379379643446e-01
9.72998915342368598e-01
9.72998915342368598e-01
9.72998915342368598e-01
1.05780557708349177e+00
1.05780557708349177e+00
1.05780557708349177e+00
1.01944619572781447e+00
1.01944619572781447e+00
1.01944619572781447e+00
1.02119400292818452e+00
1.02119400292818452e+00
1.02119400292818452e+00
9.71784235798727525e-01
9.71784235798727525e-01
9.71784235798727525e-01
1.04127756881404587e+00
1.04127756881404587e+00
1.04127756881404587e+00
1.06248269311362220e+00
1.06248269311362220e+00
1.06248269311362220e+00
1.08041684821624973e+00
1.08041684821624973e+00
1.08041684821624973e+00
9.81473227550516802e-01
9.81473227550516802e-01
9.81473227550516802e-01
9.54479632295731517e-01
9.54479632295731517e-01
9.54479632295731517e-01
1.08708135914733672e+00
1.08708135914733672e+00
1.08708135914733672e+00
9.40426630339720959e-01
9.40426630339720959e-01
9.40426630339720959e-01
1.08087191747139677e+00
1.08087191747139677e+00
1.08087191747139677e+00
9.58726594916638253e-01
9.58726594916638253e-01
9.58726594916638253e-01
1.07166055910011249e+00
1.07166055910011249e+00
1.07166055910011249e+00
1.02983892801114285e+00
1.02983892801114285e+00
1.02983892801114285e+00
9.92911254917230202e-01
9.92911254917230202e-01
9.92911254917230202e-01
9.50669257653089628e-01
9.50669257653089628e-01
9.50669257653089628e-01
9.98638098797642315e-01
9.98638098797642315e-01
9.98638098797642315e-01
1.01382749222648405e+00
1.01382749222648405e+00
1.01382749222648405e+00
1.00176649260088779e+00
1.00176649260088779e+00
1.00176649260088779e+00
9.88837681055881212e-01
9.88837681055881212e-01
9.88837681055881212e-01
9.80640187816619768e-01
9.80640187816619768e-01
9.80640187816619768e-01
9.91609294531524244e-01
9.91609294531524244e-01
9.91609294531524244e-01
9.62870668493917781e-01
9.62870668493917781e-01
9.62870668493917781e-01
9.68087763403213120e-01
9.68087763403213120e-01
9.68087763403213120e-01
9.60847270814716548e-01
9.60847270814716548e-01
9.60847270814716548e-01
1.00921422312507358e+00
1.00921422312507358e+00
1.00921422312507358e+00
1.02281033964374179e+00
1.02281033964374179e+00
1.02281033964374179e+00
9.62790248500303258e-01
9.62790248500303258e-01
9.62790248500303258e-01
1.06581641728051735e+00
1.06581641728051735e+00
1.06581641728051735e+00
9.60989208214347190e-01
9.60989208214347190e-01
9.60989208214347190e-01
9.60283278007247332e-01
9.60283278007247332e-01
9.60283278007247332e-01
9.57135144193503318e-01
9.57135144193503318e-01
9.57135144193503318e-01
1.06059014923145778e+00
1.06059014923145778e+00
1.06059014923145778e+00
9.67544057824951231e-01
9.67544057824951231e-01
9.67544057824951231e-01
9.88759570503683793e-01
9.88759570503683793e-01
9.88759570503683793e-01
9.72051082517782716e-01
9.72051082517782716e-01
9.72051082517782716e-01


        </DataArray>

      </PointData>

      <CellData/>

      <Points>

        <DataArray type="Float64" NumberOfComponents="3" format="ascii">

0.1082531754723032 0.6875000000007816 0 0.23533274979922561 0.77093399389351469 0 0.10409951422139101 0.81206782209691231 0 0.23533274979922561 0.77093399389351469 0 0.1082531754723032 0.6875000000007816 0 0.21809253452218619 0.65480892822618109 0 0.24418615484441761 0.35773612382016978 0 0.121259140952891 0.43112117036853742 0 0.1082531754734323 0.31250000000117473 0 0.75000000000057243 0.35048094716480432 0 0.88173731489851925 0.33077402607778361 0 0.81242894672211508 0.45500248311961472 0 0.121259140952891 0.43112117036853742 0 0.24418615484441761 0.35773612382016978 0 0.22257735880419699 0.47344721641341742 0 0.81242894672211508 0.45500248311961472 0 0.88173731489851925 0.33077402607778361 0 0.915464298762109 0.43749999999886913 0 0 0.62500000000121547 0 0 0.50000000000206146 0 0.1371230538040123 0.56179824718362847 0 0.82212678063041267 0.67678595194836966 0 0.89051480781310632 0.79665793440246835 0 0.76243180583607129 0.78687675331113149 0 0.76243180583607129 0.78687675331113149 0 0.69010814643829166 0.89298495739101336 0 0.62844955668446423 0.7850749770380413 0 0.89051480781310632 0.79665793440246835 0 0.82212678063041267 0.67678595194836966 0 0.92266244547590082 0.68749999999917555 0 0 0.50000000000206146 0 0.121259140952891 0.43112117036853742 0 0.1371230538040123 0.56179824718362847 0 0.1082531754723032 0.6875000000007816 0 0 0.62500000000121547 0 0.1371230538040123 0.56179824718362847 0 0.75000000000032374 0.56698729811007709 0 0.88927506082488361 0.56409486310635837 0 0.82212678063041267 0.67678595194836966 0 0.81242894672211508 0.45500248311961472 0 0.88927506082488361 0.56409486310635837 0 0.75000000000032374 0.56698729811007709 0 0.69851598570178741 0.68211701800612057 0 0.56496004948275869 0.67675037307860475 0 0.62752533658682441 0.56838075195614346 0 0.69851598570178741 0.68211701800612057 0 0.76243180583607129 0.78687675331113149 0 0.62844955668446423 0.7850749770380413 0 0.23533274979922561 0.77093399389351469 0 0.18802967116092181 0.89415349436770275 0 0.10409951422139101 0.81206782209691231 0 0.121259140952891 0.43112117036853742 0 0.22257735880419699 0.47344721641341742 0 0.1371230538040123 0.56179824718362847 0 0.75000000000032374 0.56698729811007709 0 0.69851598570178741 0.68211701800612057 0 0.62752533658682441 0.56838075195614346 0 0.56496004948275869 0.67675037307860475 0 0.69851598570178741 0.68211701800612057 0 0.62844955668446423 0.7850749770380413 0 0.1371230538040123 0.56179824718362847 0 0.22257735880419699 0.47344721641341742 0 0.26982811998763367 0.56544650815856912 0 0.21809253452218619 0.65480892822618109 0 0.1371230538040123 0.56179824718362847 0 0.26982811998763367 0.56544650815856912 0 0.24418615484441761 0.35773612382016978 0 0.1082531754734323 0.31250000000117473 0 0.20767261601459541 0.25628918442207171 0 0.88173731489851925 0.33077402607778361 0 0.75000000000057243 0.35048094716480432 0 0.79891106056046712 0.25007334953587562 0 0.75000000000032374 0.56698729811007709 0 0.82212678063041267 0.67678595194836966 0 0.69851598570178741 0.68211701800612057 0 0.81249999999950517 0.1082531754733404 0 0.89658421694297741 0.1933620068391701 0 0.79891106056046712 0.25007334953587562 0 0.81249999999950517 0.1082531754733404 0 0.79891106056046712 0.25007334953587562 0 0.73983916756365475 0.17530677078674589 0 0.23533274979922561 0.77093399389351469 0 0.21809253452218619 0.65480892822618109 0 0.32607333794064219 0.67760114260606152 0 0.1082531754723032 0.6875000000007816 0 0.1371230538040123 0.56179824718362847 0 0.21809253452218619 0.65480892822618109 0 0.69851598570178741 0.68211701800612057 0 0.82212678063041267 0.67678595194836966 0 0.76243180583607129 0.78687675331113149 0 0.69010814643829166 0.89298495739101336 0 0.76243180583607129 0.78687675331113149 0 0.80886664387416207 0.89717308644237903 0 0.43750000000181222 0.89174682452709564 0 0.31258827852827581 0.89214793616708443 0 0.37776173212361452 0.78514649317305008 0 0.43750000000181222 0.89174682452709564 0 0.37500000000156292 1 0 0.31258827852827581 0.89214793616708443 0 0.121259140952891 0.43112117036853742 0 0 0.37500000000156292 0 0.1082531754734323 0.31250000000117473 0 0.50000000000206146 1 0 0.37500000000156292 1 0 0.43750000000181222 0.89174682452709564 0 0.31258827852827581 0.89214793616708443 0 0.18802967116092181 0.89415349436770275 0 0.23533274979922561 0.77093399389351469 0 0 0.50000000000206146 0 0 0.37500000000156292 0 0.121259140952891 0.43112117036853742 0 0.62844955668446423 0.7850749770380413 0 0.69010814643829166 0.89298495739101336 0 0.56327595140699671 0.89211526915426331 0 0.69010814643829166 0.89298495739101336 0 0.62500000000121547 1 0 0.56327595140699671 0.89211526915426331 0 0.25000000000104189 1 0 0.18802967116092181 0.89415349436770275 0 0.31258827852827581 0.89214793616708443 0 0.50000000000206146 1 0 0.43750000000181222 0.89174682452709564 0 0.56327595140699671 0.89211526915426331 0 0.56249999999885147 0.1082531754730395 0 0.62499999999901068 0 0 0.68749999999926592 0.1082531754732875 0 1 0.49999999999869221 0 1 0.62499999999901068 0 0.88927506082488361 0.56409486310635837 0 0 0.25000000000104189 0 0.12076953676380731 0.18690935762408761 0 0.1082531754734323 0.31250000000117473 0 0.49999999999869221 0 0 0.62499999999901068 0 0 0.56249999999885147 0.1082531754730395 0 0.62500000000121547 1 0 0.50000000000206146 1 0 0.56327595140699671 0.89211526915426331 0 0.37500000000156292 1 0 0.25000000000104189 1 0 0.31258827852827581 0.89214793616708443 0 0.31281086598417152 0.10449318608631281 0 0.37499999999904599 0 0 0.43749999999910871 0.1082531754729984 0 0.43750000000181222 0.89174682452709564 0 0.37776173212361452 0.78514649317305008 0 0.50046028868828263 0.78376912307435687 0 0 0.37500000000156292 0 0 0.25000000000104189 0 0.1082531754734323 0.31250000000117473 0 0.49999999999869221 0 0 0.56249999999885147 0.1082531754730395 0 0.43749999999910871 0.1082531754729984 0 0.43750000000181222 0.89174682452709564 0 0.50046028868828263 0.78376912307435687 0 0.56327595140699671 0.89211526915426331 0 0.74999999999934042 0 0 0.81249999999950517 0.1082531754733404 0 0.68749999999926592 0.1082531754732875 0 0.37499999999904599 0 0 0.49999999999869221 0 0 0.43749999999910871 0.1082531754729984 0 0.25000000000104189 1 0 0.12500000000052089 1 0 0.18802967116092181 0.89415349436770275 0 0.50046028868828263 0.78376912307435687 0 0.62844955668446423 0.7850749770380413 0 0.56327595140699671 0.89211526915426331 0 0.37776173212361452 0.78514649317305008 0 0.31258827852827581 0.89214793616708443 0 0.23533274979922561 0.77093399389351469 0 0.62499999999901068 0 0 0.74999999999934042 0 0 0.68749999999926592 0.1082531754732875 0 1 0.74999999999934042 0 1 0.87499999999967015 0 0.89051480781310632 0.79665793440246835 0 0 0.25000000000104189 0 0 0.12500000000052089 0 0.12076953676380731 0.18690935762408761 0 0.74999999999934042 0 0 0.87499999999967015 0 0 0.81249999999950517 0.1082531754733404 0 0.24999999999941069 0 0 0.37499999999904599 0 0 0.31281086598417152 0.10449318608631281 0 0.50046028868828263 0.78376912307435687 0 0.37776173212361452 0.78514649317305008 0 0.44078402250377968 0.67714785211715212 0 0.68768773896438518 0.4586835206367198 0 0.75000000000032374 0.56698729811007709 0 0.62752533658682441 0.56838075195614346 0 0.31411863959822661 0.24965544328045999 0 0.37953773393552892 0.34812185820708452 0 0.24418615484441761 0.35773612382016978 0 0.68768773896438518 0.4586835206367198 0 0.81242894672211508 0.45500248311961472 0 0.75000000000032374 0.56698729811007709 0 1 0.24999999999941069 0 1 0.37499999999904599 0 0.88173731489851925 0.33077402607778361 0 0 0.75000000000034761 0 0 0.62500000000121547 0 0.1082531754723032 0.6875000000007816 0 0.50048844149666749 0.56727788297625459 0 0.44078402250377968 0.67714785211715212 0 0.38694285807596462 0.5672991787102919 0 0.50108503093851109 0.35012252869403671 0 0.44301038174930041 0.45684931552185398 0 0.37953773393552892 0.34812185820708452 0 0.50046028868828263 0.78376912307435687 0 0.56496004948275869 0.67675037307860475 0 0.62844955668446423 0.7850749770380413 0 0.68768773896438518 0.4586835206367198 0 0.75000000000057243 0.35048094716480432 0 0.81242894672211508 0.45500248311961472 0 0.56349980387502452 0.45846841892908402 0 0.62512662990940393 0.35044303886909911 0 0.68768773896438518 0.4586835206367198 0 0.50048844149666749 0.56727788297625459 0 0.38694285807596462 0.5672991787102919 0 0.44301038174930041 0.45684931552185398 0 0.50046028868828263 0.78376912307435687 0 0.44078402250377968 0.67714785211715212 0 0.56496004948275869 0.67675037307860475 0 0.50108503093851109 0.35012252869403671 0 0.37953773393552892 0.34812185820708452 0 0.43750000000200551 0.24222777169198509 0 0.75000000000034761 1 0 0.62500000000121547 1 0 0.69010814643829166 0.89298495739101336 0 0.68768773896438518 0.4586835206367198 0 0.62512662990940393 0.35044303886909911 0 0.75000000000057243 0.35048094716480432 0 0.56496004948275869 0.67675037307860475 0 0.44078402250377968 0.67714785211715212 0 0.50048844149666749 0.56727788297625459 0 0.56349980387502452 0.45846841892908402 0 0.44301038174930041 0.45684931552185398 0 0.50108503093851109 0.35012252869403671 0 0.50048844149666749 0.56727788297625459 0 0.44301038174930041 0.45684931552185398 0 0.56349980387502452 0.45846841892908402 0 0.56349980387502452 0.45846841892908402 0 0.50108503093851109 0.35012252869403671 0 0.62512662990940393 0.35044303886909911 0 0.43750000000200551 0.24222777169198509 0 0.37953773393552892 0.34812185820708452 0 0.31411863959822661 0.24965544328045999 0 0.56496004948275869 0.67675037307860475 0 0.50048844149666749 0.56727788297625459 0 0.62752533658682441 0.56838075195614346 0 0.56349980387502452 0.45846841892908402 0 0.68768773896438518 0.4586835206367198 0 0.62752533658682441 0.56838075195614346 0 0.50048844149666749 0.56727788297625459 0 0.56349980387502452 0.45846841892908402 0 0.62752533658682441 0.56838075195614346 0 0.75000000000057243 0.35048094716480432 0 0.62512662990940393 0.35044303886909911 0 0.68668231842078242 0.24762892664808989 0 0.50108503093851109 0.35012252869403671 0 0.43750000000200551 0.24222777169198509 0 0.56250000000143974 0.2422277716920859 0 0.62512662990940393 0.35044303886909911 0 0.50108503093851109 0.35012252869403671 0 0.56250000000143974 0.2422277716920859 0 0.68668231842078242 0.24762892664808989 0 0.62512662990940393 0.35044303886909911 0 0.56250000000143974 0.2422277716920859 0 0.22257735880419699 0.47344721641341742 0 0.24418615484441761 0.35773612382016978 0 0.32815957677880009 0.4577243358118348 0 0.12076953676380731 0.18690935762408761 0 0.19185372118111221 0.092925648673580788 0 0.25103557339309318 0.17464499738446629 0 0.20767261601459541 0.25628918442207171 0 0.12076953676380731 0.18690935762408761 0 0.25103557339309318 0.17464499738446629 0 0 0.87499999999950151 0 0 0.75000000000034761 0 0.10409951422139101 0.81206782209691231 0 0.1249999999997731 0 0 0.24999999999941069 0 0 0.19185372118111221 0.092925648673580788 0 1 0.1249999999997731 0 1 0.24999999999941069 0 0.89658421694297741 0.1933620068391701 0 0.88927506082488361 0.56409486310635837 0 0.81242894672211508 0.45500248311961472 0 0.915464298762109 0.43749999999886913 0 0.87499999999950151 1 0 0.75000000000034761 1 0 0.80886664387416207 0.89717308644237903 0 0.75000000000034761 1 0 0.69010814643829166 0.89298495739101336 0 0.80886664387416207 0.89717308644237903 0 0.82212678063041267 0.67678595194836966 0 0.88927506082488361 0.56409486310635837 0 0.92266244547590082 0.68749999999917555 0 0 0.75000000000034761 0 0.1082531754723032 0.6875000000007816 0 0.10409951422139101 0.81206782209691231 0 0.24999999999941069 0 0 0.31281086598417152 0.10449318608631281 0 0.19185372118111221 0.092925648673580788 0 1 0.24999999999941069 0 0.88173731489851925 0.33077402607778361 0 0.89658421694297741 0.1933620068391701 0 0.32815957677880009 0.4577243358118348 0 0.38694285807596462 0.5672991787102919 0 0.26982811998763367 0.56544650815856912 0 0.76243180583607129 0.78687675331113149 0 0.89051480781310632 0.79665793440246835 0 0.80886664387416207 0.89717308644237903 0 0.38694285807596462 0.5672991787102919 0 0.44078402250377968 0.67714785211715212 0 0.32607333794064219 0.67760114260606152 0 0.37776173212361452 0.78514649317305008 0 0.23533274979922561 0.77093399389351469 0 0.32607333794064219 0.67760114260606152 0 1 0.49999999999869221 0 0.88927506082488361 0.56409486310635837 0 0.915464298762109 0.43749999999886913 0 0.88173731489851925 0.33077402607778361 0 1 0.37499999999904599 0 0.915464298762109 0.43749999999886913 0 0.24418615484441761 0.35773612382016978 0 0.37953773393552892 0.34812185820708452 0 0.32815957677880009 0.4577243358118348 0 0.44301038174930041 0.45684931552185398 0 0.38694285807596462 0.5672991787102919 0 0.32815957677880009 0.4577243358118348 0 0.88927506082488361 0.56409486310635837 0 1 0.62499999999901068 0 0.92266244547590082 0.68749999999917555 0 1 0.74999999999934042 0 0.89051480781310632 0.79665793440246835 0 0.92266244547590082 0.68749999999917555 0 0 1 0 0 0.87499999999950151 0 0.091506350946494744 0.90849364905351082 0 1 1 0 0.87499999999950151 1 0 0.90849364905363228 0.90849364905367769 0 0 0 0 0.1249999999997731 0 0 0.091506350946417708 0.091506350946618076 0 0 0.12500000000052089 0 0 0 0 0.091506350946417708 0.091506350946618076 0 1 0 0 1 0.1249999999997731 0 0.90849364905355434 0.091506350946296292 0 0.87499999999967015 0 0 1 0 0 0.90849364905355434 0.091506350946296292 0 0.12500000000052089 1 0 0 1 0 0.091506350946494744 0.90849364905351082 0 1 0.87499999999967015 0 1 1 0 0.90849364905363228 0.90849364905367769 0 0.38694285807596462 0.5672991787102919 0 0.32607333794064219 0.67760114260606152 0 0.26982811998763367 0.56544650815856912 0 0.31411863959822661 0.24965544328045999 0 0.24418615484441761 0.35773612382016978 0 0.20767261601459541 0.25628918442207171 0 0.1082531754734323 0.31250000000117473 0 0.12076953676380731 0.18690935762408761 0 0.20767261601459541 0.25628918442207171 0 0.75000000000057243 0.35048094716480432 0 0.68668231842078242 0.24762892664808989 0 0.79891106056046712 0.25007334953587562 0 0.22257735880419699 0.47344721641341742 0 0.32815957677880009 0.4577243358118348 0 0.26982811998763367 0.56544650815856912 0 0.44078402250377968 0.67714785211715212 0 0.37776173212361452 0.78514649317305008 0 0.32607333794064219 0.67760114260606152 0 0.89658421694297741 0.1933620068391701 0 0.88173731489851925 0.33077402607778361 0 0.79891106056046712 0.25007334953587562 0 1 0.37499999999904599 0 1 0.49999999999869221 0 0.915464298762109 0.43749999999886913 0 0.37953773393552892 0.34812185820708452 0 0.44301038174930041 0.45684931552185398 0 0.32815957677880009 0.4577243358118348 0 0.32607333794064219 0.67760114260606152 0 0.21809253452218619 0.65480892822618109 0 0.26982811998763367 0.56544650815856912 0 1 0.1249999999997731 0 0.89658421694297741 0.1933620068391701 0 0.90849364905355434 0.091506350946296292 0 0 0.87499999999950151 0 0.10409951422139101 0.81206782209691231 0 0.091506350946494744 0.90849364905351082 0 0.1249999999997731 0 0 0.19185372118111221 0.092925648673580788 0 0.091506350946417708 0.091506350946618076 0 1 0.62499999999901068 0 1 0.74999999999934042 0 0.92266244547590082 0.68749999999917555 0 0.18802967116092181 0.89415349436770275 0 0.12500000000052089 1 0 0.091506350946494744 0.90849364905351082 0 0.89051480781310632 0.79665793440246835 0 1 0.87499999999967015 0 0.90849364905363228 0.90849364905367769 0 0.12076953676380731 0.18690935762408761 0 0 0.12500000000052089 0 0.091506350946417708 0.091506350946618076 0 0.81249999999950517 0.1082531754733404 0 0.87499999999967015 0 0 0.90849364905355434 0.091506350946296292 0 0.87499999999950151 1 0 0.80886664387416207 0.89717308644237903 0 0.90849364905363228 0.90849364905367769 0 0.68668231842078242 0.24762892664808989 0 0.62499999999892575 0.17524047358135519 0 0.73983916756365475 0.17530677078674589 0 0.31281086598417152 0.10449318608631281 0 0.43749999999910871 0.1082531754729984 0 0.37500000000232431 0.17524047358384309 0 0.62499999999892575 0.17524047358135519 0 0.56250000000143974 0.2422277716920859 0 0.49999999999934441 0.1752404735815076 0 0.56249999999885147 0.1082531754730395 0 0.68749999999926592 0.1082531754732875 0 0.62499999999892575 0.17524047358135519 0 0.56249999999885147 0.1082531754730395 0 0.62499999999892575 0.17524047358135519 0 0.49999999999934441 0.1752404735815076 0 0.56250000000143974 0.2422277716920859 0 0.43750000000200551 0.24222777169198509 0 0.49999999999934441 0.1752404735815076 0 0.43749999999910871 0.1082531754729984 0 0.56249999999885147 0.1082531754730395 0 0.49999999999934441 0.1752404735815076 0 0.68668231842078242 0.24762892664808989 0 0.56250000000143974 0.2422277716920859 0 0.62499999999892575 0.17524047358135519 0 0.43750000000200551 0.24222777169198509 0 0.31411863959822661 0.24965544328045999 0 0.37500000000232431 0.17524047358384309 0 0.49999999999934441 0.1752404735815076 0 0.43750000000200551 0.24222777169198509 0 0.37500000000232431 0.17524047358384309 0 0.43749999999910871 0.1082531754729984 0 0.49999999999934441 0.1752404735815076 0 0.37500000000232431 0.17524047358384309 0 0.62499999999892575 0.17524047358135519 0 0.68749999999926592 0.1082531754732875 0 0.73983916756365475 0.17530677078674589 0 0.68749999999926592 0.1082531754732875 0 0.81249999999950517 0.1082531754733404 0 0.73983916756365475 0.17530677078674589 0 0.10409951422139101 0.81206782209691231 0 0.18802967116092181 0.89415349436770275 0 0.091506350946494744 0.90849364905351082 0 0.89658421694297741 0.1933620068391701 0 0.81249999999950517 0.1082531754733404 0 0.90849364905355434 0.091506350946296292 0 0.19185372118111221 0.092925648673580788 0 0.12076953676380731 0.18690935762408761 0 0.091506350946417708 0.091506350946618076 0 0.37500000000232431 0.17524047358384309 0 0.31411863959822661 0.24965544328045999 0 0.25103557339309318 0.17464499738446629 0 0.31281086598417152 0.10449318608631281 0 0.37500000000232431 0.17524047358384309 0 0.25103557339309318 0.17464499738446629 0 0.80886664387416207 0.89717308644237903 0 0.89051480781310632 0.79665793440246835 0 0.90849364905363228 0.90849364905367769 0 0.19185372118111221 0.092925648673580788 0 0.31281086598417152 0.10449318608631281 0 0.25103557339309318 0.17464499738446629 0 0.79891106056046712 0.25007334953587562 0 0.68668231842078242 0.24762892664808989 0 0.73983916756365475 0.17530677078674589 0 0.31411863959822661 0.24965544328045999 0 0.20767261601459541 0.25628918442207171 0 0.25103557339309318 0.17464499738446629 0 

        </DataArray>

      </Points>

      <Cells>

        <DataArray type="Int32" Name="connectivity" format="ascii">

0 1 2 3 4 5 6 7 8 9 10 11 12 13 14 15 16 17 18 19 20 21 22 23 24 25 26 27 28 29 30 31 32 33 34 35 36 37 38 39 40 41 42 43 44 45 46 47 48 49 50 51 52 53 54 55 56 57 58 59 60 61 62 63 64 65 66 67 68 69 70 71 72 73 74 75 76 77 78 79 80 81 82 83 84 85 86 87 88 89 90 91 92 93 94 95 96 97 98 99 100 101 102 103 104 105 106 107 108 109 110 111 112 113 114 115 116 117 118 119 120 121 122 123 124 125 126 127 128 129 130 131 132 133 134 135 136 137 138 139 140 141 142 143 144 145 146 147 148 149 150 151 152 153 154 155 156 157 158 159 160 161 162 163 164 165 166 167 168 169 170 171 172 173 174 175 176 177 178 179 180 181 182 183 184 185 186 187 188 189 190 191 192 193 194 195 196 197 198 199 200 201 202 203 204 205 206 207 208 209 210 211 212 213 214 215 216 217 218 219 220 221 222 223 224 225 226 227 228 229 230 231 232 233 234 235 236 237 238 239 240 241 242 243 244 245 246 247 248 249 250 251 252 253 254 255 256 257 258 259 260 261 262 263 264 265 266 267 268 269 270 271 272 273 274 275 276 277 278 279 280 281 282 283 284 285 286 287 288 289 290 291 292 293 294 295 296 297 298 299 300 301 302 303 304 305 306 307 308 309 310 311 312 313 314 315 316 317 318 319 320 321 322 323 324 325 326 327 328 329 330 331 332 333 334 335 336 337 338 339 340 341 342 343 344 345 346 347 348 349 350 351 352 353 354 355 356 357 358 359 360 361 362 363 364 365 366 367 368 369 370 371 372 373 374 375 376 377 378 379 380 381 382 383 384 385 386 387 388 389 390 391 392 393 394 395 396 397 398 399 400 401 402 403 404 405 406 407 408 409 410 411 412 413 414 415 416 417 418 419 420 421 422 423 424 425 426 427 428 429 430 431 432 433 434 435 436 437 438 439 440 441 442 443 444 445 446 447 448 449 450 451 452 453 454 455 456 457 458 459 460 461 462 463 464 465 466 467 468 469 470 471 472 473 474 475 476 477 478 479 480 481 482 483 484 485 

        </DataArray>

        <DataArray type="Int32" Name="offsets" format="ascii">

3 6 9 12 15 18 21 24 27 30 33 36 39 42 45 48 51 54 57 60 63 66 69 72 75 78 81 84 87 90 93 96 99 102 105 108 111 114 117 120 123 126 129 132 135 138 141 144 147 150 153 156 159 162 165 168 171 174 177 180 183 186 189 192 195 198 201 204 207 210 213 216 219 222 225 228 231 234 237 240 243 246 249 252 255 258 261 264 267 270 273 276 279 282 285 288 291 294 297 300 303 306 309 312 315 318 321 324 327 330 333 336 339 342 345 348 351 354 357 360 363 366 369 372 375 378 381 384 387 390 393 396 399 402 405 408 411 414 417 420 423 426 429 432 435 438 441 444 447 450 453 456 459 462 465 468 471 474 477 480 483 486 

        </DataArray>

        <DataArray type="Int32" Name="types" format="ascii">

5 5 5 5 5 5 5 5 5 5 5 5 5 5 5 5 5 5 5 5 5 5 5 5 5 5 5 5 5 5 5 5 5 5 5 5 5 5 5 5 5 5 5 5 5 5 5 5 5 5 5 5 5 5 5 5 5 5 5 5 5 5 5 5 5 5 5 5 5 5 5 5 5 5 5 5 5 5 5 5 5 5 5 5 5 5 5 5 5 5 5 5 5 5 5 5 5 5 5 5 5 5 5 5 5 5 5 5 5 5 5 5 5 5 5 5 5 5 5 5 5 5 5 5 5 5 5 5 5 5 5 5 5 5 5 5 5 5 5 5 5 5 5 5 5 5 5 5 5 5 5 5 5 5 5 5 5 5 5 5 5 5 

        </DataArray>

      </Cells>

    </Piece>

  </UnstructuredGrid>

</VTKFile>

