<?xml version="1.0"?>

<VTKFile type="UnstructuredGrid" version="0.1">

  <UnstructuredGrid>

    <Piece NumberOfPoints="486" NumberOfCells="162">

      <PointData>

        <DataArray type="Float64" Name="K" format="ascii">

9.79050329218921656e-01
9.79050329218921656e-01
9.79050329218921656e-01
9.82237785210719139e-01
9.82237785210719139e-01
9.82237785210719139e-01
9.70291072768026397e-01
9.70291072768026397e-01
9.70291072768026397e-01
9.84078682194427401e-01
9.84078682194427401e-01
9.84078682194427401e-01
9.70097023173825512e-01
9.70097023173825512e-01
9.70097023173825512e-01
1.00657610435970679e+00
1.00657610435970679e+00
1.00657610435970679e+00
9.74455558406630784e-01
9.74455558406630784e-01
9.74455558406630784e-01
9.70131272077541462e-01
9.70131272077541462e-01
9.70131272077541462e-01
9.69069460522960391e-01
9.69069460522960391e-01
9.69069460522960391e-01
9.75229722984541247e-01
9.75229722984541247e-01
9.75229722984541247e-01
9.61732093372772767e-01
9.61732093372772767e-01
9.61732093372772767e-01
9.76031732899991233e-01
9.76031732899991233e-01
9.76031732899991233e-01
9.84770795178741332e-01
9.84770795178741332e-01
9.84770795178741332e-01
9.85412735774515269e-01
9.85412735774515269e-01
9.85412735774515269e-01
9.66505943818755764e-01
9.66505943818755764e-01
9.66505943818755764e-01
9.74135551207643502e-01
9.74135551207643502e-01
9.74135551207643502e-01
9.83551228540253009e-01
9.83551228540253009e-01
9.83551228540253009e-01
9.62800741585320141e-01
9.62800741585320141e-01
9.62800741585320141e-01
9.70189937956228321e-01
9.70189937956228321e-01
9.70189937956228321e-01
9.71018531128949425e-01
9.71018531128949425e-01
9.71018531128949425e-01
9.70498375361701582e-01
9.70498375361701582e-01
9.70498375361701582e-01
9.75515931902966815e-01
9.75515931902966815e-01
9.75515931902966815e-01
9.90927839280827394e-01
9.90927839280827394e-01
9.90927839280827394e-01
9.85036365415012938e-01
9.85036365415012938e-01
9.85036365415012938e-01
9.78137401580628785e-01
9.78137401580628785e-01
9.78137401580628785e-01
1.00192325714431152e+00
1.00192325714431152e+00
1.00192325714431152e+00
9.84859309761215829e-01
9.84859309761215829e-01
9.84859309761215829e-01
9.99984736916033512e-01
9.99984736916033512e-01
9.99984736916033512e-01
9.73621817104554088e-01
9.73621817104554088e-01
9.73621817104554088e-01
9.76506275399395163e-01
9.76506275399395163e-01
9.76506275399395163e-01
9.64992355802565371e-01
9.64992355802565371e-01
9.64992355802565371e-01
1.03133653280703275e+00
1.03133653280703275e+00
1.03133653280703275e+00
1.02765355538093028e+00
1.02765355538093028e+00
1.02765355538093028e+00
9.58977416115832426e-01
9.58977416115832426e-01
9.58977416115832426e-01
1.01441848118858946e+00
1.01441848118858946e+00
1.01441848118858946e+00
1.00473865704539422e+00
1.00473865704539422e+00
1.00473865704539422e+00
9.61381400684128362e-01
9.61381400684128362e-01
9.61381400684128362e-01
9.65529080825793251e-01
9.65529080825793251e-01
9.65529080825793251e-01
9.61494091889271041e-01
9.61494091889271041e-01
9.61494091889271041e-01
1.00529208969829642e+00
1.00529208969829642e+00
1.00529208969829642e+00
9.91784027757656395e-01
9.91784027757656395e-01
9.91784027757656395e-01
9.80085484518373296e-01
9.80085484518373296e-01
9.80085484518373296e-01
1.01792117449248010e+00
1.01792117449248010e+00
1.01792117449248010e+00
9.80595036897591199e-01
9.80595036897591199e-01
9.80595036897591199e-01
9.94810991493585872e-01
9.94810991493585872e-01
9.94810991493585872e-01
9.71158710374386835e-01
9.71158710374386835e-01
9.71158710374386835e-01
1.02014466112684921e+00
1.02014466112684921e+00
1.02014466112684921e+00
1.03560806153507179e+00
1.03560806153507179e+00
1.03560806153507179e+00
1.01712908666599233e+00
1.01712908666599233e+00
1.01712908666599233e+00
9.64843034029595814e-01
9.64843034029595814e-01
9.64843034029595814e-01
1.00190473683659698e+00
1.00190473683659698e+00
1.00190473683659698e+00
9.93067348009587514e-01
9.93067348009587514e-01
9.93067348009587514e-01
9.78958934549498450e-01
9.78958934549498450e-01
9.78958934549498450e-01
1.01840467942977808e+00
1.01840467942977808e+00
1.01840467942977808e+00
9.89192754672065466e-01
9.89192754672065466e-01
9.89192754672065466e-01
9.74234287483073280e-01
9.74234287483073280e-01
9.74234287483073280e-01
1.02483727948750802e+00
1.02483727948750802e+00
1.02483727948750802e+00
9.74393381597025598e-01
9.74393381597025598e-01
9.74393381597025598e-01
9.75431195277779439e-01
9.75431195277779439e-01
9.75431195277779439e-01
9.89531269726596441e-01
9.89531269726596441e-01
9.89531269726596441e-01
9.93069933389299275e-01
9.93069933389299275e-01
9.93069933389299275e-01
1.05811158685785300e+00
1.05811158685785300e+00
1.05811158685785300e+00
1.01090458568754804e+00
1.01090458568754804e+00
1.01090458568754804e+00
9.61645011530010918e-01
9.61645011530010918e-01
9.61645011530010918e-01
9.89198687236492846e-01
9.89198687236492846e-01
9.89198687236492846e-01
9.68456154233335864e-01
9.68456154233335864e-01
9.68456154233335864e-01
1.03970205953976191e+00
1.03970205953976191e+00
1.03970205953976191e+00
9.84498454688974678e-01
9.84498454688974678e-01
9.84498454688974678e-01
9.71650786855900339e-01
9.71650786855900339e-01
9.71650786855900339e-01
9.27537038133180447e-01
9.27537038133180447e-01
9.27537038133180447e-01
9.74239212143364175e-01
9.74239212143364175e-01
9.74239212143364175e-01
9.64516573674890854e-01
9.64516573674890854e-01
9.64516573674890854e-01
9.38685089782640425e-01
9.38685089782640425e-01
9.38685089782640425e-01
9.46995909179003670e-01
9.46995909179003670e-01
9.46995909179003670e-01
9.84912202950718463e-01
9.84912202950718463e-01
9.84912202950718463e-01
9.40554525028415855e-01
9.40554525028415855e-01
9.40554525028415855e-01
9.61282098301128873e-01
9.61282098301128873e-01
9.61282098301128873e-01
9.50831879975918004e-01
9.50831879975918004e-01
9.50831879975918004e-01
9.69837652503758196e-01
9.69837652503758196e-01
9.69837652503758196e-01
9.18752035607239170e-01
9.18752035607239170e-01
9.18752035607239170e-01
9.29587362444369569e-01
9.29587362444369569e-01
9.29587362444369569e-01
9.24087675310343970e-01
9.24087675310343970e-01
9.24087675310343970e-01
9.76377550309910469e-01
9.76377550309910469e-01
9.76377550309910469e-01
9.56365298039846268e-01
9.56365298039846268e-01
9.56365298039846268e-01
9.45887627267844810e-01
9.45887627267844810e-01
9.45887627267844810e-01
9.41132204209194523e-01
9.41132204209194523e-01
9.41132204209194523e-01
9.52796849203324081e-01
9.52796849203324081e-01
9.52796849203324081e-01
9.37652853885047599e-01
9.37652853885047599e-01
9.37652853885047599e-01
9.30716214691408639e-01
9.30716214691408639e-01
9.30716214691408639e-01
9.45701478198568535e-01
9.45701478198568535e-01
9.45701478198568535e-01
9.74750615729001901e-01
9.74750615729001901e-01
9.74750615729001901e-01
1.04621004024609188e+00
1.04621004024609188e+00
1.04621004024609188e+00
1.02829216444447580e+00
1.02829216444447580e+00
1.02829216444447580e+00
9.75934975530778459e-01
9.75934975530778459e-01
9.75934975530778459e-01
1.07208540458928248e+00
1.07208540458928248e+00
1.07208540458928248e+00
1.03070083119534139e+00
1.03070083119534139e+00
1.03070083119534139e+00
1.00453159486135268e+00
1.00453159486135268e+00
1.00453159486135268e+00
9.68444368693338609e-01
9.68444368693338609e-01
9.68444368693338609e-01
9.63119282015796885e-01
9.63119282015796885e-01
9.63119282015796885e-01
9.88767881331059306e-01
9.88767881331059306e-01
9.88767881331059306e-01
9.79736976136442839e-01
9.79736976136442839e-01
9.79736976136442839e-01
1.07132413499773294e+00
1.07132413499773294e+00
1.07132413499773294e+00
1.03040665391373332e+00
1.03040665391373332e+00
1.03040665391373332e+00
9.72911229696556967e-01
9.72911229696556967e-01
9.72911229696556967e-01
9.62571190507631846e-01
9.62571190507631846e-01
9.62571190507631846e-01
9.96627952652597515e-01
9.96627952652597515e-01
9.96627952652597515e-01
1.01991141602491187e+00
1.01991141602491187e+00
1.01991141602491187e+00
1.02359359672326544e+00
1.02359359672326544e+00
1.02359359672326544e+00
1.03240216165159526e+00
1.03240216165159526e+00
1.03240216165159526e+00
9.71909628782555157e-01
9.71909628782555157e-01
9.71909628782555157e-01
9.52580141961871574e-01
9.52580141961871574e-01
9.52580141961871574e-01
1.00129515041416206e+00
1.00129515041416206e+00
1.00129515041416206e+00
9.77204147086291997e-01
9.77204147086291997e-01
9.77204147086291997e-01
9.65039369608000075e-01
9.65039369608000075e-01
9.65039369608000075e-01
9.86357761779415698e-01
9.86357761779415698e-01
9.86357761779415698e-01
1.03123445053324403e+00
1.03123445053324403e+00
1.03123445053324403e+00
1.01075990031169161e+00
1.01075990031169161e+00
1.01075990031169161e+00
1.01310444237627717e+00
1.01310444237627717e+00
1.01310444237627717e+00
1.01134965317370096e+00
1.01134965317370096e+00
1.01134965317370096e+00
9.71231469261692570e-01
9.71231469261692570e-01
9.71231469261692570e-01
9.87475669011873225e-01
9.87475669011873225e-01
9.87475669011873225e-01
9.90120601289934954e-01
9.90120601289934954e-01
9.90120601289934954e-01
1.00733080239007622e+00
1.00733080239007622e+00
1.00733080239007622e+00
9.97756894996076560e-01
9.97756894996076560e-01
9.97756894996076560e-01
9.66868158433138891e-01
9.66868158433138891e-01
9.66868158433138891e-01
9.73344818623219088e-01
9.73344818623219088e-01
9.73344818623219088e-01
1.01739572309507342e+00
1.01739572309507342e+00
1.01739572309507342e+00
1.00732749416434042e+00
1.00732749416434042e+00
1.00732749416434042e+00
1.03785807666067575e+00
1.03785807666067575e+00
1.03785807666067575e+00
9.46128538343401271e-01
9.46128538343401271e-01
9.46128538343401271e-01
9.91575554420440430e-01
9.91575554420440430e-01
9.91575554420440430e-01
1.02410059269296627e+00
1.02410059269296627e+00
1.02410059269296627e+00
9.71635806799559965e-01
9.71635806799559965e-01
9.71635806799559965e-01
1.05319785694258261e+00
1.05319785694258261e+00
1.05319785694258261e+00
9.92434279913764206e-01
9.92434279913764206e-01
9.92434279913764206e-01
9.77733183853084942e-01
9.77733183853084942e-01
9.77733183853084942e-01
9.68935777975235890e-01
9.68935777975235890e-01
9.68935777975235890e-01
1.01134133443988405e+00
1.01134133443988405e+00
1.01134133443988405e+00
1.00897020953425276e+00
1.00897020953425276e+00
1.00897020953425276e+00
9.66730882834825556e-01
9.66730882834825556e-01
9.66730882834825556e-01
9.63842455174937052e-01
9.63842455174937052e-01
9.63842455174937052e-01
1.02661962298611398e+00
1.02661962298611398e+00
1.02661962298611398e+00
9.59978086062428959e-01
9.59978086062428959e-01
9.59978086062428959e-01
9.72545250089073554e-01
9.72545250089073554e-01
9.72545250089073554e-01
9.72874815066617771e-01
9.72874815066617771e-01
9.72874815066617771e-01
9.57459258561123461e-01
9.57459258561123461e-01
9.57459258561123461e-01
9.88270227601400708e-01
9.88270227601400708e-01
9.88270227601400708e-01
9.55728121880572656e-01
9.55728121880572656e-01
9.55728121880572656e-01
9.97583485034705508e-01
9.97583485034705508e-01
9.97583485034705508e-01
9.81627146558403441e-01
9.81627146558403441e-01
9.81627146558403441e-01
9.97245236124142509e-01
9.97245236124142509e-01
9.97245236124142509e-01
9.68803671288607893e-01
9.68803671288607893e-01
9.68803671288607893e-01
9.77666306467083301e-01
9.77666306467083301e-01
9.77666306467083301e-01
9.75729006967421597e-01
9.75729006967421597e-01
9.75729006967421597e-01
1.01372054566890846e+00
1.01372054566890846e+00
1.01372054566890846e+00
1.03790821057570160e+00
1.03790821057570160e+00
1.03790821057570160e+00
1.02898000029052894e+00
1.02898000029052894e+00
1.02898000029052894e+00
1.04360915646535357e+00
1.04360915646535357e+00
1.04360915646535357e+00
9.60529719918750358e-01
9.60529719918750358e-01
9.60529719918750358e-01
1.06122863081286001e+00
1.06122863081286001e+00
1.06122863081286001e+00
9.70714287329740300e-01
9.70714287329740300e-01
9.70714287329740300e-01
1.02877870478965994e+00
1.02877870478965994e+00
1.02877870478965994e+00


        </DataArray>

      </PointData>

      <CellData/>

      <Points>

        <DataArray type="Float64" NumberOfComponents="3" format="ascii">

0.1082531754723032 0.6875000000007816 0 0.23533274979922561 0.77093399389351469 0 0.10409951422139101 0.81206782209691231 0 0.23533274979922561 0.77093399389351469 0 0.1082531754723032 0.6875000000007816 0 0.21809253452218619 0.65480892822618109 0 0.24418615484441761 0.35773612382016978 0 0.121259140952891 0.43112117036853742 0 0.1082531754734323 0.31250000000117473 0 0.75000000000057243 0.35048094716480432 0 0.88173731489851925 0.33077402607778361 0 0.81242894672211508 0.45500248311961472 0 0.121259140952891 0.43112117036853742 0 0.24418615484441761 0.35773612382016978 0 0.22257735880419699 0.47344721641341742 0 0.81242894672211508 0.45500248311961472 0 0.88173731489851925 0.33077402607778361 0 0.915464298762109 0.43749999999886913 0 0 0.62500000000121547 0 0 0.50000000000206146 0 0.1371230538040123 0.56179824718362847 0 0.82212678063041267 0.67678595194836966 0 0.89051480781310632 0.79665793440246835 0 0.76243180583607129 0.78687675331113149 0 0.76243180583607129 0.78687675331113149 0 0.69010814643829166 0.89298495739101336 0 0.62844955668446423 0.7850749770380413 0 0.89051480781310632 0.79665793440246835 0 0.82212678063041267 0.67678595194836966 0 0.92266244547590082 0.68749999999917555 0 0 0.50000000000206146 0 0.121259140952891 0.43112117036853742 0 0.1371230538040123 0.56179824718362847 0 0.1082531754723032 0.6875000000007816 0 0 0.62500000000121547 0 0.1371230538040123 0.56179824718362847 0 0.75000000000032374 0.56698729811007709 0 0.88927506082488361 0.56409486310635837 0 0.82212678063041267 0.67678595194836966 0 0.81242894672211508 0.45500248311961472 0 0.88927506082488361 0.56409486310635837 0 0.75000000000032374 0.56698729811007709 0 0.69851598570178741 0.68211701800612057 0 0.56496004948275869 0.67675037307860475 0 0.62752533658682441 0.56838075195614346 0 0.69851598570178741 0.68211701800612057 0 0.76243180583607129 0.78687675331113149 0 0.62844955668446423 0.7850749770380413 0 0.23533274979922561 0.77093399389351469 0 0.18802967116092181 0.89415349436770275 0 0.10409951422139101 0.81206782209691231 0 0.121259140952891 0.43112117036853742 0 0.22257735880419699 0.47344721641341742 0 0.1371230538040123 0.56179824718362847 0 0.75000000000032374 0.56698729811007709 0 0.69851598570178741 0.68211701800612057 0 0.62752533658682441 0.56838075195614346 0 0.56496004948275869 0.67675037307860475 0 0.69851598570178741 0.68211701800612057 0 0.62844955668446423 0.7850749770380413 0 0.1371230538040123 0.56179824718362847 0 0.22257735880419699 0.47344721641341742 0 0.26982811998763367 0.56544650815856912 0 0.21809253452218619 0.65480892822618109 0 0.1371230538040123 0.56179824718362847 0 0.26982811998763367 0.56544650815856912 0 0.24418615484441761 0.35773612382016978 0 0.1082531754734323 0.31250000000117473 0 0.20767261601459541 0.25628918442207171 0 0.88173731489851925 0.33077402607778361 0 0.75000000000057243 0.35048094716480432 0 0.79891106056046712 0.25007334953587562 0 0.75000000000032374 0.56698729811007709 0 0.82212678063041267 0.67678595194836966 0 0.69851598570178741 0.68211701800612057 0 0.81249999999950517 0.1082531754733404 0 0.89658421694297741 0.1933620068391701 0 0.79891106056046712 0.25007334953587562 0 0.81249999999950517 0.1082531754733404 0 0.79891106056046712 0.25007334953587562 0 0.73983916756365475 0.17530677078674589 0 0.23533274979922561 0.77093399389351469 0 0.21809253452218619 0.65480892822618109 0 0.32607333794064219 0.67760114260606152 0 0.1082531754723032 0.6875000000007816 0 0.1371230538040123 0.56179824718362847 0 0.21809253452218619 0.65480892822618109 0 0.69851598570178741 0.68211701800612057 0 0.82212678063041267 0.67678595194836966 0 0.76243180583607129 0.78687675331113149 0 0.69010814643829166 0.89298495739101336 0 0.76243180583607129 0.78687675331113149 0 0.80886664387416207 0.89717308644237903 0 0.43750000000181222 0.89174682452709564 0 0.31258827852827581 0.89214793616708443 0 0.37776173212361452 0.78514649317305008 0 0.43750000000181222 0.89174682452709564 0 0.37500000000156292 1 0 0.31258827852827581 0.89214793616708443 0 0.121259140952891 0.43112117036853742 0 0 0.37500000000156292 0 0.1082531754734323 0.31250000000117473 0 0.50000000000206146 1 0 0.37500000000156292 1 0 0.43750000000181222 0.89174682452709564 0 0.31258827852827581 0.89214793616708443 0 0.18802967116092181 0.89415349436770275 0 0.23533274979922561 0.77093399389351469 0 0 0.50000000000206146 0 0 0.37500000000156292 0 0.121259140952891 0.43112117036853742 0 0.62844955668446423 0.7850749770380413 0 0.69010814643829166 0.89298495739101336 0 0.56327595140699671 0.89211526915426331 0 0.69010814643829166 0.89298495739101336 0 0.62500000000121547 1 0 0.56327595140699671 0.89211526915426331 0 0.25000000000104189 1 0 0.18802967116092181 0.89415349436770275 0 0.31258827852827581 0.89214793616708443 0 0.50000000000206146 1 0 0.43750000000181222 0.89174682452709564 0 0.56327595140699671 0.89211526915426331 0 0.56249999999885147 0.1082531754730395 0 0.62499999999901068 0 0 0.68749999999926592 0.1082531754732875 0 1 0.49999999999869221 0 1 0.62499999999901068 0 0.88927506082488361 0.56409486310635837 0 0 0.25000000000104189 0 0.12076953676380731 0.18690935762408761 0 0.1082531754734323 0.31250000000117473 0 0.49999999999869221 0 0 0.62499999999901068 0 0 0.56249999999885147 0.1082531754730395 0 0.62500000000121547 1 0 0.50000000000206146 1 0 0.56327595140699671 0.89211526915426331 0 0.37500000000156292 1 0 0.25000000000104189 1 0 0.31258827852827581 0.89214793616708443 0 0.31281086598417152 0.10449318608631281 0 0.37499999999904599 0 0 0.43749999999910871 0.1082531754729984 0 0.43750000000181222 0.89174682452709564 0 0.37776173212361452 0.78514649317305008 0 0.50046028868828263 0.78376912307435687 0 0 0.37500000000156292 0 0 0.25000000000104189 0 0.1082531754734323 0.31250000000117473 0 0.49999999999869221 0 0 0.56249999999885147 0.1082531754730395 0 0.43749999999910871 0.1082531754729984 0 0.43750000000181222 0.89174682452709564 0 0.50046028868828263 0.78376912307435687 0 0.56327595140699671 0.89211526915426331 0 0.74999999999934042 0 0 0.81249999999950517 0.1082531754733404 0 0.68749999999926592 0.1082531754732875 0 0.37499999999904599 0 0 0.49999999999869221 0 0 0.43749999999910871 0.1082531754729984 0 0.25000000000104189 1 0 0.12500000000052089 1 0 0.18802967116092181 0.89415349436770275 0 0.50046028868828263 0.78376912307435687 0 0.62844955668446423 0.7850749770380413 0 0.56327595140699671 0.89211526915426331 0 0.37776173212361452 0.78514649317305008 0 0.31258827852827581 0.89214793616708443 0 0.23533274979922561 0.77093399389351469 0 0.62499999999901068 0 0 0.74999999999934042 0 0 0.68749999999926592 0.1082531754732875 0 1 0.74999999999934042 0 1 0.87499999999967015 0 0.89051480781310632 0.79665793440246835 0 0 0.25000000000104189 0 0 0.12500000000052089 0 0.12076953676380731 0.18690935762408761 0 0.74999999999934042 0 0 0.87499999999967015 0 0 0.81249999999950517 0.1082531754733404 0 0.24999999999941069 0 0 0.37499999999904599 0 0 0.31281086598417152 0.10449318608631281 0 0.50046028868828263 0.78376912307435687 0 0.37776173212361452 0.78514649317305008 0 0.44078402250377968 0.67714785211715212 0 0.68768773896438518 0.4586835206367198 0 0.75000000000032374 0.56698729811007709 0 0.62752533658682441 0.56838075195614346 0 0.31411863959822661 0.24965544328045999 0 0.37953773393552892 0.34812185820708452 0 0.24418615484441761 0.35773612382016978 0 0.68768773896438518 0.4586835206367198 0 0.81242894672211508 0.45500248311961472 0 0.75000000000032374 0.56698729811007709 0 1 0.24999999999941069 0 1 0.37499999999904599 0 0.88173731489851925 0.33077402607778361 0 0 0.75000000000034761 0 0 0.62500000000121547 0 0.1082531754723032 0.6875000000007816 0 0.50048844149666749 0.56727788297625459 0 0.44078402250377968 0.67714785211715212 0 0.38694285807596462 0.5672991787102919 0 0.50108503093851109 0.35012252869403671 0 0.44301038174930041 0.45684931552185398 0 0.37953773393552892 0.34812185820708452 0 0.50046028868828263 0.78376912307435687 0 0.56496004948275869 0.67675037307860475 0 0.62844955668446423 0.7850749770380413 0 0.68768773896438518 0.4586835206367198 0 0.75000000000057243 0.35048094716480432 0 0.81242894672211508 0.45500248311961472 0 0.56349980387502452 0.45846841892908402 0 0.62512662990940393 0.35044303886909911 0 0.68768773896438518 0.4586835206367198 0 0.50048844149666749 0.56727788297625459 0 0.38694285807596462 0.5672991787102919 0 0.44301038174930041 0.45684931552185398 0 0.50046028868828263 0.78376912307435687 0 0.44078402250377968 0.67714785211715212 0 0.56496004948275869 0.67675037307860475 0 0.50108503093851109 0.35012252869403671 0 0.37953773393552892 0.34812185820708452 0 0.43750000000200551 0.24222777169198509 0 0.75000000000034761 1 0 0.62500000000121547 1 0 0.69010814643829166 0.89298495739101336 0 0.68768773896438518 0.4586835206367198 0 0.62512662990940393 0.35044303886909911 0 0.75000000000057243 0.35048094716480432 0 0.56496004948275869 0.67675037307860475 0 0.44078402250377968 0.67714785211715212 0 0.50048844149666749 0.56727788297625459 0 0.56349980387502452 0.45846841892908402 0 0.44301038174930041 0.45684931552185398 0 0.50108503093851109 0.35012252869403671 0 0.50048844149666749 0.56727788297625459 0 0.44301038174930041 0.45684931552185398 0 0.56349980387502452 0.45846841892908402 0 0.56349980387502452 0.45846841892908402 0 0.50108503093851109 0.35012252869403671 0 0.62512662990940393 0.35044303886909911 0 0.43750000000200551 0.24222777169198509 0 0.37953773393552892 0.34812185820708452 0 0.31411863959822661 0.24965544328045999 0 0.56496004948275869 0.67675037307860475 0 0.50048844149666749 0.56727788297625459 0 0.62752533658682441 0.56838075195614346 0 0.56349980387502452 0.45846841892908402 0 0.68768773896438518 0.4586835206367198 0 0.62752533658682441 0.56838075195614346 0 0.50048844149666749 0.56727788297625459 0 0.56349980387502452 0.45846841892908402 0 0.62752533658682441 0.56838075195614346 0 0.75000000000057243 0.35048094716480432 0 0.62512662990940393 0.35044303886909911 0 0.68668231842078242 0.24762892664808989 0 0.50108503093851109 0.35012252869403671 0 0.43750000000200551 0.24222777169198509 0 0.56250000000143974 0.2422277716920859 0 0.62512662990940393 0.35044303886909911 0 0.50108503093851109 0.35012252869403671 0 0.56250000000143974 0.2422277716920859 0 0.68668231842078242 0.24762892664808989 0 0.62512662990940393 0.35044303886909911 0 0.56250000000143974 0.2422277716920859 0 0.22257735880419699 0.47344721641341742 0 0.24418615484441761 0.35773612382016978 0 0.32815957677880009 0.4577243358118348 0 0.12076953676380731 0.18690935762408761 0 0.19185372118111221 0.092925648673580788 0 0.25103557339309318 0.17464499738446629 0 0.20767261601459541 0.25628918442207171 0 0.12076953676380731 0.18690935762408761 0 0.25103557339309318 0.17464499738446629 0 0 0.87499999999950151 0 0 0.75000000000034761 0 0.10409951422139101 0.81206782209691231 0 0.1249999999997731 0 0 0.24999999999941069 0 0 0.19185372118111221 0.092925648673580788 0 1 0.1249999999997731 0 1 0.24999999999941069 0 0.89658421694297741 0.1933620068391701 0 0.88927506082488361 0.56409486310635837 0 0.81242894672211508 0.45500248311961472 0 0.915464298762109 0.43749999999886913 0 0.87499999999950151 1 0 0.75000000000034761 1 0 0.80886664387416207 0.89717308644237903 0 0.75000000000034761 1 0 0.69010814643829166 0.89298495739101336 0 0.80886664387416207 0.89717308644237903 0 0.82212678063041267 0.67678595194836966 0 0.88927506082488361 0.56409486310635837 0 0.92266244547590082 0.68749999999917555 0 0 0.75000000000034761 0 0.1082531754723032 0.6875000000007816 0 0.10409951422139101 0.81206782209691231 0 0.24999999999941069 0 0 0.31281086598417152 0.10449318608631281 0 0.19185372118111221 0.092925648673580788 0 1 0.24999999999941069 0 0.88173731489851925 0.33077402607778361 0 0.89658421694297741 0.1933620068391701 0 0.32815957677880009 0.4577243358118348 0 0.38694285807596462 0.5672991787102919 0 0.26982811998763367 0.56544650815856912 0 0.76243180583607129 0.78687675331113149 0 0.89051480781310632 0.79665793440246835 0 0.80886664387416207 0.89717308644237903 0 0.38694285807596462 0.5672991787102919 0 0.44078402250377968 0.67714785211715212 0 0.32607333794064219 0.67760114260606152 0 0.37776173212361452 0.78514649317305008 0 0.23533274979922561 0.77093399389351469 0 0.32607333794064219 0.67760114260606152 0 1 0.49999999999869221 0 0.88927506082488361 0.56409486310635837 0 0.915464298762109 0.43749999999886913 0 0.88173731489851925 0.33077402607778361 0 1 0.37499999999904599 0 0.915464298762109 0.43749999999886913 0 0.24418615484441761 0.35773612382016978 0 0.37953773393552892 0.34812185820708452 0 0.32815957677880009 0.4577243358118348 0 0.44301038174930041 0.45684931552185398 0 0.38694285807596462 0.5672991787102919 0 0.32815957677880009 0.4577243358118348 0 0.88927506082488361 0.56409486310635837 0 1 0.62499999999901068 0 0.92266244547590082 0.68749999999917555 0 1 0.74999999999934042 0 0.89051480781310632 0.79665793440246835 0 0.92266244547590082 0.68749999999917555 0 0 1 0 0 0.87499999999950151 0 0.091506350946494744 0.90849364905351082 0 1 1 0 0.87499999999950151 1 0 0.90849364905363228 0.90849364905367769 0 0 0 0 0.1249999999997731 0 0 0.091506350946417708 0.091506350946618076 0 0 0.12500000000052089 0 0 0 0 0.091506350946417708 0.091506350946618076 0 1 0 0 1 0.1249999999997731 0 0.90849364905355434 0.091506350946296292 0 0.87499999999967015 0 0 1 0 0 0.90849364905355434 0.091506350946296292 0 0.12500000000052089 1 0 0 1 0 0.091506350946494744 0.90849364905351082 0 1 0.87499999999967015 0 1 1 0 0.90849364905363228 0.90849364905367769 0 0.38694285807596462 0.5672991787102919 0 0.32607333794064219 0.67760114260606152 0 0.26982811998763367 0.56544650815856912 0 0.31411863959822661 0.24965544328045999 0 0.24418615484441761 0.35773612382016978 0 0.20767261601459541 0.25628918442207171 0 0.1082531754734323 0.31250000000117473 0 0.12076953676380731 0.18690935762408761 0 0.20767261601459541 0.25628918442207171 0 0.75000000000057243 0.35048094716480432 0 0.68668231842078242 0.24762892664808989 0 0.79891106056046712 0.25007334953587562 0 0.22257735880419699 0.47344721641341742 0 0.32815957677880009 0.4577243358118348 0 0.26982811998763367 0.56544650815856912 0 0.44078402250377968 0.67714785211715212 0 0.37776173212361452 0.78514649317305008 0 0.32607333794064219 0.67760114260606152 0 0.89658421694297741 0.1933620068391701 0 0.88173731489851925 0.33077402607778361 0 0.79891106056046712 0.25007334953587562 0 1 0.37499999999904599 0 1 0.49999999999869221 0 0.915464298762109 0.43749999999886913 0 0.37953773393552892 0.34812185820708452 0 0.44301038174930041 0.45684931552185398 0 0.32815957677880009 0.4577243358118348 0 0.32607333794064219 0.67760114260606152 0 0.21809253452218619 0.65480892822618109 0 0.26982811998763367 0.56544650815856912 0 1 0.1249999999997731 0 0.89658421694297741 0.1933620068391701 0 0.90849364905355434 0.091506350946296292 0 0 0.87499999999950151 0 0.10409951422139101 0.81206782209691231 0 0.091506350946494744 0.90849364905351082 0 0.1249999999997731 0 0 0.19185372118111221 0.092925648673580788 0 0.091506350946417708 0.091506350946618076 0 1 0.62499999999901068 0 1 0.74999999999934042 0 0.92266244547590082 0.68749999999917555 0 0.18802967116092181 0.89415349436770275 0 0.12500000000052089 1 0 0.091506350946494744 0.90849364905351082 0 0.89051480781310632 0.79665793440246835 0 1 0.87499999999967015 0 0.90849364905363228 0.90849364905367769 0 0.12076953676380731 0.18690935762408761 0 0 0.12500000000052089 0 0.091506350946417708 0.091506350946618076 0 0.81249999999950517 0.1082531754733404 0 0.87499999999967015 0 0 0.90849364905355434 0.091506350946296292 0 0.87499999999950151 1 0 0.80886664387416207 0.89717308644237903 0 0.90849364905363228 0.90849364905367769 0 0.68668231842078242 0.24762892664808989 0 0.62499999999892575 0.17524047358135519 0 0.73983916756365475 0.17530677078674589 0 0.31281086598417152 0.10449318608631281 0 0.43749999999910871 0.1082531754729984 0 0.37500000000232431 0.17524047358384309 0 0.62499999999892575 0.17524047358135519 0 0.56250000000143974 0.2422277716920859 0 0.49999999999934441 0.1752404735815076 0 0.56249999999885147 0.1082531754730395 0 0.68749999999926592 0.1082531754732875 0 0.62499999999892575 0.17524047358135519 0 0.56249999999885147 0.1082531754730395 0 0.62499999999892575 0.17524047358135519 0 0.49999999999934441 0.1752404735815076 0 0.56250000000143974 0.2422277716920859 0 0.43750000000200551 0.24222777169198509 0 0.49999999999934441 0.1752404735815076 0 0.43749999999910871 0.1082531754729984 0 0.56249999999885147 0.1082531754730395 0 0.49999999999934441 0.1752404735815076 0 0.68668231842078242 0.24762892664808989 0 0.56250000000143974 0.2422277716920859 0 0.62499999999892575 0.17524047358135519 0 0.43750000000200551 0.24222777169198509 0 0.31411863959822661 0.24965544328045999 0 0.37500000000232431 0.17524047358384309 0 0.49999999999934441 0.1752404735815076 0 0.43750000000200551 0.24222777169198509 0 0.37500000000232431 0.17524047358384309 0 0.43749999999910871 0.1082531754729984 0 0.49999999999934441 0.1752404735815076 0 0.37500000000232431 0.17524047358384309 0 0.62499999999892575 0.17524047358135519 0 0.68749999999926592 0.1082531754732875 0 0.73983916756365475 0.17530677078674589 0 0.68749999999926592 0.1082531754732875 0 0.81249999999950517 0.1082531754733404 0 0.73983916756365475 0.17530677078674589 0 0.10409951422139101 0.81206782209691231 0 0.18802967116092181 0.89415349436770275 0 0.091506350946494744 0.90849364905351082 0 0.89658421694297741 0.1933620068391701 0 0.81249999999950517 0.1082531754733404 0 0.90849364905355434 0.091506350946296292 0 0.19185372118111221 0.092925648673580788 0 0.12076953676380731 0.18690935762408761 0 0.091506350946417708 0.091506350946618076 0 0.37500000000232431 0.17524047358384309 0 0.31411863959822661 0.24965544328045999 0 0.25103557339309318 0.17464499738446629 0 0.31281086598417152 0.10449318608631281 0 0.37500000000232431 0.17524047358384309 0 0.25103557339309318 0.17464499738446629 0 0.80886664387416207 0.89717308644237903 0 0.89051480781310632 0.79665793440246835 0 0.90849364905363228 0.90849364905367769 0 0.19185372118111221 0.092925648673580788 0 0.31281086598417152 0.10449318608631281 0 0.25103557339309318 0.17464499738446629 0 0.79891106056046712 0.25007334953587562 0 0.68668231842078242 0.24762892664808989 0 0.73983916756365475 0.17530677078674589 0 0.31411863959822661 0.24965544328045999 0 0.20767261601459541 0.25628918442207171 0 0.25103557339309318 0.17464499738446629 0 

        </DataArray>

      </Points>

      <Cells>

        <DataArray type="Int32" Name="connectivity" format="ascii">

0 1 2 3 4 5 6 7 8 9 10 11 12 13 14 15 16 17 18 19 20 21 22 23 24 25 26 27 28 29 30 31 32 33 34 35 36 37 38 39 40 41 42 43 44 45 46 47 48 49 50 51 52 53 54 55 56 57 58 59 60 61 62 63 64 65 66 67 68 69 70 71 72 73 74 75 76 77 78 79 80 81 82 83 84 85 86 87 88 89 90 91 92 93 94 95 96 97 98 99 100 101 102 103 104 105 106 107 108 109 110 111 112 113 114 115 116 117 118 119 120 121 122 123 124 125 126 127 128 129 130 131 132 133 134 135 136 137 138 139 140 141 142 143 144 145 146 147 148 149 150 151 152 153 154 155 156 157 158 159 160 161 162 163 164 165 166 167 168 169 170 171 172 173 174 175 176 177 178 179 180 181 182 183 184 185 186 187 188 189 190 191 192 193 194 195 196 197 198 199 200 201 202 203 204 205 206 207 208 209 210 211 212 213 214 215 216 217 218 219 220 221 222 223 224 225 226 227 228 229 230 231 232 233 234 235 236 237 238 239 240 241 242 243 244 245 246 247 248 249 250 251 252 253 254 255 256 257 258 259 260 261 262 263 264 265 266 267 268 269 270 271 272 273 274 275 276 277 278 279 280 281 282 283 284 285 286 287 288 289 290 291 292 293 294 295 296 297 298 299 300 301 302 303 304 305 306 307 308 309 310 311 312 313 314 315 316 317 318 319 320 321 322 323 324 325 326 327 328 329 330 331 332 333 334 335 336 337 338 339 340 341 342 343 344 345 346 347 348 349 350 351 352 353 354 355 356 357 358 359 360 361 362 363 364 365 366 367 368 369 370 371 372 373 374 375 376 377 378 379 380 381 382 383 384 385 386 387 388 389 390 391 392 393 394 395 396 397 398 399 400 401 402 403 404 405 406 407 408 409 410 411 412 413 414 415 416 417 418 419 420 421 422 423 424 425 426 427 428 429 430 431 432 433 434 435 436 437 438 439 440 441 442 443 444 445 446 447 448 449 450 451 452 453 454 455 456 457 458 459 460 461 462 463 464 465 466 467 468 469 470 471 472 473 474 475 476 477 478 479 480 481 482 483 484 485 

        </DataArray>

        <DataArray type="Int32" Name="offsets" format="ascii">

3 6 9 12 15 18 21 24 27 30 33 36 39 42 45 48 51 54 57 60 63 66 69 72 75 78 81 84 87 90 93 96 99 102 105 108 111 114 117 120 123 126 129 132 135 138 141 144 147 150 153 156 159 162 165 168 171 174 177 180 183 186 189 192 195 198 201 204 207 210 213 216 219 222 225 228 231 234 237 240 243 246 249 252 255 258 261 264 267 270 273 276 279 282 285 288 291 294 297 300 303 306 309 312 315 318 321 324 327 330 333 336 339 342 345 348 351 354 357 360 363 366 369 372 375 378 381 384 387 390 393 396 399 402 405 408 411 414 417 420 423 426 429 432 435 438 441 444 447 450 453 456 459 462 465 468 471 474 477 480 483 486 

        </DataArray>

        <DataArray type="Int32" Name="types" format="ascii">

5 5 5 5 5 5 5 5 5 5 5 5 5 5 5 5 5 5 5 5 5 5 5 5 5 5 5 5 5 5 5 5 5 5 5 5 5 5 5 5 5 5 5 5 5 5 5 5 5 5 5 5 5 5 5 5 5 5 5 5 5 5 5 5 5 5 5 5 5 5 5 5 5 5 5 5 5 5 5 5 5 5 5 5 5 5 5 5 5 5 5 5 5 5 5 5 5 5 5 5 5 5 5 5 5 5 5 5 5 5 5 5 5 5 5 5 5 5 5 5 5 5 5 5 5 5 5 5 5 5 5 5 5 5 5 5 5 5 5 5 5 5 5 5 5 5 5 5 5 5 5 5 5 5 5 5 5 5 5 5 5 5 

        </DataArray>

      </Cells>

    </Piece>

  </UnstructuredGrid>

</VTKFile>

