<?xml version="1.0"?>

<VTKFile type="UnstructuredGrid" version="0.1">

  <UnstructuredGrid>

    <Piece NumberOfPoints="486" NumberOfCells="162">

      <PointData>

        <DataArray type="Float64" Name="K" format="ascii">

9.20370284649170589e-01
9.20370284649170589e-01
9.20370284649170589e-01
9.27452475979342994e-01
9.27452475979342994e-01
9.27452475979342994e-01
1.01804260438117122e+00
1.01804260438117122e+00
1.01804260438117122e+00
9.34753841483096815e-01
9.34753841483096815e-01
9.34753841483096815e-01
9.88731951780969620e-01
9.88731951780969620e-01
9.88731951780969620e-01
9.80317050807382628e-01
9.80317050807382628e-01
9.80317050807382628e-01
1.01489200427333648e+00
1.01489200427333648e+00
1.01489200427333648e+00
1.09461702621703760e+00
1.09461702621703760e+00
1.09461702621703760e+00
1.11395732214303012e+00
1.11395732214303012e+00
1.11395732214303012e+00
1.08685524112121978e+00
1.08685524112121978e+00
1.08685524112121978e+00
1.01419996696115944e+00
1.01419996696115944e+00
1.01419996696115944e+00
9.68321435219272941e-01
9.68321435219272941e-01
9.68321435219272941e-01
1.10799657727706413e+00
1.10799657727706413e+00
1.10799657727706413e+00
1.06507477363196790e+00
1.06507477363196790e+00
1.06507477363196790e+00
1.11785843856515799e+00
1.11785843856515799e+00
1.11785843856515799e+00
1.14910383720862375e+00
1.14910383720862375e+00
1.14910383720862375e+00
9.32321307422565915e-01
9.32321307422565915e-01
9.32321307422565915e-01
9.82950686159458131e-01
9.82950686159458131e-01
9.82950686159458131e-01
1.11377246064914259e+00
1.11377246064914259e+00
1.11377246064914259e+00
1.14324186780173265e+00
1.14324186780173265e+00
1.14324186780173265e+00
9.49078492858308476e-01
9.49078492858308476e-01
9.49078492858308476e-01
9.38143235725699576e-01
9.38143235725699576e-01
9.38143235725699576e-01
1.01753182470296077e+00
1.01753182470296077e+00
1.01753182470296077e+00
8.93552661166685747e-01
8.93552661166685747e-01
8.93552661166685747e-01
1.13497373043457483e+00
1.13497373043457483e+00
1.13497373043457483e+00
9.00915581425219436e-01
9.00915581425219436e-01
9.00915581425219436e-01
9.03757337640123892e-01
9.03757337640123892e-01
9.03757337640123892e-01
9.51365547806083067e-01
9.51365547806083067e-01
9.51365547806083067e-01
9.35706842759930879e-01
9.35706842759930879e-01
9.35706842759930879e-01
1.13804488966087014e+00
1.13804488966087014e+00
1.13804488966087014e+00
1.06198715354863116e+00
1.06198715354863116e+00
1.06198715354863116e+00
9.82452118940464802e-01
9.82452118940464802e-01
9.82452118940464802e-01
9.73658057451726067e-01
9.73658057451726067e-01
9.73658057451726067e-01
1.03236784032140716e+00
1.03236784032140716e+00
1.03236784032140716e+00
9.84259112841708861e-01
9.84259112841708861e-01
9.84259112841708861e-01
9.55097784033034691e-01
9.55097784033034691e-01
9.55097784033034691e-01
1.04047073247580957e+00
1.04047073247580957e+00
1.04047073247580957e+00
1.09503196400682312e+00
1.09503196400682312e+00
1.09503196400682312e+00
1.04150617124125233e+00
1.04150617124125233e+00
1.04150617124125233e+00
9.56950037035305789e-01
9.56950037035305789e-01
9.56950037035305789e-01
1.01199970729302247e+00
1.01199970729302247e+00
1.01199970729302247e+00
9.98328596153409298e-01
9.98328596153409298e-01
9.98328596153409298e-01
1.05517440680399077e+00
1.05517440680399077e+00
1.05517440680399077e+00
1.01429055045003191e+00
1.01429055045003191e+00
1.01429055045003191e+00
1.02918083373661129e+00
1.02918083373661129e+00
1.02918083373661129e+00
1.01154276835139356e+00
1.01154276835139356e+00
1.01154276835139356e+00
9.63002439875820238e-01
9.63002439875820238e-01
9.63002439875820238e-01
1.02003869983339746e+00
1.02003869983339746e+00
1.02003869983339746e+00
1.00921394379155371e+00
1.00921394379155371e+00
1.00921394379155371e+00
1.02783049436072460e+00
1.02783049436072460e+00
1.02783049436072460e+00
1.02405134620054228e+00
1.02405134620054228e+00
1.02405134620054228e+00
1.03649828980155023e+00
1.03649828980155023e+00
1.03649828980155023e+00
9.78177798868802406e-01
9.78177798868802406e-01
9.78177798868802406e-01
1.04001811591786431e+00
1.04001811591786431e+00
1.04001811591786431e+00
9.57774063068300596e-01
9.57774063068300596e-01
9.57774063068300596e-01
1.08933703389477921e+00
1.08933703389477921e+00
1.08933703389477921e+00
9.72406383499318627e-01
9.72406383499318627e-01
9.72406383499318627e-01
1.00590695503726790e+00
1.00590695503726790e+00
1.00590695503726790e+00
1.04145567826916396e+00
1.04145567826916396e+00
1.04145567826916396e+00
1.00275846328053753e+00
1.00275846328053753e+00
1.00275846328053753e+00
9.90145127952982373e-01
9.90145127952982373e-01
9.90145127952982373e-01
1.00337793401280373e+00
1.00337793401280373e+00
1.00337793401280373e+00
1.01621148920894977e+00
1.01621148920894977e+00
1.01621148920894977e+00
1.04528172732367630e+00
1.04528172732367630e+00
1.04528172732367630e+00
9.51198646308214935e-01
9.51198646308214935e-01
9.51198646308214935e-01
1.01954794061240972e+00
1.01954794061240972e+00
1.01954794061240972e+00
9.54781886617538600e-01
9.54781886617538600e-01
9.54781886617538600e-01
9.72043530664237543e-01
9.72043530664237543e-01
9.72043530664237543e-01
9.92257995301424223e-01
9.92257995301424223e-01
9.92257995301424223e-01
9.14941919953464744e-01
9.14941919953464744e-01
9.14941919953464744e-01
1.10386298644638514e+00
1.10386298644638514e+00
1.10386298644638514e+00
9.47420395446729402e-01
9.47420395446729402e-01
9.47420395446729402e-01
9.44821776459272344e-01
9.44821776459272344e-01
9.44821776459272344e-01
9.62863151260250461e-01
9.62863151260250461e-01
9.62863151260250461e-01
1.05305600230589946e+00
1.05305600230589946e+00
1.05305600230589946e+00
9.16623821446466702e-01
9.16623821446466702e-01
9.16623821446466702e-01
1.00772970222028646e+00
1.00772970222028646e+00
1.00772970222028646e+00
9.15581662023903675e-01
9.15581662023903675e-01
9.15581662023903675e-01
1.03591649327633895e+00
1.03591649327633895e+00
1.03591649327633895e+00
9.37572963177794594e-01
9.37572963177794594e-01
9.37572963177794594e-01
9.68256775893001298e-01
9.68256775893001298e-01
9.68256775893001298e-01
9.33309451708168258e-01
9.33309451708168258e-01
9.33309451708168258e-01
9.35231345263647595e-01
9.35231345263647595e-01
9.35231345263647595e-01
1.05785282526765867e+00
1.05785282526765867e+00
1.05785282526765867e+00
9.98896166429749766e-01
9.98896166429749766e-01
9.98896166429749766e-01
1.01080037004901135e+00
1.01080037004901135e+00
1.01080037004901135e+00
8.89521144880372927e-01
8.89521144880372927e-01
8.89521144880372927e-01
9.27179742569251619e-01
9.27179742569251619e-01
9.27179742569251619e-01
9.22529796906273125e-01
9.22529796906273125e-01
9.22529796906273125e-01
9.10554841919151814e-01
9.10554841919151814e-01
9.10554841919151814e-01
9.49265759179925728e-01
9.49265759179925728e-01
9.49265759179925728e-01
1.00571101342820435e+00
1.00571101342820435e+00
1.00571101342820435e+00
1.01520825447491214e+00
1.01520825447491214e+00
1.01520825447491214e+00
9.40722161771267884e-01
9.40722161771267884e-01
9.40722161771267884e-01
9.78912076983030510e-01
9.78912076983030510e-01
9.78912076983030510e-01
9.28347045229001133e-01
9.28347045229001133e-01
9.28347045229001133e-01
1.03823892803060547e+00
1.03823892803060547e+00
1.03823892803060547e+00
9.84421305118598933e-01
9.84421305118598933e-01
9.84421305118598933e-01
1.01389760617951308e+00
1.01389760617951308e+00
1.01389760617951308e+00
1.09799064753076747e+00
1.09799064753076747e+00
1.09799064753076747e+00
9.33318397122470556e-01
9.33318397122470556e-01
9.33318397122470556e-01
9.94278840642439432e-01
9.94278840642439432e-01
9.94278840642439432e-01
9.24887596578867655e-01
9.24887596578867655e-01
9.24887596578867655e-01
9.35425626342280547e-01
9.35425626342280547e-01
9.35425626342280547e-01
1.05588505593718973e+00
1.05588505593718973e+00
1.05588505593718973e+00
9.81557072547553311e-01
9.81557072547553311e-01
9.81557072547553311e-01
9.74505580963375917e-01
9.74505580963375917e-01
9.74505580963375917e-01
1.04139682548579682e+00
1.04139682548579682e+00
1.04139682548579682e+00
9.78633872965686713e-01
9.78633872965686713e-01
9.78633872965686713e-01
9.30878061109596922e-01
9.30878061109596922e-01
9.30878061109596922e-01
9.31859015744614383e-01
9.31859015744614383e-01
9.31859015744614383e-01
1.07632277909571550e+00
1.07632277909571550e+00
1.07632277909571550e+00
1.06484976191512937e+00
1.06484976191512937e+00
1.06484976191512937e+00
9.56659446075709297e-01
9.56659446075709297e-01
9.56659446075709297e-01
9.82758668092761578e-01
9.82758668092761578e-01
9.82758668092761578e-01
9.84577433053420825e-01
9.84577433053420825e-01
9.84577433053420825e-01
9.90514495692122132e-01
9.90514495692122132e-01
9.90514495692122132e-01
9.38876976408027253e-01
9.38876976408027253e-01
9.38876976408027253e-01
9.56094716169830217e-01
9.56094716169830217e-01
9.56094716169830217e-01
9.68772545045092026e-01
9.68772545045092026e-01
9.68772545045092026e-01
9.96370120185533170e-01
9.96370120185533170e-01
9.96370120185533170e-01
9.54620726960903054e-01
9.54620726960903054e-01
9.54620726960903054e-01
9.93645836618161193e-01
9.93645836618161193e-01
9.93645836618161193e-01
1.01993748249937233e+00
1.01993748249937233e+00
1.01993748249937233e+00
8.77298029358314246e-01
8.77298029358314246e-01
8.77298029358314246e-01
9.36897947627636896e-01
9.36897947627636896e-01
9.36897947627636896e-01
9.92890991165664594e-01
9.92890991165664594e-01
9.92890991165664594e-01
8.98838583410862202e-01
8.98838583410862202e-01
8.98838583410862202e-01
1.00522653651764138e+00
1.00522653651764138e+00
1.00522653651764138e+00
9.14246358288637762e-01
9.14246358288637762e-01
9.14246358288637762e-01
9.46433023652004213e-01
9.46433023652004213e-01
9.46433023652004213e-01
9.24221529325836011e-01
9.24221529325836011e-01
9.24221529325836011e-01
9.34786928840026343e-01
9.34786928840026343e-01
9.34786928840026343e-01
9.83336536859863886e-01
9.83336536859863886e-01
9.83336536859863886e-01
1.06480738062011016e+00
1.06480738062011016e+00
1.06480738062011016e+00
9.51073507006803265e-01
9.51073507006803265e-01
9.51073507006803265e-01
1.02381248455898621e+00
1.02381248455898621e+00
1.02381248455898621e+00
9.92887897793614083e-01
9.92887897793614083e-01
9.92887897793614083e-01
9.57231020092545459e-01
9.57231020092545459e-01
9.57231020092545459e-01
9.92618969392494277e-01
9.92618969392494277e-01
9.92618969392494277e-01
9.14793202556514307e-01
9.14793202556514307e-01
9.14793202556514307e-01
1.00278271160911414e+00
1.00278271160911414e+00
1.00278271160911414e+00
9.50153481828642676e-01
9.50153481828642676e-01
9.50153481828642676e-01
9.68235717147429953e-01
9.68235717147429953e-01
9.68235717147429953e-01
9.71035839594320160e-01
9.71035839594320160e-01
9.71035839594320160e-01
9.46331001946847605e-01
9.46331001946847605e-01
9.46331001946847605e-01
9.92281041131938157e-01
9.92281041131938157e-01
9.92281041131938157e-01
9.25556857298778679e-01
9.25556857298778679e-01
9.25556857298778679e-01
9.60853103364442962e-01
9.60853103364442962e-01
9.60853103364442962e-01
9.61081220328982466e-01
9.61081220328982466e-01
9.61081220328982466e-01
9.85752982955113821e-01
9.85752982955113821e-01
9.85752982955113821e-01
9.39889245993545064e-01
9.39889245993545064e-01
9.39889245993545064e-01
9.39027766727501878e-01
9.39027766727501878e-01
9.39027766727501878e-01
9.32901053612058773e-01
9.32901053612058773e-01
9.32901053612058773e-01
9.23012536755740243e-01
9.23012536755740243e-01
9.23012536755740243e-01
9.93842733007482493e-01
9.93842733007482493e-01
9.93842733007482493e-01
9.91093488677835643e-01
9.91093488677835643e-01
9.91093488677835643e-01
1.00261634967030733e+00
1.00261634967030733e+00
1.00261634967030733e+00
1.02295531873995937e+00
1.02295531873995937e+00
1.02295531873995937e+00
1.00515354236774379e+00
1.00515354236774379e+00
1.00515354236774379e+00
8.88148993010319687e-01
8.88148993010319687e-01
8.88148993010319687e-01
1.00457568181314816e+00
1.00457568181314816e+00
1.00457568181314816e+00


        </DataArray>

      </PointData>

      <CellData/>

      <Points>

        <DataArray type="Float64" NumberOfComponents="3" format="ascii">

0.1082531754723032 0.6875000000007816 0 0.23533274979922561 0.77093399389351469 0 0.10409951422139101 0.81206782209691231 0 0.23533274979922561 0.77093399389351469 0 0.1082531754723032 0.6875000000007816 0 0.21809253452218619 0.65480892822618109 0 0.24418615484441761 0.35773612382016978 0 0.121259140952891 0.43112117036853742 0 0.1082531754734323 0.31250000000117473 0 0.75000000000057243 0.35048094716480432 0 0.88173731489851925 0.33077402607778361 0 0.81242894672211508 0.45500248311961472 0 0.121259140952891 0.43112117036853742 0 0.24418615484441761 0.35773612382016978 0 0.22257735880419699 0.47344721641341742 0 0.81242894672211508 0.45500248311961472 0 0.88173731489851925 0.33077402607778361 0 0.915464298762109 0.43749999999886913 0 0 0.62500000000121547 0 0 0.50000000000206146 0 0.1371230538040123 0.56179824718362847 0 0.82212678063041267 0.67678595194836966 0 0.89051480781310632 0.79665793440246835 0 0.76243180583607129 0.78687675331113149 0 0.76243180583607129 0.78687675331113149 0 0.69010814643829166 0.89298495739101336 0 0.62844955668446423 0.7850749770380413 0 0.89051480781310632 0.79665793440246835 0 0.82212678063041267 0.67678595194836966 0 0.92266244547590082 0.68749999999917555 0 0 0.50000000000206146 0 0.121259140952891 0.43112117036853742 0 0.1371230538040123 0.56179824718362847 0 0.1082531754723032 0.6875000000007816 0 0 0.62500000000121547 0 0.1371230538040123 0.56179824718362847 0 0.75000000000032374 0.56698729811007709 0 0.88927506082488361 0.56409486310635837 0 0.82212678063041267 0.67678595194836966 0 0.81242894672211508 0.45500248311961472 0 0.88927506082488361 0.56409486310635837 0 0.75000000000032374 0.56698729811007709 0 0.69851598570178741 0.68211701800612057 0 0.56496004948275869 0.67675037307860475 0 0.62752533658682441 0.56838075195614346 0 0.69851598570178741 0.68211701800612057 0 0.76243180583607129 0.78687675331113149 0 0.62844955668446423 0.7850749770380413 0 0.23533274979922561 0.77093399389351469 0 0.18802967116092181 0.89415349436770275 0 0.10409951422139101 0.81206782209691231 0 0.121259140952891 0.43112117036853742 0 0.22257735880419699 0.47344721641341742 0 0.1371230538040123 0.56179824718362847 0 0.75000000000032374 0.56698729811007709 0 0.69851598570178741 0.68211701800612057 0 0.62752533658682441 0.56838075195614346 0 0.56496004948275869 0.67675037307860475 0 0.69851598570178741 0.68211701800612057 0 0.62844955668446423 0.7850749770380413 0 0.1371230538040123 0.56179824718362847 0 0.22257735880419699 0.47344721641341742 0 0.26982811998763367 0.56544650815856912 0 0.21809253452218619 0.65480892822618109 0 0.1371230538040123 0.56179824718362847 0 0.26982811998763367 0.56544650815856912 0 0.24418615484441761 0.35773612382016978 0 0.1082531754734323 0.31250000000117473 0 0.20767261601459541 0.25628918442207171 0 0.88173731489851925 0.33077402607778361 0 0.75000000000057243 0.35048094716480432 0 0.79891106056046712 0.25007334953587562 0 0.75000000000032374 0.56698729811007709 0 0.82212678063041267 0.67678595194836966 0 0.69851598570178741 0.68211701800612057 0 0.81249999999950517 0.1082531754733404 0 0.89658421694297741 0.1933620068391701 0 0.79891106056046712 0.25007334953587562 0 0.81249999999950517 0.1082531754733404 0 0.79891106056046712 0.25007334953587562 0 0.73983916756365475 0.17530677078674589 0 0.23533274979922561 0.77093399389351469 0 0.21809253452218619 0.65480892822618109 0 0.32607333794064219 0.67760114260606152 0 0.1082531754723032 0.6875000000007816 0 0.1371230538040123 0.56179824718362847 0 0.21809253452218619 0.65480892822618109 0 0.69851598570178741 0.68211701800612057 0 0.82212678063041267 0.67678595194836966 0 0.76243180583607129 0.78687675331113149 0 0.69010814643829166 0.89298495739101336 0 0.76243180583607129 0.78687675331113149 0 0.80886664387416207 0.89717308644237903 0 0.43750000000181222 0.89174682452709564 0 0.31258827852827581 0.89214793616708443 0 0.37776173212361452 0.78514649317305008 0 0.43750000000181222 0.89174682452709564 0 0.37500000000156292 1 0 0.31258827852827581 0.89214793616708443 0 0.121259140952891 0.43112117036853742 0 0 0.37500000000156292 0 0.1082531754734323 0.31250000000117473 0 0.50000000000206146 1 0 0.37500000000156292 1 0 0.43750000000181222 0.89174682452709564 0 0.31258827852827581 0.89214793616708443 0 0.18802967116092181 0.89415349436770275 0 0.23533274979922561 0.77093399389351469 0 0 0.50000000000206146 0 0 0.37500000000156292 0 0.121259140952891 0.43112117036853742 0 0.62844955668446423 0.7850749770380413 0 0.69010814643829166 0.89298495739101336 0 0.56327595140699671 0.89211526915426331 0 0.69010814643829166 0.89298495739101336 0 0.62500000000121547 1 0 0.56327595140699671 0.89211526915426331 0 0.25000000000104189 1 0 0.18802967116092181 0.89415349436770275 0 0.31258827852827581 0.89214793616708443 0 0.50000000000206146 1 0 0.43750000000181222 0.89174682452709564 0 0.56327595140699671 0.89211526915426331 0 0.56249999999885147 0.1082531754730395 0 0.62499999999901068 0 0 0.68749999999926592 0.1082531754732875 0 1 0.49999999999869221 0 1 0.62499999999901068 0 0.88927506082488361 0.56409486310635837 0 0 0.25000000000104189 0 0.12076953676380731 0.18690935762408761 0 0.1082531754734323 0.31250000000117473 0 0.49999999999869221 0 0 0.62499999999901068 0 0 0.56249999999885147 0.1082531754730395 0 0.62500000000121547 1 0 0.50000000000206146 1 0 0.56327595140699671 0.89211526915426331 0 0.37500000000156292 1 0 0.25000000000104189 1 0 0.31258827852827581 0.89214793616708443 0 0.31281086598417152 0.10449318608631281 0 0.37499999999904599 0 0 0.43749999999910871 0.1082531754729984 0 0.43750000000181222 0.89174682452709564 0 0.37776173212361452 0.78514649317305008 0 0.50046028868828263 0.78376912307435687 0 0 0.37500000000156292 0 0 0.25000000000104189 0 0.1082531754734323 0.31250000000117473 0 0.49999999999869221 0 0 0.56249999999885147 0.1082531754730395 0 0.43749999999910871 0.1082531754729984 0 0.43750000000181222 0.89174682452709564 0 0.50046028868828263 0.78376912307435687 0 0.56327595140699671 0.89211526915426331 0 0.74999999999934042 0 0 0.81249999999950517 0.1082531754733404 0 0.68749999999926592 0.1082531754732875 0 0.37499999999904599 0 0 0.49999999999869221 0 0 0.43749999999910871 0.1082531754729984 0 0.25000000000104189 1 0 0.12500000000052089 1 0 0.18802967116092181 0.89415349436770275 0 0.50046028868828263 0.78376912307435687 0 0.62844955668446423 0.7850749770380413 0 0.56327595140699671 0.89211526915426331 0 0.37776173212361452 0.78514649317305008 0 0.31258827852827581 0.89214793616708443 0 0.23533274979922561 0.77093399389351469 0 0.62499999999901068 0 0 0.74999999999934042 0 0 0.68749999999926592 0.1082531754732875 0 1 0.74999999999934042 0 1 0.87499999999967015 0 0.89051480781310632 0.79665793440246835 0 0 0.25000000000104189 0 0 0.12500000000052089 0 0.12076953676380731 0.18690935762408761 0 0.74999999999934042 0 0 0.87499999999967015 0 0 0.81249999999950517 0.1082531754733404 0 0.24999999999941069 0 0 0.37499999999904599 0 0 0.31281086598417152 0.10449318608631281 0 0.50046028868828263 0.78376912307435687 0 0.37776173212361452 0.78514649317305008 0 0.44078402250377968 0.67714785211715212 0 0.68768773896438518 0.4586835206367198 0 0.75000000000032374 0.56698729811007709 0 0.62752533658682441 0.56838075195614346 0 0.31411863959822661 0.24965544328045999 0 0.37953773393552892 0.34812185820708452 0 0.24418615484441761 0.35773612382016978 0 0.68768773896438518 0.4586835206367198 0 0.81242894672211508 0.45500248311961472 0 0.75000000000032374 0.56698729811007709 0 1 0.24999999999941069 0 1 0.37499999999904599 0 0.88173731489851925 0.33077402607778361 0 0 0.75000000000034761 0 0 0.62500000000121547 0 0.1082531754723032 0.6875000000007816 0 0.50048844149666749 0.56727788297625459 0 0.44078402250377968 0.67714785211715212 0 0.38694285807596462 0.5672991787102919 0 0.50108503093851109 0.35012252869403671 0 0.44301038174930041 0.45684931552185398 0 0.37953773393552892 0.34812185820708452 0 0.50046028868828263 0.78376912307435687 0 0.56496004948275869 0.67675037307860475 0 0.62844955668446423 0.7850749770380413 0 0.68768773896438518 0.4586835206367198 0 0.75000000000057243 0.35048094716480432 0 0.81242894672211508 0.45500248311961472 0 0.56349980387502452 0.45846841892908402 0 0.62512662990940393 0.35044303886909911 0 0.68768773896438518 0.4586835206367198 0 0.50048844149666749 0.56727788297625459 0 0.38694285807596462 0.5672991787102919 0 0.44301038174930041 0.45684931552185398 0 0.50046028868828263 0.78376912307435687 0 0.44078402250377968 0.67714785211715212 0 0.56496004948275869 0.67675037307860475 0 0.50108503093851109 0.35012252869403671 0 0.37953773393552892 0.34812185820708452 0 0.43750000000200551 0.24222777169198509 0 0.75000000000034761 1 0 0.62500000000121547 1 0 0.69010814643829166 0.89298495739101336 0 0.68768773896438518 0.4586835206367198 0 0.62512662990940393 0.35044303886909911 0 0.75000000000057243 0.35048094716480432 0 0.56496004948275869 0.67675037307860475 0 0.44078402250377968 0.67714785211715212 0 0.50048844149666749 0.56727788297625459 0 0.56349980387502452 0.45846841892908402 0 0.44301038174930041 0.45684931552185398 0 0.50108503093851109 0.35012252869403671 0 0.50048844149666749 0.56727788297625459 0 0.44301038174930041 0.45684931552185398 0 0.56349980387502452 0.45846841892908402 0 0.56349980387502452 0.45846841892908402 0 0.50108503093851109 0.35012252869403671 0 0.62512662990940393 0.35044303886909911 0 0.43750000000200551 0.24222777169198509 0 0.37953773393552892 0.34812185820708452 0 0.31411863959822661 0.24965544328045999 0 0.56496004948275869 0.67675037307860475 0 0.50048844149666749 0.56727788297625459 0 0.62752533658682441 0.56838075195614346 0 0.56349980387502452 0.45846841892908402 0 0.68768773896438518 0.4586835206367198 0 0.62752533658682441 0.56838075195614346 0 0.50048844149666749 0.56727788297625459 0 0.56349980387502452 0.45846841892908402 0 0.62752533658682441 0.56838075195614346 0 0.75000000000057243 0.35048094716480432 0 0.62512662990940393 0.35044303886909911 0 0.68668231842078242 0.24762892664808989 0 0.50108503093851109 0.35012252869403671 0 0.43750000000200551 0.24222777169198509 0 0.56250000000143974 0.2422277716920859 0 0.62512662990940393 0.35044303886909911 0 0.50108503093851109 0.35012252869403671 0 0.56250000000143974 0.2422277716920859 0 0.68668231842078242 0.24762892664808989 0 0.62512662990940393 0.35044303886909911 0 0.56250000000143974 0.2422277716920859 0 0.22257735880419699 0.47344721641341742 0 0.24418615484441761 0.35773612382016978 0 0.32815957677880009 0.4577243358118348 0 0.12076953676380731 0.18690935762408761 0 0.19185372118111221 0.092925648673580788 0 0.25103557339309318 0.17464499738446629 0 0.20767261601459541 0.25628918442207171 0 0.12076953676380731 0.18690935762408761 0 0.25103557339309318 0.17464499738446629 0 0 0.87499999999950151 0 0 0.75000000000034761 0 0.10409951422139101 0.81206782209691231 0 0.1249999999997731 0 0 0.24999999999941069 0 0 0.19185372118111221 0.092925648673580788 0 1 0.1249999999997731 0 1 0.24999999999941069 0 0.89658421694297741 0.1933620068391701 0 0.88927506082488361 0.56409486310635837 0 0.81242894672211508 0.45500248311961472 0 0.915464298762109 0.43749999999886913 0 0.87499999999950151 1 0 0.75000000000034761 1 0 0.80886664387416207 0.89717308644237903 0 0.75000000000034761 1 0 0.69010814643829166 0.89298495739101336 0 0.80886664387416207 0.89717308644237903 0 0.82212678063041267 0.67678595194836966 0 0.88927506082488361 0.56409486310635837 0 0.92266244547590082 0.68749999999917555 0 0 0.75000000000034761 0 0.1082531754723032 0.6875000000007816 0 0.10409951422139101 0.81206782209691231 0 0.24999999999941069 0 0 0.31281086598417152 0.10449318608631281 0 0.19185372118111221 0.092925648673580788 0 1 0.24999999999941069 0 0.88173731489851925 0.33077402607778361 0 0.89658421694297741 0.1933620068391701 0 0.32815957677880009 0.4577243358118348 0 0.38694285807596462 0.5672991787102919 0 0.26982811998763367 0.56544650815856912 0 0.76243180583607129 0.78687675331113149 0 0.89051480781310632 0.79665793440246835 0 0.80886664387416207 0.89717308644237903 0 0.38694285807596462 0.5672991787102919 0 0.44078402250377968 0.67714785211715212 0 0.32607333794064219 0.67760114260606152 0 0.37776173212361452 0.78514649317305008 0 0.23533274979922561 0.77093399389351469 0 0.32607333794064219 0.67760114260606152 0 1 0.49999999999869221 0 0.88927506082488361 0.56409486310635837 0 0.915464298762109 0.43749999999886913 0 0.88173731489851925 0.33077402607778361 0 1 0.37499999999904599 0 0.915464298762109 0.43749999999886913 0 0.24418615484441761 0.35773612382016978 0 0.37953773393552892 0.34812185820708452 0 0.32815957677880009 0.4577243358118348 0 0.44301038174930041 0.45684931552185398 0 0.38694285807596462 0.5672991787102919 0 0.32815957677880009 0.4577243358118348 0 0.88927506082488361 0.56409486310635837 0 1 0.62499999999901068 0 0.92266244547590082 0.68749999999917555 0 1 0.74999999999934042 0 0.89051480781310632 0.79665793440246835 0 0.92266244547590082 0.68749999999917555 0 0 1 0 0 0.87499999999950151 0 0.091506350946494744 0.90849364905351082 0 1 1 0 0.87499999999950151 1 0 0.90849364905363228 0.90849364905367769 0 0 0 0 0.1249999999997731 0 0 0.091506350946417708 0.091506350946618076 0 0 0.12500000000052089 0 0 0 0 0.091506350946417708 0.091506350946618076 0 1 0 0 1 0.1249999999997731 0 0.90849364905355434 0.091506350946296292 0 0.87499999999967015 0 0 1 0 0 0.90849364905355434 0.091506350946296292 0 0.12500000000052089 1 0 0 1 0 0.091506350946494744 0.90849364905351082 0 1 0.87499999999967015 0 1 1 0 0.90849364905363228 0.90849364905367769 0 0.38694285807596462 0.5672991787102919 0 0.32607333794064219 0.67760114260606152 0 0.26982811998763367 0.56544650815856912 0 0.31411863959822661 0.24965544328045999 0 0.24418615484441761 0.35773612382016978 0 0.20767261601459541 0.25628918442207171 0 0.1082531754734323 0.31250000000117473 0 0.12076953676380731 0.18690935762408761 0 0.20767261601459541 0.25628918442207171 0 0.75000000000057243 0.35048094716480432 0 0.68668231842078242 0.24762892664808989 0 0.79891106056046712 0.25007334953587562 0 0.22257735880419699 0.47344721641341742 0 0.32815957677880009 0.4577243358118348 0 0.26982811998763367 0.56544650815856912 0 0.44078402250377968 0.67714785211715212 0 0.37776173212361452 0.78514649317305008 0 0.32607333794064219 0.67760114260606152 0 0.89658421694297741 0.1933620068391701 0 0.88173731489851925 0.33077402607778361 0 0.79891106056046712 0.25007334953587562 0 1 0.37499999999904599 0 1 0.49999999999869221 0 0.915464298762109 0.43749999999886913 0 0.37953773393552892 0.34812185820708452 0 0.44301038174930041 0.45684931552185398 0 0.32815957677880009 0.4577243358118348 0 0.32607333794064219 0.67760114260606152 0 0.21809253452218619 0.65480892822618109 0 0.26982811998763367 0.56544650815856912 0 1 0.1249999999997731 0 0.89658421694297741 0.1933620068391701 0 0.90849364905355434 0.091506350946296292 0 0 0.87499999999950151 0 0.10409951422139101 0.81206782209691231 0 0.091506350946494744 0.90849364905351082 0 0.1249999999997731 0 0 0.19185372118111221 0.092925648673580788 0 0.091506350946417708 0.091506350946618076 0 1 0.62499999999901068 0 1 0.74999999999934042 0 0.92266244547590082 0.68749999999917555 0 0.18802967116092181 0.89415349436770275 0 0.12500000000052089 1 0 0.091506350946494744 0.90849364905351082 0 0.89051480781310632 0.79665793440246835 0 1 0.87499999999967015 0 0.90849364905363228 0.90849364905367769 0 0.12076953676380731 0.18690935762408761 0 0 0.12500000000052089 0 0.091506350946417708 0.091506350946618076 0 0.81249999999950517 0.1082531754733404 0 0.87499999999967015 0 0 0.90849364905355434 0.091506350946296292 0 0.87499999999950151 1 0 0.80886664387416207 0.89717308644237903 0 0.90849364905363228 0.90849364905367769 0 0.68668231842078242 0.24762892664808989 0 0.62499999999892575 0.17524047358135519 0 0.73983916756365475 0.17530677078674589 0 0.31281086598417152 0.10449318608631281 0 0.43749999999910871 0.1082531754729984 0 0.37500000000232431 0.17524047358384309 0 0.62499999999892575 0.17524047358135519 0 0.56250000000143974 0.2422277716920859 0 0.49999999999934441 0.1752404735815076 0 0.56249999999885147 0.1082531754730395 0 0.68749999999926592 0.1082531754732875 0 0.62499999999892575 0.17524047358135519 0 0.56249999999885147 0.1082531754730395 0 0.62499999999892575 0.17524047358135519 0 0.49999999999934441 0.1752404735815076 0 0.56250000000143974 0.2422277716920859 0 0.43750000000200551 0.24222777169198509 0 0.49999999999934441 0.1752404735815076 0 0.43749999999910871 0.1082531754729984 0 0.56249999999885147 0.1082531754730395 0 0.49999999999934441 0.1752404735815076 0 0.68668231842078242 0.24762892664808989 0 0.56250000000143974 0.2422277716920859 0 0.62499999999892575 0.17524047358135519 0 0.43750000000200551 0.24222777169198509 0 0.31411863959822661 0.24965544328045999 0 0.37500000000232431 0.17524047358384309 0 0.49999999999934441 0.1752404735815076 0 0.43750000000200551 0.24222777169198509 0 0.37500000000232431 0.17524047358384309 0 0.43749999999910871 0.1082531754729984 0 0.49999999999934441 0.1752404735815076 0 0.37500000000232431 0.17524047358384309 0 0.62499999999892575 0.17524047358135519 0 0.68749999999926592 0.1082531754732875 0 0.73983916756365475 0.17530677078674589 0 0.68749999999926592 0.1082531754732875 0 0.81249999999950517 0.1082531754733404 0 0.73983916756365475 0.17530677078674589 0 0.10409951422139101 0.81206782209691231 0 0.18802967116092181 0.89415349436770275 0 0.091506350946494744 0.90849364905351082 0 0.89658421694297741 0.1933620068391701 0 0.81249999999950517 0.1082531754733404 0 0.90849364905355434 0.091506350946296292 0 0.19185372118111221 0.092925648673580788 0 0.12076953676380731 0.18690935762408761 0 0.091506350946417708 0.091506350946618076 0 0.37500000000232431 0.17524047358384309 0 0.31411863959822661 0.24965544328045999 0 0.25103557339309318 0.17464499738446629 0 0.31281086598417152 0.10449318608631281 0 0.37500000000232431 0.17524047358384309 0 0.25103557339309318 0.17464499738446629 0 0.80886664387416207 0.89717308644237903 0 0.89051480781310632 0.79665793440246835 0 0.90849364905363228 0.90849364905367769 0 0.19185372118111221 0.092925648673580788 0 0.31281086598417152 0.10449318608631281 0 0.25103557339309318 0.17464499738446629 0 0.79891106056046712 0.25007334953587562 0 0.68668231842078242 0.24762892664808989 0 0.73983916756365475 0.17530677078674589 0 0.31411863959822661 0.24965544328045999 0 0.20767261601459541 0.25628918442207171 0 0.25103557339309318 0.17464499738446629 0 

        </DataArray>

      </Points>

      <Cells>

        <DataArray type="Int32" Name="connectivity" format="ascii">

0 1 2 3 4 5 6 7 8 9 10 11 12 13 14 15 16 17 18 19 20 21 22 23 24 25 26 27 28 29 30 31 32 33 34 35 36 37 38 39 40 41 42 43 44 45 46 47 48 49 50 51 52 53 54 55 56 57 58 59 60 61 62 63 64 65 66 67 68 69 70 71 72 73 74 75 76 77 78 79 80 81 82 83 84 85 86 87 88 89 90 91 92 93 94 95 96 97 98 99 100 101 102 103 104 105 106 107 108 109 110 111 112 113 114 115 116 117 118 119 120 121 122 123 124 125 126 127 128 129 130 131 132 133 134 135 136 137 138 139 140 141 142 143 144 145 146 147 148 149 150 151 152 153 154 155 156 157 158 159 160 161 162 163 164 165 166 167 168 169 170 171 172 173 174 175 176 177 178 179 180 181 182 183 184 185 186 187 188 189 190 191 192 193 194 195 196 197 198 199 200 201 202 203 204 205 206 207 208 209 210 211 212 213 214 215 216 217 218 219 220 221 222 223 224 225 226 227 228 229 230 231 232 233 234 235 236 237 238 239 240 241 242 243 244 245 246 247 248 249 250 251 252 253 254 255 256 257 258 259 260 261 262 263 264 265 266 267 268 269 270 271 272 273 274 275 276 277 278 279 280 281 282 283 284 285 286 287 288 289 290 291 292 293 294 295 296 297 298 299 300 301 302 303 304 305 306 307 308 309 310 311 312 313 314 315 316 317 318 319 320 321 322 323 324 325 326 327 328 329 330 331 332 333 334 335 336 337 338 339 340 341 342 343 344 345 346 347 348 349 350 351 352 353 354 355 356 357 358 359 360 361 362 363 364 365 366 367 368 369 370 371 372 373 374 375 376 377 378 379 380 381 382 383 384 385 386 387 388 389 390 391 392 393 394 395 396 397 398 399 400 401 402 403 404 405 406 407 408 409 410 411 412 413 414 415 416 417 418 419 420 421 422 423 424 425 426 427 428 429 430 431 432 433 434 435 436 437 438 439 440 441 442 443 444 445 446 447 448 449 450 451 452 453 454 455 456 457 458 459 460 461 462 463 464 465 466 467 468 469 470 471 472 473 474 475 476 477 478 479 480 481 482 483 484 485 

        </DataArray>

        <DataArray type="Int32" Name="offsets" format="ascii">

3 6 9 12 15 18 21 24 27 30 33 36 39 42 45 48 51 54 57 60 63 66 69 72 75 78 81 84 87 90 93 96 99 102 105 108 111 114 117 120 123 126 129 132 135 138 141 144 147 150 153 156 159 162 165 168 171 174 177 180 183 186 189 192 195 198 201 204 207 210 213 216 219 222 225 228 231 234 237 240 243 246 249 252 255 258 261 264 267 270 273 276 279 282 285 288 291 294 297 300 303 306 309 312 315 318 321 324 327 330 333 336 339 342 345 348 351 354 357 360 363 366 369 372 375 378 381 384 387 390 393 396 399 402 405 408 411 414 417 420 423 426 429 432 435 438 441 444 447 450 453 456 459 462 465 468 471 474 477 480 483 486 

        </DataArray>

        <DataArray type="Int32" Name="types" format="ascii">

5 5 5 5 5 5 5 5 5 5 5 5 5 5 5 5 5 5 5 5 5 5 5 5 5 5 5 5 5 5 5 5 5 5 5 5 5 5 5 5 5 5 5 5 5 5 5 5 5 5 5 5 5 5 5 5 5 5 5 5 5 5 5 5 5 5 5 5 5 5 5 5 5 5 5 5 5 5 5 5 5 5 5 5 5 5 5 5 5 5 5 5 5 5 5 5 5 5 5 5 5 5 5 5 5 5 5 5 5 5 5 5 5 5 5 5 5 5 5 5 5 5 5 5 5 5 5 5 5 5 5 5 5 5 5 5 5 5 5 5 5 5 5 5 5 5 5 5 5 5 5 5 5 5 5 5 5 5 5 5 5 5 

        </DataArray>

      </Cells>

    </Piece>

  </UnstructuredGrid>

</VTKFile>

