<?xml version="1.0"?>

<VTKFile type="UnstructuredGrid" version="0.1">

  <UnstructuredGrid>

    <Piece NumberOfPoints="486" NumberOfCells="162">

      <PointData>

        <DataArray type="Float64" Name="K" format="ascii">

9.27284629246145853e-01
9.27284629246145853e-01
9.27284629246145853e-01
9.41087379852066697e-01
9.41087379852066697e-01
9.41087379852066697e-01
1.00722075914968956e+00
1.00722075914968956e+00
1.00722075914968956e+00
1.02727475131975243e+00
1.02727475131975243e+00
1.02727475131975243e+00
9.96424602337973031e-01
9.96424602337973031e-01
9.96424602337973031e-01
1.02810076702865105e+00
1.02810076702865105e+00
1.02810076702865105e+00
9.68856487359474827e-01
9.68856487359474827e-01
9.68856487359474827e-01
1.01002619449843234e+00
1.01002619449843234e+00
1.01002619449843234e+00
9.82161636443728558e-01
9.82161636443728558e-01
9.82161636443728558e-01
1.02494047331718519e+00
1.02494047331718519e+00
1.02494047331718519e+00
1.00050714009550390e+00
1.00050714009550390e+00
1.00050714009550390e+00
9.48156418690847103e-01
9.48156418690847103e-01
9.48156418690847103e-01
1.02336267796914715e+00
1.02336267796914715e+00
1.02336267796914715e+00
1.02709194901166523e+00
1.02709194901166523e+00
1.02709194901166523e+00
9.77373692090979795e-01
9.77373692090979795e-01
9.77373692090979795e-01
9.76878955725730802e-01
9.76878955725730802e-01
9.76878955725730802e-01
9.35554954403943761e-01
9.35554954403943761e-01
9.35554954403943761e-01
9.97085469787697520e-01
9.97085469787697520e-01
9.97085469787697520e-01
9.82952546014673190e-01
9.82952546014673190e-01
9.82952546014673190e-01
9.76003827068171348e-01
9.76003827068171348e-01
9.76003827068171348e-01
9.79924276877100597e-01
9.79924276877100597e-01
9.79924276877100597e-01
9.66454997125156257e-01
9.66454997125156257e-01
9.66454997125156257e-01
9.90001810801709681e-01
9.90001810801709681e-01
9.90001810801709681e-01
1.02815726149395381e+00
1.02815726149395381e+00
1.02815726149395381e+00
9.99125757929966829e-01
9.99125757929966829e-01
9.99125757929966829e-01
1.03239056020308828e+00
1.03239056020308828e+00
1.03239056020308828e+00
1.03695058559856235e+00
1.03695058559856235e+00
1.03695058559856235e+00
9.49080664243241556e-01
9.49080664243241556e-01
9.49080664243241556e-01
9.54324964458667657e-01
9.54324964458667657e-01
9.54324964458667657e-01
9.92875940195308004e-01
9.92875940195308004e-01
9.92875940195308004e-01
9.90756232397220216e-01
9.90756232397220216e-01
9.90756232397220216e-01
9.52980466601686338e-01
9.52980466601686338e-01
9.52980466601686338e-01
9.65274672964069325e-01
9.65274672964069325e-01
9.65274672964069325e-01
1.02803242807641060e+00
1.02803242807641060e+00
1.02803242807641060e+00
1.00254249792456696e+00
1.00254249792456696e+00
1.00254249792456696e+00
9.45782568331561380e-01
9.45782568331561380e-01
9.45782568331561380e-01
1.01679265928155549e+00
1.01679265928155549e+00
1.01679265928155549e+00
9.98931364851742054e-01
9.98931364851742054e-01
9.98931364851742054e-01
1.02330403840103523e+00
1.02330403840103523e+00
1.02330403840103523e+00
9.61324654647577659e-01
9.61324654647577659e-01
9.61324654647577659e-01
1.01909248193282220e+00
1.01909248193282220e+00
1.01909248193282220e+00
9.79299714990516712e-01
9.79299714990516712e-01
9.79299714990516712e-01
1.03115121924016129e+00
1.03115121924016129e+00
1.03115121924016129e+00
1.02756810495681039e+00
1.02756810495681039e+00
1.02756810495681039e+00
9.55115681238454917e-01
9.55115681238454917e-01
9.55115681238454917e-01
1.04639673326341365e+00
1.04639673326341365e+00
1.04639673326341365e+00
9.67850073305306036e-01
9.67850073305306036e-01
9.67850073305306036e-01
9.66374633767256297e-01
9.66374633767256297e-01
9.66374633767256297e-01
9.72285788278401730e-01
9.72285788278401730e-01
9.72285788278401730e-01
1.04047364353220750e+00
1.04047364353220750e+00
1.04047364353220750e+00
9.52440531697106074e-01
9.52440531697106074e-01
9.52440531697106074e-01
9.97677789698912298e-01
9.97677789698912298e-01
9.97677789698912298e-01
1.03329937730560562e+00
1.03329937730560562e+00
1.03329937730560562e+00
9.64416321931356624e-01
9.64416321931356624e-01
9.64416321931356624e-01
9.71670130964316869e-01
9.71670130964316869e-01
9.71670130964316869e-01
9.97469517378634429e-01
9.97469517378634429e-01
9.97469517378634429e-01
9.43026454334398689e-01
9.43026454334398689e-01
9.43026454334398689e-01
1.00784564362409279e+00
1.00784564362409279e+00
1.00784564362409279e+00
1.02863840879458324e+00
1.02863840879458324e+00
1.02863840879458324e+00
1.04012612253081649e+00
1.04012612253081649e+00
1.04012612253081649e+00
1.03257043481881494e+00
1.03257043481881494e+00
1.03257043481881494e+00
9.61493141288487618e-01
9.61493141288487618e-01
9.61493141288487618e-01
9.78852377162498843e-01
9.78852377162498843e-01
9.78852377162498843e-01
9.89753021276438161e-01
9.89753021276438161e-01
9.89753021276438161e-01
9.78841239772254901e-01
9.78841239772254901e-01
9.78841239772254901e-01
1.01036226383774874e+00
1.01036226383774874e+00
1.01036226383774874e+00
1.02238169998511808e+00
1.02238169998511808e+00
1.02238169998511808e+00
9.14195131046378728e-01
9.14195131046378728e-01
9.14195131046378728e-01
1.01714581556412464e+00
1.01714581556412464e+00
1.01714581556412464e+00
1.02125603677384902e+00
1.02125603677384902e+00
1.02125603677384902e+00
9.87383135205625262e-01
9.87383135205625262e-01
9.87383135205625262e-01
1.01527135697595905e+00
1.01527135697595905e+00
1.01527135697595905e+00
9.99283325973652214e-01
9.99283325973652214e-01
9.99283325973652214e-01
1.03142897328382466e+00
1.03142897328382466e+00
1.03142897328382466e+00
9.93246701673363264e-01
9.93246701673363264e-01
9.93246701673363264e-01
1.00164377123389459e+00
1.00164377123389459e+00
1.00164377123389459e+00
1.01974800399304200e+00
1.01974800399304200e+00
1.01974800399304200e+00
1.00479389601187918e+00
1.00479389601187918e+00
1.00479389601187918e+00
1.00693443549599859e+00
1.00693443549599859e+00
1.00693443549599859e+00
1.02721495472456259e+00
1.02721495472456259e+00
1.02721495472456259e+00
1.03073286736897396e+00
1.03073286736897396e+00
1.03073286736897396e+00
1.00954094181686238e+00
1.00954094181686238e+00
1.00954094181686238e+00
9.84316985605477313e-01
9.84316985605477313e-01
9.84316985605477313e-01
9.97137577610234804e-01
9.97137577610234804e-01
9.97137577610234804e-01
9.93087623787734630e-01
9.93087623787734630e-01
9.93087623787734630e-01
1.00741873135243609e+00
1.00741873135243609e+00
1.00741873135243609e+00
1.01084373155992413e+00
1.01084373155992413e+00
1.01084373155992413e+00
9.90879091707763227e-01
9.90879091707763227e-01
9.90879091707763227e-01
9.97942180949545787e-01
9.97942180949545787e-01
9.97942180949545787e-01
9.97913580571780368e-01
9.97913580571780368e-01
9.97913580571780368e-01
9.85716318200752228e-01
9.85716318200752228e-01
9.85716318200752228e-01
9.58227936804814773e-01
9.58227936804814773e-01
9.58227936804814773e-01
9.66451508529916903e-01
9.66451508529916903e-01
9.66451508529916903e-01
8.94609379073268096e-01
8.94609379073268096e-01
8.94609379073268096e-01
9.53603098056714948e-01
9.53603098056714948e-01
9.53603098056714948e-01
1.03153810644931787e+00
1.03153810644931787e+00
1.03153810644931787e+00
1.03126467094280128e+00
1.03126467094280128e+00
1.03126467094280128e+00
1.01914011814457584e+00
1.01914011814457584e+00
1.01914011814457584e+00
1.00315564987393757e+00
1.00315564987393757e+00
1.00315564987393757e+00
1.02932601344978591e+00
1.02932601344978591e+00
1.02932601344978591e+00
9.05674601587149741e-01
9.05674601587149741e-01
9.05674601587149741e-01
9.46855925095003936e-01
9.46855925095003936e-01
9.46855925095003936e-01
1.02301078127560907e+00
1.02301078127560907e+00
1.02301078127560907e+00
9.93965244448791196e-01
9.93965244448791196e-01
9.93965244448791196e-01
1.00630113865586979e+00
1.00630113865586979e+00
1.00630113865586979e+00
9.92738537161127699e-01
9.92738537161127699e-01
9.92738537161127699e-01
9.49367339548241262e-01
9.49367339548241262e-01
9.49367339548241262e-01
1.02796006091537162e+00
1.02796006091537162e+00
1.02796006091537162e+00
1.02259134742612989e+00
1.02259134742612989e+00
1.02259134742612989e+00
9.89272942475834971e-01
9.89272942475834971e-01
9.89272942475834971e-01
1.01867329873684720e+00
1.01867329873684720e+00
1.01867329873684720e+00
1.03248873700841282e+00
1.03248873700841282e+00
1.03248873700841282e+00
1.03113911767813793e+00
1.03113911767813793e+00
1.03113911767813793e+00
9.23426531728156696e-01
9.23426531728156696e-01
9.23426531728156696e-01
1.02183598365568362e+00
1.02183598365568362e+00
1.02183598365568362e+00
1.00897207469423456e+00
1.00897207469423456e+00
1.00897207469423456e+00
1.03358783627619344e+00
1.03358783627619344e+00
1.03358783627619344e+00
1.03962311862581869e+00
1.03962311862581869e+00
1.03962311862581869e+00
1.03149642821497189e+00
1.03149642821497189e+00
1.03149642821497189e+00
9.48235550909266145e-01
9.48235550909266145e-01
9.48235550909266145e-01
1.01349700389077957e+00
1.01349700389077957e+00
1.01349700389077957e+00
9.82168045226064934e-01
9.82168045226064934e-01
9.82168045226064934e-01
9.71103242093577457e-01
9.71103242093577457e-01
9.71103242093577457e-01
9.95496998476246175e-01
9.95496998476246175e-01
9.95496998476246175e-01
1.02566362603600769e+00
1.02566362603600769e+00
1.02566362603600769e+00
9.83606606960873209e-01
9.83606606960873209e-01
9.83606606960873209e-01
9.71356540897478804e-01
9.71356540897478804e-01
9.71356540897478804e-01
1.02632565167571843e+00
1.02632565167571843e+00
1.02632565167571843e+00
1.02363245476458964e+00
1.02363245476458964e+00
1.02363245476458964e+00
1.01368195922493842e+00
1.01368195922493842e+00
1.01368195922493842e+00
9.62639600797951300e-01
9.62639600797951300e-01
9.62639600797951300e-01
1.03090702602479611e+00
1.03090702602479611e+00
1.03090702602479611e+00
9.08505525863113506e-01
9.08505525863113506e-01
9.08505525863113506e-01
9.73860181886871401e-01
9.73860181886871401e-01
9.73860181886871401e-01
1.03620366777082640e+00
1.03620366777082640e+00
1.03620366777082640e+00
9.51041425464583701e-01
9.51041425464583701e-01
9.51041425464583701e-01
1.02563113283252183e+00
1.02563113283252183e+00
1.02563113283252183e+00
1.01923551168172244e+00
1.01923551168172244e+00
1.01923551168172244e+00
1.03154548498733978e+00
1.03154548498733978e+00
1.03154548498733978e+00
1.02372489052755022e+00
1.02372489052755022e+00
1.02372489052755022e+00
1.01508359109081447e+00
1.01508359109081447e+00
1.01508359109081447e+00
9.64704612142906592e-01
9.64704612142906592e-01
9.64704612142906592e-01
9.71887028229122540e-01
9.71887028229122540e-01
9.71887028229122540e-01
9.84100963340014512e-01
9.84100963340014512e-01
9.84100963340014512e-01
9.63680968604295418e-01
9.63680968604295418e-01
9.63680968604295418e-01
9.73583815922762330e-01
9.73583815922762330e-01
9.73583815922762330e-01
9.55820072918809993e-01
9.55820072918809993e-01
9.55820072918809993e-01
9.92954681385550209e-01
9.92954681385550209e-01
9.92954681385550209e-01
9.73295277043369378e-01
9.73295277043369378e-01
9.73295277043369378e-01
9.71330896178661640e-01
9.71330896178661640e-01
9.71330896178661640e-01
9.64599740573149234e-01
9.64599740573149234e-01
9.64599740573149234e-01
1.01479530394099959e+00
1.01479530394099959e+00
1.01479530394099959e+00
1.03533502921989884e+00
1.03533502921989884e+00
1.03533502921989884e+00
9.30130212621045560e-01
9.30130212621045560e-01
9.30130212621045560e-01
1.03064266681957761e+00
1.03064266681957761e+00
1.03064266681957761e+00
9.79003591192399991e-01
9.79003591192399991e-01
9.79003591192399991e-01
9.60990599486262531e-01
9.60990599486262531e-01
9.60990599486262531e-01
9.56697251974338636e-01
9.56697251974338636e-01
9.56697251974338636e-01
1.02035431770627860e+00
1.02035431770627860e+00
1.02035431770627860e+00
9.46787953563272389e-01
9.46787953563272389e-01
9.46787953563272389e-01
1.03028893446282477e+00
1.03028893446282477e+00
1.03028893446282477e+00
9.60005951222796972e-01
9.60005951222796972e-01
9.60005951222796972e-01


        </DataArray>

      </PointData>

      <CellData/>

      <Points>

        <DataArray type="Float64" NumberOfComponents="3" format="ascii">

0.1082531754723032 0.6875000000007816 0 0.23533274979922561 0.77093399389351469 0 0.10409951422139101 0.81206782209691231 0 0.23533274979922561 0.77093399389351469 0 0.1082531754723032 0.6875000000007816 0 0.21809253452218619 0.65480892822618109 0 0.24418615484441761 0.35773612382016978 0 0.121259140952891 0.43112117036853742 0 0.1082531754734323 0.31250000000117473 0 0.75000000000057243 0.35048094716480432 0 0.88173731489851925 0.33077402607778361 0 0.81242894672211508 0.45500248311961472 0 0.121259140952891 0.43112117036853742 0 0.24418615484441761 0.35773612382016978 0 0.22257735880419699 0.47344721641341742 0 0.81242894672211508 0.45500248311961472 0 0.88173731489851925 0.33077402607778361 0 0.915464298762109 0.43749999999886913 0 0 0.62500000000121547 0 0 0.50000000000206146 0 0.1371230538040123 0.56179824718362847 0 0.82212678063041267 0.67678595194836966 0 0.89051480781310632 0.79665793440246835 0 0.76243180583607129 0.78687675331113149 0 0.76243180583607129 0.78687675331113149 0 0.69010814643829166 0.89298495739101336 0 0.62844955668446423 0.7850749770380413 0 0.89051480781310632 0.79665793440246835 0 0.82212678063041267 0.67678595194836966 0 0.92266244547590082 0.68749999999917555 0 0 0.50000000000206146 0 0.121259140952891 0.43112117036853742 0 0.1371230538040123 0.56179824718362847 0 0.1082531754723032 0.6875000000007816 0 0 0.62500000000121547 0 0.1371230538040123 0.56179824718362847 0 0.75000000000032374 0.56698729811007709 0 0.88927506082488361 0.56409486310635837 0 0.82212678063041267 0.67678595194836966 0 0.81242894672211508 0.45500248311961472 0 0.88927506082488361 0.56409486310635837 0 0.75000000000032374 0.56698729811007709 0 0.69851598570178741 0.68211701800612057 0 0.56496004948275869 0.67675037307860475 0 0.62752533658682441 0.56838075195614346 0 0.69851598570178741 0.68211701800612057 0 0.76243180583607129 0.78687675331113149 0 0.62844955668446423 0.7850749770380413 0 0.23533274979922561 0.77093399389351469 0 0.18802967116092181 0.89415349436770275 0 0.10409951422139101 0.81206782209691231 0 0.121259140952891 0.43112117036853742 0 0.22257735880419699 0.47344721641341742 0 0.1371230538040123 0.56179824718362847 0 0.75000000000032374 0.56698729811007709 0 0.69851598570178741 0.68211701800612057 0 0.62752533658682441 0.56838075195614346 0 0.56496004948275869 0.67675037307860475 0 0.69851598570178741 0.68211701800612057 0 0.62844955668446423 0.7850749770380413 0 0.1371230538040123 0.56179824718362847 0 0.22257735880419699 0.47344721641341742 0 0.26982811998763367 0.56544650815856912 0 0.21809253452218619 0.65480892822618109 0 0.1371230538040123 0.56179824718362847 0 0.26982811998763367 0.56544650815856912 0 0.24418615484441761 0.35773612382016978 0 0.1082531754734323 0.31250000000117473 0 0.20767261601459541 0.25628918442207171 0 0.88173731489851925 0.33077402607778361 0 0.75000000000057243 0.35048094716480432 0 0.79891106056046712 0.25007334953587562 0 0.75000000000032374 0.56698729811007709 0 0.82212678063041267 0.67678595194836966 0 0.69851598570178741 0.68211701800612057 0 0.81249999999950517 0.1082531754733404 0 0.89658421694297741 0.1933620068391701 0 0.79891106056046712 0.25007334953587562 0 0.81249999999950517 0.1082531754733404 0 0.79891106056046712 0.25007334953587562 0 0.73983916756365475 0.17530677078674589 0 0.23533274979922561 0.77093399389351469 0 0.21809253452218619 0.65480892822618109 0 0.32607333794064219 0.67760114260606152 0 0.1082531754723032 0.6875000000007816 0 0.1371230538040123 0.56179824718362847 0 0.21809253452218619 0.65480892822618109 0 0.69851598570178741 0.68211701800612057 0 0.82212678063041267 0.67678595194836966 0 0.76243180583607129 0.78687675331113149 0 0.69010814643829166 0.89298495739101336 0 0.76243180583607129 0.78687675331113149 0 0.80886664387416207 0.89717308644237903 0 0.43750000000181222 0.89174682452709564 0 0.31258827852827581 0.89214793616708443 0 0.37776173212361452 0.78514649317305008 0 0.43750000000181222 0.89174682452709564 0 0.37500000000156292 1 0 0.31258827852827581 0.89214793616708443 0 0.121259140952891 0.43112117036853742 0 0 0.37500000000156292 0 0.1082531754734323 0.31250000000117473 0 0.50000000000206146 1 0 0.37500000000156292 1 0 0.43750000000181222 0.89174682452709564 0 0.31258827852827581 0.89214793616708443 0 0.18802967116092181 0.89415349436770275 0 0.23533274979922561 0.77093399389351469 0 0 0.50000000000206146 0 0 0.37500000000156292 0 0.121259140952891 0.43112117036853742 0 0.62844955668446423 0.7850749770380413 0 0.69010814643829166 0.89298495739101336 0 0.56327595140699671 0.89211526915426331 0 0.69010814643829166 0.89298495739101336 0 0.62500000000121547 1 0 0.56327595140699671 0.89211526915426331 0 0.25000000000104189 1 0 0.18802967116092181 0.89415349436770275 0 0.31258827852827581 0.89214793616708443 0 0.50000000000206146 1 0 0.43750000000181222 0.89174682452709564 0 0.56327595140699671 0.89211526915426331 0 0.56249999999885147 0.1082531754730395 0 0.62499999999901068 0 0 0.68749999999926592 0.1082531754732875 0 1 0.49999999999869221 0 1 0.62499999999901068 0 0.88927506082488361 0.56409486310635837 0 0 0.25000000000104189 0 0.12076953676380731 0.18690935762408761 0 0.1082531754734323 0.31250000000117473 0 0.49999999999869221 0 0 0.62499999999901068 0 0 0.56249999999885147 0.1082531754730395 0 0.62500000000121547 1 0 0.50000000000206146 1 0 0.56327595140699671 0.89211526915426331 0 0.37500000000156292 1 0 0.25000000000104189 1 0 0.31258827852827581 0.89214793616708443 0 0.31281086598417152 0.10449318608631281 0 0.37499999999904599 0 0 0.43749999999910871 0.1082531754729984 0 0.43750000000181222 0.89174682452709564 0 0.37776173212361452 0.78514649317305008 0 0.50046028868828263 0.78376912307435687 0 0 0.37500000000156292 0 0 0.25000000000104189 0 0.1082531754734323 0.31250000000117473 0 0.49999999999869221 0 0 0.56249999999885147 0.1082531754730395 0 0.43749999999910871 0.1082531754729984 0 0.43750000000181222 0.89174682452709564 0 0.50046028868828263 0.78376912307435687 0 0.56327595140699671 0.89211526915426331 0 0.74999999999934042 0 0 0.81249999999950517 0.1082531754733404 0 0.68749999999926592 0.1082531754732875 0 0.37499999999904599 0 0 0.49999999999869221 0 0 0.43749999999910871 0.1082531754729984 0 0.25000000000104189 1 0 0.12500000000052089 1 0 0.18802967116092181 0.89415349436770275 0 0.50046028868828263 0.78376912307435687 0 0.62844955668446423 0.7850749770380413 0 0.56327595140699671 0.89211526915426331 0 0.37776173212361452 0.78514649317305008 0 0.31258827852827581 0.89214793616708443 0 0.23533274979922561 0.77093399389351469 0 0.62499999999901068 0 0 0.74999999999934042 0 0 0.68749999999926592 0.1082531754732875 0 1 0.74999999999934042 0 1 0.87499999999967015 0 0.89051480781310632 0.79665793440246835 0 0 0.25000000000104189 0 0 0.12500000000052089 0 0.12076953676380731 0.18690935762408761 0 0.74999999999934042 0 0 0.87499999999967015 0 0 0.81249999999950517 0.1082531754733404 0 0.24999999999941069 0 0 0.37499999999904599 0 0 0.31281086598417152 0.10449318608631281 0 0.50046028868828263 0.78376912307435687 0 0.37776173212361452 0.78514649317305008 0 0.44078402250377968 0.67714785211715212 0 0.68768773896438518 0.4586835206367198 0 0.75000000000032374 0.56698729811007709 0 0.62752533658682441 0.56838075195614346 0 0.31411863959822661 0.24965544328045999 0 0.37953773393552892 0.34812185820708452 0 0.24418615484441761 0.35773612382016978 0 0.68768773896438518 0.4586835206367198 0 0.81242894672211508 0.45500248311961472 0 0.75000000000032374 0.56698729811007709 0 1 0.24999999999941069 0 1 0.37499999999904599 0 0.88173731489851925 0.33077402607778361 0 0 0.75000000000034761 0 0 0.62500000000121547 0 0.1082531754723032 0.6875000000007816 0 0.50048844149666749 0.56727788297625459 0 0.44078402250377968 0.67714785211715212 0 0.38694285807596462 0.5672991787102919 0 0.50108503093851109 0.35012252869403671 0 0.44301038174930041 0.45684931552185398 0 0.37953773393552892 0.34812185820708452 0 0.50046028868828263 0.78376912307435687 0 0.56496004948275869 0.67675037307860475 0 0.62844955668446423 0.7850749770380413 0 0.68768773896438518 0.4586835206367198 0 0.75000000000057243 0.35048094716480432 0 0.81242894672211508 0.45500248311961472 0 0.56349980387502452 0.45846841892908402 0 0.62512662990940393 0.35044303886909911 0 0.68768773896438518 0.4586835206367198 0 0.50048844149666749 0.56727788297625459 0 0.38694285807596462 0.5672991787102919 0 0.44301038174930041 0.45684931552185398 0 0.50046028868828263 0.78376912307435687 0 0.44078402250377968 0.67714785211715212 0 0.56496004948275869 0.67675037307860475 0 0.50108503093851109 0.35012252869403671 0 0.37953773393552892 0.34812185820708452 0 0.43750000000200551 0.24222777169198509 0 0.75000000000034761 1 0 0.62500000000121547 1 0 0.69010814643829166 0.89298495739101336 0 0.68768773896438518 0.4586835206367198 0 0.62512662990940393 0.35044303886909911 0 0.75000000000057243 0.35048094716480432 0 0.56496004948275869 0.67675037307860475 0 0.44078402250377968 0.67714785211715212 0 0.50048844149666749 0.56727788297625459 0 0.56349980387502452 0.45846841892908402 0 0.44301038174930041 0.45684931552185398 0 0.50108503093851109 0.35012252869403671 0 0.50048844149666749 0.56727788297625459 0 0.44301038174930041 0.45684931552185398 0 0.56349980387502452 0.45846841892908402 0 0.56349980387502452 0.45846841892908402 0 0.50108503093851109 0.35012252869403671 0 0.62512662990940393 0.35044303886909911 0 0.43750000000200551 0.24222777169198509 0 0.37953773393552892 0.34812185820708452 0 0.31411863959822661 0.24965544328045999 0 0.56496004948275869 0.67675037307860475 0 0.50048844149666749 0.56727788297625459 0 0.62752533658682441 0.56838075195614346 0 0.56349980387502452 0.45846841892908402 0 0.68768773896438518 0.4586835206367198 0 0.62752533658682441 0.56838075195614346 0 0.50048844149666749 0.56727788297625459 0 0.56349980387502452 0.45846841892908402 0 0.62752533658682441 0.56838075195614346 0 0.75000000000057243 0.35048094716480432 0 0.62512662990940393 0.35044303886909911 0 0.68668231842078242 0.24762892664808989 0 0.50108503093851109 0.35012252869403671 0 0.43750000000200551 0.24222777169198509 0 0.56250000000143974 0.2422277716920859 0 0.62512662990940393 0.35044303886909911 0 0.50108503093851109 0.35012252869403671 0 0.56250000000143974 0.2422277716920859 0 0.68668231842078242 0.24762892664808989 0 0.62512662990940393 0.35044303886909911 0 0.56250000000143974 0.2422277716920859 0 0.22257735880419699 0.47344721641341742 0 0.24418615484441761 0.35773612382016978 0 0.32815957677880009 0.4577243358118348 0 0.12076953676380731 0.18690935762408761 0 0.19185372118111221 0.092925648673580788 0 0.25103557339309318 0.17464499738446629 0 0.20767261601459541 0.25628918442207171 0 0.12076953676380731 0.18690935762408761 0 0.25103557339309318 0.17464499738446629 0 0 0.87499999999950151 0 0 0.75000000000034761 0 0.10409951422139101 0.81206782209691231 0 0.1249999999997731 0 0 0.24999999999941069 0 0 0.19185372118111221 0.092925648673580788 0 1 0.1249999999997731 0 1 0.24999999999941069 0 0.89658421694297741 0.1933620068391701 0 0.88927506082488361 0.56409486310635837 0 0.81242894672211508 0.45500248311961472 0 0.915464298762109 0.43749999999886913 0 0.87499999999950151 1 0 0.75000000000034761 1 0 0.80886664387416207 0.89717308644237903 0 0.75000000000034761 1 0 0.69010814643829166 0.89298495739101336 0 0.80886664387416207 0.89717308644237903 0 0.82212678063041267 0.67678595194836966 0 0.88927506082488361 0.56409486310635837 0 0.92266244547590082 0.68749999999917555 0 0 0.75000000000034761 0 0.1082531754723032 0.6875000000007816 0 0.10409951422139101 0.81206782209691231 0 0.24999999999941069 0 0 0.31281086598417152 0.10449318608631281 0 0.19185372118111221 0.092925648673580788 0 1 0.24999999999941069 0 0.88173731489851925 0.33077402607778361 0 0.89658421694297741 0.1933620068391701 0 0.32815957677880009 0.4577243358118348 0 0.38694285807596462 0.5672991787102919 0 0.26982811998763367 0.56544650815856912 0 0.76243180583607129 0.78687675331113149 0 0.89051480781310632 0.79665793440246835 0 0.80886664387416207 0.89717308644237903 0 0.38694285807596462 0.5672991787102919 0 0.44078402250377968 0.67714785211715212 0 0.32607333794064219 0.67760114260606152 0 0.37776173212361452 0.78514649317305008 0 0.23533274979922561 0.77093399389351469 0 0.32607333794064219 0.67760114260606152 0 1 0.49999999999869221 0 0.88927506082488361 0.56409486310635837 0 0.915464298762109 0.43749999999886913 0 0.88173731489851925 0.33077402607778361 0 1 0.37499999999904599 0 0.915464298762109 0.43749999999886913 0 0.24418615484441761 0.35773612382016978 0 0.37953773393552892 0.34812185820708452 0 0.32815957677880009 0.4577243358118348 0 0.44301038174930041 0.45684931552185398 0 0.38694285807596462 0.5672991787102919 0 0.32815957677880009 0.4577243358118348 0 0.88927506082488361 0.56409486310635837 0 1 0.62499999999901068 0 0.92266244547590082 0.68749999999917555 0 1 0.74999999999934042 0 0.89051480781310632 0.79665793440246835 0 0.92266244547590082 0.68749999999917555 0 0 1 0 0 0.87499999999950151 0 0.091506350946494744 0.90849364905351082 0 1 1 0 0.87499999999950151 1 0 0.90849364905363228 0.90849364905367769 0 0 0 0 0.1249999999997731 0 0 0.091506350946417708 0.091506350946618076 0 0 0.12500000000052089 0 0 0 0 0.091506350946417708 0.091506350946618076 0 1 0 0 1 0.1249999999997731 0 0.90849364905355434 0.091506350946296292 0 0.87499999999967015 0 0 1 0 0 0.90849364905355434 0.091506350946296292 0 0.12500000000052089 1 0 0 1 0 0.091506350946494744 0.90849364905351082 0 1 0.87499999999967015 0 1 1 0 0.90849364905363228 0.90849364905367769 0 0.38694285807596462 0.5672991787102919 0 0.32607333794064219 0.67760114260606152 0 0.26982811998763367 0.56544650815856912 0 0.31411863959822661 0.24965544328045999 0 0.24418615484441761 0.35773612382016978 0 0.20767261601459541 0.25628918442207171 0 0.1082531754734323 0.31250000000117473 0 0.12076953676380731 0.18690935762408761 0 0.20767261601459541 0.25628918442207171 0 0.75000000000057243 0.35048094716480432 0 0.68668231842078242 0.24762892664808989 0 0.79891106056046712 0.25007334953587562 0 0.22257735880419699 0.47344721641341742 0 0.32815957677880009 0.4577243358118348 0 0.26982811998763367 0.56544650815856912 0 0.44078402250377968 0.67714785211715212 0 0.37776173212361452 0.78514649317305008 0 0.32607333794064219 0.67760114260606152 0 0.89658421694297741 0.1933620068391701 0 0.88173731489851925 0.33077402607778361 0 0.79891106056046712 0.25007334953587562 0 1 0.37499999999904599 0 1 0.49999999999869221 0 0.915464298762109 0.43749999999886913 0 0.37953773393552892 0.34812185820708452 0 0.44301038174930041 0.45684931552185398 0 0.32815957677880009 0.4577243358118348 0 0.32607333794064219 0.67760114260606152 0 0.21809253452218619 0.65480892822618109 0 0.26982811998763367 0.56544650815856912 0 1 0.1249999999997731 0 0.89658421694297741 0.1933620068391701 0 0.90849364905355434 0.091506350946296292 0 0 0.87499999999950151 0 0.10409951422139101 0.81206782209691231 0 0.091506350946494744 0.90849364905351082 0 0.1249999999997731 0 0 0.19185372118111221 0.092925648673580788 0 0.091506350946417708 0.091506350946618076 0 1 0.62499999999901068 0 1 0.74999999999934042 0 0.92266244547590082 0.68749999999917555 0 0.18802967116092181 0.89415349436770275 0 0.12500000000052089 1 0 0.091506350946494744 0.90849364905351082 0 0.89051480781310632 0.79665793440246835 0 1 0.87499999999967015 0 0.90849364905363228 0.90849364905367769 0 0.12076953676380731 0.18690935762408761 0 0 0.12500000000052089 0 0.091506350946417708 0.091506350946618076 0 0.81249999999950517 0.1082531754733404 0 0.87499999999967015 0 0 0.90849364905355434 0.091506350946296292 0 0.87499999999950151 1 0 0.80886664387416207 0.89717308644237903 0 0.90849364905363228 0.90849364905367769 0 0.68668231842078242 0.24762892664808989 0 0.62499999999892575 0.17524047358135519 0 0.73983916756365475 0.17530677078674589 0 0.31281086598417152 0.10449318608631281 0 0.43749999999910871 0.1082531754729984 0 0.37500000000232431 0.17524047358384309 0 0.62499999999892575 0.17524047358135519 0 0.56250000000143974 0.2422277716920859 0 0.49999999999934441 0.1752404735815076 0 0.56249999999885147 0.1082531754730395 0 0.68749999999926592 0.1082531754732875 0 0.62499999999892575 0.17524047358135519 0 0.56249999999885147 0.1082531754730395 0 0.62499999999892575 0.17524047358135519 0 0.49999999999934441 0.1752404735815076 0 0.56250000000143974 0.2422277716920859 0 0.43750000000200551 0.24222777169198509 0 0.49999999999934441 0.1752404735815076 0 0.43749999999910871 0.1082531754729984 0 0.56249999999885147 0.1082531754730395 0 0.49999999999934441 0.1752404735815076 0 0.68668231842078242 0.24762892664808989 0 0.56250000000143974 0.2422277716920859 0 0.62499999999892575 0.17524047358135519 0 0.43750000000200551 0.24222777169198509 0 0.31411863959822661 0.24965544328045999 0 0.37500000000232431 0.17524047358384309 0 0.49999999999934441 0.1752404735815076 0 0.43750000000200551 0.24222777169198509 0 0.37500000000232431 0.17524047358384309 0 0.43749999999910871 0.1082531754729984 0 0.49999999999934441 0.1752404735815076 0 0.37500000000232431 0.17524047358384309 0 0.62499999999892575 0.17524047358135519 0 0.68749999999926592 0.1082531754732875 0 0.73983916756365475 0.17530677078674589 0 0.68749999999926592 0.1082531754732875 0 0.81249999999950517 0.1082531754733404 0 0.73983916756365475 0.17530677078674589 0 0.10409951422139101 0.81206782209691231 0 0.18802967116092181 0.89415349436770275 0 0.091506350946494744 0.90849364905351082 0 0.89658421694297741 0.1933620068391701 0 0.81249999999950517 0.1082531754733404 0 0.90849364905355434 0.091506350946296292 0 0.19185372118111221 0.092925648673580788 0 0.12076953676380731 0.18690935762408761 0 0.091506350946417708 0.091506350946618076 0 0.37500000000232431 0.17524047358384309 0 0.31411863959822661 0.24965544328045999 0 0.25103557339309318 0.17464499738446629 0 0.31281086598417152 0.10449318608631281 0 0.37500000000232431 0.17524047358384309 0 0.25103557339309318 0.17464499738446629 0 0.80886664387416207 0.89717308644237903 0 0.89051480781310632 0.79665793440246835 0 0.90849364905363228 0.90849364905367769 0 0.19185372118111221 0.092925648673580788 0 0.31281086598417152 0.10449318608631281 0 0.25103557339309318 0.17464499738446629 0 0.79891106056046712 0.25007334953587562 0 0.68668231842078242 0.24762892664808989 0 0.73983916756365475 0.17530677078674589 0 0.31411863959822661 0.24965544328045999 0 0.20767261601459541 0.25628918442207171 0 0.25103557339309318 0.17464499738446629 0 

        </DataArray>

      </Points>

      <Cells>

        <DataArray type="Int32" Name="connectivity" format="ascii">

0 1 2 3 4 5 6 7 8 9 10 11 12 13 14 15 16 17 18 19 20 21 22 23 24 25 26 27 28 29 30 31 32 33 34 35 36 37 38 39 40 41 42 43 44 45 46 47 48 49 50 51 52 53 54 55 56 57 58 59 60 61 62 63 64 65 66 67 68 69 70 71 72 73 74 75 76 77 78 79 80 81 82 83 84 85 86 87 88 89 90 91 92 93 94 95 96 97 98 99 100 101 102 103 104 105 106 107 108 109 110 111 112 113 114 115 116 117 118 119 120 121 122 123 124 125 126 127 128 129 130 131 132 133 134 135 136 137 138 139 140 141 142 143 144 145 146 147 148 149 150 151 152 153 154 155 156 157 158 159 160 161 162 163 164 165 166 167 168 169 170 171 172 173 174 175 176 177 178 179 180 181 182 183 184 185 186 187 188 189 190 191 192 193 194 195 196 197 198 199 200 201 202 203 204 205 206 207 208 209 210 211 212 213 214 215 216 217 218 219 220 221 222 223 224 225 226 227 228 229 230 231 232 233 234 235 236 237 238 239 240 241 242 243 244 245 246 247 248 249 250 251 252 253 254 255 256 257 258 259 260 261 262 263 264 265 266 267 268 269 270 271 272 273 274 275 276 277 278 279 280 281 282 283 284 285 286 287 288 289 290 291 292 293 294 295 296 297 298 299 300 301 302 303 304 305 306 307 308 309 310 311 312 313 314 315 316 317 318 319 320 321 322 323 324 325 326 327 328 329 330 331 332 333 334 335 336 337 338 339 340 341 342 343 344 345 346 347 348 349 350 351 352 353 354 355 356 357 358 359 360 361 362 363 364 365 366 367 368 369 370 371 372 373 374 375 376 377 378 379 380 381 382 383 384 385 386 387 388 389 390 391 392 393 394 395 396 397 398 399 400 401 402 403 404 405 406 407 408 409 410 411 412 413 414 415 416 417 418 419 420 421 422 423 424 425 426 427 428 429 430 431 432 433 434 435 436 437 438 439 440 441 442 443 444 445 446 447 448 449 450 451 452 453 454 455 456 457 458 459 460 461 462 463 464 465 466 467 468 469 470 471 472 473 474 475 476 477 478 479 480 481 482 483 484 485 

        </DataArray>

        <DataArray type="Int32" Name="offsets" format="ascii">

3 6 9 12 15 18 21 24 27 30 33 36 39 42 45 48 51 54 57 60 63 66 69 72 75 78 81 84 87 90 93 96 99 102 105 108 111 114 117 120 123 126 129 132 135 138 141 144 147 150 153 156 159 162 165 168 171 174 177 180 183 186 189 192 195 198 201 204 207 210 213 216 219 222 225 228 231 234 237 240 243 246 249 252 255 258 261 264 267 270 273 276 279 282 285 288 291 294 297 300 303 306 309 312 315 318 321 324 327 330 333 336 339 342 345 348 351 354 357 360 363 366 369 372 375 378 381 384 387 390 393 396 399 402 405 408 411 414 417 420 423 426 429 432 435 438 441 444 447 450 453 456 459 462 465 468 471 474 477 480 483 486 

        </DataArray>

        <DataArray type="Int32" Name="types" format="ascii">

5 5 5 5 5 5 5 5 5 5 5 5 5 5 5 5 5 5 5 5 5 5 5 5 5 5 5 5 5 5 5 5 5 5 5 5 5 5 5 5 5 5 5 5 5 5 5 5 5 5 5 5 5 5 5 5 5 5 5 5 5 5 5 5 5 5 5 5 5 5 5 5 5 5 5 5 5 5 5 5 5 5 5 5 5 5 5 5 5 5 5 5 5 5 5 5 5 5 5 5 5 5 5 5 5 5 5 5 5 5 5 5 5 5 5 5 5 5 5 5 5 5 5 5 5 5 5 5 5 5 5 5 5 5 5 5 5 5 5 5 5 5 5 5 5 5 5 5 5 5 5 5 5 5 5 5 5 5 5 5 5 5 

        </DataArray>

      </Cells>

    </Piece>

  </UnstructuredGrid>

</VTKFile>

