<?xml version="1.0"?>

<VTKFile type="UnstructuredGrid" version="0.1">

  <UnstructuredGrid>

    <Piece NumberOfPoints="486" NumberOfCells="162">

      <PointData>

        <DataArray type="Float64" Name="K" format="ascii">

9.84741858176037765e-01
9.84741858176037765e-01
9.84741858176037765e-01
9.69071090592109607e-01
9.69071090592109607e-01
9.69071090592109607e-01
9.81290357631701804e-01
9.81290357631701804e-01
9.81290357631701804e-01
9.78016663128792874e-01
9.78016663128792874e-01
9.78016663128792874e-01
9.75932734845601058e-01
9.75932734845601058e-01
9.75932734845601058e-01
9.43273473544298913e-01
9.43273473544298913e-01
9.43273473544298913e-01
9.47059026875279986e-01
9.47059026875279986e-01
9.47059026875279986e-01
1.08911469838183006e+00
1.08911469838183006e+00
1.08911469838183006e+00
1.03991328582987785e+00
1.03991328582987785e+00
1.03991328582987785e+00
1.09610465251742761e+00
1.09610465251742761e+00
1.09610465251742761e+00
9.71825792922903942e-01
9.71825792922903942e-01
9.71825792922903942e-01
9.69271045353983673e-01
9.69271045353983673e-01
9.69271045353983673e-01
9.92999631169753649e-01
9.92999631169753649e-01
9.92999631169753649e-01
9.61359328457783158e-01
9.61359328457783158e-01
9.61359328457783158e-01
9.60880627119186315e-01
9.60880627119186315e-01
9.60880627119186315e-01
9.93650574084887328e-01
9.93650574084887328e-01
9.93650574084887328e-01
9.68682165616450597e-01
9.68682165616450597e-01
9.68682165616450597e-01
9.82377982255927207e-01
9.82377982255927207e-01
9.82377982255927207e-01
9.39861504755162724e-01
9.39861504755162724e-01
9.39861504755162724e-01
9.80097735810778636e-01
9.80097735810778636e-01
9.80097735810778636e-01
9.77473411694317673e-01
9.77473411694317673e-01
9.77473411694317673e-01
9.70900252369855776e-01
9.70900252369855776e-01
9.70900252369855776e-01
9.68338876442165764e-01
9.68338876442165764e-01
9.68338876442165764e-01
1.00255942390372366e+00
1.00255942390372366e+00
1.00255942390372366e+00
9.67936901116023374e-01
9.67936901116023374e-01
9.67936901116023374e-01
1.00722990936413259e+00
1.00722990936413259e+00
1.00722990936413259e+00
1.01330424539488773e+00
1.01330424539488773e+00
1.01330424539488773e+00
9.12161276292258627e-01
9.12161276292258627e-01
9.12161276292258627e-01
9.88477157150451147e-01
9.88477157150451147e-01
9.88477157150451147e-01
1.01234914739958604e+00
1.01234914739958604e+00
1.01234914739958604e+00
1.08585047320346817e+00
1.08585047320346817e+00
1.08585047320346817e+00
9.90577517847810896e-01
9.90577517847810896e-01
9.90577517847810896e-01
1.01953955814553021e+00
1.01953955814553021e+00
1.01953955814553021e+00
1.01546110239621434e+00
1.01546110239621434e+00
1.01546110239621434e+00
1.04360997735569772e+00
1.04360997735569772e+00
1.04360997735569772e+00
9.52712526122214576e-01
9.52712526122214576e-01
9.52712526122214576e-01
9.90981748979741006e-01
9.90981748979741006e-01
9.90981748979741006e-01
1.05703228859830944e+00
1.05703228859830944e+00
1.05703228859830944e+00
1.09742887839499814e+00
1.09742887839499814e+00
1.09742887839499814e+00
9.92829235415541800e-01
9.92829235415541800e-01
9.92829235415541800e-01
1.07189532998550541e+00
1.07189532998550541e+00
1.07189532998550541e+00
9.89669311687559783e-01
9.89669311687559783e-01
9.89669311687559783e-01
1.02464154418924336e+00
1.02464154418924336e+00
1.02464154418924336e+00
1.05541722373114455e+00
1.05541722373114455e+00
1.05541722373114455e+00
9.88489968567158650e-01
9.88489968567158650e-01
9.88489968567158650e-01
1.10160734568239937e+00
1.10160734568239937e+00
1.10160734568239937e+00
1.02037617147656379e+00
1.02037617147656379e+00
1.02037617147656379e+00
9.74556019093501757e-01
9.74556019093501757e-01
9.74556019093501757e-01
1.02074834036499396e+00
1.02074834036499396e+00
1.02074834036499396e+00
1.05310107751106652e+00
1.05310107751106652e+00
1.05310107751106652e+00
9.97250339692886900e-01
9.97250339692886900e-01
9.97250339692886900e-01
1.06143072432675045e+00
1.06143072432675045e+00
1.06143072432675045e+00
9.87019071835501083e-01
9.87019071835501083e-01
9.87019071835501083e-01
9.78497062921471761e-01
9.78497062921471761e-01
9.78497062921471761e-01
9.90295592406314595e-01
9.90295592406314595e-01
9.90295592406314595e-01
1.05110124785775416e+00
1.05110124785775416e+00
1.05110124785775416e+00
9.32622764019482964e-01
9.32622764019482964e-01
9.32622764019482964e-01
9.93704564343468211e-01
9.93704564343468211e-01
9.93704564343468211e-01
1.06068493211759618e+00
1.06068493211759618e+00
1.06068493211759618e+00
1.06521910116189300e+00
1.06521910116189300e+00
1.06521910116189300e+00
9.72316602865068824e-01
9.72316602865068824e-01
9.72316602865068824e-01
9.61890737179032396e-01
9.61890737179032396e-01
9.61890737179032396e-01
9.90318814078902654e-01
9.90318814078902654e-01
9.90318814078902654e-01
9.46685129859070162e-01
9.46685129859070162e-01
9.46685129859070162e-01
1.00290292440998163e+00
1.00290292440998163e+00
1.00290292440998163e+00
9.56221424459787084e-01
9.56221424459787084e-01
9.56221424459787084e-01
9.26077678580490615e-01
9.26077678580490615e-01
9.26077678580490615e-01
9.55309843442618156e-01
9.55309843442618156e-01
9.55309843442618156e-01
9.48047144020726207e-01
9.48047144020726207e-01
9.48047144020726207e-01
1.02699548816814135e+00
1.02699548816814135e+00
1.02699548816814135e+00
1.02409915363820891e+00
1.02409915363820891e+00
1.02409915363820891e+00
9.80447014554665652e-01
9.80447014554665652e-01
9.80447014554665652e-01
9.61221923326888716e-01
9.61221923326888716e-01
9.61221923326888716e-01
9.57362170740715390e-01
9.57362170740715390e-01
9.57362170740715390e-01
1.01593599762394482e+00
1.01593599762394482e+00
1.01593599762394482e+00
1.05585788464198882e+00
1.05585788464198882e+00
1.05585788464198882e+00
1.10388363839068138e+00
1.10388363839068138e+00
1.10388363839068138e+00
9.80609577096304252e-01
9.80609577096304252e-01
9.80609577096304252e-01
9.90079977407100964e-01
9.90079977407100964e-01
9.90079977407100964e-01
9.86195051415846513e-01
9.86195051415846513e-01
9.86195051415846513e-01
9.71745908319400331e-01
9.71745908319400331e-01
9.71745908319400331e-01
9.67765204671538481e-01
9.67765204671538481e-01
9.67765204671538481e-01
1.04708776367056555e+00
1.04708776367056555e+00
1.04708776367056555e+00
9.82015496094025719e-01
9.82015496094025719e-01
9.82015496094025719e-01
9.57943209468804846e-01
9.57943209468804846e-01
9.57943209468804846e-01
9.69346143261912263e-01
9.69346143261912263e-01
9.69346143261912263e-01
9.88498304883886014e-01
9.88498304883886014e-01
9.88498304883886014e-01
1.02988346120367136e+00
1.02988346120367136e+00
1.02988346120367136e+00
9.77747096370440549e-01
9.77747096370440549e-01
9.77747096370440549e-01
9.67235472850828226e-01
9.67235472850828226e-01
9.67235472850828226e-01
9.81294992516040798e-01
9.81294992516040798e-01
9.81294992516040798e-01
9.67792971166387184e-01
9.67792971166387184e-01
9.67792971166387184e-01
9.62581917658873465e-01
9.62581917658873465e-01
9.62581917658873465e-01
9.88176632484924600e-01
9.88176632484924600e-01
9.88176632484924600e-01
9.71164987187663531e-01
9.71164987187663531e-01
9.71164987187663531e-01
9.60177272163257989e-01
9.60177272163257989e-01
9.60177272163257989e-01
9.55302773321781040e-01
9.55302773321781040e-01
9.55302773321781040e-01
1.06461314141312280e+00
1.06461314141312280e+00
1.06461314141312280e+00
1.09244469414131906e+00
1.09244469414131906e+00
1.09244469414131906e+00
1.05350353887605785e+00
1.05350353887605785e+00
1.05350353887605785e+00
9.86277926304865216e-01
9.86277926304865216e-01
9.86277926304865216e-01
9.50642396571450110e-01
9.50642396571450110e-01
9.50642396571450110e-01
9.44108052443382806e-01
9.44108052443382806e-01
9.44108052443382806e-01
9.40819842780151516e-01
9.40819842780151516e-01
9.40819842780151516e-01
1.10673425173543394e+00
1.10673425173543394e+00
1.10673425173543394e+00
9.08203504070119405e-01
9.08203504070119405e-01
9.08203504070119405e-01
8.98645416958647858e-01
8.98645416958647858e-01
8.98645416958647858e-01
9.76101787167718782e-01
9.76101787167718782e-01
9.76101787167718782e-01
9.26597355815554691e-01
9.26597355815554691e-01
9.26597355815554691e-01
1.00506233610191931e+00
1.00506233610191931e+00
1.00506233610191931e+00
9.64842703520051193e-01
9.64842703520051193e-01
9.64842703520051193e-01
1.05485306168494875e+00
1.05485306168494875e+00
1.05485306168494875e+00
1.08664791720081433e+00
1.08664791720081433e+00
1.08664791720081433e+00
9.87014476269796215e-01
9.87014476269796215e-01
9.87014476269796215e-01
1.02251266676233188e+00
1.02251266676233188e+00
1.02251266676233188e+00
1.01261713317865598e+00
1.01261713317865598e+00
1.01261713317865598e+00
1.03389371462767765e+00
1.03389371462767765e+00
1.03389371462767765e+00
1.00407859582052361e+00
1.00407859582052361e+00
1.00407859582052361e+00
9.93694531487916533e-01
9.93694531487916533e-01
9.93694531487916533e-01
9.64293303497652743e-01
9.64293303497652743e-01
9.64293303497652743e-01
1.01982639533236030e+00
1.01982639533236030e+00
1.01982639533236030e+00
9.02896940088021571e-01
9.02896940088021571e-01
9.02896940088021571e-01
9.60134259858155814e-01
9.60134259858155814e-01
9.60134259858155814e-01
1.00033645878074973e+00
1.00033645878074973e+00
1.00033645878074973e+00
1.01469833745627325e+00
1.01469833745627325e+00
1.01469833745627325e+00
9.66607961446756092e-01
9.66607961446756092e-01
9.66607961446756092e-01
9.19781185232447895e-01
9.19781185232447895e-01
9.19781185232447895e-01
9.86209898878900759e-01
9.86209898878900759e-01
9.86209898878900759e-01
9.58843440198079877e-01
9.58843440198079877e-01
9.58843440198079877e-01
1.01182778523228656e+00
1.01182778523228656e+00
1.01182778523228656e+00
9.16958856551466139e-01
9.16958856551466139e-01
9.16958856551466139e-01
9.83178715113249502e-01
9.83178715113249502e-01
9.83178715113249502e-01
9.88592691168294846e-01
9.88592691168294846e-01
9.88592691168294846e-01
9.96422076975063131e-01
9.96422076975063131e-01
9.96422076975063131e-01
1.06667352120053183e+00
1.06667352120053183e+00
1.06667352120053183e+00
9.72163752328466857e-01
9.72163752328466857e-01
9.72163752328466857e-01
1.06453159645652495e+00
1.06453159645652495e+00
1.06453159645652495e+00
1.04771426886410501e+00
1.04771426886410501e+00
1.04771426886410501e+00
9.82994867271789641e-01
9.82994867271789641e-01
9.82994867271789641e-01
1.06517814570623282e+00
1.06517814570623282e+00
1.06517814570623282e+00
9.85113774162411082e-01
9.85113774162411082e-01
9.85113774162411082e-01
9.92297868462266419e-01
9.92297868462266419e-01
9.92297868462266419e-01
9.94857717472421799e-01
9.94857717472421799e-01
9.94857717472421799e-01
9.81733695368313009e-01
9.81733695368313009e-01
9.81733695368313009e-01
9.97310645186319067e-01
9.97310645186319067e-01
9.97310645186319067e-01
1.03523967333800426e+00
1.03523967333800426e+00
1.03523967333800426e+00
1.01906325828016531e+00
1.01906325828016531e+00
1.01906325828016531e+00
9.71474365118008776e-01
9.71474365118008776e-01
9.71474365118008776e-01
1.03157008699613173e+00
1.03157008699613173e+00
1.03157008699613173e+00
1.05029881249175205e+00
1.05029881249175205e+00
1.05029881249175205e+00
1.03206496428316341e+00
1.03206496428316341e+00
1.03206496428316341e+00
9.84319776825186565e-01
9.84319776825186565e-01
9.84319776825186565e-01
9.97142016244602081e-01
9.97142016244602081e-01
9.97142016244602081e-01
9.78740411703320268e-01
9.78740411703320268e-01
9.78740411703320268e-01
9.94103645034139172e-01
9.94103645034139172e-01
9.94103645034139172e-01
1.00907399953087995e+00
1.00907399953087995e+00
1.00907399953087995e+00
9.70684829622994960e-01
9.70684829622994960e-01
9.70684829622994960e-01
9.57634859036397446e-01
9.57634859036397446e-01
9.57634859036397446e-01
1.09660555147224348e+00
1.09660555147224348e+00
1.09660555147224348e+00
9.40911708948935499e-01
9.40911708948935499e-01
9.40911708948935499e-01
1.01187406369738730e+00
1.01187406369738730e+00
1.01187406369738730e+00
9.47401674397141846e-01
9.47401674397141846e-01
9.47401674397141846e-01


        </DataArray>

      </PointData>

      <CellData/>

      <Points>

        <DataArray type="Float64" NumberOfComponents="3" format="ascii">

0.1082531754723032 0.6875000000007816 0 0.23533274979922561 0.77093399389351469 0 0.10409951422139101 0.81206782209691231 0 0.23533274979922561 0.77093399389351469 0 0.1082531754723032 0.6875000000007816 0 0.21809253452218619 0.65480892822618109 0 0.24418615484441761 0.35773612382016978 0 0.121259140952891 0.43112117036853742 0 0.1082531754734323 0.31250000000117473 0 0.75000000000057243 0.35048094716480432 0 0.88173731489851925 0.33077402607778361 0 0.81242894672211508 0.45500248311961472 0 0.121259140952891 0.43112117036853742 0 0.24418615484441761 0.35773612382016978 0 0.22257735880419699 0.47344721641341742 0 0.81242894672211508 0.45500248311961472 0 0.88173731489851925 0.33077402607778361 0 0.915464298762109 0.43749999999886913 0 0 0.62500000000121547 0 0 0.50000000000206146 0 0.1371230538040123 0.56179824718362847 0 0.82212678063041267 0.67678595194836966 0 0.89051480781310632 0.79665793440246835 0 0.76243180583607129 0.78687675331113149 0 0.76243180583607129 0.78687675331113149 0 0.69010814643829166 0.89298495739101336 0 0.62844955668446423 0.7850749770380413 0 0.89051480781310632 0.79665793440246835 0 0.82212678063041267 0.67678595194836966 0 0.92266244547590082 0.68749999999917555 0 0 0.50000000000206146 0 0.121259140952891 0.43112117036853742 0 0.1371230538040123 0.56179824718362847 0 0.1082531754723032 0.6875000000007816 0 0 0.62500000000121547 0 0.1371230538040123 0.56179824718362847 0 0.75000000000032374 0.56698729811007709 0 0.88927506082488361 0.56409486310635837 0 0.82212678063041267 0.67678595194836966 0 0.81242894672211508 0.45500248311961472 0 0.88927506082488361 0.56409486310635837 0 0.75000000000032374 0.56698729811007709 0 0.69851598570178741 0.68211701800612057 0 0.56496004948275869 0.67675037307860475 0 0.62752533658682441 0.56838075195614346 0 0.69851598570178741 0.68211701800612057 0 0.76243180583607129 0.78687675331113149 0 0.62844955668446423 0.7850749770380413 0 0.23533274979922561 0.77093399389351469 0 0.18802967116092181 0.89415349436770275 0 0.10409951422139101 0.81206782209691231 0 0.121259140952891 0.43112117036853742 0 0.22257735880419699 0.47344721641341742 0 0.1371230538040123 0.56179824718362847 0 0.75000000000032374 0.56698729811007709 0 0.69851598570178741 0.68211701800612057 0 0.62752533658682441 0.56838075195614346 0 0.56496004948275869 0.67675037307860475 0 0.69851598570178741 0.68211701800612057 0 0.62844955668446423 0.7850749770380413 0 0.1371230538040123 0.56179824718362847 0 0.22257735880419699 0.47344721641341742 0 0.26982811998763367 0.56544650815856912 0 0.21809253452218619 0.65480892822618109 0 0.1371230538040123 0.56179824718362847 0 0.26982811998763367 0.56544650815856912 0 0.24418615484441761 0.35773612382016978 0 0.1082531754734323 0.31250000000117473 0 0.20767261601459541 0.25628918442207171 0 0.88173731489851925 0.33077402607778361 0 0.75000000000057243 0.35048094716480432 0 0.79891106056046712 0.25007334953587562 0 0.75000000000032374 0.56698729811007709 0 0.82212678063041267 0.67678595194836966 0 0.69851598570178741 0.68211701800612057 0 0.81249999999950517 0.1082531754733404 0 0.89658421694297741 0.1933620068391701 0 0.79891106056046712 0.25007334953587562 0 0.81249999999950517 0.1082531754733404 0 0.79891106056046712 0.25007334953587562 0 0.73983916756365475 0.17530677078674589 0 0.23533274979922561 0.77093399389351469 0 0.21809253452218619 0.65480892822618109 0 0.32607333794064219 0.67760114260606152 0 0.1082531754723032 0.6875000000007816 0 0.1371230538040123 0.56179824718362847 0 0.21809253452218619 0.65480892822618109 0 0.69851598570178741 0.68211701800612057 0 0.82212678063041267 0.67678595194836966 0 0.76243180583607129 0.78687675331113149 0 0.69010814643829166 0.89298495739101336 0 0.76243180583607129 0.78687675331113149 0 0.80886664387416207 0.89717308644237903 0 0.43750000000181222 0.89174682452709564 0 0.31258827852827581 0.89214793616708443 0 0.37776173212361452 0.78514649317305008 0 0.43750000000181222 0.89174682452709564 0 0.37500000000156292 1 0 0.31258827852827581 0.89214793616708443 0 0.121259140952891 0.43112117036853742 0 0 0.37500000000156292 0 0.1082531754734323 0.31250000000117473 0 0.50000000000206146 1 0 0.37500000000156292 1 0 0.43750000000181222 0.89174682452709564 0 0.31258827852827581 0.89214793616708443 0 0.18802967116092181 0.89415349436770275 0 0.23533274979922561 0.77093399389351469 0 0 0.50000000000206146 0 0 0.37500000000156292 0 0.121259140952891 0.43112117036853742 0 0.62844955668446423 0.7850749770380413 0 0.69010814643829166 0.89298495739101336 0 0.56327595140699671 0.89211526915426331 0 0.69010814643829166 0.89298495739101336 0 0.62500000000121547 1 0 0.56327595140699671 0.89211526915426331 0 0.25000000000104189 1 0 0.18802967116092181 0.89415349436770275 0 0.31258827852827581 0.89214793616708443 0 0.50000000000206146 1 0 0.43750000000181222 0.89174682452709564 0 0.56327595140699671 0.89211526915426331 0 0.56249999999885147 0.1082531754730395 0 0.62499999999901068 0 0 0.68749999999926592 0.1082531754732875 0 1 0.49999999999869221 0 1 0.62499999999901068 0 0.88927506082488361 0.56409486310635837 0 0 0.25000000000104189 0 0.12076953676380731 0.18690935762408761 0 0.1082531754734323 0.31250000000117473 0 0.49999999999869221 0 0 0.62499999999901068 0 0 0.56249999999885147 0.1082531754730395 0 0.62500000000121547 1 0 0.50000000000206146 1 0 0.56327595140699671 0.89211526915426331 0 0.37500000000156292 1 0 0.25000000000104189 1 0 0.31258827852827581 0.89214793616708443 0 0.31281086598417152 0.10449318608631281 0 0.37499999999904599 0 0 0.43749999999910871 0.1082531754729984 0 0.43750000000181222 0.89174682452709564 0 0.37776173212361452 0.78514649317305008 0 0.50046028868828263 0.78376912307435687 0 0 0.37500000000156292 0 0 0.25000000000104189 0 0.1082531754734323 0.31250000000117473 0 0.49999999999869221 0 0 0.56249999999885147 0.1082531754730395 0 0.43749999999910871 0.1082531754729984 0 0.43750000000181222 0.89174682452709564 0 0.50046028868828263 0.78376912307435687 0 0.56327595140699671 0.89211526915426331 0 0.74999999999934042 0 0 0.81249999999950517 0.1082531754733404 0 0.68749999999926592 0.1082531754732875 0 0.37499999999904599 0 0 0.49999999999869221 0 0 0.43749999999910871 0.1082531754729984 0 0.25000000000104189 1 0 0.12500000000052089 1 0 0.18802967116092181 0.89415349436770275 0 0.50046028868828263 0.78376912307435687 0 0.62844955668446423 0.7850749770380413 0 0.56327595140699671 0.89211526915426331 0 0.37776173212361452 0.78514649317305008 0 0.31258827852827581 0.89214793616708443 0 0.23533274979922561 0.77093399389351469 0 0.62499999999901068 0 0 0.74999999999934042 0 0 0.68749999999926592 0.1082531754732875 0 1 0.74999999999934042 0 1 0.87499999999967015 0 0.89051480781310632 0.79665793440246835 0 0 0.25000000000104189 0 0 0.12500000000052089 0 0.12076953676380731 0.18690935762408761 0 0.74999999999934042 0 0 0.87499999999967015 0 0 0.81249999999950517 0.1082531754733404 0 0.24999999999941069 0 0 0.37499999999904599 0 0 0.31281086598417152 0.10449318608631281 0 0.50046028868828263 0.78376912307435687 0 0.37776173212361452 0.78514649317305008 0 0.44078402250377968 0.67714785211715212 0 0.68768773896438518 0.4586835206367198 0 0.75000000000032374 0.56698729811007709 0 0.62752533658682441 0.56838075195614346 0 0.31411863959822661 0.24965544328045999 0 0.37953773393552892 0.34812185820708452 0 0.24418615484441761 0.35773612382016978 0 0.68768773896438518 0.4586835206367198 0 0.81242894672211508 0.45500248311961472 0 0.75000000000032374 0.56698729811007709 0 1 0.24999999999941069 0 1 0.37499999999904599 0 0.88173731489851925 0.33077402607778361 0 0 0.75000000000034761 0 0 0.62500000000121547 0 0.1082531754723032 0.6875000000007816 0 0.50048844149666749 0.56727788297625459 0 0.44078402250377968 0.67714785211715212 0 0.38694285807596462 0.5672991787102919 0 0.50108503093851109 0.35012252869403671 0 0.44301038174930041 0.45684931552185398 0 0.37953773393552892 0.34812185820708452 0 0.50046028868828263 0.78376912307435687 0 0.56496004948275869 0.67675037307860475 0 0.62844955668446423 0.7850749770380413 0 0.68768773896438518 0.4586835206367198 0 0.75000000000057243 0.35048094716480432 0 0.81242894672211508 0.45500248311961472 0 0.56349980387502452 0.45846841892908402 0 0.62512662990940393 0.35044303886909911 0 0.68768773896438518 0.4586835206367198 0 0.50048844149666749 0.56727788297625459 0 0.38694285807596462 0.5672991787102919 0 0.44301038174930041 0.45684931552185398 0 0.50046028868828263 0.78376912307435687 0 0.44078402250377968 0.67714785211715212 0 0.56496004948275869 0.67675037307860475 0 0.50108503093851109 0.35012252869403671 0 0.37953773393552892 0.34812185820708452 0 0.43750000000200551 0.24222777169198509 0 0.75000000000034761 1 0 0.62500000000121547 1 0 0.69010814643829166 0.89298495739101336 0 0.68768773896438518 0.4586835206367198 0 0.62512662990940393 0.35044303886909911 0 0.75000000000057243 0.35048094716480432 0 0.56496004948275869 0.67675037307860475 0 0.44078402250377968 0.67714785211715212 0 0.50048844149666749 0.56727788297625459 0 0.56349980387502452 0.45846841892908402 0 0.44301038174930041 0.45684931552185398 0 0.50108503093851109 0.35012252869403671 0 0.50048844149666749 0.56727788297625459 0 0.44301038174930041 0.45684931552185398 0 0.56349980387502452 0.45846841892908402 0 0.56349980387502452 0.45846841892908402 0 0.50108503093851109 0.35012252869403671 0 0.62512662990940393 0.35044303886909911 0 0.43750000000200551 0.24222777169198509 0 0.37953773393552892 0.34812185820708452 0 0.31411863959822661 0.24965544328045999 0 0.56496004948275869 0.67675037307860475 0 0.50048844149666749 0.56727788297625459 0 0.62752533658682441 0.56838075195614346 0 0.56349980387502452 0.45846841892908402 0 0.68768773896438518 0.4586835206367198 0 0.62752533658682441 0.56838075195614346 0 0.50048844149666749 0.56727788297625459 0 0.56349980387502452 0.45846841892908402 0 0.62752533658682441 0.56838075195614346 0 0.75000000000057243 0.35048094716480432 0 0.62512662990940393 0.35044303886909911 0 0.68668231842078242 0.24762892664808989 0 0.50108503093851109 0.35012252869403671 0 0.43750000000200551 0.24222777169198509 0 0.56250000000143974 0.2422277716920859 0 0.62512662990940393 0.35044303886909911 0 0.50108503093851109 0.35012252869403671 0 0.56250000000143974 0.2422277716920859 0 0.68668231842078242 0.24762892664808989 0 0.62512662990940393 0.35044303886909911 0 0.56250000000143974 0.2422277716920859 0 0.22257735880419699 0.47344721641341742 0 0.24418615484441761 0.35773612382016978 0 0.32815957677880009 0.4577243358118348 0 0.12076953676380731 0.18690935762408761 0 0.19185372118111221 0.092925648673580788 0 0.25103557339309318 0.17464499738446629 0 0.20767261601459541 0.25628918442207171 0 0.12076953676380731 0.18690935762408761 0 0.25103557339309318 0.17464499738446629 0 0 0.87499999999950151 0 0 0.75000000000034761 0 0.10409951422139101 0.81206782209691231 0 0.1249999999997731 0 0 0.24999999999941069 0 0 0.19185372118111221 0.092925648673580788 0 1 0.1249999999997731 0 1 0.24999999999941069 0 0.89658421694297741 0.1933620068391701 0 0.88927506082488361 0.56409486310635837 0 0.81242894672211508 0.45500248311961472 0 0.915464298762109 0.43749999999886913 0 0.87499999999950151 1 0 0.75000000000034761 1 0 0.80886664387416207 0.89717308644237903 0 0.75000000000034761 1 0 0.69010814643829166 0.89298495739101336 0 0.80886664387416207 0.89717308644237903 0 0.82212678063041267 0.67678595194836966 0 0.88927506082488361 0.56409486310635837 0 0.92266244547590082 0.68749999999917555 0 0 0.75000000000034761 0 0.1082531754723032 0.6875000000007816 0 0.10409951422139101 0.81206782209691231 0 0.24999999999941069 0 0 0.31281086598417152 0.10449318608631281 0 0.19185372118111221 0.092925648673580788 0 1 0.24999999999941069 0 0.88173731489851925 0.33077402607778361 0 0.89658421694297741 0.1933620068391701 0 0.32815957677880009 0.4577243358118348 0 0.38694285807596462 0.5672991787102919 0 0.26982811998763367 0.56544650815856912 0 0.76243180583607129 0.78687675331113149 0 0.89051480781310632 0.79665793440246835 0 0.80886664387416207 0.89717308644237903 0 0.38694285807596462 0.5672991787102919 0 0.44078402250377968 0.67714785211715212 0 0.32607333794064219 0.67760114260606152 0 0.37776173212361452 0.78514649317305008 0 0.23533274979922561 0.77093399389351469 0 0.32607333794064219 0.67760114260606152 0 1 0.49999999999869221 0 0.88927506082488361 0.56409486310635837 0 0.915464298762109 0.43749999999886913 0 0.88173731489851925 0.33077402607778361 0 1 0.37499999999904599 0 0.915464298762109 0.43749999999886913 0 0.24418615484441761 0.35773612382016978 0 0.37953773393552892 0.34812185820708452 0 0.32815957677880009 0.4577243358118348 0 0.44301038174930041 0.45684931552185398 0 0.38694285807596462 0.5672991787102919 0 0.32815957677880009 0.4577243358118348 0 0.88927506082488361 0.56409486310635837 0 1 0.62499999999901068 0 0.92266244547590082 0.68749999999917555 0 1 0.74999999999934042 0 0.89051480781310632 0.79665793440246835 0 0.92266244547590082 0.68749999999917555 0 0 1 0 0 0.87499999999950151 0 0.091506350946494744 0.90849364905351082 0 1 1 0 0.87499999999950151 1 0 0.90849364905363228 0.90849364905367769 0 0 0 0 0.1249999999997731 0 0 0.091506350946417708 0.091506350946618076 0 0 0.12500000000052089 0 0 0 0 0.091506350946417708 0.091506350946618076 0 1 0 0 1 0.1249999999997731 0 0.90849364905355434 0.091506350946296292 0 0.87499999999967015 0 0 1 0 0 0.90849364905355434 0.091506350946296292 0 0.12500000000052089 1 0 0 1 0 0.091506350946494744 0.90849364905351082 0 1 0.87499999999967015 0 1 1 0 0.90849364905363228 0.90849364905367769 0 0.38694285807596462 0.5672991787102919 0 0.32607333794064219 0.67760114260606152 0 0.26982811998763367 0.56544650815856912 0 0.31411863959822661 0.24965544328045999 0 0.24418615484441761 0.35773612382016978 0 0.20767261601459541 0.25628918442207171 0 0.1082531754734323 0.31250000000117473 0 0.12076953676380731 0.18690935762408761 0 0.20767261601459541 0.25628918442207171 0 0.75000000000057243 0.35048094716480432 0 0.68668231842078242 0.24762892664808989 0 0.79891106056046712 0.25007334953587562 0 0.22257735880419699 0.47344721641341742 0 0.32815957677880009 0.4577243358118348 0 0.26982811998763367 0.56544650815856912 0 0.44078402250377968 0.67714785211715212 0 0.37776173212361452 0.78514649317305008 0 0.32607333794064219 0.67760114260606152 0 0.89658421694297741 0.1933620068391701 0 0.88173731489851925 0.33077402607778361 0 0.79891106056046712 0.25007334953587562 0 1 0.37499999999904599 0 1 0.49999999999869221 0 0.915464298762109 0.43749999999886913 0 0.37953773393552892 0.34812185820708452 0 0.44301038174930041 0.45684931552185398 0 0.32815957677880009 0.4577243358118348 0 0.32607333794064219 0.67760114260606152 0 0.21809253452218619 0.65480892822618109 0 0.26982811998763367 0.56544650815856912 0 1 0.1249999999997731 0 0.89658421694297741 0.1933620068391701 0 0.90849364905355434 0.091506350946296292 0 0 0.87499999999950151 0 0.10409951422139101 0.81206782209691231 0 0.091506350946494744 0.90849364905351082 0 0.1249999999997731 0 0 0.19185372118111221 0.092925648673580788 0 0.091506350946417708 0.091506350946618076 0 1 0.62499999999901068 0 1 0.74999999999934042 0 0.92266244547590082 0.68749999999917555 0 0.18802967116092181 0.89415349436770275 0 0.12500000000052089 1 0 0.091506350946494744 0.90849364905351082 0 0.89051480781310632 0.79665793440246835 0 1 0.87499999999967015 0 0.90849364905363228 0.90849364905367769 0 0.12076953676380731 0.18690935762408761 0 0 0.12500000000052089 0 0.091506350946417708 0.091506350946618076 0 0.81249999999950517 0.1082531754733404 0 0.87499999999967015 0 0 0.90849364905355434 0.091506350946296292 0 0.87499999999950151 1 0 0.80886664387416207 0.89717308644237903 0 0.90849364905363228 0.90849364905367769 0 0.68668231842078242 0.24762892664808989 0 0.62499999999892575 0.17524047358135519 0 0.73983916756365475 0.17530677078674589 0 0.31281086598417152 0.10449318608631281 0 0.43749999999910871 0.1082531754729984 0 0.37500000000232431 0.17524047358384309 0 0.62499999999892575 0.17524047358135519 0 0.56250000000143974 0.2422277716920859 0 0.49999999999934441 0.1752404735815076 0 0.56249999999885147 0.1082531754730395 0 0.68749999999926592 0.1082531754732875 0 0.62499999999892575 0.17524047358135519 0 0.56249999999885147 0.1082531754730395 0 0.62499999999892575 0.17524047358135519 0 0.49999999999934441 0.1752404735815076 0 0.56250000000143974 0.2422277716920859 0 0.43750000000200551 0.24222777169198509 0 0.49999999999934441 0.1752404735815076 0 0.43749999999910871 0.1082531754729984 0 0.56249999999885147 0.1082531754730395 0 0.49999999999934441 0.1752404735815076 0 0.68668231842078242 0.24762892664808989 0 0.56250000000143974 0.2422277716920859 0 0.62499999999892575 0.17524047358135519 0 0.43750000000200551 0.24222777169198509 0 0.31411863959822661 0.24965544328045999 0 0.37500000000232431 0.17524047358384309 0 0.49999999999934441 0.1752404735815076 0 0.43750000000200551 0.24222777169198509 0 0.37500000000232431 0.17524047358384309 0 0.43749999999910871 0.1082531754729984 0 0.49999999999934441 0.1752404735815076 0 0.37500000000232431 0.17524047358384309 0 0.62499999999892575 0.17524047358135519 0 0.68749999999926592 0.1082531754732875 0 0.73983916756365475 0.17530677078674589 0 0.68749999999926592 0.1082531754732875 0 0.81249999999950517 0.1082531754733404 0 0.73983916756365475 0.17530677078674589 0 0.10409951422139101 0.81206782209691231 0 0.18802967116092181 0.89415349436770275 0 0.091506350946494744 0.90849364905351082 0 0.89658421694297741 0.1933620068391701 0 0.81249999999950517 0.1082531754733404 0 0.90849364905355434 0.091506350946296292 0 0.19185372118111221 0.092925648673580788 0 0.12076953676380731 0.18690935762408761 0 0.091506350946417708 0.091506350946618076 0 0.37500000000232431 0.17524047358384309 0 0.31411863959822661 0.24965544328045999 0 0.25103557339309318 0.17464499738446629 0 0.31281086598417152 0.10449318608631281 0 0.37500000000232431 0.17524047358384309 0 0.25103557339309318 0.17464499738446629 0 0.80886664387416207 0.89717308644237903 0 0.89051480781310632 0.79665793440246835 0 0.90849364905363228 0.90849364905367769 0 0.19185372118111221 0.092925648673580788 0 0.31281086598417152 0.10449318608631281 0 0.25103557339309318 0.17464499738446629 0 0.79891106056046712 0.25007334953587562 0 0.68668231842078242 0.24762892664808989 0 0.73983916756365475 0.17530677078674589 0 0.31411863959822661 0.24965544328045999 0 0.20767261601459541 0.25628918442207171 0 0.25103557339309318 0.17464499738446629 0 

        </DataArray>

      </Points>

      <Cells>

        <DataArray type="Int32" Name="connectivity" format="ascii">

0 1 2 3 4 5 6 7 8 9 10 11 12 13 14 15 16 17 18 19 20 21 22 23 24 25 26 27 28 29 30 31 32 33 34 35 36 37 38 39 40 41 42 43 44 45 46 47 48 49 50 51 52 53 54 55 56 57 58 59 60 61 62 63 64 65 66 67 68 69 70 71 72 73 74 75 76 77 78 79 80 81 82 83 84 85 86 87 88 89 90 91 92 93 94 95 96 97 98 99 100 101 102 103 104 105 106 107 108 109 110 111 112 113 114 115 116 117 118 119 120 121 122 123 124 125 126 127 128 129 130 131 132 133 134 135 136 137 138 139 140 141 142 143 144 145 146 147 148 149 150 151 152 153 154 155 156 157 158 159 160 161 162 163 164 165 166 167 168 169 170 171 172 173 174 175 176 177 178 179 180 181 182 183 184 185 186 187 188 189 190 191 192 193 194 195 196 197 198 199 200 201 202 203 204 205 206 207 208 209 210 211 212 213 214 215 216 217 218 219 220 221 222 223 224 225 226 227 228 229 230 231 232 233 234 235 236 237 238 239 240 241 242 243 244 245 246 247 248 249 250 251 252 253 254 255 256 257 258 259 260 261 262 263 264 265 266 267 268 269 270 271 272 273 274 275 276 277 278 279 280 281 282 283 284 285 286 287 288 289 290 291 292 293 294 295 296 297 298 299 300 301 302 303 304 305 306 307 308 309 310 311 312 313 314 315 316 317 318 319 320 321 322 323 324 325 326 327 328 329 330 331 332 333 334 335 336 337 338 339 340 341 342 343 344 345 346 347 348 349 350 351 352 353 354 355 356 357 358 359 360 361 362 363 364 365 366 367 368 369 370 371 372 373 374 375 376 377 378 379 380 381 382 383 384 385 386 387 388 389 390 391 392 393 394 395 396 397 398 399 400 401 402 403 404 405 406 407 408 409 410 411 412 413 414 415 416 417 418 419 420 421 422 423 424 425 426 427 428 429 430 431 432 433 434 435 436 437 438 439 440 441 442 443 444 445 446 447 448 449 450 451 452 453 454 455 456 457 458 459 460 461 462 463 464 465 466 467 468 469 470 471 472 473 474 475 476 477 478 479 480 481 482 483 484 485 

        </DataArray>

        <DataArray type="Int32" Name="offsets" format="ascii">

3 6 9 12 15 18 21 24 27 30 33 36 39 42 45 48 51 54 57 60 63 66 69 72 75 78 81 84 87 90 93 96 99 102 105 108 111 114 117 120 123 126 129 132 135 138 141 144 147 150 153 156 159 162 165 168 171 174 177 180 183 186 189 192 195 198 201 204 207 210 213 216 219 222 225 228 231 234 237 240 243 246 249 252 255 258 261 264 267 270 273 276 279 282 285 288 291 294 297 300 303 306 309 312 315 318 321 324 327 330 333 336 339 342 345 348 351 354 357 360 363 366 369 372 375 378 381 384 387 390 393 396 399 402 405 408 411 414 417 420 423 426 429 432 435 438 441 444 447 450 453 456 459 462 465 468 471 474 477 480 483 486 

        </DataArray>

        <DataArray type="Int32" Name="types" format="ascii">

5 5 5 5 5 5 5 5 5 5 5 5 5 5 5 5 5 5 5 5 5 5 5 5 5 5 5 5 5 5 5 5 5 5 5 5 5 5 5 5 5 5 5 5 5 5 5 5 5 5 5 5 5 5 5 5 5 5 5 5 5 5 5 5 5 5 5 5 5 5 5 5 5 5 5 5 5 5 5 5 5 5 5 5 5 5 5 5 5 5 5 5 5 5 5 5 5 5 5 5 5 5 5 5 5 5 5 5 5 5 5 5 5 5 5 5 5 5 5 5 5 5 5 5 5 5 5 5 5 5 5 5 5 5 5 5 5 5 5 5 5 5 5 5 5 5 5 5 5 5 5 5 5 5 5 5 5 5 5 5 5 5 

        </DataArray>

      </Cells>

    </Piece>

  </UnstructuredGrid>

</VTKFile>

