<?xml version="1.0"?>

<VTKFile type="UnstructuredGrid" version="0.1">

  <UnstructuredGrid>

    <Piece NumberOfPoints="486" NumberOfCells="162">

      <PointData>

        <DataArray type="Float64" Name="K" format="ascii">

1.00058669098938835e+00
1.00058669098938835e+00
1.00058669098938835e+00
1.01258896358162698e+00
1.01258896358162698e+00
1.01258896358162698e+00
9.87223851540141806e-01
9.87223851540141806e-01
9.87223851540141806e-01
9.94079464713179317e-01
9.94079464713179317e-01
9.94079464713179317e-01
9.89822280411236211e-01
9.89822280411236211e-01
9.89822280411236211e-01
9.86926222204185022e-01
9.86926222204185022e-01
9.86926222204185022e-01
9.76979804882606606e-01
9.76979804882606606e-01
9.76979804882606606e-01
9.61907169421813757e-01
9.61907169421813757e-01
9.61907169421813757e-01
1.04183091318579280e+00
1.04183091318579280e+00
1.04183091318579280e+00
9.42769011172366223e-01
9.42769011172366223e-01
9.42769011172366223e-01
9.75969042092232897e-01
9.75969042092232897e-01
9.75969042092232897e-01
1.00493784157816113e+00
1.00493784157816113e+00
1.00493784157816113e+00
9.15187116577309556e-01
9.15187116577309556e-01
9.15187116577309556e-01
9.16090606333819446e-01
9.16090606333819446e-01
9.16090606333819446e-01
9.31114955655291121e-01
9.31114955655291121e-01
9.31114955655291121e-01
9.87674456099107312e-01
9.87674456099107312e-01
9.87674456099107312e-01
1.00232246274092573e+00
1.00232246274092573e+00
1.00232246274092573e+00
9.97599738478970099e-01
9.97599738478970099e-01
9.97599738478970099e-01
8.99048684156233624e-01
8.99048684156233624e-01
8.99048684156233624e-01
9.67094028827945373e-01
9.67094028827945373e-01
9.67094028827945373e-01
9.93264678879939966e-01
9.93264678879939966e-01
9.93264678879939966e-01
1.00065685642387847e+00
1.00065685642387847e+00
1.00065685642387847e+00
9.92168571451550130e-01
9.92168571451550130e-01
9.92168571451550130e-01
1.04893637266795681e+00
1.04893637266795681e+00
1.04893637266795681e+00
9.11519267771710440e-01
9.11519267771710440e-01
9.11519267771710440e-01
1.11009468185417681e+00
1.11009468185417681e+00
1.11009468185417681e+00
1.11796001486849161e+00
1.11796001486849161e+00
1.11796001486849161e+00
1.02200749146525283e+00
1.02200749146525283e+00
1.02200749146525283e+00
1.01145449310483992e+00
1.01145449310483992e+00
1.01145449310483992e+00
9.52544181228331621e-01
9.52544181228331621e-01
9.52544181228331621e-01
1.03664760221303465e+00
1.03664760221303465e+00
1.03664760221303465e+00
1.03815831350426646e+00
1.03815831350426646e+00
1.03815831350426646e+00
1.01603672744195728e+00
1.01603672744195728e+00
1.01603672744195728e+00
9.64911740166136567e-01
9.64911740166136567e-01
9.64911740166136567e-01
1.00035015716057885e+00
1.00035015716057885e+00
1.00035015716057885e+00
1.04320311713131453e+00
1.04320311713131453e+00
1.04320311713131453e+00
9.47249432189252394e-01
9.47249432189252394e-01
9.47249432189252394e-01
1.06739466851505882e+00
1.06739466851505882e+00
1.06739466851505882e+00
1.09636621007027135e+00
1.09636621007027135e+00
1.09636621007027135e+00
1.02845599342181759e+00
1.02845599342181759e+00
1.02845599342181759e+00
1.02712707822225680e+00
1.02712707822225680e+00
1.02712707822225680e+00
1.02021844929932182e+00
1.02021844929932182e+00
1.02021844929932182e+00
9.25992809620303836e-01
9.25992809620303836e-01
9.25992809620303836e-01
1.02108274658960374e+00
1.02108274658960374e+00
1.02108274658960374e+00
1.02848724468426789e+00
1.02848724468426789e+00
1.02848724468426789e+00
1.07248696824004663e+00
1.07248696824004663e+00
1.07248696824004663e+00
1.01602995128776952e+00
1.01602995128776952e+00
1.01602995128776952e+00
1.01829978973697033e+00
1.01829978973697033e+00
1.01829978973697033e+00
1.01987152137071724e+00
1.01987152137071724e+00
1.01987152137071724e+00
9.88714176495695374e-01
9.88714176495695374e-01
9.88714176495695374e-01
1.04460617769720243e+00
1.04460617769720243e+00
1.04460617769720243e+00
1.01873682887771366e+00
1.01873682887771366e+00
1.01873682887771366e+00
1.07204424765203710e+00
1.07204424765203710e+00
1.07204424765203710e+00
1.04347511204418852e+00
1.04347511204418852e+00
1.04347511204418852e+00
9.85379214001482429e-01
9.85379214001482429e-01
9.85379214001482429e-01
1.02718983844862022e+00
1.02718983844862022e+00
1.02718983844862022e+00
1.05910245070743736e+00
1.05910245070743736e+00
1.05910245070743736e+00
1.01921040923966100e+00
1.01921040923966100e+00
1.01921040923966100e+00
9.88169127182539686e-01
9.88169127182539686e-01
9.88169127182539686e-01
1.06951064899376425e+00
1.06951064899376425e+00
1.06951064899376425e+00
1.06710381742353211e+00
1.06710381742353211e+00
1.06710381742353211e+00
9.91999015522944672e-01
9.91999015522944672e-01
9.91999015522944672e-01
1.01684111132804267e+00
1.01684111132804267e+00
1.01684111132804267e+00
9.02120290527881563e-01
9.02120290527881563e-01
9.02120290527881563e-01
9.58055573944436856e-01
9.58055573944436856e-01
9.58055573944436856e-01
9.06706535566740746e-01
9.06706535566740746e-01
9.06706535566740746e-01
1.03112266304342115e+00
1.03112266304342115e+00
1.03112266304342115e+00
1.00553801862197223e+00
1.00553801862197223e+00
1.00553801862197223e+00
9.75509558433754975e-01
9.75509558433754975e-01
9.75509558433754975e-01
9.30710561717134288e-01
9.30710561717134288e-01
9.30710561717134288e-01
9.92793870094510034e-01
9.92793870094510034e-01
9.92793870094510034e-01
9.54186992663444089e-01
9.54186992663444089e-01
9.54186992663444089e-01
9.86338863270609933e-01
9.86338863270609933e-01
9.86338863270609933e-01
9.48538501688026781e-01
9.48538501688026781e-01
9.48538501688026781e-01
9.93578501162737382e-01
9.93578501162737382e-01
9.93578501162737382e-01
9.50498142283314196e-01
9.50498142283314196e-01
9.50498142283314196e-01
1.09179981513594426e+00
1.09179981513594426e+00
1.09179981513594426e+00
9.94969508686021409e-01
9.94969508686021409e-01
9.94969508686021409e-01
9.81662858987001785e-01
9.81662858987001785e-01
9.81662858987001785e-01
9.63456763928221771e-01
9.63456763928221771e-01
9.63456763928221771e-01
9.64427608058727515e-01
9.64427608058727515e-01
9.64427608058727515e-01
9.97014775894683014e-01
9.97014775894683014e-01
9.97014775894683014e-01
9.59852543146331949e-01
9.59852543146331949e-01
9.59852543146331949e-01
9.57936191160785100e-01
9.57936191160785100e-01
9.57936191160785100e-01
9.48349931529325341e-01
9.48349931529325341e-01
9.48349931529325341e-01
9.64240154365874957e-01
9.64240154365874957e-01
9.64240154365874957e-01
1.04652922298736462e+00
1.04652922298736462e+00
1.04652922298736462e+00
9.86411730776700524e-01
9.86411730776700524e-01
9.86411730776700524e-01
1.01086532888471514e+00
1.01086532888471514e+00
1.01086532888471514e+00
1.04465368805391501e+00
1.04465368805391501e+00
1.04465368805391501e+00
9.60754870046361953e-01
9.60754870046361953e-01
9.60754870046361953e-01
1.02104373352436095e+00
1.02104373352436095e+00
1.02104373352436095e+00
1.00694332776045070e+00
1.00694332776045070e+00
1.00694332776045070e+00
9.82156165501996914e-01
9.82156165501996914e-01
9.82156165501996914e-01
1.03811787941885014e+00
1.03811787941885014e+00
1.03811787941885014e+00
1.04904838211626816e+00
1.04904838211626816e+00
1.04904838211626816e+00
9.51152801553217908e-01
9.51152801553217908e-01
9.51152801553217908e-01
1.04116475672433384e+00
1.04116475672433384e+00
1.04116475672433384e+00
1.05889214779313989e+00
1.05889214779313989e+00
1.05889214779313989e+00
9.28127100773059488e-01
9.28127100773059488e-01
9.28127100773059488e-01
9.96782730701871955e-01
9.96782730701871955e-01
9.96782730701871955e-01
9.99330631099776490e-01
9.99330631099776490e-01
9.99330631099776490e-01
1.05430443949064090e+00
1.05430443949064090e+00
1.05430443949064090e+00
9.35699108393904910e-01
9.35699108393904910e-01
9.35699108393904910e-01
9.94036403704788629e-01
9.94036403704788629e-01
9.94036403704788629e-01
9.89339725810985171e-01
9.89339725810985171e-01
9.89339725810985171e-01
1.04413763311504915e+00
1.04413763311504915e+00
1.04413763311504915e+00
9.53174391239777541e-01
9.53174391239777541e-01
9.53174391239777541e-01
1.00804205604987951e+00
1.00804205604987951e+00
1.00804205604987951e+00
9.36133256846465311e-01
9.36133256846465311e-01
9.36133256846465311e-01
9.18931762167583543e-01
9.18931762167583543e-01
9.18931762167583543e-01
9.22443084179169093e-01
9.22443084179169093e-01
9.22443084179169093e-01
9.49109943222559260e-01
9.49109943222559260e-01
9.49109943222559260e-01
9.33995955220914387e-01
9.33995955220914387e-01
9.33995955220914387e-01
1.06153951380402023e+00
1.06153951380402023e+00
1.06153951380402023e+00
1.09076358627082182e+00
1.09076358627082182e+00
1.09076358627082182e+00
1.09515826769754820e+00
1.09515826769754820e+00
1.09515826769754820e+00
1.02456018108032820e+00
1.02456018108032820e+00
1.02456018108032820e+00
1.02947039927446604e+00
1.02947039927446604e+00
1.02947039927446604e+00
9.24642094495523925e-01
9.24642094495523925e-01
9.24642094495523925e-01
1.05649944900228565e+00
1.05649944900228565e+00
1.05649944900228565e+00
9.69481636242192746e-01
9.69481636242192746e-01
9.69481636242192746e-01
9.83052877116467050e-01
9.83052877116467050e-01
9.83052877116467050e-01
1.00674767580874547e+00
1.00674767580874547e+00
1.00674767580874547e+00
1.07273476704472936e+00
1.07273476704472936e+00
1.07273476704472936e+00
9.55832400379452163e-01
9.55832400379452163e-01
9.55832400379452163e-01
1.02452103116323556e+00
1.02452103116323556e+00
1.02452103116323556e+00
1.07468249502416957e+00
1.07468249502416957e+00
1.07468249502416957e+00
9.76856239409955140e-01
9.76856239409955140e-01
9.76856239409955140e-01
9.11571182025734839e-01
9.11571182025734839e-01
9.11571182025734839e-01
9.94010845230406614e-01
9.94010845230406614e-01
9.94010845230406614e-01
1.05783454133801524e+00
1.05783454133801524e+00
1.05783454133801524e+00
9.53961352008020125e-01
9.53961352008020125e-01
9.53961352008020125e-01
1.07350405390442338e+00
1.07350405390442338e+00
1.07350405390442338e+00
9.27392261264730178e-01
9.27392261264730178e-01
9.27392261264730178e-01
9.56226160132648162e-01
9.56226160132648162e-01
9.56226160132648162e-01
1.01271733377186024e+00
1.01271733377186024e+00
1.01271733377186024e+00
1.08654237379188467e+00
1.08654237379188467e+00
1.08654237379188467e+00
1.07854707847588416e+00
1.07854707847588416e+00
1.07854707847588416e+00
1.03274751716052160e+00
1.03274751716052160e+00
1.03274751716052160e+00
1.07951577695428580e+00
1.07951577695428580e+00
1.07951577695428580e+00
1.01480045650875050e+00
1.01480045650875050e+00
1.01480045650875050e+00
1.02368290007135743e+00
1.02368290007135743e+00
1.02368290007135743e+00
1.03519466967612273e+00
1.03519466967612273e+00
1.03519466967612273e+00
1.02625747736098272e+00
1.02625747736098272e+00
1.02625747736098272e+00
1.00483787995045959e+00
1.00483787995045959e+00
1.00483787995045959e+00
1.03282869751665873e+00
1.03282869751665873e+00
1.03282869751665873e+00
1.04896714009627834e+00
1.04896714009627834e+00
1.04896714009627834e+00
9.86751325019984971e-01
9.86751325019984971e-01
9.86751325019984971e-01
1.00522982042300213e+00
1.00522982042300213e+00
1.00522982042300213e+00
1.02398477602166604e+00
1.02398477602166604e+00
1.02398477602166604e+00
1.07121598624504566e+00
1.07121598624504566e+00
1.07121598624504566e+00
1.10010561260892192e+00
1.10010561260892192e+00
1.10010561260892192e+00
9.65583148216439202e-01
9.65583148216439202e-01
9.65583148216439202e-01
1.09502491631215260e+00
1.09502491631215260e+00
1.09502491631215260e+00
1.06107737178677164e+00
1.06107737178677164e+00
1.06107737178677164e+00
9.89695086979618166e-01
9.89695086979618166e-01
9.89695086979618166e-01
9.95443867277337135e-01
9.95443867277337135e-01
9.95443867277337135e-01
1.00437412988910935e+00
1.00437412988910935e+00
1.00437412988910935e+00
9.97762622174254932e-01
9.97762622174254932e-01
9.97762622174254932e-01
1.10136902443861118e+00
1.10136902443861118e+00
1.10136902443861118e+00
9.89829187751690487e-01
9.89829187751690487e-01
9.89829187751690487e-01


        </DataArray>

      </PointData>

      <CellData/>

      <Points>

        <DataArray type="Float64" NumberOfComponents="3" format="ascii">

0.1082531754723032 0.6875000000007816 0 0.23533274979922561 0.77093399389351469 0 0.10409951422139101 0.81206782209691231 0 0.23533274979922561 0.77093399389351469 0 0.1082531754723032 0.6875000000007816 0 0.21809253452218619 0.65480892822618109 0 0.24418615484441761 0.35773612382016978 0 0.121259140952891 0.43112117036853742 0 0.1082531754734323 0.31250000000117473 0 0.75000000000057243 0.35048094716480432 0 0.88173731489851925 0.33077402607778361 0 0.81242894672211508 0.45500248311961472 0 0.121259140952891 0.43112117036853742 0 0.24418615484441761 0.35773612382016978 0 0.22257735880419699 0.47344721641341742 0 0.81242894672211508 0.45500248311961472 0 0.88173731489851925 0.33077402607778361 0 0.915464298762109 0.43749999999886913 0 0 0.62500000000121547 0 0 0.50000000000206146 0 0.1371230538040123 0.56179824718362847 0 0.82212678063041267 0.67678595194836966 0 0.89051480781310632 0.79665793440246835 0 0.76243180583607129 0.78687675331113149 0 0.76243180583607129 0.78687675331113149 0 0.69010814643829166 0.89298495739101336 0 0.62844955668446423 0.7850749770380413 0 0.89051480781310632 0.79665793440246835 0 0.82212678063041267 0.67678595194836966 0 0.92266244547590082 0.68749999999917555 0 0 0.50000000000206146 0 0.121259140952891 0.43112117036853742 0 0.1371230538040123 0.56179824718362847 0 0.1082531754723032 0.6875000000007816 0 0 0.62500000000121547 0 0.1371230538040123 0.56179824718362847 0 0.75000000000032374 0.56698729811007709 0 0.88927506082488361 0.56409486310635837 0 0.82212678063041267 0.67678595194836966 0 0.81242894672211508 0.45500248311961472 0 0.88927506082488361 0.56409486310635837 0 0.75000000000032374 0.56698729811007709 0 0.69851598570178741 0.68211701800612057 0 0.56496004948275869 0.67675037307860475 0 0.62752533658682441 0.56838075195614346 0 0.69851598570178741 0.68211701800612057 0 0.76243180583607129 0.78687675331113149 0 0.62844955668446423 0.7850749770380413 0 0.23533274979922561 0.77093399389351469 0 0.18802967116092181 0.89415349436770275 0 0.10409951422139101 0.81206782209691231 0 0.121259140952891 0.43112117036853742 0 0.22257735880419699 0.47344721641341742 0 0.1371230538040123 0.56179824718362847 0 0.75000000000032374 0.56698729811007709 0 0.69851598570178741 0.68211701800612057 0 0.62752533658682441 0.56838075195614346 0 0.56496004948275869 0.67675037307860475 0 0.69851598570178741 0.68211701800612057 0 0.62844955668446423 0.7850749770380413 0 0.1371230538040123 0.56179824718362847 0 0.22257735880419699 0.47344721641341742 0 0.26982811998763367 0.56544650815856912 0 0.21809253452218619 0.65480892822618109 0 0.1371230538040123 0.56179824718362847 0 0.26982811998763367 0.56544650815856912 0 0.24418615484441761 0.35773612382016978 0 0.1082531754734323 0.31250000000117473 0 0.20767261601459541 0.25628918442207171 0 0.88173731489851925 0.33077402607778361 0 0.75000000000057243 0.35048094716480432 0 0.79891106056046712 0.25007334953587562 0 0.75000000000032374 0.56698729811007709 0 0.82212678063041267 0.67678595194836966 0 0.69851598570178741 0.68211701800612057 0 0.81249999999950517 0.1082531754733404 0 0.89658421694297741 0.1933620068391701 0 0.79891106056046712 0.25007334953587562 0 0.81249999999950517 0.1082531754733404 0 0.79891106056046712 0.25007334953587562 0 0.73983916756365475 0.17530677078674589 0 0.23533274979922561 0.77093399389351469 0 0.21809253452218619 0.65480892822618109 0 0.32607333794064219 0.67760114260606152 0 0.1082531754723032 0.6875000000007816 0 0.1371230538040123 0.56179824718362847 0 0.21809253452218619 0.65480892822618109 0 0.69851598570178741 0.68211701800612057 0 0.82212678063041267 0.67678595194836966 0 0.76243180583607129 0.78687675331113149 0 0.69010814643829166 0.89298495739101336 0 0.76243180583607129 0.78687675331113149 0 0.80886664387416207 0.89717308644237903 0 0.43750000000181222 0.89174682452709564 0 0.31258827852827581 0.89214793616708443 0 0.37776173212361452 0.78514649317305008 0 0.43750000000181222 0.89174682452709564 0 0.37500000000156292 1 0 0.31258827852827581 0.89214793616708443 0 0.121259140952891 0.43112117036853742 0 0 0.37500000000156292 0 0.1082531754734323 0.31250000000117473 0 0.50000000000206146 1 0 0.37500000000156292 1 0 0.43750000000181222 0.89174682452709564 0 0.31258827852827581 0.89214793616708443 0 0.18802967116092181 0.89415349436770275 0 0.23533274979922561 0.77093399389351469 0 0 0.50000000000206146 0 0 0.37500000000156292 0 0.121259140952891 0.43112117036853742 0 0.62844955668446423 0.7850749770380413 0 0.69010814643829166 0.89298495739101336 0 0.56327595140699671 0.89211526915426331 0 0.69010814643829166 0.89298495739101336 0 0.62500000000121547 1 0 0.56327595140699671 0.89211526915426331 0 0.25000000000104189 1 0 0.18802967116092181 0.89415349436770275 0 0.31258827852827581 0.89214793616708443 0 0.50000000000206146 1 0 0.43750000000181222 0.89174682452709564 0 0.56327595140699671 0.89211526915426331 0 0.56249999999885147 0.1082531754730395 0 0.62499999999901068 0 0 0.68749999999926592 0.1082531754732875 0 1 0.49999999999869221 0 1 0.62499999999901068 0 0.88927506082488361 0.56409486310635837 0 0 0.25000000000104189 0 0.12076953676380731 0.18690935762408761 0 0.1082531754734323 0.31250000000117473 0 0.49999999999869221 0 0 0.62499999999901068 0 0 0.56249999999885147 0.1082531754730395 0 0.62500000000121547 1 0 0.50000000000206146 1 0 0.56327595140699671 0.89211526915426331 0 0.37500000000156292 1 0 0.25000000000104189 1 0 0.31258827852827581 0.89214793616708443 0 0.31281086598417152 0.10449318608631281 0 0.37499999999904599 0 0 0.43749999999910871 0.1082531754729984 0 0.43750000000181222 0.89174682452709564 0 0.37776173212361452 0.78514649317305008 0 0.50046028868828263 0.78376912307435687 0 0 0.37500000000156292 0 0 0.25000000000104189 0 0.1082531754734323 0.31250000000117473 0 0.49999999999869221 0 0 0.56249999999885147 0.1082531754730395 0 0.43749999999910871 0.1082531754729984 0 0.43750000000181222 0.89174682452709564 0 0.50046028868828263 0.78376912307435687 0 0.56327595140699671 0.89211526915426331 0 0.74999999999934042 0 0 0.81249999999950517 0.1082531754733404 0 0.68749999999926592 0.1082531754732875 0 0.37499999999904599 0 0 0.49999999999869221 0 0 0.43749999999910871 0.1082531754729984 0 0.25000000000104189 1 0 0.12500000000052089 1 0 0.18802967116092181 0.89415349436770275 0 0.50046028868828263 0.78376912307435687 0 0.62844955668446423 0.7850749770380413 0 0.56327595140699671 0.89211526915426331 0 0.37776173212361452 0.78514649317305008 0 0.31258827852827581 0.89214793616708443 0 0.23533274979922561 0.77093399389351469 0 0.62499999999901068 0 0 0.74999999999934042 0 0 0.68749999999926592 0.1082531754732875 0 1 0.74999999999934042 0 1 0.87499999999967015 0 0.89051480781310632 0.79665793440246835 0 0 0.25000000000104189 0 0 0.12500000000052089 0 0.12076953676380731 0.18690935762408761 0 0.74999999999934042 0 0 0.87499999999967015 0 0 0.81249999999950517 0.1082531754733404 0 0.24999999999941069 0 0 0.37499999999904599 0 0 0.31281086598417152 0.10449318608631281 0 0.50046028868828263 0.78376912307435687 0 0.37776173212361452 0.78514649317305008 0 0.44078402250377968 0.67714785211715212 0 0.68768773896438518 0.4586835206367198 0 0.75000000000032374 0.56698729811007709 0 0.62752533658682441 0.56838075195614346 0 0.31411863959822661 0.24965544328045999 0 0.37953773393552892 0.34812185820708452 0 0.24418615484441761 0.35773612382016978 0 0.68768773896438518 0.4586835206367198 0 0.81242894672211508 0.45500248311961472 0 0.75000000000032374 0.56698729811007709 0 1 0.24999999999941069 0 1 0.37499999999904599 0 0.88173731489851925 0.33077402607778361 0 0 0.75000000000034761 0 0 0.62500000000121547 0 0.1082531754723032 0.6875000000007816 0 0.50048844149666749 0.56727788297625459 0 0.44078402250377968 0.67714785211715212 0 0.38694285807596462 0.5672991787102919 0 0.50108503093851109 0.35012252869403671 0 0.44301038174930041 0.45684931552185398 0 0.37953773393552892 0.34812185820708452 0 0.50046028868828263 0.78376912307435687 0 0.56496004948275869 0.67675037307860475 0 0.62844955668446423 0.7850749770380413 0 0.68768773896438518 0.4586835206367198 0 0.75000000000057243 0.35048094716480432 0 0.81242894672211508 0.45500248311961472 0 0.56349980387502452 0.45846841892908402 0 0.62512662990940393 0.35044303886909911 0 0.68768773896438518 0.4586835206367198 0 0.50048844149666749 0.56727788297625459 0 0.38694285807596462 0.5672991787102919 0 0.44301038174930041 0.45684931552185398 0 0.50046028868828263 0.78376912307435687 0 0.44078402250377968 0.67714785211715212 0 0.56496004948275869 0.67675037307860475 0 0.50108503093851109 0.35012252869403671 0 0.37953773393552892 0.34812185820708452 0 0.43750000000200551 0.24222777169198509 0 0.75000000000034761 1 0 0.62500000000121547 1 0 0.69010814643829166 0.89298495739101336 0 0.68768773896438518 0.4586835206367198 0 0.62512662990940393 0.35044303886909911 0 0.75000000000057243 0.35048094716480432 0 0.56496004948275869 0.67675037307860475 0 0.44078402250377968 0.67714785211715212 0 0.50048844149666749 0.56727788297625459 0 0.56349980387502452 0.45846841892908402 0 0.44301038174930041 0.45684931552185398 0 0.50108503093851109 0.35012252869403671 0 0.50048844149666749 0.56727788297625459 0 0.44301038174930041 0.45684931552185398 0 0.56349980387502452 0.45846841892908402 0 0.56349980387502452 0.45846841892908402 0 0.50108503093851109 0.35012252869403671 0 0.62512662990940393 0.35044303886909911 0 0.43750000000200551 0.24222777169198509 0 0.37953773393552892 0.34812185820708452 0 0.31411863959822661 0.24965544328045999 0 0.56496004948275869 0.67675037307860475 0 0.50048844149666749 0.56727788297625459 0 0.62752533658682441 0.56838075195614346 0 0.56349980387502452 0.45846841892908402 0 0.68768773896438518 0.4586835206367198 0 0.62752533658682441 0.56838075195614346 0 0.50048844149666749 0.56727788297625459 0 0.56349980387502452 0.45846841892908402 0 0.62752533658682441 0.56838075195614346 0 0.75000000000057243 0.35048094716480432 0 0.62512662990940393 0.35044303886909911 0 0.68668231842078242 0.24762892664808989 0 0.50108503093851109 0.35012252869403671 0 0.43750000000200551 0.24222777169198509 0 0.56250000000143974 0.2422277716920859 0 0.62512662990940393 0.35044303886909911 0 0.50108503093851109 0.35012252869403671 0 0.56250000000143974 0.2422277716920859 0 0.68668231842078242 0.24762892664808989 0 0.62512662990940393 0.35044303886909911 0 0.56250000000143974 0.2422277716920859 0 0.22257735880419699 0.47344721641341742 0 0.24418615484441761 0.35773612382016978 0 0.32815957677880009 0.4577243358118348 0 0.12076953676380731 0.18690935762408761 0 0.19185372118111221 0.092925648673580788 0 0.25103557339309318 0.17464499738446629 0 0.20767261601459541 0.25628918442207171 0 0.12076953676380731 0.18690935762408761 0 0.25103557339309318 0.17464499738446629 0 0 0.87499999999950151 0 0 0.75000000000034761 0 0.10409951422139101 0.81206782209691231 0 0.1249999999997731 0 0 0.24999999999941069 0 0 0.19185372118111221 0.092925648673580788 0 1 0.1249999999997731 0 1 0.24999999999941069 0 0.89658421694297741 0.1933620068391701 0 0.88927506082488361 0.56409486310635837 0 0.81242894672211508 0.45500248311961472 0 0.915464298762109 0.43749999999886913 0 0.87499999999950151 1 0 0.75000000000034761 1 0 0.80886664387416207 0.89717308644237903 0 0.75000000000034761 1 0 0.69010814643829166 0.89298495739101336 0 0.80886664387416207 0.89717308644237903 0 0.82212678063041267 0.67678595194836966 0 0.88927506082488361 0.56409486310635837 0 0.92266244547590082 0.68749999999917555 0 0 0.75000000000034761 0 0.1082531754723032 0.6875000000007816 0 0.10409951422139101 0.81206782209691231 0 0.24999999999941069 0 0 0.31281086598417152 0.10449318608631281 0 0.19185372118111221 0.092925648673580788 0 1 0.24999999999941069 0 0.88173731489851925 0.33077402607778361 0 0.89658421694297741 0.1933620068391701 0 0.32815957677880009 0.4577243358118348 0 0.38694285807596462 0.5672991787102919 0 0.26982811998763367 0.56544650815856912 0 0.76243180583607129 0.78687675331113149 0 0.89051480781310632 0.79665793440246835 0 0.80886664387416207 0.89717308644237903 0 0.38694285807596462 0.5672991787102919 0 0.44078402250377968 0.67714785211715212 0 0.32607333794064219 0.67760114260606152 0 0.37776173212361452 0.78514649317305008 0 0.23533274979922561 0.77093399389351469 0 0.32607333794064219 0.67760114260606152 0 1 0.49999999999869221 0 0.88927506082488361 0.56409486310635837 0 0.915464298762109 0.43749999999886913 0 0.88173731489851925 0.33077402607778361 0 1 0.37499999999904599 0 0.915464298762109 0.43749999999886913 0 0.24418615484441761 0.35773612382016978 0 0.37953773393552892 0.34812185820708452 0 0.32815957677880009 0.4577243358118348 0 0.44301038174930041 0.45684931552185398 0 0.38694285807596462 0.5672991787102919 0 0.32815957677880009 0.4577243358118348 0 0.88927506082488361 0.56409486310635837 0 1 0.62499999999901068 0 0.92266244547590082 0.68749999999917555 0 1 0.74999999999934042 0 0.89051480781310632 0.79665793440246835 0 0.92266244547590082 0.68749999999917555 0 0 1 0 0 0.87499999999950151 0 0.091506350946494744 0.90849364905351082 0 1 1 0 0.87499999999950151 1 0 0.90849364905363228 0.90849364905367769 0 0 0 0 0.1249999999997731 0 0 0.091506350946417708 0.091506350946618076 0 0 0.12500000000052089 0 0 0 0 0.091506350946417708 0.091506350946618076 0 1 0 0 1 0.1249999999997731 0 0.90849364905355434 0.091506350946296292 0 0.87499999999967015 0 0 1 0 0 0.90849364905355434 0.091506350946296292 0 0.12500000000052089 1 0 0 1 0 0.091506350946494744 0.90849364905351082 0 1 0.87499999999967015 0 1 1 0 0.90849364905363228 0.90849364905367769 0 0.38694285807596462 0.5672991787102919 0 0.32607333794064219 0.67760114260606152 0 0.26982811998763367 0.56544650815856912 0 0.31411863959822661 0.24965544328045999 0 0.24418615484441761 0.35773612382016978 0 0.20767261601459541 0.25628918442207171 0 0.1082531754734323 0.31250000000117473 0 0.12076953676380731 0.18690935762408761 0 0.20767261601459541 0.25628918442207171 0 0.75000000000057243 0.35048094716480432 0 0.68668231842078242 0.24762892664808989 0 0.79891106056046712 0.25007334953587562 0 0.22257735880419699 0.47344721641341742 0 0.32815957677880009 0.4577243358118348 0 0.26982811998763367 0.56544650815856912 0 0.44078402250377968 0.67714785211715212 0 0.37776173212361452 0.78514649317305008 0 0.32607333794064219 0.67760114260606152 0 0.89658421694297741 0.1933620068391701 0 0.88173731489851925 0.33077402607778361 0 0.79891106056046712 0.25007334953587562 0 1 0.37499999999904599 0 1 0.49999999999869221 0 0.915464298762109 0.43749999999886913 0 0.37953773393552892 0.34812185820708452 0 0.44301038174930041 0.45684931552185398 0 0.32815957677880009 0.4577243358118348 0 0.32607333794064219 0.67760114260606152 0 0.21809253452218619 0.65480892822618109 0 0.26982811998763367 0.56544650815856912 0 1 0.1249999999997731 0 0.89658421694297741 0.1933620068391701 0 0.90849364905355434 0.091506350946296292 0 0 0.87499999999950151 0 0.10409951422139101 0.81206782209691231 0 0.091506350946494744 0.90849364905351082 0 0.1249999999997731 0 0 0.19185372118111221 0.092925648673580788 0 0.091506350946417708 0.091506350946618076 0 1 0.62499999999901068 0 1 0.74999999999934042 0 0.92266244547590082 0.68749999999917555 0 0.18802967116092181 0.89415349436770275 0 0.12500000000052089 1 0 0.091506350946494744 0.90849364905351082 0 0.89051480781310632 0.79665793440246835 0 1 0.87499999999967015 0 0.90849364905363228 0.90849364905367769 0 0.12076953676380731 0.18690935762408761 0 0 0.12500000000052089 0 0.091506350946417708 0.091506350946618076 0 0.81249999999950517 0.1082531754733404 0 0.87499999999967015 0 0 0.90849364905355434 0.091506350946296292 0 0.87499999999950151 1 0 0.80886664387416207 0.89717308644237903 0 0.90849364905363228 0.90849364905367769 0 0.68668231842078242 0.24762892664808989 0 0.62499999999892575 0.17524047358135519 0 0.73983916756365475 0.17530677078674589 0 0.31281086598417152 0.10449318608631281 0 0.43749999999910871 0.1082531754729984 0 0.37500000000232431 0.17524047358384309 0 0.62499999999892575 0.17524047358135519 0 0.56250000000143974 0.2422277716920859 0 0.49999999999934441 0.1752404735815076 0 0.56249999999885147 0.1082531754730395 0 0.68749999999926592 0.1082531754732875 0 0.62499999999892575 0.17524047358135519 0 0.56249999999885147 0.1082531754730395 0 0.62499999999892575 0.17524047358135519 0 0.49999999999934441 0.1752404735815076 0 0.56250000000143974 0.2422277716920859 0 0.43750000000200551 0.24222777169198509 0 0.49999999999934441 0.1752404735815076 0 0.43749999999910871 0.1082531754729984 0 0.56249999999885147 0.1082531754730395 0 0.49999999999934441 0.1752404735815076 0 0.68668231842078242 0.24762892664808989 0 0.56250000000143974 0.2422277716920859 0 0.62499999999892575 0.17524047358135519 0 0.43750000000200551 0.24222777169198509 0 0.31411863959822661 0.24965544328045999 0 0.37500000000232431 0.17524047358384309 0 0.49999999999934441 0.1752404735815076 0 0.43750000000200551 0.24222777169198509 0 0.37500000000232431 0.17524047358384309 0 0.43749999999910871 0.1082531754729984 0 0.49999999999934441 0.1752404735815076 0 0.37500000000232431 0.17524047358384309 0 0.62499999999892575 0.17524047358135519 0 0.68749999999926592 0.1082531754732875 0 0.73983916756365475 0.17530677078674589 0 0.68749999999926592 0.1082531754732875 0 0.81249999999950517 0.1082531754733404 0 0.73983916756365475 0.17530677078674589 0 0.10409951422139101 0.81206782209691231 0 0.18802967116092181 0.89415349436770275 0 0.091506350946494744 0.90849364905351082 0 0.89658421694297741 0.1933620068391701 0 0.81249999999950517 0.1082531754733404 0 0.90849364905355434 0.091506350946296292 0 0.19185372118111221 0.092925648673580788 0 0.12076953676380731 0.18690935762408761 0 0.091506350946417708 0.091506350946618076 0 0.37500000000232431 0.17524047358384309 0 0.31411863959822661 0.24965544328045999 0 0.25103557339309318 0.17464499738446629 0 0.31281086598417152 0.10449318608631281 0 0.37500000000232431 0.17524047358384309 0 0.25103557339309318 0.17464499738446629 0 0.80886664387416207 0.89717308644237903 0 0.89051480781310632 0.79665793440246835 0 0.90849364905363228 0.90849364905367769 0 0.19185372118111221 0.092925648673580788 0 0.31281086598417152 0.10449318608631281 0 0.25103557339309318 0.17464499738446629 0 0.79891106056046712 0.25007334953587562 0 0.68668231842078242 0.24762892664808989 0 0.73983916756365475 0.17530677078674589 0 0.31411863959822661 0.24965544328045999 0 0.20767261601459541 0.25628918442207171 0 0.25103557339309318 0.17464499738446629 0 

        </DataArray>

      </Points>

      <Cells>

        <DataArray type="Int32" Name="connectivity" format="ascii">

0 1 2 3 4 5 6 7 8 9 10 11 12 13 14 15 16 17 18 19 20 21 22 23 24 25 26 27 28 29 30 31 32 33 34 35 36 37 38 39 40 41 42 43 44 45 46 47 48 49 50 51 52 53 54 55 56 57 58 59 60 61 62 63 64 65 66 67 68 69 70 71 72 73 74 75 76 77 78 79 80 81 82 83 84 85 86 87 88 89 90 91 92 93 94 95 96 97 98 99 100 101 102 103 104 105 106 107 108 109 110 111 112 113 114 115 116 117 118 119 120 121 122 123 124 125 126 127 128 129 130 131 132 133 134 135 136 137 138 139 140 141 142 143 144 145 146 147 148 149 150 151 152 153 154 155 156 157 158 159 160 161 162 163 164 165 166 167 168 169 170 171 172 173 174 175 176 177 178 179 180 181 182 183 184 185 186 187 188 189 190 191 192 193 194 195 196 197 198 199 200 201 202 203 204 205 206 207 208 209 210 211 212 213 214 215 216 217 218 219 220 221 222 223 224 225 226 227 228 229 230 231 232 233 234 235 236 237 238 239 240 241 242 243 244 245 246 247 248 249 250 251 252 253 254 255 256 257 258 259 260 261 262 263 264 265 266 267 268 269 270 271 272 273 274 275 276 277 278 279 280 281 282 283 284 285 286 287 288 289 290 291 292 293 294 295 296 297 298 299 300 301 302 303 304 305 306 307 308 309 310 311 312 313 314 315 316 317 318 319 320 321 322 323 324 325 326 327 328 329 330 331 332 333 334 335 336 337 338 339 340 341 342 343 344 345 346 347 348 349 350 351 352 353 354 355 356 357 358 359 360 361 362 363 364 365 366 367 368 369 370 371 372 373 374 375 376 377 378 379 380 381 382 383 384 385 386 387 388 389 390 391 392 393 394 395 396 397 398 399 400 401 402 403 404 405 406 407 408 409 410 411 412 413 414 415 416 417 418 419 420 421 422 423 424 425 426 427 428 429 430 431 432 433 434 435 436 437 438 439 440 441 442 443 444 445 446 447 448 449 450 451 452 453 454 455 456 457 458 459 460 461 462 463 464 465 466 467 468 469 470 471 472 473 474 475 476 477 478 479 480 481 482 483 484 485 

        </DataArray>

        <DataArray type="Int32" Name="offsets" format="ascii">

3 6 9 12 15 18 21 24 27 30 33 36 39 42 45 48 51 54 57 60 63 66 69 72 75 78 81 84 87 90 93 96 99 102 105 108 111 114 117 120 123 126 129 132 135 138 141 144 147 150 153 156 159 162 165 168 171 174 177 180 183 186 189 192 195 198 201 204 207 210 213 216 219 222 225 228 231 234 237 240 243 246 249 252 255 258 261 264 267 270 273 276 279 282 285 288 291 294 297 300 303 306 309 312 315 318 321 324 327 330 333 336 339 342 345 348 351 354 357 360 363 366 369 372 375 378 381 384 387 390 393 396 399 402 405 408 411 414 417 420 423 426 429 432 435 438 441 444 447 450 453 456 459 462 465 468 471 474 477 480 483 486 

        </DataArray>

        <DataArray type="Int32" Name="types" format="ascii">

5 5 5 5 5 5 5 5 5 5 5 5 5 5 5 5 5 5 5 5 5 5 5 5 5 5 5 5 5 5 5 5 5 5 5 5 5 5 5 5 5 5 5 5 5 5 5 5 5 5 5 5 5 5 5 5 5 5 5 5 5 5 5 5 5 5 5 5 5 5 5 5 5 5 5 5 5 5 5 5 5 5 5 5 5 5 5 5 5 5 5 5 5 5 5 5 5 5 5 5 5 5 5 5 5 5 5 5 5 5 5 5 5 5 5 5 5 5 5 5 5 5 5 5 5 5 5 5 5 5 5 5 5 5 5 5 5 5 5 5 5 5 5 5 5 5 5 5 5 5 5 5 5 5 5 5 5 5 5 5 5 5 

        </DataArray>

      </Cells>

    </Piece>

  </UnstructuredGrid>

</VTKFile>

