<?xml version="1.0"?>

<VTKFile type="UnstructuredGrid" version="0.1">

  <UnstructuredGrid>

    <Piece NumberOfPoints="486" NumberOfCells="162">

      <PointData>

        <DataArray type="Float64" Name="K" format="ascii">

9.62674569947304271e-01
9.62674569947304271e-01
9.62674569947304271e-01
9.50347443291276073e-01
9.50347443291276073e-01
9.50347443291276073e-01
9.93160549084331934e-01
9.93160549084331934e-01
9.93160549084331934e-01
9.63472455158499108e-01
9.63472455158499108e-01
9.63472455158499108e-01
9.89010660886217252e-01
9.89010660886217252e-01
9.89010660886217252e-01
9.48654104498720119e-01
9.48654104498720119e-01
9.48654104498720119e-01
9.75024851092853639e-01
9.75024851092853639e-01
9.75024851092853639e-01
9.68496692925874259e-01
9.68496692925874259e-01
9.68496692925874259e-01
9.80094653624648093e-01
9.80094653624648093e-01
9.80094653624648093e-01
9.67662065041221764e-01
9.67662065041221764e-01
9.67662065041221764e-01
9.71508023819017796e-01
9.71508023819017796e-01
9.71508023819017796e-01
9.68124392034360737e-01
9.68124392034360737e-01
9.68124392034360737e-01
9.13189309789173786e-01
9.13189309789173786e-01
9.13189309789173786e-01
9.13690953689513807e-01
9.13690953689513807e-01
9.13690953689513807e-01
8.99148434771891769e-01
8.99148434771891769e-01
8.99148434771891769e-01
9.37221878630449257e-01
9.37221878630449257e-01
9.37221878630449257e-01
9.53692316939373286e-01
9.53692316939373286e-01
9.53692316939373286e-01
9.68464852564712819e-01
9.68464852564712819e-01
9.68464852564712819e-01
9.03531415234965274e-01
9.03531415234965274e-01
9.03531415234965274e-01
9.11779641454712353e-01
9.11779641454712353e-01
9.11779641454712353e-01
9.68297536396703462e-01
9.68297536396703462e-01
9.68297536396703462e-01
9.57106563790128706e-01
9.57106563790128706e-01
9.57106563790128706e-01
1.01274951862923634e+00
1.01274951862923634e+00
1.01274951862923634e+00
9.91825204519928283e-01
9.91825204519928283e-01
9.91825204519928283e-01
9.07626242653331805e-01
9.07626242653331805e-01
9.07626242653331805e-01
1.01814549233118501e+00
1.01814549233118501e+00
1.01814549233118501e+00
1.02736574533473513e+00
1.02736574533473513e+00
1.02736574533473513e+00
9.32494564716619401e-01
9.32494564716619401e-01
9.32494564716619401e-01
9.58426187413730979e-01
9.58426187413730979e-01
9.58426187413730979e-01
9.33280259532381473e-01
9.33280259532381473e-01
9.33280259532381473e-01
1.02181903772039551e+00
1.02181903772039551e+00
1.02181903772039551e+00
9.76565503769497356e-01
9.76565503769497356e-01
9.76565503769497356e-01
1.00580541215340480e+00
1.00580541215340480e+00
1.00580541215340480e+00
9.97994616684967806e-01
9.97994616684967806e-01
9.97994616684967806e-01
1.03088475468671104e+00
1.03088475468671104e+00
1.03088475468671104e+00
9.42819744043892349e-01
9.42819744043892349e-01
9.42819744043892349e-01
9.95367991731031410e-01
9.95367991731031410e-01
9.95367991731031410e-01
9.85493293834581841e-01
9.85493293834581841e-01
9.85493293834581841e-01
1.03044991891809690e+00
1.03044991891809690e+00
1.03044991891809690e+00
9.56698637774575422e-01
9.56698637774575422e-01
9.56698637774575422e-01
1.01985506344272303e+00
1.01985506344272303e+00
1.01985506344272303e+00
1.08161713861667463e+00
1.08161713861667463e+00
1.08161713861667463e+00
9.90940885305020114e-01
9.90940885305020114e-01
9.90940885305020114e-01
1.02035691228262437e+00
1.02035691228262437e+00
1.02035691228262437e+00
1.07238025574567009e+00
1.07238025574567009e+00
1.07238025574567009e+00
1.03667942943836278e+00
1.03667942943836278e+00
1.03667942943836278e+00
9.88057794890712215e-01
9.88057794890712215e-01
9.88057794890712215e-01
1.04379785580714080e+00
1.04379785580714080e+00
1.04379785580714080e+00
9.67690598934326629e-01
9.67690598934326629e-01
9.67690598934326629e-01
1.01782026734863607e+00
1.01782026734863607e+00
1.01782026734863607e+00
1.07184795480856732e+00
1.07184795480856732e+00
1.07184795480856732e+00
9.84315955240830709e-01
9.84315955240830709e-01
9.84315955240830709e-01
1.03408740610269234e+00
1.03408740610269234e+00
1.03408740610269234e+00
1.03899461500520340e+00
1.03899461500520340e+00
1.03899461500520340e+00
9.52672195575686276e-01
9.52672195575686276e-01
9.52672195575686276e-01
9.58714808196166945e-01
9.58714808196166945e-01
9.58714808196166945e-01
9.42223032763286561e-01
9.42223032763286561e-01
9.42223032763286561e-01
1.05235218328619839e+00
1.05235218328619839e+00
1.05235218328619839e+00
9.92050347046562253e-01
9.92050347046562253e-01
9.92050347046562253e-01
1.02659073056611416e+00
1.02659073056611416e+00
1.02659073056611416e+00
1.02028151000558753e+00
1.02028151000558753e+00
1.02028151000558753e+00
1.04506375519107930e+00
1.04506375519107930e+00
1.04506375519107930e+00
9.30081477392369682e-01
9.30081477392369682e-01
9.30081477392369682e-01
9.21229772408509895e-01
9.21229772408509895e-01
9.21229772408509895e-01
1.05563662360007893e+00
1.05563662360007893e+00
1.05563662360007893e+00
9.27959375826170829e-01
9.27959375826170829e-01
9.27959375826170829e-01
9.77033731682939499e-01
9.77033731682939499e-01
9.77033731682939499e-01
9.78338620201785636e-01
9.78338620201785636e-01
9.78338620201785636e-01
9.03024194435080196e-01
9.03024194435080196e-01
9.03024194435080196e-01
1.02772248826563373e+00
1.02772248826563373e+00
1.02772248826563373e+00
9.22355172962469827e-01
9.22355172962469827e-01
9.22355172962469827e-01
9.60145286792001063e-01
9.60145286792001063e-01
9.60145286792001063e-01
9.74457603819886442e-01
9.74457603819886442e-01
9.74457603819886442e-01
9.28575225092457712e-01
9.28575225092457712e-01
9.28575225092457712e-01
9.10918832068401407e-01
9.10918832068401407e-01
9.10918832068401407e-01
1.06919245908295268e+00
1.06919245908295268e+00
1.06919245908295268e+00
1.06861034477746486e+00
1.06861034477746486e+00
1.06861034477746486e+00
9.90460376670456055e-01
9.90460376670456055e-01
9.90460376670456055e-01
8.93406698534122024e-01
8.93406698534122024e-01
8.93406698534122024e-01
9.82339412294298442e-01
9.82339412294298442e-01
9.82339412294298442e-01
9.32503597442266852e-01
9.32503597442266852e-01
9.32503597442266852e-01
9.99340651244819966e-01
9.99340651244819966e-01
9.99340651244819966e-01
1.07655335987540290e+00
1.07655335987540290e+00
1.07655335987540290e+00
8.94607738965981447e-01
8.94607738965981447e-01
8.94607738965981447e-01
9.35042994583754061e-01
9.35042994583754061e-01
9.35042994583754061e-01
9.12436491529097227e-01
9.12436491529097227e-01
9.12436491529097227e-01
1.02377509901780628e+00
1.02377509901780628e+00
1.02377509901780628e+00
1.07859545338456697e+00
1.07859545338456697e+00
1.07859545338456697e+00
1.04869326798191320e+00
1.04869326798191320e+00
1.04869326798191320e+00
1.05515415280572267e+00
1.05515415280572267e+00
1.05515415280572267e+00
1.01047690293383718e+00
1.01047690293383718e+00
1.01047690293383718e+00
1.04233585047415112e+00
1.04233585047415112e+00
1.04233585047415112e+00
1.03541583499834178e+00
1.03541583499834178e+00
1.03541583499834178e+00
9.89592304466181183e-01
9.89592304466181183e-01
9.89592304466181183e-01
1.04928452528074945e+00
1.04928452528074945e+00
1.04928452528074945e+00
9.93910626324739810e-01
9.93910626324739810e-01
9.93910626324739810e-01
9.32458419301278929e-01
9.32458419301278929e-01
9.32458419301278929e-01
1.06453846085749260e+00
1.06453846085749260e+00
1.06453846085749260e+00
1.06251667036557929e+00
1.06251667036557929e+00
1.06251667036557929e+00
9.45504290177203277e-01
9.45504290177203277e-01
9.45504290177203277e-01
9.82279283860281294e-01
9.82279283860281294e-01
9.82279283860281294e-01
1.05323929841485286e+00
1.05323929841485286e+00
1.05323929841485286e+00
9.88187512683889380e-01
9.88187512683889380e-01
9.88187512683889380e-01
9.70310684498435605e-01
9.70310684498435605e-01
9.70310684498435605e-01
1.00712478259077565e+00
1.00712478259077565e+00
1.00712478259077565e+00
9.13428436151728529e-01
9.13428436151728529e-01
9.13428436151728529e-01
9.26379407405163224e-01
9.26379407405163224e-01
9.26379407405163224e-01
9.65749679118293458e-01
9.65749679118293458e-01
9.65749679118293458e-01
9.66530974759560291e-01
9.66530974759560291e-01
9.66530974759560291e-01
1.03853389042157218e+00
1.03853389042157218e+00
1.03853389042157218e+00
9.73312990398214506e-01
9.73312990398214506e-01
9.73312990398214506e-01
9.77574504486824258e-01
9.77574504486824258e-01
9.77574504486824258e-01
9.87380278664652833e-01
9.87380278664652833e-01
9.87380278664652833e-01
9.84695865285940886e-01
9.84695865285940886e-01
9.84695865285940886e-01
1.01736313227183017e+00
1.01736313227183017e+00
1.01736313227183017e+00
1.02855644205253571e+00
1.02855644205253571e+00
1.02855644205253571e+00
1.02969392962142536e+00
1.02969392962142536e+00
1.02969392962142536e+00
1.01668737090722328e+00
1.01668737090722328e+00
1.01668737090722328e+00
1.02736663169329101e+00
1.02736663169329101e+00
1.02736663169329101e+00
9.71092597999078988e-01
9.71092597999078988e-01
9.71092597999078988e-01
1.00259331966140364e+00
1.00259331966140364e+00
1.00259331966140364e+00
9.38217511658016146e-01
9.38217511658016146e-01
9.38217511658016146e-01
1.03899607179583420e+00
1.03899607179583420e+00
1.03899607179583420e+00
1.01981828447757983e+00
1.01981828447757983e+00
1.01981828447757983e+00
1.01918184327277062e+00
1.01918184327277062e+00
1.01918184327277062e+00
9.87727990865719496e-01
9.87727990865719496e-01
9.87727990865719496e-01
9.18797145237535196e-01
9.18797145237535196e-01
9.18797145237535196e-01
9.98577802655367663e-01
9.98577802655367663e-01
9.98577802655367663e-01
9.85321339448787969e-01
9.85321339448787969e-01
9.85321339448787969e-01
1.02076634174309477e+00
1.02076634174309477e+00
1.02076634174309477e+00
9.41759799232743555e-01
9.41759799232743555e-01
9.41759799232743555e-01
1.01301812099365773e+00
1.01301812099365773e+00
1.01301812099365773e+00
9.87667900518937936e-01
9.87667900518937936e-01
9.87667900518937936e-01
1.03789819704501007e+00
1.03789819704501007e+00
1.03789819704501007e+00
9.97353927295279941e-01
9.97353927295279941e-01
9.97353927295279941e-01
9.62233646240098550e-01
9.62233646240098550e-01
9.62233646240098550e-01
9.99314262622295946e-01
9.99314262622295946e-01
9.99314262622295946e-01
1.02759614509714958e+00
1.02759614509714958e+00
1.02759614509714958e+00
1.02351795479770624e+00
1.02351795479770624e+00
1.02351795479770624e+00
1.03627304309718826e+00
1.03627304309718826e+00
1.03627304309718826e+00
1.05996635935982875e+00
1.05996635935982875e+00
1.05996635935982875e+00
1.05926585867933198e+00
1.05926585867933198e+00
1.05926585867933198e+00
1.09863238574001287e+00
1.09863238574001287e+00
1.09863238574001287e+00
1.08952883704915782e+00
1.08952883704915782e+00
1.08952883704915782e+00
1.10210827872174333e+00
1.10210827872174333e+00
1.10210827872174333e+00
1.09665142329255771e+00
1.09665142329255771e+00
1.09665142329255771e+00
1.09178332002528422e+00
1.09178332002528422e+00
1.09178332002528422e+00
1.07756535342192139e+00
1.07756535342192139e+00
1.07756535342192139e+00
1.07719253138051685e+00
1.07719253138051685e+00
1.07719253138051685e+00
1.08846483080983170e+00
1.08846483080983170e+00
1.08846483080983170e+00
1.08015843179837878e+00
1.08015843179837878e+00
1.08015843179837878e+00
1.06463247084786983e+00
1.06463247084786983e+00
1.06463247084786983e+00
1.03874942416657401e+00
1.03874942416657401e+00
1.03874942416657401e+00
9.69753624678181825e-01
9.69753624678181825e-01
9.69753624678181825e-01
1.02101281975107017e+00
1.02101281975107017e+00
1.02101281975107017e+00
1.03573079544955493e+00
1.03573079544955493e+00
1.03573079544955493e+00
1.06061599885185331e+00
1.06061599885185331e+00
1.06061599885185331e+00
1.05638358888327999e+00
1.05638358888327999e+00
1.05638358888327999e+00
1.01661320975467140e+00
1.01661320975467140e+00
1.01661320975467140e+00
1.05191160622682123e+00
1.05191160622682123e+00
1.05191160622682123e+00
1.03392641618103931e+00
1.03392641618103931e+00
1.03392641618103931e+00
1.04678846432909234e+00
1.04678846432909234e+00
1.04678846432909234e+00


        </DataArray>

      </PointData>

      <CellData/>

      <Points>

        <DataArray type="Float64" NumberOfComponents="3" format="ascii">

0.1082531754723032 0.6875000000007816 0 0.23533274979922561 0.77093399389351469 0 0.10409951422139101 0.81206782209691231 0 0.23533274979922561 0.77093399389351469 0 0.1082531754723032 0.6875000000007816 0 0.21809253452218619 0.65480892822618109 0 0.24418615484441761 0.35773612382016978 0 0.121259140952891 0.43112117036853742 0 0.1082531754734323 0.31250000000117473 0 0.75000000000057243 0.35048094716480432 0 0.88173731489851925 0.33077402607778361 0 0.81242894672211508 0.45500248311961472 0 0.121259140952891 0.43112117036853742 0 0.24418615484441761 0.35773612382016978 0 0.22257735880419699 0.47344721641341742 0 0.81242894672211508 0.45500248311961472 0 0.88173731489851925 0.33077402607778361 0 0.915464298762109 0.43749999999886913 0 0 0.62500000000121547 0 0 0.50000000000206146 0 0.1371230538040123 0.56179824718362847 0 0.82212678063041267 0.67678595194836966 0 0.89051480781310632 0.79665793440246835 0 0.76243180583607129 0.78687675331113149 0 0.76243180583607129 0.78687675331113149 0 0.69010814643829166 0.89298495739101336 0 0.62844955668446423 0.7850749770380413 0 0.89051480781310632 0.79665793440246835 0 0.82212678063041267 0.67678595194836966 0 0.92266244547590082 0.68749999999917555 0 0 0.50000000000206146 0 0.121259140952891 0.43112117036853742 0 0.1371230538040123 0.56179824718362847 0 0.1082531754723032 0.6875000000007816 0 0 0.62500000000121547 0 0.1371230538040123 0.56179824718362847 0 0.75000000000032374 0.56698729811007709 0 0.88927506082488361 0.56409486310635837 0 0.82212678063041267 0.67678595194836966 0 0.81242894672211508 0.45500248311961472 0 0.88927506082488361 0.56409486310635837 0 0.75000000000032374 0.56698729811007709 0 0.69851598570178741 0.68211701800612057 0 0.56496004948275869 0.67675037307860475 0 0.62752533658682441 0.56838075195614346 0 0.69851598570178741 0.68211701800612057 0 0.76243180583607129 0.78687675331113149 0 0.62844955668446423 0.7850749770380413 0 0.23533274979922561 0.77093399389351469 0 0.18802967116092181 0.89415349436770275 0 0.10409951422139101 0.81206782209691231 0 0.121259140952891 0.43112117036853742 0 0.22257735880419699 0.47344721641341742 0 0.1371230538040123 0.56179824718362847 0 0.75000000000032374 0.56698729811007709 0 0.69851598570178741 0.68211701800612057 0 0.62752533658682441 0.56838075195614346 0 0.56496004948275869 0.67675037307860475 0 0.69851598570178741 0.68211701800612057 0 0.62844955668446423 0.7850749770380413 0 0.1371230538040123 0.56179824718362847 0 0.22257735880419699 0.47344721641341742 0 0.26982811998763367 0.56544650815856912 0 0.21809253452218619 0.65480892822618109 0 0.1371230538040123 0.56179824718362847 0 0.26982811998763367 0.56544650815856912 0 0.24418615484441761 0.35773612382016978 0 0.1082531754734323 0.31250000000117473 0 0.20767261601459541 0.25628918442207171 0 0.88173731489851925 0.33077402607778361 0 0.75000000000057243 0.35048094716480432 0 0.79891106056046712 0.25007334953587562 0 0.75000000000032374 0.56698729811007709 0 0.82212678063041267 0.67678595194836966 0 0.69851598570178741 0.68211701800612057 0 0.81249999999950517 0.1082531754733404 0 0.89658421694297741 0.1933620068391701 0 0.79891106056046712 0.25007334953587562 0 0.81249999999950517 0.1082531754733404 0 0.79891106056046712 0.25007334953587562 0 0.73983916756365475 0.17530677078674589 0 0.23533274979922561 0.77093399389351469 0 0.21809253452218619 0.65480892822618109 0 0.32607333794064219 0.67760114260606152 0 0.1082531754723032 0.6875000000007816 0 0.1371230538040123 0.56179824718362847 0 0.21809253452218619 0.65480892822618109 0 0.69851598570178741 0.68211701800612057 0 0.82212678063041267 0.67678595194836966 0 0.76243180583607129 0.78687675331113149 0 0.69010814643829166 0.89298495739101336 0 0.76243180583607129 0.78687675331113149 0 0.80886664387416207 0.89717308644237903 0 0.43750000000181222 0.89174682452709564 0 0.31258827852827581 0.89214793616708443 0 0.37776173212361452 0.78514649317305008 0 0.43750000000181222 0.89174682452709564 0 0.37500000000156292 1 0 0.31258827852827581 0.89214793616708443 0 0.121259140952891 0.43112117036853742 0 0 0.37500000000156292 0 0.1082531754734323 0.31250000000117473 0 0.50000000000206146 1 0 0.37500000000156292 1 0 0.43750000000181222 0.89174682452709564 0 0.31258827852827581 0.89214793616708443 0 0.18802967116092181 0.89415349436770275 0 0.23533274979922561 0.77093399389351469 0 0 0.50000000000206146 0 0 0.37500000000156292 0 0.121259140952891 0.43112117036853742 0 0.62844955668446423 0.7850749770380413 0 0.69010814643829166 0.89298495739101336 0 0.56327595140699671 0.89211526915426331 0 0.69010814643829166 0.89298495739101336 0 0.62500000000121547 1 0 0.56327595140699671 0.89211526915426331 0 0.25000000000104189 1 0 0.18802967116092181 0.89415349436770275 0 0.31258827852827581 0.89214793616708443 0 0.50000000000206146 1 0 0.43750000000181222 0.89174682452709564 0 0.56327595140699671 0.89211526915426331 0 0.56249999999885147 0.1082531754730395 0 0.62499999999901068 0 0 0.68749999999926592 0.1082531754732875 0 1 0.49999999999869221 0 1 0.62499999999901068 0 0.88927506082488361 0.56409486310635837 0 0 0.25000000000104189 0 0.12076953676380731 0.18690935762408761 0 0.1082531754734323 0.31250000000117473 0 0.49999999999869221 0 0 0.62499999999901068 0 0 0.56249999999885147 0.1082531754730395 0 0.62500000000121547 1 0 0.50000000000206146 1 0 0.56327595140699671 0.89211526915426331 0 0.37500000000156292 1 0 0.25000000000104189 1 0 0.31258827852827581 0.89214793616708443 0 0.31281086598417152 0.10449318608631281 0 0.37499999999904599 0 0 0.43749999999910871 0.1082531754729984 0 0.43750000000181222 0.89174682452709564 0 0.37776173212361452 0.78514649317305008 0 0.50046028868828263 0.78376912307435687 0 0 0.37500000000156292 0 0 0.25000000000104189 0 0.1082531754734323 0.31250000000117473 0 0.49999999999869221 0 0 0.56249999999885147 0.1082531754730395 0 0.43749999999910871 0.1082531754729984 0 0.43750000000181222 0.89174682452709564 0 0.50046028868828263 0.78376912307435687 0 0.56327595140699671 0.89211526915426331 0 0.74999999999934042 0 0 0.81249999999950517 0.1082531754733404 0 0.68749999999926592 0.1082531754732875 0 0.37499999999904599 0 0 0.49999999999869221 0 0 0.43749999999910871 0.1082531754729984 0 0.25000000000104189 1 0 0.12500000000052089 1 0 0.18802967116092181 0.89415349436770275 0 0.50046028868828263 0.78376912307435687 0 0.62844955668446423 0.7850749770380413 0 0.56327595140699671 0.89211526915426331 0 0.37776173212361452 0.78514649317305008 0 0.31258827852827581 0.89214793616708443 0 0.23533274979922561 0.77093399389351469 0 0.62499999999901068 0 0 0.74999999999934042 0 0 0.68749999999926592 0.1082531754732875 0 1 0.74999999999934042 0 1 0.87499999999967015 0 0.89051480781310632 0.79665793440246835 0 0 0.25000000000104189 0 0 0.12500000000052089 0 0.12076953676380731 0.18690935762408761 0 0.74999999999934042 0 0 0.87499999999967015 0 0 0.81249999999950517 0.1082531754733404 0 0.24999999999941069 0 0 0.37499999999904599 0 0 0.31281086598417152 0.10449318608631281 0 0.50046028868828263 0.78376912307435687 0 0.37776173212361452 0.78514649317305008 0 0.44078402250377968 0.67714785211715212 0 0.68768773896438518 0.4586835206367198 0 0.75000000000032374 0.56698729811007709 0 0.62752533658682441 0.56838075195614346 0 0.31411863959822661 0.24965544328045999 0 0.37953773393552892 0.34812185820708452 0 0.24418615484441761 0.35773612382016978 0 0.68768773896438518 0.4586835206367198 0 0.81242894672211508 0.45500248311961472 0 0.75000000000032374 0.56698729811007709 0 1 0.24999999999941069 0 1 0.37499999999904599 0 0.88173731489851925 0.33077402607778361 0 0 0.75000000000034761 0 0 0.62500000000121547 0 0.1082531754723032 0.6875000000007816 0 0.50048844149666749 0.56727788297625459 0 0.44078402250377968 0.67714785211715212 0 0.38694285807596462 0.5672991787102919 0 0.50108503093851109 0.35012252869403671 0 0.44301038174930041 0.45684931552185398 0 0.37953773393552892 0.34812185820708452 0 0.50046028868828263 0.78376912307435687 0 0.56496004948275869 0.67675037307860475 0 0.62844955668446423 0.7850749770380413 0 0.68768773896438518 0.4586835206367198 0 0.75000000000057243 0.35048094716480432 0 0.81242894672211508 0.45500248311961472 0 0.56349980387502452 0.45846841892908402 0 0.62512662990940393 0.35044303886909911 0 0.68768773896438518 0.4586835206367198 0 0.50048844149666749 0.56727788297625459 0 0.38694285807596462 0.5672991787102919 0 0.44301038174930041 0.45684931552185398 0 0.50046028868828263 0.78376912307435687 0 0.44078402250377968 0.67714785211715212 0 0.56496004948275869 0.67675037307860475 0 0.50108503093851109 0.35012252869403671 0 0.37953773393552892 0.34812185820708452 0 0.43750000000200551 0.24222777169198509 0 0.75000000000034761 1 0 0.62500000000121547 1 0 0.69010814643829166 0.89298495739101336 0 0.68768773896438518 0.4586835206367198 0 0.62512662990940393 0.35044303886909911 0 0.75000000000057243 0.35048094716480432 0 0.56496004948275869 0.67675037307860475 0 0.44078402250377968 0.67714785211715212 0 0.50048844149666749 0.56727788297625459 0 0.56349980387502452 0.45846841892908402 0 0.44301038174930041 0.45684931552185398 0 0.50108503093851109 0.35012252869403671 0 0.50048844149666749 0.56727788297625459 0 0.44301038174930041 0.45684931552185398 0 0.56349980387502452 0.45846841892908402 0 0.56349980387502452 0.45846841892908402 0 0.50108503093851109 0.35012252869403671 0 0.62512662990940393 0.35044303886909911 0 0.43750000000200551 0.24222777169198509 0 0.37953773393552892 0.34812185820708452 0 0.31411863959822661 0.24965544328045999 0 0.56496004948275869 0.67675037307860475 0 0.50048844149666749 0.56727788297625459 0 0.62752533658682441 0.56838075195614346 0 0.56349980387502452 0.45846841892908402 0 0.68768773896438518 0.4586835206367198 0 0.62752533658682441 0.56838075195614346 0 0.50048844149666749 0.56727788297625459 0 0.56349980387502452 0.45846841892908402 0 0.62752533658682441 0.56838075195614346 0 0.75000000000057243 0.35048094716480432 0 0.62512662990940393 0.35044303886909911 0 0.68668231842078242 0.24762892664808989 0 0.50108503093851109 0.35012252869403671 0 0.43750000000200551 0.24222777169198509 0 0.56250000000143974 0.2422277716920859 0 0.62512662990940393 0.35044303886909911 0 0.50108503093851109 0.35012252869403671 0 0.56250000000143974 0.2422277716920859 0 0.68668231842078242 0.24762892664808989 0 0.62512662990940393 0.35044303886909911 0 0.56250000000143974 0.2422277716920859 0 0.22257735880419699 0.47344721641341742 0 0.24418615484441761 0.35773612382016978 0 0.32815957677880009 0.4577243358118348 0 0.12076953676380731 0.18690935762408761 0 0.19185372118111221 0.092925648673580788 0 0.25103557339309318 0.17464499738446629 0 0.20767261601459541 0.25628918442207171 0 0.12076953676380731 0.18690935762408761 0 0.25103557339309318 0.17464499738446629 0 0 0.87499999999950151 0 0 0.75000000000034761 0 0.10409951422139101 0.81206782209691231 0 0.1249999999997731 0 0 0.24999999999941069 0 0 0.19185372118111221 0.092925648673580788 0 1 0.1249999999997731 0 1 0.24999999999941069 0 0.89658421694297741 0.1933620068391701 0 0.88927506082488361 0.56409486310635837 0 0.81242894672211508 0.45500248311961472 0 0.915464298762109 0.43749999999886913 0 0.87499999999950151 1 0 0.75000000000034761 1 0 0.80886664387416207 0.89717308644237903 0 0.75000000000034761 1 0 0.69010814643829166 0.89298495739101336 0 0.80886664387416207 0.89717308644237903 0 0.82212678063041267 0.67678595194836966 0 0.88927506082488361 0.56409486310635837 0 0.92266244547590082 0.68749999999917555 0 0 0.75000000000034761 0 0.1082531754723032 0.6875000000007816 0 0.10409951422139101 0.81206782209691231 0 0.24999999999941069 0 0 0.31281086598417152 0.10449318608631281 0 0.19185372118111221 0.092925648673580788 0 1 0.24999999999941069 0 0.88173731489851925 0.33077402607778361 0 0.89658421694297741 0.1933620068391701 0 0.32815957677880009 0.4577243358118348 0 0.38694285807596462 0.5672991787102919 0 0.26982811998763367 0.56544650815856912 0 0.76243180583607129 0.78687675331113149 0 0.89051480781310632 0.79665793440246835 0 0.80886664387416207 0.89717308644237903 0 0.38694285807596462 0.5672991787102919 0 0.44078402250377968 0.67714785211715212 0 0.32607333794064219 0.67760114260606152 0 0.37776173212361452 0.78514649317305008 0 0.23533274979922561 0.77093399389351469 0 0.32607333794064219 0.67760114260606152 0 1 0.49999999999869221 0 0.88927506082488361 0.56409486310635837 0 0.915464298762109 0.43749999999886913 0 0.88173731489851925 0.33077402607778361 0 1 0.37499999999904599 0 0.915464298762109 0.43749999999886913 0 0.24418615484441761 0.35773612382016978 0 0.37953773393552892 0.34812185820708452 0 0.32815957677880009 0.4577243358118348 0 0.44301038174930041 0.45684931552185398 0 0.38694285807596462 0.5672991787102919 0 0.32815957677880009 0.4577243358118348 0 0.88927506082488361 0.56409486310635837 0 1 0.62499999999901068 0 0.92266244547590082 0.68749999999917555 0 1 0.74999999999934042 0 0.89051480781310632 0.79665793440246835 0 0.92266244547590082 0.68749999999917555 0 0 1 0 0 0.87499999999950151 0 0.091506350946494744 0.90849364905351082 0 1 1 0 0.87499999999950151 1 0 0.90849364905363228 0.90849364905367769 0 0 0 0 0.1249999999997731 0 0 0.091506350946417708 0.091506350946618076 0 0 0.12500000000052089 0 0 0 0 0.091506350946417708 0.091506350946618076 0 1 0 0 1 0.1249999999997731 0 0.90849364905355434 0.091506350946296292 0 0.87499999999967015 0 0 1 0 0 0.90849364905355434 0.091506350946296292 0 0.12500000000052089 1 0 0 1 0 0.091506350946494744 0.90849364905351082 0 1 0.87499999999967015 0 1 1 0 0.90849364905363228 0.90849364905367769 0 0.38694285807596462 0.5672991787102919 0 0.32607333794064219 0.67760114260606152 0 0.26982811998763367 0.56544650815856912 0 0.31411863959822661 0.24965544328045999 0 0.24418615484441761 0.35773612382016978 0 0.20767261601459541 0.25628918442207171 0 0.1082531754734323 0.31250000000117473 0 0.12076953676380731 0.18690935762408761 0 0.20767261601459541 0.25628918442207171 0 0.75000000000057243 0.35048094716480432 0 0.68668231842078242 0.24762892664808989 0 0.79891106056046712 0.25007334953587562 0 0.22257735880419699 0.47344721641341742 0 0.32815957677880009 0.4577243358118348 0 0.26982811998763367 0.56544650815856912 0 0.44078402250377968 0.67714785211715212 0 0.37776173212361452 0.78514649317305008 0 0.32607333794064219 0.67760114260606152 0 0.89658421694297741 0.1933620068391701 0 0.88173731489851925 0.33077402607778361 0 0.79891106056046712 0.25007334953587562 0 1 0.37499999999904599 0 1 0.49999999999869221 0 0.915464298762109 0.43749999999886913 0 0.37953773393552892 0.34812185820708452 0 0.44301038174930041 0.45684931552185398 0 0.32815957677880009 0.4577243358118348 0 0.32607333794064219 0.67760114260606152 0 0.21809253452218619 0.65480892822618109 0 0.26982811998763367 0.56544650815856912 0 1 0.1249999999997731 0 0.89658421694297741 0.1933620068391701 0 0.90849364905355434 0.091506350946296292 0 0 0.87499999999950151 0 0.10409951422139101 0.81206782209691231 0 0.091506350946494744 0.90849364905351082 0 0.1249999999997731 0 0 0.19185372118111221 0.092925648673580788 0 0.091506350946417708 0.091506350946618076 0 1 0.62499999999901068 0 1 0.74999999999934042 0 0.92266244547590082 0.68749999999917555 0 0.18802967116092181 0.89415349436770275 0 0.12500000000052089 1 0 0.091506350946494744 0.90849364905351082 0 0.89051480781310632 0.79665793440246835 0 1 0.87499999999967015 0 0.90849364905363228 0.90849364905367769 0 0.12076953676380731 0.18690935762408761 0 0 0.12500000000052089 0 0.091506350946417708 0.091506350946618076 0 0.81249999999950517 0.1082531754733404 0 0.87499999999967015 0 0 0.90849364905355434 0.091506350946296292 0 0.87499999999950151 1 0 0.80886664387416207 0.89717308644237903 0 0.90849364905363228 0.90849364905367769 0 0.68668231842078242 0.24762892664808989 0 0.62499999999892575 0.17524047358135519 0 0.73983916756365475 0.17530677078674589 0 0.31281086598417152 0.10449318608631281 0 0.43749999999910871 0.1082531754729984 0 0.37500000000232431 0.17524047358384309 0 0.62499999999892575 0.17524047358135519 0 0.56250000000143974 0.2422277716920859 0 0.49999999999934441 0.1752404735815076 0 0.56249999999885147 0.1082531754730395 0 0.68749999999926592 0.1082531754732875 0 0.62499999999892575 0.17524047358135519 0 0.56249999999885147 0.1082531754730395 0 0.62499999999892575 0.17524047358135519 0 0.49999999999934441 0.1752404735815076 0 0.56250000000143974 0.2422277716920859 0 0.43750000000200551 0.24222777169198509 0 0.49999999999934441 0.1752404735815076 0 0.43749999999910871 0.1082531754729984 0 0.56249999999885147 0.1082531754730395 0 0.49999999999934441 0.1752404735815076 0 0.68668231842078242 0.24762892664808989 0 0.56250000000143974 0.2422277716920859 0 0.62499999999892575 0.17524047358135519 0 0.43750000000200551 0.24222777169198509 0 0.31411863959822661 0.24965544328045999 0 0.37500000000232431 0.17524047358384309 0 0.49999999999934441 0.1752404735815076 0 0.43750000000200551 0.24222777169198509 0 0.37500000000232431 0.17524047358384309 0 0.43749999999910871 0.1082531754729984 0 0.49999999999934441 0.1752404735815076 0 0.37500000000232431 0.17524047358384309 0 0.62499999999892575 0.17524047358135519 0 0.68749999999926592 0.1082531754732875 0 0.73983916756365475 0.17530677078674589 0 0.68749999999926592 0.1082531754732875 0 0.81249999999950517 0.1082531754733404 0 0.73983916756365475 0.17530677078674589 0 0.10409951422139101 0.81206782209691231 0 0.18802967116092181 0.89415349436770275 0 0.091506350946494744 0.90849364905351082 0 0.89658421694297741 0.1933620068391701 0 0.81249999999950517 0.1082531754733404 0 0.90849364905355434 0.091506350946296292 0 0.19185372118111221 0.092925648673580788 0 0.12076953676380731 0.18690935762408761 0 0.091506350946417708 0.091506350946618076 0 0.37500000000232431 0.17524047358384309 0 0.31411863959822661 0.24965544328045999 0 0.25103557339309318 0.17464499738446629 0 0.31281086598417152 0.10449318608631281 0 0.37500000000232431 0.17524047358384309 0 0.25103557339309318 0.17464499738446629 0 0.80886664387416207 0.89717308644237903 0 0.89051480781310632 0.79665793440246835 0 0.90849364905363228 0.90849364905367769 0 0.19185372118111221 0.092925648673580788 0 0.31281086598417152 0.10449318608631281 0 0.25103557339309318 0.17464499738446629 0 0.79891106056046712 0.25007334953587562 0 0.68668231842078242 0.24762892664808989 0 0.73983916756365475 0.17530677078674589 0 0.31411863959822661 0.24965544328045999 0 0.20767261601459541 0.25628918442207171 0 0.25103557339309318 0.17464499738446629 0 

        </DataArray>

      </Points>

      <Cells>

        <DataArray type="Int32" Name="connectivity" format="ascii">

0 1 2 3 4 5 6 7 8 9 10 11 12 13 14 15 16 17 18 19 20 21 22 23 24 25 26 27 28 29 30 31 32 33 34 35 36 37 38 39 40 41 42 43 44 45 46 47 48 49 50 51 52 53 54 55 56 57 58 59 60 61 62 63 64 65 66 67 68 69 70 71 72 73 74 75 76 77 78 79 80 81 82 83 84 85 86 87 88 89 90 91 92 93 94 95 96 97 98 99 100 101 102 103 104 105 106 107 108 109 110 111 112 113 114 115 116 117 118 119 120 121 122 123 124 125 126 127 128 129 130 131 132 133 134 135 136 137 138 139 140 141 142 143 144 145 146 147 148 149 150 151 152 153 154 155 156 157 158 159 160 161 162 163 164 165 166 167 168 169 170 171 172 173 174 175 176 177 178 179 180 181 182 183 184 185 186 187 188 189 190 191 192 193 194 195 196 197 198 199 200 201 202 203 204 205 206 207 208 209 210 211 212 213 214 215 216 217 218 219 220 221 222 223 224 225 226 227 228 229 230 231 232 233 234 235 236 237 238 239 240 241 242 243 244 245 246 247 248 249 250 251 252 253 254 255 256 257 258 259 260 261 262 263 264 265 266 267 268 269 270 271 272 273 274 275 276 277 278 279 280 281 282 283 284 285 286 287 288 289 290 291 292 293 294 295 296 297 298 299 300 301 302 303 304 305 306 307 308 309 310 311 312 313 314 315 316 317 318 319 320 321 322 323 324 325 326 327 328 329 330 331 332 333 334 335 336 337 338 339 340 341 342 343 344 345 346 347 348 349 350 351 352 353 354 355 356 357 358 359 360 361 362 363 364 365 366 367 368 369 370 371 372 373 374 375 376 377 378 379 380 381 382 383 384 385 386 387 388 389 390 391 392 393 394 395 396 397 398 399 400 401 402 403 404 405 406 407 408 409 410 411 412 413 414 415 416 417 418 419 420 421 422 423 424 425 426 427 428 429 430 431 432 433 434 435 436 437 438 439 440 441 442 443 444 445 446 447 448 449 450 451 452 453 454 455 456 457 458 459 460 461 462 463 464 465 466 467 468 469 470 471 472 473 474 475 476 477 478 479 480 481 482 483 484 485 

        </DataArray>

        <DataArray type="Int32" Name="offsets" format="ascii">

3 6 9 12 15 18 21 24 27 30 33 36 39 42 45 48 51 54 57 60 63 66 69 72 75 78 81 84 87 90 93 96 99 102 105 108 111 114 117 120 123 126 129 132 135 138 141 144 147 150 153 156 159 162 165 168 171 174 177 180 183 186 189 192 195 198 201 204 207 210 213 216 219 222 225 228 231 234 237 240 243 246 249 252 255 258 261 264 267 270 273 276 279 282 285 288 291 294 297 300 303 306 309 312 315 318 321 324 327 330 333 336 339 342 345 348 351 354 357 360 363 366 369 372 375 378 381 384 387 390 393 396 399 402 405 408 411 414 417 420 423 426 429 432 435 438 441 444 447 450 453 456 459 462 465 468 471 474 477 480 483 486 

        </DataArray>

        <DataArray type="Int32" Name="types" format="ascii">

5 5 5 5 5 5 5 5 5 5 5 5 5 5 5 5 5 5 5 5 5 5 5 5 5 5 5 5 5 5 5 5 5 5 5 5 5 5 5 5 5 5 5 5 5 5 5 5 5 5 5 5 5 5 5 5 5 5 5 5 5 5 5 5 5 5 5 5 5 5 5 5 5 5 5 5 5 5 5 5 5 5 5 5 5 5 5 5 5 5 5 5 5 5 5 5 5 5 5 5 5 5 5 5 5 5 5 5 5 5 5 5 5 5 5 5 5 5 5 5 5 5 5 5 5 5 5 5 5 5 5 5 5 5 5 5 5 5 5 5 5 5 5 5 5 5 5 5 5 5 5 5 5 5 5 5 5 5 5 5 5 5 

        </DataArray>

      </Cells>

    </Piece>

  </UnstructuredGrid>

</VTKFile>

