<?xml version="1.0"?>

<VTKFile type="UnstructuredGrid" version="0.1">

  <UnstructuredGrid>

    <Piece NumberOfPoints="486" NumberOfCells="162">

      <PointData>

        <DataArray type="Float64" Name="K" format="ascii">

9.54089905860502241e-01
9.54089905860502241e-01
9.54089905860502241e-01
9.88113011598737434e-01
9.88113011598737434e-01
9.88113011598737434e-01
1.03858598145643688e+00
1.03858598145643688e+00
1.03858598145643688e+00
1.00984472874536535e+00
1.00984472874536535e+00
1.00984472874536535e+00
1.04807355950543091e+00
1.04807355950543091e+00
1.04807355950543091e+00
9.89849739629809822e-01
9.89849739629809822e-01
9.89849739629809822e-01
1.00549306267464589e+00
1.00549306267464589e+00
1.00549306267464589e+00
9.20299705134076218e-01
9.20299705134076218e-01
9.20299705134076218e-01
9.39167977716467428e-01
9.39167977716467428e-01
9.39167977716467428e-01
9.37223241764251869e-01
9.37223241764251869e-01
9.37223241764251869e-01
1.02640497911524387e+00
1.02640497911524387e+00
1.02640497911524387e+00
9.98597487965064312e-01
9.98597487965064312e-01
9.98597487965064312e-01
8.90772221449214419e-01
8.90772221449214419e-01
8.90772221449214419e-01
9.11405837162468146e-01
9.11405837162468146e-01
9.11405837162468146e-01
9.27375922126749019e-01
9.27375922126749019e-01
9.27375922126749019e-01
9.04331077640149306e-01
9.04331077640149306e-01
9.04331077640149306e-01
9.26454647997515535e-01
9.26454647997515535e-01
9.26454647997515535e-01
1.05021650960624435e+00
1.05021650960624435e+00
1.05021650960624435e+00
8.94650131950743832e-01
8.94650131950743832e-01
8.94650131950743832e-01
9.21150307015256353e-01
9.21150307015256353e-01
9.21150307015256353e-01
1.05042449962298301e+00
1.05042449962298301e+00
1.05042449962298301e+00
1.03695337921820152e+00
1.03695337921820152e+00
1.03695337921820152e+00
1.02212704227575157e+00
1.02212704227575157e+00
1.02212704227575157e+00
1.05568863040346494e+00
1.05568863040346494e+00
1.05568863040346494e+00
8.73243619431891993e-01
8.73243619431891993e-01
8.73243619431891993e-01
1.09794447084086388e+00
1.09794447084086388e+00
1.09794447084086388e+00
1.08484221289689664e+00
1.08484221289689664e+00
1.08484221289689664e+00
9.89595497622719811e-01
9.89595497622719811e-01
9.89595497622719811e-01
1.01490428557505830e+00
1.01490428557505830e+00
1.01490428557505830e+00
8.84973042265606802e-01
8.84973042265606802e-01
8.84973042265606802e-01
9.54025600381085970e-01
9.54025600381085970e-01
9.54025600381085970e-01
9.09527636618002289e-01
9.09527636618002289e-01
9.09527636618002289e-01
9.08983774955710033e-01
9.08983774955710033e-01
9.08983774955710033e-01
1.02979985052922074e+00
1.02979985052922074e+00
1.02979985052922074e+00
9.24081403523082545e-01
9.24081403523082545e-01
9.24081403523082545e-01
9.28447547515391935e-01
9.28447547515391935e-01
9.28447547515391935e-01
1.02195968818539096e+00
1.02195968818539096e+00
1.02195968818539096e+00
9.66730989919600270e-01
9.66730989919600270e-01
9.66730989919600270e-01
1.00583209724002232e+00
1.00583209724002232e+00
1.00583209724002232e+00
9.14338044152690821e-01
9.14338044152690821e-01
9.14338044152690821e-01
9.42167412267379323e-01
9.42167412267379323e-01
9.42167412267379323e-01
9.81920001943683118e-01
9.81920001943683118e-01
9.81920001943683118e-01
9.20664318607199661e-01
9.20664318607199661e-01
9.20664318607199661e-01
1.02570631612152208e+00
1.02570631612152208e+00
1.02570631612152208e+00
9.85068690326524332e-01
9.85068690326524332e-01
9.85068690326524332e-01
9.98110807291662794e-01
9.98110807291662794e-01
9.98110807291662794e-01
9.18605972845903618e-01
9.18605972845903618e-01
9.18605972845903618e-01
9.93204279927824230e-01
9.93204279927824230e-01
9.93204279927824230e-01
9.12315210732273729e-01
9.12315210732273729e-01
9.12315210732273729e-01
1.03009408093012245e+00
1.03009408093012245e+00
1.03009408093012245e+00
1.01031410811549782e+00
1.01031410811549782e+00
1.01031410811549782e+00
9.26551805079102730e-01
9.26551805079102730e-01
9.26551805079102730e-01
1.03455669393351180e+00
1.03455669393351180e+00
1.03455669393351180e+00
1.01515372509924884e+00
1.01515372509924884e+00
1.01515372509924884e+00
8.97669024914600988e-01
8.97669024914600988e-01
8.97669024914600988e-01
9.44617589315873696e-01
9.44617589315873696e-01
9.44617589315873696e-01
9.34184887691265731e-01
9.34184887691265731e-01
9.34184887691265731e-01
9.86321798080363132e-01
9.86321798080363132e-01
9.86321798080363132e-01
1.02068419286070200e+00
1.02068419286070200e+00
1.02068419286070200e+00
1.02101532472875101e+00
1.02101532472875101e+00
1.02101532472875101e+00
1.04060318223662884e+00
1.04060318223662884e+00
1.04060318223662884e+00
9.72176744587429975e-01
9.72176744587429975e-01
9.72176744587429975e-01
9.34395048562721819e-01
9.34395048562721819e-01
9.34395048562721819e-01
9.25666841844585697e-01
9.25666841844585697e-01
9.25666841844585697e-01
1.00530422165936728e+00
1.00530422165936728e+00
1.00530422165936728e+00
9.24770389359126921e-01
9.24770389359126921e-01
9.24770389359126921e-01
1.02037023865596854e+00
1.02037023865596854e+00
1.02037023865596854e+00
9.77070171059397530e-01
9.77070171059397530e-01
9.77070171059397530e-01
1.00498436287644810e+00
1.00498436287644810e+00
1.00498436287644810e+00
1.05280551932201427e+00
1.05280551932201427e+00
1.05280551932201427e+00
9.40453176895726162e-01
9.40453176895726162e-01
9.40453176895726162e-01
9.74299148936871418e-01
9.74299148936871418e-01
9.74299148936871418e-01
1.02246559394952241e+00
1.02246559394952241e+00
1.02246559394952241e+00
1.03503636741539862e+00
1.03503636741539862e+00
1.03503636741539862e+00
9.52077435818577844e-01
9.52077435818577844e-01
9.52077435818577844e-01
1.04340071035469450e+00
1.04340071035469450e+00
1.04340071035469450e+00
1.02493692415633175e+00
1.02493692415633175e+00
1.02493692415633175e+00
1.00737368010205319e+00
1.00737368010205319e+00
1.00737368010205319e+00
9.86314413906097975e-01
9.86314413906097975e-01
9.86314413906097975e-01
1.06725249908896624e+00
1.06725249908896624e+00
1.06725249908896624e+00
1.05275239438072488e+00
1.05275239438072488e+00
1.05275239438072488e+00
1.06096172288244972e+00
1.06096172288244972e+00
1.06096172288244972e+00
1.01135836929737577e+00
1.01135836929737577e+00
1.01135836929737577e+00
9.84706837030967286e-01
9.84706837030967286e-01
9.84706837030967286e-01
9.90558889170286894e-01
9.90558889170286894e-01
9.90558889170286894e-01
1.01924699002736641e+00
1.01924699002736641e+00
1.01924699002736641e+00
1.03488471276586536e+00
1.03488471276586536e+00
1.03488471276586536e+00
1.05276798041555475e+00
1.05276798041555475e+00
1.05276798041555475e+00
1.05769156980441226e+00
1.05769156980441226e+00
1.05769156980441226e+00
1.04143508259786755e+00
1.04143508259786755e+00
1.04143508259786755e+00
1.03809355303735251e+00
1.03809355303735251e+00
1.03809355303735251e+00
9.85413518286980983e-01
9.85413518286980983e-01
9.85413518286980983e-01
9.93611282836708187e-01
9.93611282836708187e-01
9.93611282836708187e-01
9.44613972607225461e-01
9.44613972607225461e-01
9.44613972607225461e-01
9.74037180340080799e-01
9.74037180340080799e-01
9.74037180340080799e-01
1.06939786769398570e+00
1.06939786769398570e+00
1.06939786769398570e+00
9.42374585308324186e-01
9.42374585308324186e-01
9.42374585308324186e-01
1.00974952191772838e+00
1.00974952191772838e+00
1.00974952191772838e+00
9.94028863842228327e-01
9.94028863842228327e-01
9.94028863842228327e-01
9.15016549705128246e-01
9.15016549705128246e-01
9.15016549705128246e-01
9.52962096899958921e-01
9.52962096899958921e-01
9.52962096899958921e-01
9.61335300783866198e-01
9.61335300783866198e-01
9.61335300783866198e-01
1.06404838767883114e+00
1.06404838767883114e+00
1.06404838767883114e+00
1.02702671349235963e+00
1.02702671349235963e+00
1.02702671349235963e+00
9.52221830029993943e-01
9.52221830029993943e-01
9.52221830029993943e-01
9.87369988163720791e-01
9.87369988163720791e-01
9.87369988163720791e-01
9.59171847482301998e-01
9.59171847482301998e-01
9.59171847482301998e-01
9.33126841387266759e-01
9.33126841387266759e-01
9.33126841387266759e-01
9.93289558653458804e-01
9.93289558653458804e-01
9.93289558653458804e-01
1.02232582208724887e+00
1.02232582208724887e+00
1.02232582208724887e+00
1.03198794576750630e+00
1.03198794576750630e+00
1.03198794576750630e+00
9.28774675825027818e-01
9.28774675825027818e-01
9.28774675825027818e-01
9.77882509421917123e-01
9.77882509421917123e-01
9.77882509421917123e-01
9.29574990020795022e-01
9.29574990020795022e-01
9.29574990020795022e-01
1.05463377705078987e+00
1.05463377705078987e+00
1.05463377705078987e+00
9.86648891177883347e-01
9.86648891177883347e-01
9.86648891177883347e-01
9.89641592560673078e-01
9.89641592560673078e-01
9.89641592560673078e-01
1.05026072580903795e+00
1.05026072580903795e+00
1.05026072580903795e+00
1.03171294963241134e+00
1.03171294963241134e+00
1.03171294963241134e+00
9.04664126448821770e-01
9.04664126448821770e-01
9.04664126448821770e-01
1.06307920775469600e+00
1.06307920775469600e+00
1.06307920775469600e+00
1.01025199484146699e+00
1.01025199484146699e+00
1.01025199484146699e+00
1.00032064853247893e+00
1.00032064853247893e+00
1.00032064853247893e+00
1.01715106495515162e+00
1.01715106495515162e+00
1.01715106495515162e+00
1.05476094483944149e+00
1.05476094483944149e+00
1.05476094483944149e+00
1.04144328064719183e+00
1.04144328064719183e+00
1.04144328064719183e+00
9.54995730926294972e-01
9.54995730926294972e-01
9.54995730926294972e-01
1.08220295084308926e+00
1.08220295084308926e+00
1.08220295084308926e+00
9.48155789060997400e-01
9.48155789060997400e-01
9.48155789060997400e-01
1.03449420340578246e+00
1.03449420340578246e+00
1.03449420340578246e+00
1.01523319755658958e+00
1.01523319755658958e+00
1.01523319755658958e+00
1.07610970064238165e+00
1.07610970064238165e+00
1.07610970064238165e+00
9.17629213174046776e-01
9.17629213174046776e-01
9.17629213174046776e-01
9.91349039967936663e-01
9.91349039967936663e-01
9.91349039967936663e-01
9.58723175898000268e-01
9.58723175898000268e-01
9.58723175898000268e-01
8.91056642917589015e-01
8.91056642917589015e-01
8.91056642917589015e-01
1.03148322527996528e+00
1.03148322527996528e+00
1.03148322527996528e+00
1.01135892513167014e+00
1.01135892513167014e+00
1.01135892513167014e+00
1.06233934301512734e+00
1.06233934301512734e+00
1.06233934301512734e+00
1.01839101111334740e+00
1.01839101111334740e+00
1.01839101111334740e+00
1.03795012231861161e+00
1.03795012231861161e+00
1.03795012231861161e+00
9.91024000661829607e-01
9.91024000661829607e-01
9.91024000661829607e-01
1.02702575177918809e+00
1.02702575177918809e+00
1.02702575177918809e+00
1.00103626907975296e+00
1.00103626907975296e+00
1.00103626907975296e+00
1.01267363828249946e+00
1.01267363828249946e+00
1.01267363828249946e+00
1.03821969309025985e+00
1.03821969309025985e+00
1.03821969309025985e+00
1.01815499376193963e+00
1.01815499376193963e+00
1.01815499376193963e+00
1.03030181339504789e+00
1.03030181339504789e+00
1.03030181339504789e+00
1.00013110487660306e+00
1.00013110487660306e+00
1.00013110487660306e+00
1.02195832227974814e+00
1.02195832227974814e+00
1.02195832227974814e+00
1.01629216579255521e+00
1.01629216579255521e+00
1.01629216579255521e+00
1.02645075914590311e+00
1.02645075914590311e+00
1.02645075914590311e+00
1.05565545305955077e+00
1.05565545305955077e+00
1.05565545305955077e+00
9.03296974872166647e-01
9.03296974872166647e-01
9.03296974872166647e-01
1.08910432009257918e+00
1.08910432009257918e+00
1.08910432009257918e+00
1.00042270618100759e+00
1.00042270618100759e+00
1.00042270618100759e+00
9.75618395536481220e-01
9.75618395536481220e-01
9.75618395536481220e-01
9.68668094429680271e-01
9.68668094429680271e-01
9.68668094429680271e-01
9.97296337671364941e-01
9.97296337671364941e-01
9.97296337671364941e-01
9.63074948317576340e-01
9.63074948317576340e-01
9.63074948317576340e-01
1.06571333060783391e+00
1.06571333060783391e+00
1.06571333060783391e+00
9.81278029607020374e-01
9.81278029607020374e-01
9.81278029607020374e-01


        </DataArray>

      </PointData>

      <CellData/>

      <Points>

        <DataArray type="Float64" NumberOfComponents="3" format="ascii">

0.1082531754723032 0.6875000000007816 0 0.23533274979922561 0.77093399389351469 0 0.10409951422139101 0.81206782209691231 0 0.23533274979922561 0.77093399389351469 0 0.1082531754723032 0.6875000000007816 0 0.21809253452218619 0.65480892822618109 0 0.24418615484441761 0.35773612382016978 0 0.121259140952891 0.43112117036853742 0 0.1082531754734323 0.31250000000117473 0 0.75000000000057243 0.35048094716480432 0 0.88173731489851925 0.33077402607778361 0 0.81242894672211508 0.45500248311961472 0 0.121259140952891 0.43112117036853742 0 0.24418615484441761 0.35773612382016978 0 0.22257735880419699 0.47344721641341742 0 0.81242894672211508 0.45500248311961472 0 0.88173731489851925 0.33077402607778361 0 0.915464298762109 0.43749999999886913 0 0 0.62500000000121547 0 0 0.50000000000206146 0 0.1371230538040123 0.56179824718362847 0 0.82212678063041267 0.67678595194836966 0 0.89051480781310632 0.79665793440246835 0 0.76243180583607129 0.78687675331113149 0 0.76243180583607129 0.78687675331113149 0 0.69010814643829166 0.89298495739101336 0 0.62844955668446423 0.7850749770380413 0 0.89051480781310632 0.79665793440246835 0 0.82212678063041267 0.67678595194836966 0 0.92266244547590082 0.68749999999917555 0 0 0.50000000000206146 0 0.121259140952891 0.43112117036853742 0 0.1371230538040123 0.56179824718362847 0 0.1082531754723032 0.6875000000007816 0 0 0.62500000000121547 0 0.1371230538040123 0.56179824718362847 0 0.75000000000032374 0.56698729811007709 0 0.88927506082488361 0.56409486310635837 0 0.82212678063041267 0.67678595194836966 0 0.81242894672211508 0.45500248311961472 0 0.88927506082488361 0.56409486310635837 0 0.75000000000032374 0.56698729811007709 0 0.69851598570178741 0.68211701800612057 0 0.56496004948275869 0.67675037307860475 0 0.62752533658682441 0.56838075195614346 0 0.69851598570178741 0.68211701800612057 0 0.76243180583607129 0.78687675331113149 0 0.62844955668446423 0.7850749770380413 0 0.23533274979922561 0.77093399389351469 0 0.18802967116092181 0.89415349436770275 0 0.10409951422139101 0.81206782209691231 0 0.121259140952891 0.43112117036853742 0 0.22257735880419699 0.47344721641341742 0 0.1371230538040123 0.56179824718362847 0 0.75000000000032374 0.56698729811007709 0 0.69851598570178741 0.68211701800612057 0 0.62752533658682441 0.56838075195614346 0 0.56496004948275869 0.67675037307860475 0 0.69851598570178741 0.68211701800612057 0 0.62844955668446423 0.7850749770380413 0 0.1371230538040123 0.56179824718362847 0 0.22257735880419699 0.47344721641341742 0 0.26982811998763367 0.56544650815856912 0 0.21809253452218619 0.65480892822618109 0 0.1371230538040123 0.56179824718362847 0 0.26982811998763367 0.56544650815856912 0 0.24418615484441761 0.35773612382016978 0 0.1082531754734323 0.31250000000117473 0 0.20767261601459541 0.25628918442207171 0 0.88173731489851925 0.33077402607778361 0 0.75000000000057243 0.35048094716480432 0 0.79891106056046712 0.25007334953587562 0 0.75000000000032374 0.56698729811007709 0 0.82212678063041267 0.67678595194836966 0 0.69851598570178741 0.68211701800612057 0 0.81249999999950517 0.1082531754733404 0 0.89658421694297741 0.1933620068391701 0 0.79891106056046712 0.25007334953587562 0 0.81249999999950517 0.1082531754733404 0 0.79891106056046712 0.25007334953587562 0 0.73983916756365475 0.17530677078674589 0 0.23533274979922561 0.77093399389351469 0 0.21809253452218619 0.65480892822618109 0 0.32607333794064219 0.67760114260606152 0 0.1082531754723032 0.6875000000007816 0 0.1371230538040123 0.56179824718362847 0 0.21809253452218619 0.65480892822618109 0 0.69851598570178741 0.68211701800612057 0 0.82212678063041267 0.67678595194836966 0 0.76243180583607129 0.78687675331113149 0 0.69010814643829166 0.89298495739101336 0 0.76243180583607129 0.78687675331113149 0 0.80886664387416207 0.89717308644237903 0 0.43750000000181222 0.89174682452709564 0 0.31258827852827581 0.89214793616708443 0 0.37776173212361452 0.78514649317305008 0 0.43750000000181222 0.89174682452709564 0 0.37500000000156292 1 0 0.31258827852827581 0.89214793616708443 0 0.121259140952891 0.43112117036853742 0 0 0.37500000000156292 0 0.1082531754734323 0.31250000000117473 0 0.50000000000206146 1 0 0.37500000000156292 1 0 0.43750000000181222 0.89174682452709564 0 0.31258827852827581 0.89214793616708443 0 0.18802967116092181 0.89415349436770275 0 0.23533274979922561 0.77093399389351469 0 0 0.50000000000206146 0 0 0.37500000000156292 0 0.121259140952891 0.43112117036853742 0 0.62844955668446423 0.7850749770380413 0 0.69010814643829166 0.89298495739101336 0 0.56327595140699671 0.89211526915426331 0 0.69010814643829166 0.89298495739101336 0 0.62500000000121547 1 0 0.56327595140699671 0.89211526915426331 0 0.25000000000104189 1 0 0.18802967116092181 0.89415349436770275 0 0.31258827852827581 0.89214793616708443 0 0.50000000000206146 1 0 0.43750000000181222 0.89174682452709564 0 0.56327595140699671 0.89211526915426331 0 0.56249999999885147 0.1082531754730395 0 0.62499999999901068 0 0 0.68749999999926592 0.1082531754732875 0 1 0.49999999999869221 0 1 0.62499999999901068 0 0.88927506082488361 0.56409486310635837 0 0 0.25000000000104189 0 0.12076953676380731 0.18690935762408761 0 0.1082531754734323 0.31250000000117473 0 0.49999999999869221 0 0 0.62499999999901068 0 0 0.56249999999885147 0.1082531754730395 0 0.62500000000121547 1 0 0.50000000000206146 1 0 0.56327595140699671 0.89211526915426331 0 0.37500000000156292 1 0 0.25000000000104189 1 0 0.31258827852827581 0.89214793616708443 0 0.31281086598417152 0.10449318608631281 0 0.37499999999904599 0 0 0.43749999999910871 0.1082531754729984 0 0.43750000000181222 0.89174682452709564 0 0.37776173212361452 0.78514649317305008 0 0.50046028868828263 0.78376912307435687 0 0 0.37500000000156292 0 0 0.25000000000104189 0 0.1082531754734323 0.31250000000117473 0 0.49999999999869221 0 0 0.56249999999885147 0.1082531754730395 0 0.43749999999910871 0.1082531754729984 0 0.43750000000181222 0.89174682452709564 0 0.50046028868828263 0.78376912307435687 0 0.56327595140699671 0.89211526915426331 0 0.74999999999934042 0 0 0.81249999999950517 0.1082531754733404 0 0.68749999999926592 0.1082531754732875 0 0.37499999999904599 0 0 0.49999999999869221 0 0 0.43749999999910871 0.1082531754729984 0 0.25000000000104189 1 0 0.12500000000052089 1 0 0.18802967116092181 0.89415349436770275 0 0.50046028868828263 0.78376912307435687 0 0.62844955668446423 0.7850749770380413 0 0.56327595140699671 0.89211526915426331 0 0.37776173212361452 0.78514649317305008 0 0.31258827852827581 0.89214793616708443 0 0.23533274979922561 0.77093399389351469 0 0.62499999999901068 0 0 0.74999999999934042 0 0 0.68749999999926592 0.1082531754732875 0 1 0.74999999999934042 0 1 0.87499999999967015 0 0.89051480781310632 0.79665793440246835 0 0 0.25000000000104189 0 0 0.12500000000052089 0 0.12076953676380731 0.18690935762408761 0 0.74999999999934042 0 0 0.87499999999967015 0 0 0.81249999999950517 0.1082531754733404 0 0.24999999999941069 0 0 0.37499999999904599 0 0 0.31281086598417152 0.10449318608631281 0 0.50046028868828263 0.78376912307435687 0 0.37776173212361452 0.78514649317305008 0 0.44078402250377968 0.67714785211715212 0 0.68768773896438518 0.4586835206367198 0 0.75000000000032374 0.56698729811007709 0 0.62752533658682441 0.56838075195614346 0 0.31411863959822661 0.24965544328045999 0 0.37953773393552892 0.34812185820708452 0 0.24418615484441761 0.35773612382016978 0 0.68768773896438518 0.4586835206367198 0 0.81242894672211508 0.45500248311961472 0 0.75000000000032374 0.56698729811007709 0 1 0.24999999999941069 0 1 0.37499999999904599 0 0.88173731489851925 0.33077402607778361 0 0 0.75000000000034761 0 0 0.62500000000121547 0 0.1082531754723032 0.6875000000007816 0 0.50048844149666749 0.56727788297625459 0 0.44078402250377968 0.67714785211715212 0 0.38694285807596462 0.5672991787102919 0 0.50108503093851109 0.35012252869403671 0 0.44301038174930041 0.45684931552185398 0 0.37953773393552892 0.34812185820708452 0 0.50046028868828263 0.78376912307435687 0 0.56496004948275869 0.67675037307860475 0 0.62844955668446423 0.7850749770380413 0 0.68768773896438518 0.4586835206367198 0 0.75000000000057243 0.35048094716480432 0 0.81242894672211508 0.45500248311961472 0 0.56349980387502452 0.45846841892908402 0 0.62512662990940393 0.35044303886909911 0 0.68768773896438518 0.4586835206367198 0 0.50048844149666749 0.56727788297625459 0 0.38694285807596462 0.5672991787102919 0 0.44301038174930041 0.45684931552185398 0 0.50046028868828263 0.78376912307435687 0 0.44078402250377968 0.67714785211715212 0 0.56496004948275869 0.67675037307860475 0 0.50108503093851109 0.35012252869403671 0 0.37953773393552892 0.34812185820708452 0 0.43750000000200551 0.24222777169198509 0 0.75000000000034761 1 0 0.62500000000121547 1 0 0.69010814643829166 0.89298495739101336 0 0.68768773896438518 0.4586835206367198 0 0.62512662990940393 0.35044303886909911 0 0.75000000000057243 0.35048094716480432 0 0.56496004948275869 0.67675037307860475 0 0.44078402250377968 0.67714785211715212 0 0.50048844149666749 0.56727788297625459 0 0.56349980387502452 0.45846841892908402 0 0.44301038174930041 0.45684931552185398 0 0.50108503093851109 0.35012252869403671 0 0.50048844149666749 0.56727788297625459 0 0.44301038174930041 0.45684931552185398 0 0.56349980387502452 0.45846841892908402 0 0.56349980387502452 0.45846841892908402 0 0.50108503093851109 0.35012252869403671 0 0.62512662990940393 0.35044303886909911 0 0.43750000000200551 0.24222777169198509 0 0.37953773393552892 0.34812185820708452 0 0.31411863959822661 0.24965544328045999 0 0.56496004948275869 0.67675037307860475 0 0.50048844149666749 0.56727788297625459 0 0.62752533658682441 0.56838075195614346 0 0.56349980387502452 0.45846841892908402 0 0.68768773896438518 0.4586835206367198 0 0.62752533658682441 0.56838075195614346 0 0.50048844149666749 0.56727788297625459 0 0.56349980387502452 0.45846841892908402 0 0.62752533658682441 0.56838075195614346 0 0.75000000000057243 0.35048094716480432 0 0.62512662990940393 0.35044303886909911 0 0.68668231842078242 0.24762892664808989 0 0.50108503093851109 0.35012252869403671 0 0.43750000000200551 0.24222777169198509 0 0.56250000000143974 0.2422277716920859 0 0.62512662990940393 0.35044303886909911 0 0.50108503093851109 0.35012252869403671 0 0.56250000000143974 0.2422277716920859 0 0.68668231842078242 0.24762892664808989 0 0.62512662990940393 0.35044303886909911 0 0.56250000000143974 0.2422277716920859 0 0.22257735880419699 0.47344721641341742 0 0.24418615484441761 0.35773612382016978 0 0.32815957677880009 0.4577243358118348 0 0.12076953676380731 0.18690935762408761 0 0.19185372118111221 0.092925648673580788 0 0.25103557339309318 0.17464499738446629 0 0.20767261601459541 0.25628918442207171 0 0.12076953676380731 0.18690935762408761 0 0.25103557339309318 0.17464499738446629 0 0 0.87499999999950151 0 0 0.75000000000034761 0 0.10409951422139101 0.81206782209691231 0 0.1249999999997731 0 0 0.24999999999941069 0 0 0.19185372118111221 0.092925648673580788 0 1 0.1249999999997731 0 1 0.24999999999941069 0 0.89658421694297741 0.1933620068391701 0 0.88927506082488361 0.56409486310635837 0 0.81242894672211508 0.45500248311961472 0 0.915464298762109 0.43749999999886913 0 0.87499999999950151 1 0 0.75000000000034761 1 0 0.80886664387416207 0.89717308644237903 0 0.75000000000034761 1 0 0.69010814643829166 0.89298495739101336 0 0.80886664387416207 0.89717308644237903 0 0.82212678063041267 0.67678595194836966 0 0.88927506082488361 0.56409486310635837 0 0.92266244547590082 0.68749999999917555 0 0 0.75000000000034761 0 0.1082531754723032 0.6875000000007816 0 0.10409951422139101 0.81206782209691231 0 0.24999999999941069 0 0 0.31281086598417152 0.10449318608631281 0 0.19185372118111221 0.092925648673580788 0 1 0.24999999999941069 0 0.88173731489851925 0.33077402607778361 0 0.89658421694297741 0.1933620068391701 0 0.32815957677880009 0.4577243358118348 0 0.38694285807596462 0.5672991787102919 0 0.26982811998763367 0.56544650815856912 0 0.76243180583607129 0.78687675331113149 0 0.89051480781310632 0.79665793440246835 0 0.80886664387416207 0.89717308644237903 0 0.38694285807596462 0.5672991787102919 0 0.44078402250377968 0.67714785211715212 0 0.32607333794064219 0.67760114260606152 0 0.37776173212361452 0.78514649317305008 0 0.23533274979922561 0.77093399389351469 0 0.32607333794064219 0.67760114260606152 0 1 0.49999999999869221 0 0.88927506082488361 0.56409486310635837 0 0.915464298762109 0.43749999999886913 0 0.88173731489851925 0.33077402607778361 0 1 0.37499999999904599 0 0.915464298762109 0.43749999999886913 0 0.24418615484441761 0.35773612382016978 0 0.37953773393552892 0.34812185820708452 0 0.32815957677880009 0.4577243358118348 0 0.44301038174930041 0.45684931552185398 0 0.38694285807596462 0.5672991787102919 0 0.32815957677880009 0.4577243358118348 0 0.88927506082488361 0.56409486310635837 0 1 0.62499999999901068 0 0.92266244547590082 0.68749999999917555 0 1 0.74999999999934042 0 0.89051480781310632 0.79665793440246835 0 0.92266244547590082 0.68749999999917555 0 0 1 0 0 0.87499999999950151 0 0.091506350946494744 0.90849364905351082 0 1 1 0 0.87499999999950151 1 0 0.90849364905363228 0.90849364905367769 0 0 0 0 0.1249999999997731 0 0 0.091506350946417708 0.091506350946618076 0 0 0.12500000000052089 0 0 0 0 0.091506350946417708 0.091506350946618076 0 1 0 0 1 0.1249999999997731 0 0.90849364905355434 0.091506350946296292 0 0.87499999999967015 0 0 1 0 0 0.90849364905355434 0.091506350946296292 0 0.12500000000052089 1 0 0 1 0 0.091506350946494744 0.90849364905351082 0 1 0.87499999999967015 0 1 1 0 0.90849364905363228 0.90849364905367769 0 0.38694285807596462 0.5672991787102919 0 0.32607333794064219 0.67760114260606152 0 0.26982811998763367 0.56544650815856912 0 0.31411863959822661 0.24965544328045999 0 0.24418615484441761 0.35773612382016978 0 0.20767261601459541 0.25628918442207171 0 0.1082531754734323 0.31250000000117473 0 0.12076953676380731 0.18690935762408761 0 0.20767261601459541 0.25628918442207171 0 0.75000000000057243 0.35048094716480432 0 0.68668231842078242 0.24762892664808989 0 0.79891106056046712 0.25007334953587562 0 0.22257735880419699 0.47344721641341742 0 0.32815957677880009 0.4577243358118348 0 0.26982811998763367 0.56544650815856912 0 0.44078402250377968 0.67714785211715212 0 0.37776173212361452 0.78514649317305008 0 0.32607333794064219 0.67760114260606152 0 0.89658421694297741 0.1933620068391701 0 0.88173731489851925 0.33077402607778361 0 0.79891106056046712 0.25007334953587562 0 1 0.37499999999904599 0 1 0.49999999999869221 0 0.915464298762109 0.43749999999886913 0 0.37953773393552892 0.34812185820708452 0 0.44301038174930041 0.45684931552185398 0 0.32815957677880009 0.4577243358118348 0 0.32607333794064219 0.67760114260606152 0 0.21809253452218619 0.65480892822618109 0 0.26982811998763367 0.56544650815856912 0 1 0.1249999999997731 0 0.89658421694297741 0.1933620068391701 0 0.90849364905355434 0.091506350946296292 0 0 0.87499999999950151 0 0.10409951422139101 0.81206782209691231 0 0.091506350946494744 0.90849364905351082 0 0.1249999999997731 0 0 0.19185372118111221 0.092925648673580788 0 0.091506350946417708 0.091506350946618076 0 1 0.62499999999901068 0 1 0.74999999999934042 0 0.92266244547590082 0.68749999999917555 0 0.18802967116092181 0.89415349436770275 0 0.12500000000052089 1 0 0.091506350946494744 0.90849364905351082 0 0.89051480781310632 0.79665793440246835 0 1 0.87499999999967015 0 0.90849364905363228 0.90849364905367769 0 0.12076953676380731 0.18690935762408761 0 0 0.12500000000052089 0 0.091506350946417708 0.091506350946618076 0 0.81249999999950517 0.1082531754733404 0 0.87499999999967015 0 0 0.90849364905355434 0.091506350946296292 0 0.87499999999950151 1 0 0.80886664387416207 0.89717308644237903 0 0.90849364905363228 0.90849364905367769 0 0.68668231842078242 0.24762892664808989 0 0.62499999999892575 0.17524047358135519 0 0.73983916756365475 0.17530677078674589 0 0.31281086598417152 0.10449318608631281 0 0.43749999999910871 0.1082531754729984 0 0.37500000000232431 0.17524047358384309 0 0.62499999999892575 0.17524047358135519 0 0.56250000000143974 0.2422277716920859 0 0.49999999999934441 0.1752404735815076 0 0.56249999999885147 0.1082531754730395 0 0.68749999999926592 0.1082531754732875 0 0.62499999999892575 0.17524047358135519 0 0.56249999999885147 0.1082531754730395 0 0.62499999999892575 0.17524047358135519 0 0.49999999999934441 0.1752404735815076 0 0.56250000000143974 0.2422277716920859 0 0.43750000000200551 0.24222777169198509 0 0.49999999999934441 0.1752404735815076 0 0.43749999999910871 0.1082531754729984 0 0.56249999999885147 0.1082531754730395 0 0.49999999999934441 0.1752404735815076 0 0.68668231842078242 0.24762892664808989 0 0.56250000000143974 0.2422277716920859 0 0.62499999999892575 0.17524047358135519 0 0.43750000000200551 0.24222777169198509 0 0.31411863959822661 0.24965544328045999 0 0.37500000000232431 0.17524047358384309 0 0.49999999999934441 0.1752404735815076 0 0.43750000000200551 0.24222777169198509 0 0.37500000000232431 0.17524047358384309 0 0.43749999999910871 0.1082531754729984 0 0.49999999999934441 0.1752404735815076 0 0.37500000000232431 0.17524047358384309 0 0.62499999999892575 0.17524047358135519 0 0.68749999999926592 0.1082531754732875 0 0.73983916756365475 0.17530677078674589 0 0.68749999999926592 0.1082531754732875 0 0.81249999999950517 0.1082531754733404 0 0.73983916756365475 0.17530677078674589 0 0.10409951422139101 0.81206782209691231 0 0.18802967116092181 0.89415349436770275 0 0.091506350946494744 0.90849364905351082 0 0.89658421694297741 0.1933620068391701 0 0.81249999999950517 0.1082531754733404 0 0.90849364905355434 0.091506350946296292 0 0.19185372118111221 0.092925648673580788 0 0.12076953676380731 0.18690935762408761 0 0.091506350946417708 0.091506350946618076 0 0.37500000000232431 0.17524047358384309 0 0.31411863959822661 0.24965544328045999 0 0.25103557339309318 0.17464499738446629 0 0.31281086598417152 0.10449318608631281 0 0.37500000000232431 0.17524047358384309 0 0.25103557339309318 0.17464499738446629 0 0.80886664387416207 0.89717308644237903 0 0.89051480781310632 0.79665793440246835 0 0.90849364905363228 0.90849364905367769 0 0.19185372118111221 0.092925648673580788 0 0.31281086598417152 0.10449318608631281 0 0.25103557339309318 0.17464499738446629 0 0.79891106056046712 0.25007334953587562 0 0.68668231842078242 0.24762892664808989 0 0.73983916756365475 0.17530677078674589 0 0.31411863959822661 0.24965544328045999 0 0.20767261601459541 0.25628918442207171 0 0.25103557339309318 0.17464499738446629 0 

        </DataArray>

      </Points>

      <Cells>

        <DataArray type="Int32" Name="connectivity" format="ascii">

0 1 2 3 4 5 6 7 8 9 10 11 12 13 14 15 16 17 18 19 20 21 22 23 24 25 26 27 28 29 30 31 32 33 34 35 36 37 38 39 40 41 42 43 44 45 46 47 48 49 50 51 52 53 54 55 56 57 58 59 60 61 62 63 64 65 66 67 68 69 70 71 72 73 74 75 76 77 78 79 80 81 82 83 84 85 86 87 88 89 90 91 92 93 94 95 96 97 98 99 100 101 102 103 104 105 106 107 108 109 110 111 112 113 114 115 116 117 118 119 120 121 122 123 124 125 126 127 128 129 130 131 132 133 134 135 136 137 138 139 140 141 142 143 144 145 146 147 148 149 150 151 152 153 154 155 156 157 158 159 160 161 162 163 164 165 166 167 168 169 170 171 172 173 174 175 176 177 178 179 180 181 182 183 184 185 186 187 188 189 190 191 192 193 194 195 196 197 198 199 200 201 202 203 204 205 206 207 208 209 210 211 212 213 214 215 216 217 218 219 220 221 222 223 224 225 226 227 228 229 230 231 232 233 234 235 236 237 238 239 240 241 242 243 244 245 246 247 248 249 250 251 252 253 254 255 256 257 258 259 260 261 262 263 264 265 266 267 268 269 270 271 272 273 274 275 276 277 278 279 280 281 282 283 284 285 286 287 288 289 290 291 292 293 294 295 296 297 298 299 300 301 302 303 304 305 306 307 308 309 310 311 312 313 314 315 316 317 318 319 320 321 322 323 324 325 326 327 328 329 330 331 332 333 334 335 336 337 338 339 340 341 342 343 344 345 346 347 348 349 350 351 352 353 354 355 356 357 358 359 360 361 362 363 364 365 366 367 368 369 370 371 372 373 374 375 376 377 378 379 380 381 382 383 384 385 386 387 388 389 390 391 392 393 394 395 396 397 398 399 400 401 402 403 404 405 406 407 408 409 410 411 412 413 414 415 416 417 418 419 420 421 422 423 424 425 426 427 428 429 430 431 432 433 434 435 436 437 438 439 440 441 442 443 444 445 446 447 448 449 450 451 452 453 454 455 456 457 458 459 460 461 462 463 464 465 466 467 468 469 470 471 472 473 474 475 476 477 478 479 480 481 482 483 484 485 

        </DataArray>

        <DataArray type="Int32" Name="offsets" format="ascii">

3 6 9 12 15 18 21 24 27 30 33 36 39 42 45 48 51 54 57 60 63 66 69 72 75 78 81 84 87 90 93 96 99 102 105 108 111 114 117 120 123 126 129 132 135 138 141 144 147 150 153 156 159 162 165 168 171 174 177 180 183 186 189 192 195 198 201 204 207 210 213 216 219 222 225 228 231 234 237 240 243 246 249 252 255 258 261 264 267 270 273 276 279 282 285 288 291 294 297 300 303 306 309 312 315 318 321 324 327 330 333 336 339 342 345 348 351 354 357 360 363 366 369 372 375 378 381 384 387 390 393 396 399 402 405 408 411 414 417 420 423 426 429 432 435 438 441 444 447 450 453 456 459 462 465 468 471 474 477 480 483 486 

        </DataArray>

        <DataArray type="Int32" Name="types" format="ascii">

5 5 5 5 5 5 5 5 5 5 5 5 5 5 5 5 5 5 5 5 5 5 5 5 5 5 5 5 5 5 5 5 5 5 5 5 5 5 5 5 5 5 5 5 5 5 5 5 5 5 5 5 5 5 5 5 5 5 5 5 5 5 5 5 5 5 5 5 5 5 5 5 5 5 5 5 5 5 5 5 5 5 5 5 5 5 5 5 5 5 5 5 5 5 5 5 5 5 5 5 5 5 5 5 5 5 5 5 5 5 5 5 5 5 5 5 5 5 5 5 5 5 5 5 5 5 5 5 5 5 5 5 5 5 5 5 5 5 5 5 5 5 5 5 5 5 5 5 5 5 5 5 5 5 5 5 5 5 5 5 5 5 

        </DataArray>

      </Cells>

    </Piece>

  </UnstructuredGrid>

</VTKFile>

