<?xml version="1.0"?>

<VTKFile type="UnstructuredGrid" version="0.1">

  <UnstructuredGrid>

    <Piece NumberOfPoints="486" NumberOfCells="162">

      <PointData>

        <DataArray type="Float64" Name="K" format="ascii">

9.38156797166606493e-01
9.38156797166606493e-01
9.38156797166606493e-01
9.37185730242082848e-01
9.37185730242082848e-01
9.37185730242082848e-01
1.02351502000724714e+00
1.02351502000724714e+00
1.02351502000724714e+00
9.64246279919135807e-01
9.64246279919135807e-01
9.64246279919135807e-01
1.02097338274569593e+00
1.02097338274569593e+00
1.02097338274569593e+00
9.50303457659955386e-01
9.50303457659955386e-01
9.50303457659955386e-01
9.91053112044801177e-01
9.91053112044801177e-01
9.91053112044801177e-01
1.03519772719973258e+00
1.03519772719973258e+00
1.03519772719973258e+00
1.04199014789400124e+00
1.04199014789400124e+00
1.04199014789400124e+00
1.01889850803590543e+00
1.01889850803590543e+00
1.01889850803590543e+00
1.00341667355870645e+00
1.00341667355870645e+00
1.00341667355870645e+00
9.73380463900701987e-01
9.73380463900701987e-01
9.73380463900701987e-01
1.00858418759796331e+00
1.00858418759796331e+00
1.00858418759796331e+00
9.84802732160253158e-01
9.84802732160253158e-01
9.84802732160253158e-01
1.04831572031766873e+00
1.04831572031766873e+00
1.04831572031766873e+00
1.04968670991103386e+00
1.04968670991103386e+00
1.04968670991103386e+00
9.47710920191813799e-01
9.47710920191813799e-01
9.47710920191813799e-01
1.00446183723579963e+00
1.00446183723579963e+00
1.00446183723579963e+00
1.03794384371799508e+00
1.03794384371799508e+00
1.03794384371799508e+00
1.04391826951671329e+00
1.04391826951671329e+00
1.04391826951671329e+00
9.87481362858918077e-01
9.87481362858918077e-01
9.87481362858918077e-01
9.64791357906923830e-01
9.64791357906923830e-01
9.64791357906923830e-01
1.02568246314073686e+00
1.02568246314073686e+00
1.02568246314073686e+00
9.76447744989304978e-01
9.76447744989304978e-01
9.76447744989304978e-01
1.03441572600565368e+00
1.03441572600565368e+00
1.03441572600565368e+00
1.00990921634130948e+00
1.00990921634130948e+00
1.00990921634130948e+00
1.01106907818041014e+00
1.01106907818041014e+00
1.01106907818041014e+00
9.47421956291171763e-01
9.47421956291171763e-01
9.47421956291171763e-01
9.56696366220141314e-01
9.56696366220141314e-01
9.56696366220141314e-01
1.04689640999460964e+00
1.04689640999460964e+00
1.04689640999460964e+00
1.03153573026527745e+00
1.03153573026527745e+00
1.03153573026527745e+00
9.76276460867184448e-01
9.76276460867184448e-01
9.76276460867184448e-01
9.67657494597830237e-01
9.67657494597830237e-01
9.67657494597830237e-01
1.02187542706667078e+00
1.02187542706667078e+00
1.02187542706667078e+00
9.64336737773198727e-01
9.64336737773198727e-01
9.64336737773198727e-01
9.61684342571533124e-01
9.61684342571533124e-01
9.61684342571533124e-01
1.01558541437550032e+00
1.01558541437550032e+00
1.01558541437550032e+00
1.02403326104104031e+00
1.02403326104104031e+00
1.02403326104104031e+00
1.00799080045567391e+00
1.00799080045567391e+00
1.00799080045567391e+00
9.81785672144166788e-01
9.81785672144166788e-01
9.81785672144166788e-01
9.78313738751071194e-01
9.78313738751071194e-01
9.78313738751071194e-01
9.93702473689234589e-01
9.93702473689234589e-01
9.93702473689234589e-01
9.60305827226868525e-01
9.60305827226868525e-01
9.60305827226868525e-01
1.02853635004021404e+00
1.02853635004021404e+00
1.02853635004021404e+00
1.00571019109757964e+00
1.00571019109757964e+00
1.00571019109757964e+00
9.89312625795218503e-01
9.89312625795218503e-01
9.89312625795218503e-01
9.75384016707898871e-01
9.75384016707898871e-01
9.75384016707898871e-01
1.01519107449335166e+00
1.01519107449335166e+00
1.01519107449335166e+00
9.90680454936332833e-01
9.90680454936332833e-01
9.90680454936332833e-01
1.03317635202979452e+00
1.03317635202979452e+00
1.03317635202979452e+00
1.01285457528836997e+00
1.01285457528836997e+00
1.01285457528836997e+00
9.91219744725876040e-01
9.91219744725876040e-01
9.91219744725876040e-01
1.00517288667438254e+00
1.00517288667438254e+00
1.00517288667438254e+00
1.01769462633093055e+00
1.01769462633093055e+00
1.01769462633093055e+00
1.00021003857696811e+00
1.00021003857696811e+00
1.00021003857696811e+00
1.01411744130047698e+00
1.01411744130047698e+00
1.01411744130047698e+00
9.67515376261630422e-01
9.67515376261630422e-01
9.67515376261630422e-01
9.91402861870807062e-01
9.91402861870807062e-01
9.91402861870807062e-01
1.02352089822371872e+00
1.02352089822371872e+00
1.02352089822371872e+00
1.03427820912292057e+00
1.03427820912292057e+00
1.03427820912292057e+00
1.01895708834454468e+00
1.01895708834454468e+00
1.01895708834454468e+00
1.00343473654256221e+00
1.00343473654256221e+00
1.00343473654256221e+00
1.01046159361520016e+00
1.01046159361520016e+00
1.01046159361520016e+00
1.03022977133633531e+00
1.03022977133633531e+00
1.03022977133633531e+00
1.03752475191660221e+00
1.03752475191660221e+00
1.03752475191660221e+00
9.99212571492304247e-01
9.99212571492304247e-01
9.99212571492304247e-01
9.70051457439736531e-01
9.70051457439736531e-01
9.70051457439736531e-01
9.70308741317393642e-01
9.70308741317393642e-01
9.70308741317393642e-01
1.04190242558569590e+00
1.04190242558569590e+00
1.04190242558569590e+00
1.03740713937453588e+00
1.03740713937453588e+00
1.03740713937453588e+00
1.02989884636301454e+00
1.02989884636301454e+00
1.02989884636301454e+00
9.91963689694989714e-01
9.91963689694989714e-01
9.91963689694989714e-01
1.04903439822921829e+00
1.04903439822921829e+00
1.04903439822921829e+00
1.04682133946406308e+00
1.04682133946406308e+00
1.04682133946406308e+00
1.03198642420351439e+00
1.03198642420351439e+00
1.03198642420351439e+00
1.03038339382883093e+00
1.03038339382883093e+00
1.03038339382883093e+00
1.00108327076123982e+00
1.00108327076123982e+00
1.00108327076123982e+00
1.02318573184635753e+00
1.02318573184635753e+00
1.02318573184635753e+00
1.05088610847272879e+00
1.05088610847272879e+00
1.05088610847272879e+00
1.05286037845349600e+00
1.05286037845349600e+00
1.05286037845349600e+00
1.06239735694822901e+00
1.06239735694822901e+00
1.06239735694822901e+00
1.05111088640172601e+00
1.05111088640172601e+00
1.05111088640172601e+00
1.03448838934864651e+00
1.03448838934864651e+00
1.03448838934864651e+00
1.05933316362815000e+00
1.05933316362815000e+00
1.05933316362815000e+00
1.05269440710187534e+00
1.05269440710187534e+00
1.05269440710187534e+00
1.06617669301786222e+00
1.06617669301786222e+00
1.06617669301786222e+00
1.02086782953621125e+00
1.02086782953621125e+00
1.02086782953621125e+00
1.02280379407644695e+00
1.02280379407644695e+00
1.02280379407644695e+00
1.03294185172103825e+00
1.03294185172103825e+00
1.03294185172103825e+00
1.02512613061208890e+00
1.02512613061208890e+00
1.02512613061208890e+00
1.02174188620730533e+00
1.02174188620730533e+00
1.02174188620730533e+00
1.00982360821326989e+00
1.00982360821326989e+00
1.00982360821326989e+00
1.01571629508199668e+00
1.01571629508199668e+00
1.01571629508199668e+00
9.68561566905228544e-01
9.68561566905228544e-01
9.68561566905228544e-01
1.00272962724346248e+00
1.00272962724346248e+00
1.00272962724346248e+00
1.02942982375517533e+00
1.02942982375517533e+00
1.02942982375517533e+00
9.59427675697903215e-01
9.59427675697903215e-01
9.59427675697903215e-01
9.95143004050333957e-01
9.95143004050333957e-01
9.95143004050333957e-01
1.00875739102571016e+00
1.00875739102571016e+00
1.00875739102571016e+00
1.00387699080230242e+00
1.00387699080230242e+00
1.00387699080230242e+00
9.56460614520100894e-01
9.56460614520100894e-01
9.56460614520100894e-01
1.00191418109241392e+00
1.00191418109241392e+00
1.00191418109241392e+00
9.87243379150063882e-01
9.87243379150063882e-01
9.87243379150063882e-01
1.00262134180966478e+00
1.00262134180966478e+00
1.00262134180966478e+00
1.02853860810319131e+00
1.02853860810319131e+00
1.02853860810319131e+00
1.01089139039226739e+00
1.01089139039226739e+00
1.01089139039226739e+00
9.66994004963521392e-01
9.66994004963521392e-01
9.66994004963521392e-01
9.51948478136284471e-01
9.51948478136284471e-01
9.51948478136284471e-01
9.49866321753814136e-01
9.49866321753814136e-01
9.49866321753814136e-01
1.03142717095029113e+00
1.03142717095029113e+00
1.03142717095029113e+00
1.02662804047927092e+00
1.02662804047927092e+00
1.02662804047927092e+00
9.83108141592896168e-01
9.83108141592896168e-01
9.83108141592896168e-01
1.01243109643630325e+00
1.01243109643630325e+00
1.01243109643630325e+00
9.93859302385536325e-01
9.93859302385536325e-01
9.93859302385536325e-01
1.00760716680317741e+00
1.00760716680317741e+00
1.00760716680317741e+00
1.00737666855615693e+00
1.00737666855615693e+00
1.00737666855615693e+00
1.01526410753848140e+00
1.01526410753848140e+00
1.01526410753848140e+00
1.06946200722273299e+00
1.06946200722273299e+00
1.06946200722273299e+00
1.05877560349511946e+00
1.05877560349511946e+00
1.05877560349511946e+00
1.00666094767274816e+00
1.00666094767274816e+00
1.00666094767274816e+00
1.02221930692502494e+00
1.02221930692502494e+00
1.02221930692502494e+00
9.87463858178236786e-01
9.87463858178236786e-01
9.87463858178236786e-01
1.03284929543274884e+00
1.03284929543274884e+00
1.03284929543274884e+00
1.01988880132972048e+00
1.01988880132972048e+00
1.01988880132972048e+00
1.00341824040149108e+00
1.00341824040149108e+00
1.00341824040149108e+00
1.00155662534555789e+00
1.00155662534555789e+00
1.00155662534555789e+00
9.99336378890374299e-01
9.99336378890374299e-01
9.99336378890374299e-01
9.82918135150380623e-01
9.82918135150380623e-01
9.82918135150380623e-01
9.44713812367617312e-01
9.44713812367617312e-01
9.44713812367617312e-01
1.03119982505321417e+00
1.03119982505321417e+00
1.03119982505321417e+00
9.60697739370070303e-01
9.60697739370070303e-01
9.60697739370070303e-01
1.04179870945117603e+00
1.04179870945117603e+00
1.04179870945117603e+00
9.70798805022673017e-01
9.70798805022673017e-01
9.70798805022673017e-01
1.00944693513534811e+00
1.00944693513534811e+00
1.00944693513534811e+00
9.97443720682162582e-01
9.97443720682162582e-01
9.97443720682162582e-01
9.90267577185871217e-01
9.90267577185871217e-01
9.90267577185871217e-01
1.02004081504166244e+00
1.02004081504166244e+00
1.02004081504166244e+00
1.02487893069964242e+00
1.02487893069964242e+00
1.02487893069964242e+00
1.03796216180865497e+00
1.03796216180865497e+00
1.03796216180865497e+00
1.00358570522981805e+00
1.00358570522981805e+00
1.00358570522981805e+00
1.01039712846252416e+00
1.01039712846252416e+00
1.01039712846252416e+00
1.02198149608694688e+00
1.02198149608694688e+00
1.02198149608694688e+00
1.00647982289693405e+00
1.00647982289693405e+00
1.00647982289693405e+00
9.96970319434567154e-01
9.96970319434567154e-01
9.96970319434567154e-01
1.00147753710478882e+00
1.00147753710478882e+00
1.00147753710478882e+00
1.01432146211285779e+00
1.01432146211285779e+00
1.01432146211285779e+00
1.01027150979256297e+00
1.01027150979256297e+00
1.01027150979256297e+00
1.01221943721892527e+00
1.01221943721892527e+00
1.01221943721892527e+00
1.03155834667769786e+00
1.03155834667769786e+00
1.03155834667769786e+00
1.02244806759007645e+00
1.02244806759007645e+00
1.02244806759007645e+00
1.02054613411163753e+00
1.02054613411163753e+00
1.02054613411163753e+00
1.00405194313061918e+00
1.00405194313061918e+00
1.00405194313061918e+00
1.00964003760369625e+00
1.00964003760369625e+00
1.00964003760369625e+00
9.64403062780130882e-01
9.64403062780130882e-01
9.64403062780130882e-01
1.02924309791915425e+00
1.02924309791915425e+00
1.02924309791915425e+00
1.01375373640993272e+00
1.01375373640993272e+00
1.01375373640993272e+00
1.02816525515823476e+00
1.02816525515823476e+00
1.02816525515823476e+00
1.02003029113617671e+00
1.02003029113617671e+00
1.02003029113617671e+00
1.01531185915719213e+00
1.01531185915719213e+00
1.01531185915719213e+00
1.00824842805125758e+00
1.00824842805125758e+00
1.00824842805125758e+00
1.00913485808572911e+00
1.00913485808572911e+00
1.00913485808572911e+00
1.02565671595588603e+00
1.02565671595588603e+00
1.02565671595588603e+00


        </DataArray>

      </PointData>

      <CellData/>

      <Points>

        <DataArray type="Float64" NumberOfComponents="3" format="ascii">

0.1082531754723032 0.6875000000007816 0 0.23533274979922561 0.77093399389351469 0 0.10409951422139101 0.81206782209691231 0 0.23533274979922561 0.77093399389351469 0 0.1082531754723032 0.6875000000007816 0 0.21809253452218619 0.65480892822618109 0 0.24418615484441761 0.35773612382016978 0 0.121259140952891 0.43112117036853742 0 0.1082531754734323 0.31250000000117473 0 0.75000000000057243 0.35048094716480432 0 0.88173731489851925 0.33077402607778361 0 0.81242894672211508 0.45500248311961472 0 0.121259140952891 0.43112117036853742 0 0.24418615484441761 0.35773612382016978 0 0.22257735880419699 0.47344721641341742 0 0.81242894672211508 0.45500248311961472 0 0.88173731489851925 0.33077402607778361 0 0.915464298762109 0.43749999999886913 0 0 0.62500000000121547 0 0 0.50000000000206146 0 0.1371230538040123 0.56179824718362847 0 0.82212678063041267 0.67678595194836966 0 0.89051480781310632 0.79665793440246835 0 0.76243180583607129 0.78687675331113149 0 0.76243180583607129 0.78687675331113149 0 0.69010814643829166 0.89298495739101336 0 0.62844955668446423 0.7850749770380413 0 0.89051480781310632 0.79665793440246835 0 0.82212678063041267 0.67678595194836966 0 0.92266244547590082 0.68749999999917555 0 0 0.50000000000206146 0 0.121259140952891 0.43112117036853742 0 0.1371230538040123 0.56179824718362847 0 0.1082531754723032 0.6875000000007816 0 0 0.62500000000121547 0 0.1371230538040123 0.56179824718362847 0 0.75000000000032374 0.56698729811007709 0 0.88927506082488361 0.56409486310635837 0 0.82212678063041267 0.67678595194836966 0 0.81242894672211508 0.45500248311961472 0 0.88927506082488361 0.56409486310635837 0 0.75000000000032374 0.56698729811007709 0 0.69851598570178741 0.68211701800612057 0 0.56496004948275869 0.67675037307860475 0 0.62752533658682441 0.56838075195614346 0 0.69851598570178741 0.68211701800612057 0 0.76243180583607129 0.78687675331113149 0 0.62844955668446423 0.7850749770380413 0 0.23533274979922561 0.77093399389351469 0 0.18802967116092181 0.89415349436770275 0 0.10409951422139101 0.81206782209691231 0 0.121259140952891 0.43112117036853742 0 0.22257735880419699 0.47344721641341742 0 0.1371230538040123 0.56179824718362847 0 0.75000000000032374 0.56698729811007709 0 0.69851598570178741 0.68211701800612057 0 0.62752533658682441 0.56838075195614346 0 0.56496004948275869 0.67675037307860475 0 0.69851598570178741 0.68211701800612057 0 0.62844955668446423 0.7850749770380413 0 0.1371230538040123 0.56179824718362847 0 0.22257735880419699 0.47344721641341742 0 0.26982811998763367 0.56544650815856912 0 0.21809253452218619 0.65480892822618109 0 0.1371230538040123 0.56179824718362847 0 0.26982811998763367 0.56544650815856912 0 0.24418615484441761 0.35773612382016978 0 0.1082531754734323 0.31250000000117473 0 0.20767261601459541 0.25628918442207171 0 0.88173731489851925 0.33077402607778361 0 0.75000000000057243 0.35048094716480432 0 0.79891106056046712 0.25007334953587562 0 0.75000000000032374 0.56698729811007709 0 0.82212678063041267 0.67678595194836966 0 0.69851598570178741 0.68211701800612057 0 0.81249999999950517 0.1082531754733404 0 0.89658421694297741 0.1933620068391701 0 0.79891106056046712 0.25007334953587562 0 0.81249999999950517 0.1082531754733404 0 0.79891106056046712 0.25007334953587562 0 0.73983916756365475 0.17530677078674589 0 0.23533274979922561 0.77093399389351469 0 0.21809253452218619 0.65480892822618109 0 0.32607333794064219 0.67760114260606152 0 0.1082531754723032 0.6875000000007816 0 0.1371230538040123 0.56179824718362847 0 0.21809253452218619 0.65480892822618109 0 0.69851598570178741 0.68211701800612057 0 0.82212678063041267 0.67678595194836966 0 0.76243180583607129 0.78687675331113149 0 0.69010814643829166 0.89298495739101336 0 0.76243180583607129 0.78687675331113149 0 0.80886664387416207 0.89717308644237903 0 0.43750000000181222 0.89174682452709564 0 0.31258827852827581 0.89214793616708443 0 0.37776173212361452 0.78514649317305008 0 0.43750000000181222 0.89174682452709564 0 0.37500000000156292 1 0 0.31258827852827581 0.89214793616708443 0 0.121259140952891 0.43112117036853742 0 0 0.37500000000156292 0 0.1082531754734323 0.31250000000117473 0 0.50000000000206146 1 0 0.37500000000156292 1 0 0.43750000000181222 0.89174682452709564 0 0.31258827852827581 0.89214793616708443 0 0.18802967116092181 0.89415349436770275 0 0.23533274979922561 0.77093399389351469 0 0 0.50000000000206146 0 0 0.37500000000156292 0 0.121259140952891 0.43112117036853742 0 0.62844955668446423 0.7850749770380413 0 0.69010814643829166 0.89298495739101336 0 0.56327595140699671 0.89211526915426331 0 0.69010814643829166 0.89298495739101336 0 0.62500000000121547 1 0 0.56327595140699671 0.89211526915426331 0 0.25000000000104189 1 0 0.18802967116092181 0.89415349436770275 0 0.31258827852827581 0.89214793616708443 0 0.50000000000206146 1 0 0.43750000000181222 0.89174682452709564 0 0.56327595140699671 0.89211526915426331 0 0.56249999999885147 0.1082531754730395 0 0.62499999999901068 0 0 0.68749999999926592 0.1082531754732875 0 1 0.49999999999869221 0 1 0.62499999999901068 0 0.88927506082488361 0.56409486310635837 0 0 0.25000000000104189 0 0.12076953676380731 0.18690935762408761 0 0.1082531754734323 0.31250000000117473 0 0.49999999999869221 0 0 0.62499999999901068 0 0 0.56249999999885147 0.1082531754730395 0 0.62500000000121547 1 0 0.50000000000206146 1 0 0.56327595140699671 0.89211526915426331 0 0.37500000000156292 1 0 0.25000000000104189 1 0 0.31258827852827581 0.89214793616708443 0 0.31281086598417152 0.10449318608631281 0 0.37499999999904599 0 0 0.43749999999910871 0.1082531754729984 0 0.43750000000181222 0.89174682452709564 0 0.37776173212361452 0.78514649317305008 0 0.50046028868828263 0.78376912307435687 0 0 0.37500000000156292 0 0 0.25000000000104189 0 0.1082531754734323 0.31250000000117473 0 0.49999999999869221 0 0 0.56249999999885147 0.1082531754730395 0 0.43749999999910871 0.1082531754729984 0 0.43750000000181222 0.89174682452709564 0 0.50046028868828263 0.78376912307435687 0 0.56327595140699671 0.89211526915426331 0 0.74999999999934042 0 0 0.81249999999950517 0.1082531754733404 0 0.68749999999926592 0.1082531754732875 0 0.37499999999904599 0 0 0.49999999999869221 0 0 0.43749999999910871 0.1082531754729984 0 0.25000000000104189 1 0 0.12500000000052089 1 0 0.18802967116092181 0.89415349436770275 0 0.50046028868828263 0.78376912307435687 0 0.62844955668446423 0.7850749770380413 0 0.56327595140699671 0.89211526915426331 0 0.37776173212361452 0.78514649317305008 0 0.31258827852827581 0.89214793616708443 0 0.23533274979922561 0.77093399389351469 0 0.62499999999901068 0 0 0.74999999999934042 0 0 0.68749999999926592 0.1082531754732875 0 1 0.74999999999934042 0 1 0.87499999999967015 0 0.89051480781310632 0.79665793440246835 0 0 0.25000000000104189 0 0 0.12500000000052089 0 0.12076953676380731 0.18690935762408761 0 0.74999999999934042 0 0 0.87499999999967015 0 0 0.81249999999950517 0.1082531754733404 0 0.24999999999941069 0 0 0.37499999999904599 0 0 0.31281086598417152 0.10449318608631281 0 0.50046028868828263 0.78376912307435687 0 0.37776173212361452 0.78514649317305008 0 0.44078402250377968 0.67714785211715212 0 0.68768773896438518 0.4586835206367198 0 0.75000000000032374 0.56698729811007709 0 0.62752533658682441 0.56838075195614346 0 0.31411863959822661 0.24965544328045999 0 0.37953773393552892 0.34812185820708452 0 0.24418615484441761 0.35773612382016978 0 0.68768773896438518 0.4586835206367198 0 0.81242894672211508 0.45500248311961472 0 0.75000000000032374 0.56698729811007709 0 1 0.24999999999941069 0 1 0.37499999999904599 0 0.88173731489851925 0.33077402607778361 0 0 0.75000000000034761 0 0 0.62500000000121547 0 0.1082531754723032 0.6875000000007816 0 0.50048844149666749 0.56727788297625459 0 0.44078402250377968 0.67714785211715212 0 0.38694285807596462 0.5672991787102919 0 0.50108503093851109 0.35012252869403671 0 0.44301038174930041 0.45684931552185398 0 0.37953773393552892 0.34812185820708452 0 0.50046028868828263 0.78376912307435687 0 0.56496004948275869 0.67675037307860475 0 0.62844955668446423 0.7850749770380413 0 0.68768773896438518 0.4586835206367198 0 0.75000000000057243 0.35048094716480432 0 0.81242894672211508 0.45500248311961472 0 0.56349980387502452 0.45846841892908402 0 0.62512662990940393 0.35044303886909911 0 0.68768773896438518 0.4586835206367198 0 0.50048844149666749 0.56727788297625459 0 0.38694285807596462 0.5672991787102919 0 0.44301038174930041 0.45684931552185398 0 0.50046028868828263 0.78376912307435687 0 0.44078402250377968 0.67714785211715212 0 0.56496004948275869 0.67675037307860475 0 0.50108503093851109 0.35012252869403671 0 0.37953773393552892 0.34812185820708452 0 0.43750000000200551 0.24222777169198509 0 0.75000000000034761 1 0 0.62500000000121547 1 0 0.69010814643829166 0.89298495739101336 0 0.68768773896438518 0.4586835206367198 0 0.62512662990940393 0.35044303886909911 0 0.75000000000057243 0.35048094716480432 0 0.56496004948275869 0.67675037307860475 0 0.44078402250377968 0.67714785211715212 0 0.50048844149666749 0.56727788297625459 0 0.56349980387502452 0.45846841892908402 0 0.44301038174930041 0.45684931552185398 0 0.50108503093851109 0.35012252869403671 0 0.50048844149666749 0.56727788297625459 0 0.44301038174930041 0.45684931552185398 0 0.56349980387502452 0.45846841892908402 0 0.56349980387502452 0.45846841892908402 0 0.50108503093851109 0.35012252869403671 0 0.62512662990940393 0.35044303886909911 0 0.43750000000200551 0.24222777169198509 0 0.37953773393552892 0.34812185820708452 0 0.31411863959822661 0.24965544328045999 0 0.56496004948275869 0.67675037307860475 0 0.50048844149666749 0.56727788297625459 0 0.62752533658682441 0.56838075195614346 0 0.56349980387502452 0.45846841892908402 0 0.68768773896438518 0.4586835206367198 0 0.62752533658682441 0.56838075195614346 0 0.50048844149666749 0.56727788297625459 0 0.56349980387502452 0.45846841892908402 0 0.62752533658682441 0.56838075195614346 0 0.75000000000057243 0.35048094716480432 0 0.62512662990940393 0.35044303886909911 0 0.68668231842078242 0.24762892664808989 0 0.50108503093851109 0.35012252869403671 0 0.43750000000200551 0.24222777169198509 0 0.56250000000143974 0.2422277716920859 0 0.62512662990940393 0.35044303886909911 0 0.50108503093851109 0.35012252869403671 0 0.56250000000143974 0.2422277716920859 0 0.68668231842078242 0.24762892664808989 0 0.62512662990940393 0.35044303886909911 0 0.56250000000143974 0.2422277716920859 0 0.22257735880419699 0.47344721641341742 0 0.24418615484441761 0.35773612382016978 0 0.32815957677880009 0.4577243358118348 0 0.12076953676380731 0.18690935762408761 0 0.19185372118111221 0.092925648673580788 0 0.25103557339309318 0.17464499738446629 0 0.20767261601459541 0.25628918442207171 0 0.12076953676380731 0.18690935762408761 0 0.25103557339309318 0.17464499738446629 0 0 0.87499999999950151 0 0 0.75000000000034761 0 0.10409951422139101 0.81206782209691231 0 0.1249999999997731 0 0 0.24999999999941069 0 0 0.19185372118111221 0.092925648673580788 0 1 0.1249999999997731 0 1 0.24999999999941069 0 0.89658421694297741 0.1933620068391701 0 0.88927506082488361 0.56409486310635837 0 0.81242894672211508 0.45500248311961472 0 0.915464298762109 0.43749999999886913 0 0.87499999999950151 1 0 0.75000000000034761 1 0 0.80886664387416207 0.89717308644237903 0 0.75000000000034761 1 0 0.69010814643829166 0.89298495739101336 0 0.80886664387416207 0.89717308644237903 0 0.82212678063041267 0.67678595194836966 0 0.88927506082488361 0.56409486310635837 0 0.92266244547590082 0.68749999999917555 0 0 0.75000000000034761 0 0.1082531754723032 0.6875000000007816 0 0.10409951422139101 0.81206782209691231 0 0.24999999999941069 0 0 0.31281086598417152 0.10449318608631281 0 0.19185372118111221 0.092925648673580788 0 1 0.24999999999941069 0 0.88173731489851925 0.33077402607778361 0 0.89658421694297741 0.1933620068391701 0 0.32815957677880009 0.4577243358118348 0 0.38694285807596462 0.5672991787102919 0 0.26982811998763367 0.56544650815856912 0 0.76243180583607129 0.78687675331113149 0 0.89051480781310632 0.79665793440246835 0 0.80886664387416207 0.89717308644237903 0 0.38694285807596462 0.5672991787102919 0 0.44078402250377968 0.67714785211715212 0 0.32607333794064219 0.67760114260606152 0 0.37776173212361452 0.78514649317305008 0 0.23533274979922561 0.77093399389351469 0 0.32607333794064219 0.67760114260606152 0 1 0.49999999999869221 0 0.88927506082488361 0.56409486310635837 0 0.915464298762109 0.43749999999886913 0 0.88173731489851925 0.33077402607778361 0 1 0.37499999999904599 0 0.915464298762109 0.43749999999886913 0 0.24418615484441761 0.35773612382016978 0 0.37953773393552892 0.34812185820708452 0 0.32815957677880009 0.4577243358118348 0 0.44301038174930041 0.45684931552185398 0 0.38694285807596462 0.5672991787102919 0 0.32815957677880009 0.4577243358118348 0 0.88927506082488361 0.56409486310635837 0 1 0.62499999999901068 0 0.92266244547590082 0.68749999999917555 0 1 0.74999999999934042 0 0.89051480781310632 0.79665793440246835 0 0.92266244547590082 0.68749999999917555 0 0 1 0 0 0.87499999999950151 0 0.091506350946494744 0.90849364905351082 0 1 1 0 0.87499999999950151 1 0 0.90849364905363228 0.90849364905367769 0 0 0 0 0.1249999999997731 0 0 0.091506350946417708 0.091506350946618076 0 0 0.12500000000052089 0 0 0 0 0.091506350946417708 0.091506350946618076 0 1 0 0 1 0.1249999999997731 0 0.90849364905355434 0.091506350946296292 0 0.87499999999967015 0 0 1 0 0 0.90849364905355434 0.091506350946296292 0 0.12500000000052089 1 0 0 1 0 0.091506350946494744 0.90849364905351082 0 1 0.87499999999967015 0 1 1 0 0.90849364905363228 0.90849364905367769 0 0.38694285807596462 0.5672991787102919 0 0.32607333794064219 0.67760114260606152 0 0.26982811998763367 0.56544650815856912 0 0.31411863959822661 0.24965544328045999 0 0.24418615484441761 0.35773612382016978 0 0.20767261601459541 0.25628918442207171 0 0.1082531754734323 0.31250000000117473 0 0.12076953676380731 0.18690935762408761 0 0.20767261601459541 0.25628918442207171 0 0.75000000000057243 0.35048094716480432 0 0.68668231842078242 0.24762892664808989 0 0.79891106056046712 0.25007334953587562 0 0.22257735880419699 0.47344721641341742 0 0.32815957677880009 0.4577243358118348 0 0.26982811998763367 0.56544650815856912 0 0.44078402250377968 0.67714785211715212 0 0.37776173212361452 0.78514649317305008 0 0.32607333794064219 0.67760114260606152 0 0.89658421694297741 0.1933620068391701 0 0.88173731489851925 0.33077402607778361 0 0.79891106056046712 0.25007334953587562 0 1 0.37499999999904599 0 1 0.49999999999869221 0 0.915464298762109 0.43749999999886913 0 0.37953773393552892 0.34812185820708452 0 0.44301038174930041 0.45684931552185398 0 0.32815957677880009 0.4577243358118348 0 0.32607333794064219 0.67760114260606152 0 0.21809253452218619 0.65480892822618109 0 0.26982811998763367 0.56544650815856912 0 1 0.1249999999997731 0 0.89658421694297741 0.1933620068391701 0 0.90849364905355434 0.091506350946296292 0 0 0.87499999999950151 0 0.10409951422139101 0.81206782209691231 0 0.091506350946494744 0.90849364905351082 0 0.1249999999997731 0 0 0.19185372118111221 0.092925648673580788 0 0.091506350946417708 0.091506350946618076 0 1 0.62499999999901068 0 1 0.74999999999934042 0 0.92266244547590082 0.68749999999917555 0 0.18802967116092181 0.89415349436770275 0 0.12500000000052089 1 0 0.091506350946494744 0.90849364905351082 0 0.89051480781310632 0.79665793440246835 0 1 0.87499999999967015 0 0.90849364905363228 0.90849364905367769 0 0.12076953676380731 0.18690935762408761 0 0 0.12500000000052089 0 0.091506350946417708 0.091506350946618076 0 0.81249999999950517 0.1082531754733404 0 0.87499999999967015 0 0 0.90849364905355434 0.091506350946296292 0 0.87499999999950151 1 0 0.80886664387416207 0.89717308644237903 0 0.90849364905363228 0.90849364905367769 0 0.68668231842078242 0.24762892664808989 0 0.62499999999892575 0.17524047358135519 0 0.73983916756365475 0.17530677078674589 0 0.31281086598417152 0.10449318608631281 0 0.43749999999910871 0.1082531754729984 0 0.37500000000232431 0.17524047358384309 0 0.62499999999892575 0.17524047358135519 0 0.56250000000143974 0.2422277716920859 0 0.49999999999934441 0.1752404735815076 0 0.56249999999885147 0.1082531754730395 0 0.68749999999926592 0.1082531754732875 0 0.62499999999892575 0.17524047358135519 0 0.56249999999885147 0.1082531754730395 0 0.62499999999892575 0.17524047358135519 0 0.49999999999934441 0.1752404735815076 0 0.56250000000143974 0.2422277716920859 0 0.43750000000200551 0.24222777169198509 0 0.49999999999934441 0.1752404735815076 0 0.43749999999910871 0.1082531754729984 0 0.56249999999885147 0.1082531754730395 0 0.49999999999934441 0.1752404735815076 0 0.68668231842078242 0.24762892664808989 0 0.56250000000143974 0.2422277716920859 0 0.62499999999892575 0.17524047358135519 0 0.43750000000200551 0.24222777169198509 0 0.31411863959822661 0.24965544328045999 0 0.37500000000232431 0.17524047358384309 0 0.49999999999934441 0.1752404735815076 0 0.43750000000200551 0.24222777169198509 0 0.37500000000232431 0.17524047358384309 0 0.43749999999910871 0.1082531754729984 0 0.49999999999934441 0.1752404735815076 0 0.37500000000232431 0.17524047358384309 0 0.62499999999892575 0.17524047358135519 0 0.68749999999926592 0.1082531754732875 0 0.73983916756365475 0.17530677078674589 0 0.68749999999926592 0.1082531754732875 0 0.81249999999950517 0.1082531754733404 0 0.73983916756365475 0.17530677078674589 0 0.10409951422139101 0.81206782209691231 0 0.18802967116092181 0.89415349436770275 0 0.091506350946494744 0.90849364905351082 0 0.89658421694297741 0.1933620068391701 0 0.81249999999950517 0.1082531754733404 0 0.90849364905355434 0.091506350946296292 0 0.19185372118111221 0.092925648673580788 0 0.12076953676380731 0.18690935762408761 0 0.091506350946417708 0.091506350946618076 0 0.37500000000232431 0.17524047358384309 0 0.31411863959822661 0.24965544328045999 0 0.25103557339309318 0.17464499738446629 0 0.31281086598417152 0.10449318608631281 0 0.37500000000232431 0.17524047358384309 0 0.25103557339309318 0.17464499738446629 0 0.80886664387416207 0.89717308644237903 0 0.89051480781310632 0.79665793440246835 0 0.90849364905363228 0.90849364905367769 0 0.19185372118111221 0.092925648673580788 0 0.31281086598417152 0.10449318608631281 0 0.25103557339309318 0.17464499738446629 0 0.79891106056046712 0.25007334953587562 0 0.68668231842078242 0.24762892664808989 0 0.73983916756365475 0.17530677078674589 0 0.31411863959822661 0.24965544328045999 0 0.20767261601459541 0.25628918442207171 0 0.25103557339309318 0.17464499738446629 0 

        </DataArray>

      </Points>

      <Cells>

        <DataArray type="Int32" Name="connectivity" format="ascii">

0 1 2 3 4 5 6 7 8 9 10 11 12 13 14 15 16 17 18 19 20 21 22 23 24 25 26 27 28 29 30 31 32 33 34 35 36 37 38 39 40 41 42 43 44 45 46 47 48 49 50 51 52 53 54 55 56 57 58 59 60 61 62 63 64 65 66 67 68 69 70 71 72 73 74 75 76 77 78 79 80 81 82 83 84 85 86 87 88 89 90 91 92 93 94 95 96 97 98 99 100 101 102 103 104 105 106 107 108 109 110 111 112 113 114 115 116 117 118 119 120 121 122 123 124 125 126 127 128 129 130 131 132 133 134 135 136 137 138 139 140 141 142 143 144 145 146 147 148 149 150 151 152 153 154 155 156 157 158 159 160 161 162 163 164 165 166 167 168 169 170 171 172 173 174 175 176 177 178 179 180 181 182 183 184 185 186 187 188 189 190 191 192 193 194 195 196 197 198 199 200 201 202 203 204 205 206 207 208 209 210 211 212 213 214 215 216 217 218 219 220 221 222 223 224 225 226 227 228 229 230 231 232 233 234 235 236 237 238 239 240 241 242 243 244 245 246 247 248 249 250 251 252 253 254 255 256 257 258 259 260 261 262 263 264 265 266 267 268 269 270 271 272 273 274 275 276 277 278 279 280 281 282 283 284 285 286 287 288 289 290 291 292 293 294 295 296 297 298 299 300 301 302 303 304 305 306 307 308 309 310 311 312 313 314 315 316 317 318 319 320 321 322 323 324 325 326 327 328 329 330 331 332 333 334 335 336 337 338 339 340 341 342 343 344 345 346 347 348 349 350 351 352 353 354 355 356 357 358 359 360 361 362 363 364 365 366 367 368 369 370 371 372 373 374 375 376 377 378 379 380 381 382 383 384 385 386 387 388 389 390 391 392 393 394 395 396 397 398 399 400 401 402 403 404 405 406 407 408 409 410 411 412 413 414 415 416 417 418 419 420 421 422 423 424 425 426 427 428 429 430 431 432 433 434 435 436 437 438 439 440 441 442 443 444 445 446 447 448 449 450 451 452 453 454 455 456 457 458 459 460 461 462 463 464 465 466 467 468 469 470 471 472 473 474 475 476 477 478 479 480 481 482 483 484 485 

        </DataArray>

        <DataArray type="Int32" Name="offsets" format="ascii">

3 6 9 12 15 18 21 24 27 30 33 36 39 42 45 48 51 54 57 60 63 66 69 72 75 78 81 84 87 90 93 96 99 102 105 108 111 114 117 120 123 126 129 132 135 138 141 144 147 150 153 156 159 162 165 168 171 174 177 180 183 186 189 192 195 198 201 204 207 210 213 216 219 222 225 228 231 234 237 240 243 246 249 252 255 258 261 264 267 270 273 276 279 282 285 288 291 294 297 300 303 306 309 312 315 318 321 324 327 330 333 336 339 342 345 348 351 354 357 360 363 366 369 372 375 378 381 384 387 390 393 396 399 402 405 408 411 414 417 420 423 426 429 432 435 438 441 444 447 450 453 456 459 462 465 468 471 474 477 480 483 486 

        </DataArray>

        <DataArray type="Int32" Name="types" format="ascii">

5 5 5 5 5 5 5 5 5 5 5 5 5 5 5 5 5 5 5 5 5 5 5 5 5 5 5 5 5 5 5 5 5 5 5 5 5 5 5 5 5 5 5 5 5 5 5 5 5 5 5 5 5 5 5 5 5 5 5 5 5 5 5 5 5 5 5 5 5 5 5 5 5 5 5 5 5 5 5 5 5 5 5 5 5 5 5 5 5 5 5 5 5 5 5 5 5 5 5 5 5 5 5 5 5 5 5 5 5 5 5 5 5 5 5 5 5 5 5 5 5 5 5 5 5 5 5 5 5 5 5 5 5 5 5 5 5 5 5 5 5 5 5 5 5 5 5 5 5 5 5 5 5 5 5 5 5 5 5 5 5 5 

        </DataArray>

      </Cells>

    </Piece>

  </UnstructuredGrid>

</VTKFile>

