<?xml version="1.0"?>

<VTKFile type="UnstructuredGrid" version="0.1">

  <UnstructuredGrid>

    <Piece NumberOfPoints="98" NumberOfCells="162">

      <PointData>

        <DataArray type="Float64" Name="F" format="ascii">

0.00000000000000000e+00
0.00000000000000000e+00
0.00000000000000000e+00
0.00000000000000000e+00
0.00000000000000000e+00
0.00000000000000000e+00
0.00000000000000000e+00
0.00000000000000000e+00
0.00000000000000000e+00
0.00000000000000000e+00
0.00000000000000000e+00
0.00000000000000000e+00
0.00000000000000000e+00
0.00000000000000000e+00
0.00000000000000000e+00
0.00000000000000000e+00
0.00000000000000000e+00
0.00000000000000000e+00
0.00000000000000000e+00
0.00000000000000000e+00
0.00000000000000000e+00
0.00000000000000000e+00
0.00000000000000000e+00
0.00000000000000000e+00
0.00000000000000000e+00
0.00000000000000000e+00
0.00000000000000000e+00
0.00000000000000000e+00
0.00000000000000000e+00
0.00000000000000000e+00
0.00000000000000000e+00
0.00000000000000000e+00
0.00000000000000000e+00
0.00000000000000000e+00
0.00000000000000000e+00
0.00000000000000000e+00
0.00000000000000000e+00
0.00000000000000000e+00
0.00000000000000000e+00
0.00000000000000000e+00
0.00000000000000000e+00
0.00000000000000000e+00
0.00000000000000000e+00
0.00000000000000000e+00
0.00000000000000000e+00
0.00000000000000000e+00
0.00000000000000000e+00
0.00000000000000000e+00
0.00000000000000000e+00
0.00000000000000000e+00
0.00000000000000000e+00
0.00000000000000000e+00
0.00000000000000000e+00
0.00000000000000000e+00
0.00000000000000000e+00
0.00000000000000000e+00
0.00000000000000000e+00
0.00000000000000000e+00
0.00000000000000000e+00
0.00000000000000000e+00
0.00000000000000000e+00
0.00000000000000000e+00
0.00000000000000000e+00
0.00000000000000000e+00
0.00000000000000000e+00
0.00000000000000000e+00
0.00000000000000000e+00
0.00000000000000000e+00
0.00000000000000000e+00
0.00000000000000000e+00
0.00000000000000000e+00
0.00000000000000000e+00
0.00000000000000000e+00
0.00000000000000000e+00
0.00000000000000000e+00
0.00000000000000000e+00
0.00000000000000000e+00
0.00000000000000000e+00
0.00000000000000000e+00
0.00000000000000000e+00
0.00000000000000000e+00
0.00000000000000000e+00
0.00000000000000000e+00
0.00000000000000000e+00
0.00000000000000000e+00
0.00000000000000000e+00
0.00000000000000000e+00
0.00000000000000000e+00
0.00000000000000000e+00
0.00000000000000000e+00
0.00000000000000000e+00
0.00000000000000000e+00
0.00000000000000000e+00
0.00000000000000000e+00
0.00000000000000000e+00
0.00000000000000000e+00
0.00000000000000000e+00
0.00000000000000000e+00


        </DataArray>

        <DataArray type="Float64" Name="T" format="ascii">

0.00000000000000000e+00
0.00000000000000000e+00
0.00000000000000000e+00
0.00000000000000000e+00
0.00000000000000000e+00
0.00000000000000000e+00
0.00000000000000000e+00
0.00000000000000000e+00
0.00000000000000000e+00
0.00000000000000000e+00
0.00000000000000000e+00
0.00000000000000000e+00
0.00000000000000000e+00
0.00000000000000000e+00
0.00000000000000000e+00
0.00000000000000000e+00
0.00000000000000000e+00
0.00000000000000000e+00
1.18999168382913648e-01
2.18217950242513059e-01
2.88776816125618840e-01
3.13925641542158407e-01
2.85062350850834034e-01
2.19799425904684292e-01
1.21392696981784329e-01
0.00000000000000000e+00
0.00000000000000000e+00
0.00000000000000000e+00
0.00000000000000000e+00
0.00000000000000000e+00
0.00000000000000000e+00
0.00000000000000000e+00
2.16114058901106298e-01
1.79497213392128471e-02
8.79455858404942954e-03
2.55946373056994761e-02
3.73196585055063576e-02
1.80111591117377873e-01
7.25174499367145942e-03
1.18660395820677153e-02
5.50481563340438559e-02
1.25263717041675521e-01
5.19525211022906028e-03
6.02149740193467023e-03
1.84658427983031864e-01
1.47041461521578265e-01
1.55632786046254468e-01
1.09171117316665567e-01
1.07093206072738298e-01
7.68296604139989542e-02
7.18309491070993067e-02
5.13219233823523704e-02
5.16936122879477697e-02
3.50855859007130760e-02
3.21575599948744906e-02
3.27790184334168719e-02
4.38661152724017997e-02
2.14389287580051859e-02
2.53325217963363235e-02
1.90828140408651238e-02
1.89832812415343839e-02
2.52640289362233844e-02
2.90316290892403232e-02
5.36922063816008474e-02
5.73582568158026648e-02
8.93394947924555372e-02
1.04703344159438452e-01
1.01308986024844214e-01
9.85049535156602707e-03
3.55648893018252754e-02
3.13823238124254500e-02
6.43861985105188134e-02
1.42040881426326593e-01
7.61527274032695531e-03
8.88836846750731997e-03
2.15927865510834038e-01
7.02409426038368562e-02
2.15674964539130792e-02
5.53363005251637091e-02
4.36817718837353812e-03
5.61730311559300883e-03
1.24570099108739951e-01
1.42107543399192515e-02
1.37109881594775808e-02
9.47739257061322310e-02
1.27907404221604317e-02
4.43671900867382563e-02
2.72894733771628997e-02
6.71863493485266305e-02
6.58337161859282177e-02
2.18664147345879736e-03
2.20301610744636379e-03
5.65905978267352630e-02
1.40584148035629956e-02
1.50808647482305169e-02
1.40325343723017772e-02
1.13300861889929164e-02
1.07118084475613575e-02


        </DataArray>

        <DataArray type="Float64" Name="T_exacte_scallin" format="ascii">

0.00000000000000000e+00
0.00000000000000000e+00
0.00000000000000000e+00
0.00000000000000000e+00
0.00000000000000000e+00
0.00000000000000000e+00
0.00000000000000000e+00
0.00000000000000000e+00
0.00000000000000000e+00
0.00000000000000000e+00
0.00000000000000000e+00
0.00000000000000000e+00
0.00000000000000000e+00
0.00000000000000000e+00
0.00000000000000000e+00
0.00000000000000000e+00
0.00000000000000000e+00
0.00000000000000000e+00
0.00000000000000000e+00
0.00000000000000000e+00
0.00000000000000000e+00
0.00000000000000000e+00
0.00000000000000000e+00
0.00000000000000000e+00
0.00000000000000000e+00
0.00000000000000000e+00
0.00000000000000000e+00
0.00000000000000000e+00
0.00000000000000000e+00
0.00000000000000000e+00
0.00000000000000000e+00
0.00000000000000000e+00
0.00000000000000000e+00
0.00000000000000000e+00
0.00000000000000000e+00
0.00000000000000000e+00
0.00000000000000000e+00
0.00000000000000000e+00
0.00000000000000000e+00
0.00000000000000000e+00
0.00000000000000000e+00
0.00000000000000000e+00
0.00000000000000000e+00
0.00000000000000000e+00
0.00000000000000000e+00
0.00000000000000000e+00
0.00000000000000000e+00
0.00000000000000000e+00
0.00000000000000000e+00
0.00000000000000000e+00
0.00000000000000000e+00
0.00000000000000000e+00
0.00000000000000000e+00
0.00000000000000000e+00
0.00000000000000000e+00
0.00000000000000000e+00
0.00000000000000000e+00
0.00000000000000000e+00
0.00000000000000000e+00
0.00000000000000000e+00
0.00000000000000000e+00
0.00000000000000000e+00
0.00000000000000000e+00
0.00000000000000000e+00
0.00000000000000000e+00
0.00000000000000000e+00
0.00000000000000000e+00
0.00000000000000000e+00
0.00000000000000000e+00
0.00000000000000000e+00
0.00000000000000000e+00
0.00000000000000000e+00
0.00000000000000000e+00
0.00000000000000000e+00
0.00000000000000000e+00
0.00000000000000000e+00
0.00000000000000000e+00
0.00000000000000000e+00
0.00000000000000000e+00
0.00000000000000000e+00
0.00000000000000000e+00
0.00000000000000000e+00
0.00000000000000000e+00
0.00000000000000000e+00
0.00000000000000000e+00
0.00000000000000000e+00
0.00000000000000000e+00
0.00000000000000000e+00
0.00000000000000000e+00
0.00000000000000000e+00
0.00000000000000000e+00
0.00000000000000000e+00
0.00000000000000000e+00
0.00000000000000000e+00
0.00000000000000000e+00
0.00000000000000000e+00
0.00000000000000000e+00
0.00000000000000000e+00


        </DataArray>

      </PointData>

      <CellData/>

      <Points>

        <DataArray type="Float64" Name="Position" NumberOfComponents="3" format="ascii">

0.00000000000000000e+00 0.00000000000000000e+00 0.00000000000000000e+00
1.00000000000000000e+00 0.00000000000000000e+00 0.00000000000000000e+00
1.00000000000000000e+00 1.00000000000000000e+00 0.00000000000000000e+00
0.00000000000000000e+00 1.00000000000000000e+00 0.00000000000000000e+00
1.24999999999773098e-01 0.00000000000000000e+00 0.00000000000000000e+00
2.49999999999410694e-01 0.00000000000000000e+00 0.00000000000000000e+00
3.74999999999045985e-01 0.00000000000000000e+00 0.00000000000000000e+00
4.99999999998692213e-01 0.00000000000000000e+00 0.00000000000000000e+00
6.24999999999010680e-01 0.00000000000000000e+00 0.00000000000000000e+00
7.49999999999340417e-01 0.00000000000000000e+00 0.00000000000000000e+00
8.74999999999670153e-01 0.00000000000000000e+00 0.00000000000000000e+00
1.00000000000000000e+00 1.24999999999773098e-01 0.00000000000000000e+00
1.00000000000000000e+00 2.49999999999410694e-01 0.00000000000000000e+00
1.00000000000000000e+00 3.74999999999045985e-01 0.00000000000000000e+00
1.00000000000000000e+00 4.99999999998692213e-01 0.00000000000000000e+00
1.00000000000000000e+00 6.24999999999010680e-01 0.00000000000000000e+00
1.00000000000000000e+00 7.49999999999340417e-01 0.00000000000000000e+00
1.00000000000000000e+00 8.74999999999670153e-01 0.00000000000000000e+00
8.74999999999501510e-01 1.00000000000000000e+00 0.00000000000000000e+00
7.50000000000347611e-01 1.00000000000000000e+00 0.00000000000000000e+00
6.25000000001215472e-01 1.00000000000000000e+00 0.00000000000000000e+00
5.00000000002061462e-01 1.00000000000000000e+00 0.00000000000000000e+00
3.75000000001562916e-01 1.00000000000000000e+00 0.00000000000000000e+00
2.50000000001041889e-01 1.00000000000000000e+00 0.00000000000000000e+00
1.25000000000520889e-01 1.00000000000000000e+00 0.00000000000000000e+00
0.00000000000000000e+00 8.74999999999501510e-01 0.00000000000000000e+00
0.00000000000000000e+00 7.50000000000347611e-01 0.00000000000000000e+00
0.00000000000000000e+00 6.25000000001215472e-01 0.00000000000000000e+00
0.00000000000000000e+00 5.00000000002061462e-01 0.00000000000000000e+00
0.00000000000000000e+00 3.75000000001562916e-01 0.00000000000000000e+00
0.00000000000000000e+00 2.50000000001041889e-01 0.00000000000000000e+00
0.00000000000000000e+00 1.25000000000520889e-01 0.00000000000000000e+00
4.37500000001812217e-01 8.91746824527095638e-01 0.00000000000000000e+00
1.21259140952891004e-01 4.31121170368537421e-01 0.00000000000000000e+00
5.62499999998851474e-01 1.08253175473039503e-01 0.00000000000000000e+00
8.89275060824883612e-01 5.64094863106358368e-01 0.00000000000000000e+00
1.08253175472303204e-01 6.87500000000781597e-01 0.00000000000000000e+00
6.90108146438291659e-01 8.92984957391013356e-01 0.00000000000000000e+00
3.12810865984171516e-01 1.04493186086312806e-01 0.00000000000000000e+00
8.81737314898519253e-01 3.30774026077783612e-01 0.00000000000000000e+00
8.90514807813106324e-01 7.96657934402468348e-01 0.00000000000000000e+00
1.88029671160921813e-01 8.94153494367702750e-01 0.00000000000000000e+00
8.12499999999505174e-01 1.08253175473340402e-01 0.00000000000000000e+00
1.20769536763807306e-01 1.86909357624087613e-01 0.00000000000000000e+00
3.12588278528275809e-01 8.92147936167084432e-01 0.00000000000000000e+00
3.77761732123614524e-01 7.85146493173050075e-01 0.00000000000000000e+00
5.00460288688282628e-01 7.83769123074356866e-01 0.00000000000000000e+00
4.40784022503779682e-01 6.77147852117152116e-01 0.00000000000000000e+00
5.64960049482758686e-01 6.76750373078604750e-01 0.00000000000000000e+00
5.00488441496667491e-01 5.67277882976254588e-01 0.00000000000000000e+00
3.86942858075964624e-01 5.67299178710291896e-01 0.00000000000000000e+00
4.43010381749300408e-01 4.56849315521853983e-01 0.00000000000000000e+00
5.63499803875024519e-01 4.58468418929084021e-01 0.00000000000000000e+00
5.01085030938511089e-01 3.50122528694036705e-01 0.00000000000000000e+00
3.79537733935528920e-01 3.48121858207084522e-01 0.00000000000000000e+00
6.25126629909403930e-01 3.50443038869099110e-01 0.00000000000000000e+00
6.87687738964385176e-01 4.58683520636719799e-01 0.00000000000000000e+00
4.37500000002005507e-01 2.42227771691985089e-01 0.00000000000000000e+00
7.50000000000572431e-01 3.50480947164804324e-01 0.00000000000000000e+00
6.86682318420782423e-01 2.47628926648089887e-01 0.00000000000000000e+00
3.14118639598226612e-01 2.49655443280459993e-01 0.00000000000000000e+00
2.44186154844417608e-01 3.57736123820169782e-01 0.00000000000000000e+00
8.12428946722115075e-01 4.55002483119614720e-01 0.00000000000000000e+00
7.50000000000323741e-01 5.66987298110077087e-01 0.00000000000000000e+00
8.22126780630412668e-01 6.76785951948369657e-01 0.00000000000000000e+00
6.98515985701787412e-01 6.82117018006120568e-01 0.00000000000000000e+00
7.62431805836071286e-01 7.86876753311131494e-01 0.00000000000000000e+00
2.35332749799225610e-01 7.70933993893514691e-01 0.00000000000000000e+00
1.08253175473432300e-01 3.12500000001174727e-01 0.00000000000000000e+00
2.22577358804196990e-01 4.73447216413417415e-01 0.00000000000000000e+00
1.37123053804012296e-01 5.61798247183628474e-01 0.00000000000000000e+00
2.18092534522186188e-01 6.54808928226181086e-01 0.00000000000000000e+00
6.28449556684464228e-01 7.85074977038041300e-01 0.00000000000000000e+00
6.87499999999265921e-01 1.08253175473287500e-01 0.00000000000000000e+00
4.37499999999108713e-01 1.08253175472998397e-01 0.00000000000000000e+00
5.63275951406996711e-01 8.92115269154263313e-01 0.00000000000000000e+00
6.27525336586824412e-01 5.68380751956143460e-01 0.00000000000000000e+00
5.62500000001439737e-01 2.42227771692085897e-01 0.00000000000000000e+00
1.04099514221391007e-01 8.12067822096912306e-01 0.00000000000000000e+00
1.91853721181112213e-01 9.29256486735807880e-02 0.00000000000000000e+00
8.96584216942977408e-01 1.93362006839170097e-01 0.00000000000000000e+00
8.08866643874162072e-01 8.97173086442379031e-01 0.00000000000000000e+00
2.07672616014595413e-01 2.56289184422071714e-01 0.00000000000000000e+00
7.98911060560467123e-01 2.50073349535875622e-01 0.00000000000000000e+00
3.26073337940642194e-01 6.77601142606061524e-01 0.00000000000000000e+00
9.15464298762108997e-01 4.37499999998869127e-01 0.00000000000000000e+00
3.28159576778800088e-01 4.57724335811834804e-01 0.00000000000000000e+00
9.22662445475900816e-01 6.87499999999175548e-01 0.00000000000000000e+00
9.15063509464947439e-02 9.08493649053510821e-01 0.00000000000000000e+00
9.08493649053632280e-01 9.08493649053677688e-01 0.00000000000000000e+00
9.15063509464177083e-02 9.15063509466180758e-02 0.00000000000000000e+00
9.08493649053554342e-01 9.15063509462962915e-02 0.00000000000000000e+00
2.69828119987633674e-01 5.65446508158569117e-01 0.00000000000000000e+00
6.24999999998925748e-01 1.75240473581355194e-01 0.00000000000000000e+00
4.99999999999344413e-01 1.75240473581507600e-01 0.00000000000000000e+00
3.75000000002324307e-01 1.75240473583843093e-01 0.00000000000000000e+00
7.39839167563654754e-01 1.75306770786745891e-01 0.00000000000000000e+00
2.51035573393093181e-01 1.74644997384466288e-01 0.00000000000000000e+00


        </DataArray>

      </Points>

      <Cells>

        <DataArray type="Int32" Name="connectivity" format="ascii">

36 67 78 67 36 71 61 33 68 58 39 62 33 61 69 62 39 85 27 28 70 64 40 66 66 37 72 40 64 87 28 33 70 36 27 70 63 35 64 62 35 63 65 48 76 65 66 72 67 41 78 33 69 70 63 65 76 48 65 72 70 69 92 71 70 92 61 68 82 39 58 83 63 64 65 42 80 83 42 83 96 67 71 84 36 70 71 65 64 66 37 66 81 32 44 45 32 22 44 33 29 68 21 22 32 44 41 67 28 29 33 72 37 75 37 20 75 23 41 44 21 32 75 34 8 73 14 15 35 30 43 68 7 8 34 20 21 75 22 23 44 38 6 74 32 45 46 29 30 68 7 34 74 32 46 75 9 42 73 6 7 74 23 24 41 46 72 75 45 44 67 8 9 73 16 17 40 30 31 43 9 10 42 5 6 38 46 45 47 56 63 76 60 54 61 56 62 63 12 13 39 26 27 36 49 47 50 53 51 54 46 48 72 56 58 62 52 55 56 49 50 51 46 47 48 53 54 57 19 20 37 56 55 58 48 47 49 52 51 53 49 51 52 52 53 55 57 54 60 48 49 76 52 56 76 49 52 76 58 55 59 53 57 77 55 53 77 59 55 77 69 61 86 43 79 97 82 43 97 25 26 78 4 5 79 11 12 80 35 62 85 18 19 81 19 37 81 64 35 87 26 36 78 5 38 79 12 39 80 86 50 92 66 40 81 50 47 84 45 67 84 14 35 85 39 13 85 61 54 86 51 50 86 35 15 87 16 40 87 3 25 88 2 18 89 0 4 90 31 0 90 1 11 91 10 1 91 24 3 88 17 2 89 50 84 92 60 61 82 68 43 82 58 59 83 69 86 92 47 45 84 80 39 83 13 14 85 54 51 86 84 71 92 11 80 91 25 78 88 4 79 90 15 16 87 41 24 88 40 17 89 43 31 90 42 10 91 18 81 89 59 93 96 38 74 95 93 77 94 34 73 93 34 93 94 77 57 94 74 34 94 59 77 93 57 60 95 94 57 95 74 94 95 93 73 96 73 42 96 78 41 88 80 42 91 79 43 90 95 60 97 38 95 97 81 40 89 79 38 97 83 59 96 60 82 97 

        </DataArray>

        <DataArray type="Int32" Name="offsets" format="ascii">

3 6 9 12 15 18 21 24 27 30 33 36 39 42 45 48 51 54 57 60 63 66 69 72 75 78 81 84 87 90 93 96 99 102 105 108 111 114 117 120 123 126 129 132 135 138 141 144 147 150 153 156 159 162 165 168 171 174 177 180 183 186 189 192 195 198 201 204 207 210 213 216 219 222 225 228 231 234 237 240 243 246 249 252 255 258 261 264 267 270 273 276 279 282 285 288 291 294 297 300 303 306 309 312 315 318 321 324 327 330 333 336 339 342 345 348 351 354 357 360 363 366 369 372 375 378 381 384 387 390 393 396 399 402 405 408 411 414 417 420 423 426 429 432 435 438 441 444 447 450 453 456 459 462 465 468 471 474 477 480 483 486 

        </DataArray>

        <DataArray type="Int32" Name="types" format="ascii">

5 5 5 5 5 5 5 5 5 5 5 5 5 5 5 5 5 5 5 5 5 5 5 5 5 5 5 5 5 5 5 5 5 5 5 5 5 5 5 5 5 5 5 5 5 5 5 5 5 5 5 5 5 5 5 5 5 5 5 5 5 5 5 5 5 5 5 5 5 5 5 5 5 5 5 5 5 5 5 5 5 5 5 5 5 5 5 5 5 5 5 5 5 5 5 5 5 5 5 5 5 5 5 5 5 5 5 5 5 5 5 5 5 5 5 5 5 5 5 5 5 5 5 5 5 5 5 5 5 5 5 5 5 5 5 5 5 5 5 5 5 5 5 5 5 5 5 5 5 5 5 5 5 5 5 5 5 5 5 5 5 5 

        </DataArray>

      </Cells>

    </Piece>

  </UnstructuredGrid>

</VTKFile>

