<?xml version="1.0"?>

<VTKFile type="UnstructuredGrid" version="0.1">

  <UnstructuredGrid>

    <Piece NumberOfPoints="486" NumberOfCells="162">

      <PointData>

        <DataArray type="Float64" Name="K" format="ascii">

1.01182965839735739e+00
1.01182965839735739e+00
1.01182965839735739e+00
1.01930560237396262e+00
1.01930560237396262e+00
1.01930560237396262e+00
9.39270495084418844e-01
9.39270495084418844e-01
9.39270495084418844e-01
9.10269515769395410e-01
9.10269515769395410e-01
9.10269515769395410e-01
9.45406038469308263e-01
9.45406038469308263e-01
9.45406038469308263e-01
8.89856247761724783e-01
8.89856247761724783e-01
8.89856247761724783e-01
1.04070547700925720e+00
1.04070547700925720e+00
1.04070547700925720e+00
1.12676761915213564e+00
1.12676761915213564e+00
1.12676761915213564e+00
1.14748369198962519e+00
1.14748369198962519e+00
1.14748369198962519e+00
1.10500668482577780e+00
1.10500668482577780e+00
1.10500668482577780e+00
1.01154843537000505e+00
1.01154843537000505e+00
1.01154843537000505e+00
1.04700858249366813e+00
1.04700858249366813e+00
1.04700858249366813e+00
1.00006066867190890e+00
1.00006066867190890e+00
1.00006066867190890e+00
9.33689455482936692e-01
9.33689455482936692e-01
9.33689455482936692e-01
1.07336421625327216e+00
1.07336421625327216e+00
1.07336421625327216e+00
1.12514467258973228e+00
1.12514467258973228e+00
1.12514467258973228e+00
9.62184777116250722e-01
9.62184777116250722e-01
9.62184777116250722e-01
9.88995497158640990e-01
9.88995497158640990e-01
9.88995497158640990e-01
1.02151003261296824e+00
1.02151003261296824e+00
1.02151003261296824e+00
1.11830821316309814e+00
1.11830821316309814e+00
1.11830821316309814e+00
9.97293642924299562e-01
9.97293642924299562e-01
9.97293642924299562e-01
1.01686849524050826e+00
1.01686849524050826e+00
1.01686849524050826e+00
9.18070763773192522e-01
9.18070763773192522e-01
9.18070763773192522e-01
9.55311947689934216e-01
9.55311947689934216e-01
9.55311947689934216e-01
1.03574115839710457e+00
1.03574115839710457e+00
1.03574115839710457e+00
1.06657159838874027e+00
1.06657159838874027e+00
1.06657159838874027e+00
1.07379703718232955e+00
1.07379703718232955e+00
1.07379703718232955e+00
9.85936650891549360e-01
9.85936650891549360e-01
9.85936650891549360e-01
1.04078049022895969e+00
1.04078049022895969e+00
1.04078049022895969e+00
1.09978921838656918e+00
1.09978921838656918e+00
1.09978921838656918e+00
1.14705725323524743e+00
1.14705725323524743e+00
1.14705725323524743e+00
1.00255043840203961e+00
1.00255043840203961e+00
1.00255043840203961e+00
9.82250280710113666e-01
9.82250280710113666e-01
9.82250280710113666e-01
9.86871352551858316e-01
9.86871352551858316e-01
9.86871352551858316e-01
9.86089742146971204e-01
9.86089742146971204e-01
9.86089742146971204e-01
9.44905551902333718e-01
9.44905551902333718e-01
9.44905551902333718e-01
1.01915122446151307e+00
1.01915122446151307e+00
1.01915122446151307e+00
1.13649995874843057e+00
1.13649995874843057e+00
1.13649995874843057e+00
1.11471757327517773e+00
1.11471757327517773e+00
1.11471757327517773e+00
9.29901490128294039e-01
9.29901490128294039e-01
9.29901490128294039e-01
1.03918020923226684e+00
1.03918020923226684e+00
1.03918020923226684e+00
1.16603553871857946e+00
1.16603553871857946e+00
1.16603553871857946e+00
9.76293452386751248e-01
9.76293452386751248e-01
9.76293452386751248e-01
9.85675138886710878e-01
9.85675138886710878e-01
9.85675138886710878e-01
1.17712405173458179e+00
1.17712405173458179e+00
1.17712405173458179e+00
1.05975179330133451e+00
1.05975179330133451e+00
1.05975179330133451e+00
9.50987374995167056e-01
9.50987374995167056e-01
9.50987374995167056e-01
1.04070711913275904e+00
1.04070711913275904e+00
1.04070711913275904e+00
1.05216880712126803e+00
1.05216880712126803e+00
1.05216880712126803e+00
1.00595501288961531e+00
1.00595501288961531e+00
1.00595501288961531e+00
1.15303744970720978e+00
1.15303744970720978e+00
1.15303744970720978e+00
1.08104279142014614e+00
1.08104279142014614e+00
1.08104279142014614e+00
1.13696109770909537e+00
1.13696109770909537e+00
1.13696109770909537e+00
1.10270116938935914e+00
1.10270116938935914e+00
1.10270116938935914e+00
9.08325886961962148e-01
9.08325886961962148e-01
9.08325886961962148e-01
1.12515216500662096e+00
1.12515216500662096e+00
1.12515216500662096e+00
9.69219280064387401e-01
9.69219280064387401e-01
9.69219280064387401e-01
1.16240224528737657e+00
1.16240224528737657e+00
1.16240224528737657e+00
1.06499766857766165e+00
1.06499766857766165e+00
1.06499766857766165e+00
9.97932281654042463e-01
9.97932281654042463e-01
9.97932281654042463e-01
1.13164350124608726e+00
1.13164350124608726e+00
1.13164350124608726e+00
1.00646592236330235e+00
1.00646592236330235e+00
1.00646592236330235e+00
1.04917248746607528e+00
1.04917248746607528e+00
1.04917248746607528e+00
9.66077228427011714e-01
9.66077228427011714e-01
9.66077228427011714e-01
9.15623606022013092e-01
9.15623606022013092e-01
9.15623606022013092e-01
9.24906130416498828e-01
9.24906130416498828e-01
9.24906130416498828e-01
9.06001095658014344e-01
9.06001095658014344e-01
9.06001095658014344e-01
1.05009994670503515e+00
1.05009994670503515e+00
1.05009994670503515e+00
9.69976113489108949e-01
9.69976113489108949e-01
9.69976113489108949e-01
9.22272409337613341e-01
9.22272409337613341e-01
9.22272409337613341e-01
1.12844677493109358e+00
1.12844677493109358e+00
1.12844677493109358e+00
9.12196958860217566e-01
9.12196958860217566e-01
9.12196958860217566e-01
9.22948076329641709e-01
9.22948076329641709e-01
9.22948076329641709e-01
9.26012195657160087e-01
9.26012195657160087e-01
9.26012195657160087e-01
1.08799860945958371e+00
1.08799860945958371e+00
1.08799860945958371e+00
9.65104783738191641e-01
9.65104783738191641e-01
9.65104783738191641e-01
1.11481308951124269e+00
1.11481308951124269e+00
1.11481308951124269e+00
9.21621288220179746e-01
9.21621288220179746e-01
9.21621288220179746e-01
1.04199319293372961e+00
1.04199319293372961e+00
1.04199319293372961e+00
9.13347693800089955e-01
9.13347693800089955e-01
9.13347693800089955e-01
9.29708611021558995e-01
9.29708611021558995e-01
9.29708611021558995e-01
9.19793376699892029e-01
9.19793376699892029e-01
9.19793376699892029e-01
9.58571026660660186e-01
9.58571026660660186e-01
9.58571026660660186e-01
1.04334805197425218e+00
1.04334805197425218e+00
1.04334805197425218e+00
9.56237818257070216e-01
9.56237818257070216e-01
9.56237818257070216e-01
9.78014343826263954e-01
9.78014343826263954e-01
9.78014343826263954e-01
9.47563149425069251e-01
9.47563149425069251e-01
9.47563149425069251e-01
1.00031951960554766e+00
1.00031951960554766e+00
1.00031951960554766e+00
9.55534078006499032e-01
9.55534078006499032e-01
9.55534078006499032e-01
9.72199554543367594e-01
9.72199554543367594e-01
9.72199554543367594e-01
9.33214927533855154e-01
9.33214927533855154e-01
9.33214927533855154e-01
9.56173815809912897e-01
9.56173815809912897e-01
9.56173815809912897e-01
9.33173449698089241e-01
9.33173449698089241e-01
9.33173449698089241e-01
1.02094817265666271e+00
1.02094817265666271e+00
1.02094817265666271e+00
9.91723045498485556e-01
9.91723045498485556e-01
9.91723045498485556e-01
1.00456541730069104e+00
1.00456541730069104e+00
1.00456541730069104e+00
9.08511286619195002e-01
9.08511286619195002e-01
9.08511286619195002e-01
1.06427373874724762e+00
1.06427373874724762e+00
1.06427373874724762e+00
1.12104046530813162e+00
1.12104046530813162e+00
1.12104046530813162e+00
1.04863523312517493e+00
1.04863523312517493e+00
1.04863523312517493e+00
1.03589693131155380e+00
1.03589693131155380e+00
1.03589693131155380e+00
9.79559351822461899e-01
9.79559351822461899e-01
9.79559351822461899e-01
9.58968959223156725e-01
9.58968959223156725e-01
9.58968959223156725e-01
9.35726860650876513e-01
9.35726860650876513e-01
9.35726860650876513e-01
1.13819022472947129e+00
1.13819022472947129e+00
1.13819022472947129e+00
9.62425571980724204e-01
9.62425571980724204e-01
9.62425571980724204e-01
9.73200540453614593e-01
9.73200540453614593e-01
9.73200540453614593e-01
9.27246749108978197e-01
9.27246749108978197e-01
9.27246749108978197e-01
8.87125671081744116e-01
8.87125671081744116e-01
8.87125671081744116e-01
9.17331521425333696e-01
9.17331521425333696e-01
9.17331521425333696e-01
9.11428518883426353e-01
9.11428518883426353e-01
9.11428518883426353e-01
1.02866557643315693e+00
1.02866557643315693e+00
1.02866557643315693e+00
1.08502478012658887e+00
1.08502478012658887e+00
1.08502478012658887e+00
9.79498029392766534e-01
9.79498029392766534e-01
9.79498029392766534e-01
1.01832727027529679e+00
1.01832727027529679e+00
1.01832727027529679e+00
9.99517828882816262e-01
9.99517828882816262e-01
9.99517828882816262e-01
1.00104944698330933e+00
1.00104944698330933e+00
1.00104944698330933e+00
1.08469443285439104e+00
1.08469443285439104e+00
1.08469443285439104e+00
1.10538944751510937e+00
1.10538944751510937e+00
1.10538944751510937e+00
9.38853344490637287e-01
9.38853344490637287e-01
9.38853344490637287e-01
1.03092677293022650e+00
1.03092677293022650e+00
1.03092677293022650e+00
9.52148849706087153e-01
9.52148849706087153e-01
9.52148849706087153e-01
9.03168914028130043e-01
9.03168914028130043e-01
9.03168914028130043e-01
9.46442191558902635e-01
9.46442191558902635e-01
9.46442191558902635e-01
9.78837237664937687e-01
9.78837237664937687e-01
9.78837237664937687e-01
9.55389858537457504e-01
9.55389858537457504e-01
9.55389858537457504e-01
9.91734352240863593e-01
9.91734352240863593e-01
9.91734352240863593e-01
9.89473539340267605e-01
9.89473539340267605e-01
9.89473539340267605e-01
9.01158199689281458e-01
9.01158199689281458e-01
9.01158199689281458e-01
9.12615849670527668e-01
9.12615849670527668e-01
9.12615849670527668e-01
9.84307405723161444e-01
9.84307405723161444e-01
9.84307405723161444e-01
1.06489343880477638e+00
1.06489343880477638e+00
1.06489343880477638e+00
9.85704999289852557e-01
9.85704999289852557e-01
9.85704999289852557e-01
9.94151113524459840e-01
9.94151113524459840e-01
9.94151113524459840e-01
1.04433437563762310e+00
1.04433437563762310e+00
1.04433437563762310e+00
9.18279246667278004e-01
9.18279246667278004e-01
9.18279246667278004e-01
1.07054091518594863e+00
1.07054091518594863e+00
1.07054091518594863e+00
9.95680064375906171e-01
9.95680064375906171e-01
9.95680064375906171e-01
1.12134072527435902e+00
1.12134072527435902e+00
1.12134072527435902e+00
1.06079656388094556e+00
1.06079656388094556e+00
1.06079656388094556e+00
1.04538896846965490e+00
1.04538896846965490e+00
1.04538896846965490e+00
1.02321798161406741e+00
1.02321798161406741e+00
1.02321798161406741e+00
1.07573496737808250e+00
1.07573496737808250e+00
1.07573496737808250e+00
1.12494454572279023e+00
1.12494454572279023e+00
1.12494454572279023e+00
1.12165346689613488e+00
1.12165346689613488e+00
1.12165346689613488e+00
1.05941794679724643e+00
1.05941794679724643e+00
1.05941794679724643e+00
1.13285156226196770e+00
1.13285156226196770e+00
1.13285156226196770e+00
1.02993296869828388e+00
1.02993296869828388e+00
1.02993296869828388e+00
9.84147466531622328e-01
9.84147466531622328e-01
9.84147466531622328e-01
1.05188665251069513e+00
1.05188665251069513e+00
1.05188665251069513e+00
1.07834010749764708e+00
1.07834010749764708e+00
1.07834010749764708e+00
1.09013861470033824e+00
1.09013861470033824e+00
1.09013861470033824e+00
1.10624155452302730e+00
1.10624155452302730e+00
1.10624155452302730e+00
9.51114075953533589e-01
9.51114075953533589e-01
9.51114075953533589e-01
1.09608447425363487e+00
1.09608447425363487e+00
1.09608447425363487e+00
9.84535590208897804e-01
9.84535590208897804e-01
9.84535590208897804e-01
9.41512960169676894e-01
9.41512960169676894e-01
9.41512960169676894e-01
9.60207125914518733e-01
9.60207125914518733e-01
9.60207125914518733e-01
1.10300427725622452e+00
1.10300427725622452e+00
1.10300427725622452e+00
9.53857885133520655e-01
9.53857885133520655e-01
9.53857885133520655e-01
1.02841119417098881e+00
1.02841119417098881e+00
1.02841119417098881e+00
9.12666410828249841e-01
9.12666410828249841e-01
9.12666410828249841e-01


        </DataArray>

      </PointData>

      <CellData/>

      <Points>

        <DataArray type="Float64" NumberOfComponents="3" format="ascii">

0.1082531754723032 0.6875000000007816 0 0.23533274979922561 0.77093399389351469 0 0.10409951422139101 0.81206782209691231 0 0.23533274979922561 0.77093399389351469 0 0.1082531754723032 0.6875000000007816 0 0.21809253452218619 0.65480892822618109 0 0.24418615484441761 0.35773612382016978 0 0.121259140952891 0.43112117036853742 0 0.1082531754734323 0.31250000000117473 0 0.75000000000057243 0.35048094716480432 0 0.88173731489851925 0.33077402607778361 0 0.81242894672211508 0.45500248311961472 0 0.121259140952891 0.43112117036853742 0 0.24418615484441761 0.35773612382016978 0 0.22257735880419699 0.47344721641341742 0 0.81242894672211508 0.45500248311961472 0 0.88173731489851925 0.33077402607778361 0 0.915464298762109 0.43749999999886913 0 0 0.62500000000121547 0 0 0.50000000000206146 0 0.1371230538040123 0.56179824718362847 0 0.82212678063041267 0.67678595194836966 0 0.89051480781310632 0.79665793440246835 0 0.76243180583607129 0.78687675331113149 0 0.76243180583607129 0.78687675331113149 0 0.69010814643829166 0.89298495739101336 0 0.62844955668446423 0.7850749770380413 0 0.89051480781310632 0.79665793440246835 0 0.82212678063041267 0.67678595194836966 0 0.92266244547590082 0.68749999999917555 0 0 0.50000000000206146 0 0.121259140952891 0.43112117036853742 0 0.1371230538040123 0.56179824718362847 0 0.1082531754723032 0.6875000000007816 0 0 0.62500000000121547 0 0.1371230538040123 0.56179824718362847 0 0.75000000000032374 0.56698729811007709 0 0.88927506082488361 0.56409486310635837 0 0.82212678063041267 0.67678595194836966 0 0.81242894672211508 0.45500248311961472 0 0.88927506082488361 0.56409486310635837 0 0.75000000000032374 0.56698729811007709 0 0.69851598570178741 0.68211701800612057 0 0.56496004948275869 0.67675037307860475 0 0.62752533658682441 0.56838075195614346 0 0.69851598570178741 0.68211701800612057 0 0.76243180583607129 0.78687675331113149 0 0.62844955668446423 0.7850749770380413 0 0.23533274979922561 0.77093399389351469 0 0.18802967116092181 0.89415349436770275 0 0.10409951422139101 0.81206782209691231 0 0.121259140952891 0.43112117036853742 0 0.22257735880419699 0.47344721641341742 0 0.1371230538040123 0.56179824718362847 0 0.75000000000032374 0.56698729811007709 0 0.69851598570178741 0.68211701800612057 0 0.62752533658682441 0.56838075195614346 0 0.56496004948275869 0.67675037307860475 0 0.69851598570178741 0.68211701800612057 0 0.62844955668446423 0.7850749770380413 0 0.1371230538040123 0.56179824718362847 0 0.22257735880419699 0.47344721641341742 0 0.26982811998763367 0.56544650815856912 0 0.21809253452218619 0.65480892822618109 0 0.1371230538040123 0.56179824718362847 0 0.26982811998763367 0.56544650815856912 0 0.24418615484441761 0.35773612382016978 0 0.1082531754734323 0.31250000000117473 0 0.20767261601459541 0.25628918442207171 0 0.88173731489851925 0.33077402607778361 0 0.75000000000057243 0.35048094716480432 0 0.79891106056046712 0.25007334953587562 0 0.75000000000032374 0.56698729811007709 0 0.82212678063041267 0.67678595194836966 0 0.69851598570178741 0.68211701800612057 0 0.81249999999950517 0.1082531754733404 0 0.89658421694297741 0.1933620068391701 0 0.79891106056046712 0.25007334953587562 0 0.81249999999950517 0.1082531754733404 0 0.79891106056046712 0.25007334953587562 0 0.73983916756365475 0.17530677078674589 0 0.23533274979922561 0.77093399389351469 0 0.21809253452218619 0.65480892822618109 0 0.32607333794064219 0.67760114260606152 0 0.1082531754723032 0.6875000000007816 0 0.1371230538040123 0.56179824718362847 0 0.21809253452218619 0.65480892822618109 0 0.69851598570178741 0.68211701800612057 0 0.82212678063041267 0.67678595194836966 0 0.76243180583607129 0.78687675331113149 0 0.69010814643829166 0.89298495739101336 0 0.76243180583607129 0.78687675331113149 0 0.80886664387416207 0.89717308644237903 0 0.43750000000181222 0.89174682452709564 0 0.31258827852827581 0.89214793616708443 0 0.37776173212361452 0.78514649317305008 0 0.43750000000181222 0.89174682452709564 0 0.37500000000156292 1 0 0.31258827852827581 0.89214793616708443 0 0.121259140952891 0.43112117036853742 0 0 0.37500000000156292 0 0.1082531754734323 0.31250000000117473 0 0.50000000000206146 1 0 0.37500000000156292 1 0 0.43750000000181222 0.89174682452709564 0 0.31258827852827581 0.89214793616708443 0 0.18802967116092181 0.89415349436770275 0 0.23533274979922561 0.77093399389351469 0 0 0.50000000000206146 0 0 0.37500000000156292 0 0.121259140952891 0.43112117036853742 0 0.62844955668446423 0.7850749770380413 0 0.69010814643829166 0.89298495739101336 0 0.56327595140699671 0.89211526915426331 0 0.69010814643829166 0.89298495739101336 0 0.62500000000121547 1 0 0.56327595140699671 0.89211526915426331 0 0.25000000000104189 1 0 0.18802967116092181 0.89415349436770275 0 0.31258827852827581 0.89214793616708443 0 0.50000000000206146 1 0 0.43750000000181222 0.89174682452709564 0 0.56327595140699671 0.89211526915426331 0 0.56249999999885147 0.1082531754730395 0 0.62499999999901068 0 0 0.68749999999926592 0.1082531754732875 0 1 0.49999999999869221 0 1 0.62499999999901068 0 0.88927506082488361 0.56409486310635837 0 0 0.25000000000104189 0 0.12076953676380731 0.18690935762408761 0 0.1082531754734323 0.31250000000117473 0 0.49999999999869221 0 0 0.62499999999901068 0 0 0.56249999999885147 0.1082531754730395 0 0.62500000000121547 1 0 0.50000000000206146 1 0 0.56327595140699671 0.89211526915426331 0 0.37500000000156292 1 0 0.25000000000104189 1 0 0.31258827852827581 0.89214793616708443 0 0.31281086598417152 0.10449318608631281 0 0.37499999999904599 0 0 0.43749999999910871 0.1082531754729984 0 0.43750000000181222 0.89174682452709564 0 0.37776173212361452 0.78514649317305008 0 0.50046028868828263 0.78376912307435687 0 0 0.37500000000156292 0 0 0.25000000000104189 0 0.1082531754734323 0.31250000000117473 0 0.49999999999869221 0 0 0.56249999999885147 0.1082531754730395 0 0.43749999999910871 0.1082531754729984 0 0.43750000000181222 0.89174682452709564 0 0.50046028868828263 0.78376912307435687 0 0.56327595140699671 0.89211526915426331 0 0.74999999999934042 0 0 0.81249999999950517 0.1082531754733404 0 0.68749999999926592 0.1082531754732875 0 0.37499999999904599 0 0 0.49999999999869221 0 0 0.43749999999910871 0.1082531754729984 0 0.25000000000104189 1 0 0.12500000000052089 1 0 0.18802967116092181 0.89415349436770275 0 0.50046028868828263 0.78376912307435687 0 0.62844955668446423 0.7850749770380413 0 0.56327595140699671 0.89211526915426331 0 0.37776173212361452 0.78514649317305008 0 0.31258827852827581 0.89214793616708443 0 0.23533274979922561 0.77093399389351469 0 0.62499999999901068 0 0 0.74999999999934042 0 0 0.68749999999926592 0.1082531754732875 0 1 0.74999999999934042 0 1 0.87499999999967015 0 0.89051480781310632 0.79665793440246835 0 0 0.25000000000104189 0 0 0.12500000000052089 0 0.12076953676380731 0.18690935762408761 0 0.74999999999934042 0 0 0.87499999999967015 0 0 0.81249999999950517 0.1082531754733404 0 0.24999999999941069 0 0 0.37499999999904599 0 0 0.31281086598417152 0.10449318608631281 0 0.50046028868828263 0.78376912307435687 0 0.37776173212361452 0.78514649317305008 0 0.44078402250377968 0.67714785211715212 0 0.68768773896438518 0.4586835206367198 0 0.75000000000032374 0.56698729811007709 0 0.62752533658682441 0.56838075195614346 0 0.31411863959822661 0.24965544328045999 0 0.37953773393552892 0.34812185820708452 0 0.24418615484441761 0.35773612382016978 0 0.68768773896438518 0.4586835206367198 0 0.81242894672211508 0.45500248311961472 0 0.75000000000032374 0.56698729811007709 0 1 0.24999999999941069 0 1 0.37499999999904599 0 0.88173731489851925 0.33077402607778361 0 0 0.75000000000034761 0 0 0.62500000000121547 0 0.1082531754723032 0.6875000000007816 0 0.50048844149666749 0.56727788297625459 0 0.44078402250377968 0.67714785211715212 0 0.38694285807596462 0.5672991787102919 0 0.50108503093851109 0.35012252869403671 0 0.44301038174930041 0.45684931552185398 0 0.37953773393552892 0.34812185820708452 0 0.50046028868828263 0.78376912307435687 0 0.56496004948275869 0.67675037307860475 0 0.62844955668446423 0.7850749770380413 0 0.68768773896438518 0.4586835206367198 0 0.75000000000057243 0.35048094716480432 0 0.81242894672211508 0.45500248311961472 0 0.56349980387502452 0.45846841892908402 0 0.62512662990940393 0.35044303886909911 0 0.68768773896438518 0.4586835206367198 0 0.50048844149666749 0.56727788297625459 0 0.38694285807596462 0.5672991787102919 0 0.44301038174930041 0.45684931552185398 0 0.50046028868828263 0.78376912307435687 0 0.44078402250377968 0.67714785211715212 0 0.56496004948275869 0.67675037307860475 0 0.50108503093851109 0.35012252869403671 0 0.37953773393552892 0.34812185820708452 0 0.43750000000200551 0.24222777169198509 0 0.75000000000034761 1 0 0.62500000000121547 1 0 0.69010814643829166 0.89298495739101336 0 0.68768773896438518 0.4586835206367198 0 0.62512662990940393 0.35044303886909911 0 0.75000000000057243 0.35048094716480432 0 0.56496004948275869 0.67675037307860475 0 0.44078402250377968 0.67714785211715212 0 0.50048844149666749 0.56727788297625459 0 0.56349980387502452 0.45846841892908402 0 0.44301038174930041 0.45684931552185398 0 0.50108503093851109 0.35012252869403671 0 0.50048844149666749 0.56727788297625459 0 0.44301038174930041 0.45684931552185398 0 0.56349980387502452 0.45846841892908402 0 0.56349980387502452 0.45846841892908402 0 0.50108503093851109 0.35012252869403671 0 0.62512662990940393 0.35044303886909911 0 0.43750000000200551 0.24222777169198509 0 0.37953773393552892 0.34812185820708452 0 0.31411863959822661 0.24965544328045999 0 0.56496004948275869 0.67675037307860475 0 0.50048844149666749 0.56727788297625459 0 0.62752533658682441 0.56838075195614346 0 0.56349980387502452 0.45846841892908402 0 0.68768773896438518 0.4586835206367198 0 0.62752533658682441 0.56838075195614346 0 0.50048844149666749 0.56727788297625459 0 0.56349980387502452 0.45846841892908402 0 0.62752533658682441 0.56838075195614346 0 0.75000000000057243 0.35048094716480432 0 0.62512662990940393 0.35044303886909911 0 0.68668231842078242 0.24762892664808989 0 0.50108503093851109 0.35012252869403671 0 0.43750000000200551 0.24222777169198509 0 0.56250000000143974 0.2422277716920859 0 0.62512662990940393 0.35044303886909911 0 0.50108503093851109 0.35012252869403671 0 0.56250000000143974 0.2422277716920859 0 0.68668231842078242 0.24762892664808989 0 0.62512662990940393 0.35044303886909911 0 0.56250000000143974 0.2422277716920859 0 0.22257735880419699 0.47344721641341742 0 0.24418615484441761 0.35773612382016978 0 0.32815957677880009 0.4577243358118348 0 0.12076953676380731 0.18690935762408761 0 0.19185372118111221 0.092925648673580788 0 0.25103557339309318 0.17464499738446629 0 0.20767261601459541 0.25628918442207171 0 0.12076953676380731 0.18690935762408761 0 0.25103557339309318 0.17464499738446629 0 0 0.87499999999950151 0 0 0.75000000000034761 0 0.10409951422139101 0.81206782209691231 0 0.1249999999997731 0 0 0.24999999999941069 0 0 0.19185372118111221 0.092925648673580788 0 1 0.1249999999997731 0 1 0.24999999999941069 0 0.89658421694297741 0.1933620068391701 0 0.88927506082488361 0.56409486310635837 0 0.81242894672211508 0.45500248311961472 0 0.915464298762109 0.43749999999886913 0 0.87499999999950151 1 0 0.75000000000034761 1 0 0.80886664387416207 0.89717308644237903 0 0.75000000000034761 1 0 0.69010814643829166 0.89298495739101336 0 0.80886664387416207 0.89717308644237903 0 0.82212678063041267 0.67678595194836966 0 0.88927506082488361 0.56409486310635837 0 0.92266244547590082 0.68749999999917555 0 0 0.75000000000034761 0 0.1082531754723032 0.6875000000007816 0 0.10409951422139101 0.81206782209691231 0 0.24999999999941069 0 0 0.31281086598417152 0.10449318608631281 0 0.19185372118111221 0.092925648673580788 0 1 0.24999999999941069 0 0.88173731489851925 0.33077402607778361 0 0.89658421694297741 0.1933620068391701 0 0.32815957677880009 0.4577243358118348 0 0.38694285807596462 0.5672991787102919 0 0.26982811998763367 0.56544650815856912 0 0.76243180583607129 0.78687675331113149 0 0.89051480781310632 0.79665793440246835 0 0.80886664387416207 0.89717308644237903 0 0.38694285807596462 0.5672991787102919 0 0.44078402250377968 0.67714785211715212 0 0.32607333794064219 0.67760114260606152 0 0.37776173212361452 0.78514649317305008 0 0.23533274979922561 0.77093399389351469 0 0.32607333794064219 0.67760114260606152 0 1 0.49999999999869221 0 0.88927506082488361 0.56409486310635837 0 0.915464298762109 0.43749999999886913 0 0.88173731489851925 0.33077402607778361 0 1 0.37499999999904599 0 0.915464298762109 0.43749999999886913 0 0.24418615484441761 0.35773612382016978 0 0.37953773393552892 0.34812185820708452 0 0.32815957677880009 0.4577243358118348 0 0.44301038174930041 0.45684931552185398 0 0.38694285807596462 0.5672991787102919 0 0.32815957677880009 0.4577243358118348 0 0.88927506082488361 0.56409486310635837 0 1 0.62499999999901068 0 0.92266244547590082 0.68749999999917555 0 1 0.74999999999934042 0 0.89051480781310632 0.79665793440246835 0 0.92266244547590082 0.68749999999917555 0 0 1 0 0 0.87499999999950151 0 0.091506350946494744 0.90849364905351082 0 1 1 0 0.87499999999950151 1 0 0.90849364905363228 0.90849364905367769 0 0 0 0 0.1249999999997731 0 0 0.091506350946417708 0.091506350946618076 0 0 0.12500000000052089 0 0 0 0 0.091506350946417708 0.091506350946618076 0 1 0 0 1 0.1249999999997731 0 0.90849364905355434 0.091506350946296292 0 0.87499999999967015 0 0 1 0 0 0.90849364905355434 0.091506350946296292 0 0.12500000000052089 1 0 0 1 0 0.091506350946494744 0.90849364905351082 0 1 0.87499999999967015 0 1 1 0 0.90849364905363228 0.90849364905367769 0 0.38694285807596462 0.5672991787102919 0 0.32607333794064219 0.67760114260606152 0 0.26982811998763367 0.56544650815856912 0 0.31411863959822661 0.24965544328045999 0 0.24418615484441761 0.35773612382016978 0 0.20767261601459541 0.25628918442207171 0 0.1082531754734323 0.31250000000117473 0 0.12076953676380731 0.18690935762408761 0 0.20767261601459541 0.25628918442207171 0 0.75000000000057243 0.35048094716480432 0 0.68668231842078242 0.24762892664808989 0 0.79891106056046712 0.25007334953587562 0 0.22257735880419699 0.47344721641341742 0 0.32815957677880009 0.4577243358118348 0 0.26982811998763367 0.56544650815856912 0 0.44078402250377968 0.67714785211715212 0 0.37776173212361452 0.78514649317305008 0 0.32607333794064219 0.67760114260606152 0 0.89658421694297741 0.1933620068391701 0 0.88173731489851925 0.33077402607778361 0 0.79891106056046712 0.25007334953587562 0 1 0.37499999999904599 0 1 0.49999999999869221 0 0.915464298762109 0.43749999999886913 0 0.37953773393552892 0.34812185820708452 0 0.44301038174930041 0.45684931552185398 0 0.32815957677880009 0.4577243358118348 0 0.32607333794064219 0.67760114260606152 0 0.21809253452218619 0.65480892822618109 0 0.26982811998763367 0.56544650815856912 0 1 0.1249999999997731 0 0.89658421694297741 0.1933620068391701 0 0.90849364905355434 0.091506350946296292 0 0 0.87499999999950151 0 0.10409951422139101 0.81206782209691231 0 0.091506350946494744 0.90849364905351082 0 0.1249999999997731 0 0 0.19185372118111221 0.092925648673580788 0 0.091506350946417708 0.091506350946618076 0 1 0.62499999999901068 0 1 0.74999999999934042 0 0.92266244547590082 0.68749999999917555 0 0.18802967116092181 0.89415349436770275 0 0.12500000000052089 1 0 0.091506350946494744 0.90849364905351082 0 0.89051480781310632 0.79665793440246835 0 1 0.87499999999967015 0 0.90849364905363228 0.90849364905367769 0 0.12076953676380731 0.18690935762408761 0 0 0.12500000000052089 0 0.091506350946417708 0.091506350946618076 0 0.81249999999950517 0.1082531754733404 0 0.87499999999967015 0 0 0.90849364905355434 0.091506350946296292 0 0.87499999999950151 1 0 0.80886664387416207 0.89717308644237903 0 0.90849364905363228 0.90849364905367769 0 0.68668231842078242 0.24762892664808989 0 0.62499999999892575 0.17524047358135519 0 0.73983916756365475 0.17530677078674589 0 0.31281086598417152 0.10449318608631281 0 0.43749999999910871 0.1082531754729984 0 0.37500000000232431 0.17524047358384309 0 0.62499999999892575 0.17524047358135519 0 0.56250000000143974 0.2422277716920859 0 0.49999999999934441 0.1752404735815076 0 0.56249999999885147 0.1082531754730395 0 0.68749999999926592 0.1082531754732875 0 0.62499999999892575 0.17524047358135519 0 0.56249999999885147 0.1082531754730395 0 0.62499999999892575 0.17524047358135519 0 0.49999999999934441 0.1752404735815076 0 0.56250000000143974 0.2422277716920859 0 0.43750000000200551 0.24222777169198509 0 0.49999999999934441 0.1752404735815076 0 0.43749999999910871 0.1082531754729984 0 0.56249999999885147 0.1082531754730395 0 0.49999999999934441 0.1752404735815076 0 0.68668231842078242 0.24762892664808989 0 0.56250000000143974 0.2422277716920859 0 0.62499999999892575 0.17524047358135519 0 0.43750000000200551 0.24222777169198509 0 0.31411863959822661 0.24965544328045999 0 0.37500000000232431 0.17524047358384309 0 0.49999999999934441 0.1752404735815076 0 0.43750000000200551 0.24222777169198509 0 0.37500000000232431 0.17524047358384309 0 0.43749999999910871 0.1082531754729984 0 0.49999999999934441 0.1752404735815076 0 0.37500000000232431 0.17524047358384309 0 0.62499999999892575 0.17524047358135519 0 0.68749999999926592 0.1082531754732875 0 0.73983916756365475 0.17530677078674589 0 0.68749999999926592 0.1082531754732875 0 0.81249999999950517 0.1082531754733404 0 0.73983916756365475 0.17530677078674589 0 0.10409951422139101 0.81206782209691231 0 0.18802967116092181 0.89415349436770275 0 0.091506350946494744 0.90849364905351082 0 0.89658421694297741 0.1933620068391701 0 0.81249999999950517 0.1082531754733404 0 0.90849364905355434 0.091506350946296292 0 0.19185372118111221 0.092925648673580788 0 0.12076953676380731 0.18690935762408761 0 0.091506350946417708 0.091506350946618076 0 0.37500000000232431 0.17524047358384309 0 0.31411863959822661 0.24965544328045999 0 0.25103557339309318 0.17464499738446629 0 0.31281086598417152 0.10449318608631281 0 0.37500000000232431 0.17524047358384309 0 0.25103557339309318 0.17464499738446629 0 0.80886664387416207 0.89717308644237903 0 0.89051480781310632 0.79665793440246835 0 0.90849364905363228 0.90849364905367769 0 0.19185372118111221 0.092925648673580788 0 0.31281086598417152 0.10449318608631281 0 0.25103557339309318 0.17464499738446629 0 0.79891106056046712 0.25007334953587562 0 0.68668231842078242 0.24762892664808989 0 0.73983916756365475 0.17530677078674589 0 0.31411863959822661 0.24965544328045999 0 0.20767261601459541 0.25628918442207171 0 0.25103557339309318 0.17464499738446629 0 

        </DataArray>

      </Points>

      <Cells>

        <DataArray type="Int32" Name="connectivity" format="ascii">

0 1 2 3 4 5 6 7 8 9 10 11 12 13 14 15 16 17 18 19 20 21 22 23 24 25 26 27 28 29 30 31 32 33 34 35 36 37 38 39 40 41 42 43 44 45 46 47 48 49 50 51 52 53 54 55 56 57 58 59 60 61 62 63 64 65 66 67 68 69 70 71 72 73 74 75 76 77 78 79 80 81 82 83 84 85 86 87 88 89 90 91 92 93 94 95 96 97 98 99 100 101 102 103 104 105 106 107 108 109 110 111 112 113 114 115 116 117 118 119 120 121 122 123 124 125 126 127 128 129 130 131 132 133 134 135 136 137 138 139 140 141 142 143 144 145 146 147 148 149 150 151 152 153 154 155 156 157 158 159 160 161 162 163 164 165 166 167 168 169 170 171 172 173 174 175 176 177 178 179 180 181 182 183 184 185 186 187 188 189 190 191 192 193 194 195 196 197 198 199 200 201 202 203 204 205 206 207 208 209 210 211 212 213 214 215 216 217 218 219 220 221 222 223 224 225 226 227 228 229 230 231 232 233 234 235 236 237 238 239 240 241 242 243 244 245 246 247 248 249 250 251 252 253 254 255 256 257 258 259 260 261 262 263 264 265 266 267 268 269 270 271 272 273 274 275 276 277 278 279 280 281 282 283 284 285 286 287 288 289 290 291 292 293 294 295 296 297 298 299 300 301 302 303 304 305 306 307 308 309 310 311 312 313 314 315 316 317 318 319 320 321 322 323 324 325 326 327 328 329 330 331 332 333 334 335 336 337 338 339 340 341 342 343 344 345 346 347 348 349 350 351 352 353 354 355 356 357 358 359 360 361 362 363 364 365 366 367 368 369 370 371 372 373 374 375 376 377 378 379 380 381 382 383 384 385 386 387 388 389 390 391 392 393 394 395 396 397 398 399 400 401 402 403 404 405 406 407 408 409 410 411 412 413 414 415 416 417 418 419 420 421 422 423 424 425 426 427 428 429 430 431 432 433 434 435 436 437 438 439 440 441 442 443 444 445 446 447 448 449 450 451 452 453 454 455 456 457 458 459 460 461 462 463 464 465 466 467 468 469 470 471 472 473 474 475 476 477 478 479 480 481 482 483 484 485 

        </DataArray>

        <DataArray type="Int32" Name="offsets" format="ascii">

3 6 9 12 15 18 21 24 27 30 33 36 39 42 45 48 51 54 57 60 63 66 69 72 75 78 81 84 87 90 93 96 99 102 105 108 111 114 117 120 123 126 129 132 135 138 141 144 147 150 153 156 159 162 165 168 171 174 177 180 183 186 189 192 195 198 201 204 207 210 213 216 219 222 225 228 231 234 237 240 243 246 249 252 255 258 261 264 267 270 273 276 279 282 285 288 291 294 297 300 303 306 309 312 315 318 321 324 327 330 333 336 339 342 345 348 351 354 357 360 363 366 369 372 375 378 381 384 387 390 393 396 399 402 405 408 411 414 417 420 423 426 429 432 435 438 441 444 447 450 453 456 459 462 465 468 471 474 477 480 483 486 

        </DataArray>

        <DataArray type="Int32" Name="types" format="ascii">

5 5 5 5 5 5 5 5 5 5 5 5 5 5 5 5 5 5 5 5 5 5 5 5 5 5 5 5 5 5 5 5 5 5 5 5 5 5 5 5 5 5 5 5 5 5 5 5 5 5 5 5 5 5 5 5 5 5 5 5 5 5 5 5 5 5 5 5 5 5 5 5 5 5 5 5 5 5 5 5 5 5 5 5 5 5 5 5 5 5 5 5 5 5 5 5 5 5 5 5 5 5 5 5 5 5 5 5 5 5 5 5 5 5 5 5 5 5 5 5 5 5 5 5 5 5 5 5 5 5 5 5 5 5 5 5 5 5 5 5 5 5 5 5 5 5 5 5 5 5 5 5 5 5 5 5 5 5 5 5 5 5 

        </DataArray>

      </Cells>

    </Piece>

  </UnstructuredGrid>

</VTKFile>

