<?xml version="1.0"?>

<VTKFile type="UnstructuredGrid" version="0.1">

  <UnstructuredGrid>

    <Piece NumberOfPoints="486" NumberOfCells="162">

      <PointData>

        <DataArray type="Float64" Name="K" format="ascii">

9.59847379874614104e-01
9.59847379874614104e-01
9.59847379874614104e-01
9.55445125445251287e-01
9.55445125445251287e-01
9.55445125445251287e-01
1.03780370111404885e+00
1.03780370111404885e+00
1.03780370111404885e+00
1.05269291853032487e+00
1.05269291853032487e+00
1.05269291853032487e+00
1.00625919443280742e+00
1.00625919443280742e+00
1.00625919443280742e+00
1.07432492878511576e+00
1.07432492878511576e+00
1.07432492878511576e+00
9.89313249261513872e-01
9.89313249261513872e-01
9.89313249261513872e-01
9.89812588387940173e-01
9.89812588387940173e-01
9.89812588387940173e-01
1.01097114016930867e+00
1.01097114016930867e+00
1.01097114016930867e+00
1.00209864401442150e+00
1.00209864401442150e+00
1.00209864401442150e+00
1.00033841873436780e+00
1.00033841873436780e+00
1.00033841873436780e+00
9.62634287507384667e-01
9.62634287507384667e-01
9.62634287507384667e-01
1.05085127935534639e+00
1.05085127935534639e+00
1.05085127935534639e+00
1.06894748350853019e+00
1.06894748350853019e+00
1.06894748350853019e+00
1.03836914072146702e+00
1.03836914072146702e+00
1.03836914072146702e+00
1.02116310172388425e+00
1.02116310172388425e+00
1.02116310172388425e+00
9.81979048434749591e-01
9.81979048434749591e-01
9.81979048434749591e-01
9.89088101036029732e-01
9.89088101036029732e-01
9.89088101036029732e-01
1.03472136890798683e+00
1.03472136890798683e+00
1.03472136890798683e+00
1.04364194716059910e+00
1.04364194716059910e+00
1.04364194716059910e+00
9.56497462902016427e-01
9.56497462902016427e-01
9.56497462902016427e-01
9.46186735136389734e-01
9.46186735136389734e-01
9.46186735136389734e-01
1.04536285785236016e+00
1.04536285785236016e+00
1.04536285785236016e+00
1.02623906990914904e+00
1.02623906990914904e+00
1.02623906990914904e+00
1.03195734820693219e+00
1.03195734820693219e+00
1.03195734820693219e+00
9.79267720762772020e-01
9.79267720762772020e-01
9.79267720762772020e-01
9.84372465688073017e-01
9.84372465688073017e-01
9.84372465688073017e-01
9.55613289319252268e-01
9.55613289319252268e-01
9.55613289319252268e-01
9.50643560921172415e-01
9.50643560921172415e-01
9.50643560921172415e-01
1.00998310333876162e+00
1.00998310333876162e+00
1.00998310333876162e+00
9.74431527297017541e-01
9.74431527297017541e-01
9.74431527297017541e-01
1.00307904109149648e+00
1.00307904109149648e+00
1.00307904109149648e+00
1.01545771571657095e+00
1.01545771571657095e+00
1.01545771571657095e+00
1.03406023010683445e+00
1.03406023010683445e+00
1.03406023010683445e+00
1.01648289338951758e+00
1.01648289338951758e+00
1.01648289338951758e+00
1.00514743178405985e+00
1.00514743178405985e+00
1.00514743178405985e+00
1.02101936509298885e+00
1.02101936509298885e+00
1.02101936509298885e+00
1.03884576909068804e+00
1.03884576909068804e+00
1.03884576909068804e+00
1.02959739351380386e+00
1.02959739351380386e+00
1.02959739351380386e+00
1.01762087087476716e+00
1.01762087087476716e+00
1.01762087087476716e+00
1.02958324769314591e+00
1.02958324769314591e+00
1.02958324769314591e+00
1.00864278748173630e+00
1.00864278748173630e+00
1.00864278748173630e+00
1.04022099808708890e+00
1.04022099808708890e+00
1.04022099808708890e+00
1.02481200202484790e+00
1.02481200202484790e+00
1.02481200202484790e+00
1.02738106568340504e+00
1.02738106568340504e+00
1.02738106568340504e+00
1.03285394225287930e+00
1.03285394225287930e+00
1.03285394225287930e+00
1.02275705817148377e+00
1.02275705817148377e+00
1.02275705817148377e+00
1.04725702232733076e+00
1.04725702232733076e+00
1.04725702232733076e+00
1.00472305766706027e+00
1.00472305766706027e+00
1.00472305766706027e+00
1.02176791588757898e+00
1.02176791588757898e+00
1.02176791588757898e+00
1.05855129651550195e+00
1.05855129651550195e+00
1.05855129651550195e+00
1.03161275893346249e+00
1.03161275893346249e+00
1.03161275893346249e+00
9.89301491235970221e-01
9.89301491235970221e-01
9.89301491235970221e-01
1.05704209574438202e+00
1.05704209574438202e+00
1.05704209574438202e+00
9.99932759543422645e-01
9.99932759543422645e-01
9.99932759543422645e-01
1.04840194981570667e+00
1.04840194981570667e+00
1.04840194981570667e+00
9.94964908750833765e-01
9.94964908750833765e-01
9.94964908750833765e-01
9.99320791382026452e-01
9.99320791382026452e-01
9.99320791382026452e-01
9.73936114340297143e-01
9.73936114340297143e-01
9.73936114340297143e-01
9.87897322113055254e-01
9.87897322113055254e-01
9.87897322113055254e-01
9.76248030817521317e-01
9.76248030817521317e-01
9.76248030817521317e-01
9.96946840373918675e-01
9.96946840373918675e-01
9.96946840373918675e-01
9.88530524541399447e-01
9.88530524541399447e-01
9.88530524541399447e-01
1.03000414506054838e+00
1.03000414506054838e+00
1.03000414506054838e+00
1.01109663961181218e+00
1.01109663961181218e+00
1.01109663961181218e+00
1.04507534469494701e+00
1.04507534469494701e+00
1.04507534469494701e+00
1.03094943668301964e+00
1.03094943668301964e+00
1.03094943668301964e+00
9.69809772067854792e-01
9.69809772067854792e-01
9.69809772067854792e-01
9.63118525524659486e-01
9.63118525524659486e-01
9.63118525524659486e-01
1.00465459340419350e+00
1.00465459340419350e+00
1.00465459340419350e+00
1.04450008292726371e+00
1.04450008292726371e+00
1.04450008292726371e+00
1.03498690155361017e+00
1.03498690155361017e+00
1.03498690155361017e+00
1.01204874857882077e+00
1.01204874857882077e+00
1.01204874857882077e+00
9.65103650145279768e-01
9.65103650145279768e-01
9.65103650145279768e-01
1.01359582513185842e+00
1.01359582513185842e+00
1.01359582513185842e+00
1.03354744341668758e+00
1.03354744341668758e+00
1.03354744341668758e+00
9.96829074302132412e-01
9.96829074302132412e-01
9.96829074302132412e-01
1.00886450064381372e+00
1.00886450064381372e+00
1.00886450064381372e+00
1.00180190788260148e+00
1.00180190788260148e+00
1.00180190788260148e+00
1.01203723055043038e+00
1.01203723055043038e+00
1.01203723055043038e+00
9.99275732015135087e-01
9.99275732015135087e-01
9.99275732015135087e-01
1.02032785662213521e+00
1.02032785662213521e+00
1.02032785662213521e+00
1.03284278478379843e+00
1.03284278478379843e+00
1.03284278478379843e+00
1.02433984570502679e+00
1.02433984570502679e+00
1.02433984570502679e+00
1.01917308718213873e+00
1.01917308718213873e+00
1.01917308718213873e+00
1.01684410903652034e+00
1.01684410903652034e+00
1.01684410903652034e+00
9.99310417499686188e-01
9.99310417499686188e-01
9.99310417499686188e-01
1.04933738580796354e+00
1.04933738580796354e+00
1.04933738580796354e+00
1.02856511297317521e+00
1.02856511297317521e+00
1.02856511297317521e+00
1.00859868535450747e+00
1.00859868535450747e+00
1.00859868535450747e+00
9.72353930151897083e-01
9.72353930151897083e-01
9.72353930151897083e-01
1.01519239165791197e+00
1.01519239165791197e+00
1.01519239165791197e+00
1.03720829834293582e+00
1.03720829834293582e+00
1.03720829834293582e+00
9.69318164744980559e-01
9.69318164744980559e-01
9.69318164744980559e-01
9.47681189449901096e-01
9.47681189449901096e-01
9.47681189449901096e-01
9.60737097653886041e-01
9.60737097653886041e-01
9.60737097653886041e-01
1.08216840509945733e+00
1.08216840509945733e+00
1.08216840509945733e+00
9.55896600951205655e-01
9.55896600951205655e-01
9.55896600951205655e-01
9.68607272267651309e-01
9.68607272267651309e-01
9.68607272267651309e-01
1.03516852194482589e+00
1.03516852194482589e+00
1.03516852194482589e+00
9.56301180937330408e-01
9.56301180937330408e-01
9.56301180937330408e-01
9.82198978261537681e-01
9.82198978261537681e-01
9.82198978261537681e-01
1.00257780288775677e+00
1.00257780288775677e+00
1.00257780288775677e+00
9.27081935414930669e-01
9.27081935414930669e-01
9.27081935414930669e-01
9.67721808604362188e-01
9.67721808604362188e-01
9.67721808604362188e-01
9.41393192075081653e-01
9.41393192075081653e-01
9.41393192075081653e-01
9.68026864722958069e-01
9.68026864722958069e-01
9.68026864722958069e-01
1.06843852869137046e+00
1.06843852869137046e+00
1.06843852869137046e+00
1.06109069646446841e+00
1.06109069646446841e+00
1.06109069646446841e+00
9.77611437676705997e-01
9.77611437676705997e-01
9.77611437676705997e-01
9.44423472461906721e-01
9.44423472461906721e-01
9.44423472461906721e-01
1.02828031041707524e+00
1.02828031041707524e+00
1.02828031041707524e+00
9.87577794949359378e-01
9.87577794949359378e-01
9.87577794949359378e-01
9.77566934831312073e-01
9.77566934831312073e-01
9.77566934831312073e-01
9.79391757279810982e-01
9.79391757279810982e-01
9.79391757279810982e-01
9.42136636496215041e-01
9.42136636496215041e-01
9.42136636496215041e-01
9.45066810565514337e-01
9.45066810565514337e-01
9.45066810565514337e-01
9.20066816877900484e-01
9.20066816877900484e-01
9.20066816877900484e-01
9.25043571188903679e-01
9.25043571188903679e-01
9.25043571188903679e-01
9.74532139431706468e-01
9.74532139431706468e-01
9.74532139431706468e-01
9.80897111901871344e-01
9.80897111901871344e-01
9.80897111901871344e-01
9.26602065541347719e-01
9.26602065541347719e-01
9.26602065541347719e-01
1.03217096331708214e+00
1.03217096331708214e+00
1.03217096331708214e+00
1.04523861323268030e+00
1.04523861323268030e+00
1.04523861323268030e+00
1.00117117550293067e+00
1.00117117550293067e+00
1.00117117550293067e+00
9.43095201116526893e-01
9.43095201116526893e-01
9.43095201116526893e-01
9.59580554384199091e-01
9.59580554384199091e-01
9.59580554384199091e-01
1.00853796388076922e+00
1.00853796388076922e+00
1.00853796388076922e+00
1.05881795825072955e+00
1.05881795825072955e+00
1.05881795825072955e+00
9.68644739529520793e-01
9.68644739529520793e-01
9.68644739529520793e-01
9.36517735511462224e-01
9.36517735511462224e-01
9.36517735511462224e-01
9.38958318256137625e-01
9.38958318256137625e-01
9.38958318256137625e-01
9.67688473673163463e-01
9.67688473673163463e-01
9.67688473673163463e-01
9.59669944717045809e-01
9.59669944717045809e-01
9.59669944717045809e-01
9.91827889920858241e-01
9.91827889920858241e-01
9.91827889920858241e-01
9.82790757643233870e-01
9.82790757643233870e-01
9.82790757643233870e-01
9.74312451619889774e-01
9.74312451619889774e-01
9.74312451619889774e-01
9.79179940232037693e-01
9.79179940232037693e-01
9.79179940232037693e-01
9.49505373944556030e-01
9.49505373944556030e-01
9.49505373944556030e-01
9.61870037106945741e-01
9.61870037106945741e-01
9.61870037106945741e-01
9.92715164082596857e-01
9.92715164082596857e-01
9.92715164082596857e-01
1.05896078957056639e+00
1.05896078957056639e+00
1.05896078957056639e+00
1.03889457103317984e+00
1.03889457103317984e+00
1.03889457103317984e+00
1.00989332560276246e+00
1.00989332560276246e+00
1.00989332560276246e+00
1.03913589749383650e+00
1.03913589749383650e+00
1.03913589749383650e+00
1.06082054535041159e+00
1.06082054535041159e+00
1.06082054535041159e+00
1.06539199420244390e+00
1.06539199420244390e+00
1.06539199420244390e+00
1.00947465308445250e+00
1.00947465308445250e+00
1.00947465308445250e+00
1.05189243669607646e+00
1.05189243669607646e+00
1.05189243669607646e+00
1.06912687715772514e+00
1.06912687715772514e+00
1.06912687715772514e+00
1.07380791260066810e+00
1.07380791260066810e+00
1.07380791260066810e+00
9.93183557525943006e-01
9.93183557525943006e-01
9.93183557525943006e-01
9.85854018446703728e-01
9.85854018446703728e-01
9.85854018446703728e-01
9.75361987251597728e-01
9.75361987251597728e-01
9.75361987251597728e-01
9.54358548707440302e-01
9.54358548707440302e-01
9.54358548707440302e-01
9.92247115654914635e-01
9.92247115654914635e-01
9.92247115654914635e-01
1.04186654644484289e+00
1.04186654644484289e+00
1.04186654644484289e+00
1.03852341683731852e+00
1.03852341683731852e+00
1.03852341683731852e+00
9.65309024880592448e-01
9.65309024880592448e-01
9.65309024880592448e-01
1.01217150637058806e+00
1.01217150637058806e+00
1.01217150637058806e+00
9.90919138626132567e-01
9.90919138626132567e-01
9.90919138626132567e-01
1.03839195643188109e+00
1.03839195643188109e+00
1.03839195643188109e+00


        </DataArray>

      </PointData>

      <CellData/>

      <Points>

        <DataArray type="Float64" NumberOfComponents="3" format="ascii">

0.1082531754723032 0.6875000000007816 0 0.23533274979922561 0.77093399389351469 0 0.10409951422139101 0.81206782209691231 0 0.23533274979922561 0.77093399389351469 0 0.1082531754723032 0.6875000000007816 0 0.21809253452218619 0.65480892822618109 0 0.24418615484441761 0.35773612382016978 0 0.121259140952891 0.43112117036853742 0 0.1082531754734323 0.31250000000117473 0 0.75000000000057243 0.35048094716480432 0 0.88173731489851925 0.33077402607778361 0 0.81242894672211508 0.45500248311961472 0 0.121259140952891 0.43112117036853742 0 0.24418615484441761 0.35773612382016978 0 0.22257735880419699 0.47344721641341742 0 0.81242894672211508 0.45500248311961472 0 0.88173731489851925 0.33077402607778361 0 0.915464298762109 0.43749999999886913 0 0 0.62500000000121547 0 0 0.50000000000206146 0 0.1371230538040123 0.56179824718362847 0 0.82212678063041267 0.67678595194836966 0 0.89051480781310632 0.79665793440246835 0 0.76243180583607129 0.78687675331113149 0 0.76243180583607129 0.78687675331113149 0 0.69010814643829166 0.89298495739101336 0 0.62844955668446423 0.7850749770380413 0 0.89051480781310632 0.79665793440246835 0 0.82212678063041267 0.67678595194836966 0 0.92266244547590082 0.68749999999917555 0 0 0.50000000000206146 0 0.121259140952891 0.43112117036853742 0 0.1371230538040123 0.56179824718362847 0 0.1082531754723032 0.6875000000007816 0 0 0.62500000000121547 0 0.1371230538040123 0.56179824718362847 0 0.75000000000032374 0.56698729811007709 0 0.88927506082488361 0.56409486310635837 0 0.82212678063041267 0.67678595194836966 0 0.81242894672211508 0.45500248311961472 0 0.88927506082488361 0.56409486310635837 0 0.75000000000032374 0.56698729811007709 0 0.69851598570178741 0.68211701800612057 0 0.56496004948275869 0.67675037307860475 0 0.62752533658682441 0.56838075195614346 0 0.69851598570178741 0.68211701800612057 0 0.76243180583607129 0.78687675331113149 0 0.62844955668446423 0.7850749770380413 0 0.23533274979922561 0.77093399389351469 0 0.18802967116092181 0.89415349436770275 0 0.10409951422139101 0.81206782209691231 0 0.121259140952891 0.43112117036853742 0 0.22257735880419699 0.47344721641341742 0 0.1371230538040123 0.56179824718362847 0 0.75000000000032374 0.56698729811007709 0 0.69851598570178741 0.68211701800612057 0 0.62752533658682441 0.56838075195614346 0 0.56496004948275869 0.67675037307860475 0 0.69851598570178741 0.68211701800612057 0 0.62844955668446423 0.7850749770380413 0 0.1371230538040123 0.56179824718362847 0 0.22257735880419699 0.47344721641341742 0 0.26982811998763367 0.56544650815856912 0 0.21809253452218619 0.65480892822618109 0 0.1371230538040123 0.56179824718362847 0 0.26982811998763367 0.56544650815856912 0 0.24418615484441761 0.35773612382016978 0 0.1082531754734323 0.31250000000117473 0 0.20767261601459541 0.25628918442207171 0 0.88173731489851925 0.33077402607778361 0 0.75000000000057243 0.35048094716480432 0 0.79891106056046712 0.25007334953587562 0 0.75000000000032374 0.56698729811007709 0 0.82212678063041267 0.67678595194836966 0 0.69851598570178741 0.68211701800612057 0 0.81249999999950517 0.1082531754733404 0 0.89658421694297741 0.1933620068391701 0 0.79891106056046712 0.25007334953587562 0 0.81249999999950517 0.1082531754733404 0 0.79891106056046712 0.25007334953587562 0 0.73983916756365475 0.17530677078674589 0 0.23533274979922561 0.77093399389351469 0 0.21809253452218619 0.65480892822618109 0 0.32607333794064219 0.67760114260606152 0 0.1082531754723032 0.6875000000007816 0 0.1371230538040123 0.56179824718362847 0 0.21809253452218619 0.65480892822618109 0 0.69851598570178741 0.68211701800612057 0 0.82212678063041267 0.67678595194836966 0 0.76243180583607129 0.78687675331113149 0 0.69010814643829166 0.89298495739101336 0 0.76243180583607129 0.78687675331113149 0 0.80886664387416207 0.89717308644237903 0 0.43750000000181222 0.89174682452709564 0 0.31258827852827581 0.89214793616708443 0 0.37776173212361452 0.78514649317305008 0 0.43750000000181222 0.89174682452709564 0 0.37500000000156292 1 0 0.31258827852827581 0.89214793616708443 0 0.121259140952891 0.43112117036853742 0 0 0.37500000000156292 0 0.1082531754734323 0.31250000000117473 0 0.50000000000206146 1 0 0.37500000000156292 1 0 0.43750000000181222 0.89174682452709564 0 0.31258827852827581 0.89214793616708443 0 0.18802967116092181 0.89415349436770275 0 0.23533274979922561 0.77093399389351469 0 0 0.50000000000206146 0 0 0.37500000000156292 0 0.121259140952891 0.43112117036853742 0 0.62844955668446423 0.7850749770380413 0 0.69010814643829166 0.89298495739101336 0 0.56327595140699671 0.89211526915426331 0 0.69010814643829166 0.89298495739101336 0 0.62500000000121547 1 0 0.56327595140699671 0.89211526915426331 0 0.25000000000104189 1 0 0.18802967116092181 0.89415349436770275 0 0.31258827852827581 0.89214793616708443 0 0.50000000000206146 1 0 0.43750000000181222 0.89174682452709564 0 0.56327595140699671 0.89211526915426331 0 0.56249999999885147 0.1082531754730395 0 0.62499999999901068 0 0 0.68749999999926592 0.1082531754732875 0 1 0.49999999999869221 0 1 0.62499999999901068 0 0.88927506082488361 0.56409486310635837 0 0 0.25000000000104189 0 0.12076953676380731 0.18690935762408761 0 0.1082531754734323 0.31250000000117473 0 0.49999999999869221 0 0 0.62499999999901068 0 0 0.56249999999885147 0.1082531754730395 0 0.62500000000121547 1 0 0.50000000000206146 1 0 0.56327595140699671 0.89211526915426331 0 0.37500000000156292 1 0 0.25000000000104189 1 0 0.31258827852827581 0.89214793616708443 0 0.31281086598417152 0.10449318608631281 0 0.37499999999904599 0 0 0.43749999999910871 0.1082531754729984 0 0.43750000000181222 0.89174682452709564 0 0.37776173212361452 0.78514649317305008 0 0.50046028868828263 0.78376912307435687 0 0 0.37500000000156292 0 0 0.25000000000104189 0 0.1082531754734323 0.31250000000117473 0 0.49999999999869221 0 0 0.56249999999885147 0.1082531754730395 0 0.43749999999910871 0.1082531754729984 0 0.43750000000181222 0.89174682452709564 0 0.50046028868828263 0.78376912307435687 0 0.56327595140699671 0.89211526915426331 0 0.74999999999934042 0 0 0.81249999999950517 0.1082531754733404 0 0.68749999999926592 0.1082531754732875 0 0.37499999999904599 0 0 0.49999999999869221 0 0 0.43749999999910871 0.1082531754729984 0 0.25000000000104189 1 0 0.12500000000052089 1 0 0.18802967116092181 0.89415349436770275 0 0.50046028868828263 0.78376912307435687 0 0.62844955668446423 0.7850749770380413 0 0.56327595140699671 0.89211526915426331 0 0.37776173212361452 0.78514649317305008 0 0.31258827852827581 0.89214793616708443 0 0.23533274979922561 0.77093399389351469 0 0.62499999999901068 0 0 0.74999999999934042 0 0 0.68749999999926592 0.1082531754732875 0 1 0.74999999999934042 0 1 0.87499999999967015 0 0.89051480781310632 0.79665793440246835 0 0 0.25000000000104189 0 0 0.12500000000052089 0 0.12076953676380731 0.18690935762408761 0 0.74999999999934042 0 0 0.87499999999967015 0 0 0.81249999999950517 0.1082531754733404 0 0.24999999999941069 0 0 0.37499999999904599 0 0 0.31281086598417152 0.10449318608631281 0 0.50046028868828263 0.78376912307435687 0 0.37776173212361452 0.78514649317305008 0 0.44078402250377968 0.67714785211715212 0 0.68768773896438518 0.4586835206367198 0 0.75000000000032374 0.56698729811007709 0 0.62752533658682441 0.56838075195614346 0 0.31411863959822661 0.24965544328045999 0 0.37953773393552892 0.34812185820708452 0 0.24418615484441761 0.35773612382016978 0 0.68768773896438518 0.4586835206367198 0 0.81242894672211508 0.45500248311961472 0 0.75000000000032374 0.56698729811007709 0 1 0.24999999999941069 0 1 0.37499999999904599 0 0.88173731489851925 0.33077402607778361 0 0 0.75000000000034761 0 0 0.62500000000121547 0 0.1082531754723032 0.6875000000007816 0 0.50048844149666749 0.56727788297625459 0 0.44078402250377968 0.67714785211715212 0 0.38694285807596462 0.5672991787102919 0 0.50108503093851109 0.35012252869403671 0 0.44301038174930041 0.45684931552185398 0 0.37953773393552892 0.34812185820708452 0 0.50046028868828263 0.78376912307435687 0 0.56496004948275869 0.67675037307860475 0 0.62844955668446423 0.7850749770380413 0 0.68768773896438518 0.4586835206367198 0 0.75000000000057243 0.35048094716480432 0 0.81242894672211508 0.45500248311961472 0 0.56349980387502452 0.45846841892908402 0 0.62512662990940393 0.35044303886909911 0 0.68768773896438518 0.4586835206367198 0 0.50048844149666749 0.56727788297625459 0 0.38694285807596462 0.5672991787102919 0 0.44301038174930041 0.45684931552185398 0 0.50046028868828263 0.78376912307435687 0 0.44078402250377968 0.67714785211715212 0 0.56496004948275869 0.67675037307860475 0 0.50108503093851109 0.35012252869403671 0 0.37953773393552892 0.34812185820708452 0 0.43750000000200551 0.24222777169198509 0 0.75000000000034761 1 0 0.62500000000121547 1 0 0.69010814643829166 0.89298495739101336 0 0.68768773896438518 0.4586835206367198 0 0.62512662990940393 0.35044303886909911 0 0.75000000000057243 0.35048094716480432 0 0.56496004948275869 0.67675037307860475 0 0.44078402250377968 0.67714785211715212 0 0.50048844149666749 0.56727788297625459 0 0.56349980387502452 0.45846841892908402 0 0.44301038174930041 0.45684931552185398 0 0.50108503093851109 0.35012252869403671 0 0.50048844149666749 0.56727788297625459 0 0.44301038174930041 0.45684931552185398 0 0.56349980387502452 0.45846841892908402 0 0.56349980387502452 0.45846841892908402 0 0.50108503093851109 0.35012252869403671 0 0.62512662990940393 0.35044303886909911 0 0.43750000000200551 0.24222777169198509 0 0.37953773393552892 0.34812185820708452 0 0.31411863959822661 0.24965544328045999 0 0.56496004948275869 0.67675037307860475 0 0.50048844149666749 0.56727788297625459 0 0.62752533658682441 0.56838075195614346 0 0.56349980387502452 0.45846841892908402 0 0.68768773896438518 0.4586835206367198 0 0.62752533658682441 0.56838075195614346 0 0.50048844149666749 0.56727788297625459 0 0.56349980387502452 0.45846841892908402 0 0.62752533658682441 0.56838075195614346 0 0.75000000000057243 0.35048094716480432 0 0.62512662990940393 0.35044303886909911 0 0.68668231842078242 0.24762892664808989 0 0.50108503093851109 0.35012252869403671 0 0.43750000000200551 0.24222777169198509 0 0.56250000000143974 0.2422277716920859 0 0.62512662990940393 0.35044303886909911 0 0.50108503093851109 0.35012252869403671 0 0.56250000000143974 0.2422277716920859 0 0.68668231842078242 0.24762892664808989 0 0.62512662990940393 0.35044303886909911 0 0.56250000000143974 0.2422277716920859 0 0.22257735880419699 0.47344721641341742 0 0.24418615484441761 0.35773612382016978 0 0.32815957677880009 0.4577243358118348 0 0.12076953676380731 0.18690935762408761 0 0.19185372118111221 0.092925648673580788 0 0.25103557339309318 0.17464499738446629 0 0.20767261601459541 0.25628918442207171 0 0.12076953676380731 0.18690935762408761 0 0.25103557339309318 0.17464499738446629 0 0 0.87499999999950151 0 0 0.75000000000034761 0 0.10409951422139101 0.81206782209691231 0 0.1249999999997731 0 0 0.24999999999941069 0 0 0.19185372118111221 0.092925648673580788 0 1 0.1249999999997731 0 1 0.24999999999941069 0 0.89658421694297741 0.1933620068391701 0 0.88927506082488361 0.56409486310635837 0 0.81242894672211508 0.45500248311961472 0 0.915464298762109 0.43749999999886913 0 0.87499999999950151 1 0 0.75000000000034761 1 0 0.80886664387416207 0.89717308644237903 0 0.75000000000034761 1 0 0.69010814643829166 0.89298495739101336 0 0.80886664387416207 0.89717308644237903 0 0.82212678063041267 0.67678595194836966 0 0.88927506082488361 0.56409486310635837 0 0.92266244547590082 0.68749999999917555 0 0 0.75000000000034761 0 0.1082531754723032 0.6875000000007816 0 0.10409951422139101 0.81206782209691231 0 0.24999999999941069 0 0 0.31281086598417152 0.10449318608631281 0 0.19185372118111221 0.092925648673580788 0 1 0.24999999999941069 0 0.88173731489851925 0.33077402607778361 0 0.89658421694297741 0.1933620068391701 0 0.32815957677880009 0.4577243358118348 0 0.38694285807596462 0.5672991787102919 0 0.26982811998763367 0.56544650815856912 0 0.76243180583607129 0.78687675331113149 0 0.89051480781310632 0.79665793440246835 0 0.80886664387416207 0.89717308644237903 0 0.38694285807596462 0.5672991787102919 0 0.44078402250377968 0.67714785211715212 0 0.32607333794064219 0.67760114260606152 0 0.37776173212361452 0.78514649317305008 0 0.23533274979922561 0.77093399389351469 0 0.32607333794064219 0.67760114260606152 0 1 0.49999999999869221 0 0.88927506082488361 0.56409486310635837 0 0.915464298762109 0.43749999999886913 0 0.88173731489851925 0.33077402607778361 0 1 0.37499999999904599 0 0.915464298762109 0.43749999999886913 0 0.24418615484441761 0.35773612382016978 0 0.37953773393552892 0.34812185820708452 0 0.32815957677880009 0.4577243358118348 0 0.44301038174930041 0.45684931552185398 0 0.38694285807596462 0.5672991787102919 0 0.32815957677880009 0.4577243358118348 0 0.88927506082488361 0.56409486310635837 0 1 0.62499999999901068 0 0.92266244547590082 0.68749999999917555 0 1 0.74999999999934042 0 0.89051480781310632 0.79665793440246835 0 0.92266244547590082 0.68749999999917555 0 0 1 0 0 0.87499999999950151 0 0.091506350946494744 0.90849364905351082 0 1 1 0 0.87499999999950151 1 0 0.90849364905363228 0.90849364905367769 0 0 0 0 0.1249999999997731 0 0 0.091506350946417708 0.091506350946618076 0 0 0.12500000000052089 0 0 0 0 0.091506350946417708 0.091506350946618076 0 1 0 0 1 0.1249999999997731 0 0.90849364905355434 0.091506350946296292 0 0.87499999999967015 0 0 1 0 0 0.90849364905355434 0.091506350946296292 0 0.12500000000052089 1 0 0 1 0 0.091506350946494744 0.90849364905351082 0 1 0.87499999999967015 0 1 1 0 0.90849364905363228 0.90849364905367769 0 0.38694285807596462 0.5672991787102919 0 0.32607333794064219 0.67760114260606152 0 0.26982811998763367 0.56544650815856912 0 0.31411863959822661 0.24965544328045999 0 0.24418615484441761 0.35773612382016978 0 0.20767261601459541 0.25628918442207171 0 0.1082531754734323 0.31250000000117473 0 0.12076953676380731 0.18690935762408761 0 0.20767261601459541 0.25628918442207171 0 0.75000000000057243 0.35048094716480432 0 0.68668231842078242 0.24762892664808989 0 0.79891106056046712 0.25007334953587562 0 0.22257735880419699 0.47344721641341742 0 0.32815957677880009 0.4577243358118348 0 0.26982811998763367 0.56544650815856912 0 0.44078402250377968 0.67714785211715212 0 0.37776173212361452 0.78514649317305008 0 0.32607333794064219 0.67760114260606152 0 0.89658421694297741 0.1933620068391701 0 0.88173731489851925 0.33077402607778361 0 0.79891106056046712 0.25007334953587562 0 1 0.37499999999904599 0 1 0.49999999999869221 0 0.915464298762109 0.43749999999886913 0 0.37953773393552892 0.34812185820708452 0 0.44301038174930041 0.45684931552185398 0 0.32815957677880009 0.4577243358118348 0 0.32607333794064219 0.67760114260606152 0 0.21809253452218619 0.65480892822618109 0 0.26982811998763367 0.56544650815856912 0 1 0.1249999999997731 0 0.89658421694297741 0.1933620068391701 0 0.90849364905355434 0.091506350946296292 0 0 0.87499999999950151 0 0.10409951422139101 0.81206782209691231 0 0.091506350946494744 0.90849364905351082 0 0.1249999999997731 0 0 0.19185372118111221 0.092925648673580788 0 0.091506350946417708 0.091506350946618076 0 1 0.62499999999901068 0 1 0.74999999999934042 0 0.92266244547590082 0.68749999999917555 0 0.18802967116092181 0.89415349436770275 0 0.12500000000052089 1 0 0.091506350946494744 0.90849364905351082 0 0.89051480781310632 0.79665793440246835 0 1 0.87499999999967015 0 0.90849364905363228 0.90849364905367769 0 0.12076953676380731 0.18690935762408761 0 0 0.12500000000052089 0 0.091506350946417708 0.091506350946618076 0 0.81249999999950517 0.1082531754733404 0 0.87499999999967015 0 0 0.90849364905355434 0.091506350946296292 0 0.87499999999950151 1 0 0.80886664387416207 0.89717308644237903 0 0.90849364905363228 0.90849364905367769 0 0.68668231842078242 0.24762892664808989 0 0.62499999999892575 0.17524047358135519 0 0.73983916756365475 0.17530677078674589 0 0.31281086598417152 0.10449318608631281 0 0.43749999999910871 0.1082531754729984 0 0.37500000000232431 0.17524047358384309 0 0.62499999999892575 0.17524047358135519 0 0.56250000000143974 0.2422277716920859 0 0.49999999999934441 0.1752404735815076 0 0.56249999999885147 0.1082531754730395 0 0.68749999999926592 0.1082531754732875 0 0.62499999999892575 0.17524047358135519 0 0.56249999999885147 0.1082531754730395 0 0.62499999999892575 0.17524047358135519 0 0.49999999999934441 0.1752404735815076 0 0.56250000000143974 0.2422277716920859 0 0.43750000000200551 0.24222777169198509 0 0.49999999999934441 0.1752404735815076 0 0.43749999999910871 0.1082531754729984 0 0.56249999999885147 0.1082531754730395 0 0.49999999999934441 0.1752404735815076 0 0.68668231842078242 0.24762892664808989 0 0.56250000000143974 0.2422277716920859 0 0.62499999999892575 0.17524047358135519 0 0.43750000000200551 0.24222777169198509 0 0.31411863959822661 0.24965544328045999 0 0.37500000000232431 0.17524047358384309 0 0.49999999999934441 0.1752404735815076 0 0.43750000000200551 0.24222777169198509 0 0.37500000000232431 0.17524047358384309 0 0.43749999999910871 0.1082531754729984 0 0.49999999999934441 0.1752404735815076 0 0.37500000000232431 0.17524047358384309 0 0.62499999999892575 0.17524047358135519 0 0.68749999999926592 0.1082531754732875 0 0.73983916756365475 0.17530677078674589 0 0.68749999999926592 0.1082531754732875 0 0.81249999999950517 0.1082531754733404 0 0.73983916756365475 0.17530677078674589 0 0.10409951422139101 0.81206782209691231 0 0.18802967116092181 0.89415349436770275 0 0.091506350946494744 0.90849364905351082 0 0.89658421694297741 0.1933620068391701 0 0.81249999999950517 0.1082531754733404 0 0.90849364905355434 0.091506350946296292 0 0.19185372118111221 0.092925648673580788 0 0.12076953676380731 0.18690935762408761 0 0.091506350946417708 0.091506350946618076 0 0.37500000000232431 0.17524047358384309 0 0.31411863959822661 0.24965544328045999 0 0.25103557339309318 0.17464499738446629 0 0.31281086598417152 0.10449318608631281 0 0.37500000000232431 0.17524047358384309 0 0.25103557339309318 0.17464499738446629 0 0.80886664387416207 0.89717308644237903 0 0.89051480781310632 0.79665793440246835 0 0.90849364905363228 0.90849364905367769 0 0.19185372118111221 0.092925648673580788 0 0.31281086598417152 0.10449318608631281 0 0.25103557339309318 0.17464499738446629 0 0.79891106056046712 0.25007334953587562 0 0.68668231842078242 0.24762892664808989 0 0.73983916756365475 0.17530677078674589 0 0.31411863959822661 0.24965544328045999 0 0.20767261601459541 0.25628918442207171 0 0.25103557339309318 0.17464499738446629 0 

        </DataArray>

      </Points>

      <Cells>

        <DataArray type="Int32" Name="connectivity" format="ascii">

0 1 2 3 4 5 6 7 8 9 10 11 12 13 14 15 16 17 18 19 20 21 22 23 24 25 26 27 28 29 30 31 32 33 34 35 36 37 38 39 40 41 42 43 44 45 46 47 48 49 50 51 52 53 54 55 56 57 58 59 60 61 62 63 64 65 66 67 68 69 70 71 72 73 74 75 76 77 78 79 80 81 82 83 84 85 86 87 88 89 90 91 92 93 94 95 96 97 98 99 100 101 102 103 104 105 106 107 108 109 110 111 112 113 114 115 116 117 118 119 120 121 122 123 124 125 126 127 128 129 130 131 132 133 134 135 136 137 138 139 140 141 142 143 144 145 146 147 148 149 150 151 152 153 154 155 156 157 158 159 160 161 162 163 164 165 166 167 168 169 170 171 172 173 174 175 176 177 178 179 180 181 182 183 184 185 186 187 188 189 190 191 192 193 194 195 196 197 198 199 200 201 202 203 204 205 206 207 208 209 210 211 212 213 214 215 216 217 218 219 220 221 222 223 224 225 226 227 228 229 230 231 232 233 234 235 236 237 238 239 240 241 242 243 244 245 246 247 248 249 250 251 252 253 254 255 256 257 258 259 260 261 262 263 264 265 266 267 268 269 270 271 272 273 274 275 276 277 278 279 280 281 282 283 284 285 286 287 288 289 290 291 292 293 294 295 296 297 298 299 300 301 302 303 304 305 306 307 308 309 310 311 312 313 314 315 316 317 318 319 320 321 322 323 324 325 326 327 328 329 330 331 332 333 334 335 336 337 338 339 340 341 342 343 344 345 346 347 348 349 350 351 352 353 354 355 356 357 358 359 360 361 362 363 364 365 366 367 368 369 370 371 372 373 374 375 376 377 378 379 380 381 382 383 384 385 386 387 388 389 390 391 392 393 394 395 396 397 398 399 400 401 402 403 404 405 406 407 408 409 410 411 412 413 414 415 416 417 418 419 420 421 422 423 424 425 426 427 428 429 430 431 432 433 434 435 436 437 438 439 440 441 442 443 444 445 446 447 448 449 450 451 452 453 454 455 456 457 458 459 460 461 462 463 464 465 466 467 468 469 470 471 472 473 474 475 476 477 478 479 480 481 482 483 484 485 

        </DataArray>

        <DataArray type="Int32" Name="offsets" format="ascii">

3 6 9 12 15 18 21 24 27 30 33 36 39 42 45 48 51 54 57 60 63 66 69 72 75 78 81 84 87 90 93 96 99 102 105 108 111 114 117 120 123 126 129 132 135 138 141 144 147 150 153 156 159 162 165 168 171 174 177 180 183 186 189 192 195 198 201 204 207 210 213 216 219 222 225 228 231 234 237 240 243 246 249 252 255 258 261 264 267 270 273 276 279 282 285 288 291 294 297 300 303 306 309 312 315 318 321 324 327 330 333 336 339 342 345 348 351 354 357 360 363 366 369 372 375 378 381 384 387 390 393 396 399 402 405 408 411 414 417 420 423 426 429 432 435 438 441 444 447 450 453 456 459 462 465 468 471 474 477 480 483 486 

        </DataArray>

        <DataArray type="Int32" Name="types" format="ascii">

5 5 5 5 5 5 5 5 5 5 5 5 5 5 5 5 5 5 5 5 5 5 5 5 5 5 5 5 5 5 5 5 5 5 5 5 5 5 5 5 5 5 5 5 5 5 5 5 5 5 5 5 5 5 5 5 5 5 5 5 5 5 5 5 5 5 5 5 5 5 5 5 5 5 5 5 5 5 5 5 5 5 5 5 5 5 5 5 5 5 5 5 5 5 5 5 5 5 5 5 5 5 5 5 5 5 5 5 5 5 5 5 5 5 5 5 5 5 5 5 5 5 5 5 5 5 5 5 5 5 5 5 5 5 5 5 5 5 5 5 5 5 5 5 5 5 5 5 5 5 5 5 5 5 5 5 5 5 5 5 5 5 

        </DataArray>

      </Cells>

    </Piece>

  </UnstructuredGrid>

</VTKFile>

