<?xml version="1.0"?>

<VTKFile type="UnstructuredGrid" version="0.1">

  <UnstructuredGrid>

    <Piece NumberOfPoints="486" NumberOfCells="162">

      <PointData>

        <DataArray type="Float64" Name="K" format="ascii">

1.06443506761319839e+00
1.06443506761319839e+00
1.06443506761319839e+00
1.10247716193796741e+00
1.10247716193796741e+00
1.10247716193796741e+00
1.00376736262847688e+00
1.00376736262847688e+00
1.00376736262847688e+00
9.89117546622158783e-01
9.89117546622158783e-01
9.89117546622158783e-01
1.03600522515402660e+00
1.03600522515402660e+00
1.03600522515402660e+00
9.63565149556164902e-01
9.63565149556164902e-01
9.63565149556164902e-01
1.07320360316697294e+00
1.07320360316697294e+00
1.07320360316697294e+00
1.03460886709589461e+00
1.03460886709589461e+00
1.03460886709589461e+00
1.01055516868342021e+00
1.01055516868342021e+00
1.01055516868342021e+00
1.03878481998699734e+00
1.03878481998699734e+00
1.03878481998699734e+00
1.08166248519821195e+00
1.08166248519821195e+00
1.08166248519821195e+00
1.08985791669247578e+00
1.08985791669247578e+00
1.08985791669247578e+00
9.80585602507123011e-01
9.80585602507123011e-01
9.80585602507123011e-01
9.63281240624886403e-01
9.63281240624886403e-01
9.63281240624886403e-01
9.96613768854524795e-01
9.96613768854524795e-01
9.96613768854524795e-01
9.91034672697373331e-01
9.91034672697373331e-01
9.91034672697373331e-01
1.01764840501070064e+00
1.01764840501070064e+00
1.01764840501070064e+00
1.09071051027999366e+00
1.09071051027999366e+00
1.09071051027999366e+00
9.55272959033144686e-01
9.55272959033144686e-01
9.55272959033144686e-01
1.01009370157095391e+00
1.01009370157095391e+00
1.01009370157095391e+00
1.10582213751903202e+00
1.10582213751903202e+00
1.10582213751903202e+00
1.12225584861957461e+00
1.12225584861957461e+00
1.12225584861957461e+00
9.51657833496179384e-01
9.51657833496179384e-01
9.51657833496179384e-01
1.02534452862006931e+00
1.02534452862006931e+00
1.02534452862006931e+00
9.65800862791957981e-01
9.65800862791957981e-01
9.65800862791957981e-01
1.07928010549678666e+00
1.07928010549678666e+00
1.07928010549678666e+00
1.10253131170561014e+00
1.10253131170561014e+00
1.10253131170561014e+00
1.08267511421686113e+00
1.08267511421686113e+00
1.08267511421686113e+00
1.12445389393170592e+00
1.12445389393170592e+00
1.12445389393170592e+00
9.91128169402196724e-01
9.91128169402196724e-01
9.91128169402196724e-01
1.02532468784730324e+00
1.02532468784730324e+00
1.02532468784730324e+00
9.96784483762298223e-01
9.96784483762298223e-01
9.96784483762298223e-01
9.56340660407922094e-01
9.56340660407922094e-01
9.56340660407922094e-01
1.02311117165438237e+00
1.02311117165438237e+00
1.02311117165438237e+00
9.51516958239513211e-01
9.51516958239513211e-01
9.51516958239513211e-01
1.00376137360825779e+00
1.00376137360825779e+00
1.00376137360825779e+00
1.04916874147804307e+00
1.04916874147804307e+00
1.04916874147804307e+00
1.02998808533473829e+00
1.02998808533473829e+00
1.02998808533473829e+00
1.03470135258805374e+00
1.03470135258805374e+00
1.03470135258805374e+00
9.61333152978965488e-01
9.61333152978965488e-01
9.61333152978965488e-01
1.00098612166767920e+00
1.00098612166767920e+00
1.00098612166767920e+00
1.08214044321733627e+00
1.08214044321733627e+00
1.08214044321733627e+00
9.74730821164104033e-01
9.74730821164104033e-01
9.74730821164104033e-01
9.62731822900969481e-01
9.62731822900969481e-01
9.62731822900969481e-01
1.05805937060842825e+00
1.05805937060842825e+00
1.05805937060842825e+00
1.02156931360870962e+00
1.02156931360870962e+00
1.02156931360870962e+00
9.43286610327644048e-01
9.43286610327644048e-01
9.43286610327644048e-01
9.92784831393542566e-01
9.92784831393542566e-01
9.92784831393542566e-01
1.03399322886908984e+00
1.03399322886908984e+00
1.03399322886908984e+00
9.94231154592612687e-01
9.94231154592612687e-01
9.94231154592612687e-01
1.04871086938306113e+00
1.04871086938306113e+00
1.04871086938306113e+00
1.03484263791326736e+00
1.03484263791326736e+00
1.03484263791326736e+00
1.12797507115907480e+00
1.12797507115907480e+00
1.12797507115907480e+00
1.02826126372166993e+00
1.02826126372166993e+00
1.02826126372166993e+00
9.30633530514500928e-01
9.30633530514500928e-01
9.30633530514500928e-01
1.04799960064059650e+00
1.04799960064059650e+00
1.04799960064059650e+00
1.01660907051305971e+00
1.01660907051305971e+00
1.01660907051305971e+00
1.11377165551008717e+00
1.11377165551008717e+00
1.11377165551008717e+00
1.02802231307450520e+00
1.02802231307450520e+00
1.02802231307450520e+00
9.44588072346565721e-01
9.44588072346565721e-01
9.44588072346565721e-01
1.11013879978692187e+00
1.11013879978692187e+00
1.11013879978692187e+00
9.59206714543109795e-01
9.59206714543109795e-01
9.59206714543109795e-01
1.06480269733091948e+00
1.06480269733091948e+00
1.06480269733091948e+00
9.49813169144543279e-01
9.49813169144543279e-01
9.49813169144543279e-01
9.68532097045073814e-01
9.68532097045073814e-01
9.68532097045073814e-01
9.51817770385780082e-01
9.51817770385780082e-01
9.51817770385780082e-01
9.44599877149147504e-01
9.44599877149147504e-01
9.44599877149147504e-01
1.03826524919911756e+00
1.03826524919911756e+00
1.03826524919911756e+00
1.07469307567207695e+00
1.07469307567207695e+00
1.07469307567207695e+00
1.03339875440308360e+00
1.03339875440308360e+00
1.03339875440308360e+00
1.05648841253489523e+00
1.05648841253489523e+00
1.05648841253489523e+00
9.71671249102809997e-01
9.71671249102809997e-01
9.71671249102809997e-01
9.70265493258504641e-01
9.70265493258504641e-01
9.70265493258504641e-01
1.06008265013043235e+00
1.06008265013043235e+00
1.06008265013043235e+00
1.08109072464425204e+00
1.08109072464425204e+00
1.08109072464425204e+00
1.02967728484211962e+00
1.02967728484211962e+00
1.02967728484211962e+00
1.03000814366356486e+00
1.03000814366356486e+00
1.03000814366356486e+00
9.74838695078340089e-01
9.74838695078340089e-01
9.74838695078340089e-01
1.07961113404855769e+00
1.07961113404855769e+00
1.07961113404855769e+00
1.02465869313555480e+00
1.02465869313555480e+00
1.02465869313555480e+00
1.04127233366807537e+00
1.04127233366807537e+00
1.04127233366807537e+00
9.93493532570936200e-01
9.93493532570936200e-01
9.93493532570936200e-01
9.99331985950214219e-01
9.99331985950214219e-01
9.99331985950214219e-01
1.04158317060876771e+00
1.04158317060876771e+00
1.04158317060876771e+00
9.73064066139521677e-01
9.73064066139521677e-01
9.73064066139521677e-01
1.02111495430686561e+00
1.02111495430686561e+00
1.02111495430686561e+00
1.00443114222123797e+00
1.00443114222123797e+00
1.00443114222123797e+00
1.02796253428895334e+00
1.02796253428895334e+00
1.02796253428895334e+00
1.00033991229550390e+00
1.00033991229550390e+00
1.00033991229550390e+00
1.00304436278709974e+00
1.00304436278709974e+00
1.00304436278709974e+00
1.02756355050006465e+00
1.02756355050006465e+00
1.02756355050006465e+00
8.97136928117495458e-01
8.97136928117495458e-01
8.97136928117495458e-01
9.01127655463740407e-01
9.01127655463740407e-01
9.01127655463740407e-01
9.75197355545504241e-01
9.75197355545504241e-01
9.75197355545504241e-01
9.26548909240735630e-01
9.26548909240735630e-01
9.26548909240735630e-01
9.78516884475760906e-01
9.78516884475760906e-01
9.78516884475760906e-01
9.62161106478658379e-01
9.62161106478658379e-01
9.62161106478658379e-01
1.02858351613700449e+00
1.02858351613700449e+00
1.02858351613700449e+00
1.02646928008721616e+00
1.02646928008721616e+00
1.02646928008721616e+00
1.01140310469499517e+00
1.01140310469499517e+00
1.01140310469499517e+00
1.02898124417628245e+00
1.02898124417628245e+00
1.02898124417628245e+00
9.15349534065269088e-01
9.15349534065269088e-01
9.15349534065269088e-01
9.75871482241223998e-01
9.75871482241223998e-01
9.75871482241223998e-01
1.06047252974618034e+00
1.06047252974618034e+00
1.06047252974618034e+00
1.04618242628143898e+00
1.04618242628143898e+00
1.04618242628143898e+00
1.06711706165632236e+00
1.06711706165632236e+00
1.06711706165632236e+00
1.04832459944899137e+00
1.04832459944899137e+00
1.04832459944899137e+00
9.59887994267379252e-01
9.59887994267379252e-01
9.59887994267379252e-01
9.45088057704023377e-01
9.45088057704023377e-01
9.45088057704023377e-01
1.00488599796620748e+00
1.00488599796620748e+00
1.00488599796620748e+00
1.04933501053506628e+00
1.04933501053506628e+00
1.04933501053506628e+00
9.98882763750644331e-01
9.98882763750644331e-01
9.98882763750644331e-01
1.03105665504661292e+00
1.03105665504661292e+00
1.03105665504661292e+00
9.23578360418337629e-01
9.23578360418337629e-01
9.23578360418337629e-01
1.04546552614924093e+00
1.04546552614924093e+00
1.04546552614924093e+00
9.52186029391847377e-01
9.52186029391847377e-01
9.52186029391847377e-01
9.40534039676043876e-01
9.40534039676043876e-01
9.40534039676043876e-01
1.01816111813805410e+00
1.01816111813805410e+00
1.01816111813805410e+00
1.04523356358920427e+00
1.04523356358920427e+00
1.04523356358920427e+00
9.00678901389980746e-01
9.00678901389980746e-01
9.00678901389980746e-01
1.03763655329962678e+00
1.03763655329962678e+00
1.03763655329962678e+00
1.07065042764077401e+00
1.07065042764077401e+00
1.07065042764077401e+00
9.30150808757358449e-01
9.30150808757358449e-01
9.30150808757358449e-01
9.37915260500663539e-01
9.37915260500663539e-01
9.37915260500663539e-01
1.04349903269749533e+00
1.04349903269749533e+00
1.04349903269749533e+00
1.06573603208990519e+00
1.06573603208990519e+00
1.06573603208990519e+00
1.05774040836012162e+00
1.05774040836012162e+00
1.05774040836012162e+00
1.02717277697445386e+00
1.02717277697445386e+00
1.02717277697445386e+00
9.46979601287787576e-01
9.46979601287787576e-01
9.46979601287787576e-01
1.03243504610464010e+00
1.03243504610464010e+00
1.03243504610464010e+00
1.09314794202949761e+00
1.09314794202949761e+00
1.09314794202949761e+00
1.01810763688544559e+00
1.01810763688544559e+00
1.01810763688544559e+00
9.52010154008407050e-01
9.52010154008407050e-01
9.52010154008407050e-01
9.29363741992920378e-01
9.29363741992920378e-01
9.29363741992920378e-01
1.00034715630139637e+00
1.00034715630139637e+00
1.00034715630139637e+00
9.26360409806618268e-01
9.26360409806618268e-01
9.26360409806618268e-01
1.04829593787396802e+00
1.04829593787396802e+00
1.04829593787396802e+00
9.37166937157548507e-01
9.37166937157548507e-01
9.37166937157548507e-01
1.08331832190983413e+00
1.08331832190983413e+00
1.08331832190983413e+00
1.04766377396358412e+00
1.04766377396358412e+00
1.04766377396358412e+00
1.06376994384773615e+00
1.06376994384773615e+00
1.06376994384773615e+00
9.86923032380490062e-01
9.86923032380490062e-01
9.86923032380490062e-01
1.03497072527531597e+00
1.03497072527531597e+00
1.03497072527531597e+00
1.06772700583489044e+00
1.06772700583489044e+00
1.06772700583489044e+00
1.04848119675004625e+00
1.04848119675004625e+00
1.04848119675004625e+00
1.03826998234053769e+00
1.03826998234053769e+00
1.03826998234053769e+00
1.04993115556470840e+00
1.04993115556470840e+00
1.04993115556470840e+00
1.02873275211353032e+00
1.02873275211353032e+00
1.02873275211353032e+00
9.90000522220125023e-01
9.90000522220125023e-01
9.90000522220125023e-01
1.03142291913891149e+00
1.03142291913891149e+00
1.03142291913891149e+00
1.03216039141906735e+00
1.03216039141906735e+00
1.03216039141906735e+00
1.08586832888513185e+00
1.08586832888513185e+00
1.08586832888513185e+00
1.11781265496762794e+00
1.11781265496762794e+00
1.11781265496762794e+00
9.66391844300193203e-01
9.66391844300193203e-01
9.66391844300193203e-01
1.06985593440178395e+00
1.06985593440178395e+00
1.06985593440178395e+00
9.19741718975449651e-01
9.19741718975449651e-01
9.19741718975449651e-01
9.30600867407545440e-01
9.30600867407545440e-01
9.30600867407545440e-01
9.28463594575687279e-01
9.28463594575687279e-01
9.28463594575687279e-01
1.05744671225661890e+00
1.05744671225661890e+00
1.05744671225661890e+00
8.97001065355261695e-01
8.97001065355261695e-01
8.97001065355261695e-01
1.07609517292490175e+00
1.07609517292490175e+00
1.07609517292490175e+00
9.03824502481722636e-01
9.03824502481722636e-01
9.03824502481722636e-01


        </DataArray>

      </PointData>

      <CellData/>

      <Points>

        <DataArray type="Float64" NumberOfComponents="3" format="ascii">

0.1082531754723032 0.6875000000007816 0 0.23533274979922561 0.77093399389351469 0 0.10409951422139101 0.81206782209691231 0 0.23533274979922561 0.77093399389351469 0 0.1082531754723032 0.6875000000007816 0 0.21809253452218619 0.65480892822618109 0 0.24418615484441761 0.35773612382016978 0 0.121259140952891 0.43112117036853742 0 0.1082531754734323 0.31250000000117473 0 0.75000000000057243 0.35048094716480432 0 0.88173731489851925 0.33077402607778361 0 0.81242894672211508 0.45500248311961472 0 0.121259140952891 0.43112117036853742 0 0.24418615484441761 0.35773612382016978 0 0.22257735880419699 0.47344721641341742 0 0.81242894672211508 0.45500248311961472 0 0.88173731489851925 0.33077402607778361 0 0.915464298762109 0.43749999999886913 0 0 0.62500000000121547 0 0 0.50000000000206146 0 0.1371230538040123 0.56179824718362847 0 0.82212678063041267 0.67678595194836966 0 0.89051480781310632 0.79665793440246835 0 0.76243180583607129 0.78687675331113149 0 0.76243180583607129 0.78687675331113149 0 0.69010814643829166 0.89298495739101336 0 0.62844955668446423 0.7850749770380413 0 0.89051480781310632 0.79665793440246835 0 0.82212678063041267 0.67678595194836966 0 0.92266244547590082 0.68749999999917555 0 0 0.50000000000206146 0 0.121259140952891 0.43112117036853742 0 0.1371230538040123 0.56179824718362847 0 0.1082531754723032 0.6875000000007816 0 0 0.62500000000121547 0 0.1371230538040123 0.56179824718362847 0 0.75000000000032374 0.56698729811007709 0 0.88927506082488361 0.56409486310635837 0 0.82212678063041267 0.67678595194836966 0 0.81242894672211508 0.45500248311961472 0 0.88927506082488361 0.56409486310635837 0 0.75000000000032374 0.56698729811007709 0 0.69851598570178741 0.68211701800612057 0 0.56496004948275869 0.67675037307860475 0 0.62752533658682441 0.56838075195614346 0 0.69851598570178741 0.68211701800612057 0 0.76243180583607129 0.78687675331113149 0 0.62844955668446423 0.7850749770380413 0 0.23533274979922561 0.77093399389351469 0 0.18802967116092181 0.89415349436770275 0 0.10409951422139101 0.81206782209691231 0 0.121259140952891 0.43112117036853742 0 0.22257735880419699 0.47344721641341742 0 0.1371230538040123 0.56179824718362847 0 0.75000000000032374 0.56698729811007709 0 0.69851598570178741 0.68211701800612057 0 0.62752533658682441 0.56838075195614346 0 0.56496004948275869 0.67675037307860475 0 0.69851598570178741 0.68211701800612057 0 0.62844955668446423 0.7850749770380413 0 0.1371230538040123 0.56179824718362847 0 0.22257735880419699 0.47344721641341742 0 0.26982811998763367 0.56544650815856912 0 0.21809253452218619 0.65480892822618109 0 0.1371230538040123 0.56179824718362847 0 0.26982811998763367 0.56544650815856912 0 0.24418615484441761 0.35773612382016978 0 0.1082531754734323 0.31250000000117473 0 0.20767261601459541 0.25628918442207171 0 0.88173731489851925 0.33077402607778361 0 0.75000000000057243 0.35048094716480432 0 0.79891106056046712 0.25007334953587562 0 0.75000000000032374 0.56698729811007709 0 0.82212678063041267 0.67678595194836966 0 0.69851598570178741 0.68211701800612057 0 0.81249999999950517 0.1082531754733404 0 0.89658421694297741 0.1933620068391701 0 0.79891106056046712 0.25007334953587562 0 0.81249999999950517 0.1082531754733404 0 0.79891106056046712 0.25007334953587562 0 0.73983916756365475 0.17530677078674589 0 0.23533274979922561 0.77093399389351469 0 0.21809253452218619 0.65480892822618109 0 0.32607333794064219 0.67760114260606152 0 0.1082531754723032 0.6875000000007816 0 0.1371230538040123 0.56179824718362847 0 0.21809253452218619 0.65480892822618109 0 0.69851598570178741 0.68211701800612057 0 0.82212678063041267 0.67678595194836966 0 0.76243180583607129 0.78687675331113149 0 0.69010814643829166 0.89298495739101336 0 0.76243180583607129 0.78687675331113149 0 0.80886664387416207 0.89717308644237903 0 0.43750000000181222 0.89174682452709564 0 0.31258827852827581 0.89214793616708443 0 0.37776173212361452 0.78514649317305008 0 0.43750000000181222 0.89174682452709564 0 0.37500000000156292 1 0 0.31258827852827581 0.89214793616708443 0 0.121259140952891 0.43112117036853742 0 0 0.37500000000156292 0 0.1082531754734323 0.31250000000117473 0 0.50000000000206146 1 0 0.37500000000156292 1 0 0.43750000000181222 0.89174682452709564 0 0.31258827852827581 0.89214793616708443 0 0.18802967116092181 0.89415349436770275 0 0.23533274979922561 0.77093399389351469 0 0 0.50000000000206146 0 0 0.37500000000156292 0 0.121259140952891 0.43112117036853742 0 0.62844955668446423 0.7850749770380413 0 0.69010814643829166 0.89298495739101336 0 0.56327595140699671 0.89211526915426331 0 0.69010814643829166 0.89298495739101336 0 0.62500000000121547 1 0 0.56327595140699671 0.89211526915426331 0 0.25000000000104189 1 0 0.18802967116092181 0.89415349436770275 0 0.31258827852827581 0.89214793616708443 0 0.50000000000206146 1 0 0.43750000000181222 0.89174682452709564 0 0.56327595140699671 0.89211526915426331 0 0.56249999999885147 0.1082531754730395 0 0.62499999999901068 0 0 0.68749999999926592 0.1082531754732875 0 1 0.49999999999869221 0 1 0.62499999999901068 0 0.88927506082488361 0.56409486310635837 0 0 0.25000000000104189 0 0.12076953676380731 0.18690935762408761 0 0.1082531754734323 0.31250000000117473 0 0.49999999999869221 0 0 0.62499999999901068 0 0 0.56249999999885147 0.1082531754730395 0 0.62500000000121547 1 0 0.50000000000206146 1 0 0.56327595140699671 0.89211526915426331 0 0.37500000000156292 1 0 0.25000000000104189 1 0 0.31258827852827581 0.89214793616708443 0 0.31281086598417152 0.10449318608631281 0 0.37499999999904599 0 0 0.43749999999910871 0.1082531754729984 0 0.43750000000181222 0.89174682452709564 0 0.37776173212361452 0.78514649317305008 0 0.50046028868828263 0.78376912307435687 0 0 0.37500000000156292 0 0 0.25000000000104189 0 0.1082531754734323 0.31250000000117473 0 0.49999999999869221 0 0 0.56249999999885147 0.1082531754730395 0 0.43749999999910871 0.1082531754729984 0 0.43750000000181222 0.89174682452709564 0 0.50046028868828263 0.78376912307435687 0 0.56327595140699671 0.89211526915426331 0 0.74999999999934042 0 0 0.81249999999950517 0.1082531754733404 0 0.68749999999926592 0.1082531754732875 0 0.37499999999904599 0 0 0.49999999999869221 0 0 0.43749999999910871 0.1082531754729984 0 0.25000000000104189 1 0 0.12500000000052089 1 0 0.18802967116092181 0.89415349436770275 0 0.50046028868828263 0.78376912307435687 0 0.62844955668446423 0.7850749770380413 0 0.56327595140699671 0.89211526915426331 0 0.37776173212361452 0.78514649317305008 0 0.31258827852827581 0.89214793616708443 0 0.23533274979922561 0.77093399389351469 0 0.62499999999901068 0 0 0.74999999999934042 0 0 0.68749999999926592 0.1082531754732875 0 1 0.74999999999934042 0 1 0.87499999999967015 0 0.89051480781310632 0.79665793440246835 0 0 0.25000000000104189 0 0 0.12500000000052089 0 0.12076953676380731 0.18690935762408761 0 0.74999999999934042 0 0 0.87499999999967015 0 0 0.81249999999950517 0.1082531754733404 0 0.24999999999941069 0 0 0.37499999999904599 0 0 0.31281086598417152 0.10449318608631281 0 0.50046028868828263 0.78376912307435687 0 0.37776173212361452 0.78514649317305008 0 0.44078402250377968 0.67714785211715212 0 0.68768773896438518 0.4586835206367198 0 0.75000000000032374 0.56698729811007709 0 0.62752533658682441 0.56838075195614346 0 0.31411863959822661 0.24965544328045999 0 0.37953773393552892 0.34812185820708452 0 0.24418615484441761 0.35773612382016978 0 0.68768773896438518 0.4586835206367198 0 0.81242894672211508 0.45500248311961472 0 0.75000000000032374 0.56698729811007709 0 1 0.24999999999941069 0 1 0.37499999999904599 0 0.88173731489851925 0.33077402607778361 0 0 0.75000000000034761 0 0 0.62500000000121547 0 0.1082531754723032 0.6875000000007816 0 0.50048844149666749 0.56727788297625459 0 0.44078402250377968 0.67714785211715212 0 0.38694285807596462 0.5672991787102919 0 0.50108503093851109 0.35012252869403671 0 0.44301038174930041 0.45684931552185398 0 0.37953773393552892 0.34812185820708452 0 0.50046028868828263 0.78376912307435687 0 0.56496004948275869 0.67675037307860475 0 0.62844955668446423 0.7850749770380413 0 0.68768773896438518 0.4586835206367198 0 0.75000000000057243 0.35048094716480432 0 0.81242894672211508 0.45500248311961472 0 0.56349980387502452 0.45846841892908402 0 0.62512662990940393 0.35044303886909911 0 0.68768773896438518 0.4586835206367198 0 0.50048844149666749 0.56727788297625459 0 0.38694285807596462 0.5672991787102919 0 0.44301038174930041 0.45684931552185398 0 0.50046028868828263 0.78376912307435687 0 0.44078402250377968 0.67714785211715212 0 0.56496004948275869 0.67675037307860475 0 0.50108503093851109 0.35012252869403671 0 0.37953773393552892 0.34812185820708452 0 0.43750000000200551 0.24222777169198509 0 0.75000000000034761 1 0 0.62500000000121547 1 0 0.69010814643829166 0.89298495739101336 0 0.68768773896438518 0.4586835206367198 0 0.62512662990940393 0.35044303886909911 0 0.75000000000057243 0.35048094716480432 0 0.56496004948275869 0.67675037307860475 0 0.44078402250377968 0.67714785211715212 0 0.50048844149666749 0.56727788297625459 0 0.56349980387502452 0.45846841892908402 0 0.44301038174930041 0.45684931552185398 0 0.50108503093851109 0.35012252869403671 0 0.50048844149666749 0.56727788297625459 0 0.44301038174930041 0.45684931552185398 0 0.56349980387502452 0.45846841892908402 0 0.56349980387502452 0.45846841892908402 0 0.50108503093851109 0.35012252869403671 0 0.62512662990940393 0.35044303886909911 0 0.43750000000200551 0.24222777169198509 0 0.37953773393552892 0.34812185820708452 0 0.31411863959822661 0.24965544328045999 0 0.56496004948275869 0.67675037307860475 0 0.50048844149666749 0.56727788297625459 0 0.62752533658682441 0.56838075195614346 0 0.56349980387502452 0.45846841892908402 0 0.68768773896438518 0.4586835206367198 0 0.62752533658682441 0.56838075195614346 0 0.50048844149666749 0.56727788297625459 0 0.56349980387502452 0.45846841892908402 0 0.62752533658682441 0.56838075195614346 0 0.75000000000057243 0.35048094716480432 0 0.62512662990940393 0.35044303886909911 0 0.68668231842078242 0.24762892664808989 0 0.50108503093851109 0.35012252869403671 0 0.43750000000200551 0.24222777169198509 0 0.56250000000143974 0.2422277716920859 0 0.62512662990940393 0.35044303886909911 0 0.50108503093851109 0.35012252869403671 0 0.56250000000143974 0.2422277716920859 0 0.68668231842078242 0.24762892664808989 0 0.62512662990940393 0.35044303886909911 0 0.56250000000143974 0.2422277716920859 0 0.22257735880419699 0.47344721641341742 0 0.24418615484441761 0.35773612382016978 0 0.32815957677880009 0.4577243358118348 0 0.12076953676380731 0.18690935762408761 0 0.19185372118111221 0.092925648673580788 0 0.25103557339309318 0.17464499738446629 0 0.20767261601459541 0.25628918442207171 0 0.12076953676380731 0.18690935762408761 0 0.25103557339309318 0.17464499738446629 0 0 0.87499999999950151 0 0 0.75000000000034761 0 0.10409951422139101 0.81206782209691231 0 0.1249999999997731 0 0 0.24999999999941069 0 0 0.19185372118111221 0.092925648673580788 0 1 0.1249999999997731 0 1 0.24999999999941069 0 0.89658421694297741 0.1933620068391701 0 0.88927506082488361 0.56409486310635837 0 0.81242894672211508 0.45500248311961472 0 0.915464298762109 0.43749999999886913 0 0.87499999999950151 1 0 0.75000000000034761 1 0 0.80886664387416207 0.89717308644237903 0 0.75000000000034761 1 0 0.69010814643829166 0.89298495739101336 0 0.80886664387416207 0.89717308644237903 0 0.82212678063041267 0.67678595194836966 0 0.88927506082488361 0.56409486310635837 0 0.92266244547590082 0.68749999999917555 0 0 0.75000000000034761 0 0.1082531754723032 0.6875000000007816 0 0.10409951422139101 0.81206782209691231 0 0.24999999999941069 0 0 0.31281086598417152 0.10449318608631281 0 0.19185372118111221 0.092925648673580788 0 1 0.24999999999941069 0 0.88173731489851925 0.33077402607778361 0 0.89658421694297741 0.1933620068391701 0 0.32815957677880009 0.4577243358118348 0 0.38694285807596462 0.5672991787102919 0 0.26982811998763367 0.56544650815856912 0 0.76243180583607129 0.78687675331113149 0 0.89051480781310632 0.79665793440246835 0 0.80886664387416207 0.89717308644237903 0 0.38694285807596462 0.5672991787102919 0 0.44078402250377968 0.67714785211715212 0 0.32607333794064219 0.67760114260606152 0 0.37776173212361452 0.78514649317305008 0 0.23533274979922561 0.77093399389351469 0 0.32607333794064219 0.67760114260606152 0 1 0.49999999999869221 0 0.88927506082488361 0.56409486310635837 0 0.915464298762109 0.43749999999886913 0 0.88173731489851925 0.33077402607778361 0 1 0.37499999999904599 0 0.915464298762109 0.43749999999886913 0 0.24418615484441761 0.35773612382016978 0 0.37953773393552892 0.34812185820708452 0 0.32815957677880009 0.4577243358118348 0 0.44301038174930041 0.45684931552185398 0 0.38694285807596462 0.5672991787102919 0 0.32815957677880009 0.4577243358118348 0 0.88927506082488361 0.56409486310635837 0 1 0.62499999999901068 0 0.92266244547590082 0.68749999999917555 0 1 0.74999999999934042 0 0.89051480781310632 0.79665793440246835 0 0.92266244547590082 0.68749999999917555 0 0 1 0 0 0.87499999999950151 0 0.091506350946494744 0.90849364905351082 0 1 1 0 0.87499999999950151 1 0 0.90849364905363228 0.90849364905367769 0 0 0 0 0.1249999999997731 0 0 0.091506350946417708 0.091506350946618076 0 0 0.12500000000052089 0 0 0 0 0.091506350946417708 0.091506350946618076 0 1 0 0 1 0.1249999999997731 0 0.90849364905355434 0.091506350946296292 0 0.87499999999967015 0 0 1 0 0 0.90849364905355434 0.091506350946296292 0 0.12500000000052089 1 0 0 1 0 0.091506350946494744 0.90849364905351082 0 1 0.87499999999967015 0 1 1 0 0.90849364905363228 0.90849364905367769 0 0.38694285807596462 0.5672991787102919 0 0.32607333794064219 0.67760114260606152 0 0.26982811998763367 0.56544650815856912 0 0.31411863959822661 0.24965544328045999 0 0.24418615484441761 0.35773612382016978 0 0.20767261601459541 0.25628918442207171 0 0.1082531754734323 0.31250000000117473 0 0.12076953676380731 0.18690935762408761 0 0.20767261601459541 0.25628918442207171 0 0.75000000000057243 0.35048094716480432 0 0.68668231842078242 0.24762892664808989 0 0.79891106056046712 0.25007334953587562 0 0.22257735880419699 0.47344721641341742 0 0.32815957677880009 0.4577243358118348 0 0.26982811998763367 0.56544650815856912 0 0.44078402250377968 0.67714785211715212 0 0.37776173212361452 0.78514649317305008 0 0.32607333794064219 0.67760114260606152 0 0.89658421694297741 0.1933620068391701 0 0.88173731489851925 0.33077402607778361 0 0.79891106056046712 0.25007334953587562 0 1 0.37499999999904599 0 1 0.49999999999869221 0 0.915464298762109 0.43749999999886913 0 0.37953773393552892 0.34812185820708452 0 0.44301038174930041 0.45684931552185398 0 0.32815957677880009 0.4577243358118348 0 0.32607333794064219 0.67760114260606152 0 0.21809253452218619 0.65480892822618109 0 0.26982811998763367 0.56544650815856912 0 1 0.1249999999997731 0 0.89658421694297741 0.1933620068391701 0 0.90849364905355434 0.091506350946296292 0 0 0.87499999999950151 0 0.10409951422139101 0.81206782209691231 0 0.091506350946494744 0.90849364905351082 0 0.1249999999997731 0 0 0.19185372118111221 0.092925648673580788 0 0.091506350946417708 0.091506350946618076 0 1 0.62499999999901068 0 1 0.74999999999934042 0 0.92266244547590082 0.68749999999917555 0 0.18802967116092181 0.89415349436770275 0 0.12500000000052089 1 0 0.091506350946494744 0.90849364905351082 0 0.89051480781310632 0.79665793440246835 0 1 0.87499999999967015 0 0.90849364905363228 0.90849364905367769 0 0.12076953676380731 0.18690935762408761 0 0 0.12500000000052089 0 0.091506350946417708 0.091506350946618076 0 0.81249999999950517 0.1082531754733404 0 0.87499999999967015 0 0 0.90849364905355434 0.091506350946296292 0 0.87499999999950151 1 0 0.80886664387416207 0.89717308644237903 0 0.90849364905363228 0.90849364905367769 0 0.68668231842078242 0.24762892664808989 0 0.62499999999892575 0.17524047358135519 0 0.73983916756365475 0.17530677078674589 0 0.31281086598417152 0.10449318608631281 0 0.43749999999910871 0.1082531754729984 0 0.37500000000232431 0.17524047358384309 0 0.62499999999892575 0.17524047358135519 0 0.56250000000143974 0.2422277716920859 0 0.49999999999934441 0.1752404735815076 0 0.56249999999885147 0.1082531754730395 0 0.68749999999926592 0.1082531754732875 0 0.62499999999892575 0.17524047358135519 0 0.56249999999885147 0.1082531754730395 0 0.62499999999892575 0.17524047358135519 0 0.49999999999934441 0.1752404735815076 0 0.56250000000143974 0.2422277716920859 0 0.43750000000200551 0.24222777169198509 0 0.49999999999934441 0.1752404735815076 0 0.43749999999910871 0.1082531754729984 0 0.56249999999885147 0.1082531754730395 0 0.49999999999934441 0.1752404735815076 0 0.68668231842078242 0.24762892664808989 0 0.56250000000143974 0.2422277716920859 0 0.62499999999892575 0.17524047358135519 0 0.43750000000200551 0.24222777169198509 0 0.31411863959822661 0.24965544328045999 0 0.37500000000232431 0.17524047358384309 0 0.49999999999934441 0.1752404735815076 0 0.43750000000200551 0.24222777169198509 0 0.37500000000232431 0.17524047358384309 0 0.43749999999910871 0.1082531754729984 0 0.49999999999934441 0.1752404735815076 0 0.37500000000232431 0.17524047358384309 0 0.62499999999892575 0.17524047358135519 0 0.68749999999926592 0.1082531754732875 0 0.73983916756365475 0.17530677078674589 0 0.68749999999926592 0.1082531754732875 0 0.81249999999950517 0.1082531754733404 0 0.73983916756365475 0.17530677078674589 0 0.10409951422139101 0.81206782209691231 0 0.18802967116092181 0.89415349436770275 0 0.091506350946494744 0.90849364905351082 0 0.89658421694297741 0.1933620068391701 0 0.81249999999950517 0.1082531754733404 0 0.90849364905355434 0.091506350946296292 0 0.19185372118111221 0.092925648673580788 0 0.12076953676380731 0.18690935762408761 0 0.091506350946417708 0.091506350946618076 0 0.37500000000232431 0.17524047358384309 0 0.31411863959822661 0.24965544328045999 0 0.25103557339309318 0.17464499738446629 0 0.31281086598417152 0.10449318608631281 0 0.37500000000232431 0.17524047358384309 0 0.25103557339309318 0.17464499738446629 0 0.80886664387416207 0.89717308644237903 0 0.89051480781310632 0.79665793440246835 0 0.90849364905363228 0.90849364905367769 0 0.19185372118111221 0.092925648673580788 0 0.31281086598417152 0.10449318608631281 0 0.25103557339309318 0.17464499738446629 0 0.79891106056046712 0.25007334953587562 0 0.68668231842078242 0.24762892664808989 0 0.73983916756365475 0.17530677078674589 0 0.31411863959822661 0.24965544328045999 0 0.20767261601459541 0.25628918442207171 0 0.25103557339309318 0.17464499738446629 0 

        </DataArray>

      </Points>

      <Cells>

        <DataArray type="Int32" Name="connectivity" format="ascii">

0 1 2 3 4 5 6 7 8 9 10 11 12 13 14 15 16 17 18 19 20 21 22 23 24 25 26 27 28 29 30 31 32 33 34 35 36 37 38 39 40 41 42 43 44 45 46 47 48 49 50 51 52 53 54 55 56 57 58 59 60 61 62 63 64 65 66 67 68 69 70 71 72 73 74 75 76 77 78 79 80 81 82 83 84 85 86 87 88 89 90 91 92 93 94 95 96 97 98 99 100 101 102 103 104 105 106 107 108 109 110 111 112 113 114 115 116 117 118 119 120 121 122 123 124 125 126 127 128 129 130 131 132 133 134 135 136 137 138 139 140 141 142 143 144 145 146 147 148 149 150 151 152 153 154 155 156 157 158 159 160 161 162 163 164 165 166 167 168 169 170 171 172 173 174 175 176 177 178 179 180 181 182 183 184 185 186 187 188 189 190 191 192 193 194 195 196 197 198 199 200 201 202 203 204 205 206 207 208 209 210 211 212 213 214 215 216 217 218 219 220 221 222 223 224 225 226 227 228 229 230 231 232 233 234 235 236 237 238 239 240 241 242 243 244 245 246 247 248 249 250 251 252 253 254 255 256 257 258 259 260 261 262 263 264 265 266 267 268 269 270 271 272 273 274 275 276 277 278 279 280 281 282 283 284 285 286 287 288 289 290 291 292 293 294 295 296 297 298 299 300 301 302 303 304 305 306 307 308 309 310 311 312 313 314 315 316 317 318 319 320 321 322 323 324 325 326 327 328 329 330 331 332 333 334 335 336 337 338 339 340 341 342 343 344 345 346 347 348 349 350 351 352 353 354 355 356 357 358 359 360 361 362 363 364 365 366 367 368 369 370 371 372 373 374 375 376 377 378 379 380 381 382 383 384 385 386 387 388 389 390 391 392 393 394 395 396 397 398 399 400 401 402 403 404 405 406 407 408 409 410 411 412 413 414 415 416 417 418 419 420 421 422 423 424 425 426 427 428 429 430 431 432 433 434 435 436 437 438 439 440 441 442 443 444 445 446 447 448 449 450 451 452 453 454 455 456 457 458 459 460 461 462 463 464 465 466 467 468 469 470 471 472 473 474 475 476 477 478 479 480 481 482 483 484 485 

        </DataArray>

        <DataArray type="Int32" Name="offsets" format="ascii">

3 6 9 12 15 18 21 24 27 30 33 36 39 42 45 48 51 54 57 60 63 66 69 72 75 78 81 84 87 90 93 96 99 102 105 108 111 114 117 120 123 126 129 132 135 138 141 144 147 150 153 156 159 162 165 168 171 174 177 180 183 186 189 192 195 198 201 204 207 210 213 216 219 222 225 228 231 234 237 240 243 246 249 252 255 258 261 264 267 270 273 276 279 282 285 288 291 294 297 300 303 306 309 312 315 318 321 324 327 330 333 336 339 342 345 348 351 354 357 360 363 366 369 372 375 378 381 384 387 390 393 396 399 402 405 408 411 414 417 420 423 426 429 432 435 438 441 444 447 450 453 456 459 462 465 468 471 474 477 480 483 486 

        </DataArray>

        <DataArray type="Int32" Name="types" format="ascii">

5 5 5 5 5 5 5 5 5 5 5 5 5 5 5 5 5 5 5 5 5 5 5 5 5 5 5 5 5 5 5 5 5 5 5 5 5 5 5 5 5 5 5 5 5 5 5 5 5 5 5 5 5 5 5 5 5 5 5 5 5 5 5 5 5 5 5 5 5 5 5 5 5 5 5 5 5 5 5 5 5 5 5 5 5 5 5 5 5 5 5 5 5 5 5 5 5 5 5 5 5 5 5 5 5 5 5 5 5 5 5 5 5 5 5 5 5 5 5 5 5 5 5 5 5 5 5 5 5 5 5 5 5 5 5 5 5 5 5 5 5 5 5 5 5 5 5 5 5 5 5 5 5 5 5 5 5 5 5 5 5 5 

        </DataArray>

      </Cells>

    </Piece>

  </UnstructuredGrid>

</VTKFile>

