<?xml version="1.0"?>

<VTKFile type="UnstructuredGrid" version="0.1">

  <UnstructuredGrid>

    <Piece NumberOfPoints="486" NumberOfCells="162">

      <PointData>

        <DataArray type="Float64" Name="K" format="ascii">

8.82392324738965561e-01
8.82392324738965561e-01
8.82392324738965561e-01
9.25192381216001447e-01
9.25192381216001447e-01
9.25192381216001447e-01
1.07992083309375442e+00
1.07992083309375442e+00
1.07992083309375442e+00
8.82360884586587346e-01
8.82360884586587346e-01
8.82360884586587346e-01
1.10833300175582217e+00
1.10833300175582217e+00
1.10833300175582217e+00
9.25271015739778657e-01
9.25271015739778657e-01
9.25271015739778657e-01
1.07284188559767313e+00
1.07284188559767313e+00
1.07284188559767313e+00
1.02372829729000836e+00
1.02372829729000836e+00
1.02372829729000836e+00
1.01510322180703216e+00
1.01510322180703216e+00
1.01510322180703216e+00
1.05995450574639705e+00
1.05995450574639705e+00
1.05995450574639705e+00
1.08352088104743327e+00
1.08352088104743327e+00
1.08352088104743327e+00
1.02907071847904219e+00
1.02907071847904219e+00
1.02907071847904219e+00
1.00008291910666069e+00
1.00008291910666069e+00
1.00008291910666069e+00
9.52846204314348411e-01
9.52846204314348411e-01
9.52846204314348411e-01
9.71648164695361305e-01
9.71648164695361305e-01
9.71648164695361305e-01
1.00188406653139039e+00
1.00188406653139039e+00
1.00188406653139039e+00
8.48993298712397371e-01
8.48993298712397371e-01
8.48993298712397371e-01
1.10381284993334727e+00
1.10381284993334727e+00
1.10381284993334727e+00
9.42529512964647598e-01
9.42529512964647598e-01
9.42529512964647598e-01
9.87957137969939114e-01
9.87957137969939114e-01
9.87957137969939114e-01
1.07435248593920218e+00
1.07435248593920218e+00
1.07435248593920218e+00
1.02644337377613915e+00
1.02644337377613915e+00
1.02644337377613915e+00
1.05198871746310685e+00
1.05198871746310685e+00
1.05198871746310685e+00
8.87509477692342119e-01
8.87509477692342119e-01
8.87509477692342119e-01
9.71065042936716249e-01
9.71065042936716249e-01
9.71065042936716249e-01
9.60527667664060281e-01
9.60527667664060281e-01
9.60527667664060281e-01
9.61182555340439504e-01
9.61182555340439504e-01
9.61182555340439504e-01
9.20551550547110131e-01
9.20551550547110131e-01
9.20551550547110131e-01
1.00183489574453444e+00
1.00183489574453444e+00
1.00183489574453444e+00
9.99714482474698851e-01
9.99714482474698851e-01
9.99714482474698851e-01
9.94417235637224395e-01
9.94417235637224395e-01
9.94417235637224395e-01
9.02213250885912643e-01
9.02213250885912643e-01
9.02213250885912643e-01
9.27489702575182928e-01
9.27489702575182928e-01
9.27489702575182928e-01
1.04091081730487245e+00
1.04091081730487245e+00
1.04091081730487245e+00
9.34582758647538481e-01
9.34582758647538481e-01
9.34582758647538481e-01
8.84868402436252199e-01
8.84868402436252199e-01
8.84868402436252199e-01
1.06248107948261961e+00
1.06248107948261961e+00
1.06248107948261961e+00
1.01474009468424597e+00
1.01474009468424597e+00
1.01474009468424597e+00
1.02285209572382785e+00
1.02285209572382785e+00
1.02285209572382785e+00
9.15072554821971806e-01
9.15072554821971806e-01
9.15072554821971806e-01
9.39765473251868544e-01
9.39765473251868544e-01
9.39765473251868544e-01
9.79212536394715172e-01
9.79212536394715172e-01
9.79212536394715172e-01
1.06628746010834297e+00
1.06628746010834297e+00
1.06628746010834297e+00
9.67103730793465011e-01
9.67103730793465011e-01
9.67103730793465011e-01
1.01716207346749643e+00
1.01716207346749643e+00
1.01716207346749643e+00
9.95411509562759922e-01
9.95411509562759922e-01
9.95411509562759922e-01
9.54878281981758059e-01
9.54878281981758059e-01
9.54878281981758059e-01
9.91864766028519362e-01
9.91864766028519362e-01
9.91864766028519362e-01
8.95488168281353136e-01
8.95488168281353136e-01
8.95488168281353136e-01
9.92113596512655627e-01
9.92113596512655627e-01
9.92113596512655627e-01
1.04970576814516425e+00
1.04970576814516425e+00
1.04970576814516425e+00
9.24195170602558402e-01
9.24195170602558402e-01
9.24195170602558402e-01
1.00989550904844894e+00
1.00989550904844894e+00
1.00989550904844894e+00
1.03514759848118709e+00
1.03514759848118709e+00
1.03514759848118709e+00
8.91389493337015226e-01
8.91389493337015226e-01
8.91389493337015226e-01
9.70816116477381197e-01
9.70816116477381197e-01
9.70816116477381197e-01
8.98945824568473051e-01
8.98945824568473051e-01
8.98945824568473051e-01
9.87123580853477289e-01
9.87123580853477289e-01
9.87123580853477289e-01
1.05369669711561498e+00
1.05369669711561498e+00
1.05369669711561498e+00
9.28643513521946740e-01
9.28643513521946740e-01
9.28643513521946740e-01
1.05788675636106699e+00
1.05788675636106699e+00
1.05788675636106699e+00
9.38584343193287984e-01
9.38584343193287984e-01
9.38584343193287984e-01
9.01026783990757862e-01
9.01026783990757862e-01
9.01026783990757862e-01
9.12503361774073873e-01
9.12503361774073873e-01
9.12503361774073873e-01
1.04422958160373502e+00
1.04422958160373502e+00
1.04422958160373502e+00
8.88158666415514775e-01
8.88158666415514775e-01
8.88158666415514775e-01
9.06498269088072739e-01
9.06498269088072739e-01
9.06498269088072739e-01
1.00843137583583831e+00
1.00843137583583831e+00
1.00843137583583831e+00
9.41390833954583117e-01
9.41390833954583117e-01
9.41390833954583117e-01
1.01140287055638489e+00
1.01140287055638489e+00
1.01140287055638489e+00
9.68948545195844169e-01
9.68948545195844169e-01
9.68948545195844169e-01
8.66750041694647866e-01
8.66750041694647866e-01
8.66750041694647866e-01
9.42779670963871497e-01
9.42779670963871497e-01
9.42779670963871497e-01
9.65960445371910503e-01
9.65960445371910503e-01
9.65960445371910503e-01
9.37869818089865692e-01
9.37869818089865692e-01
9.37869818089865692e-01
1.03038076361709519e+00
1.03038076361709519e+00
1.03038076361709519e+00
1.01323449326062187e+00
1.01323449326062187e+00
1.01323449326062187e+00
8.87718860619484795e-01
8.87718860619484795e-01
8.87718860619484795e-01
9.57238601531570366e-01
9.57238601531570366e-01
9.57238601531570366e-01
1.00577359791393195e+00
1.00577359791393195e+00
1.00577359791393195e+00
9.93312688342419481e-01
9.93312688342419481e-01
9.93312688342419481e-01
9.90754602020001762e-01
9.90754602020001762e-01
9.90754602020001762e-01
1.03258880501748607e+00
1.03258880501748607e+00
1.03258880501748607e+00
9.80460130501817573e-01
9.80460130501817573e-01
9.80460130501817573e-01
9.48678862276421619e-01
9.48678862276421619e-01
9.48678862276421619e-01
9.86790226943883408e-01
9.86790226943883408e-01
9.86790226943883408e-01
8.96316755464759085e-01
8.96316755464759085e-01
8.96316755464759085e-01
1.02939215378392146e+00
1.02939215378392146e+00
1.02939215378392146e+00
9.92514202104473831e-01
9.92514202104473831e-01
9.92514202104473831e-01
9.44611293351896975e-01
9.44611293351896975e-01
9.44611293351896975e-01
1.08074493155421036e+00
1.08074493155421036e+00
1.08074493155421036e+00
9.50425591683329629e-01
9.50425591683329629e-01
9.50425591683329629e-01
9.78587365909191265e-01
9.78587365909191265e-01
9.78587365909191265e-01
9.17738871548912094e-01
9.17738871548912094e-01
9.17738871548912094e-01
9.45874392480867798e-01
9.45874392480867798e-01
9.45874392480867798e-01
8.99175981387642986e-01
8.99175981387642986e-01
8.99175981387642986e-01
9.77881032839279296e-01
9.77881032839279296e-01
9.77881032839279296e-01
9.42889791597458227e-01
9.42889791597458227e-01
9.42889791597458227e-01
9.79084368357510226e-01
9.79084368357510226e-01
9.79084368357510226e-01
1.06432954253019352e+00
1.06432954253019352e+00
1.06432954253019352e+00
9.26307643272590520e-01
9.26307643272590520e-01
9.26307643272590520e-01
9.25220623871102155e-01
9.25220623871102155e-01
9.25220623871102155e-01
8.98958856614956114e-01
8.98958856614956114e-01
8.98958856614956114e-01
9.87281880952154078e-01
9.87281880952154078e-01
9.87281880952154078e-01
9.95732343806720932e-01
9.95732343806720932e-01
9.95732343806720932e-01
9.17368459337265740e-01
9.17368459337265740e-01
9.17368459337265740e-01
8.99709833972575090e-01
8.99709833972575090e-01
8.99709833972575090e-01
1.02708057993091773e+00
1.02708057993091773e+00
1.02708057993091773e+00
9.37449547376739689e-01
9.37449547376739689e-01
9.37449547376739689e-01
1.04766741762129256e+00
1.04766741762129256e+00
1.04766741762129256e+00
9.75999954206482556e-01
9.75999954206482556e-01
9.75999954206482556e-01
1.08614161703662138e+00
1.08614161703662138e+00
1.08614161703662138e+00
1.07232434964706291e+00
1.07232434964706291e+00
1.07232434964706291e+00
8.90767215547197844e-01
8.90767215547197844e-01
8.90767215547197844e-01
9.93943947543921347e-01
9.93943947543921347e-01
9.93943947543921347e-01
9.49701678739447108e-01
9.49701678739447108e-01
9.49701678739447108e-01
9.17696263997593964e-01
9.17696263997593964e-01
9.17696263997593964e-01
9.63510390915549464e-01
9.63510390915549464e-01
9.63510390915549464e-01
1.02335422799770304e+00
1.02335422799770304e+00
1.02335422799770304e+00
8.74381116027474370e-01
8.74381116027474370e-01
8.74381116027474370e-01
1.02424415446435391e+00
1.02424415446435391e+00
1.02424415446435391e+00
9.47811404336308949e-01
9.47811404336308949e-01
9.47811404336308949e-01
1.04122954556550318e+00
1.04122954556550318e+00
1.04122954556550318e+00
9.97328447200952151e-01
9.97328447200952151e-01
9.97328447200952151e-01
8.91667743649022126e-01
8.91667743649022126e-01
8.91667743649022126e-01
1.05080049857157709e+00
1.05080049857157709e+00
1.05080049857157709e+00
8.98571432287904814e-01
8.98571432287904814e-01
8.98571432287904814e-01
9.11707523611733017e-01
9.11707523611733017e-01
9.11707523611733017e-01
9.84798796790021358e-01
9.84798796790021358e-01
9.84798796790021358e-01
1.00551842439761741e+00
1.00551842439761741e+00
1.00551842439761741e+00
9.61459837483111923e-01
9.61459837483111923e-01
9.61459837483111923e-01
9.44168278450822518e-01
9.44168278450822518e-01
9.44168278450822518e-01
8.63295847658507420e-01
8.63295847658507420e-01
8.63295847658507420e-01
9.50632444524318942e-01
9.50632444524318942e-01
9.50632444524318942e-01
1.08321146500306531e+00
1.08321146500306531e+00
1.08321146500306531e+00
8.47945011137395177e-01
8.47945011137395177e-01
8.47945011137395177e-01
1.02462137598338177e+00
1.02462137598338177e+00
1.02462137598338177e+00
9.29941782744913570e-01
9.29941782744913570e-01
9.29941782744913570e-01
1.03924875931242466e+00
1.03924875931242466e+00
1.03924875931242466e+00
9.58900851424772327e-01
9.58900851424772327e-01
9.58900851424772327e-01
9.31903794089004589e-01
9.31903794089004589e-01
9.31903794089004589e-01
1.00551102267184755e+00
1.00551102267184755e+00
1.00551102267184755e+00
1.00302141886198903e+00
1.00302141886198903e+00
1.00302141886198903e+00
9.68113155986051188e-01
9.68113155986051188e-01
9.68113155986051188e-01
1.00874278263067874e+00
1.00874278263067874e+00
1.00874278263067874e+00
1.03927073824716865e+00
1.03927073824716865e+00
1.03927073824716865e+00
1.04954463852222557e+00
1.04954463852222557e+00
1.04954463852222557e+00
9.51644504809185277e-01
9.51644504809185277e-01
9.51644504809185277e-01
1.02693420463463214e+00
1.02693420463463214e+00
1.02693420463463214e+00
1.04757394196738884e+00
1.04757394196738884e+00
1.04757394196738884e+00
1.04807895554377484e+00
1.04807895554377484e+00
1.04807895554377484e+00
9.48573673768210113e-01
9.48573673768210113e-01
9.48573673768210113e-01
9.78157619836806713e-01
9.78157619836806713e-01
9.78157619836806713e-01
8.33461496139244584e-01
8.33461496139244584e-01
8.33461496139244584e-01
9.89663369103730428e-01
9.89663369103730428e-01
9.89663369103730428e-01
9.44906810593331148e-01
9.44906810593331148e-01
9.44906810593331148e-01
9.93903434255471563e-01
9.93903434255471563e-01
9.93903434255471563e-01
9.69599654469430972e-01
9.69599654469430972e-01
9.69599654469430972e-01
9.88935210740505832e-01
9.88935210740505832e-01
9.88935210740505832e-01
9.37981902191694084e-01
9.37981902191694084e-01
9.37981902191694084e-01
9.21775046467070092e-01
9.21775046467070092e-01
9.21775046467070092e-01
9.98900011120445908e-01
9.98900011120445908e-01
9.98900011120445908e-01


        </DataArray>

      </PointData>

      <CellData/>

      <Points>

        <DataArray type="Float64" NumberOfComponents="3" format="ascii">

0.1082531754723032 0.6875000000007816 0 0.23533274979922561 0.77093399389351469 0 0.10409951422139101 0.81206782209691231 0 0.23533274979922561 0.77093399389351469 0 0.1082531754723032 0.6875000000007816 0 0.21809253452218619 0.65480892822618109 0 0.24418615484441761 0.35773612382016978 0 0.121259140952891 0.43112117036853742 0 0.1082531754734323 0.31250000000117473 0 0.75000000000057243 0.35048094716480432 0 0.88173731489851925 0.33077402607778361 0 0.81242894672211508 0.45500248311961472 0 0.121259140952891 0.43112117036853742 0 0.24418615484441761 0.35773612382016978 0 0.22257735880419699 0.47344721641341742 0 0.81242894672211508 0.45500248311961472 0 0.88173731489851925 0.33077402607778361 0 0.915464298762109 0.43749999999886913 0 0 0.62500000000121547 0 0 0.50000000000206146 0 0.1371230538040123 0.56179824718362847 0 0.82212678063041267 0.67678595194836966 0 0.89051480781310632 0.79665793440246835 0 0.76243180583607129 0.78687675331113149 0 0.76243180583607129 0.78687675331113149 0 0.69010814643829166 0.89298495739101336 0 0.62844955668446423 0.7850749770380413 0 0.89051480781310632 0.79665793440246835 0 0.82212678063041267 0.67678595194836966 0 0.92266244547590082 0.68749999999917555 0 0 0.50000000000206146 0 0.121259140952891 0.43112117036853742 0 0.1371230538040123 0.56179824718362847 0 0.1082531754723032 0.6875000000007816 0 0 0.62500000000121547 0 0.1371230538040123 0.56179824718362847 0 0.75000000000032374 0.56698729811007709 0 0.88927506082488361 0.56409486310635837 0 0.82212678063041267 0.67678595194836966 0 0.81242894672211508 0.45500248311961472 0 0.88927506082488361 0.56409486310635837 0 0.75000000000032374 0.56698729811007709 0 0.69851598570178741 0.68211701800612057 0 0.56496004948275869 0.67675037307860475 0 0.62752533658682441 0.56838075195614346 0 0.69851598570178741 0.68211701800612057 0 0.76243180583607129 0.78687675331113149 0 0.62844955668446423 0.7850749770380413 0 0.23533274979922561 0.77093399389351469 0 0.18802967116092181 0.89415349436770275 0 0.10409951422139101 0.81206782209691231 0 0.121259140952891 0.43112117036853742 0 0.22257735880419699 0.47344721641341742 0 0.1371230538040123 0.56179824718362847 0 0.75000000000032374 0.56698729811007709 0 0.69851598570178741 0.68211701800612057 0 0.62752533658682441 0.56838075195614346 0 0.56496004948275869 0.67675037307860475 0 0.69851598570178741 0.68211701800612057 0 0.62844955668446423 0.7850749770380413 0 0.1371230538040123 0.56179824718362847 0 0.22257735880419699 0.47344721641341742 0 0.26982811998763367 0.56544650815856912 0 0.21809253452218619 0.65480892822618109 0 0.1371230538040123 0.56179824718362847 0 0.26982811998763367 0.56544650815856912 0 0.24418615484441761 0.35773612382016978 0 0.1082531754734323 0.31250000000117473 0 0.20767261601459541 0.25628918442207171 0 0.88173731489851925 0.33077402607778361 0 0.75000000000057243 0.35048094716480432 0 0.79891106056046712 0.25007334953587562 0 0.75000000000032374 0.56698729811007709 0 0.82212678063041267 0.67678595194836966 0 0.69851598570178741 0.68211701800612057 0 0.81249999999950517 0.1082531754733404 0 0.89658421694297741 0.1933620068391701 0 0.79891106056046712 0.25007334953587562 0 0.81249999999950517 0.1082531754733404 0 0.79891106056046712 0.25007334953587562 0 0.73983916756365475 0.17530677078674589 0 0.23533274979922561 0.77093399389351469 0 0.21809253452218619 0.65480892822618109 0 0.32607333794064219 0.67760114260606152 0 0.1082531754723032 0.6875000000007816 0 0.1371230538040123 0.56179824718362847 0 0.21809253452218619 0.65480892822618109 0 0.69851598570178741 0.68211701800612057 0 0.82212678063041267 0.67678595194836966 0 0.76243180583607129 0.78687675331113149 0 0.69010814643829166 0.89298495739101336 0 0.76243180583607129 0.78687675331113149 0 0.80886664387416207 0.89717308644237903 0 0.43750000000181222 0.89174682452709564 0 0.31258827852827581 0.89214793616708443 0 0.37776173212361452 0.78514649317305008 0 0.43750000000181222 0.89174682452709564 0 0.37500000000156292 1 0 0.31258827852827581 0.89214793616708443 0 0.121259140952891 0.43112117036853742 0 0 0.37500000000156292 0 0.1082531754734323 0.31250000000117473 0 0.50000000000206146 1 0 0.37500000000156292 1 0 0.43750000000181222 0.89174682452709564 0 0.31258827852827581 0.89214793616708443 0 0.18802967116092181 0.89415349436770275 0 0.23533274979922561 0.77093399389351469 0 0 0.50000000000206146 0 0 0.37500000000156292 0 0.121259140952891 0.43112117036853742 0 0.62844955668446423 0.7850749770380413 0 0.69010814643829166 0.89298495739101336 0 0.56327595140699671 0.89211526915426331 0 0.69010814643829166 0.89298495739101336 0 0.62500000000121547 1 0 0.56327595140699671 0.89211526915426331 0 0.25000000000104189 1 0 0.18802967116092181 0.89415349436770275 0 0.31258827852827581 0.89214793616708443 0 0.50000000000206146 1 0 0.43750000000181222 0.89174682452709564 0 0.56327595140699671 0.89211526915426331 0 0.56249999999885147 0.1082531754730395 0 0.62499999999901068 0 0 0.68749999999926592 0.1082531754732875 0 1 0.49999999999869221 0 1 0.62499999999901068 0 0.88927506082488361 0.56409486310635837 0 0 0.25000000000104189 0 0.12076953676380731 0.18690935762408761 0 0.1082531754734323 0.31250000000117473 0 0.49999999999869221 0 0 0.62499999999901068 0 0 0.56249999999885147 0.1082531754730395 0 0.62500000000121547 1 0 0.50000000000206146 1 0 0.56327595140699671 0.89211526915426331 0 0.37500000000156292 1 0 0.25000000000104189 1 0 0.31258827852827581 0.89214793616708443 0 0.31281086598417152 0.10449318608631281 0 0.37499999999904599 0 0 0.43749999999910871 0.1082531754729984 0 0.43750000000181222 0.89174682452709564 0 0.37776173212361452 0.78514649317305008 0 0.50046028868828263 0.78376912307435687 0 0 0.37500000000156292 0 0 0.25000000000104189 0 0.1082531754734323 0.31250000000117473 0 0.49999999999869221 0 0 0.56249999999885147 0.1082531754730395 0 0.43749999999910871 0.1082531754729984 0 0.43750000000181222 0.89174682452709564 0 0.50046028868828263 0.78376912307435687 0 0.56327595140699671 0.89211526915426331 0 0.74999999999934042 0 0 0.81249999999950517 0.1082531754733404 0 0.68749999999926592 0.1082531754732875 0 0.37499999999904599 0 0 0.49999999999869221 0 0 0.43749999999910871 0.1082531754729984 0 0.25000000000104189 1 0 0.12500000000052089 1 0 0.18802967116092181 0.89415349436770275 0 0.50046028868828263 0.78376912307435687 0 0.62844955668446423 0.7850749770380413 0 0.56327595140699671 0.89211526915426331 0 0.37776173212361452 0.78514649317305008 0 0.31258827852827581 0.89214793616708443 0 0.23533274979922561 0.77093399389351469 0 0.62499999999901068 0 0 0.74999999999934042 0 0 0.68749999999926592 0.1082531754732875 0 1 0.74999999999934042 0 1 0.87499999999967015 0 0.89051480781310632 0.79665793440246835 0 0 0.25000000000104189 0 0 0.12500000000052089 0 0.12076953676380731 0.18690935762408761 0 0.74999999999934042 0 0 0.87499999999967015 0 0 0.81249999999950517 0.1082531754733404 0 0.24999999999941069 0 0 0.37499999999904599 0 0 0.31281086598417152 0.10449318608631281 0 0.50046028868828263 0.78376912307435687 0 0.37776173212361452 0.78514649317305008 0 0.44078402250377968 0.67714785211715212 0 0.68768773896438518 0.4586835206367198 0 0.75000000000032374 0.56698729811007709 0 0.62752533658682441 0.56838075195614346 0 0.31411863959822661 0.24965544328045999 0 0.37953773393552892 0.34812185820708452 0 0.24418615484441761 0.35773612382016978 0 0.68768773896438518 0.4586835206367198 0 0.81242894672211508 0.45500248311961472 0 0.75000000000032374 0.56698729811007709 0 1 0.24999999999941069 0 1 0.37499999999904599 0 0.88173731489851925 0.33077402607778361 0 0 0.75000000000034761 0 0 0.62500000000121547 0 0.1082531754723032 0.6875000000007816 0 0.50048844149666749 0.56727788297625459 0 0.44078402250377968 0.67714785211715212 0 0.38694285807596462 0.5672991787102919 0 0.50108503093851109 0.35012252869403671 0 0.44301038174930041 0.45684931552185398 0 0.37953773393552892 0.34812185820708452 0 0.50046028868828263 0.78376912307435687 0 0.56496004948275869 0.67675037307860475 0 0.62844955668446423 0.7850749770380413 0 0.68768773896438518 0.4586835206367198 0 0.75000000000057243 0.35048094716480432 0 0.81242894672211508 0.45500248311961472 0 0.56349980387502452 0.45846841892908402 0 0.62512662990940393 0.35044303886909911 0 0.68768773896438518 0.4586835206367198 0 0.50048844149666749 0.56727788297625459 0 0.38694285807596462 0.5672991787102919 0 0.44301038174930041 0.45684931552185398 0 0.50046028868828263 0.78376912307435687 0 0.44078402250377968 0.67714785211715212 0 0.56496004948275869 0.67675037307860475 0 0.50108503093851109 0.35012252869403671 0 0.37953773393552892 0.34812185820708452 0 0.43750000000200551 0.24222777169198509 0 0.75000000000034761 1 0 0.62500000000121547 1 0 0.69010814643829166 0.89298495739101336 0 0.68768773896438518 0.4586835206367198 0 0.62512662990940393 0.35044303886909911 0 0.75000000000057243 0.35048094716480432 0 0.56496004948275869 0.67675037307860475 0 0.44078402250377968 0.67714785211715212 0 0.50048844149666749 0.56727788297625459 0 0.56349980387502452 0.45846841892908402 0 0.44301038174930041 0.45684931552185398 0 0.50108503093851109 0.35012252869403671 0 0.50048844149666749 0.56727788297625459 0 0.44301038174930041 0.45684931552185398 0 0.56349980387502452 0.45846841892908402 0 0.56349980387502452 0.45846841892908402 0 0.50108503093851109 0.35012252869403671 0 0.62512662990940393 0.35044303886909911 0 0.43750000000200551 0.24222777169198509 0 0.37953773393552892 0.34812185820708452 0 0.31411863959822661 0.24965544328045999 0 0.56496004948275869 0.67675037307860475 0 0.50048844149666749 0.56727788297625459 0 0.62752533658682441 0.56838075195614346 0 0.56349980387502452 0.45846841892908402 0 0.68768773896438518 0.4586835206367198 0 0.62752533658682441 0.56838075195614346 0 0.50048844149666749 0.56727788297625459 0 0.56349980387502452 0.45846841892908402 0 0.62752533658682441 0.56838075195614346 0 0.75000000000057243 0.35048094716480432 0 0.62512662990940393 0.35044303886909911 0 0.68668231842078242 0.24762892664808989 0 0.50108503093851109 0.35012252869403671 0 0.43750000000200551 0.24222777169198509 0 0.56250000000143974 0.2422277716920859 0 0.62512662990940393 0.35044303886909911 0 0.50108503093851109 0.35012252869403671 0 0.56250000000143974 0.2422277716920859 0 0.68668231842078242 0.24762892664808989 0 0.62512662990940393 0.35044303886909911 0 0.56250000000143974 0.2422277716920859 0 0.22257735880419699 0.47344721641341742 0 0.24418615484441761 0.35773612382016978 0 0.32815957677880009 0.4577243358118348 0 0.12076953676380731 0.18690935762408761 0 0.19185372118111221 0.092925648673580788 0 0.25103557339309318 0.17464499738446629 0 0.20767261601459541 0.25628918442207171 0 0.12076953676380731 0.18690935762408761 0 0.25103557339309318 0.17464499738446629 0 0 0.87499999999950151 0 0 0.75000000000034761 0 0.10409951422139101 0.81206782209691231 0 0.1249999999997731 0 0 0.24999999999941069 0 0 0.19185372118111221 0.092925648673580788 0 1 0.1249999999997731 0 1 0.24999999999941069 0 0.89658421694297741 0.1933620068391701 0 0.88927506082488361 0.56409486310635837 0 0.81242894672211508 0.45500248311961472 0 0.915464298762109 0.43749999999886913 0 0.87499999999950151 1 0 0.75000000000034761 1 0 0.80886664387416207 0.89717308644237903 0 0.75000000000034761 1 0 0.69010814643829166 0.89298495739101336 0 0.80886664387416207 0.89717308644237903 0 0.82212678063041267 0.67678595194836966 0 0.88927506082488361 0.56409486310635837 0 0.92266244547590082 0.68749999999917555 0 0 0.75000000000034761 0 0.1082531754723032 0.6875000000007816 0 0.10409951422139101 0.81206782209691231 0 0.24999999999941069 0 0 0.31281086598417152 0.10449318608631281 0 0.19185372118111221 0.092925648673580788 0 1 0.24999999999941069 0 0.88173731489851925 0.33077402607778361 0 0.89658421694297741 0.1933620068391701 0 0.32815957677880009 0.4577243358118348 0 0.38694285807596462 0.5672991787102919 0 0.26982811998763367 0.56544650815856912 0 0.76243180583607129 0.78687675331113149 0 0.89051480781310632 0.79665793440246835 0 0.80886664387416207 0.89717308644237903 0 0.38694285807596462 0.5672991787102919 0 0.44078402250377968 0.67714785211715212 0 0.32607333794064219 0.67760114260606152 0 0.37776173212361452 0.78514649317305008 0 0.23533274979922561 0.77093399389351469 0 0.32607333794064219 0.67760114260606152 0 1 0.49999999999869221 0 0.88927506082488361 0.56409486310635837 0 0.915464298762109 0.43749999999886913 0 0.88173731489851925 0.33077402607778361 0 1 0.37499999999904599 0 0.915464298762109 0.43749999999886913 0 0.24418615484441761 0.35773612382016978 0 0.37953773393552892 0.34812185820708452 0 0.32815957677880009 0.4577243358118348 0 0.44301038174930041 0.45684931552185398 0 0.38694285807596462 0.5672991787102919 0 0.32815957677880009 0.4577243358118348 0 0.88927506082488361 0.56409486310635837 0 1 0.62499999999901068 0 0.92266244547590082 0.68749999999917555 0 1 0.74999999999934042 0 0.89051480781310632 0.79665793440246835 0 0.92266244547590082 0.68749999999917555 0 0 1 0 0 0.87499999999950151 0 0.091506350946494744 0.90849364905351082 0 1 1 0 0.87499999999950151 1 0 0.90849364905363228 0.90849364905367769 0 0 0 0 0.1249999999997731 0 0 0.091506350946417708 0.091506350946618076 0 0 0.12500000000052089 0 0 0 0 0.091506350946417708 0.091506350946618076 0 1 0 0 1 0.1249999999997731 0 0.90849364905355434 0.091506350946296292 0 0.87499999999967015 0 0 1 0 0 0.90849364905355434 0.091506350946296292 0 0.12500000000052089 1 0 0 1 0 0.091506350946494744 0.90849364905351082 0 1 0.87499999999967015 0 1 1 0 0.90849364905363228 0.90849364905367769 0 0.38694285807596462 0.5672991787102919 0 0.32607333794064219 0.67760114260606152 0 0.26982811998763367 0.56544650815856912 0 0.31411863959822661 0.24965544328045999 0 0.24418615484441761 0.35773612382016978 0 0.20767261601459541 0.25628918442207171 0 0.1082531754734323 0.31250000000117473 0 0.12076953676380731 0.18690935762408761 0 0.20767261601459541 0.25628918442207171 0 0.75000000000057243 0.35048094716480432 0 0.68668231842078242 0.24762892664808989 0 0.79891106056046712 0.25007334953587562 0 0.22257735880419699 0.47344721641341742 0 0.32815957677880009 0.4577243358118348 0 0.26982811998763367 0.56544650815856912 0 0.44078402250377968 0.67714785211715212 0 0.37776173212361452 0.78514649317305008 0 0.32607333794064219 0.67760114260606152 0 0.89658421694297741 0.1933620068391701 0 0.88173731489851925 0.33077402607778361 0 0.79891106056046712 0.25007334953587562 0 1 0.37499999999904599 0 1 0.49999999999869221 0 0.915464298762109 0.43749999999886913 0 0.37953773393552892 0.34812185820708452 0 0.44301038174930041 0.45684931552185398 0 0.32815957677880009 0.4577243358118348 0 0.32607333794064219 0.67760114260606152 0 0.21809253452218619 0.65480892822618109 0 0.26982811998763367 0.56544650815856912 0 1 0.1249999999997731 0 0.89658421694297741 0.1933620068391701 0 0.90849364905355434 0.091506350946296292 0 0 0.87499999999950151 0 0.10409951422139101 0.81206782209691231 0 0.091506350946494744 0.90849364905351082 0 0.1249999999997731 0 0 0.19185372118111221 0.092925648673580788 0 0.091506350946417708 0.091506350946618076 0 1 0.62499999999901068 0 1 0.74999999999934042 0 0.92266244547590082 0.68749999999917555 0 0.18802967116092181 0.89415349436770275 0 0.12500000000052089 1 0 0.091506350946494744 0.90849364905351082 0 0.89051480781310632 0.79665793440246835 0 1 0.87499999999967015 0 0.90849364905363228 0.90849364905367769 0 0.12076953676380731 0.18690935762408761 0 0 0.12500000000052089 0 0.091506350946417708 0.091506350946618076 0 0.81249999999950517 0.1082531754733404 0 0.87499999999967015 0 0 0.90849364905355434 0.091506350946296292 0 0.87499999999950151 1 0 0.80886664387416207 0.89717308644237903 0 0.90849364905363228 0.90849364905367769 0 0.68668231842078242 0.24762892664808989 0 0.62499999999892575 0.17524047358135519 0 0.73983916756365475 0.17530677078674589 0 0.31281086598417152 0.10449318608631281 0 0.43749999999910871 0.1082531754729984 0 0.37500000000232431 0.17524047358384309 0 0.62499999999892575 0.17524047358135519 0 0.56250000000143974 0.2422277716920859 0 0.49999999999934441 0.1752404735815076 0 0.56249999999885147 0.1082531754730395 0 0.68749999999926592 0.1082531754732875 0 0.62499999999892575 0.17524047358135519 0 0.56249999999885147 0.1082531754730395 0 0.62499999999892575 0.17524047358135519 0 0.49999999999934441 0.1752404735815076 0 0.56250000000143974 0.2422277716920859 0 0.43750000000200551 0.24222777169198509 0 0.49999999999934441 0.1752404735815076 0 0.43749999999910871 0.1082531754729984 0 0.56249999999885147 0.1082531754730395 0 0.49999999999934441 0.1752404735815076 0 0.68668231842078242 0.24762892664808989 0 0.56250000000143974 0.2422277716920859 0 0.62499999999892575 0.17524047358135519 0 0.43750000000200551 0.24222777169198509 0 0.31411863959822661 0.24965544328045999 0 0.37500000000232431 0.17524047358384309 0 0.49999999999934441 0.1752404735815076 0 0.43750000000200551 0.24222777169198509 0 0.37500000000232431 0.17524047358384309 0 0.43749999999910871 0.1082531754729984 0 0.49999999999934441 0.1752404735815076 0 0.37500000000232431 0.17524047358384309 0 0.62499999999892575 0.17524047358135519 0 0.68749999999926592 0.1082531754732875 0 0.73983916756365475 0.17530677078674589 0 0.68749999999926592 0.1082531754732875 0 0.81249999999950517 0.1082531754733404 0 0.73983916756365475 0.17530677078674589 0 0.10409951422139101 0.81206782209691231 0 0.18802967116092181 0.89415349436770275 0 0.091506350946494744 0.90849364905351082 0 0.89658421694297741 0.1933620068391701 0 0.81249999999950517 0.1082531754733404 0 0.90849364905355434 0.091506350946296292 0 0.19185372118111221 0.092925648673580788 0 0.12076953676380731 0.18690935762408761 0 0.091506350946417708 0.091506350946618076 0 0.37500000000232431 0.17524047358384309 0 0.31411863959822661 0.24965544328045999 0 0.25103557339309318 0.17464499738446629 0 0.31281086598417152 0.10449318608631281 0 0.37500000000232431 0.17524047358384309 0 0.25103557339309318 0.17464499738446629 0 0.80886664387416207 0.89717308644237903 0 0.89051480781310632 0.79665793440246835 0 0.90849364905363228 0.90849364905367769 0 0.19185372118111221 0.092925648673580788 0 0.31281086598417152 0.10449318608631281 0 0.25103557339309318 0.17464499738446629 0 0.79891106056046712 0.25007334953587562 0 0.68668231842078242 0.24762892664808989 0 0.73983916756365475 0.17530677078674589 0 0.31411863959822661 0.24965544328045999 0 0.20767261601459541 0.25628918442207171 0 0.25103557339309318 0.17464499738446629 0 

        </DataArray>

      </Points>

      <Cells>

        <DataArray type="Int32" Name="connectivity" format="ascii">

0 1 2 3 4 5 6 7 8 9 10 11 12 13 14 15 16 17 18 19 20 21 22 23 24 25 26 27 28 29 30 31 32 33 34 35 36 37 38 39 40 41 42 43 44 45 46 47 48 49 50 51 52 53 54 55 56 57 58 59 60 61 62 63 64 65 66 67 68 69 70 71 72 73 74 75 76 77 78 79 80 81 82 83 84 85 86 87 88 89 90 91 92 93 94 95 96 97 98 99 100 101 102 103 104 105 106 107 108 109 110 111 112 113 114 115 116 117 118 119 120 121 122 123 124 125 126 127 128 129 130 131 132 133 134 135 136 137 138 139 140 141 142 143 144 145 146 147 148 149 150 151 152 153 154 155 156 157 158 159 160 161 162 163 164 165 166 167 168 169 170 171 172 173 174 175 176 177 178 179 180 181 182 183 184 185 186 187 188 189 190 191 192 193 194 195 196 197 198 199 200 201 202 203 204 205 206 207 208 209 210 211 212 213 214 215 216 217 218 219 220 221 222 223 224 225 226 227 228 229 230 231 232 233 234 235 236 237 238 239 240 241 242 243 244 245 246 247 248 249 250 251 252 253 254 255 256 257 258 259 260 261 262 263 264 265 266 267 268 269 270 271 272 273 274 275 276 277 278 279 280 281 282 283 284 285 286 287 288 289 290 291 292 293 294 295 296 297 298 299 300 301 302 303 304 305 306 307 308 309 310 311 312 313 314 315 316 317 318 319 320 321 322 323 324 325 326 327 328 329 330 331 332 333 334 335 336 337 338 339 340 341 342 343 344 345 346 347 348 349 350 351 352 353 354 355 356 357 358 359 360 361 362 363 364 365 366 367 368 369 370 371 372 373 374 375 376 377 378 379 380 381 382 383 384 385 386 387 388 389 390 391 392 393 394 395 396 397 398 399 400 401 402 403 404 405 406 407 408 409 410 411 412 413 414 415 416 417 418 419 420 421 422 423 424 425 426 427 428 429 430 431 432 433 434 435 436 437 438 439 440 441 442 443 444 445 446 447 448 449 450 451 452 453 454 455 456 457 458 459 460 461 462 463 464 465 466 467 468 469 470 471 472 473 474 475 476 477 478 479 480 481 482 483 484 485 

        </DataArray>

        <DataArray type="Int32" Name="offsets" format="ascii">

3 6 9 12 15 18 21 24 27 30 33 36 39 42 45 48 51 54 57 60 63 66 69 72 75 78 81 84 87 90 93 96 99 102 105 108 111 114 117 120 123 126 129 132 135 138 141 144 147 150 153 156 159 162 165 168 171 174 177 180 183 186 189 192 195 198 201 204 207 210 213 216 219 222 225 228 231 234 237 240 243 246 249 252 255 258 261 264 267 270 273 276 279 282 285 288 291 294 297 300 303 306 309 312 315 318 321 324 327 330 333 336 339 342 345 348 351 354 357 360 363 366 369 372 375 378 381 384 387 390 393 396 399 402 405 408 411 414 417 420 423 426 429 432 435 438 441 444 447 450 453 456 459 462 465 468 471 474 477 480 483 486 

        </DataArray>

        <DataArray type="Int32" Name="types" format="ascii">

5 5 5 5 5 5 5 5 5 5 5 5 5 5 5 5 5 5 5 5 5 5 5 5 5 5 5 5 5 5 5 5 5 5 5 5 5 5 5 5 5 5 5 5 5 5 5 5 5 5 5 5 5 5 5 5 5 5 5 5 5 5 5 5 5 5 5 5 5 5 5 5 5 5 5 5 5 5 5 5 5 5 5 5 5 5 5 5 5 5 5 5 5 5 5 5 5 5 5 5 5 5 5 5 5 5 5 5 5 5 5 5 5 5 5 5 5 5 5 5 5 5 5 5 5 5 5 5 5 5 5 5 5 5 5 5 5 5 5 5 5 5 5 5 5 5 5 5 5 5 5 5 5 5 5 5 5 5 5 5 5 5 

        </DataArray>

      </Cells>

    </Piece>

  </UnstructuredGrid>

</VTKFile>

