<?xml version="1.0"?>

<VTKFile type="UnstructuredGrid" version="0.1">

  <UnstructuredGrid>

    <Piece NumberOfPoints="486" NumberOfCells="162">

      <PointData>

        <DataArray type="Float64" Name="K" format="ascii">

1.03573386594323180e+00
1.03573386594323180e+00
1.03573386594323180e+00
1.03611153856270133e+00
1.03611153856270133e+00
1.03611153856270133e+00
1.04030600402648843e+00
1.04030600402648843e+00
1.04030600402648843e+00
9.86242200061345664e-01
9.86242200061345664e-01
9.86242200061345664e-01
1.02655820913017637e+00
1.02655820913017637e+00
1.02655820913017637e+00
9.71837766348387477e-01
9.71837766348387477e-01
9.71837766348387477e-01
9.97173048796130335e-01
9.97173048796130335e-01
9.97173048796130335e-01
9.77101390435358375e-01
9.77101390435358375e-01
9.77101390435358375e-01
9.61094049332088751e-01
9.61094049332088751e-01
9.61094049332088751e-01
9.94316977858271667e-01
9.94316977858271667e-01
9.94316977858271667e-01
1.00989526454122225e+00
1.00989526454122225e+00
1.00989526454122225e+00
1.00379046288914142e+00
1.00379046288914142e+00
1.00379046288914142e+00
9.48276302269181359e-01
9.48276302269181359e-01
9.48276302269181359e-01
9.49184337992617699e-01
9.49184337992617699e-01
9.49184337992617699e-01
9.53349860484497658e-01
9.53349860484497658e-01
9.53349860484497658e-01
9.50138064867826704e-01
9.50138064867826704e-01
9.50138064867826704e-01
1.02663691424510062e+00
1.02663691424510062e+00
1.02663691424510062e+00
1.01952194465766355e+00
1.01952194465766355e+00
1.01952194465766355e+00
9.37589755298252392e-01
9.37589755298252392e-01
9.37589755298252392e-01
9.64241110940197599e-01
9.64241110940197599e-01
9.64241110940197599e-01
1.02151345516289638e+00
1.02151345516289638e+00
1.02151345516289638e+00
1.02603765470824682e+00
1.02603765470824682e+00
1.02603765470824682e+00
1.04708891827633166e+00
1.04708891827633166e+00
1.04708891827633166e+00
1.00899531285310373e+00
1.00899531285310373e+00
1.00899531285310373e+00
9.36605886318071734e-01
9.36605886318071734e-01
9.36605886318071734e-01
1.03677835967309018e+00
1.03677835967309018e+00
1.03677835967309018e+00
1.04238615427917036e+00
1.04238615427917036e+00
1.04238615427917036e+00
1.01567710274118861e+00
1.01567710274118861e+00
1.01567710274118861e+00
1.02580951285847721e+00
1.02580951285847721e+00
1.02580951285847721e+00
9.45339965635086710e-01
9.45339965635086710e-01
9.45339965635086710e-01
9.73324685046817684e-01
9.73324685046817684e-01
9.73324685046817684e-01
9.75064847207156804e-01
9.75064847207156804e-01
9.75064847207156804e-01
9.76213784194153500e-01
9.76213784194153500e-01
9.76213784194153500e-01
1.03572900590355776e+00
1.03572900590355776e+00
1.03572900590355776e+00
9.71371511117441133e-01
9.71371511117441133e-01
9.71371511117441133e-01
1.00327784483125115e+00
1.00327784483125115e+00
1.00327784483125115e+00
1.01597092658973764e+00
1.01597092658973764e+00
1.01597092658973764e+00
9.77009199626529767e-01
9.77009199626529767e-01
9.77009199626529767e-01
9.80846920404687239e-01
9.80846920404687239e-01
9.80846920404687239e-01
9.85557651202429663e-01
9.85557651202429663e-01
9.85557651202429663e-01
9.79796674465827300e-01
9.79796674465827300e-01
9.79796674465827300e-01
1.06373685770828086e+00
1.06373685770828086e+00
1.06373685770828086e+00
9.77372190867543789e-01
9.77372190867543789e-01
9.77372190867543789e-01
1.04635964235003032e+00
1.04635964235003032e+00
1.04635964235003032e+00
1.04120975267752813e+00
1.04120975267752813e+00
1.04120975267752813e+00
9.78180878265294984e-01
9.78180878265294984e-01
9.78180878265294984e-01
9.77414958086008978e-01
9.77414958086008978e-01
9.77414958086008978e-01
1.03081147423938368e+00
1.03081147423938368e+00
1.03081147423938368e+00
9.77185003426502496e-01
9.77185003426502496e-01
9.77185003426502496e-01
1.03006785294624548e+00
1.03006785294624548e+00
1.03006785294624548e+00
1.05347760552820047e+00
1.05347760552820047e+00
1.05347760552820047e+00
9.88166804197449178e-01
9.88166804197449178e-01
9.88166804197449178e-01
1.05758689470448175e+00
1.05758689470448175e+00
1.05758689470448175e+00
1.02675577178805910e+00
1.02675577178805910e+00
1.02675577178805910e+00
9.77990820989130039e-01
9.77990820989130039e-01
9.77990820989130039e-01
9.88954143014323606e-01
9.88954143014323606e-01
9.88954143014323606e-01
9.85964766701403428e-01
9.85964766701403428e-01
9.85964766701403428e-01
1.05985007545961851e+00
1.05985007545961851e+00
1.05985007545961851e+00
1.01200276293086078e+00
1.01200276293086078e+00
1.01200276293086078e+00
1.02407355810774470e+00
1.02407355810774470e+00
1.02407355810774470e+00
1.04028114001296434e+00
1.04028114001296434e+00
1.04028114001296434e+00
1.01038956776969902e+00
1.01038956776969902e+00
1.01038956776969902e+00
9.66734089579607159e-01
9.66734089579607159e-01
9.66734089579607159e-01
9.37755337460316696e-01
9.37755337460316696e-01
9.37755337460316696e-01
1.03831333545637206e+00
1.03831333545637206e+00
1.03831333545637206e+00
9.46842318093303770e-01
9.46842318093303770e-01
9.46842318093303770e-01
9.66565646091445685e-01
9.66565646091445685e-01
9.66565646091445685e-01
1.00121134132441747e+00
1.00121134132441747e+00
1.00121134132441747e+00
9.54197817940247939e-01
9.54197817940247939e-01
9.54197817940247939e-01
1.03885379648050624e+00
1.03885379648050624e+00
1.03885379648050624e+00
9.83560226121068970e-01
9.83560226121068970e-01
9.83560226121068970e-01
9.64444784121686105e-01
9.64444784121686105e-01
9.64444784121686105e-01
9.55757406898079864e-01
9.55757406898079864e-01
9.55757406898079864e-01
9.69205876750874107e-01
9.69205876750874107e-01
9.69205876750874107e-01
9.72566918858607354e-01
9.72566918858607354e-01
9.72566918858607354e-01
1.07070173353245623e+00
1.07070173353245623e+00
1.07070173353245623e+00
9.87934878480509981e-01
9.87934878480509981e-01
9.87934878480509981e-01
9.64045316316718304e-01
9.64045316316718304e-01
9.64045316316718304e-01
9.58228982089503245e-01
9.58228982089503245e-01
9.58228982089503245e-01
1.00117233561208785e+00
1.00117233561208785e+00
1.00117233561208785e+00
9.68527525880457318e-01
9.68527525880457318e-01
9.68527525880457318e-01
9.92492821491442023e-01
9.92492821491442023e-01
9.92492821491442023e-01
1.06222563279258120e+00
1.06222563279258120e+00
1.06222563279258120e+00
9.54848691136456873e-01
9.54848691136456873e-01
9.54848691136456873e-01
9.42157580116644744e-01
9.42157580116644744e-01
9.42157580116644744e-01
9.49302060200180042e-01
9.49302060200180042e-01
9.49302060200180042e-01
9.91103905825674647e-01
9.91103905825674647e-01
9.91103905825674647e-01
1.07777776481296628e+00
1.07777776481296628e+00
1.07777776481296628e+00
1.03272974461429667e+00
1.03272974461429667e+00
1.03272974461429667e+00
1.02080713164027959e+00
1.02080713164027959e+00
1.02080713164027959e+00
1.02126910238243829e+00
1.02126910238243829e+00
1.02126910238243829e+00
1.04320022548384395e+00
1.04320022548384395e+00
1.04320022548384395e+00
1.05137660107020015e+00
1.05137660107020015e+00
1.05137660107020015e+00
1.01958481790472821e+00
1.01958481790472821e+00
1.01958481790472821e+00
9.98746904450558914e-01
9.98746904450558914e-01
9.98746904450558914e-01
9.97526202166504117e-01
9.97526202166504117e-01
9.97526202166504117e-01
9.57722538648493549e-01
9.57722538648493549e-01
9.57722538648493549e-01
9.98452079737023768e-01
9.98452079737023768e-01
9.98452079737023768e-01
9.86764277163012293e-01
9.86764277163012293e-01
9.86764277163012293e-01
9.75244296629047103e-01
9.75244296629047103e-01
9.75244296629047103e-01
1.01801154218210588e+00
1.01801154218210588e+00
1.01801154218210588e+00
1.01431420073462242e+00
1.01431420073462242e+00
1.01431420073462242e+00
9.95640269712255721e-01
9.95640269712255721e-01
9.95640269712255721e-01
9.99459639917702591e-01
9.99459639917702591e-01
9.99459639917702591e-01
9.89862697563709260e-01
9.89862697563709260e-01
9.89862697563709260e-01
9.60721410554236432e-01
9.60721410554236432e-01
9.60721410554236432e-01
9.86089762530780622e-01
9.86089762530780622e-01
9.86089762530780622e-01
9.59948335954856846e-01
9.59948335954856846e-01
9.59948335954856846e-01
9.62357093776474715e-01
9.62357093776474715e-01
9.62357093776474715e-01
1.02861664405193598e+00
1.02861664405193598e+00
1.02861664405193598e+00
9.95647374504698979e-01
9.95647374504698979e-01
9.95647374504698979e-01
9.88898144452655004e-01
9.88898144452655004e-01
9.88898144452655004e-01
1.01271578752865632e+00
1.01271578752865632e+00
1.01271578752865632e+00
1.01873522590328225e+00
1.01873522590328225e+00
1.01873522590328225e+00
1.00415859221018300e+00
1.00415859221018300e+00
1.00415859221018300e+00
1.00056727768591003e+00
1.00056727768591003e+00
1.00056727768591003e+00
1.00507019454901170e+00
1.00507019454901170e+00
1.00507019454901170e+00
1.01049242599626021e+00
1.01049242599626021e+00
1.01049242599626021e+00
1.01032981913407038e+00
1.01032981913407038e+00
1.01032981913407038e+00
9.96483830701377804e-01
9.96483830701377804e-01
9.96483830701377804e-01
1.00334734031626005e+00
1.00334734031626005e+00
1.00334734031626005e+00
9.87810004693618904e-01
9.87810004693618904e-01
9.87810004693618904e-01
1.03815000150218384e+00
1.03815000150218384e+00
1.03815000150218384e+00
1.05803731512448773e+00
1.05803731512448773e+00
1.05803731512448773e+00
1.01038016676332543e+00
1.01038016676332543e+00
1.01038016676332543e+00
1.01540436519638799e+00
1.01540436519638799e+00
1.01540436519638799e+00
9.61437472727505127e-01
9.61437472727505127e-01
9.61437472727505127e-01
1.01892209449781568e+00
1.01892209449781568e+00
1.01892209449781568e+00
9.55183807835877197e-01
9.55183807835877197e-01
9.55183807835877197e-01
1.02486676084995953e+00
1.02486676084995953e+00
1.02486676084995953e+00
1.01211855033767484e+00
1.01211855033767484e+00
1.01211855033767484e+00
1.01502247925941647e+00
1.01502247925941647e+00
1.01502247925941647e+00
1.02214997321896428e+00
1.02214997321896428e+00
1.02214997321896428e+00
1.01094620731988116e+00
1.01094620731988116e+00
1.01094620731988116e+00
1.00591045154690240e+00
1.00591045154690240e+00
1.00591045154690240e+00
9.95967525053325087e-01
9.95967525053325087e-01
9.95967525053325087e-01
1.01343760404433847e+00
1.01343760404433847e+00
1.01343760404433847e+00
1.02486840216732267e+00
1.02486840216732267e+00
1.02486840216732267e+00
1.02852477652904106e+00
1.02852477652904106e+00
1.02852477652904106e+00
1.00565994245919343e+00
1.00565994245919343e+00
1.00565994245919343e+00
1.04166469369938808e+00
1.04166469369938808e+00
1.04166469369938808e+00
1.04798355662355602e+00
1.04798355662355602e+00
1.04798355662355602e+00
1.07980436085629328e+00
1.07980436085629328e+00
1.07980436085629328e+00
1.06991939323298713e+00
1.06991939323298713e+00
1.06991939323298713e+00
1.08205031790387451e+00
1.08205031790387451e+00
1.08205031790387451e+00
1.09175800759530373e+00
1.09175800759530373e+00
1.09175800759530373e+00
1.07999178240607963e+00
1.07999178240607963e+00
1.07999178240607963e+00
1.04844929214162441e+00
1.04844929214162441e+00
1.04844929214162441e+00
1.06327433671148874e+00
1.06327433671148874e+00
1.06327433671148874e+00
1.08415073081937519e+00
1.08415073081937519e+00
1.08415073081937519e+00
1.07490329971035914e+00
1.07490329971035914e+00
1.07490329971035914e+00
1.05609214309619026e+00
1.05609214309619026e+00
1.05609214309619026e+00
1.05331751737763879e+00
1.05331751737763879e+00
1.05331751737763879e+00
1.01895866249609202e+00
1.01895866249609202e+00
1.01895866249609202e+00
1.03167720895027659e+00
1.03167720895027659e+00
1.03167720895027659e+00
1.03446867697555467e+00
1.03446867697555467e+00
1.03446867697555467e+00
1.04285710494730144e+00
1.04285710494730144e+00
1.04285710494730144e+00
1.03771708252047290e+00
1.03771708252047290e+00
1.03771708252047290e+00
1.00929127693045984e+00
1.00929127693045984e+00
1.00929127693045984e+00
1.03104418287562694e+00
1.03104418287562694e+00
1.03104418287562694e+00
1.03019408795641798e+00
1.03019408795641798e+00
1.03019408795641798e+00
1.04151936432335579e+00
1.04151936432335579e+00
1.04151936432335579e+00


        </DataArray>

      </PointData>

      <CellData/>

      <Points>

        <DataArray type="Float64" NumberOfComponents="3" format="ascii">

0.1082531754723032 0.6875000000007816 0 0.23533274979922561 0.77093399389351469 0 0.10409951422139101 0.81206782209691231 0 0.23533274979922561 0.77093399389351469 0 0.1082531754723032 0.6875000000007816 0 0.21809253452218619 0.65480892822618109 0 0.24418615484441761 0.35773612382016978 0 0.121259140952891 0.43112117036853742 0 0.1082531754734323 0.31250000000117473 0 0.75000000000057243 0.35048094716480432 0 0.88173731489851925 0.33077402607778361 0 0.81242894672211508 0.45500248311961472 0 0.121259140952891 0.43112117036853742 0 0.24418615484441761 0.35773612382016978 0 0.22257735880419699 0.47344721641341742 0 0.81242894672211508 0.45500248311961472 0 0.88173731489851925 0.33077402607778361 0 0.915464298762109 0.43749999999886913 0 0 0.62500000000121547 0 0 0.50000000000206146 0 0.1371230538040123 0.56179824718362847 0 0.82212678063041267 0.67678595194836966 0 0.89051480781310632 0.79665793440246835 0 0.76243180583607129 0.78687675331113149 0 0.76243180583607129 0.78687675331113149 0 0.69010814643829166 0.89298495739101336 0 0.62844955668446423 0.7850749770380413 0 0.89051480781310632 0.79665793440246835 0 0.82212678063041267 0.67678595194836966 0 0.92266244547590082 0.68749999999917555 0 0 0.50000000000206146 0 0.121259140952891 0.43112117036853742 0 0.1371230538040123 0.56179824718362847 0 0.1082531754723032 0.6875000000007816 0 0 0.62500000000121547 0 0.1371230538040123 0.56179824718362847 0 0.75000000000032374 0.56698729811007709 0 0.88927506082488361 0.56409486310635837 0 0.82212678063041267 0.67678595194836966 0 0.81242894672211508 0.45500248311961472 0 0.88927506082488361 0.56409486310635837 0 0.75000000000032374 0.56698729811007709 0 0.69851598570178741 0.68211701800612057 0 0.56496004948275869 0.67675037307860475 0 0.62752533658682441 0.56838075195614346 0 0.69851598570178741 0.68211701800612057 0 0.76243180583607129 0.78687675331113149 0 0.62844955668446423 0.7850749770380413 0 0.23533274979922561 0.77093399389351469 0 0.18802967116092181 0.89415349436770275 0 0.10409951422139101 0.81206782209691231 0 0.121259140952891 0.43112117036853742 0 0.22257735880419699 0.47344721641341742 0 0.1371230538040123 0.56179824718362847 0 0.75000000000032374 0.56698729811007709 0 0.69851598570178741 0.68211701800612057 0 0.62752533658682441 0.56838075195614346 0 0.56496004948275869 0.67675037307860475 0 0.69851598570178741 0.68211701800612057 0 0.62844955668446423 0.7850749770380413 0 0.1371230538040123 0.56179824718362847 0 0.22257735880419699 0.47344721641341742 0 0.26982811998763367 0.56544650815856912 0 0.21809253452218619 0.65480892822618109 0 0.1371230538040123 0.56179824718362847 0 0.26982811998763367 0.56544650815856912 0 0.24418615484441761 0.35773612382016978 0 0.1082531754734323 0.31250000000117473 0 0.20767261601459541 0.25628918442207171 0 0.88173731489851925 0.33077402607778361 0 0.75000000000057243 0.35048094716480432 0 0.79891106056046712 0.25007334953587562 0 0.75000000000032374 0.56698729811007709 0 0.82212678063041267 0.67678595194836966 0 0.69851598570178741 0.68211701800612057 0 0.81249999999950517 0.1082531754733404 0 0.89658421694297741 0.1933620068391701 0 0.79891106056046712 0.25007334953587562 0 0.81249999999950517 0.1082531754733404 0 0.79891106056046712 0.25007334953587562 0 0.73983916756365475 0.17530677078674589 0 0.23533274979922561 0.77093399389351469 0 0.21809253452218619 0.65480892822618109 0 0.32607333794064219 0.67760114260606152 0 0.1082531754723032 0.6875000000007816 0 0.1371230538040123 0.56179824718362847 0 0.21809253452218619 0.65480892822618109 0 0.69851598570178741 0.68211701800612057 0 0.82212678063041267 0.67678595194836966 0 0.76243180583607129 0.78687675331113149 0 0.69010814643829166 0.89298495739101336 0 0.76243180583607129 0.78687675331113149 0 0.80886664387416207 0.89717308644237903 0 0.43750000000181222 0.89174682452709564 0 0.31258827852827581 0.89214793616708443 0 0.37776173212361452 0.78514649317305008 0 0.43750000000181222 0.89174682452709564 0 0.37500000000156292 1 0 0.31258827852827581 0.89214793616708443 0 0.121259140952891 0.43112117036853742 0 0 0.37500000000156292 0 0.1082531754734323 0.31250000000117473 0 0.50000000000206146 1 0 0.37500000000156292 1 0 0.43750000000181222 0.89174682452709564 0 0.31258827852827581 0.89214793616708443 0 0.18802967116092181 0.89415349436770275 0 0.23533274979922561 0.77093399389351469 0 0 0.50000000000206146 0 0 0.37500000000156292 0 0.121259140952891 0.43112117036853742 0 0.62844955668446423 0.7850749770380413 0 0.69010814643829166 0.89298495739101336 0 0.56327595140699671 0.89211526915426331 0 0.69010814643829166 0.89298495739101336 0 0.62500000000121547 1 0 0.56327595140699671 0.89211526915426331 0 0.25000000000104189 1 0 0.18802967116092181 0.89415349436770275 0 0.31258827852827581 0.89214793616708443 0 0.50000000000206146 1 0 0.43750000000181222 0.89174682452709564 0 0.56327595140699671 0.89211526915426331 0 0.56249999999885147 0.1082531754730395 0 0.62499999999901068 0 0 0.68749999999926592 0.1082531754732875 0 1 0.49999999999869221 0 1 0.62499999999901068 0 0.88927506082488361 0.56409486310635837 0 0 0.25000000000104189 0 0.12076953676380731 0.18690935762408761 0 0.1082531754734323 0.31250000000117473 0 0.49999999999869221 0 0 0.62499999999901068 0 0 0.56249999999885147 0.1082531754730395 0 0.62500000000121547 1 0 0.50000000000206146 1 0 0.56327595140699671 0.89211526915426331 0 0.37500000000156292 1 0 0.25000000000104189 1 0 0.31258827852827581 0.89214793616708443 0 0.31281086598417152 0.10449318608631281 0 0.37499999999904599 0 0 0.43749999999910871 0.1082531754729984 0 0.43750000000181222 0.89174682452709564 0 0.37776173212361452 0.78514649317305008 0 0.50046028868828263 0.78376912307435687 0 0 0.37500000000156292 0 0 0.25000000000104189 0 0.1082531754734323 0.31250000000117473 0 0.49999999999869221 0 0 0.56249999999885147 0.1082531754730395 0 0.43749999999910871 0.1082531754729984 0 0.43750000000181222 0.89174682452709564 0 0.50046028868828263 0.78376912307435687 0 0.56327595140699671 0.89211526915426331 0 0.74999999999934042 0 0 0.81249999999950517 0.1082531754733404 0 0.68749999999926592 0.1082531754732875 0 0.37499999999904599 0 0 0.49999999999869221 0 0 0.43749999999910871 0.1082531754729984 0 0.25000000000104189 1 0 0.12500000000052089 1 0 0.18802967116092181 0.89415349436770275 0 0.50046028868828263 0.78376912307435687 0 0.62844955668446423 0.7850749770380413 0 0.56327595140699671 0.89211526915426331 0 0.37776173212361452 0.78514649317305008 0 0.31258827852827581 0.89214793616708443 0 0.23533274979922561 0.77093399389351469 0 0.62499999999901068 0 0 0.74999999999934042 0 0 0.68749999999926592 0.1082531754732875 0 1 0.74999999999934042 0 1 0.87499999999967015 0 0.89051480781310632 0.79665793440246835 0 0 0.25000000000104189 0 0 0.12500000000052089 0 0.12076953676380731 0.18690935762408761 0 0.74999999999934042 0 0 0.87499999999967015 0 0 0.81249999999950517 0.1082531754733404 0 0.24999999999941069 0 0 0.37499999999904599 0 0 0.31281086598417152 0.10449318608631281 0 0.50046028868828263 0.78376912307435687 0 0.37776173212361452 0.78514649317305008 0 0.44078402250377968 0.67714785211715212 0 0.68768773896438518 0.4586835206367198 0 0.75000000000032374 0.56698729811007709 0 0.62752533658682441 0.56838075195614346 0 0.31411863959822661 0.24965544328045999 0 0.37953773393552892 0.34812185820708452 0 0.24418615484441761 0.35773612382016978 0 0.68768773896438518 0.4586835206367198 0 0.81242894672211508 0.45500248311961472 0 0.75000000000032374 0.56698729811007709 0 1 0.24999999999941069 0 1 0.37499999999904599 0 0.88173731489851925 0.33077402607778361 0 0 0.75000000000034761 0 0 0.62500000000121547 0 0.1082531754723032 0.6875000000007816 0 0.50048844149666749 0.56727788297625459 0 0.44078402250377968 0.67714785211715212 0 0.38694285807596462 0.5672991787102919 0 0.50108503093851109 0.35012252869403671 0 0.44301038174930041 0.45684931552185398 0 0.37953773393552892 0.34812185820708452 0 0.50046028868828263 0.78376912307435687 0 0.56496004948275869 0.67675037307860475 0 0.62844955668446423 0.7850749770380413 0 0.68768773896438518 0.4586835206367198 0 0.75000000000057243 0.35048094716480432 0 0.81242894672211508 0.45500248311961472 0 0.56349980387502452 0.45846841892908402 0 0.62512662990940393 0.35044303886909911 0 0.68768773896438518 0.4586835206367198 0 0.50048844149666749 0.56727788297625459 0 0.38694285807596462 0.5672991787102919 0 0.44301038174930041 0.45684931552185398 0 0.50046028868828263 0.78376912307435687 0 0.44078402250377968 0.67714785211715212 0 0.56496004948275869 0.67675037307860475 0 0.50108503093851109 0.35012252869403671 0 0.37953773393552892 0.34812185820708452 0 0.43750000000200551 0.24222777169198509 0 0.75000000000034761 1 0 0.62500000000121547 1 0 0.69010814643829166 0.89298495739101336 0 0.68768773896438518 0.4586835206367198 0 0.62512662990940393 0.35044303886909911 0 0.75000000000057243 0.35048094716480432 0 0.56496004948275869 0.67675037307860475 0 0.44078402250377968 0.67714785211715212 0 0.50048844149666749 0.56727788297625459 0 0.56349980387502452 0.45846841892908402 0 0.44301038174930041 0.45684931552185398 0 0.50108503093851109 0.35012252869403671 0 0.50048844149666749 0.56727788297625459 0 0.44301038174930041 0.45684931552185398 0 0.56349980387502452 0.45846841892908402 0 0.56349980387502452 0.45846841892908402 0 0.50108503093851109 0.35012252869403671 0 0.62512662990940393 0.35044303886909911 0 0.43750000000200551 0.24222777169198509 0 0.37953773393552892 0.34812185820708452 0 0.31411863959822661 0.24965544328045999 0 0.56496004948275869 0.67675037307860475 0 0.50048844149666749 0.56727788297625459 0 0.62752533658682441 0.56838075195614346 0 0.56349980387502452 0.45846841892908402 0 0.68768773896438518 0.4586835206367198 0 0.62752533658682441 0.56838075195614346 0 0.50048844149666749 0.56727788297625459 0 0.56349980387502452 0.45846841892908402 0 0.62752533658682441 0.56838075195614346 0 0.75000000000057243 0.35048094716480432 0 0.62512662990940393 0.35044303886909911 0 0.68668231842078242 0.24762892664808989 0 0.50108503093851109 0.35012252869403671 0 0.43750000000200551 0.24222777169198509 0 0.56250000000143974 0.2422277716920859 0 0.62512662990940393 0.35044303886909911 0 0.50108503093851109 0.35012252869403671 0 0.56250000000143974 0.2422277716920859 0 0.68668231842078242 0.24762892664808989 0 0.62512662990940393 0.35044303886909911 0 0.56250000000143974 0.2422277716920859 0 0.22257735880419699 0.47344721641341742 0 0.24418615484441761 0.35773612382016978 0 0.32815957677880009 0.4577243358118348 0 0.12076953676380731 0.18690935762408761 0 0.19185372118111221 0.092925648673580788 0 0.25103557339309318 0.17464499738446629 0 0.20767261601459541 0.25628918442207171 0 0.12076953676380731 0.18690935762408761 0 0.25103557339309318 0.17464499738446629 0 0 0.87499999999950151 0 0 0.75000000000034761 0 0.10409951422139101 0.81206782209691231 0 0.1249999999997731 0 0 0.24999999999941069 0 0 0.19185372118111221 0.092925648673580788 0 1 0.1249999999997731 0 1 0.24999999999941069 0 0.89658421694297741 0.1933620068391701 0 0.88927506082488361 0.56409486310635837 0 0.81242894672211508 0.45500248311961472 0 0.915464298762109 0.43749999999886913 0 0.87499999999950151 1 0 0.75000000000034761 1 0 0.80886664387416207 0.89717308644237903 0 0.75000000000034761 1 0 0.69010814643829166 0.89298495739101336 0 0.80886664387416207 0.89717308644237903 0 0.82212678063041267 0.67678595194836966 0 0.88927506082488361 0.56409486310635837 0 0.92266244547590082 0.68749999999917555 0 0 0.75000000000034761 0 0.1082531754723032 0.6875000000007816 0 0.10409951422139101 0.81206782209691231 0 0.24999999999941069 0 0 0.31281086598417152 0.10449318608631281 0 0.19185372118111221 0.092925648673580788 0 1 0.24999999999941069 0 0.88173731489851925 0.33077402607778361 0 0.89658421694297741 0.1933620068391701 0 0.32815957677880009 0.4577243358118348 0 0.38694285807596462 0.5672991787102919 0 0.26982811998763367 0.56544650815856912 0 0.76243180583607129 0.78687675331113149 0 0.89051480781310632 0.79665793440246835 0 0.80886664387416207 0.89717308644237903 0 0.38694285807596462 0.5672991787102919 0 0.44078402250377968 0.67714785211715212 0 0.32607333794064219 0.67760114260606152 0 0.37776173212361452 0.78514649317305008 0 0.23533274979922561 0.77093399389351469 0 0.32607333794064219 0.67760114260606152 0 1 0.49999999999869221 0 0.88927506082488361 0.56409486310635837 0 0.915464298762109 0.43749999999886913 0 0.88173731489851925 0.33077402607778361 0 1 0.37499999999904599 0 0.915464298762109 0.43749999999886913 0 0.24418615484441761 0.35773612382016978 0 0.37953773393552892 0.34812185820708452 0 0.32815957677880009 0.4577243358118348 0 0.44301038174930041 0.45684931552185398 0 0.38694285807596462 0.5672991787102919 0 0.32815957677880009 0.4577243358118348 0 0.88927506082488361 0.56409486310635837 0 1 0.62499999999901068 0 0.92266244547590082 0.68749999999917555 0 1 0.74999999999934042 0 0.89051480781310632 0.79665793440246835 0 0.92266244547590082 0.68749999999917555 0 0 1 0 0 0.87499999999950151 0 0.091506350946494744 0.90849364905351082 0 1 1 0 0.87499999999950151 1 0 0.90849364905363228 0.90849364905367769 0 0 0 0 0.1249999999997731 0 0 0.091506350946417708 0.091506350946618076 0 0 0.12500000000052089 0 0 0 0 0.091506350946417708 0.091506350946618076 0 1 0 0 1 0.1249999999997731 0 0.90849364905355434 0.091506350946296292 0 0.87499999999967015 0 0 1 0 0 0.90849364905355434 0.091506350946296292 0 0.12500000000052089 1 0 0 1 0 0.091506350946494744 0.90849364905351082 0 1 0.87499999999967015 0 1 1 0 0.90849364905363228 0.90849364905367769 0 0.38694285807596462 0.5672991787102919 0 0.32607333794064219 0.67760114260606152 0 0.26982811998763367 0.56544650815856912 0 0.31411863959822661 0.24965544328045999 0 0.24418615484441761 0.35773612382016978 0 0.20767261601459541 0.25628918442207171 0 0.1082531754734323 0.31250000000117473 0 0.12076953676380731 0.18690935762408761 0 0.20767261601459541 0.25628918442207171 0 0.75000000000057243 0.35048094716480432 0 0.68668231842078242 0.24762892664808989 0 0.79891106056046712 0.25007334953587562 0 0.22257735880419699 0.47344721641341742 0 0.32815957677880009 0.4577243358118348 0 0.26982811998763367 0.56544650815856912 0 0.44078402250377968 0.67714785211715212 0 0.37776173212361452 0.78514649317305008 0 0.32607333794064219 0.67760114260606152 0 0.89658421694297741 0.1933620068391701 0 0.88173731489851925 0.33077402607778361 0 0.79891106056046712 0.25007334953587562 0 1 0.37499999999904599 0 1 0.49999999999869221 0 0.915464298762109 0.43749999999886913 0 0.37953773393552892 0.34812185820708452 0 0.44301038174930041 0.45684931552185398 0 0.32815957677880009 0.4577243358118348 0 0.32607333794064219 0.67760114260606152 0 0.21809253452218619 0.65480892822618109 0 0.26982811998763367 0.56544650815856912 0 1 0.1249999999997731 0 0.89658421694297741 0.1933620068391701 0 0.90849364905355434 0.091506350946296292 0 0 0.87499999999950151 0 0.10409951422139101 0.81206782209691231 0 0.091506350946494744 0.90849364905351082 0 0.1249999999997731 0 0 0.19185372118111221 0.092925648673580788 0 0.091506350946417708 0.091506350946618076 0 1 0.62499999999901068 0 1 0.74999999999934042 0 0.92266244547590082 0.68749999999917555 0 0.18802967116092181 0.89415349436770275 0 0.12500000000052089 1 0 0.091506350946494744 0.90849364905351082 0 0.89051480781310632 0.79665793440246835 0 1 0.87499999999967015 0 0.90849364905363228 0.90849364905367769 0 0.12076953676380731 0.18690935762408761 0 0 0.12500000000052089 0 0.091506350946417708 0.091506350946618076 0 0.81249999999950517 0.1082531754733404 0 0.87499999999967015 0 0 0.90849364905355434 0.091506350946296292 0 0.87499999999950151 1 0 0.80886664387416207 0.89717308644237903 0 0.90849364905363228 0.90849364905367769 0 0.68668231842078242 0.24762892664808989 0 0.62499999999892575 0.17524047358135519 0 0.73983916756365475 0.17530677078674589 0 0.31281086598417152 0.10449318608631281 0 0.43749999999910871 0.1082531754729984 0 0.37500000000232431 0.17524047358384309 0 0.62499999999892575 0.17524047358135519 0 0.56250000000143974 0.2422277716920859 0 0.49999999999934441 0.1752404735815076 0 0.56249999999885147 0.1082531754730395 0 0.68749999999926592 0.1082531754732875 0 0.62499999999892575 0.17524047358135519 0 0.56249999999885147 0.1082531754730395 0 0.62499999999892575 0.17524047358135519 0 0.49999999999934441 0.1752404735815076 0 0.56250000000143974 0.2422277716920859 0 0.43750000000200551 0.24222777169198509 0 0.49999999999934441 0.1752404735815076 0 0.43749999999910871 0.1082531754729984 0 0.56249999999885147 0.1082531754730395 0 0.49999999999934441 0.1752404735815076 0 0.68668231842078242 0.24762892664808989 0 0.56250000000143974 0.2422277716920859 0 0.62499999999892575 0.17524047358135519 0 0.43750000000200551 0.24222777169198509 0 0.31411863959822661 0.24965544328045999 0 0.37500000000232431 0.17524047358384309 0 0.49999999999934441 0.1752404735815076 0 0.43750000000200551 0.24222777169198509 0 0.37500000000232431 0.17524047358384309 0 0.43749999999910871 0.1082531754729984 0 0.49999999999934441 0.1752404735815076 0 0.37500000000232431 0.17524047358384309 0 0.62499999999892575 0.17524047358135519 0 0.68749999999926592 0.1082531754732875 0 0.73983916756365475 0.17530677078674589 0 0.68749999999926592 0.1082531754732875 0 0.81249999999950517 0.1082531754733404 0 0.73983916756365475 0.17530677078674589 0 0.10409951422139101 0.81206782209691231 0 0.18802967116092181 0.89415349436770275 0 0.091506350946494744 0.90849364905351082 0 0.89658421694297741 0.1933620068391701 0 0.81249999999950517 0.1082531754733404 0 0.90849364905355434 0.091506350946296292 0 0.19185372118111221 0.092925648673580788 0 0.12076953676380731 0.18690935762408761 0 0.091506350946417708 0.091506350946618076 0 0.37500000000232431 0.17524047358384309 0 0.31411863959822661 0.24965544328045999 0 0.25103557339309318 0.17464499738446629 0 0.31281086598417152 0.10449318608631281 0 0.37500000000232431 0.17524047358384309 0 0.25103557339309318 0.17464499738446629 0 0.80886664387416207 0.89717308644237903 0 0.89051480781310632 0.79665793440246835 0 0.90849364905363228 0.90849364905367769 0 0.19185372118111221 0.092925648673580788 0 0.31281086598417152 0.10449318608631281 0 0.25103557339309318 0.17464499738446629 0 0.79891106056046712 0.25007334953587562 0 0.68668231842078242 0.24762892664808989 0 0.73983916756365475 0.17530677078674589 0 0.31411863959822661 0.24965544328045999 0 0.20767261601459541 0.25628918442207171 0 0.25103557339309318 0.17464499738446629 0 

        </DataArray>

      </Points>

      <Cells>

        <DataArray type="Int32" Name="connectivity" format="ascii">

0 1 2 3 4 5 6 7 8 9 10 11 12 13 14 15 16 17 18 19 20 21 22 23 24 25 26 27 28 29 30 31 32 33 34 35 36 37 38 39 40 41 42 43 44 45 46 47 48 49 50 51 52 53 54 55 56 57 58 59 60 61 62 63 64 65 66 67 68 69 70 71 72 73 74 75 76 77 78 79 80 81 82 83 84 85 86 87 88 89 90 91 92 93 94 95 96 97 98 99 100 101 102 103 104 105 106 107 108 109 110 111 112 113 114 115 116 117 118 119 120 121 122 123 124 125 126 127 128 129 130 131 132 133 134 135 136 137 138 139 140 141 142 143 144 145 146 147 148 149 150 151 152 153 154 155 156 157 158 159 160 161 162 163 164 165 166 167 168 169 170 171 172 173 174 175 176 177 178 179 180 181 182 183 184 185 186 187 188 189 190 191 192 193 194 195 196 197 198 199 200 201 202 203 204 205 206 207 208 209 210 211 212 213 214 215 216 217 218 219 220 221 222 223 224 225 226 227 228 229 230 231 232 233 234 235 236 237 238 239 240 241 242 243 244 245 246 247 248 249 250 251 252 253 254 255 256 257 258 259 260 261 262 263 264 265 266 267 268 269 270 271 272 273 274 275 276 277 278 279 280 281 282 283 284 285 286 287 288 289 290 291 292 293 294 295 296 297 298 299 300 301 302 303 304 305 306 307 308 309 310 311 312 313 314 315 316 317 318 319 320 321 322 323 324 325 326 327 328 329 330 331 332 333 334 335 336 337 338 339 340 341 342 343 344 345 346 347 348 349 350 351 352 353 354 355 356 357 358 359 360 361 362 363 364 365 366 367 368 369 370 371 372 373 374 375 376 377 378 379 380 381 382 383 384 385 386 387 388 389 390 391 392 393 394 395 396 397 398 399 400 401 402 403 404 405 406 407 408 409 410 411 412 413 414 415 416 417 418 419 420 421 422 423 424 425 426 427 428 429 430 431 432 433 434 435 436 437 438 439 440 441 442 443 444 445 446 447 448 449 450 451 452 453 454 455 456 457 458 459 460 461 462 463 464 465 466 467 468 469 470 471 472 473 474 475 476 477 478 479 480 481 482 483 484 485 

        </DataArray>

        <DataArray type="Int32" Name="offsets" format="ascii">

3 6 9 12 15 18 21 24 27 30 33 36 39 42 45 48 51 54 57 60 63 66 69 72 75 78 81 84 87 90 93 96 99 102 105 108 111 114 117 120 123 126 129 132 135 138 141 144 147 150 153 156 159 162 165 168 171 174 177 180 183 186 189 192 195 198 201 204 207 210 213 216 219 222 225 228 231 234 237 240 243 246 249 252 255 258 261 264 267 270 273 276 279 282 285 288 291 294 297 300 303 306 309 312 315 318 321 324 327 330 333 336 339 342 345 348 351 354 357 360 363 366 369 372 375 378 381 384 387 390 393 396 399 402 405 408 411 414 417 420 423 426 429 432 435 438 441 444 447 450 453 456 459 462 465 468 471 474 477 480 483 486 

        </DataArray>

        <DataArray type="Int32" Name="types" format="ascii">

5 5 5 5 5 5 5 5 5 5 5 5 5 5 5 5 5 5 5 5 5 5 5 5 5 5 5 5 5 5 5 5 5 5 5 5 5 5 5 5 5 5 5 5 5 5 5 5 5 5 5 5 5 5 5 5 5 5 5 5 5 5 5 5 5 5 5 5 5 5 5 5 5 5 5 5 5 5 5 5 5 5 5 5 5 5 5 5 5 5 5 5 5 5 5 5 5 5 5 5 5 5 5 5 5 5 5 5 5 5 5 5 5 5 5 5 5 5 5 5 5 5 5 5 5 5 5 5 5 5 5 5 5 5 5 5 5 5 5 5 5 5 5 5 5 5 5 5 5 5 5 5 5 5 5 5 5 5 5 5 5 5 

        </DataArray>

      </Cells>

    </Piece>

  </UnstructuredGrid>

</VTKFile>

