<?xml version="1.0"?>

<VTKFile type="UnstructuredGrid" version="0.1">

  <UnstructuredGrid>

    <Piece NumberOfPoints="486" NumberOfCells="162">

      <PointData>

        <DataArray type="Float64" Name="K" format="ascii">

1.02735541177561673e+00
1.02735541177561673e+00
1.02735541177561673e+00
1.02552131160509163e+00
1.02552131160509163e+00
1.02552131160509163e+00
1.02015701757529786e+00
1.02015701757529786e+00
1.02015701757529786e+00
1.03440518957014604e+00
1.03440518957014604e+00
1.03440518957014604e+00
1.01039103598742308e+00
1.01039103598742308e+00
1.01039103598742308e+00
1.04622711716737538e+00
1.04622711716737538e+00
1.04622711716737538e+00
9.88836095778609092e-01
9.88836095778609092e-01
9.88836095778609092e-01
1.05155301485045993e+00
1.05155301485045993e+00
1.05155301485045993e+00
1.03675789830490173e+00
1.03675789830490173e+00
1.03675789830490173e+00
1.05822221180317366e+00
1.05822221180317366e+00
1.05822221180317366e+00
9.92643422509936757e-01
9.92643422509936757e-01
9.92643422509936757e-01
1.00570057401897528e+00
1.00570057401897528e+00
1.00570057401897528e+00
1.02692367345682767e+00
1.02692367345682767e+00
1.02692367345682767e+00
1.02324697348182303e+00
1.02324697348182303e+00
1.02324697348182303e+00
9.82073232211272740e-01
9.82073232211272740e-01
9.82073232211272740e-01
1.02117742035556036e+00
1.02117742035556036e+00
1.02117742035556036e+00
1.02960420844073375e+00
1.02960420844073375e+00
1.02960420844073375e+00
1.00583909680146966e+00
1.00583909680146966e+00
1.00583909680146966e+00
9.81629842119778884e-01
9.81629842119778884e-01
9.81629842119778884e-01
1.00501455336329437e+00
1.00501455336329437e+00
1.00501455336329437e+00
1.00435027461718640e+00
1.00435027461718640e+00
1.00435027461718640e+00
1.00971271597809475e+00
1.00971271597809475e+00
1.00971271597809475e+00
1.03151168987919784e+00
1.03151168987919784e+00
1.03151168987919784e+00
1.03833616787864469e+00
1.03833616787864469e+00
1.03833616787864469e+00
1.00833417486686883e+00
1.00833417486686883e+00
1.00833417486686883e+00
1.04041591740840356e+00
1.04041591740840356e+00
1.04041591740840356e+00
1.02894393549065977e+00
1.02894393549065977e+00
1.02894393549065977e+00
1.01710710393501902e+00
1.01710710393501902e+00
1.01710710393501902e+00
1.01588031009120283e+00
1.01588031009120283e+00
1.01588031009120283e+00
1.02502691488153608e+00
1.02502691488153608e+00
1.02502691488153608e+00
1.04637279873648081e+00
1.04637279873648081e+00
1.04637279873648081e+00
1.01586056027463423e+00
1.01586056027463423e+00
1.01586056027463423e+00
1.01972187519187418e+00
1.01972187519187418e+00
1.01972187519187418e+00
1.00160693793398448e+00
1.00160693793398448e+00
1.00160693793398448e+00
1.01726231806450307e+00
1.01726231806450307e+00
1.01726231806450307e+00
1.03168227932778489e+00
1.03168227932778489e+00
1.03168227932778489e+00
9.78950293797340665e-01
9.78950293797340665e-01
9.78950293797340665e-01
1.04053569797217071e+00
1.04053569797217071e+00
1.04053569797217071e+00
1.03964992440175141e+00
1.03964992440175141e+00
1.03964992440175141e+00
1.02742608617075892e+00
1.02742608617075892e+00
1.02742608617075892e+00
1.02712293123827192e+00
1.02712293123827192e+00
1.02712293123827192e+00
9.64360261690937248e-01
9.64360261690937248e-01
9.64360261690937248e-01
1.03718199883153495e+00
1.03718199883153495e+00
1.03718199883153495e+00
1.03682297109448052e+00
1.03682297109448052e+00
1.03682297109448052e+00
9.53836784554205952e-01
9.53836784554205952e-01
9.53836784554205952e-01
1.03014528206466593e+00
1.03014528206466593e+00
1.03014528206466593e+00
1.02412695242877505e+00
1.02412695242877505e+00
1.02412695242877505e+00
1.00435759205248387e+00
1.00435759205248387e+00
1.00435759205248387e+00
1.01103111554677816e+00
1.01103111554677816e+00
1.01103111554677816e+00
1.00311805996487857e+00
1.00311805996487857e+00
1.00311805996487857e+00
9.70058603762626648e-01
9.70058603762626648e-01
9.70058603762626648e-01
1.02549666507444104e+00
1.02549666507444104e+00
1.02549666507444104e+00
1.00949547753944890e+00
1.00949547753944890e+00
1.00949547753944890e+00
9.83387173497765166e-01
9.83387173497765166e-01
9.83387173497765166e-01
1.01344002764015029e+00
1.01344002764015029e+00
1.01344002764015029e+00
1.03062696191665526e+00
1.03062696191665526e+00
1.03062696191665526e+00
1.02191184471098229e+00
1.02191184471098229e+00
1.02191184471098229e+00
9.82504170727796722e-01
9.82504170727796722e-01
9.82504170727796722e-01
1.06810150586487018e+00
1.06810150586487018e+00
1.06810150586487018e+00
1.04806109477692289e+00
1.04806109477692289e+00
1.04806109477692289e+00
1.01924818905827230e+00
1.01924818905827230e+00
1.01924818905827230e+00
1.01266334051353191e+00
1.01266334051353191e+00
1.01266334051353191e+00
9.97066566300554236e-01
9.97066566300554236e-01
9.97066566300554236e-01
9.71102974453444179e-01
9.71102974453444179e-01
9.71102974453444179e-01
1.00544287989218950e+00
1.00544287989218950e+00
1.00544287989218950e+00
9.94474774265161843e-01
9.94474774265161843e-01
9.94474774265161843e-01
1.04739114253809418e+00
1.04739114253809418e+00
1.04739114253809418e+00
1.01239806422436018e+00
1.01239806422436018e+00
1.01239806422436018e+00
9.72081239780208328e-01
9.72081239780208328e-01
9.72081239780208328e-01
9.84358143726655754e-01
9.84358143726655754e-01
9.84358143726655754e-01
1.01185049832857610e+00
1.01185049832857610e+00
1.01185049832857610e+00
1.00048426318811412e+00
1.00048426318811412e+00
1.00048426318811412e+00
9.63822528584540872e-01
9.63822528584540872e-01
9.63822528584540872e-01
9.69592860361524145e-01
9.69592860361524145e-01
9.69592860361524145e-01
9.94405239604928770e-01
9.94405239604928770e-01
9.94405239604928770e-01
9.93734929072078943e-01
9.93734929072078943e-01
9.93734929072078943e-01
1.03212574246197186e+00
1.03212574246197186e+00
1.03212574246197186e+00
9.78960644123491930e-01
9.78960644123491930e-01
9.78960644123491930e-01
9.77741045425136512e-01
9.77741045425136512e-01
9.77741045425136512e-01
9.74845056871395443e-01
9.74845056871395443e-01
9.74845056871395443e-01
9.68189241060485317e-01
9.68189241060485317e-01
9.68189241060485317e-01
9.71009335057460010e-01
9.71009335057460010e-01
9.71009335057460010e-01
1.00298341766812360e+00
1.00298341766812360e+00
1.00298341766812360e+00
9.71423022197451802e-01
9.71423022197451802e-01
9.71423022197451802e-01
9.59975231683207531e-01
9.59975231683207531e-01
9.59975231683207531e-01
9.62814299684311758e-01
9.62814299684311758e-01
9.62814299684311758e-01
9.87694504108884042e-01
9.87694504108884042e-01
9.87694504108884042e-01
9.88608453135203624e-01
9.88608453135203624e-01
9.88608453135203624e-01
9.77718469869543916e-01
9.77718469869543916e-01
9.77718469869543916e-01
9.77782187361879274e-01
9.77782187361879274e-01
9.77782187361879274e-01
9.97516079047180537e-01
9.97516079047180537e-01
9.97516079047180537e-01
1.05405643769762492e+00
1.05405643769762492e+00
1.05405643769762492e+00
1.04870690496244001e+00
1.04870690496244001e+00
1.04870690496244001e+00
1.01930512449321453e+00
1.01930512449321453e+00
1.01930512449321453e+00
1.04498326360357030e+00
1.04498326360357030e+00
1.04498326360357030e+00
1.03653550908128933e+00
1.03653550908128933e+00
1.03653550908128933e+00
1.04038639411019651e+00
1.04038639411019651e+00
1.04038639411019651e+00
1.04611590109022479e+00
1.04611590109022479e+00
1.04611590109022479e+00
1.04174350947191297e+00
1.04174350947191297e+00
1.04174350947191297e+00
1.04588647615312791e+00
1.04588647615312791e+00
1.04588647615312791e+00
1.01951860027361230e+00
1.01951860027361230e+00
1.01951860027361230e+00
1.03137743161996887e+00
1.03137743161996887e+00
1.03137743161996887e+00
1.04907158572532988e+00
1.04907158572532988e+00
1.04907158572532988e+00
9.80338858034656035e-01
9.80338858034656035e-01
9.80338858034656035e-01
1.05996785236825652e+00
1.05996785236825652e+00
1.05996785236825652e+00
9.79966932599600438e-01
9.79966932599600438e-01
9.79966932599600438e-01
1.01149146714602600e+00
1.01149146714602600e+00
1.01149146714602600e+00
1.04093228979223462e+00
1.04093228979223462e+00
1.04093228979223462e+00
1.04880347059318502e+00
1.04880347059318502e+00
1.04880347059318502e+00
9.92955814300193973e-01
9.92955814300193973e-01
9.92955814300193973e-01
9.73908285163829102e-01
9.73908285163829102e-01
9.73908285163829102e-01
1.04516647903608195e+00
1.04516647903608195e+00
1.04516647903608195e+00
1.06374046309360892e+00
1.06374046309360892e+00
1.06374046309360892e+00
9.99189742343198239e-01
9.99189742343198239e-01
9.99189742343198239e-01
1.06757521230879049e+00
1.06757521230879049e+00
1.06757521230879049e+00
1.07147234501688815e+00
1.07147234501688815e+00
1.07147234501688815e+00
1.07019728112785639e+00
1.07019728112785639e+00
1.07019728112785639e+00
1.01447511197799045e+00
1.01447511197799045e+00
1.01447511197799045e+00
1.01122412466167000e+00
1.01122412466167000e+00
1.01122412466167000e+00
9.89463721812101737e-01
9.89463721812101737e-01
9.89463721812101737e-01
1.06882699145663573e+00
1.06882699145663573e+00
1.06882699145663573e+00
9.85622883648917814e-01
9.85622883648917814e-01
9.85622883648917814e-01
1.02278646161015607e+00
1.02278646161015607e+00
1.02278646161015607e+00
1.04573044619154243e+00
1.04573044619154243e+00
1.04573044619154243e+00
1.01401077835367270e+00
1.01401077835367270e+00
1.01401077835367270e+00
9.91588194736061190e-01
9.91588194736061190e-01
9.91588194736061190e-01
9.92303251754290794e-01
9.92303251754290794e-01
9.92303251754290794e-01
1.04933972521081453e+00
1.04933972521081453e+00
1.04933972521081453e+00
1.03960434412033575e+00
1.03960434412033575e+00
1.03960434412033575e+00
9.81510181559066219e-01
9.81510181559066219e-01
9.81510181559066219e-01
1.00347333975040365e+00
1.00347333975040365e+00
1.00347333975040365e+00
1.03008637392505320e+00
1.03008637392505320e+00
1.03008637392505320e+00
1.01162217439675239e+00
1.01162217439675239e+00
1.01162217439675239e+00
1.06415063640004082e+00
1.06415063640004082e+00
1.06415063640004082e+00
1.04781942364096725e+00
1.04781942364096725e+00
1.04781942364096725e+00
1.00712522817777383e+00
1.00712522817777383e+00
1.00712522817777383e+00
1.07698629536360624e+00
1.07698629536360624e+00
1.07698629536360624e+00
1.06607410150043269e+00
1.06607410150043269e+00
1.06607410150043269e+00
1.02331077846867857e+00
1.02331077846867857e+00
1.02331077846867857e+00
1.06582022781770935e+00
1.06582022781770935e+00
1.06582022781770935e+00
9.92571738289499406e-01
9.92571738289499406e-01
9.92571738289499406e-01
1.00942473877286232e+00
1.00942473877286232e+00
1.00942473877286232e+00
9.76456482790921787e-01
9.76456482790921787e-01
9.76456482790921787e-01
9.71516298747908791e-01
9.71516298747908791e-01
9.71516298747908791e-01
9.71309828545860121e-01
9.71309828545860121e-01
9.71309828545860121e-01
9.88106173517916853e-01
9.88106173517916853e-01
9.88106173517916853e-01
9.79030859387656882e-01
9.79030859387656882e-01
9.79030859387656882e-01
9.78547569317505306e-01
9.78547569317505306e-01
9.78547569317505306e-01
1.00884017497949197e+00
1.00884017497949197e+00
1.00884017497949197e+00
9.99418774212800454e-01
9.99418774212800454e-01
9.99418774212800454e-01
9.97181229892469267e-01
9.97181229892469267e-01
9.97181229892469267e-01
9.90695771984015261e-01
9.90695771984015261e-01
9.90695771984015261e-01
1.01333991290787884e+00
1.01333991290787884e+00
1.01333991290787884e+00
1.01729855357736132e+00
1.01729855357736132e+00
1.01729855357736132e+00
1.03395959740200305e+00
1.03395959740200305e+00
1.03395959740200305e+00
1.06537887057257907e+00
1.06537887057257907e+00
1.06537887057257907e+00
1.02106214701016795e+00
1.02106214701016795e+00
1.02106214701016795e+00
1.02263954447460681e+00
1.02263954447460681e+00
1.02263954447460681e+00
1.07298238573326321e+00
1.07298238573326321e+00
1.07298238573326321e+00
1.03667498804315827e+00
1.03667498804315827e+00
1.03667498804315827e+00
1.01511334265030806e+00
1.01511334265030806e+00
1.01511334265030806e+00
1.03133711076765233e+00
1.03133711076765233e+00
1.03133711076765233e+00


        </DataArray>

      </PointData>

      <CellData/>

      <Points>

        <DataArray type="Float64" NumberOfComponents="3" format="ascii">

0.1082531754723032 0.6875000000007816 0 0.23533274979922561 0.77093399389351469 0 0.10409951422139101 0.81206782209691231 0 0.23533274979922561 0.77093399389351469 0 0.1082531754723032 0.6875000000007816 0 0.21809253452218619 0.65480892822618109 0 0.24418615484441761 0.35773612382016978 0 0.121259140952891 0.43112117036853742 0 0.1082531754734323 0.31250000000117473 0 0.75000000000057243 0.35048094716480432 0 0.88173731489851925 0.33077402607778361 0 0.81242894672211508 0.45500248311961472 0 0.121259140952891 0.43112117036853742 0 0.24418615484441761 0.35773612382016978 0 0.22257735880419699 0.47344721641341742 0 0.81242894672211508 0.45500248311961472 0 0.88173731489851925 0.33077402607778361 0 0.915464298762109 0.43749999999886913 0 0 0.62500000000121547 0 0 0.50000000000206146 0 0.1371230538040123 0.56179824718362847 0 0.82212678063041267 0.67678595194836966 0 0.89051480781310632 0.79665793440246835 0 0.76243180583607129 0.78687675331113149 0 0.76243180583607129 0.78687675331113149 0 0.69010814643829166 0.89298495739101336 0 0.62844955668446423 0.7850749770380413 0 0.89051480781310632 0.79665793440246835 0 0.82212678063041267 0.67678595194836966 0 0.92266244547590082 0.68749999999917555 0 0 0.50000000000206146 0 0.121259140952891 0.43112117036853742 0 0.1371230538040123 0.56179824718362847 0 0.1082531754723032 0.6875000000007816 0 0 0.62500000000121547 0 0.1371230538040123 0.56179824718362847 0 0.75000000000032374 0.56698729811007709 0 0.88927506082488361 0.56409486310635837 0 0.82212678063041267 0.67678595194836966 0 0.81242894672211508 0.45500248311961472 0 0.88927506082488361 0.56409486310635837 0 0.75000000000032374 0.56698729811007709 0 0.69851598570178741 0.68211701800612057 0 0.56496004948275869 0.67675037307860475 0 0.62752533658682441 0.56838075195614346 0 0.69851598570178741 0.68211701800612057 0 0.76243180583607129 0.78687675331113149 0 0.62844955668446423 0.7850749770380413 0 0.23533274979922561 0.77093399389351469 0 0.18802967116092181 0.89415349436770275 0 0.10409951422139101 0.81206782209691231 0 0.121259140952891 0.43112117036853742 0 0.22257735880419699 0.47344721641341742 0 0.1371230538040123 0.56179824718362847 0 0.75000000000032374 0.56698729811007709 0 0.69851598570178741 0.68211701800612057 0 0.62752533658682441 0.56838075195614346 0 0.56496004948275869 0.67675037307860475 0 0.69851598570178741 0.68211701800612057 0 0.62844955668446423 0.7850749770380413 0 0.1371230538040123 0.56179824718362847 0 0.22257735880419699 0.47344721641341742 0 0.26982811998763367 0.56544650815856912 0 0.21809253452218619 0.65480892822618109 0 0.1371230538040123 0.56179824718362847 0 0.26982811998763367 0.56544650815856912 0 0.24418615484441761 0.35773612382016978 0 0.1082531754734323 0.31250000000117473 0 0.20767261601459541 0.25628918442207171 0 0.88173731489851925 0.33077402607778361 0 0.75000000000057243 0.35048094716480432 0 0.79891106056046712 0.25007334953587562 0 0.75000000000032374 0.56698729811007709 0 0.82212678063041267 0.67678595194836966 0 0.69851598570178741 0.68211701800612057 0 0.81249999999950517 0.1082531754733404 0 0.89658421694297741 0.1933620068391701 0 0.79891106056046712 0.25007334953587562 0 0.81249999999950517 0.1082531754733404 0 0.79891106056046712 0.25007334953587562 0 0.73983916756365475 0.17530677078674589 0 0.23533274979922561 0.77093399389351469 0 0.21809253452218619 0.65480892822618109 0 0.32607333794064219 0.67760114260606152 0 0.1082531754723032 0.6875000000007816 0 0.1371230538040123 0.56179824718362847 0 0.21809253452218619 0.65480892822618109 0 0.69851598570178741 0.68211701800612057 0 0.82212678063041267 0.67678595194836966 0 0.76243180583607129 0.78687675331113149 0 0.69010814643829166 0.89298495739101336 0 0.76243180583607129 0.78687675331113149 0 0.80886664387416207 0.89717308644237903 0 0.43750000000181222 0.89174682452709564 0 0.31258827852827581 0.89214793616708443 0 0.37776173212361452 0.78514649317305008 0 0.43750000000181222 0.89174682452709564 0 0.37500000000156292 1 0 0.31258827852827581 0.89214793616708443 0 0.121259140952891 0.43112117036853742 0 0 0.37500000000156292 0 0.1082531754734323 0.31250000000117473 0 0.50000000000206146 1 0 0.37500000000156292 1 0 0.43750000000181222 0.89174682452709564 0 0.31258827852827581 0.89214793616708443 0 0.18802967116092181 0.89415349436770275 0 0.23533274979922561 0.77093399389351469 0 0 0.50000000000206146 0 0 0.37500000000156292 0 0.121259140952891 0.43112117036853742 0 0.62844955668446423 0.7850749770380413 0 0.69010814643829166 0.89298495739101336 0 0.56327595140699671 0.89211526915426331 0 0.69010814643829166 0.89298495739101336 0 0.62500000000121547 1 0 0.56327595140699671 0.89211526915426331 0 0.25000000000104189 1 0 0.18802967116092181 0.89415349436770275 0 0.31258827852827581 0.89214793616708443 0 0.50000000000206146 1 0 0.43750000000181222 0.89174682452709564 0 0.56327595140699671 0.89211526915426331 0 0.56249999999885147 0.1082531754730395 0 0.62499999999901068 0 0 0.68749999999926592 0.1082531754732875 0 1 0.49999999999869221 0 1 0.62499999999901068 0 0.88927506082488361 0.56409486310635837 0 0 0.25000000000104189 0 0.12076953676380731 0.18690935762408761 0 0.1082531754734323 0.31250000000117473 0 0.49999999999869221 0 0 0.62499999999901068 0 0 0.56249999999885147 0.1082531754730395 0 0.62500000000121547 1 0 0.50000000000206146 1 0 0.56327595140699671 0.89211526915426331 0 0.37500000000156292 1 0 0.25000000000104189 1 0 0.31258827852827581 0.89214793616708443 0 0.31281086598417152 0.10449318608631281 0 0.37499999999904599 0 0 0.43749999999910871 0.1082531754729984 0 0.43750000000181222 0.89174682452709564 0 0.37776173212361452 0.78514649317305008 0 0.50046028868828263 0.78376912307435687 0 0 0.37500000000156292 0 0 0.25000000000104189 0 0.1082531754734323 0.31250000000117473 0 0.49999999999869221 0 0 0.56249999999885147 0.1082531754730395 0 0.43749999999910871 0.1082531754729984 0 0.43750000000181222 0.89174682452709564 0 0.50046028868828263 0.78376912307435687 0 0.56327595140699671 0.89211526915426331 0 0.74999999999934042 0 0 0.81249999999950517 0.1082531754733404 0 0.68749999999926592 0.1082531754732875 0 0.37499999999904599 0 0 0.49999999999869221 0 0 0.43749999999910871 0.1082531754729984 0 0.25000000000104189 1 0 0.12500000000052089 1 0 0.18802967116092181 0.89415349436770275 0 0.50046028868828263 0.78376912307435687 0 0.62844955668446423 0.7850749770380413 0 0.56327595140699671 0.89211526915426331 0 0.37776173212361452 0.78514649317305008 0 0.31258827852827581 0.89214793616708443 0 0.23533274979922561 0.77093399389351469 0 0.62499999999901068 0 0 0.74999999999934042 0 0 0.68749999999926592 0.1082531754732875 0 1 0.74999999999934042 0 1 0.87499999999967015 0 0.89051480781310632 0.79665793440246835 0 0 0.25000000000104189 0 0 0.12500000000052089 0 0.12076953676380731 0.18690935762408761 0 0.74999999999934042 0 0 0.87499999999967015 0 0 0.81249999999950517 0.1082531754733404 0 0.24999999999941069 0 0 0.37499999999904599 0 0 0.31281086598417152 0.10449318608631281 0 0.50046028868828263 0.78376912307435687 0 0.37776173212361452 0.78514649317305008 0 0.44078402250377968 0.67714785211715212 0 0.68768773896438518 0.4586835206367198 0 0.75000000000032374 0.56698729811007709 0 0.62752533658682441 0.56838075195614346 0 0.31411863959822661 0.24965544328045999 0 0.37953773393552892 0.34812185820708452 0 0.24418615484441761 0.35773612382016978 0 0.68768773896438518 0.4586835206367198 0 0.81242894672211508 0.45500248311961472 0 0.75000000000032374 0.56698729811007709 0 1 0.24999999999941069 0 1 0.37499999999904599 0 0.88173731489851925 0.33077402607778361 0 0 0.75000000000034761 0 0 0.62500000000121547 0 0.1082531754723032 0.6875000000007816 0 0.50048844149666749 0.56727788297625459 0 0.44078402250377968 0.67714785211715212 0 0.38694285807596462 0.5672991787102919 0 0.50108503093851109 0.35012252869403671 0 0.44301038174930041 0.45684931552185398 0 0.37953773393552892 0.34812185820708452 0 0.50046028868828263 0.78376912307435687 0 0.56496004948275869 0.67675037307860475 0 0.62844955668446423 0.7850749770380413 0 0.68768773896438518 0.4586835206367198 0 0.75000000000057243 0.35048094716480432 0 0.81242894672211508 0.45500248311961472 0 0.56349980387502452 0.45846841892908402 0 0.62512662990940393 0.35044303886909911 0 0.68768773896438518 0.4586835206367198 0 0.50048844149666749 0.56727788297625459 0 0.38694285807596462 0.5672991787102919 0 0.44301038174930041 0.45684931552185398 0 0.50046028868828263 0.78376912307435687 0 0.44078402250377968 0.67714785211715212 0 0.56496004948275869 0.67675037307860475 0 0.50108503093851109 0.35012252869403671 0 0.37953773393552892 0.34812185820708452 0 0.43750000000200551 0.24222777169198509 0 0.75000000000034761 1 0 0.62500000000121547 1 0 0.69010814643829166 0.89298495739101336 0 0.68768773896438518 0.4586835206367198 0 0.62512662990940393 0.35044303886909911 0 0.75000000000057243 0.35048094716480432 0 0.56496004948275869 0.67675037307860475 0 0.44078402250377968 0.67714785211715212 0 0.50048844149666749 0.56727788297625459 0 0.56349980387502452 0.45846841892908402 0 0.44301038174930041 0.45684931552185398 0 0.50108503093851109 0.35012252869403671 0 0.50048844149666749 0.56727788297625459 0 0.44301038174930041 0.45684931552185398 0 0.56349980387502452 0.45846841892908402 0 0.56349980387502452 0.45846841892908402 0 0.50108503093851109 0.35012252869403671 0 0.62512662990940393 0.35044303886909911 0 0.43750000000200551 0.24222777169198509 0 0.37953773393552892 0.34812185820708452 0 0.31411863959822661 0.24965544328045999 0 0.56496004948275869 0.67675037307860475 0 0.50048844149666749 0.56727788297625459 0 0.62752533658682441 0.56838075195614346 0 0.56349980387502452 0.45846841892908402 0 0.68768773896438518 0.4586835206367198 0 0.62752533658682441 0.56838075195614346 0 0.50048844149666749 0.56727788297625459 0 0.56349980387502452 0.45846841892908402 0 0.62752533658682441 0.56838075195614346 0 0.75000000000057243 0.35048094716480432 0 0.62512662990940393 0.35044303886909911 0 0.68668231842078242 0.24762892664808989 0 0.50108503093851109 0.35012252869403671 0 0.43750000000200551 0.24222777169198509 0 0.56250000000143974 0.2422277716920859 0 0.62512662990940393 0.35044303886909911 0 0.50108503093851109 0.35012252869403671 0 0.56250000000143974 0.2422277716920859 0 0.68668231842078242 0.24762892664808989 0 0.62512662990940393 0.35044303886909911 0 0.56250000000143974 0.2422277716920859 0 0.22257735880419699 0.47344721641341742 0 0.24418615484441761 0.35773612382016978 0 0.32815957677880009 0.4577243358118348 0 0.12076953676380731 0.18690935762408761 0 0.19185372118111221 0.092925648673580788 0 0.25103557339309318 0.17464499738446629 0 0.20767261601459541 0.25628918442207171 0 0.12076953676380731 0.18690935762408761 0 0.25103557339309318 0.17464499738446629 0 0 0.87499999999950151 0 0 0.75000000000034761 0 0.10409951422139101 0.81206782209691231 0 0.1249999999997731 0 0 0.24999999999941069 0 0 0.19185372118111221 0.092925648673580788 0 1 0.1249999999997731 0 1 0.24999999999941069 0 0.89658421694297741 0.1933620068391701 0 0.88927506082488361 0.56409486310635837 0 0.81242894672211508 0.45500248311961472 0 0.915464298762109 0.43749999999886913 0 0.87499999999950151 1 0 0.75000000000034761 1 0 0.80886664387416207 0.89717308644237903 0 0.75000000000034761 1 0 0.69010814643829166 0.89298495739101336 0 0.80886664387416207 0.89717308644237903 0 0.82212678063041267 0.67678595194836966 0 0.88927506082488361 0.56409486310635837 0 0.92266244547590082 0.68749999999917555 0 0 0.75000000000034761 0 0.1082531754723032 0.6875000000007816 0 0.10409951422139101 0.81206782209691231 0 0.24999999999941069 0 0 0.31281086598417152 0.10449318608631281 0 0.19185372118111221 0.092925648673580788 0 1 0.24999999999941069 0 0.88173731489851925 0.33077402607778361 0 0.89658421694297741 0.1933620068391701 0 0.32815957677880009 0.4577243358118348 0 0.38694285807596462 0.5672991787102919 0 0.26982811998763367 0.56544650815856912 0 0.76243180583607129 0.78687675331113149 0 0.89051480781310632 0.79665793440246835 0 0.80886664387416207 0.89717308644237903 0 0.38694285807596462 0.5672991787102919 0 0.44078402250377968 0.67714785211715212 0 0.32607333794064219 0.67760114260606152 0 0.37776173212361452 0.78514649317305008 0 0.23533274979922561 0.77093399389351469 0 0.32607333794064219 0.67760114260606152 0 1 0.49999999999869221 0 0.88927506082488361 0.56409486310635837 0 0.915464298762109 0.43749999999886913 0 0.88173731489851925 0.33077402607778361 0 1 0.37499999999904599 0 0.915464298762109 0.43749999999886913 0 0.24418615484441761 0.35773612382016978 0 0.37953773393552892 0.34812185820708452 0 0.32815957677880009 0.4577243358118348 0 0.44301038174930041 0.45684931552185398 0 0.38694285807596462 0.5672991787102919 0 0.32815957677880009 0.4577243358118348 0 0.88927506082488361 0.56409486310635837 0 1 0.62499999999901068 0 0.92266244547590082 0.68749999999917555 0 1 0.74999999999934042 0 0.89051480781310632 0.79665793440246835 0 0.92266244547590082 0.68749999999917555 0 0 1 0 0 0.87499999999950151 0 0.091506350946494744 0.90849364905351082 0 1 1 0 0.87499999999950151 1 0 0.90849364905363228 0.90849364905367769 0 0 0 0 0.1249999999997731 0 0 0.091506350946417708 0.091506350946618076 0 0 0.12500000000052089 0 0 0 0 0.091506350946417708 0.091506350946618076 0 1 0 0 1 0.1249999999997731 0 0.90849364905355434 0.091506350946296292 0 0.87499999999967015 0 0 1 0 0 0.90849364905355434 0.091506350946296292 0 0.12500000000052089 1 0 0 1 0 0.091506350946494744 0.90849364905351082 0 1 0.87499999999967015 0 1 1 0 0.90849364905363228 0.90849364905367769 0 0.38694285807596462 0.5672991787102919 0 0.32607333794064219 0.67760114260606152 0 0.26982811998763367 0.56544650815856912 0 0.31411863959822661 0.24965544328045999 0 0.24418615484441761 0.35773612382016978 0 0.20767261601459541 0.25628918442207171 0 0.1082531754734323 0.31250000000117473 0 0.12076953676380731 0.18690935762408761 0 0.20767261601459541 0.25628918442207171 0 0.75000000000057243 0.35048094716480432 0 0.68668231842078242 0.24762892664808989 0 0.79891106056046712 0.25007334953587562 0 0.22257735880419699 0.47344721641341742 0 0.32815957677880009 0.4577243358118348 0 0.26982811998763367 0.56544650815856912 0 0.44078402250377968 0.67714785211715212 0 0.37776173212361452 0.78514649317305008 0 0.32607333794064219 0.67760114260606152 0 0.89658421694297741 0.1933620068391701 0 0.88173731489851925 0.33077402607778361 0 0.79891106056046712 0.25007334953587562 0 1 0.37499999999904599 0 1 0.49999999999869221 0 0.915464298762109 0.43749999999886913 0 0.37953773393552892 0.34812185820708452 0 0.44301038174930041 0.45684931552185398 0 0.32815957677880009 0.4577243358118348 0 0.32607333794064219 0.67760114260606152 0 0.21809253452218619 0.65480892822618109 0 0.26982811998763367 0.56544650815856912 0 1 0.1249999999997731 0 0.89658421694297741 0.1933620068391701 0 0.90849364905355434 0.091506350946296292 0 0 0.87499999999950151 0 0.10409951422139101 0.81206782209691231 0 0.091506350946494744 0.90849364905351082 0 0.1249999999997731 0 0 0.19185372118111221 0.092925648673580788 0 0.091506350946417708 0.091506350946618076 0 1 0.62499999999901068 0 1 0.74999999999934042 0 0.92266244547590082 0.68749999999917555 0 0.18802967116092181 0.89415349436770275 0 0.12500000000052089 1 0 0.091506350946494744 0.90849364905351082 0 0.89051480781310632 0.79665793440246835 0 1 0.87499999999967015 0 0.90849364905363228 0.90849364905367769 0 0.12076953676380731 0.18690935762408761 0 0 0.12500000000052089 0 0.091506350946417708 0.091506350946618076 0 0.81249999999950517 0.1082531754733404 0 0.87499999999967015 0 0 0.90849364905355434 0.091506350946296292 0 0.87499999999950151 1 0 0.80886664387416207 0.89717308644237903 0 0.90849364905363228 0.90849364905367769 0 0.68668231842078242 0.24762892664808989 0 0.62499999999892575 0.17524047358135519 0 0.73983916756365475 0.17530677078674589 0 0.31281086598417152 0.10449318608631281 0 0.43749999999910871 0.1082531754729984 0 0.37500000000232431 0.17524047358384309 0 0.62499999999892575 0.17524047358135519 0 0.56250000000143974 0.2422277716920859 0 0.49999999999934441 0.1752404735815076 0 0.56249999999885147 0.1082531754730395 0 0.68749999999926592 0.1082531754732875 0 0.62499999999892575 0.17524047358135519 0 0.56249999999885147 0.1082531754730395 0 0.62499999999892575 0.17524047358135519 0 0.49999999999934441 0.1752404735815076 0 0.56250000000143974 0.2422277716920859 0 0.43750000000200551 0.24222777169198509 0 0.49999999999934441 0.1752404735815076 0 0.43749999999910871 0.1082531754729984 0 0.56249999999885147 0.1082531754730395 0 0.49999999999934441 0.1752404735815076 0 0.68668231842078242 0.24762892664808989 0 0.56250000000143974 0.2422277716920859 0 0.62499999999892575 0.17524047358135519 0 0.43750000000200551 0.24222777169198509 0 0.31411863959822661 0.24965544328045999 0 0.37500000000232431 0.17524047358384309 0 0.49999999999934441 0.1752404735815076 0 0.43750000000200551 0.24222777169198509 0 0.37500000000232431 0.17524047358384309 0 0.43749999999910871 0.1082531754729984 0 0.49999999999934441 0.1752404735815076 0 0.37500000000232431 0.17524047358384309 0 0.62499999999892575 0.17524047358135519 0 0.68749999999926592 0.1082531754732875 0 0.73983916756365475 0.17530677078674589 0 0.68749999999926592 0.1082531754732875 0 0.81249999999950517 0.1082531754733404 0 0.73983916756365475 0.17530677078674589 0 0.10409951422139101 0.81206782209691231 0 0.18802967116092181 0.89415349436770275 0 0.091506350946494744 0.90849364905351082 0 0.89658421694297741 0.1933620068391701 0 0.81249999999950517 0.1082531754733404 0 0.90849364905355434 0.091506350946296292 0 0.19185372118111221 0.092925648673580788 0 0.12076953676380731 0.18690935762408761 0 0.091506350946417708 0.091506350946618076 0 0.37500000000232431 0.17524047358384309 0 0.31411863959822661 0.24965544328045999 0 0.25103557339309318 0.17464499738446629 0 0.31281086598417152 0.10449318608631281 0 0.37500000000232431 0.17524047358384309 0 0.25103557339309318 0.17464499738446629 0 0.80886664387416207 0.89717308644237903 0 0.89051480781310632 0.79665793440246835 0 0.90849364905363228 0.90849364905367769 0 0.19185372118111221 0.092925648673580788 0 0.31281086598417152 0.10449318608631281 0 0.25103557339309318 0.17464499738446629 0 0.79891106056046712 0.25007334953587562 0 0.68668231842078242 0.24762892664808989 0 0.73983916756365475 0.17530677078674589 0 0.31411863959822661 0.24965544328045999 0 0.20767261601459541 0.25628918442207171 0 0.25103557339309318 0.17464499738446629 0 

        </DataArray>

      </Points>

      <Cells>

        <DataArray type="Int32" Name="connectivity" format="ascii">

0 1 2 3 4 5 6 7 8 9 10 11 12 13 14 15 16 17 18 19 20 21 22 23 24 25 26 27 28 29 30 31 32 33 34 35 36 37 38 39 40 41 42 43 44 45 46 47 48 49 50 51 52 53 54 55 56 57 58 59 60 61 62 63 64 65 66 67 68 69 70 71 72 73 74 75 76 77 78 79 80 81 82 83 84 85 86 87 88 89 90 91 92 93 94 95 96 97 98 99 100 101 102 103 104 105 106 107 108 109 110 111 112 113 114 115 116 117 118 119 120 121 122 123 124 125 126 127 128 129 130 131 132 133 134 135 136 137 138 139 140 141 142 143 144 145 146 147 148 149 150 151 152 153 154 155 156 157 158 159 160 161 162 163 164 165 166 167 168 169 170 171 172 173 174 175 176 177 178 179 180 181 182 183 184 185 186 187 188 189 190 191 192 193 194 195 196 197 198 199 200 201 202 203 204 205 206 207 208 209 210 211 212 213 214 215 216 217 218 219 220 221 222 223 224 225 226 227 228 229 230 231 232 233 234 235 236 237 238 239 240 241 242 243 244 245 246 247 248 249 250 251 252 253 254 255 256 257 258 259 260 261 262 263 264 265 266 267 268 269 270 271 272 273 274 275 276 277 278 279 280 281 282 283 284 285 286 287 288 289 290 291 292 293 294 295 296 297 298 299 300 301 302 303 304 305 306 307 308 309 310 311 312 313 314 315 316 317 318 319 320 321 322 323 324 325 326 327 328 329 330 331 332 333 334 335 336 337 338 339 340 341 342 343 344 345 346 347 348 349 350 351 352 353 354 355 356 357 358 359 360 361 362 363 364 365 366 367 368 369 370 371 372 373 374 375 376 377 378 379 380 381 382 383 384 385 386 387 388 389 390 391 392 393 394 395 396 397 398 399 400 401 402 403 404 405 406 407 408 409 410 411 412 413 414 415 416 417 418 419 420 421 422 423 424 425 426 427 428 429 430 431 432 433 434 435 436 437 438 439 440 441 442 443 444 445 446 447 448 449 450 451 452 453 454 455 456 457 458 459 460 461 462 463 464 465 466 467 468 469 470 471 472 473 474 475 476 477 478 479 480 481 482 483 484 485 

        </DataArray>

        <DataArray type="Int32" Name="offsets" format="ascii">

3 6 9 12 15 18 21 24 27 30 33 36 39 42 45 48 51 54 57 60 63 66 69 72 75 78 81 84 87 90 93 96 99 102 105 108 111 114 117 120 123 126 129 132 135 138 141 144 147 150 153 156 159 162 165 168 171 174 177 180 183 186 189 192 195 198 201 204 207 210 213 216 219 222 225 228 231 234 237 240 243 246 249 252 255 258 261 264 267 270 273 276 279 282 285 288 291 294 297 300 303 306 309 312 315 318 321 324 327 330 333 336 339 342 345 348 351 354 357 360 363 366 369 372 375 378 381 384 387 390 393 396 399 402 405 408 411 414 417 420 423 426 429 432 435 438 441 444 447 450 453 456 459 462 465 468 471 474 477 480 483 486 

        </DataArray>

        <DataArray type="Int32" Name="types" format="ascii">

5 5 5 5 5 5 5 5 5 5 5 5 5 5 5 5 5 5 5 5 5 5 5 5 5 5 5 5 5 5 5 5 5 5 5 5 5 5 5 5 5 5 5 5 5 5 5 5 5 5 5 5 5 5 5 5 5 5 5 5 5 5 5 5 5 5 5 5 5 5 5 5 5 5 5 5 5 5 5 5 5 5 5 5 5 5 5 5 5 5 5 5 5 5 5 5 5 5 5 5 5 5 5 5 5 5 5 5 5 5 5 5 5 5 5 5 5 5 5 5 5 5 5 5 5 5 5 5 5 5 5 5 5 5 5 5 5 5 5 5 5 5 5 5 5 5 5 5 5 5 5 5 5 5 5 5 5 5 5 5 5 5 

        </DataArray>

      </Cells>

    </Piece>

  </UnstructuredGrid>

</VTKFile>

