<?xml version="1.0"?>

<VTKFile type="UnstructuredGrid" version="0.1">

  <UnstructuredGrid>

    <Piece NumberOfPoints="486" NumberOfCells="162">

      <PointData>

        <DataArray type="Float64" Name="K" format="ascii">

1.02951412877809401e+00
1.02951412877809401e+00
1.02951412877809401e+00
1.06609414779180867e+00
1.06609414779180867e+00
1.06609414779180867e+00
1.05876119838929350e+00
1.05876119838929350e+00
1.05876119838929350e+00
1.00417728802364281e+00
1.00417728802364281e+00
1.00417728802364281e+00
1.07490197078993077e+00
1.07490197078993077e+00
1.07490197078993077e+00
9.69243391839674895e-01
9.69243391839674895e-01
9.69243391839674895e-01
1.02233050313208174e+00
1.02233050313208174e+00
1.02233050313208174e+00
9.83449214082513734e-01
9.83449214082513734e-01
9.83449214082513734e-01
9.87137929821663485e-01
9.87137929821663485e-01
9.87137929821663485e-01
9.96343834370987724e-01
9.96343834370987724e-01
9.96343834370987724e-01
1.04597773620703238e+00
1.04597773620703238e+00
1.04597773620703238e+00
1.03234776056756417e+00
1.03234776056756417e+00
1.03234776056756417e+00
9.43618106610941809e-01
9.43618106610941809e-01
9.43618106610941809e-01
9.48619214508653941e-01
9.48619214508653941e-01
9.48619214508653941e-01
9.91658002423390084e-01
9.91658002423390084e-01
9.91658002423390084e-01
9.70495216365718227e-01
9.70495216365718227e-01
9.70495216365718227e-01
9.97629006020770093e-01
9.97629006020770093e-01
9.97629006020770093e-01
1.08529879657485462e+00
1.08529879657485462e+00
1.08529879657485462e+00
9.62204934115268307e-01
9.62204934115268307e-01
9.62204934115268307e-01
9.93691912692383106e-01
9.93691912692383106e-01
9.93691912692383106e-01
1.10387357303978573e+00
1.10387357303978573e+00
1.10387357303978573e+00
1.10333328991605994e+00
1.10333328991605994e+00
1.10333328991605994e+00
1.03693199189298602e+00
1.03693199189298602e+00
1.03693199189298602e+00
1.03697990792178008e+00
1.03697990792178008e+00
1.03697990792178008e+00
9.41186609386551853e-01
9.41186609386551853e-01
9.41186609386551853e-01
1.08219913244872590e+00
1.08219913244872590e+00
1.08219913244872590e+00
1.08878739659230228e+00
1.08878739659230228e+00
1.08878739659230228e+00
1.05047830765158756e+00
1.05047830765158756e+00
1.05047830765158756e+00
1.07763265914845507e+00
1.07763265914845507e+00
1.07763265914845507e+00
9.51513216761076031e-01
9.51513216761076031e-01
9.51513216761076031e-01
9.97767444439016105e-01
9.97767444439016105e-01
9.97767444439016105e-01
9.29784005855474827e-01
9.29784005855474827e-01
9.29784005855474827e-01
9.36052227389998492e-01
9.36052227389998492e-01
9.36052227389998492e-01
1.02957003675550318e+00
1.02957003675550318e+00
1.02957003675550318e+00
9.33292514119238525e-01
9.33292514119238525e-01
9.33292514119238525e-01
9.76431183427784566e-01
9.76431183427784566e-01
9.76431183427784566e-01
1.01478576066651383e+00
1.01478576066651383e+00
1.01478576066651383e+00
1.00147931237228072e+00
1.00147931237228072e+00
1.00147931237228072e+00
1.00530956924590287e+00
1.00530956924590287e+00
1.00530956924590287e+00
9.55133837891229298e-01
9.55133837891229298e-01
9.55133837891229298e-01
9.51046553409438777e-01
9.51046553409438777e-01
9.51046553409438777e-01
1.06218673170573141e+00
1.06218673170573141e+00
1.06218673170573141e+00
9.40596588038947190e-01
9.40596588038947190e-01
9.40596588038947190e-01
1.00792704883592887e+00
1.00792704883592887e+00
1.00792704883592887e+00
1.02454422424650704e+00
1.02454422424650704e+00
1.02454422424650704e+00
9.75782885771745767e-01
9.75782885771745767e-01
9.75782885771745767e-01
9.54422726330554028e-01
9.54422726330554028e-01
9.54422726330554028e-01
9.48004129937509710e-01
9.48004129937509710e-01
9.48004129937509710e-01
9.35003634126798766e-01
9.35003634126798766e-01
9.35003634126798766e-01
9.88594372921381748e-01
9.88594372921381748e-01
9.88594372921381748e-01
1.00914268806599283e+00
1.00914268806599283e+00
1.00914268806599283e+00
9.60762552777065126e-01
9.60762552777065126e-01
9.60762552777065126e-01
1.11514804682937374e+00
1.11514804682937374e+00
1.11514804682937374e+00
9.75987090991737638e-01
9.75987090991737638e-01
9.75987090991737638e-01
9.41455823740791731e-01
9.41455823740791731e-01
9.41455823740791731e-01
9.94103030372181284e-01
9.94103030372181284e-01
9.94103030372181284e-01
9.61184609641486776e-01
9.61184609641486776e-01
9.61184609641486776e-01
1.09703404917726877e+00
1.09703404917726877e+00
1.09703404917726877e+00
1.00971404297089085e+00
1.00971404297089085e+00
1.00971404297089085e+00
9.78681542340098298e-01
9.78681542340098298e-01
9.78681542340098298e-01
1.11706680468199560e+00
1.11706680468199560e+00
1.11706680468199560e+00
9.38347694980367741e-01
9.38347694980367741e-01
9.38347694980367741e-01
9.43843237799327328e-01
9.43843237799327328e-01
9.43843237799327328e-01
9.69586073736650733e-01
9.69586073736650733e-01
9.69586073736650733e-01
1.00593710052504903e+00
1.00593710052504903e+00
1.00593710052504903e+00
9.63383469518062308e-01
9.63383469518062308e-01
9.63383469518062308e-01
9.23906801697969016e-01
9.23906801697969016e-01
9.23906801697969016e-01
1.00352070405892624e+00
1.00352070405892624e+00
1.00352070405892624e+00
9.93925003150703867e-01
9.93925003150703867e-01
9.93925003150703867e-01
1.07126099083700610e+00
1.07126099083700610e+00
1.07126099083700610e+00
9.99274588950157971e-01
9.99274588950157971e-01
9.99274588950157971e-01
9.87199099433198723e-01
9.87199099433198723e-01
9.87199099433198723e-01
1.00793470036062671e+00
1.00793470036062671e+00
1.00793470036062671e+00
1.02902100005553199e+00
1.02902100005553199e+00
1.02902100005553199e+00
9.77691494070695999e-01
9.77691494070695999e-01
9.77691494070695999e-01
1.06297032859288620e+00
1.06297032859288620e+00
1.06297032859288620e+00
1.02265813328033950e+00
1.02265813328033950e+00
1.02265813328033950e+00
9.97462141323025020e-01
9.97462141323025020e-01
9.97462141323025020e-01
9.91231944688466204e-01
9.91231944688466204e-01
9.91231944688466204e-01
1.06333316524001331e+00
1.06333316524001331e+00
1.06333316524001331e+00
1.03874185969302868e+00
1.03874185969302868e+00
1.03874185969302868e+00
1.04846977572108102e+00
1.04846977572108102e+00
1.04846977572108102e+00
1.01039223545241863e+00
1.01039223545241863e+00
1.01039223545241863e+00
1.00707989433659928e+00
1.00707989433659928e+00
1.00707989433659928e+00
9.97567846738104613e-01
9.97567846738104613e-01
9.97567846738104613e-01
1.01623590714184786e+00
1.01623590714184786e+00
1.01623590714184786e+00
1.01839438667760951e+00
1.01839438667760951e+00
1.01839438667760951e+00
1.07654628415155540e+00
1.07654628415155540e+00
1.07654628415155540e+00
1.06284001609023582e+00
1.06284001609023582e+00
1.06284001609023582e+00
1.04108518471189471e+00
1.04108518471189471e+00
1.04108518471189471e+00
1.06836649436312836e+00
1.06836649436312836e+00
1.06836649436312836e+00
9.91391814315348952e-01
9.91391814315348952e-01
9.91391814315348952e-01
1.00207492055773506e+00
1.00207492055773506e+00
1.00207492055773506e+00
9.81498575641492677e-01
9.81498575641492677e-01
9.81498575641492677e-01
9.70836188507164244e-01
9.70836188507164244e-01
9.70836188507164244e-01
9.82341421274176674e-01
9.82341421274176674e-01
9.82341421274176674e-01
9.46904980807091734e-01
9.46904980807091734e-01
9.46904980807091734e-01
1.02190715080954964e+00
1.02190715080954964e+00
1.02190715080954964e+00
1.01813306038737417e+00
1.01813306038737417e+00
1.01813306038737417e+00
9.67238636259520446e-01
9.67238636259520446e-01
9.67238636259520446e-01
9.99155680673390112e-01
9.99155680673390112e-01
9.99155680673390112e-01
9.46173994158188592e-01
9.46173994158188592e-01
9.46173994158188592e-01
9.86936507034444466e-01
9.86936507034444466e-01
9.86936507034444466e-01
1.06639587567332716e+00
1.06639587567332716e+00
1.06639587567332716e+00
1.00623692138738607e+00
1.00623692138738607e+00
1.00623692138738607e+00
9.89067376712481239e-01
9.89067376712481239e-01
9.89067376712481239e-01
9.86829955589294094e-01
9.86829955589294094e-01
9.86829955589294094e-01
9.25333574909299572e-01
9.25333574909299572e-01
9.25333574909299572e-01
9.30019557927037943e-01
9.30019557927037943e-01
9.30019557927037943e-01
1.04276484145845605e+00
1.04276484145845605e+00
1.04276484145845605e+00
1.05266360106490997e+00
1.05266360106490997e+00
1.05266360106490997e+00
9.69457852867446346e-01
9.69457852867446346e-01
9.69457852867446346e-01
1.01220047630802701e+00
1.01220047630802701e+00
1.01220047630802701e+00
9.69753480276007163e-01
9.69753480276007163e-01
9.69753480276007163e-01
1.00720091398781730e+00
1.00720091398781730e+00
1.00720091398781730e+00
1.00571392562790218e+00
1.00571392562790218e+00
1.00571392562790218e+00
9.91635719190391840e-01
9.91635719190391840e-01
9.91635719190391840e-01
1.02950862890596562e+00
1.02950862890596562e+00
1.02950862890596562e+00
1.05446875297619758e+00
1.05446875297619758e+00
1.05446875297619758e+00
9.49177077610131925e-01
9.49177077610131925e-01
9.49177077610131925e-01
9.95545785785137083e-01
9.95545785785137083e-01
9.95545785785137083e-01
1.04522749978316787e+00
1.04522749978316787e+00
1.04522749978316787e+00
9.99173610597474671e-01
9.99173610597474671e-01
9.99173610597474671e-01
1.02934934137598044e+00
1.02934934137598044e+00
1.02934934137598044e+00
1.04017729989601015e+00
1.04017729989601015e+00
1.04017729989601015e+00
1.08875330206086196e+00
1.08875330206086196e+00
1.08875330206086196e+00
9.56539076289883328e-01
9.56539076289883328e-01
9.56539076289883328e-01
1.04451506290932783e+00
1.04451506290932783e+00
1.04451506290932783e+00
9.00031489295182618e-01
9.00031489295182618e-01
9.00031489295182618e-01
1.05956901035547335e+00
1.05956901035547335e+00
1.05956901035547335e+00
1.07544467834730906e+00
1.07544467834730906e+00
1.07544467834730906e+00
1.03167008539558380e+00
1.03167008539558380e+00
1.03167008539558380e+00
9.69647184253893402e-01
9.69647184253893402e-01
9.69647184253893402e-01
9.95622325379849515e-01
9.95622325379849515e-01
9.95622325379849515e-01
9.88070452120657583e-01
9.88070452120657583e-01
9.88070452120657583e-01
9.44647362899635912e-01
9.44647362899635912e-01
9.44647362899635912e-01
1.02224730025930488e+00
1.02224730025930488e+00
1.02224730025930488e+00
9.95427361640636832e-01
9.95427361640636832e-01
9.95427361640636832e-01
1.09044876108198219e+00
1.09044876108198219e+00
1.09044876108198219e+00
1.02441352525059481e+00
1.02441352525059481e+00
1.02441352525059481e+00
1.05842396098144231e+00
1.05842396098144231e+00
1.05842396098144231e+00
9.51353271516911625e-01
9.51353271516911625e-01
9.51353271516911625e-01
1.06463942533741607e+00
1.06463942533741607e+00
1.06463942533741607e+00
1.06386908734336072e+00
1.06386908734336072e+00
1.06386908734336072e+00
1.05680519110554183e+00
1.05680519110554183e+00
1.05680519110554183e+00
1.06306085558573593e+00
1.06306085558573593e+00
1.06306085558573593e+00
1.03011992423492305e+00
1.03011992423492305e+00
1.03011992423492305e+00
1.05379990807845680e+00
1.05379990807845680e+00
1.05379990807845680e+00
9.81831789037761915e-01
9.81831789037761915e-01
9.81831789037761915e-01
1.01825296654008479e+00
1.01825296654008479e+00
1.01825296654008479e+00
9.99984287264585547e-01
9.99984287264585547e-01
9.99984287264585547e-01
1.07312057799549554e+00
1.07312057799549554e+00
1.07312057799549554e+00
1.09795827902079579e+00
1.09795827902079579e+00
1.09795827902079579e+00
9.68597485936802838e-01
9.68597485936802838e-01
9.68597485936802838e-01
1.07835570481101972e+00
1.07835570481101972e+00
1.07835570481101972e+00
1.00349651347911539e+00
1.00349651347911539e+00
1.00349651347911539e+00
9.49642044430650589e-01
9.49642044430650589e-01
9.49642044430650589e-01
9.37360453859036991e-01
9.37360453859036991e-01
9.37360453859036991e-01
1.02800480406574790e+00
1.02800480406574790e+00
1.02800480406574790e+00
9.50762448640889324e-01
9.50762448640889324e-01
9.50762448640889324e-01
1.06243020620751150e+00
1.06243020620751150e+00
1.06243020620751150e+00
9.72548310361053159e-01
9.72548310361053159e-01
9.72548310361053159e-01


        </DataArray>

      </PointData>

      <CellData/>

      <Points>

        <DataArray type="Float64" NumberOfComponents="3" format="ascii">

0.1082531754723032 0.6875000000007816 0 0.23533274979922561 0.77093399389351469 0 0.10409951422139101 0.81206782209691231 0 0.23533274979922561 0.77093399389351469 0 0.1082531754723032 0.6875000000007816 0 0.21809253452218619 0.65480892822618109 0 0.24418615484441761 0.35773612382016978 0 0.121259140952891 0.43112117036853742 0 0.1082531754734323 0.31250000000117473 0 0.75000000000057243 0.35048094716480432 0 0.88173731489851925 0.33077402607778361 0 0.81242894672211508 0.45500248311961472 0 0.121259140952891 0.43112117036853742 0 0.24418615484441761 0.35773612382016978 0 0.22257735880419699 0.47344721641341742 0 0.81242894672211508 0.45500248311961472 0 0.88173731489851925 0.33077402607778361 0 0.915464298762109 0.43749999999886913 0 0 0.62500000000121547 0 0 0.50000000000206146 0 0.1371230538040123 0.56179824718362847 0 0.82212678063041267 0.67678595194836966 0 0.89051480781310632 0.79665793440246835 0 0.76243180583607129 0.78687675331113149 0 0.76243180583607129 0.78687675331113149 0 0.69010814643829166 0.89298495739101336 0 0.62844955668446423 0.7850749770380413 0 0.89051480781310632 0.79665793440246835 0 0.82212678063041267 0.67678595194836966 0 0.92266244547590082 0.68749999999917555 0 0 0.50000000000206146 0 0.121259140952891 0.43112117036853742 0 0.1371230538040123 0.56179824718362847 0 0.1082531754723032 0.6875000000007816 0 0 0.62500000000121547 0 0.1371230538040123 0.56179824718362847 0 0.75000000000032374 0.56698729811007709 0 0.88927506082488361 0.56409486310635837 0 0.82212678063041267 0.67678595194836966 0 0.81242894672211508 0.45500248311961472 0 0.88927506082488361 0.56409486310635837 0 0.75000000000032374 0.56698729811007709 0 0.69851598570178741 0.68211701800612057 0 0.56496004948275869 0.67675037307860475 0 0.62752533658682441 0.56838075195614346 0 0.69851598570178741 0.68211701800612057 0 0.76243180583607129 0.78687675331113149 0 0.62844955668446423 0.7850749770380413 0 0.23533274979922561 0.77093399389351469 0 0.18802967116092181 0.89415349436770275 0 0.10409951422139101 0.81206782209691231 0 0.121259140952891 0.43112117036853742 0 0.22257735880419699 0.47344721641341742 0 0.1371230538040123 0.56179824718362847 0 0.75000000000032374 0.56698729811007709 0 0.69851598570178741 0.68211701800612057 0 0.62752533658682441 0.56838075195614346 0 0.56496004948275869 0.67675037307860475 0 0.69851598570178741 0.68211701800612057 0 0.62844955668446423 0.7850749770380413 0 0.1371230538040123 0.56179824718362847 0 0.22257735880419699 0.47344721641341742 0 0.26982811998763367 0.56544650815856912 0 0.21809253452218619 0.65480892822618109 0 0.1371230538040123 0.56179824718362847 0 0.26982811998763367 0.56544650815856912 0 0.24418615484441761 0.35773612382016978 0 0.1082531754734323 0.31250000000117473 0 0.20767261601459541 0.25628918442207171 0 0.88173731489851925 0.33077402607778361 0 0.75000000000057243 0.35048094716480432 0 0.79891106056046712 0.25007334953587562 0 0.75000000000032374 0.56698729811007709 0 0.82212678063041267 0.67678595194836966 0 0.69851598570178741 0.68211701800612057 0 0.81249999999950517 0.1082531754733404 0 0.89658421694297741 0.1933620068391701 0 0.79891106056046712 0.25007334953587562 0 0.81249999999950517 0.1082531754733404 0 0.79891106056046712 0.25007334953587562 0 0.73983916756365475 0.17530677078674589 0 0.23533274979922561 0.77093399389351469 0 0.21809253452218619 0.65480892822618109 0 0.32607333794064219 0.67760114260606152 0 0.1082531754723032 0.6875000000007816 0 0.1371230538040123 0.56179824718362847 0 0.21809253452218619 0.65480892822618109 0 0.69851598570178741 0.68211701800612057 0 0.82212678063041267 0.67678595194836966 0 0.76243180583607129 0.78687675331113149 0 0.69010814643829166 0.89298495739101336 0 0.76243180583607129 0.78687675331113149 0 0.80886664387416207 0.89717308644237903 0 0.43750000000181222 0.89174682452709564 0 0.31258827852827581 0.89214793616708443 0 0.37776173212361452 0.78514649317305008 0 0.43750000000181222 0.89174682452709564 0 0.37500000000156292 1 0 0.31258827852827581 0.89214793616708443 0 0.121259140952891 0.43112117036853742 0 0 0.37500000000156292 0 0.1082531754734323 0.31250000000117473 0 0.50000000000206146 1 0 0.37500000000156292 1 0 0.43750000000181222 0.89174682452709564 0 0.31258827852827581 0.89214793616708443 0 0.18802967116092181 0.89415349436770275 0 0.23533274979922561 0.77093399389351469 0 0 0.50000000000206146 0 0 0.37500000000156292 0 0.121259140952891 0.43112117036853742 0 0.62844955668446423 0.7850749770380413 0 0.69010814643829166 0.89298495739101336 0 0.56327595140699671 0.89211526915426331 0 0.69010814643829166 0.89298495739101336 0 0.62500000000121547 1 0 0.56327595140699671 0.89211526915426331 0 0.25000000000104189 1 0 0.18802967116092181 0.89415349436770275 0 0.31258827852827581 0.89214793616708443 0 0.50000000000206146 1 0 0.43750000000181222 0.89174682452709564 0 0.56327595140699671 0.89211526915426331 0 0.56249999999885147 0.1082531754730395 0 0.62499999999901068 0 0 0.68749999999926592 0.1082531754732875 0 1 0.49999999999869221 0 1 0.62499999999901068 0 0.88927506082488361 0.56409486310635837 0 0 0.25000000000104189 0 0.12076953676380731 0.18690935762408761 0 0.1082531754734323 0.31250000000117473 0 0.49999999999869221 0 0 0.62499999999901068 0 0 0.56249999999885147 0.1082531754730395 0 0.62500000000121547 1 0 0.50000000000206146 1 0 0.56327595140699671 0.89211526915426331 0 0.37500000000156292 1 0 0.25000000000104189 1 0 0.31258827852827581 0.89214793616708443 0 0.31281086598417152 0.10449318608631281 0 0.37499999999904599 0 0 0.43749999999910871 0.1082531754729984 0 0.43750000000181222 0.89174682452709564 0 0.37776173212361452 0.78514649317305008 0 0.50046028868828263 0.78376912307435687 0 0 0.37500000000156292 0 0 0.25000000000104189 0 0.1082531754734323 0.31250000000117473 0 0.49999999999869221 0 0 0.56249999999885147 0.1082531754730395 0 0.43749999999910871 0.1082531754729984 0 0.43750000000181222 0.89174682452709564 0 0.50046028868828263 0.78376912307435687 0 0.56327595140699671 0.89211526915426331 0 0.74999999999934042 0 0 0.81249999999950517 0.1082531754733404 0 0.68749999999926592 0.1082531754732875 0 0.37499999999904599 0 0 0.49999999999869221 0 0 0.43749999999910871 0.1082531754729984 0 0.25000000000104189 1 0 0.12500000000052089 1 0 0.18802967116092181 0.89415349436770275 0 0.50046028868828263 0.78376912307435687 0 0.62844955668446423 0.7850749770380413 0 0.56327595140699671 0.89211526915426331 0 0.37776173212361452 0.78514649317305008 0 0.31258827852827581 0.89214793616708443 0 0.23533274979922561 0.77093399389351469 0 0.62499999999901068 0 0 0.74999999999934042 0 0 0.68749999999926592 0.1082531754732875 0 1 0.74999999999934042 0 1 0.87499999999967015 0 0.89051480781310632 0.79665793440246835 0 0 0.25000000000104189 0 0 0.12500000000052089 0 0.12076953676380731 0.18690935762408761 0 0.74999999999934042 0 0 0.87499999999967015 0 0 0.81249999999950517 0.1082531754733404 0 0.24999999999941069 0 0 0.37499999999904599 0 0 0.31281086598417152 0.10449318608631281 0 0.50046028868828263 0.78376912307435687 0 0.37776173212361452 0.78514649317305008 0 0.44078402250377968 0.67714785211715212 0 0.68768773896438518 0.4586835206367198 0 0.75000000000032374 0.56698729811007709 0 0.62752533658682441 0.56838075195614346 0 0.31411863959822661 0.24965544328045999 0 0.37953773393552892 0.34812185820708452 0 0.24418615484441761 0.35773612382016978 0 0.68768773896438518 0.4586835206367198 0 0.81242894672211508 0.45500248311961472 0 0.75000000000032374 0.56698729811007709 0 1 0.24999999999941069 0 1 0.37499999999904599 0 0.88173731489851925 0.33077402607778361 0 0 0.75000000000034761 0 0 0.62500000000121547 0 0.1082531754723032 0.6875000000007816 0 0.50048844149666749 0.56727788297625459 0 0.44078402250377968 0.67714785211715212 0 0.38694285807596462 0.5672991787102919 0 0.50108503093851109 0.35012252869403671 0 0.44301038174930041 0.45684931552185398 0 0.37953773393552892 0.34812185820708452 0 0.50046028868828263 0.78376912307435687 0 0.56496004948275869 0.67675037307860475 0 0.62844955668446423 0.7850749770380413 0 0.68768773896438518 0.4586835206367198 0 0.75000000000057243 0.35048094716480432 0 0.81242894672211508 0.45500248311961472 0 0.56349980387502452 0.45846841892908402 0 0.62512662990940393 0.35044303886909911 0 0.68768773896438518 0.4586835206367198 0 0.50048844149666749 0.56727788297625459 0 0.38694285807596462 0.5672991787102919 0 0.44301038174930041 0.45684931552185398 0 0.50046028868828263 0.78376912307435687 0 0.44078402250377968 0.67714785211715212 0 0.56496004948275869 0.67675037307860475 0 0.50108503093851109 0.35012252869403671 0 0.37953773393552892 0.34812185820708452 0 0.43750000000200551 0.24222777169198509 0 0.75000000000034761 1 0 0.62500000000121547 1 0 0.69010814643829166 0.89298495739101336 0 0.68768773896438518 0.4586835206367198 0 0.62512662990940393 0.35044303886909911 0 0.75000000000057243 0.35048094716480432 0 0.56496004948275869 0.67675037307860475 0 0.44078402250377968 0.67714785211715212 0 0.50048844149666749 0.56727788297625459 0 0.56349980387502452 0.45846841892908402 0 0.44301038174930041 0.45684931552185398 0 0.50108503093851109 0.35012252869403671 0 0.50048844149666749 0.56727788297625459 0 0.44301038174930041 0.45684931552185398 0 0.56349980387502452 0.45846841892908402 0 0.56349980387502452 0.45846841892908402 0 0.50108503093851109 0.35012252869403671 0 0.62512662990940393 0.35044303886909911 0 0.43750000000200551 0.24222777169198509 0 0.37953773393552892 0.34812185820708452 0 0.31411863959822661 0.24965544328045999 0 0.56496004948275869 0.67675037307860475 0 0.50048844149666749 0.56727788297625459 0 0.62752533658682441 0.56838075195614346 0 0.56349980387502452 0.45846841892908402 0 0.68768773896438518 0.4586835206367198 0 0.62752533658682441 0.56838075195614346 0 0.50048844149666749 0.56727788297625459 0 0.56349980387502452 0.45846841892908402 0 0.62752533658682441 0.56838075195614346 0 0.75000000000057243 0.35048094716480432 0 0.62512662990940393 0.35044303886909911 0 0.68668231842078242 0.24762892664808989 0 0.50108503093851109 0.35012252869403671 0 0.43750000000200551 0.24222777169198509 0 0.56250000000143974 0.2422277716920859 0 0.62512662990940393 0.35044303886909911 0 0.50108503093851109 0.35012252869403671 0 0.56250000000143974 0.2422277716920859 0 0.68668231842078242 0.24762892664808989 0 0.62512662990940393 0.35044303886909911 0 0.56250000000143974 0.2422277716920859 0 0.22257735880419699 0.47344721641341742 0 0.24418615484441761 0.35773612382016978 0 0.32815957677880009 0.4577243358118348 0 0.12076953676380731 0.18690935762408761 0 0.19185372118111221 0.092925648673580788 0 0.25103557339309318 0.17464499738446629 0 0.20767261601459541 0.25628918442207171 0 0.12076953676380731 0.18690935762408761 0 0.25103557339309318 0.17464499738446629 0 0 0.87499999999950151 0 0 0.75000000000034761 0 0.10409951422139101 0.81206782209691231 0 0.1249999999997731 0 0 0.24999999999941069 0 0 0.19185372118111221 0.092925648673580788 0 1 0.1249999999997731 0 1 0.24999999999941069 0 0.89658421694297741 0.1933620068391701 0 0.88927506082488361 0.56409486310635837 0 0.81242894672211508 0.45500248311961472 0 0.915464298762109 0.43749999999886913 0 0.87499999999950151 1 0 0.75000000000034761 1 0 0.80886664387416207 0.89717308644237903 0 0.75000000000034761 1 0 0.69010814643829166 0.89298495739101336 0 0.80886664387416207 0.89717308644237903 0 0.82212678063041267 0.67678595194836966 0 0.88927506082488361 0.56409486310635837 0 0.92266244547590082 0.68749999999917555 0 0 0.75000000000034761 0 0.1082531754723032 0.6875000000007816 0 0.10409951422139101 0.81206782209691231 0 0.24999999999941069 0 0 0.31281086598417152 0.10449318608631281 0 0.19185372118111221 0.092925648673580788 0 1 0.24999999999941069 0 0.88173731489851925 0.33077402607778361 0 0.89658421694297741 0.1933620068391701 0 0.32815957677880009 0.4577243358118348 0 0.38694285807596462 0.5672991787102919 0 0.26982811998763367 0.56544650815856912 0 0.76243180583607129 0.78687675331113149 0 0.89051480781310632 0.79665793440246835 0 0.80886664387416207 0.89717308644237903 0 0.38694285807596462 0.5672991787102919 0 0.44078402250377968 0.67714785211715212 0 0.32607333794064219 0.67760114260606152 0 0.37776173212361452 0.78514649317305008 0 0.23533274979922561 0.77093399389351469 0 0.32607333794064219 0.67760114260606152 0 1 0.49999999999869221 0 0.88927506082488361 0.56409486310635837 0 0.915464298762109 0.43749999999886913 0 0.88173731489851925 0.33077402607778361 0 1 0.37499999999904599 0 0.915464298762109 0.43749999999886913 0 0.24418615484441761 0.35773612382016978 0 0.37953773393552892 0.34812185820708452 0 0.32815957677880009 0.4577243358118348 0 0.44301038174930041 0.45684931552185398 0 0.38694285807596462 0.5672991787102919 0 0.32815957677880009 0.4577243358118348 0 0.88927506082488361 0.56409486310635837 0 1 0.62499999999901068 0 0.92266244547590082 0.68749999999917555 0 1 0.74999999999934042 0 0.89051480781310632 0.79665793440246835 0 0.92266244547590082 0.68749999999917555 0 0 1 0 0 0.87499999999950151 0 0.091506350946494744 0.90849364905351082 0 1 1 0 0.87499999999950151 1 0 0.90849364905363228 0.90849364905367769 0 0 0 0 0.1249999999997731 0 0 0.091506350946417708 0.091506350946618076 0 0 0.12500000000052089 0 0 0 0 0.091506350946417708 0.091506350946618076 0 1 0 0 1 0.1249999999997731 0 0.90849364905355434 0.091506350946296292 0 0.87499999999967015 0 0 1 0 0 0.90849364905355434 0.091506350946296292 0 0.12500000000052089 1 0 0 1 0 0.091506350946494744 0.90849364905351082 0 1 0.87499999999967015 0 1 1 0 0.90849364905363228 0.90849364905367769 0 0.38694285807596462 0.5672991787102919 0 0.32607333794064219 0.67760114260606152 0 0.26982811998763367 0.56544650815856912 0 0.31411863959822661 0.24965544328045999 0 0.24418615484441761 0.35773612382016978 0 0.20767261601459541 0.25628918442207171 0 0.1082531754734323 0.31250000000117473 0 0.12076953676380731 0.18690935762408761 0 0.20767261601459541 0.25628918442207171 0 0.75000000000057243 0.35048094716480432 0 0.68668231842078242 0.24762892664808989 0 0.79891106056046712 0.25007334953587562 0 0.22257735880419699 0.47344721641341742 0 0.32815957677880009 0.4577243358118348 0 0.26982811998763367 0.56544650815856912 0 0.44078402250377968 0.67714785211715212 0 0.37776173212361452 0.78514649317305008 0 0.32607333794064219 0.67760114260606152 0 0.89658421694297741 0.1933620068391701 0 0.88173731489851925 0.33077402607778361 0 0.79891106056046712 0.25007334953587562 0 1 0.37499999999904599 0 1 0.49999999999869221 0 0.915464298762109 0.43749999999886913 0 0.37953773393552892 0.34812185820708452 0 0.44301038174930041 0.45684931552185398 0 0.32815957677880009 0.4577243358118348 0 0.32607333794064219 0.67760114260606152 0 0.21809253452218619 0.65480892822618109 0 0.26982811998763367 0.56544650815856912 0 1 0.1249999999997731 0 0.89658421694297741 0.1933620068391701 0 0.90849364905355434 0.091506350946296292 0 0 0.87499999999950151 0 0.10409951422139101 0.81206782209691231 0 0.091506350946494744 0.90849364905351082 0 0.1249999999997731 0 0 0.19185372118111221 0.092925648673580788 0 0.091506350946417708 0.091506350946618076 0 1 0.62499999999901068 0 1 0.74999999999934042 0 0.92266244547590082 0.68749999999917555 0 0.18802967116092181 0.89415349436770275 0 0.12500000000052089 1 0 0.091506350946494744 0.90849364905351082 0 0.89051480781310632 0.79665793440246835 0 1 0.87499999999967015 0 0.90849364905363228 0.90849364905367769 0 0.12076953676380731 0.18690935762408761 0 0 0.12500000000052089 0 0.091506350946417708 0.091506350946618076 0 0.81249999999950517 0.1082531754733404 0 0.87499999999967015 0 0 0.90849364905355434 0.091506350946296292 0 0.87499999999950151 1 0 0.80886664387416207 0.89717308644237903 0 0.90849364905363228 0.90849364905367769 0 0.68668231842078242 0.24762892664808989 0 0.62499999999892575 0.17524047358135519 0 0.73983916756365475 0.17530677078674589 0 0.31281086598417152 0.10449318608631281 0 0.43749999999910871 0.1082531754729984 0 0.37500000000232431 0.17524047358384309 0 0.62499999999892575 0.17524047358135519 0 0.56250000000143974 0.2422277716920859 0 0.49999999999934441 0.1752404735815076 0 0.56249999999885147 0.1082531754730395 0 0.68749999999926592 0.1082531754732875 0 0.62499999999892575 0.17524047358135519 0 0.56249999999885147 0.1082531754730395 0 0.62499999999892575 0.17524047358135519 0 0.49999999999934441 0.1752404735815076 0 0.56250000000143974 0.2422277716920859 0 0.43750000000200551 0.24222777169198509 0 0.49999999999934441 0.1752404735815076 0 0.43749999999910871 0.1082531754729984 0 0.56249999999885147 0.1082531754730395 0 0.49999999999934441 0.1752404735815076 0 0.68668231842078242 0.24762892664808989 0 0.56250000000143974 0.2422277716920859 0 0.62499999999892575 0.17524047358135519 0 0.43750000000200551 0.24222777169198509 0 0.31411863959822661 0.24965544328045999 0 0.37500000000232431 0.17524047358384309 0 0.49999999999934441 0.1752404735815076 0 0.43750000000200551 0.24222777169198509 0 0.37500000000232431 0.17524047358384309 0 0.43749999999910871 0.1082531754729984 0 0.49999999999934441 0.1752404735815076 0 0.37500000000232431 0.17524047358384309 0 0.62499999999892575 0.17524047358135519 0 0.68749999999926592 0.1082531754732875 0 0.73983916756365475 0.17530677078674589 0 0.68749999999926592 0.1082531754732875 0 0.81249999999950517 0.1082531754733404 0 0.73983916756365475 0.17530677078674589 0 0.10409951422139101 0.81206782209691231 0 0.18802967116092181 0.89415349436770275 0 0.091506350946494744 0.90849364905351082 0 0.89658421694297741 0.1933620068391701 0 0.81249999999950517 0.1082531754733404 0 0.90849364905355434 0.091506350946296292 0 0.19185372118111221 0.092925648673580788 0 0.12076953676380731 0.18690935762408761 0 0.091506350946417708 0.091506350946618076 0 0.37500000000232431 0.17524047358384309 0 0.31411863959822661 0.24965544328045999 0 0.25103557339309318 0.17464499738446629 0 0.31281086598417152 0.10449318608631281 0 0.37500000000232431 0.17524047358384309 0 0.25103557339309318 0.17464499738446629 0 0.80886664387416207 0.89717308644237903 0 0.89051480781310632 0.79665793440246835 0 0.90849364905363228 0.90849364905367769 0 0.19185372118111221 0.092925648673580788 0 0.31281086598417152 0.10449318608631281 0 0.25103557339309318 0.17464499738446629 0 0.79891106056046712 0.25007334953587562 0 0.68668231842078242 0.24762892664808989 0 0.73983916756365475 0.17530677078674589 0 0.31411863959822661 0.24965544328045999 0 0.20767261601459541 0.25628918442207171 0 0.25103557339309318 0.17464499738446629 0 

        </DataArray>

      </Points>

      <Cells>

        <DataArray type="Int32" Name="connectivity" format="ascii">

0 1 2 3 4 5 6 7 8 9 10 11 12 13 14 15 16 17 18 19 20 21 22 23 24 25 26 27 28 29 30 31 32 33 34 35 36 37 38 39 40 41 42 43 44 45 46 47 48 49 50 51 52 53 54 55 56 57 58 59 60 61 62 63 64 65 66 67 68 69 70 71 72 73 74 75 76 77 78 79 80 81 82 83 84 85 86 87 88 89 90 91 92 93 94 95 96 97 98 99 100 101 102 103 104 105 106 107 108 109 110 111 112 113 114 115 116 117 118 119 120 121 122 123 124 125 126 127 128 129 130 131 132 133 134 135 136 137 138 139 140 141 142 143 144 145 146 147 148 149 150 151 152 153 154 155 156 157 158 159 160 161 162 163 164 165 166 167 168 169 170 171 172 173 174 175 176 177 178 179 180 181 182 183 184 185 186 187 188 189 190 191 192 193 194 195 196 197 198 199 200 201 202 203 204 205 206 207 208 209 210 211 212 213 214 215 216 217 218 219 220 221 222 223 224 225 226 227 228 229 230 231 232 233 234 235 236 237 238 239 240 241 242 243 244 245 246 247 248 249 250 251 252 253 254 255 256 257 258 259 260 261 262 263 264 265 266 267 268 269 270 271 272 273 274 275 276 277 278 279 280 281 282 283 284 285 286 287 288 289 290 291 292 293 294 295 296 297 298 299 300 301 302 303 304 305 306 307 308 309 310 311 312 313 314 315 316 317 318 319 320 321 322 323 324 325 326 327 328 329 330 331 332 333 334 335 336 337 338 339 340 341 342 343 344 345 346 347 348 349 350 351 352 353 354 355 356 357 358 359 360 361 362 363 364 365 366 367 368 369 370 371 372 373 374 375 376 377 378 379 380 381 382 383 384 385 386 387 388 389 390 391 392 393 394 395 396 397 398 399 400 401 402 403 404 405 406 407 408 409 410 411 412 413 414 415 416 417 418 419 420 421 422 423 424 425 426 427 428 429 430 431 432 433 434 435 436 437 438 439 440 441 442 443 444 445 446 447 448 449 450 451 452 453 454 455 456 457 458 459 460 461 462 463 464 465 466 467 468 469 470 471 472 473 474 475 476 477 478 479 480 481 482 483 484 485 

        </DataArray>

        <DataArray type="Int32" Name="offsets" format="ascii">

3 6 9 12 15 18 21 24 27 30 33 36 39 42 45 48 51 54 57 60 63 66 69 72 75 78 81 84 87 90 93 96 99 102 105 108 111 114 117 120 123 126 129 132 135 138 141 144 147 150 153 156 159 162 165 168 171 174 177 180 183 186 189 192 195 198 201 204 207 210 213 216 219 222 225 228 231 234 237 240 243 246 249 252 255 258 261 264 267 270 273 276 279 282 285 288 291 294 297 300 303 306 309 312 315 318 321 324 327 330 333 336 339 342 345 348 351 354 357 360 363 366 369 372 375 378 381 384 387 390 393 396 399 402 405 408 411 414 417 420 423 426 429 432 435 438 441 444 447 450 453 456 459 462 465 468 471 474 477 480 483 486 

        </DataArray>

        <DataArray type="Int32" Name="types" format="ascii">

5 5 5 5 5 5 5 5 5 5 5 5 5 5 5 5 5 5 5 5 5 5 5 5 5 5 5 5 5 5 5 5 5 5 5 5 5 5 5 5 5 5 5 5 5 5 5 5 5 5 5 5 5 5 5 5 5 5 5 5 5 5 5 5 5 5 5 5 5 5 5 5 5 5 5 5 5 5 5 5 5 5 5 5 5 5 5 5 5 5 5 5 5 5 5 5 5 5 5 5 5 5 5 5 5 5 5 5 5 5 5 5 5 5 5 5 5 5 5 5 5 5 5 5 5 5 5 5 5 5 5 5 5 5 5 5 5 5 5 5 5 5 5 5 5 5 5 5 5 5 5 5 5 5 5 5 5 5 5 5 5 5 

        </DataArray>

      </Cells>

    </Piece>

  </UnstructuredGrid>

</VTKFile>

