<?xml version="1.0"?>

<VTKFile type="UnstructuredGrid" version="0.1">

  <UnstructuredGrid>

    <Piece NumberOfPoints="486" NumberOfCells="162">

      <PointData>

        <DataArray type="Float64" Name="K" format="ascii">

9.86670981180510553e-01
9.86670981180510553e-01
9.86670981180510553e-01
1.00599906099886249e+00
1.00599906099886249e+00
1.00599906099886249e+00
1.00281372571998495e+00
1.00281372571998495e+00
1.00281372571998495e+00
1.05401181686703382e+00
1.05401181686703382e+00
1.05401181686703382e+00
1.00857835839618559e+00
1.00857835839618559e+00
1.00857835839618559e+00
1.06189905218037128e+00
1.06189905218037128e+00
1.06189905218037128e+00
1.01245194840335850e+00
1.01245194840335850e+00
1.01245194840335850e+00
9.58555208450966534e-01
9.58555208450966534e-01
9.58555208450966534e-01
9.26264785207888353e-01
9.26264785207888353e-01
9.26264785207888353e-01
9.73568394421596484e-01
9.73568394421596484e-01
9.73568394421596484e-01
1.02205912288845169e+00
1.02205912288845169e+00
1.02205912288845169e+00
1.00736215492234860e+00
1.00736215492234860e+00
1.00736215492234860e+00
1.02238959919127059e+00
1.02238959919127059e+00
1.02238959919127059e+00
1.04874573788310310e+00
1.04874573788310310e+00
1.04874573788310310e+00
9.98734480250087708e-01
9.98734480250087708e-01
9.98734480250087708e-01
9.47999135192066467e-01
9.47999135192066467e-01
9.47999135192066467e-01
9.76340619016301203e-01
9.76340619016301203e-01
9.76340619016301203e-01
1.02214859116875889e+00
1.02214859116875889e+00
1.02214859116875889e+00
1.00144687276980959e+00
1.00144687276980959e+00
1.00144687276980959e+00
9.81139066175764851e-01
9.81139066175764851e-01
9.81139066175764851e-01
1.02182907412006951e+00
1.02182907412006951e+00
1.02182907412006951e+00
1.02236534291030834e+00
1.02236534291030834e+00
1.02236534291030834e+00
9.88055276462297960e-01
9.88055276462297960e-01
9.88055276462297960e-01
1.03580973337612914e+00
1.03580973337612914e+00
1.03580973337612914e+00
9.97433215711889254e-01
9.97433215711889254e-01
9.97433215711889254e-01
1.00656892438128853e+00
1.00656892438128853e+00
1.00656892438128853e+00
9.93039325905019865e-01
9.93039325905019865e-01
9.93039325905019865e-01
1.01107225399327327e+00
1.01107225399327327e+00
1.01107225399327327e+00
1.01604420895941150e+00
1.01604420895941150e+00
1.01604420895941150e+00
9.63485042861916607e-01
9.63485042861916607e-01
9.63485042861916607e-01
9.16373187912470244e-01
9.16373187912470244e-01
9.16373187912470244e-01
9.88809872458713879e-01
9.88809872458713879e-01
9.88809872458713879e-01
9.84068829714358939e-01
9.84068829714358939e-01
9.84068829714358939e-01
1.00272816187026925e+00
1.00272816187026925e+00
1.00272816187026925e+00
9.97815812303585958e-01
9.97815812303585958e-01
9.97815812303585958e-01
9.79126197932655540e-01
9.79126197932655540e-01
9.79126197932655540e-01
1.00718086780466209e+00
1.00718086780466209e+00
1.00718086780466209e+00
9.49890823809340312e-01
9.49890823809340312e-01
9.49890823809340312e-01
9.47661265171002798e-01
9.47661265171002798e-01
9.47661265171002798e-01
9.74791436717992066e-01
9.74791436717992066e-01
9.74791436717992066e-01
1.00120087186101925e+00
1.00120087186101925e+00
1.00120087186101925e+00
9.47156286535948966e-01
9.47156286535948966e-01
9.47156286535948966e-01
1.00615962701675810e+00
1.00615962701675810e+00
1.00615962701675810e+00
9.72480105427097286e-01
9.72480105427097286e-01
9.72480105427097286e-01
9.48681076128689682e-01
9.48681076128689682e-01
9.48681076128689682e-01
9.84746061255304062e-01
9.84746061255304062e-01
9.84746061255304062e-01
9.80263077983006714e-01
9.80263077983006714e-01
9.80263077983006714e-01
1.01250340104951531e+00
1.01250340104951531e+00
1.01250340104951531e+00
1.00975285619977884e+00
1.00975285619977884e+00
1.00975285619977884e+00
9.77528656852017730e-01
9.77528656852017730e-01
9.77528656852017730e-01
9.55768070187085539e-01
9.55768070187085539e-01
9.55768070187085539e-01
1.00691841067005794e+00
1.00691841067005794e+00
1.00691841067005794e+00
9.86152138763268349e-01
9.86152138763268349e-01
9.86152138763268349e-01
9.96165833603023243e-01
9.96165833603023243e-01
9.96165833603023243e-01
9.67904231175209739e-01
9.67904231175209739e-01
9.67904231175209739e-01
9.91977585582788035e-01
9.91977585582788035e-01
9.91977585582788035e-01
9.86746752207296240e-01
9.86746752207296240e-01
9.86746752207296240e-01
9.78448157370722438e-01
9.78448157370722438e-01
9.78448157370722438e-01
9.59033548367738797e-01
9.59033548367738797e-01
9.59033548367738797e-01
9.55000961941632642e-01
9.55000961941632642e-01
9.55000961941632642e-01
9.95686069377942684e-01
9.95686069377942684e-01
9.95686069377942684e-01
1.01957064133275188e+00
1.01957064133275188e+00
1.01957064133275188e+00
1.02776138247239524e+00
1.02776138247239524e+00
1.02776138247239524e+00
1.01314100858206713e+00
1.01314100858206713e+00
1.01314100858206713e+00
9.94884944763833046e-01
9.94884944763833046e-01
9.94884944763833046e-01
1.03840622943312821e+00
1.03840622943312821e+00
1.03840622943312821e+00
1.05233718264285492e+00
1.05233718264285492e+00
1.05233718264285492e+00
9.81658942375425725e-01
9.81658942375425725e-01
9.81658942375425725e-01
1.05833448964143328e+00
1.05833448964143328e+00
1.05833448964143328e+00
1.01919371267355685e+00
1.01919371267355685e+00
1.01919371267355685e+00
1.00573537993665774e+00
1.00573537993665774e+00
1.00573537993665774e+00
1.03547477838464896e+00
1.03547477838464896e+00
1.03547477838464896e+00
9.85201620358436503e-01
9.85201620358436503e-01
9.85201620358436503e-01
1.05733492910663496e+00
1.05733492910663496e+00
1.05733492910663496e+00
1.03505049484765754e+00
1.03505049484765754e+00
1.03505049484765754e+00
9.95295418880807192e-01
9.95295418880807192e-01
9.95295418880807192e-01
9.22766842117589858e-01
9.22766842117589858e-01
9.22766842117589858e-01
9.94983314763640436e-01
9.94983314763640436e-01
9.94983314763640436e-01
1.04696870166712941e+00
1.04696870166712941e+00
1.04696870166712941e+00
1.01519803494508665e+00
1.01519803494508665e+00
1.01519803494508665e+00
1.03788105761306415e+00
1.03788105761306415e+00
1.03788105761306415e+00
9.79595953609135428e-01
9.79595953609135428e-01
9.79595953609135428e-01
9.95992500697479244e-01
9.95992500697479244e-01
9.95992500697479244e-01
1.02620830458853041e+00
1.02620830458853041e+00
1.02620830458853041e+00
1.00211518796856969e+00
1.00211518796856969e+00
1.00211518796856969e+00
1.02158078859701007e+00
1.02158078859701007e+00
1.02158078859701007e+00
9.76093817158027788e-01
9.76093817158027788e-01
9.76093817158027788e-01
9.62583678165347290e-01
9.62583678165347290e-01
9.62583678165347290e-01
9.53318999892702301e-01
9.53318999892702301e-01
9.53318999892702301e-01
9.43184278137999876e-01
9.43184278137999876e-01
9.43184278137999876e-01
1.00796568534668962e+00
1.00796568534668962e+00
1.00796568534668962e+00
9.69464946237332925e-01
9.69464946237332925e-01
9.69464946237332925e-01
9.73342062782868056e-01
9.73342062782868056e-01
9.73342062782868056e-01
9.41322944954194218e-01
9.41322944954194218e-01
9.41322944954194218e-01
9.74656083102087178e-01
9.74656083102087178e-01
9.74656083102087178e-01
1.03947090976791401e+00
1.03947090976791401e+00
1.03947090976791401e+00
1.05463837673576077e+00
1.05463837673576077e+00
1.05463837673576077e+00
9.40732583109538001e-01
9.40732583109538001e-01
9.40732583109538001e-01
9.14621518335234529e-01
9.14621518335234529e-01
9.14621518335234529e-01
1.00056752347665179e+00
1.00056752347665179e+00
1.00056752347665179e+00
9.66957685916934206e-01
9.66957685916934206e-01
9.66957685916934206e-01
9.93571518125950681e-01
9.93571518125950681e-01
9.93571518125950681e-01
1.04269106211344331e+00
1.04269106211344331e+00
1.04269106211344331e+00
1.03617554528472011e+00
1.03617554528472011e+00
1.03617554528472011e+00
9.39650346933216030e-01
9.39650346933216030e-01
9.39650346933216030e-01
1.04504587826876127e+00
1.04504587826876127e+00
1.04504587826876127e+00
1.00478359794405536e+00
1.00478359794405536e+00
1.00478359794405536e+00
1.03377431925436003e+00
1.03377431925436003e+00
1.03377431925436003e+00
1.05413992218622887e+00
1.05413992218622887e+00
1.05413992218622887e+00
1.00807200483368997e+00
1.00807200483368997e+00
1.00807200483368997e+00
1.04726604019886627e+00
1.04726604019886627e+00
1.04726604019886627e+00
9.92928286280698513e-01
9.92928286280698513e-01
9.92928286280698513e-01
9.64321305755736158e-01
9.64321305755736158e-01
9.64321305755736158e-01
9.23126255709931676e-01
9.23126255709931676e-01
9.23126255709931676e-01
9.84044981076100278e-01
9.84044981076100278e-01
9.84044981076100278e-01
9.62750196840820194e-01
9.62750196840820194e-01
9.62750196840820194e-01
9.55729426169256824e-01
9.55729426169256824e-01
9.55729426169256824e-01
1.02573687999542629e+00
1.02573687999542629e+00
1.02573687999542629e+00
1.00996591218524134e+00
1.00996591218524134e+00
1.00996591218524134e+00
9.30529407236047934e-01
9.30529407236047934e-01
9.30529407236047934e-01
9.75774451978895230e-01
9.75774451978895230e-01
9.75774451978895230e-01
1.03598468397617838e+00
1.03598468397617838e+00
1.03598468397617838e+00
9.84655826347681895e-01
9.84655826347681895e-01
9.84655826347681895e-01
9.78458485703146974e-01
9.78458485703146974e-01
9.78458485703146974e-01
9.99480457486307872e-01
9.99480457486307872e-01
9.99480457486307872e-01
1.02061736193289176e+00
1.02061736193289176e+00
1.02061736193289176e+00
1.02631444822731965e+00
1.02631444822731965e+00
1.02631444822731965e+00
1.03190622331672155e+00
1.03190622331672155e+00
1.03190622331672155e+00
1.03947888399984367e+00
1.03947888399984367e+00
1.03947888399984367e+00
1.03016120077539419e+00
1.03016120077539419e+00
1.03016120077539419e+00
1.02302966018777086e+00
1.02302966018777086e+00
1.02302966018777086e+00
1.02119893157164521e+00
1.02119893157164521e+00
1.02119893157164521e+00
9.34562533753084956e-01
9.34562533753084956e-01
9.34562533753084956e-01
9.61969526649395168e-01
9.61969526649395168e-01
9.61969526649395168e-01
9.68997668911549481e-01
9.68997668911549481e-01
9.68997668911549481e-01
9.50679470641749846e-01
9.50679470641749846e-01
9.50679470641749846e-01
9.63247661604774708e-01
9.63247661604774708e-01
9.63247661604774708e-01
9.56455903050524192e-01
9.56455903050524192e-01
9.56455903050524192e-01
9.96928361075485103e-01
9.96928361075485103e-01
9.96928361075485103e-01
9.59079101449027971e-01
9.59079101449027971e-01
9.59079101449027971e-01
9.54442496906850568e-01
9.54442496906850568e-01
9.54442496906850568e-01
1.00046645583089222e+00
1.00046645583089222e+00
1.00046645583089222e+00
9.27376023854141640e-01
9.27376023854141640e-01
9.27376023854141640e-01
9.35199945252461085e-01
9.35199945252461085e-01
9.35199945252461085e-01
9.26703658258886676e-01
9.26703658258886676e-01
9.26703658258886676e-01
9.49286454294233528e-01
9.49286454294233528e-01
9.49286454294233528e-01
9.46563025036259997e-01
9.46563025036259997e-01
9.46563025036259997e-01
9.33338085016584107e-01
9.33338085016584107e-01
9.33338085016584107e-01
9.91795954132841051e-01
9.91795954132841051e-01
9.91795954132841051e-01
9.74750369551467766e-01
9.74750369551467766e-01
9.74750369551467766e-01
9.75652769339404924e-01
9.75652769339404924e-01
9.75652769339404924e-01
9.54984869127885272e-01
9.54984869127885272e-01
9.54984869127885272e-01
9.79774495416822488e-01
9.79774495416822488e-01
9.79774495416822488e-01
9.53999338938213315e-01
9.53999338938213315e-01
9.53999338938213315e-01
1.00345989914184242e+00
1.00345989914184242e+00
1.00345989914184242e+00
9.61352671919719182e-01
9.61352671919719182e-01
9.61352671919719182e-01
9.91585170498994639e-01
9.91585170498994639e-01
9.91585170498994639e-01
9.97280867493981371e-01
9.97280867493981371e-01
9.97280867493981371e-01
9.53333480256232657e-01
9.53333480256232657e-01
9.53333480256232657e-01
9.86284439517873812e-01
9.86284439517873812e-01
9.86284439517873812e-01
9.84794404561484038e-01
9.84794404561484038e-01
9.84794404561484038e-01
9.81790050450258911e-01
9.81790050450258911e-01
9.81790050450258911e-01


        </DataArray>

      </PointData>

      <CellData/>

      <Points>

        <DataArray type="Float64" NumberOfComponents="3" format="ascii">

0.1082531754723032 0.6875000000007816 0 0.23533274979922561 0.77093399389351469 0 0.10409951422139101 0.81206782209691231 0 0.23533274979922561 0.77093399389351469 0 0.1082531754723032 0.6875000000007816 0 0.21809253452218619 0.65480892822618109 0 0.24418615484441761 0.35773612382016978 0 0.121259140952891 0.43112117036853742 0 0.1082531754734323 0.31250000000117473 0 0.75000000000057243 0.35048094716480432 0 0.88173731489851925 0.33077402607778361 0 0.81242894672211508 0.45500248311961472 0 0.121259140952891 0.43112117036853742 0 0.24418615484441761 0.35773612382016978 0 0.22257735880419699 0.47344721641341742 0 0.81242894672211508 0.45500248311961472 0 0.88173731489851925 0.33077402607778361 0 0.915464298762109 0.43749999999886913 0 0 0.62500000000121547 0 0 0.50000000000206146 0 0.1371230538040123 0.56179824718362847 0 0.82212678063041267 0.67678595194836966 0 0.89051480781310632 0.79665793440246835 0 0.76243180583607129 0.78687675331113149 0 0.76243180583607129 0.78687675331113149 0 0.69010814643829166 0.89298495739101336 0 0.62844955668446423 0.7850749770380413 0 0.89051480781310632 0.79665793440246835 0 0.82212678063041267 0.67678595194836966 0 0.92266244547590082 0.68749999999917555 0 0 0.50000000000206146 0 0.121259140952891 0.43112117036853742 0 0.1371230538040123 0.56179824718362847 0 0.1082531754723032 0.6875000000007816 0 0 0.62500000000121547 0 0.1371230538040123 0.56179824718362847 0 0.75000000000032374 0.56698729811007709 0 0.88927506082488361 0.56409486310635837 0 0.82212678063041267 0.67678595194836966 0 0.81242894672211508 0.45500248311961472 0 0.88927506082488361 0.56409486310635837 0 0.75000000000032374 0.56698729811007709 0 0.69851598570178741 0.68211701800612057 0 0.56496004948275869 0.67675037307860475 0 0.62752533658682441 0.56838075195614346 0 0.69851598570178741 0.68211701800612057 0 0.76243180583607129 0.78687675331113149 0 0.62844955668446423 0.7850749770380413 0 0.23533274979922561 0.77093399389351469 0 0.18802967116092181 0.89415349436770275 0 0.10409951422139101 0.81206782209691231 0 0.121259140952891 0.43112117036853742 0 0.22257735880419699 0.47344721641341742 0 0.1371230538040123 0.56179824718362847 0 0.75000000000032374 0.56698729811007709 0 0.69851598570178741 0.68211701800612057 0 0.62752533658682441 0.56838075195614346 0 0.56496004948275869 0.67675037307860475 0 0.69851598570178741 0.68211701800612057 0 0.62844955668446423 0.7850749770380413 0 0.1371230538040123 0.56179824718362847 0 0.22257735880419699 0.47344721641341742 0 0.26982811998763367 0.56544650815856912 0 0.21809253452218619 0.65480892822618109 0 0.1371230538040123 0.56179824718362847 0 0.26982811998763367 0.56544650815856912 0 0.24418615484441761 0.35773612382016978 0 0.1082531754734323 0.31250000000117473 0 0.20767261601459541 0.25628918442207171 0 0.88173731489851925 0.33077402607778361 0 0.75000000000057243 0.35048094716480432 0 0.79891106056046712 0.25007334953587562 0 0.75000000000032374 0.56698729811007709 0 0.82212678063041267 0.67678595194836966 0 0.69851598570178741 0.68211701800612057 0 0.81249999999950517 0.1082531754733404 0 0.89658421694297741 0.1933620068391701 0 0.79891106056046712 0.25007334953587562 0 0.81249999999950517 0.1082531754733404 0 0.79891106056046712 0.25007334953587562 0 0.73983916756365475 0.17530677078674589 0 0.23533274979922561 0.77093399389351469 0 0.21809253452218619 0.65480892822618109 0 0.32607333794064219 0.67760114260606152 0 0.1082531754723032 0.6875000000007816 0 0.1371230538040123 0.56179824718362847 0 0.21809253452218619 0.65480892822618109 0 0.69851598570178741 0.68211701800612057 0 0.82212678063041267 0.67678595194836966 0 0.76243180583607129 0.78687675331113149 0 0.69010814643829166 0.89298495739101336 0 0.76243180583607129 0.78687675331113149 0 0.80886664387416207 0.89717308644237903 0 0.43750000000181222 0.89174682452709564 0 0.31258827852827581 0.89214793616708443 0 0.37776173212361452 0.78514649317305008 0 0.43750000000181222 0.89174682452709564 0 0.37500000000156292 1 0 0.31258827852827581 0.89214793616708443 0 0.121259140952891 0.43112117036853742 0 0 0.37500000000156292 0 0.1082531754734323 0.31250000000117473 0 0.50000000000206146 1 0 0.37500000000156292 1 0 0.43750000000181222 0.89174682452709564 0 0.31258827852827581 0.89214793616708443 0 0.18802967116092181 0.89415349436770275 0 0.23533274979922561 0.77093399389351469 0 0 0.50000000000206146 0 0 0.37500000000156292 0 0.121259140952891 0.43112117036853742 0 0.62844955668446423 0.7850749770380413 0 0.69010814643829166 0.89298495739101336 0 0.56327595140699671 0.89211526915426331 0 0.69010814643829166 0.89298495739101336 0 0.62500000000121547 1 0 0.56327595140699671 0.89211526915426331 0 0.25000000000104189 1 0 0.18802967116092181 0.89415349436770275 0 0.31258827852827581 0.89214793616708443 0 0.50000000000206146 1 0 0.43750000000181222 0.89174682452709564 0 0.56327595140699671 0.89211526915426331 0 0.56249999999885147 0.1082531754730395 0 0.62499999999901068 0 0 0.68749999999926592 0.1082531754732875 0 1 0.49999999999869221 0 1 0.62499999999901068 0 0.88927506082488361 0.56409486310635837 0 0 0.25000000000104189 0 0.12076953676380731 0.18690935762408761 0 0.1082531754734323 0.31250000000117473 0 0.49999999999869221 0 0 0.62499999999901068 0 0 0.56249999999885147 0.1082531754730395 0 0.62500000000121547 1 0 0.50000000000206146 1 0 0.56327595140699671 0.89211526915426331 0 0.37500000000156292 1 0 0.25000000000104189 1 0 0.31258827852827581 0.89214793616708443 0 0.31281086598417152 0.10449318608631281 0 0.37499999999904599 0 0 0.43749999999910871 0.1082531754729984 0 0.43750000000181222 0.89174682452709564 0 0.37776173212361452 0.78514649317305008 0 0.50046028868828263 0.78376912307435687 0 0 0.37500000000156292 0 0 0.25000000000104189 0 0.1082531754734323 0.31250000000117473 0 0.49999999999869221 0 0 0.56249999999885147 0.1082531754730395 0 0.43749999999910871 0.1082531754729984 0 0.43750000000181222 0.89174682452709564 0 0.50046028868828263 0.78376912307435687 0 0.56327595140699671 0.89211526915426331 0 0.74999999999934042 0 0 0.81249999999950517 0.1082531754733404 0 0.68749999999926592 0.1082531754732875 0 0.37499999999904599 0 0 0.49999999999869221 0 0 0.43749999999910871 0.1082531754729984 0 0.25000000000104189 1 0 0.12500000000052089 1 0 0.18802967116092181 0.89415349436770275 0 0.50046028868828263 0.78376912307435687 0 0.62844955668446423 0.7850749770380413 0 0.56327595140699671 0.89211526915426331 0 0.37776173212361452 0.78514649317305008 0 0.31258827852827581 0.89214793616708443 0 0.23533274979922561 0.77093399389351469 0 0.62499999999901068 0 0 0.74999999999934042 0 0 0.68749999999926592 0.1082531754732875 0 1 0.74999999999934042 0 1 0.87499999999967015 0 0.89051480781310632 0.79665793440246835 0 0 0.25000000000104189 0 0 0.12500000000052089 0 0.12076953676380731 0.18690935762408761 0 0.74999999999934042 0 0 0.87499999999967015 0 0 0.81249999999950517 0.1082531754733404 0 0.24999999999941069 0 0 0.37499999999904599 0 0 0.31281086598417152 0.10449318608631281 0 0.50046028868828263 0.78376912307435687 0 0.37776173212361452 0.78514649317305008 0 0.44078402250377968 0.67714785211715212 0 0.68768773896438518 0.4586835206367198 0 0.75000000000032374 0.56698729811007709 0 0.62752533658682441 0.56838075195614346 0 0.31411863959822661 0.24965544328045999 0 0.37953773393552892 0.34812185820708452 0 0.24418615484441761 0.35773612382016978 0 0.68768773896438518 0.4586835206367198 0 0.81242894672211508 0.45500248311961472 0 0.75000000000032374 0.56698729811007709 0 1 0.24999999999941069 0 1 0.37499999999904599 0 0.88173731489851925 0.33077402607778361 0 0 0.75000000000034761 0 0 0.62500000000121547 0 0.1082531754723032 0.6875000000007816 0 0.50048844149666749 0.56727788297625459 0 0.44078402250377968 0.67714785211715212 0 0.38694285807596462 0.5672991787102919 0 0.50108503093851109 0.35012252869403671 0 0.44301038174930041 0.45684931552185398 0 0.37953773393552892 0.34812185820708452 0 0.50046028868828263 0.78376912307435687 0 0.56496004948275869 0.67675037307860475 0 0.62844955668446423 0.7850749770380413 0 0.68768773896438518 0.4586835206367198 0 0.75000000000057243 0.35048094716480432 0 0.81242894672211508 0.45500248311961472 0 0.56349980387502452 0.45846841892908402 0 0.62512662990940393 0.35044303886909911 0 0.68768773896438518 0.4586835206367198 0 0.50048844149666749 0.56727788297625459 0 0.38694285807596462 0.5672991787102919 0 0.44301038174930041 0.45684931552185398 0 0.50046028868828263 0.78376912307435687 0 0.44078402250377968 0.67714785211715212 0 0.56496004948275869 0.67675037307860475 0 0.50108503093851109 0.35012252869403671 0 0.37953773393552892 0.34812185820708452 0 0.43750000000200551 0.24222777169198509 0 0.75000000000034761 1 0 0.62500000000121547 1 0 0.69010814643829166 0.89298495739101336 0 0.68768773896438518 0.4586835206367198 0 0.62512662990940393 0.35044303886909911 0 0.75000000000057243 0.35048094716480432 0 0.56496004948275869 0.67675037307860475 0 0.44078402250377968 0.67714785211715212 0 0.50048844149666749 0.56727788297625459 0 0.56349980387502452 0.45846841892908402 0 0.44301038174930041 0.45684931552185398 0 0.50108503093851109 0.35012252869403671 0 0.50048844149666749 0.56727788297625459 0 0.44301038174930041 0.45684931552185398 0 0.56349980387502452 0.45846841892908402 0 0.56349980387502452 0.45846841892908402 0 0.50108503093851109 0.35012252869403671 0 0.62512662990940393 0.35044303886909911 0 0.43750000000200551 0.24222777169198509 0 0.37953773393552892 0.34812185820708452 0 0.31411863959822661 0.24965544328045999 0 0.56496004948275869 0.67675037307860475 0 0.50048844149666749 0.56727788297625459 0 0.62752533658682441 0.56838075195614346 0 0.56349980387502452 0.45846841892908402 0 0.68768773896438518 0.4586835206367198 0 0.62752533658682441 0.56838075195614346 0 0.50048844149666749 0.56727788297625459 0 0.56349980387502452 0.45846841892908402 0 0.62752533658682441 0.56838075195614346 0 0.75000000000057243 0.35048094716480432 0 0.62512662990940393 0.35044303886909911 0 0.68668231842078242 0.24762892664808989 0 0.50108503093851109 0.35012252869403671 0 0.43750000000200551 0.24222777169198509 0 0.56250000000143974 0.2422277716920859 0 0.62512662990940393 0.35044303886909911 0 0.50108503093851109 0.35012252869403671 0 0.56250000000143974 0.2422277716920859 0 0.68668231842078242 0.24762892664808989 0 0.62512662990940393 0.35044303886909911 0 0.56250000000143974 0.2422277716920859 0 0.22257735880419699 0.47344721641341742 0 0.24418615484441761 0.35773612382016978 0 0.32815957677880009 0.4577243358118348 0 0.12076953676380731 0.18690935762408761 0 0.19185372118111221 0.092925648673580788 0 0.25103557339309318 0.17464499738446629 0 0.20767261601459541 0.25628918442207171 0 0.12076953676380731 0.18690935762408761 0 0.25103557339309318 0.17464499738446629 0 0 0.87499999999950151 0 0 0.75000000000034761 0 0.10409951422139101 0.81206782209691231 0 0.1249999999997731 0 0 0.24999999999941069 0 0 0.19185372118111221 0.092925648673580788 0 1 0.1249999999997731 0 1 0.24999999999941069 0 0.89658421694297741 0.1933620068391701 0 0.88927506082488361 0.56409486310635837 0 0.81242894672211508 0.45500248311961472 0 0.915464298762109 0.43749999999886913 0 0.87499999999950151 1 0 0.75000000000034761 1 0 0.80886664387416207 0.89717308644237903 0 0.75000000000034761 1 0 0.69010814643829166 0.89298495739101336 0 0.80886664387416207 0.89717308644237903 0 0.82212678063041267 0.67678595194836966 0 0.88927506082488361 0.56409486310635837 0 0.92266244547590082 0.68749999999917555 0 0 0.75000000000034761 0 0.1082531754723032 0.6875000000007816 0 0.10409951422139101 0.81206782209691231 0 0.24999999999941069 0 0 0.31281086598417152 0.10449318608631281 0 0.19185372118111221 0.092925648673580788 0 1 0.24999999999941069 0 0.88173731489851925 0.33077402607778361 0 0.89658421694297741 0.1933620068391701 0 0.32815957677880009 0.4577243358118348 0 0.38694285807596462 0.5672991787102919 0 0.26982811998763367 0.56544650815856912 0 0.76243180583607129 0.78687675331113149 0 0.89051480781310632 0.79665793440246835 0 0.80886664387416207 0.89717308644237903 0 0.38694285807596462 0.5672991787102919 0 0.44078402250377968 0.67714785211715212 0 0.32607333794064219 0.67760114260606152 0 0.37776173212361452 0.78514649317305008 0 0.23533274979922561 0.77093399389351469 0 0.32607333794064219 0.67760114260606152 0 1 0.49999999999869221 0 0.88927506082488361 0.56409486310635837 0 0.915464298762109 0.43749999999886913 0 0.88173731489851925 0.33077402607778361 0 1 0.37499999999904599 0 0.915464298762109 0.43749999999886913 0 0.24418615484441761 0.35773612382016978 0 0.37953773393552892 0.34812185820708452 0 0.32815957677880009 0.4577243358118348 0 0.44301038174930041 0.45684931552185398 0 0.38694285807596462 0.5672991787102919 0 0.32815957677880009 0.4577243358118348 0 0.88927506082488361 0.56409486310635837 0 1 0.62499999999901068 0 0.92266244547590082 0.68749999999917555 0 1 0.74999999999934042 0 0.89051480781310632 0.79665793440246835 0 0.92266244547590082 0.68749999999917555 0 0 1 0 0 0.87499999999950151 0 0.091506350946494744 0.90849364905351082 0 1 1 0 0.87499999999950151 1 0 0.90849364905363228 0.90849364905367769 0 0 0 0 0.1249999999997731 0 0 0.091506350946417708 0.091506350946618076 0 0 0.12500000000052089 0 0 0 0 0.091506350946417708 0.091506350946618076 0 1 0 0 1 0.1249999999997731 0 0.90849364905355434 0.091506350946296292 0 0.87499999999967015 0 0 1 0 0 0.90849364905355434 0.091506350946296292 0 0.12500000000052089 1 0 0 1 0 0.091506350946494744 0.90849364905351082 0 1 0.87499999999967015 0 1 1 0 0.90849364905363228 0.90849364905367769 0 0.38694285807596462 0.5672991787102919 0 0.32607333794064219 0.67760114260606152 0 0.26982811998763367 0.56544650815856912 0 0.31411863959822661 0.24965544328045999 0 0.24418615484441761 0.35773612382016978 0 0.20767261601459541 0.25628918442207171 0 0.1082531754734323 0.31250000000117473 0 0.12076953676380731 0.18690935762408761 0 0.20767261601459541 0.25628918442207171 0 0.75000000000057243 0.35048094716480432 0 0.68668231842078242 0.24762892664808989 0 0.79891106056046712 0.25007334953587562 0 0.22257735880419699 0.47344721641341742 0 0.32815957677880009 0.4577243358118348 0 0.26982811998763367 0.56544650815856912 0 0.44078402250377968 0.67714785211715212 0 0.37776173212361452 0.78514649317305008 0 0.32607333794064219 0.67760114260606152 0 0.89658421694297741 0.1933620068391701 0 0.88173731489851925 0.33077402607778361 0 0.79891106056046712 0.25007334953587562 0 1 0.37499999999904599 0 1 0.49999999999869221 0 0.915464298762109 0.43749999999886913 0 0.37953773393552892 0.34812185820708452 0 0.44301038174930041 0.45684931552185398 0 0.32815957677880009 0.4577243358118348 0 0.32607333794064219 0.67760114260606152 0 0.21809253452218619 0.65480892822618109 0 0.26982811998763367 0.56544650815856912 0 1 0.1249999999997731 0 0.89658421694297741 0.1933620068391701 0 0.90849364905355434 0.091506350946296292 0 0 0.87499999999950151 0 0.10409951422139101 0.81206782209691231 0 0.091506350946494744 0.90849364905351082 0 0.1249999999997731 0 0 0.19185372118111221 0.092925648673580788 0 0.091506350946417708 0.091506350946618076 0 1 0.62499999999901068 0 1 0.74999999999934042 0 0.92266244547590082 0.68749999999917555 0 0.18802967116092181 0.89415349436770275 0 0.12500000000052089 1 0 0.091506350946494744 0.90849364905351082 0 0.89051480781310632 0.79665793440246835 0 1 0.87499999999967015 0 0.90849364905363228 0.90849364905367769 0 0.12076953676380731 0.18690935762408761 0 0 0.12500000000052089 0 0.091506350946417708 0.091506350946618076 0 0.81249999999950517 0.1082531754733404 0 0.87499999999967015 0 0 0.90849364905355434 0.091506350946296292 0 0.87499999999950151 1 0 0.80886664387416207 0.89717308644237903 0 0.90849364905363228 0.90849364905367769 0 0.68668231842078242 0.24762892664808989 0 0.62499999999892575 0.17524047358135519 0 0.73983916756365475 0.17530677078674589 0 0.31281086598417152 0.10449318608631281 0 0.43749999999910871 0.1082531754729984 0 0.37500000000232431 0.17524047358384309 0 0.62499999999892575 0.17524047358135519 0 0.56250000000143974 0.2422277716920859 0 0.49999999999934441 0.1752404735815076 0 0.56249999999885147 0.1082531754730395 0 0.68749999999926592 0.1082531754732875 0 0.62499999999892575 0.17524047358135519 0 0.56249999999885147 0.1082531754730395 0 0.62499999999892575 0.17524047358135519 0 0.49999999999934441 0.1752404735815076 0 0.56250000000143974 0.2422277716920859 0 0.43750000000200551 0.24222777169198509 0 0.49999999999934441 0.1752404735815076 0 0.43749999999910871 0.1082531754729984 0 0.56249999999885147 0.1082531754730395 0 0.49999999999934441 0.1752404735815076 0 0.68668231842078242 0.24762892664808989 0 0.56250000000143974 0.2422277716920859 0 0.62499999999892575 0.17524047358135519 0 0.43750000000200551 0.24222777169198509 0 0.31411863959822661 0.24965544328045999 0 0.37500000000232431 0.17524047358384309 0 0.49999999999934441 0.1752404735815076 0 0.43750000000200551 0.24222777169198509 0 0.37500000000232431 0.17524047358384309 0 0.43749999999910871 0.1082531754729984 0 0.49999999999934441 0.1752404735815076 0 0.37500000000232431 0.17524047358384309 0 0.62499999999892575 0.17524047358135519 0 0.68749999999926592 0.1082531754732875 0 0.73983916756365475 0.17530677078674589 0 0.68749999999926592 0.1082531754732875 0 0.81249999999950517 0.1082531754733404 0 0.73983916756365475 0.17530677078674589 0 0.10409951422139101 0.81206782209691231 0 0.18802967116092181 0.89415349436770275 0 0.091506350946494744 0.90849364905351082 0 0.89658421694297741 0.1933620068391701 0 0.81249999999950517 0.1082531754733404 0 0.90849364905355434 0.091506350946296292 0 0.19185372118111221 0.092925648673580788 0 0.12076953676380731 0.18690935762408761 0 0.091506350946417708 0.091506350946618076 0 0.37500000000232431 0.17524047358384309 0 0.31411863959822661 0.24965544328045999 0 0.25103557339309318 0.17464499738446629 0 0.31281086598417152 0.10449318608631281 0 0.37500000000232431 0.17524047358384309 0 0.25103557339309318 0.17464499738446629 0 0.80886664387416207 0.89717308644237903 0 0.89051480781310632 0.79665793440246835 0 0.90849364905363228 0.90849364905367769 0 0.19185372118111221 0.092925648673580788 0 0.31281086598417152 0.10449318608631281 0 0.25103557339309318 0.17464499738446629 0 0.79891106056046712 0.25007334953587562 0 0.68668231842078242 0.24762892664808989 0 0.73983916756365475 0.17530677078674589 0 0.31411863959822661 0.24965544328045999 0 0.20767261601459541 0.25628918442207171 0 0.25103557339309318 0.17464499738446629 0 

        </DataArray>

      </Points>

      <Cells>

        <DataArray type="Int32" Name="connectivity" format="ascii">

0 1 2 3 4 5 6 7 8 9 10 11 12 13 14 15 16 17 18 19 20 21 22 23 24 25 26 27 28 29 30 31 32 33 34 35 36 37 38 39 40 41 42 43 44 45 46 47 48 49 50 51 52 53 54 55 56 57 58 59 60 61 62 63 64 65 66 67 68 69 70 71 72 73 74 75 76 77 78 79 80 81 82 83 84 85 86 87 88 89 90 91 92 93 94 95 96 97 98 99 100 101 102 103 104 105 106 107 108 109 110 111 112 113 114 115 116 117 118 119 120 121 122 123 124 125 126 127 128 129 130 131 132 133 134 135 136 137 138 139 140 141 142 143 144 145 146 147 148 149 150 151 152 153 154 155 156 157 158 159 160 161 162 163 164 165 166 167 168 169 170 171 172 173 174 175 176 177 178 179 180 181 182 183 184 185 186 187 188 189 190 191 192 193 194 195 196 197 198 199 200 201 202 203 204 205 206 207 208 209 210 211 212 213 214 215 216 217 218 219 220 221 222 223 224 225 226 227 228 229 230 231 232 233 234 235 236 237 238 239 240 241 242 243 244 245 246 247 248 249 250 251 252 253 254 255 256 257 258 259 260 261 262 263 264 265 266 267 268 269 270 271 272 273 274 275 276 277 278 279 280 281 282 283 284 285 286 287 288 289 290 291 292 293 294 295 296 297 298 299 300 301 302 303 304 305 306 307 308 309 310 311 312 313 314 315 316 317 318 319 320 321 322 323 324 325 326 327 328 329 330 331 332 333 334 335 336 337 338 339 340 341 342 343 344 345 346 347 348 349 350 351 352 353 354 355 356 357 358 359 360 361 362 363 364 365 366 367 368 369 370 371 372 373 374 375 376 377 378 379 380 381 382 383 384 385 386 387 388 389 390 391 392 393 394 395 396 397 398 399 400 401 402 403 404 405 406 407 408 409 410 411 412 413 414 415 416 417 418 419 420 421 422 423 424 425 426 427 428 429 430 431 432 433 434 435 436 437 438 439 440 441 442 443 444 445 446 447 448 449 450 451 452 453 454 455 456 457 458 459 460 461 462 463 464 465 466 467 468 469 470 471 472 473 474 475 476 477 478 479 480 481 482 483 484 485 

        </DataArray>

        <DataArray type="Int32" Name="offsets" format="ascii">

3 6 9 12 15 18 21 24 27 30 33 36 39 42 45 48 51 54 57 60 63 66 69 72 75 78 81 84 87 90 93 96 99 102 105 108 111 114 117 120 123 126 129 132 135 138 141 144 147 150 153 156 159 162 165 168 171 174 177 180 183 186 189 192 195 198 201 204 207 210 213 216 219 222 225 228 231 234 237 240 243 246 249 252 255 258 261 264 267 270 273 276 279 282 285 288 291 294 297 300 303 306 309 312 315 318 321 324 327 330 333 336 339 342 345 348 351 354 357 360 363 366 369 372 375 378 381 384 387 390 393 396 399 402 405 408 411 414 417 420 423 426 429 432 435 438 441 444 447 450 453 456 459 462 465 468 471 474 477 480 483 486 

        </DataArray>

        <DataArray type="Int32" Name="types" format="ascii">

5 5 5 5 5 5 5 5 5 5 5 5 5 5 5 5 5 5 5 5 5 5 5 5 5 5 5 5 5 5 5 5 5 5 5 5 5 5 5 5 5 5 5 5 5 5 5 5 5 5 5 5 5 5 5 5 5 5 5 5 5 5 5 5 5 5 5 5 5 5 5 5 5 5 5 5 5 5 5 5 5 5 5 5 5 5 5 5 5 5 5 5 5 5 5 5 5 5 5 5 5 5 5 5 5 5 5 5 5 5 5 5 5 5 5 5 5 5 5 5 5 5 5 5 5 5 5 5 5 5 5 5 5 5 5 5 5 5 5 5 5 5 5 5 5 5 5 5 5 5 5 5 5 5 5 5 5 5 5 5 5 5 

        </DataArray>

      </Cells>

    </Piece>

  </UnstructuredGrid>

</VTKFile>

