<?xml version="1.0"?>

<VTKFile type="UnstructuredGrid" version="0.1">

  <UnstructuredGrid>

    <Piece NumberOfPoints="486" NumberOfCells="162">

      <PointData>

        <DataArray type="Float64" Name="K" format="ascii">

9.89790833084488231e-01
9.89790833084488231e-01
9.89790833084488231e-01
9.81097624803353274e-01
9.81097624803353274e-01
9.81097624803353274e-01
9.89046733264467237e-01
9.89046733264467237e-01
9.89046733264467237e-01
9.86712204281987693e-01
9.86712204281987693e-01
9.86712204281987693e-01
9.89468912946487977e-01
9.89468912946487977e-01
9.89468912946487977e-01
9.88045184678088328e-01
9.88045184678088328e-01
9.88045184678088328e-01
1.04500179833299889e+00
1.04500179833299889e+00
1.04500179833299889e+00
1.00628477314888687e+00
1.00628477314888687e+00
1.00628477314888687e+00
9.86210381576401174e-01
9.86210381576401174e-01
9.86210381576401174e-01
1.00092294650212787e+00
1.00092294650212787e+00
1.00092294650212787e+00
1.02762953205124985e+00
1.02762953205124985e+00
1.02762953205124985e+00
1.02797281296613630e+00
1.02797281296613630e+00
1.02797281296613630e+00
1.03613595439175898e+00
1.03613595439175898e+00
1.03613595439175898e+00
1.03354640723492475e+00
1.03354640723492475e+00
1.03354640723492475e+00
1.03849849673952144e+00
1.03849849673952144e+00
1.03849849673952144e+00
1.01007952130344481e+00
1.01007952130344481e+00
1.01007952130344481e+00
9.65244093135391723e-01
9.65244093135391723e-01
9.65244093135391723e-01
9.96759887184537896e-01
9.96759887184537896e-01
9.96759887184537896e-01
1.06108502040279173e+00
1.06108502040279173e+00
1.06108502040279173e+00
1.00801601978300681e+00
1.00801601978300681e+00
1.00801601978300681e+00
9.92337252851027918e-01
9.92337252851027918e-01
9.92337252851027918e-01
9.89080578112435660e-01
9.89080578112435660e-01
9.89080578112435660e-01
9.82811701409917471e-01
9.82811701409917471e-01
9.82811701409917471e-01
9.56118642904836058e-01
9.56118642904836058e-01
9.56118642904836058e-01
1.04672437797633000e+00
1.04672437797633000e+00
1.04672437797633000e+00
9.01073508612740826e-01
9.01073508612740826e-01
9.01073508612740826e-01
9.14477789189657830e-01
9.14477789189657830e-01
9.14477789189657830e-01
9.66247974952981092e-01
9.66247974952981092e-01
9.66247974952981092e-01
1.00073841512922534e+00
1.00073841512922534e+00
1.00073841512922534e+00
1.02813041764762625e+00
1.02813041764762625e+00
1.02813041764762625e+00
9.92328398540522683e-01
9.92328398540522683e-01
9.92328398540522683e-01
9.67836411476680425e-01
9.67836411476680425e-01
9.67836411476680425e-01
9.58826259513031576e-01
9.58826259513031576e-01
9.58826259513031576e-01
1.02843071162054067e+00
1.02843071162054067e+00
1.02843071162054067e+00
9.54300186330634181e-01
9.54300186330634181e-01
9.54300186330634181e-01
9.43660416892702081e-01
9.43660416892702081e-01
9.43660416892702081e-01
1.05708194115089560e+00
1.05708194115089560e+00
1.05708194115089560e+00
9.52360184629167605e-01
9.52360184629167605e-01
9.52360184629167605e-01
9.44786048689553293e-01
9.44786048689553293e-01
9.44786048689553293e-01
9.40407990129589533e-01
9.40407990129589533e-01
9.40407990129589533e-01
9.43176743782945359e-01
9.43176743782945359e-01
9.43176743782945359e-01
1.01883828716400426e+00
1.01883828716400426e+00
1.01883828716400426e+00
1.04964990736634234e+00
1.04964990736634234e+00
1.04964990736634234e+00
1.00355337016076729e+00
1.00355337016076729e+00
1.00355337016076729e+00
1.04117163944691504e+00
1.04117163944691504e+00
1.04117163944691504e+00
9.36525526952855625e-01
9.36525526952855625e-01
9.36525526952855625e-01
9.46457177816172002e-01
9.46457177816172002e-01
9.46457177816172002e-01
9.91267870247212746e-01
9.91267870247212746e-01
9.91267870247212746e-01
9.75622032785011362e-01
9.75622032785011362e-01
9.75622032785011362e-01
1.04307597813574815e+00
1.04307597813574815e+00
1.04307597813574815e+00
1.02422116915828965e+00
1.02422116915828965e+00
1.02422116915828965e+00
9.54553252711769940e-01
9.54553252711769940e-01
9.54553252711769940e-01
9.26676114159241449e-01
9.26676114159241449e-01
9.26676114159241449e-01
1.00160508002224313e+00
1.00160508002224313e+00
1.00160508002224313e+00
9.50507072628832828e-01
9.50507072628832828e-01
9.50507072628832828e-01
9.53680991208866957e-01
9.53680991208866957e-01
9.53680991208866957e-01
9.55149287429763683e-01
9.55149287429763683e-01
9.55149287429763683e-01
9.81823302249747787e-01
9.81823302249747787e-01
9.81823302249747787e-01
9.51774327443295598e-01
9.51774327443295598e-01
9.51774327443295598e-01
9.90287576762028277e-01
9.90287576762028277e-01
9.90287576762028277e-01
9.07462484496358801e-01
9.07462484496358801e-01
9.07462484496358801e-01
9.92961884712597831e-01
9.92961884712597831e-01
9.92961884712597831e-01
9.87194052721470205e-01
9.87194052721470205e-01
9.87194052721470205e-01
1.07128109579121777e+00
1.07128109579121777e+00
1.07128109579121777e+00
1.00504192688279792e+00
1.00504192688279792e+00
1.00504192688279792e+00
1.05431424045100797e+00
1.05431424045100797e+00
1.05431424045100797e+00
9.67630926506418243e-01
9.67630926506418243e-01
9.67630926506418243e-01
1.03034131635574466e+00
1.03034131635574466e+00
1.03034131635574466e+00
9.93301083735459778e-01
9.93301083735459778e-01
9.93301083735459778e-01
9.90241482832705078e-01
9.90241482832705078e-01
9.90241482832705078e-01
9.81287517693059219e-01
9.81287517693059219e-01
9.81287517693059219e-01
1.03456402450162055e+00
1.03456402450162055e+00
1.03456402450162055e+00
1.04252401342701662e+00
1.04252401342701662e+00
1.04252401342701662e+00
9.90115560961146501e-01
9.90115560961146501e-01
9.90115560961146501e-01
9.92059351713498239e-01
9.92059351713498239e-01
9.92059351713498239e-01
9.95661186499877893e-01
9.95661186499877893e-01
9.95661186499877893e-01
9.70606306394334539e-01
9.70606306394334539e-01
9.70606306394334539e-01
1.03965075624605552e+00
1.03965075624605552e+00
1.03965075624605552e+00
1.00243613395807540e+00
1.00243613395807540e+00
1.00243613395807540e+00
9.90760169982305317e-01
9.90760169982305317e-01
9.90760169982305317e-01
9.96737459644550627e-01
9.96737459644550627e-01
9.96737459644550627e-01
1.00795853347116537e+00
1.00795853347116537e+00
1.00795853347116537e+00
1.00441886185221785e+00
1.00441886185221785e+00
1.00441886185221785e+00
1.02504956510883760e+00
1.02504956510883760e+00
1.02504956510883760e+00
1.05686373298280301e+00
1.05686373298280301e+00
1.05686373298280301e+00
1.02764270220685017e+00
1.02764270220685017e+00
1.02764270220685017e+00
1.01002817323736926e+00
1.01002817323736926e+00
1.01002817323736926e+00
9.96591270616220104e-01
9.96591270616220104e-01
9.96591270616220104e-01
1.00180857887567543e+00
1.00180857887567543e+00
1.00180857887567543e+00
1.00626226081179104e+00
1.00626226081179104e+00
1.00626226081179104e+00
9.99632866183264968e-01
9.99632866183264968e-01
9.99632866183264968e-01
9.77486388852920274e-01
9.77486388852920274e-01
9.77486388852920274e-01
9.79286277957126972e-01
9.79286277957126972e-01
9.79286277957126972e-01
1.00796411881607706e+00
1.00796411881607706e+00
1.00796411881607706e+00
9.79516013544575403e-01
9.79516013544575403e-01
9.79516013544575403e-01
9.08359767557778808e-01
9.08359767557778808e-01
9.08359767557778808e-01
1.01655241893185155e+00
1.01655241893185155e+00
1.01655241893185155e+00
9.73990080401726965e-01
9.73990080401726965e-01
9.73990080401726965e-01
9.84251345193829730e-01
9.84251345193829730e-01
9.84251345193829730e-01
1.02290130546767788e+00
1.02290130546767788e+00
1.02290130546767788e+00
1.01944877195753469e+00
1.01944877195753469e+00
1.01944877195753469e+00
9.91217002836363714e-01
9.91217002836363714e-01
9.91217002836363714e-01
9.25813925467532717e-01
9.25813925467532717e-01
9.25813925467532717e-01
9.96153288833584227e-01
9.96153288833584227e-01
9.96153288833584227e-01
9.87821322512998812e-01
9.87821322512998812e-01
9.87821322512998812e-01
9.87972784549065230e-01
9.87972784549065230e-01
9.87972784549065230e-01
9.64717336585174334e-01
9.64717336585174334e-01
9.64717336585174334e-01
1.03631189159612336e+00
1.03631189159612336e+00
1.03631189159612336e+00
9.89829347076585209e-01
9.89829347076585209e-01
9.89829347076585209e-01
1.00682542237405315e+00
1.00682542237405315e+00
1.00682542237405315e+00
9.94491891117583737e-01
9.94491891117583737e-01
9.94491891117583737e-01
1.02974225005525710e+00
1.02974225005525710e+00
1.02974225005525710e+00
9.80235354615553112e-01
9.80235354615553112e-01
9.80235354615553112e-01
9.80000976267221047e-01
9.80000976267221047e-01
9.80000976267221047e-01
9.32904764434435263e-01
9.32904764434435263e-01
9.32904764434435263e-01
9.39709660399729252e-01
9.39709660399729252e-01
9.39709660399729252e-01
9.44968443260615465e-01
9.44968443260615465e-01
9.44968443260615465e-01
9.02030575312962934e-01
9.02030575312962934e-01
9.02030575312962934e-01
9.13501974672012884e-01
9.13501974672012884e-01
9.13501974672012884e-01
9.74062916419740188e-01
9.74062916419740188e-01
9.74062916419740188e-01
9.30162082751448072e-01
9.30162082751448072e-01
9.30162082751448072e-01
9.86510796928210976e-01
9.86510796928210976e-01
9.86510796928210976e-01
9.92307889903155993e-01
9.92307889903155993e-01
9.92307889903155993e-01
9.82596761075925640e-01
9.82596761075925640e-01
9.82596761075925640e-01
9.72475323910226730e-01
9.72475323910226730e-01
9.72475323910226730e-01
9.97728218898615959e-01
9.97728218898615959e-01
9.97728218898615959e-01
9.83665930320731130e-01
9.83665930320731130e-01
9.83665930320731130e-01
9.21251603191026058e-01
9.21251603191026058e-01
9.21251603191026058e-01
1.03613254082147588e+00
1.03613254082147588e+00
1.03613254082147588e+00
9.99423333019628601e-01
9.99423333019628601e-01
9.99423333019628601e-01
9.78983375769494568e-01
9.78983375769494568e-01
9.78983375769494568e-01
8.97213935263878826e-01
8.97213935263878826e-01
8.97213935263878826e-01
9.97538538866281632e-01
9.97538538866281632e-01
9.97538538866281632e-01
9.59894783744495772e-01
9.59894783744495772e-01
9.59894783744495772e-01
1.00861394021672246e+00
1.00861394021672246e+00
1.00861394021672246e+00
9.67345819840966903e-01
9.67345819840966903e-01
9.67345819840966903e-01
9.37470985408873525e-01
9.37470985408873525e-01
9.37470985408873525e-01
9.64332103012596087e-01
9.64332103012596087e-01
9.64332103012596087e-01
8.98134710359801747e-01
8.98134710359801747e-01
8.98134710359801747e-01
9.51622532390447029e-01
9.51622532390447029e-01
9.51622532390447029e-01
9.74548458711755994e-01
9.74548458711755994e-01
9.74548458711755994e-01
9.95044388621496356e-01
9.95044388621496356e-01
9.95044388621496356e-01
1.01177499902070767e+00
1.01177499902070767e+00
1.01177499902070767e+00
1.00777779804576983e+00
1.00777779804576983e+00
1.00777779804576983e+00
1.02039702197047277e+00
1.02039702197047277e+00
1.02039702197047277e+00
1.00537728843701335e+00
1.00537728843701335e+00
1.00537728843701335e+00
1.01875758839206720e+00
1.01875758839206720e+00
1.01875758839206720e+00
1.00074043654875000e+00
1.00074043654875000e+00
1.00074043654875000e+00
1.00205906013832813e+00
1.00205906013832813e+00
1.00205906013832813e+00
1.00338309895590383e+00
1.00338309895590383e+00
1.00338309895590383e+00
1.00420512988507316e+00
1.00420512988507316e+00
1.00420512988507316e+00
9.70108564669342033e-01
9.70108564669342033e-01
9.70108564669342033e-01
9.26284352778005693e-01
9.26284352778005693e-01
9.26284352778005693e-01
9.79206859810384911e-01
9.79206859810384911e-01
9.79206859810384911e-01
8.92763218817047011e-01
8.92763218817047011e-01
8.92763218817047011e-01
9.66321648137460021e-01
9.66321648137460021e-01
9.66321648137460021e-01
9.96779996810696178e-01
9.96779996810696178e-01
9.96779996810696178e-01
9.93586257197380696e-01
9.93586257197380696e-01
9.93586257197380696e-01
9.57396874932711750e-01
9.57396874932711750e-01
9.57396874932711750e-01
9.88452921814233720e-01
9.88452921814233720e-01
9.88452921814233720e-01
9.49390394900582302e-01
9.49390394900582302e-01
9.49390394900582302e-01
9.89956843693605038e-01
9.89956843693605038e-01
9.89956843693605038e-01


        </DataArray>

      </PointData>

      <CellData/>

      <Points>

        <DataArray type="Float64" NumberOfComponents="3" format="ascii">

0.1082531754723032 0.6875000000007816 0 0.23533274979922561 0.77093399389351469 0 0.10409951422139101 0.81206782209691231 0 0.23533274979922561 0.77093399389351469 0 0.1082531754723032 0.6875000000007816 0 0.21809253452218619 0.65480892822618109 0 0.24418615484441761 0.35773612382016978 0 0.121259140952891 0.43112117036853742 0 0.1082531754734323 0.31250000000117473 0 0.75000000000057243 0.35048094716480432 0 0.88173731489851925 0.33077402607778361 0 0.81242894672211508 0.45500248311961472 0 0.121259140952891 0.43112117036853742 0 0.24418615484441761 0.35773612382016978 0 0.22257735880419699 0.47344721641341742 0 0.81242894672211508 0.45500248311961472 0 0.88173731489851925 0.33077402607778361 0 0.915464298762109 0.43749999999886913 0 0 0.62500000000121547 0 0 0.50000000000206146 0 0.1371230538040123 0.56179824718362847 0 0.82212678063041267 0.67678595194836966 0 0.89051480781310632 0.79665793440246835 0 0.76243180583607129 0.78687675331113149 0 0.76243180583607129 0.78687675331113149 0 0.69010814643829166 0.89298495739101336 0 0.62844955668446423 0.7850749770380413 0 0.89051480781310632 0.79665793440246835 0 0.82212678063041267 0.67678595194836966 0 0.92266244547590082 0.68749999999917555 0 0 0.50000000000206146 0 0.121259140952891 0.43112117036853742 0 0.1371230538040123 0.56179824718362847 0 0.1082531754723032 0.6875000000007816 0 0 0.62500000000121547 0 0.1371230538040123 0.56179824718362847 0 0.75000000000032374 0.56698729811007709 0 0.88927506082488361 0.56409486310635837 0 0.82212678063041267 0.67678595194836966 0 0.81242894672211508 0.45500248311961472 0 0.88927506082488361 0.56409486310635837 0 0.75000000000032374 0.56698729811007709 0 0.69851598570178741 0.68211701800612057 0 0.56496004948275869 0.67675037307860475 0 0.62752533658682441 0.56838075195614346 0 0.69851598570178741 0.68211701800612057 0 0.76243180583607129 0.78687675331113149 0 0.62844955668446423 0.7850749770380413 0 0.23533274979922561 0.77093399389351469 0 0.18802967116092181 0.89415349436770275 0 0.10409951422139101 0.81206782209691231 0 0.121259140952891 0.43112117036853742 0 0.22257735880419699 0.47344721641341742 0 0.1371230538040123 0.56179824718362847 0 0.75000000000032374 0.56698729811007709 0 0.69851598570178741 0.68211701800612057 0 0.62752533658682441 0.56838075195614346 0 0.56496004948275869 0.67675037307860475 0 0.69851598570178741 0.68211701800612057 0 0.62844955668446423 0.7850749770380413 0 0.1371230538040123 0.56179824718362847 0 0.22257735880419699 0.47344721641341742 0 0.26982811998763367 0.56544650815856912 0 0.21809253452218619 0.65480892822618109 0 0.1371230538040123 0.56179824718362847 0 0.26982811998763367 0.56544650815856912 0 0.24418615484441761 0.35773612382016978 0 0.1082531754734323 0.31250000000117473 0 0.20767261601459541 0.25628918442207171 0 0.88173731489851925 0.33077402607778361 0 0.75000000000057243 0.35048094716480432 0 0.79891106056046712 0.25007334953587562 0 0.75000000000032374 0.56698729811007709 0 0.82212678063041267 0.67678595194836966 0 0.69851598570178741 0.68211701800612057 0 0.81249999999950517 0.1082531754733404 0 0.89658421694297741 0.1933620068391701 0 0.79891106056046712 0.25007334953587562 0 0.81249999999950517 0.1082531754733404 0 0.79891106056046712 0.25007334953587562 0 0.73983916756365475 0.17530677078674589 0 0.23533274979922561 0.77093399389351469 0 0.21809253452218619 0.65480892822618109 0 0.32607333794064219 0.67760114260606152 0 0.1082531754723032 0.6875000000007816 0 0.1371230538040123 0.56179824718362847 0 0.21809253452218619 0.65480892822618109 0 0.69851598570178741 0.68211701800612057 0 0.82212678063041267 0.67678595194836966 0 0.76243180583607129 0.78687675331113149 0 0.69010814643829166 0.89298495739101336 0 0.76243180583607129 0.78687675331113149 0 0.80886664387416207 0.89717308644237903 0 0.43750000000181222 0.89174682452709564 0 0.31258827852827581 0.89214793616708443 0 0.37776173212361452 0.78514649317305008 0 0.43750000000181222 0.89174682452709564 0 0.37500000000156292 1 0 0.31258827852827581 0.89214793616708443 0 0.121259140952891 0.43112117036853742 0 0 0.37500000000156292 0 0.1082531754734323 0.31250000000117473 0 0.50000000000206146 1 0 0.37500000000156292 1 0 0.43750000000181222 0.89174682452709564 0 0.31258827852827581 0.89214793616708443 0 0.18802967116092181 0.89415349436770275 0 0.23533274979922561 0.77093399389351469 0 0 0.50000000000206146 0 0 0.37500000000156292 0 0.121259140952891 0.43112117036853742 0 0.62844955668446423 0.7850749770380413 0 0.69010814643829166 0.89298495739101336 0 0.56327595140699671 0.89211526915426331 0 0.69010814643829166 0.89298495739101336 0 0.62500000000121547 1 0 0.56327595140699671 0.89211526915426331 0 0.25000000000104189 1 0 0.18802967116092181 0.89415349436770275 0 0.31258827852827581 0.89214793616708443 0 0.50000000000206146 1 0 0.43750000000181222 0.89174682452709564 0 0.56327595140699671 0.89211526915426331 0 0.56249999999885147 0.1082531754730395 0 0.62499999999901068 0 0 0.68749999999926592 0.1082531754732875 0 1 0.49999999999869221 0 1 0.62499999999901068 0 0.88927506082488361 0.56409486310635837 0 0 0.25000000000104189 0 0.12076953676380731 0.18690935762408761 0 0.1082531754734323 0.31250000000117473 0 0.49999999999869221 0 0 0.62499999999901068 0 0 0.56249999999885147 0.1082531754730395 0 0.62500000000121547 1 0 0.50000000000206146 1 0 0.56327595140699671 0.89211526915426331 0 0.37500000000156292 1 0 0.25000000000104189 1 0 0.31258827852827581 0.89214793616708443 0 0.31281086598417152 0.10449318608631281 0 0.37499999999904599 0 0 0.43749999999910871 0.1082531754729984 0 0.43750000000181222 0.89174682452709564 0 0.37776173212361452 0.78514649317305008 0 0.50046028868828263 0.78376912307435687 0 0 0.37500000000156292 0 0 0.25000000000104189 0 0.1082531754734323 0.31250000000117473 0 0.49999999999869221 0 0 0.56249999999885147 0.1082531754730395 0 0.43749999999910871 0.1082531754729984 0 0.43750000000181222 0.89174682452709564 0 0.50046028868828263 0.78376912307435687 0 0.56327595140699671 0.89211526915426331 0 0.74999999999934042 0 0 0.81249999999950517 0.1082531754733404 0 0.68749999999926592 0.1082531754732875 0 0.37499999999904599 0 0 0.49999999999869221 0 0 0.43749999999910871 0.1082531754729984 0 0.25000000000104189 1 0 0.12500000000052089 1 0 0.18802967116092181 0.89415349436770275 0 0.50046028868828263 0.78376912307435687 0 0.62844955668446423 0.7850749770380413 0 0.56327595140699671 0.89211526915426331 0 0.37776173212361452 0.78514649317305008 0 0.31258827852827581 0.89214793616708443 0 0.23533274979922561 0.77093399389351469 0 0.62499999999901068 0 0 0.74999999999934042 0 0 0.68749999999926592 0.1082531754732875 0 1 0.74999999999934042 0 1 0.87499999999967015 0 0.89051480781310632 0.79665793440246835 0 0 0.25000000000104189 0 0 0.12500000000052089 0 0.12076953676380731 0.18690935762408761 0 0.74999999999934042 0 0 0.87499999999967015 0 0 0.81249999999950517 0.1082531754733404 0 0.24999999999941069 0 0 0.37499999999904599 0 0 0.31281086598417152 0.10449318608631281 0 0.50046028868828263 0.78376912307435687 0 0.37776173212361452 0.78514649317305008 0 0.44078402250377968 0.67714785211715212 0 0.68768773896438518 0.4586835206367198 0 0.75000000000032374 0.56698729811007709 0 0.62752533658682441 0.56838075195614346 0 0.31411863959822661 0.24965544328045999 0 0.37953773393552892 0.34812185820708452 0 0.24418615484441761 0.35773612382016978 0 0.68768773896438518 0.4586835206367198 0 0.81242894672211508 0.45500248311961472 0 0.75000000000032374 0.56698729811007709 0 1 0.24999999999941069 0 1 0.37499999999904599 0 0.88173731489851925 0.33077402607778361 0 0 0.75000000000034761 0 0 0.62500000000121547 0 0.1082531754723032 0.6875000000007816 0 0.50048844149666749 0.56727788297625459 0 0.44078402250377968 0.67714785211715212 0 0.38694285807596462 0.5672991787102919 0 0.50108503093851109 0.35012252869403671 0 0.44301038174930041 0.45684931552185398 0 0.37953773393552892 0.34812185820708452 0 0.50046028868828263 0.78376912307435687 0 0.56496004948275869 0.67675037307860475 0 0.62844955668446423 0.7850749770380413 0 0.68768773896438518 0.4586835206367198 0 0.75000000000057243 0.35048094716480432 0 0.81242894672211508 0.45500248311961472 0 0.56349980387502452 0.45846841892908402 0 0.62512662990940393 0.35044303886909911 0 0.68768773896438518 0.4586835206367198 0 0.50048844149666749 0.56727788297625459 0 0.38694285807596462 0.5672991787102919 0 0.44301038174930041 0.45684931552185398 0 0.50046028868828263 0.78376912307435687 0 0.44078402250377968 0.67714785211715212 0 0.56496004948275869 0.67675037307860475 0 0.50108503093851109 0.35012252869403671 0 0.37953773393552892 0.34812185820708452 0 0.43750000000200551 0.24222777169198509 0 0.75000000000034761 1 0 0.62500000000121547 1 0 0.69010814643829166 0.89298495739101336 0 0.68768773896438518 0.4586835206367198 0 0.62512662990940393 0.35044303886909911 0 0.75000000000057243 0.35048094716480432 0 0.56496004948275869 0.67675037307860475 0 0.44078402250377968 0.67714785211715212 0 0.50048844149666749 0.56727788297625459 0 0.56349980387502452 0.45846841892908402 0 0.44301038174930041 0.45684931552185398 0 0.50108503093851109 0.35012252869403671 0 0.50048844149666749 0.56727788297625459 0 0.44301038174930041 0.45684931552185398 0 0.56349980387502452 0.45846841892908402 0 0.56349980387502452 0.45846841892908402 0 0.50108503093851109 0.35012252869403671 0 0.62512662990940393 0.35044303886909911 0 0.43750000000200551 0.24222777169198509 0 0.37953773393552892 0.34812185820708452 0 0.31411863959822661 0.24965544328045999 0 0.56496004948275869 0.67675037307860475 0 0.50048844149666749 0.56727788297625459 0 0.62752533658682441 0.56838075195614346 0 0.56349980387502452 0.45846841892908402 0 0.68768773896438518 0.4586835206367198 0 0.62752533658682441 0.56838075195614346 0 0.50048844149666749 0.56727788297625459 0 0.56349980387502452 0.45846841892908402 0 0.62752533658682441 0.56838075195614346 0 0.75000000000057243 0.35048094716480432 0 0.62512662990940393 0.35044303886909911 0 0.68668231842078242 0.24762892664808989 0 0.50108503093851109 0.35012252869403671 0 0.43750000000200551 0.24222777169198509 0 0.56250000000143974 0.2422277716920859 0 0.62512662990940393 0.35044303886909911 0 0.50108503093851109 0.35012252869403671 0 0.56250000000143974 0.2422277716920859 0 0.68668231842078242 0.24762892664808989 0 0.62512662990940393 0.35044303886909911 0 0.56250000000143974 0.2422277716920859 0 0.22257735880419699 0.47344721641341742 0 0.24418615484441761 0.35773612382016978 0 0.32815957677880009 0.4577243358118348 0 0.12076953676380731 0.18690935762408761 0 0.19185372118111221 0.092925648673580788 0 0.25103557339309318 0.17464499738446629 0 0.20767261601459541 0.25628918442207171 0 0.12076953676380731 0.18690935762408761 0 0.25103557339309318 0.17464499738446629 0 0 0.87499999999950151 0 0 0.75000000000034761 0 0.10409951422139101 0.81206782209691231 0 0.1249999999997731 0 0 0.24999999999941069 0 0 0.19185372118111221 0.092925648673580788 0 1 0.1249999999997731 0 1 0.24999999999941069 0 0.89658421694297741 0.1933620068391701 0 0.88927506082488361 0.56409486310635837 0 0.81242894672211508 0.45500248311961472 0 0.915464298762109 0.43749999999886913 0 0.87499999999950151 1 0 0.75000000000034761 1 0 0.80886664387416207 0.89717308644237903 0 0.75000000000034761 1 0 0.69010814643829166 0.89298495739101336 0 0.80886664387416207 0.89717308644237903 0 0.82212678063041267 0.67678595194836966 0 0.88927506082488361 0.56409486310635837 0 0.92266244547590082 0.68749999999917555 0 0 0.75000000000034761 0 0.1082531754723032 0.6875000000007816 0 0.10409951422139101 0.81206782209691231 0 0.24999999999941069 0 0 0.31281086598417152 0.10449318608631281 0 0.19185372118111221 0.092925648673580788 0 1 0.24999999999941069 0 0.88173731489851925 0.33077402607778361 0 0.89658421694297741 0.1933620068391701 0 0.32815957677880009 0.4577243358118348 0 0.38694285807596462 0.5672991787102919 0 0.26982811998763367 0.56544650815856912 0 0.76243180583607129 0.78687675331113149 0 0.89051480781310632 0.79665793440246835 0 0.80886664387416207 0.89717308644237903 0 0.38694285807596462 0.5672991787102919 0 0.44078402250377968 0.67714785211715212 0 0.32607333794064219 0.67760114260606152 0 0.37776173212361452 0.78514649317305008 0 0.23533274979922561 0.77093399389351469 0 0.32607333794064219 0.67760114260606152 0 1 0.49999999999869221 0 0.88927506082488361 0.56409486310635837 0 0.915464298762109 0.43749999999886913 0 0.88173731489851925 0.33077402607778361 0 1 0.37499999999904599 0 0.915464298762109 0.43749999999886913 0 0.24418615484441761 0.35773612382016978 0 0.37953773393552892 0.34812185820708452 0 0.32815957677880009 0.4577243358118348 0 0.44301038174930041 0.45684931552185398 0 0.38694285807596462 0.5672991787102919 0 0.32815957677880009 0.4577243358118348 0 0.88927506082488361 0.56409486310635837 0 1 0.62499999999901068 0 0.92266244547590082 0.68749999999917555 0 1 0.74999999999934042 0 0.89051480781310632 0.79665793440246835 0 0.92266244547590082 0.68749999999917555 0 0 1 0 0 0.87499999999950151 0 0.091506350946494744 0.90849364905351082 0 1 1 0 0.87499999999950151 1 0 0.90849364905363228 0.90849364905367769 0 0 0 0 0.1249999999997731 0 0 0.091506350946417708 0.091506350946618076 0 0 0.12500000000052089 0 0 0 0 0.091506350946417708 0.091506350946618076 0 1 0 0 1 0.1249999999997731 0 0.90849364905355434 0.091506350946296292 0 0.87499999999967015 0 0 1 0 0 0.90849364905355434 0.091506350946296292 0 0.12500000000052089 1 0 0 1 0 0.091506350946494744 0.90849364905351082 0 1 0.87499999999967015 0 1 1 0 0.90849364905363228 0.90849364905367769 0 0.38694285807596462 0.5672991787102919 0 0.32607333794064219 0.67760114260606152 0 0.26982811998763367 0.56544650815856912 0 0.31411863959822661 0.24965544328045999 0 0.24418615484441761 0.35773612382016978 0 0.20767261601459541 0.25628918442207171 0 0.1082531754734323 0.31250000000117473 0 0.12076953676380731 0.18690935762408761 0 0.20767261601459541 0.25628918442207171 0 0.75000000000057243 0.35048094716480432 0 0.68668231842078242 0.24762892664808989 0 0.79891106056046712 0.25007334953587562 0 0.22257735880419699 0.47344721641341742 0 0.32815957677880009 0.4577243358118348 0 0.26982811998763367 0.56544650815856912 0 0.44078402250377968 0.67714785211715212 0 0.37776173212361452 0.78514649317305008 0 0.32607333794064219 0.67760114260606152 0 0.89658421694297741 0.1933620068391701 0 0.88173731489851925 0.33077402607778361 0 0.79891106056046712 0.25007334953587562 0 1 0.37499999999904599 0 1 0.49999999999869221 0 0.915464298762109 0.43749999999886913 0 0.37953773393552892 0.34812185820708452 0 0.44301038174930041 0.45684931552185398 0 0.32815957677880009 0.4577243358118348 0 0.32607333794064219 0.67760114260606152 0 0.21809253452218619 0.65480892822618109 0 0.26982811998763367 0.56544650815856912 0 1 0.1249999999997731 0 0.89658421694297741 0.1933620068391701 0 0.90849364905355434 0.091506350946296292 0 0 0.87499999999950151 0 0.10409951422139101 0.81206782209691231 0 0.091506350946494744 0.90849364905351082 0 0.1249999999997731 0 0 0.19185372118111221 0.092925648673580788 0 0.091506350946417708 0.091506350946618076 0 1 0.62499999999901068 0 1 0.74999999999934042 0 0.92266244547590082 0.68749999999917555 0 0.18802967116092181 0.89415349436770275 0 0.12500000000052089 1 0 0.091506350946494744 0.90849364905351082 0 0.89051480781310632 0.79665793440246835 0 1 0.87499999999967015 0 0.90849364905363228 0.90849364905367769 0 0.12076953676380731 0.18690935762408761 0 0 0.12500000000052089 0 0.091506350946417708 0.091506350946618076 0 0.81249999999950517 0.1082531754733404 0 0.87499999999967015 0 0 0.90849364905355434 0.091506350946296292 0 0.87499999999950151 1 0 0.80886664387416207 0.89717308644237903 0 0.90849364905363228 0.90849364905367769 0 0.68668231842078242 0.24762892664808989 0 0.62499999999892575 0.17524047358135519 0 0.73983916756365475 0.17530677078674589 0 0.31281086598417152 0.10449318608631281 0 0.43749999999910871 0.1082531754729984 0 0.37500000000232431 0.17524047358384309 0 0.62499999999892575 0.17524047358135519 0 0.56250000000143974 0.2422277716920859 0 0.49999999999934441 0.1752404735815076 0 0.56249999999885147 0.1082531754730395 0 0.68749999999926592 0.1082531754732875 0 0.62499999999892575 0.17524047358135519 0 0.56249999999885147 0.1082531754730395 0 0.62499999999892575 0.17524047358135519 0 0.49999999999934441 0.1752404735815076 0 0.56250000000143974 0.2422277716920859 0 0.43750000000200551 0.24222777169198509 0 0.49999999999934441 0.1752404735815076 0 0.43749999999910871 0.1082531754729984 0 0.56249999999885147 0.1082531754730395 0 0.49999999999934441 0.1752404735815076 0 0.68668231842078242 0.24762892664808989 0 0.56250000000143974 0.2422277716920859 0 0.62499999999892575 0.17524047358135519 0 0.43750000000200551 0.24222777169198509 0 0.31411863959822661 0.24965544328045999 0 0.37500000000232431 0.17524047358384309 0 0.49999999999934441 0.1752404735815076 0 0.43750000000200551 0.24222777169198509 0 0.37500000000232431 0.17524047358384309 0 0.43749999999910871 0.1082531754729984 0 0.49999999999934441 0.1752404735815076 0 0.37500000000232431 0.17524047358384309 0 0.62499999999892575 0.17524047358135519 0 0.68749999999926592 0.1082531754732875 0 0.73983916756365475 0.17530677078674589 0 0.68749999999926592 0.1082531754732875 0 0.81249999999950517 0.1082531754733404 0 0.73983916756365475 0.17530677078674589 0 0.10409951422139101 0.81206782209691231 0 0.18802967116092181 0.89415349436770275 0 0.091506350946494744 0.90849364905351082 0 0.89658421694297741 0.1933620068391701 0 0.81249999999950517 0.1082531754733404 0 0.90849364905355434 0.091506350946296292 0 0.19185372118111221 0.092925648673580788 0 0.12076953676380731 0.18690935762408761 0 0.091506350946417708 0.091506350946618076 0 0.37500000000232431 0.17524047358384309 0 0.31411863959822661 0.24965544328045999 0 0.25103557339309318 0.17464499738446629 0 0.31281086598417152 0.10449318608631281 0 0.37500000000232431 0.17524047358384309 0 0.25103557339309318 0.17464499738446629 0 0.80886664387416207 0.89717308644237903 0 0.89051480781310632 0.79665793440246835 0 0.90849364905363228 0.90849364905367769 0 0.19185372118111221 0.092925648673580788 0 0.31281086598417152 0.10449318608631281 0 0.25103557339309318 0.17464499738446629 0 0.79891106056046712 0.25007334953587562 0 0.68668231842078242 0.24762892664808989 0 0.73983916756365475 0.17530677078674589 0 0.31411863959822661 0.24965544328045999 0 0.20767261601459541 0.25628918442207171 0 0.25103557339309318 0.17464499738446629 0 

        </DataArray>

      </Points>

      <Cells>

        <DataArray type="Int32" Name="connectivity" format="ascii">

0 1 2 3 4 5 6 7 8 9 10 11 12 13 14 15 16 17 18 19 20 21 22 23 24 25 26 27 28 29 30 31 32 33 34 35 36 37 38 39 40 41 42 43 44 45 46 47 48 49 50 51 52 53 54 55 56 57 58 59 60 61 62 63 64 65 66 67 68 69 70 71 72 73 74 75 76 77 78 79 80 81 82 83 84 85 86 87 88 89 90 91 92 93 94 95 96 97 98 99 100 101 102 103 104 105 106 107 108 109 110 111 112 113 114 115 116 117 118 119 120 121 122 123 124 125 126 127 128 129 130 131 132 133 134 135 136 137 138 139 140 141 142 143 144 145 146 147 148 149 150 151 152 153 154 155 156 157 158 159 160 161 162 163 164 165 166 167 168 169 170 171 172 173 174 175 176 177 178 179 180 181 182 183 184 185 186 187 188 189 190 191 192 193 194 195 196 197 198 199 200 201 202 203 204 205 206 207 208 209 210 211 212 213 214 215 216 217 218 219 220 221 222 223 224 225 226 227 228 229 230 231 232 233 234 235 236 237 238 239 240 241 242 243 244 245 246 247 248 249 250 251 252 253 254 255 256 257 258 259 260 261 262 263 264 265 266 267 268 269 270 271 272 273 274 275 276 277 278 279 280 281 282 283 284 285 286 287 288 289 290 291 292 293 294 295 296 297 298 299 300 301 302 303 304 305 306 307 308 309 310 311 312 313 314 315 316 317 318 319 320 321 322 323 324 325 326 327 328 329 330 331 332 333 334 335 336 337 338 339 340 341 342 343 344 345 346 347 348 349 350 351 352 353 354 355 356 357 358 359 360 361 362 363 364 365 366 367 368 369 370 371 372 373 374 375 376 377 378 379 380 381 382 383 384 385 386 387 388 389 390 391 392 393 394 395 396 397 398 399 400 401 402 403 404 405 406 407 408 409 410 411 412 413 414 415 416 417 418 419 420 421 422 423 424 425 426 427 428 429 430 431 432 433 434 435 436 437 438 439 440 441 442 443 444 445 446 447 448 449 450 451 452 453 454 455 456 457 458 459 460 461 462 463 464 465 466 467 468 469 470 471 472 473 474 475 476 477 478 479 480 481 482 483 484 485 

        </DataArray>

        <DataArray type="Int32" Name="offsets" format="ascii">

3 6 9 12 15 18 21 24 27 30 33 36 39 42 45 48 51 54 57 60 63 66 69 72 75 78 81 84 87 90 93 96 99 102 105 108 111 114 117 120 123 126 129 132 135 138 141 144 147 150 153 156 159 162 165 168 171 174 177 180 183 186 189 192 195 198 201 204 207 210 213 216 219 222 225 228 231 234 237 240 243 246 249 252 255 258 261 264 267 270 273 276 279 282 285 288 291 294 297 300 303 306 309 312 315 318 321 324 327 330 333 336 339 342 345 348 351 354 357 360 363 366 369 372 375 378 381 384 387 390 393 396 399 402 405 408 411 414 417 420 423 426 429 432 435 438 441 444 447 450 453 456 459 462 465 468 471 474 477 480 483 486 

        </DataArray>

        <DataArray type="Int32" Name="types" format="ascii">

5 5 5 5 5 5 5 5 5 5 5 5 5 5 5 5 5 5 5 5 5 5 5 5 5 5 5 5 5 5 5 5 5 5 5 5 5 5 5 5 5 5 5 5 5 5 5 5 5 5 5 5 5 5 5 5 5 5 5 5 5 5 5 5 5 5 5 5 5 5 5 5 5 5 5 5 5 5 5 5 5 5 5 5 5 5 5 5 5 5 5 5 5 5 5 5 5 5 5 5 5 5 5 5 5 5 5 5 5 5 5 5 5 5 5 5 5 5 5 5 5 5 5 5 5 5 5 5 5 5 5 5 5 5 5 5 5 5 5 5 5 5 5 5 5 5 5 5 5 5 5 5 5 5 5 5 5 5 5 5 5 5 

        </DataArray>

      </Cells>

    </Piece>

  </UnstructuredGrid>

</VTKFile>

