<?xml version="1.0"?>

<VTKFile type="UnstructuredGrid" version="0.1">

  <UnstructuredGrid>

    <Piece NumberOfPoints="486" NumberOfCells="162">

      <PointData>

        <DataArray type="Float64" Name="K" format="ascii">

9.79328061547347195e-01
9.79328061547347195e-01
9.79328061547347195e-01
9.78616201959131127e-01
9.78616201959131127e-01
9.78616201959131127e-01
9.85416655864270963e-01
9.85416655864270963e-01
9.85416655864270963e-01
1.00135440228274608e+00
1.00135440228274608e+00
1.00135440228274608e+00
9.97914312631942968e-01
9.97914312631942968e-01
9.97914312631942968e-01
9.93714133852118264e-01
9.93714133852118264e-01
9.93714133852118264e-01
9.67532299176461219e-01
9.67532299176461219e-01
9.67532299176461219e-01
9.84152753210245534e-01
9.84152753210245534e-01
9.84152753210245534e-01
9.45863470001582440e-01
9.45863470001582440e-01
9.45863470001582440e-01
9.84731801018980168e-01
9.84731801018980168e-01
9.84731801018980168e-01
9.82584400716694617e-01
9.82584400716694617e-01
9.82584400716694617e-01
9.83435693767616081e-01
9.83435693767616081e-01
9.83435693767616081e-01
1.00122841980844601e+00
1.00122841980844601e+00
1.00122841980844601e+00
1.00225191850201756e+00
1.00225191850201756e+00
1.00225191850201756e+00
9.81783671425313642e-01
9.81783671425313642e-01
9.81783671425313642e-01
9.52596036135410995e-01
9.52596036135410995e-01
9.52596036135410995e-01
9.72071567836377826e-01
9.72071567836377826e-01
9.72071567836377826e-01
9.96937986247289576e-01
9.96937986247289576e-01
9.96937986247289576e-01
9.87369506446872380e-01
9.87369506446872380e-01
9.87369506446872380e-01
9.55845250988234363e-01
9.55845250988234363e-01
9.55845250988234363e-01
1.00460551948040999e+00
1.00460551948040999e+00
1.00460551948040999e+00
9.96969927456278437e-01
9.96969927456278437e-01
9.96969927456278437e-01
9.81333841754348124e-01
9.81333841754348124e-01
9.81333841754348124e-01
1.00217593929689319e+00
1.00217593929689319e+00
1.00217593929689319e+00
9.89076014001375237e-01
9.89076014001375237e-01
9.89076014001375237e-01
9.99413845900541831e-01
9.99413845900541831e-01
9.99413845900541831e-01
9.93292219987154223e-01
9.93292219987154223e-01
9.93292219987154223e-01
9.79561002760180211e-01
9.79561002760180211e-01
9.79561002760180211e-01
9.92063822228926084e-01
9.92063822228926084e-01
9.92063822228926084e-01
9.79307965671927239e-01
9.79307965671927239e-01
9.79307965671927239e-01
9.60209826157935931e-01
9.60209826157935931e-01
9.60209826157935931e-01
9.85284736294250285e-01
9.85284736294250285e-01
9.85284736294250285e-01
9.71024583770506822e-01
9.71024583770506822e-01
9.71024583770506822e-01
9.93982184586126416e-01
9.93982184586126416e-01
9.93982184586126416e-01
9.73736246120436855e-01
9.73736246120436855e-01
9.73736246120436855e-01
9.67394704219648793e-01
9.67394704219648793e-01
9.67394704219648793e-01
9.83532229283080373e-01
9.83532229283080373e-01
9.83532229283080373e-01
9.39564075539433774e-01
9.39564075539433774e-01
9.39564075539433774e-01
9.55145866684672051e-01
9.55145866684672051e-01
9.55145866684672051e-01
9.75538606756751747e-01
9.75538606756751747e-01
9.75538606756751747e-01
9.71913389649801562e-01
9.71913389649801562e-01
9.71913389649801562e-01
9.50940407012216604e-01
9.50940407012216604e-01
9.50940407012216604e-01
9.98346290974034156e-01
9.98346290974034156e-01
9.98346290974034156e-01
1.01779536503550139e+00
1.01779536503550139e+00
1.01779536503550139e+00
9.64044299861311793e-01
9.64044299861311793e-01
9.64044299861311793e-01
9.76394362644403935e-01
9.76394362644403935e-01
9.76394362644403935e-01
9.70104304866674205e-01
9.70104304866674205e-01
9.70104304866674205e-01
9.89582288257859766e-01
9.89582288257859766e-01
9.89582288257859766e-01
9.98970412587309675e-01
9.98970412587309675e-01
9.98970412587309675e-01
1.02127694750012199e+00
1.02127694750012199e+00
1.02127694750012199e+00
9.55215368805287457e-01
9.55215368805287457e-01
9.55215368805287457e-01
9.73277323601477562e-01
9.73277323601477562e-01
9.73277323601477562e-01
9.72020086693403007e-01
9.72020086693403007e-01
9.72020086693403007e-01
9.78922189625899275e-01
9.78922189625899275e-01
9.78922189625899275e-01
9.91632503127615639e-01
9.91632503127615639e-01
9.91632503127615639e-01
9.53252619545612800e-01
9.53252619545612800e-01
9.53252619545612800e-01
9.77327121404143906e-01
9.77327121404143906e-01
9.77327121404143906e-01
9.67621528233696071e-01
9.67621528233696071e-01
9.67621528233696071e-01
9.64124774473011814e-01
9.64124774473011814e-01
9.64124774473011814e-01
1.04081668723241827e+00
1.04081668723241827e+00
1.04081668723241827e+00
9.83473918686357917e-01
9.83473918686357917e-01
9.83473918686357917e-01
1.00550254221081281e+00
1.00550254221081281e+00
1.00550254221081281e+00
1.02662135723356895e+00
1.02662135723356895e+00
1.02662135723356895e+00
1.00759320622045312e+00
1.00759320622045312e+00
1.00759320622045312e+00
1.01500746584982560e+00
1.01500746584982560e+00
1.01500746584982560e+00
1.00948021767789009e+00
1.00948021767789009e+00
1.00948021767789009e+00
1.01047190383005492e+00
1.01047190383005492e+00
1.01047190383005492e+00
9.72003881731519415e-01
9.72003881731519415e-01
9.72003881731519415e-01
1.06290483567932448e+00
1.06290483567932448e+00
1.06290483567932448e+00
1.01061550676797429e+00
1.01061550676797429e+00
1.01061550676797429e+00
9.70641054242326828e-01
9.70641054242326828e-01
9.70641054242326828e-01
1.01479571172561966e+00
1.01479571172561966e+00
1.01479571172561966e+00
1.01192243753484301e+00
1.01192243753484301e+00
1.01192243753484301e+00
1.05744338776731661e+00
1.05744338776731661e+00
1.05744338776731661e+00
1.02147668903164091e+00
1.02147668903164091e+00
1.02147668903164091e+00
9.86420221873604008e-01
9.86420221873604008e-01
9.86420221873604008e-01
9.60659396751010530e-01
9.60659396751010530e-01
9.60659396751010530e-01
1.01543887905093255e+00
1.01543887905093255e+00
1.01543887905093255e+00
1.04604584551254098e+00
1.04604584551254098e+00
1.04604584551254098e+00
1.01056330291822927e+00
1.01056330291822927e+00
1.01056330291822927e+00
1.04073489447892209e+00
1.04073489447892209e+00
1.04073489447892209e+00
9.89172956139881432e-01
9.89172956139881432e-01
9.89172956139881432e-01
1.00441423722606649e+00
1.00441423722606649e+00
1.00441423722606649e+00
1.02367117426597254e+00
1.02367117426597254e+00
1.02367117426597254e+00
1.01952772970845373e+00
1.01952772970845373e+00
1.01952772970845373e+00
1.03257230824000446e+00
1.03257230824000446e+00
1.03257230824000446e+00
1.00040396683962896e+00
1.00040396683962896e+00
1.00040396683962896e+00
9.46913137275829042e-01
9.46913137275829042e-01
9.46913137275829042e-01
9.53848643395457052e-01
9.53848643395457052e-01
9.53848643395457052e-01
9.59992236472305027e-01
9.59992236472305027e-01
9.59992236472305027e-01
1.01847344355635472e+00
1.01847344355635472e+00
1.01847344355635472e+00
9.85680882198151531e-01
9.85680882198151531e-01
9.85680882198151531e-01
9.78869763224769929e-01
9.78869763224769929e-01
9.78869763224769929e-01
9.90520632624657615e-01
9.90520632624657615e-01
9.90520632624657615e-01
1.00795761752943380e+00
1.00795761752943380e+00
1.00795761752943380e+00
1.02349174338574889e+00
1.02349174338574889e+00
1.02349174338574889e+00
9.97820152221347900e-01
9.97820152221347900e-01
9.97820152221347900e-01
9.64876656348223838e-01
9.64876656348223838e-01
9.64876656348223838e-01
9.58467597801700211e-01
9.58467597801700211e-01
9.58467597801700211e-01
9.96377672620231247e-01
9.96377672620231247e-01
9.96377672620231247e-01
9.86497080125558035e-01
9.86497080125558035e-01
9.86497080125558035e-01
1.00003836989143102e+00
1.00003836989143102e+00
1.00003836989143102e+00
1.00412148213930386e+00
1.00412148213930386e+00
1.00412148213930386e+00
1.03371534829774325e+00
1.03371534829774325e+00
1.03371534829774325e+00
9.71493612294308528e-01
9.71493612294308528e-01
9.71493612294308528e-01
1.04524358617711410e+00
1.04524358617711410e+00
1.04524358617711410e+00
9.89760741542038303e-01
9.89760741542038303e-01
9.89760741542038303e-01
1.00120405186489259e+00
1.00120405186489259e+00
1.00120405186489259e+00
1.00001703997607239e+00
1.00001703997607239e+00
1.00001703997607239e+00
1.02761466504195509e+00
1.02761466504195509e+00
1.02761466504195509e+00
1.04706373703196842e+00
1.04706373703196842e+00
1.04706373703196842e+00
9.91258196369641964e-01
9.91258196369641964e-01
9.91258196369641964e-01
9.70983593022243463e-01
9.70983593022243463e-01
9.70983593022243463e-01
1.00312982795836581e+00
1.00312982795836581e+00
1.00312982795836581e+00
9.69074099613640438e-01
9.69074099613640438e-01
9.69074099613640438e-01
1.01049483506691740e+00
1.01049483506691740e+00
1.01049483506691740e+00
1.02489417817324902e+00
1.02489417817324902e+00
1.02489417817324902e+00
1.03388554106390651e+00
1.03388554106390651e+00
1.03388554106390651e+00
1.02394581057038980e+00
1.02394581057038980e+00
1.02394581057038980e+00
9.99206617920858409e-01
9.99206617920858409e-01
9.99206617920858409e-01
9.65613355406456764e-01
9.65613355406456764e-01
9.65613355406456764e-01
1.02421600564454884e+00
1.02421600564454884e+00
1.02421600564454884e+00
9.93480467213247787e-01
9.93480467213247787e-01
9.93480467213247787e-01
9.85839573475108089e-01
9.85839573475108089e-01
9.85839573475108089e-01
1.00537679958539128e+00
1.00537679958539128e+00
1.00537679958539128e+00
1.02053982674900046e+00
1.02053982674900046e+00
1.02053982674900046e+00
1.02836246402183629e+00
1.02836246402183629e+00
1.02836246402183629e+00
9.97223310135382679e-01
9.97223310135382679e-01
9.97223310135382679e-01
1.00911530541431449e+00
1.00911530541431449e+00
1.00911530541431449e+00
1.03459324693422761e+00
1.03459324693422761e+00
1.03459324693422761e+00
9.96950053010388304e-01
9.96950053010388304e-01
9.96950053010388304e-01
1.02101944115564125e+00
1.02101944115564125e+00
1.02101944115564125e+00
9.93033105286419082e-01
9.93033105286419082e-01
9.93033105286419082e-01
1.00804343452897083e+00
1.00804343452897083e+00
1.00804343452897083e+00
9.79973591114432163e-01
9.79973591114432163e-01
9.79973591114432163e-01
9.90564727205318185e-01
9.90564727205318185e-01
9.90564727205318185e-01
9.59285471046420701e-01
9.59285471046420701e-01
9.59285471046420701e-01
1.02860506013469544e+00
1.02860506013469544e+00
1.02860506013469544e+00
1.00326595074818403e+00
1.00326595074818403e+00
1.00326595074818403e+00
9.63716928480681689e-01
9.63716928480681689e-01
9.63716928480681689e-01
9.65725099218589067e-01
9.65725099218589067e-01
9.65725099218589067e-01
9.86523014090186279e-01
9.86523014090186279e-01
9.86523014090186279e-01
9.21367581973066452e-01
9.21367581973066452e-01
9.21367581973066452e-01
9.36476614700825105e-01
9.36476614700825105e-01
9.36476614700825105e-01
9.23576762346789981e-01
9.23576762346789981e-01
9.23576762346789981e-01
9.35119987619157045e-01
9.35119987619157045e-01
9.35119987619157045e-01
9.39894405391030863e-01
9.39894405391030863e-01
9.39894405391030863e-01
9.41601845983246699e-01
9.41601845983246699e-01
9.41601845983246699e-01
9.94152554448504699e-01
9.94152554448504699e-01
9.94152554448504699e-01
9.65233018003471388e-01
9.65233018003471388e-01
9.65233018003471388e-01
9.64330393204924419e-01
9.64330393204924419e-01
9.64330393204924419e-01
9.57911475583779315e-01
9.57911475583779315e-01
9.57911475583779315e-01
9.77065205907256651e-01
9.77065205907256651e-01
9.77065205907256651e-01
9.83741033000425369e-01
9.83741033000425369e-01
9.83741033000425369e-01
1.00588037451515033e+00
1.00588037451515033e+00
1.00588037451515033e+00
1.00444648650504420e+00
1.00444648650504420e+00
1.00444648650504420e+00
9.94372357364417203e-01
9.94372357364417203e-01
9.94372357364417203e-01
9.91359930540226753e-01
9.91359930540226753e-01
9.91359930540226753e-01
9.63044201317938109e-01
9.63044201317938109e-01
9.63044201317938109e-01
9.87944630343309371e-01
9.87944630343309371e-01
9.87944630343309371e-01
9.93486026531399724e-01
9.93486026531399724e-01
9.93486026531399724e-01
9.85771671415575534e-01
9.85771671415575534e-01
9.85771671415575534e-01


        </DataArray>

      </PointData>

      <CellData/>

      <Points>

        <DataArray type="Float64" NumberOfComponents="3" format="ascii">

0.1082531754723032 0.6875000000007816 0 0.23533274979922561 0.77093399389351469 0 0.10409951422139101 0.81206782209691231 0 0.23533274979922561 0.77093399389351469 0 0.1082531754723032 0.6875000000007816 0 0.21809253452218619 0.65480892822618109 0 0.24418615484441761 0.35773612382016978 0 0.121259140952891 0.43112117036853742 0 0.1082531754734323 0.31250000000117473 0 0.75000000000057243 0.35048094716480432 0 0.88173731489851925 0.33077402607778361 0 0.81242894672211508 0.45500248311961472 0 0.121259140952891 0.43112117036853742 0 0.24418615484441761 0.35773612382016978 0 0.22257735880419699 0.47344721641341742 0 0.81242894672211508 0.45500248311961472 0 0.88173731489851925 0.33077402607778361 0 0.915464298762109 0.43749999999886913 0 0 0.62500000000121547 0 0 0.50000000000206146 0 0.1371230538040123 0.56179824718362847 0 0.82212678063041267 0.67678595194836966 0 0.89051480781310632 0.79665793440246835 0 0.76243180583607129 0.78687675331113149 0 0.76243180583607129 0.78687675331113149 0 0.69010814643829166 0.89298495739101336 0 0.62844955668446423 0.7850749770380413 0 0.89051480781310632 0.79665793440246835 0 0.82212678063041267 0.67678595194836966 0 0.92266244547590082 0.68749999999917555 0 0 0.50000000000206146 0 0.121259140952891 0.43112117036853742 0 0.1371230538040123 0.56179824718362847 0 0.1082531754723032 0.6875000000007816 0 0 0.62500000000121547 0 0.1371230538040123 0.56179824718362847 0 0.75000000000032374 0.56698729811007709 0 0.88927506082488361 0.56409486310635837 0 0.82212678063041267 0.67678595194836966 0 0.81242894672211508 0.45500248311961472 0 0.88927506082488361 0.56409486310635837 0 0.75000000000032374 0.56698729811007709 0 0.69851598570178741 0.68211701800612057 0 0.56496004948275869 0.67675037307860475 0 0.62752533658682441 0.56838075195614346 0 0.69851598570178741 0.68211701800612057 0 0.76243180583607129 0.78687675331113149 0 0.62844955668446423 0.7850749770380413 0 0.23533274979922561 0.77093399389351469 0 0.18802967116092181 0.89415349436770275 0 0.10409951422139101 0.81206782209691231 0 0.121259140952891 0.43112117036853742 0 0.22257735880419699 0.47344721641341742 0 0.1371230538040123 0.56179824718362847 0 0.75000000000032374 0.56698729811007709 0 0.69851598570178741 0.68211701800612057 0 0.62752533658682441 0.56838075195614346 0 0.56496004948275869 0.67675037307860475 0 0.69851598570178741 0.68211701800612057 0 0.62844955668446423 0.7850749770380413 0 0.1371230538040123 0.56179824718362847 0 0.22257735880419699 0.47344721641341742 0 0.26982811998763367 0.56544650815856912 0 0.21809253452218619 0.65480892822618109 0 0.1371230538040123 0.56179824718362847 0 0.26982811998763367 0.56544650815856912 0 0.24418615484441761 0.35773612382016978 0 0.1082531754734323 0.31250000000117473 0 0.20767261601459541 0.25628918442207171 0 0.88173731489851925 0.33077402607778361 0 0.75000000000057243 0.35048094716480432 0 0.79891106056046712 0.25007334953587562 0 0.75000000000032374 0.56698729811007709 0 0.82212678063041267 0.67678595194836966 0 0.69851598570178741 0.68211701800612057 0 0.81249999999950517 0.1082531754733404 0 0.89658421694297741 0.1933620068391701 0 0.79891106056046712 0.25007334953587562 0 0.81249999999950517 0.1082531754733404 0 0.79891106056046712 0.25007334953587562 0 0.73983916756365475 0.17530677078674589 0 0.23533274979922561 0.77093399389351469 0 0.21809253452218619 0.65480892822618109 0 0.32607333794064219 0.67760114260606152 0 0.1082531754723032 0.6875000000007816 0 0.1371230538040123 0.56179824718362847 0 0.21809253452218619 0.65480892822618109 0 0.69851598570178741 0.68211701800612057 0 0.82212678063041267 0.67678595194836966 0 0.76243180583607129 0.78687675331113149 0 0.69010814643829166 0.89298495739101336 0 0.76243180583607129 0.78687675331113149 0 0.80886664387416207 0.89717308644237903 0 0.43750000000181222 0.89174682452709564 0 0.31258827852827581 0.89214793616708443 0 0.37776173212361452 0.78514649317305008 0 0.43750000000181222 0.89174682452709564 0 0.37500000000156292 1 0 0.31258827852827581 0.89214793616708443 0 0.121259140952891 0.43112117036853742 0 0 0.37500000000156292 0 0.1082531754734323 0.31250000000117473 0 0.50000000000206146 1 0 0.37500000000156292 1 0 0.43750000000181222 0.89174682452709564 0 0.31258827852827581 0.89214793616708443 0 0.18802967116092181 0.89415349436770275 0 0.23533274979922561 0.77093399389351469 0 0 0.50000000000206146 0 0 0.37500000000156292 0 0.121259140952891 0.43112117036853742 0 0.62844955668446423 0.7850749770380413 0 0.69010814643829166 0.89298495739101336 0 0.56327595140699671 0.89211526915426331 0 0.69010814643829166 0.89298495739101336 0 0.62500000000121547 1 0 0.56327595140699671 0.89211526915426331 0 0.25000000000104189 1 0 0.18802967116092181 0.89415349436770275 0 0.31258827852827581 0.89214793616708443 0 0.50000000000206146 1 0 0.43750000000181222 0.89174682452709564 0 0.56327595140699671 0.89211526915426331 0 0.56249999999885147 0.1082531754730395 0 0.62499999999901068 0 0 0.68749999999926592 0.1082531754732875 0 1 0.49999999999869221 0 1 0.62499999999901068 0 0.88927506082488361 0.56409486310635837 0 0 0.25000000000104189 0 0.12076953676380731 0.18690935762408761 0 0.1082531754734323 0.31250000000117473 0 0.49999999999869221 0 0 0.62499999999901068 0 0 0.56249999999885147 0.1082531754730395 0 0.62500000000121547 1 0 0.50000000000206146 1 0 0.56327595140699671 0.89211526915426331 0 0.37500000000156292 1 0 0.25000000000104189 1 0 0.31258827852827581 0.89214793616708443 0 0.31281086598417152 0.10449318608631281 0 0.37499999999904599 0 0 0.43749999999910871 0.1082531754729984 0 0.43750000000181222 0.89174682452709564 0 0.37776173212361452 0.78514649317305008 0 0.50046028868828263 0.78376912307435687 0 0 0.37500000000156292 0 0 0.25000000000104189 0 0.1082531754734323 0.31250000000117473 0 0.49999999999869221 0 0 0.56249999999885147 0.1082531754730395 0 0.43749999999910871 0.1082531754729984 0 0.43750000000181222 0.89174682452709564 0 0.50046028868828263 0.78376912307435687 0 0.56327595140699671 0.89211526915426331 0 0.74999999999934042 0 0 0.81249999999950517 0.1082531754733404 0 0.68749999999926592 0.1082531754732875 0 0.37499999999904599 0 0 0.49999999999869221 0 0 0.43749999999910871 0.1082531754729984 0 0.25000000000104189 1 0 0.12500000000052089 1 0 0.18802967116092181 0.89415349436770275 0 0.50046028868828263 0.78376912307435687 0 0.62844955668446423 0.7850749770380413 0 0.56327595140699671 0.89211526915426331 0 0.37776173212361452 0.78514649317305008 0 0.31258827852827581 0.89214793616708443 0 0.23533274979922561 0.77093399389351469 0 0.62499999999901068 0 0 0.74999999999934042 0 0 0.68749999999926592 0.1082531754732875 0 1 0.74999999999934042 0 1 0.87499999999967015 0 0.89051480781310632 0.79665793440246835 0 0 0.25000000000104189 0 0 0.12500000000052089 0 0.12076953676380731 0.18690935762408761 0 0.74999999999934042 0 0 0.87499999999967015 0 0 0.81249999999950517 0.1082531754733404 0 0.24999999999941069 0 0 0.37499999999904599 0 0 0.31281086598417152 0.10449318608631281 0 0.50046028868828263 0.78376912307435687 0 0.37776173212361452 0.78514649317305008 0 0.44078402250377968 0.67714785211715212 0 0.68768773896438518 0.4586835206367198 0 0.75000000000032374 0.56698729811007709 0 0.62752533658682441 0.56838075195614346 0 0.31411863959822661 0.24965544328045999 0 0.37953773393552892 0.34812185820708452 0 0.24418615484441761 0.35773612382016978 0 0.68768773896438518 0.4586835206367198 0 0.81242894672211508 0.45500248311961472 0 0.75000000000032374 0.56698729811007709 0 1 0.24999999999941069 0 1 0.37499999999904599 0 0.88173731489851925 0.33077402607778361 0 0 0.75000000000034761 0 0 0.62500000000121547 0 0.1082531754723032 0.6875000000007816 0 0.50048844149666749 0.56727788297625459 0 0.44078402250377968 0.67714785211715212 0 0.38694285807596462 0.5672991787102919 0 0.50108503093851109 0.35012252869403671 0 0.44301038174930041 0.45684931552185398 0 0.37953773393552892 0.34812185820708452 0 0.50046028868828263 0.78376912307435687 0 0.56496004948275869 0.67675037307860475 0 0.62844955668446423 0.7850749770380413 0 0.68768773896438518 0.4586835206367198 0 0.75000000000057243 0.35048094716480432 0 0.81242894672211508 0.45500248311961472 0 0.56349980387502452 0.45846841892908402 0 0.62512662990940393 0.35044303886909911 0 0.68768773896438518 0.4586835206367198 0 0.50048844149666749 0.56727788297625459 0 0.38694285807596462 0.5672991787102919 0 0.44301038174930041 0.45684931552185398 0 0.50046028868828263 0.78376912307435687 0 0.44078402250377968 0.67714785211715212 0 0.56496004948275869 0.67675037307860475 0 0.50108503093851109 0.35012252869403671 0 0.37953773393552892 0.34812185820708452 0 0.43750000000200551 0.24222777169198509 0 0.75000000000034761 1 0 0.62500000000121547 1 0 0.69010814643829166 0.89298495739101336 0 0.68768773896438518 0.4586835206367198 0 0.62512662990940393 0.35044303886909911 0 0.75000000000057243 0.35048094716480432 0 0.56496004948275869 0.67675037307860475 0 0.44078402250377968 0.67714785211715212 0 0.50048844149666749 0.56727788297625459 0 0.56349980387502452 0.45846841892908402 0 0.44301038174930041 0.45684931552185398 0 0.50108503093851109 0.35012252869403671 0 0.50048844149666749 0.56727788297625459 0 0.44301038174930041 0.45684931552185398 0 0.56349980387502452 0.45846841892908402 0 0.56349980387502452 0.45846841892908402 0 0.50108503093851109 0.35012252869403671 0 0.62512662990940393 0.35044303886909911 0 0.43750000000200551 0.24222777169198509 0 0.37953773393552892 0.34812185820708452 0 0.31411863959822661 0.24965544328045999 0 0.56496004948275869 0.67675037307860475 0 0.50048844149666749 0.56727788297625459 0 0.62752533658682441 0.56838075195614346 0 0.56349980387502452 0.45846841892908402 0 0.68768773896438518 0.4586835206367198 0 0.62752533658682441 0.56838075195614346 0 0.50048844149666749 0.56727788297625459 0 0.56349980387502452 0.45846841892908402 0 0.62752533658682441 0.56838075195614346 0 0.75000000000057243 0.35048094716480432 0 0.62512662990940393 0.35044303886909911 0 0.68668231842078242 0.24762892664808989 0 0.50108503093851109 0.35012252869403671 0 0.43750000000200551 0.24222777169198509 0 0.56250000000143974 0.2422277716920859 0 0.62512662990940393 0.35044303886909911 0 0.50108503093851109 0.35012252869403671 0 0.56250000000143974 0.2422277716920859 0 0.68668231842078242 0.24762892664808989 0 0.62512662990940393 0.35044303886909911 0 0.56250000000143974 0.2422277716920859 0 0.22257735880419699 0.47344721641341742 0 0.24418615484441761 0.35773612382016978 0 0.32815957677880009 0.4577243358118348 0 0.12076953676380731 0.18690935762408761 0 0.19185372118111221 0.092925648673580788 0 0.25103557339309318 0.17464499738446629 0 0.20767261601459541 0.25628918442207171 0 0.12076953676380731 0.18690935762408761 0 0.25103557339309318 0.17464499738446629 0 0 0.87499999999950151 0 0 0.75000000000034761 0 0.10409951422139101 0.81206782209691231 0 0.1249999999997731 0 0 0.24999999999941069 0 0 0.19185372118111221 0.092925648673580788 0 1 0.1249999999997731 0 1 0.24999999999941069 0 0.89658421694297741 0.1933620068391701 0 0.88927506082488361 0.56409486310635837 0 0.81242894672211508 0.45500248311961472 0 0.915464298762109 0.43749999999886913 0 0.87499999999950151 1 0 0.75000000000034761 1 0 0.80886664387416207 0.89717308644237903 0 0.75000000000034761 1 0 0.69010814643829166 0.89298495739101336 0 0.80886664387416207 0.89717308644237903 0 0.82212678063041267 0.67678595194836966 0 0.88927506082488361 0.56409486310635837 0 0.92266244547590082 0.68749999999917555 0 0 0.75000000000034761 0 0.1082531754723032 0.6875000000007816 0 0.10409951422139101 0.81206782209691231 0 0.24999999999941069 0 0 0.31281086598417152 0.10449318608631281 0 0.19185372118111221 0.092925648673580788 0 1 0.24999999999941069 0 0.88173731489851925 0.33077402607778361 0 0.89658421694297741 0.1933620068391701 0 0.32815957677880009 0.4577243358118348 0 0.38694285807596462 0.5672991787102919 0 0.26982811998763367 0.56544650815856912 0 0.76243180583607129 0.78687675331113149 0 0.89051480781310632 0.79665793440246835 0 0.80886664387416207 0.89717308644237903 0 0.38694285807596462 0.5672991787102919 0 0.44078402250377968 0.67714785211715212 0 0.32607333794064219 0.67760114260606152 0 0.37776173212361452 0.78514649317305008 0 0.23533274979922561 0.77093399389351469 0 0.32607333794064219 0.67760114260606152 0 1 0.49999999999869221 0 0.88927506082488361 0.56409486310635837 0 0.915464298762109 0.43749999999886913 0 0.88173731489851925 0.33077402607778361 0 1 0.37499999999904599 0 0.915464298762109 0.43749999999886913 0 0.24418615484441761 0.35773612382016978 0 0.37953773393552892 0.34812185820708452 0 0.32815957677880009 0.4577243358118348 0 0.44301038174930041 0.45684931552185398 0 0.38694285807596462 0.5672991787102919 0 0.32815957677880009 0.4577243358118348 0 0.88927506082488361 0.56409486310635837 0 1 0.62499999999901068 0 0.92266244547590082 0.68749999999917555 0 1 0.74999999999934042 0 0.89051480781310632 0.79665793440246835 0 0.92266244547590082 0.68749999999917555 0 0 1 0 0 0.87499999999950151 0 0.091506350946494744 0.90849364905351082 0 1 1 0 0.87499999999950151 1 0 0.90849364905363228 0.90849364905367769 0 0 0 0 0.1249999999997731 0 0 0.091506350946417708 0.091506350946618076 0 0 0.12500000000052089 0 0 0 0 0.091506350946417708 0.091506350946618076 0 1 0 0 1 0.1249999999997731 0 0.90849364905355434 0.091506350946296292 0 0.87499999999967015 0 0 1 0 0 0.90849364905355434 0.091506350946296292 0 0.12500000000052089 1 0 0 1 0 0.091506350946494744 0.90849364905351082 0 1 0.87499999999967015 0 1 1 0 0.90849364905363228 0.90849364905367769 0 0.38694285807596462 0.5672991787102919 0 0.32607333794064219 0.67760114260606152 0 0.26982811998763367 0.56544650815856912 0 0.31411863959822661 0.24965544328045999 0 0.24418615484441761 0.35773612382016978 0 0.20767261601459541 0.25628918442207171 0 0.1082531754734323 0.31250000000117473 0 0.12076953676380731 0.18690935762408761 0 0.20767261601459541 0.25628918442207171 0 0.75000000000057243 0.35048094716480432 0 0.68668231842078242 0.24762892664808989 0 0.79891106056046712 0.25007334953587562 0 0.22257735880419699 0.47344721641341742 0 0.32815957677880009 0.4577243358118348 0 0.26982811998763367 0.56544650815856912 0 0.44078402250377968 0.67714785211715212 0 0.37776173212361452 0.78514649317305008 0 0.32607333794064219 0.67760114260606152 0 0.89658421694297741 0.1933620068391701 0 0.88173731489851925 0.33077402607778361 0 0.79891106056046712 0.25007334953587562 0 1 0.37499999999904599 0 1 0.49999999999869221 0 0.915464298762109 0.43749999999886913 0 0.37953773393552892 0.34812185820708452 0 0.44301038174930041 0.45684931552185398 0 0.32815957677880009 0.4577243358118348 0 0.32607333794064219 0.67760114260606152 0 0.21809253452218619 0.65480892822618109 0 0.26982811998763367 0.56544650815856912 0 1 0.1249999999997731 0 0.89658421694297741 0.1933620068391701 0 0.90849364905355434 0.091506350946296292 0 0 0.87499999999950151 0 0.10409951422139101 0.81206782209691231 0 0.091506350946494744 0.90849364905351082 0 0.1249999999997731 0 0 0.19185372118111221 0.092925648673580788 0 0.091506350946417708 0.091506350946618076 0 1 0.62499999999901068 0 1 0.74999999999934042 0 0.92266244547590082 0.68749999999917555 0 0.18802967116092181 0.89415349436770275 0 0.12500000000052089 1 0 0.091506350946494744 0.90849364905351082 0 0.89051480781310632 0.79665793440246835 0 1 0.87499999999967015 0 0.90849364905363228 0.90849364905367769 0 0.12076953676380731 0.18690935762408761 0 0 0.12500000000052089 0 0.091506350946417708 0.091506350946618076 0 0.81249999999950517 0.1082531754733404 0 0.87499999999967015 0 0 0.90849364905355434 0.091506350946296292 0 0.87499999999950151 1 0 0.80886664387416207 0.89717308644237903 0 0.90849364905363228 0.90849364905367769 0 0.68668231842078242 0.24762892664808989 0 0.62499999999892575 0.17524047358135519 0 0.73983916756365475 0.17530677078674589 0 0.31281086598417152 0.10449318608631281 0 0.43749999999910871 0.1082531754729984 0 0.37500000000232431 0.17524047358384309 0 0.62499999999892575 0.17524047358135519 0 0.56250000000143974 0.2422277716920859 0 0.49999999999934441 0.1752404735815076 0 0.56249999999885147 0.1082531754730395 0 0.68749999999926592 0.1082531754732875 0 0.62499999999892575 0.17524047358135519 0 0.56249999999885147 0.1082531754730395 0 0.62499999999892575 0.17524047358135519 0 0.49999999999934441 0.1752404735815076 0 0.56250000000143974 0.2422277716920859 0 0.43750000000200551 0.24222777169198509 0 0.49999999999934441 0.1752404735815076 0 0.43749999999910871 0.1082531754729984 0 0.56249999999885147 0.1082531754730395 0 0.49999999999934441 0.1752404735815076 0 0.68668231842078242 0.24762892664808989 0 0.56250000000143974 0.2422277716920859 0 0.62499999999892575 0.17524047358135519 0 0.43750000000200551 0.24222777169198509 0 0.31411863959822661 0.24965544328045999 0 0.37500000000232431 0.17524047358384309 0 0.49999999999934441 0.1752404735815076 0 0.43750000000200551 0.24222777169198509 0 0.37500000000232431 0.17524047358384309 0 0.43749999999910871 0.1082531754729984 0 0.49999999999934441 0.1752404735815076 0 0.37500000000232431 0.17524047358384309 0 0.62499999999892575 0.17524047358135519 0 0.68749999999926592 0.1082531754732875 0 0.73983916756365475 0.17530677078674589 0 0.68749999999926592 0.1082531754732875 0 0.81249999999950517 0.1082531754733404 0 0.73983916756365475 0.17530677078674589 0 0.10409951422139101 0.81206782209691231 0 0.18802967116092181 0.89415349436770275 0 0.091506350946494744 0.90849364905351082 0 0.89658421694297741 0.1933620068391701 0 0.81249999999950517 0.1082531754733404 0 0.90849364905355434 0.091506350946296292 0 0.19185372118111221 0.092925648673580788 0 0.12076953676380731 0.18690935762408761 0 0.091506350946417708 0.091506350946618076 0 0.37500000000232431 0.17524047358384309 0 0.31411863959822661 0.24965544328045999 0 0.25103557339309318 0.17464499738446629 0 0.31281086598417152 0.10449318608631281 0 0.37500000000232431 0.17524047358384309 0 0.25103557339309318 0.17464499738446629 0 0.80886664387416207 0.89717308644237903 0 0.89051480781310632 0.79665793440246835 0 0.90849364905363228 0.90849364905367769 0 0.19185372118111221 0.092925648673580788 0 0.31281086598417152 0.10449318608631281 0 0.25103557339309318 0.17464499738446629 0 0.79891106056046712 0.25007334953587562 0 0.68668231842078242 0.24762892664808989 0 0.73983916756365475 0.17530677078674589 0 0.31411863959822661 0.24965544328045999 0 0.20767261601459541 0.25628918442207171 0 0.25103557339309318 0.17464499738446629 0 

        </DataArray>

      </Points>

      <Cells>

        <DataArray type="Int32" Name="connectivity" format="ascii">

0 1 2 3 4 5 6 7 8 9 10 11 12 13 14 15 16 17 18 19 20 21 22 23 24 25 26 27 28 29 30 31 32 33 34 35 36 37 38 39 40 41 42 43 44 45 46 47 48 49 50 51 52 53 54 55 56 57 58 59 60 61 62 63 64 65 66 67 68 69 70 71 72 73 74 75 76 77 78 79 80 81 82 83 84 85 86 87 88 89 90 91 92 93 94 95 96 97 98 99 100 101 102 103 104 105 106 107 108 109 110 111 112 113 114 115 116 117 118 119 120 121 122 123 124 125 126 127 128 129 130 131 132 133 134 135 136 137 138 139 140 141 142 143 144 145 146 147 148 149 150 151 152 153 154 155 156 157 158 159 160 161 162 163 164 165 166 167 168 169 170 171 172 173 174 175 176 177 178 179 180 181 182 183 184 185 186 187 188 189 190 191 192 193 194 195 196 197 198 199 200 201 202 203 204 205 206 207 208 209 210 211 212 213 214 215 216 217 218 219 220 221 222 223 224 225 226 227 228 229 230 231 232 233 234 235 236 237 238 239 240 241 242 243 244 245 246 247 248 249 250 251 252 253 254 255 256 257 258 259 260 261 262 263 264 265 266 267 268 269 270 271 272 273 274 275 276 277 278 279 280 281 282 283 284 285 286 287 288 289 290 291 292 293 294 295 296 297 298 299 300 301 302 303 304 305 306 307 308 309 310 311 312 313 314 315 316 317 318 319 320 321 322 323 324 325 326 327 328 329 330 331 332 333 334 335 336 337 338 339 340 341 342 343 344 345 346 347 348 349 350 351 352 353 354 355 356 357 358 359 360 361 362 363 364 365 366 367 368 369 370 371 372 373 374 375 376 377 378 379 380 381 382 383 384 385 386 387 388 389 390 391 392 393 394 395 396 397 398 399 400 401 402 403 404 405 406 407 408 409 410 411 412 413 414 415 416 417 418 419 420 421 422 423 424 425 426 427 428 429 430 431 432 433 434 435 436 437 438 439 440 441 442 443 444 445 446 447 448 449 450 451 452 453 454 455 456 457 458 459 460 461 462 463 464 465 466 467 468 469 470 471 472 473 474 475 476 477 478 479 480 481 482 483 484 485 

        </DataArray>

        <DataArray type="Int32" Name="offsets" format="ascii">

3 6 9 12 15 18 21 24 27 30 33 36 39 42 45 48 51 54 57 60 63 66 69 72 75 78 81 84 87 90 93 96 99 102 105 108 111 114 117 120 123 126 129 132 135 138 141 144 147 150 153 156 159 162 165 168 171 174 177 180 183 186 189 192 195 198 201 204 207 210 213 216 219 222 225 228 231 234 237 240 243 246 249 252 255 258 261 264 267 270 273 276 279 282 285 288 291 294 297 300 303 306 309 312 315 318 321 324 327 330 333 336 339 342 345 348 351 354 357 360 363 366 369 372 375 378 381 384 387 390 393 396 399 402 405 408 411 414 417 420 423 426 429 432 435 438 441 444 447 450 453 456 459 462 465 468 471 474 477 480 483 486 

        </DataArray>

        <DataArray type="Int32" Name="types" format="ascii">

5 5 5 5 5 5 5 5 5 5 5 5 5 5 5 5 5 5 5 5 5 5 5 5 5 5 5 5 5 5 5 5 5 5 5 5 5 5 5 5 5 5 5 5 5 5 5 5 5 5 5 5 5 5 5 5 5 5 5 5 5 5 5 5 5 5 5 5 5 5 5 5 5 5 5 5 5 5 5 5 5 5 5 5 5 5 5 5 5 5 5 5 5 5 5 5 5 5 5 5 5 5 5 5 5 5 5 5 5 5 5 5 5 5 5 5 5 5 5 5 5 5 5 5 5 5 5 5 5 5 5 5 5 5 5 5 5 5 5 5 5 5 5 5 5 5 5 5 5 5 5 5 5 5 5 5 5 5 5 5 5 5 

        </DataArray>

      </Cells>

    </Piece>

  </UnstructuredGrid>

</VTKFile>

