<?xml version="1.0"?>

<VTKFile type="UnstructuredGrid" version="0.1">

  <UnstructuredGrid>

    <Piece NumberOfPoints="486" NumberOfCells="162">

      <PointData>

        <DataArray type="Float64" Name="K" format="ascii">

9.92192591407481284e-01
9.92192591407481284e-01
9.92192591407481284e-01
1.01292672338445588e+00
1.01292672338445588e+00
1.01292672338445588e+00
1.03454255056958044e+00
1.03454255056958044e+00
1.03454255056958044e+00
9.44798930701315598e-01
9.44798930701315598e-01
9.44798930701315598e-01
1.05290812929206123e+00
1.05290812929206123e+00
1.05290812929206123e+00
9.84418456233097316e-01
9.84418456233097316e-01
9.84418456233097316e-01
1.09325261323288592e+00
1.09325261323288592e+00
1.09325261323288592e+00
9.91776618197905524e-01
9.91776618197905524e-01
9.91776618197905524e-01
1.00901163243824143e+00
1.00901163243824143e+00
1.00901163243824143e+00
9.92959326547099286e-01
9.92959326547099286e-01
9.92959326547099286e-01
1.07258132306388210e+00
1.07258132306388210e+00
1.07258132306388210e+00
1.08030111169509557e+00
1.08030111169509557e+00
1.08030111169509557e+00
1.01391209546939098e+00
1.01391209546939098e+00
1.01391209546939098e+00
1.00123181912624859e+00
1.00123181912624859e+00
1.00123181912624859e+00
9.64735037387234762e-01
9.64735037387234762e-01
9.64735037387234762e-01
1.00870319155443755e+00
1.00870319155443755e+00
1.00870319155443755e+00
9.74346823419338204e-01
9.74346823419338204e-01
9.74346823419338204e-01
1.06717201560110975e+00
1.06717201560110975e+00
1.06717201560110975e+00
9.75723155161801303e-01
9.75723155161801303e-01
9.75723155161801303e-01
9.78603442740451190e-01
9.78603442740451190e-01
9.78603442740451190e-01
1.04838752688145442e+00
1.04838752688145442e+00
1.04838752688145442e+00
1.03960180756551179e+00
1.03960180756551179e+00
1.03960180756551179e+00
1.02361876994495216e+00
1.02361876994495216e+00
1.02361876994495216e+00
9.28456269378689081e-01
9.28456269378689081e-01
9.28456269378689081e-01
1.00606546821934750e+00
1.00606546821934750e+00
1.00606546821934750e+00
9.37487552853174422e-01
9.37487552853174422e-01
9.37487552853174422e-01
9.56819002292108145e-01
9.56819002292108145e-01
9.56819002292108145e-01
1.02283297294778830e+00
1.02283297294778830e+00
1.02283297294778830e+00
1.04391840085753485e+00
1.04391840085753485e+00
1.04391840085753485e+00
1.00961015574812829e+00
1.00961015574812829e+00
1.00961015574812829e+00
9.90184798354965534e-01
9.90184798354965534e-01
9.90184798354965534e-01
9.50145666381282505e-01
9.50145666381282505e-01
9.50145666381282505e-01
9.41375150017465523e-01
9.41375150017465523e-01
9.41375150017465523e-01
9.98352338396171879e-01
9.98352338396171879e-01
9.98352338396171879e-01
9.55588953802872898e-01
9.55588953802872898e-01
9.55588953802872898e-01
9.85250100792271710e-01
9.85250100792271710e-01
9.85250100792271710e-01
1.02420879094423900e+00
1.02420879094423900e+00
1.02420879094423900e+00
1.00245607888700783e+00
1.00245607888700783e+00
1.00245607888700783e+00
1.00476216880284408e+00
1.00476216880284408e+00
1.00476216880284408e+00
9.63078463588988409e-01
9.63078463588988409e-01
9.63078463588988409e-01
9.63736079168929671e-01
9.63736079168929671e-01
9.63736079168929671e-01
9.84860845034477794e-01
9.84860845034477794e-01
9.84860845034477794e-01
1.00937856328910658e+00
1.00937856328910658e+00
1.00937856328910658e+00
9.52361119456970884e-01
9.52361119456970884e-01
9.52361119456970884e-01
1.00749397727690870e+00
1.00749397727690870e+00
1.00749397727690870e+00
9.97802438955880944e-01
9.97802438955880944e-01
9.97802438955880944e-01
9.48151394162652927e-01
9.48151394162652927e-01
9.48151394162652927e-01
1.04452044925088794e+00
1.04452044925088794e+00
1.04452044925088794e+00
9.35440060988394162e-01
9.35440060988394162e-01
9.35440060988394162e-01
9.55728196376445793e-01
9.55728196376445793e-01
9.55728196376445793e-01
1.02219415432128868e+00
1.02219415432128868e+00
1.02219415432128868e+00
9.41667287388526675e-01
9.41667287388526675e-01
9.41667287388526675e-01
9.95746675760778244e-01
9.95746675760778244e-01
9.95746675760778244e-01
1.05325910296458258e+00
1.05325910296458258e+00
1.05325910296458258e+00
9.53152016371919042e-01
9.53152016371919042e-01
9.53152016371919042e-01
9.64971190967465975e-01
9.64971190967465975e-01
9.64971190967465975e-01
9.92206908591540482e-01
9.92206908591540482e-01
9.92206908591540482e-01
9.89225037523917217e-01
9.89225037523917217e-01
9.89225037523917217e-01
1.01220848879669822e+00
1.01220848879669822e+00
1.01220848879669822e+00
9.58425664586773141e-01
9.58425664586773141e-01
9.58425664586773141e-01
1.00108990433054901e+00
1.00108990433054901e+00
1.00108990433054901e+00
1.02695343438122744e+00
1.02695343438122744e+00
1.02695343438122744e+00
9.54248145645706813e-01
9.54248145645706813e-01
9.54248145645706813e-01
9.55561477963221995e-01
9.55561477963221995e-01
9.55561477963221995e-01
1.00798033485842176e+00
1.00798033485842176e+00
1.00798033485842176e+00
9.58595553857727989e-01
9.58595553857727989e-01
9.58595553857727989e-01
9.80359144579938446e-01
9.80359144579938446e-01
9.80359144579938446e-01
1.07948894404661333e+00
1.07948894404661333e+00
1.07948894404661333e+00
1.00254317178823360e+00
1.00254317178823360e+00
1.00254317178823360e+00
9.82169160153591347e-01
9.82169160153591347e-01
9.82169160153591347e-01
9.52557751489420457e-01
9.52557751489420457e-01
9.52557751489420457e-01
9.37973631345234926e-01
9.37973631345234926e-01
9.37973631345234926e-01
9.75188411901311114e-01
9.75188411901311114e-01
9.75188411901311114e-01
1.00914497154025540e+00
1.00914497154025540e+00
1.00914497154025540e+00
9.45376154704440141e-01
9.45376154704440141e-01
9.45376154704440141e-01
9.71870661288771198e-01
9.71870661288771198e-01
9.71870661288771198e-01
9.94332021994515536e-01
9.94332021994515536e-01
9.94332021994515536e-01
9.48907496302578202e-01
9.48907496302578202e-01
9.48907496302578202e-01
9.68019837489709545e-01
9.68019837489709545e-01
9.68019837489709545e-01
1.00258144111370284e+00
1.00258144111370284e+00
1.00258144111370284e+00
1.00461633639645731e+00
1.00461633639645731e+00
1.00461633639645731e+00
1.00090093420379711e+00
1.00090093420379711e+00
1.00090093420379711e+00
9.85601277851243962e-01
9.85601277851243962e-01
9.85601277851243962e-01
9.62426016697735864e-01
9.62426016697735864e-01
9.62426016697735864e-01
9.63978768978795308e-01
9.63978768978795308e-01
9.63978768978795308e-01
9.80335839143984034e-01
9.80335839143984034e-01
9.80335839143984034e-01
9.59937325694010468e-01
9.59937325694010468e-01
9.59937325694010468e-01
9.79189069568938697e-01
9.79189069568938697e-01
9.79189069568938697e-01
9.95975979794670674e-01
9.95975979794670674e-01
9.95975979794670674e-01
9.89232459395450459e-01
9.89232459395450459e-01
9.89232459395450459e-01
1.02775487519052944e+00
1.02775487519052944e+00
1.02775487519052944e+00
9.92315242038329215e-01
9.92315242038329215e-01
9.92315242038329215e-01
9.99608702230567636e-01
9.99608702230567636e-01
9.99608702230567636e-01
9.93443974696460619e-01
9.93443974696460619e-01
9.93443974696460619e-01
1.01079260497883694e+00
1.01079260497883694e+00
1.01079260497883694e+00
9.33526334148204961e-01
9.33526334148204961e-01
9.33526334148204961e-01
1.01149703713918204e+00
1.01149703713918204e+00
1.01149703713918204e+00
9.92434161026511386e-01
9.92434161026511386e-01
9.92434161026511386e-01
9.84927313432106044e-01
9.84927313432106044e-01
9.84927313432106044e-01
1.00907408223665218e+00
1.00907408223665218e+00
1.00907408223665218e+00
1.01869709967445488e+00
1.01869709967445488e+00
1.01869709967445488e+00
1.01133251642745225e+00
1.01133251642745225e+00
1.01133251642745225e+00
9.46359617823610444e-01
9.46359617823610444e-01
9.46359617823610444e-01
1.01480515283810391e+00
1.01480515283810391e+00
1.01480515283810391e+00
9.80496761897306723e-01
9.80496761897306723e-01
9.80496761897306723e-01
1.01594413163324027e+00
1.01594413163324027e+00
1.01594413163324027e+00
1.01484041160553384e+00
1.01484041160553384e+00
1.01484041160553384e+00
1.01878532113625031e+00
1.01878532113625031e+00
1.01878532113625031e+00
9.97503816981185065e-01
9.97503816981185065e-01
9.97503816981185065e-01
1.00126598682347434e+00
1.00126598682347434e+00
1.00126598682347434e+00
1.00295585927466369e+00
1.00295585927466369e+00
1.00295585927466369e+00
1.00599677540132393e+00
1.00599677540132393e+00
1.00599677540132393e+00
9.97783448677325935e-01
9.97783448677325935e-01
9.97783448677325935e-01
9.29586963150426882e-01
9.29586963150426882e-01
9.29586963150426882e-01
1.03087503958946014e+00
1.03087503958946014e+00
1.03087503958946014e+00
1.01923707187375068e+00
1.01923707187375068e+00
1.01923707187375068e+00
1.00101951540350087e+00
1.00101951540350087e+00
1.00101951540350087e+00
9.21641196962907361e-01
9.21641196962907361e-01
9.21641196962907361e-01
9.49061243221338557e-01
9.49061243221338557e-01
9.49061243221338557e-01
9.28675202266937561e-01
9.28675202266937561e-01
9.28675202266937561e-01
1.03051339375190043e+00
1.03051339375190043e+00
1.03051339375190043e+00
1.02592848405453130e+00
1.02592848405453130e+00
1.02592848405453130e+00
1.02849179815938463e+00
1.02849179815938463e+00
1.02849179815938463e+00
9.84162235551848230e-01
9.84162235551848230e-01
9.84162235551848230e-01
9.40409138154378210e-01
9.40409138154378210e-01
9.40409138154378210e-01
1.02497213640474460e+00
1.02497213640474460e+00
1.02497213640474460e+00
9.99128681902080928e-01
9.99128681902080928e-01
9.99128681902080928e-01
9.29716510275603758e-01
9.29716510275603758e-01
9.29716510275603758e-01
1.00938925192756601e+00
1.00938925192756601e+00
1.00938925192756601e+00
9.85243562511751492e-01
9.85243562511751492e-01
9.85243562511751492e-01
1.02891336232790809e+00
1.02891336232790809e+00
1.02891336232790809e+00
9.23248209867069680e-01
9.23248209867069680e-01
9.23248209867069680e-01
9.49278598299953313e-01
9.49278598299953313e-01
9.49278598299953313e-01
1.00460449124379658e+00
1.00460449124379658e+00
1.00460449124379658e+00
1.00325592355145421e+00
1.00325592355145421e+00
1.00325592355145421e+00
9.43875162807786272e-01
9.43875162807786272e-01
9.43875162807786272e-01
1.01067672830112287e+00
1.01067672830112287e+00
1.01067672830112287e+00
9.75320168484939964e-01
9.75320168484939964e-01
9.75320168484939964e-01
9.68760074186094666e-01
9.68760074186094666e-01
9.68760074186094666e-01
1.00092558441620616e+00
1.00092558441620616e+00
1.00092558441620616e+00
9.80870364232940384e-01
9.80870364232940384e-01
9.80870364232940384e-01
1.03209514856320173e+00
1.03209514856320173e+00
1.03209514856320173e+00
9.83693344643504997e-01
9.83693344643504997e-01
9.83693344643504997e-01
9.84016378613386311e-01
9.84016378613386311e-01
9.84016378613386311e-01
9.84285589967483610e-01
9.84285589967483610e-01
9.84285589967483610e-01
9.79047242834872211e-01
9.79047242834872211e-01
9.79047242834872211e-01
9.99530846031419951e-01
9.99530846031419951e-01
9.99530846031419951e-01
9.88054969762865998e-01
9.88054969762865998e-01
9.88054969762865998e-01
1.00184225594536236e+00
1.00184225594536236e+00
1.00184225594536236e+00
9.91331671063416575e-01
9.91331671063416575e-01
9.91331671063416575e-01
1.00892396249895677e+00
1.00892396249895677e+00
1.00892396249895677e+00
9.85157961007057104e-01
9.85157961007057104e-01
9.85157961007057104e-01
9.82802424995163348e-01
9.82802424995163348e-01
9.82802424995163348e-01
9.50109572260048885e-01
9.50109572260048885e-01
9.50109572260048885e-01
9.40587719271357314e-01
9.40587719271357314e-01
9.40587719271357314e-01
9.82145780619430919e-01
9.82145780619430919e-01
9.82145780619430919e-01
1.02416209783060097e+00
1.02416209783060097e+00
1.02416209783060097e+00
1.02897809732570367e+00
1.02897809732570367e+00
1.02897809732570367e+00
9.87750663795944450e-01
9.87750663795944450e-01
9.87750663795944450e-01
1.01391430385896419e+00
1.01391430385896419e+00
1.01391430385896419e+00
9.56921188169664649e-01
9.56921188169664649e-01
9.56921188169664649e-01
1.02410225074932848e+00
1.02410225074932848e+00
1.02410225074932848e+00


        </DataArray>

      </PointData>

      <CellData/>

      <Points>

        <DataArray type="Float64" NumberOfComponents="3" format="ascii">

0.1082531754723032 0.6875000000007816 0 0.23533274979922561 0.77093399389351469 0 0.10409951422139101 0.81206782209691231 0 0.23533274979922561 0.77093399389351469 0 0.1082531754723032 0.6875000000007816 0 0.21809253452218619 0.65480892822618109 0 0.24418615484441761 0.35773612382016978 0 0.121259140952891 0.43112117036853742 0 0.1082531754734323 0.31250000000117473 0 0.75000000000057243 0.35048094716480432 0 0.88173731489851925 0.33077402607778361 0 0.81242894672211508 0.45500248311961472 0 0.121259140952891 0.43112117036853742 0 0.24418615484441761 0.35773612382016978 0 0.22257735880419699 0.47344721641341742 0 0.81242894672211508 0.45500248311961472 0 0.88173731489851925 0.33077402607778361 0 0.915464298762109 0.43749999999886913 0 0 0.62500000000121547 0 0 0.50000000000206146 0 0.1371230538040123 0.56179824718362847 0 0.82212678063041267 0.67678595194836966 0 0.89051480781310632 0.79665793440246835 0 0.76243180583607129 0.78687675331113149 0 0.76243180583607129 0.78687675331113149 0 0.69010814643829166 0.89298495739101336 0 0.62844955668446423 0.7850749770380413 0 0.89051480781310632 0.79665793440246835 0 0.82212678063041267 0.67678595194836966 0 0.92266244547590082 0.68749999999917555 0 0 0.50000000000206146 0 0.121259140952891 0.43112117036853742 0 0.1371230538040123 0.56179824718362847 0 0.1082531754723032 0.6875000000007816 0 0 0.62500000000121547 0 0.1371230538040123 0.56179824718362847 0 0.75000000000032374 0.56698729811007709 0 0.88927506082488361 0.56409486310635837 0 0.82212678063041267 0.67678595194836966 0 0.81242894672211508 0.45500248311961472 0 0.88927506082488361 0.56409486310635837 0 0.75000000000032374 0.56698729811007709 0 0.69851598570178741 0.68211701800612057 0 0.56496004948275869 0.67675037307860475 0 0.62752533658682441 0.56838075195614346 0 0.69851598570178741 0.68211701800612057 0 0.76243180583607129 0.78687675331113149 0 0.62844955668446423 0.7850749770380413 0 0.23533274979922561 0.77093399389351469 0 0.18802967116092181 0.89415349436770275 0 0.10409951422139101 0.81206782209691231 0 0.121259140952891 0.43112117036853742 0 0.22257735880419699 0.47344721641341742 0 0.1371230538040123 0.56179824718362847 0 0.75000000000032374 0.56698729811007709 0 0.69851598570178741 0.68211701800612057 0 0.62752533658682441 0.56838075195614346 0 0.56496004948275869 0.67675037307860475 0 0.69851598570178741 0.68211701800612057 0 0.62844955668446423 0.7850749770380413 0 0.1371230538040123 0.56179824718362847 0 0.22257735880419699 0.47344721641341742 0 0.26982811998763367 0.56544650815856912 0 0.21809253452218619 0.65480892822618109 0 0.1371230538040123 0.56179824718362847 0 0.26982811998763367 0.56544650815856912 0 0.24418615484441761 0.35773612382016978 0 0.1082531754734323 0.31250000000117473 0 0.20767261601459541 0.25628918442207171 0 0.88173731489851925 0.33077402607778361 0 0.75000000000057243 0.35048094716480432 0 0.79891106056046712 0.25007334953587562 0 0.75000000000032374 0.56698729811007709 0 0.82212678063041267 0.67678595194836966 0 0.69851598570178741 0.68211701800612057 0 0.81249999999950517 0.1082531754733404 0 0.89658421694297741 0.1933620068391701 0 0.79891106056046712 0.25007334953587562 0 0.81249999999950517 0.1082531754733404 0 0.79891106056046712 0.25007334953587562 0 0.73983916756365475 0.17530677078674589 0 0.23533274979922561 0.77093399389351469 0 0.21809253452218619 0.65480892822618109 0 0.32607333794064219 0.67760114260606152 0 0.1082531754723032 0.6875000000007816 0 0.1371230538040123 0.56179824718362847 0 0.21809253452218619 0.65480892822618109 0 0.69851598570178741 0.68211701800612057 0 0.82212678063041267 0.67678595194836966 0 0.76243180583607129 0.78687675331113149 0 0.69010814643829166 0.89298495739101336 0 0.76243180583607129 0.78687675331113149 0 0.80886664387416207 0.89717308644237903 0 0.43750000000181222 0.89174682452709564 0 0.31258827852827581 0.89214793616708443 0 0.37776173212361452 0.78514649317305008 0 0.43750000000181222 0.89174682452709564 0 0.37500000000156292 1 0 0.31258827852827581 0.89214793616708443 0 0.121259140952891 0.43112117036853742 0 0 0.37500000000156292 0 0.1082531754734323 0.31250000000117473 0 0.50000000000206146 1 0 0.37500000000156292 1 0 0.43750000000181222 0.89174682452709564 0 0.31258827852827581 0.89214793616708443 0 0.18802967116092181 0.89415349436770275 0 0.23533274979922561 0.77093399389351469 0 0 0.50000000000206146 0 0 0.37500000000156292 0 0.121259140952891 0.43112117036853742 0 0.62844955668446423 0.7850749770380413 0 0.69010814643829166 0.89298495739101336 0 0.56327595140699671 0.89211526915426331 0 0.69010814643829166 0.89298495739101336 0 0.62500000000121547 1 0 0.56327595140699671 0.89211526915426331 0 0.25000000000104189 1 0 0.18802967116092181 0.89415349436770275 0 0.31258827852827581 0.89214793616708443 0 0.50000000000206146 1 0 0.43750000000181222 0.89174682452709564 0 0.56327595140699671 0.89211526915426331 0 0.56249999999885147 0.1082531754730395 0 0.62499999999901068 0 0 0.68749999999926592 0.1082531754732875 0 1 0.49999999999869221 0 1 0.62499999999901068 0 0.88927506082488361 0.56409486310635837 0 0 0.25000000000104189 0 0.12076953676380731 0.18690935762408761 0 0.1082531754734323 0.31250000000117473 0 0.49999999999869221 0 0 0.62499999999901068 0 0 0.56249999999885147 0.1082531754730395 0 0.62500000000121547 1 0 0.50000000000206146 1 0 0.56327595140699671 0.89211526915426331 0 0.37500000000156292 1 0 0.25000000000104189 1 0 0.31258827852827581 0.89214793616708443 0 0.31281086598417152 0.10449318608631281 0 0.37499999999904599 0 0 0.43749999999910871 0.1082531754729984 0 0.43750000000181222 0.89174682452709564 0 0.37776173212361452 0.78514649317305008 0 0.50046028868828263 0.78376912307435687 0 0 0.37500000000156292 0 0 0.25000000000104189 0 0.1082531754734323 0.31250000000117473 0 0.49999999999869221 0 0 0.56249999999885147 0.1082531754730395 0 0.43749999999910871 0.1082531754729984 0 0.43750000000181222 0.89174682452709564 0 0.50046028868828263 0.78376912307435687 0 0.56327595140699671 0.89211526915426331 0 0.74999999999934042 0 0 0.81249999999950517 0.1082531754733404 0 0.68749999999926592 0.1082531754732875 0 0.37499999999904599 0 0 0.49999999999869221 0 0 0.43749999999910871 0.1082531754729984 0 0.25000000000104189 1 0 0.12500000000052089 1 0 0.18802967116092181 0.89415349436770275 0 0.50046028868828263 0.78376912307435687 0 0.62844955668446423 0.7850749770380413 0 0.56327595140699671 0.89211526915426331 0 0.37776173212361452 0.78514649317305008 0 0.31258827852827581 0.89214793616708443 0 0.23533274979922561 0.77093399389351469 0 0.62499999999901068 0 0 0.74999999999934042 0 0 0.68749999999926592 0.1082531754732875 0 1 0.74999999999934042 0 1 0.87499999999967015 0 0.89051480781310632 0.79665793440246835 0 0 0.25000000000104189 0 0 0.12500000000052089 0 0.12076953676380731 0.18690935762408761 0 0.74999999999934042 0 0 0.87499999999967015 0 0 0.81249999999950517 0.1082531754733404 0 0.24999999999941069 0 0 0.37499999999904599 0 0 0.31281086598417152 0.10449318608631281 0 0.50046028868828263 0.78376912307435687 0 0.37776173212361452 0.78514649317305008 0 0.44078402250377968 0.67714785211715212 0 0.68768773896438518 0.4586835206367198 0 0.75000000000032374 0.56698729811007709 0 0.62752533658682441 0.56838075195614346 0 0.31411863959822661 0.24965544328045999 0 0.37953773393552892 0.34812185820708452 0 0.24418615484441761 0.35773612382016978 0 0.68768773896438518 0.4586835206367198 0 0.81242894672211508 0.45500248311961472 0 0.75000000000032374 0.56698729811007709 0 1 0.24999999999941069 0 1 0.37499999999904599 0 0.88173731489851925 0.33077402607778361 0 0 0.75000000000034761 0 0 0.62500000000121547 0 0.1082531754723032 0.6875000000007816 0 0.50048844149666749 0.56727788297625459 0 0.44078402250377968 0.67714785211715212 0 0.38694285807596462 0.5672991787102919 0 0.50108503093851109 0.35012252869403671 0 0.44301038174930041 0.45684931552185398 0 0.37953773393552892 0.34812185820708452 0 0.50046028868828263 0.78376912307435687 0 0.56496004948275869 0.67675037307860475 0 0.62844955668446423 0.7850749770380413 0 0.68768773896438518 0.4586835206367198 0 0.75000000000057243 0.35048094716480432 0 0.81242894672211508 0.45500248311961472 0 0.56349980387502452 0.45846841892908402 0 0.62512662990940393 0.35044303886909911 0 0.68768773896438518 0.4586835206367198 0 0.50048844149666749 0.56727788297625459 0 0.38694285807596462 0.5672991787102919 0 0.44301038174930041 0.45684931552185398 0 0.50046028868828263 0.78376912307435687 0 0.44078402250377968 0.67714785211715212 0 0.56496004948275869 0.67675037307860475 0 0.50108503093851109 0.35012252869403671 0 0.37953773393552892 0.34812185820708452 0 0.43750000000200551 0.24222777169198509 0 0.75000000000034761 1 0 0.62500000000121547 1 0 0.69010814643829166 0.89298495739101336 0 0.68768773896438518 0.4586835206367198 0 0.62512662990940393 0.35044303886909911 0 0.75000000000057243 0.35048094716480432 0 0.56496004948275869 0.67675037307860475 0 0.44078402250377968 0.67714785211715212 0 0.50048844149666749 0.56727788297625459 0 0.56349980387502452 0.45846841892908402 0 0.44301038174930041 0.45684931552185398 0 0.50108503093851109 0.35012252869403671 0 0.50048844149666749 0.56727788297625459 0 0.44301038174930041 0.45684931552185398 0 0.56349980387502452 0.45846841892908402 0 0.56349980387502452 0.45846841892908402 0 0.50108503093851109 0.35012252869403671 0 0.62512662990940393 0.35044303886909911 0 0.43750000000200551 0.24222777169198509 0 0.37953773393552892 0.34812185820708452 0 0.31411863959822661 0.24965544328045999 0 0.56496004948275869 0.67675037307860475 0 0.50048844149666749 0.56727788297625459 0 0.62752533658682441 0.56838075195614346 0 0.56349980387502452 0.45846841892908402 0 0.68768773896438518 0.4586835206367198 0 0.62752533658682441 0.56838075195614346 0 0.50048844149666749 0.56727788297625459 0 0.56349980387502452 0.45846841892908402 0 0.62752533658682441 0.56838075195614346 0 0.75000000000057243 0.35048094716480432 0 0.62512662990940393 0.35044303886909911 0 0.68668231842078242 0.24762892664808989 0 0.50108503093851109 0.35012252869403671 0 0.43750000000200551 0.24222777169198509 0 0.56250000000143974 0.2422277716920859 0 0.62512662990940393 0.35044303886909911 0 0.50108503093851109 0.35012252869403671 0 0.56250000000143974 0.2422277716920859 0 0.68668231842078242 0.24762892664808989 0 0.62512662990940393 0.35044303886909911 0 0.56250000000143974 0.2422277716920859 0 0.22257735880419699 0.47344721641341742 0 0.24418615484441761 0.35773612382016978 0 0.32815957677880009 0.4577243358118348 0 0.12076953676380731 0.18690935762408761 0 0.19185372118111221 0.092925648673580788 0 0.25103557339309318 0.17464499738446629 0 0.20767261601459541 0.25628918442207171 0 0.12076953676380731 0.18690935762408761 0 0.25103557339309318 0.17464499738446629 0 0 0.87499999999950151 0 0 0.75000000000034761 0 0.10409951422139101 0.81206782209691231 0 0.1249999999997731 0 0 0.24999999999941069 0 0 0.19185372118111221 0.092925648673580788 0 1 0.1249999999997731 0 1 0.24999999999941069 0 0.89658421694297741 0.1933620068391701 0 0.88927506082488361 0.56409486310635837 0 0.81242894672211508 0.45500248311961472 0 0.915464298762109 0.43749999999886913 0 0.87499999999950151 1 0 0.75000000000034761 1 0 0.80886664387416207 0.89717308644237903 0 0.75000000000034761 1 0 0.69010814643829166 0.89298495739101336 0 0.80886664387416207 0.89717308644237903 0 0.82212678063041267 0.67678595194836966 0 0.88927506082488361 0.56409486310635837 0 0.92266244547590082 0.68749999999917555 0 0 0.75000000000034761 0 0.1082531754723032 0.6875000000007816 0 0.10409951422139101 0.81206782209691231 0 0.24999999999941069 0 0 0.31281086598417152 0.10449318608631281 0 0.19185372118111221 0.092925648673580788 0 1 0.24999999999941069 0 0.88173731489851925 0.33077402607778361 0 0.89658421694297741 0.1933620068391701 0 0.32815957677880009 0.4577243358118348 0 0.38694285807596462 0.5672991787102919 0 0.26982811998763367 0.56544650815856912 0 0.76243180583607129 0.78687675331113149 0 0.89051480781310632 0.79665793440246835 0 0.80886664387416207 0.89717308644237903 0 0.38694285807596462 0.5672991787102919 0 0.44078402250377968 0.67714785211715212 0 0.32607333794064219 0.67760114260606152 0 0.37776173212361452 0.78514649317305008 0 0.23533274979922561 0.77093399389351469 0 0.32607333794064219 0.67760114260606152 0 1 0.49999999999869221 0 0.88927506082488361 0.56409486310635837 0 0.915464298762109 0.43749999999886913 0 0.88173731489851925 0.33077402607778361 0 1 0.37499999999904599 0 0.915464298762109 0.43749999999886913 0 0.24418615484441761 0.35773612382016978 0 0.37953773393552892 0.34812185820708452 0 0.32815957677880009 0.4577243358118348 0 0.44301038174930041 0.45684931552185398 0 0.38694285807596462 0.5672991787102919 0 0.32815957677880009 0.4577243358118348 0 0.88927506082488361 0.56409486310635837 0 1 0.62499999999901068 0 0.92266244547590082 0.68749999999917555 0 1 0.74999999999934042 0 0.89051480781310632 0.79665793440246835 0 0.92266244547590082 0.68749999999917555 0 0 1 0 0 0.87499999999950151 0 0.091506350946494744 0.90849364905351082 0 1 1 0 0.87499999999950151 1 0 0.90849364905363228 0.90849364905367769 0 0 0 0 0.1249999999997731 0 0 0.091506350946417708 0.091506350946618076 0 0 0.12500000000052089 0 0 0 0 0.091506350946417708 0.091506350946618076 0 1 0 0 1 0.1249999999997731 0 0.90849364905355434 0.091506350946296292 0 0.87499999999967015 0 0 1 0 0 0.90849364905355434 0.091506350946296292 0 0.12500000000052089 1 0 0 1 0 0.091506350946494744 0.90849364905351082 0 1 0.87499999999967015 0 1 1 0 0.90849364905363228 0.90849364905367769 0 0.38694285807596462 0.5672991787102919 0 0.32607333794064219 0.67760114260606152 0 0.26982811998763367 0.56544650815856912 0 0.31411863959822661 0.24965544328045999 0 0.24418615484441761 0.35773612382016978 0 0.20767261601459541 0.25628918442207171 0 0.1082531754734323 0.31250000000117473 0 0.12076953676380731 0.18690935762408761 0 0.20767261601459541 0.25628918442207171 0 0.75000000000057243 0.35048094716480432 0 0.68668231842078242 0.24762892664808989 0 0.79891106056046712 0.25007334953587562 0 0.22257735880419699 0.47344721641341742 0 0.32815957677880009 0.4577243358118348 0 0.26982811998763367 0.56544650815856912 0 0.44078402250377968 0.67714785211715212 0 0.37776173212361452 0.78514649317305008 0 0.32607333794064219 0.67760114260606152 0 0.89658421694297741 0.1933620068391701 0 0.88173731489851925 0.33077402607778361 0 0.79891106056046712 0.25007334953587562 0 1 0.37499999999904599 0 1 0.49999999999869221 0 0.915464298762109 0.43749999999886913 0 0.37953773393552892 0.34812185820708452 0 0.44301038174930041 0.45684931552185398 0 0.32815957677880009 0.4577243358118348 0 0.32607333794064219 0.67760114260606152 0 0.21809253452218619 0.65480892822618109 0 0.26982811998763367 0.56544650815856912 0 1 0.1249999999997731 0 0.89658421694297741 0.1933620068391701 0 0.90849364905355434 0.091506350946296292 0 0 0.87499999999950151 0 0.10409951422139101 0.81206782209691231 0 0.091506350946494744 0.90849364905351082 0 0.1249999999997731 0 0 0.19185372118111221 0.092925648673580788 0 0.091506350946417708 0.091506350946618076 0 1 0.62499999999901068 0 1 0.74999999999934042 0 0.92266244547590082 0.68749999999917555 0 0.18802967116092181 0.89415349436770275 0 0.12500000000052089 1 0 0.091506350946494744 0.90849364905351082 0 0.89051480781310632 0.79665793440246835 0 1 0.87499999999967015 0 0.90849364905363228 0.90849364905367769 0 0.12076953676380731 0.18690935762408761 0 0 0.12500000000052089 0 0.091506350946417708 0.091506350946618076 0 0.81249999999950517 0.1082531754733404 0 0.87499999999967015 0 0 0.90849364905355434 0.091506350946296292 0 0.87499999999950151 1 0 0.80886664387416207 0.89717308644237903 0 0.90849364905363228 0.90849364905367769 0 0.68668231842078242 0.24762892664808989 0 0.62499999999892575 0.17524047358135519 0 0.73983916756365475 0.17530677078674589 0 0.31281086598417152 0.10449318608631281 0 0.43749999999910871 0.1082531754729984 0 0.37500000000232431 0.17524047358384309 0 0.62499999999892575 0.17524047358135519 0 0.56250000000143974 0.2422277716920859 0 0.49999999999934441 0.1752404735815076 0 0.56249999999885147 0.1082531754730395 0 0.68749999999926592 0.1082531754732875 0 0.62499999999892575 0.17524047358135519 0 0.56249999999885147 0.1082531754730395 0 0.62499999999892575 0.17524047358135519 0 0.49999999999934441 0.1752404735815076 0 0.56250000000143974 0.2422277716920859 0 0.43750000000200551 0.24222777169198509 0 0.49999999999934441 0.1752404735815076 0 0.43749999999910871 0.1082531754729984 0 0.56249999999885147 0.1082531754730395 0 0.49999999999934441 0.1752404735815076 0 0.68668231842078242 0.24762892664808989 0 0.56250000000143974 0.2422277716920859 0 0.62499999999892575 0.17524047358135519 0 0.43750000000200551 0.24222777169198509 0 0.31411863959822661 0.24965544328045999 0 0.37500000000232431 0.17524047358384309 0 0.49999999999934441 0.1752404735815076 0 0.43750000000200551 0.24222777169198509 0 0.37500000000232431 0.17524047358384309 0 0.43749999999910871 0.1082531754729984 0 0.49999999999934441 0.1752404735815076 0 0.37500000000232431 0.17524047358384309 0 0.62499999999892575 0.17524047358135519 0 0.68749999999926592 0.1082531754732875 0 0.73983916756365475 0.17530677078674589 0 0.68749999999926592 0.1082531754732875 0 0.81249999999950517 0.1082531754733404 0 0.73983916756365475 0.17530677078674589 0 0.10409951422139101 0.81206782209691231 0 0.18802967116092181 0.89415349436770275 0 0.091506350946494744 0.90849364905351082 0 0.89658421694297741 0.1933620068391701 0 0.81249999999950517 0.1082531754733404 0 0.90849364905355434 0.091506350946296292 0 0.19185372118111221 0.092925648673580788 0 0.12076953676380731 0.18690935762408761 0 0.091506350946417708 0.091506350946618076 0 0.37500000000232431 0.17524047358384309 0 0.31411863959822661 0.24965544328045999 0 0.25103557339309318 0.17464499738446629 0 0.31281086598417152 0.10449318608631281 0 0.37500000000232431 0.17524047358384309 0 0.25103557339309318 0.17464499738446629 0 0.80886664387416207 0.89717308644237903 0 0.89051480781310632 0.79665793440246835 0 0.90849364905363228 0.90849364905367769 0 0.19185372118111221 0.092925648673580788 0 0.31281086598417152 0.10449318608631281 0 0.25103557339309318 0.17464499738446629 0 0.79891106056046712 0.25007334953587562 0 0.68668231842078242 0.24762892664808989 0 0.73983916756365475 0.17530677078674589 0 0.31411863959822661 0.24965544328045999 0 0.20767261601459541 0.25628918442207171 0 0.25103557339309318 0.17464499738446629 0 

        </DataArray>

      </Points>

      <Cells>

        <DataArray type="Int32" Name="connectivity" format="ascii">

0 1 2 3 4 5 6 7 8 9 10 11 12 13 14 15 16 17 18 19 20 21 22 23 24 25 26 27 28 29 30 31 32 33 34 35 36 37 38 39 40 41 42 43 44 45 46 47 48 49 50 51 52 53 54 55 56 57 58 59 60 61 62 63 64 65 66 67 68 69 70 71 72 73 74 75 76 77 78 79 80 81 82 83 84 85 86 87 88 89 90 91 92 93 94 95 96 97 98 99 100 101 102 103 104 105 106 107 108 109 110 111 112 113 114 115 116 117 118 119 120 121 122 123 124 125 126 127 128 129 130 131 132 133 134 135 136 137 138 139 140 141 142 143 144 145 146 147 148 149 150 151 152 153 154 155 156 157 158 159 160 161 162 163 164 165 166 167 168 169 170 171 172 173 174 175 176 177 178 179 180 181 182 183 184 185 186 187 188 189 190 191 192 193 194 195 196 197 198 199 200 201 202 203 204 205 206 207 208 209 210 211 212 213 214 215 216 217 218 219 220 221 222 223 224 225 226 227 228 229 230 231 232 233 234 235 236 237 238 239 240 241 242 243 244 245 246 247 248 249 250 251 252 253 254 255 256 257 258 259 260 261 262 263 264 265 266 267 268 269 270 271 272 273 274 275 276 277 278 279 280 281 282 283 284 285 286 287 288 289 290 291 292 293 294 295 296 297 298 299 300 301 302 303 304 305 306 307 308 309 310 311 312 313 314 315 316 317 318 319 320 321 322 323 324 325 326 327 328 329 330 331 332 333 334 335 336 337 338 339 340 341 342 343 344 345 346 347 348 349 350 351 352 353 354 355 356 357 358 359 360 361 362 363 364 365 366 367 368 369 370 371 372 373 374 375 376 377 378 379 380 381 382 383 384 385 386 387 388 389 390 391 392 393 394 395 396 397 398 399 400 401 402 403 404 405 406 407 408 409 410 411 412 413 414 415 416 417 418 419 420 421 422 423 424 425 426 427 428 429 430 431 432 433 434 435 436 437 438 439 440 441 442 443 444 445 446 447 448 449 450 451 452 453 454 455 456 457 458 459 460 461 462 463 464 465 466 467 468 469 470 471 472 473 474 475 476 477 478 479 480 481 482 483 484 485 

        </DataArray>

        <DataArray type="Int32" Name="offsets" format="ascii">

3 6 9 12 15 18 21 24 27 30 33 36 39 42 45 48 51 54 57 60 63 66 69 72 75 78 81 84 87 90 93 96 99 102 105 108 111 114 117 120 123 126 129 132 135 138 141 144 147 150 153 156 159 162 165 168 171 174 177 180 183 186 189 192 195 198 201 204 207 210 213 216 219 222 225 228 231 234 237 240 243 246 249 252 255 258 261 264 267 270 273 276 279 282 285 288 291 294 297 300 303 306 309 312 315 318 321 324 327 330 333 336 339 342 345 348 351 354 357 360 363 366 369 372 375 378 381 384 387 390 393 396 399 402 405 408 411 414 417 420 423 426 429 432 435 438 441 444 447 450 453 456 459 462 465 468 471 474 477 480 483 486 

        </DataArray>

        <DataArray type="Int32" Name="types" format="ascii">

5 5 5 5 5 5 5 5 5 5 5 5 5 5 5 5 5 5 5 5 5 5 5 5 5 5 5 5 5 5 5 5 5 5 5 5 5 5 5 5 5 5 5 5 5 5 5 5 5 5 5 5 5 5 5 5 5 5 5 5 5 5 5 5 5 5 5 5 5 5 5 5 5 5 5 5 5 5 5 5 5 5 5 5 5 5 5 5 5 5 5 5 5 5 5 5 5 5 5 5 5 5 5 5 5 5 5 5 5 5 5 5 5 5 5 5 5 5 5 5 5 5 5 5 5 5 5 5 5 5 5 5 5 5 5 5 5 5 5 5 5 5 5 5 5 5 5 5 5 5 5 5 5 5 5 5 5 5 5 5 5 5 

        </DataArray>

      </Cells>

    </Piece>

  </UnstructuredGrid>

</VTKFile>

