<?xml version="1.0"?>

<VTKFile type="UnstructuredGrid" version="0.1">

  <UnstructuredGrid>

    <Piece NumberOfPoints="486" NumberOfCells="162">

      <PointData>

        <DataArray type="Float64" Name="K" format="ascii">

1.08546531952971703e+00
1.08546531952971703e+00
1.08546531952971703e+00
1.08162327170438366e+00
1.08162327170438366e+00
1.08162327170438366e+00
1.00921578813853152e+00
1.00921578813853152e+00
1.00921578813853152e+00
1.10364100907632356e+00
1.10364100907632356e+00
1.10364100907632356e+00
1.00751433557380965e+00
1.00751433557380965e+00
1.00751433557380965e+00
1.04755177741871819e+00
1.04755177741871819e+00
1.04755177741871819e+00
1.01169401949265070e+00
1.01169401949265070e+00
1.01169401949265070e+00
9.92732625236153576e-01
9.92732625236153576e-01
9.92732625236153576e-01
9.35970221897989063e-01
9.35970221897989063e-01
9.35970221897989063e-01
9.95519147802118698e-01
9.95519147802118698e-01
9.95519147802118698e-01
1.03004250726335478e+00
1.03004250726335478e+00
1.03004250726335478e+00
1.03928808814730811e+00
1.03928808814730811e+00
1.03928808814730811e+00
9.98042874382955358e-01
9.98042874382955358e-01
9.98042874382955358e-01
1.02824598520927024e+00
1.02824598520927024e+00
1.02824598520927024e+00
9.68033669060431867e-01
9.68033669060431867e-01
9.68033669060431867e-01
9.33835872455477944e-01
9.33835872455477944e-01
9.33835872455477944e-01
1.06983366146207604e+00
1.06983366146207604e+00
1.06983366146207604e+00
1.03436616642850376e+00
1.03436616642850376e+00
1.03436616642850376e+00
9.85212349928531572e-01
9.85212349928531572e-01
9.85212349928531572e-01
9.45131207673346019e-01
9.45131207673346019e-01
9.45131207673346019e-01
1.04361591833469602e+00
1.04361591833469602e+00
1.04361591833469602e+00
1.06092724002154393e+00
1.06092724002154393e+00
1.06092724002154393e+00
9.85219657792521186e-01
9.85219657792521186e-01
9.85219657792521186e-01
1.12029262289534204e+00
1.12029262289534204e+00
1.12029262289534204e+00
9.77556389315636598e-01
9.77556389315636598e-01
9.77556389315636598e-01
1.08074871341539569e+00
1.08074871341539569e+00
1.08074871341539569e+00
1.09253474797273786e+00
1.09253474797273786e+00
1.09253474797273786e+00
1.03937990316396012e+00
1.03937990316396012e+00
1.03937990316396012e+00
1.07508303341218481e+00
1.07508303341218481e+00
1.07508303341218481e+00
9.61194057923797529e-01
9.61194057923797529e-01
9.61194057923797529e-01
9.75648928271425686e-01
9.75648928271425686e-01
9.75648928271425686e-01
9.83068857528492157e-01
9.83068857528492157e-01
9.83068857528492157e-01
9.83730997757667702e-01
9.83730997757667702e-01
9.83730997757667702e-01
1.03598992903931042e+00
1.03598992903931042e+00
1.03598992903931042e+00
9.70136449606742279e-01
9.70136449606742279e-01
9.70136449606742279e-01
1.03159476526668259e+00
1.03159476526668259e+00
1.03159476526668259e+00
1.02514579993619415e+00
1.02514579993619415e+00
1.02514579993619415e+00
9.36776631150198047e-01
9.36776631150198047e-01
9.36776631150198047e-01
9.53341869803794539e-01
9.53341869803794539e-01
9.53341869803794539e-01
1.02164984348491150e+00
1.02164984348491150e+00
1.02164984348491150e+00
9.67652489640391078e-01
9.67652489640391078e-01
9.67652489640391078e-01
1.02349290089694778e+00
1.02349290089694778e+00
1.02349290089694778e+00
9.62103194764441061e-01
9.62103194764441061e-01
9.62103194764441061e-01
1.03188876395575324e+00
1.03188876395575324e+00
1.03188876395575324e+00
9.75275473659696801e-01
9.75275473659696801e-01
9.75275473659696801e-01
9.62157685638881044e-01
9.62157685638881044e-01
9.62157685638881044e-01
1.00088820152383295e+00
1.00088820152383295e+00
1.00088820152383295e+00
9.28692190823032893e-01
9.28692190823032893e-01
9.28692190823032893e-01
9.82217194240566527e-01
9.82217194240566527e-01
9.82217194240566527e-01
1.03362907768575463e+00
1.03362907768575463e+00
1.03362907768575463e+00
9.49429319117686576e-01
9.49429319117686576e-01
9.49429319117686576e-01
9.74654459809502161e-01
9.74654459809502161e-01
9.74654459809502161e-01
1.04840141582970015e+00
1.04840141582970015e+00
1.04840141582970015e+00
9.25460983897390843e-01
9.25460983897390843e-01
9.25460983897390843e-01
1.02699998768837486e+00
1.02699998768837486e+00
1.02699998768837486e+00
9.56386345706550234e-01
9.56386345706550234e-01
9.56386345706550234e-01
9.98969671454907782e-01
9.98969671454907782e-01
9.98969671454907782e-01
1.04313742964029088e+00
1.04313742964029088e+00
1.04313742964029088e+00
9.67973317416127466e-01
9.67973317416127466e-01
9.67973317416127466e-01
1.01550513674693588e+00
1.01550513674693588e+00
1.01550513674693588e+00
1.00953316610184674e+00
1.00953316610184674e+00
1.00953316610184674e+00
9.40015790847589017e-01
9.40015790847589017e-01
9.40015790847589017e-01
9.81435769525803692e-01
9.81435769525803692e-01
9.81435769525803692e-01
1.02663353993853335e+00
1.02663353993853335e+00
1.02663353993853335e+00
9.72908013704064656e-01
9.72908013704064656e-01
9.72908013704064656e-01
1.06192876931611169e+00
1.06192876931611169e+00
1.06192876931611169e+00
9.92422722063558638e-01
9.92422722063558638e-01
9.92422722063558638e-01
1.01134337169200816e+00
1.01134337169200816e+00
1.01134337169200816e+00
9.85551079524540463e-01
9.85551079524540463e-01
9.85551079524540463e-01
1.01761705909315969e+00
1.01761705909315969e+00
1.01761705909315969e+00
9.63414881323778061e-01
9.63414881323778061e-01
9.63414881323778061e-01
1.10139408356714719e+00
1.10139408356714719e+00
1.10139408356714719e+00
1.03421825927768651e+00
1.03421825927768651e+00
1.03421825927768651e+00
9.96295777014813200e-01
9.96295777014813200e-01
9.96295777014813200e-01
9.82388573715832658e-01
9.82388573715832658e-01
9.82388573715832658e-01
1.01302217513831638e+00
1.01302217513831638e+00
1.01302217513831638e+00
9.79314373414412076e-01
9.79314373414412076e-01
9.79314373414412076e-01
1.08422981638018801e+00
1.08422981638018801e+00
1.08422981638018801e+00
9.84230699945565113e-01
9.84230699945565113e-01
9.84230699945565113e-01
1.00684192290123242e+00
1.00684192290123242e+00
1.00684192290123242e+00
9.96622897167595778e-01
9.96622897167595778e-01
9.96622897167595778e-01
1.01250148317557520e+00
1.01250148317557520e+00
1.01250148317557520e+00
9.85976938394889535e-01
9.85976938394889535e-01
9.85976938394889535e-01
9.84177707104620714e-01
9.84177707104620714e-01
9.84177707104620714e-01
1.01822708803224415e+00
1.01822708803224415e+00
1.01822708803224415e+00
9.94294408170258492e-01
9.94294408170258492e-01
9.94294408170258492e-01
1.09044120038706471e+00
1.09044120038706471e+00
1.09044120038706471e+00
1.01125239426710900e+00
1.01125239426710900e+00
1.01125239426710900e+00
1.01769382987689072e+00
1.01769382987689072e+00
1.01769382987689072e+00
1.04443251655897562e+00
1.04443251655897562e+00
1.04443251655897562e+00
1.00212329879574802e+00
1.00212329879574802e+00
1.00212329879574802e+00
9.67950861817345798e-01
9.67950861817345798e-01
9.67950861817345798e-01
9.69516257980075791e-01
9.69516257980075791e-01
9.69516257980075791e-01
1.02552748914827130e+00
1.02552748914827130e+00
1.02552748914827130e+00
9.56672111313567441e-01
9.56672111313567441e-01
9.56672111313567441e-01
1.00675755539252076e+00
1.00675755539252076e+00
1.00675755539252076e+00
1.01572216352663758e+00
1.01572216352663758e+00
1.01572216352663758e+00
1.02025986828066673e+00
1.02025986828066673e+00
1.02025986828066673e+00
9.93421655926976399e-01
9.93421655926976399e-01
9.93421655926976399e-01
9.88180292663532800e-01
9.88180292663532800e-01
9.88180292663532800e-01
1.04891129182463527e+00
1.04891129182463527e+00
1.04891129182463527e+00
9.44607066791914196e-01
9.44607066791914196e-01
9.44607066791914196e-01
1.03000655050710521e+00
1.03000655050710521e+00
1.03000655050710521e+00
1.01401090585315745e+00
1.01401090585315745e+00
1.01401090585315745e+00
1.00430842856454938e+00
1.00430842856454938e+00
1.00430842856454938e+00
9.84719816092892941e-01
9.84719816092892941e-01
9.84719816092892941e-01
9.99299390442190183e-01
9.99299390442190183e-01
9.99299390442190183e-01
9.74091189638924049e-01
9.74091189638924049e-01
9.74091189638924049e-01
9.98931947732524805e-01
9.98931947732524805e-01
9.98931947732524805e-01
9.96671309188882582e-01
9.96671309188882582e-01
9.96671309188882582e-01
1.00957279818537060e+00
1.00957279818537060e+00
1.00957279818537060e+00
9.71687443165751397e-01
9.71687443165751397e-01
9.71687443165751397e-01
9.80241117731186162e-01
9.80241117731186162e-01
9.80241117731186162e-01
1.01430456987610440e+00
1.01430456987610440e+00
1.01430456987610440e+00
9.97273038469433271e-01
9.97273038469433271e-01
9.97273038469433271e-01
9.81095179368647430e-01
9.81095179368647430e-01
9.81095179368647430e-01
9.89567947321690733e-01
9.89567947321690733e-01
9.89567947321690733e-01
9.94428283968927351e-01
9.94428283968927351e-01
9.94428283968927351e-01
9.80292875639606209e-01
9.80292875639606209e-01
9.80292875639606209e-01
1.00820673959594753e+00
1.00820673959594753e+00
1.00820673959594753e+00
9.70467919681802349e-01
9.70467919681802349e-01
9.70467919681802349e-01
1.00732382503958418e+00
1.00732382503958418e+00
1.00732382503958418e+00
9.55729040668819030e-01
9.55729040668819030e-01
9.55729040668819030e-01
1.00461017207241166e+00
1.00461017207241166e+00
1.00461017207241166e+00
1.12168259178744067e+00
1.12168259178744067e+00
1.12168259178744067e+00
1.02153761821577738e+00
1.02153761821577738e+00
1.02153761821577738e+00
9.79282603858630418e-01
9.79282603858630418e-01
9.79282603858630418e-01
1.08752495395198778e+00
1.08752495395198778e+00
1.08752495395198778e+00
9.66078619461083865e-01
9.66078619461083865e-01
9.66078619461083865e-01
1.01531951169096701e+00
1.01531951169096701e+00
1.01531951169096701e+00
1.03516018114827602e+00
1.03516018114827602e+00
1.03516018114827602e+00
1.01596731729292444e+00
1.01596731729292444e+00
1.01596731729292444e+00
1.04063592365072854e+00
1.04063592365072854e+00
1.04063592365072854e+00
9.73594177901045410e-01
9.73594177901045410e-01
9.73594177901045410e-01
9.60854207405291150e-01
9.60854207405291150e-01
9.60854207405291150e-01
1.03509042713669430e+00
1.03509042713669430e+00
1.03509042713669430e+00
9.88861011690027936e-01
9.88861011690027936e-01
9.88861011690027936e-01
1.00521910957856342e+00
1.00521910957856342e+00
1.00521910957856342e+00
1.00606886580238242e+00
1.00606886580238242e+00
1.00606886580238242e+00
1.01995700162033098e+00
1.01995700162033098e+00
1.01995700162033098e+00
1.07389960112049332e+00
1.07389960112049332e+00
1.07389960112049332e+00
9.35561073343121774e-01
9.35561073343121774e-01
9.35561073343121774e-01
1.01131284608515593e+00
1.01131284608515593e+00
1.01131284608515593e+00
1.03201087092193156e+00
1.03201087092193156e+00
1.03201087092193156e+00
1.00316758840985876e+00
1.00316758840985876e+00
1.00316758840985876e+00
9.99866119785389529e-01
9.99866119785389529e-01
9.99866119785389529e-01
9.70146197042439318e-01
9.70146197042439318e-01
9.70146197042439318e-01
1.04180927723835137e+00
1.04180927723835137e+00
1.04180927723835137e+00
9.64209082831557485e-01
9.64209082831557485e-01
9.64209082831557485e-01
9.76850280281004180e-01
9.76850280281004180e-01
9.76850280281004180e-01
9.58627239902123729e-01
9.58627239902123729e-01
9.58627239902123729e-01
1.06443321402910374e+00
1.06443321402910374e+00
1.06443321402910374e+00
1.07188899304504837e+00
1.07188899304504837e+00
1.07188899304504837e+00
1.05901993084855328e+00
1.05901993084855328e+00
1.05901993084855328e+00
1.03890733418305370e+00
1.03890733418305370e+00
1.03890733418305370e+00
9.88564003159354221e-01
9.88564003159354221e-01
9.88564003159354221e-01
9.38250504253479889e-01
9.38250504253479889e-01
9.38250504253479889e-01
9.31507742674817063e-01
9.31507742674817063e-01
9.31507742674817063e-01
1.01568157785544222e+00
1.01568157785544222e+00
1.01568157785544222e+00
9.40338060977519596e-01
9.40338060977519596e-01
9.40338060977519596e-01
1.10700051184628423e+00
1.10700051184628423e+00
1.10700051184628423e+00
9.43280800583571000e-01
9.43280800583571000e-01
9.43280800583571000e-01


        </DataArray>

      </PointData>

      <CellData/>

      <Points>

        <DataArray type="Float64" NumberOfComponents="3" format="ascii">

0.1082531754723032 0.6875000000007816 0 0.23533274979922561 0.77093399389351469 0 0.10409951422139101 0.81206782209691231 0 0.23533274979922561 0.77093399389351469 0 0.1082531754723032 0.6875000000007816 0 0.21809253452218619 0.65480892822618109 0 0.24418615484441761 0.35773612382016978 0 0.121259140952891 0.43112117036853742 0 0.1082531754734323 0.31250000000117473 0 0.75000000000057243 0.35048094716480432 0 0.88173731489851925 0.33077402607778361 0 0.81242894672211508 0.45500248311961472 0 0.121259140952891 0.43112117036853742 0 0.24418615484441761 0.35773612382016978 0 0.22257735880419699 0.47344721641341742 0 0.81242894672211508 0.45500248311961472 0 0.88173731489851925 0.33077402607778361 0 0.915464298762109 0.43749999999886913 0 0 0.62500000000121547 0 0 0.50000000000206146 0 0.1371230538040123 0.56179824718362847 0 0.82212678063041267 0.67678595194836966 0 0.89051480781310632 0.79665793440246835 0 0.76243180583607129 0.78687675331113149 0 0.76243180583607129 0.78687675331113149 0 0.69010814643829166 0.89298495739101336 0 0.62844955668446423 0.7850749770380413 0 0.89051480781310632 0.79665793440246835 0 0.82212678063041267 0.67678595194836966 0 0.92266244547590082 0.68749999999917555 0 0 0.50000000000206146 0 0.121259140952891 0.43112117036853742 0 0.1371230538040123 0.56179824718362847 0 0.1082531754723032 0.6875000000007816 0 0 0.62500000000121547 0 0.1371230538040123 0.56179824718362847 0 0.75000000000032374 0.56698729811007709 0 0.88927506082488361 0.56409486310635837 0 0.82212678063041267 0.67678595194836966 0 0.81242894672211508 0.45500248311961472 0 0.88927506082488361 0.56409486310635837 0 0.75000000000032374 0.56698729811007709 0 0.69851598570178741 0.68211701800612057 0 0.56496004948275869 0.67675037307860475 0 0.62752533658682441 0.56838075195614346 0 0.69851598570178741 0.68211701800612057 0 0.76243180583607129 0.78687675331113149 0 0.62844955668446423 0.7850749770380413 0 0.23533274979922561 0.77093399389351469 0 0.18802967116092181 0.89415349436770275 0 0.10409951422139101 0.81206782209691231 0 0.121259140952891 0.43112117036853742 0 0.22257735880419699 0.47344721641341742 0 0.1371230538040123 0.56179824718362847 0 0.75000000000032374 0.56698729811007709 0 0.69851598570178741 0.68211701800612057 0 0.62752533658682441 0.56838075195614346 0 0.56496004948275869 0.67675037307860475 0 0.69851598570178741 0.68211701800612057 0 0.62844955668446423 0.7850749770380413 0 0.1371230538040123 0.56179824718362847 0 0.22257735880419699 0.47344721641341742 0 0.26982811998763367 0.56544650815856912 0 0.21809253452218619 0.65480892822618109 0 0.1371230538040123 0.56179824718362847 0 0.26982811998763367 0.56544650815856912 0 0.24418615484441761 0.35773612382016978 0 0.1082531754734323 0.31250000000117473 0 0.20767261601459541 0.25628918442207171 0 0.88173731489851925 0.33077402607778361 0 0.75000000000057243 0.35048094716480432 0 0.79891106056046712 0.25007334953587562 0 0.75000000000032374 0.56698729811007709 0 0.82212678063041267 0.67678595194836966 0 0.69851598570178741 0.68211701800612057 0 0.81249999999950517 0.1082531754733404 0 0.89658421694297741 0.1933620068391701 0 0.79891106056046712 0.25007334953587562 0 0.81249999999950517 0.1082531754733404 0 0.79891106056046712 0.25007334953587562 0 0.73983916756365475 0.17530677078674589 0 0.23533274979922561 0.77093399389351469 0 0.21809253452218619 0.65480892822618109 0 0.32607333794064219 0.67760114260606152 0 0.1082531754723032 0.6875000000007816 0 0.1371230538040123 0.56179824718362847 0 0.21809253452218619 0.65480892822618109 0 0.69851598570178741 0.68211701800612057 0 0.82212678063041267 0.67678595194836966 0 0.76243180583607129 0.78687675331113149 0 0.69010814643829166 0.89298495739101336 0 0.76243180583607129 0.78687675331113149 0 0.80886664387416207 0.89717308644237903 0 0.43750000000181222 0.89174682452709564 0 0.31258827852827581 0.89214793616708443 0 0.37776173212361452 0.78514649317305008 0 0.43750000000181222 0.89174682452709564 0 0.37500000000156292 1 0 0.31258827852827581 0.89214793616708443 0 0.121259140952891 0.43112117036853742 0 0 0.37500000000156292 0 0.1082531754734323 0.31250000000117473 0 0.50000000000206146 1 0 0.37500000000156292 1 0 0.43750000000181222 0.89174682452709564 0 0.31258827852827581 0.89214793616708443 0 0.18802967116092181 0.89415349436770275 0 0.23533274979922561 0.77093399389351469 0 0 0.50000000000206146 0 0 0.37500000000156292 0 0.121259140952891 0.43112117036853742 0 0.62844955668446423 0.7850749770380413 0 0.69010814643829166 0.89298495739101336 0 0.56327595140699671 0.89211526915426331 0 0.69010814643829166 0.89298495739101336 0 0.62500000000121547 1 0 0.56327595140699671 0.89211526915426331 0 0.25000000000104189 1 0 0.18802967116092181 0.89415349436770275 0 0.31258827852827581 0.89214793616708443 0 0.50000000000206146 1 0 0.43750000000181222 0.89174682452709564 0 0.56327595140699671 0.89211526915426331 0 0.56249999999885147 0.1082531754730395 0 0.62499999999901068 0 0 0.68749999999926592 0.1082531754732875 0 1 0.49999999999869221 0 1 0.62499999999901068 0 0.88927506082488361 0.56409486310635837 0 0 0.25000000000104189 0 0.12076953676380731 0.18690935762408761 0 0.1082531754734323 0.31250000000117473 0 0.49999999999869221 0 0 0.62499999999901068 0 0 0.56249999999885147 0.1082531754730395 0 0.62500000000121547 1 0 0.50000000000206146 1 0 0.56327595140699671 0.89211526915426331 0 0.37500000000156292 1 0 0.25000000000104189 1 0 0.31258827852827581 0.89214793616708443 0 0.31281086598417152 0.10449318608631281 0 0.37499999999904599 0 0 0.43749999999910871 0.1082531754729984 0 0.43750000000181222 0.89174682452709564 0 0.37776173212361452 0.78514649317305008 0 0.50046028868828263 0.78376912307435687 0 0 0.37500000000156292 0 0 0.25000000000104189 0 0.1082531754734323 0.31250000000117473 0 0.49999999999869221 0 0 0.56249999999885147 0.1082531754730395 0 0.43749999999910871 0.1082531754729984 0 0.43750000000181222 0.89174682452709564 0 0.50046028868828263 0.78376912307435687 0 0.56327595140699671 0.89211526915426331 0 0.74999999999934042 0 0 0.81249999999950517 0.1082531754733404 0 0.68749999999926592 0.1082531754732875 0 0.37499999999904599 0 0 0.49999999999869221 0 0 0.43749999999910871 0.1082531754729984 0 0.25000000000104189 1 0 0.12500000000052089 1 0 0.18802967116092181 0.89415349436770275 0 0.50046028868828263 0.78376912307435687 0 0.62844955668446423 0.7850749770380413 0 0.56327595140699671 0.89211526915426331 0 0.37776173212361452 0.78514649317305008 0 0.31258827852827581 0.89214793616708443 0 0.23533274979922561 0.77093399389351469 0 0.62499999999901068 0 0 0.74999999999934042 0 0 0.68749999999926592 0.1082531754732875 0 1 0.74999999999934042 0 1 0.87499999999967015 0 0.89051480781310632 0.79665793440246835 0 0 0.25000000000104189 0 0 0.12500000000052089 0 0.12076953676380731 0.18690935762408761 0 0.74999999999934042 0 0 0.87499999999967015 0 0 0.81249999999950517 0.1082531754733404 0 0.24999999999941069 0 0 0.37499999999904599 0 0 0.31281086598417152 0.10449318608631281 0 0.50046028868828263 0.78376912307435687 0 0.37776173212361452 0.78514649317305008 0 0.44078402250377968 0.67714785211715212 0 0.68768773896438518 0.4586835206367198 0 0.75000000000032374 0.56698729811007709 0 0.62752533658682441 0.56838075195614346 0 0.31411863959822661 0.24965544328045999 0 0.37953773393552892 0.34812185820708452 0 0.24418615484441761 0.35773612382016978 0 0.68768773896438518 0.4586835206367198 0 0.81242894672211508 0.45500248311961472 0 0.75000000000032374 0.56698729811007709 0 1 0.24999999999941069 0 1 0.37499999999904599 0 0.88173731489851925 0.33077402607778361 0 0 0.75000000000034761 0 0 0.62500000000121547 0 0.1082531754723032 0.6875000000007816 0 0.50048844149666749 0.56727788297625459 0 0.44078402250377968 0.67714785211715212 0 0.38694285807596462 0.5672991787102919 0 0.50108503093851109 0.35012252869403671 0 0.44301038174930041 0.45684931552185398 0 0.37953773393552892 0.34812185820708452 0 0.50046028868828263 0.78376912307435687 0 0.56496004948275869 0.67675037307860475 0 0.62844955668446423 0.7850749770380413 0 0.68768773896438518 0.4586835206367198 0 0.75000000000057243 0.35048094716480432 0 0.81242894672211508 0.45500248311961472 0 0.56349980387502452 0.45846841892908402 0 0.62512662990940393 0.35044303886909911 0 0.68768773896438518 0.4586835206367198 0 0.50048844149666749 0.56727788297625459 0 0.38694285807596462 0.5672991787102919 0 0.44301038174930041 0.45684931552185398 0 0.50046028868828263 0.78376912307435687 0 0.44078402250377968 0.67714785211715212 0 0.56496004948275869 0.67675037307860475 0 0.50108503093851109 0.35012252869403671 0 0.37953773393552892 0.34812185820708452 0 0.43750000000200551 0.24222777169198509 0 0.75000000000034761 1 0 0.62500000000121547 1 0 0.69010814643829166 0.89298495739101336 0 0.68768773896438518 0.4586835206367198 0 0.62512662990940393 0.35044303886909911 0 0.75000000000057243 0.35048094716480432 0 0.56496004948275869 0.67675037307860475 0 0.44078402250377968 0.67714785211715212 0 0.50048844149666749 0.56727788297625459 0 0.56349980387502452 0.45846841892908402 0 0.44301038174930041 0.45684931552185398 0 0.50108503093851109 0.35012252869403671 0 0.50048844149666749 0.56727788297625459 0 0.44301038174930041 0.45684931552185398 0 0.56349980387502452 0.45846841892908402 0 0.56349980387502452 0.45846841892908402 0 0.50108503093851109 0.35012252869403671 0 0.62512662990940393 0.35044303886909911 0 0.43750000000200551 0.24222777169198509 0 0.37953773393552892 0.34812185820708452 0 0.31411863959822661 0.24965544328045999 0 0.56496004948275869 0.67675037307860475 0 0.50048844149666749 0.56727788297625459 0 0.62752533658682441 0.56838075195614346 0 0.56349980387502452 0.45846841892908402 0 0.68768773896438518 0.4586835206367198 0 0.62752533658682441 0.56838075195614346 0 0.50048844149666749 0.56727788297625459 0 0.56349980387502452 0.45846841892908402 0 0.62752533658682441 0.56838075195614346 0 0.75000000000057243 0.35048094716480432 0 0.62512662990940393 0.35044303886909911 0 0.68668231842078242 0.24762892664808989 0 0.50108503093851109 0.35012252869403671 0 0.43750000000200551 0.24222777169198509 0 0.56250000000143974 0.2422277716920859 0 0.62512662990940393 0.35044303886909911 0 0.50108503093851109 0.35012252869403671 0 0.56250000000143974 0.2422277716920859 0 0.68668231842078242 0.24762892664808989 0 0.62512662990940393 0.35044303886909911 0 0.56250000000143974 0.2422277716920859 0 0.22257735880419699 0.47344721641341742 0 0.24418615484441761 0.35773612382016978 0 0.32815957677880009 0.4577243358118348 0 0.12076953676380731 0.18690935762408761 0 0.19185372118111221 0.092925648673580788 0 0.25103557339309318 0.17464499738446629 0 0.20767261601459541 0.25628918442207171 0 0.12076953676380731 0.18690935762408761 0 0.25103557339309318 0.17464499738446629 0 0 0.87499999999950151 0 0 0.75000000000034761 0 0.10409951422139101 0.81206782209691231 0 0.1249999999997731 0 0 0.24999999999941069 0 0 0.19185372118111221 0.092925648673580788 0 1 0.1249999999997731 0 1 0.24999999999941069 0 0.89658421694297741 0.1933620068391701 0 0.88927506082488361 0.56409486310635837 0 0.81242894672211508 0.45500248311961472 0 0.915464298762109 0.43749999999886913 0 0.87499999999950151 1 0 0.75000000000034761 1 0 0.80886664387416207 0.89717308644237903 0 0.75000000000034761 1 0 0.69010814643829166 0.89298495739101336 0 0.80886664387416207 0.89717308644237903 0 0.82212678063041267 0.67678595194836966 0 0.88927506082488361 0.56409486310635837 0 0.92266244547590082 0.68749999999917555 0 0 0.75000000000034761 0 0.1082531754723032 0.6875000000007816 0 0.10409951422139101 0.81206782209691231 0 0.24999999999941069 0 0 0.31281086598417152 0.10449318608631281 0 0.19185372118111221 0.092925648673580788 0 1 0.24999999999941069 0 0.88173731489851925 0.33077402607778361 0 0.89658421694297741 0.1933620068391701 0 0.32815957677880009 0.4577243358118348 0 0.38694285807596462 0.5672991787102919 0 0.26982811998763367 0.56544650815856912 0 0.76243180583607129 0.78687675331113149 0 0.89051480781310632 0.79665793440246835 0 0.80886664387416207 0.89717308644237903 0 0.38694285807596462 0.5672991787102919 0 0.44078402250377968 0.67714785211715212 0 0.32607333794064219 0.67760114260606152 0 0.37776173212361452 0.78514649317305008 0 0.23533274979922561 0.77093399389351469 0 0.32607333794064219 0.67760114260606152 0 1 0.49999999999869221 0 0.88927506082488361 0.56409486310635837 0 0.915464298762109 0.43749999999886913 0 0.88173731489851925 0.33077402607778361 0 1 0.37499999999904599 0 0.915464298762109 0.43749999999886913 0 0.24418615484441761 0.35773612382016978 0 0.37953773393552892 0.34812185820708452 0 0.32815957677880009 0.4577243358118348 0 0.44301038174930041 0.45684931552185398 0 0.38694285807596462 0.5672991787102919 0 0.32815957677880009 0.4577243358118348 0 0.88927506082488361 0.56409486310635837 0 1 0.62499999999901068 0 0.92266244547590082 0.68749999999917555 0 1 0.74999999999934042 0 0.89051480781310632 0.79665793440246835 0 0.92266244547590082 0.68749999999917555 0 0 1 0 0 0.87499999999950151 0 0.091506350946494744 0.90849364905351082 0 1 1 0 0.87499999999950151 1 0 0.90849364905363228 0.90849364905367769 0 0 0 0 0.1249999999997731 0 0 0.091506350946417708 0.091506350946618076 0 0 0.12500000000052089 0 0 0 0 0.091506350946417708 0.091506350946618076 0 1 0 0 1 0.1249999999997731 0 0.90849364905355434 0.091506350946296292 0 0.87499999999967015 0 0 1 0 0 0.90849364905355434 0.091506350946296292 0 0.12500000000052089 1 0 0 1 0 0.091506350946494744 0.90849364905351082 0 1 0.87499999999967015 0 1 1 0 0.90849364905363228 0.90849364905367769 0 0.38694285807596462 0.5672991787102919 0 0.32607333794064219 0.67760114260606152 0 0.26982811998763367 0.56544650815856912 0 0.31411863959822661 0.24965544328045999 0 0.24418615484441761 0.35773612382016978 0 0.20767261601459541 0.25628918442207171 0 0.1082531754734323 0.31250000000117473 0 0.12076953676380731 0.18690935762408761 0 0.20767261601459541 0.25628918442207171 0 0.75000000000057243 0.35048094716480432 0 0.68668231842078242 0.24762892664808989 0 0.79891106056046712 0.25007334953587562 0 0.22257735880419699 0.47344721641341742 0 0.32815957677880009 0.4577243358118348 0 0.26982811998763367 0.56544650815856912 0 0.44078402250377968 0.67714785211715212 0 0.37776173212361452 0.78514649317305008 0 0.32607333794064219 0.67760114260606152 0 0.89658421694297741 0.1933620068391701 0 0.88173731489851925 0.33077402607778361 0 0.79891106056046712 0.25007334953587562 0 1 0.37499999999904599 0 1 0.49999999999869221 0 0.915464298762109 0.43749999999886913 0 0.37953773393552892 0.34812185820708452 0 0.44301038174930041 0.45684931552185398 0 0.32815957677880009 0.4577243358118348 0 0.32607333794064219 0.67760114260606152 0 0.21809253452218619 0.65480892822618109 0 0.26982811998763367 0.56544650815856912 0 1 0.1249999999997731 0 0.89658421694297741 0.1933620068391701 0 0.90849364905355434 0.091506350946296292 0 0 0.87499999999950151 0 0.10409951422139101 0.81206782209691231 0 0.091506350946494744 0.90849364905351082 0 0.1249999999997731 0 0 0.19185372118111221 0.092925648673580788 0 0.091506350946417708 0.091506350946618076 0 1 0.62499999999901068 0 1 0.74999999999934042 0 0.92266244547590082 0.68749999999917555 0 0.18802967116092181 0.89415349436770275 0 0.12500000000052089 1 0 0.091506350946494744 0.90849364905351082 0 0.89051480781310632 0.79665793440246835 0 1 0.87499999999967015 0 0.90849364905363228 0.90849364905367769 0 0.12076953676380731 0.18690935762408761 0 0 0.12500000000052089 0 0.091506350946417708 0.091506350946618076 0 0.81249999999950517 0.1082531754733404 0 0.87499999999967015 0 0 0.90849364905355434 0.091506350946296292 0 0.87499999999950151 1 0 0.80886664387416207 0.89717308644237903 0 0.90849364905363228 0.90849364905367769 0 0.68668231842078242 0.24762892664808989 0 0.62499999999892575 0.17524047358135519 0 0.73983916756365475 0.17530677078674589 0 0.31281086598417152 0.10449318608631281 0 0.43749999999910871 0.1082531754729984 0 0.37500000000232431 0.17524047358384309 0 0.62499999999892575 0.17524047358135519 0 0.56250000000143974 0.2422277716920859 0 0.49999999999934441 0.1752404735815076 0 0.56249999999885147 0.1082531754730395 0 0.68749999999926592 0.1082531754732875 0 0.62499999999892575 0.17524047358135519 0 0.56249999999885147 0.1082531754730395 0 0.62499999999892575 0.17524047358135519 0 0.49999999999934441 0.1752404735815076 0 0.56250000000143974 0.2422277716920859 0 0.43750000000200551 0.24222777169198509 0 0.49999999999934441 0.1752404735815076 0 0.43749999999910871 0.1082531754729984 0 0.56249999999885147 0.1082531754730395 0 0.49999999999934441 0.1752404735815076 0 0.68668231842078242 0.24762892664808989 0 0.56250000000143974 0.2422277716920859 0 0.62499999999892575 0.17524047358135519 0 0.43750000000200551 0.24222777169198509 0 0.31411863959822661 0.24965544328045999 0 0.37500000000232431 0.17524047358384309 0 0.49999999999934441 0.1752404735815076 0 0.43750000000200551 0.24222777169198509 0 0.37500000000232431 0.17524047358384309 0 0.43749999999910871 0.1082531754729984 0 0.49999999999934441 0.1752404735815076 0 0.37500000000232431 0.17524047358384309 0 0.62499999999892575 0.17524047358135519 0 0.68749999999926592 0.1082531754732875 0 0.73983916756365475 0.17530677078674589 0 0.68749999999926592 0.1082531754732875 0 0.81249999999950517 0.1082531754733404 0 0.73983916756365475 0.17530677078674589 0 0.10409951422139101 0.81206782209691231 0 0.18802967116092181 0.89415349436770275 0 0.091506350946494744 0.90849364905351082 0 0.89658421694297741 0.1933620068391701 0 0.81249999999950517 0.1082531754733404 0 0.90849364905355434 0.091506350946296292 0 0.19185372118111221 0.092925648673580788 0 0.12076953676380731 0.18690935762408761 0 0.091506350946417708 0.091506350946618076 0 0.37500000000232431 0.17524047358384309 0 0.31411863959822661 0.24965544328045999 0 0.25103557339309318 0.17464499738446629 0 0.31281086598417152 0.10449318608631281 0 0.37500000000232431 0.17524047358384309 0 0.25103557339309318 0.17464499738446629 0 0.80886664387416207 0.89717308644237903 0 0.89051480781310632 0.79665793440246835 0 0.90849364905363228 0.90849364905367769 0 0.19185372118111221 0.092925648673580788 0 0.31281086598417152 0.10449318608631281 0 0.25103557339309318 0.17464499738446629 0 0.79891106056046712 0.25007334953587562 0 0.68668231842078242 0.24762892664808989 0 0.73983916756365475 0.17530677078674589 0 0.31411863959822661 0.24965544328045999 0 0.20767261601459541 0.25628918442207171 0 0.25103557339309318 0.17464499738446629 0 

        </DataArray>

      </Points>

      <Cells>

        <DataArray type="Int32" Name="connectivity" format="ascii">

0 1 2 3 4 5 6 7 8 9 10 11 12 13 14 15 16 17 18 19 20 21 22 23 24 25 26 27 28 29 30 31 32 33 34 35 36 37 38 39 40 41 42 43 44 45 46 47 48 49 50 51 52 53 54 55 56 57 58 59 60 61 62 63 64 65 66 67 68 69 70 71 72 73 74 75 76 77 78 79 80 81 82 83 84 85 86 87 88 89 90 91 92 93 94 95 96 97 98 99 100 101 102 103 104 105 106 107 108 109 110 111 112 113 114 115 116 117 118 119 120 121 122 123 124 125 126 127 128 129 130 131 132 133 134 135 136 137 138 139 140 141 142 143 144 145 146 147 148 149 150 151 152 153 154 155 156 157 158 159 160 161 162 163 164 165 166 167 168 169 170 171 172 173 174 175 176 177 178 179 180 181 182 183 184 185 186 187 188 189 190 191 192 193 194 195 196 197 198 199 200 201 202 203 204 205 206 207 208 209 210 211 212 213 214 215 216 217 218 219 220 221 222 223 224 225 226 227 228 229 230 231 232 233 234 235 236 237 238 239 240 241 242 243 244 245 246 247 248 249 250 251 252 253 254 255 256 257 258 259 260 261 262 263 264 265 266 267 268 269 270 271 272 273 274 275 276 277 278 279 280 281 282 283 284 285 286 287 288 289 290 291 292 293 294 295 296 297 298 299 300 301 302 303 304 305 306 307 308 309 310 311 312 313 314 315 316 317 318 319 320 321 322 323 324 325 326 327 328 329 330 331 332 333 334 335 336 337 338 339 340 341 342 343 344 345 346 347 348 349 350 351 352 353 354 355 356 357 358 359 360 361 362 363 364 365 366 367 368 369 370 371 372 373 374 375 376 377 378 379 380 381 382 383 384 385 386 387 388 389 390 391 392 393 394 395 396 397 398 399 400 401 402 403 404 405 406 407 408 409 410 411 412 413 414 415 416 417 418 419 420 421 422 423 424 425 426 427 428 429 430 431 432 433 434 435 436 437 438 439 440 441 442 443 444 445 446 447 448 449 450 451 452 453 454 455 456 457 458 459 460 461 462 463 464 465 466 467 468 469 470 471 472 473 474 475 476 477 478 479 480 481 482 483 484 485 

        </DataArray>

        <DataArray type="Int32" Name="offsets" format="ascii">

3 6 9 12 15 18 21 24 27 30 33 36 39 42 45 48 51 54 57 60 63 66 69 72 75 78 81 84 87 90 93 96 99 102 105 108 111 114 117 120 123 126 129 132 135 138 141 144 147 150 153 156 159 162 165 168 171 174 177 180 183 186 189 192 195 198 201 204 207 210 213 216 219 222 225 228 231 234 237 240 243 246 249 252 255 258 261 264 267 270 273 276 279 282 285 288 291 294 297 300 303 306 309 312 315 318 321 324 327 330 333 336 339 342 345 348 351 354 357 360 363 366 369 372 375 378 381 384 387 390 393 396 399 402 405 408 411 414 417 420 423 426 429 432 435 438 441 444 447 450 453 456 459 462 465 468 471 474 477 480 483 486 

        </DataArray>

        <DataArray type="Int32" Name="types" format="ascii">

5 5 5 5 5 5 5 5 5 5 5 5 5 5 5 5 5 5 5 5 5 5 5 5 5 5 5 5 5 5 5 5 5 5 5 5 5 5 5 5 5 5 5 5 5 5 5 5 5 5 5 5 5 5 5 5 5 5 5 5 5 5 5 5 5 5 5 5 5 5 5 5 5 5 5 5 5 5 5 5 5 5 5 5 5 5 5 5 5 5 5 5 5 5 5 5 5 5 5 5 5 5 5 5 5 5 5 5 5 5 5 5 5 5 5 5 5 5 5 5 5 5 5 5 5 5 5 5 5 5 5 5 5 5 5 5 5 5 5 5 5 5 5 5 5 5 5 5 5 5 5 5 5 5 5 5 5 5 5 5 5 5 

        </DataArray>

      </Cells>

    </Piece>

  </UnstructuredGrid>

</VTKFile>

