<?xml version="1.0"?>

<VTKFile type="UnstructuredGrid" version="0.1">

  <UnstructuredGrid>

    <Piece NumberOfPoints="486" NumberOfCells="162">

      <PointData>

        <DataArray type="Float64" Name="K" format="ascii">

9.41138976650789050e-01
9.41138976650789050e-01
9.41138976650789050e-01
9.32256865413030766e-01
9.32256865413030766e-01
9.32256865413030766e-01
9.80977942405215297e-01
9.80977942405215297e-01
9.80977942405215297e-01
9.69745631623040727e-01
9.69745631623040727e-01
9.69745631623040727e-01
9.85260643203902720e-01
9.85260643203902720e-01
9.85260643203902720e-01
1.02047435207317760e+00
1.02047435207317760e+00
1.02047435207317760e+00
9.83551683906003227e-01
9.83551683906003227e-01
9.83551683906003227e-01
1.08431355940811414e+00
1.08431355940811414e+00
1.08431355940811414e+00
1.10642023923498600e+00
1.10642023923498600e+00
1.10642023923498600e+00
1.07540356052631791e+00
1.07540356052631791e+00
1.07540356052631791e+00
9.63298614380784901e-01
9.63298614380784901e-01
9.63298614380784901e-01
9.71850566148533712e-01
9.71850566148533712e-01
9.71850566148533712e-01
1.10439356366821917e+00
1.10439356366821917e+00
1.10439356366821917e+00
1.06607668617307549e+00
1.06607668617307549e+00
1.06607668617307549e+00
1.06392240222895174e+00
1.06392240222895174e+00
1.06392240222895174e+00
1.12688077944592058e+00
1.12688077944592058e+00
1.12688077944592058e+00
9.49878487657253356e-01
9.49878487657253356e-01
9.49878487657253356e-01
9.60059386834369310e-01
9.60059386834369310e-01
9.60059386834369310e-01
1.08028204087615953e+00
1.08028204087615953e+00
1.08028204087615953e+00
1.09027479839428687e+00
1.09027479839428687e+00
1.09027479839428687e+00
9.50777633256542076e-01
9.50777633256542076e-01
9.50777633256542076e-01
9.37018924789677743e-01
9.37018924789677743e-01
9.37018924789677743e-01
1.00273250663781766e+00
1.00273250663781766e+00
1.00273250663781766e+00
9.48108923129668213e-01
9.48108923129668213e-01
9.48108923129668213e-01
1.11590164032315520e+00
1.11590164032315520e+00
1.11590164032315520e+00
9.68857945778610508e-01
9.68857945778610508e-01
9.68857945778610508e-01
9.68421204166138638e-01
9.68421204166138638e-01
9.68421204166138638e-01
9.56427886560912821e-01
9.56427886560912821e-01
9.56427886560912821e-01
9.36929239877803521e-01
9.36929239877803521e-01
9.36929239877803521e-01
1.12750149458378823e+00
1.12750149458378823e+00
1.12750149458378823e+00
1.06557848093407315e+00
1.06557848093407315e+00
1.06557848093407315e+00
1.04310588095036705e+00
1.04310588095036705e+00
1.04310588095036705e+00
1.03190410526941512e+00
1.03190410526941512e+00
1.03190410526941512e+00
9.53614431640438798e-01
9.53614431640438798e-01
9.53614431640438798e-01
1.02528374520047350e+00
1.02528374520047350e+00
1.02528374520047350e+00
9.79278537281470629e-01
9.79278537281470629e-01
9.79278537281470629e-01
9.61839371198984883e-01
9.61839371198984883e-01
9.61839371198984883e-01
1.07393432241278086e+00
1.07393432241278086e+00
1.07393432241278086e+00
1.03391460354145037e+00
1.03391460354145037e+00
1.03391460354145037e+00
9.83408831831135366e-01
9.83408831831135366e-01
9.83408831831135366e-01
1.02694854881633346e+00
1.02694854881633346e+00
1.02694854881633346e+00
1.02289102785902619e+00
1.02289102785902619e+00
1.02289102785902619e+00
1.13021050900038289e+00
1.13021050900038289e+00
1.13021050900038289e+00
9.49423816236825147e-01
9.49423816236825147e-01
9.49423816236825147e-01
1.03042247688220900e+00
1.03042247688220900e+00
1.03042247688220900e+00
1.00921576412473213e+00
1.00921576412473213e+00
1.00921576412473213e+00
1.00201694752184989e+00
1.00201694752184989e+00
1.00201694752184989e+00
9.81802280984903630e-01
9.81802280984903630e-01
9.81802280984903630e-01
1.04387737975175132e+00
1.04387737975175132e+00
1.04387737975175132e+00
9.48982528849841134e-01
9.48982528849841134e-01
9.48982528849841134e-01
1.01691319921644863e+00
1.01691319921644863e+00
1.01691319921644863e+00
1.04002384802187020e+00
1.04002384802187020e+00
1.04002384802187020e+00
1.00276046538915820e+00
1.00276046538915820e+00
1.00276046538915820e+00
9.86991037003979943e-01
9.86991037003979943e-01
9.86991037003979943e-01
9.69488222350073037e-01
9.69488222350073037e-01
9.69488222350073037e-01
1.05588907835132617e+00
1.05588907835132617e+00
1.05588907835132617e+00
1.01420324890844138e+00
1.01420324890844138e+00
1.01420324890844138e+00
1.01161066139937517e+00
1.01161066139937517e+00
1.01161066139937517e+00
9.87295418929712620e-01
9.87295418929712620e-01
9.87295418929712620e-01
9.52107321920824701e-01
9.52107321920824701e-01
9.52107321920824701e-01
1.02183317511659699e+00
1.02183317511659699e+00
1.02183317511659699e+00
9.63090549251540584e-01
9.63090549251540584e-01
9.63090549251540584e-01
1.02978362956031555e+00
1.02978362956031555e+00
1.02978362956031555e+00
1.03155733658380444e+00
1.03155733658380444e+00
1.03155733658380444e+00
1.01924513446033371e+00
1.01924513446033371e+00
1.01924513446033371e+00
1.02006794787307054e+00
1.02006794787307054e+00
1.02006794787307054e+00
1.03294675335673025e+00
1.03294675335673025e+00
1.03294675335673025e+00
1.00281765311615811e+00
1.00281765311615811e+00
1.00281765311615811e+00
9.65649600244581241e-01
9.65649600244581241e-01
9.65649600244581241e-01
9.30988163460532259e-01
9.30988163460532259e-01
9.30988163460532259e-01
1.05288056673401353e+00
1.05288056673401353e+00
1.05288056673401353e+00
9.75541103249877861e-01
9.75541103249877861e-01
9.75541103249877861e-01
9.71922875982180301e-01
9.71922875982180301e-01
9.71922875982180301e-01
9.35987607417469669e-01
9.35987607417469669e-01
9.35987607417469669e-01
1.02002641266828986e+00
1.02002641266828986e+00
1.02002641266828986e+00
9.54404466674537932e-01
9.54404466674537932e-01
9.54404466674537932e-01
1.00863638557798718e+00
1.00863638557798718e+00
1.00863638557798718e+00
9.67890519347243572e-01
9.67890519347243572e-01
9.67890519347243572e-01
9.90406282936160731e-01
9.90406282936160731e-01
9.90406282936160731e-01
9.27763657855392054e-01
9.27763657855392054e-01
9.27763657855392054e-01
9.34647906890721081e-01
9.34647906890721081e-01
9.34647906890721081e-01
9.51574628605979966e-01
9.51574628605979966e-01
9.51574628605979966e-01
9.96021123591765423e-01
9.96021123591765423e-01
9.96021123591765423e-01
1.00192818510348158e+00
1.00192818510348158e+00
1.00192818510348158e+00
9.91288425223964764e-01
9.91288425223964764e-01
9.91288425223964764e-01
9.72431148225961550e-01
9.72431148225961550e-01
9.72431148225961550e-01
9.64136220194547366e-01
9.64136220194547366e-01
9.64136220194547366e-01
9.62911597754890547e-01
9.62911597754890547e-01
9.62911597754890547e-01
9.64445063862678476e-01
9.64445063862678476e-01
9.64445063862678476e-01
9.80658922467448346e-01
9.80658922467448346e-01
9.80658922467448346e-01
9.90228102131564758e-01
9.90228102131564758e-01
9.90228102131564758e-01
9.91757310649847512e-01
9.91757310649847512e-01
9.91757310649847512e-01
1.00295452024584653e+00
1.00295452024584653e+00
1.00295452024584653e+00
9.99637505628543033e-01
9.99637505628543033e-01
9.99637505628543033e-01
9.75542675502736101e-01
9.75542675502736101e-01
9.75542675502736101e-01
9.86544582394631941e-01
9.86544582394631941e-01
9.86544582394631941e-01
1.06992350957429694e+00
1.06992350957429694e+00
1.06992350957429694e+00
9.56221612651406372e-01
9.56221612651406372e-01
9.56221612651406372e-01
1.01491631546245764e+00
1.01491631546245764e+00
1.01491631546245764e+00
1.10825388095623922e+00
1.10825388095623922e+00
1.10825388095623922e+00
9.81405984426026334e-01
9.81405984426026334e-01
9.81405984426026334e-01
9.82334576165263318e-01
9.82334576165263318e-01
9.82334576165263318e-01
9.92222678655453993e-01
9.92222678655453993e-01
9.92222678655453993e-01
9.52759717210523771e-01
9.52759717210523771e-01
9.52759717210523771e-01
1.03885524609871061e+00
1.03885524609871061e+00
1.03885524609871061e+00
9.82086962280143916e-01
9.82086962280143916e-01
9.82086962280143916e-01
1.00025035276813012e+00
1.00025035276813012e+00
1.00025035276813012e+00
1.11421852770852947e+00
1.11421852770852947e+00
1.11421852770852947e+00
1.05275617908381802e+00
1.05275617908381802e+00
1.05275617908381802e+00
9.92280777581525775e-01
9.92280777581525775e-01
9.92280777581525775e-01
9.38165543163791305e-01
9.38165543163791305e-01
9.38165543163791305e-01
1.11437982558517246e+00
1.11437982558517246e+00
1.11437982558517246e+00
1.04141827162170997e+00
1.04141827162170997e+00
1.04141827162170997e+00
9.88689908620732805e-01
9.88689908620732805e-01
9.88689908620732805e-01
9.01511785649438235e-01
9.01511785649438235e-01
9.01511785649438235e-01
9.69757810938852827e-01
9.69757810938852827e-01
9.69757810938852827e-01
9.68559906110141866e-01
9.68559906110141866e-01
9.68559906110141866e-01
9.89714663127090555e-01
9.89714663127090555e-01
9.89714663127090555e-01
1.02000357075233872e+00
1.02000357075233872e+00
1.02000357075233872e+00
9.83751068766255843e-01
9.83751068766255843e-01
9.83751068766255843e-01
9.10411565242372656e-01
9.10411565242372656e-01
9.10411565242372656e-01
9.61117954519529194e-01
9.61117954519529194e-01
9.61117954519529194e-01
1.03316576419472805e+00
1.03316576419472805e+00
1.03316576419472805e+00
9.77240911905286724e-01
9.77240911905286724e-01
9.77240911905286724e-01
9.49688321296973337e-01
9.49688321296973337e-01
9.49688321296973337e-01
9.63840379810783965e-01
9.63840379810783965e-01
9.63840379810783965e-01
1.01449329013925849e+00
1.01449329013925849e+00
1.01449329013925849e+00
9.61773311858726276e-01
9.61773311858726276e-01
9.61773311858726276e-01
1.10371271421054917e+00
1.10371271421054917e+00
1.10371271421054917e+00
9.45887269966804500e-01
9.45887269966804500e-01
9.45887269966804500e-01
9.50064201677694786e-01
9.50064201677694786e-01
9.50064201677694786e-01
9.88951768764691819e-01
9.88951768764691819e-01
9.88951768764691819e-01
9.83000256152059215e-01
9.83000256152059215e-01
9.83000256152059215e-01
9.69999849723392149e-01
9.69999849723392149e-01
9.69999849723392149e-01
1.08028150685719204e+00
1.08028150685719204e+00
1.08028150685719204e+00
9.69827104184443733e-01
9.69827104184443733e-01
9.69827104184443733e-01
9.51321721806443477e-01
9.51321721806443477e-01
9.51321721806443477e-01
9.55288325220207901e-01
9.55288325220207901e-01
9.55288325220207901e-01
1.01767170859920952e+00
1.01767170859920952e+00
1.01767170859920952e+00
9.36170609519439867e-01
9.36170609519439867e-01
9.36170609519439867e-01
9.85997510475520866e-01
9.85997510475520866e-01
9.85997510475520866e-01
1.00243516954221468e+00
1.00243516954221468e+00
1.00243516954221468e+00
1.00144579965310720e+00
1.00144579965310720e+00
1.00144579965310720e+00
1.01527960041722887e+00
1.01527960041722887e+00
1.01527960041722887e+00
1.01446460340494760e+00
1.01446460340494760e+00
1.01446460340494760e+00
9.85596655301817948e-01
9.85596655301817948e-01
9.85596655301817948e-01
1.01152848278128071e+00
1.01152848278128071e+00
1.01152848278128071e+00
9.94794958128001228e-01
9.94794958128001228e-01
9.94794958128001228e-01
1.00918842829714528e+00
1.00918842829714528e+00
1.00918842829714528e+00
9.94540168999891949e-01
9.94540168999891949e-01
9.94540168999891949e-01
1.00147669425574537e+00
1.00147669425574537e+00
1.00147669425574537e+00
9.96347551277684151e-01
9.96347551277684151e-01
9.96347551277684151e-01
9.87653259010373596e-01
9.87653259010373596e-01
9.87653259010373596e-01
9.61970014657518302e-01
9.61970014657518302e-01
9.61970014657518302e-01
9.92030179872198992e-01
9.92030179872198992e-01
9.92030179872198992e-01
9.67896796020122796e-01
9.67896796020122796e-01
9.67896796020122796e-01
1.02907183306839345e+00
1.02907183306839345e+00
1.02907183306839345e+00
1.01683056460652921e+00
1.01683056460652921e+00
1.01683056460652921e+00
9.72480985000558351e-01
9.72480985000558351e-01
9.72480985000558351e-01
1.00440483636542455e+00
1.00440483636542455e+00
1.00440483636542455e+00
9.61461250250517985e-01
9.61461250250517985e-01
9.61461250250517985e-01
1.03315988269154002e+00
1.03315988269154002e+00
1.03315988269154002e+00


        </DataArray>

      </PointData>

      <CellData/>

      <Points>

        <DataArray type="Float64" NumberOfComponents="3" format="ascii">

0.1082531754723032 0.6875000000007816 0 0.23533274979922561 0.77093399389351469 0 0.10409951422139101 0.81206782209691231 0 0.23533274979922561 0.77093399389351469 0 0.1082531754723032 0.6875000000007816 0 0.21809253452218619 0.65480892822618109 0 0.24418615484441761 0.35773612382016978 0 0.121259140952891 0.43112117036853742 0 0.1082531754734323 0.31250000000117473 0 0.75000000000057243 0.35048094716480432 0 0.88173731489851925 0.33077402607778361 0 0.81242894672211508 0.45500248311961472 0 0.121259140952891 0.43112117036853742 0 0.24418615484441761 0.35773612382016978 0 0.22257735880419699 0.47344721641341742 0 0.81242894672211508 0.45500248311961472 0 0.88173731489851925 0.33077402607778361 0 0.915464298762109 0.43749999999886913 0 0 0.62500000000121547 0 0 0.50000000000206146 0 0.1371230538040123 0.56179824718362847 0 0.82212678063041267 0.67678595194836966 0 0.89051480781310632 0.79665793440246835 0 0.76243180583607129 0.78687675331113149 0 0.76243180583607129 0.78687675331113149 0 0.69010814643829166 0.89298495739101336 0 0.62844955668446423 0.7850749770380413 0 0.89051480781310632 0.79665793440246835 0 0.82212678063041267 0.67678595194836966 0 0.92266244547590082 0.68749999999917555 0 0 0.50000000000206146 0 0.121259140952891 0.43112117036853742 0 0.1371230538040123 0.56179824718362847 0 0.1082531754723032 0.6875000000007816 0 0 0.62500000000121547 0 0.1371230538040123 0.56179824718362847 0 0.75000000000032374 0.56698729811007709 0 0.88927506082488361 0.56409486310635837 0 0.82212678063041267 0.67678595194836966 0 0.81242894672211508 0.45500248311961472 0 0.88927506082488361 0.56409486310635837 0 0.75000000000032374 0.56698729811007709 0 0.69851598570178741 0.68211701800612057 0 0.56496004948275869 0.67675037307860475 0 0.62752533658682441 0.56838075195614346 0 0.69851598570178741 0.68211701800612057 0 0.76243180583607129 0.78687675331113149 0 0.62844955668446423 0.7850749770380413 0 0.23533274979922561 0.77093399389351469 0 0.18802967116092181 0.89415349436770275 0 0.10409951422139101 0.81206782209691231 0 0.121259140952891 0.43112117036853742 0 0.22257735880419699 0.47344721641341742 0 0.1371230538040123 0.56179824718362847 0 0.75000000000032374 0.56698729811007709 0 0.69851598570178741 0.68211701800612057 0 0.62752533658682441 0.56838075195614346 0 0.56496004948275869 0.67675037307860475 0 0.69851598570178741 0.68211701800612057 0 0.62844955668446423 0.7850749770380413 0 0.1371230538040123 0.56179824718362847 0 0.22257735880419699 0.47344721641341742 0 0.26982811998763367 0.56544650815856912 0 0.21809253452218619 0.65480892822618109 0 0.1371230538040123 0.56179824718362847 0 0.26982811998763367 0.56544650815856912 0 0.24418615484441761 0.35773612382016978 0 0.1082531754734323 0.31250000000117473 0 0.20767261601459541 0.25628918442207171 0 0.88173731489851925 0.33077402607778361 0 0.75000000000057243 0.35048094716480432 0 0.79891106056046712 0.25007334953587562 0 0.75000000000032374 0.56698729811007709 0 0.82212678063041267 0.67678595194836966 0 0.69851598570178741 0.68211701800612057 0 0.81249999999950517 0.1082531754733404 0 0.89658421694297741 0.1933620068391701 0 0.79891106056046712 0.25007334953587562 0 0.81249999999950517 0.1082531754733404 0 0.79891106056046712 0.25007334953587562 0 0.73983916756365475 0.17530677078674589 0 0.23533274979922561 0.77093399389351469 0 0.21809253452218619 0.65480892822618109 0 0.32607333794064219 0.67760114260606152 0 0.1082531754723032 0.6875000000007816 0 0.1371230538040123 0.56179824718362847 0 0.21809253452218619 0.65480892822618109 0 0.69851598570178741 0.68211701800612057 0 0.82212678063041267 0.67678595194836966 0 0.76243180583607129 0.78687675331113149 0 0.69010814643829166 0.89298495739101336 0 0.76243180583607129 0.78687675331113149 0 0.80886664387416207 0.89717308644237903 0 0.43750000000181222 0.89174682452709564 0 0.31258827852827581 0.89214793616708443 0 0.37776173212361452 0.78514649317305008 0 0.43750000000181222 0.89174682452709564 0 0.37500000000156292 1 0 0.31258827852827581 0.89214793616708443 0 0.121259140952891 0.43112117036853742 0 0 0.37500000000156292 0 0.1082531754734323 0.31250000000117473 0 0.50000000000206146 1 0 0.37500000000156292 1 0 0.43750000000181222 0.89174682452709564 0 0.31258827852827581 0.89214793616708443 0 0.18802967116092181 0.89415349436770275 0 0.23533274979922561 0.77093399389351469 0 0 0.50000000000206146 0 0 0.37500000000156292 0 0.121259140952891 0.43112117036853742 0 0.62844955668446423 0.7850749770380413 0 0.69010814643829166 0.89298495739101336 0 0.56327595140699671 0.89211526915426331 0 0.69010814643829166 0.89298495739101336 0 0.62500000000121547 1 0 0.56327595140699671 0.89211526915426331 0 0.25000000000104189 1 0 0.18802967116092181 0.89415349436770275 0 0.31258827852827581 0.89214793616708443 0 0.50000000000206146 1 0 0.43750000000181222 0.89174682452709564 0 0.56327595140699671 0.89211526915426331 0 0.56249999999885147 0.1082531754730395 0 0.62499999999901068 0 0 0.68749999999926592 0.1082531754732875 0 1 0.49999999999869221 0 1 0.62499999999901068 0 0.88927506082488361 0.56409486310635837 0 0 0.25000000000104189 0 0.12076953676380731 0.18690935762408761 0 0.1082531754734323 0.31250000000117473 0 0.49999999999869221 0 0 0.62499999999901068 0 0 0.56249999999885147 0.1082531754730395 0 0.62500000000121547 1 0 0.50000000000206146 1 0 0.56327595140699671 0.89211526915426331 0 0.37500000000156292 1 0 0.25000000000104189 1 0 0.31258827852827581 0.89214793616708443 0 0.31281086598417152 0.10449318608631281 0 0.37499999999904599 0 0 0.43749999999910871 0.1082531754729984 0 0.43750000000181222 0.89174682452709564 0 0.37776173212361452 0.78514649317305008 0 0.50046028868828263 0.78376912307435687 0 0 0.37500000000156292 0 0 0.25000000000104189 0 0.1082531754734323 0.31250000000117473 0 0.49999999999869221 0 0 0.56249999999885147 0.1082531754730395 0 0.43749999999910871 0.1082531754729984 0 0.43750000000181222 0.89174682452709564 0 0.50046028868828263 0.78376912307435687 0 0.56327595140699671 0.89211526915426331 0 0.74999999999934042 0 0 0.81249999999950517 0.1082531754733404 0 0.68749999999926592 0.1082531754732875 0 0.37499999999904599 0 0 0.49999999999869221 0 0 0.43749999999910871 0.1082531754729984 0 0.25000000000104189 1 0 0.12500000000052089 1 0 0.18802967116092181 0.89415349436770275 0 0.50046028868828263 0.78376912307435687 0 0.62844955668446423 0.7850749770380413 0 0.56327595140699671 0.89211526915426331 0 0.37776173212361452 0.78514649317305008 0 0.31258827852827581 0.89214793616708443 0 0.23533274979922561 0.77093399389351469 0 0.62499999999901068 0 0 0.74999999999934042 0 0 0.68749999999926592 0.1082531754732875 0 1 0.74999999999934042 0 1 0.87499999999967015 0 0.89051480781310632 0.79665793440246835 0 0 0.25000000000104189 0 0 0.12500000000052089 0 0.12076953676380731 0.18690935762408761 0 0.74999999999934042 0 0 0.87499999999967015 0 0 0.81249999999950517 0.1082531754733404 0 0.24999999999941069 0 0 0.37499999999904599 0 0 0.31281086598417152 0.10449318608631281 0 0.50046028868828263 0.78376912307435687 0 0.37776173212361452 0.78514649317305008 0 0.44078402250377968 0.67714785211715212 0 0.68768773896438518 0.4586835206367198 0 0.75000000000032374 0.56698729811007709 0 0.62752533658682441 0.56838075195614346 0 0.31411863959822661 0.24965544328045999 0 0.37953773393552892 0.34812185820708452 0 0.24418615484441761 0.35773612382016978 0 0.68768773896438518 0.4586835206367198 0 0.81242894672211508 0.45500248311961472 0 0.75000000000032374 0.56698729811007709 0 1 0.24999999999941069 0 1 0.37499999999904599 0 0.88173731489851925 0.33077402607778361 0 0 0.75000000000034761 0 0 0.62500000000121547 0 0.1082531754723032 0.6875000000007816 0 0.50048844149666749 0.56727788297625459 0 0.44078402250377968 0.67714785211715212 0 0.38694285807596462 0.5672991787102919 0 0.50108503093851109 0.35012252869403671 0 0.44301038174930041 0.45684931552185398 0 0.37953773393552892 0.34812185820708452 0 0.50046028868828263 0.78376912307435687 0 0.56496004948275869 0.67675037307860475 0 0.62844955668446423 0.7850749770380413 0 0.68768773896438518 0.4586835206367198 0 0.75000000000057243 0.35048094716480432 0 0.81242894672211508 0.45500248311961472 0 0.56349980387502452 0.45846841892908402 0 0.62512662990940393 0.35044303886909911 0 0.68768773896438518 0.4586835206367198 0 0.50048844149666749 0.56727788297625459 0 0.38694285807596462 0.5672991787102919 0 0.44301038174930041 0.45684931552185398 0 0.50046028868828263 0.78376912307435687 0 0.44078402250377968 0.67714785211715212 0 0.56496004948275869 0.67675037307860475 0 0.50108503093851109 0.35012252869403671 0 0.37953773393552892 0.34812185820708452 0 0.43750000000200551 0.24222777169198509 0 0.75000000000034761 1 0 0.62500000000121547 1 0 0.69010814643829166 0.89298495739101336 0 0.68768773896438518 0.4586835206367198 0 0.62512662990940393 0.35044303886909911 0 0.75000000000057243 0.35048094716480432 0 0.56496004948275869 0.67675037307860475 0 0.44078402250377968 0.67714785211715212 0 0.50048844149666749 0.56727788297625459 0 0.56349980387502452 0.45846841892908402 0 0.44301038174930041 0.45684931552185398 0 0.50108503093851109 0.35012252869403671 0 0.50048844149666749 0.56727788297625459 0 0.44301038174930041 0.45684931552185398 0 0.56349980387502452 0.45846841892908402 0 0.56349980387502452 0.45846841892908402 0 0.50108503093851109 0.35012252869403671 0 0.62512662990940393 0.35044303886909911 0 0.43750000000200551 0.24222777169198509 0 0.37953773393552892 0.34812185820708452 0 0.31411863959822661 0.24965544328045999 0 0.56496004948275869 0.67675037307860475 0 0.50048844149666749 0.56727788297625459 0 0.62752533658682441 0.56838075195614346 0 0.56349980387502452 0.45846841892908402 0 0.68768773896438518 0.4586835206367198 0 0.62752533658682441 0.56838075195614346 0 0.50048844149666749 0.56727788297625459 0 0.56349980387502452 0.45846841892908402 0 0.62752533658682441 0.56838075195614346 0 0.75000000000057243 0.35048094716480432 0 0.62512662990940393 0.35044303886909911 0 0.68668231842078242 0.24762892664808989 0 0.50108503093851109 0.35012252869403671 0 0.43750000000200551 0.24222777169198509 0 0.56250000000143974 0.2422277716920859 0 0.62512662990940393 0.35044303886909911 0 0.50108503093851109 0.35012252869403671 0 0.56250000000143974 0.2422277716920859 0 0.68668231842078242 0.24762892664808989 0 0.62512662990940393 0.35044303886909911 0 0.56250000000143974 0.2422277716920859 0 0.22257735880419699 0.47344721641341742 0 0.24418615484441761 0.35773612382016978 0 0.32815957677880009 0.4577243358118348 0 0.12076953676380731 0.18690935762408761 0 0.19185372118111221 0.092925648673580788 0 0.25103557339309318 0.17464499738446629 0 0.20767261601459541 0.25628918442207171 0 0.12076953676380731 0.18690935762408761 0 0.25103557339309318 0.17464499738446629 0 0 0.87499999999950151 0 0 0.75000000000034761 0 0.10409951422139101 0.81206782209691231 0 0.1249999999997731 0 0 0.24999999999941069 0 0 0.19185372118111221 0.092925648673580788 0 1 0.1249999999997731 0 1 0.24999999999941069 0 0.89658421694297741 0.1933620068391701 0 0.88927506082488361 0.56409486310635837 0 0.81242894672211508 0.45500248311961472 0 0.915464298762109 0.43749999999886913 0 0.87499999999950151 1 0 0.75000000000034761 1 0 0.80886664387416207 0.89717308644237903 0 0.75000000000034761 1 0 0.69010814643829166 0.89298495739101336 0 0.80886664387416207 0.89717308644237903 0 0.82212678063041267 0.67678595194836966 0 0.88927506082488361 0.56409486310635837 0 0.92266244547590082 0.68749999999917555 0 0 0.75000000000034761 0 0.1082531754723032 0.6875000000007816 0 0.10409951422139101 0.81206782209691231 0 0.24999999999941069 0 0 0.31281086598417152 0.10449318608631281 0 0.19185372118111221 0.092925648673580788 0 1 0.24999999999941069 0 0.88173731489851925 0.33077402607778361 0 0.89658421694297741 0.1933620068391701 0 0.32815957677880009 0.4577243358118348 0 0.38694285807596462 0.5672991787102919 0 0.26982811998763367 0.56544650815856912 0 0.76243180583607129 0.78687675331113149 0 0.89051480781310632 0.79665793440246835 0 0.80886664387416207 0.89717308644237903 0 0.38694285807596462 0.5672991787102919 0 0.44078402250377968 0.67714785211715212 0 0.32607333794064219 0.67760114260606152 0 0.37776173212361452 0.78514649317305008 0 0.23533274979922561 0.77093399389351469 0 0.32607333794064219 0.67760114260606152 0 1 0.49999999999869221 0 0.88927506082488361 0.56409486310635837 0 0.915464298762109 0.43749999999886913 0 0.88173731489851925 0.33077402607778361 0 1 0.37499999999904599 0 0.915464298762109 0.43749999999886913 0 0.24418615484441761 0.35773612382016978 0 0.37953773393552892 0.34812185820708452 0 0.32815957677880009 0.4577243358118348 0 0.44301038174930041 0.45684931552185398 0 0.38694285807596462 0.5672991787102919 0 0.32815957677880009 0.4577243358118348 0 0.88927506082488361 0.56409486310635837 0 1 0.62499999999901068 0 0.92266244547590082 0.68749999999917555 0 1 0.74999999999934042 0 0.89051480781310632 0.79665793440246835 0 0.92266244547590082 0.68749999999917555 0 0 1 0 0 0.87499999999950151 0 0.091506350946494744 0.90849364905351082 0 1 1 0 0.87499999999950151 1 0 0.90849364905363228 0.90849364905367769 0 0 0 0 0.1249999999997731 0 0 0.091506350946417708 0.091506350946618076 0 0 0.12500000000052089 0 0 0 0 0.091506350946417708 0.091506350946618076 0 1 0 0 1 0.1249999999997731 0 0.90849364905355434 0.091506350946296292 0 0.87499999999967015 0 0 1 0 0 0.90849364905355434 0.091506350946296292 0 0.12500000000052089 1 0 0 1 0 0.091506350946494744 0.90849364905351082 0 1 0.87499999999967015 0 1 1 0 0.90849364905363228 0.90849364905367769 0 0.38694285807596462 0.5672991787102919 0 0.32607333794064219 0.67760114260606152 0 0.26982811998763367 0.56544650815856912 0 0.31411863959822661 0.24965544328045999 0 0.24418615484441761 0.35773612382016978 0 0.20767261601459541 0.25628918442207171 0 0.1082531754734323 0.31250000000117473 0 0.12076953676380731 0.18690935762408761 0 0.20767261601459541 0.25628918442207171 0 0.75000000000057243 0.35048094716480432 0 0.68668231842078242 0.24762892664808989 0 0.79891106056046712 0.25007334953587562 0 0.22257735880419699 0.47344721641341742 0 0.32815957677880009 0.4577243358118348 0 0.26982811998763367 0.56544650815856912 0 0.44078402250377968 0.67714785211715212 0 0.37776173212361452 0.78514649317305008 0 0.32607333794064219 0.67760114260606152 0 0.89658421694297741 0.1933620068391701 0 0.88173731489851925 0.33077402607778361 0 0.79891106056046712 0.25007334953587562 0 1 0.37499999999904599 0 1 0.49999999999869221 0 0.915464298762109 0.43749999999886913 0 0.37953773393552892 0.34812185820708452 0 0.44301038174930041 0.45684931552185398 0 0.32815957677880009 0.4577243358118348 0 0.32607333794064219 0.67760114260606152 0 0.21809253452218619 0.65480892822618109 0 0.26982811998763367 0.56544650815856912 0 1 0.1249999999997731 0 0.89658421694297741 0.1933620068391701 0 0.90849364905355434 0.091506350946296292 0 0 0.87499999999950151 0 0.10409951422139101 0.81206782209691231 0 0.091506350946494744 0.90849364905351082 0 0.1249999999997731 0 0 0.19185372118111221 0.092925648673580788 0 0.091506350946417708 0.091506350946618076 0 1 0.62499999999901068 0 1 0.74999999999934042 0 0.92266244547590082 0.68749999999917555 0 0.18802967116092181 0.89415349436770275 0 0.12500000000052089 1 0 0.091506350946494744 0.90849364905351082 0 0.89051480781310632 0.79665793440246835 0 1 0.87499999999967015 0 0.90849364905363228 0.90849364905367769 0 0.12076953676380731 0.18690935762408761 0 0 0.12500000000052089 0 0.091506350946417708 0.091506350946618076 0 0.81249999999950517 0.1082531754733404 0 0.87499999999967015 0 0 0.90849364905355434 0.091506350946296292 0 0.87499999999950151 1 0 0.80886664387416207 0.89717308644237903 0 0.90849364905363228 0.90849364905367769 0 0.68668231842078242 0.24762892664808989 0 0.62499999999892575 0.17524047358135519 0 0.73983916756365475 0.17530677078674589 0 0.31281086598417152 0.10449318608631281 0 0.43749999999910871 0.1082531754729984 0 0.37500000000232431 0.17524047358384309 0 0.62499999999892575 0.17524047358135519 0 0.56250000000143974 0.2422277716920859 0 0.49999999999934441 0.1752404735815076 0 0.56249999999885147 0.1082531754730395 0 0.68749999999926592 0.1082531754732875 0 0.62499999999892575 0.17524047358135519 0 0.56249999999885147 0.1082531754730395 0 0.62499999999892575 0.17524047358135519 0 0.49999999999934441 0.1752404735815076 0 0.56250000000143974 0.2422277716920859 0 0.43750000000200551 0.24222777169198509 0 0.49999999999934441 0.1752404735815076 0 0.43749999999910871 0.1082531754729984 0 0.56249999999885147 0.1082531754730395 0 0.49999999999934441 0.1752404735815076 0 0.68668231842078242 0.24762892664808989 0 0.56250000000143974 0.2422277716920859 0 0.62499999999892575 0.17524047358135519 0 0.43750000000200551 0.24222777169198509 0 0.31411863959822661 0.24965544328045999 0 0.37500000000232431 0.17524047358384309 0 0.49999999999934441 0.1752404735815076 0 0.43750000000200551 0.24222777169198509 0 0.37500000000232431 0.17524047358384309 0 0.43749999999910871 0.1082531754729984 0 0.49999999999934441 0.1752404735815076 0 0.37500000000232431 0.17524047358384309 0 0.62499999999892575 0.17524047358135519 0 0.68749999999926592 0.1082531754732875 0 0.73983916756365475 0.17530677078674589 0 0.68749999999926592 0.1082531754732875 0 0.81249999999950517 0.1082531754733404 0 0.73983916756365475 0.17530677078674589 0 0.10409951422139101 0.81206782209691231 0 0.18802967116092181 0.89415349436770275 0 0.091506350946494744 0.90849364905351082 0 0.89658421694297741 0.1933620068391701 0 0.81249999999950517 0.1082531754733404 0 0.90849364905355434 0.091506350946296292 0 0.19185372118111221 0.092925648673580788 0 0.12076953676380731 0.18690935762408761 0 0.091506350946417708 0.091506350946618076 0 0.37500000000232431 0.17524047358384309 0 0.31411863959822661 0.24965544328045999 0 0.25103557339309318 0.17464499738446629 0 0.31281086598417152 0.10449318608631281 0 0.37500000000232431 0.17524047358384309 0 0.25103557339309318 0.17464499738446629 0 0.80886664387416207 0.89717308644237903 0 0.89051480781310632 0.79665793440246835 0 0.90849364905363228 0.90849364905367769 0 0.19185372118111221 0.092925648673580788 0 0.31281086598417152 0.10449318608631281 0 0.25103557339309318 0.17464499738446629 0 0.79891106056046712 0.25007334953587562 0 0.68668231842078242 0.24762892664808989 0 0.73983916756365475 0.17530677078674589 0 0.31411863959822661 0.24965544328045999 0 0.20767261601459541 0.25628918442207171 0 0.25103557339309318 0.17464499738446629 0 

        </DataArray>

      </Points>

      <Cells>

        <DataArray type="Int32" Name="connectivity" format="ascii">

0 1 2 3 4 5 6 7 8 9 10 11 12 13 14 15 16 17 18 19 20 21 22 23 24 25 26 27 28 29 30 31 32 33 34 35 36 37 38 39 40 41 42 43 44 45 46 47 48 49 50 51 52 53 54 55 56 57 58 59 60 61 62 63 64 65 66 67 68 69 70 71 72 73 74 75 76 77 78 79 80 81 82 83 84 85 86 87 88 89 90 91 92 93 94 95 96 97 98 99 100 101 102 103 104 105 106 107 108 109 110 111 112 113 114 115 116 117 118 119 120 121 122 123 124 125 126 127 128 129 130 131 132 133 134 135 136 137 138 139 140 141 142 143 144 145 146 147 148 149 150 151 152 153 154 155 156 157 158 159 160 161 162 163 164 165 166 167 168 169 170 171 172 173 174 175 176 177 178 179 180 181 182 183 184 185 186 187 188 189 190 191 192 193 194 195 196 197 198 199 200 201 202 203 204 205 206 207 208 209 210 211 212 213 214 215 216 217 218 219 220 221 222 223 224 225 226 227 228 229 230 231 232 233 234 235 236 237 238 239 240 241 242 243 244 245 246 247 248 249 250 251 252 253 254 255 256 257 258 259 260 261 262 263 264 265 266 267 268 269 270 271 272 273 274 275 276 277 278 279 280 281 282 283 284 285 286 287 288 289 290 291 292 293 294 295 296 297 298 299 300 301 302 303 304 305 306 307 308 309 310 311 312 313 314 315 316 317 318 319 320 321 322 323 324 325 326 327 328 329 330 331 332 333 334 335 336 337 338 339 340 341 342 343 344 345 346 347 348 349 350 351 352 353 354 355 356 357 358 359 360 361 362 363 364 365 366 367 368 369 370 371 372 373 374 375 376 377 378 379 380 381 382 383 384 385 386 387 388 389 390 391 392 393 394 395 396 397 398 399 400 401 402 403 404 405 406 407 408 409 410 411 412 413 414 415 416 417 418 419 420 421 422 423 424 425 426 427 428 429 430 431 432 433 434 435 436 437 438 439 440 441 442 443 444 445 446 447 448 449 450 451 452 453 454 455 456 457 458 459 460 461 462 463 464 465 466 467 468 469 470 471 472 473 474 475 476 477 478 479 480 481 482 483 484 485 

        </DataArray>

        <DataArray type="Int32" Name="offsets" format="ascii">

3 6 9 12 15 18 21 24 27 30 33 36 39 42 45 48 51 54 57 60 63 66 69 72 75 78 81 84 87 90 93 96 99 102 105 108 111 114 117 120 123 126 129 132 135 138 141 144 147 150 153 156 159 162 165 168 171 174 177 180 183 186 189 192 195 198 201 204 207 210 213 216 219 222 225 228 231 234 237 240 243 246 249 252 255 258 261 264 267 270 273 276 279 282 285 288 291 294 297 300 303 306 309 312 315 318 321 324 327 330 333 336 339 342 345 348 351 354 357 360 363 366 369 372 375 378 381 384 387 390 393 396 399 402 405 408 411 414 417 420 423 426 429 432 435 438 441 444 447 450 453 456 459 462 465 468 471 474 477 480 483 486 

        </DataArray>

        <DataArray type="Int32" Name="types" format="ascii">

5 5 5 5 5 5 5 5 5 5 5 5 5 5 5 5 5 5 5 5 5 5 5 5 5 5 5 5 5 5 5 5 5 5 5 5 5 5 5 5 5 5 5 5 5 5 5 5 5 5 5 5 5 5 5 5 5 5 5 5 5 5 5 5 5 5 5 5 5 5 5 5 5 5 5 5 5 5 5 5 5 5 5 5 5 5 5 5 5 5 5 5 5 5 5 5 5 5 5 5 5 5 5 5 5 5 5 5 5 5 5 5 5 5 5 5 5 5 5 5 5 5 5 5 5 5 5 5 5 5 5 5 5 5 5 5 5 5 5 5 5 5 5 5 5 5 5 5 5 5 5 5 5 5 5 5 5 5 5 5 5 5 

        </DataArray>

      </Cells>

    </Piece>

  </UnstructuredGrid>

</VTKFile>

