<?xml version="1.0"?>

<VTKFile type="UnstructuredGrid" version="0.1">

  <UnstructuredGrid>

    <Piece NumberOfPoints="486" NumberOfCells="162">

      <PointData>

        <DataArray type="Float64" Name="K" format="ascii">

9.92982700647081606e-01
9.92982700647081606e-01
9.92982700647081606e-01
1.00089012602088689e+00
1.00089012602088689e+00
1.00089012602088689e+00
9.74990520229762847e-01
9.74990520229762847e-01
9.74990520229762847e-01
1.06594051592889794e+00
1.06594051592889794e+00
1.06594051592889794e+00
9.73054682496454881e-01
9.73054682496454881e-01
9.73054682496454881e-01
1.06507878398044586e+00
1.06507878398044586e+00
1.06507878398044586e+00
9.97258772196034537e-01
9.97258772196034537e-01
9.97258772196034537e-01
9.96556381425526272e-01
9.96556381425526272e-01
9.96556381425526272e-01
9.98545395428855231e-01
9.98545395428855231e-01
9.98545395428855231e-01
9.85913569437235071e-01
9.85913569437235071e-01
9.85913569437235071e-01
9.92590155334120983e-01
9.92590155334120983e-01
9.92590155334120983e-01
9.89052879763757997e-01
9.89052879763757997e-01
9.89052879763757997e-01
1.01260262991584105e+00
1.01260262991584105e+00
1.01260262991584105e+00
1.03162640146412410e+00
1.03162640146412410e+00
1.03162640146412410e+00
9.77808374536359937e-01
9.77808374536359937e-01
9.77808374536359937e-01
9.99542847903872822e-01
9.99542847903872822e-01
9.99542847903872822e-01
1.00480481608766481e+00
1.00480481608766481e+00
1.00480481608766481e+00
9.81241581258236351e-01
9.81241581258236351e-01
9.81241581258236351e-01
1.00199415041334072e+00
1.00199415041334072e+00
1.00199415041334072e+00
9.81493327712315233e-01
9.81493327712315233e-01
9.81493327712315233e-01
9.80986797653801590e-01
9.80986797653801590e-01
9.80986797653801590e-01
9.89643517307100873e-01
9.89643517307100873e-01
9.89643517307100873e-01
9.73812473775856224e-01
9.73812473775856224e-01
9.73812473775856224e-01
1.06973156057481655e+00
1.06973156057481655e+00
1.06973156057481655e+00
1.01087750082543959e+00
1.01087750082543959e+00
1.01087750082543959e+00
1.05031802936200913e+00
1.05031802936200913e+00
1.05031802936200913e+00
1.04807518634523800e+00
1.04807518634523800e+00
1.04807518634523800e+00
1.01952593591307061e+00
1.01952593591307061e+00
1.01952593591307061e+00
9.89447416790730117e-01
9.89447416790730117e-01
9.89447416790730117e-01
1.00518148693562037e+00
1.00518148693562037e+00
1.00518148693562037e+00
1.00579835445823362e+00
1.00579835445823362e+00
1.00579835445823362e+00
1.03220161481319717e+00
1.03220161481319717e+00
1.03220161481319717e+00
1.02724558910808006e+00
1.02724558910808006e+00
1.02724558910808006e+00
9.81422406177889006e-01
9.81422406177889006e-01
9.81422406177889006e-01
1.01427271085421156e+00
1.01427271085421156e+00
1.01427271085421156e+00
1.02721808394674174e+00
1.02721808394674174e+00
1.02721808394674174e+00
9.93924346398921243e-01
9.93924346398921243e-01
9.93924346398921243e-01
9.86680400194388851e-01
9.86680400194388851e-01
9.86680400194388851e-01
9.82622799377313116e-01
9.82622799377313116e-01
9.82622799377313116e-01
1.01886404443130130e+00
1.01886404443130130e+00
1.01886404443130130e+00
9.98717423479743016e-01
9.98717423479743016e-01
9.98717423479743016e-01
1.00634598822464016e+00
1.00634598822464016e+00
1.00634598822464016e+00
9.94997881090664893e-01
9.94997881090664893e-01
9.94997881090664893e-01
9.70233314234615674e-01
9.70233314234615674e-01
9.70233314234615674e-01
9.93413683409369086e-01
9.93413683409369086e-01
9.93413683409369086e-01
9.81998269344599994e-01
9.81998269344599994e-01
9.81998269344599994e-01
1.02006788179720798e+00
1.02006788179720798e+00
1.02006788179720798e+00
9.85716140007489527e-01
9.85716140007489527e-01
9.85716140007489527e-01
1.01199266977330593e+00
1.01199266977330593e+00
1.01199266977330593e+00
9.77774176908237314e-01
9.77774176908237314e-01
9.77774176908237314e-01
9.77392598243953525e-01
9.77392598243953525e-01
9.77392598243953525e-01
9.95401073667839031e-01
9.95401073667839031e-01
9.95401073667839031e-01
1.01400449226771450e+00
1.01400449226771450e+00
1.01400449226771450e+00
9.84113630978586729e-01
9.84113630978586729e-01
9.84113630978586729e-01
9.99943830045590731e-01
9.99943830045590731e-01
9.99943830045590731e-01
9.81388608526666428e-01
9.81388608526666428e-01
9.81388608526666428e-01
1.03866887596644397e+00
1.03866887596644397e+00
1.03866887596644397e+00
1.00389197012426812e+00
1.00389197012426812e+00
1.00389197012426812e+00
9.89245392831480053e-01
9.89245392831480053e-01
9.89245392831480053e-01
9.72087626686872097e-01
9.72087626686872097e-01
9.72087626686872097e-01
9.94166588742429247e-01
9.94166588742429247e-01
9.94166588742429247e-01
1.01038193795805586e+00
1.01038193795805586e+00
1.01038193795805586e+00
1.00115361128540559e+00
1.00115361128540559e+00
1.00115361128540559e+00
1.00855584630054151e+00
1.00855584630054151e+00
1.00855584630054151e+00
9.50276516640170543e-01
9.50276516640170543e-01
9.50276516640170543e-01
1.03381372379717673e+00
1.03381372379717673e+00
1.03381372379717673e+00
1.07328729631107045e+00
1.07328729631107045e+00
1.07328729631107045e+00
9.77168751064554586e-01
9.77168751064554586e-01
9.77168751064554586e-01
9.68141569127061508e-01
9.68141569127061508e-01
9.68141569127061508e-01
9.28081891756841859e-01
9.28081891756841859e-01
9.28081891756841859e-01
9.72240878025499633e-01
9.72240878025499633e-01
9.72240878025499633e-01
1.04753416659882248e+00
1.04753416659882248e+00
1.04753416659882248e+00
9.98847939697498077e-01
9.98847939697498077e-01
9.98847939697498077e-01
9.51079131980714365e-01
9.51079131980714365e-01
9.51079131980714365e-01
9.72001517514114233e-01
9.72001517514114233e-01
9.72001517514114233e-01
9.26360201652159931e-01
9.26360201652159931e-01
9.26360201652159931e-01
9.90343235415999446e-01
9.90343235415999446e-01
9.90343235415999446e-01
1.03447396142666093e+00
1.03447396142666093e+00
1.03447396142666093e+00
9.59149949377647082e-01
9.59149949377647082e-01
9.59149949377647082e-01
9.41729265661536363e-01
9.41729265661536363e-01
9.41729265661536363e-01
9.43544828180993056e-01
9.43544828180993056e-01
9.43544828180993056e-01
9.71135656989552953e-01
9.71135656989552953e-01
9.71135656989552953e-01
9.34427798418388411e-01
9.34427798418388411e-01
9.34427798418388411e-01
9.56020180594232660e-01
9.56020180594232660e-01
9.56020180594232660e-01
9.85957932676470916e-01
9.85957932676470916e-01
9.85957932676470916e-01
9.56155834491899337e-01
9.56155834491899337e-01
9.56155834491899337e-01
1.04465753568706887e+00
1.04465753568706887e+00
1.04465753568706887e+00
9.46198013348523270e-01
9.46198013348523270e-01
9.46198013348523270e-01
9.79362009454501692e-01
9.79362009454501692e-01
9.79362009454501692e-01
1.02046257627172943e+00
1.02046257627172943e+00
1.02046257627172943e+00
9.63098611630088808e-01
9.63098611630088808e-01
9.63098611630088808e-01
9.92411365808573809e-01
9.92411365808573809e-01
9.92411365808573809e-01
9.83604220160381959e-01
9.83604220160381959e-01
9.83604220160381959e-01
9.50663797621965401e-01
9.50663797621965401e-01
9.50663797621965401e-01
1.02155285423403819e+00
1.02155285423403819e+00
1.02155285423403819e+00
1.04852857400926314e+00
1.04852857400926314e+00
1.04852857400926314e+00
1.04116616578193089e+00
1.04116616578193089e+00
1.04116616578193089e+00
1.02220690919488022e+00
1.02220690919488022e+00
1.02220690919488022e+00
1.00745337734702023e+00
1.00745337734702023e+00
1.00745337734702023e+00
9.92405683895481783e-01
9.92405683895481783e-01
9.92405683895481783e-01
9.71177309604137284e-01
9.71177309604137284e-01
9.71177309604137284e-01
1.01433235305767111e+00
1.01433235305767111e+00
1.01433235305767111e+00
1.07289280819334243e+00
1.07289280819334243e+00
1.07289280819334243e+00
9.74072201481789302e-01
9.74072201481789302e-01
9.74072201481789302e-01
1.00330701639148634e+00
1.00330701639148634e+00
1.00330701639148634e+00
9.97862990887007917e-01
9.97862990887007917e-01
9.97862990887007917e-01
1.03369429453851858e+00
1.03369429453851858e+00
1.03369429453851858e+00
1.02497248517152961e+00
1.02497248517152961e+00
1.02497248517152961e+00
1.06806596638820150e+00
1.06806596638820150e+00
1.06806596638820150e+00
9.47976203015775565e-01
9.47976203015775565e-01
9.47976203015775565e-01
9.52854918715423937e-01
9.52854918715423937e-01
9.52854918715423937e-01
9.83752586879316104e-01
9.83752586879316104e-01
9.83752586879316104e-01
9.79962798321451167e-01
9.79962798321451167e-01
9.79962798321451167e-01
9.41429245940833326e-01
9.41429245940833326e-01
9.41429245940833326e-01
1.02248086314789588e+00
1.02248086314789588e+00
1.02248086314789588e+00
9.99305121955607056e-01
9.99305121955607056e-01
9.99305121955607056e-01
9.84554841493944677e-01
9.84554841493944677e-01
9.84554841493944677e-01
9.85335353582674656e-01
9.85335353582674656e-01
9.85335353582674656e-01
9.70340444010543424e-01
9.70340444010543424e-01
9.70340444010543424e-01
9.62258123196339410e-01
9.62258123196339410e-01
9.62258123196339410e-01
1.01252332793321975e+00
1.01252332793321975e+00
1.01252332793321975e+00
9.97663219652772049e-01
9.97663219652772049e-01
9.97663219652772049e-01
9.69175683059909421e-01
9.69175683059909421e-01
9.69175683059909421e-01
9.74165524261279669e-01
9.74165524261279669e-01
9.74165524261279669e-01
1.06010050126442956e+00
1.06010050126442956e+00
1.06010050126442956e+00
9.71849118976649051e-01
9.71849118976649051e-01
9.71849118976649051e-01
1.01705990916136302e+00
1.01705990916136302e+00
1.01705990916136302e+00
1.07050463840022791e+00
1.07050463840022791e+00
1.07050463840022791e+00
1.04102766466563779e+00
1.04102766466563779e+00
1.04102766466563779e+00
9.36609232906038036e-01
9.36609232906038036e-01
9.36609232906038036e-01
1.00542537941735888e+00
1.00542537941735888e+00
1.00542537941735888e+00
1.02654136485807390e+00
1.02654136485807390e+00
1.02654136485807390e+00
9.58062892262916854e-01
9.58062892262916854e-01
9.58062892262916854e-01
1.00454215160094762e+00
1.00454215160094762e+00
1.00454215160094762e+00
9.73082281429898388e-01
9.73082281429898388e-01
9.73082281429898388e-01
9.87304783777852357e-01
9.87304783777852357e-01
9.87304783777852357e-01
1.00264268469784423e+00
1.00264268469784423e+00
1.00264268469784423e+00
9.77951582194739100e-01
9.77951582194739100e-01
9.77951582194739100e-01
9.99688992409956789e-01
9.99688992409956789e-01
9.99688992409956789e-01
1.02123724021808160e+00
1.02123724021808160e+00
1.02123724021808160e+00
1.04255306487292376e+00
1.04255306487292376e+00
1.04255306487292376e+00
9.69550773768886542e-01
9.69550773768886542e-01
9.69550773768886542e-01
9.86946650590362129e-01
9.86946650590362129e-01
9.86946650590362129e-01
1.01454412759467605e+00
1.01454412759467605e+00
1.01454412759467605e+00
9.88455781165779701e-01
9.88455781165779701e-01
9.88455781165779701e-01
9.51967705439872081e-01
9.51967705439872081e-01
9.51967705439872081e-01
9.65825855467098093e-01
9.65825855467098093e-01
9.65825855467098093e-01
1.02190854118173924e+00
1.02190854118173924e+00
1.02190854118173924e+00
9.44948770398213789e-01
9.44948770398213789e-01
9.44948770398213789e-01
9.41449983359720188e-01
9.41449983359720188e-01
9.41449983359720188e-01
9.52170865488745299e-01
9.52170865488745299e-01
9.52170865488745299e-01
1.03471069784055736e+00
1.03471069784055736e+00
1.03471069784055736e+00
1.03414677610175110e+00
1.03414677610175110e+00
1.03414677610175110e+00
9.85648828644221542e-01
9.85648828644221542e-01
9.85648828644221542e-01
1.02878686912112927e+00
1.02878686912112927e+00
1.02878686912112927e+00
9.88956583365310005e-01
9.88956583365310005e-01
9.88956583365310005e-01
9.70586473993326537e-01
9.70586473993326537e-01
9.70586473993326537e-01
9.82787402760337714e-01
9.82787402760337714e-01
9.82787402760337714e-01
1.00759149541710968e+00
1.00759149541710968e+00
1.00759149541710968e+00
1.00100856974936647e+00
1.00100856974936647e+00
1.00100856974936647e+00
1.05539329573188945e+00
1.05539329573188945e+00
1.05539329573188945e+00
9.78477005979732306e-01
9.78477005979732306e-01
9.78477005979732306e-01


        </DataArray>

      </PointData>

      <CellData/>

      <Points>

        <DataArray type="Float64" NumberOfComponents="3" format="ascii">

0.1082531754723032 0.6875000000007816 0 0.23533274979922561 0.77093399389351469 0 0.10409951422139101 0.81206782209691231 0 0.23533274979922561 0.77093399389351469 0 0.1082531754723032 0.6875000000007816 0 0.21809253452218619 0.65480892822618109 0 0.24418615484441761 0.35773612382016978 0 0.121259140952891 0.43112117036853742 0 0.1082531754734323 0.31250000000117473 0 0.75000000000057243 0.35048094716480432 0 0.88173731489851925 0.33077402607778361 0 0.81242894672211508 0.45500248311961472 0 0.121259140952891 0.43112117036853742 0 0.24418615484441761 0.35773612382016978 0 0.22257735880419699 0.47344721641341742 0 0.81242894672211508 0.45500248311961472 0 0.88173731489851925 0.33077402607778361 0 0.915464298762109 0.43749999999886913 0 0 0.62500000000121547 0 0 0.50000000000206146 0 0.1371230538040123 0.56179824718362847 0 0.82212678063041267 0.67678595194836966 0 0.89051480781310632 0.79665793440246835 0 0.76243180583607129 0.78687675331113149 0 0.76243180583607129 0.78687675331113149 0 0.69010814643829166 0.89298495739101336 0 0.62844955668446423 0.7850749770380413 0 0.89051480781310632 0.79665793440246835 0 0.82212678063041267 0.67678595194836966 0 0.92266244547590082 0.68749999999917555 0 0 0.50000000000206146 0 0.121259140952891 0.43112117036853742 0 0.1371230538040123 0.56179824718362847 0 0.1082531754723032 0.6875000000007816 0 0 0.62500000000121547 0 0.1371230538040123 0.56179824718362847 0 0.75000000000032374 0.56698729811007709 0 0.88927506082488361 0.56409486310635837 0 0.82212678063041267 0.67678595194836966 0 0.81242894672211508 0.45500248311961472 0 0.88927506082488361 0.56409486310635837 0 0.75000000000032374 0.56698729811007709 0 0.69851598570178741 0.68211701800612057 0 0.56496004948275869 0.67675037307860475 0 0.62752533658682441 0.56838075195614346 0 0.69851598570178741 0.68211701800612057 0 0.76243180583607129 0.78687675331113149 0 0.62844955668446423 0.7850749770380413 0 0.23533274979922561 0.77093399389351469 0 0.18802967116092181 0.89415349436770275 0 0.10409951422139101 0.81206782209691231 0 0.121259140952891 0.43112117036853742 0 0.22257735880419699 0.47344721641341742 0 0.1371230538040123 0.56179824718362847 0 0.75000000000032374 0.56698729811007709 0 0.69851598570178741 0.68211701800612057 0 0.62752533658682441 0.56838075195614346 0 0.56496004948275869 0.67675037307860475 0 0.69851598570178741 0.68211701800612057 0 0.62844955668446423 0.7850749770380413 0 0.1371230538040123 0.56179824718362847 0 0.22257735880419699 0.47344721641341742 0 0.26982811998763367 0.56544650815856912 0 0.21809253452218619 0.65480892822618109 0 0.1371230538040123 0.56179824718362847 0 0.26982811998763367 0.56544650815856912 0 0.24418615484441761 0.35773612382016978 0 0.1082531754734323 0.31250000000117473 0 0.20767261601459541 0.25628918442207171 0 0.88173731489851925 0.33077402607778361 0 0.75000000000057243 0.35048094716480432 0 0.79891106056046712 0.25007334953587562 0 0.75000000000032374 0.56698729811007709 0 0.82212678063041267 0.67678595194836966 0 0.69851598570178741 0.68211701800612057 0 0.81249999999950517 0.1082531754733404 0 0.89658421694297741 0.1933620068391701 0 0.79891106056046712 0.25007334953587562 0 0.81249999999950517 0.1082531754733404 0 0.79891106056046712 0.25007334953587562 0 0.73983916756365475 0.17530677078674589 0 0.23533274979922561 0.77093399389351469 0 0.21809253452218619 0.65480892822618109 0 0.32607333794064219 0.67760114260606152 0 0.1082531754723032 0.6875000000007816 0 0.1371230538040123 0.56179824718362847 0 0.21809253452218619 0.65480892822618109 0 0.69851598570178741 0.68211701800612057 0 0.82212678063041267 0.67678595194836966 0 0.76243180583607129 0.78687675331113149 0 0.69010814643829166 0.89298495739101336 0 0.76243180583607129 0.78687675331113149 0 0.80886664387416207 0.89717308644237903 0 0.43750000000181222 0.89174682452709564 0 0.31258827852827581 0.89214793616708443 0 0.37776173212361452 0.78514649317305008 0 0.43750000000181222 0.89174682452709564 0 0.37500000000156292 1 0 0.31258827852827581 0.89214793616708443 0 0.121259140952891 0.43112117036853742 0 0 0.37500000000156292 0 0.1082531754734323 0.31250000000117473 0 0.50000000000206146 1 0 0.37500000000156292 1 0 0.43750000000181222 0.89174682452709564 0 0.31258827852827581 0.89214793616708443 0 0.18802967116092181 0.89415349436770275 0 0.23533274979922561 0.77093399389351469 0 0 0.50000000000206146 0 0 0.37500000000156292 0 0.121259140952891 0.43112117036853742 0 0.62844955668446423 0.7850749770380413 0 0.69010814643829166 0.89298495739101336 0 0.56327595140699671 0.89211526915426331 0 0.69010814643829166 0.89298495739101336 0 0.62500000000121547 1 0 0.56327595140699671 0.89211526915426331 0 0.25000000000104189 1 0 0.18802967116092181 0.89415349436770275 0 0.31258827852827581 0.89214793616708443 0 0.50000000000206146 1 0 0.43750000000181222 0.89174682452709564 0 0.56327595140699671 0.89211526915426331 0 0.56249999999885147 0.1082531754730395 0 0.62499999999901068 0 0 0.68749999999926592 0.1082531754732875 0 1 0.49999999999869221 0 1 0.62499999999901068 0 0.88927506082488361 0.56409486310635837 0 0 0.25000000000104189 0 0.12076953676380731 0.18690935762408761 0 0.1082531754734323 0.31250000000117473 0 0.49999999999869221 0 0 0.62499999999901068 0 0 0.56249999999885147 0.1082531754730395 0 0.62500000000121547 1 0 0.50000000000206146 1 0 0.56327595140699671 0.89211526915426331 0 0.37500000000156292 1 0 0.25000000000104189 1 0 0.31258827852827581 0.89214793616708443 0 0.31281086598417152 0.10449318608631281 0 0.37499999999904599 0 0 0.43749999999910871 0.1082531754729984 0 0.43750000000181222 0.89174682452709564 0 0.37776173212361452 0.78514649317305008 0 0.50046028868828263 0.78376912307435687 0 0 0.37500000000156292 0 0 0.25000000000104189 0 0.1082531754734323 0.31250000000117473 0 0.49999999999869221 0 0 0.56249999999885147 0.1082531754730395 0 0.43749999999910871 0.1082531754729984 0 0.43750000000181222 0.89174682452709564 0 0.50046028868828263 0.78376912307435687 0 0.56327595140699671 0.89211526915426331 0 0.74999999999934042 0 0 0.81249999999950517 0.1082531754733404 0 0.68749999999926592 0.1082531754732875 0 0.37499999999904599 0 0 0.49999999999869221 0 0 0.43749999999910871 0.1082531754729984 0 0.25000000000104189 1 0 0.12500000000052089 1 0 0.18802967116092181 0.89415349436770275 0 0.50046028868828263 0.78376912307435687 0 0.62844955668446423 0.7850749770380413 0 0.56327595140699671 0.89211526915426331 0 0.37776173212361452 0.78514649317305008 0 0.31258827852827581 0.89214793616708443 0 0.23533274979922561 0.77093399389351469 0 0.62499999999901068 0 0 0.74999999999934042 0 0 0.68749999999926592 0.1082531754732875 0 1 0.74999999999934042 0 1 0.87499999999967015 0 0.89051480781310632 0.79665793440246835 0 0 0.25000000000104189 0 0 0.12500000000052089 0 0.12076953676380731 0.18690935762408761 0 0.74999999999934042 0 0 0.87499999999967015 0 0 0.81249999999950517 0.1082531754733404 0 0.24999999999941069 0 0 0.37499999999904599 0 0 0.31281086598417152 0.10449318608631281 0 0.50046028868828263 0.78376912307435687 0 0.37776173212361452 0.78514649317305008 0 0.44078402250377968 0.67714785211715212 0 0.68768773896438518 0.4586835206367198 0 0.75000000000032374 0.56698729811007709 0 0.62752533658682441 0.56838075195614346 0 0.31411863959822661 0.24965544328045999 0 0.37953773393552892 0.34812185820708452 0 0.24418615484441761 0.35773612382016978 0 0.68768773896438518 0.4586835206367198 0 0.81242894672211508 0.45500248311961472 0 0.75000000000032374 0.56698729811007709 0 1 0.24999999999941069 0 1 0.37499999999904599 0 0.88173731489851925 0.33077402607778361 0 0 0.75000000000034761 0 0 0.62500000000121547 0 0.1082531754723032 0.6875000000007816 0 0.50048844149666749 0.56727788297625459 0 0.44078402250377968 0.67714785211715212 0 0.38694285807596462 0.5672991787102919 0 0.50108503093851109 0.35012252869403671 0 0.44301038174930041 0.45684931552185398 0 0.37953773393552892 0.34812185820708452 0 0.50046028868828263 0.78376912307435687 0 0.56496004948275869 0.67675037307860475 0 0.62844955668446423 0.7850749770380413 0 0.68768773896438518 0.4586835206367198 0 0.75000000000057243 0.35048094716480432 0 0.81242894672211508 0.45500248311961472 0 0.56349980387502452 0.45846841892908402 0 0.62512662990940393 0.35044303886909911 0 0.68768773896438518 0.4586835206367198 0 0.50048844149666749 0.56727788297625459 0 0.38694285807596462 0.5672991787102919 0 0.44301038174930041 0.45684931552185398 0 0.50046028868828263 0.78376912307435687 0 0.44078402250377968 0.67714785211715212 0 0.56496004948275869 0.67675037307860475 0 0.50108503093851109 0.35012252869403671 0 0.37953773393552892 0.34812185820708452 0 0.43750000000200551 0.24222777169198509 0 0.75000000000034761 1 0 0.62500000000121547 1 0 0.69010814643829166 0.89298495739101336 0 0.68768773896438518 0.4586835206367198 0 0.62512662990940393 0.35044303886909911 0 0.75000000000057243 0.35048094716480432 0 0.56496004948275869 0.67675037307860475 0 0.44078402250377968 0.67714785211715212 0 0.50048844149666749 0.56727788297625459 0 0.56349980387502452 0.45846841892908402 0 0.44301038174930041 0.45684931552185398 0 0.50108503093851109 0.35012252869403671 0 0.50048844149666749 0.56727788297625459 0 0.44301038174930041 0.45684931552185398 0 0.56349980387502452 0.45846841892908402 0 0.56349980387502452 0.45846841892908402 0 0.50108503093851109 0.35012252869403671 0 0.62512662990940393 0.35044303886909911 0 0.43750000000200551 0.24222777169198509 0 0.37953773393552892 0.34812185820708452 0 0.31411863959822661 0.24965544328045999 0 0.56496004948275869 0.67675037307860475 0 0.50048844149666749 0.56727788297625459 0 0.62752533658682441 0.56838075195614346 0 0.56349980387502452 0.45846841892908402 0 0.68768773896438518 0.4586835206367198 0 0.62752533658682441 0.56838075195614346 0 0.50048844149666749 0.56727788297625459 0 0.56349980387502452 0.45846841892908402 0 0.62752533658682441 0.56838075195614346 0 0.75000000000057243 0.35048094716480432 0 0.62512662990940393 0.35044303886909911 0 0.68668231842078242 0.24762892664808989 0 0.50108503093851109 0.35012252869403671 0 0.43750000000200551 0.24222777169198509 0 0.56250000000143974 0.2422277716920859 0 0.62512662990940393 0.35044303886909911 0 0.50108503093851109 0.35012252869403671 0 0.56250000000143974 0.2422277716920859 0 0.68668231842078242 0.24762892664808989 0 0.62512662990940393 0.35044303886909911 0 0.56250000000143974 0.2422277716920859 0 0.22257735880419699 0.47344721641341742 0 0.24418615484441761 0.35773612382016978 0 0.32815957677880009 0.4577243358118348 0 0.12076953676380731 0.18690935762408761 0 0.19185372118111221 0.092925648673580788 0 0.25103557339309318 0.17464499738446629 0 0.20767261601459541 0.25628918442207171 0 0.12076953676380731 0.18690935762408761 0 0.25103557339309318 0.17464499738446629 0 0 0.87499999999950151 0 0 0.75000000000034761 0 0.10409951422139101 0.81206782209691231 0 0.1249999999997731 0 0 0.24999999999941069 0 0 0.19185372118111221 0.092925648673580788 0 1 0.1249999999997731 0 1 0.24999999999941069 0 0.89658421694297741 0.1933620068391701 0 0.88927506082488361 0.56409486310635837 0 0.81242894672211508 0.45500248311961472 0 0.915464298762109 0.43749999999886913 0 0.87499999999950151 1 0 0.75000000000034761 1 0 0.80886664387416207 0.89717308644237903 0 0.75000000000034761 1 0 0.69010814643829166 0.89298495739101336 0 0.80886664387416207 0.89717308644237903 0 0.82212678063041267 0.67678595194836966 0 0.88927506082488361 0.56409486310635837 0 0.92266244547590082 0.68749999999917555 0 0 0.75000000000034761 0 0.1082531754723032 0.6875000000007816 0 0.10409951422139101 0.81206782209691231 0 0.24999999999941069 0 0 0.31281086598417152 0.10449318608631281 0 0.19185372118111221 0.092925648673580788 0 1 0.24999999999941069 0 0.88173731489851925 0.33077402607778361 0 0.89658421694297741 0.1933620068391701 0 0.32815957677880009 0.4577243358118348 0 0.38694285807596462 0.5672991787102919 0 0.26982811998763367 0.56544650815856912 0 0.76243180583607129 0.78687675331113149 0 0.89051480781310632 0.79665793440246835 0 0.80886664387416207 0.89717308644237903 0 0.38694285807596462 0.5672991787102919 0 0.44078402250377968 0.67714785211715212 0 0.32607333794064219 0.67760114260606152 0 0.37776173212361452 0.78514649317305008 0 0.23533274979922561 0.77093399389351469 0 0.32607333794064219 0.67760114260606152 0 1 0.49999999999869221 0 0.88927506082488361 0.56409486310635837 0 0.915464298762109 0.43749999999886913 0 0.88173731489851925 0.33077402607778361 0 1 0.37499999999904599 0 0.915464298762109 0.43749999999886913 0 0.24418615484441761 0.35773612382016978 0 0.37953773393552892 0.34812185820708452 0 0.32815957677880009 0.4577243358118348 0 0.44301038174930041 0.45684931552185398 0 0.38694285807596462 0.5672991787102919 0 0.32815957677880009 0.4577243358118348 0 0.88927506082488361 0.56409486310635837 0 1 0.62499999999901068 0 0.92266244547590082 0.68749999999917555 0 1 0.74999999999934042 0 0.89051480781310632 0.79665793440246835 0 0.92266244547590082 0.68749999999917555 0 0 1 0 0 0.87499999999950151 0 0.091506350946494744 0.90849364905351082 0 1 1 0 0.87499999999950151 1 0 0.90849364905363228 0.90849364905367769 0 0 0 0 0.1249999999997731 0 0 0.091506350946417708 0.091506350946618076 0 0 0.12500000000052089 0 0 0 0 0.091506350946417708 0.091506350946618076 0 1 0 0 1 0.1249999999997731 0 0.90849364905355434 0.091506350946296292 0 0.87499999999967015 0 0 1 0 0 0.90849364905355434 0.091506350946296292 0 0.12500000000052089 1 0 0 1 0 0.091506350946494744 0.90849364905351082 0 1 0.87499999999967015 0 1 1 0 0.90849364905363228 0.90849364905367769 0 0.38694285807596462 0.5672991787102919 0 0.32607333794064219 0.67760114260606152 0 0.26982811998763367 0.56544650815856912 0 0.31411863959822661 0.24965544328045999 0 0.24418615484441761 0.35773612382016978 0 0.20767261601459541 0.25628918442207171 0 0.1082531754734323 0.31250000000117473 0 0.12076953676380731 0.18690935762408761 0 0.20767261601459541 0.25628918442207171 0 0.75000000000057243 0.35048094716480432 0 0.68668231842078242 0.24762892664808989 0 0.79891106056046712 0.25007334953587562 0 0.22257735880419699 0.47344721641341742 0 0.32815957677880009 0.4577243358118348 0 0.26982811998763367 0.56544650815856912 0 0.44078402250377968 0.67714785211715212 0 0.37776173212361452 0.78514649317305008 0 0.32607333794064219 0.67760114260606152 0 0.89658421694297741 0.1933620068391701 0 0.88173731489851925 0.33077402607778361 0 0.79891106056046712 0.25007334953587562 0 1 0.37499999999904599 0 1 0.49999999999869221 0 0.915464298762109 0.43749999999886913 0 0.37953773393552892 0.34812185820708452 0 0.44301038174930041 0.45684931552185398 0 0.32815957677880009 0.4577243358118348 0 0.32607333794064219 0.67760114260606152 0 0.21809253452218619 0.65480892822618109 0 0.26982811998763367 0.56544650815856912 0 1 0.1249999999997731 0 0.89658421694297741 0.1933620068391701 0 0.90849364905355434 0.091506350946296292 0 0 0.87499999999950151 0 0.10409951422139101 0.81206782209691231 0 0.091506350946494744 0.90849364905351082 0 0.1249999999997731 0 0 0.19185372118111221 0.092925648673580788 0 0.091506350946417708 0.091506350946618076 0 1 0.62499999999901068 0 1 0.74999999999934042 0 0.92266244547590082 0.68749999999917555 0 0.18802967116092181 0.89415349436770275 0 0.12500000000052089 1 0 0.091506350946494744 0.90849364905351082 0 0.89051480781310632 0.79665793440246835 0 1 0.87499999999967015 0 0.90849364905363228 0.90849364905367769 0 0.12076953676380731 0.18690935762408761 0 0 0.12500000000052089 0 0.091506350946417708 0.091506350946618076 0 0.81249999999950517 0.1082531754733404 0 0.87499999999967015 0 0 0.90849364905355434 0.091506350946296292 0 0.87499999999950151 1 0 0.80886664387416207 0.89717308644237903 0 0.90849364905363228 0.90849364905367769 0 0.68668231842078242 0.24762892664808989 0 0.62499999999892575 0.17524047358135519 0 0.73983916756365475 0.17530677078674589 0 0.31281086598417152 0.10449318608631281 0 0.43749999999910871 0.1082531754729984 0 0.37500000000232431 0.17524047358384309 0 0.62499999999892575 0.17524047358135519 0 0.56250000000143974 0.2422277716920859 0 0.49999999999934441 0.1752404735815076 0 0.56249999999885147 0.1082531754730395 0 0.68749999999926592 0.1082531754732875 0 0.62499999999892575 0.17524047358135519 0 0.56249999999885147 0.1082531754730395 0 0.62499999999892575 0.17524047358135519 0 0.49999999999934441 0.1752404735815076 0 0.56250000000143974 0.2422277716920859 0 0.43750000000200551 0.24222777169198509 0 0.49999999999934441 0.1752404735815076 0 0.43749999999910871 0.1082531754729984 0 0.56249999999885147 0.1082531754730395 0 0.49999999999934441 0.1752404735815076 0 0.68668231842078242 0.24762892664808989 0 0.56250000000143974 0.2422277716920859 0 0.62499999999892575 0.17524047358135519 0 0.43750000000200551 0.24222777169198509 0 0.31411863959822661 0.24965544328045999 0 0.37500000000232431 0.17524047358384309 0 0.49999999999934441 0.1752404735815076 0 0.43750000000200551 0.24222777169198509 0 0.37500000000232431 0.17524047358384309 0 0.43749999999910871 0.1082531754729984 0 0.49999999999934441 0.1752404735815076 0 0.37500000000232431 0.17524047358384309 0 0.62499999999892575 0.17524047358135519 0 0.68749999999926592 0.1082531754732875 0 0.73983916756365475 0.17530677078674589 0 0.68749999999926592 0.1082531754732875 0 0.81249999999950517 0.1082531754733404 0 0.73983916756365475 0.17530677078674589 0 0.10409951422139101 0.81206782209691231 0 0.18802967116092181 0.89415349436770275 0 0.091506350946494744 0.90849364905351082 0 0.89658421694297741 0.1933620068391701 0 0.81249999999950517 0.1082531754733404 0 0.90849364905355434 0.091506350946296292 0 0.19185372118111221 0.092925648673580788 0 0.12076953676380731 0.18690935762408761 0 0.091506350946417708 0.091506350946618076 0 0.37500000000232431 0.17524047358384309 0 0.31411863959822661 0.24965544328045999 0 0.25103557339309318 0.17464499738446629 0 0.31281086598417152 0.10449318608631281 0 0.37500000000232431 0.17524047358384309 0 0.25103557339309318 0.17464499738446629 0 0.80886664387416207 0.89717308644237903 0 0.89051480781310632 0.79665793440246835 0 0.90849364905363228 0.90849364905367769 0 0.19185372118111221 0.092925648673580788 0 0.31281086598417152 0.10449318608631281 0 0.25103557339309318 0.17464499738446629 0 0.79891106056046712 0.25007334953587562 0 0.68668231842078242 0.24762892664808989 0 0.73983916756365475 0.17530677078674589 0 0.31411863959822661 0.24965544328045999 0 0.20767261601459541 0.25628918442207171 0 0.25103557339309318 0.17464499738446629 0 

        </DataArray>

      </Points>

      <Cells>

        <DataArray type="Int32" Name="connectivity" format="ascii">

0 1 2 3 4 5 6 7 8 9 10 11 12 13 14 15 16 17 18 19 20 21 22 23 24 25 26 27 28 29 30 31 32 33 34 35 36 37 38 39 40 41 42 43 44 45 46 47 48 49 50 51 52 53 54 55 56 57 58 59 60 61 62 63 64 65 66 67 68 69 70 71 72 73 74 75 76 77 78 79 80 81 82 83 84 85 86 87 88 89 90 91 92 93 94 95 96 97 98 99 100 101 102 103 104 105 106 107 108 109 110 111 112 113 114 115 116 117 118 119 120 121 122 123 124 125 126 127 128 129 130 131 132 133 134 135 136 137 138 139 140 141 142 143 144 145 146 147 148 149 150 151 152 153 154 155 156 157 158 159 160 161 162 163 164 165 166 167 168 169 170 171 172 173 174 175 176 177 178 179 180 181 182 183 184 185 186 187 188 189 190 191 192 193 194 195 196 197 198 199 200 201 202 203 204 205 206 207 208 209 210 211 212 213 214 215 216 217 218 219 220 221 222 223 224 225 226 227 228 229 230 231 232 233 234 235 236 237 238 239 240 241 242 243 244 245 246 247 248 249 250 251 252 253 254 255 256 257 258 259 260 261 262 263 264 265 266 267 268 269 270 271 272 273 274 275 276 277 278 279 280 281 282 283 284 285 286 287 288 289 290 291 292 293 294 295 296 297 298 299 300 301 302 303 304 305 306 307 308 309 310 311 312 313 314 315 316 317 318 319 320 321 322 323 324 325 326 327 328 329 330 331 332 333 334 335 336 337 338 339 340 341 342 343 344 345 346 347 348 349 350 351 352 353 354 355 356 357 358 359 360 361 362 363 364 365 366 367 368 369 370 371 372 373 374 375 376 377 378 379 380 381 382 383 384 385 386 387 388 389 390 391 392 393 394 395 396 397 398 399 400 401 402 403 404 405 406 407 408 409 410 411 412 413 414 415 416 417 418 419 420 421 422 423 424 425 426 427 428 429 430 431 432 433 434 435 436 437 438 439 440 441 442 443 444 445 446 447 448 449 450 451 452 453 454 455 456 457 458 459 460 461 462 463 464 465 466 467 468 469 470 471 472 473 474 475 476 477 478 479 480 481 482 483 484 485 

        </DataArray>

        <DataArray type="Int32" Name="offsets" format="ascii">

3 6 9 12 15 18 21 24 27 30 33 36 39 42 45 48 51 54 57 60 63 66 69 72 75 78 81 84 87 90 93 96 99 102 105 108 111 114 117 120 123 126 129 132 135 138 141 144 147 150 153 156 159 162 165 168 171 174 177 180 183 186 189 192 195 198 201 204 207 210 213 216 219 222 225 228 231 234 237 240 243 246 249 252 255 258 261 264 267 270 273 276 279 282 285 288 291 294 297 300 303 306 309 312 315 318 321 324 327 330 333 336 339 342 345 348 351 354 357 360 363 366 369 372 375 378 381 384 387 390 393 396 399 402 405 408 411 414 417 420 423 426 429 432 435 438 441 444 447 450 453 456 459 462 465 468 471 474 477 480 483 486 

        </DataArray>

        <DataArray type="Int32" Name="types" format="ascii">

5 5 5 5 5 5 5 5 5 5 5 5 5 5 5 5 5 5 5 5 5 5 5 5 5 5 5 5 5 5 5 5 5 5 5 5 5 5 5 5 5 5 5 5 5 5 5 5 5 5 5 5 5 5 5 5 5 5 5 5 5 5 5 5 5 5 5 5 5 5 5 5 5 5 5 5 5 5 5 5 5 5 5 5 5 5 5 5 5 5 5 5 5 5 5 5 5 5 5 5 5 5 5 5 5 5 5 5 5 5 5 5 5 5 5 5 5 5 5 5 5 5 5 5 5 5 5 5 5 5 5 5 5 5 5 5 5 5 5 5 5 5 5 5 5 5 5 5 5 5 5 5 5 5 5 5 5 5 5 5 5 5 

        </DataArray>

      </Cells>

    </Piece>

  </UnstructuredGrid>

</VTKFile>

