<?xml version="1.0"?>

<VTKFile type="UnstructuredGrid" version="0.1">

  <UnstructuredGrid>

    <Piece NumberOfPoints="486" NumberOfCells="162">

      <PointData>

        <DataArray type="Float64" Name="K" format="ascii">

9.50936085495972749e-01
9.50936085495972749e-01
9.50936085495972749e-01
9.51641842210734001e-01
9.51641842210734001e-01
9.51641842210734001e-01
1.05221349165726652e+00
1.05221349165726652e+00
1.05221349165726652e+00
9.40056517673193093e-01
9.40056517673193093e-01
9.40056517673193093e-01
1.04611827542609848e+00
1.04611827542609848e+00
1.04611827542609848e+00
9.88120972262256259e-01
9.88120972262256259e-01
9.88120972262256259e-01
1.00364363721139527e+00
1.00364363721139527e+00
1.00364363721139527e+00
1.02349357188345347e+00
1.02349357188345347e+00
1.02349357188345347e+00
1.05236280857376419e+00
1.05236280857376419e+00
1.05236280857376419e+00
1.02406616743112022e+00
1.02406616743112022e+00
1.02406616743112022e+00
1.00594013115827985e+00
1.00594013115827985e+00
1.00594013115827985e+00
9.77749893652868018e-01
9.77749893652868018e-01
9.77749893652868018e-01
1.05384516458782040e+00
1.05384516458782040e+00
1.05384516458782040e+00
1.02860414157687496e+00
1.02860414157687496e+00
1.02860414157687496e+00
1.03007180016796362e+00
1.03007180016796362e+00
1.03007180016796362e+00
1.07522781748713325e+00
1.07522781748713325e+00
1.07522781748713325e+00
9.85387722210791850e-01
9.85387722210791850e-01
9.85387722210791850e-01
1.01118794466603878e+00
1.01118794466603878e+00
1.01118794466603878e+00
1.04584956130367002e+00
1.04584956130367002e+00
1.04584956130367002e+00
1.04600097454778407e+00
1.04600097454778407e+00
1.04600097454778407e+00
9.89468485029176059e-01
9.89468485029176059e-01
9.89468485029176059e-01
9.66889757635727598e-01
9.66889757635727598e-01
9.66889757635727598e-01
1.06956905366905852e+00
1.06956905366905852e+00
1.06956905366905852e+00
9.14536886738627874e-01
9.14536886738627874e-01
9.14536886738627874e-01
1.06818510068747918e+00
1.06818510068747918e+00
1.06818510068747918e+00
9.33896152596337625e-01
9.33896152596337625e-01
9.33896152596337625e-01
9.36202368003919760e-01
9.36202368003919760e-01
9.36202368003919760e-01
9.94184661276829695e-01
9.94184661276829695e-01
9.94184661276829695e-01
9.49750504041386834e-01
9.49750504041386834e-01
9.49750504041386834e-01
1.06812815667710415e+00
1.06812815667710415e+00
1.06812815667710415e+00
1.00561391675132161e+00
1.00561391675132161e+00
1.00561391675132161e+00
1.01793790457732469e+00
1.01793790457732469e+00
1.01793790457732469e+00
1.02444130993431770e+00
1.02444130993431770e+00
1.02444130993431770e+00
1.00989469528374975e+00
1.00989469528374975e+00
1.00989469528374975e+00
1.01691191779041734e+00
1.01691191779041734e+00
1.01691191779041734e+00
1.02508416866052876e+00
1.02508416866052876e+00
1.02508416866052876e+00
1.00282448259868007e+00
1.00282448259868007e+00
1.00282448259868007e+00
1.03145271242786207e+00
1.03145271242786207e+00
1.03145271242786207e+00
9.99433243507060753e-01
9.99433243507060753e-01
9.99433243507060753e-01
1.03601737401043192e+00
1.03601737401043192e+00
1.03601737401043192e+00
9.96527641067911030e-01
9.96527641067911030e-01
9.96527641067911030e-01
9.67436577702660006e-01
9.67436577702660006e-01
9.67436577702660006e-01
1.04060104984286572e+00
1.04060104984286572e+00
1.04060104984286572e+00
9.98937609034575291e-01
9.98937609034575291e-01
9.98937609034575291e-01
9.81281754720561450e-01
9.81281754720561450e-01
9.81281754720561450e-01
9.89319591531844567e-01
9.89319591531844567e-01
9.89319591531844567e-01
1.03524002992208564e+00
1.03524002992208564e+00
1.03524002992208564e+00
9.90418548485438976e-01
9.90418548485438976e-01
9.90418548485438976e-01
9.86460185488739150e-01
9.86460185488739150e-01
9.86460185488739150e-01
9.96396587573875836e-01
9.96396587573875836e-01
9.96396587573875836e-01
9.85873320858215663e-01
9.85873320858215663e-01
9.85873320858215663e-01
9.83736586716527084e-01
9.83736586716527084e-01
9.83736586716527084e-01
9.77539273592180291e-01
9.77539273592180291e-01
9.77539273592180291e-01
9.91725553634069446e-01
9.91725553634069446e-01
9.91725553634069446e-01
1.03910792910070637e+00
1.03910792910070637e+00
1.03910792910070637e+00
1.00394282256152367e+00
1.00394282256152367e+00
1.00394282256152367e+00
1.03386438471507769e+00
1.03386438471507769e+00
1.03386438471507769e+00
9.66855227507064430e-01
9.66855227507064430e-01
9.66855227507064430e-01
1.02447150951371491e+00
1.02447150951371491e+00
1.02447150951371491e+00
9.95907826504003557e-01
9.95907826504003557e-01
9.95907826504003557e-01
1.00980186311560804e+00
1.00980186311560804e+00
1.00980186311560804e+00
9.74136217841266694e-01
9.74136217841266694e-01
9.74136217841266694e-01
9.82731460263657985e-01
9.82731460263657985e-01
9.82731460263657985e-01
1.00779292815557797e+00
1.00779292815557797e+00
1.00779292815557797e+00
1.03643200526841350e+00
1.03643200526841350e+00
1.03643200526841350e+00
9.90582065849192284e-01
9.90582065849192284e-01
9.90582065849192284e-01
9.87071943143587149e-01
9.87071943143587149e-01
9.87071943143587149e-01
9.97197124985825578e-01
9.97197124985825578e-01
9.97197124985825578e-01
9.88405962390387915e-01
9.88405962390387915e-01
9.88405962390387915e-01
9.72956148380749841e-01
9.72956148380749841e-01
9.72956148380749841e-01
9.98463379886325497e-01
9.98463379886325497e-01
9.98463379886325497e-01
9.47700141322436629e-01
9.47700141322436629e-01
9.47700141322436629e-01
9.93960237971509675e-01
9.93960237971509675e-01
9.93960237971509675e-01
9.88060689062570052e-01
9.88060689062570052e-01
9.88060689062570052e-01
9.69825174893993780e-01
9.69825174893993780e-01
9.69825174893993780e-01
9.67283250855193955e-01
9.67283250855193955e-01
9.67283250855193955e-01
9.68241169671962387e-01
9.68241169671962387e-01
9.68241169671962387e-01
9.58300281330648041e-01
9.58300281330648041e-01
9.58300281330648041e-01
9.74962018772258743e-01
9.74962018772258743e-01
9.74962018772258743e-01
9.93348414890066977e-01
9.93348414890066977e-01
9.93348414890066977e-01
9.92617840601672241e-01
9.92617840601672241e-01
9.92617840601672241e-01
1.00605342439958823e+00
1.00605342439958823e+00
1.00605342439958823e+00
9.91753253347883668e-01
9.91753253347883668e-01
9.91753253347883668e-01
9.90686185049106660e-01
9.90686185049106660e-01
9.90686185049106660e-01
9.97803592918225180e-01
9.97803592918225180e-01
9.97803592918225180e-01
9.95717780762395033e-01
9.95717780762395033e-01
9.95717780762395033e-01
9.54412483821355018e-01
9.54412483821355018e-01
9.54412483821355018e-01
9.76962080096072105e-01
9.76962080096072105e-01
9.76962080096072105e-01
1.00139393810698585e+00
1.00139393810698585e+00
1.00139393810698585e+00
9.91563735576539429e-01
9.91563735576539429e-01
9.91563735576539429e-01
1.02999934587900643e+00
1.02999934587900643e+00
1.02999934587900643e+00
1.02579266386791312e+00
1.02579266386791312e+00
1.02579266386791312e+00
1.05072661077487561e+00
1.05072661077487561e+00
1.05072661077487561e+00
9.96241510586053813e-01
9.96241510586053813e-01
9.96241510586053813e-01
9.81219253195846686e-01
9.81219253195846686e-01
9.81219253195846686e-01
9.61612100291757921e-01
9.61612100291757921e-01
9.61612100291757921e-01
1.02677023469474005e+00
1.02677023469474005e+00
1.02677023469474005e+00
9.41900573585080059e-01
9.41900573585080059e-01
9.41900573585080059e-01
9.67752373050298265e-01
9.67752373050298265e-01
9.67752373050298265e-01
1.04551275195274918e+00
1.04551275195274918e+00
1.04551275195274918e+00
9.70519752186594364e-01
9.70519752186594364e-01
9.70519752186594364e-01
9.92726776031406577e-01
9.92726776031406577e-01
9.92726776031406577e-01
9.60814652099861499e-01
9.60814652099861499e-01
9.60814652099861499e-01
9.95205544246840712e-01
9.95205544246840712e-01
9.95205544246840712e-01
9.89290440248679737e-01
9.89290440248679737e-01
9.89290440248679737e-01
1.00605942236262313e+00
1.00605942236262313e+00
1.00605942236262313e+00
1.02567836852474614e+00
1.02567836852474614e+00
1.02567836852474614e+00
1.03866177677192750e+00
1.03866177677192750e+00
1.03866177677192750e+00
1.00386811666861142e+00
1.00386811666861142e+00
1.00386811666861142e+00
1.01586649354548242e+00
1.01586649354548242e+00
1.01586649354548242e+00
9.86420568625590022e-01
9.86420568625590022e-01
9.86420568625590022e-01
1.04492209288530091e+00
1.04492209288530091e+00
1.04492209288530091e+00
1.02728662454177089e+00
1.02728662454177089e+00
1.02728662454177089e+00
1.02237368220528979e+00
1.02237368220528979e+00
1.02237368220528979e+00
9.59183205642541781e-01
9.59183205642541781e-01
9.59183205642541781e-01
9.80450649245204753e-01
9.80450649245204753e-01
9.80450649245204753e-01
9.87987884367911962e-01
9.87987884367911962e-01
9.87987884367911962e-01
9.71158542384999324e-01
9.71158542384999324e-01
9.71158542384999324e-01
1.00021447471229719e+00
1.00021447471229719e+00
1.00021447471229719e+00
1.04363907465049732e+00
1.04363907465049732e+00
1.04363907465049732e+00
9.86931260921873665e-01
9.86931260921873665e-01
9.86931260921873665e-01
1.00325187879171596e+00
1.00325187879171596e+00
1.00325187879171596e+00
1.07550470936660125e+00
1.07550470936660125e+00
1.07550470936660125e+00
1.03618718757745132e+00
1.03618718757745132e+00
1.03618718757745132e+00
9.20099781941569717e-01
9.20099781941569717e-01
9.20099781941569717e-01
1.00243032485862016e+00
1.00243032485862016e+00
1.00243032485862016e+00
1.01169295096315626e+00
1.01169295096315626e+00
1.01169295096315626e+00
9.27992583590440234e-01
9.27992583590440234e-01
9.27992583590440234e-01
1.01686512766158788e+00
1.01686512766158788e+00
1.01686512766158788e+00
9.79969858372653158e-01
9.79969858372653158e-01
9.79969858372653158e-01
9.89255181068009359e-01
9.89255181068009359e-01
9.89255181068009359e-01
9.60508839307370965e-01
9.60508839307370965e-01
9.60508839307370965e-01
9.97032072211663567e-01
9.97032072211663567e-01
9.97032072211663567e-01
9.86768986744137933e-01
9.86768986744137933e-01
9.86768986744137933e-01
1.04512658488189603e+00
1.04512658488189603e+00
1.04512658488189603e+00
1.02889123200327326e+00
1.02889123200327326e+00
1.02889123200327326e+00
9.93910918939753252e-01
9.93910918939753252e-01
9.93910918939753252e-01
9.89786874688960205e-01
9.89786874688960205e-01
9.89786874688960205e-01
9.96077357596173329e-01
9.96077357596173329e-01
9.96077357596173329e-01
9.48822035251673190e-01
9.48822035251673190e-01
9.48822035251673190e-01
9.63489915014474230e-01
9.63489915014474230e-01
9.63489915014474230e-01
1.00011469419080945e+00
1.00011469419080945e+00
1.00011469419080945e+00
9.83330602286678457e-01
9.83330602286678457e-01
9.83330602286678457e-01
9.73328175360695935e-01
9.73328175360695935e-01
9.73328175360695935e-01
9.77902485349170680e-01
9.77902485349170680e-01
9.77902485349170680e-01
9.72339851154981338e-01
9.72339851154981338e-01
9.72339851154981338e-01
9.76252074009738346e-01
9.76252074009738346e-01
9.76252074009738346e-01
9.85996902152541876e-01
9.85996902152541876e-01
9.85996902152541876e-01
9.99443967581219672e-01
9.99443967581219672e-01
9.99443967581219672e-01
9.73399903188717830e-01
9.73399903188717830e-01
9.73399903188717830e-01
9.79308741424748441e-01
9.79308741424748441e-01
9.79308741424748441e-01
9.65469351245973106e-01
9.65469351245973106e-01
9.65469351245973106e-01
9.59184552984457817e-01
9.59184552984457817e-01
9.59184552984457817e-01
9.96173793269195973e-01
9.96173793269195973e-01
9.96173793269195973e-01
9.60247003623377338e-01
9.60247003623377338e-01
9.60247003623377338e-01
9.97461288655599798e-01
9.97461288655599798e-01
9.97461288655599798e-01
1.04123588758580077e+00
1.04123588758580077e+00
1.04123588758580077e+00
1.02917536088545081e+00
1.02917536088545081e+00
1.02917536088545081e+00
9.67748937172556611e-01
9.67748937172556611e-01
9.67748937172556611e-01
1.02578045082816094e+00
1.02578045082816094e+00
1.02578045082816094e+00
9.31932839461625750e-01
9.31932839461625750e-01
9.31932839461625750e-01
1.06925227124107591e+00
1.06925227124107591e+00
1.06925227124107591e+00


        </DataArray>

      </PointData>

      <CellData/>

      <Points>

        <DataArray type="Float64" NumberOfComponents="3" format="ascii">

0.1082531754723032 0.6875000000007816 0 0.23533274979922561 0.77093399389351469 0 0.10409951422139101 0.81206782209691231 0 0.23533274979922561 0.77093399389351469 0 0.1082531754723032 0.6875000000007816 0 0.21809253452218619 0.65480892822618109 0 0.24418615484441761 0.35773612382016978 0 0.121259140952891 0.43112117036853742 0 0.1082531754734323 0.31250000000117473 0 0.75000000000057243 0.35048094716480432 0 0.88173731489851925 0.33077402607778361 0 0.81242894672211508 0.45500248311961472 0 0.121259140952891 0.43112117036853742 0 0.24418615484441761 0.35773612382016978 0 0.22257735880419699 0.47344721641341742 0 0.81242894672211508 0.45500248311961472 0 0.88173731489851925 0.33077402607778361 0 0.915464298762109 0.43749999999886913 0 0 0.62500000000121547 0 0 0.50000000000206146 0 0.1371230538040123 0.56179824718362847 0 0.82212678063041267 0.67678595194836966 0 0.89051480781310632 0.79665793440246835 0 0.76243180583607129 0.78687675331113149 0 0.76243180583607129 0.78687675331113149 0 0.69010814643829166 0.89298495739101336 0 0.62844955668446423 0.7850749770380413 0 0.89051480781310632 0.79665793440246835 0 0.82212678063041267 0.67678595194836966 0 0.92266244547590082 0.68749999999917555 0 0 0.50000000000206146 0 0.121259140952891 0.43112117036853742 0 0.1371230538040123 0.56179824718362847 0 0.1082531754723032 0.6875000000007816 0 0 0.62500000000121547 0 0.1371230538040123 0.56179824718362847 0 0.75000000000032374 0.56698729811007709 0 0.88927506082488361 0.56409486310635837 0 0.82212678063041267 0.67678595194836966 0 0.81242894672211508 0.45500248311961472 0 0.88927506082488361 0.56409486310635837 0 0.75000000000032374 0.56698729811007709 0 0.69851598570178741 0.68211701800612057 0 0.56496004948275869 0.67675037307860475 0 0.62752533658682441 0.56838075195614346 0 0.69851598570178741 0.68211701800612057 0 0.76243180583607129 0.78687675331113149 0 0.62844955668446423 0.7850749770380413 0 0.23533274979922561 0.77093399389351469 0 0.18802967116092181 0.89415349436770275 0 0.10409951422139101 0.81206782209691231 0 0.121259140952891 0.43112117036853742 0 0.22257735880419699 0.47344721641341742 0 0.1371230538040123 0.56179824718362847 0 0.75000000000032374 0.56698729811007709 0 0.69851598570178741 0.68211701800612057 0 0.62752533658682441 0.56838075195614346 0 0.56496004948275869 0.67675037307860475 0 0.69851598570178741 0.68211701800612057 0 0.62844955668446423 0.7850749770380413 0 0.1371230538040123 0.56179824718362847 0 0.22257735880419699 0.47344721641341742 0 0.26982811998763367 0.56544650815856912 0 0.21809253452218619 0.65480892822618109 0 0.1371230538040123 0.56179824718362847 0 0.26982811998763367 0.56544650815856912 0 0.24418615484441761 0.35773612382016978 0 0.1082531754734323 0.31250000000117473 0 0.20767261601459541 0.25628918442207171 0 0.88173731489851925 0.33077402607778361 0 0.75000000000057243 0.35048094716480432 0 0.79891106056046712 0.25007334953587562 0 0.75000000000032374 0.56698729811007709 0 0.82212678063041267 0.67678595194836966 0 0.69851598570178741 0.68211701800612057 0 0.81249999999950517 0.1082531754733404 0 0.89658421694297741 0.1933620068391701 0 0.79891106056046712 0.25007334953587562 0 0.81249999999950517 0.1082531754733404 0 0.79891106056046712 0.25007334953587562 0 0.73983916756365475 0.17530677078674589 0 0.23533274979922561 0.77093399389351469 0 0.21809253452218619 0.65480892822618109 0 0.32607333794064219 0.67760114260606152 0 0.1082531754723032 0.6875000000007816 0 0.1371230538040123 0.56179824718362847 0 0.21809253452218619 0.65480892822618109 0 0.69851598570178741 0.68211701800612057 0 0.82212678063041267 0.67678595194836966 0 0.76243180583607129 0.78687675331113149 0 0.69010814643829166 0.89298495739101336 0 0.76243180583607129 0.78687675331113149 0 0.80886664387416207 0.89717308644237903 0 0.43750000000181222 0.89174682452709564 0 0.31258827852827581 0.89214793616708443 0 0.37776173212361452 0.78514649317305008 0 0.43750000000181222 0.89174682452709564 0 0.37500000000156292 1 0 0.31258827852827581 0.89214793616708443 0 0.121259140952891 0.43112117036853742 0 0 0.37500000000156292 0 0.1082531754734323 0.31250000000117473 0 0.50000000000206146 1 0 0.37500000000156292 1 0 0.43750000000181222 0.89174682452709564 0 0.31258827852827581 0.89214793616708443 0 0.18802967116092181 0.89415349436770275 0 0.23533274979922561 0.77093399389351469 0 0 0.50000000000206146 0 0 0.37500000000156292 0 0.121259140952891 0.43112117036853742 0 0.62844955668446423 0.7850749770380413 0 0.69010814643829166 0.89298495739101336 0 0.56327595140699671 0.89211526915426331 0 0.69010814643829166 0.89298495739101336 0 0.62500000000121547 1 0 0.56327595140699671 0.89211526915426331 0 0.25000000000104189 1 0 0.18802967116092181 0.89415349436770275 0 0.31258827852827581 0.89214793616708443 0 0.50000000000206146 1 0 0.43750000000181222 0.89174682452709564 0 0.56327595140699671 0.89211526915426331 0 0.56249999999885147 0.1082531754730395 0 0.62499999999901068 0 0 0.68749999999926592 0.1082531754732875 0 1 0.49999999999869221 0 1 0.62499999999901068 0 0.88927506082488361 0.56409486310635837 0 0 0.25000000000104189 0 0.12076953676380731 0.18690935762408761 0 0.1082531754734323 0.31250000000117473 0 0.49999999999869221 0 0 0.62499999999901068 0 0 0.56249999999885147 0.1082531754730395 0 0.62500000000121547 1 0 0.50000000000206146 1 0 0.56327595140699671 0.89211526915426331 0 0.37500000000156292 1 0 0.25000000000104189 1 0 0.31258827852827581 0.89214793616708443 0 0.31281086598417152 0.10449318608631281 0 0.37499999999904599 0 0 0.43749999999910871 0.1082531754729984 0 0.43750000000181222 0.89174682452709564 0 0.37776173212361452 0.78514649317305008 0 0.50046028868828263 0.78376912307435687 0 0 0.37500000000156292 0 0 0.25000000000104189 0 0.1082531754734323 0.31250000000117473 0 0.49999999999869221 0 0 0.56249999999885147 0.1082531754730395 0 0.43749999999910871 0.1082531754729984 0 0.43750000000181222 0.89174682452709564 0 0.50046028868828263 0.78376912307435687 0 0.56327595140699671 0.89211526915426331 0 0.74999999999934042 0 0 0.81249999999950517 0.1082531754733404 0 0.68749999999926592 0.1082531754732875 0 0.37499999999904599 0 0 0.49999999999869221 0 0 0.43749999999910871 0.1082531754729984 0 0.25000000000104189 1 0 0.12500000000052089 1 0 0.18802967116092181 0.89415349436770275 0 0.50046028868828263 0.78376912307435687 0 0.62844955668446423 0.7850749770380413 0 0.56327595140699671 0.89211526915426331 0 0.37776173212361452 0.78514649317305008 0 0.31258827852827581 0.89214793616708443 0 0.23533274979922561 0.77093399389351469 0 0.62499999999901068 0 0 0.74999999999934042 0 0 0.68749999999926592 0.1082531754732875 0 1 0.74999999999934042 0 1 0.87499999999967015 0 0.89051480781310632 0.79665793440246835 0 0 0.25000000000104189 0 0 0.12500000000052089 0 0.12076953676380731 0.18690935762408761 0 0.74999999999934042 0 0 0.87499999999967015 0 0 0.81249999999950517 0.1082531754733404 0 0.24999999999941069 0 0 0.37499999999904599 0 0 0.31281086598417152 0.10449318608631281 0 0.50046028868828263 0.78376912307435687 0 0.37776173212361452 0.78514649317305008 0 0.44078402250377968 0.67714785211715212 0 0.68768773896438518 0.4586835206367198 0 0.75000000000032374 0.56698729811007709 0 0.62752533658682441 0.56838075195614346 0 0.31411863959822661 0.24965544328045999 0 0.37953773393552892 0.34812185820708452 0 0.24418615484441761 0.35773612382016978 0 0.68768773896438518 0.4586835206367198 0 0.81242894672211508 0.45500248311961472 0 0.75000000000032374 0.56698729811007709 0 1 0.24999999999941069 0 1 0.37499999999904599 0 0.88173731489851925 0.33077402607778361 0 0 0.75000000000034761 0 0 0.62500000000121547 0 0.1082531754723032 0.6875000000007816 0 0.50048844149666749 0.56727788297625459 0 0.44078402250377968 0.67714785211715212 0 0.38694285807596462 0.5672991787102919 0 0.50108503093851109 0.35012252869403671 0 0.44301038174930041 0.45684931552185398 0 0.37953773393552892 0.34812185820708452 0 0.50046028868828263 0.78376912307435687 0 0.56496004948275869 0.67675037307860475 0 0.62844955668446423 0.7850749770380413 0 0.68768773896438518 0.4586835206367198 0 0.75000000000057243 0.35048094716480432 0 0.81242894672211508 0.45500248311961472 0 0.56349980387502452 0.45846841892908402 0 0.62512662990940393 0.35044303886909911 0 0.68768773896438518 0.4586835206367198 0 0.50048844149666749 0.56727788297625459 0 0.38694285807596462 0.5672991787102919 0 0.44301038174930041 0.45684931552185398 0 0.50046028868828263 0.78376912307435687 0 0.44078402250377968 0.67714785211715212 0 0.56496004948275869 0.67675037307860475 0 0.50108503093851109 0.35012252869403671 0 0.37953773393552892 0.34812185820708452 0 0.43750000000200551 0.24222777169198509 0 0.75000000000034761 1 0 0.62500000000121547 1 0 0.69010814643829166 0.89298495739101336 0 0.68768773896438518 0.4586835206367198 0 0.62512662990940393 0.35044303886909911 0 0.75000000000057243 0.35048094716480432 0 0.56496004948275869 0.67675037307860475 0 0.44078402250377968 0.67714785211715212 0 0.50048844149666749 0.56727788297625459 0 0.56349980387502452 0.45846841892908402 0 0.44301038174930041 0.45684931552185398 0 0.50108503093851109 0.35012252869403671 0 0.50048844149666749 0.56727788297625459 0 0.44301038174930041 0.45684931552185398 0 0.56349980387502452 0.45846841892908402 0 0.56349980387502452 0.45846841892908402 0 0.50108503093851109 0.35012252869403671 0 0.62512662990940393 0.35044303886909911 0 0.43750000000200551 0.24222777169198509 0 0.37953773393552892 0.34812185820708452 0 0.31411863959822661 0.24965544328045999 0 0.56496004948275869 0.67675037307860475 0 0.50048844149666749 0.56727788297625459 0 0.62752533658682441 0.56838075195614346 0 0.56349980387502452 0.45846841892908402 0 0.68768773896438518 0.4586835206367198 0 0.62752533658682441 0.56838075195614346 0 0.50048844149666749 0.56727788297625459 0 0.56349980387502452 0.45846841892908402 0 0.62752533658682441 0.56838075195614346 0 0.75000000000057243 0.35048094716480432 0 0.62512662990940393 0.35044303886909911 0 0.68668231842078242 0.24762892664808989 0 0.50108503093851109 0.35012252869403671 0 0.43750000000200551 0.24222777169198509 0 0.56250000000143974 0.2422277716920859 0 0.62512662990940393 0.35044303886909911 0 0.50108503093851109 0.35012252869403671 0 0.56250000000143974 0.2422277716920859 0 0.68668231842078242 0.24762892664808989 0 0.62512662990940393 0.35044303886909911 0 0.56250000000143974 0.2422277716920859 0 0.22257735880419699 0.47344721641341742 0 0.24418615484441761 0.35773612382016978 0 0.32815957677880009 0.4577243358118348 0 0.12076953676380731 0.18690935762408761 0 0.19185372118111221 0.092925648673580788 0 0.25103557339309318 0.17464499738446629 0 0.20767261601459541 0.25628918442207171 0 0.12076953676380731 0.18690935762408761 0 0.25103557339309318 0.17464499738446629 0 0 0.87499999999950151 0 0 0.75000000000034761 0 0.10409951422139101 0.81206782209691231 0 0.1249999999997731 0 0 0.24999999999941069 0 0 0.19185372118111221 0.092925648673580788 0 1 0.1249999999997731 0 1 0.24999999999941069 0 0.89658421694297741 0.1933620068391701 0 0.88927506082488361 0.56409486310635837 0 0.81242894672211508 0.45500248311961472 0 0.915464298762109 0.43749999999886913 0 0.87499999999950151 1 0 0.75000000000034761 1 0 0.80886664387416207 0.89717308644237903 0 0.75000000000034761 1 0 0.69010814643829166 0.89298495739101336 0 0.80886664387416207 0.89717308644237903 0 0.82212678063041267 0.67678595194836966 0 0.88927506082488361 0.56409486310635837 0 0.92266244547590082 0.68749999999917555 0 0 0.75000000000034761 0 0.1082531754723032 0.6875000000007816 0 0.10409951422139101 0.81206782209691231 0 0.24999999999941069 0 0 0.31281086598417152 0.10449318608631281 0 0.19185372118111221 0.092925648673580788 0 1 0.24999999999941069 0 0.88173731489851925 0.33077402607778361 0 0.89658421694297741 0.1933620068391701 0 0.32815957677880009 0.4577243358118348 0 0.38694285807596462 0.5672991787102919 0 0.26982811998763367 0.56544650815856912 0 0.76243180583607129 0.78687675331113149 0 0.89051480781310632 0.79665793440246835 0 0.80886664387416207 0.89717308644237903 0 0.38694285807596462 0.5672991787102919 0 0.44078402250377968 0.67714785211715212 0 0.32607333794064219 0.67760114260606152 0 0.37776173212361452 0.78514649317305008 0 0.23533274979922561 0.77093399389351469 0 0.32607333794064219 0.67760114260606152 0 1 0.49999999999869221 0 0.88927506082488361 0.56409486310635837 0 0.915464298762109 0.43749999999886913 0 0.88173731489851925 0.33077402607778361 0 1 0.37499999999904599 0 0.915464298762109 0.43749999999886913 0 0.24418615484441761 0.35773612382016978 0 0.37953773393552892 0.34812185820708452 0 0.32815957677880009 0.4577243358118348 0 0.44301038174930041 0.45684931552185398 0 0.38694285807596462 0.5672991787102919 0 0.32815957677880009 0.4577243358118348 0 0.88927506082488361 0.56409486310635837 0 1 0.62499999999901068 0 0.92266244547590082 0.68749999999917555 0 1 0.74999999999934042 0 0.89051480781310632 0.79665793440246835 0 0.92266244547590082 0.68749999999917555 0 0 1 0 0 0.87499999999950151 0 0.091506350946494744 0.90849364905351082 0 1 1 0 0.87499999999950151 1 0 0.90849364905363228 0.90849364905367769 0 0 0 0 0.1249999999997731 0 0 0.091506350946417708 0.091506350946618076 0 0 0.12500000000052089 0 0 0 0 0.091506350946417708 0.091506350946618076 0 1 0 0 1 0.1249999999997731 0 0.90849364905355434 0.091506350946296292 0 0.87499999999967015 0 0 1 0 0 0.90849364905355434 0.091506350946296292 0 0.12500000000052089 1 0 0 1 0 0.091506350946494744 0.90849364905351082 0 1 0.87499999999967015 0 1 1 0 0.90849364905363228 0.90849364905367769 0 0.38694285807596462 0.5672991787102919 0 0.32607333794064219 0.67760114260606152 0 0.26982811998763367 0.56544650815856912 0 0.31411863959822661 0.24965544328045999 0 0.24418615484441761 0.35773612382016978 0 0.20767261601459541 0.25628918442207171 0 0.1082531754734323 0.31250000000117473 0 0.12076953676380731 0.18690935762408761 0 0.20767261601459541 0.25628918442207171 0 0.75000000000057243 0.35048094716480432 0 0.68668231842078242 0.24762892664808989 0 0.79891106056046712 0.25007334953587562 0 0.22257735880419699 0.47344721641341742 0 0.32815957677880009 0.4577243358118348 0 0.26982811998763367 0.56544650815856912 0 0.44078402250377968 0.67714785211715212 0 0.37776173212361452 0.78514649317305008 0 0.32607333794064219 0.67760114260606152 0 0.89658421694297741 0.1933620068391701 0 0.88173731489851925 0.33077402607778361 0 0.79891106056046712 0.25007334953587562 0 1 0.37499999999904599 0 1 0.49999999999869221 0 0.915464298762109 0.43749999999886913 0 0.37953773393552892 0.34812185820708452 0 0.44301038174930041 0.45684931552185398 0 0.32815957677880009 0.4577243358118348 0 0.32607333794064219 0.67760114260606152 0 0.21809253452218619 0.65480892822618109 0 0.26982811998763367 0.56544650815856912 0 1 0.1249999999997731 0 0.89658421694297741 0.1933620068391701 0 0.90849364905355434 0.091506350946296292 0 0 0.87499999999950151 0 0.10409951422139101 0.81206782209691231 0 0.091506350946494744 0.90849364905351082 0 0.1249999999997731 0 0 0.19185372118111221 0.092925648673580788 0 0.091506350946417708 0.091506350946618076 0 1 0.62499999999901068 0 1 0.74999999999934042 0 0.92266244547590082 0.68749999999917555 0 0.18802967116092181 0.89415349436770275 0 0.12500000000052089 1 0 0.091506350946494744 0.90849364905351082 0 0.89051480781310632 0.79665793440246835 0 1 0.87499999999967015 0 0.90849364905363228 0.90849364905367769 0 0.12076953676380731 0.18690935762408761 0 0 0.12500000000052089 0 0.091506350946417708 0.091506350946618076 0 0.81249999999950517 0.1082531754733404 0 0.87499999999967015 0 0 0.90849364905355434 0.091506350946296292 0 0.87499999999950151 1 0 0.80886664387416207 0.89717308644237903 0 0.90849364905363228 0.90849364905367769 0 0.68668231842078242 0.24762892664808989 0 0.62499999999892575 0.17524047358135519 0 0.73983916756365475 0.17530677078674589 0 0.31281086598417152 0.10449318608631281 0 0.43749999999910871 0.1082531754729984 0 0.37500000000232431 0.17524047358384309 0 0.62499999999892575 0.17524047358135519 0 0.56250000000143974 0.2422277716920859 0 0.49999999999934441 0.1752404735815076 0 0.56249999999885147 0.1082531754730395 0 0.68749999999926592 0.1082531754732875 0 0.62499999999892575 0.17524047358135519 0 0.56249999999885147 0.1082531754730395 0 0.62499999999892575 0.17524047358135519 0 0.49999999999934441 0.1752404735815076 0 0.56250000000143974 0.2422277716920859 0 0.43750000000200551 0.24222777169198509 0 0.49999999999934441 0.1752404735815076 0 0.43749999999910871 0.1082531754729984 0 0.56249999999885147 0.1082531754730395 0 0.49999999999934441 0.1752404735815076 0 0.68668231842078242 0.24762892664808989 0 0.56250000000143974 0.2422277716920859 0 0.62499999999892575 0.17524047358135519 0 0.43750000000200551 0.24222777169198509 0 0.31411863959822661 0.24965544328045999 0 0.37500000000232431 0.17524047358384309 0 0.49999999999934441 0.1752404735815076 0 0.43750000000200551 0.24222777169198509 0 0.37500000000232431 0.17524047358384309 0 0.43749999999910871 0.1082531754729984 0 0.49999999999934441 0.1752404735815076 0 0.37500000000232431 0.17524047358384309 0 0.62499999999892575 0.17524047358135519 0 0.68749999999926592 0.1082531754732875 0 0.73983916756365475 0.17530677078674589 0 0.68749999999926592 0.1082531754732875 0 0.81249999999950517 0.1082531754733404 0 0.73983916756365475 0.17530677078674589 0 0.10409951422139101 0.81206782209691231 0 0.18802967116092181 0.89415349436770275 0 0.091506350946494744 0.90849364905351082 0 0.89658421694297741 0.1933620068391701 0 0.81249999999950517 0.1082531754733404 0 0.90849364905355434 0.091506350946296292 0 0.19185372118111221 0.092925648673580788 0 0.12076953676380731 0.18690935762408761 0 0.091506350946417708 0.091506350946618076 0 0.37500000000232431 0.17524047358384309 0 0.31411863959822661 0.24965544328045999 0 0.25103557339309318 0.17464499738446629 0 0.31281086598417152 0.10449318608631281 0 0.37500000000232431 0.17524047358384309 0 0.25103557339309318 0.17464499738446629 0 0.80886664387416207 0.89717308644237903 0 0.89051480781310632 0.79665793440246835 0 0.90849364905363228 0.90849364905367769 0 0.19185372118111221 0.092925648673580788 0 0.31281086598417152 0.10449318608631281 0 0.25103557339309318 0.17464499738446629 0 0.79891106056046712 0.25007334953587562 0 0.68668231842078242 0.24762892664808989 0 0.73983916756365475 0.17530677078674589 0 0.31411863959822661 0.24965544328045999 0 0.20767261601459541 0.25628918442207171 0 0.25103557339309318 0.17464499738446629 0 

        </DataArray>

      </Points>

      <Cells>

        <DataArray type="Int32" Name="connectivity" format="ascii">

0 1 2 3 4 5 6 7 8 9 10 11 12 13 14 15 16 17 18 19 20 21 22 23 24 25 26 27 28 29 30 31 32 33 34 35 36 37 38 39 40 41 42 43 44 45 46 47 48 49 50 51 52 53 54 55 56 57 58 59 60 61 62 63 64 65 66 67 68 69 70 71 72 73 74 75 76 77 78 79 80 81 82 83 84 85 86 87 88 89 90 91 92 93 94 95 96 97 98 99 100 101 102 103 104 105 106 107 108 109 110 111 112 113 114 115 116 117 118 119 120 121 122 123 124 125 126 127 128 129 130 131 132 133 134 135 136 137 138 139 140 141 142 143 144 145 146 147 148 149 150 151 152 153 154 155 156 157 158 159 160 161 162 163 164 165 166 167 168 169 170 171 172 173 174 175 176 177 178 179 180 181 182 183 184 185 186 187 188 189 190 191 192 193 194 195 196 197 198 199 200 201 202 203 204 205 206 207 208 209 210 211 212 213 214 215 216 217 218 219 220 221 222 223 224 225 226 227 228 229 230 231 232 233 234 235 236 237 238 239 240 241 242 243 244 245 246 247 248 249 250 251 252 253 254 255 256 257 258 259 260 261 262 263 264 265 266 267 268 269 270 271 272 273 274 275 276 277 278 279 280 281 282 283 284 285 286 287 288 289 290 291 292 293 294 295 296 297 298 299 300 301 302 303 304 305 306 307 308 309 310 311 312 313 314 315 316 317 318 319 320 321 322 323 324 325 326 327 328 329 330 331 332 333 334 335 336 337 338 339 340 341 342 343 344 345 346 347 348 349 350 351 352 353 354 355 356 357 358 359 360 361 362 363 364 365 366 367 368 369 370 371 372 373 374 375 376 377 378 379 380 381 382 383 384 385 386 387 388 389 390 391 392 393 394 395 396 397 398 399 400 401 402 403 404 405 406 407 408 409 410 411 412 413 414 415 416 417 418 419 420 421 422 423 424 425 426 427 428 429 430 431 432 433 434 435 436 437 438 439 440 441 442 443 444 445 446 447 448 449 450 451 452 453 454 455 456 457 458 459 460 461 462 463 464 465 466 467 468 469 470 471 472 473 474 475 476 477 478 479 480 481 482 483 484 485 

        </DataArray>

        <DataArray type="Int32" Name="offsets" format="ascii">

3 6 9 12 15 18 21 24 27 30 33 36 39 42 45 48 51 54 57 60 63 66 69 72 75 78 81 84 87 90 93 96 99 102 105 108 111 114 117 120 123 126 129 132 135 138 141 144 147 150 153 156 159 162 165 168 171 174 177 180 183 186 189 192 195 198 201 204 207 210 213 216 219 222 225 228 231 234 237 240 243 246 249 252 255 258 261 264 267 270 273 276 279 282 285 288 291 294 297 300 303 306 309 312 315 318 321 324 327 330 333 336 339 342 345 348 351 354 357 360 363 366 369 372 375 378 381 384 387 390 393 396 399 402 405 408 411 414 417 420 423 426 429 432 435 438 441 444 447 450 453 456 459 462 465 468 471 474 477 480 483 486 

        </DataArray>

        <DataArray type="Int32" Name="types" format="ascii">

5 5 5 5 5 5 5 5 5 5 5 5 5 5 5 5 5 5 5 5 5 5 5 5 5 5 5 5 5 5 5 5 5 5 5 5 5 5 5 5 5 5 5 5 5 5 5 5 5 5 5 5 5 5 5 5 5 5 5 5 5 5 5 5 5 5 5 5 5 5 5 5 5 5 5 5 5 5 5 5 5 5 5 5 5 5 5 5 5 5 5 5 5 5 5 5 5 5 5 5 5 5 5 5 5 5 5 5 5 5 5 5 5 5 5 5 5 5 5 5 5 5 5 5 5 5 5 5 5 5 5 5 5 5 5 5 5 5 5 5 5 5 5 5 5 5 5 5 5 5 5 5 5 5 5 5 5 5 5 5 5 5 

        </DataArray>

      </Cells>

    </Piece>

  </UnstructuredGrid>

</VTKFile>

