<?xml version="1.0"?>

<VTKFile type="UnstructuredGrid" version="0.1">

  <UnstructuredGrid>

    <Piece NumberOfPoints="486" NumberOfCells="162">

      <PointData>

        <DataArray type="Float64" Name="K" format="ascii">

9.75649433646383679e-01
9.75649433646383679e-01
9.75649433646383679e-01
9.80507853094596205e-01
9.80507853094596205e-01
9.80507853094596205e-01
9.63688958712983657e-01
9.63688958712983657e-01
9.63688958712983657e-01
9.35889356875336254e-01
9.35889356875336254e-01
9.35889356875336254e-01
1.00434656259779476e+00
1.00434656259779476e+00
1.00434656259779476e+00
9.38600780405657420e-01
9.38600780405657420e-01
9.38600780405657420e-01
1.04710051555297001e+00
1.04710051555297001e+00
1.04710051555297001e+00
9.98211510542813985e-01
9.98211510542813985e-01
9.98211510542813985e-01
9.75995175047402963e-01
9.75995175047402963e-01
9.75995175047402963e-01
9.97944859161961850e-01
9.97944859161961850e-01
9.97944859161961850e-01
1.01890500792818495e+00
1.01890500792818495e+00
1.01890500792818495e+00
1.04871483632907148e+00
1.04871483632907148e+00
1.04871483632907148e+00
9.72441600840355580e-01
9.72441600840355580e-01
9.72441600840355580e-01
9.59377244402558005e-01
9.59377244402558005e-01
9.59377244402558005e-01
9.44658210826538114e-01
9.44658210826538114e-01
9.44658210826538114e-01
9.62035130122036231e-01
9.62035130122036231e-01
9.62035130122036231e-01
9.29229026939746072e-01
9.29229026939746072e-01
9.29229026939746072e-01
1.01584343652115017e+00
1.01584343652115017e+00
1.01584343652115017e+00
9.65518311812284979e-01
9.65518311812284979e-01
9.65518311812284979e-01
9.26906889579899862e-01
9.26906889579899862e-01
9.26906889579899862e-01
1.03179832383166614e+00
1.03179832383166614e+00
1.03179832383166614e+00
1.02187628303899780e+00
1.02187628303899780e+00
1.02187628303899780e+00
9.48994123044872517e-01
9.48994123044872517e-01
9.48994123044872517e-01
9.31044309444126306e-01
9.31044309444126306e-01
9.31044309444126306e-01
9.72762206977123234e-01
9.72762206977123234e-01
9.72762206977123234e-01
9.31450438479425435e-01
9.31450438479425435e-01
9.31450438479425435e-01
9.39961419608495219e-01
9.39961419608495219e-01
9.39961419608495219e-01
9.76140603514658256e-01
9.76140603514658256e-01
9.76140603514658256e-01
1.01907071134646965e+00
1.01907071134646965e+00
1.01907071134646965e+00
9.82908026564820680e-01
9.82908026564820680e-01
9.82908026564820680e-01
1.01450408868803565e+00
1.01450408868803565e+00
1.01450408868803565e+00
9.31951573319328097e-01
9.31951573319328097e-01
9.31951573319328097e-01
9.28370418023172328e-01
9.28370418023172328e-01
9.28370418023172328e-01
9.66766770410436016e-01
9.66766770410436016e-01
9.66766770410436016e-01
9.59496447219726600e-01
9.59496447219726600e-01
9.59496447219726600e-01
9.02219246085032456e-01
9.02219246085032456e-01
9.02219246085032456e-01
1.00402259928986726e+00
1.00402259928986726e+00
1.00402259928986726e+00
9.45752787846735443e-01
9.45752787846735443e-01
9.45752787846735443e-01
9.80664808103823060e-01
9.80664808103823060e-01
9.80664808103823060e-01
8.86892676632343280e-01
8.86892676632343280e-01
8.86892676632343280e-01
9.49858010066237157e-01
9.49858010066237157e-01
9.49858010066237157e-01
9.85036154750534854e-01
9.85036154750534854e-01
9.85036154750534854e-01
1.01205257181574093e+00
1.01205257181574093e+00
1.01205257181574093e+00
9.32712788755571953e-01
9.32712788755571953e-01
9.32712788755571953e-01
1.00017659509590251e+00
1.00017659509590251e+00
1.00017659509590251e+00
9.82036694504042851e-01
9.82036694504042851e-01
9.82036694504042851e-01
9.02786089466894759e-01
9.02786089466894759e-01
9.02786089466894759e-01
9.52696315853067688e-01
9.52696315853067688e-01
9.52696315853067688e-01
9.33736264052738907e-01
9.33736264052738907e-01
9.33736264052738907e-01
9.69049923286389947e-01
9.69049923286389947e-01
9.69049923286389947e-01
9.71240572971677985e-01
9.71240572971677985e-01
9.71240572971677985e-01
9.20192778214812712e-01
9.20192778214812712e-01
9.20192778214812712e-01
9.57049735689143088e-01
9.57049735689143088e-01
9.57049735689143088e-01
9.67241584486403849e-01
9.67241584486403849e-01
9.67241584486403849e-01
8.95715302004983172e-01
8.95715302004983172e-01
8.95715302004983172e-01
9.09273070961550522e-01
9.09273070961550522e-01
9.09273070961550522e-01
9.28151912143623470e-01
9.28151912143623470e-01
9.28151912143623470e-01
9.78397060891533665e-01
9.78397060891533665e-01
9.78397060891533665e-01
1.02919155461758383e+00
1.02919155461758383e+00
1.02919155461758383e+00
9.53369867173231467e-01
9.53369867173231467e-01
9.53369867173231467e-01
9.68141349656895689e-01
9.68141349656895689e-01
9.68141349656895689e-01
9.69045188536426405e-01
9.69045188536426405e-01
9.69045188536426405e-01
9.51888834374346016e-01
9.51888834374346016e-01
9.51888834374346016e-01
9.80886530055707362e-01
9.80886530055707362e-01
9.80886530055707362e-01
1.00809919319357366e+00
1.00809919319357366e+00
1.00809919319357366e+00
9.68538673203850564e-01
9.68538673203850564e-01
9.68538673203850564e-01
9.43062274014448865e-01
9.43062274014448865e-01
9.43062274014448865e-01
1.06324261616621540e+00
1.06324261616621540e+00
1.06324261616621540e+00
1.00883978901553228e+00
1.00883978901553228e+00
1.00883978901553228e+00
1.00488845330458476e+00
1.00488845330458476e+00
1.00488845330458476e+00
9.07280572502617622e-01
9.07280572502617622e-01
9.07280572502617622e-01
9.67005103106767461e-01
9.67005103106767461e-01
9.67005103106767461e-01
1.00914899058778262e+00
1.00914899058778262e+00
1.00914899058778262e+00
1.02457329213907644e+00
1.02457329213907644e+00
1.02457329213907644e+00
9.33845075243482703e-01
9.33845075243482703e-01
9.33845075243482703e-01
9.79848087563963133e-01
9.79848087563963133e-01
9.79848087563963133e-01
1.02636529158788625e+00
1.02636529158788625e+00
1.02636529158788625e+00
9.96623451920609971e-01
9.96623451920609971e-01
9.96623451920609971e-01
9.64354227878272408e-01
9.64354227878272408e-01
9.64354227878272408e-01
1.00264716155380529e+00
1.00264716155380529e+00
1.00264716155380529e+00
1.00693342329853919e+00
1.00693342329853919e+00
1.00693342329853919e+00
1.00150478461317771e+00
1.00150478461317771e+00
1.00150478461317771e+00
9.84478793006798303e-01
9.84478793006798303e-01
9.84478793006798303e-01
9.60107840764615195e-01
9.60107840764615195e-01
9.60107840764615195e-01
9.97610010455369789e-01
9.97610010455369789e-01
9.97610010455369789e-01
9.89692093438998888e-01
9.89692093438998888e-01
9.89692093438998888e-01
9.89743833494067360e-01
9.89743833494067360e-01
9.89743833494067360e-01
9.63984834895317833e-01
9.63984834895317833e-01
9.63984834895317833e-01
9.86180856027739305e-01
9.86180856027739305e-01
9.86180856027739305e-01
9.90877464942471087e-01
9.90877464942471087e-01
9.90877464942471087e-01
1.03910785904889225e+00
1.03910785904889225e+00
1.03910785904889225e+00
9.24261021056195897e-01
9.24261021056195897e-01
9.24261021056195897e-01
9.23596751260575055e-01
9.23596751260575055e-01
9.23596751260575055e-01
1.03740145744446521e+00
1.03740145744446521e+00
1.03740145744446521e+00
9.71555357995870339e-01
9.71555357995870339e-01
9.71555357995870339e-01
9.28420455593212735e-01
9.28420455593212735e-01
9.28420455593212735e-01
9.57336520857268614e-01
9.57336520857268614e-01
9.57336520857268614e-01
1.04325296363058184e+00
1.04325296363058184e+00
1.04325296363058184e+00
1.03422766860490145e+00
1.03422766860490145e+00
1.03422766860490145e+00
9.88972933079865224e-01
9.88972933079865224e-01
9.88972933079865224e-01
1.03563829643854910e+00
1.03563829643854910e+00
1.03563829643854910e+00
9.60973308239359336e-01
9.60973308239359336e-01
9.60973308239359336e-01
9.27350512643188796e-01
9.27350512643188796e-01
9.27350512643188796e-01
1.05539067467669168e+00
1.05539067467669168e+00
1.05539067467669168e+00
1.01200650890306654e+00
1.01200650890306654e+00
1.01200650890306654e+00
1.01732017648327555e+00
1.01732017648327555e+00
1.01732017648327555e+00
9.63303052533094784e-01
9.63303052533094784e-01
9.63303052533094784e-01
9.85949110571406884e-01
9.85949110571406884e-01
9.85949110571406884e-01
9.51502460070845157e-01
9.51502460070845157e-01
9.51502460070845157e-01
1.03759486992713801e+00
1.03759486992713801e+00
1.03759486992713801e+00
1.04735084643644139e+00
1.04735084643644139e+00
1.04735084643644139e+00
1.00880795210842678e+00
1.00880795210842678e+00
1.00880795210842678e+00
1.01640045576897409e+00
1.01640045576897409e+00
1.01640045576897409e+00
9.95704869553944327e-01
9.95704869553944327e-01
9.95704869553944327e-01
1.02220726958793007e+00
1.02220726958793007e+00
1.02220726958793007e+00
9.60646805417383454e-01
9.60646805417383454e-01
9.60646805417383454e-01
9.66878377529032829e-01
9.66878377529032829e-01
9.66878377529032829e-01
9.51661324598657266e-01
9.51661324598657266e-01
9.51661324598657266e-01
9.80480890669456984e-01
9.80480890669456984e-01
9.80480890669456984e-01
9.58267820932839354e-01
9.58267820932839354e-01
9.58267820932839354e-01
1.02705494455961999e+00
1.02705494455961999e+00
1.02705494455961999e+00
1.03593014245393977e+00
1.03593014245393977e+00
1.03593014245393977e+00
9.76458597602192557e-01
9.76458597602192557e-01
9.76458597602192557e-01
9.17859973586395927e-01
9.17859973586395927e-01
9.17859973586395927e-01
9.58635071185033660e-01
9.58635071185033660e-01
9.58635071185033660e-01
1.05075507832739623e+00
1.05075507832739623e+00
1.05075507832739623e+00
9.84644354074207029e-01
9.84644354074207029e-01
9.84644354074207029e-01
9.21916132583690873e-01
9.21916132583690873e-01
9.21916132583690873e-01
9.83121403394829008e-01
9.83121403394829008e-01
9.83121403394829008e-01
1.03637890679176881e+00
1.03637890679176881e+00
1.03637890679176881e+00
1.01436810360602503e+00
1.01436810360602503e+00
1.01436810360602503e+00
9.40821480101031171e-01
9.40821480101031171e-01
9.40821480101031171e-01
9.97224868787173979e-01
9.97224868787173979e-01
9.97224868787173979e-01
9.48023721041758360e-01
9.48023721041758360e-01
9.48023721041758360e-01
1.03147131701660899e+00
1.03147131701660899e+00
1.03147131701660899e+00
9.25538296954229289e-01
9.25538296954229289e-01
9.25538296954229289e-01
1.01922656204678486e+00
1.01922656204678486e+00
1.01922656204678486e+00
9.38483430617150671e-01
9.38483430617150671e-01
9.38483430617150671e-01
9.66042463104535121e-01
9.66042463104535121e-01
9.66042463104535121e-01
1.02727507053981948e+00
1.02727507053981948e+00
1.02727507053981948e+00
9.70422320558274154e-01
9.70422320558274154e-01
9.70422320558274154e-01
9.47441052751070933e-01
9.47441052751070933e-01
9.47441052751070933e-01
9.65076965349672800e-01
9.65076965349672800e-01
9.65076965349672800e-01
9.74518536541755021e-01
9.74518536541755021e-01
9.74518536541755021e-01
9.66228638937481121e-01
9.66228638937481121e-01
9.66228638937481121e-01
9.52654982907421566e-01
9.52654982907421566e-01
9.52654982907421566e-01
9.55291452824478360e-01
9.55291452824478360e-01
9.55291452824478360e-01
9.79080423517125764e-01
9.79080423517125764e-01
9.79080423517125764e-01
9.63631038380851512e-01
9.63631038380851512e-01
9.63631038380851512e-01
9.48293778698296008e-01
9.48293778698296008e-01
9.48293778698296008e-01
9.45204966300788652e-01
9.45204966300788652e-01
9.45204966300788652e-01
9.66042031493763442e-01
9.66042031493763442e-01
9.66042031493763442e-01
9.50676616619754999e-01
9.50676616619754999e-01
9.50676616619754999e-01
9.45703045935828879e-01
9.45703045935828879e-01
9.45703045935828879e-01
9.44139491588140700e-01
9.44139491588140700e-01
9.44139491588140700e-01
9.24833385413761366e-01
9.24833385413761366e-01
9.24833385413761366e-01
9.60393849089064000e-01
9.60393849089064000e-01
9.60393849089064000e-01
9.51404929050609249e-01
9.51404929050609249e-01
9.51404929050609249e-01
1.01557194183567967e+00
1.01557194183567967e+00
1.01557194183567967e+00
9.44639343997066616e-01
9.44639343997066616e-01
9.44639343997066616e-01
9.54318592154703826e-01
9.54318592154703826e-01
9.54318592154703826e-01
9.54528302528239170e-01
9.54528302528239170e-01
9.54528302528239170e-01


        </DataArray>

      </PointData>

      <CellData/>

      <Points>

        <DataArray type="Float64" NumberOfComponents="3" format="ascii">

0.1082531754723032 0.6875000000007816 0 0.23533274979922561 0.77093399389351469 0 0.10409951422139101 0.81206782209691231 0 0.23533274979922561 0.77093399389351469 0 0.1082531754723032 0.6875000000007816 0 0.21809253452218619 0.65480892822618109 0 0.24418615484441761 0.35773612382016978 0 0.121259140952891 0.43112117036853742 0 0.1082531754734323 0.31250000000117473 0 0.75000000000057243 0.35048094716480432 0 0.88173731489851925 0.33077402607778361 0 0.81242894672211508 0.45500248311961472 0 0.121259140952891 0.43112117036853742 0 0.24418615484441761 0.35773612382016978 0 0.22257735880419699 0.47344721641341742 0 0.81242894672211508 0.45500248311961472 0 0.88173731489851925 0.33077402607778361 0 0.915464298762109 0.43749999999886913 0 0 0.62500000000121547 0 0 0.50000000000206146 0 0.1371230538040123 0.56179824718362847 0 0.82212678063041267 0.67678595194836966 0 0.89051480781310632 0.79665793440246835 0 0.76243180583607129 0.78687675331113149 0 0.76243180583607129 0.78687675331113149 0 0.69010814643829166 0.89298495739101336 0 0.62844955668446423 0.7850749770380413 0 0.89051480781310632 0.79665793440246835 0 0.82212678063041267 0.67678595194836966 0 0.92266244547590082 0.68749999999917555 0 0 0.50000000000206146 0 0.121259140952891 0.43112117036853742 0 0.1371230538040123 0.56179824718362847 0 0.1082531754723032 0.6875000000007816 0 0 0.62500000000121547 0 0.1371230538040123 0.56179824718362847 0 0.75000000000032374 0.56698729811007709 0 0.88927506082488361 0.56409486310635837 0 0.82212678063041267 0.67678595194836966 0 0.81242894672211508 0.45500248311961472 0 0.88927506082488361 0.56409486310635837 0 0.75000000000032374 0.56698729811007709 0 0.69851598570178741 0.68211701800612057 0 0.56496004948275869 0.67675037307860475 0 0.62752533658682441 0.56838075195614346 0 0.69851598570178741 0.68211701800612057 0 0.76243180583607129 0.78687675331113149 0 0.62844955668446423 0.7850749770380413 0 0.23533274979922561 0.77093399389351469 0 0.18802967116092181 0.89415349436770275 0 0.10409951422139101 0.81206782209691231 0 0.121259140952891 0.43112117036853742 0 0.22257735880419699 0.47344721641341742 0 0.1371230538040123 0.56179824718362847 0 0.75000000000032374 0.56698729811007709 0 0.69851598570178741 0.68211701800612057 0 0.62752533658682441 0.56838075195614346 0 0.56496004948275869 0.67675037307860475 0 0.69851598570178741 0.68211701800612057 0 0.62844955668446423 0.7850749770380413 0 0.1371230538040123 0.56179824718362847 0 0.22257735880419699 0.47344721641341742 0 0.26982811998763367 0.56544650815856912 0 0.21809253452218619 0.65480892822618109 0 0.1371230538040123 0.56179824718362847 0 0.26982811998763367 0.56544650815856912 0 0.24418615484441761 0.35773612382016978 0 0.1082531754734323 0.31250000000117473 0 0.20767261601459541 0.25628918442207171 0 0.88173731489851925 0.33077402607778361 0 0.75000000000057243 0.35048094716480432 0 0.79891106056046712 0.25007334953587562 0 0.75000000000032374 0.56698729811007709 0 0.82212678063041267 0.67678595194836966 0 0.69851598570178741 0.68211701800612057 0 0.81249999999950517 0.1082531754733404 0 0.89658421694297741 0.1933620068391701 0 0.79891106056046712 0.25007334953587562 0 0.81249999999950517 0.1082531754733404 0 0.79891106056046712 0.25007334953587562 0 0.73983916756365475 0.17530677078674589 0 0.23533274979922561 0.77093399389351469 0 0.21809253452218619 0.65480892822618109 0 0.32607333794064219 0.67760114260606152 0 0.1082531754723032 0.6875000000007816 0 0.1371230538040123 0.56179824718362847 0 0.21809253452218619 0.65480892822618109 0 0.69851598570178741 0.68211701800612057 0 0.82212678063041267 0.67678595194836966 0 0.76243180583607129 0.78687675331113149 0 0.69010814643829166 0.89298495739101336 0 0.76243180583607129 0.78687675331113149 0 0.80886664387416207 0.89717308644237903 0 0.43750000000181222 0.89174682452709564 0 0.31258827852827581 0.89214793616708443 0 0.37776173212361452 0.78514649317305008 0 0.43750000000181222 0.89174682452709564 0 0.37500000000156292 1 0 0.31258827852827581 0.89214793616708443 0 0.121259140952891 0.43112117036853742 0 0 0.37500000000156292 0 0.1082531754734323 0.31250000000117473 0 0.50000000000206146 1 0 0.37500000000156292 1 0 0.43750000000181222 0.89174682452709564 0 0.31258827852827581 0.89214793616708443 0 0.18802967116092181 0.89415349436770275 0 0.23533274979922561 0.77093399389351469 0 0 0.50000000000206146 0 0 0.37500000000156292 0 0.121259140952891 0.43112117036853742 0 0.62844955668446423 0.7850749770380413 0 0.69010814643829166 0.89298495739101336 0 0.56327595140699671 0.89211526915426331 0 0.69010814643829166 0.89298495739101336 0 0.62500000000121547 1 0 0.56327595140699671 0.89211526915426331 0 0.25000000000104189 1 0 0.18802967116092181 0.89415349436770275 0 0.31258827852827581 0.89214793616708443 0 0.50000000000206146 1 0 0.43750000000181222 0.89174682452709564 0 0.56327595140699671 0.89211526915426331 0 0.56249999999885147 0.1082531754730395 0 0.62499999999901068 0 0 0.68749999999926592 0.1082531754732875 0 1 0.49999999999869221 0 1 0.62499999999901068 0 0.88927506082488361 0.56409486310635837 0 0 0.25000000000104189 0 0.12076953676380731 0.18690935762408761 0 0.1082531754734323 0.31250000000117473 0 0.49999999999869221 0 0 0.62499999999901068 0 0 0.56249999999885147 0.1082531754730395 0 0.62500000000121547 1 0 0.50000000000206146 1 0 0.56327595140699671 0.89211526915426331 0 0.37500000000156292 1 0 0.25000000000104189 1 0 0.31258827852827581 0.89214793616708443 0 0.31281086598417152 0.10449318608631281 0 0.37499999999904599 0 0 0.43749999999910871 0.1082531754729984 0 0.43750000000181222 0.89174682452709564 0 0.37776173212361452 0.78514649317305008 0 0.50046028868828263 0.78376912307435687 0 0 0.37500000000156292 0 0 0.25000000000104189 0 0.1082531754734323 0.31250000000117473 0 0.49999999999869221 0 0 0.56249999999885147 0.1082531754730395 0 0.43749999999910871 0.1082531754729984 0 0.43750000000181222 0.89174682452709564 0 0.50046028868828263 0.78376912307435687 0 0.56327595140699671 0.89211526915426331 0 0.74999999999934042 0 0 0.81249999999950517 0.1082531754733404 0 0.68749999999926592 0.1082531754732875 0 0.37499999999904599 0 0 0.49999999999869221 0 0 0.43749999999910871 0.1082531754729984 0 0.25000000000104189 1 0 0.12500000000052089 1 0 0.18802967116092181 0.89415349436770275 0 0.50046028868828263 0.78376912307435687 0 0.62844955668446423 0.7850749770380413 0 0.56327595140699671 0.89211526915426331 0 0.37776173212361452 0.78514649317305008 0 0.31258827852827581 0.89214793616708443 0 0.23533274979922561 0.77093399389351469 0 0.62499999999901068 0 0 0.74999999999934042 0 0 0.68749999999926592 0.1082531754732875 0 1 0.74999999999934042 0 1 0.87499999999967015 0 0.89051480781310632 0.79665793440246835 0 0 0.25000000000104189 0 0 0.12500000000052089 0 0.12076953676380731 0.18690935762408761 0 0.74999999999934042 0 0 0.87499999999967015 0 0 0.81249999999950517 0.1082531754733404 0 0.24999999999941069 0 0 0.37499999999904599 0 0 0.31281086598417152 0.10449318608631281 0 0.50046028868828263 0.78376912307435687 0 0.37776173212361452 0.78514649317305008 0 0.44078402250377968 0.67714785211715212 0 0.68768773896438518 0.4586835206367198 0 0.75000000000032374 0.56698729811007709 0 0.62752533658682441 0.56838075195614346 0 0.31411863959822661 0.24965544328045999 0 0.37953773393552892 0.34812185820708452 0 0.24418615484441761 0.35773612382016978 0 0.68768773896438518 0.4586835206367198 0 0.81242894672211508 0.45500248311961472 0 0.75000000000032374 0.56698729811007709 0 1 0.24999999999941069 0 1 0.37499999999904599 0 0.88173731489851925 0.33077402607778361 0 0 0.75000000000034761 0 0 0.62500000000121547 0 0.1082531754723032 0.6875000000007816 0 0.50048844149666749 0.56727788297625459 0 0.44078402250377968 0.67714785211715212 0 0.38694285807596462 0.5672991787102919 0 0.50108503093851109 0.35012252869403671 0 0.44301038174930041 0.45684931552185398 0 0.37953773393552892 0.34812185820708452 0 0.50046028868828263 0.78376912307435687 0 0.56496004948275869 0.67675037307860475 0 0.62844955668446423 0.7850749770380413 0 0.68768773896438518 0.4586835206367198 0 0.75000000000057243 0.35048094716480432 0 0.81242894672211508 0.45500248311961472 0 0.56349980387502452 0.45846841892908402 0 0.62512662990940393 0.35044303886909911 0 0.68768773896438518 0.4586835206367198 0 0.50048844149666749 0.56727788297625459 0 0.38694285807596462 0.5672991787102919 0 0.44301038174930041 0.45684931552185398 0 0.50046028868828263 0.78376912307435687 0 0.44078402250377968 0.67714785211715212 0 0.56496004948275869 0.67675037307860475 0 0.50108503093851109 0.35012252869403671 0 0.37953773393552892 0.34812185820708452 0 0.43750000000200551 0.24222777169198509 0 0.75000000000034761 1 0 0.62500000000121547 1 0 0.69010814643829166 0.89298495739101336 0 0.68768773896438518 0.4586835206367198 0 0.62512662990940393 0.35044303886909911 0 0.75000000000057243 0.35048094716480432 0 0.56496004948275869 0.67675037307860475 0 0.44078402250377968 0.67714785211715212 0 0.50048844149666749 0.56727788297625459 0 0.56349980387502452 0.45846841892908402 0 0.44301038174930041 0.45684931552185398 0 0.50108503093851109 0.35012252869403671 0 0.50048844149666749 0.56727788297625459 0 0.44301038174930041 0.45684931552185398 0 0.56349980387502452 0.45846841892908402 0 0.56349980387502452 0.45846841892908402 0 0.50108503093851109 0.35012252869403671 0 0.62512662990940393 0.35044303886909911 0 0.43750000000200551 0.24222777169198509 0 0.37953773393552892 0.34812185820708452 0 0.31411863959822661 0.24965544328045999 0 0.56496004948275869 0.67675037307860475 0 0.50048844149666749 0.56727788297625459 0 0.62752533658682441 0.56838075195614346 0 0.56349980387502452 0.45846841892908402 0 0.68768773896438518 0.4586835206367198 0 0.62752533658682441 0.56838075195614346 0 0.50048844149666749 0.56727788297625459 0 0.56349980387502452 0.45846841892908402 0 0.62752533658682441 0.56838075195614346 0 0.75000000000057243 0.35048094716480432 0 0.62512662990940393 0.35044303886909911 0 0.68668231842078242 0.24762892664808989 0 0.50108503093851109 0.35012252869403671 0 0.43750000000200551 0.24222777169198509 0 0.56250000000143974 0.2422277716920859 0 0.62512662990940393 0.35044303886909911 0 0.50108503093851109 0.35012252869403671 0 0.56250000000143974 0.2422277716920859 0 0.68668231842078242 0.24762892664808989 0 0.62512662990940393 0.35044303886909911 0 0.56250000000143974 0.2422277716920859 0 0.22257735880419699 0.47344721641341742 0 0.24418615484441761 0.35773612382016978 0 0.32815957677880009 0.4577243358118348 0 0.12076953676380731 0.18690935762408761 0 0.19185372118111221 0.092925648673580788 0 0.25103557339309318 0.17464499738446629 0 0.20767261601459541 0.25628918442207171 0 0.12076953676380731 0.18690935762408761 0 0.25103557339309318 0.17464499738446629 0 0 0.87499999999950151 0 0 0.75000000000034761 0 0.10409951422139101 0.81206782209691231 0 0.1249999999997731 0 0 0.24999999999941069 0 0 0.19185372118111221 0.092925648673580788 0 1 0.1249999999997731 0 1 0.24999999999941069 0 0.89658421694297741 0.1933620068391701 0 0.88927506082488361 0.56409486310635837 0 0.81242894672211508 0.45500248311961472 0 0.915464298762109 0.43749999999886913 0 0.87499999999950151 1 0 0.75000000000034761 1 0 0.80886664387416207 0.89717308644237903 0 0.75000000000034761 1 0 0.69010814643829166 0.89298495739101336 0 0.80886664387416207 0.89717308644237903 0 0.82212678063041267 0.67678595194836966 0 0.88927506082488361 0.56409486310635837 0 0.92266244547590082 0.68749999999917555 0 0 0.75000000000034761 0 0.1082531754723032 0.6875000000007816 0 0.10409951422139101 0.81206782209691231 0 0.24999999999941069 0 0 0.31281086598417152 0.10449318608631281 0 0.19185372118111221 0.092925648673580788 0 1 0.24999999999941069 0 0.88173731489851925 0.33077402607778361 0 0.89658421694297741 0.1933620068391701 0 0.32815957677880009 0.4577243358118348 0 0.38694285807596462 0.5672991787102919 0 0.26982811998763367 0.56544650815856912 0 0.76243180583607129 0.78687675331113149 0 0.89051480781310632 0.79665793440246835 0 0.80886664387416207 0.89717308644237903 0 0.38694285807596462 0.5672991787102919 0 0.44078402250377968 0.67714785211715212 0 0.32607333794064219 0.67760114260606152 0 0.37776173212361452 0.78514649317305008 0 0.23533274979922561 0.77093399389351469 0 0.32607333794064219 0.67760114260606152 0 1 0.49999999999869221 0 0.88927506082488361 0.56409486310635837 0 0.915464298762109 0.43749999999886913 0 0.88173731489851925 0.33077402607778361 0 1 0.37499999999904599 0 0.915464298762109 0.43749999999886913 0 0.24418615484441761 0.35773612382016978 0 0.37953773393552892 0.34812185820708452 0 0.32815957677880009 0.4577243358118348 0 0.44301038174930041 0.45684931552185398 0 0.38694285807596462 0.5672991787102919 0 0.32815957677880009 0.4577243358118348 0 0.88927506082488361 0.56409486310635837 0 1 0.62499999999901068 0 0.92266244547590082 0.68749999999917555 0 1 0.74999999999934042 0 0.89051480781310632 0.79665793440246835 0 0.92266244547590082 0.68749999999917555 0 0 1 0 0 0.87499999999950151 0 0.091506350946494744 0.90849364905351082 0 1 1 0 0.87499999999950151 1 0 0.90849364905363228 0.90849364905367769 0 0 0 0 0.1249999999997731 0 0 0.091506350946417708 0.091506350946618076 0 0 0.12500000000052089 0 0 0 0 0.091506350946417708 0.091506350946618076 0 1 0 0 1 0.1249999999997731 0 0.90849364905355434 0.091506350946296292 0 0.87499999999967015 0 0 1 0 0 0.90849364905355434 0.091506350946296292 0 0.12500000000052089 1 0 0 1 0 0.091506350946494744 0.90849364905351082 0 1 0.87499999999967015 0 1 1 0 0.90849364905363228 0.90849364905367769 0 0.38694285807596462 0.5672991787102919 0 0.32607333794064219 0.67760114260606152 0 0.26982811998763367 0.56544650815856912 0 0.31411863959822661 0.24965544328045999 0 0.24418615484441761 0.35773612382016978 0 0.20767261601459541 0.25628918442207171 0 0.1082531754734323 0.31250000000117473 0 0.12076953676380731 0.18690935762408761 0 0.20767261601459541 0.25628918442207171 0 0.75000000000057243 0.35048094716480432 0 0.68668231842078242 0.24762892664808989 0 0.79891106056046712 0.25007334953587562 0 0.22257735880419699 0.47344721641341742 0 0.32815957677880009 0.4577243358118348 0 0.26982811998763367 0.56544650815856912 0 0.44078402250377968 0.67714785211715212 0 0.37776173212361452 0.78514649317305008 0 0.32607333794064219 0.67760114260606152 0 0.89658421694297741 0.1933620068391701 0 0.88173731489851925 0.33077402607778361 0 0.79891106056046712 0.25007334953587562 0 1 0.37499999999904599 0 1 0.49999999999869221 0 0.915464298762109 0.43749999999886913 0 0.37953773393552892 0.34812185820708452 0 0.44301038174930041 0.45684931552185398 0 0.32815957677880009 0.4577243358118348 0 0.32607333794064219 0.67760114260606152 0 0.21809253452218619 0.65480892822618109 0 0.26982811998763367 0.56544650815856912 0 1 0.1249999999997731 0 0.89658421694297741 0.1933620068391701 0 0.90849364905355434 0.091506350946296292 0 0 0.87499999999950151 0 0.10409951422139101 0.81206782209691231 0 0.091506350946494744 0.90849364905351082 0 0.1249999999997731 0 0 0.19185372118111221 0.092925648673580788 0 0.091506350946417708 0.091506350946618076 0 1 0.62499999999901068 0 1 0.74999999999934042 0 0.92266244547590082 0.68749999999917555 0 0.18802967116092181 0.89415349436770275 0 0.12500000000052089 1 0 0.091506350946494744 0.90849364905351082 0 0.89051480781310632 0.79665793440246835 0 1 0.87499999999967015 0 0.90849364905363228 0.90849364905367769 0 0.12076953676380731 0.18690935762408761 0 0 0.12500000000052089 0 0.091506350946417708 0.091506350946618076 0 0.81249999999950517 0.1082531754733404 0 0.87499999999967015 0 0 0.90849364905355434 0.091506350946296292 0 0.87499999999950151 1 0 0.80886664387416207 0.89717308644237903 0 0.90849364905363228 0.90849364905367769 0 0.68668231842078242 0.24762892664808989 0 0.62499999999892575 0.17524047358135519 0 0.73983916756365475 0.17530677078674589 0 0.31281086598417152 0.10449318608631281 0 0.43749999999910871 0.1082531754729984 0 0.37500000000232431 0.17524047358384309 0 0.62499999999892575 0.17524047358135519 0 0.56250000000143974 0.2422277716920859 0 0.49999999999934441 0.1752404735815076 0 0.56249999999885147 0.1082531754730395 0 0.68749999999926592 0.1082531754732875 0 0.62499999999892575 0.17524047358135519 0 0.56249999999885147 0.1082531754730395 0 0.62499999999892575 0.17524047358135519 0 0.49999999999934441 0.1752404735815076 0 0.56250000000143974 0.2422277716920859 0 0.43750000000200551 0.24222777169198509 0 0.49999999999934441 0.1752404735815076 0 0.43749999999910871 0.1082531754729984 0 0.56249999999885147 0.1082531754730395 0 0.49999999999934441 0.1752404735815076 0 0.68668231842078242 0.24762892664808989 0 0.56250000000143974 0.2422277716920859 0 0.62499999999892575 0.17524047358135519 0 0.43750000000200551 0.24222777169198509 0 0.31411863959822661 0.24965544328045999 0 0.37500000000232431 0.17524047358384309 0 0.49999999999934441 0.1752404735815076 0 0.43750000000200551 0.24222777169198509 0 0.37500000000232431 0.17524047358384309 0 0.43749999999910871 0.1082531754729984 0 0.49999999999934441 0.1752404735815076 0 0.37500000000232431 0.17524047358384309 0 0.62499999999892575 0.17524047358135519 0 0.68749999999926592 0.1082531754732875 0 0.73983916756365475 0.17530677078674589 0 0.68749999999926592 0.1082531754732875 0 0.81249999999950517 0.1082531754733404 0 0.73983916756365475 0.17530677078674589 0 0.10409951422139101 0.81206782209691231 0 0.18802967116092181 0.89415349436770275 0 0.091506350946494744 0.90849364905351082 0 0.89658421694297741 0.1933620068391701 0 0.81249999999950517 0.1082531754733404 0 0.90849364905355434 0.091506350946296292 0 0.19185372118111221 0.092925648673580788 0 0.12076953676380731 0.18690935762408761 0 0.091506350946417708 0.091506350946618076 0 0.37500000000232431 0.17524047358384309 0 0.31411863959822661 0.24965544328045999 0 0.25103557339309318 0.17464499738446629 0 0.31281086598417152 0.10449318608631281 0 0.37500000000232431 0.17524047358384309 0 0.25103557339309318 0.17464499738446629 0 0.80886664387416207 0.89717308644237903 0 0.89051480781310632 0.79665793440246835 0 0.90849364905363228 0.90849364905367769 0 0.19185372118111221 0.092925648673580788 0 0.31281086598417152 0.10449318608631281 0 0.25103557339309318 0.17464499738446629 0 0.79891106056046712 0.25007334953587562 0 0.68668231842078242 0.24762892664808989 0 0.73983916756365475 0.17530677078674589 0 0.31411863959822661 0.24965544328045999 0 0.20767261601459541 0.25628918442207171 0 0.25103557339309318 0.17464499738446629 0 

        </DataArray>

      </Points>

      <Cells>

        <DataArray type="Int32" Name="connectivity" format="ascii">

0 1 2 3 4 5 6 7 8 9 10 11 12 13 14 15 16 17 18 19 20 21 22 23 24 25 26 27 28 29 30 31 32 33 34 35 36 37 38 39 40 41 42 43 44 45 46 47 48 49 50 51 52 53 54 55 56 57 58 59 60 61 62 63 64 65 66 67 68 69 70 71 72 73 74 75 76 77 78 79 80 81 82 83 84 85 86 87 88 89 90 91 92 93 94 95 96 97 98 99 100 101 102 103 104 105 106 107 108 109 110 111 112 113 114 115 116 117 118 119 120 121 122 123 124 125 126 127 128 129 130 131 132 133 134 135 136 137 138 139 140 141 142 143 144 145 146 147 148 149 150 151 152 153 154 155 156 157 158 159 160 161 162 163 164 165 166 167 168 169 170 171 172 173 174 175 176 177 178 179 180 181 182 183 184 185 186 187 188 189 190 191 192 193 194 195 196 197 198 199 200 201 202 203 204 205 206 207 208 209 210 211 212 213 214 215 216 217 218 219 220 221 222 223 224 225 226 227 228 229 230 231 232 233 234 235 236 237 238 239 240 241 242 243 244 245 246 247 248 249 250 251 252 253 254 255 256 257 258 259 260 261 262 263 264 265 266 267 268 269 270 271 272 273 274 275 276 277 278 279 280 281 282 283 284 285 286 287 288 289 290 291 292 293 294 295 296 297 298 299 300 301 302 303 304 305 306 307 308 309 310 311 312 313 314 315 316 317 318 319 320 321 322 323 324 325 326 327 328 329 330 331 332 333 334 335 336 337 338 339 340 341 342 343 344 345 346 347 348 349 350 351 352 353 354 355 356 357 358 359 360 361 362 363 364 365 366 367 368 369 370 371 372 373 374 375 376 377 378 379 380 381 382 383 384 385 386 387 388 389 390 391 392 393 394 395 396 397 398 399 400 401 402 403 404 405 406 407 408 409 410 411 412 413 414 415 416 417 418 419 420 421 422 423 424 425 426 427 428 429 430 431 432 433 434 435 436 437 438 439 440 441 442 443 444 445 446 447 448 449 450 451 452 453 454 455 456 457 458 459 460 461 462 463 464 465 466 467 468 469 470 471 472 473 474 475 476 477 478 479 480 481 482 483 484 485 

        </DataArray>

        <DataArray type="Int32" Name="offsets" format="ascii">

3 6 9 12 15 18 21 24 27 30 33 36 39 42 45 48 51 54 57 60 63 66 69 72 75 78 81 84 87 90 93 96 99 102 105 108 111 114 117 120 123 126 129 132 135 138 141 144 147 150 153 156 159 162 165 168 171 174 177 180 183 186 189 192 195 198 201 204 207 210 213 216 219 222 225 228 231 234 237 240 243 246 249 252 255 258 261 264 267 270 273 276 279 282 285 288 291 294 297 300 303 306 309 312 315 318 321 324 327 330 333 336 339 342 345 348 351 354 357 360 363 366 369 372 375 378 381 384 387 390 393 396 399 402 405 408 411 414 417 420 423 426 429 432 435 438 441 444 447 450 453 456 459 462 465 468 471 474 477 480 483 486 

        </DataArray>

        <DataArray type="Int32" Name="types" format="ascii">

5 5 5 5 5 5 5 5 5 5 5 5 5 5 5 5 5 5 5 5 5 5 5 5 5 5 5 5 5 5 5 5 5 5 5 5 5 5 5 5 5 5 5 5 5 5 5 5 5 5 5 5 5 5 5 5 5 5 5 5 5 5 5 5 5 5 5 5 5 5 5 5 5 5 5 5 5 5 5 5 5 5 5 5 5 5 5 5 5 5 5 5 5 5 5 5 5 5 5 5 5 5 5 5 5 5 5 5 5 5 5 5 5 5 5 5 5 5 5 5 5 5 5 5 5 5 5 5 5 5 5 5 5 5 5 5 5 5 5 5 5 5 5 5 5 5 5 5 5 5 5 5 5 5 5 5 5 5 5 5 5 5 

        </DataArray>

      </Cells>

    </Piece>

  </UnstructuredGrid>

</VTKFile>

