<?xml version="1.0"?>

<VTKFile type="UnstructuredGrid" version="0.1">

  <UnstructuredGrid>

    <Piece NumberOfPoints="486" NumberOfCells="162">

      <PointData>

        <DataArray type="Float64" Name="K" format="ascii">

1.00187631101184316e+00
1.00187631101184316e+00
1.00187631101184316e+00
9.75247990950119048e-01
9.75247990950119048e-01
9.75247990950119048e-01
9.18423845349152113e-01
9.18423845349152113e-01
9.18423845349152113e-01
1.07700859275518113e+00
1.07700859275518113e+00
1.07700859275518113e+00
9.21577323325851516e-01
9.21577323325851516e-01
9.21577323325851516e-01
1.05836008284813365e+00
1.05836008284813365e+00
1.05836008284813365e+00
9.62631815973982730e-01
9.62631815973982730e-01
9.62631815973982730e-01
9.71453451886328367e-01
9.71453451886328367e-01
9.71453451886328367e-01
9.90659808334957592e-01
9.90659808334957592e-01
9.90659808334957592e-01
9.52205868785031218e-01
9.52205868785031218e-01
9.52205868785031218e-01
9.39218607048839527e-01
9.39218607048839527e-01
9.39218607048839527e-01
9.72223534590797800e-01
9.72223534590797800e-01
9.72223534590797800e-01
9.92494492175808540e-01
9.92494492175808540e-01
9.92494492175808540e-01
1.02573685087360644e+00
1.02573685087360644e+00
1.02573685087360644e+00
9.80507593000906175e-01
9.80507593000906175e-01
9.80507593000906175e-01
9.81756076521121734e-01
9.81756076521121734e-01
9.81756076521121734e-01
1.01632465766732483e+00
1.01632465766732483e+00
1.01632465766732483e+00
9.22299872043033542e-01
9.22299872043033542e-01
9.22299872043033542e-01
1.00306452604886909e+00
1.00306452604886909e+00
1.00306452604886909e+00
9.77630242179207243e-01
9.77630242179207243e-01
9.77630242179207243e-01
9.29524733765203504e-01
9.29524733765203504e-01
9.29524733765203504e-01
9.40186024556199818e-01
9.40186024556199818e-01
9.40186024556199818e-01
9.30199929259657110e-01
9.30199929259657110e-01
9.30199929259657110e-01
1.07403019609621375e+00
1.07403019609621375e+00
1.07403019609621375e+00
9.94857341010973562e-01
9.94857341010973562e-01
9.94857341010973562e-01
1.01961808937295650e+00
1.01961808937295650e+00
1.01961808937295650e+00
1.02160899746967027e+00
1.02160899746967027e+00
1.02160899746967027e+00
9.66870485911007771e-01
9.66870485911007771e-01
9.66870485911007771e-01
9.58181197400665541e-01
9.58181197400665541e-01
9.58181197400665541e-01
9.81759716545961503e-01
9.81759716545961503e-01
9.81759716545961503e-01
1.00000120842744633e+00
1.00000120842744633e+00
1.00000120842744633e+00
1.03186162446471696e+00
1.03186162446471696e+00
1.03186162446471696e+00
1.05382475179825130e+00
1.05382475179825130e+00
1.05382475179825130e+00
9.23642339561214221e-01
9.23642339561214221e-01
9.23642339561214221e-01
1.08048616651393292e+00
1.08048616651393292e+00
1.08048616651393292e+00
1.00891701835916225e+00
1.00891701835916225e+00
1.00891701835916225e+00
9.35807500356799715e-01
9.35807500356799715e-01
9.35807500356799715e-01
1.00620219264708255e+00
1.00620219264708255e+00
1.00620219264708255e+00
1.02265116701655923e+00
1.02265116701655923e+00
1.02265116701655923e+00
1.02504367483609404e+00
1.02504367483609404e+00
1.02504367483609404e+00
1.07241478833284032e+00
1.07241478833284032e+00
1.07241478833284032e+00
9.93175060937454779e-01
9.93175060937454779e-01
9.93175060937454779e-01
9.79188182424726938e-01
9.79188182424726938e-01
9.79188182424726938e-01
9.24802961655173950e-01
9.24802961655173950e-01
9.24802961655173950e-01
9.69491254323838758e-01
9.69491254323838758e-01
9.69491254323838758e-01
1.05501865324556676e+00
1.05501865324556676e+00
1.05501865324556676e+00
1.03843733867644739e+00
1.03843733867644739e+00
1.03843733867644739e+00
1.00076793172183742e+00
1.00076793172183742e+00
1.00076793172183742e+00
1.03410632988916706e+00
1.03410632988916706e+00
1.03410632988916706e+00
9.23636383695818131e-01
9.23636383695818131e-01
9.23636383695818131e-01
9.74001290579015966e-01
9.74001290579015966e-01
9.74001290579015966e-01
1.04785749229427116e+00
1.04785749229427116e+00
1.04785749229427116e+00
9.74102311419274280e-01
9.74102311419274280e-01
9.74102311419274280e-01
9.74501932754129885e-01
9.74501932754129885e-01
9.74501932754129885e-01
1.03368828327584716e+00
1.03368828327584716e+00
1.03368828327584716e+00
1.01476469535740521e+00
1.01476469535740521e+00
1.01476469535740521e+00
9.99953189593688840e-01
9.99953189593688840e-01
9.99953189593688840e-01
9.75162973980687187e-01
9.75162973980687187e-01
9.75162973980687187e-01
9.37124801233460425e-01
9.37124801233460425e-01
9.37124801233460425e-01
9.37812721352797141e-01
9.37812721352797141e-01
9.37812721352797141e-01
9.49247504781042362e-01
9.49247504781042362e-01
9.49247504781042362e-01
1.01212619268831294e+00
1.01212619268831294e+00
1.01212619268831294e+00
1.00605561963771661e+00
1.00605561963771661e+00
1.00605561963771661e+00
1.03123303834890456e+00
1.03123303834890456e+00
1.03123303834890456e+00
9.94823172514480492e-01
9.94823172514480492e-01
9.94823172514480492e-01
1.05571832328777826e+00
1.05571832328777826e+00
1.05571832328777826e+00
1.07167151264025340e+00
1.07167151264025340e+00
1.07167151264025340e+00
9.93106483567944065e-01
9.93106483567944065e-01
9.93106483567944065e-01
9.88153605159706627e-01
9.88153605159706627e-01
9.88153605159706627e-01
1.03600278607405150e+00
1.03600278607405150e+00
1.03600278607405150e+00
9.90020506978661397e-01
9.90020506978661397e-01
9.90020506978661397e-01
1.08020686113527442e+00
1.08020686113527442e+00
1.08020686113527442e+00
1.05095585500221045e+00
1.05095585500221045e+00
1.05095585500221045e+00
1.00186188924903741e+00
1.00186188924903741e+00
1.00186188924903741e+00
9.90741953328579505e-01
9.90741953328579505e-01
9.90741953328579505e-01
1.03861215367091164e+00
1.03861215367091164e+00
1.03861215367091164e+00
1.01494690465855331e+00
1.01494690465855331e+00
1.01494690465855331e+00
1.08009809283155778e+00
1.08009809283155778e+00
1.08009809283155778e+00
9.79755268466646845e-01
9.79755268466646845e-01
9.79755268466646845e-01
1.02964426929224384e+00
1.02964426929224384e+00
1.02964426929224384e+00
1.00707015971791569e+00
1.00707015971791569e+00
1.00707015971791569e+00
1.04424091409758169e+00
1.04424091409758169e+00
1.04424091409758169e+00
1.02439560559510334e+00
1.02439560559510334e+00
1.02439560559510334e+00
9.77467397095816648e-01
9.77467397095816648e-01
9.77467397095816648e-01
1.02417625441252946e+00
1.02417625441252946e+00
1.02417625441252946e+00
9.95090794615693497e-01
9.95090794615693497e-01
9.95090794615693497e-01
1.08350753573466174e+00
1.08350753573466174e+00
1.08350753573466174e+00
1.04125419016764464e+00
1.04125419016764464e+00
1.04125419016764464e+00
1.05438244974711814e+00
1.05438244974711814e+00
1.05438244974711814e+00
1.06856700190545317e+00
1.06856700190545317e+00
1.06856700190545317e+00
9.50615022811196142e-01
9.50615022811196142e-01
9.50615022811196142e-01
9.60722396336260442e-01
9.60722396336260442e-01
9.60722396336260442e-01
9.51588060247309242e-01
9.51588060247309242e-01
9.51588060247309242e-01
1.01218221440570733e+00
1.01218221440570733e+00
1.01218221440570733e+00
9.85907129612941469e-01
9.85907129612941469e-01
9.85907129612941469e-01
1.05191082157825866e+00
1.05191082157825866e+00
1.05191082157825866e+00
1.02701726192285125e+00
1.02701726192285125e+00
1.02701726192285125e+00
1.01767564629116847e+00
1.01767564629116847e+00
1.01767564629116847e+00
1.01368722555212498e+00
1.01368722555212498e+00
1.01368722555212498e+00
9.60162343711342681e-01
9.60162343711342681e-01
9.60162343711342681e-01
1.00752211177659223e+00
1.00752211177659223e+00
1.00752211177659223e+00
1.00210413688468924e+00
1.00210413688468924e+00
1.00210413688468924e+00
1.06198958164091417e+00
1.06198958164091417e+00
1.06198958164091417e+00
9.76663804641073607e-01
9.76663804641073607e-01
9.76663804641073607e-01
9.87305673779392157e-01
9.87305673779392157e-01
9.87305673779392157e-01
9.83613836499732219e-01
9.83613836499732219e-01
9.83613836499732219e-01
9.81604670472968732e-01
9.81604670472968732e-01
9.81604670472968732e-01
1.00894623278753448e+00
1.00894623278753448e+00
1.00894623278753448e+00
1.05934462141903252e+00
1.05934462141903252e+00
1.05934462141903252e+00
9.89377125858849849e-01
9.89377125858849849e-01
9.89377125858849849e-01
1.00521104268537442e+00
1.00521104268537442e+00
1.00521104268537442e+00
9.53441586704357302e-01
9.53441586704357302e-01
9.53441586704357302e-01
9.37230659284204792e-01
9.37230659284204792e-01
9.37230659284204792e-01
1.00939122939795101e+00
1.00939122939795101e+00
1.00939122939795101e+00
9.79953036662655430e-01
9.79953036662655430e-01
9.79953036662655430e-01
9.78358864932325156e-01
9.78358864932325156e-01
9.78358864932325156e-01
9.76457005599488559e-01
9.76457005599488559e-01
9.76457005599488559e-01
1.01152252897570083e+00
1.01152252897570083e+00
1.01152252897570083e+00
9.81373599065074154e-01
9.81373599065074154e-01
9.81373599065074154e-01
1.01976026453456314e+00
1.01976026453456314e+00
1.01976026453456314e+00
9.57107071515368224e-01
9.57107071515368224e-01
9.57107071515368224e-01
9.70577298806852062e-01
9.70577298806852062e-01
9.70577298806852062e-01
9.65767441256231263e-01
9.65767441256231263e-01
9.65767441256231263e-01
9.28518501852379163e-01
9.28518501852379163e-01
9.28518501852379163e-01
1.07675810728076660e+00
1.07675810728076660e+00
1.07675810728076660e+00
9.50559065177157048e-01
9.50559065177157048e-01
9.50559065177157048e-01
9.89448336977240106e-01
9.89448336977240106e-01
9.89448336977240106e-01
1.05449305102288737e+00
1.05449305102288737e+00
1.05449305102288737e+00
1.04131626295067448e+00
1.04131626295067448e+00
1.04131626295067448e+00
1.01880930935681047e+00
1.01880930935681047e+00
1.01880930935681047e+00
9.55412589272045198e-01
9.55412589272045198e-01
9.55412589272045198e-01
1.02134008671773269e+00
1.02134008671773269e+00
1.02134008671773269e+00
1.02348652297110454e+00
1.02348652297110454e+00
1.02348652297110454e+00
9.65701366219856250e-01
9.65701366219856250e-01
9.65701366219856250e-01
9.37823204170167846e-01
9.37823204170167846e-01
9.37823204170167846e-01
1.03534907211841087e+00
1.03534907211841087e+00
1.03534907211841087e+00
9.56540248317737207e-01
9.56540248317737207e-01
9.56540248317737207e-01
9.46916006642961161e-01
9.46916006642961161e-01
9.46916006642961161e-01
9.66093164101955448e-01
9.66093164101955448e-01
9.66093164101955448e-01
1.00172026520869806e+00
1.00172026520869806e+00
1.00172026520869806e+00
1.05190816623060157e+00
1.05190816623060157e+00
1.05190816623060157e+00
1.00782506872314070e+00
1.00782506872314070e+00
1.00782506872314070e+00
1.03357153726769502e+00
1.03357153726769502e+00
1.03357153726769502e+00
1.01967824100928084e+00
1.01967824100928084e+00
1.01967824100928084e+00
1.01623254656722528e+00
1.01623254656722528e+00
1.01623254656722528e+00
1.02788443751880409e+00
1.02788443751880409e+00
1.02788443751880409e+00
9.95349304321213713e-01
9.95349304321213713e-01
9.95349304321213713e-01
1.05609153904767727e+00
1.05609153904767727e+00
1.05609153904767727e+00
1.01944887740305479e+00
1.01944887740305479e+00
1.01944887740305479e+00
1.01717589021757071e+00
1.01717589021757071e+00
1.01717589021757071e+00
1.00419268716032439e+00
1.00419268716032439e+00
1.00419268716032439e+00
1.03032591879850921e+00
1.03032591879850921e+00
1.03032591879850921e+00
1.00449741428507422e+00
1.00449741428507422e+00
1.00449741428507422e+00
1.03183287549104641e+00
1.03183287549104641e+00
1.03183287549104641e+00
9.96541469699244065e-01
9.96541469699244065e-01
9.96541469699244065e-01
9.50398379144598904e-01
9.50398379144598904e-01
9.50398379144598904e-01
1.00568900948680717e+00
1.00568900948680717e+00
1.00568900948680717e+00
1.00841793249320300e+00
1.00841793249320300e+00
1.00841793249320300e+00
9.84316193171753562e-01
9.84316193171753562e-01
9.84316193171753562e-01
9.93798387870599931e-01
9.93798387870599931e-01
9.93798387870599931e-01
1.05480764645033909e+00
1.05480764645033909e+00
1.05480764645033909e+00
9.78331828874116072e-01
9.78331828874116072e-01
9.78331828874116072e-01


        </DataArray>

      </PointData>

      <CellData/>

      <Points>

        <DataArray type="Float64" NumberOfComponents="3" format="ascii">

0.1082531754723032 0.6875000000007816 0 0.23533274979922561 0.77093399389351469 0 0.10409951422139101 0.81206782209691231 0 0.23533274979922561 0.77093399389351469 0 0.1082531754723032 0.6875000000007816 0 0.21809253452218619 0.65480892822618109 0 0.24418615484441761 0.35773612382016978 0 0.121259140952891 0.43112117036853742 0 0.1082531754734323 0.31250000000117473 0 0.75000000000057243 0.35048094716480432 0 0.88173731489851925 0.33077402607778361 0 0.81242894672211508 0.45500248311961472 0 0.121259140952891 0.43112117036853742 0 0.24418615484441761 0.35773612382016978 0 0.22257735880419699 0.47344721641341742 0 0.81242894672211508 0.45500248311961472 0 0.88173731489851925 0.33077402607778361 0 0.915464298762109 0.43749999999886913 0 0 0.62500000000121547 0 0 0.50000000000206146 0 0.1371230538040123 0.56179824718362847 0 0.82212678063041267 0.67678595194836966 0 0.89051480781310632 0.79665793440246835 0 0.76243180583607129 0.78687675331113149 0 0.76243180583607129 0.78687675331113149 0 0.69010814643829166 0.89298495739101336 0 0.62844955668446423 0.7850749770380413 0 0.89051480781310632 0.79665793440246835 0 0.82212678063041267 0.67678595194836966 0 0.92266244547590082 0.68749999999917555 0 0 0.50000000000206146 0 0.121259140952891 0.43112117036853742 0 0.1371230538040123 0.56179824718362847 0 0.1082531754723032 0.6875000000007816 0 0 0.62500000000121547 0 0.1371230538040123 0.56179824718362847 0 0.75000000000032374 0.56698729811007709 0 0.88927506082488361 0.56409486310635837 0 0.82212678063041267 0.67678595194836966 0 0.81242894672211508 0.45500248311961472 0 0.88927506082488361 0.56409486310635837 0 0.75000000000032374 0.56698729811007709 0 0.69851598570178741 0.68211701800612057 0 0.56496004948275869 0.67675037307860475 0 0.62752533658682441 0.56838075195614346 0 0.69851598570178741 0.68211701800612057 0 0.76243180583607129 0.78687675331113149 0 0.62844955668446423 0.7850749770380413 0 0.23533274979922561 0.77093399389351469 0 0.18802967116092181 0.89415349436770275 0 0.10409951422139101 0.81206782209691231 0 0.121259140952891 0.43112117036853742 0 0.22257735880419699 0.47344721641341742 0 0.1371230538040123 0.56179824718362847 0 0.75000000000032374 0.56698729811007709 0 0.69851598570178741 0.68211701800612057 0 0.62752533658682441 0.56838075195614346 0 0.56496004948275869 0.67675037307860475 0 0.69851598570178741 0.68211701800612057 0 0.62844955668446423 0.7850749770380413 0 0.1371230538040123 0.56179824718362847 0 0.22257735880419699 0.47344721641341742 0 0.26982811998763367 0.56544650815856912 0 0.21809253452218619 0.65480892822618109 0 0.1371230538040123 0.56179824718362847 0 0.26982811998763367 0.56544650815856912 0 0.24418615484441761 0.35773612382016978 0 0.1082531754734323 0.31250000000117473 0 0.20767261601459541 0.25628918442207171 0 0.88173731489851925 0.33077402607778361 0 0.75000000000057243 0.35048094716480432 0 0.79891106056046712 0.25007334953587562 0 0.75000000000032374 0.56698729811007709 0 0.82212678063041267 0.67678595194836966 0 0.69851598570178741 0.68211701800612057 0 0.81249999999950517 0.1082531754733404 0 0.89658421694297741 0.1933620068391701 0 0.79891106056046712 0.25007334953587562 0 0.81249999999950517 0.1082531754733404 0 0.79891106056046712 0.25007334953587562 0 0.73983916756365475 0.17530677078674589 0 0.23533274979922561 0.77093399389351469 0 0.21809253452218619 0.65480892822618109 0 0.32607333794064219 0.67760114260606152 0 0.1082531754723032 0.6875000000007816 0 0.1371230538040123 0.56179824718362847 0 0.21809253452218619 0.65480892822618109 0 0.69851598570178741 0.68211701800612057 0 0.82212678063041267 0.67678595194836966 0 0.76243180583607129 0.78687675331113149 0 0.69010814643829166 0.89298495739101336 0 0.76243180583607129 0.78687675331113149 0 0.80886664387416207 0.89717308644237903 0 0.43750000000181222 0.89174682452709564 0 0.31258827852827581 0.89214793616708443 0 0.37776173212361452 0.78514649317305008 0 0.43750000000181222 0.89174682452709564 0 0.37500000000156292 1 0 0.31258827852827581 0.89214793616708443 0 0.121259140952891 0.43112117036853742 0 0 0.37500000000156292 0 0.1082531754734323 0.31250000000117473 0 0.50000000000206146 1 0 0.37500000000156292 1 0 0.43750000000181222 0.89174682452709564 0 0.31258827852827581 0.89214793616708443 0 0.18802967116092181 0.89415349436770275 0 0.23533274979922561 0.77093399389351469 0 0 0.50000000000206146 0 0 0.37500000000156292 0 0.121259140952891 0.43112117036853742 0 0.62844955668446423 0.7850749770380413 0 0.69010814643829166 0.89298495739101336 0 0.56327595140699671 0.89211526915426331 0 0.69010814643829166 0.89298495739101336 0 0.62500000000121547 1 0 0.56327595140699671 0.89211526915426331 0 0.25000000000104189 1 0 0.18802967116092181 0.89415349436770275 0 0.31258827852827581 0.89214793616708443 0 0.50000000000206146 1 0 0.43750000000181222 0.89174682452709564 0 0.56327595140699671 0.89211526915426331 0 0.56249999999885147 0.1082531754730395 0 0.62499999999901068 0 0 0.68749999999926592 0.1082531754732875 0 1 0.49999999999869221 0 1 0.62499999999901068 0 0.88927506082488361 0.56409486310635837 0 0 0.25000000000104189 0 0.12076953676380731 0.18690935762408761 0 0.1082531754734323 0.31250000000117473 0 0.49999999999869221 0 0 0.62499999999901068 0 0 0.56249999999885147 0.1082531754730395 0 0.62500000000121547 1 0 0.50000000000206146 1 0 0.56327595140699671 0.89211526915426331 0 0.37500000000156292 1 0 0.25000000000104189 1 0 0.31258827852827581 0.89214793616708443 0 0.31281086598417152 0.10449318608631281 0 0.37499999999904599 0 0 0.43749999999910871 0.1082531754729984 0 0.43750000000181222 0.89174682452709564 0 0.37776173212361452 0.78514649317305008 0 0.50046028868828263 0.78376912307435687 0 0 0.37500000000156292 0 0 0.25000000000104189 0 0.1082531754734323 0.31250000000117473 0 0.49999999999869221 0 0 0.56249999999885147 0.1082531754730395 0 0.43749999999910871 0.1082531754729984 0 0.43750000000181222 0.89174682452709564 0 0.50046028868828263 0.78376912307435687 0 0.56327595140699671 0.89211526915426331 0 0.74999999999934042 0 0 0.81249999999950517 0.1082531754733404 0 0.68749999999926592 0.1082531754732875 0 0.37499999999904599 0 0 0.49999999999869221 0 0 0.43749999999910871 0.1082531754729984 0 0.25000000000104189 1 0 0.12500000000052089 1 0 0.18802967116092181 0.89415349436770275 0 0.50046028868828263 0.78376912307435687 0 0.62844955668446423 0.7850749770380413 0 0.56327595140699671 0.89211526915426331 0 0.37776173212361452 0.78514649317305008 0 0.31258827852827581 0.89214793616708443 0 0.23533274979922561 0.77093399389351469 0 0.62499999999901068 0 0 0.74999999999934042 0 0 0.68749999999926592 0.1082531754732875 0 1 0.74999999999934042 0 1 0.87499999999967015 0 0.89051480781310632 0.79665793440246835 0 0 0.25000000000104189 0 0 0.12500000000052089 0 0.12076953676380731 0.18690935762408761 0 0.74999999999934042 0 0 0.87499999999967015 0 0 0.81249999999950517 0.1082531754733404 0 0.24999999999941069 0 0 0.37499999999904599 0 0 0.31281086598417152 0.10449318608631281 0 0.50046028868828263 0.78376912307435687 0 0.37776173212361452 0.78514649317305008 0 0.44078402250377968 0.67714785211715212 0 0.68768773896438518 0.4586835206367198 0 0.75000000000032374 0.56698729811007709 0 0.62752533658682441 0.56838075195614346 0 0.31411863959822661 0.24965544328045999 0 0.37953773393552892 0.34812185820708452 0 0.24418615484441761 0.35773612382016978 0 0.68768773896438518 0.4586835206367198 0 0.81242894672211508 0.45500248311961472 0 0.75000000000032374 0.56698729811007709 0 1 0.24999999999941069 0 1 0.37499999999904599 0 0.88173731489851925 0.33077402607778361 0 0 0.75000000000034761 0 0 0.62500000000121547 0 0.1082531754723032 0.6875000000007816 0 0.50048844149666749 0.56727788297625459 0 0.44078402250377968 0.67714785211715212 0 0.38694285807596462 0.5672991787102919 0 0.50108503093851109 0.35012252869403671 0 0.44301038174930041 0.45684931552185398 0 0.37953773393552892 0.34812185820708452 0 0.50046028868828263 0.78376912307435687 0 0.56496004948275869 0.67675037307860475 0 0.62844955668446423 0.7850749770380413 0 0.68768773896438518 0.4586835206367198 0 0.75000000000057243 0.35048094716480432 0 0.81242894672211508 0.45500248311961472 0 0.56349980387502452 0.45846841892908402 0 0.62512662990940393 0.35044303886909911 0 0.68768773896438518 0.4586835206367198 0 0.50048844149666749 0.56727788297625459 0 0.38694285807596462 0.5672991787102919 0 0.44301038174930041 0.45684931552185398 0 0.50046028868828263 0.78376912307435687 0 0.44078402250377968 0.67714785211715212 0 0.56496004948275869 0.67675037307860475 0 0.50108503093851109 0.35012252869403671 0 0.37953773393552892 0.34812185820708452 0 0.43750000000200551 0.24222777169198509 0 0.75000000000034761 1 0 0.62500000000121547 1 0 0.69010814643829166 0.89298495739101336 0 0.68768773896438518 0.4586835206367198 0 0.62512662990940393 0.35044303886909911 0 0.75000000000057243 0.35048094716480432 0 0.56496004948275869 0.67675037307860475 0 0.44078402250377968 0.67714785211715212 0 0.50048844149666749 0.56727788297625459 0 0.56349980387502452 0.45846841892908402 0 0.44301038174930041 0.45684931552185398 0 0.50108503093851109 0.35012252869403671 0 0.50048844149666749 0.56727788297625459 0 0.44301038174930041 0.45684931552185398 0 0.56349980387502452 0.45846841892908402 0 0.56349980387502452 0.45846841892908402 0 0.50108503093851109 0.35012252869403671 0 0.62512662990940393 0.35044303886909911 0 0.43750000000200551 0.24222777169198509 0 0.37953773393552892 0.34812185820708452 0 0.31411863959822661 0.24965544328045999 0 0.56496004948275869 0.67675037307860475 0 0.50048844149666749 0.56727788297625459 0 0.62752533658682441 0.56838075195614346 0 0.56349980387502452 0.45846841892908402 0 0.68768773896438518 0.4586835206367198 0 0.62752533658682441 0.56838075195614346 0 0.50048844149666749 0.56727788297625459 0 0.56349980387502452 0.45846841892908402 0 0.62752533658682441 0.56838075195614346 0 0.75000000000057243 0.35048094716480432 0 0.62512662990940393 0.35044303886909911 0 0.68668231842078242 0.24762892664808989 0 0.50108503093851109 0.35012252869403671 0 0.43750000000200551 0.24222777169198509 0 0.56250000000143974 0.2422277716920859 0 0.62512662990940393 0.35044303886909911 0 0.50108503093851109 0.35012252869403671 0 0.56250000000143974 0.2422277716920859 0 0.68668231842078242 0.24762892664808989 0 0.62512662990940393 0.35044303886909911 0 0.56250000000143974 0.2422277716920859 0 0.22257735880419699 0.47344721641341742 0 0.24418615484441761 0.35773612382016978 0 0.32815957677880009 0.4577243358118348 0 0.12076953676380731 0.18690935762408761 0 0.19185372118111221 0.092925648673580788 0 0.25103557339309318 0.17464499738446629 0 0.20767261601459541 0.25628918442207171 0 0.12076953676380731 0.18690935762408761 0 0.25103557339309318 0.17464499738446629 0 0 0.87499999999950151 0 0 0.75000000000034761 0 0.10409951422139101 0.81206782209691231 0 0.1249999999997731 0 0 0.24999999999941069 0 0 0.19185372118111221 0.092925648673580788 0 1 0.1249999999997731 0 1 0.24999999999941069 0 0.89658421694297741 0.1933620068391701 0 0.88927506082488361 0.56409486310635837 0 0.81242894672211508 0.45500248311961472 0 0.915464298762109 0.43749999999886913 0 0.87499999999950151 1 0 0.75000000000034761 1 0 0.80886664387416207 0.89717308644237903 0 0.75000000000034761 1 0 0.69010814643829166 0.89298495739101336 0 0.80886664387416207 0.89717308644237903 0 0.82212678063041267 0.67678595194836966 0 0.88927506082488361 0.56409486310635837 0 0.92266244547590082 0.68749999999917555 0 0 0.75000000000034761 0 0.1082531754723032 0.6875000000007816 0 0.10409951422139101 0.81206782209691231 0 0.24999999999941069 0 0 0.31281086598417152 0.10449318608631281 0 0.19185372118111221 0.092925648673580788 0 1 0.24999999999941069 0 0.88173731489851925 0.33077402607778361 0 0.89658421694297741 0.1933620068391701 0 0.32815957677880009 0.4577243358118348 0 0.38694285807596462 0.5672991787102919 0 0.26982811998763367 0.56544650815856912 0 0.76243180583607129 0.78687675331113149 0 0.89051480781310632 0.79665793440246835 0 0.80886664387416207 0.89717308644237903 0 0.38694285807596462 0.5672991787102919 0 0.44078402250377968 0.67714785211715212 0 0.32607333794064219 0.67760114260606152 0 0.37776173212361452 0.78514649317305008 0 0.23533274979922561 0.77093399389351469 0 0.32607333794064219 0.67760114260606152 0 1 0.49999999999869221 0 0.88927506082488361 0.56409486310635837 0 0.915464298762109 0.43749999999886913 0 0.88173731489851925 0.33077402607778361 0 1 0.37499999999904599 0 0.915464298762109 0.43749999999886913 0 0.24418615484441761 0.35773612382016978 0 0.37953773393552892 0.34812185820708452 0 0.32815957677880009 0.4577243358118348 0 0.44301038174930041 0.45684931552185398 0 0.38694285807596462 0.5672991787102919 0 0.32815957677880009 0.4577243358118348 0 0.88927506082488361 0.56409486310635837 0 1 0.62499999999901068 0 0.92266244547590082 0.68749999999917555 0 1 0.74999999999934042 0 0.89051480781310632 0.79665793440246835 0 0.92266244547590082 0.68749999999917555 0 0 1 0 0 0.87499999999950151 0 0.091506350946494744 0.90849364905351082 0 1 1 0 0.87499999999950151 1 0 0.90849364905363228 0.90849364905367769 0 0 0 0 0.1249999999997731 0 0 0.091506350946417708 0.091506350946618076 0 0 0.12500000000052089 0 0 0 0 0.091506350946417708 0.091506350946618076 0 1 0 0 1 0.1249999999997731 0 0.90849364905355434 0.091506350946296292 0 0.87499999999967015 0 0 1 0 0 0.90849364905355434 0.091506350946296292 0 0.12500000000052089 1 0 0 1 0 0.091506350946494744 0.90849364905351082 0 1 0.87499999999967015 0 1 1 0 0.90849364905363228 0.90849364905367769 0 0.38694285807596462 0.5672991787102919 0 0.32607333794064219 0.67760114260606152 0 0.26982811998763367 0.56544650815856912 0 0.31411863959822661 0.24965544328045999 0 0.24418615484441761 0.35773612382016978 0 0.20767261601459541 0.25628918442207171 0 0.1082531754734323 0.31250000000117473 0 0.12076953676380731 0.18690935762408761 0 0.20767261601459541 0.25628918442207171 0 0.75000000000057243 0.35048094716480432 0 0.68668231842078242 0.24762892664808989 0 0.79891106056046712 0.25007334953587562 0 0.22257735880419699 0.47344721641341742 0 0.32815957677880009 0.4577243358118348 0 0.26982811998763367 0.56544650815856912 0 0.44078402250377968 0.67714785211715212 0 0.37776173212361452 0.78514649317305008 0 0.32607333794064219 0.67760114260606152 0 0.89658421694297741 0.1933620068391701 0 0.88173731489851925 0.33077402607778361 0 0.79891106056046712 0.25007334953587562 0 1 0.37499999999904599 0 1 0.49999999999869221 0 0.915464298762109 0.43749999999886913 0 0.37953773393552892 0.34812185820708452 0 0.44301038174930041 0.45684931552185398 0 0.32815957677880009 0.4577243358118348 0 0.32607333794064219 0.67760114260606152 0 0.21809253452218619 0.65480892822618109 0 0.26982811998763367 0.56544650815856912 0 1 0.1249999999997731 0 0.89658421694297741 0.1933620068391701 0 0.90849364905355434 0.091506350946296292 0 0 0.87499999999950151 0 0.10409951422139101 0.81206782209691231 0 0.091506350946494744 0.90849364905351082 0 0.1249999999997731 0 0 0.19185372118111221 0.092925648673580788 0 0.091506350946417708 0.091506350946618076 0 1 0.62499999999901068 0 1 0.74999999999934042 0 0.92266244547590082 0.68749999999917555 0 0.18802967116092181 0.89415349436770275 0 0.12500000000052089 1 0 0.091506350946494744 0.90849364905351082 0 0.89051480781310632 0.79665793440246835 0 1 0.87499999999967015 0 0.90849364905363228 0.90849364905367769 0 0.12076953676380731 0.18690935762408761 0 0 0.12500000000052089 0 0.091506350946417708 0.091506350946618076 0 0.81249999999950517 0.1082531754733404 0 0.87499999999967015 0 0 0.90849364905355434 0.091506350946296292 0 0.87499999999950151 1 0 0.80886664387416207 0.89717308644237903 0 0.90849364905363228 0.90849364905367769 0 0.68668231842078242 0.24762892664808989 0 0.62499999999892575 0.17524047358135519 0 0.73983916756365475 0.17530677078674589 0 0.31281086598417152 0.10449318608631281 0 0.43749999999910871 0.1082531754729984 0 0.37500000000232431 0.17524047358384309 0 0.62499999999892575 0.17524047358135519 0 0.56250000000143974 0.2422277716920859 0 0.49999999999934441 0.1752404735815076 0 0.56249999999885147 0.1082531754730395 0 0.68749999999926592 0.1082531754732875 0 0.62499999999892575 0.17524047358135519 0 0.56249999999885147 0.1082531754730395 0 0.62499999999892575 0.17524047358135519 0 0.49999999999934441 0.1752404735815076 0 0.56250000000143974 0.2422277716920859 0 0.43750000000200551 0.24222777169198509 0 0.49999999999934441 0.1752404735815076 0 0.43749999999910871 0.1082531754729984 0 0.56249999999885147 0.1082531754730395 0 0.49999999999934441 0.1752404735815076 0 0.68668231842078242 0.24762892664808989 0 0.56250000000143974 0.2422277716920859 0 0.62499999999892575 0.17524047358135519 0 0.43750000000200551 0.24222777169198509 0 0.31411863959822661 0.24965544328045999 0 0.37500000000232431 0.17524047358384309 0 0.49999999999934441 0.1752404735815076 0 0.43750000000200551 0.24222777169198509 0 0.37500000000232431 0.17524047358384309 0 0.43749999999910871 0.1082531754729984 0 0.49999999999934441 0.1752404735815076 0 0.37500000000232431 0.17524047358384309 0 0.62499999999892575 0.17524047358135519 0 0.68749999999926592 0.1082531754732875 0 0.73983916756365475 0.17530677078674589 0 0.68749999999926592 0.1082531754732875 0 0.81249999999950517 0.1082531754733404 0 0.73983916756365475 0.17530677078674589 0 0.10409951422139101 0.81206782209691231 0 0.18802967116092181 0.89415349436770275 0 0.091506350946494744 0.90849364905351082 0 0.89658421694297741 0.1933620068391701 0 0.81249999999950517 0.1082531754733404 0 0.90849364905355434 0.091506350946296292 0 0.19185372118111221 0.092925648673580788 0 0.12076953676380731 0.18690935762408761 0 0.091506350946417708 0.091506350946618076 0 0.37500000000232431 0.17524047358384309 0 0.31411863959822661 0.24965544328045999 0 0.25103557339309318 0.17464499738446629 0 0.31281086598417152 0.10449318608631281 0 0.37500000000232431 0.17524047358384309 0 0.25103557339309318 0.17464499738446629 0 0.80886664387416207 0.89717308644237903 0 0.89051480781310632 0.79665793440246835 0 0.90849364905363228 0.90849364905367769 0 0.19185372118111221 0.092925648673580788 0 0.31281086598417152 0.10449318608631281 0 0.25103557339309318 0.17464499738446629 0 0.79891106056046712 0.25007334953587562 0 0.68668231842078242 0.24762892664808989 0 0.73983916756365475 0.17530677078674589 0 0.31411863959822661 0.24965544328045999 0 0.20767261601459541 0.25628918442207171 0 0.25103557339309318 0.17464499738446629 0 

        </DataArray>

      </Points>

      <Cells>

        <DataArray type="Int32" Name="connectivity" format="ascii">

0 1 2 3 4 5 6 7 8 9 10 11 12 13 14 15 16 17 18 19 20 21 22 23 24 25 26 27 28 29 30 31 32 33 34 35 36 37 38 39 40 41 42 43 44 45 46 47 48 49 50 51 52 53 54 55 56 57 58 59 60 61 62 63 64 65 66 67 68 69 70 71 72 73 74 75 76 77 78 79 80 81 82 83 84 85 86 87 88 89 90 91 92 93 94 95 96 97 98 99 100 101 102 103 104 105 106 107 108 109 110 111 112 113 114 115 116 117 118 119 120 121 122 123 124 125 126 127 128 129 130 131 132 133 134 135 136 137 138 139 140 141 142 143 144 145 146 147 148 149 150 151 152 153 154 155 156 157 158 159 160 161 162 163 164 165 166 167 168 169 170 171 172 173 174 175 176 177 178 179 180 181 182 183 184 185 186 187 188 189 190 191 192 193 194 195 196 197 198 199 200 201 202 203 204 205 206 207 208 209 210 211 212 213 214 215 216 217 218 219 220 221 222 223 224 225 226 227 228 229 230 231 232 233 234 235 236 237 238 239 240 241 242 243 244 245 246 247 248 249 250 251 252 253 254 255 256 257 258 259 260 261 262 263 264 265 266 267 268 269 270 271 272 273 274 275 276 277 278 279 280 281 282 283 284 285 286 287 288 289 290 291 292 293 294 295 296 297 298 299 300 301 302 303 304 305 306 307 308 309 310 311 312 313 314 315 316 317 318 319 320 321 322 323 324 325 326 327 328 329 330 331 332 333 334 335 336 337 338 339 340 341 342 343 344 345 346 347 348 349 350 351 352 353 354 355 356 357 358 359 360 361 362 363 364 365 366 367 368 369 370 371 372 373 374 375 376 377 378 379 380 381 382 383 384 385 386 387 388 389 390 391 392 393 394 395 396 397 398 399 400 401 402 403 404 405 406 407 408 409 410 411 412 413 414 415 416 417 418 419 420 421 422 423 424 425 426 427 428 429 430 431 432 433 434 435 436 437 438 439 440 441 442 443 444 445 446 447 448 449 450 451 452 453 454 455 456 457 458 459 460 461 462 463 464 465 466 467 468 469 470 471 472 473 474 475 476 477 478 479 480 481 482 483 484 485 

        </DataArray>

        <DataArray type="Int32" Name="offsets" format="ascii">

3 6 9 12 15 18 21 24 27 30 33 36 39 42 45 48 51 54 57 60 63 66 69 72 75 78 81 84 87 90 93 96 99 102 105 108 111 114 117 120 123 126 129 132 135 138 141 144 147 150 153 156 159 162 165 168 171 174 177 180 183 186 189 192 195 198 201 204 207 210 213 216 219 222 225 228 231 234 237 240 243 246 249 252 255 258 261 264 267 270 273 276 279 282 285 288 291 294 297 300 303 306 309 312 315 318 321 324 327 330 333 336 339 342 345 348 351 354 357 360 363 366 369 372 375 378 381 384 387 390 393 396 399 402 405 408 411 414 417 420 423 426 429 432 435 438 441 444 447 450 453 456 459 462 465 468 471 474 477 480 483 486 

        </DataArray>

        <DataArray type="Int32" Name="types" format="ascii">

5 5 5 5 5 5 5 5 5 5 5 5 5 5 5 5 5 5 5 5 5 5 5 5 5 5 5 5 5 5 5 5 5 5 5 5 5 5 5 5 5 5 5 5 5 5 5 5 5 5 5 5 5 5 5 5 5 5 5 5 5 5 5 5 5 5 5 5 5 5 5 5 5 5 5 5 5 5 5 5 5 5 5 5 5 5 5 5 5 5 5 5 5 5 5 5 5 5 5 5 5 5 5 5 5 5 5 5 5 5 5 5 5 5 5 5 5 5 5 5 5 5 5 5 5 5 5 5 5 5 5 5 5 5 5 5 5 5 5 5 5 5 5 5 5 5 5 5 5 5 5 5 5 5 5 5 5 5 5 5 5 5 

        </DataArray>

      </Cells>

    </Piece>

  </UnstructuredGrid>

</VTKFile>

