<?xml version="1.0"?>

<VTKFile type="UnstructuredGrid" version="0.1">

  <UnstructuredGrid>

    <Piece NumberOfPoints="486" NumberOfCells="162">

      <PointData>

        <DataArray type="Float64" Name="K" format="ascii">

1.02773202859385937e+00
1.02773202859385937e+00
1.02773202859385937e+00
1.03261675416149190e+00
1.03261675416149190e+00
1.03261675416149190e+00
9.99130321550595557e-01
9.99130321550595557e-01
9.99130321550595557e-01
1.02849611118620543e+00
1.02849611118620543e+00
1.02849611118620543e+00
9.97767139203263431e-01
9.97767139203263431e-01
9.97767139203263431e-01
1.00918704854421648e+00
1.00918704854421648e+00
1.00918704854421648e+00
1.01778926094768574e+00
1.01778926094768574e+00
1.01778926094768574e+00
9.91324475506263458e-01
9.91324475506263458e-01
9.91324475506263458e-01
9.51012809854423491e-01
9.51012809854423491e-01
9.51012809854423491e-01
9.97780013831964130e-01
9.97780013831964130e-01
9.97780013831964130e-01
1.01166528769321262e+00
1.01166528769321262e+00
1.01166528769321262e+00
1.02805885216246184e+00
1.02805885216246184e+00
1.02805885216246184e+00
9.80984823310414922e-01
9.80984823310414922e-01
9.80984823310414922e-01
9.94167559694558611e-01
9.94167559694558611e-01
9.94167559694558611e-01
9.66621443292492000e-01
9.66621443292492000e-01
9.66621443292492000e-01
9.44537623170624729e-01
9.44537623170624729e-01
9.44537623170624729e-01
9.95057827847046217e-01
9.95057827847046217e-01
9.95057827847046217e-01
1.00816449051950174e+00
1.00816449051950174e+00
1.00816449051950174e+00
9.75884476331840611e-01
9.75884476331840611e-01
9.75884476331840611e-01
9.48366484179356650e-01
9.48366484179356650e-01
9.48366484179356650e-01
1.02192549283748657e+00
1.02192549283748657e+00
1.02192549283748657e+00
1.03199970611228586e+00
1.03199970611228586e+00
1.03199970611228586e+00
1.00349360302613388e+00
1.00349360302613388e+00
1.00349360302613388e+00
1.03123299289416792e+00
1.03123299289416792e+00
1.03123299289416792e+00
9.67523983740961380e-01
9.67523983740961380e-01
9.67523983740961380e-01
1.00154886974488155e+00
1.00154886974488155e+00
1.00154886974488155e+00
1.00020842594049486e+00
1.00020842594049486e+00
1.00020842594049486e+00
1.01126192767926071e+00
1.01126192767926071e+00
1.01126192767926071e+00
1.03887274341357028e+00
1.03887274341357028e+00
1.03887274341357028e+00
9.63117140872543298e-01
9.63117140872543298e-01
9.63117140872543298e-01
9.92134121309095840e-01
9.92134121309095840e-01
9.92134121309095840e-01
9.92685843631205711e-01
9.92685843631205711e-01
9.92685843631205711e-01
9.85546570612315542e-01
9.85546570612315542e-01
9.85546570612315542e-01
1.02098084677164613e+00
1.02098084677164613e+00
1.02098084677164613e+00
9.74325542397458721e-01
9.74325542397458721e-01
9.74325542397458721e-01
9.75551683169919026e-01
9.75551683169919026e-01
9.75551683169919026e-01
1.02302035116217027e+00
1.02302035116217027e+00
1.02302035116217027e+00
9.39878368937282604e-01
9.39878368937282604e-01
9.39878368937282604e-01
9.56931912274162966e-01
9.56931912274162966e-01
9.56931912274162966e-01
9.60199011038886052e-01
9.60199011038886052e-01
9.60199011038886052e-01
9.63453792717669399e-01
9.63453792717669399e-01
9.63453792717669399e-01
1.02783238528335930e+00
1.02783238528335930e+00
1.02783238528335930e+00
1.01113169183682183e+00
1.01113169183682183e+00
1.01113169183682183e+00
1.04353508612154089e+00
1.04353508612154089e+00
1.04353508612154089e+00
1.03836841507797439e+00
1.03836841507797439e+00
1.03836841507797439e+00
9.56267190486008833e-01
9.56267190486008833e-01
9.56267190486008833e-01
9.71930635336842097e-01
9.71930635336842097e-01
9.71930635336842097e-01
1.03533132137367323e+00
1.03533132137367323e+00
1.03533132137367323e+00
9.93771894022351776e-01
9.93771894022351776e-01
9.93771894022351776e-01
1.03786207469236214e+00
1.03786207469236214e+00
1.03786207469236214e+00
1.02940992752816962e+00
1.02940992752816962e+00
1.02940992752816962e+00
9.71789615510670557e-01
9.71789615510670557e-01
9.71789615510670557e-01
9.82834263525668161e-01
9.82834263525668161e-01
9.82834263525668161e-01
1.02728287802194806e+00
1.02728287802194806e+00
1.02728287802194806e+00
9.41045845208324683e-01
9.41045845208324683e-01
9.41045845208324683e-01
9.49984422387682770e-01
9.49984422387682770e-01
9.49984422387682770e-01
9.85093841281060256e-01
9.85093841281060256e-01
9.85093841281060256e-01
1.01311483191570173e+00
1.01311483191570173e+00
1.01311483191570173e+00
1.00051712929404713e+00
1.00051712929404713e+00
1.00051712929404713e+00
1.04297457602237009e+00
1.04297457602237009e+00
1.04297457602237009e+00
9.60843653533783648e-01
9.60843653533783648e-01
9.60843653533783648e-01
1.06522668614303795e+00
1.06522668614303795e+00
1.06522668614303795e+00
9.92681011782013734e-01
9.92681011782013734e-01
9.92681011782013734e-01
1.00022778812564561e+00
1.00022778812564561e+00
1.00022778812564561e+00
1.00548744258087908e+00
1.00548744258087908e+00
1.00548744258087908e+00
1.01311749654015171e+00
1.01311749654015171e+00
1.01311749654015171e+00
9.93860338597308268e-01
9.93860338597308268e-01
9.93860338597308268e-01
1.02024731069103280e+00
1.02024731069103280e+00
1.02024731069103280e+00
9.72937225767860792e-01
9.72937225767860792e-01
9.72937225767860792e-01
9.77838133499132622e-01
9.77838133499132622e-01
9.77838133499132622e-01
9.59735132680365921e-01
9.59735132680365921e-01
9.59735132680365921e-01
1.03089522318577442e+00
1.03089522318577442e+00
1.03089522318577442e+00
9.88262404034272790e-01
9.88262404034272790e-01
9.88262404034272790e-01
9.65517802131194980e-01
9.65517802131194980e-01
9.65517802131194980e-01
9.81412313298641981e-01
9.81412313298641981e-01
9.81412313298641981e-01
9.93320529603836655e-01
9.93320529603836655e-01
9.93320529603836655e-01
9.98483358982372504e-01
9.98483358982372504e-01
9.98483358982372504e-01
1.01820698162780565e+00
1.01820698162780565e+00
1.01820698162780565e+00
9.75280731444463700e-01
9.75280731444463700e-01
9.75280731444463700e-01
9.55166778891143320e-01
9.55166778891143320e-01
9.55166778891143320e-01
9.55236809099195061e-01
9.55236809099195061e-01
9.55236809099195061e-01
9.61260621549373750e-01
9.61260621549373750e-01
9.61260621549373750e-01
1.00935265340141389e+00
1.00935265340141389e+00
1.00935265340141389e+00
9.72677770469126513e-01
9.72677770469126513e-01
9.72677770469126513e-01
9.89665594908866297e-01
9.89665594908866297e-01
9.89665594908866297e-01
9.68833945864255530e-01
9.68833945864255530e-01
9.68833945864255530e-01
1.01156346535579700e+00
1.01156346535579700e+00
1.01156346535579700e+00
9.86157750770348729e-01
9.86157750770348729e-01
9.86157750770348729e-01
9.69801215551790330e-01
9.69801215551790330e-01
9.69801215551790330e-01
9.85969427529066689e-01
9.85969427529066689e-01
9.85969427529066689e-01
1.00638365023218457e+00
1.00638365023218457e+00
1.00638365023218457e+00
1.05751650353619464e+00
1.05751650353619464e+00
1.05751650353619464e+00
1.03596116657864457e+00
1.03596116657864457e+00
1.03596116657864457e+00
1.00215095150440803e+00
1.00215095150440803e+00
1.00215095150440803e+00
1.08205269336247345e+00
1.08205269336247345e+00
1.08205269336247345e+00
9.75443317573663760e-01
9.75443317573663760e-01
9.75443317573663760e-01
9.98148354618797473e-01
9.98148354618797473e-01
9.98148354618797473e-01
1.04025481688075971e+00
1.04025481688075971e+00
1.04025481688075971e+00
1.01525798969552672e+00
1.01525798969552672e+00
1.01525798969552672e+00
9.91724685916181903e-01
9.91724685916181903e-01
9.91724685916181903e-01
1.02598425156964024e+00
1.02598425156964024e+00
1.02598425156964024e+00
1.07536121609213797e+00
1.07536121609213797e+00
1.07536121609213797e+00
9.96029566261710797e-01
9.96029566261710797e-01
9.96029566261710797e-01
1.00516401703377123e+00
1.00516401703377123e+00
1.00516401703377123e+00
1.00748320665959712e+00
1.00748320665959712e+00
1.00748320665959712e+00
9.85518696065035171e-01
9.85518696065035171e-01
9.85518696065035171e-01
9.92584531457799124e-01
9.92584531457799124e-01
9.92584531457799124e-01
1.00373172108514552e+00
1.00373172108514552e+00
1.00373172108514552e+00
1.00095722593192571e+00
1.00095722593192571e+00
1.00095722593192571e+00
1.00626897052994946e+00
1.00626897052994946e+00
1.00626897052994946e+00
9.86286795340610922e-01
9.86286795340610922e-01
9.86286795340610922e-01
1.00368978151699118e+00
1.00368978151699118e+00
1.00368978151699118e+00
1.00122670497783250e+00
1.00122670497783250e+00
1.00122670497783250e+00
9.54395299613525983e-01
9.54395299613525983e-01
9.54395299613525983e-01
1.03543409205188164e+00
1.03543409205188164e+00
1.03543409205188164e+00
1.04373812090281559e+00
1.04373812090281559e+00
1.04373812090281559e+00
1.03383277651389216e+00
1.03383277651389216e+00
1.03383277651389216e+00
9.57183979713727484e-01
9.57183979713727484e-01
9.57183979713727484e-01
9.53415538443348587e-01
9.53415538443348587e-01
9.53415538443348587e-01
9.32077814039929398e-01
9.32077814039929398e-01
9.32077814039929398e-01
1.02300214567600034e+00
1.02300214567600034e+00
1.02300214567600034e+00
1.00153147276431054e+00
1.00153147276431054e+00
1.00153147276431054e+00
1.00295921298960766e+00
1.00295921298960766e+00
1.00295921298960766e+00
1.03049882908516666e+00
1.03049882908516666e+00
1.03049882908516666e+00
1.02469300545678887e+00
1.02469300545678887e+00
1.02469300545678887e+00
1.01541215502711668e+00
1.01541215502711668e+00
1.01541215502711668e+00
9.90368282839845904e-01
9.90368282839845904e-01
9.90368282839845904e-01
1.01565730433123180e+00
1.01565730433123180e+00
1.01565730433123180e+00
1.00880301213661583e+00
1.00880301213661583e+00
1.00880301213661583e+00
9.93876671170541792e-01
9.93876671170541792e-01
9.93876671170541792e-01
1.01759742732182557e+00
1.01759742732182557e+00
1.01759742732182557e+00
9.75395145096952132e-01
9.75395145096952132e-01
9.75395145096952132e-01
9.86794087009040033e-01
9.86794087009040033e-01
9.86794087009040033e-01
1.06867060944569969e+00
1.06867060944569969e+00
1.06867060944569969e+00
1.00318692718395153e+00
1.00318692718395153e+00
1.00318692718395153e+00
9.48302215741878451e-01
9.48302215741878451e-01
9.48302215741878451e-01
1.01011322304057138e+00
1.01011322304057138e+00
1.01011322304057138e+00
1.05071964815890939e+00
1.05071964815890939e+00
1.05071964815890939e+00
9.62540004504744195e-01
9.62540004504744195e-01
9.62540004504744195e-01
1.03355340480186708e+00
1.03355340480186708e+00
1.03355340480186708e+00
9.98994568111981951e-01
9.98994568111981951e-01
9.98994568111981951e-01
1.02647394679908710e+00
1.02647394679908710e+00
1.02647394679908710e+00
1.00214348405827036e+00
1.00214348405827036e+00
1.00214348405827036e+00
1.01357945445798792e+00
1.01357945445798792e+00
1.01357945445798792e+00
1.01592323785659766e+00
1.01592323785659766e+00
1.01592323785659766e+00
1.00349162612141685e+00
1.00349162612141685e+00
1.00349162612141685e+00
1.02358894261057065e+00
1.02358894261057065e+00
1.02358894261057065e+00
9.93161605884131493e-01
9.93161605884131493e-01
9.93161605884131493e-01
1.01503925866080169e+00
1.01503925866080169e+00
1.01503925866080169e+00
1.01529186257257620e+00
1.01529186257257620e+00
1.01529186257257620e+00
1.02060249030471351e+00
1.02060249030471351e+00
1.02060249030471351e+00
9.99501425501329810e-01
9.99501425501329810e-01
9.99501425501329810e-01
9.89726576512999556e-01
9.89726576512999556e-01
9.89726576512999556e-01
9.80954508457241414e-01
9.80954508457241414e-01
9.80954508457241414e-01
9.82339551772219544e-01
9.82339551772219544e-01
9.82339551772219544e-01
1.06505714282124808e+00
1.06505714282124808e+00
1.06505714282124808e+00
1.01972917455846912e+00
1.01972917455846912e+00
1.01972917455846912e+00
1.03189681926469023e+00
1.03189681926469023e+00
1.03189681926469023e+00
1.01991613984356455e+00
1.01991613984356455e+00
1.01991613984356455e+00
1.05564574470339423e+00
1.05564574470339423e+00
1.05564574470339423e+00
1.01019219474396227e+00
1.01019219474396227e+00
1.01019219474396227e+00
1.01700690349199574e+00
1.01700690349199574e+00
1.01700690349199574e+00


        </DataArray>

      </PointData>

      <CellData/>

      <Points>

        <DataArray type="Float64" NumberOfComponents="3" format="ascii">

0.1082531754723032 0.6875000000007816 0 0.23533274979922561 0.77093399389351469 0 0.10409951422139101 0.81206782209691231 0 0.23533274979922561 0.77093399389351469 0 0.1082531754723032 0.6875000000007816 0 0.21809253452218619 0.65480892822618109 0 0.24418615484441761 0.35773612382016978 0 0.121259140952891 0.43112117036853742 0 0.1082531754734323 0.31250000000117473 0 0.75000000000057243 0.35048094716480432 0 0.88173731489851925 0.33077402607778361 0 0.81242894672211508 0.45500248311961472 0 0.121259140952891 0.43112117036853742 0 0.24418615484441761 0.35773612382016978 0 0.22257735880419699 0.47344721641341742 0 0.81242894672211508 0.45500248311961472 0 0.88173731489851925 0.33077402607778361 0 0.915464298762109 0.43749999999886913 0 0 0.62500000000121547 0 0 0.50000000000206146 0 0.1371230538040123 0.56179824718362847 0 0.82212678063041267 0.67678595194836966 0 0.89051480781310632 0.79665793440246835 0 0.76243180583607129 0.78687675331113149 0 0.76243180583607129 0.78687675331113149 0 0.69010814643829166 0.89298495739101336 0 0.62844955668446423 0.7850749770380413 0 0.89051480781310632 0.79665793440246835 0 0.82212678063041267 0.67678595194836966 0 0.92266244547590082 0.68749999999917555 0 0 0.50000000000206146 0 0.121259140952891 0.43112117036853742 0 0.1371230538040123 0.56179824718362847 0 0.1082531754723032 0.6875000000007816 0 0 0.62500000000121547 0 0.1371230538040123 0.56179824718362847 0 0.75000000000032374 0.56698729811007709 0 0.88927506082488361 0.56409486310635837 0 0.82212678063041267 0.67678595194836966 0 0.81242894672211508 0.45500248311961472 0 0.88927506082488361 0.56409486310635837 0 0.75000000000032374 0.56698729811007709 0 0.69851598570178741 0.68211701800612057 0 0.56496004948275869 0.67675037307860475 0 0.62752533658682441 0.56838075195614346 0 0.69851598570178741 0.68211701800612057 0 0.76243180583607129 0.78687675331113149 0 0.62844955668446423 0.7850749770380413 0 0.23533274979922561 0.77093399389351469 0 0.18802967116092181 0.89415349436770275 0 0.10409951422139101 0.81206782209691231 0 0.121259140952891 0.43112117036853742 0 0.22257735880419699 0.47344721641341742 0 0.1371230538040123 0.56179824718362847 0 0.75000000000032374 0.56698729811007709 0 0.69851598570178741 0.68211701800612057 0 0.62752533658682441 0.56838075195614346 0 0.56496004948275869 0.67675037307860475 0 0.69851598570178741 0.68211701800612057 0 0.62844955668446423 0.7850749770380413 0 0.1371230538040123 0.56179824718362847 0 0.22257735880419699 0.47344721641341742 0 0.26982811998763367 0.56544650815856912 0 0.21809253452218619 0.65480892822618109 0 0.1371230538040123 0.56179824718362847 0 0.26982811998763367 0.56544650815856912 0 0.24418615484441761 0.35773612382016978 0 0.1082531754734323 0.31250000000117473 0 0.20767261601459541 0.25628918442207171 0 0.88173731489851925 0.33077402607778361 0 0.75000000000057243 0.35048094716480432 0 0.79891106056046712 0.25007334953587562 0 0.75000000000032374 0.56698729811007709 0 0.82212678063041267 0.67678595194836966 0 0.69851598570178741 0.68211701800612057 0 0.81249999999950517 0.1082531754733404 0 0.89658421694297741 0.1933620068391701 0 0.79891106056046712 0.25007334953587562 0 0.81249999999950517 0.1082531754733404 0 0.79891106056046712 0.25007334953587562 0 0.73983916756365475 0.17530677078674589 0 0.23533274979922561 0.77093399389351469 0 0.21809253452218619 0.65480892822618109 0 0.32607333794064219 0.67760114260606152 0 0.1082531754723032 0.6875000000007816 0 0.1371230538040123 0.56179824718362847 0 0.21809253452218619 0.65480892822618109 0 0.69851598570178741 0.68211701800612057 0 0.82212678063041267 0.67678595194836966 0 0.76243180583607129 0.78687675331113149 0 0.69010814643829166 0.89298495739101336 0 0.76243180583607129 0.78687675331113149 0 0.80886664387416207 0.89717308644237903 0 0.43750000000181222 0.89174682452709564 0 0.31258827852827581 0.89214793616708443 0 0.37776173212361452 0.78514649317305008 0 0.43750000000181222 0.89174682452709564 0 0.37500000000156292 1 0 0.31258827852827581 0.89214793616708443 0 0.121259140952891 0.43112117036853742 0 0 0.37500000000156292 0 0.1082531754734323 0.31250000000117473 0 0.50000000000206146 1 0 0.37500000000156292 1 0 0.43750000000181222 0.89174682452709564 0 0.31258827852827581 0.89214793616708443 0 0.18802967116092181 0.89415349436770275 0 0.23533274979922561 0.77093399389351469 0 0 0.50000000000206146 0 0 0.37500000000156292 0 0.121259140952891 0.43112117036853742 0 0.62844955668446423 0.7850749770380413 0 0.69010814643829166 0.89298495739101336 0 0.56327595140699671 0.89211526915426331 0 0.69010814643829166 0.89298495739101336 0 0.62500000000121547 1 0 0.56327595140699671 0.89211526915426331 0 0.25000000000104189 1 0 0.18802967116092181 0.89415349436770275 0 0.31258827852827581 0.89214793616708443 0 0.50000000000206146 1 0 0.43750000000181222 0.89174682452709564 0 0.56327595140699671 0.89211526915426331 0 0.56249999999885147 0.1082531754730395 0 0.62499999999901068 0 0 0.68749999999926592 0.1082531754732875 0 1 0.49999999999869221 0 1 0.62499999999901068 0 0.88927506082488361 0.56409486310635837 0 0 0.25000000000104189 0 0.12076953676380731 0.18690935762408761 0 0.1082531754734323 0.31250000000117473 0 0.49999999999869221 0 0 0.62499999999901068 0 0 0.56249999999885147 0.1082531754730395 0 0.62500000000121547 1 0 0.50000000000206146 1 0 0.56327595140699671 0.89211526915426331 0 0.37500000000156292 1 0 0.25000000000104189 1 0 0.31258827852827581 0.89214793616708443 0 0.31281086598417152 0.10449318608631281 0 0.37499999999904599 0 0 0.43749999999910871 0.1082531754729984 0 0.43750000000181222 0.89174682452709564 0 0.37776173212361452 0.78514649317305008 0 0.50046028868828263 0.78376912307435687 0 0 0.37500000000156292 0 0 0.25000000000104189 0 0.1082531754734323 0.31250000000117473 0 0.49999999999869221 0 0 0.56249999999885147 0.1082531754730395 0 0.43749999999910871 0.1082531754729984 0 0.43750000000181222 0.89174682452709564 0 0.50046028868828263 0.78376912307435687 0 0.56327595140699671 0.89211526915426331 0 0.74999999999934042 0 0 0.81249999999950517 0.1082531754733404 0 0.68749999999926592 0.1082531754732875 0 0.37499999999904599 0 0 0.49999999999869221 0 0 0.43749999999910871 0.1082531754729984 0 0.25000000000104189 1 0 0.12500000000052089 1 0 0.18802967116092181 0.89415349436770275 0 0.50046028868828263 0.78376912307435687 0 0.62844955668446423 0.7850749770380413 0 0.56327595140699671 0.89211526915426331 0 0.37776173212361452 0.78514649317305008 0 0.31258827852827581 0.89214793616708443 0 0.23533274979922561 0.77093399389351469 0 0.62499999999901068 0 0 0.74999999999934042 0 0 0.68749999999926592 0.1082531754732875 0 1 0.74999999999934042 0 1 0.87499999999967015 0 0.89051480781310632 0.79665793440246835 0 0 0.25000000000104189 0 0 0.12500000000052089 0 0.12076953676380731 0.18690935762408761 0 0.74999999999934042 0 0 0.87499999999967015 0 0 0.81249999999950517 0.1082531754733404 0 0.24999999999941069 0 0 0.37499999999904599 0 0 0.31281086598417152 0.10449318608631281 0 0.50046028868828263 0.78376912307435687 0 0.37776173212361452 0.78514649317305008 0 0.44078402250377968 0.67714785211715212 0 0.68768773896438518 0.4586835206367198 0 0.75000000000032374 0.56698729811007709 0 0.62752533658682441 0.56838075195614346 0 0.31411863959822661 0.24965544328045999 0 0.37953773393552892 0.34812185820708452 0 0.24418615484441761 0.35773612382016978 0 0.68768773896438518 0.4586835206367198 0 0.81242894672211508 0.45500248311961472 0 0.75000000000032374 0.56698729811007709 0 1 0.24999999999941069 0 1 0.37499999999904599 0 0.88173731489851925 0.33077402607778361 0 0 0.75000000000034761 0 0 0.62500000000121547 0 0.1082531754723032 0.6875000000007816 0 0.50048844149666749 0.56727788297625459 0 0.44078402250377968 0.67714785211715212 0 0.38694285807596462 0.5672991787102919 0 0.50108503093851109 0.35012252869403671 0 0.44301038174930041 0.45684931552185398 0 0.37953773393552892 0.34812185820708452 0 0.50046028868828263 0.78376912307435687 0 0.56496004948275869 0.67675037307860475 0 0.62844955668446423 0.7850749770380413 0 0.68768773896438518 0.4586835206367198 0 0.75000000000057243 0.35048094716480432 0 0.81242894672211508 0.45500248311961472 0 0.56349980387502452 0.45846841892908402 0 0.62512662990940393 0.35044303886909911 0 0.68768773896438518 0.4586835206367198 0 0.50048844149666749 0.56727788297625459 0 0.38694285807596462 0.5672991787102919 0 0.44301038174930041 0.45684931552185398 0 0.50046028868828263 0.78376912307435687 0 0.44078402250377968 0.67714785211715212 0 0.56496004948275869 0.67675037307860475 0 0.50108503093851109 0.35012252869403671 0 0.37953773393552892 0.34812185820708452 0 0.43750000000200551 0.24222777169198509 0 0.75000000000034761 1 0 0.62500000000121547 1 0 0.69010814643829166 0.89298495739101336 0 0.68768773896438518 0.4586835206367198 0 0.62512662990940393 0.35044303886909911 0 0.75000000000057243 0.35048094716480432 0 0.56496004948275869 0.67675037307860475 0 0.44078402250377968 0.67714785211715212 0 0.50048844149666749 0.56727788297625459 0 0.56349980387502452 0.45846841892908402 0 0.44301038174930041 0.45684931552185398 0 0.50108503093851109 0.35012252869403671 0 0.50048844149666749 0.56727788297625459 0 0.44301038174930041 0.45684931552185398 0 0.56349980387502452 0.45846841892908402 0 0.56349980387502452 0.45846841892908402 0 0.50108503093851109 0.35012252869403671 0 0.62512662990940393 0.35044303886909911 0 0.43750000000200551 0.24222777169198509 0 0.37953773393552892 0.34812185820708452 0 0.31411863959822661 0.24965544328045999 0 0.56496004948275869 0.67675037307860475 0 0.50048844149666749 0.56727788297625459 0 0.62752533658682441 0.56838075195614346 0 0.56349980387502452 0.45846841892908402 0 0.68768773896438518 0.4586835206367198 0 0.62752533658682441 0.56838075195614346 0 0.50048844149666749 0.56727788297625459 0 0.56349980387502452 0.45846841892908402 0 0.62752533658682441 0.56838075195614346 0 0.75000000000057243 0.35048094716480432 0 0.62512662990940393 0.35044303886909911 0 0.68668231842078242 0.24762892664808989 0 0.50108503093851109 0.35012252869403671 0 0.43750000000200551 0.24222777169198509 0 0.56250000000143974 0.2422277716920859 0 0.62512662990940393 0.35044303886909911 0 0.50108503093851109 0.35012252869403671 0 0.56250000000143974 0.2422277716920859 0 0.68668231842078242 0.24762892664808989 0 0.62512662990940393 0.35044303886909911 0 0.56250000000143974 0.2422277716920859 0 0.22257735880419699 0.47344721641341742 0 0.24418615484441761 0.35773612382016978 0 0.32815957677880009 0.4577243358118348 0 0.12076953676380731 0.18690935762408761 0 0.19185372118111221 0.092925648673580788 0 0.25103557339309318 0.17464499738446629 0 0.20767261601459541 0.25628918442207171 0 0.12076953676380731 0.18690935762408761 0 0.25103557339309318 0.17464499738446629 0 0 0.87499999999950151 0 0 0.75000000000034761 0 0.10409951422139101 0.81206782209691231 0 0.1249999999997731 0 0 0.24999999999941069 0 0 0.19185372118111221 0.092925648673580788 0 1 0.1249999999997731 0 1 0.24999999999941069 0 0.89658421694297741 0.1933620068391701 0 0.88927506082488361 0.56409486310635837 0 0.81242894672211508 0.45500248311961472 0 0.915464298762109 0.43749999999886913 0 0.87499999999950151 1 0 0.75000000000034761 1 0 0.80886664387416207 0.89717308644237903 0 0.75000000000034761 1 0 0.69010814643829166 0.89298495739101336 0 0.80886664387416207 0.89717308644237903 0 0.82212678063041267 0.67678595194836966 0 0.88927506082488361 0.56409486310635837 0 0.92266244547590082 0.68749999999917555 0 0 0.75000000000034761 0 0.1082531754723032 0.6875000000007816 0 0.10409951422139101 0.81206782209691231 0 0.24999999999941069 0 0 0.31281086598417152 0.10449318608631281 0 0.19185372118111221 0.092925648673580788 0 1 0.24999999999941069 0 0.88173731489851925 0.33077402607778361 0 0.89658421694297741 0.1933620068391701 0 0.32815957677880009 0.4577243358118348 0 0.38694285807596462 0.5672991787102919 0 0.26982811998763367 0.56544650815856912 0 0.76243180583607129 0.78687675331113149 0 0.89051480781310632 0.79665793440246835 0 0.80886664387416207 0.89717308644237903 0 0.38694285807596462 0.5672991787102919 0 0.44078402250377968 0.67714785211715212 0 0.32607333794064219 0.67760114260606152 0 0.37776173212361452 0.78514649317305008 0 0.23533274979922561 0.77093399389351469 0 0.32607333794064219 0.67760114260606152 0 1 0.49999999999869221 0 0.88927506082488361 0.56409486310635837 0 0.915464298762109 0.43749999999886913 0 0.88173731489851925 0.33077402607778361 0 1 0.37499999999904599 0 0.915464298762109 0.43749999999886913 0 0.24418615484441761 0.35773612382016978 0 0.37953773393552892 0.34812185820708452 0 0.32815957677880009 0.4577243358118348 0 0.44301038174930041 0.45684931552185398 0 0.38694285807596462 0.5672991787102919 0 0.32815957677880009 0.4577243358118348 0 0.88927506082488361 0.56409486310635837 0 1 0.62499999999901068 0 0.92266244547590082 0.68749999999917555 0 1 0.74999999999934042 0 0.89051480781310632 0.79665793440246835 0 0.92266244547590082 0.68749999999917555 0 0 1 0 0 0.87499999999950151 0 0.091506350946494744 0.90849364905351082 0 1 1 0 0.87499999999950151 1 0 0.90849364905363228 0.90849364905367769 0 0 0 0 0.1249999999997731 0 0 0.091506350946417708 0.091506350946618076 0 0 0.12500000000052089 0 0 0 0 0.091506350946417708 0.091506350946618076 0 1 0 0 1 0.1249999999997731 0 0.90849364905355434 0.091506350946296292 0 0.87499999999967015 0 0 1 0 0 0.90849364905355434 0.091506350946296292 0 0.12500000000052089 1 0 0 1 0 0.091506350946494744 0.90849364905351082 0 1 0.87499999999967015 0 1 1 0 0.90849364905363228 0.90849364905367769 0 0.38694285807596462 0.5672991787102919 0 0.32607333794064219 0.67760114260606152 0 0.26982811998763367 0.56544650815856912 0 0.31411863959822661 0.24965544328045999 0 0.24418615484441761 0.35773612382016978 0 0.20767261601459541 0.25628918442207171 0 0.1082531754734323 0.31250000000117473 0 0.12076953676380731 0.18690935762408761 0 0.20767261601459541 0.25628918442207171 0 0.75000000000057243 0.35048094716480432 0 0.68668231842078242 0.24762892664808989 0 0.79891106056046712 0.25007334953587562 0 0.22257735880419699 0.47344721641341742 0 0.32815957677880009 0.4577243358118348 0 0.26982811998763367 0.56544650815856912 0 0.44078402250377968 0.67714785211715212 0 0.37776173212361452 0.78514649317305008 0 0.32607333794064219 0.67760114260606152 0 0.89658421694297741 0.1933620068391701 0 0.88173731489851925 0.33077402607778361 0 0.79891106056046712 0.25007334953587562 0 1 0.37499999999904599 0 1 0.49999999999869221 0 0.915464298762109 0.43749999999886913 0 0.37953773393552892 0.34812185820708452 0 0.44301038174930041 0.45684931552185398 0 0.32815957677880009 0.4577243358118348 0 0.32607333794064219 0.67760114260606152 0 0.21809253452218619 0.65480892822618109 0 0.26982811998763367 0.56544650815856912 0 1 0.1249999999997731 0 0.89658421694297741 0.1933620068391701 0 0.90849364905355434 0.091506350946296292 0 0 0.87499999999950151 0 0.10409951422139101 0.81206782209691231 0 0.091506350946494744 0.90849364905351082 0 0.1249999999997731 0 0 0.19185372118111221 0.092925648673580788 0 0.091506350946417708 0.091506350946618076 0 1 0.62499999999901068 0 1 0.74999999999934042 0 0.92266244547590082 0.68749999999917555 0 0.18802967116092181 0.89415349436770275 0 0.12500000000052089 1 0 0.091506350946494744 0.90849364905351082 0 0.89051480781310632 0.79665793440246835 0 1 0.87499999999967015 0 0.90849364905363228 0.90849364905367769 0 0.12076953676380731 0.18690935762408761 0 0 0.12500000000052089 0 0.091506350946417708 0.091506350946618076 0 0.81249999999950517 0.1082531754733404 0 0.87499999999967015 0 0 0.90849364905355434 0.091506350946296292 0 0.87499999999950151 1 0 0.80886664387416207 0.89717308644237903 0 0.90849364905363228 0.90849364905367769 0 0.68668231842078242 0.24762892664808989 0 0.62499999999892575 0.17524047358135519 0 0.73983916756365475 0.17530677078674589 0 0.31281086598417152 0.10449318608631281 0 0.43749999999910871 0.1082531754729984 0 0.37500000000232431 0.17524047358384309 0 0.62499999999892575 0.17524047358135519 0 0.56250000000143974 0.2422277716920859 0 0.49999999999934441 0.1752404735815076 0 0.56249999999885147 0.1082531754730395 0 0.68749999999926592 0.1082531754732875 0 0.62499999999892575 0.17524047358135519 0 0.56249999999885147 0.1082531754730395 0 0.62499999999892575 0.17524047358135519 0 0.49999999999934441 0.1752404735815076 0 0.56250000000143974 0.2422277716920859 0 0.43750000000200551 0.24222777169198509 0 0.49999999999934441 0.1752404735815076 0 0.43749999999910871 0.1082531754729984 0 0.56249999999885147 0.1082531754730395 0 0.49999999999934441 0.1752404735815076 0 0.68668231842078242 0.24762892664808989 0 0.56250000000143974 0.2422277716920859 0 0.62499999999892575 0.17524047358135519 0 0.43750000000200551 0.24222777169198509 0 0.31411863959822661 0.24965544328045999 0 0.37500000000232431 0.17524047358384309 0 0.49999999999934441 0.1752404735815076 0 0.43750000000200551 0.24222777169198509 0 0.37500000000232431 0.17524047358384309 0 0.43749999999910871 0.1082531754729984 0 0.49999999999934441 0.1752404735815076 0 0.37500000000232431 0.17524047358384309 0 0.62499999999892575 0.17524047358135519 0 0.68749999999926592 0.1082531754732875 0 0.73983916756365475 0.17530677078674589 0 0.68749999999926592 0.1082531754732875 0 0.81249999999950517 0.1082531754733404 0 0.73983916756365475 0.17530677078674589 0 0.10409951422139101 0.81206782209691231 0 0.18802967116092181 0.89415349436770275 0 0.091506350946494744 0.90849364905351082 0 0.89658421694297741 0.1933620068391701 0 0.81249999999950517 0.1082531754733404 0 0.90849364905355434 0.091506350946296292 0 0.19185372118111221 0.092925648673580788 0 0.12076953676380731 0.18690935762408761 0 0.091506350946417708 0.091506350946618076 0 0.37500000000232431 0.17524047358384309 0 0.31411863959822661 0.24965544328045999 0 0.25103557339309318 0.17464499738446629 0 0.31281086598417152 0.10449318608631281 0 0.37500000000232431 0.17524047358384309 0 0.25103557339309318 0.17464499738446629 0 0.80886664387416207 0.89717308644237903 0 0.89051480781310632 0.79665793440246835 0 0.90849364905363228 0.90849364905367769 0 0.19185372118111221 0.092925648673580788 0 0.31281086598417152 0.10449318608631281 0 0.25103557339309318 0.17464499738446629 0 0.79891106056046712 0.25007334953587562 0 0.68668231842078242 0.24762892664808989 0 0.73983916756365475 0.17530677078674589 0 0.31411863959822661 0.24965544328045999 0 0.20767261601459541 0.25628918442207171 0 0.25103557339309318 0.17464499738446629 0 

        </DataArray>

      </Points>

      <Cells>

        <DataArray type="Int32" Name="connectivity" format="ascii">

0 1 2 3 4 5 6 7 8 9 10 11 12 13 14 15 16 17 18 19 20 21 22 23 24 25 26 27 28 29 30 31 32 33 34 35 36 37 38 39 40 41 42 43 44 45 46 47 48 49 50 51 52 53 54 55 56 57 58 59 60 61 62 63 64 65 66 67 68 69 70 71 72 73 74 75 76 77 78 79 80 81 82 83 84 85 86 87 88 89 90 91 92 93 94 95 96 97 98 99 100 101 102 103 104 105 106 107 108 109 110 111 112 113 114 115 116 117 118 119 120 121 122 123 124 125 126 127 128 129 130 131 132 133 134 135 136 137 138 139 140 141 142 143 144 145 146 147 148 149 150 151 152 153 154 155 156 157 158 159 160 161 162 163 164 165 166 167 168 169 170 171 172 173 174 175 176 177 178 179 180 181 182 183 184 185 186 187 188 189 190 191 192 193 194 195 196 197 198 199 200 201 202 203 204 205 206 207 208 209 210 211 212 213 214 215 216 217 218 219 220 221 222 223 224 225 226 227 228 229 230 231 232 233 234 235 236 237 238 239 240 241 242 243 244 245 246 247 248 249 250 251 252 253 254 255 256 257 258 259 260 261 262 263 264 265 266 267 268 269 270 271 272 273 274 275 276 277 278 279 280 281 282 283 284 285 286 287 288 289 290 291 292 293 294 295 296 297 298 299 300 301 302 303 304 305 306 307 308 309 310 311 312 313 314 315 316 317 318 319 320 321 322 323 324 325 326 327 328 329 330 331 332 333 334 335 336 337 338 339 340 341 342 343 344 345 346 347 348 349 350 351 352 353 354 355 356 357 358 359 360 361 362 363 364 365 366 367 368 369 370 371 372 373 374 375 376 377 378 379 380 381 382 383 384 385 386 387 388 389 390 391 392 393 394 395 396 397 398 399 400 401 402 403 404 405 406 407 408 409 410 411 412 413 414 415 416 417 418 419 420 421 422 423 424 425 426 427 428 429 430 431 432 433 434 435 436 437 438 439 440 441 442 443 444 445 446 447 448 449 450 451 452 453 454 455 456 457 458 459 460 461 462 463 464 465 466 467 468 469 470 471 472 473 474 475 476 477 478 479 480 481 482 483 484 485 

        </DataArray>

        <DataArray type="Int32" Name="offsets" format="ascii">

3 6 9 12 15 18 21 24 27 30 33 36 39 42 45 48 51 54 57 60 63 66 69 72 75 78 81 84 87 90 93 96 99 102 105 108 111 114 117 120 123 126 129 132 135 138 141 144 147 150 153 156 159 162 165 168 171 174 177 180 183 186 189 192 195 198 201 204 207 210 213 216 219 222 225 228 231 234 237 240 243 246 249 252 255 258 261 264 267 270 273 276 279 282 285 288 291 294 297 300 303 306 309 312 315 318 321 324 327 330 333 336 339 342 345 348 351 354 357 360 363 366 369 372 375 378 381 384 387 390 393 396 399 402 405 408 411 414 417 420 423 426 429 432 435 438 441 444 447 450 453 456 459 462 465 468 471 474 477 480 483 486 

        </DataArray>

        <DataArray type="Int32" Name="types" format="ascii">

5 5 5 5 5 5 5 5 5 5 5 5 5 5 5 5 5 5 5 5 5 5 5 5 5 5 5 5 5 5 5 5 5 5 5 5 5 5 5 5 5 5 5 5 5 5 5 5 5 5 5 5 5 5 5 5 5 5 5 5 5 5 5 5 5 5 5 5 5 5 5 5 5 5 5 5 5 5 5 5 5 5 5 5 5 5 5 5 5 5 5 5 5 5 5 5 5 5 5 5 5 5 5 5 5 5 5 5 5 5 5 5 5 5 5 5 5 5 5 5 5 5 5 5 5 5 5 5 5 5 5 5 5 5 5 5 5 5 5 5 5 5 5 5 5 5 5 5 5 5 5 5 5 5 5 5 5 5 5 5 5 5 

        </DataArray>

      </Cells>

    </Piece>

  </UnstructuredGrid>

</VTKFile>

