<?xml version="1.0"?>

<VTKFile type="UnstructuredGrid" version="0.1">

  <UnstructuredGrid>

    <Piece NumberOfPoints="486" NumberOfCells="162">

      <PointData>

        <DataArray type="Float64" Name="K" format="ascii">

9.83158291216316815e-01
9.83158291216316815e-01
9.83158291216316815e-01
9.97146808667368711e-01
9.97146808667368711e-01
9.97146808667368711e-01
1.01909597553787612e+00
1.01909597553787612e+00
1.01909597553787612e+00
1.02129474444971824e+00
1.02129474444971824e+00
1.02129474444971824e+00
1.03385263127901350e+00
1.03385263127901350e+00
1.03385263127901350e+00
9.97926910937007472e-01
9.97926910937007472e-01
9.97926910937007472e-01
9.88029782149151825e-01
9.88029782149151825e-01
9.88029782149151825e-01
9.54169113685895409e-01
9.54169113685895409e-01
9.54169113685895409e-01
9.83181663214742319e-01
9.83181663214742319e-01
9.83181663214742319e-01
9.41686027710650131e-01
9.41686027710650131e-01
9.41686027710650131e-01
1.00239016961811656e+00
1.00239016961811656e+00
1.00239016961811656e+00
1.00202276501794185e+00
1.00202276501794185e+00
1.00202276501794185e+00
9.49048190331689190e-01
9.49048190331689190e-01
9.49048190331689190e-01
9.64724324651110687e-01
9.64724324651110687e-01
9.64724324651110687e-01
9.86630132664317872e-01
9.86630132664317872e-01
9.86630132664317872e-01
9.65359718206113882e-01
9.65359718206113882e-01
9.65359718206113882e-01
9.61397531088188595e-01
9.61397531088188595e-01
9.61397531088188595e-01
1.02974225031446243e+00
1.02974225031446243e+00
1.02974225031446243e+00
9.74983894817414876e-01
9.74983894817414876e-01
9.74983894817414876e-01
9.73197661199211694e-01
9.73197661199211694e-01
9.73197661199211694e-01
1.04053931455066340e+00
1.04053931455066340e+00
1.04053931455066340e+00
1.03044505087375748e+00
1.03044505087375748e+00
1.03044505087375748e+00
1.01672281128434960e+00
1.01672281128434960e+00
1.01672281128434960e+00
1.04431532503870161e+00
1.04431532503870161e+00
1.04431532503870161e+00
9.52054808010190268e-01
9.52054808010190268e-01
9.52054808010190268e-01
1.05564335813397570e+00
1.05564335813397570e+00
1.05564335813397570e+00
1.05325190607424446e+00
1.05325190607424446e+00
1.05325190607424446e+00
9.92531099547310669e-01
9.92531099547310669e-01
9.92531099547310669e-01
1.01770157021634078e+00
1.01770157021634078e+00
1.01770157021634078e+00
9.54499044614533387e-01
9.54499044614533387e-01
9.54499044614533387e-01
9.91677903735105004e-01
9.91677903735105004e-01
9.91677903735105004e-01
9.86389820283920304e-01
9.86389820283920304e-01
9.86389820283920304e-01
9.90212506312064922e-01
9.90212506312064922e-01
9.90212506312064922e-01
1.00838133307500244e+00
1.00838133307500244e+00
1.00838133307500244e+00
9.91127003946186580e-01
9.91127003946186580e-01
9.91127003946186580e-01
9.63902036768870096e-01
9.63902036768870096e-01
9.63902036768870096e-01
9.95437577933803275e-01
9.95437577933803275e-01
9.95437577933803275e-01
9.89058898571512302e-01
9.89058898571512302e-01
9.89058898571512302e-01
1.01260121908353784e+00
1.01260121908353784e+00
1.01260121908353784e+00
9.72416523753438455e-01
9.72416523753438455e-01
9.72416523753438455e-01
9.87559919768644545e-01
9.87559919768644545e-01
9.87559919768644545e-01
1.03725458181601904e+00
1.03725458181601904e+00
1.03725458181601904e+00
9.43047699173904741e-01
9.43047699173904741e-01
9.43047699173904741e-01
1.02498109107091051e+00
1.02498109107091051e+00
1.02498109107091051e+00
1.04671163556071645e+00
1.04671163556071645e+00
1.04671163556071645e+00
1.00820055697860123e+00
1.00820055697860123e+00
1.00820055697860123e+00
9.92062544071063424e-01
9.92062544071063424e-01
9.92062544071063424e-01
9.90489082396481257e-01
9.90489082396481257e-01
9.90489082396481257e-01
9.86973311179661028e-01
9.86973311179661028e-01
9.86973311179661028e-01
1.01884696922032947e+00
1.01884696922032947e+00
1.01884696922032947e+00
1.03228994817197117e+00
1.03228994817197117e+00
1.03228994817197117e+00
9.81207911275279732e-01
9.81207911275279732e-01
9.81207911275279732e-01
1.03583610895361056e+00
1.03583610895361056e+00
1.03583610895361056e+00
1.01105534507891415e+00
1.01105534507891415e+00
1.01105534507891415e+00
9.65617118076719128e-01
9.65617118076719128e-01
9.65617118076719128e-01
9.78518198090541080e-01
9.78518198090541080e-01
9.78518198090541080e-01
9.76905792285185925e-01
9.76905792285185925e-01
9.76905792285185925e-01
1.03823121882268454e+00
1.03823121882268454e+00
1.03823121882268454e+00
9.34334206455053273e-01
9.34334206455053273e-01
9.34334206455053273e-01
1.02722240576322910e+00
1.02722240576322910e+00
1.02722240576322910e+00
1.03529859313959571e+00
1.03529859313959571e+00
1.03529859313959571e+00
9.78648705345673608e-01
9.78648705345673608e-01
9.78648705345673608e-01
9.93721873239887588e-01
9.93721873239887588e-01
9.93721873239887588e-01
1.00043188771218583e+00
1.00043188771218583e+00
1.00043188771218583e+00
1.02548620122418255e+00
1.02548620122418255e+00
1.02548620122418255e+00
9.93194268177676531e-01
9.93194268177676531e-01
9.93194268177676531e-01
1.00565588971784337e+00
1.00565588971784337e+00
1.00565588971784337e+00
9.90714916499665921e-01
9.90714916499665921e-01
9.90714916499665921e-01
1.00921719105379193e+00
1.00921719105379193e+00
1.00921719105379193e+00
1.01629509767371129e+00
1.01629509767371129e+00
1.01629509767371129e+00
9.81816478788198221e-01
9.81816478788198221e-01
9.81816478788198221e-01
1.02137227655914420e+00
1.02137227655914420e+00
1.02137227655914420e+00
1.03610712880641542e+00
1.03610712880641542e+00
1.03610712880641542e+00
1.01340084558280119e+00
1.01340084558280119e+00
1.01340084558280119e+00
9.96920948514573357e-01
9.96920948514573357e-01
9.96920948514573357e-01
1.01710397393534846e+00
1.01710397393534846e+00
1.01710397393534846e+00
1.02972269720412291e+00
1.02972269720412291e+00
1.02972269720412291e+00
1.04020749119478184e+00
1.04020749119478184e+00
1.04020749119478184e+00
1.00961386288525801e+00
1.00961386288525801e+00
1.00961386288525801e+00
1.01779542112555421e+00
1.01779542112555421e+00
1.01779542112555421e+00
1.02015816975671969e+00
1.02015816975671969e+00
1.02015816975671969e+00
1.02527847121553650e+00
1.02527847121553650e+00
1.02527847121553650e+00
1.01876642655642979e+00
1.01876642655642979e+00
1.01876642655642979e+00
1.01297347550546313e+00
1.01297347550546313e+00
1.01297347550546313e+00
1.02743651662597957e+00
1.02743651662597957e+00
1.02743651662597957e+00
1.02551161404842972e+00
1.02551161404842972e+00
1.02551161404842972e+00
1.04397489269304233e+00
1.04397489269304233e+00
1.04397489269304233e+00
1.01534282961373767e+00
1.01534282961373767e+00
1.01534282961373767e+00
1.01953780574257347e+00
1.01953780574257347e+00
1.01953780574257347e+00
1.02800429274740535e+00
1.02800429274740535e+00
1.02800429274740535e+00
1.04325314405939151e+00
1.04325314405939151e+00
1.04325314405939151e+00
1.00658031139335913e+00
1.00658031139335913e+00
1.00658031139335913e+00
1.00781685525592812e+00
1.00781685525592812e+00
1.00781685525592812e+00
9.91747150453142323e-01
9.91747150453142323e-01
9.91747150453142323e-01
9.94693199380388471e-01
9.94693199380388471e-01
9.94693199380388471e-01
1.02015942234019508e+00
1.02015942234019508e+00
1.02015942234019508e+00
9.71673230389567322e-01
9.71673230389567322e-01
9.71673230389567322e-01
9.97692116040155508e-01
9.97692116040155508e-01
9.97692116040155508e-01
1.01165214961125494e+00
1.01165214961125494e+00
1.01165214961125494e+00
9.42364208797133562e-01
9.42364208797133562e-01
9.42364208797133562e-01
9.92375200428443072e-01
9.92375200428443072e-01
9.92375200428443072e-01
9.86152149004383971e-01
9.86152149004383971e-01
9.86152149004383971e-01
1.02582743077445238e+00
1.02582743077445238e+00
1.02582743077445238e+00
1.02652411869010085e+00
1.02652411869010085e+00
1.02652411869010085e+00
9.68626900852654127e-01
9.68626900852654127e-01
9.68626900852654127e-01
1.00203922475152174e+00
1.00203922475152174e+00
1.00203922475152174e+00
9.83547201300737139e-01
9.83547201300737139e-01
9.83547201300737139e-01
9.62714438167533659e-01
9.62714438167533659e-01
9.62714438167533659e-01
9.95812396810586087e-01
9.95812396810586087e-01
9.95812396810586087e-01
1.03573796214940117e+00
1.03573796214940117e+00
1.03573796214940117e+00
1.01897917965436302e+00
1.01897917965436302e+00
1.01897917965436302e+00
9.35911279624323966e-01
9.35911279624323966e-01
9.35911279624323966e-01
9.30058218866807840e-01
9.30058218866807840e-01
9.30058218866807840e-01
9.87704237970762344e-01
9.87704237970762344e-01
9.87704237970762344e-01
9.77673431633352852e-01
9.77673431633352852e-01
9.77673431633352852e-01
9.93582112113371774e-01
9.93582112113371774e-01
9.93582112113371774e-01
1.00214549009131004e+00
1.00214549009131004e+00
1.00214549009131004e+00
1.01591585116609862e+00
1.01591585116609862e+00
1.01591585116609862e+00
1.02276543963898403e+00
1.02276543963898403e+00
1.02276543963898403e+00
9.71834989487349477e-01
9.71834989487349477e-01
9.71834989487349477e-01
9.68262455603912664e-01
9.68262455603912664e-01
9.68262455603912664e-01
1.01185783587931288e+00
1.01185783587931288e+00
1.01185783587931288e+00
1.01617515934230873e+00
1.01617515934230873e+00
1.01617515934230873e+00
1.01645612326440693e+00
1.01645612326440693e+00
1.01645612326440693e+00
1.05174532182003766e+00
1.05174532182003766e+00
1.05174532182003766e+00
1.04231325673438402e+00
1.04231325673438402e+00
1.04231325673438402e+00
9.93586600712230927e-01
9.93586600712230927e-01
9.93586600712230927e-01
1.04576053506960953e+00
1.04576053506960953e+00
1.04576053506960953e+00
9.75566713963928245e-01
9.75566713963928245e-01
9.75566713963928245e-01
1.02413610110660747e+00
1.02413610110660747e+00
1.02413610110660747e+00
1.01287779095048647e+00
1.01287779095048647e+00
1.01287779095048647e+00
1.03161003084600611e+00
1.03161003084600611e+00
1.03161003084600611e+00
9.78417902366099157e-01
9.78417902366099157e-01
9.78417902366099157e-01
1.00634321845913832e+00
1.00634321845913832e+00
1.00634321845913832e+00
9.21923444056042873e-01
9.21923444056042873e-01
9.21923444056042873e-01
9.56875125093790579e-01
9.56875125093790579e-01
9.56875125093790579e-01
9.48281474616737285e-01
9.48281474616737285e-01
9.48281474616737285e-01
1.02201409996144799e+00
1.02201409996144799e+00
1.02201409996144799e+00
1.03964150305796954e+00
1.03964150305796954e+00
1.03964150305796954e+00
9.76471694578308291e-01
9.76471694578308291e-01
9.76471694578308291e-01
1.03382541712575837e+00
1.03382541712575837e+00
1.03382541712575837e+00
9.96839240652220959e-01
9.96839240652220959e-01
9.96839240652220959e-01
1.02050977790787711e+00
1.02050977790787711e+00
1.02050977790787711e+00
1.02757730689259352e+00
1.02757730689259352e+00
1.02757730689259352e+00
1.02591387869569761e+00
1.02591387869569761e+00
1.02591387869569761e+00
1.01867216377686076e+00
1.01867216377686076e+00
1.01867216377686076e+00
1.02700781104982819e+00
1.02700781104982819e+00
1.02700781104982819e+00
1.02393205965519951e+00
1.02393205965519951e+00
1.02393205965519951e+00
1.01074381743116937e+00
1.01074381743116937e+00
1.01074381743116937e+00
1.01636485999979942e+00
1.01636485999979942e+00
1.01636485999979942e+00
1.01519797829671576e+00
1.01519797829671576e+00
1.01519797829671576e+00
1.03083396795046855e+00
1.03083396795046855e+00
1.03083396795046855e+00
1.04066939538960068e+00
1.04066939538960068e+00
1.04066939538960068e+00
9.59668515952340928e-01
9.59668515952340928e-01
9.59668515952340928e-01
1.04818086741630001e+00
1.04818086741630001e+00
1.04818086741630001e+00
1.01666205379211583e+00
1.01666205379211583e+00
1.01666205379211583e+00
9.98930812070004226e-01
9.98930812070004226e-01
9.98930812070004226e-01
9.89748498953500144e-01
9.89748498953500144e-01
9.89748498953500144e-01
9.62055236584298479e-01
9.62055236584298479e-01
9.62055236584298479e-01
9.89966817038444469e-01
9.89966817038444469e-01
9.89966817038444469e-01
1.04994173916111766e+00
1.04994173916111766e+00
1.04994173916111766e+00
1.00315359537610727e+00
1.00315359537610727e+00
1.00315359537610727e+00


        </DataArray>

      </PointData>

      <CellData/>

      <Points>

        <DataArray type="Float64" NumberOfComponents="3" format="ascii">

0.1082531754723032 0.6875000000007816 0 0.23533274979922561 0.77093399389351469 0 0.10409951422139101 0.81206782209691231 0 0.23533274979922561 0.77093399389351469 0 0.1082531754723032 0.6875000000007816 0 0.21809253452218619 0.65480892822618109 0 0.24418615484441761 0.35773612382016978 0 0.121259140952891 0.43112117036853742 0 0.1082531754734323 0.31250000000117473 0 0.75000000000057243 0.35048094716480432 0 0.88173731489851925 0.33077402607778361 0 0.81242894672211508 0.45500248311961472 0 0.121259140952891 0.43112117036853742 0 0.24418615484441761 0.35773612382016978 0 0.22257735880419699 0.47344721641341742 0 0.81242894672211508 0.45500248311961472 0 0.88173731489851925 0.33077402607778361 0 0.915464298762109 0.43749999999886913 0 0 0.62500000000121547 0 0 0.50000000000206146 0 0.1371230538040123 0.56179824718362847 0 0.82212678063041267 0.67678595194836966 0 0.89051480781310632 0.79665793440246835 0 0.76243180583607129 0.78687675331113149 0 0.76243180583607129 0.78687675331113149 0 0.69010814643829166 0.89298495739101336 0 0.62844955668446423 0.7850749770380413 0 0.89051480781310632 0.79665793440246835 0 0.82212678063041267 0.67678595194836966 0 0.92266244547590082 0.68749999999917555 0 0 0.50000000000206146 0 0.121259140952891 0.43112117036853742 0 0.1371230538040123 0.56179824718362847 0 0.1082531754723032 0.6875000000007816 0 0 0.62500000000121547 0 0.1371230538040123 0.56179824718362847 0 0.75000000000032374 0.56698729811007709 0 0.88927506082488361 0.56409486310635837 0 0.82212678063041267 0.67678595194836966 0 0.81242894672211508 0.45500248311961472 0 0.88927506082488361 0.56409486310635837 0 0.75000000000032374 0.56698729811007709 0 0.69851598570178741 0.68211701800612057 0 0.56496004948275869 0.67675037307860475 0 0.62752533658682441 0.56838075195614346 0 0.69851598570178741 0.68211701800612057 0 0.76243180583607129 0.78687675331113149 0 0.62844955668446423 0.7850749770380413 0 0.23533274979922561 0.77093399389351469 0 0.18802967116092181 0.89415349436770275 0 0.10409951422139101 0.81206782209691231 0 0.121259140952891 0.43112117036853742 0 0.22257735880419699 0.47344721641341742 0 0.1371230538040123 0.56179824718362847 0 0.75000000000032374 0.56698729811007709 0 0.69851598570178741 0.68211701800612057 0 0.62752533658682441 0.56838075195614346 0 0.56496004948275869 0.67675037307860475 0 0.69851598570178741 0.68211701800612057 0 0.62844955668446423 0.7850749770380413 0 0.1371230538040123 0.56179824718362847 0 0.22257735880419699 0.47344721641341742 0 0.26982811998763367 0.56544650815856912 0 0.21809253452218619 0.65480892822618109 0 0.1371230538040123 0.56179824718362847 0 0.26982811998763367 0.56544650815856912 0 0.24418615484441761 0.35773612382016978 0 0.1082531754734323 0.31250000000117473 0 0.20767261601459541 0.25628918442207171 0 0.88173731489851925 0.33077402607778361 0 0.75000000000057243 0.35048094716480432 0 0.79891106056046712 0.25007334953587562 0 0.75000000000032374 0.56698729811007709 0 0.82212678063041267 0.67678595194836966 0 0.69851598570178741 0.68211701800612057 0 0.81249999999950517 0.1082531754733404 0 0.89658421694297741 0.1933620068391701 0 0.79891106056046712 0.25007334953587562 0 0.81249999999950517 0.1082531754733404 0 0.79891106056046712 0.25007334953587562 0 0.73983916756365475 0.17530677078674589 0 0.23533274979922561 0.77093399389351469 0 0.21809253452218619 0.65480892822618109 0 0.32607333794064219 0.67760114260606152 0 0.1082531754723032 0.6875000000007816 0 0.1371230538040123 0.56179824718362847 0 0.21809253452218619 0.65480892822618109 0 0.69851598570178741 0.68211701800612057 0 0.82212678063041267 0.67678595194836966 0 0.76243180583607129 0.78687675331113149 0 0.69010814643829166 0.89298495739101336 0 0.76243180583607129 0.78687675331113149 0 0.80886664387416207 0.89717308644237903 0 0.43750000000181222 0.89174682452709564 0 0.31258827852827581 0.89214793616708443 0 0.37776173212361452 0.78514649317305008 0 0.43750000000181222 0.89174682452709564 0 0.37500000000156292 1 0 0.31258827852827581 0.89214793616708443 0 0.121259140952891 0.43112117036853742 0 0 0.37500000000156292 0 0.1082531754734323 0.31250000000117473 0 0.50000000000206146 1 0 0.37500000000156292 1 0 0.43750000000181222 0.89174682452709564 0 0.31258827852827581 0.89214793616708443 0 0.18802967116092181 0.89415349436770275 0 0.23533274979922561 0.77093399389351469 0 0 0.50000000000206146 0 0 0.37500000000156292 0 0.121259140952891 0.43112117036853742 0 0.62844955668446423 0.7850749770380413 0 0.69010814643829166 0.89298495739101336 0 0.56327595140699671 0.89211526915426331 0 0.69010814643829166 0.89298495739101336 0 0.62500000000121547 1 0 0.56327595140699671 0.89211526915426331 0 0.25000000000104189 1 0 0.18802967116092181 0.89415349436770275 0 0.31258827852827581 0.89214793616708443 0 0.50000000000206146 1 0 0.43750000000181222 0.89174682452709564 0 0.56327595140699671 0.89211526915426331 0 0.56249999999885147 0.1082531754730395 0 0.62499999999901068 0 0 0.68749999999926592 0.1082531754732875 0 1 0.49999999999869221 0 1 0.62499999999901068 0 0.88927506082488361 0.56409486310635837 0 0 0.25000000000104189 0 0.12076953676380731 0.18690935762408761 0 0.1082531754734323 0.31250000000117473 0 0.49999999999869221 0 0 0.62499999999901068 0 0 0.56249999999885147 0.1082531754730395 0 0.62500000000121547 1 0 0.50000000000206146 1 0 0.56327595140699671 0.89211526915426331 0 0.37500000000156292 1 0 0.25000000000104189 1 0 0.31258827852827581 0.89214793616708443 0 0.31281086598417152 0.10449318608631281 0 0.37499999999904599 0 0 0.43749999999910871 0.1082531754729984 0 0.43750000000181222 0.89174682452709564 0 0.37776173212361452 0.78514649317305008 0 0.50046028868828263 0.78376912307435687 0 0 0.37500000000156292 0 0 0.25000000000104189 0 0.1082531754734323 0.31250000000117473 0 0.49999999999869221 0 0 0.56249999999885147 0.1082531754730395 0 0.43749999999910871 0.1082531754729984 0 0.43750000000181222 0.89174682452709564 0 0.50046028868828263 0.78376912307435687 0 0.56327595140699671 0.89211526915426331 0 0.74999999999934042 0 0 0.81249999999950517 0.1082531754733404 0 0.68749999999926592 0.1082531754732875 0 0.37499999999904599 0 0 0.49999999999869221 0 0 0.43749999999910871 0.1082531754729984 0 0.25000000000104189 1 0 0.12500000000052089 1 0 0.18802967116092181 0.89415349436770275 0 0.50046028868828263 0.78376912307435687 0 0.62844955668446423 0.7850749770380413 0 0.56327595140699671 0.89211526915426331 0 0.37776173212361452 0.78514649317305008 0 0.31258827852827581 0.89214793616708443 0 0.23533274979922561 0.77093399389351469 0 0.62499999999901068 0 0 0.74999999999934042 0 0 0.68749999999926592 0.1082531754732875 0 1 0.74999999999934042 0 1 0.87499999999967015 0 0.89051480781310632 0.79665793440246835 0 0 0.25000000000104189 0 0 0.12500000000052089 0 0.12076953676380731 0.18690935762408761 0 0.74999999999934042 0 0 0.87499999999967015 0 0 0.81249999999950517 0.1082531754733404 0 0.24999999999941069 0 0 0.37499999999904599 0 0 0.31281086598417152 0.10449318608631281 0 0.50046028868828263 0.78376912307435687 0 0.37776173212361452 0.78514649317305008 0 0.44078402250377968 0.67714785211715212 0 0.68768773896438518 0.4586835206367198 0 0.75000000000032374 0.56698729811007709 0 0.62752533658682441 0.56838075195614346 0 0.31411863959822661 0.24965544328045999 0 0.37953773393552892 0.34812185820708452 0 0.24418615484441761 0.35773612382016978 0 0.68768773896438518 0.4586835206367198 0 0.81242894672211508 0.45500248311961472 0 0.75000000000032374 0.56698729811007709 0 1 0.24999999999941069 0 1 0.37499999999904599 0 0.88173731489851925 0.33077402607778361 0 0 0.75000000000034761 0 0 0.62500000000121547 0 0.1082531754723032 0.6875000000007816 0 0.50048844149666749 0.56727788297625459 0 0.44078402250377968 0.67714785211715212 0 0.38694285807596462 0.5672991787102919 0 0.50108503093851109 0.35012252869403671 0 0.44301038174930041 0.45684931552185398 0 0.37953773393552892 0.34812185820708452 0 0.50046028868828263 0.78376912307435687 0 0.56496004948275869 0.67675037307860475 0 0.62844955668446423 0.7850749770380413 0 0.68768773896438518 0.4586835206367198 0 0.75000000000057243 0.35048094716480432 0 0.81242894672211508 0.45500248311961472 0 0.56349980387502452 0.45846841892908402 0 0.62512662990940393 0.35044303886909911 0 0.68768773896438518 0.4586835206367198 0 0.50048844149666749 0.56727788297625459 0 0.38694285807596462 0.5672991787102919 0 0.44301038174930041 0.45684931552185398 0 0.50046028868828263 0.78376912307435687 0 0.44078402250377968 0.67714785211715212 0 0.56496004948275869 0.67675037307860475 0 0.50108503093851109 0.35012252869403671 0 0.37953773393552892 0.34812185820708452 0 0.43750000000200551 0.24222777169198509 0 0.75000000000034761 1 0 0.62500000000121547 1 0 0.69010814643829166 0.89298495739101336 0 0.68768773896438518 0.4586835206367198 0 0.62512662990940393 0.35044303886909911 0 0.75000000000057243 0.35048094716480432 0 0.56496004948275869 0.67675037307860475 0 0.44078402250377968 0.67714785211715212 0 0.50048844149666749 0.56727788297625459 0 0.56349980387502452 0.45846841892908402 0 0.44301038174930041 0.45684931552185398 0 0.50108503093851109 0.35012252869403671 0 0.50048844149666749 0.56727788297625459 0 0.44301038174930041 0.45684931552185398 0 0.56349980387502452 0.45846841892908402 0 0.56349980387502452 0.45846841892908402 0 0.50108503093851109 0.35012252869403671 0 0.62512662990940393 0.35044303886909911 0 0.43750000000200551 0.24222777169198509 0 0.37953773393552892 0.34812185820708452 0 0.31411863959822661 0.24965544328045999 0 0.56496004948275869 0.67675037307860475 0 0.50048844149666749 0.56727788297625459 0 0.62752533658682441 0.56838075195614346 0 0.56349980387502452 0.45846841892908402 0 0.68768773896438518 0.4586835206367198 0 0.62752533658682441 0.56838075195614346 0 0.50048844149666749 0.56727788297625459 0 0.56349980387502452 0.45846841892908402 0 0.62752533658682441 0.56838075195614346 0 0.75000000000057243 0.35048094716480432 0 0.62512662990940393 0.35044303886909911 0 0.68668231842078242 0.24762892664808989 0 0.50108503093851109 0.35012252869403671 0 0.43750000000200551 0.24222777169198509 0 0.56250000000143974 0.2422277716920859 0 0.62512662990940393 0.35044303886909911 0 0.50108503093851109 0.35012252869403671 0 0.56250000000143974 0.2422277716920859 0 0.68668231842078242 0.24762892664808989 0 0.62512662990940393 0.35044303886909911 0 0.56250000000143974 0.2422277716920859 0 0.22257735880419699 0.47344721641341742 0 0.24418615484441761 0.35773612382016978 0 0.32815957677880009 0.4577243358118348 0 0.12076953676380731 0.18690935762408761 0 0.19185372118111221 0.092925648673580788 0 0.25103557339309318 0.17464499738446629 0 0.20767261601459541 0.25628918442207171 0 0.12076953676380731 0.18690935762408761 0 0.25103557339309318 0.17464499738446629 0 0 0.87499999999950151 0 0 0.75000000000034761 0 0.10409951422139101 0.81206782209691231 0 0.1249999999997731 0 0 0.24999999999941069 0 0 0.19185372118111221 0.092925648673580788 0 1 0.1249999999997731 0 1 0.24999999999941069 0 0.89658421694297741 0.1933620068391701 0 0.88927506082488361 0.56409486310635837 0 0.81242894672211508 0.45500248311961472 0 0.915464298762109 0.43749999999886913 0 0.87499999999950151 1 0 0.75000000000034761 1 0 0.80886664387416207 0.89717308644237903 0 0.75000000000034761 1 0 0.69010814643829166 0.89298495739101336 0 0.80886664387416207 0.89717308644237903 0 0.82212678063041267 0.67678595194836966 0 0.88927506082488361 0.56409486310635837 0 0.92266244547590082 0.68749999999917555 0 0 0.75000000000034761 0 0.1082531754723032 0.6875000000007816 0 0.10409951422139101 0.81206782209691231 0 0.24999999999941069 0 0 0.31281086598417152 0.10449318608631281 0 0.19185372118111221 0.092925648673580788 0 1 0.24999999999941069 0 0.88173731489851925 0.33077402607778361 0 0.89658421694297741 0.1933620068391701 0 0.32815957677880009 0.4577243358118348 0 0.38694285807596462 0.5672991787102919 0 0.26982811998763367 0.56544650815856912 0 0.76243180583607129 0.78687675331113149 0 0.89051480781310632 0.79665793440246835 0 0.80886664387416207 0.89717308644237903 0 0.38694285807596462 0.5672991787102919 0 0.44078402250377968 0.67714785211715212 0 0.32607333794064219 0.67760114260606152 0 0.37776173212361452 0.78514649317305008 0 0.23533274979922561 0.77093399389351469 0 0.32607333794064219 0.67760114260606152 0 1 0.49999999999869221 0 0.88927506082488361 0.56409486310635837 0 0.915464298762109 0.43749999999886913 0 0.88173731489851925 0.33077402607778361 0 1 0.37499999999904599 0 0.915464298762109 0.43749999999886913 0 0.24418615484441761 0.35773612382016978 0 0.37953773393552892 0.34812185820708452 0 0.32815957677880009 0.4577243358118348 0 0.44301038174930041 0.45684931552185398 0 0.38694285807596462 0.5672991787102919 0 0.32815957677880009 0.4577243358118348 0 0.88927506082488361 0.56409486310635837 0 1 0.62499999999901068 0 0.92266244547590082 0.68749999999917555 0 1 0.74999999999934042 0 0.89051480781310632 0.79665793440246835 0 0.92266244547590082 0.68749999999917555 0 0 1 0 0 0.87499999999950151 0 0.091506350946494744 0.90849364905351082 0 1 1 0 0.87499999999950151 1 0 0.90849364905363228 0.90849364905367769 0 0 0 0 0.1249999999997731 0 0 0.091506350946417708 0.091506350946618076 0 0 0.12500000000052089 0 0 0 0 0.091506350946417708 0.091506350946618076 0 1 0 0 1 0.1249999999997731 0 0.90849364905355434 0.091506350946296292 0 0.87499999999967015 0 0 1 0 0 0.90849364905355434 0.091506350946296292 0 0.12500000000052089 1 0 0 1 0 0.091506350946494744 0.90849364905351082 0 1 0.87499999999967015 0 1 1 0 0.90849364905363228 0.90849364905367769 0 0.38694285807596462 0.5672991787102919 0 0.32607333794064219 0.67760114260606152 0 0.26982811998763367 0.56544650815856912 0 0.31411863959822661 0.24965544328045999 0 0.24418615484441761 0.35773612382016978 0 0.20767261601459541 0.25628918442207171 0 0.1082531754734323 0.31250000000117473 0 0.12076953676380731 0.18690935762408761 0 0.20767261601459541 0.25628918442207171 0 0.75000000000057243 0.35048094716480432 0 0.68668231842078242 0.24762892664808989 0 0.79891106056046712 0.25007334953587562 0 0.22257735880419699 0.47344721641341742 0 0.32815957677880009 0.4577243358118348 0 0.26982811998763367 0.56544650815856912 0 0.44078402250377968 0.67714785211715212 0 0.37776173212361452 0.78514649317305008 0 0.32607333794064219 0.67760114260606152 0 0.89658421694297741 0.1933620068391701 0 0.88173731489851925 0.33077402607778361 0 0.79891106056046712 0.25007334953587562 0 1 0.37499999999904599 0 1 0.49999999999869221 0 0.915464298762109 0.43749999999886913 0 0.37953773393552892 0.34812185820708452 0 0.44301038174930041 0.45684931552185398 0 0.32815957677880009 0.4577243358118348 0 0.32607333794064219 0.67760114260606152 0 0.21809253452218619 0.65480892822618109 0 0.26982811998763367 0.56544650815856912 0 1 0.1249999999997731 0 0.89658421694297741 0.1933620068391701 0 0.90849364905355434 0.091506350946296292 0 0 0.87499999999950151 0 0.10409951422139101 0.81206782209691231 0 0.091506350946494744 0.90849364905351082 0 0.1249999999997731 0 0 0.19185372118111221 0.092925648673580788 0 0.091506350946417708 0.091506350946618076 0 1 0.62499999999901068 0 1 0.74999999999934042 0 0.92266244547590082 0.68749999999917555 0 0.18802967116092181 0.89415349436770275 0 0.12500000000052089 1 0 0.091506350946494744 0.90849364905351082 0 0.89051480781310632 0.79665793440246835 0 1 0.87499999999967015 0 0.90849364905363228 0.90849364905367769 0 0.12076953676380731 0.18690935762408761 0 0 0.12500000000052089 0 0.091506350946417708 0.091506350946618076 0 0.81249999999950517 0.1082531754733404 0 0.87499999999967015 0 0 0.90849364905355434 0.091506350946296292 0 0.87499999999950151 1 0 0.80886664387416207 0.89717308644237903 0 0.90849364905363228 0.90849364905367769 0 0.68668231842078242 0.24762892664808989 0 0.62499999999892575 0.17524047358135519 0 0.73983916756365475 0.17530677078674589 0 0.31281086598417152 0.10449318608631281 0 0.43749999999910871 0.1082531754729984 0 0.37500000000232431 0.17524047358384309 0 0.62499999999892575 0.17524047358135519 0 0.56250000000143974 0.2422277716920859 0 0.49999999999934441 0.1752404735815076 0 0.56249999999885147 0.1082531754730395 0 0.68749999999926592 0.1082531754732875 0 0.62499999999892575 0.17524047358135519 0 0.56249999999885147 0.1082531754730395 0 0.62499999999892575 0.17524047358135519 0 0.49999999999934441 0.1752404735815076 0 0.56250000000143974 0.2422277716920859 0 0.43750000000200551 0.24222777169198509 0 0.49999999999934441 0.1752404735815076 0 0.43749999999910871 0.1082531754729984 0 0.56249999999885147 0.1082531754730395 0 0.49999999999934441 0.1752404735815076 0 0.68668231842078242 0.24762892664808989 0 0.56250000000143974 0.2422277716920859 0 0.62499999999892575 0.17524047358135519 0 0.43750000000200551 0.24222777169198509 0 0.31411863959822661 0.24965544328045999 0 0.37500000000232431 0.17524047358384309 0 0.49999999999934441 0.1752404735815076 0 0.43750000000200551 0.24222777169198509 0 0.37500000000232431 0.17524047358384309 0 0.43749999999910871 0.1082531754729984 0 0.49999999999934441 0.1752404735815076 0 0.37500000000232431 0.17524047358384309 0 0.62499999999892575 0.17524047358135519 0 0.68749999999926592 0.1082531754732875 0 0.73983916756365475 0.17530677078674589 0 0.68749999999926592 0.1082531754732875 0 0.81249999999950517 0.1082531754733404 0 0.73983916756365475 0.17530677078674589 0 0.10409951422139101 0.81206782209691231 0 0.18802967116092181 0.89415349436770275 0 0.091506350946494744 0.90849364905351082 0 0.89658421694297741 0.1933620068391701 0 0.81249999999950517 0.1082531754733404 0 0.90849364905355434 0.091506350946296292 0 0.19185372118111221 0.092925648673580788 0 0.12076953676380731 0.18690935762408761 0 0.091506350946417708 0.091506350946618076 0 0.37500000000232431 0.17524047358384309 0 0.31411863959822661 0.24965544328045999 0 0.25103557339309318 0.17464499738446629 0 0.31281086598417152 0.10449318608631281 0 0.37500000000232431 0.17524047358384309 0 0.25103557339309318 0.17464499738446629 0 0.80886664387416207 0.89717308644237903 0 0.89051480781310632 0.79665793440246835 0 0.90849364905363228 0.90849364905367769 0 0.19185372118111221 0.092925648673580788 0 0.31281086598417152 0.10449318608631281 0 0.25103557339309318 0.17464499738446629 0 0.79891106056046712 0.25007334953587562 0 0.68668231842078242 0.24762892664808989 0 0.73983916756365475 0.17530677078674589 0 0.31411863959822661 0.24965544328045999 0 0.20767261601459541 0.25628918442207171 0 0.25103557339309318 0.17464499738446629 0 

        </DataArray>

      </Points>

      <Cells>

        <DataArray type="Int32" Name="connectivity" format="ascii">

0 1 2 3 4 5 6 7 8 9 10 11 12 13 14 15 16 17 18 19 20 21 22 23 24 25 26 27 28 29 30 31 32 33 34 35 36 37 38 39 40 41 42 43 44 45 46 47 48 49 50 51 52 53 54 55 56 57 58 59 60 61 62 63 64 65 66 67 68 69 70 71 72 73 74 75 76 77 78 79 80 81 82 83 84 85 86 87 88 89 90 91 92 93 94 95 96 97 98 99 100 101 102 103 104 105 106 107 108 109 110 111 112 113 114 115 116 117 118 119 120 121 122 123 124 125 126 127 128 129 130 131 132 133 134 135 136 137 138 139 140 141 142 143 144 145 146 147 148 149 150 151 152 153 154 155 156 157 158 159 160 161 162 163 164 165 166 167 168 169 170 171 172 173 174 175 176 177 178 179 180 181 182 183 184 185 186 187 188 189 190 191 192 193 194 195 196 197 198 199 200 201 202 203 204 205 206 207 208 209 210 211 212 213 214 215 216 217 218 219 220 221 222 223 224 225 226 227 228 229 230 231 232 233 234 235 236 237 238 239 240 241 242 243 244 245 246 247 248 249 250 251 252 253 254 255 256 257 258 259 260 261 262 263 264 265 266 267 268 269 270 271 272 273 274 275 276 277 278 279 280 281 282 283 284 285 286 287 288 289 290 291 292 293 294 295 296 297 298 299 300 301 302 303 304 305 306 307 308 309 310 311 312 313 314 315 316 317 318 319 320 321 322 323 324 325 326 327 328 329 330 331 332 333 334 335 336 337 338 339 340 341 342 343 344 345 346 347 348 349 350 351 352 353 354 355 356 357 358 359 360 361 362 363 364 365 366 367 368 369 370 371 372 373 374 375 376 377 378 379 380 381 382 383 384 385 386 387 388 389 390 391 392 393 394 395 396 397 398 399 400 401 402 403 404 405 406 407 408 409 410 411 412 413 414 415 416 417 418 419 420 421 422 423 424 425 426 427 428 429 430 431 432 433 434 435 436 437 438 439 440 441 442 443 444 445 446 447 448 449 450 451 452 453 454 455 456 457 458 459 460 461 462 463 464 465 466 467 468 469 470 471 472 473 474 475 476 477 478 479 480 481 482 483 484 485 

        </DataArray>

        <DataArray type="Int32" Name="offsets" format="ascii">

3 6 9 12 15 18 21 24 27 30 33 36 39 42 45 48 51 54 57 60 63 66 69 72 75 78 81 84 87 90 93 96 99 102 105 108 111 114 117 120 123 126 129 132 135 138 141 144 147 150 153 156 159 162 165 168 171 174 177 180 183 186 189 192 195 198 201 204 207 210 213 216 219 222 225 228 231 234 237 240 243 246 249 252 255 258 261 264 267 270 273 276 279 282 285 288 291 294 297 300 303 306 309 312 315 318 321 324 327 330 333 336 339 342 345 348 351 354 357 360 363 366 369 372 375 378 381 384 387 390 393 396 399 402 405 408 411 414 417 420 423 426 429 432 435 438 441 444 447 450 453 456 459 462 465 468 471 474 477 480 483 486 

        </DataArray>

        <DataArray type="Int32" Name="types" format="ascii">

5 5 5 5 5 5 5 5 5 5 5 5 5 5 5 5 5 5 5 5 5 5 5 5 5 5 5 5 5 5 5 5 5 5 5 5 5 5 5 5 5 5 5 5 5 5 5 5 5 5 5 5 5 5 5 5 5 5 5 5 5 5 5 5 5 5 5 5 5 5 5 5 5 5 5 5 5 5 5 5 5 5 5 5 5 5 5 5 5 5 5 5 5 5 5 5 5 5 5 5 5 5 5 5 5 5 5 5 5 5 5 5 5 5 5 5 5 5 5 5 5 5 5 5 5 5 5 5 5 5 5 5 5 5 5 5 5 5 5 5 5 5 5 5 5 5 5 5 5 5 5 5 5 5 5 5 5 5 5 5 5 5 

        </DataArray>

      </Cells>

    </Piece>

  </UnstructuredGrid>

</VTKFile>

