<?xml version="1.0"?>

<VTKFile type="UnstructuredGrid" version="0.1">

  <UnstructuredGrid>

    <Piece NumberOfPoints="486" NumberOfCells="162">

      <PointData>

        <DataArray type="Float64" Name="K" format="ascii">

1.03247628814887382e+00
1.03247628814887382e+00
1.03247628814887382e+00
1.01934761422080067e+00
1.01934761422080067e+00
1.01934761422080067e+00
9.32271192044084263e-01
9.32271192044084263e-01
9.32271192044084263e-01
1.02784616457712930e+00
1.02784616457712930e+00
1.02784616457712930e+00
9.25123815387886683e-01
9.25123815387886683e-01
9.25123815387886683e-01
1.04537565676768152e+00
1.04537565676768152e+00
1.04537565676768152e+00
9.42314417137028126e-01
9.42314417137028126e-01
9.42314417137028126e-01
1.01421595378400209e+00
1.01421595378400209e+00
1.01421595378400209e+00
1.07020638345061125e+00
1.07020638345061125e+00
1.07020638345061125e+00
9.95006259586189712e-01
9.95006259586189712e-01
9.95006259586189712e-01
9.15192468695486649e-01
9.15192468695486649e-01
9.15192468695486649e-01
9.70252445316581502e-01
9.70252445316581502e-01
9.70252445316581502e-01
1.01779015076289192e+00
1.01779015076289192e+00
1.01779015076289192e+00
1.02162669903361270e+00
1.02162669903361270e+00
1.02162669903361270e+00
1.04672095236527740e+00
1.04672095236527740e+00
1.04672095236527740e+00
1.06781655398966580e+00
1.06781655398966580e+00
1.06781655398966580e+00
1.06618953530441751e+00
1.06618953530441751e+00
1.06618953530441751e+00
9.18328638836051203e-01
9.18328638836051203e-01
9.18328638836051203e-01
1.04152265338244732e+00
1.04152265338244732e+00
1.04152265338244732e+00
1.06047467451141730e+00
1.06047467451141730e+00
1.06047467451141730e+00
9.35049312463459681e-01
9.35049312463459681e-01
9.35049312463459681e-01
9.61481159376164407e-01
9.61481159376164407e-01
9.61481159376164407e-01
9.65769107729172571e-01
9.65769107729172571e-01
9.65769107729172571e-01
1.02727780526875323e+00
1.02727780526875323e+00
1.02727780526875323e+00
1.03833327681184695e+00
1.03833327681184695e+00
1.03833327681184695e+00
1.02620500754332400e+00
1.02620500754332400e+00
1.02620500754332400e+00
1.00516218538494617e+00
1.00516218538494617e+00
1.00516218538494617e+00
1.06013401458934586e+00
1.06013401458934586e+00
1.06013401458934586e+00
9.71008652580804488e-01
9.71008652580804488e-01
9.71008652580804488e-01
1.04451898777276786e+00
1.04451898777276786e+00
1.04451898777276786e+00
1.04834491601547186e+00
1.04834491601547186e+00
1.04834491601547186e+00
1.11426215069289336e+00
1.11426215069289336e+00
1.11426215069289336e+00
1.08682467876192645e+00
1.08682467876192645e+00
1.08682467876192645e+00
9.15809680893281297e-01
9.15809680893281297e-01
9.15809680893281297e-01
1.06117601432293185e+00
1.06117601432293185e+00
1.06117601432293185e+00
1.10398447156228841e+00
1.10398447156228841e+00
1.10398447156228841e+00
9.07059600101079444e-01
9.07059600101079444e-01
9.07059600101079444e-01
1.06915577407295714e+00
1.06915577407295714e+00
1.06915577407295714e+00
1.05468981185534361e+00
1.05468981185534361e+00
1.05468981185534361e+00
1.08563667018649146e+00
1.08563667018649146e+00
1.08563667018649146e+00
1.05836588791120234e+00
1.05836588791120234e+00
1.05836588791120234e+00
9.44902327911925854e-01
9.44902327911925854e-01
9.44902327911925854e-01
9.99450248955514153e-01
9.99450248955514153e-01
9.99450248955514153e-01
9.82055750530344773e-01
9.82055750530344773e-01
9.82055750530344773e-01
9.72094127608066683e-01
9.72094127608066683e-01
9.72094127608066683e-01
1.04449680362961694e+00
1.04449680362961694e+00
1.04449680362961694e+00
1.07197070856847310e+00
1.07197070856847310e+00
1.07197070856847310e+00
1.03955618663493610e+00
1.03955618663493610e+00
1.03955618663493610e+00
1.09478201450965296e+00
1.09478201450965296e+00
1.09478201450965296e+00
9.47824484847672899e-01
9.47824484847672899e-01
9.47824484847672899e-01
9.86335733446601637e-01
9.86335733446601637e-01
9.86335733446601637e-01
1.06775340856066014e+00
1.06775340856066014e+00
1.06775340856066014e+00
9.59146350602536724e-01
9.59146350602536724e-01
9.59146350602536724e-01
1.02723583801818652e+00
1.02723583801818652e+00
1.02723583801818652e+00
1.05762588850753536e+00
1.05762588850753536e+00
1.05762588850753536e+00
1.06338894828424779e+00
1.06338894828424779e+00
1.06338894828424779e+00
1.12691302626290502e+00
1.12691302626290502e+00
1.12691302626290502e+00
9.33321699436362118e-01
9.33321699436362118e-01
9.33321699436362118e-01
1.03188127453155487e+00
1.03188127453155487e+00
1.03188127453155487e+00
1.02930433329287152e+00
1.02930433329287152e+00
1.02930433329287152e+00
9.74109148031459315e-01
9.74109148031459315e-01
9.74109148031459315e-01
1.06878983031357722e+00
1.06878983031357722e+00
1.06878983031357722e+00
1.09476120840257085e+00
1.09476120840257085e+00
1.09476120840257085e+00
1.02909163529054748e+00
1.02909163529054748e+00
1.02909163529054748e+00
9.44790461464269704e-01
9.44790461464269704e-01
9.44790461464269704e-01
1.02108597186790484e+00
1.02108597186790484e+00
1.02108597186790484e+00
1.08656446402188434e+00
1.08656446402188434e+00
1.08656446402188434e+00
1.00907899564625803e+00
1.00907899564625803e+00
1.00907899564625803e+00
1.04168335061202377e+00
1.04168335061202377e+00
1.04168335061202377e+00
9.14960073711588717e-01
9.14960073711588717e-01
9.14960073711588717e-01
1.05818811728004292e+00
1.05818811728004292e+00
1.05818811728004292e+00
1.01750004465314348e+00
1.01750004465314348e+00
1.01750004465314348e+00
1.01841902208808266e+00
1.01841902208808266e+00
1.01841902208808266e+00
9.94750612762443698e-01
9.94750612762443698e-01
9.94750612762443698e-01
1.06354047549116815e+00
1.06354047549116815e+00
1.06354047549116815e+00
9.06352180711448630e-01
9.06352180711448630e-01
9.06352180711448630e-01
1.04092690949967714e+00
1.04092690949967714e+00
1.04092690949967714e+00
1.01891960056467723e+00
1.01891960056467723e+00
1.01891960056467723e+00
1.04887712592980842e+00
1.04887712592980842e+00
1.04887712592980842e+00
9.61026822705700501e-01
9.61026822705700501e-01
9.61026822705700501e-01
9.93277868695854327e-01
9.93277868695854327e-01
9.93277868695854327e-01
9.86980030302983868e-01
9.86980030302983868e-01
9.86980030302983868e-01
9.29757421387633287e-01
9.29757421387633287e-01
9.29757421387633287e-01
1.03639891659699601e+00
1.03639891659699601e+00
1.03639891659699601e+00
1.02592759362010799e+00
1.02592759362010799e+00
1.02592759362010799e+00
1.02277113589938162e+00
1.02277113589938162e+00
1.02277113589938162e+00
1.01293188369439924e+00
1.01293188369439924e+00
1.01293188369439924e+00
9.24327319871740438e-01
9.24327319871740438e-01
9.24327319871740438e-01
9.67289453917605346e-01
9.67289453917605346e-01
9.67289453917605346e-01
9.91664787613117160e-01
9.91664787613117160e-01
9.91664787613117160e-01
9.26147122940904621e-01
9.26147122940904621e-01
9.26147122940904621e-01
1.05771767926473537e+00
1.05771767926473537e+00
1.05771767926473537e+00
1.02769099454099244e+00
1.02769099454099244e+00
1.02769099454099244e+00
1.03980888236565683e+00
1.03980888236565683e+00
1.03980888236565683e+00
1.10046156399958228e+00
1.10046156399958228e+00
1.10046156399958228e+00
1.08024292704696645e+00
1.08024292704696645e+00
1.08024292704696645e+00
1.03059366205484726e+00
1.03059366205484726e+00
1.03059366205484726e+00
1.03585595164502431e+00
1.03585595164502431e+00
1.03585595164502431e+00
1.04234045829737121e+00
1.04234045829737121e+00
1.04234045829737121e+00
9.97704473515676371e-01
9.97704473515676371e-01
9.97704473515676371e-01
1.02670159687892770e+00
1.02670159687892770e+00
1.02670159687892770e+00
1.08416604011221041e+00
1.08416604011221041e+00
1.08416604011221041e+00
1.07933057984067493e+00
1.07933057984067493e+00
1.07933057984067493e+00
9.64468050370255625e-01
9.64468050370255625e-01
9.64468050370255625e-01
1.02099720636984781e+00
1.02099720636984781e+00
1.02099720636984781e+00
1.06592206549281143e+00
1.06592206549281143e+00
1.06592206549281143e+00
1.11317665543453459e+00
1.11317665543453459e+00
1.11317665543453459e+00
1.02533918080578834e+00
1.02533918080578834e+00
1.02533918080578834e+00
1.06869660247765852e+00
1.06869660247765852e+00
1.06869660247765852e+00
9.21406171548334707e-01
9.21406171548334707e-01
9.21406171548334707e-01
9.53475562487418604e-01
9.53475562487418604e-01
9.53475562487418604e-01
9.91308115887240660e-01
9.91308115887240660e-01
9.91308115887240660e-01
1.00180849457855192e+00
1.00180849457855192e+00
1.00180849457855192e+00
1.02032218847985723e+00
1.02032218847985723e+00
1.02032218847985723e+00
1.05064612240712507e+00
1.05064612240712507e+00
1.05064612240712507e+00
1.08466290080890371e+00
1.08466290080890371e+00
1.08466290080890371e+00
1.07165694347328255e+00
1.07165694347328255e+00
1.07165694347328255e+00
1.03212296715863139e+00
1.03212296715863139e+00
1.03212296715863139e+00
1.00767539557223040e+00
1.00767539557223040e+00
1.00767539557223040e+00
1.02384826722074718e+00
1.02384826722074718e+00
1.02384826722074718e+00
1.05935288468657030e+00
1.05935288468657030e+00
1.05935288468657030e+00
1.02165081681623926e+00
1.02165081681623926e+00
1.02165081681623926e+00
9.80761775507103306e-01
9.80761775507103306e-01
9.80761775507103306e-01
9.88598305171861647e-01
9.88598305171861647e-01
9.88598305171861647e-01
1.01280770111006491e+00
1.01280770111006491e+00
1.01280770111006491e+00
9.36036441554443766e-01
9.36036441554443766e-01
9.36036441554443766e-01
1.10669454255522726e+00
1.10669454255522726e+00
1.10669454255522726e+00
1.04648770977202599e+00
1.04648770977202599e+00
1.04648770977202599e+00
1.04451520352012350e+00
1.04451520352012350e+00
1.04451520352012350e+00
9.15580769584545262e-01
9.15580769584545262e-01
9.15580769584545262e-01
1.01698221728226579e+00
1.01698221728226579e+00
1.01698221728226579e+00
1.05312901355192401e+00
1.05312901355192401e+00
1.05312901355192401e+00
1.03949773403317836e+00
1.03949773403317836e+00
1.03949773403317836e+00
1.09247420185578759e+00
1.09247420185578759e+00
1.09247420185578759e+00
9.99177250886286727e-01
9.99177250886286727e-01
9.99177250886286727e-01
1.05175732341956429e+00
1.05175732341956429e+00
1.05175732341956429e+00
1.03435335932884054e+00
1.03435335932884054e+00
1.03435335932884054e+00
1.05667943635759731e+00
1.05667943635759731e+00
1.05667943635759731e+00
1.00645305733114032e+00
1.00645305733114032e+00
1.00645305733114032e+00
1.03468151719131485e+00
1.03468151719131485e+00
1.03468151719131485e+00
9.85671889109173138e-01
9.85671889109173138e-01
9.85671889109173138e-01
1.01547114711910202e+00
1.01547114711910202e+00
1.01547114711910202e+00
9.48096799943394242e-01
9.48096799943394242e-01
9.48096799943394242e-01
9.52685695704988622e-01
9.52685695704988622e-01
9.52685695704988622e-01
9.48651132190601487e-01
9.48651132190601487e-01
9.48651132190601487e-01
9.29885315227725218e-01
9.29885315227725218e-01
9.29885315227725218e-01
9.59658363830358851e-01
9.59658363830358851e-01
9.59658363830358851e-01
9.75561388412581554e-01
9.75561388412581554e-01
9.75561388412581554e-01
9.61412925005830754e-01
9.61412925005830754e-01
9.61412925005830754e-01
9.44610342067829789e-01
9.44610342067829789e-01
9.44610342067829789e-01
9.69326501838914556e-01
9.69326501838914556e-01
9.69326501838914556e-01
9.69846424430658272e-01
9.69846424430658272e-01
9.69846424430658272e-01
9.79147901238264118e-01
9.79147901238264118e-01
9.79147901238264118e-01
1.05351160562417046e+00
1.05351160562417046e+00
1.05351160562417046e+00
1.02928374201336648e+00
1.02928374201336648e+00
1.02928374201336648e+00
1.06666036063724778e+00
1.06666036063724778e+00
1.06666036063724778e+00
1.01197586367973047e+00
1.01197586367973047e+00
1.01197586367973047e+00
1.03772712105449827e+00
1.03772712105449827e+00
1.03772712105449827e+00
1.02049612420255209e+00
1.02049612420255209e+00
1.02049612420255209e+00
1.06807559242363537e+00
1.06807559242363537e+00
1.06807559242363537e+00
1.00398934940507800e+00
1.00398934940507800e+00
1.00398934940507800e+00
1.01640344066361998e+00
1.01640344066361998e+00
1.01640344066361998e+00


        </DataArray>

      </PointData>

      <CellData/>

      <Points>

        <DataArray type="Float64" NumberOfComponents="3" format="ascii">

0.1082531754723032 0.6875000000007816 0 0.23533274979922561 0.77093399389351469 0 0.10409951422139101 0.81206782209691231 0 0.23533274979922561 0.77093399389351469 0 0.1082531754723032 0.6875000000007816 0 0.21809253452218619 0.65480892822618109 0 0.24418615484441761 0.35773612382016978 0 0.121259140952891 0.43112117036853742 0 0.1082531754734323 0.31250000000117473 0 0.75000000000057243 0.35048094716480432 0 0.88173731489851925 0.33077402607778361 0 0.81242894672211508 0.45500248311961472 0 0.121259140952891 0.43112117036853742 0 0.24418615484441761 0.35773612382016978 0 0.22257735880419699 0.47344721641341742 0 0.81242894672211508 0.45500248311961472 0 0.88173731489851925 0.33077402607778361 0 0.915464298762109 0.43749999999886913 0 0 0.62500000000121547 0 0 0.50000000000206146 0 0.1371230538040123 0.56179824718362847 0 0.82212678063041267 0.67678595194836966 0 0.89051480781310632 0.79665793440246835 0 0.76243180583607129 0.78687675331113149 0 0.76243180583607129 0.78687675331113149 0 0.69010814643829166 0.89298495739101336 0 0.62844955668446423 0.7850749770380413 0 0.89051480781310632 0.79665793440246835 0 0.82212678063041267 0.67678595194836966 0 0.92266244547590082 0.68749999999917555 0 0 0.50000000000206146 0 0.121259140952891 0.43112117036853742 0 0.1371230538040123 0.56179824718362847 0 0.1082531754723032 0.6875000000007816 0 0 0.62500000000121547 0 0.1371230538040123 0.56179824718362847 0 0.75000000000032374 0.56698729811007709 0 0.88927506082488361 0.56409486310635837 0 0.82212678063041267 0.67678595194836966 0 0.81242894672211508 0.45500248311961472 0 0.88927506082488361 0.56409486310635837 0 0.75000000000032374 0.56698729811007709 0 0.69851598570178741 0.68211701800612057 0 0.56496004948275869 0.67675037307860475 0 0.62752533658682441 0.56838075195614346 0 0.69851598570178741 0.68211701800612057 0 0.76243180583607129 0.78687675331113149 0 0.62844955668446423 0.7850749770380413 0 0.23533274979922561 0.77093399389351469 0 0.18802967116092181 0.89415349436770275 0 0.10409951422139101 0.81206782209691231 0 0.121259140952891 0.43112117036853742 0 0.22257735880419699 0.47344721641341742 0 0.1371230538040123 0.56179824718362847 0 0.75000000000032374 0.56698729811007709 0 0.69851598570178741 0.68211701800612057 0 0.62752533658682441 0.56838075195614346 0 0.56496004948275869 0.67675037307860475 0 0.69851598570178741 0.68211701800612057 0 0.62844955668446423 0.7850749770380413 0 0.1371230538040123 0.56179824718362847 0 0.22257735880419699 0.47344721641341742 0 0.26982811998763367 0.56544650815856912 0 0.21809253452218619 0.65480892822618109 0 0.1371230538040123 0.56179824718362847 0 0.26982811998763367 0.56544650815856912 0 0.24418615484441761 0.35773612382016978 0 0.1082531754734323 0.31250000000117473 0 0.20767261601459541 0.25628918442207171 0 0.88173731489851925 0.33077402607778361 0 0.75000000000057243 0.35048094716480432 0 0.79891106056046712 0.25007334953587562 0 0.75000000000032374 0.56698729811007709 0 0.82212678063041267 0.67678595194836966 0 0.69851598570178741 0.68211701800612057 0 0.81249999999950517 0.1082531754733404 0 0.89658421694297741 0.1933620068391701 0 0.79891106056046712 0.25007334953587562 0 0.81249999999950517 0.1082531754733404 0 0.79891106056046712 0.25007334953587562 0 0.73983916756365475 0.17530677078674589 0 0.23533274979922561 0.77093399389351469 0 0.21809253452218619 0.65480892822618109 0 0.32607333794064219 0.67760114260606152 0 0.1082531754723032 0.6875000000007816 0 0.1371230538040123 0.56179824718362847 0 0.21809253452218619 0.65480892822618109 0 0.69851598570178741 0.68211701800612057 0 0.82212678063041267 0.67678595194836966 0 0.76243180583607129 0.78687675331113149 0 0.69010814643829166 0.89298495739101336 0 0.76243180583607129 0.78687675331113149 0 0.80886664387416207 0.89717308644237903 0 0.43750000000181222 0.89174682452709564 0 0.31258827852827581 0.89214793616708443 0 0.37776173212361452 0.78514649317305008 0 0.43750000000181222 0.89174682452709564 0 0.37500000000156292 1 0 0.31258827852827581 0.89214793616708443 0 0.121259140952891 0.43112117036853742 0 0 0.37500000000156292 0 0.1082531754734323 0.31250000000117473 0 0.50000000000206146 1 0 0.37500000000156292 1 0 0.43750000000181222 0.89174682452709564 0 0.31258827852827581 0.89214793616708443 0 0.18802967116092181 0.89415349436770275 0 0.23533274979922561 0.77093399389351469 0 0 0.50000000000206146 0 0 0.37500000000156292 0 0.121259140952891 0.43112117036853742 0 0.62844955668446423 0.7850749770380413 0 0.69010814643829166 0.89298495739101336 0 0.56327595140699671 0.89211526915426331 0 0.69010814643829166 0.89298495739101336 0 0.62500000000121547 1 0 0.56327595140699671 0.89211526915426331 0 0.25000000000104189 1 0 0.18802967116092181 0.89415349436770275 0 0.31258827852827581 0.89214793616708443 0 0.50000000000206146 1 0 0.43750000000181222 0.89174682452709564 0 0.56327595140699671 0.89211526915426331 0 0.56249999999885147 0.1082531754730395 0 0.62499999999901068 0 0 0.68749999999926592 0.1082531754732875 0 1 0.49999999999869221 0 1 0.62499999999901068 0 0.88927506082488361 0.56409486310635837 0 0 0.25000000000104189 0 0.12076953676380731 0.18690935762408761 0 0.1082531754734323 0.31250000000117473 0 0.49999999999869221 0 0 0.62499999999901068 0 0 0.56249999999885147 0.1082531754730395 0 0.62500000000121547 1 0 0.50000000000206146 1 0 0.56327595140699671 0.89211526915426331 0 0.37500000000156292 1 0 0.25000000000104189 1 0 0.31258827852827581 0.89214793616708443 0 0.31281086598417152 0.10449318608631281 0 0.37499999999904599 0 0 0.43749999999910871 0.1082531754729984 0 0.43750000000181222 0.89174682452709564 0 0.37776173212361452 0.78514649317305008 0 0.50046028868828263 0.78376912307435687 0 0 0.37500000000156292 0 0 0.25000000000104189 0 0.1082531754734323 0.31250000000117473 0 0.49999999999869221 0 0 0.56249999999885147 0.1082531754730395 0 0.43749999999910871 0.1082531754729984 0 0.43750000000181222 0.89174682452709564 0 0.50046028868828263 0.78376912307435687 0 0.56327595140699671 0.89211526915426331 0 0.74999999999934042 0 0 0.81249999999950517 0.1082531754733404 0 0.68749999999926592 0.1082531754732875 0 0.37499999999904599 0 0 0.49999999999869221 0 0 0.43749999999910871 0.1082531754729984 0 0.25000000000104189 1 0 0.12500000000052089 1 0 0.18802967116092181 0.89415349436770275 0 0.50046028868828263 0.78376912307435687 0 0.62844955668446423 0.7850749770380413 0 0.56327595140699671 0.89211526915426331 0 0.37776173212361452 0.78514649317305008 0 0.31258827852827581 0.89214793616708443 0 0.23533274979922561 0.77093399389351469 0 0.62499999999901068 0 0 0.74999999999934042 0 0 0.68749999999926592 0.1082531754732875 0 1 0.74999999999934042 0 1 0.87499999999967015 0 0.89051480781310632 0.79665793440246835 0 0 0.25000000000104189 0 0 0.12500000000052089 0 0.12076953676380731 0.18690935762408761 0 0.74999999999934042 0 0 0.87499999999967015 0 0 0.81249999999950517 0.1082531754733404 0 0.24999999999941069 0 0 0.37499999999904599 0 0 0.31281086598417152 0.10449318608631281 0 0.50046028868828263 0.78376912307435687 0 0.37776173212361452 0.78514649317305008 0 0.44078402250377968 0.67714785211715212 0 0.68768773896438518 0.4586835206367198 0 0.75000000000032374 0.56698729811007709 0 0.62752533658682441 0.56838075195614346 0 0.31411863959822661 0.24965544328045999 0 0.37953773393552892 0.34812185820708452 0 0.24418615484441761 0.35773612382016978 0 0.68768773896438518 0.4586835206367198 0 0.81242894672211508 0.45500248311961472 0 0.75000000000032374 0.56698729811007709 0 1 0.24999999999941069 0 1 0.37499999999904599 0 0.88173731489851925 0.33077402607778361 0 0 0.75000000000034761 0 0 0.62500000000121547 0 0.1082531754723032 0.6875000000007816 0 0.50048844149666749 0.56727788297625459 0 0.44078402250377968 0.67714785211715212 0 0.38694285807596462 0.5672991787102919 0 0.50108503093851109 0.35012252869403671 0 0.44301038174930041 0.45684931552185398 0 0.37953773393552892 0.34812185820708452 0 0.50046028868828263 0.78376912307435687 0 0.56496004948275869 0.67675037307860475 0 0.62844955668446423 0.7850749770380413 0 0.68768773896438518 0.4586835206367198 0 0.75000000000057243 0.35048094716480432 0 0.81242894672211508 0.45500248311961472 0 0.56349980387502452 0.45846841892908402 0 0.62512662990940393 0.35044303886909911 0 0.68768773896438518 0.4586835206367198 0 0.50048844149666749 0.56727788297625459 0 0.38694285807596462 0.5672991787102919 0 0.44301038174930041 0.45684931552185398 0 0.50046028868828263 0.78376912307435687 0 0.44078402250377968 0.67714785211715212 0 0.56496004948275869 0.67675037307860475 0 0.50108503093851109 0.35012252869403671 0 0.37953773393552892 0.34812185820708452 0 0.43750000000200551 0.24222777169198509 0 0.75000000000034761 1 0 0.62500000000121547 1 0 0.69010814643829166 0.89298495739101336 0 0.68768773896438518 0.4586835206367198 0 0.62512662990940393 0.35044303886909911 0 0.75000000000057243 0.35048094716480432 0 0.56496004948275869 0.67675037307860475 0 0.44078402250377968 0.67714785211715212 0 0.50048844149666749 0.56727788297625459 0 0.56349980387502452 0.45846841892908402 0 0.44301038174930041 0.45684931552185398 0 0.50108503093851109 0.35012252869403671 0 0.50048844149666749 0.56727788297625459 0 0.44301038174930041 0.45684931552185398 0 0.56349980387502452 0.45846841892908402 0 0.56349980387502452 0.45846841892908402 0 0.50108503093851109 0.35012252869403671 0 0.62512662990940393 0.35044303886909911 0 0.43750000000200551 0.24222777169198509 0 0.37953773393552892 0.34812185820708452 0 0.31411863959822661 0.24965544328045999 0 0.56496004948275869 0.67675037307860475 0 0.50048844149666749 0.56727788297625459 0 0.62752533658682441 0.56838075195614346 0 0.56349980387502452 0.45846841892908402 0 0.68768773896438518 0.4586835206367198 0 0.62752533658682441 0.56838075195614346 0 0.50048844149666749 0.56727788297625459 0 0.56349980387502452 0.45846841892908402 0 0.62752533658682441 0.56838075195614346 0 0.75000000000057243 0.35048094716480432 0 0.62512662990940393 0.35044303886909911 0 0.68668231842078242 0.24762892664808989 0 0.50108503093851109 0.35012252869403671 0 0.43750000000200551 0.24222777169198509 0 0.56250000000143974 0.2422277716920859 0 0.62512662990940393 0.35044303886909911 0 0.50108503093851109 0.35012252869403671 0 0.56250000000143974 0.2422277716920859 0 0.68668231842078242 0.24762892664808989 0 0.62512662990940393 0.35044303886909911 0 0.56250000000143974 0.2422277716920859 0 0.22257735880419699 0.47344721641341742 0 0.24418615484441761 0.35773612382016978 0 0.32815957677880009 0.4577243358118348 0 0.12076953676380731 0.18690935762408761 0 0.19185372118111221 0.092925648673580788 0 0.25103557339309318 0.17464499738446629 0 0.20767261601459541 0.25628918442207171 0 0.12076953676380731 0.18690935762408761 0 0.25103557339309318 0.17464499738446629 0 0 0.87499999999950151 0 0 0.75000000000034761 0 0.10409951422139101 0.81206782209691231 0 0.1249999999997731 0 0 0.24999999999941069 0 0 0.19185372118111221 0.092925648673580788 0 1 0.1249999999997731 0 1 0.24999999999941069 0 0.89658421694297741 0.1933620068391701 0 0.88927506082488361 0.56409486310635837 0 0.81242894672211508 0.45500248311961472 0 0.915464298762109 0.43749999999886913 0 0.87499999999950151 1 0 0.75000000000034761 1 0 0.80886664387416207 0.89717308644237903 0 0.75000000000034761 1 0 0.69010814643829166 0.89298495739101336 0 0.80886664387416207 0.89717308644237903 0 0.82212678063041267 0.67678595194836966 0 0.88927506082488361 0.56409486310635837 0 0.92266244547590082 0.68749999999917555 0 0 0.75000000000034761 0 0.1082531754723032 0.6875000000007816 0 0.10409951422139101 0.81206782209691231 0 0.24999999999941069 0 0 0.31281086598417152 0.10449318608631281 0 0.19185372118111221 0.092925648673580788 0 1 0.24999999999941069 0 0.88173731489851925 0.33077402607778361 0 0.89658421694297741 0.1933620068391701 0 0.32815957677880009 0.4577243358118348 0 0.38694285807596462 0.5672991787102919 0 0.26982811998763367 0.56544650815856912 0 0.76243180583607129 0.78687675331113149 0 0.89051480781310632 0.79665793440246835 0 0.80886664387416207 0.89717308644237903 0 0.38694285807596462 0.5672991787102919 0 0.44078402250377968 0.67714785211715212 0 0.32607333794064219 0.67760114260606152 0 0.37776173212361452 0.78514649317305008 0 0.23533274979922561 0.77093399389351469 0 0.32607333794064219 0.67760114260606152 0 1 0.49999999999869221 0 0.88927506082488361 0.56409486310635837 0 0.915464298762109 0.43749999999886913 0 0.88173731489851925 0.33077402607778361 0 1 0.37499999999904599 0 0.915464298762109 0.43749999999886913 0 0.24418615484441761 0.35773612382016978 0 0.37953773393552892 0.34812185820708452 0 0.32815957677880009 0.4577243358118348 0 0.44301038174930041 0.45684931552185398 0 0.38694285807596462 0.5672991787102919 0 0.32815957677880009 0.4577243358118348 0 0.88927506082488361 0.56409486310635837 0 1 0.62499999999901068 0 0.92266244547590082 0.68749999999917555 0 1 0.74999999999934042 0 0.89051480781310632 0.79665793440246835 0 0.92266244547590082 0.68749999999917555 0 0 1 0 0 0.87499999999950151 0 0.091506350946494744 0.90849364905351082 0 1 1 0 0.87499999999950151 1 0 0.90849364905363228 0.90849364905367769 0 0 0 0 0.1249999999997731 0 0 0.091506350946417708 0.091506350946618076 0 0 0.12500000000052089 0 0 0 0 0.091506350946417708 0.091506350946618076 0 1 0 0 1 0.1249999999997731 0 0.90849364905355434 0.091506350946296292 0 0.87499999999967015 0 0 1 0 0 0.90849364905355434 0.091506350946296292 0 0.12500000000052089 1 0 0 1 0 0.091506350946494744 0.90849364905351082 0 1 0.87499999999967015 0 1 1 0 0.90849364905363228 0.90849364905367769 0 0.38694285807596462 0.5672991787102919 0 0.32607333794064219 0.67760114260606152 0 0.26982811998763367 0.56544650815856912 0 0.31411863959822661 0.24965544328045999 0 0.24418615484441761 0.35773612382016978 0 0.20767261601459541 0.25628918442207171 0 0.1082531754734323 0.31250000000117473 0 0.12076953676380731 0.18690935762408761 0 0.20767261601459541 0.25628918442207171 0 0.75000000000057243 0.35048094716480432 0 0.68668231842078242 0.24762892664808989 0 0.79891106056046712 0.25007334953587562 0 0.22257735880419699 0.47344721641341742 0 0.32815957677880009 0.4577243358118348 0 0.26982811998763367 0.56544650815856912 0 0.44078402250377968 0.67714785211715212 0 0.37776173212361452 0.78514649317305008 0 0.32607333794064219 0.67760114260606152 0 0.89658421694297741 0.1933620068391701 0 0.88173731489851925 0.33077402607778361 0 0.79891106056046712 0.25007334953587562 0 1 0.37499999999904599 0 1 0.49999999999869221 0 0.915464298762109 0.43749999999886913 0 0.37953773393552892 0.34812185820708452 0 0.44301038174930041 0.45684931552185398 0 0.32815957677880009 0.4577243358118348 0 0.32607333794064219 0.67760114260606152 0 0.21809253452218619 0.65480892822618109 0 0.26982811998763367 0.56544650815856912 0 1 0.1249999999997731 0 0.89658421694297741 0.1933620068391701 0 0.90849364905355434 0.091506350946296292 0 0 0.87499999999950151 0 0.10409951422139101 0.81206782209691231 0 0.091506350946494744 0.90849364905351082 0 0.1249999999997731 0 0 0.19185372118111221 0.092925648673580788 0 0.091506350946417708 0.091506350946618076 0 1 0.62499999999901068 0 1 0.74999999999934042 0 0.92266244547590082 0.68749999999917555 0 0.18802967116092181 0.89415349436770275 0 0.12500000000052089 1 0 0.091506350946494744 0.90849364905351082 0 0.89051480781310632 0.79665793440246835 0 1 0.87499999999967015 0 0.90849364905363228 0.90849364905367769 0 0.12076953676380731 0.18690935762408761 0 0 0.12500000000052089 0 0.091506350946417708 0.091506350946618076 0 0.81249999999950517 0.1082531754733404 0 0.87499999999967015 0 0 0.90849364905355434 0.091506350946296292 0 0.87499999999950151 1 0 0.80886664387416207 0.89717308644237903 0 0.90849364905363228 0.90849364905367769 0 0.68668231842078242 0.24762892664808989 0 0.62499999999892575 0.17524047358135519 0 0.73983916756365475 0.17530677078674589 0 0.31281086598417152 0.10449318608631281 0 0.43749999999910871 0.1082531754729984 0 0.37500000000232431 0.17524047358384309 0 0.62499999999892575 0.17524047358135519 0 0.56250000000143974 0.2422277716920859 0 0.49999999999934441 0.1752404735815076 0 0.56249999999885147 0.1082531754730395 0 0.68749999999926592 0.1082531754732875 0 0.62499999999892575 0.17524047358135519 0 0.56249999999885147 0.1082531754730395 0 0.62499999999892575 0.17524047358135519 0 0.49999999999934441 0.1752404735815076 0 0.56250000000143974 0.2422277716920859 0 0.43750000000200551 0.24222777169198509 0 0.49999999999934441 0.1752404735815076 0 0.43749999999910871 0.1082531754729984 0 0.56249999999885147 0.1082531754730395 0 0.49999999999934441 0.1752404735815076 0 0.68668231842078242 0.24762892664808989 0 0.56250000000143974 0.2422277716920859 0 0.62499999999892575 0.17524047358135519 0 0.43750000000200551 0.24222777169198509 0 0.31411863959822661 0.24965544328045999 0 0.37500000000232431 0.17524047358384309 0 0.49999999999934441 0.1752404735815076 0 0.43750000000200551 0.24222777169198509 0 0.37500000000232431 0.17524047358384309 0 0.43749999999910871 0.1082531754729984 0 0.49999999999934441 0.1752404735815076 0 0.37500000000232431 0.17524047358384309 0 0.62499999999892575 0.17524047358135519 0 0.68749999999926592 0.1082531754732875 0 0.73983916756365475 0.17530677078674589 0 0.68749999999926592 0.1082531754732875 0 0.81249999999950517 0.1082531754733404 0 0.73983916756365475 0.17530677078674589 0 0.10409951422139101 0.81206782209691231 0 0.18802967116092181 0.89415349436770275 0 0.091506350946494744 0.90849364905351082 0 0.89658421694297741 0.1933620068391701 0 0.81249999999950517 0.1082531754733404 0 0.90849364905355434 0.091506350946296292 0 0.19185372118111221 0.092925648673580788 0 0.12076953676380731 0.18690935762408761 0 0.091506350946417708 0.091506350946618076 0 0.37500000000232431 0.17524047358384309 0 0.31411863959822661 0.24965544328045999 0 0.25103557339309318 0.17464499738446629 0 0.31281086598417152 0.10449318608631281 0 0.37500000000232431 0.17524047358384309 0 0.25103557339309318 0.17464499738446629 0 0.80886664387416207 0.89717308644237903 0 0.89051480781310632 0.79665793440246835 0 0.90849364905363228 0.90849364905367769 0 0.19185372118111221 0.092925648673580788 0 0.31281086598417152 0.10449318608631281 0 0.25103557339309318 0.17464499738446629 0 0.79891106056046712 0.25007334953587562 0 0.68668231842078242 0.24762892664808989 0 0.73983916756365475 0.17530677078674589 0 0.31411863959822661 0.24965544328045999 0 0.20767261601459541 0.25628918442207171 0 0.25103557339309318 0.17464499738446629 0 

        </DataArray>

      </Points>

      <Cells>

        <DataArray type="Int32" Name="connectivity" format="ascii">

0 1 2 3 4 5 6 7 8 9 10 11 12 13 14 15 16 17 18 19 20 21 22 23 24 25 26 27 28 29 30 31 32 33 34 35 36 37 38 39 40 41 42 43 44 45 46 47 48 49 50 51 52 53 54 55 56 57 58 59 60 61 62 63 64 65 66 67 68 69 70 71 72 73 74 75 76 77 78 79 80 81 82 83 84 85 86 87 88 89 90 91 92 93 94 95 96 97 98 99 100 101 102 103 104 105 106 107 108 109 110 111 112 113 114 115 116 117 118 119 120 121 122 123 124 125 126 127 128 129 130 131 132 133 134 135 136 137 138 139 140 141 142 143 144 145 146 147 148 149 150 151 152 153 154 155 156 157 158 159 160 161 162 163 164 165 166 167 168 169 170 171 172 173 174 175 176 177 178 179 180 181 182 183 184 185 186 187 188 189 190 191 192 193 194 195 196 197 198 199 200 201 202 203 204 205 206 207 208 209 210 211 212 213 214 215 216 217 218 219 220 221 222 223 224 225 226 227 228 229 230 231 232 233 234 235 236 237 238 239 240 241 242 243 244 245 246 247 248 249 250 251 252 253 254 255 256 257 258 259 260 261 262 263 264 265 266 267 268 269 270 271 272 273 274 275 276 277 278 279 280 281 282 283 284 285 286 287 288 289 290 291 292 293 294 295 296 297 298 299 300 301 302 303 304 305 306 307 308 309 310 311 312 313 314 315 316 317 318 319 320 321 322 323 324 325 326 327 328 329 330 331 332 333 334 335 336 337 338 339 340 341 342 343 344 345 346 347 348 349 350 351 352 353 354 355 356 357 358 359 360 361 362 363 364 365 366 367 368 369 370 371 372 373 374 375 376 377 378 379 380 381 382 383 384 385 386 387 388 389 390 391 392 393 394 395 396 397 398 399 400 401 402 403 404 405 406 407 408 409 410 411 412 413 414 415 416 417 418 419 420 421 422 423 424 425 426 427 428 429 430 431 432 433 434 435 436 437 438 439 440 441 442 443 444 445 446 447 448 449 450 451 452 453 454 455 456 457 458 459 460 461 462 463 464 465 466 467 468 469 470 471 472 473 474 475 476 477 478 479 480 481 482 483 484 485 

        </DataArray>

        <DataArray type="Int32" Name="offsets" format="ascii">

3 6 9 12 15 18 21 24 27 30 33 36 39 42 45 48 51 54 57 60 63 66 69 72 75 78 81 84 87 90 93 96 99 102 105 108 111 114 117 120 123 126 129 132 135 138 141 144 147 150 153 156 159 162 165 168 171 174 177 180 183 186 189 192 195 198 201 204 207 210 213 216 219 222 225 228 231 234 237 240 243 246 249 252 255 258 261 264 267 270 273 276 279 282 285 288 291 294 297 300 303 306 309 312 315 318 321 324 327 330 333 336 339 342 345 348 351 354 357 360 363 366 369 372 375 378 381 384 387 390 393 396 399 402 405 408 411 414 417 420 423 426 429 432 435 438 441 444 447 450 453 456 459 462 465 468 471 474 477 480 483 486 

        </DataArray>

        <DataArray type="Int32" Name="types" format="ascii">

5 5 5 5 5 5 5 5 5 5 5 5 5 5 5 5 5 5 5 5 5 5 5 5 5 5 5 5 5 5 5 5 5 5 5 5 5 5 5 5 5 5 5 5 5 5 5 5 5 5 5 5 5 5 5 5 5 5 5 5 5 5 5 5 5 5 5 5 5 5 5 5 5 5 5 5 5 5 5 5 5 5 5 5 5 5 5 5 5 5 5 5 5 5 5 5 5 5 5 5 5 5 5 5 5 5 5 5 5 5 5 5 5 5 5 5 5 5 5 5 5 5 5 5 5 5 5 5 5 5 5 5 5 5 5 5 5 5 5 5 5 5 5 5 5 5 5 5 5 5 5 5 5 5 5 5 5 5 5 5 5 5 

        </DataArray>

      </Cells>

    </Piece>

  </UnstructuredGrid>

</VTKFile>

