<?xml version="1.0"?>

<VTKFile type="UnstructuredGrid" version="0.1">

  <UnstructuredGrid>

    <Piece NumberOfPoints="486" NumberOfCells="162">

      <PointData>

        <DataArray type="Float64" Name="K" format="ascii">

9.95598641903376991e-01
9.95598641903376991e-01
9.95598641903376991e-01
9.94639364755371402e-01
9.94639364755371402e-01
9.94639364755371402e-01
9.58048090686797638e-01
9.58048090686797638e-01
9.58048090686797638e-01
9.93717075536909245e-01
9.93717075536909245e-01
9.93717075536909245e-01
9.87216499066419062e-01
9.87216499066419062e-01
9.87216499066419062e-01
1.00994828460093133e+00
1.00994828460093133e+00
1.00994828460093133e+00
9.56774130363364783e-01
9.56774130363364783e-01
9.56774130363364783e-01
1.00766582081748957e+00
1.00766582081748957e+00
1.00766582081748957e+00
1.00655564871488012e+00
1.00655564871488012e+00
1.00655564871488012e+00
1.00838490318886653e+00
1.00838490318886653e+00
1.00838490318886653e+00
9.54679332973611183e-01
9.54679332973611183e-01
9.54679332973611183e-01
9.92971456249103879e-01
9.92971456249103879e-01
9.92971456249103879e-01
1.03371546215701771e+00
1.03371546215701771e+00
1.03371546215701771e+00
1.02188380841996018e+00
1.02188380841996018e+00
1.02188380841996018e+00
1.03846632277707851e+00
1.03846632277707851e+00
1.03846632277707851e+00
1.01219161845784433e+00
1.01219161845784433e+00
1.01219161845784433e+00
9.98934506231730079e-01
9.98934506231730079e-01
9.98934506231730079e-01
9.86702086346164409e-01
9.86702086346164409e-01
9.86702086346164409e-01
1.02733768209073117e+00
1.02733768209073117e+00
1.02733768209073117e+00
1.00844641056837236e+00
1.00844641056837236e+00
1.00844641056837236e+00
1.00122118205696742e+00
1.00122118205696742e+00
1.00122118205696742e+00
9.99497163531295252e-01
9.99497163531295252e-01
9.99497163531295252e-01
9.57774885323581460e-01
9.57774885323581460e-01
9.57774885323581460e-01
9.93353678817489261e-01
9.93353678817489261e-01
9.93353678817489261e-01
1.02422738234362121e+00
1.02422738234362121e+00
1.02422738234362121e+00
1.00095870674359455e+00
1.00095870674359455e+00
1.00095870674359455e+00
9.96879895993202703e-01
9.96879895993202703e-01
9.96879895993202703e-01
1.01301275338187335e+00
1.01301275338187335e+00
1.01301275338187335e+00
9.98587612927782198e-01
9.98587612927782198e-01
9.98587612927782198e-01
1.02310479348935934e+00
1.02310479348935934e+00
1.02310479348935934e+00
9.92634051908618975e-01
9.92634051908618975e-01
9.92634051908618975e-01
1.00426979544706363e+00
1.00426979544706363e+00
1.00426979544706363e+00
9.65366736208330245e-01
9.65366736208330245e-01
9.65366736208330245e-01
9.42572201416714162e-01
9.42572201416714162e-01
9.42572201416714162e-01
9.31709084763669315e-01
9.31709084763669315e-01
9.31709084763669315e-01
1.02150554221509315e+00
1.02150554221509315e+00
1.02150554221509315e+00
9.37704523386481137e-01
9.37704523386481137e-01
9.37704523386481137e-01
9.86491248237589158e-01
9.86491248237589158e-01
9.86491248237589158e-01
9.92822332484050052e-01
9.92822332484050052e-01
9.92822332484050052e-01
1.01843877339409361e+00
1.01843877339409361e+00
1.01843877339409361e+00
9.35511892644385168e-01
9.35511892644385168e-01
9.35511892644385168e-01
9.21595114499665025e-01
9.21595114499665025e-01
9.21595114499665025e-01
1.03528778582189140e+00
1.03528778582189140e+00
1.03528778582189140e+00
9.81844366045524275e-01
9.81844366045524275e-01
9.81844366045524275e-01
9.68021964726731299e-01
9.68021964726731299e-01
9.68021964726731299e-01
9.74228124598260692e-01
9.74228124598260692e-01
9.74228124598260692e-01
9.86845373418785421e-01
9.86845373418785421e-01
9.86845373418785421e-01
9.83854999677651998e-01
9.83854999677651998e-01
9.83854999677651998e-01
9.92555501076975877e-01
9.92555501076975877e-01
9.92555501076975877e-01
9.85460073215383425e-01
9.85460073215383425e-01
9.85460073215383425e-01
9.91548005870383387e-01
9.91548005870383387e-01
9.91548005870383387e-01
9.47174857160303807e-01
9.47174857160303807e-01
9.47174857160303807e-01
9.51171956053187606e-01
9.51171956053187606e-01
9.51171956053187606e-01
1.00558696354736066e+00
1.00558696354736066e+00
1.00558696354736066e+00
1.01914186169171028e+00
1.01914186169171028e+00
1.01914186169171028e+00
9.64536595302899480e-01
9.64536595302899480e-01
9.64536595302899480e-01
1.03752065499804225e+00
1.03752065499804225e+00
1.03752065499804225e+00
9.14412788841400981e-01
9.14412788841400981e-01
9.14412788841400981e-01
1.00192214209824138e+00
1.00192214209824138e+00
1.00192214209824138e+00
1.02933672036113699e+00
1.02933672036113699e+00
1.02933672036113699e+00
9.84512030034362051e-01
9.84512030034362051e-01
9.84512030034362051e-01
9.60154620121263735e-01
9.60154620121263735e-01
9.60154620121263735e-01
1.04532091370850710e+00
1.04532091370850710e+00
1.04532091370850710e+00
1.04300698725181373e+00
1.04300698725181373e+00
1.04300698725181373e+00
9.91722662703175772e-01
9.91722662703175772e-01
9.91722662703175772e-01
1.01487698573383334e+00
1.01487698573383334e+00
1.01487698573383334e+00
1.03007116801497811e+00
1.03007116801497811e+00
1.03007116801497811e+00
1.00558205080985630e+00
1.00558205080985630e+00
1.00558205080985630e+00
1.09829194795955543e+00
1.09829194795955543e+00
1.09829194795955543e+00
1.00168412790514405e+00
1.00168412790514405e+00
1.00168412790514405e+00
9.97365536540738118e-01
9.97365536540738118e-01
9.97365536540738118e-01
1.01432714651271083e+00
1.01432714651271083e+00
1.01432714651271083e+00
1.09182766180152679e+00
1.09182766180152679e+00
1.09182766180152679e+00
1.07990063790650481e+00
1.07990063790650481e+00
1.07990063790650481e+00
1.04666615328505253e+00
1.04666615328505253e+00
1.04666615328505253e+00
9.78336923948815662e-01
9.78336923948815662e-01
9.78336923948815662e-01
9.93136635963951298e-01
9.93136635963951298e-01
9.93136635963951298e-01
1.05327967029281311e+00
1.05327967029281311e+00
1.05327967029281311e+00
1.09641897235433960e+00
1.09641897235433960e+00
1.09641897235433960e+00
1.06118039121056285e+00
1.06118039121056285e+00
1.06118039121056285e+00
1.10322957980076986e+00
1.10322957980076986e+00
1.10322957980076986e+00
1.07034554622044964e+00
1.07034554622044964e+00
1.07034554622044964e+00
9.84483591785321743e-01
9.84483591785321743e-01
9.84483591785321743e-01
1.09463517369068208e+00
1.09463517369068208e+00
1.09463517369068208e+00
1.09599274730620988e+00
1.09599274730620988e+00
1.09599274730620988e+00
1.12006396960604060e+00
1.12006396960604060e+00
1.12006396960604060e+00
1.03520987570177891e+00
1.03520987570177891e+00
1.03520987570177891e+00
9.73961410640331371e-01
9.73961410640331371e-01
9.73961410640331371e-01
1.01528419258848457e+00
1.01528419258848457e+00
1.01528419258848457e+00
1.01081319357884891e+00
1.01081319357884891e+00
1.01081319357884891e+00
1.00071823712708707e+00
1.00071823712708707e+00
1.00071823712708707e+00
9.54709343015722744e-01
9.54709343015722744e-01
9.54709343015722744e-01
9.48541118212099299e-01
9.48541118212099299e-01
9.48541118212099299e-01
1.03660821596554675e+00
1.03660821596554675e+00
1.03660821596554675e+00
9.87463833635249255e-01
9.87463833635249255e-01
9.87463833635249255e-01
1.00672396520989182e+00
1.00672396520989182e+00
1.00672396520989182e+00
1.03177208594380621e+00
1.03177208594380621e+00
1.03177208594380621e+00
9.53043655776564580e-01
9.53043655776564580e-01
9.53043655776564580e-01
9.75471958181258980e-01
9.75471958181258980e-01
9.75471958181258980e-01
1.03378191407431586e+00
1.03378191407431586e+00
1.03378191407431586e+00
1.01812478759098979e+00
1.01812478759098979e+00
1.01812478759098979e+00
9.55342532848020176e-01
9.55342532848020176e-01
9.55342532848020176e-01
1.00135521087628820e+00
1.00135521087628820e+00
1.00135521087628820e+00
1.01132483081587954e+00
1.01132483081587954e+00
1.01132483081587954e+00
9.81025729514732547e-01
9.81025729514732547e-01
9.81025729514732547e-01
1.07219086323329371e+00
1.07219086323329371e+00
1.07219086323329371e+00
1.04426019590308683e+00
1.04426019590308683e+00
1.04426019590308683e+00
1.04961491534207352e+00
1.04961491534207352e+00
1.04961491534207352e+00
1.03190333826632097e+00
1.03190333826632097e+00
1.03190333826632097e+00
9.95027893198794033e-01
9.95027893198794033e-01
9.95027893198794033e-01
1.02360754280794519e+00
1.02360754280794519e+00
1.02360754280794519e+00
1.02665529247121978e+00
1.02665529247121978e+00
1.02665529247121978e+00
9.95384809268399451e-01
9.95384809268399451e-01
9.95384809268399451e-01
1.03712465827924527e+00
1.03712465827924527e+00
1.03712465827924527e+00
1.00110091419224423e+00
1.00110091419224423e+00
1.00110091419224423e+00
1.00465949494973139e+00
1.00465949494973139e+00
1.00465949494973139e+00
1.01224443351340465e+00
1.01224443351340465e+00
1.01224443351340465e+00
1.00763087956512365e+00
1.00763087956512365e+00
1.00763087956512365e+00
1.01880054455417657e+00
1.01880054455417657e+00
1.01880054455417657e+00
1.02289834264548807e+00
1.02289834264548807e+00
1.02289834264548807e+00
1.02404954098857170e+00
1.02404954098857170e+00
1.02404954098857170e+00
1.02908872822816710e+00
1.02908872822816710e+00
1.02908872822816710e+00
9.77646067458008639e-01
9.77646067458008639e-01
9.77646067458008639e-01
9.49617258957843768e-01
9.49617258957843768e-01
9.49617258957843768e-01
1.01184940221696862e+00
1.01184940221696862e+00
1.01184940221696862e+00
1.00212768077804837e+00
1.00212768077804837e+00
1.00212768077804837e+00
1.06877611184941879e+00
1.06877611184941879e+00
1.06877611184941879e+00
9.90965359825707104e-01
9.90965359825707104e-01
9.90965359825707104e-01
1.05134813306279118e+00
1.05134813306279118e+00
1.05134813306279118e+00
9.97281407289157373e-01
9.97281407289157373e-01
9.97281407289157373e-01
1.00949005471061559e+00
1.00949005471061559e+00
1.00949005471061559e+00
1.00322495900177633e+00
1.00322495900177633e+00
1.00322495900177633e+00
1.02285646109805151e+00
1.02285646109805151e+00
1.02285646109805151e+00
1.00077662147071123e+00
1.00077662147071123e+00
1.00077662147071123e+00
1.00413539776063598e+00
1.00413539776063598e+00
1.00413539776063598e+00
1.01150911485908468e+00
1.01150911485908468e+00
1.01150911485908468e+00
9.89726290290165678e-01
9.89726290290165678e-01
9.89726290290165678e-01
1.01797149681095433e+00
1.01797149681095433e+00
1.01797149681095433e+00
1.01265258550360948e+00
1.01265258550360948e+00
1.01265258550360948e+00
9.60394030865096449e-01
9.60394030865096449e-01
9.60394030865096449e-01
9.74074109136913724e-01
9.74074109136913724e-01
9.74074109136913724e-01
9.86743215389235040e-01
9.86743215389235040e-01
9.86743215389235040e-01
9.49178397958058806e-01
9.49178397958058806e-01
9.49178397958058806e-01
9.26406062377184591e-01
9.26406062377184591e-01
9.26406062377184591e-01
9.42138373136994778e-01
9.42138373136994778e-01
9.42138373136994778e-01
9.62154101680572138e-01
9.62154101680572138e-01
9.62154101680572138e-01
9.73650333652216204e-01
9.73650333652216204e-01
9.73650333652216204e-01
9.69180047088442742e-01
9.69180047088442742e-01
9.69180047088442742e-01
9.86713805656667331e-01
9.86713805656667331e-01
9.86713805656667331e-01
9.80661111988642142e-01
9.80661111988642142e-01
9.80661111988642142e-01
9.88802706141870380e-01
9.88802706141870380e-01
9.88802706141870380e-01
9.48568086517688980e-01
9.48568086517688980e-01
9.48568086517688980e-01
9.69925104008083294e-01
9.69925104008083294e-01
9.69925104008083294e-01
1.00296153748074879e+00
1.00296153748074879e+00
1.00296153748074879e+00
1.00756425338453037e+00
1.00756425338453037e+00
1.00756425338453037e+00
9.86228347738213884e-01
9.86228347738213884e-01
9.86228347738213884e-01
9.76010503314404754e-01
9.76010503314404754e-01
9.76010503314404754e-01
9.67588615870547897e-01
9.67588615870547897e-01
9.67588615870547897e-01
9.64665996466255615e-01
9.64665996466255615e-01
9.64665996466255615e-01
9.49556956898020554e-01
9.49556956898020554e-01
9.49556956898020554e-01
9.99911577668477825e-01
9.99911577668477825e-01
9.99911577668477825e-01
9.63865037681853276e-01
9.63865037681853276e-01
9.63865037681853276e-01


        </DataArray>

      </PointData>

      <CellData/>

      <Points>

        <DataArray type="Float64" NumberOfComponents="3" format="ascii">

0.1082531754723032 0.6875000000007816 0 0.23533274979922561 0.77093399389351469 0 0.10409951422139101 0.81206782209691231 0 0.23533274979922561 0.77093399389351469 0 0.1082531754723032 0.6875000000007816 0 0.21809253452218619 0.65480892822618109 0 0.24418615484441761 0.35773612382016978 0 0.121259140952891 0.43112117036853742 0 0.1082531754734323 0.31250000000117473 0 0.75000000000057243 0.35048094716480432 0 0.88173731489851925 0.33077402607778361 0 0.81242894672211508 0.45500248311961472 0 0.121259140952891 0.43112117036853742 0 0.24418615484441761 0.35773612382016978 0 0.22257735880419699 0.47344721641341742 0 0.81242894672211508 0.45500248311961472 0 0.88173731489851925 0.33077402607778361 0 0.915464298762109 0.43749999999886913 0 0 0.62500000000121547 0 0 0.50000000000206146 0 0.1371230538040123 0.56179824718362847 0 0.82212678063041267 0.67678595194836966 0 0.89051480781310632 0.79665793440246835 0 0.76243180583607129 0.78687675331113149 0 0.76243180583607129 0.78687675331113149 0 0.69010814643829166 0.89298495739101336 0 0.62844955668446423 0.7850749770380413 0 0.89051480781310632 0.79665793440246835 0 0.82212678063041267 0.67678595194836966 0 0.92266244547590082 0.68749999999917555 0 0 0.50000000000206146 0 0.121259140952891 0.43112117036853742 0 0.1371230538040123 0.56179824718362847 0 0.1082531754723032 0.6875000000007816 0 0 0.62500000000121547 0 0.1371230538040123 0.56179824718362847 0 0.75000000000032374 0.56698729811007709 0 0.88927506082488361 0.56409486310635837 0 0.82212678063041267 0.67678595194836966 0 0.81242894672211508 0.45500248311961472 0 0.88927506082488361 0.56409486310635837 0 0.75000000000032374 0.56698729811007709 0 0.69851598570178741 0.68211701800612057 0 0.56496004948275869 0.67675037307860475 0 0.62752533658682441 0.56838075195614346 0 0.69851598570178741 0.68211701800612057 0 0.76243180583607129 0.78687675331113149 0 0.62844955668446423 0.7850749770380413 0 0.23533274979922561 0.77093399389351469 0 0.18802967116092181 0.89415349436770275 0 0.10409951422139101 0.81206782209691231 0 0.121259140952891 0.43112117036853742 0 0.22257735880419699 0.47344721641341742 0 0.1371230538040123 0.56179824718362847 0 0.75000000000032374 0.56698729811007709 0 0.69851598570178741 0.68211701800612057 0 0.62752533658682441 0.56838075195614346 0 0.56496004948275869 0.67675037307860475 0 0.69851598570178741 0.68211701800612057 0 0.62844955668446423 0.7850749770380413 0 0.1371230538040123 0.56179824718362847 0 0.22257735880419699 0.47344721641341742 0 0.26982811998763367 0.56544650815856912 0 0.21809253452218619 0.65480892822618109 0 0.1371230538040123 0.56179824718362847 0 0.26982811998763367 0.56544650815856912 0 0.24418615484441761 0.35773612382016978 0 0.1082531754734323 0.31250000000117473 0 0.20767261601459541 0.25628918442207171 0 0.88173731489851925 0.33077402607778361 0 0.75000000000057243 0.35048094716480432 0 0.79891106056046712 0.25007334953587562 0 0.75000000000032374 0.56698729811007709 0 0.82212678063041267 0.67678595194836966 0 0.69851598570178741 0.68211701800612057 0 0.81249999999950517 0.1082531754733404 0 0.89658421694297741 0.1933620068391701 0 0.79891106056046712 0.25007334953587562 0 0.81249999999950517 0.1082531754733404 0 0.79891106056046712 0.25007334953587562 0 0.73983916756365475 0.17530677078674589 0 0.23533274979922561 0.77093399389351469 0 0.21809253452218619 0.65480892822618109 0 0.32607333794064219 0.67760114260606152 0 0.1082531754723032 0.6875000000007816 0 0.1371230538040123 0.56179824718362847 0 0.21809253452218619 0.65480892822618109 0 0.69851598570178741 0.68211701800612057 0 0.82212678063041267 0.67678595194836966 0 0.76243180583607129 0.78687675331113149 0 0.69010814643829166 0.89298495739101336 0 0.76243180583607129 0.78687675331113149 0 0.80886664387416207 0.89717308644237903 0 0.43750000000181222 0.89174682452709564 0 0.31258827852827581 0.89214793616708443 0 0.37776173212361452 0.78514649317305008 0 0.43750000000181222 0.89174682452709564 0 0.37500000000156292 1 0 0.31258827852827581 0.89214793616708443 0 0.121259140952891 0.43112117036853742 0 0 0.37500000000156292 0 0.1082531754734323 0.31250000000117473 0 0.50000000000206146 1 0 0.37500000000156292 1 0 0.43750000000181222 0.89174682452709564 0 0.31258827852827581 0.89214793616708443 0 0.18802967116092181 0.89415349436770275 0 0.23533274979922561 0.77093399389351469 0 0 0.50000000000206146 0 0 0.37500000000156292 0 0.121259140952891 0.43112117036853742 0 0.62844955668446423 0.7850749770380413 0 0.69010814643829166 0.89298495739101336 0 0.56327595140699671 0.89211526915426331 0 0.69010814643829166 0.89298495739101336 0 0.62500000000121547 1 0 0.56327595140699671 0.89211526915426331 0 0.25000000000104189 1 0 0.18802967116092181 0.89415349436770275 0 0.31258827852827581 0.89214793616708443 0 0.50000000000206146 1 0 0.43750000000181222 0.89174682452709564 0 0.56327595140699671 0.89211526915426331 0 0.56249999999885147 0.1082531754730395 0 0.62499999999901068 0 0 0.68749999999926592 0.1082531754732875 0 1 0.49999999999869221 0 1 0.62499999999901068 0 0.88927506082488361 0.56409486310635837 0 0 0.25000000000104189 0 0.12076953676380731 0.18690935762408761 0 0.1082531754734323 0.31250000000117473 0 0.49999999999869221 0 0 0.62499999999901068 0 0 0.56249999999885147 0.1082531754730395 0 0.62500000000121547 1 0 0.50000000000206146 1 0 0.56327595140699671 0.89211526915426331 0 0.37500000000156292 1 0 0.25000000000104189 1 0 0.31258827852827581 0.89214793616708443 0 0.31281086598417152 0.10449318608631281 0 0.37499999999904599 0 0 0.43749999999910871 0.1082531754729984 0 0.43750000000181222 0.89174682452709564 0 0.37776173212361452 0.78514649317305008 0 0.50046028868828263 0.78376912307435687 0 0 0.37500000000156292 0 0 0.25000000000104189 0 0.1082531754734323 0.31250000000117473 0 0.49999999999869221 0 0 0.56249999999885147 0.1082531754730395 0 0.43749999999910871 0.1082531754729984 0 0.43750000000181222 0.89174682452709564 0 0.50046028868828263 0.78376912307435687 0 0.56327595140699671 0.89211526915426331 0 0.74999999999934042 0 0 0.81249999999950517 0.1082531754733404 0 0.68749999999926592 0.1082531754732875 0 0.37499999999904599 0 0 0.49999999999869221 0 0 0.43749999999910871 0.1082531754729984 0 0.25000000000104189 1 0 0.12500000000052089 1 0 0.18802967116092181 0.89415349436770275 0 0.50046028868828263 0.78376912307435687 0 0.62844955668446423 0.7850749770380413 0 0.56327595140699671 0.89211526915426331 0 0.37776173212361452 0.78514649317305008 0 0.31258827852827581 0.89214793616708443 0 0.23533274979922561 0.77093399389351469 0 0.62499999999901068 0 0 0.74999999999934042 0 0 0.68749999999926592 0.1082531754732875 0 1 0.74999999999934042 0 1 0.87499999999967015 0 0.89051480781310632 0.79665793440246835 0 0 0.25000000000104189 0 0 0.12500000000052089 0 0.12076953676380731 0.18690935762408761 0 0.74999999999934042 0 0 0.87499999999967015 0 0 0.81249999999950517 0.1082531754733404 0 0.24999999999941069 0 0 0.37499999999904599 0 0 0.31281086598417152 0.10449318608631281 0 0.50046028868828263 0.78376912307435687 0 0.37776173212361452 0.78514649317305008 0 0.44078402250377968 0.67714785211715212 0 0.68768773896438518 0.4586835206367198 0 0.75000000000032374 0.56698729811007709 0 0.62752533658682441 0.56838075195614346 0 0.31411863959822661 0.24965544328045999 0 0.37953773393552892 0.34812185820708452 0 0.24418615484441761 0.35773612382016978 0 0.68768773896438518 0.4586835206367198 0 0.81242894672211508 0.45500248311961472 0 0.75000000000032374 0.56698729811007709 0 1 0.24999999999941069 0 1 0.37499999999904599 0 0.88173731489851925 0.33077402607778361 0 0 0.75000000000034761 0 0 0.62500000000121547 0 0.1082531754723032 0.6875000000007816 0 0.50048844149666749 0.56727788297625459 0 0.44078402250377968 0.67714785211715212 0 0.38694285807596462 0.5672991787102919 0 0.50108503093851109 0.35012252869403671 0 0.44301038174930041 0.45684931552185398 0 0.37953773393552892 0.34812185820708452 0 0.50046028868828263 0.78376912307435687 0 0.56496004948275869 0.67675037307860475 0 0.62844955668446423 0.7850749770380413 0 0.68768773896438518 0.4586835206367198 0 0.75000000000057243 0.35048094716480432 0 0.81242894672211508 0.45500248311961472 0 0.56349980387502452 0.45846841892908402 0 0.62512662990940393 0.35044303886909911 0 0.68768773896438518 0.4586835206367198 0 0.50048844149666749 0.56727788297625459 0 0.38694285807596462 0.5672991787102919 0 0.44301038174930041 0.45684931552185398 0 0.50046028868828263 0.78376912307435687 0 0.44078402250377968 0.67714785211715212 0 0.56496004948275869 0.67675037307860475 0 0.50108503093851109 0.35012252869403671 0 0.37953773393552892 0.34812185820708452 0 0.43750000000200551 0.24222777169198509 0 0.75000000000034761 1 0 0.62500000000121547 1 0 0.69010814643829166 0.89298495739101336 0 0.68768773896438518 0.4586835206367198 0 0.62512662990940393 0.35044303886909911 0 0.75000000000057243 0.35048094716480432 0 0.56496004948275869 0.67675037307860475 0 0.44078402250377968 0.67714785211715212 0 0.50048844149666749 0.56727788297625459 0 0.56349980387502452 0.45846841892908402 0 0.44301038174930041 0.45684931552185398 0 0.50108503093851109 0.35012252869403671 0 0.50048844149666749 0.56727788297625459 0 0.44301038174930041 0.45684931552185398 0 0.56349980387502452 0.45846841892908402 0 0.56349980387502452 0.45846841892908402 0 0.50108503093851109 0.35012252869403671 0 0.62512662990940393 0.35044303886909911 0 0.43750000000200551 0.24222777169198509 0 0.37953773393552892 0.34812185820708452 0 0.31411863959822661 0.24965544328045999 0 0.56496004948275869 0.67675037307860475 0 0.50048844149666749 0.56727788297625459 0 0.62752533658682441 0.56838075195614346 0 0.56349980387502452 0.45846841892908402 0 0.68768773896438518 0.4586835206367198 0 0.62752533658682441 0.56838075195614346 0 0.50048844149666749 0.56727788297625459 0 0.56349980387502452 0.45846841892908402 0 0.62752533658682441 0.56838075195614346 0 0.75000000000057243 0.35048094716480432 0 0.62512662990940393 0.35044303886909911 0 0.68668231842078242 0.24762892664808989 0 0.50108503093851109 0.35012252869403671 0 0.43750000000200551 0.24222777169198509 0 0.56250000000143974 0.2422277716920859 0 0.62512662990940393 0.35044303886909911 0 0.50108503093851109 0.35012252869403671 0 0.56250000000143974 0.2422277716920859 0 0.68668231842078242 0.24762892664808989 0 0.62512662990940393 0.35044303886909911 0 0.56250000000143974 0.2422277716920859 0 0.22257735880419699 0.47344721641341742 0 0.24418615484441761 0.35773612382016978 0 0.32815957677880009 0.4577243358118348 0 0.12076953676380731 0.18690935762408761 0 0.19185372118111221 0.092925648673580788 0 0.25103557339309318 0.17464499738446629 0 0.20767261601459541 0.25628918442207171 0 0.12076953676380731 0.18690935762408761 0 0.25103557339309318 0.17464499738446629 0 0 0.87499999999950151 0 0 0.75000000000034761 0 0.10409951422139101 0.81206782209691231 0 0.1249999999997731 0 0 0.24999999999941069 0 0 0.19185372118111221 0.092925648673580788 0 1 0.1249999999997731 0 1 0.24999999999941069 0 0.89658421694297741 0.1933620068391701 0 0.88927506082488361 0.56409486310635837 0 0.81242894672211508 0.45500248311961472 0 0.915464298762109 0.43749999999886913 0 0.87499999999950151 1 0 0.75000000000034761 1 0 0.80886664387416207 0.89717308644237903 0 0.75000000000034761 1 0 0.69010814643829166 0.89298495739101336 0 0.80886664387416207 0.89717308644237903 0 0.82212678063041267 0.67678595194836966 0 0.88927506082488361 0.56409486310635837 0 0.92266244547590082 0.68749999999917555 0 0 0.75000000000034761 0 0.1082531754723032 0.6875000000007816 0 0.10409951422139101 0.81206782209691231 0 0.24999999999941069 0 0 0.31281086598417152 0.10449318608631281 0 0.19185372118111221 0.092925648673580788 0 1 0.24999999999941069 0 0.88173731489851925 0.33077402607778361 0 0.89658421694297741 0.1933620068391701 0 0.32815957677880009 0.4577243358118348 0 0.38694285807596462 0.5672991787102919 0 0.26982811998763367 0.56544650815856912 0 0.76243180583607129 0.78687675331113149 0 0.89051480781310632 0.79665793440246835 0 0.80886664387416207 0.89717308644237903 0 0.38694285807596462 0.5672991787102919 0 0.44078402250377968 0.67714785211715212 0 0.32607333794064219 0.67760114260606152 0 0.37776173212361452 0.78514649317305008 0 0.23533274979922561 0.77093399389351469 0 0.32607333794064219 0.67760114260606152 0 1 0.49999999999869221 0 0.88927506082488361 0.56409486310635837 0 0.915464298762109 0.43749999999886913 0 0.88173731489851925 0.33077402607778361 0 1 0.37499999999904599 0 0.915464298762109 0.43749999999886913 0 0.24418615484441761 0.35773612382016978 0 0.37953773393552892 0.34812185820708452 0 0.32815957677880009 0.4577243358118348 0 0.44301038174930041 0.45684931552185398 0 0.38694285807596462 0.5672991787102919 0 0.32815957677880009 0.4577243358118348 0 0.88927506082488361 0.56409486310635837 0 1 0.62499999999901068 0 0.92266244547590082 0.68749999999917555 0 1 0.74999999999934042 0 0.89051480781310632 0.79665793440246835 0 0.92266244547590082 0.68749999999917555 0 0 1 0 0 0.87499999999950151 0 0.091506350946494744 0.90849364905351082 0 1 1 0 0.87499999999950151 1 0 0.90849364905363228 0.90849364905367769 0 0 0 0 0.1249999999997731 0 0 0.091506350946417708 0.091506350946618076 0 0 0.12500000000052089 0 0 0 0 0.091506350946417708 0.091506350946618076 0 1 0 0 1 0.1249999999997731 0 0.90849364905355434 0.091506350946296292 0 0.87499999999967015 0 0 1 0 0 0.90849364905355434 0.091506350946296292 0 0.12500000000052089 1 0 0 1 0 0.091506350946494744 0.90849364905351082 0 1 0.87499999999967015 0 1 1 0 0.90849364905363228 0.90849364905367769 0 0.38694285807596462 0.5672991787102919 0 0.32607333794064219 0.67760114260606152 0 0.26982811998763367 0.56544650815856912 0 0.31411863959822661 0.24965544328045999 0 0.24418615484441761 0.35773612382016978 0 0.20767261601459541 0.25628918442207171 0 0.1082531754734323 0.31250000000117473 0 0.12076953676380731 0.18690935762408761 0 0.20767261601459541 0.25628918442207171 0 0.75000000000057243 0.35048094716480432 0 0.68668231842078242 0.24762892664808989 0 0.79891106056046712 0.25007334953587562 0 0.22257735880419699 0.47344721641341742 0 0.32815957677880009 0.4577243358118348 0 0.26982811998763367 0.56544650815856912 0 0.44078402250377968 0.67714785211715212 0 0.37776173212361452 0.78514649317305008 0 0.32607333794064219 0.67760114260606152 0 0.89658421694297741 0.1933620068391701 0 0.88173731489851925 0.33077402607778361 0 0.79891106056046712 0.25007334953587562 0 1 0.37499999999904599 0 1 0.49999999999869221 0 0.915464298762109 0.43749999999886913 0 0.37953773393552892 0.34812185820708452 0 0.44301038174930041 0.45684931552185398 0 0.32815957677880009 0.4577243358118348 0 0.32607333794064219 0.67760114260606152 0 0.21809253452218619 0.65480892822618109 0 0.26982811998763367 0.56544650815856912 0 1 0.1249999999997731 0 0.89658421694297741 0.1933620068391701 0 0.90849364905355434 0.091506350946296292 0 0 0.87499999999950151 0 0.10409951422139101 0.81206782209691231 0 0.091506350946494744 0.90849364905351082 0 0.1249999999997731 0 0 0.19185372118111221 0.092925648673580788 0 0.091506350946417708 0.091506350946618076 0 1 0.62499999999901068 0 1 0.74999999999934042 0 0.92266244547590082 0.68749999999917555 0 0.18802967116092181 0.89415349436770275 0 0.12500000000052089 1 0 0.091506350946494744 0.90849364905351082 0 0.89051480781310632 0.79665793440246835 0 1 0.87499999999967015 0 0.90849364905363228 0.90849364905367769 0 0.12076953676380731 0.18690935762408761 0 0 0.12500000000052089 0 0.091506350946417708 0.091506350946618076 0 0.81249999999950517 0.1082531754733404 0 0.87499999999967015 0 0 0.90849364905355434 0.091506350946296292 0 0.87499999999950151 1 0 0.80886664387416207 0.89717308644237903 0 0.90849364905363228 0.90849364905367769 0 0.68668231842078242 0.24762892664808989 0 0.62499999999892575 0.17524047358135519 0 0.73983916756365475 0.17530677078674589 0 0.31281086598417152 0.10449318608631281 0 0.43749999999910871 0.1082531754729984 0 0.37500000000232431 0.17524047358384309 0 0.62499999999892575 0.17524047358135519 0 0.56250000000143974 0.2422277716920859 0 0.49999999999934441 0.1752404735815076 0 0.56249999999885147 0.1082531754730395 0 0.68749999999926592 0.1082531754732875 0 0.62499999999892575 0.17524047358135519 0 0.56249999999885147 0.1082531754730395 0 0.62499999999892575 0.17524047358135519 0 0.49999999999934441 0.1752404735815076 0 0.56250000000143974 0.2422277716920859 0 0.43750000000200551 0.24222777169198509 0 0.49999999999934441 0.1752404735815076 0 0.43749999999910871 0.1082531754729984 0 0.56249999999885147 0.1082531754730395 0 0.49999999999934441 0.1752404735815076 0 0.68668231842078242 0.24762892664808989 0 0.56250000000143974 0.2422277716920859 0 0.62499999999892575 0.17524047358135519 0 0.43750000000200551 0.24222777169198509 0 0.31411863959822661 0.24965544328045999 0 0.37500000000232431 0.17524047358384309 0 0.49999999999934441 0.1752404735815076 0 0.43750000000200551 0.24222777169198509 0 0.37500000000232431 0.17524047358384309 0 0.43749999999910871 0.1082531754729984 0 0.49999999999934441 0.1752404735815076 0 0.37500000000232431 0.17524047358384309 0 0.62499999999892575 0.17524047358135519 0 0.68749999999926592 0.1082531754732875 0 0.73983916756365475 0.17530677078674589 0 0.68749999999926592 0.1082531754732875 0 0.81249999999950517 0.1082531754733404 0 0.73983916756365475 0.17530677078674589 0 0.10409951422139101 0.81206782209691231 0 0.18802967116092181 0.89415349436770275 0 0.091506350946494744 0.90849364905351082 0 0.89658421694297741 0.1933620068391701 0 0.81249999999950517 0.1082531754733404 0 0.90849364905355434 0.091506350946296292 0 0.19185372118111221 0.092925648673580788 0 0.12076953676380731 0.18690935762408761 0 0.091506350946417708 0.091506350946618076 0 0.37500000000232431 0.17524047358384309 0 0.31411863959822661 0.24965544328045999 0 0.25103557339309318 0.17464499738446629 0 0.31281086598417152 0.10449318608631281 0 0.37500000000232431 0.17524047358384309 0 0.25103557339309318 0.17464499738446629 0 0.80886664387416207 0.89717308644237903 0 0.89051480781310632 0.79665793440246835 0 0.90849364905363228 0.90849364905367769 0 0.19185372118111221 0.092925648673580788 0 0.31281086598417152 0.10449318608631281 0 0.25103557339309318 0.17464499738446629 0 0.79891106056046712 0.25007334953587562 0 0.68668231842078242 0.24762892664808989 0 0.73983916756365475 0.17530677078674589 0 0.31411863959822661 0.24965544328045999 0 0.20767261601459541 0.25628918442207171 0 0.25103557339309318 0.17464499738446629 0 

        </DataArray>

      </Points>

      <Cells>

        <DataArray type="Int32" Name="connectivity" format="ascii">

0 1 2 3 4 5 6 7 8 9 10 11 12 13 14 15 16 17 18 19 20 21 22 23 24 25 26 27 28 29 30 31 32 33 34 35 36 37 38 39 40 41 42 43 44 45 46 47 48 49 50 51 52 53 54 55 56 57 58 59 60 61 62 63 64 65 66 67 68 69 70 71 72 73 74 75 76 77 78 79 80 81 82 83 84 85 86 87 88 89 90 91 92 93 94 95 96 97 98 99 100 101 102 103 104 105 106 107 108 109 110 111 112 113 114 115 116 117 118 119 120 121 122 123 124 125 126 127 128 129 130 131 132 133 134 135 136 137 138 139 140 141 142 143 144 145 146 147 148 149 150 151 152 153 154 155 156 157 158 159 160 161 162 163 164 165 166 167 168 169 170 171 172 173 174 175 176 177 178 179 180 181 182 183 184 185 186 187 188 189 190 191 192 193 194 195 196 197 198 199 200 201 202 203 204 205 206 207 208 209 210 211 212 213 214 215 216 217 218 219 220 221 222 223 224 225 226 227 228 229 230 231 232 233 234 235 236 237 238 239 240 241 242 243 244 245 246 247 248 249 250 251 252 253 254 255 256 257 258 259 260 261 262 263 264 265 266 267 268 269 270 271 272 273 274 275 276 277 278 279 280 281 282 283 284 285 286 287 288 289 290 291 292 293 294 295 296 297 298 299 300 301 302 303 304 305 306 307 308 309 310 311 312 313 314 315 316 317 318 319 320 321 322 323 324 325 326 327 328 329 330 331 332 333 334 335 336 337 338 339 340 341 342 343 344 345 346 347 348 349 350 351 352 353 354 355 356 357 358 359 360 361 362 363 364 365 366 367 368 369 370 371 372 373 374 375 376 377 378 379 380 381 382 383 384 385 386 387 388 389 390 391 392 393 394 395 396 397 398 399 400 401 402 403 404 405 406 407 408 409 410 411 412 413 414 415 416 417 418 419 420 421 422 423 424 425 426 427 428 429 430 431 432 433 434 435 436 437 438 439 440 441 442 443 444 445 446 447 448 449 450 451 452 453 454 455 456 457 458 459 460 461 462 463 464 465 466 467 468 469 470 471 472 473 474 475 476 477 478 479 480 481 482 483 484 485 

        </DataArray>

        <DataArray type="Int32" Name="offsets" format="ascii">

3 6 9 12 15 18 21 24 27 30 33 36 39 42 45 48 51 54 57 60 63 66 69 72 75 78 81 84 87 90 93 96 99 102 105 108 111 114 117 120 123 126 129 132 135 138 141 144 147 150 153 156 159 162 165 168 171 174 177 180 183 186 189 192 195 198 201 204 207 210 213 216 219 222 225 228 231 234 237 240 243 246 249 252 255 258 261 264 267 270 273 276 279 282 285 288 291 294 297 300 303 306 309 312 315 318 321 324 327 330 333 336 339 342 345 348 351 354 357 360 363 366 369 372 375 378 381 384 387 390 393 396 399 402 405 408 411 414 417 420 423 426 429 432 435 438 441 444 447 450 453 456 459 462 465 468 471 474 477 480 483 486 

        </DataArray>

        <DataArray type="Int32" Name="types" format="ascii">

5 5 5 5 5 5 5 5 5 5 5 5 5 5 5 5 5 5 5 5 5 5 5 5 5 5 5 5 5 5 5 5 5 5 5 5 5 5 5 5 5 5 5 5 5 5 5 5 5 5 5 5 5 5 5 5 5 5 5 5 5 5 5 5 5 5 5 5 5 5 5 5 5 5 5 5 5 5 5 5 5 5 5 5 5 5 5 5 5 5 5 5 5 5 5 5 5 5 5 5 5 5 5 5 5 5 5 5 5 5 5 5 5 5 5 5 5 5 5 5 5 5 5 5 5 5 5 5 5 5 5 5 5 5 5 5 5 5 5 5 5 5 5 5 5 5 5 5 5 5 5 5 5 5 5 5 5 5 5 5 5 5 

        </DataArray>

      </Cells>

    </Piece>

  </UnstructuredGrid>

</VTKFile>

