<?xml version="1.0"?>

<VTKFile type="UnstructuredGrid" version="0.1">

  <UnstructuredGrid>

    <Piece NumberOfPoints="486" NumberOfCells="162">

      <PointData>

        <DataArray type="Float64" Name="K" format="ascii">

1.04507475429674579e+00
1.04507475429674579e+00
1.04507475429674579e+00
1.03169419888826686e+00
1.03169419888826686e+00
1.03169419888826686e+00
9.32228628834403716e-01
9.32228628834403716e-01
9.32228628834403716e-01
1.03517824961575267e+00
1.03517824961575267e+00
1.03517824961575267e+00
9.25008833446819168e-01
9.25008833446819168e-01
9.25008833446819168e-01
1.04028862804691236e+00
1.04028862804691236e+00
1.04028862804691236e+00
9.08311870767050999e-01
9.08311870767050999e-01
9.08311870767050999e-01
9.66763686838258973e-01
9.66763686838258973e-01
9.66763686838258973e-01
9.84353292288713155e-01
9.84353292288713155e-01
9.84353292288713155e-01
9.71855049251748593e-01
9.71855049251748593e-01
9.71855049251748593e-01
8.96800111743964568e-01
8.96800111743964568e-01
8.96800111743964568e-01
9.53323770016620164e-01
9.53323770016620164e-01
9.53323770016620164e-01
1.02188762312684922e+00
1.02188762312684922e+00
1.02188762312684922e+00
1.03711809326324422e+00
1.03711809326324422e+00
1.03711809326324422e+00
1.05802820008997567e+00
1.05802820008997567e+00
1.05802820008997567e+00
1.00385243287035375e+00
1.00385243287035375e+00
1.00385243287035375e+00
1.07294338276631951e+00
1.07294338276631951e+00
1.07294338276631951e+00
9.20619265136281784e-01
9.20619265136281784e-01
9.20619265136281784e-01
1.03839151129858176e+00
1.03839151129858176e+00
1.03839151129858176e+00
1.04189954513234939e+00
1.04189954513234939e+00
1.04189954513234939e+00
9.45102236908319848e-01
9.45102236908319848e-01
9.45102236908319848e-01
9.73853682103246632e-01
9.73853682103246632e-01
9.73853682103246632e-01
9.59357134630275610e-01
9.59357134630275610e-01
9.59357134630275610e-01
1.02675744017456005e+00
1.02675744017456005e+00
1.02675744017456005e+00
1.01662631218500077e+00
1.01662631218500077e+00
1.01662631218500077e+00
1.02002646372404548e+00
1.02002646372404548e+00
1.02002646372404548e+00
1.01070120840799116e+00
1.01070120840799116e+00
1.01070120840799116e+00
1.05199679101682597e+00
1.05199679101682597e+00
1.05199679101682597e+00
9.81040774491166223e-01
9.81040774491166223e-01
9.81040774491166223e-01
9.93304428045632348e-01
9.93304428045632348e-01
9.93304428045632348e-01
9.50370890287933756e-01
9.50370890287933756e-01
9.50370890287933756e-01
1.05518254420462765e+00
1.05518254420462765e+00
1.05518254420462765e+00
1.01949753426592848e+00
1.01949753426592848e+00
1.01949753426592848e+00
9.14538513517600404e-01
9.14538513517600404e-01
9.14538513517600404e-01
9.77086972889243177e-01
9.77086972889243177e-01
9.77086972889243177e-01
1.08869035813756621e+00
1.08869035813756621e+00
1.08869035813756621e+00
8.86344363106849387e-01
8.86344363106849387e-01
8.86344363106849387e-01
9.99725849890185092e-01
9.99725849890185092e-01
9.99725849890185092e-01
9.81521479847164424e-01
9.81521479847164424e-01
9.81521479847164424e-01
1.06825360162707317e+00
1.06825360162707317e+00
1.06825360162707317e+00
9.85113009798984973e-01
9.85113009798984973e-01
9.85113009798984973e-01
9.58453584511533840e-01
9.58453584511533840e-01
9.58453584511533840e-01
9.87948880468215607e-01
9.87948880468215607e-01
9.87948880468215607e-01
1.00135222735907892e+00
1.00135222735907892e+00
1.00135222735907892e+00
9.82853035735235525e-01
9.82853035735235525e-01
9.82853035735235525e-01
9.77098696173907766e-01
9.77098696173907766e-01
9.77098696173907766e-01
1.03100027050082099e+00
1.03100027050082099e+00
1.03100027050082099e+00
1.03028579119829411e+00
1.03028579119829411e+00
1.03028579119829411e+00
1.04840593281865657e+00
1.04840593281865657e+00
1.04840593281865657e+00
9.52224575461797396e-01
9.52224575461797396e-01
9.52224575461797396e-01
1.00153792687845300e+00
1.00153792687845300e+00
1.00153792687845300e+00
1.01776905036033272e+00
1.01776905036033272e+00
1.01776905036033272e+00
9.98334941124507491e-01
9.98334941124507491e-01
9.98334941124507491e-01
1.03077510346596579e+00
1.03077510346596579e+00
1.03077510346596579e+00
1.05333564807597280e+00
1.05333564807597280e+00
1.05333564807597280e+00
1.02594743130908417e+00
1.02594743130908417e+00
1.02594743130908417e+00
1.08798289680602589e+00
1.08798289680602589e+00
1.08798289680602589e+00
9.76141694825052197e-01
9.76141694825052197e-01
9.76141694825052197e-01
9.61710758049621250e-01
9.61710758049621250e-01
9.61710758049621250e-01
1.04781820230654321e+00
1.04781820230654321e+00
1.04781820230654321e+00
1.02421200485508490e+00
1.02421200485508490e+00
1.02421200485508490e+00
1.03176788020297594e+00
1.03176788020297594e+00
1.03176788020297594e+00
1.07426369843123015e+00
1.07426369843123015e+00
1.07426369843123015e+00
1.04331489795694132e+00
1.04331489795694132e+00
1.04331489795694132e+00
9.43896005304779351e-01
9.43896005304779351e-01
9.43896005304779351e-01
1.03550956500083280e+00
1.03550956500083280e+00
1.03550956500083280e+00
1.01458577733546162e+00
1.01458577733546162e+00
1.01458577733546162e+00
9.89988322416650024e-01
9.89988322416650024e-01
9.89988322416650024e-01
1.06605513280836317e+00
1.06605513280836317e+00
1.06605513280836317e+00
9.67359775741759909e-01
9.67359775741759909e-01
9.67359775741759909e-01
1.05421010648528224e+00
1.05421010648528224e+00
1.05421010648528224e+00
1.03101462307888281e+00
1.03101462307888281e+00
1.03101462307888281e+00
1.03548469342578509e+00
1.03548469342578509e+00
1.03548469342578509e+00
1.03379392802159331e+00
1.03379392802159331e+00
1.03379392802159331e+00
1.07845563138113376e+00
1.07845563138113376e+00
1.07845563138113376e+00
9.57838781187275279e-01
9.57838781187275279e-01
9.57838781187275279e-01
9.58462443705815126e-01
9.58462443705815126e-01
9.58462443705815126e-01
1.02184411627431704e+00
1.02184411627431704e+00
1.02184411627431704e+00
1.08853153252875101e+00
1.08853153252875101e+00
1.08853153252875101e+00
1.01365906478330081e+00
1.01365906478330081e+00
1.01365906478330081e+00
1.04941139626467694e+00
1.04941139626467694e+00
1.04941139626467694e+00
1.01595377514794616e+00
1.01595377514794616e+00
1.01595377514794616e+00
9.56449517712039010e-01
9.56449517712039010e-01
9.56449517712039010e-01
1.08480552831831489e+00
1.08480552831831489e+00
1.08480552831831489e+00
1.05665026094516312e+00
1.05665026094516312e+00
1.05665026094516312e+00
1.07573362154828844e+00
1.07573362154828844e+00
1.07573362154828844e+00
1.00242763052711537e+00
1.00242763052711537e+00
1.00242763052711537e+00
9.65833922015722379e-01
9.65833922015722379e-01
9.65833922015722379e-01
9.83033373242774067e-01
9.83033373242774067e-01
9.83033373242774067e-01
9.78301784343803660e-01
9.78301784343803660e-01
9.78301784343803660e-01
9.27571740221787566e-01
9.27571740221787566e-01
9.27571740221787566e-01
1.04114692301399625e+00
1.04114692301399625e+00
1.04114692301399625e+00
1.01379764827833729e+00
1.01379764827833729e+00
1.01379764827833729e+00
1.05914676279135977e+00
1.05914676279135977e+00
1.05914676279135977e+00
1.05990575955136612e+00
1.05990575955136612e+00
1.05990575955136612e+00
1.00593740460107339e+00
1.00593740460107339e+00
1.00593740460107339e+00
1.03983399499465201e+00
1.03983399499465201e+00
1.03983399499465201e+00
9.38876359730709376e-01
9.38876359730709376e-01
9.38876359730709376e-01
9.41105877899572674e-01
9.41105877899572674e-01
9.41105877899572674e-01
9.99580646244116688e-01
9.99580646244116688e-01
9.99580646244116688e-01
1.02914811694751518e+00
1.02914811694751518e+00
1.02914811694751518e+00
1.03929705683566720e+00
1.03929705683566720e+00
1.03929705683566720e+00
1.01608077629320093e+00
1.01608077629320093e+00
1.01608077629320093e+00
9.68552231811767861e-01
9.68552231811767861e-01
9.68552231811767861e-01
9.45030222330269121e-01
9.45030222330269121e-01
9.45030222330269121e-01
1.05563185233209889e+00
1.05563185233209889e+00
1.05563185233209889e+00
1.08020026363204646e+00
1.08020026363204646e+00
1.08020026363204646e+00
1.01796329593370105e+00
1.01796329593370105e+00
1.01796329593370105e+00
1.02673844575345297e+00
1.02673844575345297e+00
1.02673844575345297e+00
9.29716597572995185e-01
9.29716597572995185e-01
9.29716597572995185e-01
9.77382816579383307e-01
9.77382816579383307e-01
9.77382816579383307e-01
9.84657187680177737e-01
9.84657187680177737e-01
9.84657187680177737e-01
9.59584867381588880e-01
9.59584867381588880e-01
9.59584867381588880e-01
1.06850172127952026e+00
1.06850172127952026e+00
1.06850172127952026e+00
9.84628401794745423e-01
9.84628401794745423e-01
9.84628401794745423e-01
1.08266767325471625e+00
1.08266767325471625e+00
1.08266767325471625e+00
1.08184120780832771e+00
1.08184120780832771e+00
1.08184120780832771e+00
1.01386390780002800e+00
1.01386390780002800e+00
1.01386390780002800e+00
1.02500063455788148e+00
1.02500063455788148e+00
1.02500063455788148e+00
1.04975741499666553e+00
1.04975741499666553e+00
1.04975741499666553e+00
9.88659253527748194e-01
9.88659253527748194e-01
9.88659253527748194e-01
1.01237191504348290e+00
1.01237191504348290e+00
1.01237191504348290e+00
9.61749082576528691e-01
9.61749082576528691e-01
9.61749082576528691e-01
9.95415678830590234e-01
9.95415678830590234e-01
9.95415678830590234e-01
1.00944648917022128e+00
1.00944648917022128e+00
1.00944648917022128e+00
9.41527127948918241e-01
9.41527127948918241e-01
9.41527127948918241e-01
1.07722487461378846e+00
1.07722487461378846e+00
1.07722487461378846e+00
1.02392994210556987e+00
1.02392994210556987e+00
1.02392994210556987e+00
1.00766244648412995e+00
1.00766244648412995e+00
1.00766244648412995e+00
9.48447435005697392e-01
9.48447435005697392e-01
9.48447435005697392e-01
1.01356092513383556e+00
1.01356092513383556e+00
1.01356092513383556e+00
1.01074547538200488e+00
1.01074547538200488e+00
1.01074547538200488e+00
1.06404795034462141e+00
1.06404795034462141e+00
1.06404795034462141e+00
1.08023106300539151e+00
1.08023106300539151e+00
1.08023106300539151e+00
9.58471791825672437e-01
9.58471791825672437e-01
9.58471791825672437e-01
1.05799963622087900e+00
1.05799963622087900e+00
1.05799963622087900e+00
9.62692813815858917e-01
9.62692813815858917e-01
9.62692813815858917e-01
1.07547790023963286e+00
1.07547790023963286e+00
1.07547790023963286e+00
1.02622596720363091e+00
1.02622596720363091e+00
1.02622596720363091e+00
9.48990630394637824e-01
9.48990630394637824e-01
9.48990630394637824e-01
9.72432715166285599e-01
9.72432715166285599e-01
9.72432715166285599e-01
1.01556468571117908e+00
1.01556468571117908e+00
1.01556468571117908e+00
9.56030397876668880e-01
9.56030397876668880e-01
9.56030397876668880e-01
9.51361935167849504e-01
9.51361935167849504e-01
9.51361935167849504e-01
9.57310270435247967e-01
9.57310270435247967e-01
9.57310270435247967e-01
9.66080964665575692e-01
9.66080964665575692e-01
9.66080964665575692e-01
9.84656595630594933e-01
9.84656595630594933e-01
9.84656595630594933e-01
9.60583463719149044e-01
9.60583463719149044e-01
9.60583463719149044e-01
9.78629225932732050e-01
9.78629225932732050e-01
9.78629225932732050e-01
9.82296280090094398e-01
9.82296280090094398e-01
9.82296280090094398e-01
9.98316555996144661e-01
9.98316555996144661e-01
9.98316555996144661e-01
9.66770772253958688e-01
9.66770772253958688e-01
9.66770772253958688e-01
9.94819600697316675e-01
9.94819600697316675e-01
9.94819600697316675e-01
1.06507840857712632e+00
1.06507840857712632e+00
1.06507840857712632e+00
1.02021774740034910e+00
1.02021774740034910e+00
1.02021774740034910e+00
1.06955231777199122e+00
1.06955231777199122e+00
1.06955231777199122e+00
9.92769881672351917e-01
9.92769881672351917e-01
9.92769881672351917e-01
1.01155817806831760e+00
1.01155817806831760e+00
1.01155817806831760e+00
9.44793985267383229e-01
9.44793985267383229e-01
9.44793985267383229e-01
1.02964199560499914e+00
1.02964199560499914e+00
1.02964199560499914e+00
9.99702895937452207e-01
9.99702895937452207e-01
9.99702895937452207e-01
9.89092370999289816e-01
9.89092370999289816e-01
9.89092370999289816e-01


        </DataArray>

      </PointData>

      <CellData/>

      <Points>

        <DataArray type="Float64" NumberOfComponents="3" format="ascii">

0.1082531754723032 0.6875000000007816 0 0.23533274979922561 0.77093399389351469 0 0.10409951422139101 0.81206782209691231 0 0.23533274979922561 0.77093399389351469 0 0.1082531754723032 0.6875000000007816 0 0.21809253452218619 0.65480892822618109 0 0.24418615484441761 0.35773612382016978 0 0.121259140952891 0.43112117036853742 0 0.1082531754734323 0.31250000000117473 0 0.75000000000057243 0.35048094716480432 0 0.88173731489851925 0.33077402607778361 0 0.81242894672211508 0.45500248311961472 0 0.121259140952891 0.43112117036853742 0 0.24418615484441761 0.35773612382016978 0 0.22257735880419699 0.47344721641341742 0 0.81242894672211508 0.45500248311961472 0 0.88173731489851925 0.33077402607778361 0 0.915464298762109 0.43749999999886913 0 0 0.62500000000121547 0 0 0.50000000000206146 0 0.1371230538040123 0.56179824718362847 0 0.82212678063041267 0.67678595194836966 0 0.89051480781310632 0.79665793440246835 0 0.76243180583607129 0.78687675331113149 0 0.76243180583607129 0.78687675331113149 0 0.69010814643829166 0.89298495739101336 0 0.62844955668446423 0.7850749770380413 0 0.89051480781310632 0.79665793440246835 0 0.82212678063041267 0.67678595194836966 0 0.92266244547590082 0.68749999999917555 0 0 0.50000000000206146 0 0.121259140952891 0.43112117036853742 0 0.1371230538040123 0.56179824718362847 0 0.1082531754723032 0.6875000000007816 0 0 0.62500000000121547 0 0.1371230538040123 0.56179824718362847 0 0.75000000000032374 0.56698729811007709 0 0.88927506082488361 0.56409486310635837 0 0.82212678063041267 0.67678595194836966 0 0.81242894672211508 0.45500248311961472 0 0.88927506082488361 0.56409486310635837 0 0.75000000000032374 0.56698729811007709 0 0.69851598570178741 0.68211701800612057 0 0.56496004948275869 0.67675037307860475 0 0.62752533658682441 0.56838075195614346 0 0.69851598570178741 0.68211701800612057 0 0.76243180583607129 0.78687675331113149 0 0.62844955668446423 0.7850749770380413 0 0.23533274979922561 0.77093399389351469 0 0.18802967116092181 0.89415349436770275 0 0.10409951422139101 0.81206782209691231 0 0.121259140952891 0.43112117036853742 0 0.22257735880419699 0.47344721641341742 0 0.1371230538040123 0.56179824718362847 0 0.75000000000032374 0.56698729811007709 0 0.69851598570178741 0.68211701800612057 0 0.62752533658682441 0.56838075195614346 0 0.56496004948275869 0.67675037307860475 0 0.69851598570178741 0.68211701800612057 0 0.62844955668446423 0.7850749770380413 0 0.1371230538040123 0.56179824718362847 0 0.22257735880419699 0.47344721641341742 0 0.26982811998763367 0.56544650815856912 0 0.21809253452218619 0.65480892822618109 0 0.1371230538040123 0.56179824718362847 0 0.26982811998763367 0.56544650815856912 0 0.24418615484441761 0.35773612382016978 0 0.1082531754734323 0.31250000000117473 0 0.20767261601459541 0.25628918442207171 0 0.88173731489851925 0.33077402607778361 0 0.75000000000057243 0.35048094716480432 0 0.79891106056046712 0.25007334953587562 0 0.75000000000032374 0.56698729811007709 0 0.82212678063041267 0.67678595194836966 0 0.69851598570178741 0.68211701800612057 0 0.81249999999950517 0.1082531754733404 0 0.89658421694297741 0.1933620068391701 0 0.79891106056046712 0.25007334953587562 0 0.81249999999950517 0.1082531754733404 0 0.79891106056046712 0.25007334953587562 0 0.73983916756365475 0.17530677078674589 0 0.23533274979922561 0.77093399389351469 0 0.21809253452218619 0.65480892822618109 0 0.32607333794064219 0.67760114260606152 0 0.1082531754723032 0.6875000000007816 0 0.1371230538040123 0.56179824718362847 0 0.21809253452218619 0.65480892822618109 0 0.69851598570178741 0.68211701800612057 0 0.82212678063041267 0.67678595194836966 0 0.76243180583607129 0.78687675331113149 0 0.69010814643829166 0.89298495739101336 0 0.76243180583607129 0.78687675331113149 0 0.80886664387416207 0.89717308644237903 0 0.43750000000181222 0.89174682452709564 0 0.31258827852827581 0.89214793616708443 0 0.37776173212361452 0.78514649317305008 0 0.43750000000181222 0.89174682452709564 0 0.37500000000156292 1 0 0.31258827852827581 0.89214793616708443 0 0.121259140952891 0.43112117036853742 0 0 0.37500000000156292 0 0.1082531754734323 0.31250000000117473 0 0.50000000000206146 1 0 0.37500000000156292 1 0 0.43750000000181222 0.89174682452709564 0 0.31258827852827581 0.89214793616708443 0 0.18802967116092181 0.89415349436770275 0 0.23533274979922561 0.77093399389351469 0 0 0.50000000000206146 0 0 0.37500000000156292 0 0.121259140952891 0.43112117036853742 0 0.62844955668446423 0.7850749770380413 0 0.69010814643829166 0.89298495739101336 0 0.56327595140699671 0.89211526915426331 0 0.69010814643829166 0.89298495739101336 0 0.62500000000121547 1 0 0.56327595140699671 0.89211526915426331 0 0.25000000000104189 1 0 0.18802967116092181 0.89415349436770275 0 0.31258827852827581 0.89214793616708443 0 0.50000000000206146 1 0 0.43750000000181222 0.89174682452709564 0 0.56327595140699671 0.89211526915426331 0 0.56249999999885147 0.1082531754730395 0 0.62499999999901068 0 0 0.68749999999926592 0.1082531754732875 0 1 0.49999999999869221 0 1 0.62499999999901068 0 0.88927506082488361 0.56409486310635837 0 0 0.25000000000104189 0 0.12076953676380731 0.18690935762408761 0 0.1082531754734323 0.31250000000117473 0 0.49999999999869221 0 0 0.62499999999901068 0 0 0.56249999999885147 0.1082531754730395 0 0.62500000000121547 1 0 0.50000000000206146 1 0 0.56327595140699671 0.89211526915426331 0 0.37500000000156292 1 0 0.25000000000104189 1 0 0.31258827852827581 0.89214793616708443 0 0.31281086598417152 0.10449318608631281 0 0.37499999999904599 0 0 0.43749999999910871 0.1082531754729984 0 0.43750000000181222 0.89174682452709564 0 0.37776173212361452 0.78514649317305008 0 0.50046028868828263 0.78376912307435687 0 0 0.37500000000156292 0 0 0.25000000000104189 0 0.1082531754734323 0.31250000000117473 0 0.49999999999869221 0 0 0.56249999999885147 0.1082531754730395 0 0.43749999999910871 0.1082531754729984 0 0.43750000000181222 0.89174682452709564 0 0.50046028868828263 0.78376912307435687 0 0.56327595140699671 0.89211526915426331 0 0.74999999999934042 0 0 0.81249999999950517 0.1082531754733404 0 0.68749999999926592 0.1082531754732875 0 0.37499999999904599 0 0 0.49999999999869221 0 0 0.43749999999910871 0.1082531754729984 0 0.25000000000104189 1 0 0.12500000000052089 1 0 0.18802967116092181 0.89415349436770275 0 0.50046028868828263 0.78376912307435687 0 0.62844955668446423 0.7850749770380413 0 0.56327595140699671 0.89211526915426331 0 0.37776173212361452 0.78514649317305008 0 0.31258827852827581 0.89214793616708443 0 0.23533274979922561 0.77093399389351469 0 0.62499999999901068 0 0 0.74999999999934042 0 0 0.68749999999926592 0.1082531754732875 0 1 0.74999999999934042 0 1 0.87499999999967015 0 0.89051480781310632 0.79665793440246835 0 0 0.25000000000104189 0 0 0.12500000000052089 0 0.12076953676380731 0.18690935762408761 0 0.74999999999934042 0 0 0.87499999999967015 0 0 0.81249999999950517 0.1082531754733404 0 0.24999999999941069 0 0 0.37499999999904599 0 0 0.31281086598417152 0.10449318608631281 0 0.50046028868828263 0.78376912307435687 0 0.37776173212361452 0.78514649317305008 0 0.44078402250377968 0.67714785211715212 0 0.68768773896438518 0.4586835206367198 0 0.75000000000032374 0.56698729811007709 0 0.62752533658682441 0.56838075195614346 0 0.31411863959822661 0.24965544328045999 0 0.37953773393552892 0.34812185820708452 0 0.24418615484441761 0.35773612382016978 0 0.68768773896438518 0.4586835206367198 0 0.81242894672211508 0.45500248311961472 0 0.75000000000032374 0.56698729811007709 0 1 0.24999999999941069 0 1 0.37499999999904599 0 0.88173731489851925 0.33077402607778361 0 0 0.75000000000034761 0 0 0.62500000000121547 0 0.1082531754723032 0.6875000000007816 0 0.50048844149666749 0.56727788297625459 0 0.44078402250377968 0.67714785211715212 0 0.38694285807596462 0.5672991787102919 0 0.50108503093851109 0.35012252869403671 0 0.44301038174930041 0.45684931552185398 0 0.37953773393552892 0.34812185820708452 0 0.50046028868828263 0.78376912307435687 0 0.56496004948275869 0.67675037307860475 0 0.62844955668446423 0.7850749770380413 0 0.68768773896438518 0.4586835206367198 0 0.75000000000057243 0.35048094716480432 0 0.81242894672211508 0.45500248311961472 0 0.56349980387502452 0.45846841892908402 0 0.62512662990940393 0.35044303886909911 0 0.68768773896438518 0.4586835206367198 0 0.50048844149666749 0.56727788297625459 0 0.38694285807596462 0.5672991787102919 0 0.44301038174930041 0.45684931552185398 0 0.50046028868828263 0.78376912307435687 0 0.44078402250377968 0.67714785211715212 0 0.56496004948275869 0.67675037307860475 0 0.50108503093851109 0.35012252869403671 0 0.37953773393552892 0.34812185820708452 0 0.43750000000200551 0.24222777169198509 0 0.75000000000034761 1 0 0.62500000000121547 1 0 0.69010814643829166 0.89298495739101336 0 0.68768773896438518 0.4586835206367198 0 0.62512662990940393 0.35044303886909911 0 0.75000000000057243 0.35048094716480432 0 0.56496004948275869 0.67675037307860475 0 0.44078402250377968 0.67714785211715212 0 0.50048844149666749 0.56727788297625459 0 0.56349980387502452 0.45846841892908402 0 0.44301038174930041 0.45684931552185398 0 0.50108503093851109 0.35012252869403671 0 0.50048844149666749 0.56727788297625459 0 0.44301038174930041 0.45684931552185398 0 0.56349980387502452 0.45846841892908402 0 0.56349980387502452 0.45846841892908402 0 0.50108503093851109 0.35012252869403671 0 0.62512662990940393 0.35044303886909911 0 0.43750000000200551 0.24222777169198509 0 0.37953773393552892 0.34812185820708452 0 0.31411863959822661 0.24965544328045999 0 0.56496004948275869 0.67675037307860475 0 0.50048844149666749 0.56727788297625459 0 0.62752533658682441 0.56838075195614346 0 0.56349980387502452 0.45846841892908402 0 0.68768773896438518 0.4586835206367198 0 0.62752533658682441 0.56838075195614346 0 0.50048844149666749 0.56727788297625459 0 0.56349980387502452 0.45846841892908402 0 0.62752533658682441 0.56838075195614346 0 0.75000000000057243 0.35048094716480432 0 0.62512662990940393 0.35044303886909911 0 0.68668231842078242 0.24762892664808989 0 0.50108503093851109 0.35012252869403671 0 0.43750000000200551 0.24222777169198509 0 0.56250000000143974 0.2422277716920859 0 0.62512662990940393 0.35044303886909911 0 0.50108503093851109 0.35012252869403671 0 0.56250000000143974 0.2422277716920859 0 0.68668231842078242 0.24762892664808989 0 0.62512662990940393 0.35044303886909911 0 0.56250000000143974 0.2422277716920859 0 0.22257735880419699 0.47344721641341742 0 0.24418615484441761 0.35773612382016978 0 0.32815957677880009 0.4577243358118348 0 0.12076953676380731 0.18690935762408761 0 0.19185372118111221 0.092925648673580788 0 0.25103557339309318 0.17464499738446629 0 0.20767261601459541 0.25628918442207171 0 0.12076953676380731 0.18690935762408761 0 0.25103557339309318 0.17464499738446629 0 0 0.87499999999950151 0 0 0.75000000000034761 0 0.10409951422139101 0.81206782209691231 0 0.1249999999997731 0 0 0.24999999999941069 0 0 0.19185372118111221 0.092925648673580788 0 1 0.1249999999997731 0 1 0.24999999999941069 0 0.89658421694297741 0.1933620068391701 0 0.88927506082488361 0.56409486310635837 0 0.81242894672211508 0.45500248311961472 0 0.915464298762109 0.43749999999886913 0 0.87499999999950151 1 0 0.75000000000034761 1 0 0.80886664387416207 0.89717308644237903 0 0.75000000000034761 1 0 0.69010814643829166 0.89298495739101336 0 0.80886664387416207 0.89717308644237903 0 0.82212678063041267 0.67678595194836966 0 0.88927506082488361 0.56409486310635837 0 0.92266244547590082 0.68749999999917555 0 0 0.75000000000034761 0 0.1082531754723032 0.6875000000007816 0 0.10409951422139101 0.81206782209691231 0 0.24999999999941069 0 0 0.31281086598417152 0.10449318608631281 0 0.19185372118111221 0.092925648673580788 0 1 0.24999999999941069 0 0.88173731489851925 0.33077402607778361 0 0.89658421694297741 0.1933620068391701 0 0.32815957677880009 0.4577243358118348 0 0.38694285807596462 0.5672991787102919 0 0.26982811998763367 0.56544650815856912 0 0.76243180583607129 0.78687675331113149 0 0.89051480781310632 0.79665793440246835 0 0.80886664387416207 0.89717308644237903 0 0.38694285807596462 0.5672991787102919 0 0.44078402250377968 0.67714785211715212 0 0.32607333794064219 0.67760114260606152 0 0.37776173212361452 0.78514649317305008 0 0.23533274979922561 0.77093399389351469 0 0.32607333794064219 0.67760114260606152 0 1 0.49999999999869221 0 0.88927506082488361 0.56409486310635837 0 0.915464298762109 0.43749999999886913 0 0.88173731489851925 0.33077402607778361 0 1 0.37499999999904599 0 0.915464298762109 0.43749999999886913 0 0.24418615484441761 0.35773612382016978 0 0.37953773393552892 0.34812185820708452 0 0.32815957677880009 0.4577243358118348 0 0.44301038174930041 0.45684931552185398 0 0.38694285807596462 0.5672991787102919 0 0.32815957677880009 0.4577243358118348 0 0.88927506082488361 0.56409486310635837 0 1 0.62499999999901068 0 0.92266244547590082 0.68749999999917555 0 1 0.74999999999934042 0 0.89051480781310632 0.79665793440246835 0 0.92266244547590082 0.68749999999917555 0 0 1 0 0 0.87499999999950151 0 0.091506350946494744 0.90849364905351082 0 1 1 0 0.87499999999950151 1 0 0.90849364905363228 0.90849364905367769 0 0 0 0 0.1249999999997731 0 0 0.091506350946417708 0.091506350946618076 0 0 0.12500000000052089 0 0 0 0 0.091506350946417708 0.091506350946618076 0 1 0 0 1 0.1249999999997731 0 0.90849364905355434 0.091506350946296292 0 0.87499999999967015 0 0 1 0 0 0.90849364905355434 0.091506350946296292 0 0.12500000000052089 1 0 0 1 0 0.091506350946494744 0.90849364905351082 0 1 0.87499999999967015 0 1 1 0 0.90849364905363228 0.90849364905367769 0 0.38694285807596462 0.5672991787102919 0 0.32607333794064219 0.67760114260606152 0 0.26982811998763367 0.56544650815856912 0 0.31411863959822661 0.24965544328045999 0 0.24418615484441761 0.35773612382016978 0 0.20767261601459541 0.25628918442207171 0 0.1082531754734323 0.31250000000117473 0 0.12076953676380731 0.18690935762408761 0 0.20767261601459541 0.25628918442207171 0 0.75000000000057243 0.35048094716480432 0 0.68668231842078242 0.24762892664808989 0 0.79891106056046712 0.25007334953587562 0 0.22257735880419699 0.47344721641341742 0 0.32815957677880009 0.4577243358118348 0 0.26982811998763367 0.56544650815856912 0 0.44078402250377968 0.67714785211715212 0 0.37776173212361452 0.78514649317305008 0 0.32607333794064219 0.67760114260606152 0 0.89658421694297741 0.1933620068391701 0 0.88173731489851925 0.33077402607778361 0 0.79891106056046712 0.25007334953587562 0 1 0.37499999999904599 0 1 0.49999999999869221 0 0.915464298762109 0.43749999999886913 0 0.37953773393552892 0.34812185820708452 0 0.44301038174930041 0.45684931552185398 0 0.32815957677880009 0.4577243358118348 0 0.32607333794064219 0.67760114260606152 0 0.21809253452218619 0.65480892822618109 0 0.26982811998763367 0.56544650815856912 0 1 0.1249999999997731 0 0.89658421694297741 0.1933620068391701 0 0.90849364905355434 0.091506350946296292 0 0 0.87499999999950151 0 0.10409951422139101 0.81206782209691231 0 0.091506350946494744 0.90849364905351082 0 0.1249999999997731 0 0 0.19185372118111221 0.092925648673580788 0 0.091506350946417708 0.091506350946618076 0 1 0.62499999999901068 0 1 0.74999999999934042 0 0.92266244547590082 0.68749999999917555 0 0.18802967116092181 0.89415349436770275 0 0.12500000000052089 1 0 0.091506350946494744 0.90849364905351082 0 0.89051480781310632 0.79665793440246835 0 1 0.87499999999967015 0 0.90849364905363228 0.90849364905367769 0 0.12076953676380731 0.18690935762408761 0 0 0.12500000000052089 0 0.091506350946417708 0.091506350946618076 0 0.81249999999950517 0.1082531754733404 0 0.87499999999967015 0 0 0.90849364905355434 0.091506350946296292 0 0.87499999999950151 1 0 0.80886664387416207 0.89717308644237903 0 0.90849364905363228 0.90849364905367769 0 0.68668231842078242 0.24762892664808989 0 0.62499999999892575 0.17524047358135519 0 0.73983916756365475 0.17530677078674589 0 0.31281086598417152 0.10449318608631281 0 0.43749999999910871 0.1082531754729984 0 0.37500000000232431 0.17524047358384309 0 0.62499999999892575 0.17524047358135519 0 0.56250000000143974 0.2422277716920859 0 0.49999999999934441 0.1752404735815076 0 0.56249999999885147 0.1082531754730395 0 0.68749999999926592 0.1082531754732875 0 0.62499999999892575 0.17524047358135519 0 0.56249999999885147 0.1082531754730395 0 0.62499999999892575 0.17524047358135519 0 0.49999999999934441 0.1752404735815076 0 0.56250000000143974 0.2422277716920859 0 0.43750000000200551 0.24222777169198509 0 0.49999999999934441 0.1752404735815076 0 0.43749999999910871 0.1082531754729984 0 0.56249999999885147 0.1082531754730395 0 0.49999999999934441 0.1752404735815076 0 0.68668231842078242 0.24762892664808989 0 0.56250000000143974 0.2422277716920859 0 0.62499999999892575 0.17524047358135519 0 0.43750000000200551 0.24222777169198509 0 0.31411863959822661 0.24965544328045999 0 0.37500000000232431 0.17524047358384309 0 0.49999999999934441 0.1752404735815076 0 0.43750000000200551 0.24222777169198509 0 0.37500000000232431 0.17524047358384309 0 0.43749999999910871 0.1082531754729984 0 0.49999999999934441 0.1752404735815076 0 0.37500000000232431 0.17524047358384309 0 0.62499999999892575 0.17524047358135519 0 0.68749999999926592 0.1082531754732875 0 0.73983916756365475 0.17530677078674589 0 0.68749999999926592 0.1082531754732875 0 0.81249999999950517 0.1082531754733404 0 0.73983916756365475 0.17530677078674589 0 0.10409951422139101 0.81206782209691231 0 0.18802967116092181 0.89415349436770275 0 0.091506350946494744 0.90849364905351082 0 0.89658421694297741 0.1933620068391701 0 0.81249999999950517 0.1082531754733404 0 0.90849364905355434 0.091506350946296292 0 0.19185372118111221 0.092925648673580788 0 0.12076953676380731 0.18690935762408761 0 0.091506350946417708 0.091506350946618076 0 0.37500000000232431 0.17524047358384309 0 0.31411863959822661 0.24965544328045999 0 0.25103557339309318 0.17464499738446629 0 0.31281086598417152 0.10449318608631281 0 0.37500000000232431 0.17524047358384309 0 0.25103557339309318 0.17464499738446629 0 0.80886664387416207 0.89717308644237903 0 0.89051480781310632 0.79665793440246835 0 0.90849364905363228 0.90849364905367769 0 0.19185372118111221 0.092925648673580788 0 0.31281086598417152 0.10449318608631281 0 0.25103557339309318 0.17464499738446629 0 0.79891106056046712 0.25007334953587562 0 0.68668231842078242 0.24762892664808989 0 0.73983916756365475 0.17530677078674589 0 0.31411863959822661 0.24965544328045999 0 0.20767261601459541 0.25628918442207171 0 0.25103557339309318 0.17464499738446629 0 

        </DataArray>

      </Points>

      <Cells>

        <DataArray type="Int32" Name="connectivity" format="ascii">

0 1 2 3 4 5 6 7 8 9 10 11 12 13 14 15 16 17 18 19 20 21 22 23 24 25 26 27 28 29 30 31 32 33 34 35 36 37 38 39 40 41 42 43 44 45 46 47 48 49 50 51 52 53 54 55 56 57 58 59 60 61 62 63 64 65 66 67 68 69 70 71 72 73 74 75 76 77 78 79 80 81 82 83 84 85 86 87 88 89 90 91 92 93 94 95 96 97 98 99 100 101 102 103 104 105 106 107 108 109 110 111 112 113 114 115 116 117 118 119 120 121 122 123 124 125 126 127 128 129 130 131 132 133 134 135 136 137 138 139 140 141 142 143 144 145 146 147 148 149 150 151 152 153 154 155 156 157 158 159 160 161 162 163 164 165 166 167 168 169 170 171 172 173 174 175 176 177 178 179 180 181 182 183 184 185 186 187 188 189 190 191 192 193 194 195 196 197 198 199 200 201 202 203 204 205 206 207 208 209 210 211 212 213 214 215 216 217 218 219 220 221 222 223 224 225 226 227 228 229 230 231 232 233 234 235 236 237 238 239 240 241 242 243 244 245 246 247 248 249 250 251 252 253 254 255 256 257 258 259 260 261 262 263 264 265 266 267 268 269 270 271 272 273 274 275 276 277 278 279 280 281 282 283 284 285 286 287 288 289 290 291 292 293 294 295 296 297 298 299 300 301 302 303 304 305 306 307 308 309 310 311 312 313 314 315 316 317 318 319 320 321 322 323 324 325 326 327 328 329 330 331 332 333 334 335 336 337 338 339 340 341 342 343 344 345 346 347 348 349 350 351 352 353 354 355 356 357 358 359 360 361 362 363 364 365 366 367 368 369 370 371 372 373 374 375 376 377 378 379 380 381 382 383 384 385 386 387 388 389 390 391 392 393 394 395 396 397 398 399 400 401 402 403 404 405 406 407 408 409 410 411 412 413 414 415 416 417 418 419 420 421 422 423 424 425 426 427 428 429 430 431 432 433 434 435 436 437 438 439 440 441 442 443 444 445 446 447 448 449 450 451 452 453 454 455 456 457 458 459 460 461 462 463 464 465 466 467 468 469 470 471 472 473 474 475 476 477 478 479 480 481 482 483 484 485 

        </DataArray>

        <DataArray type="Int32" Name="offsets" format="ascii">

3 6 9 12 15 18 21 24 27 30 33 36 39 42 45 48 51 54 57 60 63 66 69 72 75 78 81 84 87 90 93 96 99 102 105 108 111 114 117 120 123 126 129 132 135 138 141 144 147 150 153 156 159 162 165 168 171 174 177 180 183 186 189 192 195 198 201 204 207 210 213 216 219 222 225 228 231 234 237 240 243 246 249 252 255 258 261 264 267 270 273 276 279 282 285 288 291 294 297 300 303 306 309 312 315 318 321 324 327 330 333 336 339 342 345 348 351 354 357 360 363 366 369 372 375 378 381 384 387 390 393 396 399 402 405 408 411 414 417 420 423 426 429 432 435 438 441 444 447 450 453 456 459 462 465 468 471 474 477 480 483 486 

        </DataArray>

        <DataArray type="Int32" Name="types" format="ascii">

5 5 5 5 5 5 5 5 5 5 5 5 5 5 5 5 5 5 5 5 5 5 5 5 5 5 5 5 5 5 5 5 5 5 5 5 5 5 5 5 5 5 5 5 5 5 5 5 5 5 5 5 5 5 5 5 5 5 5 5 5 5 5 5 5 5 5 5 5 5 5 5 5 5 5 5 5 5 5 5 5 5 5 5 5 5 5 5 5 5 5 5 5 5 5 5 5 5 5 5 5 5 5 5 5 5 5 5 5 5 5 5 5 5 5 5 5 5 5 5 5 5 5 5 5 5 5 5 5 5 5 5 5 5 5 5 5 5 5 5 5 5 5 5 5 5 5 5 5 5 5 5 5 5 5 5 5 5 5 5 5 5 

        </DataArray>

      </Cells>

    </Piece>

  </UnstructuredGrid>

</VTKFile>

