<?xml version="1.0"?>

<VTKFile type="UnstructuredGrid" version="0.1">

  <UnstructuredGrid>

    <Piece NumberOfPoints="486" NumberOfCells="162">

      <PointData>

        <DataArray type="Float64" Name="K" format="ascii">

9.94667490664166043e-01
9.94667490664166043e-01
9.94667490664166043e-01
9.83480237792137668e-01
9.83480237792137668e-01
9.83480237792137668e-01
9.45139741146080348e-01
9.45139741146080348e-01
9.45139741146080348e-01
9.53128289647621862e-01
9.53128289647621862e-01
9.53128289647621862e-01
9.63623832049698814e-01
9.63623832049698814e-01
9.63623832049698814e-01
9.49021227830223135e-01
9.49021227830223135e-01
9.49021227830223135e-01
1.00046466770719800e+00
1.00046466770719800e+00
1.00046466770719800e+00
1.06308790799856756e+00
1.06308790799856756e+00
1.06308790799856756e+00
1.03364406228459393e+00
1.03364406228459393e+00
1.03364406228459393e+00
1.04615712137752559e+00
1.04615712137752559e+00
1.04615712137752559e+00
9.68799341439646522e-01
9.68799341439646522e-01
9.68799341439646522e-01
1.01460161098583002e+00
1.01460161098583002e+00
1.01460161098583002e+00
1.03985344053602291e+00
1.03985344053602291e+00
1.03985344053602291e+00
1.00772726246179833e+00
1.00772726246179833e+00
1.00772726246179833e+00
1.03804320881593592e+00
1.03804320881593592e+00
1.03804320881593592e+00
1.05221930203912395e+00
1.05221930203912395e+00
1.05221930203912395e+00
9.73713345957811116e-01
9.73713345957811116e-01
9.73713345957811116e-01
9.62718212844991150e-01
9.62718212844991150e-01
9.62718212844991150e-01
1.04507339838013080e+00
1.04507339838013080e+00
1.04507339838013080e+00
1.03722204106427585e+00
1.03722204106427585e+00
1.03722204106427585e+00
9.74780213213154001e-01
9.74780213213154001e-01
9.74780213213154001e-01
9.78134234208382414e-01
9.78134234208382414e-01
9.78134234208382414e-01
9.62269166417629496e-01
9.62269166417629496e-01
9.62269166417629496e-01
9.47003736713614597e-01
9.47003736713614597e-01
9.47003736713614597e-01
1.05976399471161020e+00
1.05976399471161020e+00
1.05976399471161020e+00
9.54307472321369810e-01
9.54307472321369810e-01
9.54307472321369810e-01
9.68486236313378379e-01
9.68486236313378379e-01
9.68486236313378379e-01
9.76359772084426702e-01
9.76359772084426702e-01
9.76359772084426702e-01
9.92763465197579631e-01
9.92763465197579631e-01
9.92763465197579631e-01
1.07036595389099443e+00
1.07036595389099443e+00
1.07036595389099443e+00
1.03377029983509194e+00
1.03377029983509194e+00
1.03377029983509194e+00
1.00759274682131728e+00
1.00759274682131728e+00
1.00759274682131728e+00
9.92273695872086692e-01
9.92273695872086692e-01
9.92273695872086692e-01
9.35038531341447321e-01
9.35038531341447321e-01
9.35038531341447321e-01
9.96401907236417528e-01
9.96401907236417528e-01
9.96401907236417528e-01
9.62530585105354719e-01
9.62530585105354719e-01
9.62530585105354719e-01
9.53305339828463549e-01
9.53305339828463549e-01
9.53305339828463549e-01
1.00393257163683347e+00
1.00393257163683347e+00
1.00393257163683347e+00
9.78603756875157438e-01
9.78603756875157438e-01
9.78603756875157438e-01
9.59041243081362849e-01
9.59041243081362849e-01
9.59041243081362849e-01
9.99415896226819478e-01
9.99415896226819478e-01
9.99415896226819478e-01
1.03938168066951886e+00
1.03938168066951886e+00
1.03938168066951886e+00
1.00840474770599875e+00
1.00840474770599875e+00
1.00840474770599875e+00
9.34117055744844160e-01
9.34117055744844160e-01
9.34117055744844160e-01
1.04494460656250943e+00
1.04494460656250943e+00
1.04494460656250943e+00
9.77864994077473626e-01
9.77864994077473626e-01
9.77864994077473626e-01
9.69028387261536950e-01
9.69028387261536950e-01
9.69028387261536950e-01
1.05708415420678947e+00
1.05708415420678947e+00
1.05708415420678947e+00
1.03081924331288466e+00
1.03081924331288466e+00
1.03081924331288466e+00
9.32502636224523895e-01
9.32502636224523895e-01
9.32502636224523895e-01
1.05080722645763092e+00
1.05080722645763092e+00
1.05080722645763092e+00
1.01781195061909702e+00
1.01781195061909702e+00
1.01781195061909702e+00
9.93926314756286899e-01
9.93926314756286899e-01
9.93926314756286899e-01
1.03842288357613377e+00
1.03842288357613377e+00
1.03842288357613377e+00
9.58998062767061010e-01
9.58998062767061010e-01
9.58998062767061010e-01
1.01478739727725564e+00
1.01478739727725564e+00
1.01478739727725564e+00
9.83182226969494866e-01
9.83182226969494866e-01
9.83182226969494866e-01
1.01960877107779035e+00
1.01960877107779035e+00
1.01960877107779035e+00
1.00242381487114396e+00
1.00242381487114396e+00
1.00242381487114396e+00
9.40607429138305084e-01
9.40607429138305084e-01
9.40607429138305084e-01
9.89682095119180927e-01
9.89682095119180927e-01
9.89682095119180927e-01
1.04352854308409349e+00
1.04352854308409349e+00
1.04352854308409349e+00
1.04090180600858329e+00
1.04090180600858329e+00
1.04090180600858329e+00
1.02825820773653254e+00
1.02825820773653254e+00
1.02825820773653254e+00
1.04813295951238872e+00
1.04813295951238872e+00
1.04813295951238872e+00
1.01046115818040660e+00
1.01046115818040660e+00
1.01046115818040660e+00
9.56345521042191948e-01
9.56345521042191948e-01
9.56345521042191948e-01
1.03583710556764830e+00
1.03583710556764830e+00
1.03583710556764830e+00
1.03091132264319318e+00
1.03091132264319318e+00
1.03091132264319318e+00
1.02763723124468842e+00
1.02763723124468842e+00
1.02763723124468842e+00
1.02965758496038795e+00
1.02965758496038795e+00
1.02965758496038795e+00
9.89020257973123318e-01
9.89020257973123318e-01
9.89020257973123318e-01
1.00526090583227812e+00
1.00526090583227812e+00
1.00526090583227812e+00
1.02061481402024601e+00
1.02061481402024601e+00
1.02061481402024601e+00
1.04111788498689095e+00
1.04111788498689095e+00
1.04111788498689095e+00
1.04602863788347888e+00
1.04602863788347888e+00
1.04602863788347888e+00
9.67076342499559871e-01
9.67076342499559871e-01
9.67076342499559871e-01
1.00022302157136989e+00
1.00022302157136989e+00
1.00022302157136989e+00
1.03646822679299944e+00
1.03646822679299944e+00
1.03646822679299944e+00
1.00552850479125633e+00
1.00552850479125633e+00
1.00552850479125633e+00
1.01021734115767003e+00
1.01021734115767003e+00
1.01021734115767003e+00
9.99848124060971122e-01
9.99848124060971122e-01
9.99848124060971122e-01
1.07047630854176590e+00
1.07047630854176590e+00
1.07047630854176590e+00
1.02858171862940573e+00
1.02858171862940573e+00
1.02858171862940573e+00
1.01594605245846226e+00
1.01594605245846226e+00
1.01594605245846226e+00
1.01576299311354590e+00
1.01576299311354590e+00
1.01576299311354590e+00
9.96271616089576373e-01
9.96271616089576373e-01
9.96271616089576373e-01
1.03104230608604852e+00
1.03104230608604852e+00
1.03104230608604852e+00
1.00730811194251491e+00
1.00730811194251491e+00
1.00730811194251491e+00
1.00764115195425052e+00
1.00764115195425052e+00
1.00764115195425052e+00
9.99295268387244584e-01
9.99295268387244584e-01
9.99295268387244584e-01
9.90665645049537136e-01
9.90665645049537136e-01
9.90665645049537136e-01
9.83778779324791075e-01
9.83778779324791075e-01
9.83778779324791075e-01
1.02069037571750942e+00
1.02069037571750942e+00
1.02069037571750942e+00
1.00388565282014208e+00
1.00388565282014208e+00
1.00388565282014208e+00
9.69276056155354615e-01
9.69276056155354615e-01
9.69276056155354615e-01
9.78466659431992070e-01
9.78466659431992070e-01
9.78466659431992070e-01
9.75803683768055374e-01
9.75803683768055374e-01
9.75803683768055374e-01
9.94258907523738134e-01
9.94258907523738134e-01
9.94258907523738134e-01
1.03839876758511807e+00
1.03839876758511807e+00
1.03839876758511807e+00
1.02766532422900858e+00
1.02766532422900858e+00
1.02766532422900858e+00
1.03365486477819624e+00
1.03365486477819624e+00
1.03365486477819624e+00
9.44467138649297766e-01
9.44467138649297766e-01
9.44467138649297766e-01
1.00787670571617904e+00
1.00787670571617904e+00
1.00787670571617904e+00
1.04497437938261450e+00
1.04497437938261450e+00
1.04497437938261450e+00
1.02328912429795382e+00
1.02328912429795382e+00
1.02328912429795382e+00
9.90840364380847105e-01
9.90840364380847105e-01
9.90840364380847105e-01
9.88905328555482410e-01
9.88905328555482410e-01
9.88905328555482410e-01
9.53037945649692908e-01
9.53037945649692908e-01
9.53037945649692908e-01
1.03291098816171290e+00
1.03291098816171290e+00
1.03291098816171290e+00
1.02165974748779798e+00
1.02165974748779798e+00
1.02165974748779798e+00
1.02066268965191997e+00
1.02066268965191997e+00
1.02066268965191997e+00
1.02039320277486611e+00
1.02039320277486611e+00
1.02039320277486611e+00
9.72755479141422907e-01
9.72755479141422907e-01
9.72755479141422907e-01
9.64677149591029348e-01
9.64677149591029348e-01
9.64677149591029348e-01
9.64537556235205318e-01
9.64537556235205318e-01
9.64537556235205318e-01
9.58525052742692618e-01
9.58525052742692618e-01
9.58525052742692618e-01
1.00709951966479605e+00
1.00709951966479605e+00
1.00709951966479605e+00
1.01660488571370600e+00
1.01660488571370600e+00
1.01660488571370600e+00
9.58506328123327811e-01
9.58506328123327811e-01
9.58506328123327811e-01
9.75717162920418879e-01
9.75717162920418879e-01
9.75717162920418879e-01
1.00202596318402293e+00
1.00202596318402293e+00
1.00202596318402293e+00
1.01686837137214869e+00
1.01686837137214869e+00
1.01686837137214869e+00
9.48421356374821167e-01
9.48421356374821167e-01
9.48421356374821167e-01
9.75810857929667264e-01
9.75810857929667264e-01
9.75810857929667264e-01
9.93820727410483107e-01
9.93820727410483107e-01
9.93820727410483107e-01
1.02492135919974992e+00
1.02492135919974992e+00
1.02492135919974992e+00
9.37226357806452692e-01
9.37226357806452692e-01
9.37226357806452692e-01
9.81789880072510557e-01
9.81789880072510557e-01
9.81789880072510557e-01
1.03332028661461361e+00
1.03332028661461361e+00
1.03332028661461361e+00
9.82440473502492861e-01
9.82440473502492861e-01
9.82440473502492861e-01
9.77759227397971720e-01
9.77759227397971720e-01
9.77759227397971720e-01
9.96497691475964009e-01
9.96497691475964009e-01
9.96497691475964009e-01
9.77517025515581950e-01
9.77517025515581950e-01
9.77517025515581950e-01
1.01581615292739813e+00
1.01581615292739813e+00
1.01581615292739813e+00
9.64908246467441222e-01
9.64908246467441222e-01
9.64908246467441222e-01
9.95529118898917709e-01
9.95529118898917709e-01
9.95529118898917709e-01
9.50615526897786611e-01
9.50615526897786611e-01
9.50615526897786611e-01
9.88801682833711060e-01
9.88801682833711060e-01
9.88801682833711060e-01
9.84459158081053221e-01
9.84459158081053221e-01
9.84459158081053221e-01
1.00535657657145272e+00
1.00535657657145272e+00
1.00535657657145272e+00
1.07439001629713315e+00
1.07439001629713315e+00
1.07439001629713315e+00
1.03465322357405465e+00
1.03465322357405465e+00
1.03465322357405465e+00
1.03375147432228798e+00
1.03375147432228798e+00
1.03375147432228798e+00
1.04386927725105916e+00
1.04386927725105916e+00
1.04386927725105916e+00
1.04624178601840412e+00
1.04624178601840412e+00
1.04624178601840412e+00
1.05743866540417697e+00
1.05743866540417697e+00
1.05743866540417697e+00
1.01736770436478285e+00
1.01736770436478285e+00
1.01736770436478285e+00
1.07967828473103844e+00
1.07967828473103844e+00
1.07967828473103844e+00
1.07081956854855176e+00
1.07081956854855176e+00
1.07081956854855176e+00
1.07116933306141227e+00
1.07116933306141227e+00
1.07116933306141227e+00
1.01105531493447565e+00
1.01105531493447565e+00
1.01105531493447565e+00
9.88365116801207089e-01
9.88365116801207089e-01
9.88365116801207089e-01
9.79551829597788526e-01
9.79551829597788526e-01
9.79551829597788526e-01
9.68813878436093012e-01
9.68813878436093012e-01
9.68813878436093012e-01
9.68302170553380526e-01
9.68302170553380526e-01
9.68302170553380526e-01
1.06664105347715887e+00
1.06664105347715887e+00
1.06664105347715887e+00
1.06600056102847152e+00
1.06600056102847152e+00
1.06600056102847152e+00
1.01288319231108548e+00
1.01288319231108548e+00
1.01288319231108548e+00
1.03467805807290114e+00
1.03467805807290114e+00
1.03467805807290114e+00
9.80215396889064894e-01
9.80215396889064894e-01
9.80215396889064894e-01
1.02879784470529456e+00
1.02879784470529456e+00
1.02879784470529456e+00


        </DataArray>

      </PointData>

      <CellData/>

      <Points>

        <DataArray type="Float64" NumberOfComponents="3" format="ascii">

0.1082531754723032 0.6875000000007816 0 0.23533274979922561 0.77093399389351469 0 0.10409951422139101 0.81206782209691231 0 0.23533274979922561 0.77093399389351469 0 0.1082531754723032 0.6875000000007816 0 0.21809253452218619 0.65480892822618109 0 0.24418615484441761 0.35773612382016978 0 0.121259140952891 0.43112117036853742 0 0.1082531754734323 0.31250000000117473 0 0.75000000000057243 0.35048094716480432 0 0.88173731489851925 0.33077402607778361 0 0.81242894672211508 0.45500248311961472 0 0.121259140952891 0.43112117036853742 0 0.24418615484441761 0.35773612382016978 0 0.22257735880419699 0.47344721641341742 0 0.81242894672211508 0.45500248311961472 0 0.88173731489851925 0.33077402607778361 0 0.915464298762109 0.43749999999886913 0 0 0.62500000000121547 0 0 0.50000000000206146 0 0.1371230538040123 0.56179824718362847 0 0.82212678063041267 0.67678595194836966 0 0.89051480781310632 0.79665793440246835 0 0.76243180583607129 0.78687675331113149 0 0.76243180583607129 0.78687675331113149 0 0.69010814643829166 0.89298495739101336 0 0.62844955668446423 0.7850749770380413 0 0.89051480781310632 0.79665793440246835 0 0.82212678063041267 0.67678595194836966 0 0.92266244547590082 0.68749999999917555 0 0 0.50000000000206146 0 0.121259140952891 0.43112117036853742 0 0.1371230538040123 0.56179824718362847 0 0.1082531754723032 0.6875000000007816 0 0 0.62500000000121547 0 0.1371230538040123 0.56179824718362847 0 0.75000000000032374 0.56698729811007709 0 0.88927506082488361 0.56409486310635837 0 0.82212678063041267 0.67678595194836966 0 0.81242894672211508 0.45500248311961472 0 0.88927506082488361 0.56409486310635837 0 0.75000000000032374 0.56698729811007709 0 0.69851598570178741 0.68211701800612057 0 0.56496004948275869 0.67675037307860475 0 0.62752533658682441 0.56838075195614346 0 0.69851598570178741 0.68211701800612057 0 0.76243180583607129 0.78687675331113149 0 0.62844955668446423 0.7850749770380413 0 0.23533274979922561 0.77093399389351469 0 0.18802967116092181 0.89415349436770275 0 0.10409951422139101 0.81206782209691231 0 0.121259140952891 0.43112117036853742 0 0.22257735880419699 0.47344721641341742 0 0.1371230538040123 0.56179824718362847 0 0.75000000000032374 0.56698729811007709 0 0.69851598570178741 0.68211701800612057 0 0.62752533658682441 0.56838075195614346 0 0.56496004948275869 0.67675037307860475 0 0.69851598570178741 0.68211701800612057 0 0.62844955668446423 0.7850749770380413 0 0.1371230538040123 0.56179824718362847 0 0.22257735880419699 0.47344721641341742 0 0.26982811998763367 0.56544650815856912 0 0.21809253452218619 0.65480892822618109 0 0.1371230538040123 0.56179824718362847 0 0.26982811998763367 0.56544650815856912 0 0.24418615484441761 0.35773612382016978 0 0.1082531754734323 0.31250000000117473 0 0.20767261601459541 0.25628918442207171 0 0.88173731489851925 0.33077402607778361 0 0.75000000000057243 0.35048094716480432 0 0.79891106056046712 0.25007334953587562 0 0.75000000000032374 0.56698729811007709 0 0.82212678063041267 0.67678595194836966 0 0.69851598570178741 0.68211701800612057 0 0.81249999999950517 0.1082531754733404 0 0.89658421694297741 0.1933620068391701 0 0.79891106056046712 0.25007334953587562 0 0.81249999999950517 0.1082531754733404 0 0.79891106056046712 0.25007334953587562 0 0.73983916756365475 0.17530677078674589 0 0.23533274979922561 0.77093399389351469 0 0.21809253452218619 0.65480892822618109 0 0.32607333794064219 0.67760114260606152 0 0.1082531754723032 0.6875000000007816 0 0.1371230538040123 0.56179824718362847 0 0.21809253452218619 0.65480892822618109 0 0.69851598570178741 0.68211701800612057 0 0.82212678063041267 0.67678595194836966 0 0.76243180583607129 0.78687675331113149 0 0.69010814643829166 0.89298495739101336 0 0.76243180583607129 0.78687675331113149 0 0.80886664387416207 0.89717308644237903 0 0.43750000000181222 0.89174682452709564 0 0.31258827852827581 0.89214793616708443 0 0.37776173212361452 0.78514649317305008 0 0.43750000000181222 0.89174682452709564 0 0.37500000000156292 1 0 0.31258827852827581 0.89214793616708443 0 0.121259140952891 0.43112117036853742 0 0 0.37500000000156292 0 0.1082531754734323 0.31250000000117473 0 0.50000000000206146 1 0 0.37500000000156292 1 0 0.43750000000181222 0.89174682452709564 0 0.31258827852827581 0.89214793616708443 0 0.18802967116092181 0.89415349436770275 0 0.23533274979922561 0.77093399389351469 0 0 0.50000000000206146 0 0 0.37500000000156292 0 0.121259140952891 0.43112117036853742 0 0.62844955668446423 0.7850749770380413 0 0.69010814643829166 0.89298495739101336 0 0.56327595140699671 0.89211526915426331 0 0.69010814643829166 0.89298495739101336 0 0.62500000000121547 1 0 0.56327595140699671 0.89211526915426331 0 0.25000000000104189 1 0 0.18802967116092181 0.89415349436770275 0 0.31258827852827581 0.89214793616708443 0 0.50000000000206146 1 0 0.43750000000181222 0.89174682452709564 0 0.56327595140699671 0.89211526915426331 0 0.56249999999885147 0.1082531754730395 0 0.62499999999901068 0 0 0.68749999999926592 0.1082531754732875 0 1 0.49999999999869221 0 1 0.62499999999901068 0 0.88927506082488361 0.56409486310635837 0 0 0.25000000000104189 0 0.12076953676380731 0.18690935762408761 0 0.1082531754734323 0.31250000000117473 0 0.49999999999869221 0 0 0.62499999999901068 0 0 0.56249999999885147 0.1082531754730395 0 0.62500000000121547 1 0 0.50000000000206146 1 0 0.56327595140699671 0.89211526915426331 0 0.37500000000156292 1 0 0.25000000000104189 1 0 0.31258827852827581 0.89214793616708443 0 0.31281086598417152 0.10449318608631281 0 0.37499999999904599 0 0 0.43749999999910871 0.1082531754729984 0 0.43750000000181222 0.89174682452709564 0 0.37776173212361452 0.78514649317305008 0 0.50046028868828263 0.78376912307435687 0 0 0.37500000000156292 0 0 0.25000000000104189 0 0.1082531754734323 0.31250000000117473 0 0.49999999999869221 0 0 0.56249999999885147 0.1082531754730395 0 0.43749999999910871 0.1082531754729984 0 0.43750000000181222 0.89174682452709564 0 0.50046028868828263 0.78376912307435687 0 0.56327595140699671 0.89211526915426331 0 0.74999999999934042 0 0 0.81249999999950517 0.1082531754733404 0 0.68749999999926592 0.1082531754732875 0 0.37499999999904599 0 0 0.49999999999869221 0 0 0.43749999999910871 0.1082531754729984 0 0.25000000000104189 1 0 0.12500000000052089 1 0 0.18802967116092181 0.89415349436770275 0 0.50046028868828263 0.78376912307435687 0 0.62844955668446423 0.7850749770380413 0 0.56327595140699671 0.89211526915426331 0 0.37776173212361452 0.78514649317305008 0 0.31258827852827581 0.89214793616708443 0 0.23533274979922561 0.77093399389351469 0 0.62499999999901068 0 0 0.74999999999934042 0 0 0.68749999999926592 0.1082531754732875 0 1 0.74999999999934042 0 1 0.87499999999967015 0 0.89051480781310632 0.79665793440246835 0 0 0.25000000000104189 0 0 0.12500000000052089 0 0.12076953676380731 0.18690935762408761 0 0.74999999999934042 0 0 0.87499999999967015 0 0 0.81249999999950517 0.1082531754733404 0 0.24999999999941069 0 0 0.37499999999904599 0 0 0.31281086598417152 0.10449318608631281 0 0.50046028868828263 0.78376912307435687 0 0.37776173212361452 0.78514649317305008 0 0.44078402250377968 0.67714785211715212 0 0.68768773896438518 0.4586835206367198 0 0.75000000000032374 0.56698729811007709 0 0.62752533658682441 0.56838075195614346 0 0.31411863959822661 0.24965544328045999 0 0.37953773393552892 0.34812185820708452 0 0.24418615484441761 0.35773612382016978 0 0.68768773896438518 0.4586835206367198 0 0.81242894672211508 0.45500248311961472 0 0.75000000000032374 0.56698729811007709 0 1 0.24999999999941069 0 1 0.37499999999904599 0 0.88173731489851925 0.33077402607778361 0 0 0.75000000000034761 0 0 0.62500000000121547 0 0.1082531754723032 0.6875000000007816 0 0.50048844149666749 0.56727788297625459 0 0.44078402250377968 0.67714785211715212 0 0.38694285807596462 0.5672991787102919 0 0.50108503093851109 0.35012252869403671 0 0.44301038174930041 0.45684931552185398 0 0.37953773393552892 0.34812185820708452 0 0.50046028868828263 0.78376912307435687 0 0.56496004948275869 0.67675037307860475 0 0.62844955668446423 0.7850749770380413 0 0.68768773896438518 0.4586835206367198 0 0.75000000000057243 0.35048094716480432 0 0.81242894672211508 0.45500248311961472 0 0.56349980387502452 0.45846841892908402 0 0.62512662990940393 0.35044303886909911 0 0.68768773896438518 0.4586835206367198 0 0.50048844149666749 0.56727788297625459 0 0.38694285807596462 0.5672991787102919 0 0.44301038174930041 0.45684931552185398 0 0.50046028868828263 0.78376912307435687 0 0.44078402250377968 0.67714785211715212 0 0.56496004948275869 0.67675037307860475 0 0.50108503093851109 0.35012252869403671 0 0.37953773393552892 0.34812185820708452 0 0.43750000000200551 0.24222777169198509 0 0.75000000000034761 1 0 0.62500000000121547 1 0 0.69010814643829166 0.89298495739101336 0 0.68768773896438518 0.4586835206367198 0 0.62512662990940393 0.35044303886909911 0 0.75000000000057243 0.35048094716480432 0 0.56496004948275869 0.67675037307860475 0 0.44078402250377968 0.67714785211715212 0 0.50048844149666749 0.56727788297625459 0 0.56349980387502452 0.45846841892908402 0 0.44301038174930041 0.45684931552185398 0 0.50108503093851109 0.35012252869403671 0 0.50048844149666749 0.56727788297625459 0 0.44301038174930041 0.45684931552185398 0 0.56349980387502452 0.45846841892908402 0 0.56349980387502452 0.45846841892908402 0 0.50108503093851109 0.35012252869403671 0 0.62512662990940393 0.35044303886909911 0 0.43750000000200551 0.24222777169198509 0 0.37953773393552892 0.34812185820708452 0 0.31411863959822661 0.24965544328045999 0 0.56496004948275869 0.67675037307860475 0 0.50048844149666749 0.56727788297625459 0 0.62752533658682441 0.56838075195614346 0 0.56349980387502452 0.45846841892908402 0 0.68768773896438518 0.4586835206367198 0 0.62752533658682441 0.56838075195614346 0 0.50048844149666749 0.56727788297625459 0 0.56349980387502452 0.45846841892908402 0 0.62752533658682441 0.56838075195614346 0 0.75000000000057243 0.35048094716480432 0 0.62512662990940393 0.35044303886909911 0 0.68668231842078242 0.24762892664808989 0 0.50108503093851109 0.35012252869403671 0 0.43750000000200551 0.24222777169198509 0 0.56250000000143974 0.2422277716920859 0 0.62512662990940393 0.35044303886909911 0 0.50108503093851109 0.35012252869403671 0 0.56250000000143974 0.2422277716920859 0 0.68668231842078242 0.24762892664808989 0 0.62512662990940393 0.35044303886909911 0 0.56250000000143974 0.2422277716920859 0 0.22257735880419699 0.47344721641341742 0 0.24418615484441761 0.35773612382016978 0 0.32815957677880009 0.4577243358118348 0 0.12076953676380731 0.18690935762408761 0 0.19185372118111221 0.092925648673580788 0 0.25103557339309318 0.17464499738446629 0 0.20767261601459541 0.25628918442207171 0 0.12076953676380731 0.18690935762408761 0 0.25103557339309318 0.17464499738446629 0 0 0.87499999999950151 0 0 0.75000000000034761 0 0.10409951422139101 0.81206782209691231 0 0.1249999999997731 0 0 0.24999999999941069 0 0 0.19185372118111221 0.092925648673580788 0 1 0.1249999999997731 0 1 0.24999999999941069 0 0.89658421694297741 0.1933620068391701 0 0.88927506082488361 0.56409486310635837 0 0.81242894672211508 0.45500248311961472 0 0.915464298762109 0.43749999999886913 0 0.87499999999950151 1 0 0.75000000000034761 1 0 0.80886664387416207 0.89717308644237903 0 0.75000000000034761 1 0 0.69010814643829166 0.89298495739101336 0 0.80886664387416207 0.89717308644237903 0 0.82212678063041267 0.67678595194836966 0 0.88927506082488361 0.56409486310635837 0 0.92266244547590082 0.68749999999917555 0 0 0.75000000000034761 0 0.1082531754723032 0.6875000000007816 0 0.10409951422139101 0.81206782209691231 0 0.24999999999941069 0 0 0.31281086598417152 0.10449318608631281 0 0.19185372118111221 0.092925648673580788 0 1 0.24999999999941069 0 0.88173731489851925 0.33077402607778361 0 0.89658421694297741 0.1933620068391701 0 0.32815957677880009 0.4577243358118348 0 0.38694285807596462 0.5672991787102919 0 0.26982811998763367 0.56544650815856912 0 0.76243180583607129 0.78687675331113149 0 0.89051480781310632 0.79665793440246835 0 0.80886664387416207 0.89717308644237903 0 0.38694285807596462 0.5672991787102919 0 0.44078402250377968 0.67714785211715212 0 0.32607333794064219 0.67760114260606152 0 0.37776173212361452 0.78514649317305008 0 0.23533274979922561 0.77093399389351469 0 0.32607333794064219 0.67760114260606152 0 1 0.49999999999869221 0 0.88927506082488361 0.56409486310635837 0 0.915464298762109 0.43749999999886913 0 0.88173731489851925 0.33077402607778361 0 1 0.37499999999904599 0 0.915464298762109 0.43749999999886913 0 0.24418615484441761 0.35773612382016978 0 0.37953773393552892 0.34812185820708452 0 0.32815957677880009 0.4577243358118348 0 0.44301038174930041 0.45684931552185398 0 0.38694285807596462 0.5672991787102919 0 0.32815957677880009 0.4577243358118348 0 0.88927506082488361 0.56409486310635837 0 1 0.62499999999901068 0 0.92266244547590082 0.68749999999917555 0 1 0.74999999999934042 0 0.89051480781310632 0.79665793440246835 0 0.92266244547590082 0.68749999999917555 0 0 1 0 0 0.87499999999950151 0 0.091506350946494744 0.90849364905351082 0 1 1 0 0.87499999999950151 1 0 0.90849364905363228 0.90849364905367769 0 0 0 0 0.1249999999997731 0 0 0.091506350946417708 0.091506350946618076 0 0 0.12500000000052089 0 0 0 0 0.091506350946417708 0.091506350946618076 0 1 0 0 1 0.1249999999997731 0 0.90849364905355434 0.091506350946296292 0 0.87499999999967015 0 0 1 0 0 0.90849364905355434 0.091506350946296292 0 0.12500000000052089 1 0 0 1 0 0.091506350946494744 0.90849364905351082 0 1 0.87499999999967015 0 1 1 0 0.90849364905363228 0.90849364905367769 0 0.38694285807596462 0.5672991787102919 0 0.32607333794064219 0.67760114260606152 0 0.26982811998763367 0.56544650815856912 0 0.31411863959822661 0.24965544328045999 0 0.24418615484441761 0.35773612382016978 0 0.20767261601459541 0.25628918442207171 0 0.1082531754734323 0.31250000000117473 0 0.12076953676380731 0.18690935762408761 0 0.20767261601459541 0.25628918442207171 0 0.75000000000057243 0.35048094716480432 0 0.68668231842078242 0.24762892664808989 0 0.79891106056046712 0.25007334953587562 0 0.22257735880419699 0.47344721641341742 0 0.32815957677880009 0.4577243358118348 0 0.26982811998763367 0.56544650815856912 0 0.44078402250377968 0.67714785211715212 0 0.37776173212361452 0.78514649317305008 0 0.32607333794064219 0.67760114260606152 0 0.89658421694297741 0.1933620068391701 0 0.88173731489851925 0.33077402607778361 0 0.79891106056046712 0.25007334953587562 0 1 0.37499999999904599 0 1 0.49999999999869221 0 0.915464298762109 0.43749999999886913 0 0.37953773393552892 0.34812185820708452 0 0.44301038174930041 0.45684931552185398 0 0.32815957677880009 0.4577243358118348 0 0.32607333794064219 0.67760114260606152 0 0.21809253452218619 0.65480892822618109 0 0.26982811998763367 0.56544650815856912 0 1 0.1249999999997731 0 0.89658421694297741 0.1933620068391701 0 0.90849364905355434 0.091506350946296292 0 0 0.87499999999950151 0 0.10409951422139101 0.81206782209691231 0 0.091506350946494744 0.90849364905351082 0 0.1249999999997731 0 0 0.19185372118111221 0.092925648673580788 0 0.091506350946417708 0.091506350946618076 0 1 0.62499999999901068 0 1 0.74999999999934042 0 0.92266244547590082 0.68749999999917555 0 0.18802967116092181 0.89415349436770275 0 0.12500000000052089 1 0 0.091506350946494744 0.90849364905351082 0 0.89051480781310632 0.79665793440246835 0 1 0.87499999999967015 0 0.90849364905363228 0.90849364905367769 0 0.12076953676380731 0.18690935762408761 0 0 0.12500000000052089 0 0.091506350946417708 0.091506350946618076 0 0.81249999999950517 0.1082531754733404 0 0.87499999999967015 0 0 0.90849364905355434 0.091506350946296292 0 0.87499999999950151 1 0 0.80886664387416207 0.89717308644237903 0 0.90849364905363228 0.90849364905367769 0 0.68668231842078242 0.24762892664808989 0 0.62499999999892575 0.17524047358135519 0 0.73983916756365475 0.17530677078674589 0 0.31281086598417152 0.10449318608631281 0 0.43749999999910871 0.1082531754729984 0 0.37500000000232431 0.17524047358384309 0 0.62499999999892575 0.17524047358135519 0 0.56250000000143974 0.2422277716920859 0 0.49999999999934441 0.1752404735815076 0 0.56249999999885147 0.1082531754730395 0 0.68749999999926592 0.1082531754732875 0 0.62499999999892575 0.17524047358135519 0 0.56249999999885147 0.1082531754730395 0 0.62499999999892575 0.17524047358135519 0 0.49999999999934441 0.1752404735815076 0 0.56250000000143974 0.2422277716920859 0 0.43750000000200551 0.24222777169198509 0 0.49999999999934441 0.1752404735815076 0 0.43749999999910871 0.1082531754729984 0 0.56249999999885147 0.1082531754730395 0 0.49999999999934441 0.1752404735815076 0 0.68668231842078242 0.24762892664808989 0 0.56250000000143974 0.2422277716920859 0 0.62499999999892575 0.17524047358135519 0 0.43750000000200551 0.24222777169198509 0 0.31411863959822661 0.24965544328045999 0 0.37500000000232431 0.17524047358384309 0 0.49999999999934441 0.1752404735815076 0 0.43750000000200551 0.24222777169198509 0 0.37500000000232431 0.17524047358384309 0 0.43749999999910871 0.1082531754729984 0 0.49999999999934441 0.1752404735815076 0 0.37500000000232431 0.17524047358384309 0 0.62499999999892575 0.17524047358135519 0 0.68749999999926592 0.1082531754732875 0 0.73983916756365475 0.17530677078674589 0 0.68749999999926592 0.1082531754732875 0 0.81249999999950517 0.1082531754733404 0 0.73983916756365475 0.17530677078674589 0 0.10409951422139101 0.81206782209691231 0 0.18802967116092181 0.89415349436770275 0 0.091506350946494744 0.90849364905351082 0 0.89658421694297741 0.1933620068391701 0 0.81249999999950517 0.1082531754733404 0 0.90849364905355434 0.091506350946296292 0 0.19185372118111221 0.092925648673580788 0 0.12076953676380731 0.18690935762408761 0 0.091506350946417708 0.091506350946618076 0 0.37500000000232431 0.17524047358384309 0 0.31411863959822661 0.24965544328045999 0 0.25103557339309318 0.17464499738446629 0 0.31281086598417152 0.10449318608631281 0 0.37500000000232431 0.17524047358384309 0 0.25103557339309318 0.17464499738446629 0 0.80886664387416207 0.89717308644237903 0 0.89051480781310632 0.79665793440246835 0 0.90849364905363228 0.90849364905367769 0 0.19185372118111221 0.092925648673580788 0 0.31281086598417152 0.10449318608631281 0 0.25103557339309318 0.17464499738446629 0 0.79891106056046712 0.25007334953587562 0 0.68668231842078242 0.24762892664808989 0 0.73983916756365475 0.17530677078674589 0 0.31411863959822661 0.24965544328045999 0 0.20767261601459541 0.25628918442207171 0 0.25103557339309318 0.17464499738446629 0 

        </DataArray>

      </Points>

      <Cells>

        <DataArray type="Int32" Name="connectivity" format="ascii">

0 1 2 3 4 5 6 7 8 9 10 11 12 13 14 15 16 17 18 19 20 21 22 23 24 25 26 27 28 29 30 31 32 33 34 35 36 37 38 39 40 41 42 43 44 45 46 47 48 49 50 51 52 53 54 55 56 57 58 59 60 61 62 63 64 65 66 67 68 69 70 71 72 73 74 75 76 77 78 79 80 81 82 83 84 85 86 87 88 89 90 91 92 93 94 95 96 97 98 99 100 101 102 103 104 105 106 107 108 109 110 111 112 113 114 115 116 117 118 119 120 121 122 123 124 125 126 127 128 129 130 131 132 133 134 135 136 137 138 139 140 141 142 143 144 145 146 147 148 149 150 151 152 153 154 155 156 157 158 159 160 161 162 163 164 165 166 167 168 169 170 171 172 173 174 175 176 177 178 179 180 181 182 183 184 185 186 187 188 189 190 191 192 193 194 195 196 197 198 199 200 201 202 203 204 205 206 207 208 209 210 211 212 213 214 215 216 217 218 219 220 221 222 223 224 225 226 227 228 229 230 231 232 233 234 235 236 237 238 239 240 241 242 243 244 245 246 247 248 249 250 251 252 253 254 255 256 257 258 259 260 261 262 263 264 265 266 267 268 269 270 271 272 273 274 275 276 277 278 279 280 281 282 283 284 285 286 287 288 289 290 291 292 293 294 295 296 297 298 299 300 301 302 303 304 305 306 307 308 309 310 311 312 313 314 315 316 317 318 319 320 321 322 323 324 325 326 327 328 329 330 331 332 333 334 335 336 337 338 339 340 341 342 343 344 345 346 347 348 349 350 351 352 353 354 355 356 357 358 359 360 361 362 363 364 365 366 367 368 369 370 371 372 373 374 375 376 377 378 379 380 381 382 383 384 385 386 387 388 389 390 391 392 393 394 395 396 397 398 399 400 401 402 403 404 405 406 407 408 409 410 411 412 413 414 415 416 417 418 419 420 421 422 423 424 425 426 427 428 429 430 431 432 433 434 435 436 437 438 439 440 441 442 443 444 445 446 447 448 449 450 451 452 453 454 455 456 457 458 459 460 461 462 463 464 465 466 467 468 469 470 471 472 473 474 475 476 477 478 479 480 481 482 483 484 485 

        </DataArray>

        <DataArray type="Int32" Name="offsets" format="ascii">

3 6 9 12 15 18 21 24 27 30 33 36 39 42 45 48 51 54 57 60 63 66 69 72 75 78 81 84 87 90 93 96 99 102 105 108 111 114 117 120 123 126 129 132 135 138 141 144 147 150 153 156 159 162 165 168 171 174 177 180 183 186 189 192 195 198 201 204 207 210 213 216 219 222 225 228 231 234 237 240 243 246 249 252 255 258 261 264 267 270 273 276 279 282 285 288 291 294 297 300 303 306 309 312 315 318 321 324 327 330 333 336 339 342 345 348 351 354 357 360 363 366 369 372 375 378 381 384 387 390 393 396 399 402 405 408 411 414 417 420 423 426 429 432 435 438 441 444 447 450 453 456 459 462 465 468 471 474 477 480 483 486 

        </DataArray>

        <DataArray type="Int32" Name="types" format="ascii">

5 5 5 5 5 5 5 5 5 5 5 5 5 5 5 5 5 5 5 5 5 5 5 5 5 5 5 5 5 5 5 5 5 5 5 5 5 5 5 5 5 5 5 5 5 5 5 5 5 5 5 5 5 5 5 5 5 5 5 5 5 5 5 5 5 5 5 5 5 5 5 5 5 5 5 5 5 5 5 5 5 5 5 5 5 5 5 5 5 5 5 5 5 5 5 5 5 5 5 5 5 5 5 5 5 5 5 5 5 5 5 5 5 5 5 5 5 5 5 5 5 5 5 5 5 5 5 5 5 5 5 5 5 5 5 5 5 5 5 5 5 5 5 5 5 5 5 5 5 5 5 5 5 5 5 5 5 5 5 5 5 5 

        </DataArray>

      </Cells>

    </Piece>

  </UnstructuredGrid>

</VTKFile>

