<?xml version="1.0"?>

<VTKFile type="UnstructuredGrid" version="0.1">

  <UnstructuredGrid>

    <Piece NumberOfPoints="486" NumberOfCells="162">

      <PointData>

        <DataArray type="Float64" Name="K" format="ascii">

9.40137613367284519e-01
9.40137613367284519e-01
9.40137613367284519e-01
9.71890524669886791e-01
9.71890524669886791e-01
9.71890524669886791e-01
1.10730913883883408e+00
1.10730913883883408e+00
1.10730913883883408e+00
9.58063326261197057e-01
9.58063326261197057e-01
9.58063326261197057e-01
1.12789791619932411e+00
1.12789791619932411e+00
1.12789791619932411e+00
9.76243326179632720e-01
9.76243326179632720e-01
9.76243326179632720e-01
1.09576742751132494e+00
1.09576742751132494e+00
1.09576742751132494e+00
9.96740816781410244e-01
9.96740816781410244e-01
9.96740816781410244e-01
1.02320402845963221e+00
1.02320402845963221e+00
1.02320402845963221e+00
9.95073218925466851e-01
9.95073218925466851e-01
9.95073218925466851e-01
1.11335627403965631e+00
1.11335627403965631e+00
1.11335627403965631e+00
1.05443207689157825e+00
1.05443207689157825e+00
1.05443207689157825e+00
9.48735640287427517e-01
9.48735640287427517e-01
9.48735640287427517e-01
9.31508606611121670e-01
9.31508606611121670e-01
9.31508606611121670e-01
9.04596838276398807e-01
9.04596838276398807e-01
9.04596838276398807e-01
9.85265150842871806e-01
9.85265150842871806e-01
9.85265150842871806e-01
9.32148114539907424e-01
9.32148114539907424e-01
9.32148114539907424e-01
1.11982903404229495e+00
1.11982903404229495e+00
1.11982903404229495e+00
8.96159622121163957e-01
8.96159622121163957e-01
8.96159622121163957e-01
9.44695607436094820e-01
9.44695607436094820e-01
9.44695607436094820e-01
1.08381109746910687e+00
1.08381109746910687e+00
1.08381109746910687e+00
1.04275946464865599e+00
1.04275946464865599e+00
1.04275946464865599e+00
1.08943029812190595e+00
1.08943029812190595e+00
1.08943029812190595e+00
9.94658339900027832e-01
9.94658339900027832e-01
9.94658339900027832e-01
9.34531210081810060e-01
9.34531210081810060e-01
9.34531210081810060e-01
1.06161908540769190e+00
1.06161908540769190e+00
1.06161908540769190e+00
1.07024910922285565e+00
1.07024910922285565e+00
1.07024910922285565e+00
9.80089467867414021e-01
9.80089467867414021e-01
9.80089467867414021e-01
1.02752128346369132e+00
1.02752128346369132e+00
1.02752128346369132e+00
9.75285505733787472e-01
9.75285505733787472e-01
9.75285505733787472e-01
1.02327165102032325e+00
1.02327165102032325e+00
1.02327165102032325e+00
1.01989951982030136e+00
1.01989951982030136e+00
1.01989951982030136e+00
1.03888195948479112e+00
1.03888195948479112e+00
1.03888195948479112e+00
1.07171895443172649e+00
1.07171895443172649e+00
1.07171895443172649e+00
1.04174607435122524e+00
1.04174607435122524e+00
1.04174607435122524e+00
9.82755284353786784e-01
9.82755284353786784e-01
9.82755284353786784e-01
1.09274582353705796e+00
1.09274582353705796e+00
1.09274582353705796e+00
1.03196805538784009e+00
1.03196805538784009e+00
1.03196805538784009e+00
1.04713295088688474e+00
1.04713295088688474e+00
1.04713295088688474e+00
1.00617201538763834e+00
1.00617201538763834e+00
1.00617201538763834e+00
1.03372623716035061e+00
1.03372623716035061e+00
1.03372623716035061e+00
1.06806971721249955e+00
1.06806971721249955e+00
1.06806971721249955e+00
9.89274184040119797e-01
9.89274184040119797e-01
9.89274184040119797e-01
9.86883073465316785e-01
9.86883073465316785e-01
9.86883073465316785e-01
1.07905236946812311e+00
1.07905236946812311e+00
1.07905236946812311e+00
1.04529832524883526e+00
1.04529832524883526e+00
1.04529832524883526e+00
1.03894602532315461e+00
1.03894602532315461e+00
1.03894602532315461e+00
1.06793994417429494e+00
1.06793994417429494e+00
1.06793994417429494e+00
9.95284920290283259e-01
9.95284920290283259e-01
9.95284920290283259e-01
1.01694568562299636e+00
1.01694568562299636e+00
1.01694568562299636e+00
1.09576014030074176e+00
1.09576014030074176e+00
1.09576014030074176e+00
1.00545073676069574e+00
1.00545073676069574e+00
1.00545073676069574e+00
1.07929148361812755e+00
1.07929148361812755e+00
1.07929148361812755e+00
1.08515012903387076e+00
1.08515012903387076e+00
1.08515012903387076e+00
9.72807219430922743e-01
9.72807219430922743e-01
9.72807219430922743e-01
9.97004578846356182e-01
9.97004578846356182e-01
9.97004578846356182e-01
1.00371717756232948e+00
1.00371717756232948e+00
1.00371717756232948e+00
1.05921920469364994e+00
1.05921920469364994e+00
1.05921920469364994e+00
1.03161026144739032e+00
1.03161026144739032e+00
1.03161026144739032e+00
9.41331227587917319e-01
9.41331227587917319e-01
9.41331227587917319e-01
1.08150250715063945e+00
1.08150250715063945e+00
1.08150250715063945e+00
1.02822505816192833e+00
1.02822505816192833e+00
1.02822505816192833e+00
9.68003664116001139e-01
9.68003664116001139e-01
9.68003664116001139e-01
8.83521356078429410e-01
8.83521356078429410e-01
8.83521356078429410e-01
1.09854096865588025e+00
1.09854096865588025e+00
1.09854096865588025e+00
8.95679388066300985e-01
8.95679388066300985e-01
8.95679388066300985e-01
1.02347929764446288e+00
1.02347929764446288e+00
1.02347929764446288e+00
1.01578501646585617e+00
1.01578501646585617e+00
1.01578501646585617e+00
9.42180996231243073e-01
9.42180996231243073e-01
9.42180996231243073e-01
1.01177945398713010e+00
1.01177945398713010e+00
1.01177945398713010e+00
9.53780438559734156e-01
9.53780438559734156e-01
9.53780438559734156e-01
9.19386282598645521e-01
9.19386282598645521e-01
9.19386282598645521e-01
9.45741213767318234e-01
9.45741213767318234e-01
9.45741213767318234e-01
9.52541321753782366e-01
9.52541321753782366e-01
9.52541321753782366e-01
9.39491867911940282e-01
9.39491867911940282e-01
9.39491867911940282e-01
1.04712048038360783e+00
1.04712048038360783e+00
1.04712048038360783e+00
1.02902052647477538e+00
1.02902052647477538e+00
1.02902052647477538e+00
9.48415265056671841e-01
9.48415265056671841e-01
9.48415265056671841e-01
9.23384780069043676e-01
9.23384780069043676e-01
9.23384780069043676e-01
9.79077523181544618e-01
9.79077523181544618e-01
9.79077523181544618e-01
9.46826679436395202e-01
9.46826679436395202e-01
9.46826679436395202e-01
9.86936430317103319e-01
9.86936430317103319e-01
9.86936430317103319e-01
1.08065520445382335e+00
1.08065520445382335e+00
1.08065520445382335e+00
9.04518031444244697e-01
9.04518031444244697e-01
9.04518031444244697e-01
9.06284405470780485e-01
9.06284405470780485e-01
9.06284405470780485e-01
9.15361888297082982e-01
9.15361888297082982e-01
9.15361888297082982e-01
9.99908088217789648e-01
9.99908088217789648e-01
9.99908088217789648e-01
1.05062406431639221e+00
1.05062406431639221e+00
1.05062406431639221e+00
1.02658796657861728e+00
1.02658796657861728e+00
1.02658796657861728e+00
1.03481837622433703e+00
1.03481837622433703e+00
1.03481837622433703e+00
1.10315113444721802e+00
1.10315113444721802e+00
1.10315113444721802e+00
9.99538607663372436e-01
9.99538607663372436e-01
9.99538607663372436e-01
1.02877249172301322e+00
1.02877249172301322e+00
1.02877249172301322e+00
9.21711194768699116e-01
9.21711194768699116e-01
9.21711194768699116e-01
9.94081826859562701e-01
9.94081826859562701e-01
9.94081826859562701e-01
1.02535584311739436e+00
1.02535584311739436e+00
1.02535584311739436e+00
9.67111082715918613e-01
9.67111082715918613e-01
9.67111082715918613e-01
1.00303938588579711e+00
1.00303938588579711e+00
1.00303938588579711e+00
1.01914123256148126e+00
1.01914123256148126e+00
1.01914123256148126e+00
9.81031052424460537e-01
9.81031052424460537e-01
9.81031052424460537e-01
9.53052649846105826e-01
9.53052649846105826e-01
9.53052649846105826e-01
1.00857810597831876e+00
1.00857810597831876e+00
1.00857810597831876e+00
1.02729132056106764e+00
1.02729132056106764e+00
1.02729132056106764e+00
1.01152675706234185e+00
1.01152675706234185e+00
1.01152675706234185e+00
1.00991532279754792e+00
1.00991532279754792e+00
1.00991532279754792e+00
9.63525006057515565e-01
9.63525006057515565e-01
9.63525006057515565e-01
9.87531582245714357e-01
9.87531582245714357e-01
9.87531582245714357e-01
9.93280354824727429e-01
9.93280354824727429e-01
9.93280354824727429e-01
1.00967376761290217e+00
1.00967376761290217e+00
1.00967376761290217e+00
1.08222192397522976e+00
1.08222192397522976e+00
1.08222192397522976e+00
9.89034779425538080e-01
9.89034779425538080e-01
9.89034779425538080e-01
9.88877402688609797e-01
9.88877402688609797e-01
9.88877402688609797e-01
1.00807727430649696e+00
1.00807727430649696e+00
1.00807727430649696e+00
8.92766041363886154e-01
8.92766041363886154e-01
8.92766041363886154e-01
1.04642628195958332e+00
1.04642628195958332e+00
1.04642628195958332e+00
9.52415559338423146e-01
9.52415559338423146e-01
9.52415559338423146e-01
9.21516750941709484e-01
9.21516750941709484e-01
9.21516750941709484e-01
1.01570878971749523e+00
1.01570878971749523e+00
1.01570878971749523e+00
1.04072164215669472e+00
1.04072164215669472e+00
1.04072164215669472e+00
9.08942156915006683e-01
9.08942156915006683e-01
9.08942156915006683e-01
1.06402232535144892e+00
1.06402232535144892e+00
1.06402232535144892e+00
9.87619976588169024e-01
9.87619976588169024e-01
9.87619976588169024e-01
1.10097506764548636e+00
1.10097506764548636e+00
1.10097506764548636e+00
1.02724768497040087e+00
1.02724768497040087e+00
1.02724768497040087e+00
1.01383808947081278e+00
1.01383808947081278e+00
1.01383808947081278e+00
1.06634670797923548e+00
1.06634670797923548e+00
1.06634670797923548e+00
9.74855994612137677e-01
9.74855994612137677e-01
9.74855994612137677e-01
1.02673408537807997e+00
1.02673408537807997e+00
1.02673408537807997e+00
1.00787778178818477e+00
1.00787778178818477e+00
1.00787778178818477e+00
1.02219174138296998e+00
1.02219174138296998e+00
1.02219174138296998e+00
9.98954029693246204e-01
9.98954029693246204e-01
9.98954029693246204e-01
1.03660773638327575e+00
1.03660773638327575e+00
1.03660773638327575e+00
8.95393687303095986e-01
8.95393687303095986e-01
8.95393687303095986e-01
9.70943867012080131e-01
9.70943867012080131e-01
9.70943867012080131e-01
9.97217758443361135e-01
9.97217758443361135e-01
9.97217758443361135e-01
9.25135464750738601e-01
9.25135464750738601e-01
9.25135464750738601e-01
1.03625874235215432e+00
1.03625874235215432e+00
1.03625874235215432e+00
9.38145996457340203e-01
9.38145996457340203e-01
9.38145996457340203e-01
1.07502331727402423e+00
1.07502331727402423e+00
1.07502331727402423e+00
1.01689806710487241e+00
1.01689806710487241e+00
1.01689806710487241e+00
1.06245407375187684e+00
1.06245407375187684e+00
1.06245407375187684e+00
1.08137931955531119e+00
1.08137931955531119e+00
1.08137931955531119e+00
1.07107517599059232e+00
1.07107517599059232e+00
1.07107517599059232e+00
1.07202591757598498e+00
1.07202591757598498e+00
1.07202591757598498e+00
1.07947529261053954e+00
1.07947529261053954e+00
1.07947529261053954e+00
1.07346213859597306e+00
1.07346213859597306e+00
1.07346213859597306e+00
1.09388376819000244e+00
1.09388376819000244e+00
1.09388376819000244e+00
1.05840167987638756e+00
1.05840167987638756e+00
1.05840167987638756e+00
1.08909084381791721e+00
1.08909084381791721e+00
1.08909084381791721e+00
1.08817473764696526e+00
1.08817473764696526e+00
1.08817473764696526e+00
1.09463338445239988e+00
1.09463338445239988e+00
1.09463338445239988e+00
1.07162727971877159e+00
1.07162727971877159e+00
1.07162727971877159e+00
1.08058459044040989e+00
1.08058459044040989e+00
1.08058459044040989e+00
9.07916912446085522e-01
9.07916912446085522e-01
9.07916912446085522e-01
1.06621786312918454e+00
1.06621786312918454e+00
1.06621786312918454e+00
9.66176133758875122e-01
9.66176133758875122e-01
9.66176133758875122e-01
1.08020109710343748e+00
1.08020109710343748e+00
1.08020109710343748e+00
1.06314081586038833e+00
1.06314081586038833e+00
1.06314081586038833e+00
1.01646724663893440e+00
1.01646724663893440e+00
1.01646724663893440e+00
1.02276747665574241e+00
1.02276747665574241e+00
1.02276747665574241e+00
1.05064452852157353e+00
1.05064452852157353e+00
1.05064452852157353e+00
1.07403515747710454e+00
1.07403515747710454e+00
1.07403515747710454e+00


        </DataArray>

      </PointData>

      <CellData/>

      <Points>

        <DataArray type="Float64" NumberOfComponents="3" format="ascii">

0.1082531754723032 0.6875000000007816 0 0.23533274979922561 0.77093399389351469 0 0.10409951422139101 0.81206782209691231 0 0.23533274979922561 0.77093399389351469 0 0.1082531754723032 0.6875000000007816 0 0.21809253452218619 0.65480892822618109 0 0.24418615484441761 0.35773612382016978 0 0.121259140952891 0.43112117036853742 0 0.1082531754734323 0.31250000000117473 0 0.75000000000057243 0.35048094716480432 0 0.88173731489851925 0.33077402607778361 0 0.81242894672211508 0.45500248311961472 0 0.121259140952891 0.43112117036853742 0 0.24418615484441761 0.35773612382016978 0 0.22257735880419699 0.47344721641341742 0 0.81242894672211508 0.45500248311961472 0 0.88173731489851925 0.33077402607778361 0 0.915464298762109 0.43749999999886913 0 0 0.62500000000121547 0 0 0.50000000000206146 0 0.1371230538040123 0.56179824718362847 0 0.82212678063041267 0.67678595194836966 0 0.89051480781310632 0.79665793440246835 0 0.76243180583607129 0.78687675331113149 0 0.76243180583607129 0.78687675331113149 0 0.69010814643829166 0.89298495739101336 0 0.62844955668446423 0.7850749770380413 0 0.89051480781310632 0.79665793440246835 0 0.82212678063041267 0.67678595194836966 0 0.92266244547590082 0.68749999999917555 0 0 0.50000000000206146 0 0.121259140952891 0.43112117036853742 0 0.1371230538040123 0.56179824718362847 0 0.1082531754723032 0.6875000000007816 0 0 0.62500000000121547 0 0.1371230538040123 0.56179824718362847 0 0.75000000000032374 0.56698729811007709 0 0.88927506082488361 0.56409486310635837 0 0.82212678063041267 0.67678595194836966 0 0.81242894672211508 0.45500248311961472 0 0.88927506082488361 0.56409486310635837 0 0.75000000000032374 0.56698729811007709 0 0.69851598570178741 0.68211701800612057 0 0.56496004948275869 0.67675037307860475 0 0.62752533658682441 0.56838075195614346 0 0.69851598570178741 0.68211701800612057 0 0.76243180583607129 0.78687675331113149 0 0.62844955668446423 0.7850749770380413 0 0.23533274979922561 0.77093399389351469 0 0.18802967116092181 0.89415349436770275 0 0.10409951422139101 0.81206782209691231 0 0.121259140952891 0.43112117036853742 0 0.22257735880419699 0.47344721641341742 0 0.1371230538040123 0.56179824718362847 0 0.75000000000032374 0.56698729811007709 0 0.69851598570178741 0.68211701800612057 0 0.62752533658682441 0.56838075195614346 0 0.56496004948275869 0.67675037307860475 0 0.69851598570178741 0.68211701800612057 0 0.62844955668446423 0.7850749770380413 0 0.1371230538040123 0.56179824718362847 0 0.22257735880419699 0.47344721641341742 0 0.26982811998763367 0.56544650815856912 0 0.21809253452218619 0.65480892822618109 0 0.1371230538040123 0.56179824718362847 0 0.26982811998763367 0.56544650815856912 0 0.24418615484441761 0.35773612382016978 0 0.1082531754734323 0.31250000000117473 0 0.20767261601459541 0.25628918442207171 0 0.88173731489851925 0.33077402607778361 0 0.75000000000057243 0.35048094716480432 0 0.79891106056046712 0.25007334953587562 0 0.75000000000032374 0.56698729811007709 0 0.82212678063041267 0.67678595194836966 0 0.69851598570178741 0.68211701800612057 0 0.81249999999950517 0.1082531754733404 0 0.89658421694297741 0.1933620068391701 0 0.79891106056046712 0.25007334953587562 0 0.81249999999950517 0.1082531754733404 0 0.79891106056046712 0.25007334953587562 0 0.73983916756365475 0.17530677078674589 0 0.23533274979922561 0.77093399389351469 0 0.21809253452218619 0.65480892822618109 0 0.32607333794064219 0.67760114260606152 0 0.1082531754723032 0.6875000000007816 0 0.1371230538040123 0.56179824718362847 0 0.21809253452218619 0.65480892822618109 0 0.69851598570178741 0.68211701800612057 0 0.82212678063041267 0.67678595194836966 0 0.76243180583607129 0.78687675331113149 0 0.69010814643829166 0.89298495739101336 0 0.76243180583607129 0.78687675331113149 0 0.80886664387416207 0.89717308644237903 0 0.43750000000181222 0.89174682452709564 0 0.31258827852827581 0.89214793616708443 0 0.37776173212361452 0.78514649317305008 0 0.43750000000181222 0.89174682452709564 0 0.37500000000156292 1 0 0.31258827852827581 0.89214793616708443 0 0.121259140952891 0.43112117036853742 0 0 0.37500000000156292 0 0.1082531754734323 0.31250000000117473 0 0.50000000000206146 1 0 0.37500000000156292 1 0 0.43750000000181222 0.89174682452709564 0 0.31258827852827581 0.89214793616708443 0 0.18802967116092181 0.89415349436770275 0 0.23533274979922561 0.77093399389351469 0 0 0.50000000000206146 0 0 0.37500000000156292 0 0.121259140952891 0.43112117036853742 0 0.62844955668446423 0.7850749770380413 0 0.69010814643829166 0.89298495739101336 0 0.56327595140699671 0.89211526915426331 0 0.69010814643829166 0.89298495739101336 0 0.62500000000121547 1 0 0.56327595140699671 0.89211526915426331 0 0.25000000000104189 1 0 0.18802967116092181 0.89415349436770275 0 0.31258827852827581 0.89214793616708443 0 0.50000000000206146 1 0 0.43750000000181222 0.89174682452709564 0 0.56327595140699671 0.89211526915426331 0 0.56249999999885147 0.1082531754730395 0 0.62499999999901068 0 0 0.68749999999926592 0.1082531754732875 0 1 0.49999999999869221 0 1 0.62499999999901068 0 0.88927506082488361 0.56409486310635837 0 0 0.25000000000104189 0 0.12076953676380731 0.18690935762408761 0 0.1082531754734323 0.31250000000117473 0 0.49999999999869221 0 0 0.62499999999901068 0 0 0.56249999999885147 0.1082531754730395 0 0.62500000000121547 1 0 0.50000000000206146 1 0 0.56327595140699671 0.89211526915426331 0 0.37500000000156292 1 0 0.25000000000104189 1 0 0.31258827852827581 0.89214793616708443 0 0.31281086598417152 0.10449318608631281 0 0.37499999999904599 0 0 0.43749999999910871 0.1082531754729984 0 0.43750000000181222 0.89174682452709564 0 0.37776173212361452 0.78514649317305008 0 0.50046028868828263 0.78376912307435687 0 0 0.37500000000156292 0 0 0.25000000000104189 0 0.1082531754734323 0.31250000000117473 0 0.49999999999869221 0 0 0.56249999999885147 0.1082531754730395 0 0.43749999999910871 0.1082531754729984 0 0.43750000000181222 0.89174682452709564 0 0.50046028868828263 0.78376912307435687 0 0.56327595140699671 0.89211526915426331 0 0.74999999999934042 0 0 0.81249999999950517 0.1082531754733404 0 0.68749999999926592 0.1082531754732875 0 0.37499999999904599 0 0 0.49999999999869221 0 0 0.43749999999910871 0.1082531754729984 0 0.25000000000104189 1 0 0.12500000000052089 1 0 0.18802967116092181 0.89415349436770275 0 0.50046028868828263 0.78376912307435687 0 0.62844955668446423 0.7850749770380413 0 0.56327595140699671 0.89211526915426331 0 0.37776173212361452 0.78514649317305008 0 0.31258827852827581 0.89214793616708443 0 0.23533274979922561 0.77093399389351469 0 0.62499999999901068 0 0 0.74999999999934042 0 0 0.68749999999926592 0.1082531754732875 0 1 0.74999999999934042 0 1 0.87499999999967015 0 0.89051480781310632 0.79665793440246835 0 0 0.25000000000104189 0 0 0.12500000000052089 0 0.12076953676380731 0.18690935762408761 0 0.74999999999934042 0 0 0.87499999999967015 0 0 0.81249999999950517 0.1082531754733404 0 0.24999999999941069 0 0 0.37499999999904599 0 0 0.31281086598417152 0.10449318608631281 0 0.50046028868828263 0.78376912307435687 0 0.37776173212361452 0.78514649317305008 0 0.44078402250377968 0.67714785211715212 0 0.68768773896438518 0.4586835206367198 0 0.75000000000032374 0.56698729811007709 0 0.62752533658682441 0.56838075195614346 0 0.31411863959822661 0.24965544328045999 0 0.37953773393552892 0.34812185820708452 0 0.24418615484441761 0.35773612382016978 0 0.68768773896438518 0.4586835206367198 0 0.81242894672211508 0.45500248311961472 0 0.75000000000032374 0.56698729811007709 0 1 0.24999999999941069 0 1 0.37499999999904599 0 0.88173731489851925 0.33077402607778361 0 0 0.75000000000034761 0 0 0.62500000000121547 0 0.1082531754723032 0.6875000000007816 0 0.50048844149666749 0.56727788297625459 0 0.44078402250377968 0.67714785211715212 0 0.38694285807596462 0.5672991787102919 0 0.50108503093851109 0.35012252869403671 0 0.44301038174930041 0.45684931552185398 0 0.37953773393552892 0.34812185820708452 0 0.50046028868828263 0.78376912307435687 0 0.56496004948275869 0.67675037307860475 0 0.62844955668446423 0.7850749770380413 0 0.68768773896438518 0.4586835206367198 0 0.75000000000057243 0.35048094716480432 0 0.81242894672211508 0.45500248311961472 0 0.56349980387502452 0.45846841892908402 0 0.62512662990940393 0.35044303886909911 0 0.68768773896438518 0.4586835206367198 0 0.50048844149666749 0.56727788297625459 0 0.38694285807596462 0.5672991787102919 0 0.44301038174930041 0.45684931552185398 0 0.50046028868828263 0.78376912307435687 0 0.44078402250377968 0.67714785211715212 0 0.56496004948275869 0.67675037307860475 0 0.50108503093851109 0.35012252869403671 0 0.37953773393552892 0.34812185820708452 0 0.43750000000200551 0.24222777169198509 0 0.75000000000034761 1 0 0.62500000000121547 1 0 0.69010814643829166 0.89298495739101336 0 0.68768773896438518 0.4586835206367198 0 0.62512662990940393 0.35044303886909911 0 0.75000000000057243 0.35048094716480432 0 0.56496004948275869 0.67675037307860475 0 0.44078402250377968 0.67714785211715212 0 0.50048844149666749 0.56727788297625459 0 0.56349980387502452 0.45846841892908402 0 0.44301038174930041 0.45684931552185398 0 0.50108503093851109 0.35012252869403671 0 0.50048844149666749 0.56727788297625459 0 0.44301038174930041 0.45684931552185398 0 0.56349980387502452 0.45846841892908402 0 0.56349980387502452 0.45846841892908402 0 0.50108503093851109 0.35012252869403671 0 0.62512662990940393 0.35044303886909911 0 0.43750000000200551 0.24222777169198509 0 0.37953773393552892 0.34812185820708452 0 0.31411863959822661 0.24965544328045999 0 0.56496004948275869 0.67675037307860475 0 0.50048844149666749 0.56727788297625459 0 0.62752533658682441 0.56838075195614346 0 0.56349980387502452 0.45846841892908402 0 0.68768773896438518 0.4586835206367198 0 0.62752533658682441 0.56838075195614346 0 0.50048844149666749 0.56727788297625459 0 0.56349980387502452 0.45846841892908402 0 0.62752533658682441 0.56838075195614346 0 0.75000000000057243 0.35048094716480432 0 0.62512662990940393 0.35044303886909911 0 0.68668231842078242 0.24762892664808989 0 0.50108503093851109 0.35012252869403671 0 0.43750000000200551 0.24222777169198509 0 0.56250000000143974 0.2422277716920859 0 0.62512662990940393 0.35044303886909911 0 0.50108503093851109 0.35012252869403671 0 0.56250000000143974 0.2422277716920859 0 0.68668231842078242 0.24762892664808989 0 0.62512662990940393 0.35044303886909911 0 0.56250000000143974 0.2422277716920859 0 0.22257735880419699 0.47344721641341742 0 0.24418615484441761 0.35773612382016978 0 0.32815957677880009 0.4577243358118348 0 0.12076953676380731 0.18690935762408761 0 0.19185372118111221 0.092925648673580788 0 0.25103557339309318 0.17464499738446629 0 0.20767261601459541 0.25628918442207171 0 0.12076953676380731 0.18690935762408761 0 0.25103557339309318 0.17464499738446629 0 0 0.87499999999950151 0 0 0.75000000000034761 0 0.10409951422139101 0.81206782209691231 0 0.1249999999997731 0 0 0.24999999999941069 0 0 0.19185372118111221 0.092925648673580788 0 1 0.1249999999997731 0 1 0.24999999999941069 0 0.89658421694297741 0.1933620068391701 0 0.88927506082488361 0.56409486310635837 0 0.81242894672211508 0.45500248311961472 0 0.915464298762109 0.43749999999886913 0 0.87499999999950151 1 0 0.75000000000034761 1 0 0.80886664387416207 0.89717308644237903 0 0.75000000000034761 1 0 0.69010814643829166 0.89298495739101336 0 0.80886664387416207 0.89717308644237903 0 0.82212678063041267 0.67678595194836966 0 0.88927506082488361 0.56409486310635837 0 0.92266244547590082 0.68749999999917555 0 0 0.75000000000034761 0 0.1082531754723032 0.6875000000007816 0 0.10409951422139101 0.81206782209691231 0 0.24999999999941069 0 0 0.31281086598417152 0.10449318608631281 0 0.19185372118111221 0.092925648673580788 0 1 0.24999999999941069 0 0.88173731489851925 0.33077402607778361 0 0.89658421694297741 0.1933620068391701 0 0.32815957677880009 0.4577243358118348 0 0.38694285807596462 0.5672991787102919 0 0.26982811998763367 0.56544650815856912 0 0.76243180583607129 0.78687675331113149 0 0.89051480781310632 0.79665793440246835 0 0.80886664387416207 0.89717308644237903 0 0.38694285807596462 0.5672991787102919 0 0.44078402250377968 0.67714785211715212 0 0.32607333794064219 0.67760114260606152 0 0.37776173212361452 0.78514649317305008 0 0.23533274979922561 0.77093399389351469 0 0.32607333794064219 0.67760114260606152 0 1 0.49999999999869221 0 0.88927506082488361 0.56409486310635837 0 0.915464298762109 0.43749999999886913 0 0.88173731489851925 0.33077402607778361 0 1 0.37499999999904599 0 0.915464298762109 0.43749999999886913 0 0.24418615484441761 0.35773612382016978 0 0.37953773393552892 0.34812185820708452 0 0.32815957677880009 0.4577243358118348 0 0.44301038174930041 0.45684931552185398 0 0.38694285807596462 0.5672991787102919 0 0.32815957677880009 0.4577243358118348 0 0.88927506082488361 0.56409486310635837 0 1 0.62499999999901068 0 0.92266244547590082 0.68749999999917555 0 1 0.74999999999934042 0 0.89051480781310632 0.79665793440246835 0 0.92266244547590082 0.68749999999917555 0 0 1 0 0 0.87499999999950151 0 0.091506350946494744 0.90849364905351082 0 1 1 0 0.87499999999950151 1 0 0.90849364905363228 0.90849364905367769 0 0 0 0 0.1249999999997731 0 0 0.091506350946417708 0.091506350946618076 0 0 0.12500000000052089 0 0 0 0 0.091506350946417708 0.091506350946618076 0 1 0 0 1 0.1249999999997731 0 0.90849364905355434 0.091506350946296292 0 0.87499999999967015 0 0 1 0 0 0.90849364905355434 0.091506350946296292 0 0.12500000000052089 1 0 0 1 0 0.091506350946494744 0.90849364905351082 0 1 0.87499999999967015 0 1 1 0 0.90849364905363228 0.90849364905367769 0 0.38694285807596462 0.5672991787102919 0 0.32607333794064219 0.67760114260606152 0 0.26982811998763367 0.56544650815856912 0 0.31411863959822661 0.24965544328045999 0 0.24418615484441761 0.35773612382016978 0 0.20767261601459541 0.25628918442207171 0 0.1082531754734323 0.31250000000117473 0 0.12076953676380731 0.18690935762408761 0 0.20767261601459541 0.25628918442207171 0 0.75000000000057243 0.35048094716480432 0 0.68668231842078242 0.24762892664808989 0 0.79891106056046712 0.25007334953587562 0 0.22257735880419699 0.47344721641341742 0 0.32815957677880009 0.4577243358118348 0 0.26982811998763367 0.56544650815856912 0 0.44078402250377968 0.67714785211715212 0 0.37776173212361452 0.78514649317305008 0 0.32607333794064219 0.67760114260606152 0 0.89658421694297741 0.1933620068391701 0 0.88173731489851925 0.33077402607778361 0 0.79891106056046712 0.25007334953587562 0 1 0.37499999999904599 0 1 0.49999999999869221 0 0.915464298762109 0.43749999999886913 0 0.37953773393552892 0.34812185820708452 0 0.44301038174930041 0.45684931552185398 0 0.32815957677880009 0.4577243358118348 0 0.32607333794064219 0.67760114260606152 0 0.21809253452218619 0.65480892822618109 0 0.26982811998763367 0.56544650815856912 0 1 0.1249999999997731 0 0.89658421694297741 0.1933620068391701 0 0.90849364905355434 0.091506350946296292 0 0 0.87499999999950151 0 0.10409951422139101 0.81206782209691231 0 0.091506350946494744 0.90849364905351082 0 0.1249999999997731 0 0 0.19185372118111221 0.092925648673580788 0 0.091506350946417708 0.091506350946618076 0 1 0.62499999999901068 0 1 0.74999999999934042 0 0.92266244547590082 0.68749999999917555 0 0.18802967116092181 0.89415349436770275 0 0.12500000000052089 1 0 0.091506350946494744 0.90849364905351082 0 0.89051480781310632 0.79665793440246835 0 1 0.87499999999967015 0 0.90849364905363228 0.90849364905367769 0 0.12076953676380731 0.18690935762408761 0 0 0.12500000000052089 0 0.091506350946417708 0.091506350946618076 0 0.81249999999950517 0.1082531754733404 0 0.87499999999967015 0 0 0.90849364905355434 0.091506350946296292 0 0.87499999999950151 1 0 0.80886664387416207 0.89717308644237903 0 0.90849364905363228 0.90849364905367769 0 0.68668231842078242 0.24762892664808989 0 0.62499999999892575 0.17524047358135519 0 0.73983916756365475 0.17530677078674589 0 0.31281086598417152 0.10449318608631281 0 0.43749999999910871 0.1082531754729984 0 0.37500000000232431 0.17524047358384309 0 0.62499999999892575 0.17524047358135519 0 0.56250000000143974 0.2422277716920859 0 0.49999999999934441 0.1752404735815076 0 0.56249999999885147 0.1082531754730395 0 0.68749999999926592 0.1082531754732875 0 0.62499999999892575 0.17524047358135519 0 0.56249999999885147 0.1082531754730395 0 0.62499999999892575 0.17524047358135519 0 0.49999999999934441 0.1752404735815076 0 0.56250000000143974 0.2422277716920859 0 0.43750000000200551 0.24222777169198509 0 0.49999999999934441 0.1752404735815076 0 0.43749999999910871 0.1082531754729984 0 0.56249999999885147 0.1082531754730395 0 0.49999999999934441 0.1752404735815076 0 0.68668231842078242 0.24762892664808989 0 0.56250000000143974 0.2422277716920859 0 0.62499999999892575 0.17524047358135519 0 0.43750000000200551 0.24222777169198509 0 0.31411863959822661 0.24965544328045999 0 0.37500000000232431 0.17524047358384309 0 0.49999999999934441 0.1752404735815076 0 0.43750000000200551 0.24222777169198509 0 0.37500000000232431 0.17524047358384309 0 0.43749999999910871 0.1082531754729984 0 0.49999999999934441 0.1752404735815076 0 0.37500000000232431 0.17524047358384309 0 0.62499999999892575 0.17524047358135519 0 0.68749999999926592 0.1082531754732875 0 0.73983916756365475 0.17530677078674589 0 0.68749999999926592 0.1082531754732875 0 0.81249999999950517 0.1082531754733404 0 0.73983916756365475 0.17530677078674589 0 0.10409951422139101 0.81206782209691231 0 0.18802967116092181 0.89415349436770275 0 0.091506350946494744 0.90849364905351082 0 0.89658421694297741 0.1933620068391701 0 0.81249999999950517 0.1082531754733404 0 0.90849364905355434 0.091506350946296292 0 0.19185372118111221 0.092925648673580788 0 0.12076953676380731 0.18690935762408761 0 0.091506350946417708 0.091506350946618076 0 0.37500000000232431 0.17524047358384309 0 0.31411863959822661 0.24965544328045999 0 0.25103557339309318 0.17464499738446629 0 0.31281086598417152 0.10449318608631281 0 0.37500000000232431 0.17524047358384309 0 0.25103557339309318 0.17464499738446629 0 0.80886664387416207 0.89717308644237903 0 0.89051480781310632 0.79665793440246835 0 0.90849364905363228 0.90849364905367769 0 0.19185372118111221 0.092925648673580788 0 0.31281086598417152 0.10449318608631281 0 0.25103557339309318 0.17464499738446629 0 0.79891106056046712 0.25007334953587562 0 0.68668231842078242 0.24762892664808989 0 0.73983916756365475 0.17530677078674589 0 0.31411863959822661 0.24965544328045999 0 0.20767261601459541 0.25628918442207171 0 0.25103557339309318 0.17464499738446629 0 

        </DataArray>

      </Points>

      <Cells>

        <DataArray type="Int32" Name="connectivity" format="ascii">

0 1 2 3 4 5 6 7 8 9 10 11 12 13 14 15 16 17 18 19 20 21 22 23 24 25 26 27 28 29 30 31 32 33 34 35 36 37 38 39 40 41 42 43 44 45 46 47 48 49 50 51 52 53 54 55 56 57 58 59 60 61 62 63 64 65 66 67 68 69 70 71 72 73 74 75 76 77 78 79 80 81 82 83 84 85 86 87 88 89 90 91 92 93 94 95 96 97 98 99 100 101 102 103 104 105 106 107 108 109 110 111 112 113 114 115 116 117 118 119 120 121 122 123 124 125 126 127 128 129 130 131 132 133 134 135 136 137 138 139 140 141 142 143 144 145 146 147 148 149 150 151 152 153 154 155 156 157 158 159 160 161 162 163 164 165 166 167 168 169 170 171 172 173 174 175 176 177 178 179 180 181 182 183 184 185 186 187 188 189 190 191 192 193 194 195 196 197 198 199 200 201 202 203 204 205 206 207 208 209 210 211 212 213 214 215 216 217 218 219 220 221 222 223 224 225 226 227 228 229 230 231 232 233 234 235 236 237 238 239 240 241 242 243 244 245 246 247 248 249 250 251 252 253 254 255 256 257 258 259 260 261 262 263 264 265 266 267 268 269 270 271 272 273 274 275 276 277 278 279 280 281 282 283 284 285 286 287 288 289 290 291 292 293 294 295 296 297 298 299 300 301 302 303 304 305 306 307 308 309 310 311 312 313 314 315 316 317 318 319 320 321 322 323 324 325 326 327 328 329 330 331 332 333 334 335 336 337 338 339 340 341 342 343 344 345 346 347 348 349 350 351 352 353 354 355 356 357 358 359 360 361 362 363 364 365 366 367 368 369 370 371 372 373 374 375 376 377 378 379 380 381 382 383 384 385 386 387 388 389 390 391 392 393 394 395 396 397 398 399 400 401 402 403 404 405 406 407 408 409 410 411 412 413 414 415 416 417 418 419 420 421 422 423 424 425 426 427 428 429 430 431 432 433 434 435 436 437 438 439 440 441 442 443 444 445 446 447 448 449 450 451 452 453 454 455 456 457 458 459 460 461 462 463 464 465 466 467 468 469 470 471 472 473 474 475 476 477 478 479 480 481 482 483 484 485 

        </DataArray>

        <DataArray type="Int32" Name="offsets" format="ascii">

3 6 9 12 15 18 21 24 27 30 33 36 39 42 45 48 51 54 57 60 63 66 69 72 75 78 81 84 87 90 93 96 99 102 105 108 111 114 117 120 123 126 129 132 135 138 141 144 147 150 153 156 159 162 165 168 171 174 177 180 183 186 189 192 195 198 201 204 207 210 213 216 219 222 225 228 231 234 237 240 243 246 249 252 255 258 261 264 267 270 273 276 279 282 285 288 291 294 297 300 303 306 309 312 315 318 321 324 327 330 333 336 339 342 345 348 351 354 357 360 363 366 369 372 375 378 381 384 387 390 393 396 399 402 405 408 411 414 417 420 423 426 429 432 435 438 441 444 447 450 453 456 459 462 465 468 471 474 477 480 483 486 

        </DataArray>

        <DataArray type="Int32" Name="types" format="ascii">

5 5 5 5 5 5 5 5 5 5 5 5 5 5 5 5 5 5 5 5 5 5 5 5 5 5 5 5 5 5 5 5 5 5 5 5 5 5 5 5 5 5 5 5 5 5 5 5 5 5 5 5 5 5 5 5 5 5 5 5 5 5 5 5 5 5 5 5 5 5 5 5 5 5 5 5 5 5 5 5 5 5 5 5 5 5 5 5 5 5 5 5 5 5 5 5 5 5 5 5 5 5 5 5 5 5 5 5 5 5 5 5 5 5 5 5 5 5 5 5 5 5 5 5 5 5 5 5 5 5 5 5 5 5 5 5 5 5 5 5 5 5 5 5 5 5 5 5 5 5 5 5 5 5 5 5 5 5 5 5 5 5 

        </DataArray>

      </Cells>

    </Piece>

  </UnstructuredGrid>

</VTKFile>

