<?xml version="1.0"?>

<VTKFile type="UnstructuredGrid" version="0.1">

  <UnstructuredGrid>

    <Piece NumberOfPoints="486" NumberOfCells="162">

      <PointData>

        <DataArray type="Float64" Name="K" format="ascii">

9.64584050502844237e-01
9.64584050502844237e-01
9.64584050502844237e-01
9.82908120044223566e-01
9.82908120044223566e-01
9.82908120044223566e-01
1.06829637947094636e+00
1.06829637947094636e+00
1.06829637947094636e+00
1.03188027692590945e+00
1.03188027692590945e+00
1.03188027692590945e+00
1.07576470541092917e+00
1.07576470541092917e+00
1.07576470541092917e+00
1.06090601550585228e+00
1.06090601550585228e+00
1.06090601550585228e+00
1.01012371633315223e+00
1.01012371633315223e+00
1.01012371633315223e+00
9.67252373123227760e-01
9.67252373123227760e-01
9.67252373123227760e-01
9.60200353345916358e-01
9.60200353345916358e-01
9.60200353345916358e-01
9.94422386197064134e-01
9.94422386197064134e-01
9.94422386197064134e-01
1.03535354875787622e+00
1.03535354875787622e+00
1.03535354875787622e+00
1.00777451959184949e+00
1.00777451959184949e+00
1.00777451959184949e+00
1.03191565403474961e+00
1.03191565403474961e+00
1.03191565403474961e+00
1.04858800339838565e+00
1.04858800339838565e+00
1.04858800339838565e+00
9.69034648314627600e-01
9.69034648314627600e-01
9.69034648314627600e-01
9.58146916652937053e-01
9.58146916652937053e-01
9.58146916652937053e-01
9.57106388764511928e-01
9.57106388764511928e-01
9.57106388764511928e-01
1.06581433773233947e+00
1.06581433773233947e+00
1.06581433773233947e+00
9.74974673679608661e-01
9.74974673679608661e-01
9.74974673679608661e-01
9.58365220240340210e-01
9.58365220240340210e-01
9.58365220240340210e-01
1.04581739933922502e+00
1.04581739933922502e+00
1.04581739933922502e+00
1.02201231628109079e+00
1.02201231628109079e+00
1.02201231628109079e+00
1.05694118550835059e+00
1.05694118550835059e+00
1.05694118550835059e+00
1.01133904862747759e+00
1.01133904862747759e+00
1.01133904862747759e+00
9.87189431060476297e-01
9.87189431060476297e-01
9.87189431060476297e-01
9.80438856893706134e-01
9.80438856893706134e-01
9.80438856893706134e-01
9.91645713034526421e-01
9.91645713034526421e-01
9.91645713034526421e-01
9.74346131665472015e-01
9.74346131665472015e-01
9.74346131665472015e-01
1.01022334468029418e+00
1.01022334468029418e+00
1.01022334468029418e+00
9.67441475030639264e-01
9.67441475030639264e-01
9.67441475030639264e-01
9.43834822605512991e-01
9.43834822605512991e-01
9.43834822605512991e-01
8.94335140535889694e-01
8.94335140535889694e-01
8.94335140535889694e-01
9.05301784956261568e-01
9.05301784956261568e-01
9.05301784956261568e-01
1.02270808710937722e+00
1.02270808710937722e+00
1.02270808710937722e+00
9.20729017002491323e-01
9.20729017002491323e-01
9.20729017002491323e-01
9.58318639442160447e-01
9.58318639442160447e-01
9.58318639442160447e-01
1.00223657280677769e+00
1.00223657280677769e+00
1.00223657280677769e+00
9.76308950705060408e-01
9.76308950705060408e-01
9.76308950705060408e-01
9.97144366006655569e-01
9.97144366006655569e-01
9.97144366006655569e-01
9.57690996834666075e-01
9.57690996834666075e-01
9.57690996834666075e-01
9.37627282332361256e-01
9.37627282332361256e-01
9.37627282332361256e-01
9.39555015484990541e-01
9.39555015484990541e-01
9.39555015484990541e-01
1.05580394341982098e+00
1.05580394341982098e+00
1.05580394341982098e+00
1.00888591491768231e+00
1.00888591491768231e+00
1.00888591491768231e+00
9.39665198030739335e-01
9.39665198030739335e-01
9.39665198030739335e-01
9.94131153204438123e-01
9.94131153204438123e-01
9.94131153204438123e-01
9.40447831337002604e-01
9.40447831337002604e-01
9.40447831337002604e-01
9.71139363019773327e-01
9.71139363019773327e-01
9.71139363019773327e-01
8.85977630969664864e-01
8.85977630969664864e-01
8.85977630969664864e-01
9.92642014164896502e-01
9.92642014164896502e-01
9.92642014164896502e-01
9.71073142824824043e-01
9.71073142824824043e-01
9.71073142824824043e-01
9.13520768759741753e-01
9.13520768759741753e-01
9.13520768759741753e-01
9.90037298112118713e-01
9.90037298112118713e-01
9.90037298112118713e-01
9.76870611363646724e-01
9.76870611363646724e-01
9.76870611363646724e-01
9.58030060860987742e-01
9.58030060860987742e-01
9.58030060860987742e-01
9.47082170835823134e-01
9.47082170835823134e-01
9.47082170835823134e-01
9.34746976314636435e-01
9.34746976314636435e-01
9.34746976314636435e-01
9.59707122644610000e-01
9.59707122644610000e-01
9.59707122644610000e-01
9.77916463769786470e-01
9.77916463769786470e-01
9.77916463769786470e-01
1.00292549150770061e+00
1.00292549150770061e+00
1.00292549150770061e+00
1.00107088375747311e+00
1.00107088375747311e+00
1.00107088375747311e+00
9.31107339986948390e-01
9.31107339986948390e-01
9.31107339986948390e-01
9.05490723301430434e-01
9.05490723301430434e-01
9.05490723301430434e-01
9.90077421528003154e-01
9.90077421528003154e-01
9.90077421528003154e-01
1.04108961692358903e+00
1.04108961692358903e+00
1.04108961692358903e+00
1.01037518774717094e+00
1.01037518774717094e+00
1.01037518774717094e+00
1.02077022032786369e+00
1.02077022032786369e+00
1.02077022032786369e+00
9.92942540354054271e-01
9.92942540354054271e-01
9.92942540354054271e-01
9.94164809146909523e-01
9.94164809146909523e-01
9.94164809146909523e-01
1.07141348537255965e+00
1.07141348537255965e+00
1.07141348537255965e+00
9.43931841067411237e-01
9.43931841067411237e-01
9.43931841067411237e-01
1.01228296112152205e+00
1.01228296112152205e+00
1.01228296112152205e+00
1.03879173578947648e+00
1.03879173578947648e+00
1.03879173578947648e+00
1.03812366432721470e+00
1.03812366432721470e+00
1.03812366432721470e+00
9.34525501602713971e-01
9.34525501602713971e-01
9.34525501602713971e-01
1.06079818324835240e+00
1.06079818324835240e+00
1.06079818324835240e+00
9.87865343111380190e-01
9.87865343111380190e-01
9.87865343111380190e-01
1.01235462947022037e+00
1.01235462947022037e+00
1.01235462947022037e+00
9.77587266550756118e-01
9.77587266550756118e-01
9.77587266550756118e-01
1.08820540864281012e+00
1.08820540864281012e+00
1.08820540864281012e+00
1.06915496844105395e+00
1.06915496844105395e+00
1.06915496844105395e+00
1.07664587097123032e+00
1.07664587097123032e+00
1.07664587097123032e+00
1.03863103874149920e+00
1.03863103874149920e+00
1.03863103874149920e+00
9.96894461172245561e-01
9.96894461172245561e-01
9.96894461172245561e-01
1.02001980101160861e+00
1.02001980101160861e+00
1.02001980101160861e+00
1.03758751539164029e+00
1.03758751539164029e+00
1.03758751539164029e+00
1.01068051660671898e+00
1.01068051660671898e+00
1.01068051660671898e+00
1.05659055700758842e+00
1.05659055700758842e+00
1.05659055700758842e+00
1.06025738086637711e+00
1.06025738086637711e+00
1.06025738086637711e+00
1.02299493957681520e+00
1.02299493957681520e+00
1.02299493957681520e+00
1.05346272014497533e+00
1.05346272014497533e+00
1.05346272014497533e+00
9.83115160545478983e-01
9.83115160545478983e-01
9.83115160545478983e-01
1.00883487810656192e+00
1.00883487810656192e+00
1.00883487810656192e+00
9.64617128747974228e-01
9.64617128747974228e-01
9.64617128747974228e-01
9.49071521718434008e-01
9.49071521718434008e-01
9.49071521718434008e-01
9.48754691061833189e-01
9.48754691061833189e-01
9.48754691061833189e-01
1.07672225880012951e+00
1.07672225880012951e+00
1.07672225880012951e+00
9.52716257822041168e-01
9.52716257822041168e-01
9.52716257822041168e-01
9.52182095468568468e-01
9.52182095468568468e-01
9.52182095468568468e-01
1.03288511819507600e+00
1.03288511819507600e+00
1.03288511819507600e+00
9.67845466295827461e-01
9.67845466295827461e-01
9.67845466295827461e-01
9.31773680305235663e-01
9.31773680305235663e-01
9.31773680305235663e-01
9.85264853774778682e-01
9.85264853774778682e-01
9.85264853774778682e-01
1.01060609502972709e+00
1.01060609502972709e+00
1.01060609502972709e+00
9.44985245681123631e-01
9.44985245681123631e-01
9.44985245681123631e-01
9.64642065940351401e-01
9.64642065940351401e-01
9.64642065940351401e-01
9.44909743096028598e-01
9.44909743096028598e-01
9.44909743096028598e-01
1.07714276922681584e+00
1.07714276922681584e+00
1.07714276922681584e+00
1.05498308142784536e+00
1.05498308142784536e+00
1.05498308142784536e+00
1.04282139078010139e+00
1.04282139078010139e+00
1.04282139078010139e+00
1.03038908751105529e+00
1.03038908751105529e+00
1.03038908751105529e+00
1.03902346572448634e+00
1.03902346572448634e+00
1.03902346572448634e+00
9.91119330680321542e-01
9.91119330680321542e-01
9.91119330680321542e-01
9.48742565124394699e-01
9.48742565124394699e-01
9.48742565124394699e-01
9.83451361780943500e-01
9.83451361780943500e-01
9.83451361780943500e-01
1.01983529596904510e+00
1.01983529596904510e+00
1.01983529596904510e+00
1.01822135928839796e+00
1.01822135928839796e+00
1.01822135928839796e+00
9.30950226975769679e-01
9.30950226975769679e-01
9.30950226975769679e-01
9.52854799181216294e-01
9.52854799181216294e-01
9.52854799181216294e-01
9.39656104388944535e-01
9.39656104388944535e-01
9.39656104388944535e-01
9.76970938695000846e-01
9.76970938695000846e-01
9.76970938695000846e-01
9.85045203206281417e-01
9.85045203206281417e-01
9.85045203206281417e-01
1.04259627605621485e+00
1.04259627605621485e+00
1.04259627605621485e+00
1.02880497644363156e+00
1.02880497644363156e+00
1.02880497644363156e+00
1.00180214265966128e+00
1.00180214265966128e+00
1.00180214265966128e+00
1.03364179508314247e+00
1.03364179508314247e+00
1.03364179508314247e+00
9.28702181489871825e-01
9.28702181489871825e-01
9.28702181489871825e-01
9.93663604375934484e-01
9.93663604375934484e-01
9.93663604375934484e-01
1.06558324514429748e+00
1.06558324514429748e+00
1.06558324514429748e+00
1.04570228048464275e+00
1.04570228048464275e+00
1.04570228048464275e+00
9.89936707283368578e-01
9.89936707283368578e-01
9.89936707283368578e-01
9.35898028395511394e-01
9.35898028395511394e-01
9.35898028395511394e-01
9.43296482736298181e-01
9.43296482736298181e-01
9.43296482736298181e-01
9.86895755450503676e-01
9.86895755450503676e-01
9.86895755450503676e-01
1.00675928436339324e+00
1.00675928436339324e+00
1.00675928436339324e+00
9.44214405346769592e-01
9.44214405346769592e-01
9.44214405346769592e-01
9.73321457554018665e-01
9.73321457554018665e-01
9.73321457554018665e-01
1.00944554197023351e+00
1.00944554197023351e+00
1.00944554197023351e+00
9.74024183163777479e-01
9.74024183163777479e-01
9.74024183163777479e-01
9.59348649637145390e-01
9.59348649637145390e-01
9.59348649637145390e-01
9.87819892725553261e-01
9.87819892725553261e-01
9.87819892725553261e-01
9.91962291815224217e-01
9.91962291815224217e-01
9.91962291815224217e-01
1.00022490541235087e+00
1.00022490541235087e+00
1.00022490541235087e+00
9.57356726795118629e-01
9.57356726795118629e-01
9.57356726795118629e-01
9.76353234948159177e-01
9.76353234948159177e-01
9.76353234948159177e-01
1.02891347759448215e+00
1.02891347759448215e+00
1.02891347759448215e+00
9.89024489489493286e-01
9.89024489489493286e-01
9.89024489489493286e-01
9.98466546001927191e-01
9.98466546001927191e-01
9.98466546001927191e-01
1.02409181082172607e+00
1.02409181082172607e+00
1.02409181082172607e+00
1.02492995651315133e+00
1.02492995651315133e+00
1.02492995651315133e+00
1.00965655457012971e+00
1.00965655457012971e+00
1.00965655457012971e+00
9.75608662757587175e-01
9.75608662757587175e-01
9.75608662757587175e-01
9.88921894120094902e-01
9.88921894120094902e-01
9.88921894120094902e-01
9.42856582988158998e-01
9.42856582988158998e-01
9.42856582988158998e-01
9.61700215005390713e-01
9.61700215005390713e-01
9.61700215005390713e-01
9.93084004813716392e-01
9.93084004813716392e-01
9.93084004813716392e-01
1.00434064771324350e+00
1.00434064771324350e+00
1.00434064771324350e+00
9.81270588484070228e-01
9.81270588484070228e-01
9.81270588484070228e-01
9.54915730520107253e-01
9.54915730520107253e-01
9.54915730520107253e-01
9.57903806683069403e-01
9.57903806683069403e-01
9.57903806683069403e-01
9.95655074741522150e-01
9.95655074741522150e-01
9.95655074741522150e-01
1.01496291884847856e+00
1.01496291884847856e+00
1.01496291884847856e+00


        </DataArray>

      </PointData>

      <CellData/>

      <Points>

        <DataArray type="Float64" NumberOfComponents="3" format="ascii">

0.1082531754723032 0.6875000000007816 0 0.23533274979922561 0.77093399389351469 0 0.10409951422139101 0.81206782209691231 0 0.23533274979922561 0.77093399389351469 0 0.1082531754723032 0.6875000000007816 0 0.21809253452218619 0.65480892822618109 0 0.24418615484441761 0.35773612382016978 0 0.121259140952891 0.43112117036853742 0 0.1082531754734323 0.31250000000117473 0 0.75000000000057243 0.35048094716480432 0 0.88173731489851925 0.33077402607778361 0 0.81242894672211508 0.45500248311961472 0 0.121259140952891 0.43112117036853742 0 0.24418615484441761 0.35773612382016978 0 0.22257735880419699 0.47344721641341742 0 0.81242894672211508 0.45500248311961472 0 0.88173731489851925 0.33077402607778361 0 0.915464298762109 0.43749999999886913 0 0 0.62500000000121547 0 0 0.50000000000206146 0 0.1371230538040123 0.56179824718362847 0 0.82212678063041267 0.67678595194836966 0 0.89051480781310632 0.79665793440246835 0 0.76243180583607129 0.78687675331113149 0 0.76243180583607129 0.78687675331113149 0 0.69010814643829166 0.89298495739101336 0 0.62844955668446423 0.7850749770380413 0 0.89051480781310632 0.79665793440246835 0 0.82212678063041267 0.67678595194836966 0 0.92266244547590082 0.68749999999917555 0 0 0.50000000000206146 0 0.121259140952891 0.43112117036853742 0 0.1371230538040123 0.56179824718362847 0 0.1082531754723032 0.6875000000007816 0 0 0.62500000000121547 0 0.1371230538040123 0.56179824718362847 0 0.75000000000032374 0.56698729811007709 0 0.88927506082488361 0.56409486310635837 0 0.82212678063041267 0.67678595194836966 0 0.81242894672211508 0.45500248311961472 0 0.88927506082488361 0.56409486310635837 0 0.75000000000032374 0.56698729811007709 0 0.69851598570178741 0.68211701800612057 0 0.56496004948275869 0.67675037307860475 0 0.62752533658682441 0.56838075195614346 0 0.69851598570178741 0.68211701800612057 0 0.76243180583607129 0.78687675331113149 0 0.62844955668446423 0.7850749770380413 0 0.23533274979922561 0.77093399389351469 0 0.18802967116092181 0.89415349436770275 0 0.10409951422139101 0.81206782209691231 0 0.121259140952891 0.43112117036853742 0 0.22257735880419699 0.47344721641341742 0 0.1371230538040123 0.56179824718362847 0 0.75000000000032374 0.56698729811007709 0 0.69851598570178741 0.68211701800612057 0 0.62752533658682441 0.56838075195614346 0 0.56496004948275869 0.67675037307860475 0 0.69851598570178741 0.68211701800612057 0 0.62844955668446423 0.7850749770380413 0 0.1371230538040123 0.56179824718362847 0 0.22257735880419699 0.47344721641341742 0 0.26982811998763367 0.56544650815856912 0 0.21809253452218619 0.65480892822618109 0 0.1371230538040123 0.56179824718362847 0 0.26982811998763367 0.56544650815856912 0 0.24418615484441761 0.35773612382016978 0 0.1082531754734323 0.31250000000117473 0 0.20767261601459541 0.25628918442207171 0 0.88173731489851925 0.33077402607778361 0 0.75000000000057243 0.35048094716480432 0 0.79891106056046712 0.25007334953587562 0 0.75000000000032374 0.56698729811007709 0 0.82212678063041267 0.67678595194836966 0 0.69851598570178741 0.68211701800612057 0 0.81249999999950517 0.1082531754733404 0 0.89658421694297741 0.1933620068391701 0 0.79891106056046712 0.25007334953587562 0 0.81249999999950517 0.1082531754733404 0 0.79891106056046712 0.25007334953587562 0 0.73983916756365475 0.17530677078674589 0 0.23533274979922561 0.77093399389351469 0 0.21809253452218619 0.65480892822618109 0 0.32607333794064219 0.67760114260606152 0 0.1082531754723032 0.6875000000007816 0 0.1371230538040123 0.56179824718362847 0 0.21809253452218619 0.65480892822618109 0 0.69851598570178741 0.68211701800612057 0 0.82212678063041267 0.67678595194836966 0 0.76243180583607129 0.78687675331113149 0 0.69010814643829166 0.89298495739101336 0 0.76243180583607129 0.78687675331113149 0 0.80886664387416207 0.89717308644237903 0 0.43750000000181222 0.89174682452709564 0 0.31258827852827581 0.89214793616708443 0 0.37776173212361452 0.78514649317305008 0 0.43750000000181222 0.89174682452709564 0 0.37500000000156292 1 0 0.31258827852827581 0.89214793616708443 0 0.121259140952891 0.43112117036853742 0 0 0.37500000000156292 0 0.1082531754734323 0.31250000000117473 0 0.50000000000206146 1 0 0.37500000000156292 1 0 0.43750000000181222 0.89174682452709564 0 0.31258827852827581 0.89214793616708443 0 0.18802967116092181 0.89415349436770275 0 0.23533274979922561 0.77093399389351469 0 0 0.50000000000206146 0 0 0.37500000000156292 0 0.121259140952891 0.43112117036853742 0 0.62844955668446423 0.7850749770380413 0 0.69010814643829166 0.89298495739101336 0 0.56327595140699671 0.89211526915426331 0 0.69010814643829166 0.89298495739101336 0 0.62500000000121547 1 0 0.56327595140699671 0.89211526915426331 0 0.25000000000104189 1 0 0.18802967116092181 0.89415349436770275 0 0.31258827852827581 0.89214793616708443 0 0.50000000000206146 1 0 0.43750000000181222 0.89174682452709564 0 0.56327595140699671 0.89211526915426331 0 0.56249999999885147 0.1082531754730395 0 0.62499999999901068 0 0 0.68749999999926592 0.1082531754732875 0 1 0.49999999999869221 0 1 0.62499999999901068 0 0.88927506082488361 0.56409486310635837 0 0 0.25000000000104189 0 0.12076953676380731 0.18690935762408761 0 0.1082531754734323 0.31250000000117473 0 0.49999999999869221 0 0 0.62499999999901068 0 0 0.56249999999885147 0.1082531754730395 0 0.62500000000121547 1 0 0.50000000000206146 1 0 0.56327595140699671 0.89211526915426331 0 0.37500000000156292 1 0 0.25000000000104189 1 0 0.31258827852827581 0.89214793616708443 0 0.31281086598417152 0.10449318608631281 0 0.37499999999904599 0 0 0.43749999999910871 0.1082531754729984 0 0.43750000000181222 0.89174682452709564 0 0.37776173212361452 0.78514649317305008 0 0.50046028868828263 0.78376912307435687 0 0 0.37500000000156292 0 0 0.25000000000104189 0 0.1082531754734323 0.31250000000117473 0 0.49999999999869221 0 0 0.56249999999885147 0.1082531754730395 0 0.43749999999910871 0.1082531754729984 0 0.43750000000181222 0.89174682452709564 0 0.50046028868828263 0.78376912307435687 0 0.56327595140699671 0.89211526915426331 0 0.74999999999934042 0 0 0.81249999999950517 0.1082531754733404 0 0.68749999999926592 0.1082531754732875 0 0.37499999999904599 0 0 0.49999999999869221 0 0 0.43749999999910871 0.1082531754729984 0 0.25000000000104189 1 0 0.12500000000052089 1 0 0.18802967116092181 0.89415349436770275 0 0.50046028868828263 0.78376912307435687 0 0.62844955668446423 0.7850749770380413 0 0.56327595140699671 0.89211526915426331 0 0.37776173212361452 0.78514649317305008 0 0.31258827852827581 0.89214793616708443 0 0.23533274979922561 0.77093399389351469 0 0.62499999999901068 0 0 0.74999999999934042 0 0 0.68749999999926592 0.1082531754732875 0 1 0.74999999999934042 0 1 0.87499999999967015 0 0.89051480781310632 0.79665793440246835 0 0 0.25000000000104189 0 0 0.12500000000052089 0 0.12076953676380731 0.18690935762408761 0 0.74999999999934042 0 0 0.87499999999967015 0 0 0.81249999999950517 0.1082531754733404 0 0.24999999999941069 0 0 0.37499999999904599 0 0 0.31281086598417152 0.10449318608631281 0 0.50046028868828263 0.78376912307435687 0 0.37776173212361452 0.78514649317305008 0 0.44078402250377968 0.67714785211715212 0 0.68768773896438518 0.4586835206367198 0 0.75000000000032374 0.56698729811007709 0 0.62752533658682441 0.56838075195614346 0 0.31411863959822661 0.24965544328045999 0 0.37953773393552892 0.34812185820708452 0 0.24418615484441761 0.35773612382016978 0 0.68768773896438518 0.4586835206367198 0 0.81242894672211508 0.45500248311961472 0 0.75000000000032374 0.56698729811007709 0 1 0.24999999999941069 0 1 0.37499999999904599 0 0.88173731489851925 0.33077402607778361 0 0 0.75000000000034761 0 0 0.62500000000121547 0 0.1082531754723032 0.6875000000007816 0 0.50048844149666749 0.56727788297625459 0 0.44078402250377968 0.67714785211715212 0 0.38694285807596462 0.5672991787102919 0 0.50108503093851109 0.35012252869403671 0 0.44301038174930041 0.45684931552185398 0 0.37953773393552892 0.34812185820708452 0 0.50046028868828263 0.78376912307435687 0 0.56496004948275869 0.67675037307860475 0 0.62844955668446423 0.7850749770380413 0 0.68768773896438518 0.4586835206367198 0 0.75000000000057243 0.35048094716480432 0 0.81242894672211508 0.45500248311961472 0 0.56349980387502452 0.45846841892908402 0 0.62512662990940393 0.35044303886909911 0 0.68768773896438518 0.4586835206367198 0 0.50048844149666749 0.56727788297625459 0 0.38694285807596462 0.5672991787102919 0 0.44301038174930041 0.45684931552185398 0 0.50046028868828263 0.78376912307435687 0 0.44078402250377968 0.67714785211715212 0 0.56496004948275869 0.67675037307860475 0 0.50108503093851109 0.35012252869403671 0 0.37953773393552892 0.34812185820708452 0 0.43750000000200551 0.24222777169198509 0 0.75000000000034761 1 0 0.62500000000121547 1 0 0.69010814643829166 0.89298495739101336 0 0.68768773896438518 0.4586835206367198 0 0.62512662990940393 0.35044303886909911 0 0.75000000000057243 0.35048094716480432 0 0.56496004948275869 0.67675037307860475 0 0.44078402250377968 0.67714785211715212 0 0.50048844149666749 0.56727788297625459 0 0.56349980387502452 0.45846841892908402 0 0.44301038174930041 0.45684931552185398 0 0.50108503093851109 0.35012252869403671 0 0.50048844149666749 0.56727788297625459 0 0.44301038174930041 0.45684931552185398 0 0.56349980387502452 0.45846841892908402 0 0.56349980387502452 0.45846841892908402 0 0.50108503093851109 0.35012252869403671 0 0.62512662990940393 0.35044303886909911 0 0.43750000000200551 0.24222777169198509 0 0.37953773393552892 0.34812185820708452 0 0.31411863959822661 0.24965544328045999 0 0.56496004948275869 0.67675037307860475 0 0.50048844149666749 0.56727788297625459 0 0.62752533658682441 0.56838075195614346 0 0.56349980387502452 0.45846841892908402 0 0.68768773896438518 0.4586835206367198 0 0.62752533658682441 0.56838075195614346 0 0.50048844149666749 0.56727788297625459 0 0.56349980387502452 0.45846841892908402 0 0.62752533658682441 0.56838075195614346 0 0.75000000000057243 0.35048094716480432 0 0.62512662990940393 0.35044303886909911 0 0.68668231842078242 0.24762892664808989 0 0.50108503093851109 0.35012252869403671 0 0.43750000000200551 0.24222777169198509 0 0.56250000000143974 0.2422277716920859 0 0.62512662990940393 0.35044303886909911 0 0.50108503093851109 0.35012252869403671 0 0.56250000000143974 0.2422277716920859 0 0.68668231842078242 0.24762892664808989 0 0.62512662990940393 0.35044303886909911 0 0.56250000000143974 0.2422277716920859 0 0.22257735880419699 0.47344721641341742 0 0.24418615484441761 0.35773612382016978 0 0.32815957677880009 0.4577243358118348 0 0.12076953676380731 0.18690935762408761 0 0.19185372118111221 0.092925648673580788 0 0.25103557339309318 0.17464499738446629 0 0.20767261601459541 0.25628918442207171 0 0.12076953676380731 0.18690935762408761 0 0.25103557339309318 0.17464499738446629 0 0 0.87499999999950151 0 0 0.75000000000034761 0 0.10409951422139101 0.81206782209691231 0 0.1249999999997731 0 0 0.24999999999941069 0 0 0.19185372118111221 0.092925648673580788 0 1 0.1249999999997731 0 1 0.24999999999941069 0 0.89658421694297741 0.1933620068391701 0 0.88927506082488361 0.56409486310635837 0 0.81242894672211508 0.45500248311961472 0 0.915464298762109 0.43749999999886913 0 0.87499999999950151 1 0 0.75000000000034761 1 0 0.80886664387416207 0.89717308644237903 0 0.75000000000034761 1 0 0.69010814643829166 0.89298495739101336 0 0.80886664387416207 0.89717308644237903 0 0.82212678063041267 0.67678595194836966 0 0.88927506082488361 0.56409486310635837 0 0.92266244547590082 0.68749999999917555 0 0 0.75000000000034761 0 0.1082531754723032 0.6875000000007816 0 0.10409951422139101 0.81206782209691231 0 0.24999999999941069 0 0 0.31281086598417152 0.10449318608631281 0 0.19185372118111221 0.092925648673580788 0 1 0.24999999999941069 0 0.88173731489851925 0.33077402607778361 0 0.89658421694297741 0.1933620068391701 0 0.32815957677880009 0.4577243358118348 0 0.38694285807596462 0.5672991787102919 0 0.26982811998763367 0.56544650815856912 0 0.76243180583607129 0.78687675331113149 0 0.89051480781310632 0.79665793440246835 0 0.80886664387416207 0.89717308644237903 0 0.38694285807596462 0.5672991787102919 0 0.44078402250377968 0.67714785211715212 0 0.32607333794064219 0.67760114260606152 0 0.37776173212361452 0.78514649317305008 0 0.23533274979922561 0.77093399389351469 0 0.32607333794064219 0.67760114260606152 0 1 0.49999999999869221 0 0.88927506082488361 0.56409486310635837 0 0.915464298762109 0.43749999999886913 0 0.88173731489851925 0.33077402607778361 0 1 0.37499999999904599 0 0.915464298762109 0.43749999999886913 0 0.24418615484441761 0.35773612382016978 0 0.37953773393552892 0.34812185820708452 0 0.32815957677880009 0.4577243358118348 0 0.44301038174930041 0.45684931552185398 0 0.38694285807596462 0.5672991787102919 0 0.32815957677880009 0.4577243358118348 0 0.88927506082488361 0.56409486310635837 0 1 0.62499999999901068 0 0.92266244547590082 0.68749999999917555 0 1 0.74999999999934042 0 0.89051480781310632 0.79665793440246835 0 0.92266244547590082 0.68749999999917555 0 0 1 0 0 0.87499999999950151 0 0.091506350946494744 0.90849364905351082 0 1 1 0 0.87499999999950151 1 0 0.90849364905363228 0.90849364905367769 0 0 0 0 0.1249999999997731 0 0 0.091506350946417708 0.091506350946618076 0 0 0.12500000000052089 0 0 0 0 0.091506350946417708 0.091506350946618076 0 1 0 0 1 0.1249999999997731 0 0.90849364905355434 0.091506350946296292 0 0.87499999999967015 0 0 1 0 0 0.90849364905355434 0.091506350946296292 0 0.12500000000052089 1 0 0 1 0 0.091506350946494744 0.90849364905351082 0 1 0.87499999999967015 0 1 1 0 0.90849364905363228 0.90849364905367769 0 0.38694285807596462 0.5672991787102919 0 0.32607333794064219 0.67760114260606152 0 0.26982811998763367 0.56544650815856912 0 0.31411863959822661 0.24965544328045999 0 0.24418615484441761 0.35773612382016978 0 0.20767261601459541 0.25628918442207171 0 0.1082531754734323 0.31250000000117473 0 0.12076953676380731 0.18690935762408761 0 0.20767261601459541 0.25628918442207171 0 0.75000000000057243 0.35048094716480432 0 0.68668231842078242 0.24762892664808989 0 0.79891106056046712 0.25007334953587562 0 0.22257735880419699 0.47344721641341742 0 0.32815957677880009 0.4577243358118348 0 0.26982811998763367 0.56544650815856912 0 0.44078402250377968 0.67714785211715212 0 0.37776173212361452 0.78514649317305008 0 0.32607333794064219 0.67760114260606152 0 0.89658421694297741 0.1933620068391701 0 0.88173731489851925 0.33077402607778361 0 0.79891106056046712 0.25007334953587562 0 1 0.37499999999904599 0 1 0.49999999999869221 0 0.915464298762109 0.43749999999886913 0 0.37953773393552892 0.34812185820708452 0 0.44301038174930041 0.45684931552185398 0 0.32815957677880009 0.4577243358118348 0 0.32607333794064219 0.67760114260606152 0 0.21809253452218619 0.65480892822618109 0 0.26982811998763367 0.56544650815856912 0 1 0.1249999999997731 0 0.89658421694297741 0.1933620068391701 0 0.90849364905355434 0.091506350946296292 0 0 0.87499999999950151 0 0.10409951422139101 0.81206782209691231 0 0.091506350946494744 0.90849364905351082 0 0.1249999999997731 0 0 0.19185372118111221 0.092925648673580788 0 0.091506350946417708 0.091506350946618076 0 1 0.62499999999901068 0 1 0.74999999999934042 0 0.92266244547590082 0.68749999999917555 0 0.18802967116092181 0.89415349436770275 0 0.12500000000052089 1 0 0.091506350946494744 0.90849364905351082 0 0.89051480781310632 0.79665793440246835 0 1 0.87499999999967015 0 0.90849364905363228 0.90849364905367769 0 0.12076953676380731 0.18690935762408761 0 0 0.12500000000052089 0 0.091506350946417708 0.091506350946618076 0 0.81249999999950517 0.1082531754733404 0 0.87499999999967015 0 0 0.90849364905355434 0.091506350946296292 0 0.87499999999950151 1 0 0.80886664387416207 0.89717308644237903 0 0.90849364905363228 0.90849364905367769 0 0.68668231842078242 0.24762892664808989 0 0.62499999999892575 0.17524047358135519 0 0.73983916756365475 0.17530677078674589 0 0.31281086598417152 0.10449318608631281 0 0.43749999999910871 0.1082531754729984 0 0.37500000000232431 0.17524047358384309 0 0.62499999999892575 0.17524047358135519 0 0.56250000000143974 0.2422277716920859 0 0.49999999999934441 0.1752404735815076 0 0.56249999999885147 0.1082531754730395 0 0.68749999999926592 0.1082531754732875 0 0.62499999999892575 0.17524047358135519 0 0.56249999999885147 0.1082531754730395 0 0.62499999999892575 0.17524047358135519 0 0.49999999999934441 0.1752404735815076 0 0.56250000000143974 0.2422277716920859 0 0.43750000000200551 0.24222777169198509 0 0.49999999999934441 0.1752404735815076 0 0.43749999999910871 0.1082531754729984 0 0.56249999999885147 0.1082531754730395 0 0.49999999999934441 0.1752404735815076 0 0.68668231842078242 0.24762892664808989 0 0.56250000000143974 0.2422277716920859 0 0.62499999999892575 0.17524047358135519 0 0.43750000000200551 0.24222777169198509 0 0.31411863959822661 0.24965544328045999 0 0.37500000000232431 0.17524047358384309 0 0.49999999999934441 0.1752404735815076 0 0.43750000000200551 0.24222777169198509 0 0.37500000000232431 0.17524047358384309 0 0.43749999999910871 0.1082531754729984 0 0.49999999999934441 0.1752404735815076 0 0.37500000000232431 0.17524047358384309 0 0.62499999999892575 0.17524047358135519 0 0.68749999999926592 0.1082531754732875 0 0.73983916756365475 0.17530677078674589 0 0.68749999999926592 0.1082531754732875 0 0.81249999999950517 0.1082531754733404 0 0.73983916756365475 0.17530677078674589 0 0.10409951422139101 0.81206782209691231 0 0.18802967116092181 0.89415349436770275 0 0.091506350946494744 0.90849364905351082 0 0.89658421694297741 0.1933620068391701 0 0.81249999999950517 0.1082531754733404 0 0.90849364905355434 0.091506350946296292 0 0.19185372118111221 0.092925648673580788 0 0.12076953676380731 0.18690935762408761 0 0.091506350946417708 0.091506350946618076 0 0.37500000000232431 0.17524047358384309 0 0.31411863959822661 0.24965544328045999 0 0.25103557339309318 0.17464499738446629 0 0.31281086598417152 0.10449318608631281 0 0.37500000000232431 0.17524047358384309 0 0.25103557339309318 0.17464499738446629 0 0.80886664387416207 0.89717308644237903 0 0.89051480781310632 0.79665793440246835 0 0.90849364905363228 0.90849364905367769 0 0.19185372118111221 0.092925648673580788 0 0.31281086598417152 0.10449318608631281 0 0.25103557339309318 0.17464499738446629 0 0.79891106056046712 0.25007334953587562 0 0.68668231842078242 0.24762892664808989 0 0.73983916756365475 0.17530677078674589 0 0.31411863959822661 0.24965544328045999 0 0.20767261601459541 0.25628918442207171 0 0.25103557339309318 0.17464499738446629 0 

        </DataArray>

      </Points>

      <Cells>

        <DataArray type="Int32" Name="connectivity" format="ascii">

0 1 2 3 4 5 6 7 8 9 10 11 12 13 14 15 16 17 18 19 20 21 22 23 24 25 26 27 28 29 30 31 32 33 34 35 36 37 38 39 40 41 42 43 44 45 46 47 48 49 50 51 52 53 54 55 56 57 58 59 60 61 62 63 64 65 66 67 68 69 70 71 72 73 74 75 76 77 78 79 80 81 82 83 84 85 86 87 88 89 90 91 92 93 94 95 96 97 98 99 100 101 102 103 104 105 106 107 108 109 110 111 112 113 114 115 116 117 118 119 120 121 122 123 124 125 126 127 128 129 130 131 132 133 134 135 136 137 138 139 140 141 142 143 144 145 146 147 148 149 150 151 152 153 154 155 156 157 158 159 160 161 162 163 164 165 166 167 168 169 170 171 172 173 174 175 176 177 178 179 180 181 182 183 184 185 186 187 188 189 190 191 192 193 194 195 196 197 198 199 200 201 202 203 204 205 206 207 208 209 210 211 212 213 214 215 216 217 218 219 220 221 222 223 224 225 226 227 228 229 230 231 232 233 234 235 236 237 238 239 240 241 242 243 244 245 246 247 248 249 250 251 252 253 254 255 256 257 258 259 260 261 262 263 264 265 266 267 268 269 270 271 272 273 274 275 276 277 278 279 280 281 282 283 284 285 286 287 288 289 290 291 292 293 294 295 296 297 298 299 300 301 302 303 304 305 306 307 308 309 310 311 312 313 314 315 316 317 318 319 320 321 322 323 324 325 326 327 328 329 330 331 332 333 334 335 336 337 338 339 340 341 342 343 344 345 346 347 348 349 350 351 352 353 354 355 356 357 358 359 360 361 362 363 364 365 366 367 368 369 370 371 372 373 374 375 376 377 378 379 380 381 382 383 384 385 386 387 388 389 390 391 392 393 394 395 396 397 398 399 400 401 402 403 404 405 406 407 408 409 410 411 412 413 414 415 416 417 418 419 420 421 422 423 424 425 426 427 428 429 430 431 432 433 434 435 436 437 438 439 440 441 442 443 444 445 446 447 448 449 450 451 452 453 454 455 456 457 458 459 460 461 462 463 464 465 466 467 468 469 470 471 472 473 474 475 476 477 478 479 480 481 482 483 484 485 

        </DataArray>

        <DataArray type="Int32" Name="offsets" format="ascii">

3 6 9 12 15 18 21 24 27 30 33 36 39 42 45 48 51 54 57 60 63 66 69 72 75 78 81 84 87 90 93 96 99 102 105 108 111 114 117 120 123 126 129 132 135 138 141 144 147 150 153 156 159 162 165 168 171 174 177 180 183 186 189 192 195 198 201 204 207 210 213 216 219 222 225 228 231 234 237 240 243 246 249 252 255 258 261 264 267 270 273 276 279 282 285 288 291 294 297 300 303 306 309 312 315 318 321 324 327 330 333 336 339 342 345 348 351 354 357 360 363 366 369 372 375 378 381 384 387 390 393 396 399 402 405 408 411 414 417 420 423 426 429 432 435 438 441 444 447 450 453 456 459 462 465 468 471 474 477 480 483 486 

        </DataArray>

        <DataArray type="Int32" Name="types" format="ascii">

5 5 5 5 5 5 5 5 5 5 5 5 5 5 5 5 5 5 5 5 5 5 5 5 5 5 5 5 5 5 5 5 5 5 5 5 5 5 5 5 5 5 5 5 5 5 5 5 5 5 5 5 5 5 5 5 5 5 5 5 5 5 5 5 5 5 5 5 5 5 5 5 5 5 5 5 5 5 5 5 5 5 5 5 5 5 5 5 5 5 5 5 5 5 5 5 5 5 5 5 5 5 5 5 5 5 5 5 5 5 5 5 5 5 5 5 5 5 5 5 5 5 5 5 5 5 5 5 5 5 5 5 5 5 5 5 5 5 5 5 5 5 5 5 5 5 5 5 5 5 5 5 5 5 5 5 5 5 5 5 5 5 

        </DataArray>

      </Cells>

    </Piece>

  </UnstructuredGrid>

</VTKFile>

