<?xml version="1.0"?>

<VTKFile type="UnstructuredGrid" version="0.1">

  <UnstructuredGrid>

    <Piece NumberOfPoints="98" NumberOfCells="162">

      <PointData>

        <DataArray type="Float64" Name="F" format="ascii">

0.00000000000000000e+00
0.00000000000000000e+00
0.00000000000000000e+00
0.00000000000000000e+00
0.00000000000000000e+00
0.00000000000000000e+00
0.00000000000000000e+00
0.00000000000000000e+00
0.00000000000000000e+00
0.00000000000000000e+00
0.00000000000000000e+00
0.00000000000000000e+00
0.00000000000000000e+00
0.00000000000000000e+00
0.00000000000000000e+00
0.00000000000000000e+00
0.00000000000000000e+00
0.00000000000000000e+00
0.00000000000000000e+00
0.00000000000000000e+00
0.00000000000000000e+00
0.00000000000000000e+00
0.00000000000000000e+00
0.00000000000000000e+00
0.00000000000000000e+00
0.00000000000000000e+00
0.00000000000000000e+00
0.00000000000000000e+00
0.00000000000000000e+00
0.00000000000000000e+00
0.00000000000000000e+00
0.00000000000000000e+00
0.00000000000000000e+00
0.00000000000000000e+00
0.00000000000000000e+00
0.00000000000000000e+00
0.00000000000000000e+00
0.00000000000000000e+00
0.00000000000000000e+00
0.00000000000000000e+00
0.00000000000000000e+00
0.00000000000000000e+00
0.00000000000000000e+00
0.00000000000000000e+00
0.00000000000000000e+00
0.00000000000000000e+00
0.00000000000000000e+00
0.00000000000000000e+00
0.00000000000000000e+00
0.00000000000000000e+00
0.00000000000000000e+00
0.00000000000000000e+00
0.00000000000000000e+00
0.00000000000000000e+00
0.00000000000000000e+00
0.00000000000000000e+00
0.00000000000000000e+00
0.00000000000000000e+00
0.00000000000000000e+00
0.00000000000000000e+00
0.00000000000000000e+00
0.00000000000000000e+00
0.00000000000000000e+00
0.00000000000000000e+00
0.00000000000000000e+00
0.00000000000000000e+00
0.00000000000000000e+00
0.00000000000000000e+00
0.00000000000000000e+00
0.00000000000000000e+00
0.00000000000000000e+00
0.00000000000000000e+00
0.00000000000000000e+00
0.00000000000000000e+00
0.00000000000000000e+00
0.00000000000000000e+00
0.00000000000000000e+00
0.00000000000000000e+00
0.00000000000000000e+00
0.00000000000000000e+00
0.00000000000000000e+00
0.00000000000000000e+00
0.00000000000000000e+00
0.00000000000000000e+00
0.00000000000000000e+00
0.00000000000000000e+00
0.00000000000000000e+00
0.00000000000000000e+00
0.00000000000000000e+00
0.00000000000000000e+00
0.00000000000000000e+00
0.00000000000000000e+00
0.00000000000000000e+00
0.00000000000000000e+00
0.00000000000000000e+00
0.00000000000000000e+00
0.00000000000000000e+00
0.00000000000000000e+00


        </DataArray>

        <DataArray type="Float64" Name="T" format="ascii">

0.00000000000000000e+00
0.00000000000000000e+00
0.00000000000000000e+00
0.00000000000000000e+00
0.00000000000000000e+00
0.00000000000000000e+00
0.00000000000000000e+00
0.00000000000000000e+00
0.00000000000000000e+00
0.00000000000000000e+00
0.00000000000000000e+00
0.00000000000000000e+00
0.00000000000000000e+00
0.00000000000000000e+00
0.00000000000000000e+00
0.00000000000000000e+00
0.00000000000000000e+00
0.00000000000000000e+00
1.21328553415729692e-01
2.20145670016139883e-01
2.83713051279101014e-01
3.05763773296594321e-01
2.83401691780187703e-01
2.18369761862854894e-01
1.19426298506884479e-01
0.00000000000000000e+00
0.00000000000000000e+00
0.00000000000000000e+00
0.00000000000000000e+00
0.00000000000000000e+00
0.00000000000000000e+00
0.00000000000000000e+00
2.15863274426456586e-01
1.76998347453357144e-02
8.85479783839248843e-03
2.74219304455037803e-02
3.67965073824113933e-02
1.82323871224538886e-01
7.31031934157016800e-03
1.20223266201874047e-02
5.75742086177235546e-02
1.24009684197772557e-01
5.22284059363638427e-03
6.20637714318325248e-03
1.83667092280697830e-01
1.48356879053841095e-01
1.58621401532907852e-01
1.11874602453339383e-01
1.11387808277171874e-01
7.91019300169774342e-02
7.35679247652479135e-02
5.21239086482746666e-02
5.28345385525894606e-02
3.52239559513625733e-02
3.22018683464575517e-02
3.31229676853044552e-02
4.55350892059226825e-02
2.13266759444677018e-02
2.58862064849743612e-02
1.91626296615133099e-02
1.88176919764671095e-02
2.50590960829499866e-02
3.02748016230201915e-02
5.68305048501642068e-02
6.11731045749352859e-02
9.41360915947423160e-02
1.09400977360035026e-01
1.02036911051517881e-01
1.00079800320550423e-02
3.54726277475510068e-02
3.07049022332210042e-02
6.52503173726019514e-02
1.46049664923701111e-01
7.66959420171522965e-03
8.81976898845945358e-03
2.15180391655755615e-01
7.35883261872282701e-02
2.15490369143538502e-02
5.50665009612880119e-02
4.50324204647959379e-03
5.63001360558443038e-03
1.27840440347699175e-01
1.42796432786839751e-02
1.38461506926502685e-02
9.66374218177446093e-02
1.33813131673132697e-02
4.49283652010522908e-02
2.90176014094070227e-02
6.65298629370077582e-02
6.77395665289372562e-02
2.21791033300734481e-03
2.21731708286642673e-03
5.76098301905368024e-02
1.40902322126192133e-02
1.50400352758125692e-02
1.38969630442206480e-02
1.13770332194723534e-02
1.08076569592385485e-02


        </DataArray>

        <DataArray type="Float64" Name="T_exacte_scallin" format="ascii">

0.00000000000000000e+00
0.00000000000000000e+00
0.00000000000000000e+00
0.00000000000000000e+00
0.00000000000000000e+00
0.00000000000000000e+00
0.00000000000000000e+00
0.00000000000000000e+00
0.00000000000000000e+00
0.00000000000000000e+00
0.00000000000000000e+00
0.00000000000000000e+00
0.00000000000000000e+00
0.00000000000000000e+00
0.00000000000000000e+00
0.00000000000000000e+00
0.00000000000000000e+00
0.00000000000000000e+00
0.00000000000000000e+00
0.00000000000000000e+00
0.00000000000000000e+00
0.00000000000000000e+00
0.00000000000000000e+00
0.00000000000000000e+00
0.00000000000000000e+00
0.00000000000000000e+00
0.00000000000000000e+00
0.00000000000000000e+00
0.00000000000000000e+00
0.00000000000000000e+00
0.00000000000000000e+00
0.00000000000000000e+00
0.00000000000000000e+00
0.00000000000000000e+00
0.00000000000000000e+00
0.00000000000000000e+00
0.00000000000000000e+00
0.00000000000000000e+00
0.00000000000000000e+00
0.00000000000000000e+00
0.00000000000000000e+00
0.00000000000000000e+00
0.00000000000000000e+00
0.00000000000000000e+00
0.00000000000000000e+00
0.00000000000000000e+00
0.00000000000000000e+00
0.00000000000000000e+00
0.00000000000000000e+00
0.00000000000000000e+00
0.00000000000000000e+00
0.00000000000000000e+00
0.00000000000000000e+00
0.00000000000000000e+00
0.00000000000000000e+00
0.00000000000000000e+00
0.00000000000000000e+00
0.00000000000000000e+00
0.00000000000000000e+00
0.00000000000000000e+00
0.00000000000000000e+00
0.00000000000000000e+00
0.00000000000000000e+00
0.00000000000000000e+00
0.00000000000000000e+00
0.00000000000000000e+00
0.00000000000000000e+00
0.00000000000000000e+00
0.00000000000000000e+00
0.00000000000000000e+00
0.00000000000000000e+00
0.00000000000000000e+00
0.00000000000000000e+00
0.00000000000000000e+00
0.00000000000000000e+00
0.00000000000000000e+00
0.00000000000000000e+00
0.00000000000000000e+00
0.00000000000000000e+00
0.00000000000000000e+00
0.00000000000000000e+00
0.00000000000000000e+00
0.00000000000000000e+00
0.00000000000000000e+00
0.00000000000000000e+00
0.00000000000000000e+00
0.00000000000000000e+00
0.00000000000000000e+00
0.00000000000000000e+00
0.00000000000000000e+00
0.00000000000000000e+00
0.00000000000000000e+00
0.00000000000000000e+00
0.00000000000000000e+00
0.00000000000000000e+00
0.00000000000000000e+00
0.00000000000000000e+00
0.00000000000000000e+00


        </DataArray>

      </PointData>

      <CellData/>

      <Points>

        <DataArray type="Float64" Name="Position" NumberOfComponents="3" format="ascii">

0.00000000000000000e+00 0.00000000000000000e+00 0.00000000000000000e+00
1.00000000000000000e+00 0.00000000000000000e+00 0.00000000000000000e+00
1.00000000000000000e+00 1.00000000000000000e+00 0.00000000000000000e+00
0.00000000000000000e+00 1.00000000000000000e+00 0.00000000000000000e+00
1.24999999999773098e-01 0.00000000000000000e+00 0.00000000000000000e+00
2.49999999999410694e-01 0.00000000000000000e+00 0.00000000000000000e+00
3.74999999999045985e-01 0.00000000000000000e+00 0.00000000000000000e+00
4.99999999998692213e-01 0.00000000000000000e+00 0.00000000000000000e+00
6.24999999999010680e-01 0.00000000000000000e+00 0.00000000000000000e+00
7.49999999999340417e-01 0.00000000000000000e+00 0.00000000000000000e+00
8.74999999999670153e-01 0.00000000000000000e+00 0.00000000000000000e+00
1.00000000000000000e+00 1.24999999999773098e-01 0.00000000000000000e+00
1.00000000000000000e+00 2.49999999999410694e-01 0.00000000000000000e+00
1.00000000000000000e+00 3.74999999999045985e-01 0.00000000000000000e+00
1.00000000000000000e+00 4.99999999998692213e-01 0.00000000000000000e+00
1.00000000000000000e+00 6.24999999999010680e-01 0.00000000000000000e+00
1.00000000000000000e+00 7.49999999999340417e-01 0.00000000000000000e+00
1.00000000000000000e+00 8.74999999999670153e-01 0.00000000000000000e+00
8.74999999999501510e-01 1.00000000000000000e+00 0.00000000000000000e+00
7.50000000000347611e-01 1.00000000000000000e+00 0.00000000000000000e+00
6.25000000001215472e-01 1.00000000000000000e+00 0.00000000000000000e+00
5.00000000002061462e-01 1.00000000000000000e+00 0.00000000000000000e+00
3.75000000001562916e-01 1.00000000000000000e+00 0.00000000000000000e+00
2.50000000001041889e-01 1.00000000000000000e+00 0.00000000000000000e+00
1.25000000000520889e-01 1.00000000000000000e+00 0.00000000000000000e+00
0.00000000000000000e+00 8.74999999999501510e-01 0.00000000000000000e+00
0.00000000000000000e+00 7.50000000000347611e-01 0.00000000000000000e+00
0.00000000000000000e+00 6.25000000001215472e-01 0.00000000000000000e+00
0.00000000000000000e+00 5.00000000002061462e-01 0.00000000000000000e+00
0.00000000000000000e+00 3.75000000001562916e-01 0.00000000000000000e+00
0.00000000000000000e+00 2.50000000001041889e-01 0.00000000000000000e+00
0.00000000000000000e+00 1.25000000000520889e-01 0.00000000000000000e+00
4.37500000001812217e-01 8.91746824527095638e-01 0.00000000000000000e+00
1.21259140952891004e-01 4.31121170368537421e-01 0.00000000000000000e+00
5.62499999998851474e-01 1.08253175473039503e-01 0.00000000000000000e+00
8.89275060824883612e-01 5.64094863106358368e-01 0.00000000000000000e+00
1.08253175472303204e-01 6.87500000000781597e-01 0.00000000000000000e+00
6.90108146438291659e-01 8.92984957391013356e-01 0.00000000000000000e+00
3.12810865984171516e-01 1.04493186086312806e-01 0.00000000000000000e+00
8.81737314898519253e-01 3.30774026077783612e-01 0.00000000000000000e+00
8.90514807813106324e-01 7.96657934402468348e-01 0.00000000000000000e+00
1.88029671160921813e-01 8.94153494367702750e-01 0.00000000000000000e+00
8.12499999999505174e-01 1.08253175473340402e-01 0.00000000000000000e+00
1.20769536763807306e-01 1.86909357624087613e-01 0.00000000000000000e+00
3.12588278528275809e-01 8.92147936167084432e-01 0.00000000000000000e+00
3.77761732123614524e-01 7.85146493173050075e-01 0.00000000000000000e+00
5.00460288688282628e-01 7.83769123074356866e-01 0.00000000000000000e+00
4.40784022503779682e-01 6.77147852117152116e-01 0.00000000000000000e+00
5.64960049482758686e-01 6.76750373078604750e-01 0.00000000000000000e+00
5.00488441496667491e-01 5.67277882976254588e-01 0.00000000000000000e+00
3.86942858075964624e-01 5.67299178710291896e-01 0.00000000000000000e+00
4.43010381749300408e-01 4.56849315521853983e-01 0.00000000000000000e+00
5.63499803875024519e-01 4.58468418929084021e-01 0.00000000000000000e+00
5.01085030938511089e-01 3.50122528694036705e-01 0.00000000000000000e+00
3.79537733935528920e-01 3.48121858207084522e-01 0.00000000000000000e+00
6.25126629909403930e-01 3.50443038869099110e-01 0.00000000000000000e+00
6.87687738964385176e-01 4.58683520636719799e-01 0.00000000000000000e+00
4.37500000002005507e-01 2.42227771691985089e-01 0.00000000000000000e+00
7.50000000000572431e-01 3.50480947164804324e-01 0.00000000000000000e+00
6.86682318420782423e-01 2.47628926648089887e-01 0.00000000000000000e+00
3.14118639598226612e-01 2.49655443280459993e-01 0.00000000000000000e+00
2.44186154844417608e-01 3.57736123820169782e-01 0.00000000000000000e+00
8.12428946722115075e-01 4.55002483119614720e-01 0.00000000000000000e+00
7.50000000000323741e-01 5.66987298110077087e-01 0.00000000000000000e+00
8.22126780630412668e-01 6.76785951948369657e-01 0.00000000000000000e+00
6.98515985701787412e-01 6.82117018006120568e-01 0.00000000000000000e+00
7.62431805836071286e-01 7.86876753311131494e-01 0.00000000000000000e+00
2.35332749799225610e-01 7.70933993893514691e-01 0.00000000000000000e+00
1.08253175473432300e-01 3.12500000001174727e-01 0.00000000000000000e+00
2.22577358804196990e-01 4.73447216413417415e-01 0.00000000000000000e+00
1.37123053804012296e-01 5.61798247183628474e-01 0.00000000000000000e+00
2.18092534522186188e-01 6.54808928226181086e-01 0.00000000000000000e+00
6.28449556684464228e-01 7.85074977038041300e-01 0.00000000000000000e+00
6.87499999999265921e-01 1.08253175473287500e-01 0.00000000000000000e+00
4.37499999999108713e-01 1.08253175472998397e-01 0.00000000000000000e+00
5.63275951406996711e-01 8.92115269154263313e-01 0.00000000000000000e+00
6.27525336586824412e-01 5.68380751956143460e-01 0.00000000000000000e+00
5.62500000001439737e-01 2.42227771692085897e-01 0.00000000000000000e+00
1.04099514221391007e-01 8.12067822096912306e-01 0.00000000000000000e+00
1.91853721181112213e-01 9.29256486735807880e-02 0.00000000000000000e+00
8.96584216942977408e-01 1.93362006839170097e-01 0.00000000000000000e+00
8.08866643874162072e-01 8.97173086442379031e-01 0.00000000000000000e+00
2.07672616014595413e-01 2.56289184422071714e-01 0.00000000000000000e+00
7.98911060560467123e-01 2.50073349535875622e-01 0.00000000000000000e+00
3.26073337940642194e-01 6.77601142606061524e-01 0.00000000000000000e+00
9.15464298762108997e-01 4.37499999998869127e-01 0.00000000000000000e+00
3.28159576778800088e-01 4.57724335811834804e-01 0.00000000000000000e+00
9.22662445475900816e-01 6.87499999999175548e-01 0.00000000000000000e+00
9.15063509464947439e-02 9.08493649053510821e-01 0.00000000000000000e+00
9.08493649053632280e-01 9.08493649053677688e-01 0.00000000000000000e+00
9.15063509464177083e-02 9.15063509466180758e-02 0.00000000000000000e+00
9.08493649053554342e-01 9.15063509462962915e-02 0.00000000000000000e+00
2.69828119987633674e-01 5.65446508158569117e-01 0.00000000000000000e+00
6.24999999998925748e-01 1.75240473581355194e-01 0.00000000000000000e+00
4.99999999999344413e-01 1.75240473581507600e-01 0.00000000000000000e+00
3.75000000002324307e-01 1.75240473583843093e-01 0.00000000000000000e+00
7.39839167563654754e-01 1.75306770786745891e-01 0.00000000000000000e+00
2.51035573393093181e-01 1.74644997384466288e-01 0.00000000000000000e+00


        </DataArray>

      </Points>

      <Cells>

        <DataArray type="Int32" Name="connectivity" format="ascii">

36 67 78 67 36 71 61 33 68 58 39 62 33 61 69 62 39 85 27 28 70 64 40 66 66 37 72 40 64 87 28 33 70 36 27 70 63 35 64 62 35 63 65 48 76 65 66 72 67 41 78 33 69 70 63 65 76 48 65 72 70 69 92 71 70 92 61 68 82 39 58 83 63 64 65 42 80 83 42 83 96 67 71 84 36 70 71 65 64 66 37 66 81 32 44 45 32 22 44 33 29 68 21 22 32 44 41 67 28 29 33 72 37 75 37 20 75 23 41 44 21 32 75 34 8 73 14 15 35 30 43 68 7 8 34 20 21 75 22 23 44 38 6 74 32 45 46 29 30 68 7 34 74 32 46 75 9 42 73 6 7 74 23 24 41 46 72 75 45 44 67 8 9 73 16 17 40 30 31 43 9 10 42 5 6 38 46 45 47 56 63 76 60 54 61 56 62 63 12 13 39 26 27 36 49 47 50 53 51 54 46 48 72 56 58 62 52 55 56 49 50 51 46 47 48 53 54 57 19 20 37 56 55 58 48 47 49 52 51 53 49 51 52 52 53 55 57 54 60 48 49 76 52 56 76 49 52 76 58 55 59 53 57 77 55 53 77 59 55 77 69 61 86 43 79 97 82 43 97 25 26 78 4 5 79 11 12 80 35 62 85 18 19 81 19 37 81 64 35 87 26 36 78 5 38 79 12 39 80 86 50 92 66 40 81 50 47 84 45 67 84 14 35 85 39 13 85 61 54 86 51 50 86 35 15 87 16 40 87 3 25 88 2 18 89 0 4 90 31 0 90 1 11 91 10 1 91 24 3 88 17 2 89 50 84 92 60 61 82 68 43 82 58 59 83 69 86 92 47 45 84 80 39 83 13 14 85 54 51 86 84 71 92 11 80 91 25 78 88 4 79 90 15 16 87 41 24 88 40 17 89 43 31 90 42 10 91 18 81 89 59 93 96 38 74 95 93 77 94 34 73 93 34 93 94 77 57 94 74 34 94 59 77 93 57 60 95 94 57 95 74 94 95 93 73 96 73 42 96 78 41 88 80 42 91 79 43 90 95 60 97 38 95 97 81 40 89 79 38 97 83 59 96 60 82 97 

        </DataArray>

        <DataArray type="Int32" Name="offsets" format="ascii">

3 6 9 12 15 18 21 24 27 30 33 36 39 42 45 48 51 54 57 60 63 66 69 72 75 78 81 84 87 90 93 96 99 102 105 108 111 114 117 120 123 126 129 132 135 138 141 144 147 150 153 156 159 162 165 168 171 174 177 180 183 186 189 192 195 198 201 204 207 210 213 216 219 222 225 228 231 234 237 240 243 246 249 252 255 258 261 264 267 270 273 276 279 282 285 288 291 294 297 300 303 306 309 312 315 318 321 324 327 330 333 336 339 342 345 348 351 354 357 360 363 366 369 372 375 378 381 384 387 390 393 396 399 402 405 408 411 414 417 420 423 426 429 432 435 438 441 444 447 450 453 456 459 462 465 468 471 474 477 480 483 486 

        </DataArray>

        <DataArray type="Int32" Name="types" format="ascii">

5 5 5 5 5 5 5 5 5 5 5 5 5 5 5 5 5 5 5 5 5 5 5 5 5 5 5 5 5 5 5 5 5 5 5 5 5 5 5 5 5 5 5 5 5 5 5 5 5 5 5 5 5 5 5 5 5 5 5 5 5 5 5 5 5 5 5 5 5 5 5 5 5 5 5 5 5 5 5 5 5 5 5 5 5 5 5 5 5 5 5 5 5 5 5 5 5 5 5 5 5 5 5 5 5 5 5 5 5 5 5 5 5 5 5 5 5 5 5 5 5 5 5 5 5 5 5 5 5 5 5 5 5 5 5 5 5 5 5 5 5 5 5 5 5 5 5 5 5 5 5 5 5 5 5 5 5 5 5 5 5 5 

        </DataArray>

      </Cells>

    </Piece>

  </UnstructuredGrid>

</VTKFile>

