<?xml version="1.0"?>

<VTKFile type="UnstructuredGrid" version="0.1">

  <UnstructuredGrid>

    <Piece NumberOfPoints="486" NumberOfCells="162">

      <PointData>

        <DataArray type="Float64" Name="K" format="ascii">

1.02438242350478315e+00
1.02438242350478315e+00
1.02438242350478315e+00
1.03901078775122713e+00
1.03901078775122713e+00
1.03901078775122713e+00
1.03746901276178671e+00
1.03746901276178671e+00
1.03746901276178671e+00
1.10383368153579919e+00
1.10383368153579919e+00
1.10383368153579919e+00
1.04903233515993288e+00
1.04903233515993288e+00
1.04903233515993288e+00
1.08240297984634659e+00
1.08240297984634659e+00
1.08240297984634659e+00
1.03840045942251624e+00
1.03840045942251624e+00
1.03840045942251624e+00
9.52283808546616761e-01
9.52283808546616761e-01
9.52283808546616761e-01
9.38848907097752372e-01
9.38848907097752372e-01
9.38848907097752372e-01
9.57092773936469299e-01
9.57092773936469299e-01
9.57092773936469299e-01
1.05335009509892563e+00
1.05335009509892563e+00
1.05335009509892563e+00
1.04134763967959110e+00
1.04134763967959110e+00
1.04134763967959110e+00
1.00889949235624088e+00
1.00889949235624088e+00
1.00889949235624088e+00
1.05444077623082078e+00
1.05444077623082078e+00
1.05444077623082078e+00
1.02742147041244714e+00
1.02742147041244714e+00
1.02742147041244714e+00
9.45689631655692753e-01
9.45689631655692753e-01
9.45689631655692753e-01
9.99967016664551012e-01
9.99967016664551012e-01
9.99967016664551012e-01
1.06434950124028305e+00
1.06434950124028305e+00
1.06434950124028305e+00
1.03491909449679609e+00
1.03491909449679609e+00
1.03491909449679609e+00
9.74912483283407516e-01
9.74912483283407516e-01
9.74912483283407516e-01
1.06959378433841490e+00
1.06959378433841490e+00
1.06959378433841490e+00
1.06606646438585506e+00
1.06606646438585506e+00
1.06606646438585506e+00
1.01266220507792992e+00
1.01266220507792992e+00
1.01266220507792992e+00
1.09231738905019715e+00
1.09231738905019715e+00
1.09231738905019715e+00
9.92418053968175506e-01
9.92418053968175506e-01
9.92418053968175506e-01
1.02907486212753807e+00
1.02907486212753807e+00
1.02907486212753807e+00
1.02561606926619064e+00
1.02561606926619064e+00
1.02561606926619064e+00
1.01860015053945019e+00
1.01860015053945019e+00
1.01860015053945019e+00
1.05922045544448551e+00
1.05922045544448551e+00
1.05922045544448551e+00
9.54928849614973152e-01
9.54928849614973152e-01
9.54928849614973152e-01
9.56132282884086138e-01
9.56132282884086138e-01
9.56132282884086138e-01
9.35703931133131439e-01
9.35703931133131439e-01
9.35703931133131439e-01
9.39335854169773277e-01
9.39335854169773277e-01
9.39335854169773277e-01
1.04966451751129530e+00
1.04966451751129530e+00
1.04966451751129530e+00
9.29791557615982200e-01
9.29791557615982200e-01
9.29791557615982200e-01
9.79434837430876670e-01
9.79434837430876670e-01
9.79434837430876670e-01
1.05351080405019037e+00
1.05351080405019037e+00
1.05351080405019037e+00
9.35805748491423728e-01
9.35805748491423728e-01
9.35805748491423728e-01
9.59761255666749191e-01
9.59761255666749191e-01
9.59761255666749191e-01
9.78882642964661542e-01
9.78882642964661542e-01
9.78882642964661542e-01
9.20255007487952081e-01
9.20255007487952081e-01
9.20255007487952081e-01
9.90363448894802878e-01
9.90363448894802878e-01
9.90363448894802878e-01
9.81061333493925880e-01
9.81061333493925880e-01
9.81061333493925880e-01
1.02687058682473231e+00
1.02687058682473231e+00
1.02687058682473231e+00
9.97162874446637981e-01
9.97162874446637981e-01
9.97162874446637981e-01
9.52706826660619677e-01
9.52706826660619677e-01
9.52706826660619677e-01
9.71249426574868346e-01
9.71249426574868346e-01
9.71249426574868346e-01
9.54565506153661869e-01
9.54565506153661869e-01
9.54565506153661869e-01
9.29064920384399029e-01
9.29064920384399029e-01
9.29064920384399029e-01
1.04642940135363882e+00
1.04642940135363882e+00
1.04642940135363882e+00
9.96203775561574800e-01
9.96203775561574800e-01
9.96203775561574800e-01
9.18213323131435666e-01
9.18213323131435666e-01
9.18213323131435666e-01
9.85614608684155957e-01
9.85614608684155957e-01
9.85614608684155957e-01
9.77048301546923903e-01
9.77048301546923903e-01
9.77048301546923903e-01
9.88699771053046628e-01
9.88699771053046628e-01
9.88699771053046628e-01
9.30960946646494980e-01
9.30960946646494980e-01
9.30960946646494980e-01
9.63760667776875968e-01
9.63760667776875968e-01
9.63760667776875968e-01
9.87941827729597488e-01
9.87941827729597488e-01
9.87941827729597488e-01
9.55738392006937332e-01
9.55738392006937332e-01
9.55738392006937332e-01
1.00684057757880030e+00
1.00684057757880030e+00
1.00684057757880030e+00
9.78872161039501365e-01
9.78872161039501365e-01
9.78872161039501365e-01
9.36198277791072342e-01
9.36198277791072342e-01
9.36198277791072342e-01
9.57914053948864641e-01
9.57914053948864641e-01
9.57914053948864641e-01
1.08684929937266905e+00
1.08684929937266905e+00
1.08684929937266905e+00
1.00231766951572099e+00
1.00231766951572099e+00
1.00231766951572099e+00
1.09086364027656280e+00
1.09086364027656280e+00
1.09086364027656280e+00
1.03910544518880466e+00
1.03910544518880466e+00
1.03910544518880466e+00
1.01644479539521670e+00
1.01644479539521670e+00
1.01644479539521670e+00
1.03187243531762451e+00
1.03187243531762451e+00
1.03187243531762451e+00
1.05509144095777208e+00
1.05509144095777208e+00
1.05509144095777208e+00
9.63267734046717172e-01
9.63267734046717172e-01
9.63267734046717172e-01
1.11314994759005148e+00
1.11314994759005148e+00
1.11314994759005148e+00
1.11383047275470837e+00
1.11383047275470837e+00
1.11383047275470837e+00
1.05620673947192167e+00
1.05620673947192167e+00
1.05620673947192167e+00
9.84899694637302092e-01
9.84899694637302092e-01
9.84899694637302092e-01
1.03673698907199041e+00
1.03673698907199041e+00
1.03673698907199041e+00
9.98199406759000873e-01
9.98199406759000873e-01
9.98199406759000873e-01
1.11195171161416662e+00
1.11195171161416662e+00
1.11195171161416662e+00
1.03143407901726381e+00
1.03143407901726381e+00
1.03143407901726381e+00
1.08302691226058534e+00
1.08302691226058534e+00
1.08302691226058534e+00
1.08599734280759330e+00
1.08599734280759330e+00
1.08599734280759330e+00
1.09219109576542572e+00
1.09219109576542572e+00
1.09219109576542572e+00
1.00420428933393624e+00
1.00420428933393624e+00
1.00420428933393624e+00
1.06409237655014999e+00
1.06409237655014999e+00
1.06409237655014999e+00
1.11220200309605000e+00
1.11220200309605000e+00
1.11220200309605000e+00
1.09855968607803622e+00
1.09855968607803622e+00
1.09855968607803622e+00
1.08398668587849656e+00
1.08398668587849656e+00
1.08398668587849656e+00
1.04104209971865602e+00
1.04104209971865602e+00
1.04104209971865602e+00
1.06273411647959626e+00
1.06273411647959626e+00
1.06273411647959626e+00
1.05241586980343360e+00
1.05241586980343360e+00
1.05241586980343360e+00
1.04466148215737675e+00
1.04466148215737675e+00
1.04466148215737675e+00
9.67945284689935237e-01
9.67945284689935237e-01
9.67945284689935237e-01
9.78911343602693163e-01
9.78911343602693163e-01
9.78911343602693163e-01
1.00646444113656797e+00
1.00646444113656797e+00
1.00646444113656797e+00
9.44525892875994977e-01
9.44525892875994977e-01
9.44525892875994977e-01
9.98102530392405596e-01
9.98102530392405596e-01
9.98102530392405596e-01
1.05891113482954546e+00
1.05891113482954546e+00
1.05891113482954546e+00
1.01174449034807878e+00
1.01174449034807878e+00
1.01174449034807878e+00
9.87539313587243228e-01
9.87539313587243228e-01
9.87539313587243228e-01
9.79813793626441387e-01
9.79813793626441387e-01
9.79813793626441387e-01
1.01847355142821083e+00
1.01847355142821083e+00
1.01847355142821083e+00
9.36488114460899856e-01
9.36488114460899856e-01
9.36488114460899856e-01
1.03595911102559857e+00
1.03595911102559857e+00
1.03595911102559857e+00
1.04469358944588642e+00
1.04469358944588642e+00
1.04469358944588642e+00
9.58229638538988793e-01
9.58229638538988793e-01
9.58229638538988793e-01
1.00663435908933607e+00
1.00663435908933607e+00
1.00663435908933607e+00
9.81089194313839563e-01
9.81089194313839563e-01
9.81089194313839563e-01
1.02500595055372723e+00
1.02500595055372723e+00
1.02500595055372723e+00
1.05556892141418812e+00
1.05556892141418812e+00
1.05556892141418812e+00
1.02907056216102633e+00
1.02907056216102633e+00
1.02907056216102633e+00
1.04712905082410268e+00
1.04712905082410268e+00
1.04712905082410268e+00
9.66909256301831110e-01
9.66909256301831110e-01
9.66909256301831110e-01
9.45198910461184760e-01
9.45198910461184760e-01
9.45198910461184760e-01
1.00815307296013934e+00
1.00815307296013934e+00
1.00815307296013934e+00
1.03979140802188597e+00
1.03979140802188597e+00
1.03979140802188597e+00
9.53824394276914234e-01
9.53824394276914234e-01
9.53824394276914234e-01
9.60821583448132177e-01
9.60821583448132177e-01
9.60821583448132177e-01
9.64027467164157104e-01
9.64027467164157104e-01
9.64027467164157104e-01
9.62053393873234519e-01
9.62053393873234519e-01
9.62053393873234519e-01
1.00046711205674499e+00
1.00046711205674499e+00
1.00046711205674499e+00
1.02648743187681757e+00
1.02648743187681757e+00
1.02648743187681757e+00
1.02840197721588855e+00
1.02840197721588855e+00
1.02840197721588855e+00
9.88917014605882772e-01
9.88917014605882772e-01
9.88917014605882772e-01
1.00975859743922847e+00
1.00975859743922847e+00
1.00975859743922847e+00
1.07820915369466941e+00
1.07820915369466941e+00
1.07820915369466941e+00
1.05679093707120608e+00
1.05679093707120608e+00
1.05679093707120608e+00
9.75310339593436271e-01
9.75310339593436271e-01
9.75310339593436271e-01
1.06111500673308279e+00
1.06111500673308279e+00
1.06111500673308279e+00
1.02879003456462215e+00
1.02879003456462215e+00
1.02879003456462215e+00
1.04455663982163571e+00
1.04455663982163571e+00
1.04455663982163571e+00
1.03877669558671326e+00
1.03877669558671326e+00
1.03877669558671326e+00
9.85863072058570045e-01
9.85863072058570045e-01
9.85863072058570045e-01
1.00393379801152172e+00
1.00393379801152172e+00
1.00393379801152172e+00
9.61016334181176490e-01
9.61016334181176490e-01
9.61016334181176490e-01
9.32103944840511622e-01
9.32103944840511622e-01
9.32103944840511622e-01
9.89654688555666850e-01
9.89654688555666850e-01
9.89654688555666850e-01
9.82050667031494018e-01
9.82050667031494018e-01
9.82050667031494018e-01
9.88258435690098191e-01
9.88258435690098191e-01
9.88258435690098191e-01
9.77268698801033286e-01
9.77268698801033286e-01
9.77268698801033286e-01
1.00734959118956691e+00
1.00734959118956691e+00
1.00734959118956691e+00
1.01809410320593785e+00
1.01809410320593785e+00
1.01809410320593785e+00
9.61018403761035311e-01
9.61018403761035311e-01
9.61018403761035311e-01
1.01630101731306266e+00
1.01630101731306266e+00
1.01630101731306266e+00
9.93982683904439113e-01
9.93982683904439113e-01
9.93982683904439113e-01
1.00546040034660455e+00
1.00546040034660455e+00
1.00546040034660455e+00
1.02289519000020568e+00
1.02289519000020568e+00
1.02289519000020568e+00
1.00324244403098217e+00
1.00324244403098217e+00
1.00324244403098217e+00
1.02265120562548617e+00
1.02265120562548617e+00
1.02265120562548617e+00
9.84184427375130344e-01
9.84184427375130344e-01
9.84184427375130344e-01
1.00248928087672695e+00
1.00248928087672695e+00
1.00248928087672695e+00
9.92089135324068838e-01
9.92089135324068838e-01
9.92089135324068838e-01
9.98904062748052546e-01
9.98904062748052546e-01
9.98904062748052546e-01
9.99144397533369810e-01
9.99144397533369810e-01
9.99144397533369810e-01
9.96273872193900512e-01
9.96273872193900512e-01
9.96273872193900512e-01
9.98094112087458130e-01
9.98094112087458130e-01
9.98094112087458130e-01
9.78574397120533734e-01
9.78574397120533734e-01
9.78574397120533734e-01
9.57449952638922519e-01
9.57449952638922519e-01
9.57449952638922519e-01
9.45424099632193315e-01
9.45424099632193315e-01
9.45424099632193315e-01
9.78585057434698924e-01
9.78585057434698924e-01
9.78585057434698924e-01
9.42524733791562541e-01
9.42524733791562541e-01
9.42524733791562541e-01
1.04430987831619682e+00
1.04430987831619682e+00
1.04430987831619682e+00
9.65617218485429807e-01
9.65617218485429807e-01
9.65617218485429807e-01


        </DataArray>

      </PointData>

      <CellData/>

      <Points>

        <DataArray type="Float64" NumberOfComponents="3" format="ascii">

0.1082531754723032 0.6875000000007816 0 0.23533274979922561 0.77093399389351469 0 0.10409951422139101 0.81206782209691231 0 0.23533274979922561 0.77093399389351469 0 0.1082531754723032 0.6875000000007816 0 0.21809253452218619 0.65480892822618109 0 0.24418615484441761 0.35773612382016978 0 0.121259140952891 0.43112117036853742 0 0.1082531754734323 0.31250000000117473 0 0.75000000000057243 0.35048094716480432 0 0.88173731489851925 0.33077402607778361 0 0.81242894672211508 0.45500248311961472 0 0.121259140952891 0.43112117036853742 0 0.24418615484441761 0.35773612382016978 0 0.22257735880419699 0.47344721641341742 0 0.81242894672211508 0.45500248311961472 0 0.88173731489851925 0.33077402607778361 0 0.915464298762109 0.43749999999886913 0 0 0.62500000000121547 0 0 0.50000000000206146 0 0.1371230538040123 0.56179824718362847 0 0.82212678063041267 0.67678595194836966 0 0.89051480781310632 0.79665793440246835 0 0.76243180583607129 0.78687675331113149 0 0.76243180583607129 0.78687675331113149 0 0.69010814643829166 0.89298495739101336 0 0.62844955668446423 0.7850749770380413 0 0.89051480781310632 0.79665793440246835 0 0.82212678063041267 0.67678595194836966 0 0.92266244547590082 0.68749999999917555 0 0 0.50000000000206146 0 0.121259140952891 0.43112117036853742 0 0.1371230538040123 0.56179824718362847 0 0.1082531754723032 0.6875000000007816 0 0 0.62500000000121547 0 0.1371230538040123 0.56179824718362847 0 0.75000000000032374 0.56698729811007709 0 0.88927506082488361 0.56409486310635837 0 0.82212678063041267 0.67678595194836966 0 0.81242894672211508 0.45500248311961472 0 0.88927506082488361 0.56409486310635837 0 0.75000000000032374 0.56698729811007709 0 0.69851598570178741 0.68211701800612057 0 0.56496004948275869 0.67675037307860475 0 0.62752533658682441 0.56838075195614346 0 0.69851598570178741 0.68211701800612057 0 0.76243180583607129 0.78687675331113149 0 0.62844955668446423 0.7850749770380413 0 0.23533274979922561 0.77093399389351469 0 0.18802967116092181 0.89415349436770275 0 0.10409951422139101 0.81206782209691231 0 0.121259140952891 0.43112117036853742 0 0.22257735880419699 0.47344721641341742 0 0.1371230538040123 0.56179824718362847 0 0.75000000000032374 0.56698729811007709 0 0.69851598570178741 0.68211701800612057 0 0.62752533658682441 0.56838075195614346 0 0.56496004948275869 0.67675037307860475 0 0.69851598570178741 0.68211701800612057 0 0.62844955668446423 0.7850749770380413 0 0.1371230538040123 0.56179824718362847 0 0.22257735880419699 0.47344721641341742 0 0.26982811998763367 0.56544650815856912 0 0.21809253452218619 0.65480892822618109 0 0.1371230538040123 0.56179824718362847 0 0.26982811998763367 0.56544650815856912 0 0.24418615484441761 0.35773612382016978 0 0.1082531754734323 0.31250000000117473 0 0.20767261601459541 0.25628918442207171 0 0.88173731489851925 0.33077402607778361 0 0.75000000000057243 0.35048094716480432 0 0.79891106056046712 0.25007334953587562 0 0.75000000000032374 0.56698729811007709 0 0.82212678063041267 0.67678595194836966 0 0.69851598570178741 0.68211701800612057 0 0.81249999999950517 0.1082531754733404 0 0.89658421694297741 0.1933620068391701 0 0.79891106056046712 0.25007334953587562 0 0.81249999999950517 0.1082531754733404 0 0.79891106056046712 0.25007334953587562 0 0.73983916756365475 0.17530677078674589 0 0.23533274979922561 0.77093399389351469 0 0.21809253452218619 0.65480892822618109 0 0.32607333794064219 0.67760114260606152 0 0.1082531754723032 0.6875000000007816 0 0.1371230538040123 0.56179824718362847 0 0.21809253452218619 0.65480892822618109 0 0.69851598570178741 0.68211701800612057 0 0.82212678063041267 0.67678595194836966 0 0.76243180583607129 0.78687675331113149 0 0.69010814643829166 0.89298495739101336 0 0.76243180583607129 0.78687675331113149 0 0.80886664387416207 0.89717308644237903 0 0.43750000000181222 0.89174682452709564 0 0.31258827852827581 0.89214793616708443 0 0.37776173212361452 0.78514649317305008 0 0.43750000000181222 0.89174682452709564 0 0.37500000000156292 1 0 0.31258827852827581 0.89214793616708443 0 0.121259140952891 0.43112117036853742 0 0 0.37500000000156292 0 0.1082531754734323 0.31250000000117473 0 0.50000000000206146 1 0 0.37500000000156292 1 0 0.43750000000181222 0.89174682452709564 0 0.31258827852827581 0.89214793616708443 0 0.18802967116092181 0.89415349436770275 0 0.23533274979922561 0.77093399389351469 0 0 0.50000000000206146 0 0 0.37500000000156292 0 0.121259140952891 0.43112117036853742 0 0.62844955668446423 0.7850749770380413 0 0.69010814643829166 0.89298495739101336 0 0.56327595140699671 0.89211526915426331 0 0.69010814643829166 0.89298495739101336 0 0.62500000000121547 1 0 0.56327595140699671 0.89211526915426331 0 0.25000000000104189 1 0 0.18802967116092181 0.89415349436770275 0 0.31258827852827581 0.89214793616708443 0 0.50000000000206146 1 0 0.43750000000181222 0.89174682452709564 0 0.56327595140699671 0.89211526915426331 0 0.56249999999885147 0.1082531754730395 0 0.62499999999901068 0 0 0.68749999999926592 0.1082531754732875 0 1 0.49999999999869221 0 1 0.62499999999901068 0 0.88927506082488361 0.56409486310635837 0 0 0.25000000000104189 0 0.12076953676380731 0.18690935762408761 0 0.1082531754734323 0.31250000000117473 0 0.49999999999869221 0 0 0.62499999999901068 0 0 0.56249999999885147 0.1082531754730395 0 0.62500000000121547 1 0 0.50000000000206146 1 0 0.56327595140699671 0.89211526915426331 0 0.37500000000156292 1 0 0.25000000000104189 1 0 0.31258827852827581 0.89214793616708443 0 0.31281086598417152 0.10449318608631281 0 0.37499999999904599 0 0 0.43749999999910871 0.1082531754729984 0 0.43750000000181222 0.89174682452709564 0 0.37776173212361452 0.78514649317305008 0 0.50046028868828263 0.78376912307435687 0 0 0.37500000000156292 0 0 0.25000000000104189 0 0.1082531754734323 0.31250000000117473 0 0.49999999999869221 0 0 0.56249999999885147 0.1082531754730395 0 0.43749999999910871 0.1082531754729984 0 0.43750000000181222 0.89174682452709564 0 0.50046028868828263 0.78376912307435687 0 0.56327595140699671 0.89211526915426331 0 0.74999999999934042 0 0 0.81249999999950517 0.1082531754733404 0 0.68749999999926592 0.1082531754732875 0 0.37499999999904599 0 0 0.49999999999869221 0 0 0.43749999999910871 0.1082531754729984 0 0.25000000000104189 1 0 0.12500000000052089 1 0 0.18802967116092181 0.89415349436770275 0 0.50046028868828263 0.78376912307435687 0 0.62844955668446423 0.7850749770380413 0 0.56327595140699671 0.89211526915426331 0 0.37776173212361452 0.78514649317305008 0 0.31258827852827581 0.89214793616708443 0 0.23533274979922561 0.77093399389351469 0 0.62499999999901068 0 0 0.74999999999934042 0 0 0.68749999999926592 0.1082531754732875 0 1 0.74999999999934042 0 1 0.87499999999967015 0 0.89051480781310632 0.79665793440246835 0 0 0.25000000000104189 0 0 0.12500000000052089 0 0.12076953676380731 0.18690935762408761 0 0.74999999999934042 0 0 0.87499999999967015 0 0 0.81249999999950517 0.1082531754733404 0 0.24999999999941069 0 0 0.37499999999904599 0 0 0.31281086598417152 0.10449318608631281 0 0.50046028868828263 0.78376912307435687 0 0.37776173212361452 0.78514649317305008 0 0.44078402250377968 0.67714785211715212 0 0.68768773896438518 0.4586835206367198 0 0.75000000000032374 0.56698729811007709 0 0.62752533658682441 0.56838075195614346 0 0.31411863959822661 0.24965544328045999 0 0.37953773393552892 0.34812185820708452 0 0.24418615484441761 0.35773612382016978 0 0.68768773896438518 0.4586835206367198 0 0.81242894672211508 0.45500248311961472 0 0.75000000000032374 0.56698729811007709 0 1 0.24999999999941069 0 1 0.37499999999904599 0 0.88173731489851925 0.33077402607778361 0 0 0.75000000000034761 0 0 0.62500000000121547 0 0.1082531754723032 0.6875000000007816 0 0.50048844149666749 0.56727788297625459 0 0.44078402250377968 0.67714785211715212 0 0.38694285807596462 0.5672991787102919 0 0.50108503093851109 0.35012252869403671 0 0.44301038174930041 0.45684931552185398 0 0.37953773393552892 0.34812185820708452 0 0.50046028868828263 0.78376912307435687 0 0.56496004948275869 0.67675037307860475 0 0.62844955668446423 0.7850749770380413 0 0.68768773896438518 0.4586835206367198 0 0.75000000000057243 0.35048094716480432 0 0.81242894672211508 0.45500248311961472 0 0.56349980387502452 0.45846841892908402 0 0.62512662990940393 0.35044303886909911 0 0.68768773896438518 0.4586835206367198 0 0.50048844149666749 0.56727788297625459 0 0.38694285807596462 0.5672991787102919 0 0.44301038174930041 0.45684931552185398 0 0.50046028868828263 0.78376912307435687 0 0.44078402250377968 0.67714785211715212 0 0.56496004948275869 0.67675037307860475 0 0.50108503093851109 0.35012252869403671 0 0.37953773393552892 0.34812185820708452 0 0.43750000000200551 0.24222777169198509 0 0.75000000000034761 1 0 0.62500000000121547 1 0 0.69010814643829166 0.89298495739101336 0 0.68768773896438518 0.4586835206367198 0 0.62512662990940393 0.35044303886909911 0 0.75000000000057243 0.35048094716480432 0 0.56496004948275869 0.67675037307860475 0 0.44078402250377968 0.67714785211715212 0 0.50048844149666749 0.56727788297625459 0 0.56349980387502452 0.45846841892908402 0 0.44301038174930041 0.45684931552185398 0 0.50108503093851109 0.35012252869403671 0 0.50048844149666749 0.56727788297625459 0 0.44301038174930041 0.45684931552185398 0 0.56349980387502452 0.45846841892908402 0 0.56349980387502452 0.45846841892908402 0 0.50108503093851109 0.35012252869403671 0 0.62512662990940393 0.35044303886909911 0 0.43750000000200551 0.24222777169198509 0 0.37953773393552892 0.34812185820708452 0 0.31411863959822661 0.24965544328045999 0 0.56496004948275869 0.67675037307860475 0 0.50048844149666749 0.56727788297625459 0 0.62752533658682441 0.56838075195614346 0 0.56349980387502452 0.45846841892908402 0 0.68768773896438518 0.4586835206367198 0 0.62752533658682441 0.56838075195614346 0 0.50048844149666749 0.56727788297625459 0 0.56349980387502452 0.45846841892908402 0 0.62752533658682441 0.56838075195614346 0 0.75000000000057243 0.35048094716480432 0 0.62512662990940393 0.35044303886909911 0 0.68668231842078242 0.24762892664808989 0 0.50108503093851109 0.35012252869403671 0 0.43750000000200551 0.24222777169198509 0 0.56250000000143974 0.2422277716920859 0 0.62512662990940393 0.35044303886909911 0 0.50108503093851109 0.35012252869403671 0 0.56250000000143974 0.2422277716920859 0 0.68668231842078242 0.24762892664808989 0 0.62512662990940393 0.35044303886909911 0 0.56250000000143974 0.2422277716920859 0 0.22257735880419699 0.47344721641341742 0 0.24418615484441761 0.35773612382016978 0 0.32815957677880009 0.4577243358118348 0 0.12076953676380731 0.18690935762408761 0 0.19185372118111221 0.092925648673580788 0 0.25103557339309318 0.17464499738446629 0 0.20767261601459541 0.25628918442207171 0 0.12076953676380731 0.18690935762408761 0 0.25103557339309318 0.17464499738446629 0 0 0.87499999999950151 0 0 0.75000000000034761 0 0.10409951422139101 0.81206782209691231 0 0.1249999999997731 0 0 0.24999999999941069 0 0 0.19185372118111221 0.092925648673580788 0 1 0.1249999999997731 0 1 0.24999999999941069 0 0.89658421694297741 0.1933620068391701 0 0.88927506082488361 0.56409486310635837 0 0.81242894672211508 0.45500248311961472 0 0.915464298762109 0.43749999999886913 0 0.87499999999950151 1 0 0.75000000000034761 1 0 0.80886664387416207 0.89717308644237903 0 0.75000000000034761 1 0 0.69010814643829166 0.89298495739101336 0 0.80886664387416207 0.89717308644237903 0 0.82212678063041267 0.67678595194836966 0 0.88927506082488361 0.56409486310635837 0 0.92266244547590082 0.68749999999917555 0 0 0.75000000000034761 0 0.1082531754723032 0.6875000000007816 0 0.10409951422139101 0.81206782209691231 0 0.24999999999941069 0 0 0.31281086598417152 0.10449318608631281 0 0.19185372118111221 0.092925648673580788 0 1 0.24999999999941069 0 0.88173731489851925 0.33077402607778361 0 0.89658421694297741 0.1933620068391701 0 0.32815957677880009 0.4577243358118348 0 0.38694285807596462 0.5672991787102919 0 0.26982811998763367 0.56544650815856912 0 0.76243180583607129 0.78687675331113149 0 0.89051480781310632 0.79665793440246835 0 0.80886664387416207 0.89717308644237903 0 0.38694285807596462 0.5672991787102919 0 0.44078402250377968 0.67714785211715212 0 0.32607333794064219 0.67760114260606152 0 0.37776173212361452 0.78514649317305008 0 0.23533274979922561 0.77093399389351469 0 0.32607333794064219 0.67760114260606152 0 1 0.49999999999869221 0 0.88927506082488361 0.56409486310635837 0 0.915464298762109 0.43749999999886913 0 0.88173731489851925 0.33077402607778361 0 1 0.37499999999904599 0 0.915464298762109 0.43749999999886913 0 0.24418615484441761 0.35773612382016978 0 0.37953773393552892 0.34812185820708452 0 0.32815957677880009 0.4577243358118348 0 0.44301038174930041 0.45684931552185398 0 0.38694285807596462 0.5672991787102919 0 0.32815957677880009 0.4577243358118348 0 0.88927506082488361 0.56409486310635837 0 1 0.62499999999901068 0 0.92266244547590082 0.68749999999917555 0 1 0.74999999999934042 0 0.89051480781310632 0.79665793440246835 0 0.92266244547590082 0.68749999999917555 0 0 1 0 0 0.87499999999950151 0 0.091506350946494744 0.90849364905351082 0 1 1 0 0.87499999999950151 1 0 0.90849364905363228 0.90849364905367769 0 0 0 0 0.1249999999997731 0 0 0.091506350946417708 0.091506350946618076 0 0 0.12500000000052089 0 0 0 0 0.091506350946417708 0.091506350946618076 0 1 0 0 1 0.1249999999997731 0 0.90849364905355434 0.091506350946296292 0 0.87499999999967015 0 0 1 0 0 0.90849364905355434 0.091506350946296292 0 0.12500000000052089 1 0 0 1 0 0.091506350946494744 0.90849364905351082 0 1 0.87499999999967015 0 1 1 0 0.90849364905363228 0.90849364905367769 0 0.38694285807596462 0.5672991787102919 0 0.32607333794064219 0.67760114260606152 0 0.26982811998763367 0.56544650815856912 0 0.31411863959822661 0.24965544328045999 0 0.24418615484441761 0.35773612382016978 0 0.20767261601459541 0.25628918442207171 0 0.1082531754734323 0.31250000000117473 0 0.12076953676380731 0.18690935762408761 0 0.20767261601459541 0.25628918442207171 0 0.75000000000057243 0.35048094716480432 0 0.68668231842078242 0.24762892664808989 0 0.79891106056046712 0.25007334953587562 0 0.22257735880419699 0.47344721641341742 0 0.32815957677880009 0.4577243358118348 0 0.26982811998763367 0.56544650815856912 0 0.44078402250377968 0.67714785211715212 0 0.37776173212361452 0.78514649317305008 0 0.32607333794064219 0.67760114260606152 0 0.89658421694297741 0.1933620068391701 0 0.88173731489851925 0.33077402607778361 0 0.79891106056046712 0.25007334953587562 0 1 0.37499999999904599 0 1 0.49999999999869221 0 0.915464298762109 0.43749999999886913 0 0.37953773393552892 0.34812185820708452 0 0.44301038174930041 0.45684931552185398 0 0.32815957677880009 0.4577243358118348 0 0.32607333794064219 0.67760114260606152 0 0.21809253452218619 0.65480892822618109 0 0.26982811998763367 0.56544650815856912 0 1 0.1249999999997731 0 0.89658421694297741 0.1933620068391701 0 0.90849364905355434 0.091506350946296292 0 0 0.87499999999950151 0 0.10409951422139101 0.81206782209691231 0 0.091506350946494744 0.90849364905351082 0 0.1249999999997731 0 0 0.19185372118111221 0.092925648673580788 0 0.091506350946417708 0.091506350946618076 0 1 0.62499999999901068 0 1 0.74999999999934042 0 0.92266244547590082 0.68749999999917555 0 0.18802967116092181 0.89415349436770275 0 0.12500000000052089 1 0 0.091506350946494744 0.90849364905351082 0 0.89051480781310632 0.79665793440246835 0 1 0.87499999999967015 0 0.90849364905363228 0.90849364905367769 0 0.12076953676380731 0.18690935762408761 0 0 0.12500000000052089 0 0.091506350946417708 0.091506350946618076 0 0.81249999999950517 0.1082531754733404 0 0.87499999999967015 0 0 0.90849364905355434 0.091506350946296292 0 0.87499999999950151 1 0 0.80886664387416207 0.89717308644237903 0 0.90849364905363228 0.90849364905367769 0 0.68668231842078242 0.24762892664808989 0 0.62499999999892575 0.17524047358135519 0 0.73983916756365475 0.17530677078674589 0 0.31281086598417152 0.10449318608631281 0 0.43749999999910871 0.1082531754729984 0 0.37500000000232431 0.17524047358384309 0 0.62499999999892575 0.17524047358135519 0 0.56250000000143974 0.2422277716920859 0 0.49999999999934441 0.1752404735815076 0 0.56249999999885147 0.1082531754730395 0 0.68749999999926592 0.1082531754732875 0 0.62499999999892575 0.17524047358135519 0 0.56249999999885147 0.1082531754730395 0 0.62499999999892575 0.17524047358135519 0 0.49999999999934441 0.1752404735815076 0 0.56250000000143974 0.2422277716920859 0 0.43750000000200551 0.24222777169198509 0 0.49999999999934441 0.1752404735815076 0 0.43749999999910871 0.1082531754729984 0 0.56249999999885147 0.1082531754730395 0 0.49999999999934441 0.1752404735815076 0 0.68668231842078242 0.24762892664808989 0 0.56250000000143974 0.2422277716920859 0 0.62499999999892575 0.17524047358135519 0 0.43750000000200551 0.24222777169198509 0 0.31411863959822661 0.24965544328045999 0 0.37500000000232431 0.17524047358384309 0 0.49999999999934441 0.1752404735815076 0 0.43750000000200551 0.24222777169198509 0 0.37500000000232431 0.17524047358384309 0 0.43749999999910871 0.1082531754729984 0 0.49999999999934441 0.1752404735815076 0 0.37500000000232431 0.17524047358384309 0 0.62499999999892575 0.17524047358135519 0 0.68749999999926592 0.1082531754732875 0 0.73983916756365475 0.17530677078674589 0 0.68749999999926592 0.1082531754732875 0 0.81249999999950517 0.1082531754733404 0 0.73983916756365475 0.17530677078674589 0 0.10409951422139101 0.81206782209691231 0 0.18802967116092181 0.89415349436770275 0 0.091506350946494744 0.90849364905351082 0 0.89658421694297741 0.1933620068391701 0 0.81249999999950517 0.1082531754733404 0 0.90849364905355434 0.091506350946296292 0 0.19185372118111221 0.092925648673580788 0 0.12076953676380731 0.18690935762408761 0 0.091506350946417708 0.091506350946618076 0 0.37500000000232431 0.17524047358384309 0 0.31411863959822661 0.24965544328045999 0 0.25103557339309318 0.17464499738446629 0 0.31281086598417152 0.10449318608631281 0 0.37500000000232431 0.17524047358384309 0 0.25103557339309318 0.17464499738446629 0 0.80886664387416207 0.89717308644237903 0 0.89051480781310632 0.79665793440246835 0 0.90849364905363228 0.90849364905367769 0 0.19185372118111221 0.092925648673580788 0 0.31281086598417152 0.10449318608631281 0 0.25103557339309318 0.17464499738446629 0 0.79891106056046712 0.25007334953587562 0 0.68668231842078242 0.24762892664808989 0 0.73983916756365475 0.17530677078674589 0 0.31411863959822661 0.24965544328045999 0 0.20767261601459541 0.25628918442207171 0 0.25103557339309318 0.17464499738446629 0 

        </DataArray>

      </Points>

      <Cells>

        <DataArray type="Int32" Name="connectivity" format="ascii">

0 1 2 3 4 5 6 7 8 9 10 11 12 13 14 15 16 17 18 19 20 21 22 23 24 25 26 27 28 29 30 31 32 33 34 35 36 37 38 39 40 41 42 43 44 45 46 47 48 49 50 51 52 53 54 55 56 57 58 59 60 61 62 63 64 65 66 67 68 69 70 71 72 73 74 75 76 77 78 79 80 81 82 83 84 85 86 87 88 89 90 91 92 93 94 95 96 97 98 99 100 101 102 103 104 105 106 107 108 109 110 111 112 113 114 115 116 117 118 119 120 121 122 123 124 125 126 127 128 129 130 131 132 133 134 135 136 137 138 139 140 141 142 143 144 145 146 147 148 149 150 151 152 153 154 155 156 157 158 159 160 161 162 163 164 165 166 167 168 169 170 171 172 173 174 175 176 177 178 179 180 181 182 183 184 185 186 187 188 189 190 191 192 193 194 195 196 197 198 199 200 201 202 203 204 205 206 207 208 209 210 211 212 213 214 215 216 217 218 219 220 221 222 223 224 225 226 227 228 229 230 231 232 233 234 235 236 237 238 239 240 241 242 243 244 245 246 247 248 249 250 251 252 253 254 255 256 257 258 259 260 261 262 263 264 265 266 267 268 269 270 271 272 273 274 275 276 277 278 279 280 281 282 283 284 285 286 287 288 289 290 291 292 293 294 295 296 297 298 299 300 301 302 303 304 305 306 307 308 309 310 311 312 313 314 315 316 317 318 319 320 321 322 323 324 325 326 327 328 329 330 331 332 333 334 335 336 337 338 339 340 341 342 343 344 345 346 347 348 349 350 351 352 353 354 355 356 357 358 359 360 361 362 363 364 365 366 367 368 369 370 371 372 373 374 375 376 377 378 379 380 381 382 383 384 385 386 387 388 389 390 391 392 393 394 395 396 397 398 399 400 401 402 403 404 405 406 407 408 409 410 411 412 413 414 415 416 417 418 419 420 421 422 423 424 425 426 427 428 429 430 431 432 433 434 435 436 437 438 439 440 441 442 443 444 445 446 447 448 449 450 451 452 453 454 455 456 457 458 459 460 461 462 463 464 465 466 467 468 469 470 471 472 473 474 475 476 477 478 479 480 481 482 483 484 485 

        </DataArray>

        <DataArray type="Int32" Name="offsets" format="ascii">

3 6 9 12 15 18 21 24 27 30 33 36 39 42 45 48 51 54 57 60 63 66 69 72 75 78 81 84 87 90 93 96 99 102 105 108 111 114 117 120 123 126 129 132 135 138 141 144 147 150 153 156 159 162 165 168 171 174 177 180 183 186 189 192 195 198 201 204 207 210 213 216 219 222 225 228 231 234 237 240 243 246 249 252 255 258 261 264 267 270 273 276 279 282 285 288 291 294 297 300 303 306 309 312 315 318 321 324 327 330 333 336 339 342 345 348 351 354 357 360 363 366 369 372 375 378 381 384 387 390 393 396 399 402 405 408 411 414 417 420 423 426 429 432 435 438 441 444 447 450 453 456 459 462 465 468 471 474 477 480 483 486 

        </DataArray>

        <DataArray type="Int32" Name="types" format="ascii">

5 5 5 5 5 5 5 5 5 5 5 5 5 5 5 5 5 5 5 5 5 5 5 5 5 5 5 5 5 5 5 5 5 5 5 5 5 5 5 5 5 5 5 5 5 5 5 5 5 5 5 5 5 5 5 5 5 5 5 5 5 5 5 5 5 5 5 5 5 5 5 5 5 5 5 5 5 5 5 5 5 5 5 5 5 5 5 5 5 5 5 5 5 5 5 5 5 5 5 5 5 5 5 5 5 5 5 5 5 5 5 5 5 5 5 5 5 5 5 5 5 5 5 5 5 5 5 5 5 5 5 5 5 5 5 5 5 5 5 5 5 5 5 5 5 5 5 5 5 5 5 5 5 5 5 5 5 5 5 5 5 5 

        </DataArray>

      </Cells>

    </Piece>

  </UnstructuredGrid>

</VTKFile>

