<?xml version="1.0"?>

<VTKFile type="UnstructuredGrid" version="0.1">

  <UnstructuredGrid>

    <Piece NumberOfPoints="486" NumberOfCells="162">

      <PointData>

        <DataArray type="Float64" Name="K" format="ascii">

9.71633404692615832e-01
9.71633404692615832e-01
9.71633404692615832e-01
9.75305677575443508e-01
9.75305677575443508e-01
9.75305677575443508e-01
1.00650116066938322e+00
1.00650116066938322e+00
1.00650116066938322e+00
1.03060498043385684e+00
1.03060498043385684e+00
1.03060498043385684e+00
1.00173386524970387e+00
1.00173386524970387e+00
1.00173386524970387e+00
1.03581400862280582e+00
1.03581400862280582e+00
1.03581400862280582e+00
1.01262874353268284e+00
1.01262874353268284e+00
1.01262874353268284e+00
9.04073650669607209e-01
9.04073650669607209e-01
9.04073650669607209e-01
9.53980861362966670e-01
9.53980861362966670e-01
9.53980861362966670e-01
9.01221830069274810e-01
9.01221830069274810e-01
9.01221830069274810e-01
1.01115058388576018e+00
1.01115058388576018e+00
1.01115058388576018e+00
9.89272418541497722e-01
9.89272418541497722e-01
9.89272418541497722e-01
9.65641712897109317e-01
9.65641712897109317e-01
9.65641712897109317e-01
1.00265927112334041e+00
1.00265927112334041e+00
1.00265927112334041e+00
9.98642391918868833e-01
9.98642391918868833e-01
9.98642391918868833e-01
9.62726335335237104e-01
9.62726335335237104e-01
9.62726335335237104e-01
9.92812054377863351e-01
9.92812054377863351e-01
9.92812054377863351e-01
9.97063509091939526e-01
9.97063509091939526e-01
9.97063509091939526e-01
9.98709468141928514e-01
9.98709468141928514e-01
9.98709468141928514e-01
9.86253449027783780e-01
9.86253449027783780e-01
9.86253449027783780e-01
9.82832036316703461e-01
9.82832036316703461e-01
9.82832036316703461e-01
9.77276200260383865e-01
9.77276200260383865e-01
9.77276200260383865e-01
1.00320264369703738e+00
1.00320264369703738e+00
1.00320264369703738e+00
1.02290275662828600e+00
1.02290275662828600e+00
1.02290275662828600e+00
9.71184608251904224e-01
9.71184608251904224e-01
9.71184608251904224e-01
1.00283103389605266e+00
1.00283103389605266e+00
1.00283103389605266e+00
1.00533675965936986e+00
1.00533675965936986e+00
1.00533675965936986e+00
1.00355396704880828e+00
1.00355396704880828e+00
1.00355396704880828e+00
9.70807858273106117e-01
9.70807858273106117e-01
9.70807858273106117e-01
9.41558327338970824e-01
9.41558327338970824e-01
9.41558327338970824e-01
9.25495593429238927e-01
9.25495593429238927e-01
9.25495593429238927e-01
9.92418718317654491e-01
9.92418718317654491e-01
9.92418718317654491e-01
9.87770982300947398e-01
9.87770982300947398e-01
9.87770982300947398e-01
1.00032309553026222e+00
1.00032309553026222e+00
1.00032309553026222e+00
1.00105328949941708e+00
1.00105328949941708e+00
1.00105328949941708e+00
1.00784389288296250e+00
1.00784389288296250e+00
1.00784389288296250e+00
1.00904816305130485e+00
1.00904816305130485e+00
1.00904816305130485e+00
9.81008439169042235e-01
9.81008439169042235e-01
9.81008439169042235e-01
9.82993533960385690e-01
9.82993533960385690e-01
9.82993533960385690e-01
1.00267691127003777e+00
1.00267691127003777e+00
1.00267691127003777e+00
1.00399323232405946e+00
1.00399323232405946e+00
1.00399323232405946e+00
9.72687070030191614e-01
9.72687070030191614e-01
9.72687070030191614e-01
9.50837298165844391e-01
9.50837298165844391e-01
9.50837298165844391e-01
9.71470841312872424e-01
9.71470841312872424e-01
9.71470841312872424e-01
9.68339562806387000e-01
9.68339562806387000e-01
9.68339562806387000e-01
1.00466893757324160e+00
1.00466893757324160e+00
1.00466893757324160e+00
9.87951985730648463e-01
9.87951985730648463e-01
9.87951985730648463e-01
1.00384715995426510e+00
1.00384715995426510e+00
1.00384715995426510e+00
9.90357413144249521e-01
9.90357413144249521e-01
9.90357413144249521e-01
9.83580541480258419e-01
9.83580541480258419e-01
9.83580541480258419e-01
9.80831176007140093e-01
9.80831176007140093e-01
9.80831176007140093e-01
9.92259834632710169e-01
9.92259834632710169e-01
9.92259834632710169e-01
9.93851686019859959e-01
9.93851686019859959e-01
9.93851686019859959e-01
1.00203887112050860e+00
1.00203887112050860e+00
1.00203887112050860e+00
1.01201006268789784e+00
1.01201006268789784e+00
1.01201006268789784e+00
9.90214930907157509e-01
9.90214930907157509e-01
9.90214930907157509e-01
1.00943785177063283e+00
1.00943785177063283e+00
1.00943785177063283e+00
9.73645145054594319e-01
9.73645145054594319e-01
9.73645145054594319e-01
9.50906016060907855e-01
9.50906016060907855e-01
9.50906016060907855e-01
9.68238525433832042e-01
9.68238525433832042e-01
9.68238525433832042e-01
9.98151892140101138e-01
9.98151892140101138e-01
9.98151892140101138e-01
9.89068215755234625e-01
9.89068215755234625e-01
9.89068215755234625e-01
1.00388239724563877e+00
1.00388239724563877e+00
1.00388239724563877e+00
1.01766747712525674e+00
1.01766747712525674e+00
1.01766747712525674e+00
1.00124310486886414e+00
1.00124310486886414e+00
1.00124310486886414e+00
1.01926024613772137e+00
1.01926024613772137e+00
1.01926024613772137e+00
1.04787705520813579e+00
1.04787705520813579e+00
1.04787705520813579e+00
9.89670514585119121e-01
9.89670514585119121e-01
9.89670514585119121e-01
1.05188125550246325e+00
1.05188125550246325e+00
1.05188125550246325e+00
1.04545559612928951e+00
1.04545559612928951e+00
1.04545559612928951e+00
9.88989007519458396e-01
9.88989007519458396e-01
9.88989007519458396e-01
1.02819258522629942e+00
1.02819258522629942e+00
1.02819258522629942e+00
1.06020698845901395e+00
1.06020698845901395e+00
1.06020698845901395e+00
1.06662680788854924e+00
1.06662680788854924e+00
1.06662680788854924e+00
1.00099535590058863e+00
1.00099535590058863e+00
1.00099535590058863e+00
1.02031054790532538e+00
1.02031054790532538e+00
1.02031054790532538e+00
9.61614599991137076e-01
9.61614599991137076e-01
9.61614599991137076e-01
1.04306142769953802e+00
1.04306142769953802e+00
1.04306142769953802e+00
1.02561730143660923e+00
1.02561730143660923e+00
1.02561730143660923e+00
1.07693819935344104e+00
1.07693819935344104e+00
1.07693819935344104e+00
1.07482244856422415e+00
1.07482244856422415e+00
1.07482244856422415e+00
1.07777445570279440e+00
1.07777445570279440e+00
1.07777445570279440e+00
1.00006459761641420e+00
1.00006459761641420e+00
1.00006459761641420e+00
1.02232624514511294e+00
1.02232624514511294e+00
1.02232624514511294e+00
1.04203169926667916e+00
1.04203169926667916e+00
1.04203169926667916e+00
1.05045267128759412e+00
1.05045267128759412e+00
1.05045267128759412e+00
1.04439189119796394e+00
1.04439189119796394e+00
1.04439189119796394e+00
1.02944857316250049e+00
1.02944857316250049e+00
1.02944857316250049e+00
1.06294166447227889e+00
1.06294166447227889e+00
1.06294166447227889e+00
1.05417710599658077e+00
1.05417710599658077e+00
1.05417710599658077e+00
9.95594626532347649e-01
9.95594626532347649e-01
9.95594626532347649e-01
9.68557237022829809e-01
9.68557237022829809e-01
9.68557237022829809e-01
9.84073104082546890e-01
9.84073104082546890e-01
9.84073104082546890e-01
9.69342334542593886e-01
9.69342334542593886e-01
9.69342334542593886e-01
9.50538720128017323e-01
9.50538720128017323e-01
9.50538720128017323e-01
1.03234025519911587e+00
1.03234025519911587e+00
1.03234025519911587e+00
1.01186917578917068e+00
1.01186917578917068e+00
1.01186917578917068e+00
9.61519114279272169e-01
9.61519114279272169e-01
9.61519114279272169e-01
9.40908683188679706e-01
9.40908683188679706e-01
9.40908683188679706e-01
9.24662485917955523e-01
9.24662485917955523e-01
9.24662485917955523e-01
9.68422255511133701e-01
9.68422255511133701e-01
9.68422255511133701e-01
9.71516337483694592e-01
9.71516337483694592e-01
9.71516337483694592e-01
1.03783924031406816e+00
1.03783924031406816e+00
1.03783924031406816e+00
1.01953849125238505e+00
1.01953849125238505e+00
1.01953849125238505e+00
9.07287911913207790e-01
9.07287911913207790e-01
9.07287911913207790e-01
1.04253616455104359e+00
1.04253616455104359e+00
1.04253616455104359e+00
1.01920292251158595e+00
1.01920292251158595e+00
1.01920292251158595e+00
9.89342014270356396e-01
9.89342014270356396e-01
9.89342014270356396e-01
1.04080304889265363e+00
1.04080304889265363e+00
1.04080304889265363e+00
1.00125000840144907e+00
1.00125000840144907e+00
1.00125000840144907e+00
1.04409064400822715e+00
1.04409064400822715e+00
1.04409064400822715e+00
9.25673857984432136e-01
9.25673857984432136e-01
9.25673857984432136e-01
9.16992836192621841e-01
9.16992836192621841e-01
9.16992836192621841e-01
9.83014002767533701e-01
9.83014002767533701e-01
9.83014002767533701e-01
9.99339055595139247e-01
9.99339055595139247e-01
9.99339055595139247e-01
9.62734939035913451e-01
9.62734939035913451e-01
9.62734939035913451e-01
9.71744447290985081e-01
9.71744447290985081e-01
9.71744447290985081e-01
1.01179504785557683e+00
1.01179504785557683e+00
1.01179504785557683e+00
1.00573602920560590e+00
1.00573602920560590e+00
1.00573602920560590e+00
1.00706617649872165e+00
1.00706617649872165e+00
1.00706617649872165e+00
9.98595878597301589e-01
9.98595878597301589e-01
9.98595878597301589e-01
1.02681376428178384e+00
1.02681376428178384e+00
1.02681376428178384e+00
1.00550871946325326e+00
1.00550871946325326e+00
1.00550871946325326e+00
9.82912860230553909e-01
9.82912860230553909e-01
9.82912860230553909e-01
1.02494296287323516e+00
1.02494296287323516e+00
1.02494296287323516e+00
9.94099424763681627e-01
9.94099424763681627e-01
9.94099424763681627e-01
1.02555401236365151e+00
1.02555401236365151e+00
1.02555401236365151e+00
1.02015367106531185e+00
1.02015367106531185e+00
1.02015367106531185e+00
1.01222273066142021e+00
1.01222273066142021e+00
1.01222273066142021e+00
1.02762745327205862e+00
1.02762745327205862e+00
1.02762745327205862e+00
1.00188818301890881e+00
1.00188818301890881e+00
1.00188818301890881e+00
1.01170015786762812e+00
1.01170015786762812e+00
1.01170015786762812e+00
9.75177469585948531e-01
9.75177469585948531e-01
9.75177469585948531e-01
9.49641653981397660e-01
9.49641653981397660e-01
9.49641653981397660e-01
9.26780487133634812e-01
9.26780487133634812e-01
9.26780487133634812e-01
1.00897723635361958e+00
1.00897723635361958e+00
1.00897723635361958e+00
9.57255715842871058e-01
9.57255715842871058e-01
9.57255715842871058e-01
9.59634306518101332e-01
9.59634306518101332e-01
9.59634306518101332e-01
9.98512762856245573e-01
9.98512762856245573e-01
9.98512762856245573e-01
9.63342212875854198e-01
9.63342212875854198e-01
9.63342212875854198e-01
1.02473894108253716e+00
1.02473894108253716e+00
1.02473894108253716e+00
1.00113969166558170e+00
1.00113969166558170e+00
1.00113969166558170e+00
1.01142764382335026e+00
1.01142764382335026e+00
1.01142764382335026e+00
9.94146879345406354e-01
9.94146879345406354e-01
9.94146879345406354e-01
9.91969471361295541e-01
9.91969471361295541e-01
9.91969471361295541e-01
1.00502450363815132e+00
1.00502450363815132e+00
1.00502450363815132e+00
9.82022329999638122e-01
9.82022329999638122e-01
9.82022329999638122e-01
1.03394723580188885e+00
1.03394723580188885e+00
1.03394723580188885e+00
9.97763908713112713e-01
9.97763908713112713e-01
9.97763908713112713e-01
9.92447702278588362e-01
9.92447702278588362e-01
9.92447702278588362e-01
9.90182394839848046e-01
9.90182394839848046e-01
9.90182394839848046e-01
1.01015649562255105e+00
1.01015649562255105e+00
1.01015649562255105e+00
1.00338296779534364e+00
1.00338296779534364e+00
1.00338296779534364e+00
9.91180908836591601e-01
9.91180908836591601e-01
9.91180908836591601e-01
9.99153474305873202e-01
9.99153474305873202e-01
9.99153474305873202e-01
9.52996214752886872e-01
9.52996214752886872e-01
9.52996214752886872e-01
1.00357056643106435e+00
1.00357056643106435e+00
1.00357056643106435e+00
1.00181349363604677e+00
1.00181349363604677e+00
1.00181349363604677e+00
9.30780070217156363e-01
9.30780070217156363e-01
9.30780070217156363e-01
9.83683738532433405e-01
9.83683738532433405e-01
9.83683738532433405e-01
1.01886536250815918e+00
1.01886536250815918e+00
1.01886536250815918e+00
1.00248969536836641e+00
1.00248969536836641e+00
1.00248969536836641e+00


        </DataArray>

      </PointData>

      <CellData/>

      <Points>

        <DataArray type="Float64" NumberOfComponents="3" format="ascii">

0.1082531754723032 0.6875000000007816 0 0.23533274979922561 0.77093399389351469 0 0.10409951422139101 0.81206782209691231 0 0.23533274979922561 0.77093399389351469 0 0.1082531754723032 0.6875000000007816 0 0.21809253452218619 0.65480892822618109 0 0.24418615484441761 0.35773612382016978 0 0.121259140952891 0.43112117036853742 0 0.1082531754734323 0.31250000000117473 0 0.75000000000057243 0.35048094716480432 0 0.88173731489851925 0.33077402607778361 0 0.81242894672211508 0.45500248311961472 0 0.121259140952891 0.43112117036853742 0 0.24418615484441761 0.35773612382016978 0 0.22257735880419699 0.47344721641341742 0 0.81242894672211508 0.45500248311961472 0 0.88173731489851925 0.33077402607778361 0 0.915464298762109 0.43749999999886913 0 0 0.62500000000121547 0 0 0.50000000000206146 0 0.1371230538040123 0.56179824718362847 0 0.82212678063041267 0.67678595194836966 0 0.89051480781310632 0.79665793440246835 0 0.76243180583607129 0.78687675331113149 0 0.76243180583607129 0.78687675331113149 0 0.69010814643829166 0.89298495739101336 0 0.62844955668446423 0.7850749770380413 0 0.89051480781310632 0.79665793440246835 0 0.82212678063041267 0.67678595194836966 0 0.92266244547590082 0.68749999999917555 0 0 0.50000000000206146 0 0.121259140952891 0.43112117036853742 0 0.1371230538040123 0.56179824718362847 0 0.1082531754723032 0.6875000000007816 0 0 0.62500000000121547 0 0.1371230538040123 0.56179824718362847 0 0.75000000000032374 0.56698729811007709 0 0.88927506082488361 0.56409486310635837 0 0.82212678063041267 0.67678595194836966 0 0.81242894672211508 0.45500248311961472 0 0.88927506082488361 0.56409486310635837 0 0.75000000000032374 0.56698729811007709 0 0.69851598570178741 0.68211701800612057 0 0.56496004948275869 0.67675037307860475 0 0.62752533658682441 0.56838075195614346 0 0.69851598570178741 0.68211701800612057 0 0.76243180583607129 0.78687675331113149 0 0.62844955668446423 0.7850749770380413 0 0.23533274979922561 0.77093399389351469 0 0.18802967116092181 0.89415349436770275 0 0.10409951422139101 0.81206782209691231 0 0.121259140952891 0.43112117036853742 0 0.22257735880419699 0.47344721641341742 0 0.1371230538040123 0.56179824718362847 0 0.75000000000032374 0.56698729811007709 0 0.69851598570178741 0.68211701800612057 0 0.62752533658682441 0.56838075195614346 0 0.56496004948275869 0.67675037307860475 0 0.69851598570178741 0.68211701800612057 0 0.62844955668446423 0.7850749770380413 0 0.1371230538040123 0.56179824718362847 0 0.22257735880419699 0.47344721641341742 0 0.26982811998763367 0.56544650815856912 0 0.21809253452218619 0.65480892822618109 0 0.1371230538040123 0.56179824718362847 0 0.26982811998763367 0.56544650815856912 0 0.24418615484441761 0.35773612382016978 0 0.1082531754734323 0.31250000000117473 0 0.20767261601459541 0.25628918442207171 0 0.88173731489851925 0.33077402607778361 0 0.75000000000057243 0.35048094716480432 0 0.79891106056046712 0.25007334953587562 0 0.75000000000032374 0.56698729811007709 0 0.82212678063041267 0.67678595194836966 0 0.69851598570178741 0.68211701800612057 0 0.81249999999950517 0.1082531754733404 0 0.89658421694297741 0.1933620068391701 0 0.79891106056046712 0.25007334953587562 0 0.81249999999950517 0.1082531754733404 0 0.79891106056046712 0.25007334953587562 0 0.73983916756365475 0.17530677078674589 0 0.23533274979922561 0.77093399389351469 0 0.21809253452218619 0.65480892822618109 0 0.32607333794064219 0.67760114260606152 0 0.1082531754723032 0.6875000000007816 0 0.1371230538040123 0.56179824718362847 0 0.21809253452218619 0.65480892822618109 0 0.69851598570178741 0.68211701800612057 0 0.82212678063041267 0.67678595194836966 0 0.76243180583607129 0.78687675331113149 0 0.69010814643829166 0.89298495739101336 0 0.76243180583607129 0.78687675331113149 0 0.80886664387416207 0.89717308644237903 0 0.43750000000181222 0.89174682452709564 0 0.31258827852827581 0.89214793616708443 0 0.37776173212361452 0.78514649317305008 0 0.43750000000181222 0.89174682452709564 0 0.37500000000156292 1 0 0.31258827852827581 0.89214793616708443 0 0.121259140952891 0.43112117036853742 0 0 0.37500000000156292 0 0.1082531754734323 0.31250000000117473 0 0.50000000000206146 1 0 0.37500000000156292 1 0 0.43750000000181222 0.89174682452709564 0 0.31258827852827581 0.89214793616708443 0 0.18802967116092181 0.89415349436770275 0 0.23533274979922561 0.77093399389351469 0 0 0.50000000000206146 0 0 0.37500000000156292 0 0.121259140952891 0.43112117036853742 0 0.62844955668446423 0.7850749770380413 0 0.69010814643829166 0.89298495739101336 0 0.56327595140699671 0.89211526915426331 0 0.69010814643829166 0.89298495739101336 0 0.62500000000121547 1 0 0.56327595140699671 0.89211526915426331 0 0.25000000000104189 1 0 0.18802967116092181 0.89415349436770275 0 0.31258827852827581 0.89214793616708443 0 0.50000000000206146 1 0 0.43750000000181222 0.89174682452709564 0 0.56327595140699671 0.89211526915426331 0 0.56249999999885147 0.1082531754730395 0 0.62499999999901068 0 0 0.68749999999926592 0.1082531754732875 0 1 0.49999999999869221 0 1 0.62499999999901068 0 0.88927506082488361 0.56409486310635837 0 0 0.25000000000104189 0 0.12076953676380731 0.18690935762408761 0 0.1082531754734323 0.31250000000117473 0 0.49999999999869221 0 0 0.62499999999901068 0 0 0.56249999999885147 0.1082531754730395 0 0.62500000000121547 1 0 0.50000000000206146 1 0 0.56327595140699671 0.89211526915426331 0 0.37500000000156292 1 0 0.25000000000104189 1 0 0.31258827852827581 0.89214793616708443 0 0.31281086598417152 0.10449318608631281 0 0.37499999999904599 0 0 0.43749999999910871 0.1082531754729984 0 0.43750000000181222 0.89174682452709564 0 0.37776173212361452 0.78514649317305008 0 0.50046028868828263 0.78376912307435687 0 0 0.37500000000156292 0 0 0.25000000000104189 0 0.1082531754734323 0.31250000000117473 0 0.49999999999869221 0 0 0.56249999999885147 0.1082531754730395 0 0.43749999999910871 0.1082531754729984 0 0.43750000000181222 0.89174682452709564 0 0.50046028868828263 0.78376912307435687 0 0.56327595140699671 0.89211526915426331 0 0.74999999999934042 0 0 0.81249999999950517 0.1082531754733404 0 0.68749999999926592 0.1082531754732875 0 0.37499999999904599 0 0 0.49999999999869221 0 0 0.43749999999910871 0.1082531754729984 0 0.25000000000104189 1 0 0.12500000000052089 1 0 0.18802967116092181 0.89415349436770275 0 0.50046028868828263 0.78376912307435687 0 0.62844955668446423 0.7850749770380413 0 0.56327595140699671 0.89211526915426331 0 0.37776173212361452 0.78514649317305008 0 0.31258827852827581 0.89214793616708443 0 0.23533274979922561 0.77093399389351469 0 0.62499999999901068 0 0 0.74999999999934042 0 0 0.68749999999926592 0.1082531754732875 0 1 0.74999999999934042 0 1 0.87499999999967015 0 0.89051480781310632 0.79665793440246835 0 0 0.25000000000104189 0 0 0.12500000000052089 0 0.12076953676380731 0.18690935762408761 0 0.74999999999934042 0 0 0.87499999999967015 0 0 0.81249999999950517 0.1082531754733404 0 0.24999999999941069 0 0 0.37499999999904599 0 0 0.31281086598417152 0.10449318608631281 0 0.50046028868828263 0.78376912307435687 0 0.37776173212361452 0.78514649317305008 0 0.44078402250377968 0.67714785211715212 0 0.68768773896438518 0.4586835206367198 0 0.75000000000032374 0.56698729811007709 0 0.62752533658682441 0.56838075195614346 0 0.31411863959822661 0.24965544328045999 0 0.37953773393552892 0.34812185820708452 0 0.24418615484441761 0.35773612382016978 0 0.68768773896438518 0.4586835206367198 0 0.81242894672211508 0.45500248311961472 0 0.75000000000032374 0.56698729811007709 0 1 0.24999999999941069 0 1 0.37499999999904599 0 0.88173731489851925 0.33077402607778361 0 0 0.75000000000034761 0 0 0.62500000000121547 0 0.1082531754723032 0.6875000000007816 0 0.50048844149666749 0.56727788297625459 0 0.44078402250377968 0.67714785211715212 0 0.38694285807596462 0.5672991787102919 0 0.50108503093851109 0.35012252869403671 0 0.44301038174930041 0.45684931552185398 0 0.37953773393552892 0.34812185820708452 0 0.50046028868828263 0.78376912307435687 0 0.56496004948275869 0.67675037307860475 0 0.62844955668446423 0.7850749770380413 0 0.68768773896438518 0.4586835206367198 0 0.75000000000057243 0.35048094716480432 0 0.81242894672211508 0.45500248311961472 0 0.56349980387502452 0.45846841892908402 0 0.62512662990940393 0.35044303886909911 0 0.68768773896438518 0.4586835206367198 0 0.50048844149666749 0.56727788297625459 0 0.38694285807596462 0.5672991787102919 0 0.44301038174930041 0.45684931552185398 0 0.50046028868828263 0.78376912307435687 0 0.44078402250377968 0.67714785211715212 0 0.56496004948275869 0.67675037307860475 0 0.50108503093851109 0.35012252869403671 0 0.37953773393552892 0.34812185820708452 0 0.43750000000200551 0.24222777169198509 0 0.75000000000034761 1 0 0.62500000000121547 1 0 0.69010814643829166 0.89298495739101336 0 0.68768773896438518 0.4586835206367198 0 0.62512662990940393 0.35044303886909911 0 0.75000000000057243 0.35048094716480432 0 0.56496004948275869 0.67675037307860475 0 0.44078402250377968 0.67714785211715212 0 0.50048844149666749 0.56727788297625459 0 0.56349980387502452 0.45846841892908402 0 0.44301038174930041 0.45684931552185398 0 0.50108503093851109 0.35012252869403671 0 0.50048844149666749 0.56727788297625459 0 0.44301038174930041 0.45684931552185398 0 0.56349980387502452 0.45846841892908402 0 0.56349980387502452 0.45846841892908402 0 0.50108503093851109 0.35012252869403671 0 0.62512662990940393 0.35044303886909911 0 0.43750000000200551 0.24222777169198509 0 0.37953773393552892 0.34812185820708452 0 0.31411863959822661 0.24965544328045999 0 0.56496004948275869 0.67675037307860475 0 0.50048844149666749 0.56727788297625459 0 0.62752533658682441 0.56838075195614346 0 0.56349980387502452 0.45846841892908402 0 0.68768773896438518 0.4586835206367198 0 0.62752533658682441 0.56838075195614346 0 0.50048844149666749 0.56727788297625459 0 0.56349980387502452 0.45846841892908402 0 0.62752533658682441 0.56838075195614346 0 0.75000000000057243 0.35048094716480432 0 0.62512662990940393 0.35044303886909911 0 0.68668231842078242 0.24762892664808989 0 0.50108503093851109 0.35012252869403671 0 0.43750000000200551 0.24222777169198509 0 0.56250000000143974 0.2422277716920859 0 0.62512662990940393 0.35044303886909911 0 0.50108503093851109 0.35012252869403671 0 0.56250000000143974 0.2422277716920859 0 0.68668231842078242 0.24762892664808989 0 0.62512662990940393 0.35044303886909911 0 0.56250000000143974 0.2422277716920859 0 0.22257735880419699 0.47344721641341742 0 0.24418615484441761 0.35773612382016978 0 0.32815957677880009 0.4577243358118348 0 0.12076953676380731 0.18690935762408761 0 0.19185372118111221 0.092925648673580788 0 0.25103557339309318 0.17464499738446629 0 0.20767261601459541 0.25628918442207171 0 0.12076953676380731 0.18690935762408761 0 0.25103557339309318 0.17464499738446629 0 0 0.87499999999950151 0 0 0.75000000000034761 0 0.10409951422139101 0.81206782209691231 0 0.1249999999997731 0 0 0.24999999999941069 0 0 0.19185372118111221 0.092925648673580788 0 1 0.1249999999997731 0 1 0.24999999999941069 0 0.89658421694297741 0.1933620068391701 0 0.88927506082488361 0.56409486310635837 0 0.81242894672211508 0.45500248311961472 0 0.915464298762109 0.43749999999886913 0 0.87499999999950151 1 0 0.75000000000034761 1 0 0.80886664387416207 0.89717308644237903 0 0.75000000000034761 1 0 0.69010814643829166 0.89298495739101336 0 0.80886664387416207 0.89717308644237903 0 0.82212678063041267 0.67678595194836966 0 0.88927506082488361 0.56409486310635837 0 0.92266244547590082 0.68749999999917555 0 0 0.75000000000034761 0 0.1082531754723032 0.6875000000007816 0 0.10409951422139101 0.81206782209691231 0 0.24999999999941069 0 0 0.31281086598417152 0.10449318608631281 0 0.19185372118111221 0.092925648673580788 0 1 0.24999999999941069 0 0.88173731489851925 0.33077402607778361 0 0.89658421694297741 0.1933620068391701 0 0.32815957677880009 0.4577243358118348 0 0.38694285807596462 0.5672991787102919 0 0.26982811998763367 0.56544650815856912 0 0.76243180583607129 0.78687675331113149 0 0.89051480781310632 0.79665793440246835 0 0.80886664387416207 0.89717308644237903 0 0.38694285807596462 0.5672991787102919 0 0.44078402250377968 0.67714785211715212 0 0.32607333794064219 0.67760114260606152 0 0.37776173212361452 0.78514649317305008 0 0.23533274979922561 0.77093399389351469 0 0.32607333794064219 0.67760114260606152 0 1 0.49999999999869221 0 0.88927506082488361 0.56409486310635837 0 0.915464298762109 0.43749999999886913 0 0.88173731489851925 0.33077402607778361 0 1 0.37499999999904599 0 0.915464298762109 0.43749999999886913 0 0.24418615484441761 0.35773612382016978 0 0.37953773393552892 0.34812185820708452 0 0.32815957677880009 0.4577243358118348 0 0.44301038174930041 0.45684931552185398 0 0.38694285807596462 0.5672991787102919 0 0.32815957677880009 0.4577243358118348 0 0.88927506082488361 0.56409486310635837 0 1 0.62499999999901068 0 0.92266244547590082 0.68749999999917555 0 1 0.74999999999934042 0 0.89051480781310632 0.79665793440246835 0 0.92266244547590082 0.68749999999917555 0 0 1 0 0 0.87499999999950151 0 0.091506350946494744 0.90849364905351082 0 1 1 0 0.87499999999950151 1 0 0.90849364905363228 0.90849364905367769 0 0 0 0 0.1249999999997731 0 0 0.091506350946417708 0.091506350946618076 0 0 0.12500000000052089 0 0 0 0 0.091506350946417708 0.091506350946618076 0 1 0 0 1 0.1249999999997731 0 0.90849364905355434 0.091506350946296292 0 0.87499999999967015 0 0 1 0 0 0.90849364905355434 0.091506350946296292 0 0.12500000000052089 1 0 0 1 0 0.091506350946494744 0.90849364905351082 0 1 0.87499999999967015 0 1 1 0 0.90849364905363228 0.90849364905367769 0 0.38694285807596462 0.5672991787102919 0 0.32607333794064219 0.67760114260606152 0 0.26982811998763367 0.56544650815856912 0 0.31411863959822661 0.24965544328045999 0 0.24418615484441761 0.35773612382016978 0 0.20767261601459541 0.25628918442207171 0 0.1082531754734323 0.31250000000117473 0 0.12076953676380731 0.18690935762408761 0 0.20767261601459541 0.25628918442207171 0 0.75000000000057243 0.35048094716480432 0 0.68668231842078242 0.24762892664808989 0 0.79891106056046712 0.25007334953587562 0 0.22257735880419699 0.47344721641341742 0 0.32815957677880009 0.4577243358118348 0 0.26982811998763367 0.56544650815856912 0 0.44078402250377968 0.67714785211715212 0 0.37776173212361452 0.78514649317305008 0 0.32607333794064219 0.67760114260606152 0 0.89658421694297741 0.1933620068391701 0 0.88173731489851925 0.33077402607778361 0 0.79891106056046712 0.25007334953587562 0 1 0.37499999999904599 0 1 0.49999999999869221 0 0.915464298762109 0.43749999999886913 0 0.37953773393552892 0.34812185820708452 0 0.44301038174930041 0.45684931552185398 0 0.32815957677880009 0.4577243358118348 0 0.32607333794064219 0.67760114260606152 0 0.21809253452218619 0.65480892822618109 0 0.26982811998763367 0.56544650815856912 0 1 0.1249999999997731 0 0.89658421694297741 0.1933620068391701 0 0.90849364905355434 0.091506350946296292 0 0 0.87499999999950151 0 0.10409951422139101 0.81206782209691231 0 0.091506350946494744 0.90849364905351082 0 0.1249999999997731 0 0 0.19185372118111221 0.092925648673580788 0 0.091506350946417708 0.091506350946618076 0 1 0.62499999999901068 0 1 0.74999999999934042 0 0.92266244547590082 0.68749999999917555 0 0.18802967116092181 0.89415349436770275 0 0.12500000000052089 1 0 0.091506350946494744 0.90849364905351082 0 0.89051480781310632 0.79665793440246835 0 1 0.87499999999967015 0 0.90849364905363228 0.90849364905367769 0 0.12076953676380731 0.18690935762408761 0 0 0.12500000000052089 0 0.091506350946417708 0.091506350946618076 0 0.81249999999950517 0.1082531754733404 0 0.87499999999967015 0 0 0.90849364905355434 0.091506350946296292 0 0.87499999999950151 1 0 0.80886664387416207 0.89717308644237903 0 0.90849364905363228 0.90849364905367769 0 0.68668231842078242 0.24762892664808989 0 0.62499999999892575 0.17524047358135519 0 0.73983916756365475 0.17530677078674589 0 0.31281086598417152 0.10449318608631281 0 0.43749999999910871 0.1082531754729984 0 0.37500000000232431 0.17524047358384309 0 0.62499999999892575 0.17524047358135519 0 0.56250000000143974 0.2422277716920859 0 0.49999999999934441 0.1752404735815076 0 0.56249999999885147 0.1082531754730395 0 0.68749999999926592 0.1082531754732875 0 0.62499999999892575 0.17524047358135519 0 0.56249999999885147 0.1082531754730395 0 0.62499999999892575 0.17524047358135519 0 0.49999999999934441 0.1752404735815076 0 0.56250000000143974 0.2422277716920859 0 0.43750000000200551 0.24222777169198509 0 0.49999999999934441 0.1752404735815076 0 0.43749999999910871 0.1082531754729984 0 0.56249999999885147 0.1082531754730395 0 0.49999999999934441 0.1752404735815076 0 0.68668231842078242 0.24762892664808989 0 0.56250000000143974 0.2422277716920859 0 0.62499999999892575 0.17524047358135519 0 0.43750000000200551 0.24222777169198509 0 0.31411863959822661 0.24965544328045999 0 0.37500000000232431 0.17524047358384309 0 0.49999999999934441 0.1752404735815076 0 0.43750000000200551 0.24222777169198509 0 0.37500000000232431 0.17524047358384309 0 0.43749999999910871 0.1082531754729984 0 0.49999999999934441 0.1752404735815076 0 0.37500000000232431 0.17524047358384309 0 0.62499999999892575 0.17524047358135519 0 0.68749999999926592 0.1082531754732875 0 0.73983916756365475 0.17530677078674589 0 0.68749999999926592 0.1082531754732875 0 0.81249999999950517 0.1082531754733404 0 0.73983916756365475 0.17530677078674589 0 0.10409951422139101 0.81206782209691231 0 0.18802967116092181 0.89415349436770275 0 0.091506350946494744 0.90849364905351082 0 0.89658421694297741 0.1933620068391701 0 0.81249999999950517 0.1082531754733404 0 0.90849364905355434 0.091506350946296292 0 0.19185372118111221 0.092925648673580788 0 0.12076953676380731 0.18690935762408761 0 0.091506350946417708 0.091506350946618076 0 0.37500000000232431 0.17524047358384309 0 0.31411863959822661 0.24965544328045999 0 0.25103557339309318 0.17464499738446629 0 0.31281086598417152 0.10449318608631281 0 0.37500000000232431 0.17524047358384309 0 0.25103557339309318 0.17464499738446629 0 0.80886664387416207 0.89717308644237903 0 0.89051480781310632 0.79665793440246835 0 0.90849364905363228 0.90849364905367769 0 0.19185372118111221 0.092925648673580788 0 0.31281086598417152 0.10449318608631281 0 0.25103557339309318 0.17464499738446629 0 0.79891106056046712 0.25007334953587562 0 0.68668231842078242 0.24762892664808989 0 0.73983916756365475 0.17530677078674589 0 0.31411863959822661 0.24965544328045999 0 0.20767261601459541 0.25628918442207171 0 0.25103557339309318 0.17464499738446629 0 

        </DataArray>

      </Points>

      <Cells>

        <DataArray type="Int32" Name="connectivity" format="ascii">

0 1 2 3 4 5 6 7 8 9 10 11 12 13 14 15 16 17 18 19 20 21 22 23 24 25 26 27 28 29 30 31 32 33 34 35 36 37 38 39 40 41 42 43 44 45 46 47 48 49 50 51 52 53 54 55 56 57 58 59 60 61 62 63 64 65 66 67 68 69 70 71 72 73 74 75 76 77 78 79 80 81 82 83 84 85 86 87 88 89 90 91 92 93 94 95 96 97 98 99 100 101 102 103 104 105 106 107 108 109 110 111 112 113 114 115 116 117 118 119 120 121 122 123 124 125 126 127 128 129 130 131 132 133 134 135 136 137 138 139 140 141 142 143 144 145 146 147 148 149 150 151 152 153 154 155 156 157 158 159 160 161 162 163 164 165 166 167 168 169 170 171 172 173 174 175 176 177 178 179 180 181 182 183 184 185 186 187 188 189 190 191 192 193 194 195 196 197 198 199 200 201 202 203 204 205 206 207 208 209 210 211 212 213 214 215 216 217 218 219 220 221 222 223 224 225 226 227 228 229 230 231 232 233 234 235 236 237 238 239 240 241 242 243 244 245 246 247 248 249 250 251 252 253 254 255 256 257 258 259 260 261 262 263 264 265 266 267 268 269 270 271 272 273 274 275 276 277 278 279 280 281 282 283 284 285 286 287 288 289 290 291 292 293 294 295 296 297 298 299 300 301 302 303 304 305 306 307 308 309 310 311 312 313 314 315 316 317 318 319 320 321 322 323 324 325 326 327 328 329 330 331 332 333 334 335 336 337 338 339 340 341 342 343 344 345 346 347 348 349 350 351 352 353 354 355 356 357 358 359 360 361 362 363 364 365 366 367 368 369 370 371 372 373 374 375 376 377 378 379 380 381 382 383 384 385 386 387 388 389 390 391 392 393 394 395 396 397 398 399 400 401 402 403 404 405 406 407 408 409 410 411 412 413 414 415 416 417 418 419 420 421 422 423 424 425 426 427 428 429 430 431 432 433 434 435 436 437 438 439 440 441 442 443 444 445 446 447 448 449 450 451 452 453 454 455 456 457 458 459 460 461 462 463 464 465 466 467 468 469 470 471 472 473 474 475 476 477 478 479 480 481 482 483 484 485 

        </DataArray>

        <DataArray type="Int32" Name="offsets" format="ascii">

3 6 9 12 15 18 21 24 27 30 33 36 39 42 45 48 51 54 57 60 63 66 69 72 75 78 81 84 87 90 93 96 99 102 105 108 111 114 117 120 123 126 129 132 135 138 141 144 147 150 153 156 159 162 165 168 171 174 177 180 183 186 189 192 195 198 201 204 207 210 213 216 219 222 225 228 231 234 237 240 243 246 249 252 255 258 261 264 267 270 273 276 279 282 285 288 291 294 297 300 303 306 309 312 315 318 321 324 327 330 333 336 339 342 345 348 351 354 357 360 363 366 369 372 375 378 381 384 387 390 393 396 399 402 405 408 411 414 417 420 423 426 429 432 435 438 441 444 447 450 453 456 459 462 465 468 471 474 477 480 483 486 

        </DataArray>

        <DataArray type="Int32" Name="types" format="ascii">

5 5 5 5 5 5 5 5 5 5 5 5 5 5 5 5 5 5 5 5 5 5 5 5 5 5 5 5 5 5 5 5 5 5 5 5 5 5 5 5 5 5 5 5 5 5 5 5 5 5 5 5 5 5 5 5 5 5 5 5 5 5 5 5 5 5 5 5 5 5 5 5 5 5 5 5 5 5 5 5 5 5 5 5 5 5 5 5 5 5 5 5 5 5 5 5 5 5 5 5 5 5 5 5 5 5 5 5 5 5 5 5 5 5 5 5 5 5 5 5 5 5 5 5 5 5 5 5 5 5 5 5 5 5 5 5 5 5 5 5 5 5 5 5 5 5 5 5 5 5 5 5 5 5 5 5 5 5 5 5 5 5 

        </DataArray>

      </Cells>

    </Piece>

  </UnstructuredGrid>

</VTKFile>

