<?xml version="1.0"?>

<VTKFile type="UnstructuredGrid" version="0.1">

  <UnstructuredGrid>

    <Piece NumberOfPoints="486" NumberOfCells="162">

      <PointData>

        <DataArray type="Float64" Name="K" format="ascii">

9.94086832236390272e-01
9.94086832236390272e-01
9.94086832236390272e-01
9.76410553963834471e-01
9.76410553963834471e-01
9.76410553963834471e-01
9.81993776995906398e-01
9.81993776995906398e-01
9.81993776995906398e-01
9.96141850174532495e-01
9.96141850174532495e-01
9.96141850174532495e-01
9.52204619585712231e-01
9.52204619585712231e-01
9.52204619585712231e-01
1.01712937143928439e+00
1.01712937143928439e+00
1.01712937143928439e+00
9.57897935721131688e-01
9.57897935721131688e-01
9.57897935721131688e-01
9.90537315576222155e-01
9.90537315576222155e-01
9.90537315576222155e-01
1.02145399755216504e+00
1.02145399755216504e+00
1.02145399755216504e+00
9.82854081423301218e-01
9.82854081423301218e-01
9.82854081423301218e-01
9.57587044946841992e-01
9.57587044946841992e-01
9.57587044946841992e-01
9.58609461295564569e-01
9.58609461295564569e-01
9.58609461295564569e-01
1.03977269503232117e+00
1.03977269503232117e+00
1.03977269503232117e+00
1.04354174547211986e+00
1.04354174547211986e+00
1.04354174547211986e+00
1.03869719446021125e+00
1.03869719446021125e+00
1.03869719446021125e+00
1.03640669292306820e+00
1.03640669292306820e+00
1.03640669292306820e+00
1.03128001355630694e+00
1.03128001355630694e+00
1.03128001355630694e+00
9.43918093919036583e-01
9.43918093919036583e-01
9.43918093919036583e-01
1.03944095812635950e+00
1.03944095812635950e+00
1.03944095812635950e+00
1.04478235219392324e+00
1.04478235219392324e+00
1.04478235219392324e+00
9.26300154446196067e-01
9.26300154446196067e-01
9.26300154446196067e-01
9.35132016215318163e-01
9.35132016215318163e-01
9.35132016215318163e-01
9.99414064506329525e-01
9.99414064506329525e-01
9.99414064506329525e-01
9.68524186972628987e-01
9.68524186972628987e-01
9.68524186972628987e-01
1.04464720855650683e+00
1.04464720855650683e+00
1.04464720855650683e+00
9.41370649469547405e-01
9.41370649469547405e-01
9.41370649469547405e-01
9.59239365322533621e-01
9.59239365322533621e-01
9.59239365322533621e-01
9.96875151005818694e-01
9.96875151005818694e-01
9.96875151005818694e-01
9.47601458502043359e-01
9.47601458502043359e-01
9.47601458502043359e-01
1.02780454919941877e+00
1.02780454919941877e+00
1.02780454919941877e+00
9.86717926612499796e-01
9.86717926612499796e-01
9.86717926612499796e-01
1.01272681993760560e+00
1.01272681993760560e+00
1.01272681993760560e+00
9.92110586390702265e-01
9.92110586390702265e-01
9.92110586390702265e-01
9.82974963512617705e-01
9.82974963512617705e-01
9.82974963512617705e-01
9.98147138975200021e-01
9.98147138975200021e-01
9.98147138975200021e-01
1.04135084909817999e+00
1.04135084909817999e+00
1.04135084909817999e+00
9.63290391042098237e-01
9.63290391042098237e-01
9.63290391042098237e-01
1.03737568711554862e+00
1.03737568711554862e+00
1.03737568711554862e+00
1.02597375169420202e+00
1.02597375169420202e+00
1.02597375169420202e+00
1.03220622655941408e+00
1.03220622655941408e+00
1.03220622655941408e+00
1.02554801164826803e+00
1.02554801164826803e+00
1.02554801164826803e+00
9.91201304863193577e-01
9.91201304863193577e-01
9.91201304863193577e-01
9.99776382831659260e-01
9.99776382831659260e-01
9.99776382831659260e-01
1.02688449518330005e+00
1.02688449518330005e+00
1.02688449518330005e+00
1.00939390272685858e+00
1.00939390272685858e+00
1.00939390272685858e+00
1.03293544531822201e+00
1.03293544531822201e+00
1.03293544531822201e+00
9.93105063444858049e-01
9.93105063444858049e-01
9.93105063444858049e-01
1.06051267518942494e+00
1.06051267518942494e+00
1.06051267518942494e+00
1.02324171499320538e+00
1.02324171499320538e+00
1.02324171499320538e+00
1.00295112032999989e+00
1.00295112032999989e+00
1.00295112032999989e+00
1.01648997729898993e+00
1.01648997729898993e+00
1.01648997729898993e+00
1.03081547103146498e+00
1.03081547103146498e+00
1.03081547103146498e+00
9.91839706496461027e-01
9.91839706496461027e-01
9.91839706496461027e-01
1.05597121371631086e+00
1.05597121371631086e+00
1.05597121371631086e+00
1.04761722989191908e+00
1.04761722989191908e+00
1.04761722989191908e+00
1.04429468420794569e+00
1.04429468420794569e+00
1.04429468420794569e+00
1.03211059968707453e+00
1.03211059968707453e+00
1.03211059968707453e+00
1.00364432440367035e+00
1.00364432440367035e+00
1.00364432440367035e+00
9.77467717212636256e-01
9.77467717212636256e-01
9.77467717212636256e-01
1.05787674547231569e+00
1.05787674547231569e+00
1.05787674547231569e+00
9.82178633618174368e-01
9.82178633618174368e-01
9.82178633618174368e-01
1.04862838156033034e+00
1.04862838156033034e+00
1.04862838156033034e+00
1.03843271797608350e+00
1.03843271797608350e+00
1.03843271797608350e+00
1.02388920504776104e+00
1.02388920504776104e+00
1.02388920504776104e+00
9.68128202302446117e-01
9.68128202302446117e-01
9.68128202302446117e-01
1.02600427315946807e+00
1.02600427315946807e+00
1.02600427315946807e+00
1.00122244125800974e+00
1.00122244125800974e+00
1.00122244125800974e+00
9.77664349966045010e-01
9.77664349966045010e-01
9.77664349966045010e-01
1.04488977753597378e+00
1.04488977753597378e+00
1.04488977753597378e+00
9.76150103528499402e-01
9.76150103528499402e-01
9.76150103528499402e-01
1.04445629453377942e+00
1.04445629453377942e+00
1.04445629453377942e+00
1.00180674522884194e+00
1.00180674522884194e+00
1.00180674522884194e+00
1.00420927132678894e+00
1.00420927132678894e+00
1.00420927132678894e+00
1.02774488772557193e+00
1.02774488772557193e+00
1.02774488772557193e+00
1.04445885850611675e+00
1.04445885850611675e+00
1.04445885850611675e+00
9.65649756106132351e-01
9.65649756106132351e-01
9.65649756106132351e-01
9.95900124787508334e-01
9.95900124787508334e-01
9.95900124787508334e-01
9.90530258368998218e-01
9.90530258368998218e-01
9.90530258368998218e-01
1.04906694961412406e+00
1.04906694961412406e+00
1.04906694961412406e+00
1.00935612833771815e+00
1.00935612833771815e+00
1.00935612833771815e+00
1.03202775877025177e+00
1.03202775877025177e+00
1.03202775877025177e+00
1.00398194631990800e+00
1.00398194631990800e+00
1.00398194631990800e+00
9.74448349607464737e-01
9.74448349607464737e-01
9.74448349607464737e-01
1.03955394362364006e+00
1.03955394362364006e+00
1.03955394362364006e+00
1.01613566477552997e+00
1.01613566477552997e+00
1.01613566477552997e+00
1.03304327779492722e+00
1.03304327779492722e+00
1.03304327779492722e+00
9.81376161479179610e-01
9.81376161479179610e-01
9.81376161479179610e-01
9.69855347896285691e-01
9.69855347896285691e-01
9.69855347896285691e-01
9.85357757984300808e-01
9.85357757984300808e-01
9.85357757984300808e-01
9.83086861252004174e-01
9.83086861252004174e-01
9.83086861252004174e-01
9.31764397362666474e-01
9.31764397362666474e-01
9.31764397362666474e-01
1.03574031337286931e+00
1.03574031337286931e+00
1.03574031337286931e+00
1.02943555615325733e+00
1.02943555615325733e+00
1.02943555615325733e+00
1.00603283212593930e+00
1.00603283212593930e+00
1.00603283212593930e+00
1.02494808364454615e+00
1.02494808364454615e+00
1.02494808364454615e+00
9.57744107984348836e-01
9.57744107984348836e-01
9.57744107984348836e-01
1.03478886440054962e+00
1.03478886440054962e+00
1.03478886440054962e+00
9.83053686271970539e-01
9.83053686271970539e-01
9.83053686271970539e-01
9.79751051066849454e-01
9.79751051066849454e-01
9.79751051066849454e-01
1.00677286118454079e+00
1.00677286118454079e+00
1.00677286118454079e+00
9.86445279600968727e-01
9.86445279600968727e-01
9.86445279600968727e-01
1.03657048613010949e+00
1.03657048613010949e+00
1.03657048613010949e+00
9.67874042312350191e-01
9.67874042312350191e-01
9.67874042312350191e-01
9.55192598487010214e-01
9.55192598487010214e-01
9.55192598487010214e-01
9.74000591941380112e-01
9.74000591941380112e-01
9.74000591941380112e-01
1.03117324975040381e+00
1.03117324975040381e+00
1.03117324975040381e+00
1.02829112342540885e+00
1.02829112342540885e+00
1.02829112342540885e+00
1.01904540716134906e+00
1.01904540716134906e+00
1.01904540716134906e+00
1.01392439859802952e+00
1.01392439859802952e+00
1.01392439859802952e+00
9.40862806183761613e-01
9.40862806183761613e-01
9.40862806183761613e-01
9.80496218305282441e-01
9.80496218305282441e-01
9.80496218305282441e-01
9.91581342360087548e-01
9.91581342360087548e-01
9.91581342360087548e-01
9.73079047219219784e-01
9.73079047219219784e-01
9.73079047219219784e-01
1.03155588580728308e+00
1.03155588580728308e+00
1.03155588580728308e+00
9.87807207704486379e-01
9.87807207704486379e-01
9.87807207704486379e-01
1.06384173232223711e+00
1.06384173232223711e+00
1.06384173232223711e+00
1.07983799652255530e+00
1.07983799652255530e+00
1.07983799652255530e+00
9.35871490490003288e-01
9.35871490490003288e-01
9.35871490490003288e-01
9.41324429008951302e-01
9.41324429008951302e-01
9.41324429008951302e-01
1.04666587000539346e+00
1.04666587000539346e+00
1.04666587000539346e+00
9.78695754900597237e-01
9.78695754900597237e-01
9.78695754900597237e-01
9.85539246232181254e-01
9.85539246232181254e-01
9.85539246232181254e-01
9.96468744777926241e-01
9.96468744777926241e-01
9.96468744777926241e-01
1.02058743155069220e+00
1.02058743155069220e+00
1.02058743155069220e+00
9.69057356693651895e-01
9.69057356693651895e-01
9.69057356693651895e-01
9.25207466302727100e-01
9.25207466302727100e-01
9.25207466302727100e-01
1.03821386350530354e+00
1.03821386350530354e+00
1.03821386350530354e+00
9.52859563406073584e-01
9.52859563406073584e-01
9.52859563406073584e-01
1.01576186016193049e+00
1.01576186016193049e+00
1.01576186016193049e+00
9.57863066041240385e-01
9.57863066041240385e-01
9.57863066041240385e-01
9.67574568405635049e-01
9.67574568405635049e-01
9.67574568405635049e-01
9.33412259757790519e-01
9.33412259757790519e-01
9.33412259757790519e-01
1.02098314135037094e+00
1.02098314135037094e+00
1.02098314135037094e+00
1.04292856536276890e+00
1.04292856536276890e+00
1.04292856536276890e+00
9.81631200157946360e-01
9.81631200157946360e-01
9.81631200157946360e-01
1.05266223287792560e+00
1.05266223287792560e+00
1.05266223287792560e+00
9.76095679915566117e-01
9.76095679915566117e-01
9.76095679915566117e-01
1.06385173310744974e+00
1.06385173310744974e+00
1.06385173310744974e+00
9.49182066955506665e-01
9.49182066955506665e-01
9.49182066955506665e-01
9.82011294595942164e-01
9.82011294595942164e-01
9.82011294595942164e-01
9.80390044703670305e-01
9.80390044703670305e-01
9.80390044703670305e-01
1.04508585061947379e+00
1.04508585061947379e+00
1.04508585061947379e+00
9.69811912075575044e-01
9.69811912075575044e-01
9.69811912075575044e-01
9.80617983733794163e-01
9.80617983733794163e-01
9.80617983733794163e-01
9.73451967479971203e-01
9.73451967479971203e-01
9.73451967479971203e-01
9.69667318987482707e-01
9.69667318987482707e-01
9.69667318987482707e-01
9.92114367329015479e-01
9.92114367329015479e-01
9.92114367329015479e-01
9.78041974355295829e-01
9.78041974355295829e-01
9.78041974355295829e-01
1.00159737847701957e+00
1.00159737847701957e+00
1.00159737847701957e+00
9.90938485347199527e-01
9.90938485347199527e-01
9.90938485347199527e-01
1.01029088751361407e+00
1.01029088751361407e+00
1.01029088751361407e+00
9.84094555056820974e-01
9.84094555056820974e-01
9.84094555056820974e-01
9.79707123365013532e-01
9.79707123365013532e-01
9.79707123365013532e-01
1.03694105083354482e+00
1.03694105083354482e+00
1.03694105083354482e+00
9.34000563812221074e-01
9.34000563812221074e-01
9.34000563812221074e-01
1.04419488046877995e+00
1.04419488046877995e+00
1.04419488046877995e+00
1.02841798983795818e+00
1.02841798983795818e+00
1.02841798983795818e+00
1.04575210788573814e+00
1.04575210788573814e+00
1.04575210788573814e+00
9.70813950211198540e-01
9.70813950211198540e-01
9.70813950211198540e-01
1.04225666586163346e+00
1.04225666586163346e+00
1.04225666586163346e+00
9.68830530453506644e-01
9.68830530453506644e-01
9.68830530453506644e-01
1.02297995055929003e+00
1.02297995055929003e+00
1.02297995055929003e+00


        </DataArray>

      </PointData>

      <CellData/>

      <Points>

        <DataArray type="Float64" NumberOfComponents="3" format="ascii">

0.1082531754723032 0.6875000000007816 0 0.23533274979922561 0.77093399389351469 0 0.10409951422139101 0.81206782209691231 0 0.23533274979922561 0.77093399389351469 0 0.1082531754723032 0.6875000000007816 0 0.21809253452218619 0.65480892822618109 0 0.24418615484441761 0.35773612382016978 0 0.121259140952891 0.43112117036853742 0 0.1082531754734323 0.31250000000117473 0 0.75000000000057243 0.35048094716480432 0 0.88173731489851925 0.33077402607778361 0 0.81242894672211508 0.45500248311961472 0 0.121259140952891 0.43112117036853742 0 0.24418615484441761 0.35773612382016978 0 0.22257735880419699 0.47344721641341742 0 0.81242894672211508 0.45500248311961472 0 0.88173731489851925 0.33077402607778361 0 0.915464298762109 0.43749999999886913 0 0 0.62500000000121547 0 0 0.50000000000206146 0 0.1371230538040123 0.56179824718362847 0 0.82212678063041267 0.67678595194836966 0 0.89051480781310632 0.79665793440246835 0 0.76243180583607129 0.78687675331113149 0 0.76243180583607129 0.78687675331113149 0 0.69010814643829166 0.89298495739101336 0 0.62844955668446423 0.7850749770380413 0 0.89051480781310632 0.79665793440246835 0 0.82212678063041267 0.67678595194836966 0 0.92266244547590082 0.68749999999917555 0 0 0.50000000000206146 0 0.121259140952891 0.43112117036853742 0 0.1371230538040123 0.56179824718362847 0 0.1082531754723032 0.6875000000007816 0 0 0.62500000000121547 0 0.1371230538040123 0.56179824718362847 0 0.75000000000032374 0.56698729811007709 0 0.88927506082488361 0.56409486310635837 0 0.82212678063041267 0.67678595194836966 0 0.81242894672211508 0.45500248311961472 0 0.88927506082488361 0.56409486310635837 0 0.75000000000032374 0.56698729811007709 0 0.69851598570178741 0.68211701800612057 0 0.56496004948275869 0.67675037307860475 0 0.62752533658682441 0.56838075195614346 0 0.69851598570178741 0.68211701800612057 0 0.76243180583607129 0.78687675331113149 0 0.62844955668446423 0.7850749770380413 0 0.23533274979922561 0.77093399389351469 0 0.18802967116092181 0.89415349436770275 0 0.10409951422139101 0.81206782209691231 0 0.121259140952891 0.43112117036853742 0 0.22257735880419699 0.47344721641341742 0 0.1371230538040123 0.56179824718362847 0 0.75000000000032374 0.56698729811007709 0 0.69851598570178741 0.68211701800612057 0 0.62752533658682441 0.56838075195614346 0 0.56496004948275869 0.67675037307860475 0 0.69851598570178741 0.68211701800612057 0 0.62844955668446423 0.7850749770380413 0 0.1371230538040123 0.56179824718362847 0 0.22257735880419699 0.47344721641341742 0 0.26982811998763367 0.56544650815856912 0 0.21809253452218619 0.65480892822618109 0 0.1371230538040123 0.56179824718362847 0 0.26982811998763367 0.56544650815856912 0 0.24418615484441761 0.35773612382016978 0 0.1082531754734323 0.31250000000117473 0 0.20767261601459541 0.25628918442207171 0 0.88173731489851925 0.33077402607778361 0 0.75000000000057243 0.35048094716480432 0 0.79891106056046712 0.25007334953587562 0 0.75000000000032374 0.56698729811007709 0 0.82212678063041267 0.67678595194836966 0 0.69851598570178741 0.68211701800612057 0 0.81249999999950517 0.1082531754733404 0 0.89658421694297741 0.1933620068391701 0 0.79891106056046712 0.25007334953587562 0 0.81249999999950517 0.1082531754733404 0 0.79891106056046712 0.25007334953587562 0 0.73983916756365475 0.17530677078674589 0 0.23533274979922561 0.77093399389351469 0 0.21809253452218619 0.65480892822618109 0 0.32607333794064219 0.67760114260606152 0 0.1082531754723032 0.6875000000007816 0 0.1371230538040123 0.56179824718362847 0 0.21809253452218619 0.65480892822618109 0 0.69851598570178741 0.68211701800612057 0 0.82212678063041267 0.67678595194836966 0 0.76243180583607129 0.78687675331113149 0 0.69010814643829166 0.89298495739101336 0 0.76243180583607129 0.78687675331113149 0 0.80886664387416207 0.89717308644237903 0 0.43750000000181222 0.89174682452709564 0 0.31258827852827581 0.89214793616708443 0 0.37776173212361452 0.78514649317305008 0 0.43750000000181222 0.89174682452709564 0 0.37500000000156292 1 0 0.31258827852827581 0.89214793616708443 0 0.121259140952891 0.43112117036853742 0 0 0.37500000000156292 0 0.1082531754734323 0.31250000000117473 0 0.50000000000206146 1 0 0.37500000000156292 1 0 0.43750000000181222 0.89174682452709564 0 0.31258827852827581 0.89214793616708443 0 0.18802967116092181 0.89415349436770275 0 0.23533274979922561 0.77093399389351469 0 0 0.50000000000206146 0 0 0.37500000000156292 0 0.121259140952891 0.43112117036853742 0 0.62844955668446423 0.7850749770380413 0 0.69010814643829166 0.89298495739101336 0 0.56327595140699671 0.89211526915426331 0 0.69010814643829166 0.89298495739101336 0 0.62500000000121547 1 0 0.56327595140699671 0.89211526915426331 0 0.25000000000104189 1 0 0.18802967116092181 0.89415349436770275 0 0.31258827852827581 0.89214793616708443 0 0.50000000000206146 1 0 0.43750000000181222 0.89174682452709564 0 0.56327595140699671 0.89211526915426331 0 0.56249999999885147 0.1082531754730395 0 0.62499999999901068 0 0 0.68749999999926592 0.1082531754732875 0 1 0.49999999999869221 0 1 0.62499999999901068 0 0.88927506082488361 0.56409486310635837 0 0 0.25000000000104189 0 0.12076953676380731 0.18690935762408761 0 0.1082531754734323 0.31250000000117473 0 0.49999999999869221 0 0 0.62499999999901068 0 0 0.56249999999885147 0.1082531754730395 0 0.62500000000121547 1 0 0.50000000000206146 1 0 0.56327595140699671 0.89211526915426331 0 0.37500000000156292 1 0 0.25000000000104189 1 0 0.31258827852827581 0.89214793616708443 0 0.31281086598417152 0.10449318608631281 0 0.37499999999904599 0 0 0.43749999999910871 0.1082531754729984 0 0.43750000000181222 0.89174682452709564 0 0.37776173212361452 0.78514649317305008 0 0.50046028868828263 0.78376912307435687 0 0 0.37500000000156292 0 0 0.25000000000104189 0 0.1082531754734323 0.31250000000117473 0 0.49999999999869221 0 0 0.56249999999885147 0.1082531754730395 0 0.43749999999910871 0.1082531754729984 0 0.43750000000181222 0.89174682452709564 0 0.50046028868828263 0.78376912307435687 0 0.56327595140699671 0.89211526915426331 0 0.74999999999934042 0 0 0.81249999999950517 0.1082531754733404 0 0.68749999999926592 0.1082531754732875 0 0.37499999999904599 0 0 0.49999999999869221 0 0 0.43749999999910871 0.1082531754729984 0 0.25000000000104189 1 0 0.12500000000052089 1 0 0.18802967116092181 0.89415349436770275 0 0.50046028868828263 0.78376912307435687 0 0.62844955668446423 0.7850749770380413 0 0.56327595140699671 0.89211526915426331 0 0.37776173212361452 0.78514649317305008 0 0.31258827852827581 0.89214793616708443 0 0.23533274979922561 0.77093399389351469 0 0.62499999999901068 0 0 0.74999999999934042 0 0 0.68749999999926592 0.1082531754732875 0 1 0.74999999999934042 0 1 0.87499999999967015 0 0.89051480781310632 0.79665793440246835 0 0 0.25000000000104189 0 0 0.12500000000052089 0 0.12076953676380731 0.18690935762408761 0 0.74999999999934042 0 0 0.87499999999967015 0 0 0.81249999999950517 0.1082531754733404 0 0.24999999999941069 0 0 0.37499999999904599 0 0 0.31281086598417152 0.10449318608631281 0 0.50046028868828263 0.78376912307435687 0 0.37776173212361452 0.78514649317305008 0 0.44078402250377968 0.67714785211715212 0 0.68768773896438518 0.4586835206367198 0 0.75000000000032374 0.56698729811007709 0 0.62752533658682441 0.56838075195614346 0 0.31411863959822661 0.24965544328045999 0 0.37953773393552892 0.34812185820708452 0 0.24418615484441761 0.35773612382016978 0 0.68768773896438518 0.4586835206367198 0 0.81242894672211508 0.45500248311961472 0 0.75000000000032374 0.56698729811007709 0 1 0.24999999999941069 0 1 0.37499999999904599 0 0.88173731489851925 0.33077402607778361 0 0 0.75000000000034761 0 0 0.62500000000121547 0 0.1082531754723032 0.6875000000007816 0 0.50048844149666749 0.56727788297625459 0 0.44078402250377968 0.67714785211715212 0 0.38694285807596462 0.5672991787102919 0 0.50108503093851109 0.35012252869403671 0 0.44301038174930041 0.45684931552185398 0 0.37953773393552892 0.34812185820708452 0 0.50046028868828263 0.78376912307435687 0 0.56496004948275869 0.67675037307860475 0 0.62844955668446423 0.7850749770380413 0 0.68768773896438518 0.4586835206367198 0 0.75000000000057243 0.35048094716480432 0 0.81242894672211508 0.45500248311961472 0 0.56349980387502452 0.45846841892908402 0 0.62512662990940393 0.35044303886909911 0 0.68768773896438518 0.4586835206367198 0 0.50048844149666749 0.56727788297625459 0 0.38694285807596462 0.5672991787102919 0 0.44301038174930041 0.45684931552185398 0 0.50046028868828263 0.78376912307435687 0 0.44078402250377968 0.67714785211715212 0 0.56496004948275869 0.67675037307860475 0 0.50108503093851109 0.35012252869403671 0 0.37953773393552892 0.34812185820708452 0 0.43750000000200551 0.24222777169198509 0 0.75000000000034761 1 0 0.62500000000121547 1 0 0.69010814643829166 0.89298495739101336 0 0.68768773896438518 0.4586835206367198 0 0.62512662990940393 0.35044303886909911 0 0.75000000000057243 0.35048094716480432 0 0.56496004948275869 0.67675037307860475 0 0.44078402250377968 0.67714785211715212 0 0.50048844149666749 0.56727788297625459 0 0.56349980387502452 0.45846841892908402 0 0.44301038174930041 0.45684931552185398 0 0.50108503093851109 0.35012252869403671 0 0.50048844149666749 0.56727788297625459 0 0.44301038174930041 0.45684931552185398 0 0.56349980387502452 0.45846841892908402 0 0.56349980387502452 0.45846841892908402 0 0.50108503093851109 0.35012252869403671 0 0.62512662990940393 0.35044303886909911 0 0.43750000000200551 0.24222777169198509 0 0.37953773393552892 0.34812185820708452 0 0.31411863959822661 0.24965544328045999 0 0.56496004948275869 0.67675037307860475 0 0.50048844149666749 0.56727788297625459 0 0.62752533658682441 0.56838075195614346 0 0.56349980387502452 0.45846841892908402 0 0.68768773896438518 0.4586835206367198 0 0.62752533658682441 0.56838075195614346 0 0.50048844149666749 0.56727788297625459 0 0.56349980387502452 0.45846841892908402 0 0.62752533658682441 0.56838075195614346 0 0.75000000000057243 0.35048094716480432 0 0.62512662990940393 0.35044303886909911 0 0.68668231842078242 0.24762892664808989 0 0.50108503093851109 0.35012252869403671 0 0.43750000000200551 0.24222777169198509 0 0.56250000000143974 0.2422277716920859 0 0.62512662990940393 0.35044303886909911 0 0.50108503093851109 0.35012252869403671 0 0.56250000000143974 0.2422277716920859 0 0.68668231842078242 0.24762892664808989 0 0.62512662990940393 0.35044303886909911 0 0.56250000000143974 0.2422277716920859 0 0.22257735880419699 0.47344721641341742 0 0.24418615484441761 0.35773612382016978 0 0.32815957677880009 0.4577243358118348 0 0.12076953676380731 0.18690935762408761 0 0.19185372118111221 0.092925648673580788 0 0.25103557339309318 0.17464499738446629 0 0.20767261601459541 0.25628918442207171 0 0.12076953676380731 0.18690935762408761 0 0.25103557339309318 0.17464499738446629 0 0 0.87499999999950151 0 0 0.75000000000034761 0 0.10409951422139101 0.81206782209691231 0 0.1249999999997731 0 0 0.24999999999941069 0 0 0.19185372118111221 0.092925648673580788 0 1 0.1249999999997731 0 1 0.24999999999941069 0 0.89658421694297741 0.1933620068391701 0 0.88927506082488361 0.56409486310635837 0 0.81242894672211508 0.45500248311961472 0 0.915464298762109 0.43749999999886913 0 0.87499999999950151 1 0 0.75000000000034761 1 0 0.80886664387416207 0.89717308644237903 0 0.75000000000034761 1 0 0.69010814643829166 0.89298495739101336 0 0.80886664387416207 0.89717308644237903 0 0.82212678063041267 0.67678595194836966 0 0.88927506082488361 0.56409486310635837 0 0.92266244547590082 0.68749999999917555 0 0 0.75000000000034761 0 0.1082531754723032 0.6875000000007816 0 0.10409951422139101 0.81206782209691231 0 0.24999999999941069 0 0 0.31281086598417152 0.10449318608631281 0 0.19185372118111221 0.092925648673580788 0 1 0.24999999999941069 0 0.88173731489851925 0.33077402607778361 0 0.89658421694297741 0.1933620068391701 0 0.32815957677880009 0.4577243358118348 0 0.38694285807596462 0.5672991787102919 0 0.26982811998763367 0.56544650815856912 0 0.76243180583607129 0.78687675331113149 0 0.89051480781310632 0.79665793440246835 0 0.80886664387416207 0.89717308644237903 0 0.38694285807596462 0.5672991787102919 0 0.44078402250377968 0.67714785211715212 0 0.32607333794064219 0.67760114260606152 0 0.37776173212361452 0.78514649317305008 0 0.23533274979922561 0.77093399389351469 0 0.32607333794064219 0.67760114260606152 0 1 0.49999999999869221 0 0.88927506082488361 0.56409486310635837 0 0.915464298762109 0.43749999999886913 0 0.88173731489851925 0.33077402607778361 0 1 0.37499999999904599 0 0.915464298762109 0.43749999999886913 0 0.24418615484441761 0.35773612382016978 0 0.37953773393552892 0.34812185820708452 0 0.32815957677880009 0.4577243358118348 0 0.44301038174930041 0.45684931552185398 0 0.38694285807596462 0.5672991787102919 0 0.32815957677880009 0.4577243358118348 0 0.88927506082488361 0.56409486310635837 0 1 0.62499999999901068 0 0.92266244547590082 0.68749999999917555 0 1 0.74999999999934042 0 0.89051480781310632 0.79665793440246835 0 0.92266244547590082 0.68749999999917555 0 0 1 0 0 0.87499999999950151 0 0.091506350946494744 0.90849364905351082 0 1 1 0 0.87499999999950151 1 0 0.90849364905363228 0.90849364905367769 0 0 0 0 0.1249999999997731 0 0 0.091506350946417708 0.091506350946618076 0 0 0.12500000000052089 0 0 0 0 0.091506350946417708 0.091506350946618076 0 1 0 0 1 0.1249999999997731 0 0.90849364905355434 0.091506350946296292 0 0.87499999999967015 0 0 1 0 0 0.90849364905355434 0.091506350946296292 0 0.12500000000052089 1 0 0 1 0 0.091506350946494744 0.90849364905351082 0 1 0.87499999999967015 0 1 1 0 0.90849364905363228 0.90849364905367769 0 0.38694285807596462 0.5672991787102919 0 0.32607333794064219 0.67760114260606152 0 0.26982811998763367 0.56544650815856912 0 0.31411863959822661 0.24965544328045999 0 0.24418615484441761 0.35773612382016978 0 0.20767261601459541 0.25628918442207171 0 0.1082531754734323 0.31250000000117473 0 0.12076953676380731 0.18690935762408761 0 0.20767261601459541 0.25628918442207171 0 0.75000000000057243 0.35048094716480432 0 0.68668231842078242 0.24762892664808989 0 0.79891106056046712 0.25007334953587562 0 0.22257735880419699 0.47344721641341742 0 0.32815957677880009 0.4577243358118348 0 0.26982811998763367 0.56544650815856912 0 0.44078402250377968 0.67714785211715212 0 0.37776173212361452 0.78514649317305008 0 0.32607333794064219 0.67760114260606152 0 0.89658421694297741 0.1933620068391701 0 0.88173731489851925 0.33077402607778361 0 0.79891106056046712 0.25007334953587562 0 1 0.37499999999904599 0 1 0.49999999999869221 0 0.915464298762109 0.43749999999886913 0 0.37953773393552892 0.34812185820708452 0 0.44301038174930041 0.45684931552185398 0 0.32815957677880009 0.4577243358118348 0 0.32607333794064219 0.67760114260606152 0 0.21809253452218619 0.65480892822618109 0 0.26982811998763367 0.56544650815856912 0 1 0.1249999999997731 0 0.89658421694297741 0.1933620068391701 0 0.90849364905355434 0.091506350946296292 0 0 0.87499999999950151 0 0.10409951422139101 0.81206782209691231 0 0.091506350946494744 0.90849364905351082 0 0.1249999999997731 0 0 0.19185372118111221 0.092925648673580788 0 0.091506350946417708 0.091506350946618076 0 1 0.62499999999901068 0 1 0.74999999999934042 0 0.92266244547590082 0.68749999999917555 0 0.18802967116092181 0.89415349436770275 0 0.12500000000052089 1 0 0.091506350946494744 0.90849364905351082 0 0.89051480781310632 0.79665793440246835 0 1 0.87499999999967015 0 0.90849364905363228 0.90849364905367769 0 0.12076953676380731 0.18690935762408761 0 0 0.12500000000052089 0 0.091506350946417708 0.091506350946618076 0 0.81249999999950517 0.1082531754733404 0 0.87499999999967015 0 0 0.90849364905355434 0.091506350946296292 0 0.87499999999950151 1 0 0.80886664387416207 0.89717308644237903 0 0.90849364905363228 0.90849364905367769 0 0.68668231842078242 0.24762892664808989 0 0.62499999999892575 0.17524047358135519 0 0.73983916756365475 0.17530677078674589 0 0.31281086598417152 0.10449318608631281 0 0.43749999999910871 0.1082531754729984 0 0.37500000000232431 0.17524047358384309 0 0.62499999999892575 0.17524047358135519 0 0.56250000000143974 0.2422277716920859 0 0.49999999999934441 0.1752404735815076 0 0.56249999999885147 0.1082531754730395 0 0.68749999999926592 0.1082531754732875 0 0.62499999999892575 0.17524047358135519 0 0.56249999999885147 0.1082531754730395 0 0.62499999999892575 0.17524047358135519 0 0.49999999999934441 0.1752404735815076 0 0.56250000000143974 0.2422277716920859 0 0.43750000000200551 0.24222777169198509 0 0.49999999999934441 0.1752404735815076 0 0.43749999999910871 0.1082531754729984 0 0.56249999999885147 0.1082531754730395 0 0.49999999999934441 0.1752404735815076 0 0.68668231842078242 0.24762892664808989 0 0.56250000000143974 0.2422277716920859 0 0.62499999999892575 0.17524047358135519 0 0.43750000000200551 0.24222777169198509 0 0.31411863959822661 0.24965544328045999 0 0.37500000000232431 0.17524047358384309 0 0.49999999999934441 0.1752404735815076 0 0.43750000000200551 0.24222777169198509 0 0.37500000000232431 0.17524047358384309 0 0.43749999999910871 0.1082531754729984 0 0.49999999999934441 0.1752404735815076 0 0.37500000000232431 0.17524047358384309 0 0.62499999999892575 0.17524047358135519 0 0.68749999999926592 0.1082531754732875 0 0.73983916756365475 0.17530677078674589 0 0.68749999999926592 0.1082531754732875 0 0.81249999999950517 0.1082531754733404 0 0.73983916756365475 0.17530677078674589 0 0.10409951422139101 0.81206782209691231 0 0.18802967116092181 0.89415349436770275 0 0.091506350946494744 0.90849364905351082 0 0.89658421694297741 0.1933620068391701 0 0.81249999999950517 0.1082531754733404 0 0.90849364905355434 0.091506350946296292 0 0.19185372118111221 0.092925648673580788 0 0.12076953676380731 0.18690935762408761 0 0.091506350946417708 0.091506350946618076 0 0.37500000000232431 0.17524047358384309 0 0.31411863959822661 0.24965544328045999 0 0.25103557339309318 0.17464499738446629 0 0.31281086598417152 0.10449318608631281 0 0.37500000000232431 0.17524047358384309 0 0.25103557339309318 0.17464499738446629 0 0.80886664387416207 0.89717308644237903 0 0.89051480781310632 0.79665793440246835 0 0.90849364905363228 0.90849364905367769 0 0.19185372118111221 0.092925648673580788 0 0.31281086598417152 0.10449318608631281 0 0.25103557339309318 0.17464499738446629 0 0.79891106056046712 0.25007334953587562 0 0.68668231842078242 0.24762892664808989 0 0.73983916756365475 0.17530677078674589 0 0.31411863959822661 0.24965544328045999 0 0.20767261601459541 0.25628918442207171 0 0.25103557339309318 0.17464499738446629 0 

        </DataArray>

      </Points>

      <Cells>

        <DataArray type="Int32" Name="connectivity" format="ascii">

0 1 2 3 4 5 6 7 8 9 10 11 12 13 14 15 16 17 18 19 20 21 22 23 24 25 26 27 28 29 30 31 32 33 34 35 36 37 38 39 40 41 42 43 44 45 46 47 48 49 50 51 52 53 54 55 56 57 58 59 60 61 62 63 64 65 66 67 68 69 70 71 72 73 74 75 76 77 78 79 80 81 82 83 84 85 86 87 88 89 90 91 92 93 94 95 96 97 98 99 100 101 102 103 104 105 106 107 108 109 110 111 112 113 114 115 116 117 118 119 120 121 122 123 124 125 126 127 128 129 130 131 132 133 134 135 136 137 138 139 140 141 142 143 144 145 146 147 148 149 150 151 152 153 154 155 156 157 158 159 160 161 162 163 164 165 166 167 168 169 170 171 172 173 174 175 176 177 178 179 180 181 182 183 184 185 186 187 188 189 190 191 192 193 194 195 196 197 198 199 200 201 202 203 204 205 206 207 208 209 210 211 212 213 214 215 216 217 218 219 220 221 222 223 224 225 226 227 228 229 230 231 232 233 234 235 236 237 238 239 240 241 242 243 244 245 246 247 248 249 250 251 252 253 254 255 256 257 258 259 260 261 262 263 264 265 266 267 268 269 270 271 272 273 274 275 276 277 278 279 280 281 282 283 284 285 286 287 288 289 290 291 292 293 294 295 296 297 298 299 300 301 302 303 304 305 306 307 308 309 310 311 312 313 314 315 316 317 318 319 320 321 322 323 324 325 326 327 328 329 330 331 332 333 334 335 336 337 338 339 340 341 342 343 344 345 346 347 348 349 350 351 352 353 354 355 356 357 358 359 360 361 362 363 364 365 366 367 368 369 370 371 372 373 374 375 376 377 378 379 380 381 382 383 384 385 386 387 388 389 390 391 392 393 394 395 396 397 398 399 400 401 402 403 404 405 406 407 408 409 410 411 412 413 414 415 416 417 418 419 420 421 422 423 424 425 426 427 428 429 430 431 432 433 434 435 436 437 438 439 440 441 442 443 444 445 446 447 448 449 450 451 452 453 454 455 456 457 458 459 460 461 462 463 464 465 466 467 468 469 470 471 472 473 474 475 476 477 478 479 480 481 482 483 484 485 

        </DataArray>

        <DataArray type="Int32" Name="offsets" format="ascii">

3 6 9 12 15 18 21 24 27 30 33 36 39 42 45 48 51 54 57 60 63 66 69 72 75 78 81 84 87 90 93 96 99 102 105 108 111 114 117 120 123 126 129 132 135 138 141 144 147 150 153 156 159 162 165 168 171 174 177 180 183 186 189 192 195 198 201 204 207 210 213 216 219 222 225 228 231 234 237 240 243 246 249 252 255 258 261 264 267 270 273 276 279 282 285 288 291 294 297 300 303 306 309 312 315 318 321 324 327 330 333 336 339 342 345 348 351 354 357 360 363 366 369 372 375 378 381 384 387 390 393 396 399 402 405 408 411 414 417 420 423 426 429 432 435 438 441 444 447 450 453 456 459 462 465 468 471 474 477 480 483 486 

        </DataArray>

        <DataArray type="Int32" Name="types" format="ascii">

5 5 5 5 5 5 5 5 5 5 5 5 5 5 5 5 5 5 5 5 5 5 5 5 5 5 5 5 5 5 5 5 5 5 5 5 5 5 5 5 5 5 5 5 5 5 5 5 5 5 5 5 5 5 5 5 5 5 5 5 5 5 5 5 5 5 5 5 5 5 5 5 5 5 5 5 5 5 5 5 5 5 5 5 5 5 5 5 5 5 5 5 5 5 5 5 5 5 5 5 5 5 5 5 5 5 5 5 5 5 5 5 5 5 5 5 5 5 5 5 5 5 5 5 5 5 5 5 5 5 5 5 5 5 5 5 5 5 5 5 5 5 5 5 5 5 5 5 5 5 5 5 5 5 5 5 5 5 5 5 5 5 

        </DataArray>

      </Cells>

    </Piece>

  </UnstructuredGrid>

</VTKFile>

