<?xml version="1.0"?>

<VTKFile type="UnstructuredGrid" version="0.1">

  <UnstructuredGrid>

    <Piece NumberOfPoints="486" NumberOfCells="162">

      <PointData>

        <DataArray type="Float64" Name="K" format="ascii">

1.01457155123952170e+00
1.01457155123952170e+00
1.01457155123952170e+00
1.01206991249038381e+00
1.01206991249038381e+00
1.01206991249038381e+00
9.83173398602096293e-01
9.83173398602096293e-01
9.83173398602096293e-01
1.01819436014059295e+00
1.01819436014059295e+00
1.01819436014059295e+00
9.98499722038324600e-01
9.98499722038324600e-01
9.98499722038324600e-01
1.00976780832347335e+00
1.00976780832347335e+00
1.00976780832347335e+00
1.03074955243983868e+00
1.03074955243983868e+00
1.03074955243983868e+00
1.02123529893522202e+00
1.02123529893522202e+00
1.02123529893522202e+00
1.03648046720682419e+00
1.03648046720682419e+00
1.03648046720682419e+00
9.86659913613797790e-01
9.86659913613797790e-01
9.86659913613797790e-01
1.01573987983960445e+00
1.01573987983960445e+00
1.01573987983960445e+00
1.02699627315593367e+00
1.02699627315593367e+00
1.02699627315593367e+00
1.01226076983615121e+00
1.01226076983615121e+00
1.01226076983615121e+00
1.01246439781008624e+00
1.01246439781008624e+00
1.01246439781008624e+00
1.03432085317352640e+00
1.03432085317352640e+00
1.03432085317352640e+00
1.04879934922170448e+00
1.04879934922170448e+00
1.04879934922170448e+00
1.00350900719415059e+00
1.00350900719415059e+00
1.00350900719415059e+00
1.00058536145331001e+00
1.00058536145331001e+00
1.00058536145331001e+00
1.05511131249364998e+00
1.05511131249364998e+00
1.05511131249364998e+00
1.02879705592487558e+00
1.02879705592487558e+00
1.02879705592487558e+00
1.01429928575330064e+00
1.01429928575330064e+00
1.01429928575330064e+00
1.01701932408759887e+00
1.01701932408759887e+00
1.01701932408759887e+00
9.79378070820541291e-01
9.79378070820541291e-01
9.79378070820541291e-01
1.02350337132331770e+00
1.02350337132331770e+00
1.02350337132331770e+00
1.04945470638673632e+00
1.04945470638673632e+00
1.04945470638673632e+00
1.03552822328308824e+00
1.03552822328308824e+00
1.03552822328308824e+00
1.03440334175492099e+00
1.03440334175492099e+00
1.03440334175492099e+00
1.03396292830450021e+00
1.03396292830450021e+00
1.03396292830450021e+00
1.01208808506220560e+00
1.01208808506220560e+00
1.01208808506220560e+00
1.05028366666834594e+00
1.05028366666834594e+00
1.05028366666834594e+00
1.04529484822554530e+00
1.04529484822554530e+00
1.04529484822554530e+00
1.02657630278869538e+00
1.02657630278869538e+00
1.02657630278869538e+00
9.97909438672769378e-01
9.97909438672769378e-01
9.97909438672769378e-01
9.98223705875724732e-01
9.98223705875724732e-01
9.98223705875724732e-01
1.00350851935671703e+00
1.00350851935671703e+00
1.00350851935671703e+00
9.88636382434838645e-01
9.88636382434838645e-01
9.88636382434838645e-01
1.02185810051365489e+00
1.02185810051365489e+00
1.02185810051365489e+00
1.00176794480510489e+00
1.00176794480510489e+00
1.00176794480510489e+00
9.84493167260470425e-01
9.84493167260470425e-01
9.84493167260470425e-01
9.63500351239616859e-01
9.63500351239616859e-01
9.63500351239616859e-01
1.00073018207005671e+00
1.00073018207005671e+00
1.00073018207005671e+00
1.04447590774699850e+00
1.04447590774699850e+00
1.04447590774699850e+00
9.78178936706040392e-01
9.78178936706040392e-01
9.78178936706040392e-01
9.69104129307720163e-01
9.69104129307720163e-01
9.69104129307720163e-01
1.01335279801085920e+00
1.01335279801085920e+00
1.01335279801085920e+00
9.77624262566563318e-01
9.77624262566563318e-01
9.77624262566563318e-01
9.59125409588259537e-01
9.59125409588259537e-01
9.59125409588259537e-01
9.41788755626880358e-01
9.41788755626880358e-01
9.41788755626880358e-01
1.03949784738815953e+00
1.03949784738815953e+00
1.03949784738815953e+00
1.00319276946109781e+00
1.00319276946109781e+00
1.00319276946109781e+00
9.63922425592698473e-01
9.63922425592698473e-01
9.63922425592698473e-01
1.01217568307061123e+00
1.01217568307061123e+00
1.01217568307061123e+00
1.03903857673299482e+00
1.03903857673299482e+00
1.03903857673299482e+00
9.37628730847414826e-01
9.37628730847414826e-01
9.37628730847414826e-01
9.78876136444064349e-01
9.78876136444064349e-01
9.78876136444064349e-01
1.00094670450415291e+00
1.00094670450415291e+00
1.00094670450415291e+00
1.02026910143977778e+00
1.02026910143977778e+00
1.02026910143977778e+00
1.04626919760758219e+00
1.04626919760758219e+00
1.04626919760758219e+00
9.79609008677157722e-01
9.79609008677157722e-01
9.79609008677157722e-01
9.72751489257357549e-01
9.72751489257357549e-01
9.72751489257357549e-01
1.03765994523253524e+00
1.03765994523253524e+00
1.03765994523253524e+00
9.56086172698565107e-01
9.56086172698565107e-01
9.56086172698565107e-01
1.05509230612940597e+00
1.05509230612940597e+00
1.05509230612940597e+00
1.05258190357009696e+00
1.05258190357009696e+00
1.05258190357009696e+00
1.01147747415168054e+00
1.01147747415168054e+00
1.01147747415168054e+00
1.04241891452109425e+00
1.04241891452109425e+00
1.04241891452109425e+00
1.05460209214972567e+00
1.05460209214972567e+00
1.05460209214972567e+00
1.03181120654729264e+00
1.03181120654729264e+00
1.03181120654729264e+00
1.05869087631398195e+00
1.05869087631398195e+00
1.05869087631398195e+00
9.95469030230255014e-01
9.95469030230255014e-01
9.95469030230255014e-01
1.01056019419346232e+00
1.01056019419346232e+00
1.01056019419346232e+00
1.03878679220238945e+00
1.03878679220238945e+00
1.03878679220238945e+00
1.03516905395104053e+00
1.03516905395104053e+00
1.03516905395104053e+00
1.04392959104166638e+00
1.04392959104166638e+00
1.04392959104166638e+00
1.02926737518701605e+00
1.02926737518701605e+00
1.02926737518701605e+00
9.71255943212216866e-01
9.71255943212216866e-01
9.71255943212216866e-01
1.00185986492830215e+00
1.00185986492830215e+00
1.00185986492830215e+00
1.04975336377087181e+00
1.04975336377087181e+00
1.04975336377087181e+00
1.03010318029430548e+00
1.03010318029430548e+00
1.03010318029430548e+00
9.96029150820766929e-01
9.96029150820766929e-01
9.96029150820766929e-01
1.01166104938295498e+00
1.01166104938295498e+00
1.01166104938295498e+00
1.00632930310235946e+00
1.00632930310235946e+00
1.00632930310235946e+00
9.82088061092853959e-01
9.82088061092853959e-01
9.82088061092853959e-01
1.01697166945063588e+00
1.01697166945063588e+00
1.01697166945063588e+00
1.03471310636018288e+00
1.03471310636018288e+00
1.03471310636018288e+00
1.01461898360268576e+00
1.01461898360268576e+00
1.01461898360268576e+00
1.05114887364472476e+00
1.05114887364472476e+00
1.05114887364472476e+00
9.67063657733097437e-01
9.67063657733097437e-01
9.67063657733097437e-01
1.00320362931747820e+00
1.00320362931747820e+00
1.00320362931747820e+00
1.03992425536473787e+00
1.03992425536473787e+00
1.03992425536473787e+00
1.02665784119330472e+00
1.02665784119330472e+00
1.02665784119330472e+00
9.54707701159404398e-01
9.54707701159404398e-01
9.54707701159404398e-01
9.64544695735031210e-01
9.64544695735031210e-01
9.64544695735031210e-01
1.03016838642177722e+00
1.03016838642177722e+00
1.03016838642177722e+00
9.48408507152928681e-01
9.48408507152928681e-01
9.48408507152928681e-01
1.07455655871348688e+00
1.07455655871348688e+00
1.07455655871348688e+00
9.95392383485245280e-01
9.95392383485245280e-01
9.95392383485245280e-01
1.03921935756123540e+00
1.03921935756123540e+00
1.03921935756123540e+00
1.03637162026168794e+00
1.03637162026168794e+00
1.03637162026168794e+00
9.81138064419579181e-01
9.81138064419579181e-01
9.81138064419579181e-01
1.03170681281884069e+00
1.03170681281884069e+00
1.03170681281884069e+00
9.65244828363327367e-01
9.65244828363327367e-01
9.65244828363327367e-01
1.05800527808905720e+00
1.05800527808905720e+00
1.05800527808905720e+00
1.06790061659435032e+00
1.06790061659435032e+00
1.06790061659435032e+00
1.03093842776230216e+00
1.03093842776230216e+00
1.03093842776230216e+00
1.08307723166458292e+00
1.08307723166458292e+00
1.08307723166458292e+00
1.04957055270536559e+00
1.04957055270536559e+00
1.04957055270536559e+00
9.90435098176669415e-01
9.90435098176669415e-01
9.90435098176669415e-01
1.02831984889804251e+00
1.02831984889804251e+00
1.02831984889804251e+00
1.02987309516266312e+00
1.02987309516266312e+00
1.02987309516266312e+00
1.05658341080584139e+00
1.05658341080584139e+00
1.05658341080584139e+00
9.68558091940386334e-01
9.68558091940386334e-01
9.68558091940386334e-01
9.73136374554537165e-01
9.73136374554537165e-01
9.73136374554537165e-01
1.02898619571222749e+00
1.02898619571222749e+00
1.02898619571222749e+00
9.92371037896121688e-01
9.92371037896121688e-01
9.92371037896121688e-01
9.32776121039655903e-01
9.32776121039655903e-01
9.32776121039655903e-01
9.55530380214916986e-01
9.55530380214916986e-01
9.55530380214916986e-01
1.06257595709341013e+00
1.06257595709341013e+00
1.06257595709341013e+00
1.06043622866730947e+00
1.06043622866730947e+00
1.06043622866730947e+00
1.03042736910920030e+00
1.03042736910920030e+00
1.03042736910920030e+00
9.83205944071004145e-01
9.83205944071004145e-01
9.83205944071004145e-01
1.07649119118821091e+00
1.07649119118821091e+00
1.07649119118821091e+00
9.99417225608819293e-01
9.99417225608819293e-01
9.99417225608819293e-01
9.59324237917644096e-01
9.59324237917644096e-01
9.59324237917644096e-01
1.04003444277907153e+00
1.04003444277907153e+00
1.04003444277907153e+00
1.04128182271873992e+00
1.04128182271873992e+00
1.04128182271873992e+00
1.07547455437852069e+00
1.07547455437852069e+00
1.07547455437852069e+00
1.03320074081199431e+00
1.03320074081199431e+00
1.03320074081199431e+00
1.01595099507300013e+00
1.01595099507300013e+00
1.01595099507300013e+00
1.03062562508508826e+00
1.03062562508508826e+00
1.03062562508508826e+00
1.04787092838950557e+00
1.04787092838950557e+00
1.04787092838950557e+00
1.06904754436317906e+00
1.06904754436317906e+00
1.06904754436317906e+00
1.03223620708364572e+00
1.03223620708364572e+00
1.03223620708364572e+00
9.32000391893051838e-01
9.32000391893051838e-01
9.32000391893051838e-01
9.71100281662328202e-01
9.71100281662328202e-01
9.71100281662328202e-01
1.01157589057538688e+00
1.01157589057538688e+00
1.01157589057538688e+00
9.87023802279567763e-01
9.87023802279567763e-01
9.87023802279567763e-01
9.45678571722628369e-01
9.45678571722628369e-01
9.45678571722628369e-01
1.04966851836952091e+00
1.04966851836952091e+00
1.04966851836952091e+00
1.02105259074482868e+00
1.02105259074482868e+00
1.02105259074482868e+00
1.05431110423267871e+00
1.05431110423267871e+00
1.05431110423267871e+00
9.49202767240155065e-01
9.49202767240155065e-01
9.49202767240155065e-01
1.00284376818626297e+00
1.00284376818626297e+00
1.00284376818626297e+00
1.04461326861934900e+00
1.04461326861934900e+00
1.04461326861934900e+00
1.00467331353703493e+00
1.00467331353703493e+00
1.00467331353703493e+00
9.60607871259744672e-01
9.60607871259744672e-01
9.60607871259744672e-01
9.59571725330854886e-01
9.59571725330854886e-01
9.59571725330854886e-01
1.04229703885043046e+00
1.04229703885043046e+00
1.04229703885043046e+00
9.66989337951597694e-01
9.66989337951597694e-01
9.66989337951597694e-01
9.44382962938525639e-01
9.44382962938525639e-01
9.44382962938525639e-01
9.39312749492301480e-01
9.39312749492301480e-01
9.39312749492301480e-01
1.05407802959127705e+00
1.05407802959127705e+00
1.05407802959127705e+00
1.04175360117547022e+00
1.04175360117547022e+00
1.04175360117547022e+00
1.01786500049855144e+00
1.01786500049855144e+00
1.01786500049855144e+00
1.04968327090526392e+00
1.04968327090526392e+00
1.04968327090526392e+00
9.35847467767119467e-01
9.35847467767119467e-01
9.35847467767119467e-01
9.83963630414362300e-01
9.83963630414362300e-01
9.83963630414362300e-01
9.74524449448057273e-01
9.74524449448057273e-01
9.74524449448057273e-01
1.01204176696321979e+00
1.01204176696321979e+00
1.01204176696321979e+00
9.72098583022794616e-01
9.72098583022794616e-01
9.72098583022794616e-01
1.04241119204785182e+00
1.04241119204785182e+00
1.04241119204785182e+00
9.89467044730748424e-01
9.89467044730748424e-01
9.89467044730748424e-01


        </DataArray>

      </PointData>

      <CellData/>

      <Points>

        <DataArray type="Float64" NumberOfComponents="3" format="ascii">

0.1082531754723032 0.6875000000007816 0 0.23533274979922561 0.77093399389351469 0 0.10409951422139101 0.81206782209691231 0 0.23533274979922561 0.77093399389351469 0 0.1082531754723032 0.6875000000007816 0 0.21809253452218619 0.65480892822618109 0 0.24418615484441761 0.35773612382016978 0 0.121259140952891 0.43112117036853742 0 0.1082531754734323 0.31250000000117473 0 0.75000000000057243 0.35048094716480432 0 0.88173731489851925 0.33077402607778361 0 0.81242894672211508 0.45500248311961472 0 0.121259140952891 0.43112117036853742 0 0.24418615484441761 0.35773612382016978 0 0.22257735880419699 0.47344721641341742 0 0.81242894672211508 0.45500248311961472 0 0.88173731489851925 0.33077402607778361 0 0.915464298762109 0.43749999999886913 0 0 0.62500000000121547 0 0 0.50000000000206146 0 0.1371230538040123 0.56179824718362847 0 0.82212678063041267 0.67678595194836966 0 0.89051480781310632 0.79665793440246835 0 0.76243180583607129 0.78687675331113149 0 0.76243180583607129 0.78687675331113149 0 0.69010814643829166 0.89298495739101336 0 0.62844955668446423 0.7850749770380413 0 0.89051480781310632 0.79665793440246835 0 0.82212678063041267 0.67678595194836966 0 0.92266244547590082 0.68749999999917555 0 0 0.50000000000206146 0 0.121259140952891 0.43112117036853742 0 0.1371230538040123 0.56179824718362847 0 0.1082531754723032 0.6875000000007816 0 0 0.62500000000121547 0 0.1371230538040123 0.56179824718362847 0 0.75000000000032374 0.56698729811007709 0 0.88927506082488361 0.56409486310635837 0 0.82212678063041267 0.67678595194836966 0 0.81242894672211508 0.45500248311961472 0 0.88927506082488361 0.56409486310635837 0 0.75000000000032374 0.56698729811007709 0 0.69851598570178741 0.68211701800612057 0 0.56496004948275869 0.67675037307860475 0 0.62752533658682441 0.56838075195614346 0 0.69851598570178741 0.68211701800612057 0 0.76243180583607129 0.78687675331113149 0 0.62844955668446423 0.7850749770380413 0 0.23533274979922561 0.77093399389351469 0 0.18802967116092181 0.89415349436770275 0 0.10409951422139101 0.81206782209691231 0 0.121259140952891 0.43112117036853742 0 0.22257735880419699 0.47344721641341742 0 0.1371230538040123 0.56179824718362847 0 0.75000000000032374 0.56698729811007709 0 0.69851598570178741 0.68211701800612057 0 0.62752533658682441 0.56838075195614346 0 0.56496004948275869 0.67675037307860475 0 0.69851598570178741 0.68211701800612057 0 0.62844955668446423 0.7850749770380413 0 0.1371230538040123 0.56179824718362847 0 0.22257735880419699 0.47344721641341742 0 0.26982811998763367 0.56544650815856912 0 0.21809253452218619 0.65480892822618109 0 0.1371230538040123 0.56179824718362847 0 0.26982811998763367 0.56544650815856912 0 0.24418615484441761 0.35773612382016978 0 0.1082531754734323 0.31250000000117473 0 0.20767261601459541 0.25628918442207171 0 0.88173731489851925 0.33077402607778361 0 0.75000000000057243 0.35048094716480432 0 0.79891106056046712 0.25007334953587562 0 0.75000000000032374 0.56698729811007709 0 0.82212678063041267 0.67678595194836966 0 0.69851598570178741 0.68211701800612057 0 0.81249999999950517 0.1082531754733404 0 0.89658421694297741 0.1933620068391701 0 0.79891106056046712 0.25007334953587562 0 0.81249999999950517 0.1082531754733404 0 0.79891106056046712 0.25007334953587562 0 0.73983916756365475 0.17530677078674589 0 0.23533274979922561 0.77093399389351469 0 0.21809253452218619 0.65480892822618109 0 0.32607333794064219 0.67760114260606152 0 0.1082531754723032 0.6875000000007816 0 0.1371230538040123 0.56179824718362847 0 0.21809253452218619 0.65480892822618109 0 0.69851598570178741 0.68211701800612057 0 0.82212678063041267 0.67678595194836966 0 0.76243180583607129 0.78687675331113149 0 0.69010814643829166 0.89298495739101336 0 0.76243180583607129 0.78687675331113149 0 0.80886664387416207 0.89717308644237903 0 0.43750000000181222 0.89174682452709564 0 0.31258827852827581 0.89214793616708443 0 0.37776173212361452 0.78514649317305008 0 0.43750000000181222 0.89174682452709564 0 0.37500000000156292 1 0 0.31258827852827581 0.89214793616708443 0 0.121259140952891 0.43112117036853742 0 0 0.37500000000156292 0 0.1082531754734323 0.31250000000117473 0 0.50000000000206146 1 0 0.37500000000156292 1 0 0.43750000000181222 0.89174682452709564 0 0.31258827852827581 0.89214793616708443 0 0.18802967116092181 0.89415349436770275 0 0.23533274979922561 0.77093399389351469 0 0 0.50000000000206146 0 0 0.37500000000156292 0 0.121259140952891 0.43112117036853742 0 0.62844955668446423 0.7850749770380413 0 0.69010814643829166 0.89298495739101336 0 0.56327595140699671 0.89211526915426331 0 0.69010814643829166 0.89298495739101336 0 0.62500000000121547 1 0 0.56327595140699671 0.89211526915426331 0 0.25000000000104189 1 0 0.18802967116092181 0.89415349436770275 0 0.31258827852827581 0.89214793616708443 0 0.50000000000206146 1 0 0.43750000000181222 0.89174682452709564 0 0.56327595140699671 0.89211526915426331 0 0.56249999999885147 0.1082531754730395 0 0.62499999999901068 0 0 0.68749999999926592 0.1082531754732875 0 1 0.49999999999869221 0 1 0.62499999999901068 0 0.88927506082488361 0.56409486310635837 0 0 0.25000000000104189 0 0.12076953676380731 0.18690935762408761 0 0.1082531754734323 0.31250000000117473 0 0.49999999999869221 0 0 0.62499999999901068 0 0 0.56249999999885147 0.1082531754730395 0 0.62500000000121547 1 0 0.50000000000206146 1 0 0.56327595140699671 0.89211526915426331 0 0.37500000000156292 1 0 0.25000000000104189 1 0 0.31258827852827581 0.89214793616708443 0 0.31281086598417152 0.10449318608631281 0 0.37499999999904599 0 0 0.43749999999910871 0.1082531754729984 0 0.43750000000181222 0.89174682452709564 0 0.37776173212361452 0.78514649317305008 0 0.50046028868828263 0.78376912307435687 0 0 0.37500000000156292 0 0 0.25000000000104189 0 0.1082531754734323 0.31250000000117473 0 0.49999999999869221 0 0 0.56249999999885147 0.1082531754730395 0 0.43749999999910871 0.1082531754729984 0 0.43750000000181222 0.89174682452709564 0 0.50046028868828263 0.78376912307435687 0 0.56327595140699671 0.89211526915426331 0 0.74999999999934042 0 0 0.81249999999950517 0.1082531754733404 0 0.68749999999926592 0.1082531754732875 0 0.37499999999904599 0 0 0.49999999999869221 0 0 0.43749999999910871 0.1082531754729984 0 0.25000000000104189 1 0 0.12500000000052089 1 0 0.18802967116092181 0.89415349436770275 0 0.50046028868828263 0.78376912307435687 0 0.62844955668446423 0.7850749770380413 0 0.56327595140699671 0.89211526915426331 0 0.37776173212361452 0.78514649317305008 0 0.31258827852827581 0.89214793616708443 0 0.23533274979922561 0.77093399389351469 0 0.62499999999901068 0 0 0.74999999999934042 0 0 0.68749999999926592 0.1082531754732875 0 1 0.74999999999934042 0 1 0.87499999999967015 0 0.89051480781310632 0.79665793440246835 0 0 0.25000000000104189 0 0 0.12500000000052089 0 0.12076953676380731 0.18690935762408761 0 0.74999999999934042 0 0 0.87499999999967015 0 0 0.81249999999950517 0.1082531754733404 0 0.24999999999941069 0 0 0.37499999999904599 0 0 0.31281086598417152 0.10449318608631281 0 0.50046028868828263 0.78376912307435687 0 0.37776173212361452 0.78514649317305008 0 0.44078402250377968 0.67714785211715212 0 0.68768773896438518 0.4586835206367198 0 0.75000000000032374 0.56698729811007709 0 0.62752533658682441 0.56838075195614346 0 0.31411863959822661 0.24965544328045999 0 0.37953773393552892 0.34812185820708452 0 0.24418615484441761 0.35773612382016978 0 0.68768773896438518 0.4586835206367198 0 0.81242894672211508 0.45500248311961472 0 0.75000000000032374 0.56698729811007709 0 1 0.24999999999941069 0 1 0.37499999999904599 0 0.88173731489851925 0.33077402607778361 0 0 0.75000000000034761 0 0 0.62500000000121547 0 0.1082531754723032 0.6875000000007816 0 0.50048844149666749 0.56727788297625459 0 0.44078402250377968 0.67714785211715212 0 0.38694285807596462 0.5672991787102919 0 0.50108503093851109 0.35012252869403671 0 0.44301038174930041 0.45684931552185398 0 0.37953773393552892 0.34812185820708452 0 0.50046028868828263 0.78376912307435687 0 0.56496004948275869 0.67675037307860475 0 0.62844955668446423 0.7850749770380413 0 0.68768773896438518 0.4586835206367198 0 0.75000000000057243 0.35048094716480432 0 0.81242894672211508 0.45500248311961472 0 0.56349980387502452 0.45846841892908402 0 0.62512662990940393 0.35044303886909911 0 0.68768773896438518 0.4586835206367198 0 0.50048844149666749 0.56727788297625459 0 0.38694285807596462 0.5672991787102919 0 0.44301038174930041 0.45684931552185398 0 0.50046028868828263 0.78376912307435687 0 0.44078402250377968 0.67714785211715212 0 0.56496004948275869 0.67675037307860475 0 0.50108503093851109 0.35012252869403671 0 0.37953773393552892 0.34812185820708452 0 0.43750000000200551 0.24222777169198509 0 0.75000000000034761 1 0 0.62500000000121547 1 0 0.69010814643829166 0.89298495739101336 0 0.68768773896438518 0.4586835206367198 0 0.62512662990940393 0.35044303886909911 0 0.75000000000057243 0.35048094716480432 0 0.56496004948275869 0.67675037307860475 0 0.44078402250377968 0.67714785211715212 0 0.50048844149666749 0.56727788297625459 0 0.56349980387502452 0.45846841892908402 0 0.44301038174930041 0.45684931552185398 0 0.50108503093851109 0.35012252869403671 0 0.50048844149666749 0.56727788297625459 0 0.44301038174930041 0.45684931552185398 0 0.56349980387502452 0.45846841892908402 0 0.56349980387502452 0.45846841892908402 0 0.50108503093851109 0.35012252869403671 0 0.62512662990940393 0.35044303886909911 0 0.43750000000200551 0.24222777169198509 0 0.37953773393552892 0.34812185820708452 0 0.31411863959822661 0.24965544328045999 0 0.56496004948275869 0.67675037307860475 0 0.50048844149666749 0.56727788297625459 0 0.62752533658682441 0.56838075195614346 0 0.56349980387502452 0.45846841892908402 0 0.68768773896438518 0.4586835206367198 0 0.62752533658682441 0.56838075195614346 0 0.50048844149666749 0.56727788297625459 0 0.56349980387502452 0.45846841892908402 0 0.62752533658682441 0.56838075195614346 0 0.75000000000057243 0.35048094716480432 0 0.62512662990940393 0.35044303886909911 0 0.68668231842078242 0.24762892664808989 0 0.50108503093851109 0.35012252869403671 0 0.43750000000200551 0.24222777169198509 0 0.56250000000143974 0.2422277716920859 0 0.62512662990940393 0.35044303886909911 0 0.50108503093851109 0.35012252869403671 0 0.56250000000143974 0.2422277716920859 0 0.68668231842078242 0.24762892664808989 0 0.62512662990940393 0.35044303886909911 0 0.56250000000143974 0.2422277716920859 0 0.22257735880419699 0.47344721641341742 0 0.24418615484441761 0.35773612382016978 0 0.32815957677880009 0.4577243358118348 0 0.12076953676380731 0.18690935762408761 0 0.19185372118111221 0.092925648673580788 0 0.25103557339309318 0.17464499738446629 0 0.20767261601459541 0.25628918442207171 0 0.12076953676380731 0.18690935762408761 0 0.25103557339309318 0.17464499738446629 0 0 0.87499999999950151 0 0 0.75000000000034761 0 0.10409951422139101 0.81206782209691231 0 0.1249999999997731 0 0 0.24999999999941069 0 0 0.19185372118111221 0.092925648673580788 0 1 0.1249999999997731 0 1 0.24999999999941069 0 0.89658421694297741 0.1933620068391701 0 0.88927506082488361 0.56409486310635837 0 0.81242894672211508 0.45500248311961472 0 0.915464298762109 0.43749999999886913 0 0.87499999999950151 1 0 0.75000000000034761 1 0 0.80886664387416207 0.89717308644237903 0 0.75000000000034761 1 0 0.69010814643829166 0.89298495739101336 0 0.80886664387416207 0.89717308644237903 0 0.82212678063041267 0.67678595194836966 0 0.88927506082488361 0.56409486310635837 0 0.92266244547590082 0.68749999999917555 0 0 0.75000000000034761 0 0.1082531754723032 0.6875000000007816 0 0.10409951422139101 0.81206782209691231 0 0.24999999999941069 0 0 0.31281086598417152 0.10449318608631281 0 0.19185372118111221 0.092925648673580788 0 1 0.24999999999941069 0 0.88173731489851925 0.33077402607778361 0 0.89658421694297741 0.1933620068391701 0 0.32815957677880009 0.4577243358118348 0 0.38694285807596462 0.5672991787102919 0 0.26982811998763367 0.56544650815856912 0 0.76243180583607129 0.78687675331113149 0 0.89051480781310632 0.79665793440246835 0 0.80886664387416207 0.89717308644237903 0 0.38694285807596462 0.5672991787102919 0 0.44078402250377968 0.67714785211715212 0 0.32607333794064219 0.67760114260606152 0 0.37776173212361452 0.78514649317305008 0 0.23533274979922561 0.77093399389351469 0 0.32607333794064219 0.67760114260606152 0 1 0.49999999999869221 0 0.88927506082488361 0.56409486310635837 0 0.915464298762109 0.43749999999886913 0 0.88173731489851925 0.33077402607778361 0 1 0.37499999999904599 0 0.915464298762109 0.43749999999886913 0 0.24418615484441761 0.35773612382016978 0 0.37953773393552892 0.34812185820708452 0 0.32815957677880009 0.4577243358118348 0 0.44301038174930041 0.45684931552185398 0 0.38694285807596462 0.5672991787102919 0 0.32815957677880009 0.4577243358118348 0 0.88927506082488361 0.56409486310635837 0 1 0.62499999999901068 0 0.92266244547590082 0.68749999999917555 0 1 0.74999999999934042 0 0.89051480781310632 0.79665793440246835 0 0.92266244547590082 0.68749999999917555 0 0 1 0 0 0.87499999999950151 0 0.091506350946494744 0.90849364905351082 0 1 1 0 0.87499999999950151 1 0 0.90849364905363228 0.90849364905367769 0 0 0 0 0.1249999999997731 0 0 0.091506350946417708 0.091506350946618076 0 0 0.12500000000052089 0 0 0 0 0.091506350946417708 0.091506350946618076 0 1 0 0 1 0.1249999999997731 0 0.90849364905355434 0.091506350946296292 0 0.87499999999967015 0 0 1 0 0 0.90849364905355434 0.091506350946296292 0 0.12500000000052089 1 0 0 1 0 0.091506350946494744 0.90849364905351082 0 1 0.87499999999967015 0 1 1 0 0.90849364905363228 0.90849364905367769 0 0.38694285807596462 0.5672991787102919 0 0.32607333794064219 0.67760114260606152 0 0.26982811998763367 0.56544650815856912 0 0.31411863959822661 0.24965544328045999 0 0.24418615484441761 0.35773612382016978 0 0.20767261601459541 0.25628918442207171 0 0.1082531754734323 0.31250000000117473 0 0.12076953676380731 0.18690935762408761 0 0.20767261601459541 0.25628918442207171 0 0.75000000000057243 0.35048094716480432 0 0.68668231842078242 0.24762892664808989 0 0.79891106056046712 0.25007334953587562 0 0.22257735880419699 0.47344721641341742 0 0.32815957677880009 0.4577243358118348 0 0.26982811998763367 0.56544650815856912 0 0.44078402250377968 0.67714785211715212 0 0.37776173212361452 0.78514649317305008 0 0.32607333794064219 0.67760114260606152 0 0.89658421694297741 0.1933620068391701 0 0.88173731489851925 0.33077402607778361 0 0.79891106056046712 0.25007334953587562 0 1 0.37499999999904599 0 1 0.49999999999869221 0 0.915464298762109 0.43749999999886913 0 0.37953773393552892 0.34812185820708452 0 0.44301038174930041 0.45684931552185398 0 0.32815957677880009 0.4577243358118348 0 0.32607333794064219 0.67760114260606152 0 0.21809253452218619 0.65480892822618109 0 0.26982811998763367 0.56544650815856912 0 1 0.1249999999997731 0 0.89658421694297741 0.1933620068391701 0 0.90849364905355434 0.091506350946296292 0 0 0.87499999999950151 0 0.10409951422139101 0.81206782209691231 0 0.091506350946494744 0.90849364905351082 0 0.1249999999997731 0 0 0.19185372118111221 0.092925648673580788 0 0.091506350946417708 0.091506350946618076 0 1 0.62499999999901068 0 1 0.74999999999934042 0 0.92266244547590082 0.68749999999917555 0 0.18802967116092181 0.89415349436770275 0 0.12500000000052089 1 0 0.091506350946494744 0.90849364905351082 0 0.89051480781310632 0.79665793440246835 0 1 0.87499999999967015 0 0.90849364905363228 0.90849364905367769 0 0.12076953676380731 0.18690935762408761 0 0 0.12500000000052089 0 0.091506350946417708 0.091506350946618076 0 0.81249999999950517 0.1082531754733404 0 0.87499999999967015 0 0 0.90849364905355434 0.091506350946296292 0 0.87499999999950151 1 0 0.80886664387416207 0.89717308644237903 0 0.90849364905363228 0.90849364905367769 0 0.68668231842078242 0.24762892664808989 0 0.62499999999892575 0.17524047358135519 0 0.73983916756365475 0.17530677078674589 0 0.31281086598417152 0.10449318608631281 0 0.43749999999910871 0.1082531754729984 0 0.37500000000232431 0.17524047358384309 0 0.62499999999892575 0.17524047358135519 0 0.56250000000143974 0.2422277716920859 0 0.49999999999934441 0.1752404735815076 0 0.56249999999885147 0.1082531754730395 0 0.68749999999926592 0.1082531754732875 0 0.62499999999892575 0.17524047358135519 0 0.56249999999885147 0.1082531754730395 0 0.62499999999892575 0.17524047358135519 0 0.49999999999934441 0.1752404735815076 0 0.56250000000143974 0.2422277716920859 0 0.43750000000200551 0.24222777169198509 0 0.49999999999934441 0.1752404735815076 0 0.43749999999910871 0.1082531754729984 0 0.56249999999885147 0.1082531754730395 0 0.49999999999934441 0.1752404735815076 0 0.68668231842078242 0.24762892664808989 0 0.56250000000143974 0.2422277716920859 0 0.62499999999892575 0.17524047358135519 0 0.43750000000200551 0.24222777169198509 0 0.31411863959822661 0.24965544328045999 0 0.37500000000232431 0.17524047358384309 0 0.49999999999934441 0.1752404735815076 0 0.43750000000200551 0.24222777169198509 0 0.37500000000232431 0.17524047358384309 0 0.43749999999910871 0.1082531754729984 0 0.49999999999934441 0.1752404735815076 0 0.37500000000232431 0.17524047358384309 0 0.62499999999892575 0.17524047358135519 0 0.68749999999926592 0.1082531754732875 0 0.73983916756365475 0.17530677078674589 0 0.68749999999926592 0.1082531754732875 0 0.81249999999950517 0.1082531754733404 0 0.73983916756365475 0.17530677078674589 0 0.10409951422139101 0.81206782209691231 0 0.18802967116092181 0.89415349436770275 0 0.091506350946494744 0.90849364905351082 0 0.89658421694297741 0.1933620068391701 0 0.81249999999950517 0.1082531754733404 0 0.90849364905355434 0.091506350946296292 0 0.19185372118111221 0.092925648673580788 0 0.12076953676380731 0.18690935762408761 0 0.091506350946417708 0.091506350946618076 0 0.37500000000232431 0.17524047358384309 0 0.31411863959822661 0.24965544328045999 0 0.25103557339309318 0.17464499738446629 0 0.31281086598417152 0.10449318608631281 0 0.37500000000232431 0.17524047358384309 0 0.25103557339309318 0.17464499738446629 0 0.80886664387416207 0.89717308644237903 0 0.89051480781310632 0.79665793440246835 0 0.90849364905363228 0.90849364905367769 0 0.19185372118111221 0.092925648673580788 0 0.31281086598417152 0.10449318608631281 0 0.25103557339309318 0.17464499738446629 0 0.79891106056046712 0.25007334953587562 0 0.68668231842078242 0.24762892664808989 0 0.73983916756365475 0.17530677078674589 0 0.31411863959822661 0.24965544328045999 0 0.20767261601459541 0.25628918442207171 0 0.25103557339309318 0.17464499738446629 0 

        </DataArray>

      </Points>

      <Cells>

        <DataArray type="Int32" Name="connectivity" format="ascii">

0 1 2 3 4 5 6 7 8 9 10 11 12 13 14 15 16 17 18 19 20 21 22 23 24 25 26 27 28 29 30 31 32 33 34 35 36 37 38 39 40 41 42 43 44 45 46 47 48 49 50 51 52 53 54 55 56 57 58 59 60 61 62 63 64 65 66 67 68 69 70 71 72 73 74 75 76 77 78 79 80 81 82 83 84 85 86 87 88 89 90 91 92 93 94 95 96 97 98 99 100 101 102 103 104 105 106 107 108 109 110 111 112 113 114 115 116 117 118 119 120 121 122 123 124 125 126 127 128 129 130 131 132 133 134 135 136 137 138 139 140 141 142 143 144 145 146 147 148 149 150 151 152 153 154 155 156 157 158 159 160 161 162 163 164 165 166 167 168 169 170 171 172 173 174 175 176 177 178 179 180 181 182 183 184 185 186 187 188 189 190 191 192 193 194 195 196 197 198 199 200 201 202 203 204 205 206 207 208 209 210 211 212 213 214 215 216 217 218 219 220 221 222 223 224 225 226 227 228 229 230 231 232 233 234 235 236 237 238 239 240 241 242 243 244 245 246 247 248 249 250 251 252 253 254 255 256 257 258 259 260 261 262 263 264 265 266 267 268 269 270 271 272 273 274 275 276 277 278 279 280 281 282 283 284 285 286 287 288 289 290 291 292 293 294 295 296 297 298 299 300 301 302 303 304 305 306 307 308 309 310 311 312 313 314 315 316 317 318 319 320 321 322 323 324 325 326 327 328 329 330 331 332 333 334 335 336 337 338 339 340 341 342 343 344 345 346 347 348 349 350 351 352 353 354 355 356 357 358 359 360 361 362 363 364 365 366 367 368 369 370 371 372 373 374 375 376 377 378 379 380 381 382 383 384 385 386 387 388 389 390 391 392 393 394 395 396 397 398 399 400 401 402 403 404 405 406 407 408 409 410 411 412 413 414 415 416 417 418 419 420 421 422 423 424 425 426 427 428 429 430 431 432 433 434 435 436 437 438 439 440 441 442 443 444 445 446 447 448 449 450 451 452 453 454 455 456 457 458 459 460 461 462 463 464 465 466 467 468 469 470 471 472 473 474 475 476 477 478 479 480 481 482 483 484 485 

        </DataArray>

        <DataArray type="Int32" Name="offsets" format="ascii">

3 6 9 12 15 18 21 24 27 30 33 36 39 42 45 48 51 54 57 60 63 66 69 72 75 78 81 84 87 90 93 96 99 102 105 108 111 114 117 120 123 126 129 132 135 138 141 144 147 150 153 156 159 162 165 168 171 174 177 180 183 186 189 192 195 198 201 204 207 210 213 216 219 222 225 228 231 234 237 240 243 246 249 252 255 258 261 264 267 270 273 276 279 282 285 288 291 294 297 300 303 306 309 312 315 318 321 324 327 330 333 336 339 342 345 348 351 354 357 360 363 366 369 372 375 378 381 384 387 390 393 396 399 402 405 408 411 414 417 420 423 426 429 432 435 438 441 444 447 450 453 456 459 462 465 468 471 474 477 480 483 486 

        </DataArray>

        <DataArray type="Int32" Name="types" format="ascii">

5 5 5 5 5 5 5 5 5 5 5 5 5 5 5 5 5 5 5 5 5 5 5 5 5 5 5 5 5 5 5 5 5 5 5 5 5 5 5 5 5 5 5 5 5 5 5 5 5 5 5 5 5 5 5 5 5 5 5 5 5 5 5 5 5 5 5 5 5 5 5 5 5 5 5 5 5 5 5 5 5 5 5 5 5 5 5 5 5 5 5 5 5 5 5 5 5 5 5 5 5 5 5 5 5 5 5 5 5 5 5 5 5 5 5 5 5 5 5 5 5 5 5 5 5 5 5 5 5 5 5 5 5 5 5 5 5 5 5 5 5 5 5 5 5 5 5 5 5 5 5 5 5 5 5 5 5 5 5 5 5 5 

        </DataArray>

      </Cells>

    </Piece>

  </UnstructuredGrid>

</VTKFile>

