<?xml version="1.0"?>

<VTKFile type="UnstructuredGrid" version="0.1">

  <UnstructuredGrid>

    <Piece NumberOfPoints="486" NumberOfCells="162">

      <PointData>

        <DataArray type="Float64" Name="K" format="ascii">

9.61226595296434283e-01
9.61226595296434283e-01
9.61226595296434283e-01
9.58383025578011472e-01
9.58383025578011472e-01
9.58383025578011472e-01
9.56822779951243763e-01
9.56822779951243763e-01
9.56822779951243763e-01
9.73225329597792066e-01
9.73225329597792066e-01
9.73225329597792066e-01
9.25376903607773360e-01
9.25376903607773360e-01
9.25376903607773360e-01
9.92802815753258128e-01
9.92802815753258128e-01
9.92802815753258128e-01
9.53509607293366312e-01
9.53509607293366312e-01
9.53509607293366312e-01
1.00716729971150665e+00
1.00716729971150665e+00
1.00716729971150665e+00
9.98743550415678749e-01
9.98743550415678749e-01
9.98743550415678749e-01
1.00891628474776418e+00
1.00891628474776418e+00
1.00891628474776418e+00
9.51764874241215364e-01
9.51764874241215364e-01
9.51764874241215364e-01
9.41578744368918863e-01
9.41578744368918863e-01
9.41578744368918863e-01
1.02404857112088288e+00
1.02404857112088288e+00
1.02404857112088288e+00
1.01208209597016840e+00
1.01208209597016840e+00
1.01208209597016840e+00
1.02572571319026862e+00
1.02572571319026862e+00
1.02572571319026862e+00
1.02091125304634422e+00
1.02091125304634422e+00
1.02091125304634422e+00
9.85967947338489248e-01
9.85967947338489248e-01
9.85967947338489248e-01
9.29318706499663194e-01
9.29318706499663194e-01
9.29318706499663194e-01
1.01371751596187520e+00
1.01371751596187520e+00
1.01371751596187520e+00
1.03713543755240800e+00
1.03713543755240800e+00
1.03713543755240800e+00
9.14008391493769112e-01
9.14008391493769112e-01
9.14008391493769112e-01
9.26385687386691803e-01
9.26385687386691803e-01
9.26385687386691803e-01
9.68922787343393876e-01
9.68922787343393876e-01
9.68922787343393876e-01
9.62657527768493115e-01
9.62657527768493115e-01
9.62657527768493115e-01
1.02494644267466861e+00
1.02494644267466861e+00
1.02494644267466861e+00
9.71964807793728514e-01
9.71964807793728514e-01
9.71964807793728514e-01
9.63710331688541033e-01
9.63710331688541033e-01
9.63710331688541033e-01
9.73630251935044599e-01
9.73630251935044599e-01
9.73630251935044599e-01
9.37927773483071991e-01
9.37927773483071991e-01
9.37927773483071991e-01
1.02038582552972779e+00
1.02038582552972779e+00
1.02038582552972779e+00
9.73282457733815165e-01
9.73282457733815165e-01
9.73282457733815165e-01
1.01367437651617798e+00
1.01367437651617798e+00
1.01367437651617798e+00
9.92459599381822932e-01
9.92459599381822932e-01
9.92459599381822932e-01
9.79661020550044781e-01
9.79661020550044781e-01
9.79661020550044781e-01
9.74077567970237590e-01
9.74077567970237590e-01
9.74077567970237590e-01
1.01049656020232836e+00
1.01049656020232836e+00
1.01049656020232836e+00
9.73940986921636331e-01
9.73940986921636331e-01
9.73940986921636331e-01
1.00344200349098944e+00
1.00344200349098944e+00
1.00344200349098944e+00
9.71775739072864297e-01
9.71775739072864297e-01
9.71775739072864297e-01
1.00889556262441205e+00
1.00889556262441205e+00
1.00889556262441205e+00
9.89537099918383678e-01
9.89537099918383678e-01
9.89537099918383678e-01
9.60384859957252313e-01
9.60384859957252313e-01
9.60384859957252313e-01
9.96934895306773261e-01
9.96934895306773261e-01
9.96934895306773261e-01
1.01755822663245832e+00
1.01755822663245832e+00
1.01755822663245832e+00
9.85074871010088504e-01
9.85074871010088504e-01
9.85074871010088504e-01
9.70233834907956005e-01
9.70233834907956005e-01
9.70233834907956005e-01
9.93546942528910071e-01
9.93546942528910071e-01
9.93546942528910071e-01
1.06518009591531015e+00
1.06518009591531015e+00
1.06518009591531015e+00
1.02681246361330514e+00
1.02681246361330514e+00
1.02681246361330514e+00
1.00284245857292298e+00
1.00284245857292298e+00
1.00284245857292298e+00
1.00758668549712382e+00
1.00758668549712382e+00
1.00758668549712382e+00
1.02077296692696917e+00
1.02077296692696917e+00
1.02077296692696917e+00
9.70592472644504989e-01
9.70592472644504989e-01
9.70592472644504989e-01
1.05424692926396624e+00
1.05424692926396624e+00
1.05424692926396624e+00
1.00014386278696632e+00
1.00014386278696632e+00
1.00014386278696632e+00
1.03130218600803025e+00
1.03130218600803025e+00
1.03130218600803025e+00
1.01511998324250663e+00
1.01511998324250663e+00
1.01511998324250663e+00
9.65967487157855409e-01
9.65967487157855409e-01
9.65967487157855409e-01
9.98680448053389958e-01
9.98680448053389958e-01
9.98680448053389958e-01
1.03649266297511455e+00
1.03649266297511455e+00
1.03649266297511455e+00
9.74985887196824996e-01
9.74985887196824996e-01
9.74985887196824996e-01
1.07960057464491421e+00
1.07960057464491421e+00
1.07960057464491421e+00
1.03505860087077428e+00
1.03505860087077428e+00
1.03505860087077428e+00
9.84508033924150427e-01
9.84508033924150427e-01
9.84508033924150427e-01
9.26406079253410897e-01
9.26406079253410897e-01
9.26406079253410897e-01
9.85078786524429817e-01
9.85078786524429817e-01
9.85078786524429817e-01
1.00379899274669482e+00
1.00379899274669482e+00
1.00379899274669482e+00
9.41759118240143911e-01
9.41759118240143911e-01
9.41759118240143911e-01
9.93610220712670134e-01
9.93610220712670134e-01
9.93610220712670134e-01
9.08435035413236891e-01
9.08435035413236891e-01
9.08435035413236891e-01
1.04595626232030092e+00
1.04595626232030092e+00
1.04595626232030092e+00
9.60681625876640410e-01
9.60681625876640410e-01
9.60681625876640410e-01
9.30203021906073513e-01
9.30203021906073513e-01
9.30203021906073513e-01
9.55369621700274063e-01
9.55369621700274063e-01
9.55369621700274063e-01
1.04440698515189667e+00
1.04440698515189667e+00
1.04440698515189667e+00
9.18391488237323306e-01
9.18391488237323306e-01
9.18391488237323306e-01
9.43886957628464085e-01
9.43886957628464085e-01
9.43886957628464085e-01
9.31221006472232271e-01
9.31221006472232271e-01
9.31221006472232271e-01
1.02631906289544328e+00
1.02631906289544328e+00
1.02631906289544328e+00
9.23843799279727929e-01
9.23843799279727929e-01
9.23843799279727929e-01
9.53773547269295197e-01
9.53773547269295197e-01
9.53773547269295197e-01
9.17117818077069158e-01
9.17117818077069158e-01
9.17117818077069158e-01
9.39343474367457687e-01
9.39343474367457687e-01
9.39343474367457687e-01
1.01518673013475613e+00
1.01518673013475613e+00
1.01518673013475613e+00
9.60758157115674694e-01
9.60758157115674694e-01
9.60758157115674694e-01
9.78558013773937363e-01
9.78558013773937363e-01
9.78558013773937363e-01
9.23350230880257250e-01
9.23350230880257250e-01
9.23350230880257250e-01
9.21211399252599983e-01
9.21211399252599983e-01
9.21211399252599983e-01
9.09661835539599450e-01
9.09661835539599450e-01
9.09661835539599450e-01
9.13049042869295113e-01
9.13049042869295113e-01
9.13049042869295113e-01
8.98417895946155731e-01
8.98417895946155731e-01
8.98417895946155731e-01
1.03994050317219844e+00
1.03994050317219844e+00
1.03994050317219844e+00
1.01582062560777042e+00
1.01582062560777042e+00
1.01582062560777042e+00
9.35886902017344813e-01
9.35886902017344813e-01
9.35886902017344813e-01
1.07040731934603417e+00
1.07040731934603417e+00
1.07040731934603417e+00
1.00816097043747499e+00
1.00816097043747499e+00
1.00816097043747499e+00
1.00717293678077047e+00
1.00717293678077047e+00
1.00717293678077047e+00
9.59796298305134465e-01
9.59796298305134465e-01
9.59796298305134465e-01
9.49465266445846834e-01
9.49465266445846834e-01
9.49465266445846834e-01
1.01692657547795462e+00
1.01692657547795462e+00
1.01692657547795462e+00
9.39897091197186563e-01
9.39897091197186563e-01
9.39897091197186563e-01
1.06768287837520015e+00
1.06768287837520015e+00
1.06768287837520015e+00
9.93070944000815747e-01
9.93070944000815747e-01
9.93070944000815747e-01
9.10496809053866318e-01
9.10496809053866318e-01
9.10496809053866318e-01
9.86718849791767161e-01
9.86718849791767161e-01
9.86718849791767161e-01
9.86840426437887719e-01
9.86840426437887719e-01
9.86840426437887719e-01
1.00331341038898847e+00
1.00331341038898847e+00
1.00331341038898847e+00
1.00326339512602813e+00
1.00326339512602813e+00
1.00326339512602813e+00
9.98455269324092676e-01
9.98455269324092676e-01
9.98455269324092676e-01
8.97704413941986412e-01
8.97704413941986412e-01
8.97704413941986412e-01
9.15507340352982646e-01
9.15507340352982646e-01
9.15507340352982646e-01
1.00220800475540095e+00
1.00220800475540095e+00
1.00220800475540095e+00
9.98476433033324340e-01
9.98476433033324340e-01
9.98476433033324340e-01
9.45707764854242905e-01
9.45707764854242905e-01
9.45707764854242905e-01
1.01238050543073399e+00
1.01238050543073399e+00
1.01238050543073399e+00
1.06341444151076092e+00
1.06341444151076092e+00
1.06341444151076092e+00
1.05265008192881315e+00
1.05265008192881315e+00
1.05265008192881315e+00
1.00370521916333266e+00
1.00370521916333266e+00
1.00370521916333266e+00
9.85622700196771340e-01
9.85622700196771340e-01
9.85622700196771340e-01
9.64323502828242529e-01
9.64323502828242529e-01
9.64323502828242529e-01
1.01535361174115812e+00
1.01535361174115812e+00
1.01535361174115812e+00
9.44654184921513540e-01
9.44654184921513540e-01
9.44654184921513540e-01
9.57265196137630281e-01
9.57265196137630281e-01
9.57265196137630281e-01
1.00551107050804522e+00
1.00551107050804522e+00
1.00551107050804522e+00
9.41896188066318807e-01
9.41896188066318807e-01
9.41896188066318807e-01
8.97348387713238660e-01
8.97348387713238660e-01
8.97348387713238660e-01
1.01358167261771448e+00
1.01358167261771448e+00
1.01358167261771448e+00
9.74200610164832836e-01
9.74200610164832836e-01
9.74200610164832836e-01
1.00079389976938615e+00
1.00079389976938615e+00
1.00079389976938615e+00
8.98702947027456012e-01
8.98702947027456012e-01
8.98702947027456012e-01
9.44661323159204147e-01
9.44661323159204147e-01
9.44661323159204147e-01
9.95263676333359992e-01
9.95263676333359992e-01
9.95263676333359992e-01
9.46151404196677315e-01
9.46151404196677315e-01
9.46151404196677315e-01
1.06632777541507218e+00
1.06632777541507218e+00
1.06632777541507218e+00
9.92081152076087713e-01
9.92081152076087713e-01
9.92081152076087713e-01
9.82941607436800702e-01
9.82941607436800702e-01
9.82941607436800702e-01
1.00087362524276702e+00
1.00087362524276702e+00
1.00087362524276702e+00
1.05116318974433409e+00
1.05116318974433409e+00
1.05116318974433409e+00
9.79167320015943199e-01
9.79167320015943199e-01
9.79167320015943199e-01
9.83083410784852396e-01
9.83083410784852396e-01
9.83083410784852396e-01
9.36919316602608965e-01
9.36919316602608965e-01
9.36919316602608965e-01
1.03720145206539094e+00
1.03720145206539094e+00
1.03720145206539094e+00
9.32813648413272190e-01
9.32813648413272190e-01
9.32813648413272190e-01
9.46135621758969036e-01
9.46135621758969036e-01
9.46135621758969036e-01
9.48300930513547802e-01
9.48300930513547802e-01
9.48300930513547802e-01
9.41815657150640195e-01
9.41815657150640195e-01
9.41815657150640195e-01
9.83235385233535486e-01
9.83235385233535486e-01
9.83235385233535486e-01
9.22602655771967650e-01
9.22602655771967650e-01
9.22602655771967650e-01
9.76478815404348888e-01
9.76478815404348888e-01
9.76478815404348888e-01
9.75350938735309092e-01
9.75350938735309092e-01
9.75350938735309092e-01
1.00205567036428267e+00
1.00205567036428267e+00
1.00205567036428267e+00
9.47113976201331309e-01
9.47113976201331309e-01
9.47113976201331309e-01
9.63840538829304094e-01
9.63840538829304094e-01
9.63840538829304094e-01
9.72377894298825596e-01
9.72377894298825596e-01
9.72377894298825596e-01
9.80279019258602946e-01
9.80279019258602946e-01
9.80279019258602946e-01
1.05346690987127078e+00
1.05346690987127078e+00
1.05346690987127078e+00
1.00214004838011883e+00
1.00214004838011883e+00
1.00214004838011883e+00
1.03263561430418704e+00
1.03263561430418704e+00
1.03263561430418704e+00
9.87651154999314107e-01
9.87651154999314107e-01
9.87651154999314107e-01
1.04789945486345526e+00
1.04789945486345526e+00
1.04789945486345526e+00
9.47169956845684835e-01
9.47169956845684835e-01
9.47169956845684835e-01
9.92946576804022318e-01
9.92946576804022318e-01
9.92946576804022318e-01


        </DataArray>

      </PointData>

      <CellData/>

      <Points>

        <DataArray type="Float64" NumberOfComponents="3" format="ascii">

0.1082531754723032 0.6875000000007816 0 0.23533274979922561 0.77093399389351469 0 0.10409951422139101 0.81206782209691231 0 0.23533274979922561 0.77093399389351469 0 0.1082531754723032 0.6875000000007816 0 0.21809253452218619 0.65480892822618109 0 0.24418615484441761 0.35773612382016978 0 0.121259140952891 0.43112117036853742 0 0.1082531754734323 0.31250000000117473 0 0.75000000000057243 0.35048094716480432 0 0.88173731489851925 0.33077402607778361 0 0.81242894672211508 0.45500248311961472 0 0.121259140952891 0.43112117036853742 0 0.24418615484441761 0.35773612382016978 0 0.22257735880419699 0.47344721641341742 0 0.81242894672211508 0.45500248311961472 0 0.88173731489851925 0.33077402607778361 0 0.915464298762109 0.43749999999886913 0 0 0.62500000000121547 0 0 0.50000000000206146 0 0.1371230538040123 0.56179824718362847 0 0.82212678063041267 0.67678595194836966 0 0.89051480781310632 0.79665793440246835 0 0.76243180583607129 0.78687675331113149 0 0.76243180583607129 0.78687675331113149 0 0.69010814643829166 0.89298495739101336 0 0.62844955668446423 0.7850749770380413 0 0.89051480781310632 0.79665793440246835 0 0.82212678063041267 0.67678595194836966 0 0.92266244547590082 0.68749999999917555 0 0 0.50000000000206146 0 0.121259140952891 0.43112117036853742 0 0.1371230538040123 0.56179824718362847 0 0.1082531754723032 0.6875000000007816 0 0 0.62500000000121547 0 0.1371230538040123 0.56179824718362847 0 0.75000000000032374 0.56698729811007709 0 0.88927506082488361 0.56409486310635837 0 0.82212678063041267 0.67678595194836966 0 0.81242894672211508 0.45500248311961472 0 0.88927506082488361 0.56409486310635837 0 0.75000000000032374 0.56698729811007709 0 0.69851598570178741 0.68211701800612057 0 0.56496004948275869 0.67675037307860475 0 0.62752533658682441 0.56838075195614346 0 0.69851598570178741 0.68211701800612057 0 0.76243180583607129 0.78687675331113149 0 0.62844955668446423 0.7850749770380413 0 0.23533274979922561 0.77093399389351469 0 0.18802967116092181 0.89415349436770275 0 0.10409951422139101 0.81206782209691231 0 0.121259140952891 0.43112117036853742 0 0.22257735880419699 0.47344721641341742 0 0.1371230538040123 0.56179824718362847 0 0.75000000000032374 0.56698729811007709 0 0.69851598570178741 0.68211701800612057 0 0.62752533658682441 0.56838075195614346 0 0.56496004948275869 0.67675037307860475 0 0.69851598570178741 0.68211701800612057 0 0.62844955668446423 0.7850749770380413 0 0.1371230538040123 0.56179824718362847 0 0.22257735880419699 0.47344721641341742 0 0.26982811998763367 0.56544650815856912 0 0.21809253452218619 0.65480892822618109 0 0.1371230538040123 0.56179824718362847 0 0.26982811998763367 0.56544650815856912 0 0.24418615484441761 0.35773612382016978 0 0.1082531754734323 0.31250000000117473 0 0.20767261601459541 0.25628918442207171 0 0.88173731489851925 0.33077402607778361 0 0.75000000000057243 0.35048094716480432 0 0.79891106056046712 0.25007334953587562 0 0.75000000000032374 0.56698729811007709 0 0.82212678063041267 0.67678595194836966 0 0.69851598570178741 0.68211701800612057 0 0.81249999999950517 0.1082531754733404 0 0.89658421694297741 0.1933620068391701 0 0.79891106056046712 0.25007334953587562 0 0.81249999999950517 0.1082531754733404 0 0.79891106056046712 0.25007334953587562 0 0.73983916756365475 0.17530677078674589 0 0.23533274979922561 0.77093399389351469 0 0.21809253452218619 0.65480892822618109 0 0.32607333794064219 0.67760114260606152 0 0.1082531754723032 0.6875000000007816 0 0.1371230538040123 0.56179824718362847 0 0.21809253452218619 0.65480892822618109 0 0.69851598570178741 0.68211701800612057 0 0.82212678063041267 0.67678595194836966 0 0.76243180583607129 0.78687675331113149 0 0.69010814643829166 0.89298495739101336 0 0.76243180583607129 0.78687675331113149 0 0.80886664387416207 0.89717308644237903 0 0.43750000000181222 0.89174682452709564 0 0.31258827852827581 0.89214793616708443 0 0.37776173212361452 0.78514649317305008 0 0.43750000000181222 0.89174682452709564 0 0.37500000000156292 1 0 0.31258827852827581 0.89214793616708443 0 0.121259140952891 0.43112117036853742 0 0 0.37500000000156292 0 0.1082531754734323 0.31250000000117473 0 0.50000000000206146 1 0 0.37500000000156292 1 0 0.43750000000181222 0.89174682452709564 0 0.31258827852827581 0.89214793616708443 0 0.18802967116092181 0.89415349436770275 0 0.23533274979922561 0.77093399389351469 0 0 0.50000000000206146 0 0 0.37500000000156292 0 0.121259140952891 0.43112117036853742 0 0.62844955668446423 0.7850749770380413 0 0.69010814643829166 0.89298495739101336 0 0.56327595140699671 0.89211526915426331 0 0.69010814643829166 0.89298495739101336 0 0.62500000000121547 1 0 0.56327595140699671 0.89211526915426331 0 0.25000000000104189 1 0 0.18802967116092181 0.89415349436770275 0 0.31258827852827581 0.89214793616708443 0 0.50000000000206146 1 0 0.43750000000181222 0.89174682452709564 0 0.56327595140699671 0.89211526915426331 0 0.56249999999885147 0.1082531754730395 0 0.62499999999901068 0 0 0.68749999999926592 0.1082531754732875 0 1 0.49999999999869221 0 1 0.62499999999901068 0 0.88927506082488361 0.56409486310635837 0 0 0.25000000000104189 0 0.12076953676380731 0.18690935762408761 0 0.1082531754734323 0.31250000000117473 0 0.49999999999869221 0 0 0.62499999999901068 0 0 0.56249999999885147 0.1082531754730395 0 0.62500000000121547 1 0 0.50000000000206146 1 0 0.56327595140699671 0.89211526915426331 0 0.37500000000156292 1 0 0.25000000000104189 1 0 0.31258827852827581 0.89214793616708443 0 0.31281086598417152 0.10449318608631281 0 0.37499999999904599 0 0 0.43749999999910871 0.1082531754729984 0 0.43750000000181222 0.89174682452709564 0 0.37776173212361452 0.78514649317305008 0 0.50046028868828263 0.78376912307435687 0 0 0.37500000000156292 0 0 0.25000000000104189 0 0.1082531754734323 0.31250000000117473 0 0.49999999999869221 0 0 0.56249999999885147 0.1082531754730395 0 0.43749999999910871 0.1082531754729984 0 0.43750000000181222 0.89174682452709564 0 0.50046028868828263 0.78376912307435687 0 0.56327595140699671 0.89211526915426331 0 0.74999999999934042 0 0 0.81249999999950517 0.1082531754733404 0 0.68749999999926592 0.1082531754732875 0 0.37499999999904599 0 0 0.49999999999869221 0 0 0.43749999999910871 0.1082531754729984 0 0.25000000000104189 1 0 0.12500000000052089 1 0 0.18802967116092181 0.89415349436770275 0 0.50046028868828263 0.78376912307435687 0 0.62844955668446423 0.7850749770380413 0 0.56327595140699671 0.89211526915426331 0 0.37776173212361452 0.78514649317305008 0 0.31258827852827581 0.89214793616708443 0 0.23533274979922561 0.77093399389351469 0 0.62499999999901068 0 0 0.74999999999934042 0 0 0.68749999999926592 0.1082531754732875 0 1 0.74999999999934042 0 1 0.87499999999967015 0 0.89051480781310632 0.79665793440246835 0 0 0.25000000000104189 0 0 0.12500000000052089 0 0.12076953676380731 0.18690935762408761 0 0.74999999999934042 0 0 0.87499999999967015 0 0 0.81249999999950517 0.1082531754733404 0 0.24999999999941069 0 0 0.37499999999904599 0 0 0.31281086598417152 0.10449318608631281 0 0.50046028868828263 0.78376912307435687 0 0.37776173212361452 0.78514649317305008 0 0.44078402250377968 0.67714785211715212 0 0.68768773896438518 0.4586835206367198 0 0.75000000000032374 0.56698729811007709 0 0.62752533658682441 0.56838075195614346 0 0.31411863959822661 0.24965544328045999 0 0.37953773393552892 0.34812185820708452 0 0.24418615484441761 0.35773612382016978 0 0.68768773896438518 0.4586835206367198 0 0.81242894672211508 0.45500248311961472 0 0.75000000000032374 0.56698729811007709 0 1 0.24999999999941069 0 1 0.37499999999904599 0 0.88173731489851925 0.33077402607778361 0 0 0.75000000000034761 0 0 0.62500000000121547 0 0.1082531754723032 0.6875000000007816 0 0.50048844149666749 0.56727788297625459 0 0.44078402250377968 0.67714785211715212 0 0.38694285807596462 0.5672991787102919 0 0.50108503093851109 0.35012252869403671 0 0.44301038174930041 0.45684931552185398 0 0.37953773393552892 0.34812185820708452 0 0.50046028868828263 0.78376912307435687 0 0.56496004948275869 0.67675037307860475 0 0.62844955668446423 0.7850749770380413 0 0.68768773896438518 0.4586835206367198 0 0.75000000000057243 0.35048094716480432 0 0.81242894672211508 0.45500248311961472 0 0.56349980387502452 0.45846841892908402 0 0.62512662990940393 0.35044303886909911 0 0.68768773896438518 0.4586835206367198 0 0.50048844149666749 0.56727788297625459 0 0.38694285807596462 0.5672991787102919 0 0.44301038174930041 0.45684931552185398 0 0.50046028868828263 0.78376912307435687 0 0.44078402250377968 0.67714785211715212 0 0.56496004948275869 0.67675037307860475 0 0.50108503093851109 0.35012252869403671 0 0.37953773393552892 0.34812185820708452 0 0.43750000000200551 0.24222777169198509 0 0.75000000000034761 1 0 0.62500000000121547 1 0 0.69010814643829166 0.89298495739101336 0 0.68768773896438518 0.4586835206367198 0 0.62512662990940393 0.35044303886909911 0 0.75000000000057243 0.35048094716480432 0 0.56496004948275869 0.67675037307860475 0 0.44078402250377968 0.67714785211715212 0 0.50048844149666749 0.56727788297625459 0 0.56349980387502452 0.45846841892908402 0 0.44301038174930041 0.45684931552185398 0 0.50108503093851109 0.35012252869403671 0 0.50048844149666749 0.56727788297625459 0 0.44301038174930041 0.45684931552185398 0 0.56349980387502452 0.45846841892908402 0 0.56349980387502452 0.45846841892908402 0 0.50108503093851109 0.35012252869403671 0 0.62512662990940393 0.35044303886909911 0 0.43750000000200551 0.24222777169198509 0 0.37953773393552892 0.34812185820708452 0 0.31411863959822661 0.24965544328045999 0 0.56496004948275869 0.67675037307860475 0 0.50048844149666749 0.56727788297625459 0 0.62752533658682441 0.56838075195614346 0 0.56349980387502452 0.45846841892908402 0 0.68768773896438518 0.4586835206367198 0 0.62752533658682441 0.56838075195614346 0 0.50048844149666749 0.56727788297625459 0 0.56349980387502452 0.45846841892908402 0 0.62752533658682441 0.56838075195614346 0 0.75000000000057243 0.35048094716480432 0 0.62512662990940393 0.35044303886909911 0 0.68668231842078242 0.24762892664808989 0 0.50108503093851109 0.35012252869403671 0 0.43750000000200551 0.24222777169198509 0 0.56250000000143974 0.2422277716920859 0 0.62512662990940393 0.35044303886909911 0 0.50108503093851109 0.35012252869403671 0 0.56250000000143974 0.2422277716920859 0 0.68668231842078242 0.24762892664808989 0 0.62512662990940393 0.35044303886909911 0 0.56250000000143974 0.2422277716920859 0 0.22257735880419699 0.47344721641341742 0 0.24418615484441761 0.35773612382016978 0 0.32815957677880009 0.4577243358118348 0 0.12076953676380731 0.18690935762408761 0 0.19185372118111221 0.092925648673580788 0 0.25103557339309318 0.17464499738446629 0 0.20767261601459541 0.25628918442207171 0 0.12076953676380731 0.18690935762408761 0 0.25103557339309318 0.17464499738446629 0 0 0.87499999999950151 0 0 0.75000000000034761 0 0.10409951422139101 0.81206782209691231 0 0.1249999999997731 0 0 0.24999999999941069 0 0 0.19185372118111221 0.092925648673580788 0 1 0.1249999999997731 0 1 0.24999999999941069 0 0.89658421694297741 0.1933620068391701 0 0.88927506082488361 0.56409486310635837 0 0.81242894672211508 0.45500248311961472 0 0.915464298762109 0.43749999999886913 0 0.87499999999950151 1 0 0.75000000000034761 1 0 0.80886664387416207 0.89717308644237903 0 0.75000000000034761 1 0 0.69010814643829166 0.89298495739101336 0 0.80886664387416207 0.89717308644237903 0 0.82212678063041267 0.67678595194836966 0 0.88927506082488361 0.56409486310635837 0 0.92266244547590082 0.68749999999917555 0 0 0.75000000000034761 0 0.1082531754723032 0.6875000000007816 0 0.10409951422139101 0.81206782209691231 0 0.24999999999941069 0 0 0.31281086598417152 0.10449318608631281 0 0.19185372118111221 0.092925648673580788 0 1 0.24999999999941069 0 0.88173731489851925 0.33077402607778361 0 0.89658421694297741 0.1933620068391701 0 0.32815957677880009 0.4577243358118348 0 0.38694285807596462 0.5672991787102919 0 0.26982811998763367 0.56544650815856912 0 0.76243180583607129 0.78687675331113149 0 0.89051480781310632 0.79665793440246835 0 0.80886664387416207 0.89717308644237903 0 0.38694285807596462 0.5672991787102919 0 0.44078402250377968 0.67714785211715212 0 0.32607333794064219 0.67760114260606152 0 0.37776173212361452 0.78514649317305008 0 0.23533274979922561 0.77093399389351469 0 0.32607333794064219 0.67760114260606152 0 1 0.49999999999869221 0 0.88927506082488361 0.56409486310635837 0 0.915464298762109 0.43749999999886913 0 0.88173731489851925 0.33077402607778361 0 1 0.37499999999904599 0 0.915464298762109 0.43749999999886913 0 0.24418615484441761 0.35773612382016978 0 0.37953773393552892 0.34812185820708452 0 0.32815957677880009 0.4577243358118348 0 0.44301038174930041 0.45684931552185398 0 0.38694285807596462 0.5672991787102919 0 0.32815957677880009 0.4577243358118348 0 0.88927506082488361 0.56409486310635837 0 1 0.62499999999901068 0 0.92266244547590082 0.68749999999917555 0 1 0.74999999999934042 0 0.89051480781310632 0.79665793440246835 0 0.92266244547590082 0.68749999999917555 0 0 1 0 0 0.87499999999950151 0 0.091506350946494744 0.90849364905351082 0 1 1 0 0.87499999999950151 1 0 0.90849364905363228 0.90849364905367769 0 0 0 0 0.1249999999997731 0 0 0.091506350946417708 0.091506350946618076 0 0 0.12500000000052089 0 0 0 0 0.091506350946417708 0.091506350946618076 0 1 0 0 1 0.1249999999997731 0 0.90849364905355434 0.091506350946296292 0 0.87499999999967015 0 0 1 0 0 0.90849364905355434 0.091506350946296292 0 0.12500000000052089 1 0 0 1 0 0.091506350946494744 0.90849364905351082 0 1 0.87499999999967015 0 1 1 0 0.90849364905363228 0.90849364905367769 0 0.38694285807596462 0.5672991787102919 0 0.32607333794064219 0.67760114260606152 0 0.26982811998763367 0.56544650815856912 0 0.31411863959822661 0.24965544328045999 0 0.24418615484441761 0.35773612382016978 0 0.20767261601459541 0.25628918442207171 0 0.1082531754734323 0.31250000000117473 0 0.12076953676380731 0.18690935762408761 0 0.20767261601459541 0.25628918442207171 0 0.75000000000057243 0.35048094716480432 0 0.68668231842078242 0.24762892664808989 0 0.79891106056046712 0.25007334953587562 0 0.22257735880419699 0.47344721641341742 0 0.32815957677880009 0.4577243358118348 0 0.26982811998763367 0.56544650815856912 0 0.44078402250377968 0.67714785211715212 0 0.37776173212361452 0.78514649317305008 0 0.32607333794064219 0.67760114260606152 0 0.89658421694297741 0.1933620068391701 0 0.88173731489851925 0.33077402607778361 0 0.79891106056046712 0.25007334953587562 0 1 0.37499999999904599 0 1 0.49999999999869221 0 0.915464298762109 0.43749999999886913 0 0.37953773393552892 0.34812185820708452 0 0.44301038174930041 0.45684931552185398 0 0.32815957677880009 0.4577243358118348 0 0.32607333794064219 0.67760114260606152 0 0.21809253452218619 0.65480892822618109 0 0.26982811998763367 0.56544650815856912 0 1 0.1249999999997731 0 0.89658421694297741 0.1933620068391701 0 0.90849364905355434 0.091506350946296292 0 0 0.87499999999950151 0 0.10409951422139101 0.81206782209691231 0 0.091506350946494744 0.90849364905351082 0 0.1249999999997731 0 0 0.19185372118111221 0.092925648673580788 0 0.091506350946417708 0.091506350946618076 0 1 0.62499999999901068 0 1 0.74999999999934042 0 0.92266244547590082 0.68749999999917555 0 0.18802967116092181 0.89415349436770275 0 0.12500000000052089 1 0 0.091506350946494744 0.90849364905351082 0 0.89051480781310632 0.79665793440246835 0 1 0.87499999999967015 0 0.90849364905363228 0.90849364905367769 0 0.12076953676380731 0.18690935762408761 0 0 0.12500000000052089 0 0.091506350946417708 0.091506350946618076 0 0.81249999999950517 0.1082531754733404 0 0.87499999999967015 0 0 0.90849364905355434 0.091506350946296292 0 0.87499999999950151 1 0 0.80886664387416207 0.89717308644237903 0 0.90849364905363228 0.90849364905367769 0 0.68668231842078242 0.24762892664808989 0 0.62499999999892575 0.17524047358135519 0 0.73983916756365475 0.17530677078674589 0 0.31281086598417152 0.10449318608631281 0 0.43749999999910871 0.1082531754729984 0 0.37500000000232431 0.17524047358384309 0 0.62499999999892575 0.17524047358135519 0 0.56250000000143974 0.2422277716920859 0 0.49999999999934441 0.1752404735815076 0 0.56249999999885147 0.1082531754730395 0 0.68749999999926592 0.1082531754732875 0 0.62499999999892575 0.17524047358135519 0 0.56249999999885147 0.1082531754730395 0 0.62499999999892575 0.17524047358135519 0 0.49999999999934441 0.1752404735815076 0 0.56250000000143974 0.2422277716920859 0 0.43750000000200551 0.24222777169198509 0 0.49999999999934441 0.1752404735815076 0 0.43749999999910871 0.1082531754729984 0 0.56249999999885147 0.1082531754730395 0 0.49999999999934441 0.1752404735815076 0 0.68668231842078242 0.24762892664808989 0 0.56250000000143974 0.2422277716920859 0 0.62499999999892575 0.17524047358135519 0 0.43750000000200551 0.24222777169198509 0 0.31411863959822661 0.24965544328045999 0 0.37500000000232431 0.17524047358384309 0 0.49999999999934441 0.1752404735815076 0 0.43750000000200551 0.24222777169198509 0 0.37500000000232431 0.17524047358384309 0 0.43749999999910871 0.1082531754729984 0 0.49999999999934441 0.1752404735815076 0 0.37500000000232431 0.17524047358384309 0 0.62499999999892575 0.17524047358135519 0 0.68749999999926592 0.1082531754732875 0 0.73983916756365475 0.17530677078674589 0 0.68749999999926592 0.1082531754732875 0 0.81249999999950517 0.1082531754733404 0 0.73983916756365475 0.17530677078674589 0 0.10409951422139101 0.81206782209691231 0 0.18802967116092181 0.89415349436770275 0 0.091506350946494744 0.90849364905351082 0 0.89658421694297741 0.1933620068391701 0 0.81249999999950517 0.1082531754733404 0 0.90849364905355434 0.091506350946296292 0 0.19185372118111221 0.092925648673580788 0 0.12076953676380731 0.18690935762408761 0 0.091506350946417708 0.091506350946618076 0 0.37500000000232431 0.17524047358384309 0 0.31411863959822661 0.24965544328045999 0 0.25103557339309318 0.17464499738446629 0 0.31281086598417152 0.10449318608631281 0 0.37500000000232431 0.17524047358384309 0 0.25103557339309318 0.17464499738446629 0 0.80886664387416207 0.89717308644237903 0 0.89051480781310632 0.79665793440246835 0 0.90849364905363228 0.90849364905367769 0 0.19185372118111221 0.092925648673580788 0 0.31281086598417152 0.10449318608631281 0 0.25103557339309318 0.17464499738446629 0 0.79891106056046712 0.25007334953587562 0 0.68668231842078242 0.24762892664808989 0 0.73983916756365475 0.17530677078674589 0 0.31411863959822661 0.24965544328045999 0 0.20767261601459541 0.25628918442207171 0 0.25103557339309318 0.17464499738446629 0 

        </DataArray>

      </Points>

      <Cells>

        <DataArray type="Int32" Name="connectivity" format="ascii">

0 1 2 3 4 5 6 7 8 9 10 11 12 13 14 15 16 17 18 19 20 21 22 23 24 25 26 27 28 29 30 31 32 33 34 35 36 37 38 39 40 41 42 43 44 45 46 47 48 49 50 51 52 53 54 55 56 57 58 59 60 61 62 63 64 65 66 67 68 69 70 71 72 73 74 75 76 77 78 79 80 81 82 83 84 85 86 87 88 89 90 91 92 93 94 95 96 97 98 99 100 101 102 103 104 105 106 107 108 109 110 111 112 113 114 115 116 117 118 119 120 121 122 123 124 125 126 127 128 129 130 131 132 133 134 135 136 137 138 139 140 141 142 143 144 145 146 147 148 149 150 151 152 153 154 155 156 157 158 159 160 161 162 163 164 165 166 167 168 169 170 171 172 173 174 175 176 177 178 179 180 181 182 183 184 185 186 187 188 189 190 191 192 193 194 195 196 197 198 199 200 201 202 203 204 205 206 207 208 209 210 211 212 213 214 215 216 217 218 219 220 221 222 223 224 225 226 227 228 229 230 231 232 233 234 235 236 237 238 239 240 241 242 243 244 245 246 247 248 249 250 251 252 253 254 255 256 257 258 259 260 261 262 263 264 265 266 267 268 269 270 271 272 273 274 275 276 277 278 279 280 281 282 283 284 285 286 287 288 289 290 291 292 293 294 295 296 297 298 299 300 301 302 303 304 305 306 307 308 309 310 311 312 313 314 315 316 317 318 319 320 321 322 323 324 325 326 327 328 329 330 331 332 333 334 335 336 337 338 339 340 341 342 343 344 345 346 347 348 349 350 351 352 353 354 355 356 357 358 359 360 361 362 363 364 365 366 367 368 369 370 371 372 373 374 375 376 377 378 379 380 381 382 383 384 385 386 387 388 389 390 391 392 393 394 395 396 397 398 399 400 401 402 403 404 405 406 407 408 409 410 411 412 413 414 415 416 417 418 419 420 421 422 423 424 425 426 427 428 429 430 431 432 433 434 435 436 437 438 439 440 441 442 443 444 445 446 447 448 449 450 451 452 453 454 455 456 457 458 459 460 461 462 463 464 465 466 467 468 469 470 471 472 473 474 475 476 477 478 479 480 481 482 483 484 485 

        </DataArray>

        <DataArray type="Int32" Name="offsets" format="ascii">

3 6 9 12 15 18 21 24 27 30 33 36 39 42 45 48 51 54 57 60 63 66 69 72 75 78 81 84 87 90 93 96 99 102 105 108 111 114 117 120 123 126 129 132 135 138 141 144 147 150 153 156 159 162 165 168 171 174 177 180 183 186 189 192 195 198 201 204 207 210 213 216 219 222 225 228 231 234 237 240 243 246 249 252 255 258 261 264 267 270 273 276 279 282 285 288 291 294 297 300 303 306 309 312 315 318 321 324 327 330 333 336 339 342 345 348 351 354 357 360 363 366 369 372 375 378 381 384 387 390 393 396 399 402 405 408 411 414 417 420 423 426 429 432 435 438 441 444 447 450 453 456 459 462 465 468 471 474 477 480 483 486 

        </DataArray>

        <DataArray type="Int32" Name="types" format="ascii">

5 5 5 5 5 5 5 5 5 5 5 5 5 5 5 5 5 5 5 5 5 5 5 5 5 5 5 5 5 5 5 5 5 5 5 5 5 5 5 5 5 5 5 5 5 5 5 5 5 5 5 5 5 5 5 5 5 5 5 5 5 5 5 5 5 5 5 5 5 5 5 5 5 5 5 5 5 5 5 5 5 5 5 5 5 5 5 5 5 5 5 5 5 5 5 5 5 5 5 5 5 5 5 5 5 5 5 5 5 5 5 5 5 5 5 5 5 5 5 5 5 5 5 5 5 5 5 5 5 5 5 5 5 5 5 5 5 5 5 5 5 5 5 5 5 5 5 5 5 5 5 5 5 5 5 5 5 5 5 5 5 5 

        </DataArray>

      </Cells>

    </Piece>

  </UnstructuredGrid>

</VTKFile>

