<?xml version="1.0"?>

<VTKFile type="UnstructuredGrid" version="0.1">

  <UnstructuredGrid>

    <Piece NumberOfPoints="486" NumberOfCells="162">

      <PointData>

        <DataArray type="Float64" Name="K" format="ascii">

9.64039636198469774e-01
9.64039636198469774e-01
9.64039636198469774e-01
9.55149759752971894e-01
9.55149759752971894e-01
9.55149759752971894e-01
1.01701252233320738e+00
1.01701252233320738e+00
1.01701252233320738e+00
9.84641818677410408e-01
9.84641818677410408e-01
9.84641818677410408e-01
1.00700031274695379e+00
1.00700031274695379e+00
1.00700031274695379e+00
9.90885025508907002e-01
9.90885025508907002e-01
9.90885025508907002e-01
1.05159566438352781e+00
1.05159566438352781e+00
1.05159566438352781e+00
1.05873940257319510e+00
1.05873940257319510e+00
1.05873940257319510e+00
1.09078425685082925e+00
1.09078425685082925e+00
1.09078425685082925e+00
1.00696857572366838e+00
1.00696857572366838e+00
1.00696857572366838e+00
1.04980142172259172e+00
1.04980142172259172e+00
1.04980142172259172e+00
1.02261673151718324e+00
1.02261673151718324e+00
1.02261673151718324e+00
1.03835876770116520e+00
1.03835876770116520e+00
1.03835876770116520e+00
1.01929895814835270e+00
1.01929895814835270e+00
1.01929895814835270e+00
1.02917149414535825e+00
1.02917149414535825e+00
1.02917149414535825e+00
1.09727666302059124e+00
1.09727666302059124e+00
1.09727666302059124e+00
9.61550212176423003e-01
9.61550212176423003e-01
9.61550212176423003e-01
1.00735353650876069e+00
1.00735353650876069e+00
1.00735353650876069e+00
1.04909482762392248e+00
1.04909482762392248e+00
1.04909482762392248e+00
1.05935662577889489e+00
1.05935662577889489e+00
1.05935662577889489e+00
9.75319494452474012e-01
9.75319494452474012e-01
9.75319494452474012e-01
9.62461766586780398e-01
9.62461766586780398e-01
9.62461766586780398e-01
1.00816613634602992e+00
1.00816613634602992e+00
1.00816613634602992e+00
9.81331490367441051e-01
9.81331490367441051e-01
9.81331490367441051e-01
1.08028501684829403e+00
1.08028501684829403e+00
1.08028501684829403e+00
9.86676033579402367e-01
9.86676033579402367e-01
9.86676033579402367e-01
1.00016261281075969e+00
1.00016261281075969e+00
1.00016261281075969e+00
9.71169244814157895e-01
9.71169244814157895e-01
9.71169244814157895e-01
9.74676622898767997e-01
9.74676622898767997e-01
9.74676622898767997e-01
1.09643987655733377e+00
1.09643987655733377e+00
1.09643987655733377e+00
1.08101442960447502e+00
1.08101442960447502e+00
1.08101442960447502e+00
1.01580013226749943e+00
1.01580013226749943e+00
1.01580013226749943e+00
9.89072025826507883e-01
9.89072025826507883e-01
9.89072025826507883e-01
1.04232222023674304e+00
1.04232222023674304e+00
1.04232222023674304e+00
1.03626123912864498e+00
1.03626123912864498e+00
1.03626123912864498e+00
9.55542083709629231e-01
9.55542083709629231e-01
9.55542083709629231e-01
1.06009310352069819e+00
1.06009310352069819e+00
1.06009310352069819e+00
1.07416231542330132e+00
1.07416231542330132e+00
1.07416231542330132e+00
1.05273323471091995e+00
1.05273323471091995e+00
1.05273323471091995e+00
9.40507809892172308e-01
9.40507809892172308e-01
9.40507809892172308e-01
1.07328113349252563e+00
1.07328113349252563e+00
1.07328113349252563e+00
1.01419662644449171e+00
1.01419662644449171e+00
1.01419662644449171e+00
9.67549933474344814e-01
9.67549933474344814e-01
9.67549933474344814e-01
9.98902485576476762e-01
9.98902485576476762e-01
9.98902485576476762e-01
9.86653522534729599e-01
9.86653522534729599e-01
9.86653522534729599e-01
1.06112811628495440e+00
1.06112811628495440e+00
1.06112811628495440e+00
9.34610751353800340e-01
9.34610751353800340e-01
9.34610751353800340e-01
9.91093896486782588e-01
9.91093896486782588e-01
9.91093896486782588e-01
1.06178002898452917e+00
1.06178002898452917e+00
1.06178002898452917e+00
1.03809698974892695e+00
1.03809698974892695e+00
1.03809698974892695e+00
9.60077425794750972e-01
9.60077425794750972e-01
9.60077425794750972e-01
1.07545096050398703e+00
1.07545096050398703e+00
1.07545096050398703e+00
1.00815135597233918e+00
1.00815135597233918e+00
1.00815135597233918e+00
9.66962393978866297e-01
9.66962393978866297e-01
9.66962393978866297e-01
9.60334243610613814e-01
9.60334243610613814e-01
9.60334243610613814e-01
1.07228564892606792e+00
1.07228564892606792e+00
1.07228564892606792e+00
9.85547252296255394e-01
9.85547252296255394e-01
9.85547252296255394e-01
1.01514929839825774e+00
1.01514929839825774e+00
1.01514929839825774e+00
9.89496941309419897e-01
9.89496941309419897e-01
9.89496941309419897e-01
1.00042042605551429e+00
1.00042042605551429e+00
1.00042042605551429e+00
9.80500538901275642e-01
9.80500538901275642e-01
9.80500538901275642e-01
9.84367068514730215e-01
9.84367068514730215e-01
9.84367068514730215e-01
1.06855799335432478e+00
1.06855799335432478e+00
1.06855799335432478e+00
1.01571594636846485e+00
1.01571594636846485e+00
1.01571594636846485e+00
1.02886322516715212e+00
1.02886322516715212e+00
1.02886322516715212e+00
1.01885789075529654e+00
1.01885789075529654e+00
1.01885789075529654e+00
1.05738135901888985e+00
1.05738135901888985e+00
1.05738135901888985e+00
1.01451249691088119e+00
1.01451249691088119e+00
1.01451249691088119e+00
1.05477066745447856e+00
1.05477066745447856e+00
1.05477066745447856e+00
9.88876693629046510e-01
9.88876693629046510e-01
9.88876693629046510e-01
1.05414688122229849e+00
1.05414688122229849e+00
1.05414688122229849e+00
9.98926202297351185e-01
9.98926202297351185e-01
9.98926202297351185e-01
9.79718597868737939e-01
9.79718597868737939e-01
9.79718597868737939e-01
1.03443734084682459e+00
1.03443734084682459e+00
1.03443734084682459e+00
1.05338823605779086e+00
1.05338823605779086e+00
1.05338823605779086e+00
9.74098551450442995e-01
9.74098551450442995e-01
9.74098551450442995e-01
1.02890738355879874e+00
1.02890738355879874e+00
1.02890738355879874e+00
9.97631177877824293e-01
9.97631177877824293e-01
9.97631177877824293e-01
1.03475920224245277e+00
1.03475920224245277e+00
1.03475920224245277e+00
9.77149802514086896e-01
9.77149802514086896e-01
9.77149802514086896e-01
9.94992939718911007e-01
9.94992939718911007e-01
9.94992939718911007e-01
9.68652741806062978e-01
9.68652741806062978e-01
9.68652741806062978e-01
1.00791078935456113e+00
1.00791078935456113e+00
1.00791078935456113e+00
9.99800915923547695e-01
9.99800915923547695e-01
9.99800915923547695e-01
9.80456362049428654e-01
9.80456362049428654e-01
9.80456362049428654e-01
9.80131987554502482e-01
9.80131987554502482e-01
9.80131987554502482e-01
1.01075626410905017e+00
1.01075626410905017e+00
1.01075626410905017e+00
9.52579050948904271e-01
9.52579050948904271e-01
9.52579050948904271e-01
9.70494343742849375e-01
9.70494343742849375e-01
9.70494343742849375e-01
1.00558828298549785e+00
1.00558828298549785e+00
1.00558828298549785e+00
1.00402433051766971e+00
1.00402433051766971e+00
1.00402433051766971e+00
9.55615802821828786e-01
9.55615802821828786e-01
9.55615802821828786e-01
9.79777789881837502e-01
9.79777789881837502e-01
9.79777789881837502e-01
9.74307307667489852e-01
9.74307307667489852e-01
9.74307307667489852e-01
9.26532841984495814e-01
9.26532841984495814e-01
9.26532841984495814e-01
1.06775238118378968e+00
1.06775238118378968e+00
1.06775238118378968e+00
9.91994790048367658e-01
9.91994790048367658e-01
9.91994790048367658e-01
1.05245774467427666e+00
1.05245774467427666e+00
1.05245774467427666e+00
1.05487121901653458e+00
1.05487121901653458e+00
1.05487121901653458e+00
9.97039696944836185e-01
9.97039696944836185e-01
9.97039696944836185e-01
9.88456765529054815e-01
9.88456765529054815e-01
9.88456765529054815e-01
9.68744186568418764e-01
9.68744186568418764e-01
9.68744186568418764e-01
1.03511205986097798e+00
1.03511205986097798e+00
1.03511205986097798e+00
1.01700363282653727e+00
1.01700363282653727e+00
1.01700363282653727e+00
1.06323220997780998e+00
1.06323220997780998e+00
1.06323220997780998e+00
1.06019000128633811e+00
1.06019000128633811e+00
1.06019000128633811e+00
1.00587137950920402e+00
1.00587137950920402e+00
1.00587137950920402e+00
9.83186606342660752e-01
9.83186606342660752e-01
9.83186606342660752e-01
1.01978082461110198e+00
1.01978082461110198e+00
1.01978082461110198e+00
1.01901434833263571e+00
1.01901434833263571e+00
1.01901434833263571e+00
1.03164104804343082e+00
1.03164104804343082e+00
1.03164104804343082e+00
9.62833014577275548e-01
9.62833014577275548e-01
9.62833014577275548e-01
9.78331153320654012e-01
9.78331153320654012e-01
9.78331153320654012e-01
9.55209458864081484e-01
9.55209458864081484e-01
9.55209458864081484e-01
1.01157177970598511e+00
1.01157177970598511e+00
1.01157177970598511e+00
9.42553212413408503e-01
9.42553212413408503e-01
9.42553212413408503e-01
9.80716139677133225e-01
9.80716139677133225e-01
9.80716139677133225e-01
1.03006943086285796e+00
1.03006943086285796e+00
1.03006943086285796e+00
9.97969617787137109e-01
9.97969617787137109e-01
9.97969617787137109e-01
9.70104944230471777e-01
9.70104944230471777e-01
9.70104944230471777e-01
9.95902505476702893e-01
9.95902505476702893e-01
9.95902505476702893e-01
1.02217600283153121e+00
1.02217600283153121e+00
1.02217600283153121e+00
1.02605570349044894e+00
1.02605570349044894e+00
1.02605570349044894e+00
9.83574401600974535e-01
9.83574401600974535e-01
9.83574401600974535e-01
1.00378887790043936e+00
1.00378887790043936e+00
1.00378887790043936e+00
9.90927809815504324e-01
9.90927809815504324e-01
9.90927809815504324e-01
1.05777836490682575e+00
1.05777836490682575e+00
1.05777836490682575e+00
9.88041484584221807e-01
9.88041484584221807e-01
9.88041484584221807e-01
1.01587883044411709e+00
1.01587883044411709e+00
1.01587883044411709e+00
1.01576891622930576e+00
1.01576891622930576e+00
1.01576891622930576e+00
9.78906921114045536e-01
9.78906921114045536e-01
9.78906921114045536e-01
1.03100879486392438e+00
1.03100879486392438e+00
1.03100879486392438e+00
9.68806786579740065e-01
9.68806786579740065e-01
9.68806786579740065e-01
9.18565782206873238e-01
9.18565782206873238e-01
9.18565782206873238e-01
9.66780942887286998e-01
9.66780942887286998e-01
9.66780942887286998e-01
9.75843411344199718e-01
9.75843411344199718e-01
9.75843411344199718e-01
1.00421953135393482e+00
1.00421953135393482e+00
1.00421953135393482e+00
9.62128054836893343e-01
9.62128054836893343e-01
9.62128054836893343e-01
9.86049375556202978e-01
9.86049375556202978e-01
9.86049375556202978e-01
1.04343707640573147e+00
1.04343707640573147e+00
1.04343707640573147e+00
1.03445273750417566e+00
1.03445273750417566e+00
1.03445273750417566e+00
1.00210203182240254e+00
1.00210203182240254e+00
1.00210203182240254e+00
9.74435011480947022e-01
9.74435011480947022e-01
9.74435011480947022e-01
1.01792504443213927e+00
1.01792504443213927e+00
1.01792504443213927e+00
9.76372622662092793e-01
9.76372622662092793e-01
9.76372622662092793e-01
9.49161088561140232e-01
9.49161088561140232e-01
9.49161088561140232e-01
9.52910330935487826e-01
9.52910330935487826e-01
9.52910330935487826e-01
1.01457141157984587e+00
1.01457141157984587e+00
1.01457141157984587e+00
1.00864192886400805e+00
1.00864192886400805e+00
1.00864192886400805e+00
9.66674445323237652e-01
9.66674445323237652e-01
9.66674445323237652e-01
9.66986196306919177e-01
9.66986196306919177e-01
9.66986196306919177e-01
1.03629844357903433e+00
1.03629844357903433e+00
1.03629844357903433e+00
1.01846773026341153e+00
1.01846773026341153e+00
1.01846773026341153e+00
9.72221866959267378e-01
9.72221866959267378e-01
9.72221866959267378e-01
9.93434192762571278e-01
9.93434192762571278e-01
9.93434192762571278e-01
9.31539459293620142e-01
9.31539459293620142e-01
9.31539459293620142e-01
1.03064787780915568e+00
1.03064787780915568e+00
1.03064787780915568e+00
1.02179969481627242e+00
1.02179969481627242e+00
1.02179969481627242e+00
1.03635449701778715e+00
1.03635449701778715e+00
1.03635449701778715e+00
9.88627903860106683e-01
9.88627903860106683e-01
9.88627903860106683e-01
1.01517018507607948e+00
1.01517018507607948e+00
1.01517018507607948e+00
1.02158017987037031e+00
1.02158017987037031e+00
1.02158017987037031e+00


        </DataArray>

      </PointData>

      <CellData/>

      <Points>

        <DataArray type="Float64" NumberOfComponents="3" format="ascii">

0.1082531754723032 0.6875000000007816 0 0.23533274979922561 0.77093399389351469 0 0.10409951422139101 0.81206782209691231 0 0.23533274979922561 0.77093399389351469 0 0.1082531754723032 0.6875000000007816 0 0.21809253452218619 0.65480892822618109 0 0.24418615484441761 0.35773612382016978 0 0.121259140952891 0.43112117036853742 0 0.1082531754734323 0.31250000000117473 0 0.75000000000057243 0.35048094716480432 0 0.88173731489851925 0.33077402607778361 0 0.81242894672211508 0.45500248311961472 0 0.121259140952891 0.43112117036853742 0 0.24418615484441761 0.35773612382016978 0 0.22257735880419699 0.47344721641341742 0 0.81242894672211508 0.45500248311961472 0 0.88173731489851925 0.33077402607778361 0 0.915464298762109 0.43749999999886913 0 0 0.62500000000121547 0 0 0.50000000000206146 0 0.1371230538040123 0.56179824718362847 0 0.82212678063041267 0.67678595194836966 0 0.89051480781310632 0.79665793440246835 0 0.76243180583607129 0.78687675331113149 0 0.76243180583607129 0.78687675331113149 0 0.69010814643829166 0.89298495739101336 0 0.62844955668446423 0.7850749770380413 0 0.89051480781310632 0.79665793440246835 0 0.82212678063041267 0.67678595194836966 0 0.92266244547590082 0.68749999999917555 0 0 0.50000000000206146 0 0.121259140952891 0.43112117036853742 0 0.1371230538040123 0.56179824718362847 0 0.1082531754723032 0.6875000000007816 0 0 0.62500000000121547 0 0.1371230538040123 0.56179824718362847 0 0.75000000000032374 0.56698729811007709 0 0.88927506082488361 0.56409486310635837 0 0.82212678063041267 0.67678595194836966 0 0.81242894672211508 0.45500248311961472 0 0.88927506082488361 0.56409486310635837 0 0.75000000000032374 0.56698729811007709 0 0.69851598570178741 0.68211701800612057 0 0.56496004948275869 0.67675037307860475 0 0.62752533658682441 0.56838075195614346 0 0.69851598570178741 0.68211701800612057 0 0.76243180583607129 0.78687675331113149 0 0.62844955668446423 0.7850749770380413 0 0.23533274979922561 0.77093399389351469 0 0.18802967116092181 0.89415349436770275 0 0.10409951422139101 0.81206782209691231 0 0.121259140952891 0.43112117036853742 0 0.22257735880419699 0.47344721641341742 0 0.1371230538040123 0.56179824718362847 0 0.75000000000032374 0.56698729811007709 0 0.69851598570178741 0.68211701800612057 0 0.62752533658682441 0.56838075195614346 0 0.56496004948275869 0.67675037307860475 0 0.69851598570178741 0.68211701800612057 0 0.62844955668446423 0.7850749770380413 0 0.1371230538040123 0.56179824718362847 0 0.22257735880419699 0.47344721641341742 0 0.26982811998763367 0.56544650815856912 0 0.21809253452218619 0.65480892822618109 0 0.1371230538040123 0.56179824718362847 0 0.26982811998763367 0.56544650815856912 0 0.24418615484441761 0.35773612382016978 0 0.1082531754734323 0.31250000000117473 0 0.20767261601459541 0.25628918442207171 0 0.88173731489851925 0.33077402607778361 0 0.75000000000057243 0.35048094716480432 0 0.79891106056046712 0.25007334953587562 0 0.75000000000032374 0.56698729811007709 0 0.82212678063041267 0.67678595194836966 0 0.69851598570178741 0.68211701800612057 0 0.81249999999950517 0.1082531754733404 0 0.89658421694297741 0.1933620068391701 0 0.79891106056046712 0.25007334953587562 0 0.81249999999950517 0.1082531754733404 0 0.79891106056046712 0.25007334953587562 0 0.73983916756365475 0.17530677078674589 0 0.23533274979922561 0.77093399389351469 0 0.21809253452218619 0.65480892822618109 0 0.32607333794064219 0.67760114260606152 0 0.1082531754723032 0.6875000000007816 0 0.1371230538040123 0.56179824718362847 0 0.21809253452218619 0.65480892822618109 0 0.69851598570178741 0.68211701800612057 0 0.82212678063041267 0.67678595194836966 0 0.76243180583607129 0.78687675331113149 0 0.69010814643829166 0.89298495739101336 0 0.76243180583607129 0.78687675331113149 0 0.80886664387416207 0.89717308644237903 0 0.43750000000181222 0.89174682452709564 0 0.31258827852827581 0.89214793616708443 0 0.37776173212361452 0.78514649317305008 0 0.43750000000181222 0.89174682452709564 0 0.37500000000156292 1 0 0.31258827852827581 0.89214793616708443 0 0.121259140952891 0.43112117036853742 0 0 0.37500000000156292 0 0.1082531754734323 0.31250000000117473 0 0.50000000000206146 1 0 0.37500000000156292 1 0 0.43750000000181222 0.89174682452709564 0 0.31258827852827581 0.89214793616708443 0 0.18802967116092181 0.89415349436770275 0 0.23533274979922561 0.77093399389351469 0 0 0.50000000000206146 0 0 0.37500000000156292 0 0.121259140952891 0.43112117036853742 0 0.62844955668446423 0.7850749770380413 0 0.69010814643829166 0.89298495739101336 0 0.56327595140699671 0.89211526915426331 0 0.69010814643829166 0.89298495739101336 0 0.62500000000121547 1 0 0.56327595140699671 0.89211526915426331 0 0.25000000000104189 1 0 0.18802967116092181 0.89415349436770275 0 0.31258827852827581 0.89214793616708443 0 0.50000000000206146 1 0 0.43750000000181222 0.89174682452709564 0 0.56327595140699671 0.89211526915426331 0 0.56249999999885147 0.1082531754730395 0 0.62499999999901068 0 0 0.68749999999926592 0.1082531754732875 0 1 0.49999999999869221 0 1 0.62499999999901068 0 0.88927506082488361 0.56409486310635837 0 0 0.25000000000104189 0 0.12076953676380731 0.18690935762408761 0 0.1082531754734323 0.31250000000117473 0 0.49999999999869221 0 0 0.62499999999901068 0 0 0.56249999999885147 0.1082531754730395 0 0.62500000000121547 1 0 0.50000000000206146 1 0 0.56327595140699671 0.89211526915426331 0 0.37500000000156292 1 0 0.25000000000104189 1 0 0.31258827852827581 0.89214793616708443 0 0.31281086598417152 0.10449318608631281 0 0.37499999999904599 0 0 0.43749999999910871 0.1082531754729984 0 0.43750000000181222 0.89174682452709564 0 0.37776173212361452 0.78514649317305008 0 0.50046028868828263 0.78376912307435687 0 0 0.37500000000156292 0 0 0.25000000000104189 0 0.1082531754734323 0.31250000000117473 0 0.49999999999869221 0 0 0.56249999999885147 0.1082531754730395 0 0.43749999999910871 0.1082531754729984 0 0.43750000000181222 0.89174682452709564 0 0.50046028868828263 0.78376912307435687 0 0.56327595140699671 0.89211526915426331 0 0.74999999999934042 0 0 0.81249999999950517 0.1082531754733404 0 0.68749999999926592 0.1082531754732875 0 0.37499999999904599 0 0 0.49999999999869221 0 0 0.43749999999910871 0.1082531754729984 0 0.25000000000104189 1 0 0.12500000000052089 1 0 0.18802967116092181 0.89415349436770275 0 0.50046028868828263 0.78376912307435687 0 0.62844955668446423 0.7850749770380413 0 0.56327595140699671 0.89211526915426331 0 0.37776173212361452 0.78514649317305008 0 0.31258827852827581 0.89214793616708443 0 0.23533274979922561 0.77093399389351469 0 0.62499999999901068 0 0 0.74999999999934042 0 0 0.68749999999926592 0.1082531754732875 0 1 0.74999999999934042 0 1 0.87499999999967015 0 0.89051480781310632 0.79665793440246835 0 0 0.25000000000104189 0 0 0.12500000000052089 0 0.12076953676380731 0.18690935762408761 0 0.74999999999934042 0 0 0.87499999999967015 0 0 0.81249999999950517 0.1082531754733404 0 0.24999999999941069 0 0 0.37499999999904599 0 0 0.31281086598417152 0.10449318608631281 0 0.50046028868828263 0.78376912307435687 0 0.37776173212361452 0.78514649317305008 0 0.44078402250377968 0.67714785211715212 0 0.68768773896438518 0.4586835206367198 0 0.75000000000032374 0.56698729811007709 0 0.62752533658682441 0.56838075195614346 0 0.31411863959822661 0.24965544328045999 0 0.37953773393552892 0.34812185820708452 0 0.24418615484441761 0.35773612382016978 0 0.68768773896438518 0.4586835206367198 0 0.81242894672211508 0.45500248311961472 0 0.75000000000032374 0.56698729811007709 0 1 0.24999999999941069 0 1 0.37499999999904599 0 0.88173731489851925 0.33077402607778361 0 0 0.75000000000034761 0 0 0.62500000000121547 0 0.1082531754723032 0.6875000000007816 0 0.50048844149666749 0.56727788297625459 0 0.44078402250377968 0.67714785211715212 0 0.38694285807596462 0.5672991787102919 0 0.50108503093851109 0.35012252869403671 0 0.44301038174930041 0.45684931552185398 0 0.37953773393552892 0.34812185820708452 0 0.50046028868828263 0.78376912307435687 0 0.56496004948275869 0.67675037307860475 0 0.62844955668446423 0.7850749770380413 0 0.68768773896438518 0.4586835206367198 0 0.75000000000057243 0.35048094716480432 0 0.81242894672211508 0.45500248311961472 0 0.56349980387502452 0.45846841892908402 0 0.62512662990940393 0.35044303886909911 0 0.68768773896438518 0.4586835206367198 0 0.50048844149666749 0.56727788297625459 0 0.38694285807596462 0.5672991787102919 0 0.44301038174930041 0.45684931552185398 0 0.50046028868828263 0.78376912307435687 0 0.44078402250377968 0.67714785211715212 0 0.56496004948275869 0.67675037307860475 0 0.50108503093851109 0.35012252869403671 0 0.37953773393552892 0.34812185820708452 0 0.43750000000200551 0.24222777169198509 0 0.75000000000034761 1 0 0.62500000000121547 1 0 0.69010814643829166 0.89298495739101336 0 0.68768773896438518 0.4586835206367198 0 0.62512662990940393 0.35044303886909911 0 0.75000000000057243 0.35048094716480432 0 0.56496004948275869 0.67675037307860475 0 0.44078402250377968 0.67714785211715212 0 0.50048844149666749 0.56727788297625459 0 0.56349980387502452 0.45846841892908402 0 0.44301038174930041 0.45684931552185398 0 0.50108503093851109 0.35012252869403671 0 0.50048844149666749 0.56727788297625459 0 0.44301038174930041 0.45684931552185398 0 0.56349980387502452 0.45846841892908402 0 0.56349980387502452 0.45846841892908402 0 0.50108503093851109 0.35012252869403671 0 0.62512662990940393 0.35044303886909911 0 0.43750000000200551 0.24222777169198509 0 0.37953773393552892 0.34812185820708452 0 0.31411863959822661 0.24965544328045999 0 0.56496004948275869 0.67675037307860475 0 0.50048844149666749 0.56727788297625459 0 0.62752533658682441 0.56838075195614346 0 0.56349980387502452 0.45846841892908402 0 0.68768773896438518 0.4586835206367198 0 0.62752533658682441 0.56838075195614346 0 0.50048844149666749 0.56727788297625459 0 0.56349980387502452 0.45846841892908402 0 0.62752533658682441 0.56838075195614346 0 0.75000000000057243 0.35048094716480432 0 0.62512662990940393 0.35044303886909911 0 0.68668231842078242 0.24762892664808989 0 0.50108503093851109 0.35012252869403671 0 0.43750000000200551 0.24222777169198509 0 0.56250000000143974 0.2422277716920859 0 0.62512662990940393 0.35044303886909911 0 0.50108503093851109 0.35012252869403671 0 0.56250000000143974 0.2422277716920859 0 0.68668231842078242 0.24762892664808989 0 0.62512662990940393 0.35044303886909911 0 0.56250000000143974 0.2422277716920859 0 0.22257735880419699 0.47344721641341742 0 0.24418615484441761 0.35773612382016978 0 0.32815957677880009 0.4577243358118348 0 0.12076953676380731 0.18690935762408761 0 0.19185372118111221 0.092925648673580788 0 0.25103557339309318 0.17464499738446629 0 0.20767261601459541 0.25628918442207171 0 0.12076953676380731 0.18690935762408761 0 0.25103557339309318 0.17464499738446629 0 0 0.87499999999950151 0 0 0.75000000000034761 0 0.10409951422139101 0.81206782209691231 0 0.1249999999997731 0 0 0.24999999999941069 0 0 0.19185372118111221 0.092925648673580788 0 1 0.1249999999997731 0 1 0.24999999999941069 0 0.89658421694297741 0.1933620068391701 0 0.88927506082488361 0.56409486310635837 0 0.81242894672211508 0.45500248311961472 0 0.915464298762109 0.43749999999886913 0 0.87499999999950151 1 0 0.75000000000034761 1 0 0.80886664387416207 0.89717308644237903 0 0.75000000000034761 1 0 0.69010814643829166 0.89298495739101336 0 0.80886664387416207 0.89717308644237903 0 0.82212678063041267 0.67678595194836966 0 0.88927506082488361 0.56409486310635837 0 0.92266244547590082 0.68749999999917555 0 0 0.75000000000034761 0 0.1082531754723032 0.6875000000007816 0 0.10409951422139101 0.81206782209691231 0 0.24999999999941069 0 0 0.31281086598417152 0.10449318608631281 0 0.19185372118111221 0.092925648673580788 0 1 0.24999999999941069 0 0.88173731489851925 0.33077402607778361 0 0.89658421694297741 0.1933620068391701 0 0.32815957677880009 0.4577243358118348 0 0.38694285807596462 0.5672991787102919 0 0.26982811998763367 0.56544650815856912 0 0.76243180583607129 0.78687675331113149 0 0.89051480781310632 0.79665793440246835 0 0.80886664387416207 0.89717308644237903 0 0.38694285807596462 0.5672991787102919 0 0.44078402250377968 0.67714785211715212 0 0.32607333794064219 0.67760114260606152 0 0.37776173212361452 0.78514649317305008 0 0.23533274979922561 0.77093399389351469 0 0.32607333794064219 0.67760114260606152 0 1 0.49999999999869221 0 0.88927506082488361 0.56409486310635837 0 0.915464298762109 0.43749999999886913 0 0.88173731489851925 0.33077402607778361 0 1 0.37499999999904599 0 0.915464298762109 0.43749999999886913 0 0.24418615484441761 0.35773612382016978 0 0.37953773393552892 0.34812185820708452 0 0.32815957677880009 0.4577243358118348 0 0.44301038174930041 0.45684931552185398 0 0.38694285807596462 0.5672991787102919 0 0.32815957677880009 0.4577243358118348 0 0.88927506082488361 0.56409486310635837 0 1 0.62499999999901068 0 0.92266244547590082 0.68749999999917555 0 1 0.74999999999934042 0 0.89051480781310632 0.79665793440246835 0 0.92266244547590082 0.68749999999917555 0 0 1 0 0 0.87499999999950151 0 0.091506350946494744 0.90849364905351082 0 1 1 0 0.87499999999950151 1 0 0.90849364905363228 0.90849364905367769 0 0 0 0 0.1249999999997731 0 0 0.091506350946417708 0.091506350946618076 0 0 0.12500000000052089 0 0 0 0 0.091506350946417708 0.091506350946618076 0 1 0 0 1 0.1249999999997731 0 0.90849364905355434 0.091506350946296292 0 0.87499999999967015 0 0 1 0 0 0.90849364905355434 0.091506350946296292 0 0.12500000000052089 1 0 0 1 0 0.091506350946494744 0.90849364905351082 0 1 0.87499999999967015 0 1 1 0 0.90849364905363228 0.90849364905367769 0 0.38694285807596462 0.5672991787102919 0 0.32607333794064219 0.67760114260606152 0 0.26982811998763367 0.56544650815856912 0 0.31411863959822661 0.24965544328045999 0 0.24418615484441761 0.35773612382016978 0 0.20767261601459541 0.25628918442207171 0 0.1082531754734323 0.31250000000117473 0 0.12076953676380731 0.18690935762408761 0 0.20767261601459541 0.25628918442207171 0 0.75000000000057243 0.35048094716480432 0 0.68668231842078242 0.24762892664808989 0 0.79891106056046712 0.25007334953587562 0 0.22257735880419699 0.47344721641341742 0 0.32815957677880009 0.4577243358118348 0 0.26982811998763367 0.56544650815856912 0 0.44078402250377968 0.67714785211715212 0 0.37776173212361452 0.78514649317305008 0 0.32607333794064219 0.67760114260606152 0 0.89658421694297741 0.1933620068391701 0 0.88173731489851925 0.33077402607778361 0 0.79891106056046712 0.25007334953587562 0 1 0.37499999999904599 0 1 0.49999999999869221 0 0.915464298762109 0.43749999999886913 0 0.37953773393552892 0.34812185820708452 0 0.44301038174930041 0.45684931552185398 0 0.32815957677880009 0.4577243358118348 0 0.32607333794064219 0.67760114260606152 0 0.21809253452218619 0.65480892822618109 0 0.26982811998763367 0.56544650815856912 0 1 0.1249999999997731 0 0.89658421694297741 0.1933620068391701 0 0.90849364905355434 0.091506350946296292 0 0 0.87499999999950151 0 0.10409951422139101 0.81206782209691231 0 0.091506350946494744 0.90849364905351082 0 0.1249999999997731 0 0 0.19185372118111221 0.092925648673580788 0 0.091506350946417708 0.091506350946618076 0 1 0.62499999999901068 0 1 0.74999999999934042 0 0.92266244547590082 0.68749999999917555 0 0.18802967116092181 0.89415349436770275 0 0.12500000000052089 1 0 0.091506350946494744 0.90849364905351082 0 0.89051480781310632 0.79665793440246835 0 1 0.87499999999967015 0 0.90849364905363228 0.90849364905367769 0 0.12076953676380731 0.18690935762408761 0 0 0.12500000000052089 0 0.091506350946417708 0.091506350946618076 0 0.81249999999950517 0.1082531754733404 0 0.87499999999967015 0 0 0.90849364905355434 0.091506350946296292 0 0.87499999999950151 1 0 0.80886664387416207 0.89717308644237903 0 0.90849364905363228 0.90849364905367769 0 0.68668231842078242 0.24762892664808989 0 0.62499999999892575 0.17524047358135519 0 0.73983916756365475 0.17530677078674589 0 0.31281086598417152 0.10449318608631281 0 0.43749999999910871 0.1082531754729984 0 0.37500000000232431 0.17524047358384309 0 0.62499999999892575 0.17524047358135519 0 0.56250000000143974 0.2422277716920859 0 0.49999999999934441 0.1752404735815076 0 0.56249999999885147 0.1082531754730395 0 0.68749999999926592 0.1082531754732875 0 0.62499999999892575 0.17524047358135519 0 0.56249999999885147 0.1082531754730395 0 0.62499999999892575 0.17524047358135519 0 0.49999999999934441 0.1752404735815076 0 0.56250000000143974 0.2422277716920859 0 0.43750000000200551 0.24222777169198509 0 0.49999999999934441 0.1752404735815076 0 0.43749999999910871 0.1082531754729984 0 0.56249999999885147 0.1082531754730395 0 0.49999999999934441 0.1752404735815076 0 0.68668231842078242 0.24762892664808989 0 0.56250000000143974 0.2422277716920859 0 0.62499999999892575 0.17524047358135519 0 0.43750000000200551 0.24222777169198509 0 0.31411863959822661 0.24965544328045999 0 0.37500000000232431 0.17524047358384309 0 0.49999999999934441 0.1752404735815076 0 0.43750000000200551 0.24222777169198509 0 0.37500000000232431 0.17524047358384309 0 0.43749999999910871 0.1082531754729984 0 0.49999999999934441 0.1752404735815076 0 0.37500000000232431 0.17524047358384309 0 0.62499999999892575 0.17524047358135519 0 0.68749999999926592 0.1082531754732875 0 0.73983916756365475 0.17530677078674589 0 0.68749999999926592 0.1082531754732875 0 0.81249999999950517 0.1082531754733404 0 0.73983916756365475 0.17530677078674589 0 0.10409951422139101 0.81206782209691231 0 0.18802967116092181 0.89415349436770275 0 0.091506350946494744 0.90849364905351082 0 0.89658421694297741 0.1933620068391701 0 0.81249999999950517 0.1082531754733404 0 0.90849364905355434 0.091506350946296292 0 0.19185372118111221 0.092925648673580788 0 0.12076953676380731 0.18690935762408761 0 0.091506350946417708 0.091506350946618076 0 0.37500000000232431 0.17524047358384309 0 0.31411863959822661 0.24965544328045999 0 0.25103557339309318 0.17464499738446629 0 0.31281086598417152 0.10449318608631281 0 0.37500000000232431 0.17524047358384309 0 0.25103557339309318 0.17464499738446629 0 0.80886664387416207 0.89717308644237903 0 0.89051480781310632 0.79665793440246835 0 0.90849364905363228 0.90849364905367769 0 0.19185372118111221 0.092925648673580788 0 0.31281086598417152 0.10449318608631281 0 0.25103557339309318 0.17464499738446629 0 0.79891106056046712 0.25007334953587562 0 0.68668231842078242 0.24762892664808989 0 0.73983916756365475 0.17530677078674589 0 0.31411863959822661 0.24965544328045999 0 0.20767261601459541 0.25628918442207171 0 0.25103557339309318 0.17464499738446629 0 

        </DataArray>

      </Points>

      <Cells>

        <DataArray type="Int32" Name="connectivity" format="ascii">

0 1 2 3 4 5 6 7 8 9 10 11 12 13 14 15 16 17 18 19 20 21 22 23 24 25 26 27 28 29 30 31 32 33 34 35 36 37 38 39 40 41 42 43 44 45 46 47 48 49 50 51 52 53 54 55 56 57 58 59 60 61 62 63 64 65 66 67 68 69 70 71 72 73 74 75 76 77 78 79 80 81 82 83 84 85 86 87 88 89 90 91 92 93 94 95 96 97 98 99 100 101 102 103 104 105 106 107 108 109 110 111 112 113 114 115 116 117 118 119 120 121 122 123 124 125 126 127 128 129 130 131 132 133 134 135 136 137 138 139 140 141 142 143 144 145 146 147 148 149 150 151 152 153 154 155 156 157 158 159 160 161 162 163 164 165 166 167 168 169 170 171 172 173 174 175 176 177 178 179 180 181 182 183 184 185 186 187 188 189 190 191 192 193 194 195 196 197 198 199 200 201 202 203 204 205 206 207 208 209 210 211 212 213 214 215 216 217 218 219 220 221 222 223 224 225 226 227 228 229 230 231 232 233 234 235 236 237 238 239 240 241 242 243 244 245 246 247 248 249 250 251 252 253 254 255 256 257 258 259 260 261 262 263 264 265 266 267 268 269 270 271 272 273 274 275 276 277 278 279 280 281 282 283 284 285 286 287 288 289 290 291 292 293 294 295 296 297 298 299 300 301 302 303 304 305 306 307 308 309 310 311 312 313 314 315 316 317 318 319 320 321 322 323 324 325 326 327 328 329 330 331 332 333 334 335 336 337 338 339 340 341 342 343 344 345 346 347 348 349 350 351 352 353 354 355 356 357 358 359 360 361 362 363 364 365 366 367 368 369 370 371 372 373 374 375 376 377 378 379 380 381 382 383 384 385 386 387 388 389 390 391 392 393 394 395 396 397 398 399 400 401 402 403 404 405 406 407 408 409 410 411 412 413 414 415 416 417 418 419 420 421 422 423 424 425 426 427 428 429 430 431 432 433 434 435 436 437 438 439 440 441 442 443 444 445 446 447 448 449 450 451 452 453 454 455 456 457 458 459 460 461 462 463 464 465 466 467 468 469 470 471 472 473 474 475 476 477 478 479 480 481 482 483 484 485 

        </DataArray>

        <DataArray type="Int32" Name="offsets" format="ascii">

3 6 9 12 15 18 21 24 27 30 33 36 39 42 45 48 51 54 57 60 63 66 69 72 75 78 81 84 87 90 93 96 99 102 105 108 111 114 117 120 123 126 129 132 135 138 141 144 147 150 153 156 159 162 165 168 171 174 177 180 183 186 189 192 195 198 201 204 207 210 213 216 219 222 225 228 231 234 237 240 243 246 249 252 255 258 261 264 267 270 273 276 279 282 285 288 291 294 297 300 303 306 309 312 315 318 321 324 327 330 333 336 339 342 345 348 351 354 357 360 363 366 369 372 375 378 381 384 387 390 393 396 399 402 405 408 411 414 417 420 423 426 429 432 435 438 441 444 447 450 453 456 459 462 465 468 471 474 477 480 483 486 

        </DataArray>

        <DataArray type="Int32" Name="types" format="ascii">

5 5 5 5 5 5 5 5 5 5 5 5 5 5 5 5 5 5 5 5 5 5 5 5 5 5 5 5 5 5 5 5 5 5 5 5 5 5 5 5 5 5 5 5 5 5 5 5 5 5 5 5 5 5 5 5 5 5 5 5 5 5 5 5 5 5 5 5 5 5 5 5 5 5 5 5 5 5 5 5 5 5 5 5 5 5 5 5 5 5 5 5 5 5 5 5 5 5 5 5 5 5 5 5 5 5 5 5 5 5 5 5 5 5 5 5 5 5 5 5 5 5 5 5 5 5 5 5 5 5 5 5 5 5 5 5 5 5 5 5 5 5 5 5 5 5 5 5 5 5 5 5 5 5 5 5 5 5 5 5 5 5 

        </DataArray>

      </Cells>

    </Piece>

  </UnstructuredGrid>

</VTKFile>

