<?xml version="1.0"?>

<VTKFile type="UnstructuredGrid" version="0.1">

  <UnstructuredGrid>

    <Piece NumberOfPoints="486" NumberOfCells="162">

      <PointData>

        <DataArray type="Float64" Name="K" format="ascii">

9.99475245314448424e-01
9.99475245314448424e-01
9.99475245314448424e-01
1.00763895897282341e+00
1.00763895897282341e+00
1.00763895897282341e+00
1.01596830329769139e+00
1.01596830329769139e+00
1.01596830329769139e+00
9.75115367884490158e-01
9.75115367884490158e-01
9.75115367884490158e-01
1.03471380226645104e+00
1.03471380226645104e+00
1.03471380226645104e+00
9.66588061730958792e-01
9.66588061730958792e-01
9.66588061730958792e-01
1.03407766610839968e+00
1.03407766610839968e+00
1.03407766610839968e+00
1.08443108979666292e+00
1.08443108979666292e+00
1.08443108979666292e+00
1.05092701900199037e+00
1.05092701900199037e+00
1.05092701900199037e+00
1.07647702734049733e+00
1.07647702734049733e+00
1.07647702734049733e+00
1.03380776479968595e+00
1.03380776479968595e+00
1.03380776479968595e+00
1.03818983664443931e+00
1.03818983664443931e+00
1.03818983664443931e+00
1.03474222298082030e+00
1.03474222298082030e+00
1.03474222298082030e+00
1.00296827225831509e+00
1.00296827225831509e+00
1.00296827225831509e+00
1.02187850495050103e+00
1.02187850495050103e+00
1.02187850495050103e+00
1.04667894738303602e+00
1.04667894738303602e+00
1.04667894738303602e+00
9.82400772265421440e-01
9.82400772265421440e-01
9.82400772265421440e-01
1.04228151058938567e+00
1.04228151058938567e+00
1.04228151058938567e+00
1.02545608050560455e+00
1.02545608050560455e+00
1.02545608050560455e+00
1.01789652226542948e+00
1.01789652226542948e+00
1.01789652226542948e+00
1.04432231803265996e+00
1.04432231803265996e+00
1.04432231803265996e+00
1.03510135872951348e+00
1.03510135872951348e+00
1.03510135872951348e+00
1.00750035454151599e+00
1.00750035454151599e+00
1.00750035454151599e+00
9.84024913918039368e-01
9.84024913918039368e-01
9.84024913918039368e-01
1.04146853586556531e+00
1.04146853586556531e+00
1.04146853586556531e+00
1.01360164399878805e+00
1.01360164399878805e+00
1.01360164399878805e+00
1.01294567198985130e+00
1.01294567198985130e+00
1.01294567198985130e+00
1.00042459962070152e+00
1.00042459962070152e+00
1.00042459962070152e+00
1.03431639195204794e+00
1.03431639195204794e+00
1.03431639195204794e+00
1.06537635681889609e+00
1.06537635681889609e+00
1.06537635681889609e+00
1.07247080574397757e+00
1.07247080574397757e+00
1.07247080574397757e+00
1.01217191007657314e+00
1.01217191007657314e+00
1.01217191007657314e+00
1.01240509734917183e+00
1.01240509734917183e+00
1.01240509734917183e+00
1.01629445267771135e+00
1.01629445267771135e+00
1.01629445267771135e+00
9.95335367148539762e-01
9.95335367148539762e-01
9.95335367148539762e-01
9.93021779605178012e-01
9.93021779605178012e-01
9.93021779605178012e-01
1.02688905115940377e+00
1.02688905115940377e+00
1.02688905115940377e+00
1.01394906934988382e+00
1.01394906934988382e+00
1.01394906934988382e+00
1.01184603733671752e+00
1.01184603733671752e+00
1.01184603733671752e+00
1.00878712597794440e+00
1.00878712597794440e+00
1.00878712597794440e+00
9.82085115217551263e-01
9.82085115217551263e-01
9.82085115217551263e-01
1.01212150846553328e+00
1.01212150846553328e+00
1.01212150846553328e+00
1.01291814559311355e+00
1.01291814559311355e+00
1.01291814559311355e+00
1.01198414515089552e+00
1.01198414515089552e+00
1.01198414515089552e+00
1.03049667875562978e+00
1.03049667875562978e+00
1.03049667875562978e+00
9.89821801638082310e-01
9.89821801638082310e-01
9.89821801638082310e-01
1.02273841757582917e+00
1.02273841757582917e+00
1.02273841757582917e+00
1.00493147533887561e+00
1.00493147533887561e+00
1.00493147533887561e+00
1.00315941463887492e+00
1.00315941463887492e+00
1.00315941463887492e+00
1.02147054560385953e+00
1.02147054560385953e+00
1.02147054560385953e+00
1.02045646217308228e+00
1.02045646217308228e+00
1.02045646217308228e+00
9.85334980798366566e-01
9.85334980798366566e-01
9.85334980798366566e-01
1.01691934665790717e+00
1.01691934665790717e+00
1.01691934665790717e+00
1.01544417789867247e+00
1.01544417789867247e+00
1.01544417789867247e+00
1.00222424526029297e+00
1.00222424526029297e+00
1.00222424526029297e+00
9.90810702583461267e-01
9.90810702583461267e-01
9.90810702583461267e-01
1.00484477576499742e+00
1.00484477576499742e+00
1.00484477576499742e+00
1.01497483399494515e+00
1.01497483399494515e+00
1.01497483399494515e+00
1.07476698129970227e+00
1.07476698129970227e+00
1.07476698129970227e+00
1.01753454553697553e+00
1.01753454553697553e+00
1.01753454553697553e+00
1.03917699237666183e+00
1.03917699237666183e+00
1.03917699237666183e+00
1.01509972901623469e+00
1.01509972901623469e+00
1.01509972901623469e+00
1.00990996004622713e+00
1.00990996004622713e+00
1.00990996004622713e+00
1.01948191280074019e+00
1.01948191280074019e+00
1.01948191280074019e+00
1.01502540106092565e+00
1.01502540106092565e+00
1.01502540106092565e+00
1.00239525105303917e+00
1.00239525105303917e+00
1.00239525105303917e+00
9.59304205221565565e-01
9.59304205221565565e-01
9.59304205221565565e-01
1.02630151213685838e+00
1.02630151213685838e+00
1.02630151213685838e+00
1.00607991437097577e+00
1.00607991437097577e+00
1.00607991437097577e+00
9.75537021630669576e-01
9.75537021630669576e-01
9.75537021630669576e-01
1.00073015825481915e+00
1.00073015825481915e+00
1.00073015825481915e+00
9.95924316619269612e-01
9.95924316619269612e-01
9.95924316619269612e-01
1.01263989901290796e+00
1.01263989901290796e+00
1.01263989901290796e+00
9.94451375033537976e-01
9.94451375033537976e-01
9.94451375033537976e-01
1.00795927595820611e+00
1.00795927595820611e+00
1.00795927595820611e+00
9.77229781747918191e-01
9.77229781747918191e-01
9.77229781747918191e-01
1.02853533091989191e+00
1.02853533091989191e+00
1.02853533091989191e+00
1.00947166114011821e+00
1.00947166114011821e+00
1.00947166114011821e+00
1.01401722884460321e+00
1.01401722884460321e+00
1.01401722884460321e+00
9.79280445152037604e-01
9.79280445152037604e-01
9.79280445152037604e-01
9.95631335013138941e-01
9.95631335013138941e-01
9.95631335013138941e-01
9.87830358007130704e-01
9.87830358007130704e-01
9.87830358007130704e-01
9.97949805561540781e-01
9.97949805561540781e-01
9.97949805561540781e-01
1.02026506478824674e+00
1.02026506478824674e+00
1.02026506478824674e+00
1.02254221075314300e+00
1.02254221075314300e+00
1.02254221075314300e+00
1.01773132329829896e+00
1.01773132329829896e+00
1.01773132329829896e+00
1.00273953958538220e+00
1.00273953958538220e+00
1.00273953958538220e+00
9.70078362056255750e-01
9.70078362056255750e-01
9.70078362056255750e-01
9.75365146094168356e-01
9.75365146094168356e-01
9.75365146094168356e-01
9.87235274561827025e-01
9.87235274561827025e-01
9.87235274561827025e-01
1.03652344484042302e+00
1.03652344484042302e+00
1.03652344484042302e+00
1.01155194505274570e+00
1.01155194505274570e+00
1.01155194505274570e+00
1.00209205338601648e+00
1.00209205338601648e+00
1.00209205338601648e+00
1.00430449951586542e+00
1.00430449951586542e+00
1.00430449951586542e+00
1.04785333836994354e+00
1.04785333836994354e+00
1.04785333836994354e+00
9.87919910884465846e-01
9.87919910884465846e-01
9.87919910884465846e-01
9.87127424983422763e-01
9.87127424983422763e-01
9.87127424983422763e-01
1.03736620645522115e+00
1.03736620645522115e+00
1.03736620645522115e+00
1.05181121696944824e+00
1.05181121696944824e+00
1.05181121696944824e+00
1.05460551639078970e+00
1.05460551639078970e+00
1.05460551639078970e+00
1.01604441490450159e+00
1.01604441490450159e+00
1.01604441490450159e+00
1.02320335958495812e+00
1.02320335958495812e+00
1.02320335958495812e+00
9.71973798100993047e-01
9.71973798100993047e-01
9.71973798100993047e-01
1.01388227780482709e+00
1.01388227780482709e+00
1.01388227780482709e+00
1.08361697034176618e+00
1.08361697034176618e+00
1.08361697034176618e+00
1.00625631066856491e+00
1.00625631066856491e+00
1.00625631066856491e+00
1.00216477874203336e+00
1.00216477874203336e+00
1.00216477874203336e+00
9.94408164522181393e-01
9.94408164522181393e-01
9.94408164522181393e-01
9.61914505264305886e-01
9.61914505264305886e-01
9.61914505264305886e-01
1.02089875680023656e+00
1.02089875680023656e+00
1.02089875680023656e+00
9.96302947711877551e-01
9.96302947711877551e-01
9.96302947711877551e-01
1.04040722626522908e+00
1.04040722626522908e+00
1.04040722626522908e+00
1.06955217788060630e+00
1.06955217788060630e+00
1.06955217788060630e+00
9.84064043415567191e-01
9.84064043415567191e-01
9.84064043415567191e-01
1.05156672935752038e+00
1.05156672935752038e+00
1.05156672935752038e+00
1.02970942681418509e+00
1.02970942681418509e+00
1.02970942681418509e+00
1.01475813972000761e+00
1.01475813972000761e+00
1.01475813972000761e+00
1.03807762340762388e+00
1.03807762340762388e+00
1.03807762340762388e+00
1.06144796130318397e+00
1.06144796130318397e+00
1.06144796130318397e+00
9.81574983465038131e-01
9.81574983465038131e-01
9.81574983465038131e-01
1.07378064052335276e+00
1.07378064052335276e+00
1.07378064052335276e+00
1.00835850623709655e+00
1.00835850623709655e+00
1.00835850623709655e+00
1.01113829503852881e+00
1.01113829503852881e+00
1.01113829503852881e+00
1.00206196136739534e+00
1.00206196136739534e+00
1.00206196136739534e+00
1.00057511763925611e+00
1.00057511763925611e+00
1.00057511763925611e+00
1.03484442922291220e+00
1.03484442922291220e+00
1.03484442922291220e+00
1.01015697320677433e+00
1.01015697320677433e+00
1.01015697320677433e+00
9.85314604955635831e-01
9.85314604955635831e-01
9.85314604955635831e-01
9.73295283185893090e-01
9.73295283185893090e-01
9.73295283185893090e-01
9.95033422558297409e-01
9.95033422558297409e-01
9.95033422558297409e-01
1.01296358439830403e+00
1.01296358439830403e+00
1.01296358439830403e+00
1.01854251386696859e+00
1.01854251386696859e+00
1.01854251386696859e+00
9.89953894435395498e-01
9.89953894435395498e-01
9.89953894435395498e-01
1.03998356294349636e+00
1.03998356294349636e+00
1.03998356294349636e+00
1.04836439606658782e+00
1.04836439606658782e+00
1.04836439606658782e+00
9.83957264309164970e-01
9.83957264309164970e-01
9.83957264309164970e-01
1.07390803888829733e+00
1.07390803888829733e+00
1.07390803888829733e+00
1.02087357989272554e+00
1.02087357989272554e+00
1.02087357989272554e+00
1.04940208157926262e+00
1.04940208157926262e+00
1.04940208157926262e+00
1.05137621635460921e+00
1.05137621635460921e+00
1.05137621635460921e+00
9.95087880325179031e-01
9.95087880325179031e-01
9.95087880325179031e-01
1.00125672441617874e+00
1.00125672441617874e+00
1.00125672441617874e+00
9.82154689912239087e-01
9.82154689912239087e-01
9.82154689912239087e-01
9.96480514094949421e-01
9.96480514094949421e-01
9.96480514094949421e-01
9.93826296976803358e-01
9.93826296976803358e-01
9.93826296976803358e-01
9.80293856533735242e-01
9.80293856533735242e-01
9.80293856533735242e-01
1.00498984637781286e+00
1.00498984637781286e+00
1.00498984637781286e+00
9.84505330840928838e-01
9.84505330840928838e-01
9.84505330840928838e-01
9.98725962811053636e-01
9.98725962811053636e-01
9.98725962811053636e-01
9.93197402426742149e-01
9.93197402426742149e-01
9.93197402426742149e-01
1.00078273066488066e+00
1.00078273066488066e+00
1.00078273066488066e+00
9.96898838095565898e-01
9.96898838095565898e-01
9.96898838095565898e-01
1.01086816135044755e+00
1.01086816135044755e+00
1.01086816135044755e+00
9.81176965432352999e-01
9.81176965432352999e-01
9.81176965432352999e-01
1.03055070081655287e+00
1.03055070081655287e+00
1.03055070081655287e+00
1.02422840202531251e+00
1.02422840202531251e+00
1.02422840202531251e+00
1.00123531686704625e+00
1.00123531686704625e+00
1.00123531686704625e+00
1.00026763983120115e+00
1.00026763983120115e+00
1.00026763983120115e+00
1.07214284730329190e+00
1.07214284730329190e+00
1.07214284730329190e+00
1.00844119184644243e+00
1.00844119184644243e+00
1.00844119184644243e+00
1.00371322896548820e+00
1.00371322896548820e+00
1.00371322896548820e+00
1.00244774420093674e+00
1.00244774420093674e+00
1.00244774420093674e+00


        </DataArray>

      </PointData>

      <CellData/>

      <Points>

        <DataArray type="Float64" NumberOfComponents="3" format="ascii">

0.1082531754723032 0.6875000000007816 0 0.23533274979922561 0.77093399389351469 0 0.10409951422139101 0.81206782209691231 0 0.23533274979922561 0.77093399389351469 0 0.1082531754723032 0.6875000000007816 0 0.21809253452218619 0.65480892822618109 0 0.24418615484441761 0.35773612382016978 0 0.121259140952891 0.43112117036853742 0 0.1082531754734323 0.31250000000117473 0 0.75000000000057243 0.35048094716480432 0 0.88173731489851925 0.33077402607778361 0 0.81242894672211508 0.45500248311961472 0 0.121259140952891 0.43112117036853742 0 0.24418615484441761 0.35773612382016978 0 0.22257735880419699 0.47344721641341742 0 0.81242894672211508 0.45500248311961472 0 0.88173731489851925 0.33077402607778361 0 0.915464298762109 0.43749999999886913 0 0 0.62500000000121547 0 0 0.50000000000206146 0 0.1371230538040123 0.56179824718362847 0 0.82212678063041267 0.67678595194836966 0 0.89051480781310632 0.79665793440246835 0 0.76243180583607129 0.78687675331113149 0 0.76243180583607129 0.78687675331113149 0 0.69010814643829166 0.89298495739101336 0 0.62844955668446423 0.7850749770380413 0 0.89051480781310632 0.79665793440246835 0 0.82212678063041267 0.67678595194836966 0 0.92266244547590082 0.68749999999917555 0 0 0.50000000000206146 0 0.121259140952891 0.43112117036853742 0 0.1371230538040123 0.56179824718362847 0 0.1082531754723032 0.6875000000007816 0 0 0.62500000000121547 0 0.1371230538040123 0.56179824718362847 0 0.75000000000032374 0.56698729811007709 0 0.88927506082488361 0.56409486310635837 0 0.82212678063041267 0.67678595194836966 0 0.81242894672211508 0.45500248311961472 0 0.88927506082488361 0.56409486310635837 0 0.75000000000032374 0.56698729811007709 0 0.69851598570178741 0.68211701800612057 0 0.56496004948275869 0.67675037307860475 0 0.62752533658682441 0.56838075195614346 0 0.69851598570178741 0.68211701800612057 0 0.76243180583607129 0.78687675331113149 0 0.62844955668446423 0.7850749770380413 0 0.23533274979922561 0.77093399389351469 0 0.18802967116092181 0.89415349436770275 0 0.10409951422139101 0.81206782209691231 0 0.121259140952891 0.43112117036853742 0 0.22257735880419699 0.47344721641341742 0 0.1371230538040123 0.56179824718362847 0 0.75000000000032374 0.56698729811007709 0 0.69851598570178741 0.68211701800612057 0 0.62752533658682441 0.56838075195614346 0 0.56496004948275869 0.67675037307860475 0 0.69851598570178741 0.68211701800612057 0 0.62844955668446423 0.7850749770380413 0 0.1371230538040123 0.56179824718362847 0 0.22257735880419699 0.47344721641341742 0 0.26982811998763367 0.56544650815856912 0 0.21809253452218619 0.65480892822618109 0 0.1371230538040123 0.56179824718362847 0 0.26982811998763367 0.56544650815856912 0 0.24418615484441761 0.35773612382016978 0 0.1082531754734323 0.31250000000117473 0 0.20767261601459541 0.25628918442207171 0 0.88173731489851925 0.33077402607778361 0 0.75000000000057243 0.35048094716480432 0 0.79891106056046712 0.25007334953587562 0 0.75000000000032374 0.56698729811007709 0 0.82212678063041267 0.67678595194836966 0 0.69851598570178741 0.68211701800612057 0 0.81249999999950517 0.1082531754733404 0 0.89658421694297741 0.1933620068391701 0 0.79891106056046712 0.25007334953587562 0 0.81249999999950517 0.1082531754733404 0 0.79891106056046712 0.25007334953587562 0 0.73983916756365475 0.17530677078674589 0 0.23533274979922561 0.77093399389351469 0 0.21809253452218619 0.65480892822618109 0 0.32607333794064219 0.67760114260606152 0 0.1082531754723032 0.6875000000007816 0 0.1371230538040123 0.56179824718362847 0 0.21809253452218619 0.65480892822618109 0 0.69851598570178741 0.68211701800612057 0 0.82212678063041267 0.67678595194836966 0 0.76243180583607129 0.78687675331113149 0 0.69010814643829166 0.89298495739101336 0 0.76243180583607129 0.78687675331113149 0 0.80886664387416207 0.89717308644237903 0 0.43750000000181222 0.89174682452709564 0 0.31258827852827581 0.89214793616708443 0 0.37776173212361452 0.78514649317305008 0 0.43750000000181222 0.89174682452709564 0 0.37500000000156292 1 0 0.31258827852827581 0.89214793616708443 0 0.121259140952891 0.43112117036853742 0 0 0.37500000000156292 0 0.1082531754734323 0.31250000000117473 0 0.50000000000206146 1 0 0.37500000000156292 1 0 0.43750000000181222 0.89174682452709564 0 0.31258827852827581 0.89214793616708443 0 0.18802967116092181 0.89415349436770275 0 0.23533274979922561 0.77093399389351469 0 0 0.50000000000206146 0 0 0.37500000000156292 0 0.121259140952891 0.43112117036853742 0 0.62844955668446423 0.7850749770380413 0 0.69010814643829166 0.89298495739101336 0 0.56327595140699671 0.89211526915426331 0 0.69010814643829166 0.89298495739101336 0 0.62500000000121547 1 0 0.56327595140699671 0.89211526915426331 0 0.25000000000104189 1 0 0.18802967116092181 0.89415349436770275 0 0.31258827852827581 0.89214793616708443 0 0.50000000000206146 1 0 0.43750000000181222 0.89174682452709564 0 0.56327595140699671 0.89211526915426331 0 0.56249999999885147 0.1082531754730395 0 0.62499999999901068 0 0 0.68749999999926592 0.1082531754732875 0 1 0.49999999999869221 0 1 0.62499999999901068 0 0.88927506082488361 0.56409486310635837 0 0 0.25000000000104189 0 0.12076953676380731 0.18690935762408761 0 0.1082531754734323 0.31250000000117473 0 0.49999999999869221 0 0 0.62499999999901068 0 0 0.56249999999885147 0.1082531754730395 0 0.62500000000121547 1 0 0.50000000000206146 1 0 0.56327595140699671 0.89211526915426331 0 0.37500000000156292 1 0 0.25000000000104189 1 0 0.31258827852827581 0.89214793616708443 0 0.31281086598417152 0.10449318608631281 0 0.37499999999904599 0 0 0.43749999999910871 0.1082531754729984 0 0.43750000000181222 0.89174682452709564 0 0.37776173212361452 0.78514649317305008 0 0.50046028868828263 0.78376912307435687 0 0 0.37500000000156292 0 0 0.25000000000104189 0 0.1082531754734323 0.31250000000117473 0 0.49999999999869221 0 0 0.56249999999885147 0.1082531754730395 0 0.43749999999910871 0.1082531754729984 0 0.43750000000181222 0.89174682452709564 0 0.50046028868828263 0.78376912307435687 0 0.56327595140699671 0.89211526915426331 0 0.74999999999934042 0 0 0.81249999999950517 0.1082531754733404 0 0.68749999999926592 0.1082531754732875 0 0.37499999999904599 0 0 0.49999999999869221 0 0 0.43749999999910871 0.1082531754729984 0 0.25000000000104189 1 0 0.12500000000052089 1 0 0.18802967116092181 0.89415349436770275 0 0.50046028868828263 0.78376912307435687 0 0.62844955668446423 0.7850749770380413 0 0.56327595140699671 0.89211526915426331 0 0.37776173212361452 0.78514649317305008 0 0.31258827852827581 0.89214793616708443 0 0.23533274979922561 0.77093399389351469 0 0.62499999999901068 0 0 0.74999999999934042 0 0 0.68749999999926592 0.1082531754732875 0 1 0.74999999999934042 0 1 0.87499999999967015 0 0.89051480781310632 0.79665793440246835 0 0 0.25000000000104189 0 0 0.12500000000052089 0 0.12076953676380731 0.18690935762408761 0 0.74999999999934042 0 0 0.87499999999967015 0 0 0.81249999999950517 0.1082531754733404 0 0.24999999999941069 0 0 0.37499999999904599 0 0 0.31281086598417152 0.10449318608631281 0 0.50046028868828263 0.78376912307435687 0 0.37776173212361452 0.78514649317305008 0 0.44078402250377968 0.67714785211715212 0 0.68768773896438518 0.4586835206367198 0 0.75000000000032374 0.56698729811007709 0 0.62752533658682441 0.56838075195614346 0 0.31411863959822661 0.24965544328045999 0 0.37953773393552892 0.34812185820708452 0 0.24418615484441761 0.35773612382016978 0 0.68768773896438518 0.4586835206367198 0 0.81242894672211508 0.45500248311961472 0 0.75000000000032374 0.56698729811007709 0 1 0.24999999999941069 0 1 0.37499999999904599 0 0.88173731489851925 0.33077402607778361 0 0 0.75000000000034761 0 0 0.62500000000121547 0 0.1082531754723032 0.6875000000007816 0 0.50048844149666749 0.56727788297625459 0 0.44078402250377968 0.67714785211715212 0 0.38694285807596462 0.5672991787102919 0 0.50108503093851109 0.35012252869403671 0 0.44301038174930041 0.45684931552185398 0 0.37953773393552892 0.34812185820708452 0 0.50046028868828263 0.78376912307435687 0 0.56496004948275869 0.67675037307860475 0 0.62844955668446423 0.7850749770380413 0 0.68768773896438518 0.4586835206367198 0 0.75000000000057243 0.35048094716480432 0 0.81242894672211508 0.45500248311961472 0 0.56349980387502452 0.45846841892908402 0 0.62512662990940393 0.35044303886909911 0 0.68768773896438518 0.4586835206367198 0 0.50048844149666749 0.56727788297625459 0 0.38694285807596462 0.5672991787102919 0 0.44301038174930041 0.45684931552185398 0 0.50046028868828263 0.78376912307435687 0 0.44078402250377968 0.67714785211715212 0 0.56496004948275869 0.67675037307860475 0 0.50108503093851109 0.35012252869403671 0 0.37953773393552892 0.34812185820708452 0 0.43750000000200551 0.24222777169198509 0 0.75000000000034761 1 0 0.62500000000121547 1 0 0.69010814643829166 0.89298495739101336 0 0.68768773896438518 0.4586835206367198 0 0.62512662990940393 0.35044303886909911 0 0.75000000000057243 0.35048094716480432 0 0.56496004948275869 0.67675037307860475 0 0.44078402250377968 0.67714785211715212 0 0.50048844149666749 0.56727788297625459 0 0.56349980387502452 0.45846841892908402 0 0.44301038174930041 0.45684931552185398 0 0.50108503093851109 0.35012252869403671 0 0.50048844149666749 0.56727788297625459 0 0.44301038174930041 0.45684931552185398 0 0.56349980387502452 0.45846841892908402 0 0.56349980387502452 0.45846841892908402 0 0.50108503093851109 0.35012252869403671 0 0.62512662990940393 0.35044303886909911 0 0.43750000000200551 0.24222777169198509 0 0.37953773393552892 0.34812185820708452 0 0.31411863959822661 0.24965544328045999 0 0.56496004948275869 0.67675037307860475 0 0.50048844149666749 0.56727788297625459 0 0.62752533658682441 0.56838075195614346 0 0.56349980387502452 0.45846841892908402 0 0.68768773896438518 0.4586835206367198 0 0.62752533658682441 0.56838075195614346 0 0.50048844149666749 0.56727788297625459 0 0.56349980387502452 0.45846841892908402 0 0.62752533658682441 0.56838075195614346 0 0.75000000000057243 0.35048094716480432 0 0.62512662990940393 0.35044303886909911 0 0.68668231842078242 0.24762892664808989 0 0.50108503093851109 0.35012252869403671 0 0.43750000000200551 0.24222777169198509 0 0.56250000000143974 0.2422277716920859 0 0.62512662990940393 0.35044303886909911 0 0.50108503093851109 0.35012252869403671 0 0.56250000000143974 0.2422277716920859 0 0.68668231842078242 0.24762892664808989 0 0.62512662990940393 0.35044303886909911 0 0.56250000000143974 0.2422277716920859 0 0.22257735880419699 0.47344721641341742 0 0.24418615484441761 0.35773612382016978 0 0.32815957677880009 0.4577243358118348 0 0.12076953676380731 0.18690935762408761 0 0.19185372118111221 0.092925648673580788 0 0.25103557339309318 0.17464499738446629 0 0.20767261601459541 0.25628918442207171 0 0.12076953676380731 0.18690935762408761 0 0.25103557339309318 0.17464499738446629 0 0 0.87499999999950151 0 0 0.75000000000034761 0 0.10409951422139101 0.81206782209691231 0 0.1249999999997731 0 0 0.24999999999941069 0 0 0.19185372118111221 0.092925648673580788 0 1 0.1249999999997731 0 1 0.24999999999941069 0 0.89658421694297741 0.1933620068391701 0 0.88927506082488361 0.56409486310635837 0 0.81242894672211508 0.45500248311961472 0 0.915464298762109 0.43749999999886913 0 0.87499999999950151 1 0 0.75000000000034761 1 0 0.80886664387416207 0.89717308644237903 0 0.75000000000034761 1 0 0.69010814643829166 0.89298495739101336 0 0.80886664387416207 0.89717308644237903 0 0.82212678063041267 0.67678595194836966 0 0.88927506082488361 0.56409486310635837 0 0.92266244547590082 0.68749999999917555 0 0 0.75000000000034761 0 0.1082531754723032 0.6875000000007816 0 0.10409951422139101 0.81206782209691231 0 0.24999999999941069 0 0 0.31281086598417152 0.10449318608631281 0 0.19185372118111221 0.092925648673580788 0 1 0.24999999999941069 0 0.88173731489851925 0.33077402607778361 0 0.89658421694297741 0.1933620068391701 0 0.32815957677880009 0.4577243358118348 0 0.38694285807596462 0.5672991787102919 0 0.26982811998763367 0.56544650815856912 0 0.76243180583607129 0.78687675331113149 0 0.89051480781310632 0.79665793440246835 0 0.80886664387416207 0.89717308644237903 0 0.38694285807596462 0.5672991787102919 0 0.44078402250377968 0.67714785211715212 0 0.32607333794064219 0.67760114260606152 0 0.37776173212361452 0.78514649317305008 0 0.23533274979922561 0.77093399389351469 0 0.32607333794064219 0.67760114260606152 0 1 0.49999999999869221 0 0.88927506082488361 0.56409486310635837 0 0.915464298762109 0.43749999999886913 0 0.88173731489851925 0.33077402607778361 0 1 0.37499999999904599 0 0.915464298762109 0.43749999999886913 0 0.24418615484441761 0.35773612382016978 0 0.37953773393552892 0.34812185820708452 0 0.32815957677880009 0.4577243358118348 0 0.44301038174930041 0.45684931552185398 0 0.38694285807596462 0.5672991787102919 0 0.32815957677880009 0.4577243358118348 0 0.88927506082488361 0.56409486310635837 0 1 0.62499999999901068 0 0.92266244547590082 0.68749999999917555 0 1 0.74999999999934042 0 0.89051480781310632 0.79665793440246835 0 0.92266244547590082 0.68749999999917555 0 0 1 0 0 0.87499999999950151 0 0.091506350946494744 0.90849364905351082 0 1 1 0 0.87499999999950151 1 0 0.90849364905363228 0.90849364905367769 0 0 0 0 0.1249999999997731 0 0 0.091506350946417708 0.091506350946618076 0 0 0.12500000000052089 0 0 0 0 0.091506350946417708 0.091506350946618076 0 1 0 0 1 0.1249999999997731 0 0.90849364905355434 0.091506350946296292 0 0.87499999999967015 0 0 1 0 0 0.90849364905355434 0.091506350946296292 0 0.12500000000052089 1 0 0 1 0 0.091506350946494744 0.90849364905351082 0 1 0.87499999999967015 0 1 1 0 0.90849364905363228 0.90849364905367769 0 0.38694285807596462 0.5672991787102919 0 0.32607333794064219 0.67760114260606152 0 0.26982811998763367 0.56544650815856912 0 0.31411863959822661 0.24965544328045999 0 0.24418615484441761 0.35773612382016978 0 0.20767261601459541 0.25628918442207171 0 0.1082531754734323 0.31250000000117473 0 0.12076953676380731 0.18690935762408761 0 0.20767261601459541 0.25628918442207171 0 0.75000000000057243 0.35048094716480432 0 0.68668231842078242 0.24762892664808989 0 0.79891106056046712 0.25007334953587562 0 0.22257735880419699 0.47344721641341742 0 0.32815957677880009 0.4577243358118348 0 0.26982811998763367 0.56544650815856912 0 0.44078402250377968 0.67714785211715212 0 0.37776173212361452 0.78514649317305008 0 0.32607333794064219 0.67760114260606152 0 0.89658421694297741 0.1933620068391701 0 0.88173731489851925 0.33077402607778361 0 0.79891106056046712 0.25007334953587562 0 1 0.37499999999904599 0 1 0.49999999999869221 0 0.915464298762109 0.43749999999886913 0 0.37953773393552892 0.34812185820708452 0 0.44301038174930041 0.45684931552185398 0 0.32815957677880009 0.4577243358118348 0 0.32607333794064219 0.67760114260606152 0 0.21809253452218619 0.65480892822618109 0 0.26982811998763367 0.56544650815856912 0 1 0.1249999999997731 0 0.89658421694297741 0.1933620068391701 0 0.90849364905355434 0.091506350946296292 0 0 0.87499999999950151 0 0.10409951422139101 0.81206782209691231 0 0.091506350946494744 0.90849364905351082 0 0.1249999999997731 0 0 0.19185372118111221 0.092925648673580788 0 0.091506350946417708 0.091506350946618076 0 1 0.62499999999901068 0 1 0.74999999999934042 0 0.92266244547590082 0.68749999999917555 0 0.18802967116092181 0.89415349436770275 0 0.12500000000052089 1 0 0.091506350946494744 0.90849364905351082 0 0.89051480781310632 0.79665793440246835 0 1 0.87499999999967015 0 0.90849364905363228 0.90849364905367769 0 0.12076953676380731 0.18690935762408761 0 0 0.12500000000052089 0 0.091506350946417708 0.091506350946618076 0 0.81249999999950517 0.1082531754733404 0 0.87499999999967015 0 0 0.90849364905355434 0.091506350946296292 0 0.87499999999950151 1 0 0.80886664387416207 0.89717308644237903 0 0.90849364905363228 0.90849364905367769 0 0.68668231842078242 0.24762892664808989 0 0.62499999999892575 0.17524047358135519 0 0.73983916756365475 0.17530677078674589 0 0.31281086598417152 0.10449318608631281 0 0.43749999999910871 0.1082531754729984 0 0.37500000000232431 0.17524047358384309 0 0.62499999999892575 0.17524047358135519 0 0.56250000000143974 0.2422277716920859 0 0.49999999999934441 0.1752404735815076 0 0.56249999999885147 0.1082531754730395 0 0.68749999999926592 0.1082531754732875 0 0.62499999999892575 0.17524047358135519 0 0.56249999999885147 0.1082531754730395 0 0.62499999999892575 0.17524047358135519 0 0.49999999999934441 0.1752404735815076 0 0.56250000000143974 0.2422277716920859 0 0.43750000000200551 0.24222777169198509 0 0.49999999999934441 0.1752404735815076 0 0.43749999999910871 0.1082531754729984 0 0.56249999999885147 0.1082531754730395 0 0.49999999999934441 0.1752404735815076 0 0.68668231842078242 0.24762892664808989 0 0.56250000000143974 0.2422277716920859 0 0.62499999999892575 0.17524047358135519 0 0.43750000000200551 0.24222777169198509 0 0.31411863959822661 0.24965544328045999 0 0.37500000000232431 0.17524047358384309 0 0.49999999999934441 0.1752404735815076 0 0.43750000000200551 0.24222777169198509 0 0.37500000000232431 0.17524047358384309 0 0.43749999999910871 0.1082531754729984 0 0.49999999999934441 0.1752404735815076 0 0.37500000000232431 0.17524047358384309 0 0.62499999999892575 0.17524047358135519 0 0.68749999999926592 0.1082531754732875 0 0.73983916756365475 0.17530677078674589 0 0.68749999999926592 0.1082531754732875 0 0.81249999999950517 0.1082531754733404 0 0.73983916756365475 0.17530677078674589 0 0.10409951422139101 0.81206782209691231 0 0.18802967116092181 0.89415349436770275 0 0.091506350946494744 0.90849364905351082 0 0.89658421694297741 0.1933620068391701 0 0.81249999999950517 0.1082531754733404 0 0.90849364905355434 0.091506350946296292 0 0.19185372118111221 0.092925648673580788 0 0.12076953676380731 0.18690935762408761 0 0.091506350946417708 0.091506350946618076 0 0.37500000000232431 0.17524047358384309 0 0.31411863959822661 0.24965544328045999 0 0.25103557339309318 0.17464499738446629 0 0.31281086598417152 0.10449318608631281 0 0.37500000000232431 0.17524047358384309 0 0.25103557339309318 0.17464499738446629 0 0.80886664387416207 0.89717308644237903 0 0.89051480781310632 0.79665793440246835 0 0.90849364905363228 0.90849364905367769 0 0.19185372118111221 0.092925648673580788 0 0.31281086598417152 0.10449318608631281 0 0.25103557339309318 0.17464499738446629 0 0.79891106056046712 0.25007334953587562 0 0.68668231842078242 0.24762892664808989 0 0.73983916756365475 0.17530677078674589 0 0.31411863959822661 0.24965544328045999 0 0.20767261601459541 0.25628918442207171 0 0.25103557339309318 0.17464499738446629 0 

        </DataArray>

      </Points>

      <Cells>

        <DataArray type="Int32" Name="connectivity" format="ascii">

0 1 2 3 4 5 6 7 8 9 10 11 12 13 14 15 16 17 18 19 20 21 22 23 24 25 26 27 28 29 30 31 32 33 34 35 36 37 38 39 40 41 42 43 44 45 46 47 48 49 50 51 52 53 54 55 56 57 58 59 60 61 62 63 64 65 66 67 68 69 70 71 72 73 74 75 76 77 78 79 80 81 82 83 84 85 86 87 88 89 90 91 92 93 94 95 96 97 98 99 100 101 102 103 104 105 106 107 108 109 110 111 112 113 114 115 116 117 118 119 120 121 122 123 124 125 126 127 128 129 130 131 132 133 134 135 136 137 138 139 140 141 142 143 144 145 146 147 148 149 150 151 152 153 154 155 156 157 158 159 160 161 162 163 164 165 166 167 168 169 170 171 172 173 174 175 176 177 178 179 180 181 182 183 184 185 186 187 188 189 190 191 192 193 194 195 196 197 198 199 200 201 202 203 204 205 206 207 208 209 210 211 212 213 214 215 216 217 218 219 220 221 222 223 224 225 226 227 228 229 230 231 232 233 234 235 236 237 238 239 240 241 242 243 244 245 246 247 248 249 250 251 252 253 254 255 256 257 258 259 260 261 262 263 264 265 266 267 268 269 270 271 272 273 274 275 276 277 278 279 280 281 282 283 284 285 286 287 288 289 290 291 292 293 294 295 296 297 298 299 300 301 302 303 304 305 306 307 308 309 310 311 312 313 314 315 316 317 318 319 320 321 322 323 324 325 326 327 328 329 330 331 332 333 334 335 336 337 338 339 340 341 342 343 344 345 346 347 348 349 350 351 352 353 354 355 356 357 358 359 360 361 362 363 364 365 366 367 368 369 370 371 372 373 374 375 376 377 378 379 380 381 382 383 384 385 386 387 388 389 390 391 392 393 394 395 396 397 398 399 400 401 402 403 404 405 406 407 408 409 410 411 412 413 414 415 416 417 418 419 420 421 422 423 424 425 426 427 428 429 430 431 432 433 434 435 436 437 438 439 440 441 442 443 444 445 446 447 448 449 450 451 452 453 454 455 456 457 458 459 460 461 462 463 464 465 466 467 468 469 470 471 472 473 474 475 476 477 478 479 480 481 482 483 484 485 

        </DataArray>

        <DataArray type="Int32" Name="offsets" format="ascii">

3 6 9 12 15 18 21 24 27 30 33 36 39 42 45 48 51 54 57 60 63 66 69 72 75 78 81 84 87 90 93 96 99 102 105 108 111 114 117 120 123 126 129 132 135 138 141 144 147 150 153 156 159 162 165 168 171 174 177 180 183 186 189 192 195 198 201 204 207 210 213 216 219 222 225 228 231 234 237 240 243 246 249 252 255 258 261 264 267 270 273 276 279 282 285 288 291 294 297 300 303 306 309 312 315 318 321 324 327 330 333 336 339 342 345 348 351 354 357 360 363 366 369 372 375 378 381 384 387 390 393 396 399 402 405 408 411 414 417 420 423 426 429 432 435 438 441 444 447 450 453 456 459 462 465 468 471 474 477 480 483 486 

        </DataArray>

        <DataArray type="Int32" Name="types" format="ascii">

5 5 5 5 5 5 5 5 5 5 5 5 5 5 5 5 5 5 5 5 5 5 5 5 5 5 5 5 5 5 5 5 5 5 5 5 5 5 5 5 5 5 5 5 5 5 5 5 5 5 5 5 5 5 5 5 5 5 5 5 5 5 5 5 5 5 5 5 5 5 5 5 5 5 5 5 5 5 5 5 5 5 5 5 5 5 5 5 5 5 5 5 5 5 5 5 5 5 5 5 5 5 5 5 5 5 5 5 5 5 5 5 5 5 5 5 5 5 5 5 5 5 5 5 5 5 5 5 5 5 5 5 5 5 5 5 5 5 5 5 5 5 5 5 5 5 5 5 5 5 5 5 5 5 5 5 5 5 5 5 5 5 

        </DataArray>

      </Cells>

    </Piece>

  </UnstructuredGrid>

</VTKFile>

