<?xml version="1.0"?>

<VTKFile type="UnstructuredGrid" version="0.1">

  <UnstructuredGrid>

    <Piece NumberOfPoints="486" NumberOfCells="162">

      <PointData>

        <DataArray type="Float64" Name="K" format="ascii">

9.52725443328414023e-01
9.52725443328414023e-01
9.52725443328414023e-01
9.62090265447616888e-01
9.62090265447616888e-01
9.62090265447616888e-01
1.01910192423442258e+00
1.01910192423442258e+00
1.01910192423442258e+00
9.73555883719483095e-01
9.73555883719483095e-01
9.73555883719483095e-01
1.02351628063771294e+00
1.02351628063771294e+00
1.02351628063771294e+00
9.80443553420276226e-01
9.80443553420276226e-01
9.80443553420276226e-01
9.98468080208172237e-01
9.98468080208172237e-01
9.98468080208172237e-01
9.56875279919000898e-01
9.56875279919000898e-01
9.56875279919000898e-01
1.02788790550943765e+00
1.02788790550943765e+00
1.02788790550943765e+00
9.33986989608470264e-01
9.33986989608470264e-01
9.33986989608470264e-01
1.01172742096713120e+00
1.01172742096713120e+00
1.01172742096713120e+00
9.87803611431258721e-01
9.87803611431258721e-01
9.87803611431258721e-01
9.58035173887398561e-01
9.58035173887398561e-01
9.58035173887398561e-01
9.56007010114346190e-01
9.56007010114346190e-01
9.56007010114346190e-01
9.75051810208807490e-01
9.75051810208807490e-01
9.75051810208807490e-01
1.00622294829012837e+00
1.00622294829012837e+00
1.00622294829012837e+00
9.75878989762580029e-01
9.75878989762580029e-01
9.75878989762580029e-01
1.01580684073046368e+00
1.01580684073046368e+00
1.01580684073046368e+00
9.57705487883333206e-01
9.57705487883333206e-01
9.57705487883333206e-01
9.97538266357588577e-01
9.97538266357588577e-01
9.97538266357588577e-01
9.96229538576794194e-01
9.96229538576794194e-01
9.96229538576794194e-01
9.79554738469758601e-01
9.79554738469758601e-01
9.79554738469758601e-01
1.01621401056382710e+00
1.01621401056382710e+00
1.01621401056382710e+00
9.94620760513681534e-01
9.94620760513681534e-01
9.94620760513681534e-01
9.65321255970277403e-01
9.65321255970277403e-01
9.65321255970277403e-01
1.02460711599979981e+00
1.02460711599979981e+00
1.02460711599979981e+00
1.03484420443050529e+00
1.03484420443050529e+00
1.03484420443050529e+00
9.92503560616656011e-01
9.92503560616656011e-01
9.92503560616656011e-01
9.74884888220292956e-01
9.74884888220292956e-01
9.74884888220292956e-01
9.82061233568132907e-01
9.82061233568132907e-01
9.82061233568132907e-01
1.00128584136298371e+00
1.00128584136298371e+00
1.00128584136298371e+00
1.08462119917003341e+00
1.08462119917003341e+00
1.08462119917003341e+00
1.07262868101290287e+00
1.07262868101290287e+00
1.07262868101290287e+00
1.00878509802842076e+00
1.00878509802842076e+00
1.00878509802842076e+00
1.06564048142944889e+00
1.06564048142944889e+00
1.06564048142944889e+00
1.03411917332166170e+00
1.03411917332166170e+00
1.03411917332166170e+00
1.00581358258398224e+00
1.00581358258398224e+00
1.00581358258398224e+00
1.05213606527412606e+00
1.05213606527412606e+00
1.05213606527412606e+00
1.06058490239319103e+00
1.06058490239319103e+00
1.06058490239319103e+00
1.05363088849163145e+00
1.05363088849163145e+00
1.05363088849163145e+00
1.07298906032938079e+00
1.07298906032938079e+00
1.07298906032938079e+00
9.97255877649447564e-01
9.97255877649447564e-01
9.97255877649447564e-01
9.67366562782173811e-01
9.67366562782173811e-01
9.67366562782173811e-01
1.00796024750806068e+00
1.00796024750806068e+00
1.00796024750806068e+00
1.00843465119418929e+00
1.00843465119418929e+00
1.00843465119418929e+00
1.07153676925708430e+00
1.07153676925708430e+00
1.07153676925708430e+00
1.06081491060874633e+00
1.06081491060874633e+00
1.06081491060874633e+00
1.00906175272277876e+00
1.00906175272277876e+00
1.00906175272277876e+00
1.07895874322420493e+00
1.07895874322420493e+00
1.07895874322420493e+00
1.01383321347980271e+00
1.01383321347980271e+00
1.01383321347980271e+00
1.01082738276864958e+00
1.01082738276864958e+00
1.01082738276864958e+00
1.06736915017477063e+00
1.06736915017477063e+00
1.06736915017477063e+00
1.01715524974725668e+00
1.01715524974725668e+00
1.01715524974725668e+00
1.01690864801326608e+00
1.01690864801326608e+00
1.01690864801326608e+00
1.03389718786099705e+00
1.03389718786099705e+00
1.03389718786099705e+00
1.04835015261592002e+00
1.04835015261592002e+00
1.04835015261592002e+00
1.06339255050370096e+00
1.06339255050370096e+00
1.06339255050370096e+00
9.94926928808397060e-01
9.94926928808397060e-01
9.94926928808397060e-01
9.32809172806722153e-01
9.32809172806722153e-01
9.32809172806722153e-01
1.02170072918869481e+00
1.02170072918869481e+00
1.02170072918869481e+00
1.01757947015241612e+00
1.01757947015241612e+00
1.01757947015241612e+00
9.89056819340893956e-01
9.89056819340893956e-01
9.89056819340893956e-01
1.07197337485287658e+00
1.07197337485287658e+00
1.07197337485287658e+00
9.54648954063868072e-01
9.54648954063868072e-01
9.54648954063868072e-01
1.01930723974276694e+00
1.01930723974276694e+00
1.01930723974276694e+00
9.50481601490210992e-01
9.50481601490210992e-01
9.50481601490210992e-01
1.02487941932550397e+00
1.02487941932550397e+00
1.02487941932550397e+00
9.69860941136394983e-01
9.69860941136394983e-01
9.69860941136394983e-01
1.03289686650180323e+00
1.03289686650180323e+00
1.03289686650180323e+00
9.74878598820887343e-01
9.74878598820887343e-01
9.74878598820887343e-01
1.02437089667505887e+00
1.02437089667505887e+00
1.02437089667505887e+00
9.66632112952239275e-01
9.66632112952239275e-01
9.66632112952239275e-01
9.97099962803317252e-01
9.97099962803317252e-01
9.97099962803317252e-01
1.00747333254758709e+00
1.00747333254758709e+00
1.00747333254758709e+00
1.04223886919271780e+00
1.04223886919271780e+00
1.04223886919271780e+00
9.76510824769614261e-01
9.76510824769614261e-01
9.76510824769614261e-01
1.02811148325663493e+00
1.02811148325663493e+00
1.02811148325663493e+00
9.96234843460424457e-01
9.96234843460424457e-01
9.96234843460424457e-01
1.02936521656666669e+00
1.02936521656666669e+00
1.02936521656666669e+00
9.87620676586536295e-01
9.87620676586536295e-01
9.87620676586536295e-01
1.00151522628699619e+00
1.00151522628699619e+00
1.00151522628699619e+00
9.97114288318276532e-01
9.97114288318276532e-01
9.97114288318276532e-01
1.00319473663882519e+00
1.00319473663882519e+00
1.00319473663882519e+00
9.96479673278366174e-01
9.96479673278366174e-01
9.96479673278366174e-01
9.79882237402853185e-01
9.79882237402853185e-01
9.79882237402853185e-01
9.95770310642423051e-01
9.95770310642423051e-01
9.95770310642423051e-01
1.01972766307803853e+00
1.01972766307803853e+00
1.01972766307803853e+00
9.74928584185932201e-01
9.74928584185932201e-01
9.74928584185932201e-01
9.93168343346125471e-01
9.93168343346125471e-01
9.93168343346125471e-01
1.01526244174192382e+00
1.01526244174192382e+00
1.01526244174192382e+00
1.01176686372610658e+00
1.01176686372610658e+00
1.01176686372610658e+00
9.88377926304600529e-01
9.88377926304600529e-01
9.88377926304600529e-01
9.97038432454144141e-01
9.97038432454144141e-01
9.97038432454144141e-01
9.37008230433609146e-01
9.37008230433609146e-01
9.37008230433609146e-01
9.86566568119570220e-01
9.86566568119570220e-01
9.86566568119570220e-01
1.01718673920889580e+00
1.01718673920889580e+00
1.01718673920889580e+00
9.72607731598013836e-01
9.72607731598013836e-01
9.72607731598013836e-01
9.75266335324255995e-01
9.75266335324255995e-01
9.75266335324255995e-01
1.00005065065306287e+00
1.00005065065306287e+00
1.00005065065306287e+00
9.47228587035883418e-01
9.47228587035883418e-01
9.47228587035883418e-01
9.49923314628823068e-01
9.49923314628823068e-01
9.49923314628823068e-01
9.83641511020190595e-01
9.83641511020190595e-01
9.83641511020190595e-01
1.01218989933034731e+00
1.01218989933034731e+00
1.01218989933034731e+00
9.87909021850080671e-01
9.87909021850080671e-01
9.87909021850080671e-01
9.58965427747601962e-01
9.58965427747601962e-01
9.58965427747601962e-01
1.03758726788378808e+00
1.03758726788378808e+00
1.03758726788378808e+00
1.04342131442692376e+00
1.04342131442692376e+00
1.04342131442692376e+00
9.86728498937428533e-01
9.86728498937428533e-01
9.86728498937428533e-01
1.00983234147179979e+00
1.00983234147179979e+00
1.00983234147179979e+00
1.00545412129579104e+00
1.00545412129579104e+00
1.00545412129579104e+00
9.88479831033522993e-01
9.88479831033522993e-01
9.88479831033522993e-01
9.43862325689017068e-01
9.43862325689017068e-01
9.43862325689017068e-01
9.20906086714629368e-01
9.20906086714629368e-01
9.20906086714629368e-01
9.37090170272837697e-01
9.37090170272837697e-01
9.37090170272837697e-01
9.78086946224274723e-01
9.78086946224274723e-01
9.78086946224274723e-01
9.99824761702205689e-01
9.99824761702205689e-01
9.99824761702205689e-01
1.01016376861092327e+00
1.01016376861092327e+00
1.01016376861092327e+00
1.00909426897791743e+00
1.00909426897791743e+00
1.00909426897791743e+00
1.01699629065497033e+00
1.01699629065497033e+00
1.01699629065497033e+00
9.69050578343108482e-01
9.69050578343108482e-01
9.69050578343108482e-01
9.71963400128233679e-01
9.71963400128233679e-01
9.71963400128233679e-01
1.00071949317097619e+00
1.00071949317097619e+00
1.00071949317097619e+00
1.02493177025225046e+00
1.02493177025225046e+00
1.02493177025225046e+00
9.99852003643099341e-01
9.99852003643099341e-01
9.99852003643099341e-01
1.02010914629527827e+00
1.02010914629527827e+00
1.02010914629527827e+00
9.93248143669444250e-01
9.93248143669444250e-01
9.93248143669444250e-01
1.06419914267707272e+00
1.06419914267707272e+00
1.06419914267707272e+00
1.00463628146897732e+00
1.00463628146897732e+00
1.00463628146897732e+00
1.01387436492702476e+00
1.01387436492702476e+00
1.01387436492702476e+00
9.81965037219669767e-01
9.81965037219669767e-01
9.81965037219669767e-01
9.84449248306591307e-01
9.84449248306591307e-01
9.84449248306591307e-01
1.01465544843811228e+00
1.01465544843811228e+00
1.01465544843811228e+00
9.36707065463530553e-01
9.36707065463530553e-01
9.36707065463530553e-01
9.94670778419216361e-01
9.94670778419216361e-01
9.94670778419216361e-01
9.31210352387621065e-01
9.31210352387621065e-01
9.31210352387621065e-01
9.91284355539025941e-01
9.91284355539025941e-01
9.91284355539025941e-01
9.38190523019187816e-01
9.38190523019187816e-01
9.38190523019187816e-01
1.01236790421635536e+00
1.01236790421635536e+00
1.01236790421635536e+00
1.02628596134452965e+00
1.02628596134452965e+00
1.02628596134452965e+00
9.59604200213044822e-01
9.59604200213044822e-01
9.59604200213044822e-01
1.02976719137127093e+00
1.02976719137127093e+00
1.02976719137127093e+00
1.01472249416909666e+00
1.01472249416909666e+00
1.01472249416909666e+00
9.88326043469024196e-01
9.88326043469024196e-01
9.88326043469024196e-01
1.00148276490270183e+00
1.00148276490270183e+00
1.00148276490270183e+00
9.90369497268744570e-01
9.90369497268744570e-01
9.90369497268744570e-01
9.80099605959409481e-01
9.80099605959409481e-01
9.80099605959409481e-01
9.97453343260148007e-01
9.97453343260148007e-01
9.97453343260148007e-01
1.01189754504667717e+00
1.01189754504667717e+00
1.01189754504667717e+00
1.01226550154526196e+00
1.01226550154526196e+00
1.01226550154526196e+00
9.97177265701138849e-01
9.97177265701138849e-01
9.97177265701138849e-01
1.00571986213022213e+00
1.00571986213022213e+00
1.00571986213022213e+00
1.02285102422261587e+00
1.02285102422261587e+00
1.02285102422261587e+00
1.03193614637673492e+00
1.03193614637673492e+00
1.03193614637673492e+00
9.62476911700305138e-01
9.62476911700305138e-01
9.62476911700305138e-01
1.02456720649046695e+00
1.02456720649046695e+00
1.02456720649046695e+00
9.94052588599914189e-01
9.94052588599914189e-01
9.94052588599914189e-01
1.01923666032656501e+00
1.01923666032656501e+00
1.01923666032656501e+00
1.01124788047385517e+00
1.01124788047385517e+00
1.01124788047385517e+00
9.41168332698842036e-01
9.41168332698842036e-01
9.41168332698842036e-01
9.91797556073706565e-01
9.91797556073706565e-01
9.91797556073706565e-01
1.03438590700935773e+00
1.03438590700935773e+00
1.03438590700935773e+00
1.01577349415298324e+00
1.01577349415298324e+00
1.01577349415298324e+00


        </DataArray>

      </PointData>

      <CellData/>

      <Points>

        <DataArray type="Float64" NumberOfComponents="3" format="ascii">

0.1082531754723032 0.6875000000007816 0 0.23533274979922561 0.77093399389351469 0 0.10409951422139101 0.81206782209691231 0 0.23533274979922561 0.77093399389351469 0 0.1082531754723032 0.6875000000007816 0 0.21809253452218619 0.65480892822618109 0 0.24418615484441761 0.35773612382016978 0 0.121259140952891 0.43112117036853742 0 0.1082531754734323 0.31250000000117473 0 0.75000000000057243 0.35048094716480432 0 0.88173731489851925 0.33077402607778361 0 0.81242894672211508 0.45500248311961472 0 0.121259140952891 0.43112117036853742 0 0.24418615484441761 0.35773612382016978 0 0.22257735880419699 0.47344721641341742 0 0.81242894672211508 0.45500248311961472 0 0.88173731489851925 0.33077402607778361 0 0.915464298762109 0.43749999999886913 0 0 0.62500000000121547 0 0 0.50000000000206146 0 0.1371230538040123 0.56179824718362847 0 0.82212678063041267 0.67678595194836966 0 0.89051480781310632 0.79665793440246835 0 0.76243180583607129 0.78687675331113149 0 0.76243180583607129 0.78687675331113149 0 0.69010814643829166 0.89298495739101336 0 0.62844955668446423 0.7850749770380413 0 0.89051480781310632 0.79665793440246835 0 0.82212678063041267 0.67678595194836966 0 0.92266244547590082 0.68749999999917555 0 0 0.50000000000206146 0 0.121259140952891 0.43112117036853742 0 0.1371230538040123 0.56179824718362847 0 0.1082531754723032 0.6875000000007816 0 0 0.62500000000121547 0 0.1371230538040123 0.56179824718362847 0 0.75000000000032374 0.56698729811007709 0 0.88927506082488361 0.56409486310635837 0 0.82212678063041267 0.67678595194836966 0 0.81242894672211508 0.45500248311961472 0 0.88927506082488361 0.56409486310635837 0 0.75000000000032374 0.56698729811007709 0 0.69851598570178741 0.68211701800612057 0 0.56496004948275869 0.67675037307860475 0 0.62752533658682441 0.56838075195614346 0 0.69851598570178741 0.68211701800612057 0 0.76243180583607129 0.78687675331113149 0 0.62844955668446423 0.7850749770380413 0 0.23533274979922561 0.77093399389351469 0 0.18802967116092181 0.89415349436770275 0 0.10409951422139101 0.81206782209691231 0 0.121259140952891 0.43112117036853742 0 0.22257735880419699 0.47344721641341742 0 0.1371230538040123 0.56179824718362847 0 0.75000000000032374 0.56698729811007709 0 0.69851598570178741 0.68211701800612057 0 0.62752533658682441 0.56838075195614346 0 0.56496004948275869 0.67675037307860475 0 0.69851598570178741 0.68211701800612057 0 0.62844955668446423 0.7850749770380413 0 0.1371230538040123 0.56179824718362847 0 0.22257735880419699 0.47344721641341742 0 0.26982811998763367 0.56544650815856912 0 0.21809253452218619 0.65480892822618109 0 0.1371230538040123 0.56179824718362847 0 0.26982811998763367 0.56544650815856912 0 0.24418615484441761 0.35773612382016978 0 0.1082531754734323 0.31250000000117473 0 0.20767261601459541 0.25628918442207171 0 0.88173731489851925 0.33077402607778361 0 0.75000000000057243 0.35048094716480432 0 0.79891106056046712 0.25007334953587562 0 0.75000000000032374 0.56698729811007709 0 0.82212678063041267 0.67678595194836966 0 0.69851598570178741 0.68211701800612057 0 0.81249999999950517 0.1082531754733404 0 0.89658421694297741 0.1933620068391701 0 0.79891106056046712 0.25007334953587562 0 0.81249999999950517 0.1082531754733404 0 0.79891106056046712 0.25007334953587562 0 0.73983916756365475 0.17530677078674589 0 0.23533274979922561 0.77093399389351469 0 0.21809253452218619 0.65480892822618109 0 0.32607333794064219 0.67760114260606152 0 0.1082531754723032 0.6875000000007816 0 0.1371230538040123 0.56179824718362847 0 0.21809253452218619 0.65480892822618109 0 0.69851598570178741 0.68211701800612057 0 0.82212678063041267 0.67678595194836966 0 0.76243180583607129 0.78687675331113149 0 0.69010814643829166 0.89298495739101336 0 0.76243180583607129 0.78687675331113149 0 0.80886664387416207 0.89717308644237903 0 0.43750000000181222 0.89174682452709564 0 0.31258827852827581 0.89214793616708443 0 0.37776173212361452 0.78514649317305008 0 0.43750000000181222 0.89174682452709564 0 0.37500000000156292 1 0 0.31258827852827581 0.89214793616708443 0 0.121259140952891 0.43112117036853742 0 0 0.37500000000156292 0 0.1082531754734323 0.31250000000117473 0 0.50000000000206146 1 0 0.37500000000156292 1 0 0.43750000000181222 0.89174682452709564 0 0.31258827852827581 0.89214793616708443 0 0.18802967116092181 0.89415349436770275 0 0.23533274979922561 0.77093399389351469 0 0 0.50000000000206146 0 0 0.37500000000156292 0 0.121259140952891 0.43112117036853742 0 0.62844955668446423 0.7850749770380413 0 0.69010814643829166 0.89298495739101336 0 0.56327595140699671 0.89211526915426331 0 0.69010814643829166 0.89298495739101336 0 0.62500000000121547 1 0 0.56327595140699671 0.89211526915426331 0 0.25000000000104189 1 0 0.18802967116092181 0.89415349436770275 0 0.31258827852827581 0.89214793616708443 0 0.50000000000206146 1 0 0.43750000000181222 0.89174682452709564 0 0.56327595140699671 0.89211526915426331 0 0.56249999999885147 0.1082531754730395 0 0.62499999999901068 0 0 0.68749999999926592 0.1082531754732875 0 1 0.49999999999869221 0 1 0.62499999999901068 0 0.88927506082488361 0.56409486310635837 0 0 0.25000000000104189 0 0.12076953676380731 0.18690935762408761 0 0.1082531754734323 0.31250000000117473 0 0.49999999999869221 0 0 0.62499999999901068 0 0 0.56249999999885147 0.1082531754730395 0 0.62500000000121547 1 0 0.50000000000206146 1 0 0.56327595140699671 0.89211526915426331 0 0.37500000000156292 1 0 0.25000000000104189 1 0 0.31258827852827581 0.89214793616708443 0 0.31281086598417152 0.10449318608631281 0 0.37499999999904599 0 0 0.43749999999910871 0.1082531754729984 0 0.43750000000181222 0.89174682452709564 0 0.37776173212361452 0.78514649317305008 0 0.50046028868828263 0.78376912307435687 0 0 0.37500000000156292 0 0 0.25000000000104189 0 0.1082531754734323 0.31250000000117473 0 0.49999999999869221 0 0 0.56249999999885147 0.1082531754730395 0 0.43749999999910871 0.1082531754729984 0 0.43750000000181222 0.89174682452709564 0 0.50046028868828263 0.78376912307435687 0 0.56327595140699671 0.89211526915426331 0 0.74999999999934042 0 0 0.81249999999950517 0.1082531754733404 0 0.68749999999926592 0.1082531754732875 0 0.37499999999904599 0 0 0.49999999999869221 0 0 0.43749999999910871 0.1082531754729984 0 0.25000000000104189 1 0 0.12500000000052089 1 0 0.18802967116092181 0.89415349436770275 0 0.50046028868828263 0.78376912307435687 0 0.62844955668446423 0.7850749770380413 0 0.56327595140699671 0.89211526915426331 0 0.37776173212361452 0.78514649317305008 0 0.31258827852827581 0.89214793616708443 0 0.23533274979922561 0.77093399389351469 0 0.62499999999901068 0 0 0.74999999999934042 0 0 0.68749999999926592 0.1082531754732875 0 1 0.74999999999934042 0 1 0.87499999999967015 0 0.89051480781310632 0.79665793440246835 0 0 0.25000000000104189 0 0 0.12500000000052089 0 0.12076953676380731 0.18690935762408761 0 0.74999999999934042 0 0 0.87499999999967015 0 0 0.81249999999950517 0.1082531754733404 0 0.24999999999941069 0 0 0.37499999999904599 0 0 0.31281086598417152 0.10449318608631281 0 0.50046028868828263 0.78376912307435687 0 0.37776173212361452 0.78514649317305008 0 0.44078402250377968 0.67714785211715212 0 0.68768773896438518 0.4586835206367198 0 0.75000000000032374 0.56698729811007709 0 0.62752533658682441 0.56838075195614346 0 0.31411863959822661 0.24965544328045999 0 0.37953773393552892 0.34812185820708452 0 0.24418615484441761 0.35773612382016978 0 0.68768773896438518 0.4586835206367198 0 0.81242894672211508 0.45500248311961472 0 0.75000000000032374 0.56698729811007709 0 1 0.24999999999941069 0 1 0.37499999999904599 0 0.88173731489851925 0.33077402607778361 0 0 0.75000000000034761 0 0 0.62500000000121547 0 0.1082531754723032 0.6875000000007816 0 0.50048844149666749 0.56727788297625459 0 0.44078402250377968 0.67714785211715212 0 0.38694285807596462 0.5672991787102919 0 0.50108503093851109 0.35012252869403671 0 0.44301038174930041 0.45684931552185398 0 0.37953773393552892 0.34812185820708452 0 0.50046028868828263 0.78376912307435687 0 0.56496004948275869 0.67675037307860475 0 0.62844955668446423 0.7850749770380413 0 0.68768773896438518 0.4586835206367198 0 0.75000000000057243 0.35048094716480432 0 0.81242894672211508 0.45500248311961472 0 0.56349980387502452 0.45846841892908402 0 0.62512662990940393 0.35044303886909911 0 0.68768773896438518 0.4586835206367198 0 0.50048844149666749 0.56727788297625459 0 0.38694285807596462 0.5672991787102919 0 0.44301038174930041 0.45684931552185398 0 0.50046028868828263 0.78376912307435687 0 0.44078402250377968 0.67714785211715212 0 0.56496004948275869 0.67675037307860475 0 0.50108503093851109 0.35012252869403671 0 0.37953773393552892 0.34812185820708452 0 0.43750000000200551 0.24222777169198509 0 0.75000000000034761 1 0 0.62500000000121547 1 0 0.69010814643829166 0.89298495739101336 0 0.68768773896438518 0.4586835206367198 0 0.62512662990940393 0.35044303886909911 0 0.75000000000057243 0.35048094716480432 0 0.56496004948275869 0.67675037307860475 0 0.44078402250377968 0.67714785211715212 0 0.50048844149666749 0.56727788297625459 0 0.56349980387502452 0.45846841892908402 0 0.44301038174930041 0.45684931552185398 0 0.50108503093851109 0.35012252869403671 0 0.50048844149666749 0.56727788297625459 0 0.44301038174930041 0.45684931552185398 0 0.56349980387502452 0.45846841892908402 0 0.56349980387502452 0.45846841892908402 0 0.50108503093851109 0.35012252869403671 0 0.62512662990940393 0.35044303886909911 0 0.43750000000200551 0.24222777169198509 0 0.37953773393552892 0.34812185820708452 0 0.31411863959822661 0.24965544328045999 0 0.56496004948275869 0.67675037307860475 0 0.50048844149666749 0.56727788297625459 0 0.62752533658682441 0.56838075195614346 0 0.56349980387502452 0.45846841892908402 0 0.68768773896438518 0.4586835206367198 0 0.62752533658682441 0.56838075195614346 0 0.50048844149666749 0.56727788297625459 0 0.56349980387502452 0.45846841892908402 0 0.62752533658682441 0.56838075195614346 0 0.75000000000057243 0.35048094716480432 0 0.62512662990940393 0.35044303886909911 0 0.68668231842078242 0.24762892664808989 0 0.50108503093851109 0.35012252869403671 0 0.43750000000200551 0.24222777169198509 0 0.56250000000143974 0.2422277716920859 0 0.62512662990940393 0.35044303886909911 0 0.50108503093851109 0.35012252869403671 0 0.56250000000143974 0.2422277716920859 0 0.68668231842078242 0.24762892664808989 0 0.62512662990940393 0.35044303886909911 0 0.56250000000143974 0.2422277716920859 0 0.22257735880419699 0.47344721641341742 0 0.24418615484441761 0.35773612382016978 0 0.32815957677880009 0.4577243358118348 0 0.12076953676380731 0.18690935762408761 0 0.19185372118111221 0.092925648673580788 0 0.25103557339309318 0.17464499738446629 0 0.20767261601459541 0.25628918442207171 0 0.12076953676380731 0.18690935762408761 0 0.25103557339309318 0.17464499738446629 0 0 0.87499999999950151 0 0 0.75000000000034761 0 0.10409951422139101 0.81206782209691231 0 0.1249999999997731 0 0 0.24999999999941069 0 0 0.19185372118111221 0.092925648673580788 0 1 0.1249999999997731 0 1 0.24999999999941069 0 0.89658421694297741 0.1933620068391701 0 0.88927506082488361 0.56409486310635837 0 0.81242894672211508 0.45500248311961472 0 0.915464298762109 0.43749999999886913 0 0.87499999999950151 1 0 0.75000000000034761 1 0 0.80886664387416207 0.89717308644237903 0 0.75000000000034761 1 0 0.69010814643829166 0.89298495739101336 0 0.80886664387416207 0.89717308644237903 0 0.82212678063041267 0.67678595194836966 0 0.88927506082488361 0.56409486310635837 0 0.92266244547590082 0.68749999999917555 0 0 0.75000000000034761 0 0.1082531754723032 0.6875000000007816 0 0.10409951422139101 0.81206782209691231 0 0.24999999999941069 0 0 0.31281086598417152 0.10449318608631281 0 0.19185372118111221 0.092925648673580788 0 1 0.24999999999941069 0 0.88173731489851925 0.33077402607778361 0 0.89658421694297741 0.1933620068391701 0 0.32815957677880009 0.4577243358118348 0 0.38694285807596462 0.5672991787102919 0 0.26982811998763367 0.56544650815856912 0 0.76243180583607129 0.78687675331113149 0 0.89051480781310632 0.79665793440246835 0 0.80886664387416207 0.89717308644237903 0 0.38694285807596462 0.5672991787102919 0 0.44078402250377968 0.67714785211715212 0 0.32607333794064219 0.67760114260606152 0 0.37776173212361452 0.78514649317305008 0 0.23533274979922561 0.77093399389351469 0 0.32607333794064219 0.67760114260606152 0 1 0.49999999999869221 0 0.88927506082488361 0.56409486310635837 0 0.915464298762109 0.43749999999886913 0 0.88173731489851925 0.33077402607778361 0 1 0.37499999999904599 0 0.915464298762109 0.43749999999886913 0 0.24418615484441761 0.35773612382016978 0 0.37953773393552892 0.34812185820708452 0 0.32815957677880009 0.4577243358118348 0 0.44301038174930041 0.45684931552185398 0 0.38694285807596462 0.5672991787102919 0 0.32815957677880009 0.4577243358118348 0 0.88927506082488361 0.56409486310635837 0 1 0.62499999999901068 0 0.92266244547590082 0.68749999999917555 0 1 0.74999999999934042 0 0.89051480781310632 0.79665793440246835 0 0.92266244547590082 0.68749999999917555 0 0 1 0 0 0.87499999999950151 0 0.091506350946494744 0.90849364905351082 0 1 1 0 0.87499999999950151 1 0 0.90849364905363228 0.90849364905367769 0 0 0 0 0.1249999999997731 0 0 0.091506350946417708 0.091506350946618076 0 0 0.12500000000052089 0 0 0 0 0.091506350946417708 0.091506350946618076 0 1 0 0 1 0.1249999999997731 0 0.90849364905355434 0.091506350946296292 0 0.87499999999967015 0 0 1 0 0 0.90849364905355434 0.091506350946296292 0 0.12500000000052089 1 0 0 1 0 0.091506350946494744 0.90849364905351082 0 1 0.87499999999967015 0 1 1 0 0.90849364905363228 0.90849364905367769 0 0.38694285807596462 0.5672991787102919 0 0.32607333794064219 0.67760114260606152 0 0.26982811998763367 0.56544650815856912 0 0.31411863959822661 0.24965544328045999 0 0.24418615484441761 0.35773612382016978 0 0.20767261601459541 0.25628918442207171 0 0.1082531754734323 0.31250000000117473 0 0.12076953676380731 0.18690935762408761 0 0.20767261601459541 0.25628918442207171 0 0.75000000000057243 0.35048094716480432 0 0.68668231842078242 0.24762892664808989 0 0.79891106056046712 0.25007334953587562 0 0.22257735880419699 0.47344721641341742 0 0.32815957677880009 0.4577243358118348 0 0.26982811998763367 0.56544650815856912 0 0.44078402250377968 0.67714785211715212 0 0.37776173212361452 0.78514649317305008 0 0.32607333794064219 0.67760114260606152 0 0.89658421694297741 0.1933620068391701 0 0.88173731489851925 0.33077402607778361 0 0.79891106056046712 0.25007334953587562 0 1 0.37499999999904599 0 1 0.49999999999869221 0 0.915464298762109 0.43749999999886913 0 0.37953773393552892 0.34812185820708452 0 0.44301038174930041 0.45684931552185398 0 0.32815957677880009 0.4577243358118348 0 0.32607333794064219 0.67760114260606152 0 0.21809253452218619 0.65480892822618109 0 0.26982811998763367 0.56544650815856912 0 1 0.1249999999997731 0 0.89658421694297741 0.1933620068391701 0 0.90849364905355434 0.091506350946296292 0 0 0.87499999999950151 0 0.10409951422139101 0.81206782209691231 0 0.091506350946494744 0.90849364905351082 0 0.1249999999997731 0 0 0.19185372118111221 0.092925648673580788 0 0.091506350946417708 0.091506350946618076 0 1 0.62499999999901068 0 1 0.74999999999934042 0 0.92266244547590082 0.68749999999917555 0 0.18802967116092181 0.89415349436770275 0 0.12500000000052089 1 0 0.091506350946494744 0.90849364905351082 0 0.89051480781310632 0.79665793440246835 0 1 0.87499999999967015 0 0.90849364905363228 0.90849364905367769 0 0.12076953676380731 0.18690935762408761 0 0 0.12500000000052089 0 0.091506350946417708 0.091506350946618076 0 0.81249999999950517 0.1082531754733404 0 0.87499999999967015 0 0 0.90849364905355434 0.091506350946296292 0 0.87499999999950151 1 0 0.80886664387416207 0.89717308644237903 0 0.90849364905363228 0.90849364905367769 0 0.68668231842078242 0.24762892664808989 0 0.62499999999892575 0.17524047358135519 0 0.73983916756365475 0.17530677078674589 0 0.31281086598417152 0.10449318608631281 0 0.43749999999910871 0.1082531754729984 0 0.37500000000232431 0.17524047358384309 0 0.62499999999892575 0.17524047358135519 0 0.56250000000143974 0.2422277716920859 0 0.49999999999934441 0.1752404735815076 0 0.56249999999885147 0.1082531754730395 0 0.68749999999926592 0.1082531754732875 0 0.62499999999892575 0.17524047358135519 0 0.56249999999885147 0.1082531754730395 0 0.62499999999892575 0.17524047358135519 0 0.49999999999934441 0.1752404735815076 0 0.56250000000143974 0.2422277716920859 0 0.43750000000200551 0.24222777169198509 0 0.49999999999934441 0.1752404735815076 0 0.43749999999910871 0.1082531754729984 0 0.56249999999885147 0.1082531754730395 0 0.49999999999934441 0.1752404735815076 0 0.68668231842078242 0.24762892664808989 0 0.56250000000143974 0.2422277716920859 0 0.62499999999892575 0.17524047358135519 0 0.43750000000200551 0.24222777169198509 0 0.31411863959822661 0.24965544328045999 0 0.37500000000232431 0.17524047358384309 0 0.49999999999934441 0.1752404735815076 0 0.43750000000200551 0.24222777169198509 0 0.37500000000232431 0.17524047358384309 0 0.43749999999910871 0.1082531754729984 0 0.49999999999934441 0.1752404735815076 0 0.37500000000232431 0.17524047358384309 0 0.62499999999892575 0.17524047358135519 0 0.68749999999926592 0.1082531754732875 0 0.73983916756365475 0.17530677078674589 0 0.68749999999926592 0.1082531754732875 0 0.81249999999950517 0.1082531754733404 0 0.73983916756365475 0.17530677078674589 0 0.10409951422139101 0.81206782209691231 0 0.18802967116092181 0.89415349436770275 0 0.091506350946494744 0.90849364905351082 0 0.89658421694297741 0.1933620068391701 0 0.81249999999950517 0.1082531754733404 0 0.90849364905355434 0.091506350946296292 0 0.19185372118111221 0.092925648673580788 0 0.12076953676380731 0.18690935762408761 0 0.091506350946417708 0.091506350946618076 0 0.37500000000232431 0.17524047358384309 0 0.31411863959822661 0.24965544328045999 0 0.25103557339309318 0.17464499738446629 0 0.31281086598417152 0.10449318608631281 0 0.37500000000232431 0.17524047358384309 0 0.25103557339309318 0.17464499738446629 0 0.80886664387416207 0.89717308644237903 0 0.89051480781310632 0.79665793440246835 0 0.90849364905363228 0.90849364905367769 0 0.19185372118111221 0.092925648673580788 0 0.31281086598417152 0.10449318608631281 0 0.25103557339309318 0.17464499738446629 0 0.79891106056046712 0.25007334953587562 0 0.68668231842078242 0.24762892664808989 0 0.73983916756365475 0.17530677078674589 0 0.31411863959822661 0.24965544328045999 0 0.20767261601459541 0.25628918442207171 0 0.25103557339309318 0.17464499738446629 0 

        </DataArray>

      </Points>

      <Cells>

        <DataArray type="Int32" Name="connectivity" format="ascii">

0 1 2 3 4 5 6 7 8 9 10 11 12 13 14 15 16 17 18 19 20 21 22 23 24 25 26 27 28 29 30 31 32 33 34 35 36 37 38 39 40 41 42 43 44 45 46 47 48 49 50 51 52 53 54 55 56 57 58 59 60 61 62 63 64 65 66 67 68 69 70 71 72 73 74 75 76 77 78 79 80 81 82 83 84 85 86 87 88 89 90 91 92 93 94 95 96 97 98 99 100 101 102 103 104 105 106 107 108 109 110 111 112 113 114 115 116 117 118 119 120 121 122 123 124 125 126 127 128 129 130 131 132 133 134 135 136 137 138 139 140 141 142 143 144 145 146 147 148 149 150 151 152 153 154 155 156 157 158 159 160 161 162 163 164 165 166 167 168 169 170 171 172 173 174 175 176 177 178 179 180 181 182 183 184 185 186 187 188 189 190 191 192 193 194 195 196 197 198 199 200 201 202 203 204 205 206 207 208 209 210 211 212 213 214 215 216 217 218 219 220 221 222 223 224 225 226 227 228 229 230 231 232 233 234 235 236 237 238 239 240 241 242 243 244 245 246 247 248 249 250 251 252 253 254 255 256 257 258 259 260 261 262 263 264 265 266 267 268 269 270 271 272 273 274 275 276 277 278 279 280 281 282 283 284 285 286 287 288 289 290 291 292 293 294 295 296 297 298 299 300 301 302 303 304 305 306 307 308 309 310 311 312 313 314 315 316 317 318 319 320 321 322 323 324 325 326 327 328 329 330 331 332 333 334 335 336 337 338 339 340 341 342 343 344 345 346 347 348 349 350 351 352 353 354 355 356 357 358 359 360 361 362 363 364 365 366 367 368 369 370 371 372 373 374 375 376 377 378 379 380 381 382 383 384 385 386 387 388 389 390 391 392 393 394 395 396 397 398 399 400 401 402 403 404 405 406 407 408 409 410 411 412 413 414 415 416 417 418 419 420 421 422 423 424 425 426 427 428 429 430 431 432 433 434 435 436 437 438 439 440 441 442 443 444 445 446 447 448 449 450 451 452 453 454 455 456 457 458 459 460 461 462 463 464 465 466 467 468 469 470 471 472 473 474 475 476 477 478 479 480 481 482 483 484 485 

        </DataArray>

        <DataArray type="Int32" Name="offsets" format="ascii">

3 6 9 12 15 18 21 24 27 30 33 36 39 42 45 48 51 54 57 60 63 66 69 72 75 78 81 84 87 90 93 96 99 102 105 108 111 114 117 120 123 126 129 132 135 138 141 144 147 150 153 156 159 162 165 168 171 174 177 180 183 186 189 192 195 198 201 204 207 210 213 216 219 222 225 228 231 234 237 240 243 246 249 252 255 258 261 264 267 270 273 276 279 282 285 288 291 294 297 300 303 306 309 312 315 318 321 324 327 330 333 336 339 342 345 348 351 354 357 360 363 366 369 372 375 378 381 384 387 390 393 396 399 402 405 408 411 414 417 420 423 426 429 432 435 438 441 444 447 450 453 456 459 462 465 468 471 474 477 480 483 486 

        </DataArray>

        <DataArray type="Int32" Name="types" format="ascii">

5 5 5 5 5 5 5 5 5 5 5 5 5 5 5 5 5 5 5 5 5 5 5 5 5 5 5 5 5 5 5 5 5 5 5 5 5 5 5 5 5 5 5 5 5 5 5 5 5 5 5 5 5 5 5 5 5 5 5 5 5 5 5 5 5 5 5 5 5 5 5 5 5 5 5 5 5 5 5 5 5 5 5 5 5 5 5 5 5 5 5 5 5 5 5 5 5 5 5 5 5 5 5 5 5 5 5 5 5 5 5 5 5 5 5 5 5 5 5 5 5 5 5 5 5 5 5 5 5 5 5 5 5 5 5 5 5 5 5 5 5 5 5 5 5 5 5 5 5 5 5 5 5 5 5 5 5 5 5 5 5 5 

        </DataArray>

      </Cells>

    </Piece>

  </UnstructuredGrid>

</VTKFile>

