<?xml version="1.0"?>

<VTKFile type="UnstructuredGrid" version="0.1">

  <UnstructuredGrid>

    <Piece NumberOfPoints="486" NumberOfCells="162">

      <PointData>

        <DataArray type="Float64" Name="K" format="ascii">

1.08299982168710884e+00
1.08299982168710884e+00
1.08299982168710884e+00
1.06091002304009008e+00
1.06091002304009008e+00
1.06091002304009008e+00
9.90909009342987090e-01
9.90909009342987090e-01
9.90909009342987090e-01
1.07584550458386574e+00
1.07584550458386574e+00
1.07584550458386574e+00
9.52632425915907688e-01
9.52632425915907688e-01
9.52632425915907688e-01
1.05094194933971363e+00
1.05094194933971363e+00
1.05094194933971363e+00
9.59104537042917205e-01
9.59104537042917205e-01
9.59104537042917205e-01
9.15257319123496504e-01
9.15257319123496504e-01
9.15257319123496504e-01
8.97143306385088546e-01
8.97143306385088546e-01
8.97143306385088546e-01
9.46418093940762706e-01
9.46418093940762706e-01
9.46418093940762706e-01
9.62615090972232856e-01
9.62615090972232856e-01
9.62615090972232856e-01
9.74679784369942404e-01
9.74679784369942404e-01
9.74679784369942404e-01
9.70520811206934786e-01
9.70520811206934786e-01
9.70520811206934786e-01
1.02064506336411420e+00
1.02064506336411420e+00
1.02064506336411420e+00
9.50826318741925802e-01
9.50826318741925802e-01
9.50826318741925802e-01
9.00634055090983932e-01
9.00634055090983932e-01
9.00634055090983932e-01
1.10676457263261030e+00
1.10676457263261030e+00
1.10676457263261030e+00
9.55342247244933107e-01
9.55342247244933107e-01
9.55342247244933107e-01
9.66400709344112374e-01
9.66400709344112374e-01
9.66400709344112374e-01
9.34220647218698796e-01
9.34220647218698796e-01
9.34220647218698796e-01
9.59553012783451620e-01
9.59553012783451620e-01
9.59553012783451620e-01
9.90394358113343087e-01
9.90394358113343087e-01
9.90394358113343087e-01
1.00187158140452204e+00
1.00187158140452204e+00
1.00187158140452204e+00
1.06595782849378451e+00
1.06595782849378451e+00
1.06595782849378451e+00
9.42349006882120976e-01
9.42349006882120976e-01
9.42349006882120976e-01
1.01027643316676219e+00
1.01027643316676219e+00
1.01027643316676219e+00
1.02649633543582586e+00
1.02649633543582586e+00
1.02649633543582586e+00
1.03612040823515517e+00
1.03612040823515517e+00
1.03612040823515517e+00
1.00554592808161525e+00
1.00554592808161525e+00
1.00554592808161525e+00
9.01966703199932662e-01
9.01966703199932662e-01
9.01966703199932662e-01
9.07066215525504260e-01
9.07066215525504260e-01
9.07066215525504260e-01
9.68076796566025521e-01
9.68076796566025521e-01
9.68076796566025521e-01
9.88842959699241186e-01
9.88842959699241186e-01
9.88842959699241186e-01
1.00256063522884276e+00
1.00256063522884276e+00
1.00256063522884276e+00
9.83792240658579953e-01
9.83792240658579953e-01
9.83792240658579953e-01
1.07000823181916038e+00
1.07000823181916038e+00
1.07000823181916038e+00
9.76694907776227139e-01
9.76694907776227139e-01
9.76694907776227139e-01
9.30135404595255344e-01
9.30135404595255344e-01
9.30135404595255344e-01
9.50963394465427547e-01
9.50963394465427547e-01
9.50963394465427547e-01
1.04891552813359556e+00
1.04891552813359556e+00
1.04891552813359556e+00
9.72240297199960413e-01
9.72240297199960413e-01
9.72240297199960413e-01
1.04845117872884952e+00
1.04845117872884952e+00
1.04845117872884952e+00
9.72679896372867114e-01
9.72679896372867114e-01
9.72679896372867114e-01
1.03284508766602356e+00
1.03284508766602356e+00
1.03284508766602356e+00
1.01975364920108191e+00
1.01975364920108191e+00
1.01975364920108191e+00
9.71750188688873640e-01
9.71750188688873640e-01
9.71750188688873640e-01
1.01600018610200493e+00
1.01600018610200493e+00
1.01600018610200493e+00
1.01406915165265898e+00
1.01406915165265898e+00
1.01406915165265898e+00
9.41375424275137873e-01
9.41375424275137873e-01
9.41375424275137873e-01
1.00301940537657175e+00
1.00301940537657175e+00
1.00301940537657175e+00
1.01969987994383993e+00
1.01969987994383993e+00
1.01969987994383993e+00
9.57196231673790643e-01
9.57196231673790643e-01
9.57196231673790643e-01
1.03727002076587693e+00
1.03727002076587693e+00
1.03727002076587693e+00
1.01490680505333475e+00
1.01490680505333475e+00
1.01490680505333475e+00
1.05392598181676478e+00
1.05392598181676478e+00
1.05392598181676478e+00
9.48192079651121733e-01
9.48192079651121733e-01
9.48192079651121733e-01
1.01139458624865597e+00
1.01139458624865597e+00
1.01139458624865597e+00
1.05378198932510903e+00
1.05378198932510903e+00
1.05378198932510903e+00
9.69554457105038625e-01
9.69554457105038625e-01
9.69554457105038625e-01
1.01755663742857561e+00
1.01755663742857561e+00
1.01755663742857561e+00
9.99952953015356027e-01
9.99952953015356027e-01
9.99952953015356027e-01
1.01520469222082088e+00
1.01520469222082088e+00
1.01520469222082088e+00
9.20217247747385114e-01
9.20217247747385114e-01
9.20217247747385114e-01
9.99542601094729366e-01
9.99542601094729366e-01
9.99542601094729366e-01
9.44522296927812754e-01
9.44522296927812754e-01
9.44522296927812754e-01
1.03685551583828151e+00
1.03685551583828151e+00
1.03685551583828151e+00
9.66978724878768570e-01
9.66978724878768570e-01
9.66978724878768570e-01
9.91983551127478269e-01
9.91983551127478269e-01
9.91983551127478269e-01
9.22884458631354820e-01
9.22884458631354820e-01
9.22884458631354820e-01
1.00710199774847631e+00
1.00710199774847631e+00
1.00710199774847631e+00
9.41171478799946781e-01
9.41171478799946781e-01
9.41171478799946781e-01
1.05891019436711731e+00
1.05891019436711731e+00
1.05891019436711731e+00
1.00868183084348928e+00
1.00868183084348928e+00
1.00868183084348928e+00
9.49190830667547059e-01
9.49190830667547059e-01
9.49190830667547059e-01
9.24119075284496994e-01
9.24119075284496994e-01
9.24119075284496994e-01
1.02028924539924981e+00
1.02028924539924981e+00
1.02028924539924981e+00
9.67680194884464995e-01
9.67680194884464995e-01
9.67680194884464995e-01
1.03337123687135946e+00
1.03337123687135946e+00
1.03337123687135946e+00
9.22434554273763530e-01
9.22434554273763530e-01
9.22434554273763530e-01
1.00973931635304015e+00
1.00973931635304015e+00
1.00973931635304015e+00
9.71470575044374507e-01
9.71470575044374507e-01
9.71470575044374507e-01
1.02441860021826536e+00
1.02441860021826536e+00
1.02441860021826536e+00
9.77570515133755369e-01
9.77570515133755369e-01
9.77570515133755369e-01
9.45059066862459218e-01
9.45059066862459218e-01
9.45059066862459218e-01
9.88180418541544148e-01
9.88180418541544148e-01
9.88180418541544148e-01
9.62648772083676940e-01
9.62648772083676940e-01
9.62648772083676940e-01
1.03971272281179994e+00
1.03971272281179994e+00
1.03971272281179994e+00
1.05627686248938257e+00
1.05627686248938257e+00
1.05627686248938257e+00
1.05245670573656214e+00
1.05245670573656214e+00
1.05245670573656214e+00
1.04855857632207394e+00
1.04855857632207394e+00
1.04855857632207394e+00
9.31357199091104593e-01
9.31357199091104593e-01
9.31357199091104593e-01
1.03912743505319605e+00
1.03912743505319605e+00
1.03912743505319605e+00
1.03424757119763222e+00
1.03424757119763222e+00
1.03424757119763222e+00
1.05569388487252747e+00
1.05569388487252747e+00
1.05569388487252747e+00
1.00349154229594273e+00
1.00349154229594273e+00
1.00349154229594273e+00
9.45107793139488672e-01
9.45107793139488672e-01
9.45107793139488672e-01
1.02486341449230034e+00
1.02486341449230034e+00
1.02486341449230034e+00
9.90370824471196398e-01
9.90370824471196398e-01
9.90370824471196398e-01
9.50406595973633972e-01
9.50406595973633972e-01
9.50406595973633972e-01
9.58056458746449069e-01
9.58056458746449069e-01
9.58056458746449069e-01
1.03862796968073567e+00
1.03862796968073567e+00
1.03862796968073567e+00
1.01558712050359579e+00
1.01558712050359579e+00
1.01558712050359579e+00
9.89428993666583767e-01
9.89428993666583767e-01
9.89428993666583767e-01
9.49830611092294053e-01
9.49830611092294053e-01
9.49830611092294053e-01
9.25105746082111380e-01
9.25105746082111380e-01
9.25105746082111380e-01
9.31732726994157767e-01
9.31732726994157767e-01
9.31732726994157767e-01
9.97712199631710539e-01
9.97712199631710539e-01
9.97712199631710539e-01
9.83708452400288147e-01
9.83708452400288147e-01
9.83708452400288147e-01
9.97801818867473322e-01
9.97801818867473322e-01
9.97801818867473322e-01
9.35851693777305149e-01
9.35851693777305149e-01
9.35851693777305149e-01
9.54797039900900257e-01
9.54797039900900257e-01
9.54797039900900257e-01
9.71534315465944265e-01
9.71534315465944265e-01
9.71534315465944265e-01
9.70785601693004319e-01
9.70785601693004319e-01
9.70785601693004319e-01
1.07903610844828601e+00
1.07903610844828601e+00
1.07903610844828601e+00
9.78387820030349298e-01
9.78387820030349298e-01
9.78387820030349298e-01
1.01529065764825743e+00
1.01529065764825743e+00
1.01529065764825743e+00
1.01636184182758349e+00
1.01636184182758349e+00
1.01636184182758349e+00
9.29277589347996869e-01
9.29277589347996869e-01
9.29277589347996869e-01
9.29515700709146464e-01
9.29515700709146464e-01
9.29515700709146464e-01
1.06833300435671252e+00
1.06833300435671252e+00
1.06833300435671252e+00
9.57831366416275309e-01
9.57831366416275309e-01
9.57831366416275309e-01
9.61614223028818382e-01
9.61614223028818382e-01
9.61614223028818382e-01
9.67839876846259828e-01
9.67839876846259828e-01
9.67839876846259828e-01
1.04133987447494802e+00
1.04133987447494802e+00
1.04133987447494802e+00
1.05036643169207844e+00
1.05036643169207844e+00
1.05036643169207844e+00
9.43285555446836121e-01
9.43285555446836121e-01
9.43285555446836121e-01
9.33717202693214232e-01
9.33717202693214232e-01
9.33717202693214232e-01
1.03454323616047983e+00
1.03454323616047983e+00
1.03454323616047983e+00
9.63642369166802681e-01
9.63642369166802681e-01
9.63642369166802681e-01
9.65805482670117232e-01
9.65805482670117232e-01
9.65805482670117232e-01
9.99916202852499603e-01
9.99916202852499603e-01
9.99916202852499603e-01
9.46011835047792626e-01
9.46011835047792626e-01
9.46011835047792626e-01
1.08630215141723818e+00
1.08630215141723818e+00
1.08630215141723818e+00
1.01881290032008187e+00
1.01881290032008187e+00
1.01881290032008187e+00
9.76770395832716631e-01
9.76770395832716631e-01
9.76770395832716631e-01
1.08358033107189411e+00
1.08358033107189411e+00
1.08358033107189411e+00
9.72648355668420228e-01
9.72648355668420228e-01
9.72648355668420228e-01
1.02820816347146682e+00
1.02820816347146682e+00
1.02820816347146682e+00
9.60103327013562380e-01
9.60103327013562380e-01
9.60103327013562380e-01
9.84791229572025251e-01
9.84791229572025251e-01
9.84791229572025251e-01
1.04914907893688514e+00
1.04914907893688514e+00
1.04914907893688514e+00
1.00333869946922682e+00
1.00333869946922682e+00
1.00333869946922682e+00
1.06518981029583681e+00
1.06518981029583681e+00
1.06518981029583681e+00
1.05839294539139450e+00
1.05839294539139450e+00
1.05839294539139450e+00
1.05753103891431044e+00
1.05753103891431044e+00
1.05753103891431044e+00
1.05483650302946597e+00
1.05483650302946597e+00
1.05483650302946597e+00
1.03562131949818581e+00
1.03562131949818581e+00
1.03562131949818581e+00
1.05842300913022314e+00
1.05842300913022314e+00
1.05842300913022314e+00
9.85422055103358452e-01
9.85422055103358452e-01
9.85422055103358452e-01
1.02000412620044667e+00
1.02000412620044667e+00
1.02000412620044667e+00
1.01738109293849677e+00
1.01738109293849677e+00
1.01738109293849677e+00
1.05243782856597057e+00
1.05243782856597057e+00
1.05243782856597057e+00
1.03546151177986090e+00
1.03546151177986090e+00
1.03546151177986090e+00
1.10462676950310557e+00
1.10462676950310557e+00
1.10462676950310557e+00
9.71676158294218495e-01
9.71676158294218495e-01
9.71676158294218495e-01
1.03851154823563041e+00
1.03851154823563041e+00
1.03851154823563041e+00
9.82841421577723251e-01
9.82841421577723251e-01
9.82841421577723251e-01
9.98970314932006720e-01
9.98970314932006720e-01
9.98970314932006720e-01
9.65174090850443589e-01
9.65174090850443589e-01
9.65174090850443589e-01
1.02002495259455883e+00
1.02002495259455883e+00
1.02002495259455883e+00
1.04179481810306318e+00
1.04179481810306318e+00
1.04179481810306318e+00
9.92337378148890781e-01
9.92337378148890781e-01
9.92337378148890781e-01


        </DataArray>

      </PointData>

      <CellData/>

      <Points>

        <DataArray type="Float64" NumberOfComponents="3" format="ascii">

0.1082531754723032 0.6875000000007816 0 0.23533274979922561 0.77093399389351469 0 0.10409951422139101 0.81206782209691231 0 0.23533274979922561 0.77093399389351469 0 0.1082531754723032 0.6875000000007816 0 0.21809253452218619 0.65480892822618109 0 0.24418615484441761 0.35773612382016978 0 0.121259140952891 0.43112117036853742 0 0.1082531754734323 0.31250000000117473 0 0.75000000000057243 0.35048094716480432 0 0.88173731489851925 0.33077402607778361 0 0.81242894672211508 0.45500248311961472 0 0.121259140952891 0.43112117036853742 0 0.24418615484441761 0.35773612382016978 0 0.22257735880419699 0.47344721641341742 0 0.81242894672211508 0.45500248311961472 0 0.88173731489851925 0.33077402607778361 0 0.915464298762109 0.43749999999886913 0 0 0.62500000000121547 0 0 0.50000000000206146 0 0.1371230538040123 0.56179824718362847 0 0.82212678063041267 0.67678595194836966 0 0.89051480781310632 0.79665793440246835 0 0.76243180583607129 0.78687675331113149 0 0.76243180583607129 0.78687675331113149 0 0.69010814643829166 0.89298495739101336 0 0.62844955668446423 0.7850749770380413 0 0.89051480781310632 0.79665793440246835 0 0.82212678063041267 0.67678595194836966 0 0.92266244547590082 0.68749999999917555 0 0 0.50000000000206146 0 0.121259140952891 0.43112117036853742 0 0.1371230538040123 0.56179824718362847 0 0.1082531754723032 0.6875000000007816 0 0 0.62500000000121547 0 0.1371230538040123 0.56179824718362847 0 0.75000000000032374 0.56698729811007709 0 0.88927506082488361 0.56409486310635837 0 0.82212678063041267 0.67678595194836966 0 0.81242894672211508 0.45500248311961472 0 0.88927506082488361 0.56409486310635837 0 0.75000000000032374 0.56698729811007709 0 0.69851598570178741 0.68211701800612057 0 0.56496004948275869 0.67675037307860475 0 0.62752533658682441 0.56838075195614346 0 0.69851598570178741 0.68211701800612057 0 0.76243180583607129 0.78687675331113149 0 0.62844955668446423 0.7850749770380413 0 0.23533274979922561 0.77093399389351469 0 0.18802967116092181 0.89415349436770275 0 0.10409951422139101 0.81206782209691231 0 0.121259140952891 0.43112117036853742 0 0.22257735880419699 0.47344721641341742 0 0.1371230538040123 0.56179824718362847 0 0.75000000000032374 0.56698729811007709 0 0.69851598570178741 0.68211701800612057 0 0.62752533658682441 0.56838075195614346 0 0.56496004948275869 0.67675037307860475 0 0.69851598570178741 0.68211701800612057 0 0.62844955668446423 0.7850749770380413 0 0.1371230538040123 0.56179824718362847 0 0.22257735880419699 0.47344721641341742 0 0.26982811998763367 0.56544650815856912 0 0.21809253452218619 0.65480892822618109 0 0.1371230538040123 0.56179824718362847 0 0.26982811998763367 0.56544650815856912 0 0.24418615484441761 0.35773612382016978 0 0.1082531754734323 0.31250000000117473 0 0.20767261601459541 0.25628918442207171 0 0.88173731489851925 0.33077402607778361 0 0.75000000000057243 0.35048094716480432 0 0.79891106056046712 0.25007334953587562 0 0.75000000000032374 0.56698729811007709 0 0.82212678063041267 0.67678595194836966 0 0.69851598570178741 0.68211701800612057 0 0.81249999999950517 0.1082531754733404 0 0.89658421694297741 0.1933620068391701 0 0.79891106056046712 0.25007334953587562 0 0.81249999999950517 0.1082531754733404 0 0.79891106056046712 0.25007334953587562 0 0.73983916756365475 0.17530677078674589 0 0.23533274979922561 0.77093399389351469 0 0.21809253452218619 0.65480892822618109 0 0.32607333794064219 0.67760114260606152 0 0.1082531754723032 0.6875000000007816 0 0.1371230538040123 0.56179824718362847 0 0.21809253452218619 0.65480892822618109 0 0.69851598570178741 0.68211701800612057 0 0.82212678063041267 0.67678595194836966 0 0.76243180583607129 0.78687675331113149 0 0.69010814643829166 0.89298495739101336 0 0.76243180583607129 0.78687675331113149 0 0.80886664387416207 0.89717308644237903 0 0.43750000000181222 0.89174682452709564 0 0.31258827852827581 0.89214793616708443 0 0.37776173212361452 0.78514649317305008 0 0.43750000000181222 0.89174682452709564 0 0.37500000000156292 1 0 0.31258827852827581 0.89214793616708443 0 0.121259140952891 0.43112117036853742 0 0 0.37500000000156292 0 0.1082531754734323 0.31250000000117473 0 0.50000000000206146 1 0 0.37500000000156292 1 0 0.43750000000181222 0.89174682452709564 0 0.31258827852827581 0.89214793616708443 0 0.18802967116092181 0.89415349436770275 0 0.23533274979922561 0.77093399389351469 0 0 0.50000000000206146 0 0 0.37500000000156292 0 0.121259140952891 0.43112117036853742 0 0.62844955668446423 0.7850749770380413 0 0.69010814643829166 0.89298495739101336 0 0.56327595140699671 0.89211526915426331 0 0.69010814643829166 0.89298495739101336 0 0.62500000000121547 1 0 0.56327595140699671 0.89211526915426331 0 0.25000000000104189 1 0 0.18802967116092181 0.89415349436770275 0 0.31258827852827581 0.89214793616708443 0 0.50000000000206146 1 0 0.43750000000181222 0.89174682452709564 0 0.56327595140699671 0.89211526915426331 0 0.56249999999885147 0.1082531754730395 0 0.62499999999901068 0 0 0.68749999999926592 0.1082531754732875 0 1 0.49999999999869221 0 1 0.62499999999901068 0 0.88927506082488361 0.56409486310635837 0 0 0.25000000000104189 0 0.12076953676380731 0.18690935762408761 0 0.1082531754734323 0.31250000000117473 0 0.49999999999869221 0 0 0.62499999999901068 0 0 0.56249999999885147 0.1082531754730395 0 0.62500000000121547 1 0 0.50000000000206146 1 0 0.56327595140699671 0.89211526915426331 0 0.37500000000156292 1 0 0.25000000000104189 1 0 0.31258827852827581 0.89214793616708443 0 0.31281086598417152 0.10449318608631281 0 0.37499999999904599 0 0 0.43749999999910871 0.1082531754729984 0 0.43750000000181222 0.89174682452709564 0 0.37776173212361452 0.78514649317305008 0 0.50046028868828263 0.78376912307435687 0 0 0.37500000000156292 0 0 0.25000000000104189 0 0.1082531754734323 0.31250000000117473 0 0.49999999999869221 0 0 0.56249999999885147 0.1082531754730395 0 0.43749999999910871 0.1082531754729984 0 0.43750000000181222 0.89174682452709564 0 0.50046028868828263 0.78376912307435687 0 0.56327595140699671 0.89211526915426331 0 0.74999999999934042 0 0 0.81249999999950517 0.1082531754733404 0 0.68749999999926592 0.1082531754732875 0 0.37499999999904599 0 0 0.49999999999869221 0 0 0.43749999999910871 0.1082531754729984 0 0.25000000000104189 1 0 0.12500000000052089 1 0 0.18802967116092181 0.89415349436770275 0 0.50046028868828263 0.78376912307435687 0 0.62844955668446423 0.7850749770380413 0 0.56327595140699671 0.89211526915426331 0 0.37776173212361452 0.78514649317305008 0 0.31258827852827581 0.89214793616708443 0 0.23533274979922561 0.77093399389351469 0 0.62499999999901068 0 0 0.74999999999934042 0 0 0.68749999999926592 0.1082531754732875 0 1 0.74999999999934042 0 1 0.87499999999967015 0 0.89051480781310632 0.79665793440246835 0 0 0.25000000000104189 0 0 0.12500000000052089 0 0.12076953676380731 0.18690935762408761 0 0.74999999999934042 0 0 0.87499999999967015 0 0 0.81249999999950517 0.1082531754733404 0 0.24999999999941069 0 0 0.37499999999904599 0 0 0.31281086598417152 0.10449318608631281 0 0.50046028868828263 0.78376912307435687 0 0.37776173212361452 0.78514649317305008 0 0.44078402250377968 0.67714785211715212 0 0.68768773896438518 0.4586835206367198 0 0.75000000000032374 0.56698729811007709 0 0.62752533658682441 0.56838075195614346 0 0.31411863959822661 0.24965544328045999 0 0.37953773393552892 0.34812185820708452 0 0.24418615484441761 0.35773612382016978 0 0.68768773896438518 0.4586835206367198 0 0.81242894672211508 0.45500248311961472 0 0.75000000000032374 0.56698729811007709 0 1 0.24999999999941069 0 1 0.37499999999904599 0 0.88173731489851925 0.33077402607778361 0 0 0.75000000000034761 0 0 0.62500000000121547 0 0.1082531754723032 0.6875000000007816 0 0.50048844149666749 0.56727788297625459 0 0.44078402250377968 0.67714785211715212 0 0.38694285807596462 0.5672991787102919 0 0.50108503093851109 0.35012252869403671 0 0.44301038174930041 0.45684931552185398 0 0.37953773393552892 0.34812185820708452 0 0.50046028868828263 0.78376912307435687 0 0.56496004948275869 0.67675037307860475 0 0.62844955668446423 0.7850749770380413 0 0.68768773896438518 0.4586835206367198 0 0.75000000000057243 0.35048094716480432 0 0.81242894672211508 0.45500248311961472 0 0.56349980387502452 0.45846841892908402 0 0.62512662990940393 0.35044303886909911 0 0.68768773896438518 0.4586835206367198 0 0.50048844149666749 0.56727788297625459 0 0.38694285807596462 0.5672991787102919 0 0.44301038174930041 0.45684931552185398 0 0.50046028868828263 0.78376912307435687 0 0.44078402250377968 0.67714785211715212 0 0.56496004948275869 0.67675037307860475 0 0.50108503093851109 0.35012252869403671 0 0.37953773393552892 0.34812185820708452 0 0.43750000000200551 0.24222777169198509 0 0.75000000000034761 1 0 0.62500000000121547 1 0 0.69010814643829166 0.89298495739101336 0 0.68768773896438518 0.4586835206367198 0 0.62512662990940393 0.35044303886909911 0 0.75000000000057243 0.35048094716480432 0 0.56496004948275869 0.67675037307860475 0 0.44078402250377968 0.67714785211715212 0 0.50048844149666749 0.56727788297625459 0 0.56349980387502452 0.45846841892908402 0 0.44301038174930041 0.45684931552185398 0 0.50108503093851109 0.35012252869403671 0 0.50048844149666749 0.56727788297625459 0 0.44301038174930041 0.45684931552185398 0 0.56349980387502452 0.45846841892908402 0 0.56349980387502452 0.45846841892908402 0 0.50108503093851109 0.35012252869403671 0 0.62512662990940393 0.35044303886909911 0 0.43750000000200551 0.24222777169198509 0 0.37953773393552892 0.34812185820708452 0 0.31411863959822661 0.24965544328045999 0 0.56496004948275869 0.67675037307860475 0 0.50048844149666749 0.56727788297625459 0 0.62752533658682441 0.56838075195614346 0 0.56349980387502452 0.45846841892908402 0 0.68768773896438518 0.4586835206367198 0 0.62752533658682441 0.56838075195614346 0 0.50048844149666749 0.56727788297625459 0 0.56349980387502452 0.45846841892908402 0 0.62752533658682441 0.56838075195614346 0 0.75000000000057243 0.35048094716480432 0 0.62512662990940393 0.35044303886909911 0 0.68668231842078242 0.24762892664808989 0 0.50108503093851109 0.35012252869403671 0 0.43750000000200551 0.24222777169198509 0 0.56250000000143974 0.2422277716920859 0 0.62512662990940393 0.35044303886909911 0 0.50108503093851109 0.35012252869403671 0 0.56250000000143974 0.2422277716920859 0 0.68668231842078242 0.24762892664808989 0 0.62512662990940393 0.35044303886909911 0 0.56250000000143974 0.2422277716920859 0 0.22257735880419699 0.47344721641341742 0 0.24418615484441761 0.35773612382016978 0 0.32815957677880009 0.4577243358118348 0 0.12076953676380731 0.18690935762408761 0 0.19185372118111221 0.092925648673580788 0 0.25103557339309318 0.17464499738446629 0 0.20767261601459541 0.25628918442207171 0 0.12076953676380731 0.18690935762408761 0 0.25103557339309318 0.17464499738446629 0 0 0.87499999999950151 0 0 0.75000000000034761 0 0.10409951422139101 0.81206782209691231 0 0.1249999999997731 0 0 0.24999999999941069 0 0 0.19185372118111221 0.092925648673580788 0 1 0.1249999999997731 0 1 0.24999999999941069 0 0.89658421694297741 0.1933620068391701 0 0.88927506082488361 0.56409486310635837 0 0.81242894672211508 0.45500248311961472 0 0.915464298762109 0.43749999999886913 0 0.87499999999950151 1 0 0.75000000000034761 1 0 0.80886664387416207 0.89717308644237903 0 0.75000000000034761 1 0 0.69010814643829166 0.89298495739101336 0 0.80886664387416207 0.89717308644237903 0 0.82212678063041267 0.67678595194836966 0 0.88927506082488361 0.56409486310635837 0 0.92266244547590082 0.68749999999917555 0 0 0.75000000000034761 0 0.1082531754723032 0.6875000000007816 0 0.10409951422139101 0.81206782209691231 0 0.24999999999941069 0 0 0.31281086598417152 0.10449318608631281 0 0.19185372118111221 0.092925648673580788 0 1 0.24999999999941069 0 0.88173731489851925 0.33077402607778361 0 0.89658421694297741 0.1933620068391701 0 0.32815957677880009 0.4577243358118348 0 0.38694285807596462 0.5672991787102919 0 0.26982811998763367 0.56544650815856912 0 0.76243180583607129 0.78687675331113149 0 0.89051480781310632 0.79665793440246835 0 0.80886664387416207 0.89717308644237903 0 0.38694285807596462 0.5672991787102919 0 0.44078402250377968 0.67714785211715212 0 0.32607333794064219 0.67760114260606152 0 0.37776173212361452 0.78514649317305008 0 0.23533274979922561 0.77093399389351469 0 0.32607333794064219 0.67760114260606152 0 1 0.49999999999869221 0 0.88927506082488361 0.56409486310635837 0 0.915464298762109 0.43749999999886913 0 0.88173731489851925 0.33077402607778361 0 1 0.37499999999904599 0 0.915464298762109 0.43749999999886913 0 0.24418615484441761 0.35773612382016978 0 0.37953773393552892 0.34812185820708452 0 0.32815957677880009 0.4577243358118348 0 0.44301038174930041 0.45684931552185398 0 0.38694285807596462 0.5672991787102919 0 0.32815957677880009 0.4577243358118348 0 0.88927506082488361 0.56409486310635837 0 1 0.62499999999901068 0 0.92266244547590082 0.68749999999917555 0 1 0.74999999999934042 0 0.89051480781310632 0.79665793440246835 0 0.92266244547590082 0.68749999999917555 0 0 1 0 0 0.87499999999950151 0 0.091506350946494744 0.90849364905351082 0 1 1 0 0.87499999999950151 1 0 0.90849364905363228 0.90849364905367769 0 0 0 0 0.1249999999997731 0 0 0.091506350946417708 0.091506350946618076 0 0 0.12500000000052089 0 0 0 0 0.091506350946417708 0.091506350946618076 0 1 0 0 1 0.1249999999997731 0 0.90849364905355434 0.091506350946296292 0 0.87499999999967015 0 0 1 0 0 0.90849364905355434 0.091506350946296292 0 0.12500000000052089 1 0 0 1 0 0.091506350946494744 0.90849364905351082 0 1 0.87499999999967015 0 1 1 0 0.90849364905363228 0.90849364905367769 0 0.38694285807596462 0.5672991787102919 0 0.32607333794064219 0.67760114260606152 0 0.26982811998763367 0.56544650815856912 0 0.31411863959822661 0.24965544328045999 0 0.24418615484441761 0.35773612382016978 0 0.20767261601459541 0.25628918442207171 0 0.1082531754734323 0.31250000000117473 0 0.12076953676380731 0.18690935762408761 0 0.20767261601459541 0.25628918442207171 0 0.75000000000057243 0.35048094716480432 0 0.68668231842078242 0.24762892664808989 0 0.79891106056046712 0.25007334953587562 0 0.22257735880419699 0.47344721641341742 0 0.32815957677880009 0.4577243358118348 0 0.26982811998763367 0.56544650815856912 0 0.44078402250377968 0.67714785211715212 0 0.37776173212361452 0.78514649317305008 0 0.32607333794064219 0.67760114260606152 0 0.89658421694297741 0.1933620068391701 0 0.88173731489851925 0.33077402607778361 0 0.79891106056046712 0.25007334953587562 0 1 0.37499999999904599 0 1 0.49999999999869221 0 0.915464298762109 0.43749999999886913 0 0.37953773393552892 0.34812185820708452 0 0.44301038174930041 0.45684931552185398 0 0.32815957677880009 0.4577243358118348 0 0.32607333794064219 0.67760114260606152 0 0.21809253452218619 0.65480892822618109 0 0.26982811998763367 0.56544650815856912 0 1 0.1249999999997731 0 0.89658421694297741 0.1933620068391701 0 0.90849364905355434 0.091506350946296292 0 0 0.87499999999950151 0 0.10409951422139101 0.81206782209691231 0 0.091506350946494744 0.90849364905351082 0 0.1249999999997731 0 0 0.19185372118111221 0.092925648673580788 0 0.091506350946417708 0.091506350946618076 0 1 0.62499999999901068 0 1 0.74999999999934042 0 0.92266244547590082 0.68749999999917555 0 0.18802967116092181 0.89415349436770275 0 0.12500000000052089 1 0 0.091506350946494744 0.90849364905351082 0 0.89051480781310632 0.79665793440246835 0 1 0.87499999999967015 0 0.90849364905363228 0.90849364905367769 0 0.12076953676380731 0.18690935762408761 0 0 0.12500000000052089 0 0.091506350946417708 0.091506350946618076 0 0.81249999999950517 0.1082531754733404 0 0.87499999999967015 0 0 0.90849364905355434 0.091506350946296292 0 0.87499999999950151 1 0 0.80886664387416207 0.89717308644237903 0 0.90849364905363228 0.90849364905367769 0 0.68668231842078242 0.24762892664808989 0 0.62499999999892575 0.17524047358135519 0 0.73983916756365475 0.17530677078674589 0 0.31281086598417152 0.10449318608631281 0 0.43749999999910871 0.1082531754729984 0 0.37500000000232431 0.17524047358384309 0 0.62499999999892575 0.17524047358135519 0 0.56250000000143974 0.2422277716920859 0 0.49999999999934441 0.1752404735815076 0 0.56249999999885147 0.1082531754730395 0 0.68749999999926592 0.1082531754732875 0 0.62499999999892575 0.17524047358135519 0 0.56249999999885147 0.1082531754730395 0 0.62499999999892575 0.17524047358135519 0 0.49999999999934441 0.1752404735815076 0 0.56250000000143974 0.2422277716920859 0 0.43750000000200551 0.24222777169198509 0 0.49999999999934441 0.1752404735815076 0 0.43749999999910871 0.1082531754729984 0 0.56249999999885147 0.1082531754730395 0 0.49999999999934441 0.1752404735815076 0 0.68668231842078242 0.24762892664808989 0 0.56250000000143974 0.2422277716920859 0 0.62499999999892575 0.17524047358135519 0 0.43750000000200551 0.24222777169198509 0 0.31411863959822661 0.24965544328045999 0 0.37500000000232431 0.17524047358384309 0 0.49999999999934441 0.1752404735815076 0 0.43750000000200551 0.24222777169198509 0 0.37500000000232431 0.17524047358384309 0 0.43749999999910871 0.1082531754729984 0 0.49999999999934441 0.1752404735815076 0 0.37500000000232431 0.17524047358384309 0 0.62499999999892575 0.17524047358135519 0 0.68749999999926592 0.1082531754732875 0 0.73983916756365475 0.17530677078674589 0 0.68749999999926592 0.1082531754732875 0 0.81249999999950517 0.1082531754733404 0 0.73983916756365475 0.17530677078674589 0 0.10409951422139101 0.81206782209691231 0 0.18802967116092181 0.89415349436770275 0 0.091506350946494744 0.90849364905351082 0 0.89658421694297741 0.1933620068391701 0 0.81249999999950517 0.1082531754733404 0 0.90849364905355434 0.091506350946296292 0 0.19185372118111221 0.092925648673580788 0 0.12076953676380731 0.18690935762408761 0 0.091506350946417708 0.091506350946618076 0 0.37500000000232431 0.17524047358384309 0 0.31411863959822661 0.24965544328045999 0 0.25103557339309318 0.17464499738446629 0 0.31281086598417152 0.10449318608631281 0 0.37500000000232431 0.17524047358384309 0 0.25103557339309318 0.17464499738446629 0 0.80886664387416207 0.89717308644237903 0 0.89051480781310632 0.79665793440246835 0 0.90849364905363228 0.90849364905367769 0 0.19185372118111221 0.092925648673580788 0 0.31281086598417152 0.10449318608631281 0 0.25103557339309318 0.17464499738446629 0 0.79891106056046712 0.25007334953587562 0 0.68668231842078242 0.24762892664808989 0 0.73983916756365475 0.17530677078674589 0 0.31411863959822661 0.24965544328045999 0 0.20767261601459541 0.25628918442207171 0 0.25103557339309318 0.17464499738446629 0 

        </DataArray>

      </Points>

      <Cells>

        <DataArray type="Int32" Name="connectivity" format="ascii">

0 1 2 3 4 5 6 7 8 9 10 11 12 13 14 15 16 17 18 19 20 21 22 23 24 25 26 27 28 29 30 31 32 33 34 35 36 37 38 39 40 41 42 43 44 45 46 47 48 49 50 51 52 53 54 55 56 57 58 59 60 61 62 63 64 65 66 67 68 69 70 71 72 73 74 75 76 77 78 79 80 81 82 83 84 85 86 87 88 89 90 91 92 93 94 95 96 97 98 99 100 101 102 103 104 105 106 107 108 109 110 111 112 113 114 115 116 117 118 119 120 121 122 123 124 125 126 127 128 129 130 131 132 133 134 135 136 137 138 139 140 141 142 143 144 145 146 147 148 149 150 151 152 153 154 155 156 157 158 159 160 161 162 163 164 165 166 167 168 169 170 171 172 173 174 175 176 177 178 179 180 181 182 183 184 185 186 187 188 189 190 191 192 193 194 195 196 197 198 199 200 201 202 203 204 205 206 207 208 209 210 211 212 213 214 215 216 217 218 219 220 221 222 223 224 225 226 227 228 229 230 231 232 233 234 235 236 237 238 239 240 241 242 243 244 245 246 247 248 249 250 251 252 253 254 255 256 257 258 259 260 261 262 263 264 265 266 267 268 269 270 271 272 273 274 275 276 277 278 279 280 281 282 283 284 285 286 287 288 289 290 291 292 293 294 295 296 297 298 299 300 301 302 303 304 305 306 307 308 309 310 311 312 313 314 315 316 317 318 319 320 321 322 323 324 325 326 327 328 329 330 331 332 333 334 335 336 337 338 339 340 341 342 343 344 345 346 347 348 349 350 351 352 353 354 355 356 357 358 359 360 361 362 363 364 365 366 367 368 369 370 371 372 373 374 375 376 377 378 379 380 381 382 383 384 385 386 387 388 389 390 391 392 393 394 395 396 397 398 399 400 401 402 403 404 405 406 407 408 409 410 411 412 413 414 415 416 417 418 419 420 421 422 423 424 425 426 427 428 429 430 431 432 433 434 435 436 437 438 439 440 441 442 443 444 445 446 447 448 449 450 451 452 453 454 455 456 457 458 459 460 461 462 463 464 465 466 467 468 469 470 471 472 473 474 475 476 477 478 479 480 481 482 483 484 485 

        </DataArray>

        <DataArray type="Int32" Name="offsets" format="ascii">

3 6 9 12 15 18 21 24 27 30 33 36 39 42 45 48 51 54 57 60 63 66 69 72 75 78 81 84 87 90 93 96 99 102 105 108 111 114 117 120 123 126 129 132 135 138 141 144 147 150 153 156 159 162 165 168 171 174 177 180 183 186 189 192 195 198 201 204 207 210 213 216 219 222 225 228 231 234 237 240 243 246 249 252 255 258 261 264 267 270 273 276 279 282 285 288 291 294 297 300 303 306 309 312 315 318 321 324 327 330 333 336 339 342 345 348 351 354 357 360 363 366 369 372 375 378 381 384 387 390 393 396 399 402 405 408 411 414 417 420 423 426 429 432 435 438 441 444 447 450 453 456 459 462 465 468 471 474 477 480 483 486 

        </DataArray>

        <DataArray type="Int32" Name="types" format="ascii">

5 5 5 5 5 5 5 5 5 5 5 5 5 5 5 5 5 5 5 5 5 5 5 5 5 5 5 5 5 5 5 5 5 5 5 5 5 5 5 5 5 5 5 5 5 5 5 5 5 5 5 5 5 5 5 5 5 5 5 5 5 5 5 5 5 5 5 5 5 5 5 5 5 5 5 5 5 5 5 5 5 5 5 5 5 5 5 5 5 5 5 5 5 5 5 5 5 5 5 5 5 5 5 5 5 5 5 5 5 5 5 5 5 5 5 5 5 5 5 5 5 5 5 5 5 5 5 5 5 5 5 5 5 5 5 5 5 5 5 5 5 5 5 5 5 5 5 5 5 5 5 5 5 5 5 5 5 5 5 5 5 5 

        </DataArray>

      </Cells>

    </Piece>

  </UnstructuredGrid>

</VTKFile>

