<?xml version="1.0"?>

<VTKFile type="UnstructuredGrid" version="0.1">

  <UnstructuredGrid>

    <Piece NumberOfPoints="486" NumberOfCells="162">

      <PointData>

        <DataArray type="Float64" Name="K" format="ascii">

1.11473486217946616e+00
1.11473486217946616e+00
1.11473486217946616e+00
1.10276191889779129e+00
1.10276191889779129e+00
1.10276191889779129e+00
8.99540152007803240e-01
8.99540152007803240e-01
8.99540152007803240e-01
9.38624700410355506e-01
9.38624700410355506e-01
9.38624700410355506e-01
9.25479467319371141e-01
9.25479467319371141e-01
9.25479467319371141e-01
9.19237765324936840e-01
9.19237765324936840e-01
9.19237765324936840e-01
1.00139873429632753e+00
1.00139873429632753e+00
1.00139873429632753e+00
1.03474078286136617e+00
1.03474078286136617e+00
1.03474078286136617e+00
1.03750295262612391e+00
1.03750295262612391e+00
1.03750295262612391e+00
1.02471510596424809e+00
1.02471510596424809e+00
1.02471510596424809e+00
9.53322780221783739e-01
9.53322780221783739e-01
9.53322780221783739e-01
1.06015873261172588e+00
1.06015873261172588e+00
1.06015873261172588e+00
9.52215937176796978e-01
9.52215937176796978e-01
9.52215937176796978e-01
9.23992976975543945e-01
9.23992976975543945e-01
9.23992976975543945e-01
9.80391287871534733e-01
9.80391287871534733e-01
9.80391287871534733e-01
1.01330736584313708e+00
1.01330736584313708e+00
1.01330736584313708e+00
1.09244758175706980e+00
1.09244758175706980e+00
1.09244758175706980e+00
9.59770555979218232e-01
9.59770555979218232e-01
9.59770555979218232e-01
9.55979918677066665e-01
9.55979918677066665e-01
9.55979918677066665e-01
1.00466421805293216e+00
1.00466421805293216e+00
1.00466421805293216e+00
1.00475664102572515e+00
1.00475664102572515e+00
1.00475664102572515e+00
1.04846735756845910e+00
1.04846735756845910e+00
1.04846735756845910e+00
9.09016411216415521e-01
9.09016411216415521e-01
9.09016411216415521e-01
9.71039426410204132e-01
9.71039426410204132e-01
9.71039426410204132e-01
9.65592530098062563e-01
9.65592530098062563e-01
9.65592530098062563e-01
1.02815444182829019e+00
1.02815444182829019e+00
1.02815444182829019e+00
1.03275325432237186e+00
1.03275325432237186e+00
1.03275325432237186e+00
1.08288051030995880e+00
1.08288051030995880e+00
1.08288051030995880e+00
1.07637514984214078e+00
1.07637514984214078e+00
1.07637514984214078e+00
1.00446852261526032e+00
1.00446852261526032e+00
1.00446852261526032e+00
1.05697405004081513e+00
1.05697405004081513e+00
1.05697405004081513e+00
1.07315229285294422e+00
1.07315229285294422e+00
1.07315229285294422e+00
1.05065257899285269e+00
1.05065257899285269e+00
1.05065257899285269e+00
8.96124225323095436e-01
8.96124225323095436e-01
8.96124225323095436e-01
1.02969889259809855e+00
1.02969889259809855e+00
1.02969889259809855e+00
1.07170358216759709e+00
1.07170358216759709e+00
1.07170358216759709e+00
9.14009833009285955e-01
9.14009833009285955e-01
9.14009833009285955e-01
1.03630272480068997e+00
1.03630272480068997e+00
1.03630272480068997e+00
1.03508781785901616e+00
1.03508781785901616e+00
1.03508781785901616e+00
1.04159746239584594e+00
1.04159746239584594e+00
1.04159746239584594e+00
1.03693450658680986e+00
1.03693450658680986e+00
1.03693450658680986e+00
1.06270225269673824e+00
1.06270225269673824e+00
1.06270225269673824e+00
9.69409344011140983e-01
9.69409344011140983e-01
9.69409344011140983e-01
9.32791505688057021e-01
9.32791505688057021e-01
9.32791505688057021e-01
1.06532914544778445e+00
1.06532914544778445e+00
1.06532914544778445e+00
1.02240409333867466e+00
1.02240409333867466e+00
1.02240409333867466e+00
1.03227998962460088e+00
1.03227998962460088e+00
1.03227998962460088e+00
1.05273811726830280e+00
1.05273811726830280e+00
1.05273811726830280e+00
1.07315407217609282e+00
1.07315407217609282e+00
1.07315407217609282e+00
9.04790122313950951e-01
9.04790122313950951e-01
9.04790122313950951e-01
1.05792784857117872e+00
1.05792784857117872e+00
1.05792784857117872e+00
1.05567971407096861e+00
1.05567971407096861e+00
1.05567971407096861e+00
1.05270279060794625e+00
1.05270279060794625e+00
1.05270279060794625e+00
1.05608187678885512e+00
1.05608187678885512e+00
1.05608187678885512e+00
1.02000952076303220e+00
1.02000952076303220e+00
1.02000952076303220e+00
1.04140155304116311e+00
1.04140155304116311e+00
1.04140155304116311e+00
1.07764660609033669e+00
1.07764660609033669e+00
1.07764660609033669e+00
1.06058464178932654e+00
1.06058464178932654e+00
1.06058464178932654e+00
1.02966855916156574e+00
1.02966855916156574e+00
1.02966855916156574e+00
9.71135466208585929e-01
9.71135466208585929e-01
9.71135466208585929e-01
1.05275445942347479e+00
1.05275445942347479e+00
1.05275445942347479e+00
1.07617034270961454e+00
1.07617034270961454e+00
1.07617034270961454e+00
1.06611638839876011e+00
1.06611638839876011e+00
1.06611638839876011e+00
9.40623846613917847e-01
9.40623846613917847e-01
9.40623846613917847e-01
9.48883533629618192e-01
9.48883533629618192e-01
9.48883533629618192e-01
9.28142472502595406e-01
9.28142472502595406e-01
9.28142472502595406e-01
9.35896443052923743e-01
9.35896443052923743e-01
9.35896443052923743e-01
1.09036108473163229e+00
1.09036108473163229e+00
1.09036108473163229e+00
1.00544891230499522e+00
1.00544891230499522e+00
1.00544891230499522e+00
9.53519511103672501e-01
9.53519511103672501e-01
9.53519511103672501e-01
1.03213221583966219e+00
1.03213221583966219e+00
1.03213221583966219e+00
9.38186409551350575e-01
9.38186409551350575e-01
9.38186409551350575e-01
9.41263703578715694e-01
9.41263703578715694e-01
9.41263703578715694e-01
9.72442614167042141e-01
9.72442614167042141e-01
9.72442614167042141e-01
1.04214733116725067e+00
1.04214733116725067e+00
1.04214733116725067e+00
9.70403772142878984e-01
9.70403772142878984e-01
9.70403772142878984e-01
1.03985677145567745e+00
1.03985677145567745e+00
1.03985677145567745e+00
9.51650942845914116e-01
9.51650942845914116e-01
9.51650942845914116e-01
1.01211389193215839e+00
1.01211389193215839e+00
1.01211389193215839e+00
9.40654602308316656e-01
9.40654602308316656e-01
9.40654602308316656e-01
9.49830778682452359e-01
9.49830778682452359e-01
9.49830778682452359e-01
9.40941164924068429e-01
9.40941164924068429e-01
9.40941164924068429e-01
9.75086184454940885e-01
9.75086184454940885e-01
9.75086184454940885e-01
9.82407069781514597e-01
9.82407069781514597e-01
9.82407069781514597e-01
9.43208175363527856e-01
9.43208175363527856e-01
9.43208175363527856e-01
9.55117901401277836e-01
9.55117901401277836e-01
9.55117901401277836e-01
9.74115653375460466e-01
9.74115653375460466e-01
9.74115653375460466e-01
9.81056914643135713e-01
9.81056914643135713e-01
9.81056914643135713e-01
9.62095179589307570e-01
9.62095179589307570e-01
9.62095179589307570e-01
9.80486834892271397e-01
9.80486834892271397e-01
9.80486834892271397e-01
9.50995799224112592e-01
9.50995799224112592e-01
9.50995799224112592e-01
1.01049985430443279e+00
1.01049985430443279e+00
1.01049985430443279e+00
9.65988700620420859e-01
9.65988700620420859e-01
9.65988700620420859e-01
1.10816433662314617e+00
1.10816433662314617e+00
1.10816433662314617e+00
1.09312542906201848e+00
1.09312542906201848e+00
1.09312542906201848e+00
9.92369499709434222e-01
9.92369499709434222e-01
9.92369499709434222e-01
9.17814952665357509e-01
9.17814952665357509e-01
9.17814952665357509e-01
1.03963571289423506e+00
1.03963571289423506e+00
1.03963571289423506e+00
1.05420121719326665e+00
1.05420121719326665e+00
1.05420121719326665e+00
9.85752462546016783e-01
9.85752462546016783e-01
9.85752462546016783e-01
1.11727345205800188e+00
1.11727345205800188e+00
1.11727345205800188e+00
1.07190217649456088e+00
1.07190217649456088e+00
1.07190217649456088e+00
9.68398104599344833e-01
9.68398104599344833e-01
9.68398104599344833e-01
9.99110266325057617e-01
9.99110266325057617e-01
9.99110266325057617e-01
1.05702732420170564e+00
1.05702732420170564e+00
1.05702732420170564e+00
1.03437333064793435e+00
1.03437333064793435e+00
1.03437333064793435e+00
1.07752109354236647e+00
1.07752109354236647e+00
1.07752109354236647e+00
9.35357744099772681e-01
9.35357744099772681e-01
9.35357744099772681e-01
9.22098215083870132e-01
9.22098215083870132e-01
9.22098215083870132e-01
9.52248654556753671e-01
9.52248654556753671e-01
9.52248654556753671e-01
9.74194064849497554e-01
9.74194064849497554e-01
9.74194064849497554e-01
9.89855749434113252e-01
9.89855749434113252e-01
9.89855749434113252e-01
1.03002212165023188e+00
1.03002212165023188e+00
1.03002212165023188e+00
1.05177073743738547e+00
1.05177073743738547e+00
1.05177073743738547e+00
1.01232125600798573e+00
1.01232125600798573e+00
1.01232125600798573e+00
1.07212081301298157e+00
1.07212081301298157e+00
1.07212081301298157e+00
1.04388512058383887e+00
1.04388512058383887e+00
1.04388512058383887e+00
1.04355004046583244e+00
1.04355004046583244e+00
1.04355004046583244e+00
1.05827865623343720e+00
1.05827865623343720e+00
1.05827865623343720e+00
1.01951084283767512e+00
1.01951084283767512e+00
1.01951084283767512e+00
1.01293380125658872e+00
1.01293380125658872e+00
1.01293380125658872e+00
1.03184382721697654e+00
1.03184382721697654e+00
1.03184382721697654e+00
9.33284626527798533e-01
9.33284626527798533e-01
9.33284626527798533e-01
9.31518197138756388e-01
9.31518197138756388e-01
9.31518197138756388e-01
9.91168970643780622e-01
9.91168970643780622e-01
9.91168970643780622e-01
9.87486232556096577e-01
9.87486232556096577e-01
9.87486232556096577e-01
1.06286624076211078e+00
1.06286624076211078e+00
1.06286624076211078e+00
9.87370465399187269e-01
9.87370465399187269e-01
9.87370465399187269e-01
9.31126763874663754e-01
9.31126763874663754e-01
9.31126763874663754e-01
9.60372029588326459e-01
9.60372029588326459e-01
9.60372029588326459e-01
1.05858924610996308e+00
1.05858924610996308e+00
1.05858924610996308e+00
1.02885050232175446e+00
1.02885050232175446e+00
1.02885050232175446e+00
1.08918326064447180e+00
1.08918326064447180e+00
1.08918326064447180e+00
1.07262770096799609e+00
1.07262770096799609e+00
1.07262770096799609e+00
1.01573078322910315e+00
1.01573078322910315e+00
1.01573078322910315e+00
1.03864661351080967e+00
1.03864661351080967e+00
1.03864661351080967e+00
1.03385701797450968e+00
1.03385701797450968e+00
1.03385701797450968e+00
1.01408365046140392e+00
1.01408365046140392e+00
1.01408365046140392e+00
1.05538200428175055e+00
1.05538200428175055e+00
1.05538200428175055e+00
1.03861522921144633e+00
1.03861522921144633e+00
1.03861522921144633e+00
1.02078946908162682e+00
1.02078946908162682e+00
1.02078946908162682e+00
1.03170309523369874e+00
1.03170309523369874e+00
1.03170309523369874e+00
1.01941650376460702e+00
1.01941650376460702e+00
1.01941650376460702e+00
1.04719502745959003e+00
1.04719502745959003e+00
1.04719502745959003e+00
1.04011640191004040e+00
1.04011640191004040e+00
1.04011640191004040e+00
1.00926790263399324e+00
1.00926790263399324e+00
1.00926790263399324e+00
1.04590260464666041e+00
1.04590260464666041e+00
1.04590260464666041e+00
1.00763059263598298e+00
1.00763059263598298e+00
1.00763059263598298e+00
9.94145941883231798e-01
9.94145941883231798e-01
9.94145941883231798e-01
1.01522252270190205e+00
1.01522252270190205e+00
1.01522252270190205e+00
1.03176323311931450e+00
1.03176323311931450e+00
1.03176323311931450e+00
1.03781524288120863e+00
1.03781524288120863e+00
1.03781524288120863e+00
1.04431939330307144e+00
1.04431939330307144e+00
1.04431939330307144e+00
1.07896295696213396e+00
1.07896295696213396e+00
1.07896295696213396e+00
1.04300332934529338e+00
1.04300332934529338e+00
1.04300332934529338e+00
1.03105923295414659e+00
1.03105923295414659e+00
1.03105923295414659e+00
9.88024791609612096e-01
9.88024791609612096e-01
9.88024791609612096e-01
1.01471073452485561e+00
1.01471073452485561e+00
1.01471073452485561e+00
1.05120797810942146e+00
1.05120797810942146e+00
1.05120797810942146e+00
1.03176977153373262e+00
1.03176977153373262e+00
1.03176977153373262e+00
1.01523094272749526e+00
1.01523094272749526e+00
1.01523094272749526e+00
9.60295241151821632e-01
9.60295241151821632e-01
9.60295241151821632e-01


        </DataArray>

      </PointData>

      <CellData/>

      <Points>

        <DataArray type="Float64" NumberOfComponents="3" format="ascii">

0.1082531754723032 0.6875000000007816 0 0.23533274979922561 0.77093399389351469 0 0.10409951422139101 0.81206782209691231 0 0.23533274979922561 0.77093399389351469 0 0.1082531754723032 0.6875000000007816 0 0.21809253452218619 0.65480892822618109 0 0.24418615484441761 0.35773612382016978 0 0.121259140952891 0.43112117036853742 0 0.1082531754734323 0.31250000000117473 0 0.75000000000057243 0.35048094716480432 0 0.88173731489851925 0.33077402607778361 0 0.81242894672211508 0.45500248311961472 0 0.121259140952891 0.43112117036853742 0 0.24418615484441761 0.35773612382016978 0 0.22257735880419699 0.47344721641341742 0 0.81242894672211508 0.45500248311961472 0 0.88173731489851925 0.33077402607778361 0 0.915464298762109 0.43749999999886913 0 0 0.62500000000121547 0 0 0.50000000000206146 0 0.1371230538040123 0.56179824718362847 0 0.82212678063041267 0.67678595194836966 0 0.89051480781310632 0.79665793440246835 0 0.76243180583607129 0.78687675331113149 0 0.76243180583607129 0.78687675331113149 0 0.69010814643829166 0.89298495739101336 0 0.62844955668446423 0.7850749770380413 0 0.89051480781310632 0.79665793440246835 0 0.82212678063041267 0.67678595194836966 0 0.92266244547590082 0.68749999999917555 0 0 0.50000000000206146 0 0.121259140952891 0.43112117036853742 0 0.1371230538040123 0.56179824718362847 0 0.1082531754723032 0.6875000000007816 0 0 0.62500000000121547 0 0.1371230538040123 0.56179824718362847 0 0.75000000000032374 0.56698729811007709 0 0.88927506082488361 0.56409486310635837 0 0.82212678063041267 0.67678595194836966 0 0.81242894672211508 0.45500248311961472 0 0.88927506082488361 0.56409486310635837 0 0.75000000000032374 0.56698729811007709 0 0.69851598570178741 0.68211701800612057 0 0.56496004948275869 0.67675037307860475 0 0.62752533658682441 0.56838075195614346 0 0.69851598570178741 0.68211701800612057 0 0.76243180583607129 0.78687675331113149 0 0.62844955668446423 0.7850749770380413 0 0.23533274979922561 0.77093399389351469 0 0.18802967116092181 0.89415349436770275 0 0.10409951422139101 0.81206782209691231 0 0.121259140952891 0.43112117036853742 0 0.22257735880419699 0.47344721641341742 0 0.1371230538040123 0.56179824718362847 0 0.75000000000032374 0.56698729811007709 0 0.69851598570178741 0.68211701800612057 0 0.62752533658682441 0.56838075195614346 0 0.56496004948275869 0.67675037307860475 0 0.69851598570178741 0.68211701800612057 0 0.62844955668446423 0.7850749770380413 0 0.1371230538040123 0.56179824718362847 0 0.22257735880419699 0.47344721641341742 0 0.26982811998763367 0.56544650815856912 0 0.21809253452218619 0.65480892822618109 0 0.1371230538040123 0.56179824718362847 0 0.26982811998763367 0.56544650815856912 0 0.24418615484441761 0.35773612382016978 0 0.1082531754734323 0.31250000000117473 0 0.20767261601459541 0.25628918442207171 0 0.88173731489851925 0.33077402607778361 0 0.75000000000057243 0.35048094716480432 0 0.79891106056046712 0.25007334953587562 0 0.75000000000032374 0.56698729811007709 0 0.82212678063041267 0.67678595194836966 0 0.69851598570178741 0.68211701800612057 0 0.81249999999950517 0.1082531754733404 0 0.89658421694297741 0.1933620068391701 0 0.79891106056046712 0.25007334953587562 0 0.81249999999950517 0.1082531754733404 0 0.79891106056046712 0.25007334953587562 0 0.73983916756365475 0.17530677078674589 0 0.23533274979922561 0.77093399389351469 0 0.21809253452218619 0.65480892822618109 0 0.32607333794064219 0.67760114260606152 0 0.1082531754723032 0.6875000000007816 0 0.1371230538040123 0.56179824718362847 0 0.21809253452218619 0.65480892822618109 0 0.69851598570178741 0.68211701800612057 0 0.82212678063041267 0.67678595194836966 0 0.76243180583607129 0.78687675331113149 0 0.69010814643829166 0.89298495739101336 0 0.76243180583607129 0.78687675331113149 0 0.80886664387416207 0.89717308644237903 0 0.43750000000181222 0.89174682452709564 0 0.31258827852827581 0.89214793616708443 0 0.37776173212361452 0.78514649317305008 0 0.43750000000181222 0.89174682452709564 0 0.37500000000156292 1 0 0.31258827852827581 0.89214793616708443 0 0.121259140952891 0.43112117036853742 0 0 0.37500000000156292 0 0.1082531754734323 0.31250000000117473 0 0.50000000000206146 1 0 0.37500000000156292 1 0 0.43750000000181222 0.89174682452709564 0 0.31258827852827581 0.89214793616708443 0 0.18802967116092181 0.89415349436770275 0 0.23533274979922561 0.77093399389351469 0 0 0.50000000000206146 0 0 0.37500000000156292 0 0.121259140952891 0.43112117036853742 0 0.62844955668446423 0.7850749770380413 0 0.69010814643829166 0.89298495739101336 0 0.56327595140699671 0.89211526915426331 0 0.69010814643829166 0.89298495739101336 0 0.62500000000121547 1 0 0.56327595140699671 0.89211526915426331 0 0.25000000000104189 1 0 0.18802967116092181 0.89415349436770275 0 0.31258827852827581 0.89214793616708443 0 0.50000000000206146 1 0 0.43750000000181222 0.89174682452709564 0 0.56327595140699671 0.89211526915426331 0 0.56249999999885147 0.1082531754730395 0 0.62499999999901068 0 0 0.68749999999926592 0.1082531754732875 0 1 0.49999999999869221 0 1 0.62499999999901068 0 0.88927506082488361 0.56409486310635837 0 0 0.25000000000104189 0 0.12076953676380731 0.18690935762408761 0 0.1082531754734323 0.31250000000117473 0 0.49999999999869221 0 0 0.62499999999901068 0 0 0.56249999999885147 0.1082531754730395 0 0.62500000000121547 1 0 0.50000000000206146 1 0 0.56327595140699671 0.89211526915426331 0 0.37500000000156292 1 0 0.25000000000104189 1 0 0.31258827852827581 0.89214793616708443 0 0.31281086598417152 0.10449318608631281 0 0.37499999999904599 0 0 0.43749999999910871 0.1082531754729984 0 0.43750000000181222 0.89174682452709564 0 0.37776173212361452 0.78514649317305008 0 0.50046028868828263 0.78376912307435687 0 0 0.37500000000156292 0 0 0.25000000000104189 0 0.1082531754734323 0.31250000000117473 0 0.49999999999869221 0 0 0.56249999999885147 0.1082531754730395 0 0.43749999999910871 0.1082531754729984 0 0.43750000000181222 0.89174682452709564 0 0.50046028868828263 0.78376912307435687 0 0.56327595140699671 0.89211526915426331 0 0.74999999999934042 0 0 0.81249999999950517 0.1082531754733404 0 0.68749999999926592 0.1082531754732875 0 0.37499999999904599 0 0 0.49999999999869221 0 0 0.43749999999910871 0.1082531754729984 0 0.25000000000104189 1 0 0.12500000000052089 1 0 0.18802967116092181 0.89415349436770275 0 0.50046028868828263 0.78376912307435687 0 0.62844955668446423 0.7850749770380413 0 0.56327595140699671 0.89211526915426331 0 0.37776173212361452 0.78514649317305008 0 0.31258827852827581 0.89214793616708443 0 0.23533274979922561 0.77093399389351469 0 0.62499999999901068 0 0 0.74999999999934042 0 0 0.68749999999926592 0.1082531754732875 0 1 0.74999999999934042 0 1 0.87499999999967015 0 0.89051480781310632 0.79665793440246835 0 0 0.25000000000104189 0 0 0.12500000000052089 0 0.12076953676380731 0.18690935762408761 0 0.74999999999934042 0 0 0.87499999999967015 0 0 0.81249999999950517 0.1082531754733404 0 0.24999999999941069 0 0 0.37499999999904599 0 0 0.31281086598417152 0.10449318608631281 0 0.50046028868828263 0.78376912307435687 0 0.37776173212361452 0.78514649317305008 0 0.44078402250377968 0.67714785211715212 0 0.68768773896438518 0.4586835206367198 0 0.75000000000032374 0.56698729811007709 0 0.62752533658682441 0.56838075195614346 0 0.31411863959822661 0.24965544328045999 0 0.37953773393552892 0.34812185820708452 0 0.24418615484441761 0.35773612382016978 0 0.68768773896438518 0.4586835206367198 0 0.81242894672211508 0.45500248311961472 0 0.75000000000032374 0.56698729811007709 0 1 0.24999999999941069 0 1 0.37499999999904599 0 0.88173731489851925 0.33077402607778361 0 0 0.75000000000034761 0 0 0.62500000000121547 0 0.1082531754723032 0.6875000000007816 0 0.50048844149666749 0.56727788297625459 0 0.44078402250377968 0.67714785211715212 0 0.38694285807596462 0.5672991787102919 0 0.50108503093851109 0.35012252869403671 0 0.44301038174930041 0.45684931552185398 0 0.37953773393552892 0.34812185820708452 0 0.50046028868828263 0.78376912307435687 0 0.56496004948275869 0.67675037307860475 0 0.62844955668446423 0.7850749770380413 0 0.68768773896438518 0.4586835206367198 0 0.75000000000057243 0.35048094716480432 0 0.81242894672211508 0.45500248311961472 0 0.56349980387502452 0.45846841892908402 0 0.62512662990940393 0.35044303886909911 0 0.68768773896438518 0.4586835206367198 0 0.50048844149666749 0.56727788297625459 0 0.38694285807596462 0.5672991787102919 0 0.44301038174930041 0.45684931552185398 0 0.50046028868828263 0.78376912307435687 0 0.44078402250377968 0.67714785211715212 0 0.56496004948275869 0.67675037307860475 0 0.50108503093851109 0.35012252869403671 0 0.37953773393552892 0.34812185820708452 0 0.43750000000200551 0.24222777169198509 0 0.75000000000034761 1 0 0.62500000000121547 1 0 0.69010814643829166 0.89298495739101336 0 0.68768773896438518 0.4586835206367198 0 0.62512662990940393 0.35044303886909911 0 0.75000000000057243 0.35048094716480432 0 0.56496004948275869 0.67675037307860475 0 0.44078402250377968 0.67714785211715212 0 0.50048844149666749 0.56727788297625459 0 0.56349980387502452 0.45846841892908402 0 0.44301038174930041 0.45684931552185398 0 0.50108503093851109 0.35012252869403671 0 0.50048844149666749 0.56727788297625459 0 0.44301038174930041 0.45684931552185398 0 0.56349980387502452 0.45846841892908402 0 0.56349980387502452 0.45846841892908402 0 0.50108503093851109 0.35012252869403671 0 0.62512662990940393 0.35044303886909911 0 0.43750000000200551 0.24222777169198509 0 0.37953773393552892 0.34812185820708452 0 0.31411863959822661 0.24965544328045999 0 0.56496004948275869 0.67675037307860475 0 0.50048844149666749 0.56727788297625459 0 0.62752533658682441 0.56838075195614346 0 0.56349980387502452 0.45846841892908402 0 0.68768773896438518 0.4586835206367198 0 0.62752533658682441 0.56838075195614346 0 0.50048844149666749 0.56727788297625459 0 0.56349980387502452 0.45846841892908402 0 0.62752533658682441 0.56838075195614346 0 0.75000000000057243 0.35048094716480432 0 0.62512662990940393 0.35044303886909911 0 0.68668231842078242 0.24762892664808989 0 0.50108503093851109 0.35012252869403671 0 0.43750000000200551 0.24222777169198509 0 0.56250000000143974 0.2422277716920859 0 0.62512662990940393 0.35044303886909911 0 0.50108503093851109 0.35012252869403671 0 0.56250000000143974 0.2422277716920859 0 0.68668231842078242 0.24762892664808989 0 0.62512662990940393 0.35044303886909911 0 0.56250000000143974 0.2422277716920859 0 0.22257735880419699 0.47344721641341742 0 0.24418615484441761 0.35773612382016978 0 0.32815957677880009 0.4577243358118348 0 0.12076953676380731 0.18690935762408761 0 0.19185372118111221 0.092925648673580788 0 0.25103557339309318 0.17464499738446629 0 0.20767261601459541 0.25628918442207171 0 0.12076953676380731 0.18690935762408761 0 0.25103557339309318 0.17464499738446629 0 0 0.87499999999950151 0 0 0.75000000000034761 0 0.10409951422139101 0.81206782209691231 0 0.1249999999997731 0 0 0.24999999999941069 0 0 0.19185372118111221 0.092925648673580788 0 1 0.1249999999997731 0 1 0.24999999999941069 0 0.89658421694297741 0.1933620068391701 0 0.88927506082488361 0.56409486310635837 0 0.81242894672211508 0.45500248311961472 0 0.915464298762109 0.43749999999886913 0 0.87499999999950151 1 0 0.75000000000034761 1 0 0.80886664387416207 0.89717308644237903 0 0.75000000000034761 1 0 0.69010814643829166 0.89298495739101336 0 0.80886664387416207 0.89717308644237903 0 0.82212678063041267 0.67678595194836966 0 0.88927506082488361 0.56409486310635837 0 0.92266244547590082 0.68749999999917555 0 0 0.75000000000034761 0 0.1082531754723032 0.6875000000007816 0 0.10409951422139101 0.81206782209691231 0 0.24999999999941069 0 0 0.31281086598417152 0.10449318608631281 0 0.19185372118111221 0.092925648673580788 0 1 0.24999999999941069 0 0.88173731489851925 0.33077402607778361 0 0.89658421694297741 0.1933620068391701 0 0.32815957677880009 0.4577243358118348 0 0.38694285807596462 0.5672991787102919 0 0.26982811998763367 0.56544650815856912 0 0.76243180583607129 0.78687675331113149 0 0.89051480781310632 0.79665793440246835 0 0.80886664387416207 0.89717308644237903 0 0.38694285807596462 0.5672991787102919 0 0.44078402250377968 0.67714785211715212 0 0.32607333794064219 0.67760114260606152 0 0.37776173212361452 0.78514649317305008 0 0.23533274979922561 0.77093399389351469 0 0.32607333794064219 0.67760114260606152 0 1 0.49999999999869221 0 0.88927506082488361 0.56409486310635837 0 0.915464298762109 0.43749999999886913 0 0.88173731489851925 0.33077402607778361 0 1 0.37499999999904599 0 0.915464298762109 0.43749999999886913 0 0.24418615484441761 0.35773612382016978 0 0.37953773393552892 0.34812185820708452 0 0.32815957677880009 0.4577243358118348 0 0.44301038174930041 0.45684931552185398 0 0.38694285807596462 0.5672991787102919 0 0.32815957677880009 0.4577243358118348 0 0.88927506082488361 0.56409486310635837 0 1 0.62499999999901068 0 0.92266244547590082 0.68749999999917555 0 1 0.74999999999934042 0 0.89051480781310632 0.79665793440246835 0 0.92266244547590082 0.68749999999917555 0 0 1 0 0 0.87499999999950151 0 0.091506350946494744 0.90849364905351082 0 1 1 0 0.87499999999950151 1 0 0.90849364905363228 0.90849364905367769 0 0 0 0 0.1249999999997731 0 0 0.091506350946417708 0.091506350946618076 0 0 0.12500000000052089 0 0 0 0 0.091506350946417708 0.091506350946618076 0 1 0 0 1 0.1249999999997731 0 0.90849364905355434 0.091506350946296292 0 0.87499999999967015 0 0 1 0 0 0.90849364905355434 0.091506350946296292 0 0.12500000000052089 1 0 0 1 0 0.091506350946494744 0.90849364905351082 0 1 0.87499999999967015 0 1 1 0 0.90849364905363228 0.90849364905367769 0 0.38694285807596462 0.5672991787102919 0 0.32607333794064219 0.67760114260606152 0 0.26982811998763367 0.56544650815856912 0 0.31411863959822661 0.24965544328045999 0 0.24418615484441761 0.35773612382016978 0 0.20767261601459541 0.25628918442207171 0 0.1082531754734323 0.31250000000117473 0 0.12076953676380731 0.18690935762408761 0 0.20767261601459541 0.25628918442207171 0 0.75000000000057243 0.35048094716480432 0 0.68668231842078242 0.24762892664808989 0 0.79891106056046712 0.25007334953587562 0 0.22257735880419699 0.47344721641341742 0 0.32815957677880009 0.4577243358118348 0 0.26982811998763367 0.56544650815856912 0 0.44078402250377968 0.67714785211715212 0 0.37776173212361452 0.78514649317305008 0 0.32607333794064219 0.67760114260606152 0 0.89658421694297741 0.1933620068391701 0 0.88173731489851925 0.33077402607778361 0 0.79891106056046712 0.25007334953587562 0 1 0.37499999999904599 0 1 0.49999999999869221 0 0.915464298762109 0.43749999999886913 0 0.37953773393552892 0.34812185820708452 0 0.44301038174930041 0.45684931552185398 0 0.32815957677880009 0.4577243358118348 0 0.32607333794064219 0.67760114260606152 0 0.21809253452218619 0.65480892822618109 0 0.26982811998763367 0.56544650815856912 0 1 0.1249999999997731 0 0.89658421694297741 0.1933620068391701 0 0.90849364905355434 0.091506350946296292 0 0 0.87499999999950151 0 0.10409951422139101 0.81206782209691231 0 0.091506350946494744 0.90849364905351082 0 0.1249999999997731 0 0 0.19185372118111221 0.092925648673580788 0 0.091506350946417708 0.091506350946618076 0 1 0.62499999999901068 0 1 0.74999999999934042 0 0.92266244547590082 0.68749999999917555 0 0.18802967116092181 0.89415349436770275 0 0.12500000000052089 1 0 0.091506350946494744 0.90849364905351082 0 0.89051480781310632 0.79665793440246835 0 1 0.87499999999967015 0 0.90849364905363228 0.90849364905367769 0 0.12076953676380731 0.18690935762408761 0 0 0.12500000000052089 0 0.091506350946417708 0.091506350946618076 0 0.81249999999950517 0.1082531754733404 0 0.87499999999967015 0 0 0.90849364905355434 0.091506350946296292 0 0.87499999999950151 1 0 0.80886664387416207 0.89717308644237903 0 0.90849364905363228 0.90849364905367769 0 0.68668231842078242 0.24762892664808989 0 0.62499999999892575 0.17524047358135519 0 0.73983916756365475 0.17530677078674589 0 0.31281086598417152 0.10449318608631281 0 0.43749999999910871 0.1082531754729984 0 0.37500000000232431 0.17524047358384309 0 0.62499999999892575 0.17524047358135519 0 0.56250000000143974 0.2422277716920859 0 0.49999999999934441 0.1752404735815076 0 0.56249999999885147 0.1082531754730395 0 0.68749999999926592 0.1082531754732875 0 0.62499999999892575 0.17524047358135519 0 0.56249999999885147 0.1082531754730395 0 0.62499999999892575 0.17524047358135519 0 0.49999999999934441 0.1752404735815076 0 0.56250000000143974 0.2422277716920859 0 0.43750000000200551 0.24222777169198509 0 0.49999999999934441 0.1752404735815076 0 0.43749999999910871 0.1082531754729984 0 0.56249999999885147 0.1082531754730395 0 0.49999999999934441 0.1752404735815076 0 0.68668231842078242 0.24762892664808989 0 0.56250000000143974 0.2422277716920859 0 0.62499999999892575 0.17524047358135519 0 0.43750000000200551 0.24222777169198509 0 0.31411863959822661 0.24965544328045999 0 0.37500000000232431 0.17524047358384309 0 0.49999999999934441 0.1752404735815076 0 0.43750000000200551 0.24222777169198509 0 0.37500000000232431 0.17524047358384309 0 0.43749999999910871 0.1082531754729984 0 0.49999999999934441 0.1752404735815076 0 0.37500000000232431 0.17524047358384309 0 0.62499999999892575 0.17524047358135519 0 0.68749999999926592 0.1082531754732875 0 0.73983916756365475 0.17530677078674589 0 0.68749999999926592 0.1082531754732875 0 0.81249999999950517 0.1082531754733404 0 0.73983916756365475 0.17530677078674589 0 0.10409951422139101 0.81206782209691231 0 0.18802967116092181 0.89415349436770275 0 0.091506350946494744 0.90849364905351082 0 0.89658421694297741 0.1933620068391701 0 0.81249999999950517 0.1082531754733404 0 0.90849364905355434 0.091506350946296292 0 0.19185372118111221 0.092925648673580788 0 0.12076953676380731 0.18690935762408761 0 0.091506350946417708 0.091506350946618076 0 0.37500000000232431 0.17524047358384309 0 0.31411863959822661 0.24965544328045999 0 0.25103557339309318 0.17464499738446629 0 0.31281086598417152 0.10449318608631281 0 0.37500000000232431 0.17524047358384309 0 0.25103557339309318 0.17464499738446629 0 0.80886664387416207 0.89717308644237903 0 0.89051480781310632 0.79665793440246835 0 0.90849364905363228 0.90849364905367769 0 0.19185372118111221 0.092925648673580788 0 0.31281086598417152 0.10449318608631281 0 0.25103557339309318 0.17464499738446629 0 0.79891106056046712 0.25007334953587562 0 0.68668231842078242 0.24762892664808989 0 0.73983916756365475 0.17530677078674589 0 0.31411863959822661 0.24965544328045999 0 0.20767261601459541 0.25628918442207171 0 0.25103557339309318 0.17464499738446629 0 

        </DataArray>

      </Points>

      <Cells>

        <DataArray type="Int32" Name="connectivity" format="ascii">

0 1 2 3 4 5 6 7 8 9 10 11 12 13 14 15 16 17 18 19 20 21 22 23 24 25 26 27 28 29 30 31 32 33 34 35 36 37 38 39 40 41 42 43 44 45 46 47 48 49 50 51 52 53 54 55 56 57 58 59 60 61 62 63 64 65 66 67 68 69 70 71 72 73 74 75 76 77 78 79 80 81 82 83 84 85 86 87 88 89 90 91 92 93 94 95 96 97 98 99 100 101 102 103 104 105 106 107 108 109 110 111 112 113 114 115 116 117 118 119 120 121 122 123 124 125 126 127 128 129 130 131 132 133 134 135 136 137 138 139 140 141 142 143 144 145 146 147 148 149 150 151 152 153 154 155 156 157 158 159 160 161 162 163 164 165 166 167 168 169 170 171 172 173 174 175 176 177 178 179 180 181 182 183 184 185 186 187 188 189 190 191 192 193 194 195 196 197 198 199 200 201 202 203 204 205 206 207 208 209 210 211 212 213 214 215 216 217 218 219 220 221 222 223 224 225 226 227 228 229 230 231 232 233 234 235 236 237 238 239 240 241 242 243 244 245 246 247 248 249 250 251 252 253 254 255 256 257 258 259 260 261 262 263 264 265 266 267 268 269 270 271 272 273 274 275 276 277 278 279 280 281 282 283 284 285 286 287 288 289 290 291 292 293 294 295 296 297 298 299 300 301 302 303 304 305 306 307 308 309 310 311 312 313 314 315 316 317 318 319 320 321 322 323 324 325 326 327 328 329 330 331 332 333 334 335 336 337 338 339 340 341 342 343 344 345 346 347 348 349 350 351 352 353 354 355 356 357 358 359 360 361 362 363 364 365 366 367 368 369 370 371 372 373 374 375 376 377 378 379 380 381 382 383 384 385 386 387 388 389 390 391 392 393 394 395 396 397 398 399 400 401 402 403 404 405 406 407 408 409 410 411 412 413 414 415 416 417 418 419 420 421 422 423 424 425 426 427 428 429 430 431 432 433 434 435 436 437 438 439 440 441 442 443 444 445 446 447 448 449 450 451 452 453 454 455 456 457 458 459 460 461 462 463 464 465 466 467 468 469 470 471 472 473 474 475 476 477 478 479 480 481 482 483 484 485 

        </DataArray>

        <DataArray type="Int32" Name="offsets" format="ascii">

3 6 9 12 15 18 21 24 27 30 33 36 39 42 45 48 51 54 57 60 63 66 69 72 75 78 81 84 87 90 93 96 99 102 105 108 111 114 117 120 123 126 129 132 135 138 141 144 147 150 153 156 159 162 165 168 171 174 177 180 183 186 189 192 195 198 201 204 207 210 213 216 219 222 225 228 231 234 237 240 243 246 249 252 255 258 261 264 267 270 273 276 279 282 285 288 291 294 297 300 303 306 309 312 315 318 321 324 327 330 333 336 339 342 345 348 351 354 357 360 363 366 369 372 375 378 381 384 387 390 393 396 399 402 405 408 411 414 417 420 423 426 429 432 435 438 441 444 447 450 453 456 459 462 465 468 471 474 477 480 483 486 

        </DataArray>

        <DataArray type="Int32" Name="types" format="ascii">

5 5 5 5 5 5 5 5 5 5 5 5 5 5 5 5 5 5 5 5 5 5 5 5 5 5 5 5 5 5 5 5 5 5 5 5 5 5 5 5 5 5 5 5 5 5 5 5 5 5 5 5 5 5 5 5 5 5 5 5 5 5 5 5 5 5 5 5 5 5 5 5 5 5 5 5 5 5 5 5 5 5 5 5 5 5 5 5 5 5 5 5 5 5 5 5 5 5 5 5 5 5 5 5 5 5 5 5 5 5 5 5 5 5 5 5 5 5 5 5 5 5 5 5 5 5 5 5 5 5 5 5 5 5 5 5 5 5 5 5 5 5 5 5 5 5 5 5 5 5 5 5 5 5 5 5 5 5 5 5 5 5 

        </DataArray>

      </Cells>

    </Piece>

  </UnstructuredGrid>

</VTKFile>

