<?xml version="1.0"?>

<VTKFile type="UnstructuredGrid" version="0.1">

  <UnstructuredGrid>

    <Piece NumberOfPoints="486" NumberOfCells="162">

      <PointData>

        <DataArray type="Float64" Name="K" format="ascii">

1.00315565597473766e+00
1.00315565597473766e+00
1.00315565597473766e+00
9.82350537500302101e-01
9.82350537500302101e-01
9.82350537500302101e-01
9.42819779686555837e-01
9.42819779686555837e-01
9.42819779686555837e-01
1.05766936216476459e+00
1.05766936216476459e+00
1.05766936216476459e+00
9.28264040964687953e-01
9.28264040964687953e-01
9.28264040964687953e-01
1.04072506245781304e+00
1.04072506245781304e+00
1.04072506245781304e+00
9.66111717995358998e-01
9.66111717995358998e-01
9.66111717995358998e-01
1.05227621744610600e+00
1.05227621744610600e+00
1.05227621744610600e+00
1.05691863269053332e+00
1.05691863269053332e+00
1.05691863269053332e+00
1.02266705423807047e+00
1.02266705423807047e+00
1.02266705423807047e+00
9.50703552531149354e-01
9.50703552531149354e-01
9.50703552531149354e-01
9.72445363421505782e-01
9.72445363421505782e-01
9.72445363421505782e-01
1.03670457994669429e+00
1.03670457994669429e+00
1.03670457994669429e+00
1.03626142733300353e+00
1.03626142733300353e+00
1.03626142733300353e+00
1.03029144506160586e+00
1.03029144506160586e+00
1.03029144506160586e+00
1.06129294756597226e+00
1.06129294756597226e+00
1.06129294756597226e+00
1.02857892146917629e+00
1.02857892146917629e+00
1.02857892146917629e+00
9.28170012028234237e-01
9.28170012028234237e-01
9.28170012028234237e-01
1.04931041906892042e+00
1.04931041906892042e+00
1.04931041906892042e+00
1.03816928372222872e+00
1.03816928372222872e+00
1.03816928372222872e+00
9.29804160080923592e-01
9.29804160080923592e-01
9.29804160080923592e-01
9.43753544354785978e-01
9.43753544354785978e-01
9.43753544354785978e-01
9.59599662873211523e-01
9.59599662873211523e-01
9.59599662873211523e-01
1.06924799195493248e+00
1.06924799195493248e+00
1.06924799195493248e+00
1.05972636826971467e+00
1.05972636826971467e+00
1.05972636826971467e+00
1.06580094374832601e+00
1.06580094374832601e+00
1.06580094374832601e+00
1.05829770852087779e+00
1.05829770852087779e+00
1.05829770852087779e+00
1.00045512839734774e+00
1.00045512839734774e+00
1.00045512839734774e+00
9.58943393180949344e-01
9.58943393180949344e-01
9.58943393180949344e-01
1.06723690280568095e+00
1.06723690280568095e+00
1.06723690280568095e+00
1.06146868309637887e+00
1.06146868309637887e+00
1.06146868309637887e+00
1.08281511061584990e+00
1.08281511061584990e+00
1.08281511061584990e+00
1.07209273737566746e+00
1.07209273737566746e+00
1.07209273737566746e+00
9.69082042861076354e-01
9.69082042861076354e-01
9.69082042861076354e-01
1.06605810481648966e+00
1.06605810481648966e+00
1.06605810481648966e+00
1.04530523106042361e+00
1.04530523106042361e+00
1.04530523106042361e+00
9.68610819178335802e-01
9.68610819178335802e-01
9.68610819178335802e-01
1.03788003466521639e+00
1.03788003466521639e+00
1.03788003466521639e+00
1.02164039601949441e+00
1.02164039601949441e+00
1.02164039601949441e+00
1.05585868876313427e+00
1.05585868876313427e+00
1.05585868876313427e+00
1.05920785578013255e+00
1.05920785578013255e+00
1.05920785578013255e+00
9.76080289123766542e-01
9.76080289123766542e-01
9.76080289123766542e-01
9.89469322223008652e-01
9.89469322223008652e-01
9.89469322223008652e-01
1.01741649983255122e+00
1.01741649983255122e+00
1.01741649983255122e+00
9.49583250774280185e-01
9.49583250774280185e-01
9.49583250774280185e-01
1.02676092318828838e+00
1.02676092318828838e+00
1.02676092318828838e+00
1.05514963909605464e+00
1.05514963909605464e+00
1.05514963909605464e+00
9.75167463237426313e-01
9.75167463237426313e-01
9.75167463237426313e-01
1.08428612658813672e+00
1.08428612658813672e+00
1.08428612658813672e+00
1.01044030612707458e+00
1.01044030612707458e+00
1.01044030612707458e+00
9.33176026159259098e-01
9.33176026159259098e-01
9.33176026159259098e-01
1.06580075879169889e+00
1.06580075879169889e+00
1.06580075879169889e+00
1.00402697131985885e+00
1.00402697131985885e+00
1.00402697131985885e+00
9.43360499036295153e-01
9.43360499036295153e-01
9.43360499036295153e-01
1.06451296684117991e+00
1.06451296684117991e+00
1.06451296684117991e+00
1.04387225719240773e+00
1.04387225719240773e+00
1.04387225719240773e+00
1.05969938487953796e+00
1.05969938487953796e+00
1.05969938487953796e+00
9.77430865451902275e-01
9.77430865451902275e-01
9.77430865451902275e-01
1.01720973346434929e+00
1.01720973346434929e+00
1.01720973346434929e+00
1.06089200837398279e+00
1.06089200837398279e+00
1.06089200837398279e+00
9.98706434011834232e-01
9.98706434011834232e-01
9.98706434011834232e-01
1.01402960367434281e+00
1.01402960367434281e+00
1.01402960367434281e+00
1.07526831029284953e+00
1.07526831029284953e+00
1.07526831029284953e+00
1.04745382942551224e+00
1.04745382942551224e+00
1.04745382942551224e+00
9.58863527569744023e-01
9.58863527569744023e-01
9.58863527569744023e-01
1.05553141760483338e+00
1.05553141760483338e+00
1.05553141760483338e+00
1.07102468340257229e+00
1.07102468340257229e+00
1.07102468340257229e+00
9.87384246930724685e-01
9.87384246930724685e-01
9.87384246930724685e-01
1.02406343459417903e+00
1.02406343459417903e+00
1.02406343459417903e+00
9.38932598118618511e-01
9.38932598118618511e-01
9.38932598118618511e-01
1.03710599438436324e+00
1.03710599438436324e+00
1.03710599438436324e+00
1.06363617812137101e+00
1.06363617812137101e+00
1.06363617812137101e+00
1.02663692934877449e+00
1.02663692934877449e+00
1.02663692934877449e+00
9.90618019221877311e-01
9.90618019221877311e-01
9.90618019221877311e-01
1.04728994364032602e+00
1.04728994364032602e+00
1.04728994364032602e+00
9.28548856119654209e-01
9.28548856119654209e-01
9.28548856119654209e-01
1.01300493411474624e+00
1.01300493411474624e+00
1.01300493411474624e+00
1.06183823224080176e+00
1.06183823224080176e+00
1.06183823224080176e+00
1.02665885851449867e+00
1.02665885851449867e+00
1.02665885851449867e+00
9.57075822003190968e-01
9.57075822003190968e-01
9.57075822003190968e-01
9.77941245912873236e-01
9.77941245912873236e-01
9.77941245912873236e-01
9.81888231979875958e-01
9.81888231979875958e-01
9.81888231979875958e-01
9.47783433380000484e-01
9.47783433380000484e-01
9.47783433380000484e-01
1.01097432303114387e+00
1.01097432303114387e+00
1.01097432303114387e+00
1.02360633577679216e+00
1.02360633577679216e+00
1.02360633577679216e+00
9.99005055825312294e-01
9.99005055825312294e-01
9.99005055825312294e-01
1.06579415144828515e+00
1.06579415144828515e+00
1.06579415144828515e+00
9.31459991558390987e-01
9.31459991558390987e-01
9.31459991558390987e-01
9.74153558663443442e-01
9.74153558663443442e-01
9.74153558663443442e-01
1.02418341096917698e+00
1.02418341096917698e+00
1.02418341096917698e+00
9.36105597777718290e-01
9.36105597777718290e-01
9.36105597777718290e-01
1.02514734126737928e+00
1.02514734126737928e+00
1.02514734126737928e+00
1.00323591535604151e+00
1.00323591535604151e+00
1.00323591535604151e+00
1.00490943684406853e+00
1.00490943684406853e+00
1.00490943684406853e+00
1.04933071515617948e+00
1.04933071515617948e+00
1.04933071515617948e+00
1.09375421359922287e+00
1.09375421359922287e+00
1.09375421359922287e+00
1.02140884295532608e+00
1.02140884295532608e+00
1.02140884295532608e+00
1.03836445249894571e+00
1.03836445249894571e+00
1.03836445249894571e+00
1.04130840943100744e+00
1.04130840943100744e+00
1.04130840943100744e+00
1.01249556543054187e+00
1.01249556543054187e+00
1.01249556543054187e+00
1.00269902106646325e+00
1.00269902106646325e+00
1.00269902106646325e+00
1.03817868881777597e+00
1.03817868881777597e+00
1.03817868881777597e+00
1.08363455572437406e+00
1.08363455572437406e+00
1.08363455572437406e+00
9.68960698392604236e-01
9.68960698392604236e-01
9.68960698392604236e-01
1.05708914602037818e+00
1.05708914602037818e+00
1.05708914602037818e+00
1.03714600888887576e+00
1.03714600888887576e+00
1.03714600888887576e+00
1.04523176098864590e+00
1.04523176098864590e+00
1.04523176098864590e+00
1.00466875029097658e+00
1.00466875029097658e+00
1.00466875029097658e+00
1.04658064221710512e+00
1.04658064221710512e+00
1.04658064221710512e+00
9.47540764342068242e-01
9.47540764342068242e-01
9.47540764342068242e-01
9.71573363596098472e-01
9.71573363596098472e-01
9.71573363596098472e-01
9.91519400064731271e-01
9.91519400064731271e-01
9.91519400064731271e-01
1.00831593377414142e+00
1.00831593377414142e+00
1.00831593377414142e+00
1.01401897411465969e+00
1.01401897411465969e+00
1.01401897411465969e+00
1.01690123066836713e+00
1.01690123066836713e+00
1.01690123066836713e+00
1.06007805089659701e+00
1.06007805089659701e+00
1.06007805089659701e+00
1.07786996168648974e+00
1.07786996168648974e+00
1.07786996168648974e+00
1.06574764166800229e+00
1.06574764166800229e+00
1.06574764166800229e+00
1.04118680322487034e+00
1.04118680322487034e+00
1.04118680322487034e+00
1.04337437220466445e+00
1.04337437220466445e+00
1.04337437220466445e+00
1.01583745455378360e+00
1.01583745455378360e+00
1.01583745455378360e+00
9.97047783204636828e-01
9.97047783204636828e-01
9.97047783204636828e-01
9.70380046681592945e-01
9.70380046681592945e-01
9.70380046681592945e-01
9.88841902135385475e-01
9.88841902135385475e-01
9.88841902135385475e-01
1.07570735338922452e+00
1.07570735338922452e+00
1.07570735338922452e+00
9.40380502176789257e-01
9.40380502176789257e-01
9.40380502176789257e-01
1.06487081692235996e+00
1.06487081692235996e+00
1.06487081692235996e+00
1.07305042714455512e+00
1.07305042714455512e+00
1.07305042714455512e+00
1.02178513820826544e+00
1.02178513820826544e+00
1.02178513820826544e+00
9.49933155720609324e-01
9.49933155720609324e-01
9.49933155720609324e-01
9.78089741009001146e-01
9.78089741009001146e-01
9.78089741009001146e-01
1.08183338247437377e+00
1.08183338247437377e+00
1.08183338247437377e+00
1.02257478504513211e+00
1.02257478504513211e+00
1.02257478504513211e+00
1.05176089584676702e+00
1.05176089584676702e+00
1.05176089584676702e+00
9.96600141065824952e-01
9.96600141065824952e-01
9.96600141065824952e-01
1.05697658202847289e+00
1.05697658202847289e+00
1.05697658202847289e+00
1.02346468247076561e+00
1.02346468247076561e+00
1.02346468247076561e+00
1.06080236685466334e+00
1.06080236685466334e+00
1.06080236685466334e+00
1.03450912110779458e+00
1.03450912110779458e+00
1.03450912110779458e+00
1.03775139827292739e+00
1.03775139827292739e+00
1.03775139827292739e+00
1.04613673151350461e+00
1.04613673151350461e+00
1.04613673151350461e+00
9.71195655876123887e-01
9.71195655876123887e-01
9.71195655876123887e-01
9.60707914379775096e-01
9.60707914379775096e-01
9.60707914379775096e-01
9.92095878678735943e-01
9.92095878678735943e-01
9.92095878678735943e-01
9.56073832911364385e-01
9.56073832911364385e-01
9.56073832911364385e-01
9.28324674831651264e-01
9.28324674831651264e-01
9.28324674831651264e-01
9.29769040363859767e-01
9.29769040363859767e-01
9.29769040363859767e-01
1.01487247858430396e+00
1.01487247858430396e+00
1.01487247858430396e+00
9.57061712102307727e-01
9.57061712102307727e-01
9.57061712102307727e-01
9.31164816999500933e-01
9.31164816999500933e-01
9.31164816999500933e-01
9.35192308144822571e-01
9.35192308144822571e-01
9.35192308144822571e-01
1.02947348276289374e+00
1.02947348276289374e+00
1.02947348276289374e+00
1.03455294538379716e+00
1.03455294538379716e+00
1.03455294538379716e+00
1.03956947607990724e+00
1.03956947607990724e+00
1.03956947607990724e+00
1.06183202390723497e+00
1.06183202390723497e+00
1.06183202390723497e+00
1.04163799842190152e+00
1.04163799842190152e+00
1.04163799842190152e+00
9.91202230702812770e-01
9.91202230702812770e-01
9.91202230702812770e-01
1.00304687641040768e+00
1.00304687641040768e+00
1.00304687641040768e+00
1.04060228038699920e+00
1.04060228038699920e+00
1.04060228038699920e+00
1.02782353006148286e+00
1.02782353006148286e+00
1.02782353006148286e+00
1.06790336772791039e+00
1.06790336772791039e+00
1.06790336772791039e+00
9.93578511143640264e-01
9.93578511143640264e-01
9.93578511143640264e-01


        </DataArray>

      </PointData>

      <CellData/>

      <Points>

        <DataArray type="Float64" NumberOfComponents="3" format="ascii">

0.1082531754723032 0.6875000000007816 0 0.23533274979922561 0.77093399389351469 0 0.10409951422139101 0.81206782209691231 0 0.23533274979922561 0.77093399389351469 0 0.1082531754723032 0.6875000000007816 0 0.21809253452218619 0.65480892822618109 0 0.24418615484441761 0.35773612382016978 0 0.121259140952891 0.43112117036853742 0 0.1082531754734323 0.31250000000117473 0 0.75000000000057243 0.35048094716480432 0 0.88173731489851925 0.33077402607778361 0 0.81242894672211508 0.45500248311961472 0 0.121259140952891 0.43112117036853742 0 0.24418615484441761 0.35773612382016978 0 0.22257735880419699 0.47344721641341742 0 0.81242894672211508 0.45500248311961472 0 0.88173731489851925 0.33077402607778361 0 0.915464298762109 0.43749999999886913 0 0 0.62500000000121547 0 0 0.50000000000206146 0 0.1371230538040123 0.56179824718362847 0 0.82212678063041267 0.67678595194836966 0 0.89051480781310632 0.79665793440246835 0 0.76243180583607129 0.78687675331113149 0 0.76243180583607129 0.78687675331113149 0 0.69010814643829166 0.89298495739101336 0 0.62844955668446423 0.7850749770380413 0 0.89051480781310632 0.79665793440246835 0 0.82212678063041267 0.67678595194836966 0 0.92266244547590082 0.68749999999917555 0 0 0.50000000000206146 0 0.121259140952891 0.43112117036853742 0 0.1371230538040123 0.56179824718362847 0 0.1082531754723032 0.6875000000007816 0 0 0.62500000000121547 0 0.1371230538040123 0.56179824718362847 0 0.75000000000032374 0.56698729811007709 0 0.88927506082488361 0.56409486310635837 0 0.82212678063041267 0.67678595194836966 0 0.81242894672211508 0.45500248311961472 0 0.88927506082488361 0.56409486310635837 0 0.75000000000032374 0.56698729811007709 0 0.69851598570178741 0.68211701800612057 0 0.56496004948275869 0.67675037307860475 0 0.62752533658682441 0.56838075195614346 0 0.69851598570178741 0.68211701800612057 0 0.76243180583607129 0.78687675331113149 0 0.62844955668446423 0.7850749770380413 0 0.23533274979922561 0.77093399389351469 0 0.18802967116092181 0.89415349436770275 0 0.10409951422139101 0.81206782209691231 0 0.121259140952891 0.43112117036853742 0 0.22257735880419699 0.47344721641341742 0 0.1371230538040123 0.56179824718362847 0 0.75000000000032374 0.56698729811007709 0 0.69851598570178741 0.68211701800612057 0 0.62752533658682441 0.56838075195614346 0 0.56496004948275869 0.67675037307860475 0 0.69851598570178741 0.68211701800612057 0 0.62844955668446423 0.7850749770380413 0 0.1371230538040123 0.56179824718362847 0 0.22257735880419699 0.47344721641341742 0 0.26982811998763367 0.56544650815856912 0 0.21809253452218619 0.65480892822618109 0 0.1371230538040123 0.56179824718362847 0 0.26982811998763367 0.56544650815856912 0 0.24418615484441761 0.35773612382016978 0 0.1082531754734323 0.31250000000117473 0 0.20767261601459541 0.25628918442207171 0 0.88173731489851925 0.33077402607778361 0 0.75000000000057243 0.35048094716480432 0 0.79891106056046712 0.25007334953587562 0 0.75000000000032374 0.56698729811007709 0 0.82212678063041267 0.67678595194836966 0 0.69851598570178741 0.68211701800612057 0 0.81249999999950517 0.1082531754733404 0 0.89658421694297741 0.1933620068391701 0 0.79891106056046712 0.25007334953587562 0 0.81249999999950517 0.1082531754733404 0 0.79891106056046712 0.25007334953587562 0 0.73983916756365475 0.17530677078674589 0 0.23533274979922561 0.77093399389351469 0 0.21809253452218619 0.65480892822618109 0 0.32607333794064219 0.67760114260606152 0 0.1082531754723032 0.6875000000007816 0 0.1371230538040123 0.56179824718362847 0 0.21809253452218619 0.65480892822618109 0 0.69851598570178741 0.68211701800612057 0 0.82212678063041267 0.67678595194836966 0 0.76243180583607129 0.78687675331113149 0 0.69010814643829166 0.89298495739101336 0 0.76243180583607129 0.78687675331113149 0 0.80886664387416207 0.89717308644237903 0 0.43750000000181222 0.89174682452709564 0 0.31258827852827581 0.89214793616708443 0 0.37776173212361452 0.78514649317305008 0 0.43750000000181222 0.89174682452709564 0 0.37500000000156292 1 0 0.31258827852827581 0.89214793616708443 0 0.121259140952891 0.43112117036853742 0 0 0.37500000000156292 0 0.1082531754734323 0.31250000000117473 0 0.50000000000206146 1 0 0.37500000000156292 1 0 0.43750000000181222 0.89174682452709564 0 0.31258827852827581 0.89214793616708443 0 0.18802967116092181 0.89415349436770275 0 0.23533274979922561 0.77093399389351469 0 0 0.50000000000206146 0 0 0.37500000000156292 0 0.121259140952891 0.43112117036853742 0 0.62844955668446423 0.7850749770380413 0 0.69010814643829166 0.89298495739101336 0 0.56327595140699671 0.89211526915426331 0 0.69010814643829166 0.89298495739101336 0 0.62500000000121547 1 0 0.56327595140699671 0.89211526915426331 0 0.25000000000104189 1 0 0.18802967116092181 0.89415349436770275 0 0.31258827852827581 0.89214793616708443 0 0.50000000000206146 1 0 0.43750000000181222 0.89174682452709564 0 0.56327595140699671 0.89211526915426331 0 0.56249999999885147 0.1082531754730395 0 0.62499999999901068 0 0 0.68749999999926592 0.1082531754732875 0 1 0.49999999999869221 0 1 0.62499999999901068 0 0.88927506082488361 0.56409486310635837 0 0 0.25000000000104189 0 0.12076953676380731 0.18690935762408761 0 0.1082531754734323 0.31250000000117473 0 0.49999999999869221 0 0 0.62499999999901068 0 0 0.56249999999885147 0.1082531754730395 0 0.62500000000121547 1 0 0.50000000000206146 1 0 0.56327595140699671 0.89211526915426331 0 0.37500000000156292 1 0 0.25000000000104189 1 0 0.31258827852827581 0.89214793616708443 0 0.31281086598417152 0.10449318608631281 0 0.37499999999904599 0 0 0.43749999999910871 0.1082531754729984 0 0.43750000000181222 0.89174682452709564 0 0.37776173212361452 0.78514649317305008 0 0.50046028868828263 0.78376912307435687 0 0 0.37500000000156292 0 0 0.25000000000104189 0 0.1082531754734323 0.31250000000117473 0 0.49999999999869221 0 0 0.56249999999885147 0.1082531754730395 0 0.43749999999910871 0.1082531754729984 0 0.43750000000181222 0.89174682452709564 0 0.50046028868828263 0.78376912307435687 0 0.56327595140699671 0.89211526915426331 0 0.74999999999934042 0 0 0.81249999999950517 0.1082531754733404 0 0.68749999999926592 0.1082531754732875 0 0.37499999999904599 0 0 0.49999999999869221 0 0 0.43749999999910871 0.1082531754729984 0 0.25000000000104189 1 0 0.12500000000052089 1 0 0.18802967116092181 0.89415349436770275 0 0.50046028868828263 0.78376912307435687 0 0.62844955668446423 0.7850749770380413 0 0.56327595140699671 0.89211526915426331 0 0.37776173212361452 0.78514649317305008 0 0.31258827852827581 0.89214793616708443 0 0.23533274979922561 0.77093399389351469 0 0.62499999999901068 0 0 0.74999999999934042 0 0 0.68749999999926592 0.1082531754732875 0 1 0.74999999999934042 0 1 0.87499999999967015 0 0.89051480781310632 0.79665793440246835 0 0 0.25000000000104189 0 0 0.12500000000052089 0 0.12076953676380731 0.18690935762408761 0 0.74999999999934042 0 0 0.87499999999967015 0 0 0.81249999999950517 0.1082531754733404 0 0.24999999999941069 0 0 0.37499999999904599 0 0 0.31281086598417152 0.10449318608631281 0 0.50046028868828263 0.78376912307435687 0 0.37776173212361452 0.78514649317305008 0 0.44078402250377968 0.67714785211715212 0 0.68768773896438518 0.4586835206367198 0 0.75000000000032374 0.56698729811007709 0 0.62752533658682441 0.56838075195614346 0 0.31411863959822661 0.24965544328045999 0 0.37953773393552892 0.34812185820708452 0 0.24418615484441761 0.35773612382016978 0 0.68768773896438518 0.4586835206367198 0 0.81242894672211508 0.45500248311961472 0 0.75000000000032374 0.56698729811007709 0 1 0.24999999999941069 0 1 0.37499999999904599 0 0.88173731489851925 0.33077402607778361 0 0 0.75000000000034761 0 0 0.62500000000121547 0 0.1082531754723032 0.6875000000007816 0 0.50048844149666749 0.56727788297625459 0 0.44078402250377968 0.67714785211715212 0 0.38694285807596462 0.5672991787102919 0 0.50108503093851109 0.35012252869403671 0 0.44301038174930041 0.45684931552185398 0 0.37953773393552892 0.34812185820708452 0 0.50046028868828263 0.78376912307435687 0 0.56496004948275869 0.67675037307860475 0 0.62844955668446423 0.7850749770380413 0 0.68768773896438518 0.4586835206367198 0 0.75000000000057243 0.35048094716480432 0 0.81242894672211508 0.45500248311961472 0 0.56349980387502452 0.45846841892908402 0 0.62512662990940393 0.35044303886909911 0 0.68768773896438518 0.4586835206367198 0 0.50048844149666749 0.56727788297625459 0 0.38694285807596462 0.5672991787102919 0 0.44301038174930041 0.45684931552185398 0 0.50046028868828263 0.78376912307435687 0 0.44078402250377968 0.67714785211715212 0 0.56496004948275869 0.67675037307860475 0 0.50108503093851109 0.35012252869403671 0 0.37953773393552892 0.34812185820708452 0 0.43750000000200551 0.24222777169198509 0 0.75000000000034761 1 0 0.62500000000121547 1 0 0.69010814643829166 0.89298495739101336 0 0.68768773896438518 0.4586835206367198 0 0.62512662990940393 0.35044303886909911 0 0.75000000000057243 0.35048094716480432 0 0.56496004948275869 0.67675037307860475 0 0.44078402250377968 0.67714785211715212 0 0.50048844149666749 0.56727788297625459 0 0.56349980387502452 0.45846841892908402 0 0.44301038174930041 0.45684931552185398 0 0.50108503093851109 0.35012252869403671 0 0.50048844149666749 0.56727788297625459 0 0.44301038174930041 0.45684931552185398 0 0.56349980387502452 0.45846841892908402 0 0.56349980387502452 0.45846841892908402 0 0.50108503093851109 0.35012252869403671 0 0.62512662990940393 0.35044303886909911 0 0.43750000000200551 0.24222777169198509 0 0.37953773393552892 0.34812185820708452 0 0.31411863959822661 0.24965544328045999 0 0.56496004948275869 0.67675037307860475 0 0.50048844149666749 0.56727788297625459 0 0.62752533658682441 0.56838075195614346 0 0.56349980387502452 0.45846841892908402 0 0.68768773896438518 0.4586835206367198 0 0.62752533658682441 0.56838075195614346 0 0.50048844149666749 0.56727788297625459 0 0.56349980387502452 0.45846841892908402 0 0.62752533658682441 0.56838075195614346 0 0.75000000000057243 0.35048094716480432 0 0.62512662990940393 0.35044303886909911 0 0.68668231842078242 0.24762892664808989 0 0.50108503093851109 0.35012252869403671 0 0.43750000000200551 0.24222777169198509 0 0.56250000000143974 0.2422277716920859 0 0.62512662990940393 0.35044303886909911 0 0.50108503093851109 0.35012252869403671 0 0.56250000000143974 0.2422277716920859 0 0.68668231842078242 0.24762892664808989 0 0.62512662990940393 0.35044303886909911 0 0.56250000000143974 0.2422277716920859 0 0.22257735880419699 0.47344721641341742 0 0.24418615484441761 0.35773612382016978 0 0.32815957677880009 0.4577243358118348 0 0.12076953676380731 0.18690935762408761 0 0.19185372118111221 0.092925648673580788 0 0.25103557339309318 0.17464499738446629 0 0.20767261601459541 0.25628918442207171 0 0.12076953676380731 0.18690935762408761 0 0.25103557339309318 0.17464499738446629 0 0 0.87499999999950151 0 0 0.75000000000034761 0 0.10409951422139101 0.81206782209691231 0 0.1249999999997731 0 0 0.24999999999941069 0 0 0.19185372118111221 0.092925648673580788 0 1 0.1249999999997731 0 1 0.24999999999941069 0 0.89658421694297741 0.1933620068391701 0 0.88927506082488361 0.56409486310635837 0 0.81242894672211508 0.45500248311961472 0 0.915464298762109 0.43749999999886913 0 0.87499999999950151 1 0 0.75000000000034761 1 0 0.80886664387416207 0.89717308644237903 0 0.75000000000034761 1 0 0.69010814643829166 0.89298495739101336 0 0.80886664387416207 0.89717308644237903 0 0.82212678063041267 0.67678595194836966 0 0.88927506082488361 0.56409486310635837 0 0.92266244547590082 0.68749999999917555 0 0 0.75000000000034761 0 0.1082531754723032 0.6875000000007816 0 0.10409951422139101 0.81206782209691231 0 0.24999999999941069 0 0 0.31281086598417152 0.10449318608631281 0 0.19185372118111221 0.092925648673580788 0 1 0.24999999999941069 0 0.88173731489851925 0.33077402607778361 0 0.89658421694297741 0.1933620068391701 0 0.32815957677880009 0.4577243358118348 0 0.38694285807596462 0.5672991787102919 0 0.26982811998763367 0.56544650815856912 0 0.76243180583607129 0.78687675331113149 0 0.89051480781310632 0.79665793440246835 0 0.80886664387416207 0.89717308644237903 0 0.38694285807596462 0.5672991787102919 0 0.44078402250377968 0.67714785211715212 0 0.32607333794064219 0.67760114260606152 0 0.37776173212361452 0.78514649317305008 0 0.23533274979922561 0.77093399389351469 0 0.32607333794064219 0.67760114260606152 0 1 0.49999999999869221 0 0.88927506082488361 0.56409486310635837 0 0.915464298762109 0.43749999999886913 0 0.88173731489851925 0.33077402607778361 0 1 0.37499999999904599 0 0.915464298762109 0.43749999999886913 0 0.24418615484441761 0.35773612382016978 0 0.37953773393552892 0.34812185820708452 0 0.32815957677880009 0.4577243358118348 0 0.44301038174930041 0.45684931552185398 0 0.38694285807596462 0.5672991787102919 0 0.32815957677880009 0.4577243358118348 0 0.88927506082488361 0.56409486310635837 0 1 0.62499999999901068 0 0.92266244547590082 0.68749999999917555 0 1 0.74999999999934042 0 0.89051480781310632 0.79665793440246835 0 0.92266244547590082 0.68749999999917555 0 0 1 0 0 0.87499999999950151 0 0.091506350946494744 0.90849364905351082 0 1 1 0 0.87499999999950151 1 0 0.90849364905363228 0.90849364905367769 0 0 0 0 0.1249999999997731 0 0 0.091506350946417708 0.091506350946618076 0 0 0.12500000000052089 0 0 0 0 0.091506350946417708 0.091506350946618076 0 1 0 0 1 0.1249999999997731 0 0.90849364905355434 0.091506350946296292 0 0.87499999999967015 0 0 1 0 0 0.90849364905355434 0.091506350946296292 0 0.12500000000052089 1 0 0 1 0 0.091506350946494744 0.90849364905351082 0 1 0.87499999999967015 0 1 1 0 0.90849364905363228 0.90849364905367769 0 0.38694285807596462 0.5672991787102919 0 0.32607333794064219 0.67760114260606152 0 0.26982811998763367 0.56544650815856912 0 0.31411863959822661 0.24965544328045999 0 0.24418615484441761 0.35773612382016978 0 0.20767261601459541 0.25628918442207171 0 0.1082531754734323 0.31250000000117473 0 0.12076953676380731 0.18690935762408761 0 0.20767261601459541 0.25628918442207171 0 0.75000000000057243 0.35048094716480432 0 0.68668231842078242 0.24762892664808989 0 0.79891106056046712 0.25007334953587562 0 0.22257735880419699 0.47344721641341742 0 0.32815957677880009 0.4577243358118348 0 0.26982811998763367 0.56544650815856912 0 0.44078402250377968 0.67714785211715212 0 0.37776173212361452 0.78514649317305008 0 0.32607333794064219 0.67760114260606152 0 0.89658421694297741 0.1933620068391701 0 0.88173731489851925 0.33077402607778361 0 0.79891106056046712 0.25007334953587562 0 1 0.37499999999904599 0 1 0.49999999999869221 0 0.915464298762109 0.43749999999886913 0 0.37953773393552892 0.34812185820708452 0 0.44301038174930041 0.45684931552185398 0 0.32815957677880009 0.4577243358118348 0 0.32607333794064219 0.67760114260606152 0 0.21809253452218619 0.65480892822618109 0 0.26982811998763367 0.56544650815856912 0 1 0.1249999999997731 0 0.89658421694297741 0.1933620068391701 0 0.90849364905355434 0.091506350946296292 0 0 0.87499999999950151 0 0.10409951422139101 0.81206782209691231 0 0.091506350946494744 0.90849364905351082 0 0.1249999999997731 0 0 0.19185372118111221 0.092925648673580788 0 0.091506350946417708 0.091506350946618076 0 1 0.62499999999901068 0 1 0.74999999999934042 0 0.92266244547590082 0.68749999999917555 0 0.18802967116092181 0.89415349436770275 0 0.12500000000052089 1 0 0.091506350946494744 0.90849364905351082 0 0.89051480781310632 0.79665793440246835 0 1 0.87499999999967015 0 0.90849364905363228 0.90849364905367769 0 0.12076953676380731 0.18690935762408761 0 0 0.12500000000052089 0 0.091506350946417708 0.091506350946618076 0 0.81249999999950517 0.1082531754733404 0 0.87499999999967015 0 0 0.90849364905355434 0.091506350946296292 0 0.87499999999950151 1 0 0.80886664387416207 0.89717308644237903 0 0.90849364905363228 0.90849364905367769 0 0.68668231842078242 0.24762892664808989 0 0.62499999999892575 0.17524047358135519 0 0.73983916756365475 0.17530677078674589 0 0.31281086598417152 0.10449318608631281 0 0.43749999999910871 0.1082531754729984 0 0.37500000000232431 0.17524047358384309 0 0.62499999999892575 0.17524047358135519 0 0.56250000000143974 0.2422277716920859 0 0.49999999999934441 0.1752404735815076 0 0.56249999999885147 0.1082531754730395 0 0.68749999999926592 0.1082531754732875 0 0.62499999999892575 0.17524047358135519 0 0.56249999999885147 0.1082531754730395 0 0.62499999999892575 0.17524047358135519 0 0.49999999999934441 0.1752404735815076 0 0.56250000000143974 0.2422277716920859 0 0.43750000000200551 0.24222777169198509 0 0.49999999999934441 0.1752404735815076 0 0.43749999999910871 0.1082531754729984 0 0.56249999999885147 0.1082531754730395 0 0.49999999999934441 0.1752404735815076 0 0.68668231842078242 0.24762892664808989 0 0.56250000000143974 0.2422277716920859 0 0.62499999999892575 0.17524047358135519 0 0.43750000000200551 0.24222777169198509 0 0.31411863959822661 0.24965544328045999 0 0.37500000000232431 0.17524047358384309 0 0.49999999999934441 0.1752404735815076 0 0.43750000000200551 0.24222777169198509 0 0.37500000000232431 0.17524047358384309 0 0.43749999999910871 0.1082531754729984 0 0.49999999999934441 0.1752404735815076 0 0.37500000000232431 0.17524047358384309 0 0.62499999999892575 0.17524047358135519 0 0.68749999999926592 0.1082531754732875 0 0.73983916756365475 0.17530677078674589 0 0.68749999999926592 0.1082531754732875 0 0.81249999999950517 0.1082531754733404 0 0.73983916756365475 0.17530677078674589 0 0.10409951422139101 0.81206782209691231 0 0.18802967116092181 0.89415349436770275 0 0.091506350946494744 0.90849364905351082 0 0.89658421694297741 0.1933620068391701 0 0.81249999999950517 0.1082531754733404 0 0.90849364905355434 0.091506350946296292 0 0.19185372118111221 0.092925648673580788 0 0.12076953676380731 0.18690935762408761 0 0.091506350946417708 0.091506350946618076 0 0.37500000000232431 0.17524047358384309 0 0.31411863959822661 0.24965544328045999 0 0.25103557339309318 0.17464499738446629 0 0.31281086598417152 0.10449318608631281 0 0.37500000000232431 0.17524047358384309 0 0.25103557339309318 0.17464499738446629 0 0.80886664387416207 0.89717308644237903 0 0.89051480781310632 0.79665793440246835 0 0.90849364905363228 0.90849364905367769 0 0.19185372118111221 0.092925648673580788 0 0.31281086598417152 0.10449318608631281 0 0.25103557339309318 0.17464499738446629 0 0.79891106056046712 0.25007334953587562 0 0.68668231842078242 0.24762892664808989 0 0.73983916756365475 0.17530677078674589 0 0.31411863959822661 0.24965544328045999 0 0.20767261601459541 0.25628918442207171 0 0.25103557339309318 0.17464499738446629 0 

        </DataArray>

      </Points>

      <Cells>

        <DataArray type="Int32" Name="connectivity" format="ascii">

0 1 2 3 4 5 6 7 8 9 10 11 12 13 14 15 16 17 18 19 20 21 22 23 24 25 26 27 28 29 30 31 32 33 34 35 36 37 38 39 40 41 42 43 44 45 46 47 48 49 50 51 52 53 54 55 56 57 58 59 60 61 62 63 64 65 66 67 68 69 70 71 72 73 74 75 76 77 78 79 80 81 82 83 84 85 86 87 88 89 90 91 92 93 94 95 96 97 98 99 100 101 102 103 104 105 106 107 108 109 110 111 112 113 114 115 116 117 118 119 120 121 122 123 124 125 126 127 128 129 130 131 132 133 134 135 136 137 138 139 140 141 142 143 144 145 146 147 148 149 150 151 152 153 154 155 156 157 158 159 160 161 162 163 164 165 166 167 168 169 170 171 172 173 174 175 176 177 178 179 180 181 182 183 184 185 186 187 188 189 190 191 192 193 194 195 196 197 198 199 200 201 202 203 204 205 206 207 208 209 210 211 212 213 214 215 216 217 218 219 220 221 222 223 224 225 226 227 228 229 230 231 232 233 234 235 236 237 238 239 240 241 242 243 244 245 246 247 248 249 250 251 252 253 254 255 256 257 258 259 260 261 262 263 264 265 266 267 268 269 270 271 272 273 274 275 276 277 278 279 280 281 282 283 284 285 286 287 288 289 290 291 292 293 294 295 296 297 298 299 300 301 302 303 304 305 306 307 308 309 310 311 312 313 314 315 316 317 318 319 320 321 322 323 324 325 326 327 328 329 330 331 332 333 334 335 336 337 338 339 340 341 342 343 344 345 346 347 348 349 350 351 352 353 354 355 356 357 358 359 360 361 362 363 364 365 366 367 368 369 370 371 372 373 374 375 376 377 378 379 380 381 382 383 384 385 386 387 388 389 390 391 392 393 394 395 396 397 398 399 400 401 402 403 404 405 406 407 408 409 410 411 412 413 414 415 416 417 418 419 420 421 422 423 424 425 426 427 428 429 430 431 432 433 434 435 436 437 438 439 440 441 442 443 444 445 446 447 448 449 450 451 452 453 454 455 456 457 458 459 460 461 462 463 464 465 466 467 468 469 470 471 472 473 474 475 476 477 478 479 480 481 482 483 484 485 

        </DataArray>

        <DataArray type="Int32" Name="offsets" format="ascii">

3 6 9 12 15 18 21 24 27 30 33 36 39 42 45 48 51 54 57 60 63 66 69 72 75 78 81 84 87 90 93 96 99 102 105 108 111 114 117 120 123 126 129 132 135 138 141 144 147 150 153 156 159 162 165 168 171 174 177 180 183 186 189 192 195 198 201 204 207 210 213 216 219 222 225 228 231 234 237 240 243 246 249 252 255 258 261 264 267 270 273 276 279 282 285 288 291 294 297 300 303 306 309 312 315 318 321 324 327 330 333 336 339 342 345 348 351 354 357 360 363 366 369 372 375 378 381 384 387 390 393 396 399 402 405 408 411 414 417 420 423 426 429 432 435 438 441 444 447 450 453 456 459 462 465 468 471 474 477 480 483 486 

        </DataArray>

        <DataArray type="Int32" Name="types" format="ascii">

5 5 5 5 5 5 5 5 5 5 5 5 5 5 5 5 5 5 5 5 5 5 5 5 5 5 5 5 5 5 5 5 5 5 5 5 5 5 5 5 5 5 5 5 5 5 5 5 5 5 5 5 5 5 5 5 5 5 5 5 5 5 5 5 5 5 5 5 5 5 5 5 5 5 5 5 5 5 5 5 5 5 5 5 5 5 5 5 5 5 5 5 5 5 5 5 5 5 5 5 5 5 5 5 5 5 5 5 5 5 5 5 5 5 5 5 5 5 5 5 5 5 5 5 5 5 5 5 5 5 5 5 5 5 5 5 5 5 5 5 5 5 5 5 5 5 5 5 5 5 5 5 5 5 5 5 5 5 5 5 5 5 

        </DataArray>

      </Cells>

    </Piece>

  </UnstructuredGrid>

</VTKFile>

