<?xml version="1.0"?>

<VTKFile type="UnstructuredGrid" version="0.1">

  <UnstructuredGrid>

    <Piece NumberOfPoints="486" NumberOfCells="162">

      <PointData>

        <DataArray type="Float64" Name="K" format="ascii">

1.04013089940307824e+00
1.04013089940307824e+00
1.04013089940307824e+00
1.05306386484291137e+00
1.05306386484291137e+00
1.05306386484291137e+00
1.00405406025442590e+00
1.00405406025442590e+00
1.00405406025442590e+00
1.02830946488353914e+00
1.02830946488353914e+00
1.02830946488353914e+00
1.01882398011540753e+00
1.01882398011540753e+00
1.01882398011540753e+00
1.04653918338340923e+00
1.04653918338340923e+00
1.04653918338340923e+00
1.00791237686896906e+00
1.00791237686896906e+00
1.00791237686896906e+00
9.88479973078950969e-01
9.88479973078950969e-01
9.88479973078950969e-01
1.01113337604468256e+00
1.01113337604468256e+00
1.01113337604468256e+00
9.91409756228371686e-01
9.91409756228371686e-01
9.91409756228371686e-01
1.00354629745997892e+00
1.00354629745997892e+00
1.00354629745997892e+00
1.02126262560727366e+00
1.02126262560727366e+00
1.02126262560727366e+00
9.80172940608246668e-01
9.80172940608246668e-01
9.80172940608246668e-01
9.89659916411566143e-01
9.89659916411566143e-01
9.89659916411566143e-01
9.57862654835415328e-01
9.57862654835415328e-01
9.57862654835415328e-01
9.94039139106388414e-01
9.94039139106388414e-01
9.94039139106388414e-01
1.03865378022327426e+00
1.03865378022327426e+00
1.03865378022327426e+00
1.02277891960239464e+00
1.02277891960239464e+00
1.02277891960239464e+00
9.61354522579250692e-01
9.61354522579250692e-01
9.61354522579250692e-01
9.73523957484294433e-01
9.73523957484294433e-01
9.73523957484294433e-01
1.03777333170466335e+00
1.03777333170466335e+00
1.03777333170466335e+00
1.04765980754313137e+00
1.04765980754313137e+00
1.04765980754313137e+00
1.00181362345299885e+00
1.00181362345299885e+00
1.00181362345299885e+00
1.04489706266597526e+00
1.04489706266597526e+00
1.04489706266597526e+00
9.71073880900962361e-01
9.71073880900962361e-01
9.71073880900962361e-01
1.06458284990389518e+00
1.06458284990389518e+00
1.06458284990389518e+00
1.05750509458630826e+00
1.05750509458630826e+00
1.05750509458630826e+00
1.06511420434177850e+00
1.06511420434177850e+00
1.06511420434177850e+00
1.03890024867086495e+00
1.03890024867086495e+00
1.03890024867086495e+00
9.82965035800934861e-01
9.82965035800934861e-01
9.82965035800934861e-01
1.01803481544240326e+00
1.01803481544240326e+00
1.01803481544240326e+00
1.00366095064041017e+00
1.00366095064041017e+00
1.00366095064041017e+00
9.92717060721071687e-01
9.92717060721071687e-01
9.92717060721071687e-01
9.75466711212785276e-01
9.75466711212785276e-01
9.75466711212785276e-01
9.72837278272675521e-01
9.72837278272675521e-01
9.72837278272675521e-01
1.04238230529005516e+00
1.04238230529005516e+00
1.04238230529005516e+00
9.79156666891666472e-01
9.79156666891666472e-01
9.79156666891666472e-01
1.00238705950033613e+00
1.00238705950033613e+00
1.00238705950033613e+00
1.00753947454395654e+00
1.00753947454395654e+00
1.00753947454395654e+00
1.01195848843545089e+00
1.01195848843545089e+00
1.01195848843545089e+00
9.66439534041175108e-01
9.66439534041175108e-01
9.66439534041175108e-01
1.00375618737780314e+00
1.00375618737780314e+00
1.00375618737780314e+00
1.02099168415452168e+00
1.02099168415452168e+00
1.02099168415452168e+00
9.62678476184128051e-01
9.62678476184128051e-01
9.62678476184128051e-01
9.76786983570366418e-01
9.76786983570366418e-01
9.76786983570366418e-01
9.80768504069886693e-01
9.80768504069886693e-01
9.80768504069886693e-01
9.96685382075746196e-01
9.96685382075746196e-01
9.96685382075746196e-01
9.33808895447236553e-01
9.33808895447236553e-01
9.33808895447236553e-01
9.72763174316415569e-01
9.72763174316415569e-01
9.72763174316415569e-01
9.55950175277778480e-01
9.55950175277778480e-01
9.55950175277778480e-01
9.68470887923643664e-01
9.68470887923643664e-01
9.68470887923643664e-01
9.62028093191651945e-01
9.62028093191651945e-01
9.62028093191651945e-01
1.03728887635317113e+00
1.03728887635317113e+00
1.03728887635317113e+00
9.42504346949544436e-01
9.42504346949544436e-01
9.42504346949544436e-01
9.94276667169806894e-01
9.94276667169806894e-01
9.94276667169806894e-01
9.71957794492410931e-01
9.71957794492410931e-01
9.71957794492410931e-01
1.04398737463261204e+00
1.04398737463261204e+00
1.04398737463261204e+00
1.00570652928269122e+00
1.00570652928269122e+00
1.00570652928269122e+00
1.01425338762764983e+00
1.01425338762764983e+00
1.01425338762764983e+00
9.61496990326761058e-01
9.61496990326761058e-01
9.61496990326761058e-01
1.03598736339677311e+00
1.03598736339677311e+00
1.03598736339677311e+00
9.37558652205047305e-01
9.37558652205047305e-01
9.37558652205047305e-01
9.69563511164252767e-01
9.69563511164252767e-01
9.69563511164252767e-01
9.58091136634135032e-01
9.58091136634135032e-01
9.58091136634135032e-01
9.72734378018102364e-01
9.72734378018102364e-01
9.72734378018102364e-01
9.72315413529278416e-01
9.72315413529278416e-01
9.72315413529278416e-01
1.07137944302010446e+00
1.07137944302010446e+00
1.07137944302010446e+00
1.02141655118252439e+00
1.02141655118252439e+00
1.02141655118252439e+00
9.58079259047616483e-01
9.58079259047616483e-01
9.58079259047616483e-01
9.54132119060946193e-01
9.54132119060946193e-01
9.54132119060946193e-01
9.59437871231153760e-01
9.59437871231153760e-01
9.59437871231153760e-01
9.89113505683345884e-01
9.89113505683345884e-01
9.89113505683345884e-01
9.79131264293348291e-01
9.79131264293348291e-01
9.79131264293348291e-01
9.54151653097043861e-01
9.54151653097043861e-01
9.54151653097043861e-01
9.45902788334297639e-01
9.45902788334297639e-01
9.45902788334297639e-01
9.55515229528657750e-01
9.55515229528657750e-01
9.55515229528657750e-01
1.03155117930874018e+00
1.03155117930874018e+00
1.03155117930874018e+00
9.91392054162006819e-01
9.91392054162006819e-01
9.91392054162006819e-01
9.40476154495222039e-01
9.40476154495222039e-01
9.40476154495222039e-01
9.62194986016723375e-01
9.62194986016723375e-01
9.62194986016723375e-01
9.49359904616696948e-01
9.49359904616696948e-01
9.49359904616696948e-01
9.85664634785354044e-01
9.85664634785354044e-01
9.85664634785354044e-01
9.49219439724603098e-01
9.49219439724603098e-01
9.49219439724603098e-01
9.41503589112525185e-01
9.41503589112525185e-01
9.41503589112525185e-01
9.58772445277432217e-01
9.58772445277432217e-01
9.58772445277432217e-01
9.47083738951322696e-01
9.47083738951322696e-01
9.47083738951322696e-01
1.01662540182937922e+00
1.01662540182937922e+00
1.01662540182937922e+00
9.83397783511260726e-01
9.83397783511260726e-01
9.83397783511260726e-01
1.00537987129955431e+00
1.00537987129955431e+00
1.00537987129955431e+00
1.02534878106061522e+00
1.02534878106061522e+00
1.02534878106061522e+00
1.01100540976128173e+00
1.01100540976128173e+00
1.01100540976128173e+00
9.86979205119494662e-01
9.86979205119494662e-01
9.86979205119494662e-01
9.90072247072812162e-01
9.90072247072812162e-01
9.90072247072812162e-01
1.02051020707892026e+00
1.02051020707892026e+00
1.02051020707892026e+00
9.94623337463078738e-01
9.94623337463078738e-01
9.94623337463078738e-01
1.04188247693077396e+00
1.04188247693077396e+00
1.04188247693077396e+00
1.02433416761454743e+00
1.02433416761454743e+00
1.02433416761454743e+00
1.04054794277700058e+00
1.04054794277700058e+00
1.04054794277700058e+00
1.03462153883604357e+00
1.03462153883604357e+00
1.03462153883604357e+00
9.91643821627449018e-01
9.91643821627449018e-01
9.91643821627449018e-01
1.02509647247965874e+00
1.02509647247965874e+00
1.02509647247965874e+00
9.64609680824574878e-01
9.64609680824574878e-01
9.64609680824574878e-01
1.07203933591968514e+00
1.07203933591968514e+00
1.07203933591968514e+00
1.00891899839541521e+00
1.00891899839541521e+00
1.00891899839541521e+00
1.00456984981577335e+00
1.00456984981577335e+00
1.00456984981577335e+00
9.98423038861833367e-01
9.98423038861833367e-01
9.98423038861833367e-01
1.05195562333996384e+00
1.05195562333996384e+00
1.05195562333996384e+00
1.03631650634280392e+00
1.03631650634280392e+00
1.03631650634280392e+00
1.06816536581197541e+00
1.06816536581197541e+00
1.06816536581197541e+00
9.81102318225517078e-01
9.81102318225517078e-01
9.81102318225517078e-01
9.71500009684220567e-01
9.71500009684220567e-01
9.71500009684220567e-01
1.00716785949685250e+00
1.00716785949685250e+00
1.00716785949685250e+00
1.00529630881040477e+00
1.00529630881040477e+00
1.00529630881040477e+00
1.01165164771769756e+00
1.01165164771769756e+00
1.01165164771769756e+00
1.03376438730464826e+00
1.03376438730464826e+00
1.03376438730464826e+00
1.01510538074182222e+00
1.01510538074182222e+00
1.01510538074182222e+00
9.94590927140577619e-01
9.94590927140577619e-01
9.94590927140577619e-01
9.83226148460603744e-01
9.83226148460603744e-01
9.83226148460603744e-01
9.90240884356305640e-01
9.90240884356305640e-01
9.90240884356305640e-01
1.00457876369226828e+00
1.00457876369226828e+00
1.00457876369226828e+00
1.02634649603401940e+00
1.02634649603401940e+00
1.02634649603401940e+00
1.02830706407878014e+00
1.02830706407878014e+00
1.02830706407878014e+00
9.91526500452181270e-01
9.91526500452181270e-01
9.91526500452181270e-01
9.86101946539963303e-01
9.86101946539963303e-01
9.86101946539963303e-01
1.03283523874671079e+00
1.03283523874671079e+00
1.03283523874671079e+00
1.02342686468612887e+00
1.02342686468612887e+00
1.02342686468612887e+00
1.00784642326915863e+00
1.00784642326915863e+00
1.00784642326915863e+00
1.06859279898791848e+00
1.06859279898791848e+00
1.06859279898791848e+00
1.05343594834359910e+00
1.05343594834359910e+00
1.05343594834359910e+00
9.60763340888039052e-01
9.60763340888039052e-01
9.60763340888039052e-01
1.05546241092031989e+00
1.05546241092031989e+00
1.05546241092031989e+00
1.03284004155556541e+00
1.03284004155556541e+00
1.03284004155556541e+00
1.01812738799074998e+00
1.01812738799074998e+00
1.01812738799074998e+00
1.00257829630701667e+00
1.00257829630701667e+00
1.00257829630701667e+00
1.00620099714408173e+00
1.00620099714408173e+00
1.00620099714408173e+00
1.00603818388096933e+00
1.00603818388096933e+00
1.00603818388096933e+00
1.02060974256025672e+00
1.02060974256025672e+00
1.02060974256025672e+00
9.77862503263165705e-01
9.77862503263165705e-01
9.77862503263165705e-01
1.03615574198063909e+00
1.03615574198063909e+00
1.03615574198063909e+00
1.03142395751620453e+00
1.03142395751620453e+00
1.03142395751620453e+00
1.04116506393108321e+00
1.04116506393108321e+00
1.04116506393108321e+00
9.39428585139724825e-01
9.39428585139724825e-01
9.39428585139724825e-01
1.01495901723615956e+00
1.01495901723615956e+00
1.01495901723615956e+00
1.02293666756789015e+00
1.02293666756789015e+00
1.02293666756789015e+00
1.00924235802120221e+00
1.00924235802120221e+00
1.00924235802120221e+00
9.85175206663029046e-01
9.85175206663029046e-01
9.85175206663029046e-01
9.78139894995221804e-01
9.78139894995221804e-01
9.78139894995221804e-01
1.03315440831556904e+00
1.03315440831556904e+00
1.03315440831556904e+00
9.46112326397016923e-01
9.46112326397016923e-01
9.46112326397016923e-01
9.54985842309159283e-01
9.54985842309159283e-01
9.54985842309159283e-01
9.52979622641796809e-01
9.52979622641796809e-01
9.52979622641796809e-01
1.03918179105535202e+00
1.03918179105535202e+00
1.03918179105535202e+00
1.04857144521313872e+00
1.04857144521313872e+00
1.04857144521313872e+00
1.02074664629995260e+00
1.02074664629995260e+00
1.02074664629995260e+00
1.05328014067801878e+00
1.05328014067801878e+00
1.05328014067801878e+00
9.88716665669107098e-01
9.88716665669107098e-01
9.88716665669107098e-01
9.58102028707559672e-01
9.58102028707559672e-01
9.58102028707559672e-01
9.52007617575875154e-01
9.52007617575875154e-01
9.52007617575875154e-01
1.01639177790708768e+00
1.01639177790708768e+00
1.01639177790708768e+00
9.69768537572578748e-01
9.69768537572578748e-01
9.69768537572578748e-01
1.04569534854876589e+00
1.04569534854876589e+00
1.04569534854876589e+00
9.82010404076091081e-01
9.82010404076091081e-01
9.82010404076091081e-01


        </DataArray>

      </PointData>

      <CellData/>

      <Points>

        <DataArray type="Float64" NumberOfComponents="3" format="ascii">

0.1082531754723032 0.6875000000007816 0 0.23533274979922561 0.77093399389351469 0 0.10409951422139101 0.81206782209691231 0 0.23533274979922561 0.77093399389351469 0 0.1082531754723032 0.6875000000007816 0 0.21809253452218619 0.65480892822618109 0 0.24418615484441761 0.35773612382016978 0 0.121259140952891 0.43112117036853742 0 0.1082531754734323 0.31250000000117473 0 0.75000000000057243 0.35048094716480432 0 0.88173731489851925 0.33077402607778361 0 0.81242894672211508 0.45500248311961472 0 0.121259140952891 0.43112117036853742 0 0.24418615484441761 0.35773612382016978 0 0.22257735880419699 0.47344721641341742 0 0.81242894672211508 0.45500248311961472 0 0.88173731489851925 0.33077402607778361 0 0.915464298762109 0.43749999999886913 0 0 0.62500000000121547 0 0 0.50000000000206146 0 0.1371230538040123 0.56179824718362847 0 0.82212678063041267 0.67678595194836966 0 0.89051480781310632 0.79665793440246835 0 0.76243180583607129 0.78687675331113149 0 0.76243180583607129 0.78687675331113149 0 0.69010814643829166 0.89298495739101336 0 0.62844955668446423 0.7850749770380413 0 0.89051480781310632 0.79665793440246835 0 0.82212678063041267 0.67678595194836966 0 0.92266244547590082 0.68749999999917555 0 0 0.50000000000206146 0 0.121259140952891 0.43112117036853742 0 0.1371230538040123 0.56179824718362847 0 0.1082531754723032 0.6875000000007816 0 0 0.62500000000121547 0 0.1371230538040123 0.56179824718362847 0 0.75000000000032374 0.56698729811007709 0 0.88927506082488361 0.56409486310635837 0 0.82212678063041267 0.67678595194836966 0 0.81242894672211508 0.45500248311961472 0 0.88927506082488361 0.56409486310635837 0 0.75000000000032374 0.56698729811007709 0 0.69851598570178741 0.68211701800612057 0 0.56496004948275869 0.67675037307860475 0 0.62752533658682441 0.56838075195614346 0 0.69851598570178741 0.68211701800612057 0 0.76243180583607129 0.78687675331113149 0 0.62844955668446423 0.7850749770380413 0 0.23533274979922561 0.77093399389351469 0 0.18802967116092181 0.89415349436770275 0 0.10409951422139101 0.81206782209691231 0 0.121259140952891 0.43112117036853742 0 0.22257735880419699 0.47344721641341742 0 0.1371230538040123 0.56179824718362847 0 0.75000000000032374 0.56698729811007709 0 0.69851598570178741 0.68211701800612057 0 0.62752533658682441 0.56838075195614346 0 0.56496004948275869 0.67675037307860475 0 0.69851598570178741 0.68211701800612057 0 0.62844955668446423 0.7850749770380413 0 0.1371230538040123 0.56179824718362847 0 0.22257735880419699 0.47344721641341742 0 0.26982811998763367 0.56544650815856912 0 0.21809253452218619 0.65480892822618109 0 0.1371230538040123 0.56179824718362847 0 0.26982811998763367 0.56544650815856912 0 0.24418615484441761 0.35773612382016978 0 0.1082531754734323 0.31250000000117473 0 0.20767261601459541 0.25628918442207171 0 0.88173731489851925 0.33077402607778361 0 0.75000000000057243 0.35048094716480432 0 0.79891106056046712 0.25007334953587562 0 0.75000000000032374 0.56698729811007709 0 0.82212678063041267 0.67678595194836966 0 0.69851598570178741 0.68211701800612057 0 0.81249999999950517 0.1082531754733404 0 0.89658421694297741 0.1933620068391701 0 0.79891106056046712 0.25007334953587562 0 0.81249999999950517 0.1082531754733404 0 0.79891106056046712 0.25007334953587562 0 0.73983916756365475 0.17530677078674589 0 0.23533274979922561 0.77093399389351469 0 0.21809253452218619 0.65480892822618109 0 0.32607333794064219 0.67760114260606152 0 0.1082531754723032 0.6875000000007816 0 0.1371230538040123 0.56179824718362847 0 0.21809253452218619 0.65480892822618109 0 0.69851598570178741 0.68211701800612057 0 0.82212678063041267 0.67678595194836966 0 0.76243180583607129 0.78687675331113149 0 0.69010814643829166 0.89298495739101336 0 0.76243180583607129 0.78687675331113149 0 0.80886664387416207 0.89717308644237903 0 0.43750000000181222 0.89174682452709564 0 0.31258827852827581 0.89214793616708443 0 0.37776173212361452 0.78514649317305008 0 0.43750000000181222 0.89174682452709564 0 0.37500000000156292 1 0 0.31258827852827581 0.89214793616708443 0 0.121259140952891 0.43112117036853742 0 0 0.37500000000156292 0 0.1082531754734323 0.31250000000117473 0 0.50000000000206146 1 0 0.37500000000156292 1 0 0.43750000000181222 0.89174682452709564 0 0.31258827852827581 0.89214793616708443 0 0.18802967116092181 0.89415349436770275 0 0.23533274979922561 0.77093399389351469 0 0 0.50000000000206146 0 0 0.37500000000156292 0 0.121259140952891 0.43112117036853742 0 0.62844955668446423 0.7850749770380413 0 0.69010814643829166 0.89298495739101336 0 0.56327595140699671 0.89211526915426331 0 0.69010814643829166 0.89298495739101336 0 0.62500000000121547 1 0 0.56327595140699671 0.89211526915426331 0 0.25000000000104189 1 0 0.18802967116092181 0.89415349436770275 0 0.31258827852827581 0.89214793616708443 0 0.50000000000206146 1 0 0.43750000000181222 0.89174682452709564 0 0.56327595140699671 0.89211526915426331 0 0.56249999999885147 0.1082531754730395 0 0.62499999999901068 0 0 0.68749999999926592 0.1082531754732875 0 1 0.49999999999869221 0 1 0.62499999999901068 0 0.88927506082488361 0.56409486310635837 0 0 0.25000000000104189 0 0.12076953676380731 0.18690935762408761 0 0.1082531754734323 0.31250000000117473 0 0.49999999999869221 0 0 0.62499999999901068 0 0 0.56249999999885147 0.1082531754730395 0 0.62500000000121547 1 0 0.50000000000206146 1 0 0.56327595140699671 0.89211526915426331 0 0.37500000000156292 1 0 0.25000000000104189 1 0 0.31258827852827581 0.89214793616708443 0 0.31281086598417152 0.10449318608631281 0 0.37499999999904599 0 0 0.43749999999910871 0.1082531754729984 0 0.43750000000181222 0.89174682452709564 0 0.37776173212361452 0.78514649317305008 0 0.50046028868828263 0.78376912307435687 0 0 0.37500000000156292 0 0 0.25000000000104189 0 0.1082531754734323 0.31250000000117473 0 0.49999999999869221 0 0 0.56249999999885147 0.1082531754730395 0 0.43749999999910871 0.1082531754729984 0 0.43750000000181222 0.89174682452709564 0 0.50046028868828263 0.78376912307435687 0 0.56327595140699671 0.89211526915426331 0 0.74999999999934042 0 0 0.81249999999950517 0.1082531754733404 0 0.68749999999926592 0.1082531754732875 0 0.37499999999904599 0 0 0.49999999999869221 0 0 0.43749999999910871 0.1082531754729984 0 0.25000000000104189 1 0 0.12500000000052089 1 0 0.18802967116092181 0.89415349436770275 0 0.50046028868828263 0.78376912307435687 0 0.62844955668446423 0.7850749770380413 0 0.56327595140699671 0.89211526915426331 0 0.37776173212361452 0.78514649317305008 0 0.31258827852827581 0.89214793616708443 0 0.23533274979922561 0.77093399389351469 0 0.62499999999901068 0 0 0.74999999999934042 0 0 0.68749999999926592 0.1082531754732875 0 1 0.74999999999934042 0 1 0.87499999999967015 0 0.89051480781310632 0.79665793440246835 0 0 0.25000000000104189 0 0 0.12500000000052089 0 0.12076953676380731 0.18690935762408761 0 0.74999999999934042 0 0 0.87499999999967015 0 0 0.81249999999950517 0.1082531754733404 0 0.24999999999941069 0 0 0.37499999999904599 0 0 0.31281086598417152 0.10449318608631281 0 0.50046028868828263 0.78376912307435687 0 0.37776173212361452 0.78514649317305008 0 0.44078402250377968 0.67714785211715212 0 0.68768773896438518 0.4586835206367198 0 0.75000000000032374 0.56698729811007709 0 0.62752533658682441 0.56838075195614346 0 0.31411863959822661 0.24965544328045999 0 0.37953773393552892 0.34812185820708452 0 0.24418615484441761 0.35773612382016978 0 0.68768773896438518 0.4586835206367198 0 0.81242894672211508 0.45500248311961472 0 0.75000000000032374 0.56698729811007709 0 1 0.24999999999941069 0 1 0.37499999999904599 0 0.88173731489851925 0.33077402607778361 0 0 0.75000000000034761 0 0 0.62500000000121547 0 0.1082531754723032 0.6875000000007816 0 0.50048844149666749 0.56727788297625459 0 0.44078402250377968 0.67714785211715212 0 0.38694285807596462 0.5672991787102919 0 0.50108503093851109 0.35012252869403671 0 0.44301038174930041 0.45684931552185398 0 0.37953773393552892 0.34812185820708452 0 0.50046028868828263 0.78376912307435687 0 0.56496004948275869 0.67675037307860475 0 0.62844955668446423 0.7850749770380413 0 0.68768773896438518 0.4586835206367198 0 0.75000000000057243 0.35048094716480432 0 0.81242894672211508 0.45500248311961472 0 0.56349980387502452 0.45846841892908402 0 0.62512662990940393 0.35044303886909911 0 0.68768773896438518 0.4586835206367198 0 0.50048844149666749 0.56727788297625459 0 0.38694285807596462 0.5672991787102919 0 0.44301038174930041 0.45684931552185398 0 0.50046028868828263 0.78376912307435687 0 0.44078402250377968 0.67714785211715212 0 0.56496004948275869 0.67675037307860475 0 0.50108503093851109 0.35012252869403671 0 0.37953773393552892 0.34812185820708452 0 0.43750000000200551 0.24222777169198509 0 0.75000000000034761 1 0 0.62500000000121547 1 0 0.69010814643829166 0.89298495739101336 0 0.68768773896438518 0.4586835206367198 0 0.62512662990940393 0.35044303886909911 0 0.75000000000057243 0.35048094716480432 0 0.56496004948275869 0.67675037307860475 0 0.44078402250377968 0.67714785211715212 0 0.50048844149666749 0.56727788297625459 0 0.56349980387502452 0.45846841892908402 0 0.44301038174930041 0.45684931552185398 0 0.50108503093851109 0.35012252869403671 0 0.50048844149666749 0.56727788297625459 0 0.44301038174930041 0.45684931552185398 0 0.56349980387502452 0.45846841892908402 0 0.56349980387502452 0.45846841892908402 0 0.50108503093851109 0.35012252869403671 0 0.62512662990940393 0.35044303886909911 0 0.43750000000200551 0.24222777169198509 0 0.37953773393552892 0.34812185820708452 0 0.31411863959822661 0.24965544328045999 0 0.56496004948275869 0.67675037307860475 0 0.50048844149666749 0.56727788297625459 0 0.62752533658682441 0.56838075195614346 0 0.56349980387502452 0.45846841892908402 0 0.68768773896438518 0.4586835206367198 0 0.62752533658682441 0.56838075195614346 0 0.50048844149666749 0.56727788297625459 0 0.56349980387502452 0.45846841892908402 0 0.62752533658682441 0.56838075195614346 0 0.75000000000057243 0.35048094716480432 0 0.62512662990940393 0.35044303886909911 0 0.68668231842078242 0.24762892664808989 0 0.50108503093851109 0.35012252869403671 0 0.43750000000200551 0.24222777169198509 0 0.56250000000143974 0.2422277716920859 0 0.62512662990940393 0.35044303886909911 0 0.50108503093851109 0.35012252869403671 0 0.56250000000143974 0.2422277716920859 0 0.68668231842078242 0.24762892664808989 0 0.62512662990940393 0.35044303886909911 0 0.56250000000143974 0.2422277716920859 0 0.22257735880419699 0.47344721641341742 0 0.24418615484441761 0.35773612382016978 0 0.32815957677880009 0.4577243358118348 0 0.12076953676380731 0.18690935762408761 0 0.19185372118111221 0.092925648673580788 0 0.25103557339309318 0.17464499738446629 0 0.20767261601459541 0.25628918442207171 0 0.12076953676380731 0.18690935762408761 0 0.25103557339309318 0.17464499738446629 0 0 0.87499999999950151 0 0 0.75000000000034761 0 0.10409951422139101 0.81206782209691231 0 0.1249999999997731 0 0 0.24999999999941069 0 0 0.19185372118111221 0.092925648673580788 0 1 0.1249999999997731 0 1 0.24999999999941069 0 0.89658421694297741 0.1933620068391701 0 0.88927506082488361 0.56409486310635837 0 0.81242894672211508 0.45500248311961472 0 0.915464298762109 0.43749999999886913 0 0.87499999999950151 1 0 0.75000000000034761 1 0 0.80886664387416207 0.89717308644237903 0 0.75000000000034761 1 0 0.69010814643829166 0.89298495739101336 0 0.80886664387416207 0.89717308644237903 0 0.82212678063041267 0.67678595194836966 0 0.88927506082488361 0.56409486310635837 0 0.92266244547590082 0.68749999999917555 0 0 0.75000000000034761 0 0.1082531754723032 0.6875000000007816 0 0.10409951422139101 0.81206782209691231 0 0.24999999999941069 0 0 0.31281086598417152 0.10449318608631281 0 0.19185372118111221 0.092925648673580788 0 1 0.24999999999941069 0 0.88173731489851925 0.33077402607778361 0 0.89658421694297741 0.1933620068391701 0 0.32815957677880009 0.4577243358118348 0 0.38694285807596462 0.5672991787102919 0 0.26982811998763367 0.56544650815856912 0 0.76243180583607129 0.78687675331113149 0 0.89051480781310632 0.79665793440246835 0 0.80886664387416207 0.89717308644237903 0 0.38694285807596462 0.5672991787102919 0 0.44078402250377968 0.67714785211715212 0 0.32607333794064219 0.67760114260606152 0 0.37776173212361452 0.78514649317305008 0 0.23533274979922561 0.77093399389351469 0 0.32607333794064219 0.67760114260606152 0 1 0.49999999999869221 0 0.88927506082488361 0.56409486310635837 0 0.915464298762109 0.43749999999886913 0 0.88173731489851925 0.33077402607778361 0 1 0.37499999999904599 0 0.915464298762109 0.43749999999886913 0 0.24418615484441761 0.35773612382016978 0 0.37953773393552892 0.34812185820708452 0 0.32815957677880009 0.4577243358118348 0 0.44301038174930041 0.45684931552185398 0 0.38694285807596462 0.5672991787102919 0 0.32815957677880009 0.4577243358118348 0 0.88927506082488361 0.56409486310635837 0 1 0.62499999999901068 0 0.92266244547590082 0.68749999999917555 0 1 0.74999999999934042 0 0.89051480781310632 0.79665793440246835 0 0.92266244547590082 0.68749999999917555 0 0 1 0 0 0.87499999999950151 0 0.091506350946494744 0.90849364905351082 0 1 1 0 0.87499999999950151 1 0 0.90849364905363228 0.90849364905367769 0 0 0 0 0.1249999999997731 0 0 0.091506350946417708 0.091506350946618076 0 0 0.12500000000052089 0 0 0 0 0.091506350946417708 0.091506350946618076 0 1 0 0 1 0.1249999999997731 0 0.90849364905355434 0.091506350946296292 0 0.87499999999967015 0 0 1 0 0 0.90849364905355434 0.091506350946296292 0 0.12500000000052089 1 0 0 1 0 0.091506350946494744 0.90849364905351082 0 1 0.87499999999967015 0 1 1 0 0.90849364905363228 0.90849364905367769 0 0.38694285807596462 0.5672991787102919 0 0.32607333794064219 0.67760114260606152 0 0.26982811998763367 0.56544650815856912 0 0.31411863959822661 0.24965544328045999 0 0.24418615484441761 0.35773612382016978 0 0.20767261601459541 0.25628918442207171 0 0.1082531754734323 0.31250000000117473 0 0.12076953676380731 0.18690935762408761 0 0.20767261601459541 0.25628918442207171 0 0.75000000000057243 0.35048094716480432 0 0.68668231842078242 0.24762892664808989 0 0.79891106056046712 0.25007334953587562 0 0.22257735880419699 0.47344721641341742 0 0.32815957677880009 0.4577243358118348 0 0.26982811998763367 0.56544650815856912 0 0.44078402250377968 0.67714785211715212 0 0.37776173212361452 0.78514649317305008 0 0.32607333794064219 0.67760114260606152 0 0.89658421694297741 0.1933620068391701 0 0.88173731489851925 0.33077402607778361 0 0.79891106056046712 0.25007334953587562 0 1 0.37499999999904599 0 1 0.49999999999869221 0 0.915464298762109 0.43749999999886913 0 0.37953773393552892 0.34812185820708452 0 0.44301038174930041 0.45684931552185398 0 0.32815957677880009 0.4577243358118348 0 0.32607333794064219 0.67760114260606152 0 0.21809253452218619 0.65480892822618109 0 0.26982811998763367 0.56544650815856912 0 1 0.1249999999997731 0 0.89658421694297741 0.1933620068391701 0 0.90849364905355434 0.091506350946296292 0 0 0.87499999999950151 0 0.10409951422139101 0.81206782209691231 0 0.091506350946494744 0.90849364905351082 0 0.1249999999997731 0 0 0.19185372118111221 0.092925648673580788 0 0.091506350946417708 0.091506350946618076 0 1 0.62499999999901068 0 1 0.74999999999934042 0 0.92266244547590082 0.68749999999917555 0 0.18802967116092181 0.89415349436770275 0 0.12500000000052089 1 0 0.091506350946494744 0.90849364905351082 0 0.89051480781310632 0.79665793440246835 0 1 0.87499999999967015 0 0.90849364905363228 0.90849364905367769 0 0.12076953676380731 0.18690935762408761 0 0 0.12500000000052089 0 0.091506350946417708 0.091506350946618076 0 0.81249999999950517 0.1082531754733404 0 0.87499999999967015 0 0 0.90849364905355434 0.091506350946296292 0 0.87499999999950151 1 0 0.80886664387416207 0.89717308644237903 0 0.90849364905363228 0.90849364905367769 0 0.68668231842078242 0.24762892664808989 0 0.62499999999892575 0.17524047358135519 0 0.73983916756365475 0.17530677078674589 0 0.31281086598417152 0.10449318608631281 0 0.43749999999910871 0.1082531754729984 0 0.37500000000232431 0.17524047358384309 0 0.62499999999892575 0.17524047358135519 0 0.56250000000143974 0.2422277716920859 0 0.49999999999934441 0.1752404735815076 0 0.56249999999885147 0.1082531754730395 0 0.68749999999926592 0.1082531754732875 0 0.62499999999892575 0.17524047358135519 0 0.56249999999885147 0.1082531754730395 0 0.62499999999892575 0.17524047358135519 0 0.49999999999934441 0.1752404735815076 0 0.56250000000143974 0.2422277716920859 0 0.43750000000200551 0.24222777169198509 0 0.49999999999934441 0.1752404735815076 0 0.43749999999910871 0.1082531754729984 0 0.56249999999885147 0.1082531754730395 0 0.49999999999934441 0.1752404735815076 0 0.68668231842078242 0.24762892664808989 0 0.56250000000143974 0.2422277716920859 0 0.62499999999892575 0.17524047358135519 0 0.43750000000200551 0.24222777169198509 0 0.31411863959822661 0.24965544328045999 0 0.37500000000232431 0.17524047358384309 0 0.49999999999934441 0.1752404735815076 0 0.43750000000200551 0.24222777169198509 0 0.37500000000232431 0.17524047358384309 0 0.43749999999910871 0.1082531754729984 0 0.49999999999934441 0.1752404735815076 0 0.37500000000232431 0.17524047358384309 0 0.62499999999892575 0.17524047358135519 0 0.68749999999926592 0.1082531754732875 0 0.73983916756365475 0.17530677078674589 0 0.68749999999926592 0.1082531754732875 0 0.81249999999950517 0.1082531754733404 0 0.73983916756365475 0.17530677078674589 0 0.10409951422139101 0.81206782209691231 0 0.18802967116092181 0.89415349436770275 0 0.091506350946494744 0.90849364905351082 0 0.89658421694297741 0.1933620068391701 0 0.81249999999950517 0.1082531754733404 0 0.90849364905355434 0.091506350946296292 0 0.19185372118111221 0.092925648673580788 0 0.12076953676380731 0.18690935762408761 0 0.091506350946417708 0.091506350946618076 0 0.37500000000232431 0.17524047358384309 0 0.31411863959822661 0.24965544328045999 0 0.25103557339309318 0.17464499738446629 0 0.31281086598417152 0.10449318608631281 0 0.37500000000232431 0.17524047358384309 0 0.25103557339309318 0.17464499738446629 0 0.80886664387416207 0.89717308644237903 0 0.89051480781310632 0.79665793440246835 0 0.90849364905363228 0.90849364905367769 0 0.19185372118111221 0.092925648673580788 0 0.31281086598417152 0.10449318608631281 0 0.25103557339309318 0.17464499738446629 0 0.79891106056046712 0.25007334953587562 0 0.68668231842078242 0.24762892664808989 0 0.73983916756365475 0.17530677078674589 0 0.31411863959822661 0.24965544328045999 0 0.20767261601459541 0.25628918442207171 0 0.25103557339309318 0.17464499738446629 0 

        </DataArray>

      </Points>

      <Cells>

        <DataArray type="Int32" Name="connectivity" format="ascii">

0 1 2 3 4 5 6 7 8 9 10 11 12 13 14 15 16 17 18 19 20 21 22 23 24 25 26 27 28 29 30 31 32 33 34 35 36 37 38 39 40 41 42 43 44 45 46 47 48 49 50 51 52 53 54 55 56 57 58 59 60 61 62 63 64 65 66 67 68 69 70 71 72 73 74 75 76 77 78 79 80 81 82 83 84 85 86 87 88 89 90 91 92 93 94 95 96 97 98 99 100 101 102 103 104 105 106 107 108 109 110 111 112 113 114 115 116 117 118 119 120 121 122 123 124 125 126 127 128 129 130 131 132 133 134 135 136 137 138 139 140 141 142 143 144 145 146 147 148 149 150 151 152 153 154 155 156 157 158 159 160 161 162 163 164 165 166 167 168 169 170 171 172 173 174 175 176 177 178 179 180 181 182 183 184 185 186 187 188 189 190 191 192 193 194 195 196 197 198 199 200 201 202 203 204 205 206 207 208 209 210 211 212 213 214 215 216 217 218 219 220 221 222 223 224 225 226 227 228 229 230 231 232 233 234 235 236 237 238 239 240 241 242 243 244 245 246 247 248 249 250 251 252 253 254 255 256 257 258 259 260 261 262 263 264 265 266 267 268 269 270 271 272 273 274 275 276 277 278 279 280 281 282 283 284 285 286 287 288 289 290 291 292 293 294 295 296 297 298 299 300 301 302 303 304 305 306 307 308 309 310 311 312 313 314 315 316 317 318 319 320 321 322 323 324 325 326 327 328 329 330 331 332 333 334 335 336 337 338 339 340 341 342 343 344 345 346 347 348 349 350 351 352 353 354 355 356 357 358 359 360 361 362 363 364 365 366 367 368 369 370 371 372 373 374 375 376 377 378 379 380 381 382 383 384 385 386 387 388 389 390 391 392 393 394 395 396 397 398 399 400 401 402 403 404 405 406 407 408 409 410 411 412 413 414 415 416 417 418 419 420 421 422 423 424 425 426 427 428 429 430 431 432 433 434 435 436 437 438 439 440 441 442 443 444 445 446 447 448 449 450 451 452 453 454 455 456 457 458 459 460 461 462 463 464 465 466 467 468 469 470 471 472 473 474 475 476 477 478 479 480 481 482 483 484 485 

        </DataArray>

        <DataArray type="Int32" Name="offsets" format="ascii">

3 6 9 12 15 18 21 24 27 30 33 36 39 42 45 48 51 54 57 60 63 66 69 72 75 78 81 84 87 90 93 96 99 102 105 108 111 114 117 120 123 126 129 132 135 138 141 144 147 150 153 156 159 162 165 168 171 174 177 180 183 186 189 192 195 198 201 204 207 210 213 216 219 222 225 228 231 234 237 240 243 246 249 252 255 258 261 264 267 270 273 276 279 282 285 288 291 294 297 300 303 306 309 312 315 318 321 324 327 330 333 336 339 342 345 348 351 354 357 360 363 366 369 372 375 378 381 384 387 390 393 396 399 402 405 408 411 414 417 420 423 426 429 432 435 438 441 444 447 450 453 456 459 462 465 468 471 474 477 480 483 486 

        </DataArray>

        <DataArray type="Int32" Name="types" format="ascii">

5 5 5 5 5 5 5 5 5 5 5 5 5 5 5 5 5 5 5 5 5 5 5 5 5 5 5 5 5 5 5 5 5 5 5 5 5 5 5 5 5 5 5 5 5 5 5 5 5 5 5 5 5 5 5 5 5 5 5 5 5 5 5 5 5 5 5 5 5 5 5 5 5 5 5 5 5 5 5 5 5 5 5 5 5 5 5 5 5 5 5 5 5 5 5 5 5 5 5 5 5 5 5 5 5 5 5 5 5 5 5 5 5 5 5 5 5 5 5 5 5 5 5 5 5 5 5 5 5 5 5 5 5 5 5 5 5 5 5 5 5 5 5 5 5 5 5 5 5 5 5 5 5 5 5 5 5 5 5 5 5 5 

        </DataArray>

      </Cells>

    </Piece>

  </UnstructuredGrid>

</VTKFile>

