<?xml version="1.0"?>

<VTKFile type="UnstructuredGrid" version="0.1">

  <UnstructuredGrid>

    <Piece NumberOfPoints="486" NumberOfCells="162">

      <PointData>

        <DataArray type="Float64" Name="K" format="ascii">

1.06721471360932463e+00
1.06721471360932463e+00
1.06721471360932463e+00
1.04243231503345202e+00
1.04243231503345202e+00
1.04243231503345202e+00
9.04899230642813968e-01
9.04899230642813968e-01
9.04899230642813968e-01
1.01916873662698193e+00
1.01916873662698193e+00
1.01916873662698193e+00
9.05309603868641011e-01
9.05309603868641011e-01
9.05309603868641011e-01
1.01976235765874179e+00
1.01976235765874179e+00
1.01976235765874179e+00
9.78473141184549422e-01
9.78473141184549422e-01
9.78473141184549422e-01
9.72663723854073736e-01
9.72663723854073736e-01
9.72663723854073736e-01
9.71363247117075779e-01
9.71363247117075779e-01
9.71363247117075779e-01
9.69619941808665065e-01
9.69619941808665065e-01
9.69619941808665065e-01
9.36732736253203635e-01
9.36732736253203635e-01
9.36732736253203635e-01
9.99153328119901873e-01
9.99153328119901873e-01
9.99153328119901873e-01
1.01211057633922619e+00
1.01211057633922619e+00
1.01211057633922619e+00
1.03357825286637151e+00
1.03357825286637151e+00
1.03357825286637151e+00
1.03582709363859049e+00
1.03582709363859049e+00
1.03582709363859049e+00
1.00165937420940687e+00
1.00165937420940687e+00
1.00165937420940687e+00
1.07316726659263240e+00
1.07316726659263240e+00
1.07316726659263240e+00
9.12931554730252781e-01
9.12931554730252781e-01
9.12931554730252781e-01
1.05078145709487281e+00
1.05078145709487281e+00
1.05078145709487281e+00
1.02446808913185472e+00
1.02446808913185472e+00
1.02446808913185472e+00
9.43117615614738614e-01
9.43117615614738614e-01
9.43117615614738614e-01
9.79160359566637051e-01
9.79160359566637051e-01
9.79160359566637051e-01
9.23214824737658812e-01
9.23214824737658812e-01
9.23214824737658812e-01
9.88083728510963266e-01
9.88083728510963266e-01
9.88083728510963266e-01
1.03199528717408695e+00
1.03199528717408695e+00
1.03199528717408695e+00
9.31263641753612981e-01
9.31263641753612981e-01
9.31263641753612981e-01
9.36172165122218680e-01
9.36172165122218680e-01
9.36172165122218680e-01
1.05672680423649967e+00
1.05672680423649967e+00
1.05672680423649967e+00
9.92909970155149146e-01
9.92909970155149146e-01
9.92909970155149146e-01
1.00028597160862054e+00
1.00028597160862054e+00
1.00028597160862054e+00
9.59428443711701662e-01
9.59428443711701662e-01
9.59428443711701662e-01
1.00484742092761836e+00
1.00484742092761836e+00
1.00484742092761836e+00
9.79496072152421626e-01
9.79496072152421626e-01
9.79496072152421626e-01
9.09936658570348555e-01
9.09936658570348555e-01
9.09936658570348555e-01
1.01029467590089372e+00
1.01029467590089372e+00
1.01029467590089372e+00
1.02604431512014371e+00
1.02604431512014371e+00
1.02604431512014371e+00
9.25028388922879419e-01
9.25028388922879419e-01
9.25028388922879419e-01
9.80908562283450136e-01
9.80908562283450136e-01
9.80908562283450136e-01
9.59135045924015106e-01
9.59135045924015106e-01
9.59135045924015106e-01
9.74445385310308221e-01
9.74445385310308221e-01
9.74445385310308221e-01
1.02559839063652558e+00
1.02559839063652558e+00
1.02559839063652558e+00
9.66438949026065863e-01
9.66438949026065863e-01
9.66438949026065863e-01
9.91417862686742701e-01
9.91417862686742701e-01
9.91417862686742701e-01
9.17770798438647506e-01
9.17770798438647506e-01
9.17770798438647506e-01
9.41707146863386413e-01
9.41707146863386413e-01
9.41707146863386413e-01
9.90778328672287767e-01
9.90778328672287767e-01
9.90778328672287767e-01
9.40848229576415562e-01
9.40848229576415562e-01
9.40848229576415562e-01
1.02626749355821145e+00
1.02626749355821145e+00
1.02626749355821145e+00
1.03318290526476297e+00
1.03318290526476297e+00
1.03318290526476297e+00
9.09476299848281711e-01
9.09476299848281711e-01
9.09476299848281711e-01
9.48257182314324987e-01
9.48257182314324987e-01
9.48257182314324987e-01
1.03374369996866089e+00
1.03374369996866089e+00
1.03374369996866089e+00
9.41038491756640672e-01
9.41038491756640672e-01
9.41038491756640672e-01
9.84532453055826373e-01
9.84532453055826373e-01
9.84532453055826373e-01
9.95855344324022895e-01
9.95855344324022895e-01
9.95855344324022895e-01
1.02052470911639492e+00
1.02052470911639492e+00
1.02052470911639492e+00
1.02267304867677078e+00
1.02267304867677078e+00
1.02267304867677078e+00
9.56994258634928374e-01
9.56994258634928374e-01
9.56994258634928374e-01
9.94906191335236501e-01
9.94906191335236501e-01
9.94906191335236501e-01
9.47898559216780345e-01
9.47898559216780345e-01
9.47898559216780345e-01
9.20711470399273813e-01
9.20711470399273813e-01
9.20711470399273813e-01
1.05786176311234481e+00
1.05786176311234481e+00
1.05786176311234481e+00
1.05134956876496033e+00
1.05134956876496033e+00
1.05134956876496033e+00
1.05338187330910871e+00
1.05338187330910871e+00
1.05338187330910871e+00
9.82125116328544934e-01
9.82125116328544934e-01
9.82125116328544934e-01
1.05632942019583242e+00
1.05632942019583242e+00
1.05632942019583242e+00
1.02738445555193314e+00
1.02738445555193314e+00
1.02738445555193314e+00
1.04182800146158527e+00
1.04182800146158527e+00
1.04182800146158527e+00
1.09395851496237784e+00
1.09395851496237784e+00
1.09395851496237784e+00
1.07518057137082956e+00
1.07518057137082956e+00
1.07518057137082956e+00
1.02852129178156937e+00
1.02852129178156937e+00
1.02852129178156937e+00
1.03963439465341301e+00
1.03963439465341301e+00
1.03963439465341301e+00
1.03889122974631576e+00
1.03889122974631576e+00
1.03889122974631576e+00
1.10508738392930961e+00
1.10508738392930961e+00
1.10508738392930961e+00
1.04479080010895764e+00
1.04479080010895764e+00
1.04479080010895764e+00
1.03962525096391500e+00
1.03962525096391500e+00
1.03962525096391500e+00
9.39497250428703135e-01
9.39497250428703135e-01
9.39497250428703135e-01
1.03061954448089899e+00
1.03061954448089899e+00
1.03061954448089899e+00
1.05518011136775103e+00
1.05518011136775103e+00
1.05518011136775103e+00
1.07980657084336729e+00
1.07980657084336729e+00
1.07980657084336729e+00
1.07993891801981912e+00
1.07993891801981912e+00
1.07993891801981912e+00
1.05577825827371852e+00
1.05577825827371852e+00
1.05577825827371852e+00
1.00860315919464671e+00
1.00860315919464671e+00
1.00860315919464671e+00
1.03670965069114218e+00
1.03670965069114218e+00
1.03670965069114218e+00
1.03877723257882559e+00
1.03877723257882559e+00
1.03877723257882559e+00
1.04391204014308125e+00
1.04391204014308125e+00
1.04391204014308125e+00
1.01663299337174151e+00
1.01663299337174151e+00
1.01663299337174151e+00
1.03201619378909060e+00
1.03201619378909060e+00
1.03201619378909060e+00
1.04746574514003576e+00
1.04746574514003576e+00
1.04746574514003576e+00
1.03159685142707525e+00
1.03159685142707525e+00
1.03159685142707525e+00
9.48483038744495355e-01
9.48483038744495355e-01
9.48483038744495355e-01
9.76961594914922404e-01
9.76961594914922404e-01
9.76961594914922404e-01
9.62569062475262638e-01
9.62569062475262638e-01
9.62569062475262638e-01
1.07715669342862497e+00
1.07715669342862497e+00
1.07715669342862497e+00
1.00629697174936350e+00
1.00629697174936350e+00
1.00629697174936350e+00
1.01446089293606434e+00
1.01446089293606434e+00
1.01446089293606434e+00
1.01310394501809276e+00
1.01310394501809276e+00
1.01310394501809276e+00
9.87011592173896002e-01
9.87011592173896002e-01
9.87011592173896002e-01
9.56503799873124172e-01
9.56503799873124172e-01
9.56503799873124172e-01
9.74263468589261383e-01
9.74263468589261383e-01
9.74263468589261383e-01
1.06487841024498797e+00
1.06487841024498797e+00
1.06487841024498797e+00
1.03789175439326886e+00
1.03789175439326886e+00
1.03789175439326886e+00
1.00656569876094459e+00
1.00656569876094459e+00
1.00656569876094459e+00
1.05887602132904912e+00
1.05887602132904912e+00
1.05887602132904912e+00
9.72196154300313586e-01
9.72196154300313586e-01
9.72196154300313586e-01
1.09707455138401011e+00
1.09707455138401011e+00
1.09707455138401011e+00
1.05766523664034873e+00
1.05766523664034873e+00
1.05766523664034873e+00
9.94669713950797285e-01
9.94669713950797285e-01
9.94669713950797285e-01
1.01826346414489932e+00
1.01826346414489932e+00
1.01826346414489932e+00
9.91932455499645704e-01
9.91932455499645704e-01
9.91932455499645704e-01
1.09448542679202743e+00
1.09448542679202743e+00
1.09448542679202743e+00
9.78527032113241546e-01
9.78527032113241546e-01
9.78527032113241546e-01
9.85663504045828587e-01
9.85663504045828587e-01
9.85663504045828587e-01
1.06208693772910956e+00
1.06208693772910956e+00
1.06208693772910956e+00
9.72591803579744618e-01
9.72591803579744618e-01
9.72591803579744618e-01
1.00851459984724534e+00
1.00851459984724534e+00
1.00851459984724534e+00
1.01697894742426542e+00
1.01697894742426542e+00
1.01697894742426542e+00
9.86811743190193824e-01
9.86811743190193824e-01
9.86811743190193824e-01
9.52662992009305931e-01
9.52662992009305931e-01
9.52662992009305931e-01
1.04916466938886122e+00
1.04916466938886122e+00
1.04916466938886122e+00
9.68059731881224295e-01
9.68059731881224295e-01
9.68059731881224295e-01
1.07918404429651060e+00
1.07918404429651060e+00
1.07918404429651060e+00
9.59183341770740716e-01
9.59183341770740716e-01
9.59183341770740716e-01
9.27157026345343582e-01
9.27157026345343582e-01
9.27157026345343582e-01
9.86278119932696762e-01
9.86278119932696762e-01
9.86278119932696762e-01
9.81623629260158670e-01
9.81623629260158670e-01
9.81623629260158670e-01
1.07156292016115318e+00
1.07156292016115318e+00
1.07156292016115318e+00
9.71152906162610075e-01
9.71152906162610075e-01
9.71152906162610075e-01
1.01153849360735371e+00
1.01153849360735371e+00
1.01153849360735371e+00
1.06504224895694533e+00
1.06504224895694533e+00
1.06504224895694533e+00
1.04436590150274222e+00
1.04436590150274222e+00
1.04436590150274222e+00
9.74834187640740146e-01
9.74834187640740146e-01
9.74834187640740146e-01
1.08459340357841061e+00
1.08459340357841061e+00
1.08459340357841061e+00
9.79938121720432598e-01
9.79938121720432598e-01
9.79938121720432598e-01
1.00093267700257926e+00
1.00093267700257926e+00
1.00093267700257926e+00
1.05430834365999027e+00
1.05430834365999027e+00
1.05430834365999027e+00
9.88134101862520708e-01
9.88134101862520708e-01
9.88134101862520708e-01
9.60408402196029742e-01
9.60408402196029742e-01
9.60408402196029742e-01
9.18871584568850763e-01
9.18871584568850763e-01
9.18871584568850763e-01
9.92364382701037884e-01
9.92364382701037884e-01
9.92364382701037884e-01
9.96366044013375363e-01
9.96366044013375363e-01
9.96366044013375363e-01
1.01349840653048573e+00
1.01349840653048573e+00
1.01349840653048573e+00
1.00479123994941366e+00
1.00479123994941366e+00
1.00479123994941366e+00
9.88987375618009756e-01
9.88987375618009756e-01
9.88987375618009756e-01
9.83384410967448885e-01
9.83384410967448885e-01
9.83384410967448885e-01
1.00106725973517197e+00
1.00106725973517197e+00
1.00106725973517197e+00
9.60969201681147744e-01
9.60969201681147744e-01
9.60969201681147744e-01
1.01962214766111536e+00
1.01962214766111536e+00
1.01962214766111536e+00
1.00257456903133568e+00
1.00257456903133568e+00
1.00257456903133568e+00
9.89062499759305158e-01
9.89062499759305158e-01
9.89062499759305158e-01
9.79413965918076057e-01
9.79413965918076057e-01
9.79413965918076057e-01
9.86406590364373503e-01
9.86406590364373503e-01
9.86406590364373503e-01
9.47810649304067554e-01
9.47810649304067554e-01
9.47810649304067554e-01
1.08309445211679245e+00
1.08309445211679245e+00
1.08309445211679245e+00
9.27699914282942961e-01
9.27699914282942961e-01
9.27699914282942961e-01
9.59425017269764369e-01
9.59425017269764369e-01
9.59425017269764369e-01
1.01110359632551705e+00
1.01110359632551705e+00
1.01110359632551705e+00
1.02874664904549573e+00
1.02874664904549573e+00
1.02874664904549573e+00
9.86042143997773124e-01
9.86042143997773124e-01
9.86042143997773124e-01
1.02471038286355198e+00
1.02471038286355198e+00
1.02471038286355198e+00
9.69091675152323528e-01
9.69091675152323528e-01
9.69091675152323528e-01
9.86409206211527834e-01
9.86409206211527834e-01
9.86409206211527834e-01


        </DataArray>

      </PointData>

      <CellData/>

      <Points>

        <DataArray type="Float64" NumberOfComponents="3" format="ascii">

0.1082531754723032 0.6875000000007816 0 0.23533274979922561 0.77093399389351469 0 0.10409951422139101 0.81206782209691231 0 0.23533274979922561 0.77093399389351469 0 0.1082531754723032 0.6875000000007816 0 0.21809253452218619 0.65480892822618109 0 0.24418615484441761 0.35773612382016978 0 0.121259140952891 0.43112117036853742 0 0.1082531754734323 0.31250000000117473 0 0.75000000000057243 0.35048094716480432 0 0.88173731489851925 0.33077402607778361 0 0.81242894672211508 0.45500248311961472 0 0.121259140952891 0.43112117036853742 0 0.24418615484441761 0.35773612382016978 0 0.22257735880419699 0.47344721641341742 0 0.81242894672211508 0.45500248311961472 0 0.88173731489851925 0.33077402607778361 0 0.915464298762109 0.43749999999886913 0 0 0.62500000000121547 0 0 0.50000000000206146 0 0.1371230538040123 0.56179824718362847 0 0.82212678063041267 0.67678595194836966 0 0.89051480781310632 0.79665793440246835 0 0.76243180583607129 0.78687675331113149 0 0.76243180583607129 0.78687675331113149 0 0.69010814643829166 0.89298495739101336 0 0.62844955668446423 0.7850749770380413 0 0.89051480781310632 0.79665793440246835 0 0.82212678063041267 0.67678595194836966 0 0.92266244547590082 0.68749999999917555 0 0 0.50000000000206146 0 0.121259140952891 0.43112117036853742 0 0.1371230538040123 0.56179824718362847 0 0.1082531754723032 0.6875000000007816 0 0 0.62500000000121547 0 0.1371230538040123 0.56179824718362847 0 0.75000000000032374 0.56698729811007709 0 0.88927506082488361 0.56409486310635837 0 0.82212678063041267 0.67678595194836966 0 0.81242894672211508 0.45500248311961472 0 0.88927506082488361 0.56409486310635837 0 0.75000000000032374 0.56698729811007709 0 0.69851598570178741 0.68211701800612057 0 0.56496004948275869 0.67675037307860475 0 0.62752533658682441 0.56838075195614346 0 0.69851598570178741 0.68211701800612057 0 0.76243180583607129 0.78687675331113149 0 0.62844955668446423 0.7850749770380413 0 0.23533274979922561 0.77093399389351469 0 0.18802967116092181 0.89415349436770275 0 0.10409951422139101 0.81206782209691231 0 0.121259140952891 0.43112117036853742 0 0.22257735880419699 0.47344721641341742 0 0.1371230538040123 0.56179824718362847 0 0.75000000000032374 0.56698729811007709 0 0.69851598570178741 0.68211701800612057 0 0.62752533658682441 0.56838075195614346 0 0.56496004948275869 0.67675037307860475 0 0.69851598570178741 0.68211701800612057 0 0.62844955668446423 0.7850749770380413 0 0.1371230538040123 0.56179824718362847 0 0.22257735880419699 0.47344721641341742 0 0.26982811998763367 0.56544650815856912 0 0.21809253452218619 0.65480892822618109 0 0.1371230538040123 0.56179824718362847 0 0.26982811998763367 0.56544650815856912 0 0.24418615484441761 0.35773612382016978 0 0.1082531754734323 0.31250000000117473 0 0.20767261601459541 0.25628918442207171 0 0.88173731489851925 0.33077402607778361 0 0.75000000000057243 0.35048094716480432 0 0.79891106056046712 0.25007334953587562 0 0.75000000000032374 0.56698729811007709 0 0.82212678063041267 0.67678595194836966 0 0.69851598570178741 0.68211701800612057 0 0.81249999999950517 0.1082531754733404 0 0.89658421694297741 0.1933620068391701 0 0.79891106056046712 0.25007334953587562 0 0.81249999999950517 0.1082531754733404 0 0.79891106056046712 0.25007334953587562 0 0.73983916756365475 0.17530677078674589 0 0.23533274979922561 0.77093399389351469 0 0.21809253452218619 0.65480892822618109 0 0.32607333794064219 0.67760114260606152 0 0.1082531754723032 0.6875000000007816 0 0.1371230538040123 0.56179824718362847 0 0.21809253452218619 0.65480892822618109 0 0.69851598570178741 0.68211701800612057 0 0.82212678063041267 0.67678595194836966 0 0.76243180583607129 0.78687675331113149 0 0.69010814643829166 0.89298495739101336 0 0.76243180583607129 0.78687675331113149 0 0.80886664387416207 0.89717308644237903 0 0.43750000000181222 0.89174682452709564 0 0.31258827852827581 0.89214793616708443 0 0.37776173212361452 0.78514649317305008 0 0.43750000000181222 0.89174682452709564 0 0.37500000000156292 1 0 0.31258827852827581 0.89214793616708443 0 0.121259140952891 0.43112117036853742 0 0 0.37500000000156292 0 0.1082531754734323 0.31250000000117473 0 0.50000000000206146 1 0 0.37500000000156292 1 0 0.43750000000181222 0.89174682452709564 0 0.31258827852827581 0.89214793616708443 0 0.18802967116092181 0.89415349436770275 0 0.23533274979922561 0.77093399389351469 0 0 0.50000000000206146 0 0 0.37500000000156292 0 0.121259140952891 0.43112117036853742 0 0.62844955668446423 0.7850749770380413 0 0.69010814643829166 0.89298495739101336 0 0.56327595140699671 0.89211526915426331 0 0.69010814643829166 0.89298495739101336 0 0.62500000000121547 1 0 0.56327595140699671 0.89211526915426331 0 0.25000000000104189 1 0 0.18802967116092181 0.89415349436770275 0 0.31258827852827581 0.89214793616708443 0 0.50000000000206146 1 0 0.43750000000181222 0.89174682452709564 0 0.56327595140699671 0.89211526915426331 0 0.56249999999885147 0.1082531754730395 0 0.62499999999901068 0 0 0.68749999999926592 0.1082531754732875 0 1 0.49999999999869221 0 1 0.62499999999901068 0 0.88927506082488361 0.56409486310635837 0 0 0.25000000000104189 0 0.12076953676380731 0.18690935762408761 0 0.1082531754734323 0.31250000000117473 0 0.49999999999869221 0 0 0.62499999999901068 0 0 0.56249999999885147 0.1082531754730395 0 0.62500000000121547 1 0 0.50000000000206146 1 0 0.56327595140699671 0.89211526915426331 0 0.37500000000156292 1 0 0.25000000000104189 1 0 0.31258827852827581 0.89214793616708443 0 0.31281086598417152 0.10449318608631281 0 0.37499999999904599 0 0 0.43749999999910871 0.1082531754729984 0 0.43750000000181222 0.89174682452709564 0 0.37776173212361452 0.78514649317305008 0 0.50046028868828263 0.78376912307435687 0 0 0.37500000000156292 0 0 0.25000000000104189 0 0.1082531754734323 0.31250000000117473 0 0.49999999999869221 0 0 0.56249999999885147 0.1082531754730395 0 0.43749999999910871 0.1082531754729984 0 0.43750000000181222 0.89174682452709564 0 0.50046028868828263 0.78376912307435687 0 0.56327595140699671 0.89211526915426331 0 0.74999999999934042 0 0 0.81249999999950517 0.1082531754733404 0 0.68749999999926592 0.1082531754732875 0 0.37499999999904599 0 0 0.49999999999869221 0 0 0.43749999999910871 0.1082531754729984 0 0.25000000000104189 1 0 0.12500000000052089 1 0 0.18802967116092181 0.89415349436770275 0 0.50046028868828263 0.78376912307435687 0 0.62844955668446423 0.7850749770380413 0 0.56327595140699671 0.89211526915426331 0 0.37776173212361452 0.78514649317305008 0 0.31258827852827581 0.89214793616708443 0 0.23533274979922561 0.77093399389351469 0 0.62499999999901068 0 0 0.74999999999934042 0 0 0.68749999999926592 0.1082531754732875 0 1 0.74999999999934042 0 1 0.87499999999967015 0 0.89051480781310632 0.79665793440246835 0 0 0.25000000000104189 0 0 0.12500000000052089 0 0.12076953676380731 0.18690935762408761 0 0.74999999999934042 0 0 0.87499999999967015 0 0 0.81249999999950517 0.1082531754733404 0 0.24999999999941069 0 0 0.37499999999904599 0 0 0.31281086598417152 0.10449318608631281 0 0.50046028868828263 0.78376912307435687 0 0.37776173212361452 0.78514649317305008 0 0.44078402250377968 0.67714785211715212 0 0.68768773896438518 0.4586835206367198 0 0.75000000000032374 0.56698729811007709 0 0.62752533658682441 0.56838075195614346 0 0.31411863959822661 0.24965544328045999 0 0.37953773393552892 0.34812185820708452 0 0.24418615484441761 0.35773612382016978 0 0.68768773896438518 0.4586835206367198 0 0.81242894672211508 0.45500248311961472 0 0.75000000000032374 0.56698729811007709 0 1 0.24999999999941069 0 1 0.37499999999904599 0 0.88173731489851925 0.33077402607778361 0 0 0.75000000000034761 0 0 0.62500000000121547 0 0.1082531754723032 0.6875000000007816 0 0.50048844149666749 0.56727788297625459 0 0.44078402250377968 0.67714785211715212 0 0.38694285807596462 0.5672991787102919 0 0.50108503093851109 0.35012252869403671 0 0.44301038174930041 0.45684931552185398 0 0.37953773393552892 0.34812185820708452 0 0.50046028868828263 0.78376912307435687 0 0.56496004948275869 0.67675037307860475 0 0.62844955668446423 0.7850749770380413 0 0.68768773896438518 0.4586835206367198 0 0.75000000000057243 0.35048094716480432 0 0.81242894672211508 0.45500248311961472 0 0.56349980387502452 0.45846841892908402 0 0.62512662990940393 0.35044303886909911 0 0.68768773896438518 0.4586835206367198 0 0.50048844149666749 0.56727788297625459 0 0.38694285807596462 0.5672991787102919 0 0.44301038174930041 0.45684931552185398 0 0.50046028868828263 0.78376912307435687 0 0.44078402250377968 0.67714785211715212 0 0.56496004948275869 0.67675037307860475 0 0.50108503093851109 0.35012252869403671 0 0.37953773393552892 0.34812185820708452 0 0.43750000000200551 0.24222777169198509 0 0.75000000000034761 1 0 0.62500000000121547 1 0 0.69010814643829166 0.89298495739101336 0 0.68768773896438518 0.4586835206367198 0 0.62512662990940393 0.35044303886909911 0 0.75000000000057243 0.35048094716480432 0 0.56496004948275869 0.67675037307860475 0 0.44078402250377968 0.67714785211715212 0 0.50048844149666749 0.56727788297625459 0 0.56349980387502452 0.45846841892908402 0 0.44301038174930041 0.45684931552185398 0 0.50108503093851109 0.35012252869403671 0 0.50048844149666749 0.56727788297625459 0 0.44301038174930041 0.45684931552185398 0 0.56349980387502452 0.45846841892908402 0 0.56349980387502452 0.45846841892908402 0 0.50108503093851109 0.35012252869403671 0 0.62512662990940393 0.35044303886909911 0 0.43750000000200551 0.24222777169198509 0 0.37953773393552892 0.34812185820708452 0 0.31411863959822661 0.24965544328045999 0 0.56496004948275869 0.67675037307860475 0 0.50048844149666749 0.56727788297625459 0 0.62752533658682441 0.56838075195614346 0 0.56349980387502452 0.45846841892908402 0 0.68768773896438518 0.4586835206367198 0 0.62752533658682441 0.56838075195614346 0 0.50048844149666749 0.56727788297625459 0 0.56349980387502452 0.45846841892908402 0 0.62752533658682441 0.56838075195614346 0 0.75000000000057243 0.35048094716480432 0 0.62512662990940393 0.35044303886909911 0 0.68668231842078242 0.24762892664808989 0 0.50108503093851109 0.35012252869403671 0 0.43750000000200551 0.24222777169198509 0 0.56250000000143974 0.2422277716920859 0 0.62512662990940393 0.35044303886909911 0 0.50108503093851109 0.35012252869403671 0 0.56250000000143974 0.2422277716920859 0 0.68668231842078242 0.24762892664808989 0 0.62512662990940393 0.35044303886909911 0 0.56250000000143974 0.2422277716920859 0 0.22257735880419699 0.47344721641341742 0 0.24418615484441761 0.35773612382016978 0 0.32815957677880009 0.4577243358118348 0 0.12076953676380731 0.18690935762408761 0 0.19185372118111221 0.092925648673580788 0 0.25103557339309318 0.17464499738446629 0 0.20767261601459541 0.25628918442207171 0 0.12076953676380731 0.18690935762408761 0 0.25103557339309318 0.17464499738446629 0 0 0.87499999999950151 0 0 0.75000000000034761 0 0.10409951422139101 0.81206782209691231 0 0.1249999999997731 0 0 0.24999999999941069 0 0 0.19185372118111221 0.092925648673580788 0 1 0.1249999999997731 0 1 0.24999999999941069 0 0.89658421694297741 0.1933620068391701 0 0.88927506082488361 0.56409486310635837 0 0.81242894672211508 0.45500248311961472 0 0.915464298762109 0.43749999999886913 0 0.87499999999950151 1 0 0.75000000000034761 1 0 0.80886664387416207 0.89717308644237903 0 0.75000000000034761 1 0 0.69010814643829166 0.89298495739101336 0 0.80886664387416207 0.89717308644237903 0 0.82212678063041267 0.67678595194836966 0 0.88927506082488361 0.56409486310635837 0 0.92266244547590082 0.68749999999917555 0 0 0.75000000000034761 0 0.1082531754723032 0.6875000000007816 0 0.10409951422139101 0.81206782209691231 0 0.24999999999941069 0 0 0.31281086598417152 0.10449318608631281 0 0.19185372118111221 0.092925648673580788 0 1 0.24999999999941069 0 0.88173731489851925 0.33077402607778361 0 0.89658421694297741 0.1933620068391701 0 0.32815957677880009 0.4577243358118348 0 0.38694285807596462 0.5672991787102919 0 0.26982811998763367 0.56544650815856912 0 0.76243180583607129 0.78687675331113149 0 0.89051480781310632 0.79665793440246835 0 0.80886664387416207 0.89717308644237903 0 0.38694285807596462 0.5672991787102919 0 0.44078402250377968 0.67714785211715212 0 0.32607333794064219 0.67760114260606152 0 0.37776173212361452 0.78514649317305008 0 0.23533274979922561 0.77093399389351469 0 0.32607333794064219 0.67760114260606152 0 1 0.49999999999869221 0 0.88927506082488361 0.56409486310635837 0 0.915464298762109 0.43749999999886913 0 0.88173731489851925 0.33077402607778361 0 1 0.37499999999904599 0 0.915464298762109 0.43749999999886913 0 0.24418615484441761 0.35773612382016978 0 0.37953773393552892 0.34812185820708452 0 0.32815957677880009 0.4577243358118348 0 0.44301038174930041 0.45684931552185398 0 0.38694285807596462 0.5672991787102919 0 0.32815957677880009 0.4577243358118348 0 0.88927506082488361 0.56409486310635837 0 1 0.62499999999901068 0 0.92266244547590082 0.68749999999917555 0 1 0.74999999999934042 0 0.89051480781310632 0.79665793440246835 0 0.92266244547590082 0.68749999999917555 0 0 1 0 0 0.87499999999950151 0 0.091506350946494744 0.90849364905351082 0 1 1 0 0.87499999999950151 1 0 0.90849364905363228 0.90849364905367769 0 0 0 0 0.1249999999997731 0 0 0.091506350946417708 0.091506350946618076 0 0 0.12500000000052089 0 0 0 0 0.091506350946417708 0.091506350946618076 0 1 0 0 1 0.1249999999997731 0 0.90849364905355434 0.091506350946296292 0 0.87499999999967015 0 0 1 0 0 0.90849364905355434 0.091506350946296292 0 0.12500000000052089 1 0 0 1 0 0.091506350946494744 0.90849364905351082 0 1 0.87499999999967015 0 1 1 0 0.90849364905363228 0.90849364905367769 0 0.38694285807596462 0.5672991787102919 0 0.32607333794064219 0.67760114260606152 0 0.26982811998763367 0.56544650815856912 0 0.31411863959822661 0.24965544328045999 0 0.24418615484441761 0.35773612382016978 0 0.20767261601459541 0.25628918442207171 0 0.1082531754734323 0.31250000000117473 0 0.12076953676380731 0.18690935762408761 0 0.20767261601459541 0.25628918442207171 0 0.75000000000057243 0.35048094716480432 0 0.68668231842078242 0.24762892664808989 0 0.79891106056046712 0.25007334953587562 0 0.22257735880419699 0.47344721641341742 0 0.32815957677880009 0.4577243358118348 0 0.26982811998763367 0.56544650815856912 0 0.44078402250377968 0.67714785211715212 0 0.37776173212361452 0.78514649317305008 0 0.32607333794064219 0.67760114260606152 0 0.89658421694297741 0.1933620068391701 0 0.88173731489851925 0.33077402607778361 0 0.79891106056046712 0.25007334953587562 0 1 0.37499999999904599 0 1 0.49999999999869221 0 0.915464298762109 0.43749999999886913 0 0.37953773393552892 0.34812185820708452 0 0.44301038174930041 0.45684931552185398 0 0.32815957677880009 0.4577243358118348 0 0.32607333794064219 0.67760114260606152 0 0.21809253452218619 0.65480892822618109 0 0.26982811998763367 0.56544650815856912 0 1 0.1249999999997731 0 0.89658421694297741 0.1933620068391701 0 0.90849364905355434 0.091506350946296292 0 0 0.87499999999950151 0 0.10409951422139101 0.81206782209691231 0 0.091506350946494744 0.90849364905351082 0 0.1249999999997731 0 0 0.19185372118111221 0.092925648673580788 0 0.091506350946417708 0.091506350946618076 0 1 0.62499999999901068 0 1 0.74999999999934042 0 0.92266244547590082 0.68749999999917555 0 0.18802967116092181 0.89415349436770275 0 0.12500000000052089 1 0 0.091506350946494744 0.90849364905351082 0 0.89051480781310632 0.79665793440246835 0 1 0.87499999999967015 0 0.90849364905363228 0.90849364905367769 0 0.12076953676380731 0.18690935762408761 0 0 0.12500000000052089 0 0.091506350946417708 0.091506350946618076 0 0.81249999999950517 0.1082531754733404 0 0.87499999999967015 0 0 0.90849364905355434 0.091506350946296292 0 0.87499999999950151 1 0 0.80886664387416207 0.89717308644237903 0 0.90849364905363228 0.90849364905367769 0 0.68668231842078242 0.24762892664808989 0 0.62499999999892575 0.17524047358135519 0 0.73983916756365475 0.17530677078674589 0 0.31281086598417152 0.10449318608631281 0 0.43749999999910871 0.1082531754729984 0 0.37500000000232431 0.17524047358384309 0 0.62499999999892575 0.17524047358135519 0 0.56250000000143974 0.2422277716920859 0 0.49999999999934441 0.1752404735815076 0 0.56249999999885147 0.1082531754730395 0 0.68749999999926592 0.1082531754732875 0 0.62499999999892575 0.17524047358135519 0 0.56249999999885147 0.1082531754730395 0 0.62499999999892575 0.17524047358135519 0 0.49999999999934441 0.1752404735815076 0 0.56250000000143974 0.2422277716920859 0 0.43750000000200551 0.24222777169198509 0 0.49999999999934441 0.1752404735815076 0 0.43749999999910871 0.1082531754729984 0 0.56249999999885147 0.1082531754730395 0 0.49999999999934441 0.1752404735815076 0 0.68668231842078242 0.24762892664808989 0 0.56250000000143974 0.2422277716920859 0 0.62499999999892575 0.17524047358135519 0 0.43750000000200551 0.24222777169198509 0 0.31411863959822661 0.24965544328045999 0 0.37500000000232431 0.17524047358384309 0 0.49999999999934441 0.1752404735815076 0 0.43750000000200551 0.24222777169198509 0 0.37500000000232431 0.17524047358384309 0 0.43749999999910871 0.1082531754729984 0 0.49999999999934441 0.1752404735815076 0 0.37500000000232431 0.17524047358384309 0 0.62499999999892575 0.17524047358135519 0 0.68749999999926592 0.1082531754732875 0 0.73983916756365475 0.17530677078674589 0 0.68749999999926592 0.1082531754732875 0 0.81249999999950517 0.1082531754733404 0 0.73983916756365475 0.17530677078674589 0 0.10409951422139101 0.81206782209691231 0 0.18802967116092181 0.89415349436770275 0 0.091506350946494744 0.90849364905351082 0 0.89658421694297741 0.1933620068391701 0 0.81249999999950517 0.1082531754733404 0 0.90849364905355434 0.091506350946296292 0 0.19185372118111221 0.092925648673580788 0 0.12076953676380731 0.18690935762408761 0 0.091506350946417708 0.091506350946618076 0 0.37500000000232431 0.17524047358384309 0 0.31411863959822661 0.24965544328045999 0 0.25103557339309318 0.17464499738446629 0 0.31281086598417152 0.10449318608631281 0 0.37500000000232431 0.17524047358384309 0 0.25103557339309318 0.17464499738446629 0 0.80886664387416207 0.89717308644237903 0 0.89051480781310632 0.79665793440246835 0 0.90849364905363228 0.90849364905367769 0 0.19185372118111221 0.092925648673580788 0 0.31281086598417152 0.10449318608631281 0 0.25103557339309318 0.17464499738446629 0 0.79891106056046712 0.25007334953587562 0 0.68668231842078242 0.24762892664808989 0 0.73983916756365475 0.17530677078674589 0 0.31411863959822661 0.24965544328045999 0 0.20767261601459541 0.25628918442207171 0 0.25103557339309318 0.17464499738446629 0 

        </DataArray>

      </Points>

      <Cells>

        <DataArray type="Int32" Name="connectivity" format="ascii">

0 1 2 3 4 5 6 7 8 9 10 11 12 13 14 15 16 17 18 19 20 21 22 23 24 25 26 27 28 29 30 31 32 33 34 35 36 37 38 39 40 41 42 43 44 45 46 47 48 49 50 51 52 53 54 55 56 57 58 59 60 61 62 63 64 65 66 67 68 69 70 71 72 73 74 75 76 77 78 79 80 81 82 83 84 85 86 87 88 89 90 91 92 93 94 95 96 97 98 99 100 101 102 103 104 105 106 107 108 109 110 111 112 113 114 115 116 117 118 119 120 121 122 123 124 125 126 127 128 129 130 131 132 133 134 135 136 137 138 139 140 141 142 143 144 145 146 147 148 149 150 151 152 153 154 155 156 157 158 159 160 161 162 163 164 165 166 167 168 169 170 171 172 173 174 175 176 177 178 179 180 181 182 183 184 185 186 187 188 189 190 191 192 193 194 195 196 197 198 199 200 201 202 203 204 205 206 207 208 209 210 211 212 213 214 215 216 217 218 219 220 221 222 223 224 225 226 227 228 229 230 231 232 233 234 235 236 237 238 239 240 241 242 243 244 245 246 247 248 249 250 251 252 253 254 255 256 257 258 259 260 261 262 263 264 265 266 267 268 269 270 271 272 273 274 275 276 277 278 279 280 281 282 283 284 285 286 287 288 289 290 291 292 293 294 295 296 297 298 299 300 301 302 303 304 305 306 307 308 309 310 311 312 313 314 315 316 317 318 319 320 321 322 323 324 325 326 327 328 329 330 331 332 333 334 335 336 337 338 339 340 341 342 343 344 345 346 347 348 349 350 351 352 353 354 355 356 357 358 359 360 361 362 363 364 365 366 367 368 369 370 371 372 373 374 375 376 377 378 379 380 381 382 383 384 385 386 387 388 389 390 391 392 393 394 395 396 397 398 399 400 401 402 403 404 405 406 407 408 409 410 411 412 413 414 415 416 417 418 419 420 421 422 423 424 425 426 427 428 429 430 431 432 433 434 435 436 437 438 439 440 441 442 443 444 445 446 447 448 449 450 451 452 453 454 455 456 457 458 459 460 461 462 463 464 465 466 467 468 469 470 471 472 473 474 475 476 477 478 479 480 481 482 483 484 485 

        </DataArray>

        <DataArray type="Int32" Name="offsets" format="ascii">

3 6 9 12 15 18 21 24 27 30 33 36 39 42 45 48 51 54 57 60 63 66 69 72 75 78 81 84 87 90 93 96 99 102 105 108 111 114 117 120 123 126 129 132 135 138 141 144 147 150 153 156 159 162 165 168 171 174 177 180 183 186 189 192 195 198 201 204 207 210 213 216 219 222 225 228 231 234 237 240 243 246 249 252 255 258 261 264 267 270 273 276 279 282 285 288 291 294 297 300 303 306 309 312 315 318 321 324 327 330 333 336 339 342 345 348 351 354 357 360 363 366 369 372 375 378 381 384 387 390 393 396 399 402 405 408 411 414 417 420 423 426 429 432 435 438 441 444 447 450 453 456 459 462 465 468 471 474 477 480 483 486 

        </DataArray>

        <DataArray type="Int32" Name="types" format="ascii">

5 5 5 5 5 5 5 5 5 5 5 5 5 5 5 5 5 5 5 5 5 5 5 5 5 5 5 5 5 5 5 5 5 5 5 5 5 5 5 5 5 5 5 5 5 5 5 5 5 5 5 5 5 5 5 5 5 5 5 5 5 5 5 5 5 5 5 5 5 5 5 5 5 5 5 5 5 5 5 5 5 5 5 5 5 5 5 5 5 5 5 5 5 5 5 5 5 5 5 5 5 5 5 5 5 5 5 5 5 5 5 5 5 5 5 5 5 5 5 5 5 5 5 5 5 5 5 5 5 5 5 5 5 5 5 5 5 5 5 5 5 5 5 5 5 5 5 5 5 5 5 5 5 5 5 5 5 5 5 5 5 5 

        </DataArray>

      </Cells>

    </Piece>

  </UnstructuredGrid>

</VTKFile>

