<?xml version="1.0"?>

<VTKFile type="UnstructuredGrid" version="0.1">

  <UnstructuredGrid>

    <Piece NumberOfPoints="486" NumberOfCells="162">

      <PointData>

        <DataArray type="Float64" Name="K" format="ascii">

1.07151414936797873e+00
1.07151414936797873e+00
1.07151414936797873e+00
1.06716237528400026e+00
1.06716237528400026e+00
1.06716237528400026e+00
9.79176522052457532e-01
9.79176522052457532e-01
9.79176522052457532e-01
1.01486227728039591e+00
1.01486227728039591e+00
1.01486227728039591e+00
9.88731535490295355e-01
9.88731535490295355e-01
9.88731535490295355e-01
1.00157855425727438e+00
1.00157855425727438e+00
1.00157855425727438e+00
1.00508660635787073e+00
1.00508660635787073e+00
1.00508660635787073e+00
9.70185630614825434e-01
9.70185630614825434e-01
9.70185630614825434e-01
9.79454477045252236e-01
9.79454477045252236e-01
9.79454477045252236e-01
9.63255996837853901e-01
9.63255996837853901e-01
9.63255996837853901e-01
9.93389586566590932e-01
9.93389586566590932e-01
9.93389586566590932e-01
1.02086084014980316e+00
1.02086084014980316e+00
1.02086084014980316e+00
9.49316411374702906e-01
9.49316411374702906e-01
9.49316411374702906e-01
9.60831226349261658e-01
9.60831226349261658e-01
9.60831226349261658e-01
9.72387741611282830e-01
9.72387741611282830e-01
9.72387741611282830e-01
9.74930557591217051e-01
9.74930557591217051e-01
9.74930557591217051e-01
1.06787116597890575e+00
1.06787116597890575e+00
1.06787116597890575e+00
9.94055489295979644e-01
9.94055489295979644e-01
9.94055489295979644e-01
9.64091173239771781e-01
9.64091173239771781e-01
9.64091173239771781e-01
9.89044255461620669e-01
9.89044255461620669e-01
9.89044255461620669e-01
1.01963722628144215e+00
1.01963722628144215e+00
1.01963722628144215e+00
1.03955582266590385e+00
1.03955582266590385e+00
1.03955582266590385e+00
9.84277225881563855e-01
9.84277225881563855e-01
9.84277225881563855e-01
1.03743160497761489e+00
1.03743160497761489e+00
1.03743160497761489e+00
9.57242772564040889e-01
9.57242772564040889e-01
9.57242772564040889e-01
1.06266632673043770e+00
1.06266632673043770e+00
1.06266632673043770e+00
1.05621113959787527e+00
1.05621113959787527e+00
1.05621113959787527e+00
1.06532368428034707e+00
1.06532368428034707e+00
1.06532368428034707e+00
1.04106038632806852e+00
1.04106038632806852e+00
1.04106038632806852e+00
9.62900386811166409e-01
9.62900386811166409e-01
9.62900386811166409e-01
9.84997593397958116e-01
9.84997593397958116e-01
9.84997593397958116e-01
1.07606096607079027e+00
1.07606096607079027e+00
1.07606096607079027e+00
1.06816676420178891e+00
1.06816676420178891e+00
1.06816676420178891e+00
9.75826066800097647e-01
9.75826066800097647e-01
9.75826066800097647e-01
1.05762312167677552e+00
1.05762312167677552e+00
1.05762312167677552e+00
1.05330514034216471e+00
1.05330514034216471e+00
1.05330514034216471e+00
9.85850402080818089e-01
9.85850402080818089e-01
9.85850402080818089e-01
9.94402099831205533e-01
9.94402099831205533e-01
9.94402099831205533e-01
9.81063141748245715e-01
9.81063141748245715e-01
9.81063141748245715e-01
1.03203352502638612e+00
1.03203352502638612e+00
1.03203352502638612e+00
1.04937311919076737e+00
1.04937311919076737e+00
1.04937311919076737e+00
1.07924678250608164e+00
1.07924678250608164e+00
1.07924678250608164e+00
9.69157913590567244e-01
9.69157913590567244e-01
9.69157913590567244e-01
9.49865556562003110e-01
9.49865556562003110e-01
9.49865556562003110e-01
1.04501392040207830e+00
1.04501392040207830e+00
1.04501392040207830e+00
9.96308447465165781e-01
9.96308447465165781e-01
9.96308447465165781e-01
1.03827075327223417e+00
1.03827075327223417e+00
1.03827075327223417e+00
1.01365448464286456e+00
1.01365448464286456e+00
1.01365448464286456e+00
1.07933568330190277e+00
1.07933568330190277e+00
1.07933568330190277e+00
9.52161659235591373e-01
9.52161659235591373e-01
9.52161659235591373e-01
1.02852236958689391e+00
1.02852236958689391e+00
1.02852236958689391e+00
1.06662662286756604e+00
1.06662662286756604e+00
1.06662662286756604e+00
1.06698255282351195e+00
1.06698255282351195e+00
1.06698255282351195e+00
1.00152237273766032e+00
1.00152237273766032e+00
1.00152237273766032e+00
1.01793132139410991e+00
1.01793132139410991e+00
1.01793132139410991e+00
1.03215628965090622e+00
1.03215628965090622e+00
1.03215628965090622e+00
1.06128115142732371e+00
1.06128115142732371e+00
1.06128115142732371e+00
1.07810100028311640e+00
1.07810100028311640e+00
1.07810100028311640e+00
9.53845168152342882e-01
9.53845168152342882e-01
9.53845168152342882e-01
9.19446141629133296e-01
9.19446141629133296e-01
9.19446141629133296e-01
1.05373840725333112e+00
1.05373840725333112e+00
1.05373840725333112e+00
1.01876603811751498e+00
1.01876603811751498e+00
1.01876603811751498e+00
1.05622907302402091e+00
1.05622907302402091e+00
1.05622907302402091e+00
9.61412426641722329e-01
9.61412426641722329e-01
9.61412426641722329e-01
1.02100340323712602e+00
1.02100340323712602e+00
1.02100340323712602e+00
9.74291362324624433e-01
9.74291362324624433e-01
9.74291362324624433e-01
1.03532579357011056e+00
1.03532579357011056e+00
1.03532579357011056e+00
1.02449510069221295e+00
1.02449510069221295e+00
1.02449510069221295e+00
9.95267475129121393e-01
9.95267475129121393e-01
9.95267475129121393e-01
1.01138502166584310e+00
1.01138502166584310e+00
1.01138502166584310e+00
1.02148063401085709e+00
1.02148063401085709e+00
1.02148063401085709e+00
9.92170298029772191e-01
9.92170298029772191e-01
9.92170298029772191e-01
9.48923409578024901e-01
9.48923409578024901e-01
9.48923409578024901e-01
9.83553832589741051e-01
9.83553832589741051e-01
9.83553832589741051e-01
1.02699396909260798e+00
1.02699396909260798e+00
1.02699396909260798e+00
1.03049099920722442e+00
1.03049099920722442e+00
1.03049099920722442e+00
9.70835984896533111e-01
9.70835984896533111e-01
9.70835984896533111e-01
9.80179032852760312e-01
9.80179032852760312e-01
9.80179032852760312e-01
9.88249362606979820e-01
9.88249362606979820e-01
9.88249362606979820e-01
9.65352310749978293e-01
9.65352310749978293e-01
9.65352310749978293e-01
9.49503238161282570e-01
9.49503238161282570e-01
9.49503238161282570e-01
9.58357522037315279e-01
9.58357522037315279e-01
9.58357522037315279e-01
1.03405034859668610e+00
1.03405034859668610e+00
1.03405034859668610e+00
9.60400142180350413e-01
9.60400142180350413e-01
9.60400142180350413e-01
9.42118066159912559e-01
9.42118066159912559e-01
9.42118066159912559e-01
9.36660187311520565e-01
9.36660187311520565e-01
9.36660187311520565e-01
1.00390339765271475e+00
1.00390339765271475e+00
1.00390339765271475e+00
1.02923057538301488e+00
1.02923057538301488e+00
1.02923057538301488e+00
9.97934557127084121e-01
9.97934557127084121e-01
9.97934557127084121e-01
1.01341874154743983e+00
1.01341874154743983e+00
1.01341874154743983e+00
1.01335667845824084e+00
1.01335667845824084e+00
1.01335667845824084e+00
9.90064118087897627e-01
9.90064118087897627e-01
9.90064118087897627e-01
9.91820086572770654e-01
9.91820086572770654e-01
9.91820086572770654e-01
1.04424551893636752e+00
1.04424551893636752e+00
1.04424551893636752e+00
9.82384003453054544e-01
9.82384003453054544e-01
9.82384003453054544e-01
1.06571440064525524e+00
1.06571440064525524e+00
1.06571440064525524e+00
9.69364768534120791e-01
9.69364768534120791e-01
9.69364768534120791e-01
9.86427968466888183e-01
9.86427968466888183e-01
9.86427968466888183e-01
9.85910948902411266e-01
9.85910948902411266e-01
9.85910948902411266e-01
9.50994574590912967e-01
9.50994574590912967e-01
9.50994574590912967e-01
1.04982174301669295e+00
1.04982174301669295e+00
1.04982174301669295e+00
1.01408658050636991e+00
1.01408658050636991e+00
1.01408658050636991e+00
1.05917615899229367e+00
1.05917615899229367e+00
1.05917615899229367e+00
1.03783750191962487e+00
1.03783750191962487e+00
1.03783750191962487e+00
9.86186456371682674e-01
9.86186456371682674e-01
9.86186456371682674e-01
1.03051831729522547e+00
1.03051831729522547e+00
1.03051831729522547e+00
1.06100478319498204e+00
1.06100478319498204e+00
1.06100478319498204e+00
9.71626004222459705e-01
9.71626004222459705e-01
9.71626004222459705e-01
1.01224906980101981e+00
1.01224906980101981e+00
1.01224906980101981e+00
1.02569536171503617e+00
1.02569536171503617e+00
1.02569536171503617e+00
1.01941560845865697e+00
1.01941560845865697e+00
1.01941560845865697e+00
9.58761450532246373e-01
9.58761450532246373e-01
9.58761450532246373e-01
9.62040237913090790e-01
9.62040237913090790e-01
9.62040237913090790e-01
1.04076670743017896e+00
1.04076670743017896e+00
1.04076670743017896e+00
9.58216334782138857e-01
9.58216334782138857e-01
9.58216334782138857e-01
9.31220373714010785e-01
9.31220373714010785e-01
9.31220373714010785e-01
9.18740980572256616e-01
9.18740980572256616e-01
9.18740980572256616e-01
1.06086531476517787e+00
1.06086531476517787e+00
1.06086531476517787e+00
1.05455961614056926e+00
1.05455961614056926e+00
1.05455961614056926e+00
1.03133819224224577e+00
1.03133819224224577e+00
1.03133819224224577e+00
9.49207349635692976e-01
9.49207349635692976e-01
9.49207349635692976e-01
1.04500314241664838e+00
1.04500314241664838e+00
1.04500314241664838e+00
1.00341125292273903e+00
1.00341125292273903e+00
1.00341125292273903e+00
9.75243122919182026e-01
9.75243122919182026e-01
9.75243122919182026e-01
1.02988877424551650e+00
1.02988877424551650e+00
1.02988877424551650e+00
1.02930067396266778e+00
1.02930067396266778e+00
1.02930067396266778e+00
1.04946478574631552e+00
1.04946478574631552e+00
1.04946478574631552e+00
1.05791285199062068e+00
1.05791285199062068e+00
1.05791285199062068e+00
9.97130409876292534e-01
9.97130409876292534e-01
9.97130409876292534e-01
1.02654156002832453e+00
1.02654156002832453e+00
1.02654156002832453e+00
1.05642795554590951e+00
1.05642795554590951e+00
1.05642795554590951e+00
1.07183443904910503e+00
1.07183443904910503e+00
1.07183443904910503e+00
1.05637260592631299e+00
1.05637260592631299e+00
1.05637260592631299e+00
9.53595599498959223e-01
9.53595599498959223e-01
9.53595599498959223e-01
9.59352011725538745e-01
9.59352011725538745e-01
9.59352011725538745e-01
1.03873469355483916e+00
1.03873469355483916e+00
1.03873469355483916e+00
9.62989431384141392e-01
9.62989431384141392e-01
9.62989431384141392e-01
9.25440694076176684e-01
9.25440694076176684e-01
9.25440694076176684e-01
1.05674480378987767e+00
1.05674480378987767e+00
1.05674480378987767e+00
9.81998995431822896e-01
9.81998995431822896e-01
9.81998995431822896e-01
1.05270190793346274e+00
1.05270190793346274e+00
1.05270190793346274e+00
1.02163899169925565e+00
1.02163899169925565e+00
1.02163899169925565e+00
1.05622187089913933e+00
1.05622187089913933e+00
1.05622187089913933e+00
1.07808731613321296e+00
1.07808731613321296e+00
1.07808731613321296e+00
1.06555191747055789e+00
1.06555191747055789e+00
1.06555191747055789e+00
1.04552885049689626e+00
1.04552885049689626e+00
1.04552885049689626e+00
1.04462172064467351e+00
1.04462172064467351e+00
1.04462172064467351e+00
1.04576134920952435e+00
1.04576134920952435e+00
1.04576134920952435e+00
1.03124223019855887e+00
1.03124223019855887e+00
1.03124223019855887e+00
1.03790650898290782e+00
1.03790650898290782e+00
1.03790650898290782e+00
1.03163591760179907e+00
1.03163591760179907e+00
1.03163591760179907e+00
1.06859190945612026e+00
1.06859190945612026e+00
1.06859190945612026e+00
1.06322298570279306e+00
1.06322298570279306e+00
1.06322298570279306e+00
1.06158803583255867e+00
1.06158803583255867e+00
1.06158803583255867e+00
1.06652612436946970e+00
1.06652612436946970e+00
1.06652612436946970e+00
9.58152191211910975e-01
9.58152191211910975e-01
9.58152191211910975e-01
1.02154499183615211e+00
1.02154499183615211e+00
1.02154499183615211e+00
1.02233324954896432e+00
1.02233324954896432e+00
1.02233324954896432e+00
9.84506832157275413e-01
9.84506832157275413e-01
9.84506832157275413e-01
1.01497357617657036e+00
1.01497357617657036e+00
1.01497357617657036e+00
1.04487468117979998e+00
1.04487468117979998e+00
1.04487468117979998e+00
1.00895142910567737e+00
1.00895142910567737e+00
1.00895142910567737e+00


        </DataArray>

      </PointData>

      <CellData/>

      <Points>

        <DataArray type="Float64" NumberOfComponents="3" format="ascii">

0.1082531754723032 0.6875000000007816 0 0.23533274979922561 0.77093399389351469 0 0.10409951422139101 0.81206782209691231 0 0.23533274979922561 0.77093399389351469 0 0.1082531754723032 0.6875000000007816 0 0.21809253452218619 0.65480892822618109 0 0.24418615484441761 0.35773612382016978 0 0.121259140952891 0.43112117036853742 0 0.1082531754734323 0.31250000000117473 0 0.75000000000057243 0.35048094716480432 0 0.88173731489851925 0.33077402607778361 0 0.81242894672211508 0.45500248311961472 0 0.121259140952891 0.43112117036853742 0 0.24418615484441761 0.35773612382016978 0 0.22257735880419699 0.47344721641341742 0 0.81242894672211508 0.45500248311961472 0 0.88173731489851925 0.33077402607778361 0 0.915464298762109 0.43749999999886913 0 0 0.62500000000121547 0 0 0.50000000000206146 0 0.1371230538040123 0.56179824718362847 0 0.82212678063041267 0.67678595194836966 0 0.89051480781310632 0.79665793440246835 0 0.76243180583607129 0.78687675331113149 0 0.76243180583607129 0.78687675331113149 0 0.69010814643829166 0.89298495739101336 0 0.62844955668446423 0.7850749770380413 0 0.89051480781310632 0.79665793440246835 0 0.82212678063041267 0.67678595194836966 0 0.92266244547590082 0.68749999999917555 0 0 0.50000000000206146 0 0.121259140952891 0.43112117036853742 0 0.1371230538040123 0.56179824718362847 0 0.1082531754723032 0.6875000000007816 0 0 0.62500000000121547 0 0.1371230538040123 0.56179824718362847 0 0.75000000000032374 0.56698729811007709 0 0.88927506082488361 0.56409486310635837 0 0.82212678063041267 0.67678595194836966 0 0.81242894672211508 0.45500248311961472 0 0.88927506082488361 0.56409486310635837 0 0.75000000000032374 0.56698729811007709 0 0.69851598570178741 0.68211701800612057 0 0.56496004948275869 0.67675037307860475 0 0.62752533658682441 0.56838075195614346 0 0.69851598570178741 0.68211701800612057 0 0.76243180583607129 0.78687675331113149 0 0.62844955668446423 0.7850749770380413 0 0.23533274979922561 0.77093399389351469 0 0.18802967116092181 0.89415349436770275 0 0.10409951422139101 0.81206782209691231 0 0.121259140952891 0.43112117036853742 0 0.22257735880419699 0.47344721641341742 0 0.1371230538040123 0.56179824718362847 0 0.75000000000032374 0.56698729811007709 0 0.69851598570178741 0.68211701800612057 0 0.62752533658682441 0.56838075195614346 0 0.56496004948275869 0.67675037307860475 0 0.69851598570178741 0.68211701800612057 0 0.62844955668446423 0.7850749770380413 0 0.1371230538040123 0.56179824718362847 0 0.22257735880419699 0.47344721641341742 0 0.26982811998763367 0.56544650815856912 0 0.21809253452218619 0.65480892822618109 0 0.1371230538040123 0.56179824718362847 0 0.26982811998763367 0.56544650815856912 0 0.24418615484441761 0.35773612382016978 0 0.1082531754734323 0.31250000000117473 0 0.20767261601459541 0.25628918442207171 0 0.88173731489851925 0.33077402607778361 0 0.75000000000057243 0.35048094716480432 0 0.79891106056046712 0.25007334953587562 0 0.75000000000032374 0.56698729811007709 0 0.82212678063041267 0.67678595194836966 0 0.69851598570178741 0.68211701800612057 0 0.81249999999950517 0.1082531754733404 0 0.89658421694297741 0.1933620068391701 0 0.79891106056046712 0.25007334953587562 0 0.81249999999950517 0.1082531754733404 0 0.79891106056046712 0.25007334953587562 0 0.73983916756365475 0.17530677078674589 0 0.23533274979922561 0.77093399389351469 0 0.21809253452218619 0.65480892822618109 0 0.32607333794064219 0.67760114260606152 0 0.1082531754723032 0.6875000000007816 0 0.1371230538040123 0.56179824718362847 0 0.21809253452218619 0.65480892822618109 0 0.69851598570178741 0.68211701800612057 0 0.82212678063041267 0.67678595194836966 0 0.76243180583607129 0.78687675331113149 0 0.69010814643829166 0.89298495739101336 0 0.76243180583607129 0.78687675331113149 0 0.80886664387416207 0.89717308644237903 0 0.43750000000181222 0.89174682452709564 0 0.31258827852827581 0.89214793616708443 0 0.37776173212361452 0.78514649317305008 0 0.43750000000181222 0.89174682452709564 0 0.37500000000156292 1 0 0.31258827852827581 0.89214793616708443 0 0.121259140952891 0.43112117036853742 0 0 0.37500000000156292 0 0.1082531754734323 0.31250000000117473 0 0.50000000000206146 1 0 0.37500000000156292 1 0 0.43750000000181222 0.89174682452709564 0 0.31258827852827581 0.89214793616708443 0 0.18802967116092181 0.89415349436770275 0 0.23533274979922561 0.77093399389351469 0 0 0.50000000000206146 0 0 0.37500000000156292 0 0.121259140952891 0.43112117036853742 0 0.62844955668446423 0.7850749770380413 0 0.69010814643829166 0.89298495739101336 0 0.56327595140699671 0.89211526915426331 0 0.69010814643829166 0.89298495739101336 0 0.62500000000121547 1 0 0.56327595140699671 0.89211526915426331 0 0.25000000000104189 1 0 0.18802967116092181 0.89415349436770275 0 0.31258827852827581 0.89214793616708443 0 0.50000000000206146 1 0 0.43750000000181222 0.89174682452709564 0 0.56327595140699671 0.89211526915426331 0 0.56249999999885147 0.1082531754730395 0 0.62499999999901068 0 0 0.68749999999926592 0.1082531754732875 0 1 0.49999999999869221 0 1 0.62499999999901068 0 0.88927506082488361 0.56409486310635837 0 0 0.25000000000104189 0 0.12076953676380731 0.18690935762408761 0 0.1082531754734323 0.31250000000117473 0 0.49999999999869221 0 0 0.62499999999901068 0 0 0.56249999999885147 0.1082531754730395 0 0.62500000000121547 1 0 0.50000000000206146 1 0 0.56327595140699671 0.89211526915426331 0 0.37500000000156292 1 0 0.25000000000104189 1 0 0.31258827852827581 0.89214793616708443 0 0.31281086598417152 0.10449318608631281 0 0.37499999999904599 0 0 0.43749999999910871 0.1082531754729984 0 0.43750000000181222 0.89174682452709564 0 0.37776173212361452 0.78514649317305008 0 0.50046028868828263 0.78376912307435687 0 0 0.37500000000156292 0 0 0.25000000000104189 0 0.1082531754734323 0.31250000000117473 0 0.49999999999869221 0 0 0.56249999999885147 0.1082531754730395 0 0.43749999999910871 0.1082531754729984 0 0.43750000000181222 0.89174682452709564 0 0.50046028868828263 0.78376912307435687 0 0.56327595140699671 0.89211526915426331 0 0.74999999999934042 0 0 0.81249999999950517 0.1082531754733404 0 0.68749999999926592 0.1082531754732875 0 0.37499999999904599 0 0 0.49999999999869221 0 0 0.43749999999910871 0.1082531754729984 0 0.25000000000104189 1 0 0.12500000000052089 1 0 0.18802967116092181 0.89415349436770275 0 0.50046028868828263 0.78376912307435687 0 0.62844955668446423 0.7850749770380413 0 0.56327595140699671 0.89211526915426331 0 0.37776173212361452 0.78514649317305008 0 0.31258827852827581 0.89214793616708443 0 0.23533274979922561 0.77093399389351469 0 0.62499999999901068 0 0 0.74999999999934042 0 0 0.68749999999926592 0.1082531754732875 0 1 0.74999999999934042 0 1 0.87499999999967015 0 0.89051480781310632 0.79665793440246835 0 0 0.25000000000104189 0 0 0.12500000000052089 0 0.12076953676380731 0.18690935762408761 0 0.74999999999934042 0 0 0.87499999999967015 0 0 0.81249999999950517 0.1082531754733404 0 0.24999999999941069 0 0 0.37499999999904599 0 0 0.31281086598417152 0.10449318608631281 0 0.50046028868828263 0.78376912307435687 0 0.37776173212361452 0.78514649317305008 0 0.44078402250377968 0.67714785211715212 0 0.68768773896438518 0.4586835206367198 0 0.75000000000032374 0.56698729811007709 0 0.62752533658682441 0.56838075195614346 0 0.31411863959822661 0.24965544328045999 0 0.37953773393552892 0.34812185820708452 0 0.24418615484441761 0.35773612382016978 0 0.68768773896438518 0.4586835206367198 0 0.81242894672211508 0.45500248311961472 0 0.75000000000032374 0.56698729811007709 0 1 0.24999999999941069 0 1 0.37499999999904599 0 0.88173731489851925 0.33077402607778361 0 0 0.75000000000034761 0 0 0.62500000000121547 0 0.1082531754723032 0.6875000000007816 0 0.50048844149666749 0.56727788297625459 0 0.44078402250377968 0.67714785211715212 0 0.38694285807596462 0.5672991787102919 0 0.50108503093851109 0.35012252869403671 0 0.44301038174930041 0.45684931552185398 0 0.37953773393552892 0.34812185820708452 0 0.50046028868828263 0.78376912307435687 0 0.56496004948275869 0.67675037307860475 0 0.62844955668446423 0.7850749770380413 0 0.68768773896438518 0.4586835206367198 0 0.75000000000057243 0.35048094716480432 0 0.81242894672211508 0.45500248311961472 0 0.56349980387502452 0.45846841892908402 0 0.62512662990940393 0.35044303886909911 0 0.68768773896438518 0.4586835206367198 0 0.50048844149666749 0.56727788297625459 0 0.38694285807596462 0.5672991787102919 0 0.44301038174930041 0.45684931552185398 0 0.50046028868828263 0.78376912307435687 0 0.44078402250377968 0.67714785211715212 0 0.56496004948275869 0.67675037307860475 0 0.50108503093851109 0.35012252869403671 0 0.37953773393552892 0.34812185820708452 0 0.43750000000200551 0.24222777169198509 0 0.75000000000034761 1 0 0.62500000000121547 1 0 0.69010814643829166 0.89298495739101336 0 0.68768773896438518 0.4586835206367198 0 0.62512662990940393 0.35044303886909911 0 0.75000000000057243 0.35048094716480432 0 0.56496004948275869 0.67675037307860475 0 0.44078402250377968 0.67714785211715212 0 0.50048844149666749 0.56727788297625459 0 0.56349980387502452 0.45846841892908402 0 0.44301038174930041 0.45684931552185398 0 0.50108503093851109 0.35012252869403671 0 0.50048844149666749 0.56727788297625459 0 0.44301038174930041 0.45684931552185398 0 0.56349980387502452 0.45846841892908402 0 0.56349980387502452 0.45846841892908402 0 0.50108503093851109 0.35012252869403671 0 0.62512662990940393 0.35044303886909911 0 0.43750000000200551 0.24222777169198509 0 0.37953773393552892 0.34812185820708452 0 0.31411863959822661 0.24965544328045999 0 0.56496004948275869 0.67675037307860475 0 0.50048844149666749 0.56727788297625459 0 0.62752533658682441 0.56838075195614346 0 0.56349980387502452 0.45846841892908402 0 0.68768773896438518 0.4586835206367198 0 0.62752533658682441 0.56838075195614346 0 0.50048844149666749 0.56727788297625459 0 0.56349980387502452 0.45846841892908402 0 0.62752533658682441 0.56838075195614346 0 0.75000000000057243 0.35048094716480432 0 0.62512662990940393 0.35044303886909911 0 0.68668231842078242 0.24762892664808989 0 0.50108503093851109 0.35012252869403671 0 0.43750000000200551 0.24222777169198509 0 0.56250000000143974 0.2422277716920859 0 0.62512662990940393 0.35044303886909911 0 0.50108503093851109 0.35012252869403671 0 0.56250000000143974 0.2422277716920859 0 0.68668231842078242 0.24762892664808989 0 0.62512662990940393 0.35044303886909911 0 0.56250000000143974 0.2422277716920859 0 0.22257735880419699 0.47344721641341742 0 0.24418615484441761 0.35773612382016978 0 0.32815957677880009 0.4577243358118348 0 0.12076953676380731 0.18690935762408761 0 0.19185372118111221 0.092925648673580788 0 0.25103557339309318 0.17464499738446629 0 0.20767261601459541 0.25628918442207171 0 0.12076953676380731 0.18690935762408761 0 0.25103557339309318 0.17464499738446629 0 0 0.87499999999950151 0 0 0.75000000000034761 0 0.10409951422139101 0.81206782209691231 0 0.1249999999997731 0 0 0.24999999999941069 0 0 0.19185372118111221 0.092925648673580788 0 1 0.1249999999997731 0 1 0.24999999999941069 0 0.89658421694297741 0.1933620068391701 0 0.88927506082488361 0.56409486310635837 0 0.81242894672211508 0.45500248311961472 0 0.915464298762109 0.43749999999886913 0 0.87499999999950151 1 0 0.75000000000034761 1 0 0.80886664387416207 0.89717308644237903 0 0.75000000000034761 1 0 0.69010814643829166 0.89298495739101336 0 0.80886664387416207 0.89717308644237903 0 0.82212678063041267 0.67678595194836966 0 0.88927506082488361 0.56409486310635837 0 0.92266244547590082 0.68749999999917555 0 0 0.75000000000034761 0 0.1082531754723032 0.6875000000007816 0 0.10409951422139101 0.81206782209691231 0 0.24999999999941069 0 0 0.31281086598417152 0.10449318608631281 0 0.19185372118111221 0.092925648673580788 0 1 0.24999999999941069 0 0.88173731489851925 0.33077402607778361 0 0.89658421694297741 0.1933620068391701 0 0.32815957677880009 0.4577243358118348 0 0.38694285807596462 0.5672991787102919 0 0.26982811998763367 0.56544650815856912 0 0.76243180583607129 0.78687675331113149 0 0.89051480781310632 0.79665793440246835 0 0.80886664387416207 0.89717308644237903 0 0.38694285807596462 0.5672991787102919 0 0.44078402250377968 0.67714785211715212 0 0.32607333794064219 0.67760114260606152 0 0.37776173212361452 0.78514649317305008 0 0.23533274979922561 0.77093399389351469 0 0.32607333794064219 0.67760114260606152 0 1 0.49999999999869221 0 0.88927506082488361 0.56409486310635837 0 0.915464298762109 0.43749999999886913 0 0.88173731489851925 0.33077402607778361 0 1 0.37499999999904599 0 0.915464298762109 0.43749999999886913 0 0.24418615484441761 0.35773612382016978 0 0.37953773393552892 0.34812185820708452 0 0.32815957677880009 0.4577243358118348 0 0.44301038174930041 0.45684931552185398 0 0.38694285807596462 0.5672991787102919 0 0.32815957677880009 0.4577243358118348 0 0.88927506082488361 0.56409486310635837 0 1 0.62499999999901068 0 0.92266244547590082 0.68749999999917555 0 1 0.74999999999934042 0 0.89051480781310632 0.79665793440246835 0 0.92266244547590082 0.68749999999917555 0 0 1 0 0 0.87499999999950151 0 0.091506350946494744 0.90849364905351082 0 1 1 0 0.87499999999950151 1 0 0.90849364905363228 0.90849364905367769 0 0 0 0 0.1249999999997731 0 0 0.091506350946417708 0.091506350946618076 0 0 0.12500000000052089 0 0 0 0 0.091506350946417708 0.091506350946618076 0 1 0 0 1 0.1249999999997731 0 0.90849364905355434 0.091506350946296292 0 0.87499999999967015 0 0 1 0 0 0.90849364905355434 0.091506350946296292 0 0.12500000000052089 1 0 0 1 0 0.091506350946494744 0.90849364905351082 0 1 0.87499999999967015 0 1 1 0 0.90849364905363228 0.90849364905367769 0 0.38694285807596462 0.5672991787102919 0 0.32607333794064219 0.67760114260606152 0 0.26982811998763367 0.56544650815856912 0 0.31411863959822661 0.24965544328045999 0 0.24418615484441761 0.35773612382016978 0 0.20767261601459541 0.25628918442207171 0 0.1082531754734323 0.31250000000117473 0 0.12076953676380731 0.18690935762408761 0 0.20767261601459541 0.25628918442207171 0 0.75000000000057243 0.35048094716480432 0 0.68668231842078242 0.24762892664808989 0 0.79891106056046712 0.25007334953587562 0 0.22257735880419699 0.47344721641341742 0 0.32815957677880009 0.4577243358118348 0 0.26982811998763367 0.56544650815856912 0 0.44078402250377968 0.67714785211715212 0 0.37776173212361452 0.78514649317305008 0 0.32607333794064219 0.67760114260606152 0 0.89658421694297741 0.1933620068391701 0 0.88173731489851925 0.33077402607778361 0 0.79891106056046712 0.25007334953587562 0 1 0.37499999999904599 0 1 0.49999999999869221 0 0.915464298762109 0.43749999999886913 0 0.37953773393552892 0.34812185820708452 0 0.44301038174930041 0.45684931552185398 0 0.32815957677880009 0.4577243358118348 0 0.32607333794064219 0.67760114260606152 0 0.21809253452218619 0.65480892822618109 0 0.26982811998763367 0.56544650815856912 0 1 0.1249999999997731 0 0.89658421694297741 0.1933620068391701 0 0.90849364905355434 0.091506350946296292 0 0 0.87499999999950151 0 0.10409951422139101 0.81206782209691231 0 0.091506350946494744 0.90849364905351082 0 0.1249999999997731 0 0 0.19185372118111221 0.092925648673580788 0 0.091506350946417708 0.091506350946618076 0 1 0.62499999999901068 0 1 0.74999999999934042 0 0.92266244547590082 0.68749999999917555 0 0.18802967116092181 0.89415349436770275 0 0.12500000000052089 1 0 0.091506350946494744 0.90849364905351082 0 0.89051480781310632 0.79665793440246835 0 1 0.87499999999967015 0 0.90849364905363228 0.90849364905367769 0 0.12076953676380731 0.18690935762408761 0 0 0.12500000000052089 0 0.091506350946417708 0.091506350946618076 0 0.81249999999950517 0.1082531754733404 0 0.87499999999967015 0 0 0.90849364905355434 0.091506350946296292 0 0.87499999999950151 1 0 0.80886664387416207 0.89717308644237903 0 0.90849364905363228 0.90849364905367769 0 0.68668231842078242 0.24762892664808989 0 0.62499999999892575 0.17524047358135519 0 0.73983916756365475 0.17530677078674589 0 0.31281086598417152 0.10449318608631281 0 0.43749999999910871 0.1082531754729984 0 0.37500000000232431 0.17524047358384309 0 0.62499999999892575 0.17524047358135519 0 0.56250000000143974 0.2422277716920859 0 0.49999999999934441 0.1752404735815076 0 0.56249999999885147 0.1082531754730395 0 0.68749999999926592 0.1082531754732875 0 0.62499999999892575 0.17524047358135519 0 0.56249999999885147 0.1082531754730395 0 0.62499999999892575 0.17524047358135519 0 0.49999999999934441 0.1752404735815076 0 0.56250000000143974 0.2422277716920859 0 0.43750000000200551 0.24222777169198509 0 0.49999999999934441 0.1752404735815076 0 0.43749999999910871 0.1082531754729984 0 0.56249999999885147 0.1082531754730395 0 0.49999999999934441 0.1752404735815076 0 0.68668231842078242 0.24762892664808989 0 0.56250000000143974 0.2422277716920859 0 0.62499999999892575 0.17524047358135519 0 0.43750000000200551 0.24222777169198509 0 0.31411863959822661 0.24965544328045999 0 0.37500000000232431 0.17524047358384309 0 0.49999999999934441 0.1752404735815076 0 0.43750000000200551 0.24222777169198509 0 0.37500000000232431 0.17524047358384309 0 0.43749999999910871 0.1082531754729984 0 0.49999999999934441 0.1752404735815076 0 0.37500000000232431 0.17524047358384309 0 0.62499999999892575 0.17524047358135519 0 0.68749999999926592 0.1082531754732875 0 0.73983916756365475 0.17530677078674589 0 0.68749999999926592 0.1082531754732875 0 0.81249999999950517 0.1082531754733404 0 0.73983916756365475 0.17530677078674589 0 0.10409951422139101 0.81206782209691231 0 0.18802967116092181 0.89415349436770275 0 0.091506350946494744 0.90849364905351082 0 0.89658421694297741 0.1933620068391701 0 0.81249999999950517 0.1082531754733404 0 0.90849364905355434 0.091506350946296292 0 0.19185372118111221 0.092925648673580788 0 0.12076953676380731 0.18690935762408761 0 0.091506350946417708 0.091506350946618076 0 0.37500000000232431 0.17524047358384309 0 0.31411863959822661 0.24965544328045999 0 0.25103557339309318 0.17464499738446629 0 0.31281086598417152 0.10449318608631281 0 0.37500000000232431 0.17524047358384309 0 0.25103557339309318 0.17464499738446629 0 0.80886664387416207 0.89717308644237903 0 0.89051480781310632 0.79665793440246835 0 0.90849364905363228 0.90849364905367769 0 0.19185372118111221 0.092925648673580788 0 0.31281086598417152 0.10449318608631281 0 0.25103557339309318 0.17464499738446629 0 0.79891106056046712 0.25007334953587562 0 0.68668231842078242 0.24762892664808989 0 0.73983916756365475 0.17530677078674589 0 0.31411863959822661 0.24965544328045999 0 0.20767261601459541 0.25628918442207171 0 0.25103557339309318 0.17464499738446629 0 

        </DataArray>

      </Points>

      <Cells>

        <DataArray type="Int32" Name="connectivity" format="ascii">

0 1 2 3 4 5 6 7 8 9 10 11 12 13 14 15 16 17 18 19 20 21 22 23 24 25 26 27 28 29 30 31 32 33 34 35 36 37 38 39 40 41 42 43 44 45 46 47 48 49 50 51 52 53 54 55 56 57 58 59 60 61 62 63 64 65 66 67 68 69 70 71 72 73 74 75 76 77 78 79 80 81 82 83 84 85 86 87 88 89 90 91 92 93 94 95 96 97 98 99 100 101 102 103 104 105 106 107 108 109 110 111 112 113 114 115 116 117 118 119 120 121 122 123 124 125 126 127 128 129 130 131 132 133 134 135 136 137 138 139 140 141 142 143 144 145 146 147 148 149 150 151 152 153 154 155 156 157 158 159 160 161 162 163 164 165 166 167 168 169 170 171 172 173 174 175 176 177 178 179 180 181 182 183 184 185 186 187 188 189 190 191 192 193 194 195 196 197 198 199 200 201 202 203 204 205 206 207 208 209 210 211 212 213 214 215 216 217 218 219 220 221 222 223 224 225 226 227 228 229 230 231 232 233 234 235 236 237 238 239 240 241 242 243 244 245 246 247 248 249 250 251 252 253 254 255 256 257 258 259 260 261 262 263 264 265 266 267 268 269 270 271 272 273 274 275 276 277 278 279 280 281 282 283 284 285 286 287 288 289 290 291 292 293 294 295 296 297 298 299 300 301 302 303 304 305 306 307 308 309 310 311 312 313 314 315 316 317 318 319 320 321 322 323 324 325 326 327 328 329 330 331 332 333 334 335 336 337 338 339 340 341 342 343 344 345 346 347 348 349 350 351 352 353 354 355 356 357 358 359 360 361 362 363 364 365 366 367 368 369 370 371 372 373 374 375 376 377 378 379 380 381 382 383 384 385 386 387 388 389 390 391 392 393 394 395 396 397 398 399 400 401 402 403 404 405 406 407 408 409 410 411 412 413 414 415 416 417 418 419 420 421 422 423 424 425 426 427 428 429 430 431 432 433 434 435 436 437 438 439 440 441 442 443 444 445 446 447 448 449 450 451 452 453 454 455 456 457 458 459 460 461 462 463 464 465 466 467 468 469 470 471 472 473 474 475 476 477 478 479 480 481 482 483 484 485 

        </DataArray>

        <DataArray type="Int32" Name="offsets" format="ascii">

3 6 9 12 15 18 21 24 27 30 33 36 39 42 45 48 51 54 57 60 63 66 69 72 75 78 81 84 87 90 93 96 99 102 105 108 111 114 117 120 123 126 129 132 135 138 141 144 147 150 153 156 159 162 165 168 171 174 177 180 183 186 189 192 195 198 201 204 207 210 213 216 219 222 225 228 231 234 237 240 243 246 249 252 255 258 261 264 267 270 273 276 279 282 285 288 291 294 297 300 303 306 309 312 315 318 321 324 327 330 333 336 339 342 345 348 351 354 357 360 363 366 369 372 375 378 381 384 387 390 393 396 399 402 405 408 411 414 417 420 423 426 429 432 435 438 441 444 447 450 453 456 459 462 465 468 471 474 477 480 483 486 

        </DataArray>

        <DataArray type="Int32" Name="types" format="ascii">

5 5 5 5 5 5 5 5 5 5 5 5 5 5 5 5 5 5 5 5 5 5 5 5 5 5 5 5 5 5 5 5 5 5 5 5 5 5 5 5 5 5 5 5 5 5 5 5 5 5 5 5 5 5 5 5 5 5 5 5 5 5 5 5 5 5 5 5 5 5 5 5 5 5 5 5 5 5 5 5 5 5 5 5 5 5 5 5 5 5 5 5 5 5 5 5 5 5 5 5 5 5 5 5 5 5 5 5 5 5 5 5 5 5 5 5 5 5 5 5 5 5 5 5 5 5 5 5 5 5 5 5 5 5 5 5 5 5 5 5 5 5 5 5 5 5 5 5 5 5 5 5 5 5 5 5 5 5 5 5 5 5 

        </DataArray>

      </Cells>

    </Piece>

  </UnstructuredGrid>

</VTKFile>

