<?xml version="1.0"?>

<VTKFile type="UnstructuredGrid" version="0.1">

  <UnstructuredGrid>

    <Piece NumberOfPoints="486" NumberOfCells="162">

      <PointData>

        <DataArray type="Float64" Name="K" format="ascii">

1.06083777158692882e+00
1.06083777158692882e+00
1.06083777158692882e+00
1.03096352797838020e+00
1.03096352797838020e+00
1.03096352797838020e+00
9.15534296149462357e-01
9.15534296149462357e-01
9.15534296149462357e-01
1.05124151598901916e+00
1.05124151598901916e+00
1.05124151598901916e+00
9.10721776779763403e-01
9.10721776779763403e-01
9.10721776779763403e-01
1.03320805697903850e+00
1.03320805697903850e+00
1.03320805697903850e+00
1.01872369022242393e+00
1.01872369022242393e+00
1.01872369022242393e+00
9.64331723760687987e-01
9.64331723760687987e-01
9.64331723760687987e-01
9.37965435828423733e-01
9.37965435828423733e-01
9.37965435828423733e-01
9.65819874688832680e-01
9.65819874688832680e-01
9.65819874688832680e-01
9.82291904224134038e-01
9.82291904224134038e-01
9.82291904224134038e-01
1.03545681611029439e+00
1.03545681611029439e+00
1.03545681611029439e+00
9.91757818302570260e-01
9.91757818302570260e-01
9.91757818302570260e-01
1.01955579908169325e+00
1.01955579908169325e+00
1.01955579908169325e+00
9.64165031603131939e-01
9.64165031603131939e-01
9.64165031603131939e-01
9.41197295636254871e-01
9.41197295636254871e-01
9.41197295636254871e-01
1.05315796896273217e+00
1.05315796896273217e+00
1.05315796896273217e+00
9.43598435603547503e-01
9.43598435603547503e-01
9.43598435603547503e-01
9.83561660328169496e-01
9.83561660328169496e-01
9.83561660328169496e-01
9.50175015751050456e-01
9.50175015751050456e-01
9.50175015751050456e-01
9.46971320273764072e-01
9.46971320273764072e-01
9.46971320273764072e-01
9.75887263771514468e-01
9.75887263771514468e-01
9.75887263771514468e-01
9.09689261658737092e-01
9.09689261658737092e-01
9.09689261658737092e-01
1.04295042450445807e+00
1.04295042450445807e+00
1.04295042450445807e+00
9.79379274632527719e-01
9.79379274632527719e-01
9.79379274632527719e-01
9.92278146527729388e-01
9.92278146527729388e-01
9.92278146527729388e-01
1.00023918990134186e+00
1.00023918990134186e+00
1.00023918990134186e+00
9.99658746512644192e-01
9.99658746512644192e-01
9.99658746512644192e-01
1.01620809026473968e+00
1.01620809026473968e+00
1.01620809026473968e+00
9.57897406839529952e-01
9.57897406839529952e-01
9.57897406839529952e-01
9.54815363568792930e-01
9.54815363568792930e-01
9.54815363568792930e-01
9.95688338968180431e-01
9.95688338968180431e-01
9.95688338968180431e-01
9.93703829666794602e-01
9.93703829666794602e-01
9.93703829666794602e-01
9.55349966205084944e-01
9.55349966205084944e-01
9.55349966205084944e-01
1.00772328733313632e+00
1.00772328733313632e+00
1.00772328733313632e+00
1.01553058373641614e+00
1.01553058373641614e+00
1.01553058373641614e+00
9.81012403780246012e-01
9.81012403780246012e-01
9.81012403780246012e-01
9.50922690571574525e-01
9.50922690571574525e-01
9.50922690571574525e-01
9.66459834162317843e-01
9.66459834162317843e-01
9.66459834162317843e-01
1.00184285360002834e+00
1.00184285360002834e+00
1.00184285360002834e+00
1.00943211793668497e+00
1.00943211793668497e+00
1.00943211793668497e+00
1.01083621854192840e+00
1.01083621854192840e+00
1.01083621854192840e+00
9.74749188373437936e-01
9.74749188373437936e-01
9.74749188373437936e-01
9.52899132431601736e-01
9.52899132431601736e-01
9.52899132431601736e-01
1.00986560636551204e+00
1.00986560636551204e+00
1.00986560636551204e+00
9.98783595954178649e-01
9.98783595954178649e-01
9.98783595954178649e-01
9.83870159151464030e-01
9.83870159151464030e-01
9.83870159151464030e-01
1.03595825668213171e+00
1.03595825668213171e+00
1.03595825668213171e+00
1.00293752971968919e+00
1.00293752971968919e+00
1.00293752971968919e+00
9.65092719107431884e-01
9.65092719107431884e-01
9.65092719107431884e-01
1.00944364179559276e+00
1.00944364179559276e+00
1.00944364179559276e+00
1.00139331611963844e+00
1.00139331611963844e+00
1.00139331611963844e+00
9.81600559527223693e-01
9.81600559527223693e-01
9.81600559527223693e-01
1.02898654870027406e+00
1.02898654870027406e+00
1.02898654870027406e+00
1.01462246265154943e+00
1.01462246265154943e+00
1.01462246265154943e+00
9.73444670147924795e-01
9.73444670147924795e-01
9.73444670147924795e-01
9.96002659308019789e-01
9.96002659308019789e-01
9.96002659308019789e-01
1.00177539111396308e+00
1.00177539111396308e+00
1.00177539111396308e+00
9.78116596002181704e-01
9.78116596002181704e-01
9.78116596002181704e-01
9.71386532691703719e-01
9.71386532691703719e-01
9.71386532691703719e-01
9.51842725166612391e-01
9.51842725166612391e-01
9.51842725166612391e-01
1.04563881300072326e+00
1.04563881300072326e+00
1.04563881300072326e+00
9.98150747449276343e-01
9.98150747449276343e-01
9.98150747449276343e-01
1.00983074722786070e+00
1.00983074722786070e+00
1.00983074722786070e+00
9.38280792441466005e-01
9.38280792441466005e-01
9.38280792441466005e-01
1.03753159627216229e+00
1.03753159627216229e+00
1.03753159627216229e+00
1.02023651547780014e+00
1.02023651547780014e+00
1.02023651547780014e+00
1.05977844720480952e+00
1.05977844720480952e+00
1.05977844720480952e+00
9.89961117896774878e-01
9.89961117896774878e-01
9.89961117896774878e-01
9.84069605797346147e-01
9.84069605797346147e-01
9.84069605797346147e-01
9.68402925397778280e-01
9.68402925397778280e-01
9.68402925397778280e-01
1.05337490374732168e+00
1.05337490374732168e+00
1.05337490374732168e+00
1.00747424401579355e+00
1.00747424401579355e+00
1.00747424401579355e+00
9.87170978841162006e-01
9.87170978841162006e-01
9.87170978841162006e-01
9.87656014463781040e-01
9.87656014463781040e-01
9.87656014463781040e-01
9.85698913296316204e-01
9.85698913296316204e-01
9.85698913296316204e-01
9.67145483999349964e-01
9.67145483999349964e-01
9.67145483999349964e-01
1.03776779615276649e+00
1.03776779615276649e+00
1.03776779615276649e+00
9.84500713068606981e-01
9.84500713068606981e-01
9.84500713068606981e-01
9.86378753460823932e-01
9.86378753460823932e-01
9.86378753460823932e-01
9.84672191302137234e-01
9.84672191302137234e-01
9.84672191302137234e-01
9.92113932850340108e-01
9.92113932850340108e-01
9.92113932850340108e-01
9.74436367266960035e-01
9.74436367266960035e-01
9.74436367266960035e-01
9.73868850525931418e-01
9.73868850525931418e-01
9.73868850525931418e-01
9.97032046404864314e-01
9.97032046404864314e-01
9.97032046404864314e-01
9.80467707712301961e-01
9.80467707712301961e-01
9.80467707712301961e-01
1.03568381277358545e+00
1.03568381277358545e+00
1.03568381277358545e+00
9.91406062287870871e-01
9.91406062287870871e-01
9.91406062287870871e-01
9.95916696504669630e-01
9.95916696504669630e-01
9.95916696504669630e-01
1.01316673559293968e+00
1.01316673559293968e+00
1.01316673559293968e+00
9.15953507498985742e-01
9.15953507498985742e-01
9.15953507498985742e-01
9.56457546132753911e-01
9.56457546132753911e-01
9.56457546132753911e-01
9.36833966831480125e-01
9.36833966831480125e-01
9.36833966831480125e-01
1.07267314075624287e+00
1.07267314075624287e+00
1.07267314075624287e+00
9.97223263362490120e-01
9.97223263362490120e-01
9.97223263362490120e-01
1.00345168232461179e+00
1.00345168232461179e+00
1.00345168232461179e+00
1.01538710125787790e+00
1.01538710125787790e+00
1.01538710125787790e+00
9.96209622080212576e-01
9.96209622080212576e-01
9.96209622080212576e-01
9.68813688173702281e-01
9.68813688173702281e-01
9.68813688173702281e-01
9.71061111956539436e-01
9.71061111956539436e-01
9.71061111956539436e-01
1.07373335950736637e+00
1.07373335950736637e+00
1.07373335950736637e+00
1.01332200656560678e+00
1.01332200656560678e+00
1.01332200656560678e+00
1.01465928986988918e+00
1.01465928986988918e+00
1.01465928986988918e+00
9.59966546350378813e-01
9.59966546350378813e-01
9.59966546350378813e-01
9.70581005431809141e-01
9.70581005431809141e-01
9.70581005431809141e-01
9.88146260576548197e-01
9.88146260576548197e-01
9.88146260576548197e-01
9.93548111146772994e-01
9.93548111146772994e-01
9.93548111146772994e-01
9.92731884033338230e-01
9.92731884033338230e-01
9.92731884033338230e-01
1.01934312966726681e+00
1.01934312966726681e+00
1.01934312966726681e+00
9.35515985391649596e-01
9.35515985391649596e-01
9.35515985391649596e-01
9.75419960224017779e-01
9.75419960224017779e-01
9.75419960224017779e-01
9.65856057549747127e-01
9.65856057549747127e-01
9.65856057549747127e-01
9.66963906214970192e-01
9.66963906214970192e-01
9.66963906214970192e-01
1.04411529989215524e+00
1.04411529989215524e+00
1.04411529989215524e+00
1.00596365348810068e+00
1.00596365348810068e+00
1.00596365348810068e+00
9.92608922829605889e-01
9.92608922829605889e-01
9.92608922829605889e-01
9.96628569369236939e-01
9.96628569369236939e-01
9.96628569369236939e-01
9.76963343897425895e-01
9.76963343897425895e-01
9.76963343897425895e-01
9.56757381988031397e-01
9.56757381988031397e-01
9.56757381988031397e-01
1.02745945105075243e+00
1.02745945105075243e+00
1.02745945105075243e+00
9.99179140583948189e-01
9.99179140583948189e-01
9.99179140583948189e-01
9.74365390681375731e-01
9.74365390681375731e-01
9.74365390681375731e-01
9.20564300177361350e-01
9.20564300177361350e-01
9.20564300177361350e-01
9.28716291286283968e-01
9.28716291286283968e-01
9.28716291286283968e-01
1.04052446485273564e+00
1.04052446485273564e+00
1.04052446485273564e+00
9.34798251837240857e-01
9.34798251837240857e-01
9.34798251837240857e-01
9.92551373251517544e-01
9.92551373251517544e-01
9.92551373251517544e-01
1.01875509997136526e+00
1.01875509997136526e+00
1.01875509997136526e+00
1.00380444958145021e+00
1.00380444958145021e+00
1.00380444958145021e+00
9.69452116380135953e-01
9.69452116380135953e-01
9.69452116380135953e-01
9.78787718544879337e-01
9.78787718544879337e-01
9.78787718544879337e-01
9.81956894347463471e-01
9.81956894347463471e-01
9.81956894347463471e-01
1.06821046697305810e+00
1.06821046697305810e+00
1.06821046697305810e+00
9.77975698599930721e-01
9.77975698599930721e-01
9.77975698599930721e-01
9.64483233224302627e-01
9.64483233224302627e-01
9.64483233224302627e-01
1.04054018709789720e+00
1.04054018709789720e+00
1.04054018709789720e+00
9.87821840741947454e-01
9.87821840741947454e-01
9.87821840741947454e-01
9.71678689070530455e-01
9.71678689070530455e-01
9.71678689070530455e-01
9.49732774327067042e-01
9.49732774327067042e-01
9.49732774327067042e-01
1.00107565366901685e+00
1.00107565366901685e+00
1.00107565366901685e+00
1.01930837291242327e+00
1.01930837291242327e+00
1.01930837291242327e+00
1.01667319731593153e+00
1.01667319731593153e+00
1.01667319731593153e+00
1.00091938047009221e+00
1.00091938047009221e+00
1.00091938047009221e+00
1.01080740795820456e+00
1.01080740795820456e+00
1.01080740795820456e+00
1.00308770786865464e+00
1.00308770786865464e+00
1.00308770786865464e+00
9.94977308579307107e-01
9.94977308579307107e-01
9.94977308579307107e-01
1.00304070744775986e+00
1.00304070744775986e+00
1.00304070744775986e+00
1.01224836345430913e+00
1.01224836345430913e+00
1.01224836345430913e+00
9.86963461451194513e-01
9.86963461451194513e-01
9.86963461451194513e-01
9.98174617003965703e-01
9.98174617003965703e-01
9.98174617003965703e-01
1.00621826708321183e+00
1.00621826708321183e+00
1.00621826708321183e+00
1.01269442249816666e+00
1.01269442249816666e+00
1.01269442249816666e+00
9.95299112002636099e-01
9.95299112002636099e-01
9.95299112002636099e-01
1.06299665684580402e+00
1.06299665684580402e+00
1.06299665684580402e+00
9.69178161537925353e-01
9.69178161537925353e-01
9.69178161537925353e-01
9.61968978335200897e-01
9.61968978335200897e-01
9.61968978335200897e-01
9.76043888668246651e-01
9.76043888668246651e-01
9.76043888668246651e-01
9.97681028101462863e-01
9.97681028101462863e-01
9.97681028101462863e-01
9.87618718882998792e-01
9.87618718882998792e-01
9.87618718882998792e-01
9.88418296273385621e-01
9.88418296273385621e-01
9.88418296273385621e-01
1.02391605002771180e+00
1.02391605002771180e+00
1.02391605002771180e+00
9.42850032132745763e-01
9.42850032132745763e-01
9.42850032132745763e-01


        </DataArray>

      </PointData>

      <CellData/>

      <Points>

        <DataArray type="Float64" NumberOfComponents="3" format="ascii">

0.1082531754723032 0.6875000000007816 0 0.23533274979922561 0.77093399389351469 0 0.10409951422139101 0.81206782209691231 0 0.23533274979922561 0.77093399389351469 0 0.1082531754723032 0.6875000000007816 0 0.21809253452218619 0.65480892822618109 0 0.24418615484441761 0.35773612382016978 0 0.121259140952891 0.43112117036853742 0 0.1082531754734323 0.31250000000117473 0 0.75000000000057243 0.35048094716480432 0 0.88173731489851925 0.33077402607778361 0 0.81242894672211508 0.45500248311961472 0 0.121259140952891 0.43112117036853742 0 0.24418615484441761 0.35773612382016978 0 0.22257735880419699 0.47344721641341742 0 0.81242894672211508 0.45500248311961472 0 0.88173731489851925 0.33077402607778361 0 0.915464298762109 0.43749999999886913 0 0 0.62500000000121547 0 0 0.50000000000206146 0 0.1371230538040123 0.56179824718362847 0 0.82212678063041267 0.67678595194836966 0 0.89051480781310632 0.79665793440246835 0 0.76243180583607129 0.78687675331113149 0 0.76243180583607129 0.78687675331113149 0 0.69010814643829166 0.89298495739101336 0 0.62844955668446423 0.7850749770380413 0 0.89051480781310632 0.79665793440246835 0 0.82212678063041267 0.67678595194836966 0 0.92266244547590082 0.68749999999917555 0 0 0.50000000000206146 0 0.121259140952891 0.43112117036853742 0 0.1371230538040123 0.56179824718362847 0 0.1082531754723032 0.6875000000007816 0 0 0.62500000000121547 0 0.1371230538040123 0.56179824718362847 0 0.75000000000032374 0.56698729811007709 0 0.88927506082488361 0.56409486310635837 0 0.82212678063041267 0.67678595194836966 0 0.81242894672211508 0.45500248311961472 0 0.88927506082488361 0.56409486310635837 0 0.75000000000032374 0.56698729811007709 0 0.69851598570178741 0.68211701800612057 0 0.56496004948275869 0.67675037307860475 0 0.62752533658682441 0.56838075195614346 0 0.69851598570178741 0.68211701800612057 0 0.76243180583607129 0.78687675331113149 0 0.62844955668446423 0.7850749770380413 0 0.23533274979922561 0.77093399389351469 0 0.18802967116092181 0.89415349436770275 0 0.10409951422139101 0.81206782209691231 0 0.121259140952891 0.43112117036853742 0 0.22257735880419699 0.47344721641341742 0 0.1371230538040123 0.56179824718362847 0 0.75000000000032374 0.56698729811007709 0 0.69851598570178741 0.68211701800612057 0 0.62752533658682441 0.56838075195614346 0 0.56496004948275869 0.67675037307860475 0 0.69851598570178741 0.68211701800612057 0 0.62844955668446423 0.7850749770380413 0 0.1371230538040123 0.56179824718362847 0 0.22257735880419699 0.47344721641341742 0 0.26982811998763367 0.56544650815856912 0 0.21809253452218619 0.65480892822618109 0 0.1371230538040123 0.56179824718362847 0 0.26982811998763367 0.56544650815856912 0 0.24418615484441761 0.35773612382016978 0 0.1082531754734323 0.31250000000117473 0 0.20767261601459541 0.25628918442207171 0 0.88173731489851925 0.33077402607778361 0 0.75000000000057243 0.35048094716480432 0 0.79891106056046712 0.25007334953587562 0 0.75000000000032374 0.56698729811007709 0 0.82212678063041267 0.67678595194836966 0 0.69851598570178741 0.68211701800612057 0 0.81249999999950517 0.1082531754733404 0 0.89658421694297741 0.1933620068391701 0 0.79891106056046712 0.25007334953587562 0 0.81249999999950517 0.1082531754733404 0 0.79891106056046712 0.25007334953587562 0 0.73983916756365475 0.17530677078674589 0 0.23533274979922561 0.77093399389351469 0 0.21809253452218619 0.65480892822618109 0 0.32607333794064219 0.67760114260606152 0 0.1082531754723032 0.6875000000007816 0 0.1371230538040123 0.56179824718362847 0 0.21809253452218619 0.65480892822618109 0 0.69851598570178741 0.68211701800612057 0 0.82212678063041267 0.67678595194836966 0 0.76243180583607129 0.78687675331113149 0 0.69010814643829166 0.89298495739101336 0 0.76243180583607129 0.78687675331113149 0 0.80886664387416207 0.89717308644237903 0 0.43750000000181222 0.89174682452709564 0 0.31258827852827581 0.89214793616708443 0 0.37776173212361452 0.78514649317305008 0 0.43750000000181222 0.89174682452709564 0 0.37500000000156292 1 0 0.31258827852827581 0.89214793616708443 0 0.121259140952891 0.43112117036853742 0 0 0.37500000000156292 0 0.1082531754734323 0.31250000000117473 0 0.50000000000206146 1 0 0.37500000000156292 1 0 0.43750000000181222 0.89174682452709564 0 0.31258827852827581 0.89214793616708443 0 0.18802967116092181 0.89415349436770275 0 0.23533274979922561 0.77093399389351469 0 0 0.50000000000206146 0 0 0.37500000000156292 0 0.121259140952891 0.43112117036853742 0 0.62844955668446423 0.7850749770380413 0 0.69010814643829166 0.89298495739101336 0 0.56327595140699671 0.89211526915426331 0 0.69010814643829166 0.89298495739101336 0 0.62500000000121547 1 0 0.56327595140699671 0.89211526915426331 0 0.25000000000104189 1 0 0.18802967116092181 0.89415349436770275 0 0.31258827852827581 0.89214793616708443 0 0.50000000000206146 1 0 0.43750000000181222 0.89174682452709564 0 0.56327595140699671 0.89211526915426331 0 0.56249999999885147 0.1082531754730395 0 0.62499999999901068 0 0 0.68749999999926592 0.1082531754732875 0 1 0.49999999999869221 0 1 0.62499999999901068 0 0.88927506082488361 0.56409486310635837 0 0 0.25000000000104189 0 0.12076953676380731 0.18690935762408761 0 0.1082531754734323 0.31250000000117473 0 0.49999999999869221 0 0 0.62499999999901068 0 0 0.56249999999885147 0.1082531754730395 0 0.62500000000121547 1 0 0.50000000000206146 1 0 0.56327595140699671 0.89211526915426331 0 0.37500000000156292 1 0 0.25000000000104189 1 0 0.31258827852827581 0.89214793616708443 0 0.31281086598417152 0.10449318608631281 0 0.37499999999904599 0 0 0.43749999999910871 0.1082531754729984 0 0.43750000000181222 0.89174682452709564 0 0.37776173212361452 0.78514649317305008 0 0.50046028868828263 0.78376912307435687 0 0 0.37500000000156292 0 0 0.25000000000104189 0 0.1082531754734323 0.31250000000117473 0 0.49999999999869221 0 0 0.56249999999885147 0.1082531754730395 0 0.43749999999910871 0.1082531754729984 0 0.43750000000181222 0.89174682452709564 0 0.50046028868828263 0.78376912307435687 0 0.56327595140699671 0.89211526915426331 0 0.74999999999934042 0 0 0.81249999999950517 0.1082531754733404 0 0.68749999999926592 0.1082531754732875 0 0.37499999999904599 0 0 0.49999999999869221 0 0 0.43749999999910871 0.1082531754729984 0 0.25000000000104189 1 0 0.12500000000052089 1 0 0.18802967116092181 0.89415349436770275 0 0.50046028868828263 0.78376912307435687 0 0.62844955668446423 0.7850749770380413 0 0.56327595140699671 0.89211526915426331 0 0.37776173212361452 0.78514649317305008 0 0.31258827852827581 0.89214793616708443 0 0.23533274979922561 0.77093399389351469 0 0.62499999999901068 0 0 0.74999999999934042 0 0 0.68749999999926592 0.1082531754732875 0 1 0.74999999999934042 0 1 0.87499999999967015 0 0.89051480781310632 0.79665793440246835 0 0 0.25000000000104189 0 0 0.12500000000052089 0 0.12076953676380731 0.18690935762408761 0 0.74999999999934042 0 0 0.87499999999967015 0 0 0.81249999999950517 0.1082531754733404 0 0.24999999999941069 0 0 0.37499999999904599 0 0 0.31281086598417152 0.10449318608631281 0 0.50046028868828263 0.78376912307435687 0 0.37776173212361452 0.78514649317305008 0 0.44078402250377968 0.67714785211715212 0 0.68768773896438518 0.4586835206367198 0 0.75000000000032374 0.56698729811007709 0 0.62752533658682441 0.56838075195614346 0 0.31411863959822661 0.24965544328045999 0 0.37953773393552892 0.34812185820708452 0 0.24418615484441761 0.35773612382016978 0 0.68768773896438518 0.4586835206367198 0 0.81242894672211508 0.45500248311961472 0 0.75000000000032374 0.56698729811007709 0 1 0.24999999999941069 0 1 0.37499999999904599 0 0.88173731489851925 0.33077402607778361 0 0 0.75000000000034761 0 0 0.62500000000121547 0 0.1082531754723032 0.6875000000007816 0 0.50048844149666749 0.56727788297625459 0 0.44078402250377968 0.67714785211715212 0 0.38694285807596462 0.5672991787102919 0 0.50108503093851109 0.35012252869403671 0 0.44301038174930041 0.45684931552185398 0 0.37953773393552892 0.34812185820708452 0 0.50046028868828263 0.78376912307435687 0 0.56496004948275869 0.67675037307860475 0 0.62844955668446423 0.7850749770380413 0 0.68768773896438518 0.4586835206367198 0 0.75000000000057243 0.35048094716480432 0 0.81242894672211508 0.45500248311961472 0 0.56349980387502452 0.45846841892908402 0 0.62512662990940393 0.35044303886909911 0 0.68768773896438518 0.4586835206367198 0 0.50048844149666749 0.56727788297625459 0 0.38694285807596462 0.5672991787102919 0 0.44301038174930041 0.45684931552185398 0 0.50046028868828263 0.78376912307435687 0 0.44078402250377968 0.67714785211715212 0 0.56496004948275869 0.67675037307860475 0 0.50108503093851109 0.35012252869403671 0 0.37953773393552892 0.34812185820708452 0 0.43750000000200551 0.24222777169198509 0 0.75000000000034761 1 0 0.62500000000121547 1 0 0.69010814643829166 0.89298495739101336 0 0.68768773896438518 0.4586835206367198 0 0.62512662990940393 0.35044303886909911 0 0.75000000000057243 0.35048094716480432 0 0.56496004948275869 0.67675037307860475 0 0.44078402250377968 0.67714785211715212 0 0.50048844149666749 0.56727788297625459 0 0.56349980387502452 0.45846841892908402 0 0.44301038174930041 0.45684931552185398 0 0.50108503093851109 0.35012252869403671 0 0.50048844149666749 0.56727788297625459 0 0.44301038174930041 0.45684931552185398 0 0.56349980387502452 0.45846841892908402 0 0.56349980387502452 0.45846841892908402 0 0.50108503093851109 0.35012252869403671 0 0.62512662990940393 0.35044303886909911 0 0.43750000000200551 0.24222777169198509 0 0.37953773393552892 0.34812185820708452 0 0.31411863959822661 0.24965544328045999 0 0.56496004948275869 0.67675037307860475 0 0.50048844149666749 0.56727788297625459 0 0.62752533658682441 0.56838075195614346 0 0.56349980387502452 0.45846841892908402 0 0.68768773896438518 0.4586835206367198 0 0.62752533658682441 0.56838075195614346 0 0.50048844149666749 0.56727788297625459 0 0.56349980387502452 0.45846841892908402 0 0.62752533658682441 0.56838075195614346 0 0.75000000000057243 0.35048094716480432 0 0.62512662990940393 0.35044303886909911 0 0.68668231842078242 0.24762892664808989 0 0.50108503093851109 0.35012252869403671 0 0.43750000000200551 0.24222777169198509 0 0.56250000000143974 0.2422277716920859 0 0.62512662990940393 0.35044303886909911 0 0.50108503093851109 0.35012252869403671 0 0.56250000000143974 0.2422277716920859 0 0.68668231842078242 0.24762892664808989 0 0.62512662990940393 0.35044303886909911 0 0.56250000000143974 0.2422277716920859 0 0.22257735880419699 0.47344721641341742 0 0.24418615484441761 0.35773612382016978 0 0.32815957677880009 0.4577243358118348 0 0.12076953676380731 0.18690935762408761 0 0.19185372118111221 0.092925648673580788 0 0.25103557339309318 0.17464499738446629 0 0.20767261601459541 0.25628918442207171 0 0.12076953676380731 0.18690935762408761 0 0.25103557339309318 0.17464499738446629 0 0 0.87499999999950151 0 0 0.75000000000034761 0 0.10409951422139101 0.81206782209691231 0 0.1249999999997731 0 0 0.24999999999941069 0 0 0.19185372118111221 0.092925648673580788 0 1 0.1249999999997731 0 1 0.24999999999941069 0 0.89658421694297741 0.1933620068391701 0 0.88927506082488361 0.56409486310635837 0 0.81242894672211508 0.45500248311961472 0 0.915464298762109 0.43749999999886913 0 0.87499999999950151 1 0 0.75000000000034761 1 0 0.80886664387416207 0.89717308644237903 0 0.75000000000034761 1 0 0.69010814643829166 0.89298495739101336 0 0.80886664387416207 0.89717308644237903 0 0.82212678063041267 0.67678595194836966 0 0.88927506082488361 0.56409486310635837 0 0.92266244547590082 0.68749999999917555 0 0 0.75000000000034761 0 0.1082531754723032 0.6875000000007816 0 0.10409951422139101 0.81206782209691231 0 0.24999999999941069 0 0 0.31281086598417152 0.10449318608631281 0 0.19185372118111221 0.092925648673580788 0 1 0.24999999999941069 0 0.88173731489851925 0.33077402607778361 0 0.89658421694297741 0.1933620068391701 0 0.32815957677880009 0.4577243358118348 0 0.38694285807596462 0.5672991787102919 0 0.26982811998763367 0.56544650815856912 0 0.76243180583607129 0.78687675331113149 0 0.89051480781310632 0.79665793440246835 0 0.80886664387416207 0.89717308644237903 0 0.38694285807596462 0.5672991787102919 0 0.44078402250377968 0.67714785211715212 0 0.32607333794064219 0.67760114260606152 0 0.37776173212361452 0.78514649317305008 0 0.23533274979922561 0.77093399389351469 0 0.32607333794064219 0.67760114260606152 0 1 0.49999999999869221 0 0.88927506082488361 0.56409486310635837 0 0.915464298762109 0.43749999999886913 0 0.88173731489851925 0.33077402607778361 0 1 0.37499999999904599 0 0.915464298762109 0.43749999999886913 0 0.24418615484441761 0.35773612382016978 0 0.37953773393552892 0.34812185820708452 0 0.32815957677880009 0.4577243358118348 0 0.44301038174930041 0.45684931552185398 0 0.38694285807596462 0.5672991787102919 0 0.32815957677880009 0.4577243358118348 0 0.88927506082488361 0.56409486310635837 0 1 0.62499999999901068 0 0.92266244547590082 0.68749999999917555 0 1 0.74999999999934042 0 0.89051480781310632 0.79665793440246835 0 0.92266244547590082 0.68749999999917555 0 0 1 0 0 0.87499999999950151 0 0.091506350946494744 0.90849364905351082 0 1 1 0 0.87499999999950151 1 0 0.90849364905363228 0.90849364905367769 0 0 0 0 0.1249999999997731 0 0 0.091506350946417708 0.091506350946618076 0 0 0.12500000000052089 0 0 0 0 0.091506350946417708 0.091506350946618076 0 1 0 0 1 0.1249999999997731 0 0.90849364905355434 0.091506350946296292 0 0.87499999999967015 0 0 1 0 0 0.90849364905355434 0.091506350946296292 0 0.12500000000052089 1 0 0 1 0 0.091506350946494744 0.90849364905351082 0 1 0.87499999999967015 0 1 1 0 0.90849364905363228 0.90849364905367769 0 0.38694285807596462 0.5672991787102919 0 0.32607333794064219 0.67760114260606152 0 0.26982811998763367 0.56544650815856912 0 0.31411863959822661 0.24965544328045999 0 0.24418615484441761 0.35773612382016978 0 0.20767261601459541 0.25628918442207171 0 0.1082531754734323 0.31250000000117473 0 0.12076953676380731 0.18690935762408761 0 0.20767261601459541 0.25628918442207171 0 0.75000000000057243 0.35048094716480432 0 0.68668231842078242 0.24762892664808989 0 0.79891106056046712 0.25007334953587562 0 0.22257735880419699 0.47344721641341742 0 0.32815957677880009 0.4577243358118348 0 0.26982811998763367 0.56544650815856912 0 0.44078402250377968 0.67714785211715212 0 0.37776173212361452 0.78514649317305008 0 0.32607333794064219 0.67760114260606152 0 0.89658421694297741 0.1933620068391701 0 0.88173731489851925 0.33077402607778361 0 0.79891106056046712 0.25007334953587562 0 1 0.37499999999904599 0 1 0.49999999999869221 0 0.915464298762109 0.43749999999886913 0 0.37953773393552892 0.34812185820708452 0 0.44301038174930041 0.45684931552185398 0 0.32815957677880009 0.4577243358118348 0 0.32607333794064219 0.67760114260606152 0 0.21809253452218619 0.65480892822618109 0 0.26982811998763367 0.56544650815856912 0 1 0.1249999999997731 0 0.89658421694297741 0.1933620068391701 0 0.90849364905355434 0.091506350946296292 0 0 0.87499999999950151 0 0.10409951422139101 0.81206782209691231 0 0.091506350946494744 0.90849364905351082 0 0.1249999999997731 0 0 0.19185372118111221 0.092925648673580788 0 0.091506350946417708 0.091506350946618076 0 1 0.62499999999901068 0 1 0.74999999999934042 0 0.92266244547590082 0.68749999999917555 0 0.18802967116092181 0.89415349436770275 0 0.12500000000052089 1 0 0.091506350946494744 0.90849364905351082 0 0.89051480781310632 0.79665793440246835 0 1 0.87499999999967015 0 0.90849364905363228 0.90849364905367769 0 0.12076953676380731 0.18690935762408761 0 0 0.12500000000052089 0 0.091506350946417708 0.091506350946618076 0 0.81249999999950517 0.1082531754733404 0 0.87499999999967015 0 0 0.90849364905355434 0.091506350946296292 0 0.87499999999950151 1 0 0.80886664387416207 0.89717308644237903 0 0.90849364905363228 0.90849364905367769 0 0.68668231842078242 0.24762892664808989 0 0.62499999999892575 0.17524047358135519 0 0.73983916756365475 0.17530677078674589 0 0.31281086598417152 0.10449318608631281 0 0.43749999999910871 0.1082531754729984 0 0.37500000000232431 0.17524047358384309 0 0.62499999999892575 0.17524047358135519 0 0.56250000000143974 0.2422277716920859 0 0.49999999999934441 0.1752404735815076 0 0.56249999999885147 0.1082531754730395 0 0.68749999999926592 0.1082531754732875 0 0.62499999999892575 0.17524047358135519 0 0.56249999999885147 0.1082531754730395 0 0.62499999999892575 0.17524047358135519 0 0.49999999999934441 0.1752404735815076 0 0.56250000000143974 0.2422277716920859 0 0.43750000000200551 0.24222777169198509 0 0.49999999999934441 0.1752404735815076 0 0.43749999999910871 0.1082531754729984 0 0.56249999999885147 0.1082531754730395 0 0.49999999999934441 0.1752404735815076 0 0.68668231842078242 0.24762892664808989 0 0.56250000000143974 0.2422277716920859 0 0.62499999999892575 0.17524047358135519 0 0.43750000000200551 0.24222777169198509 0 0.31411863959822661 0.24965544328045999 0 0.37500000000232431 0.17524047358384309 0 0.49999999999934441 0.1752404735815076 0 0.43750000000200551 0.24222777169198509 0 0.37500000000232431 0.17524047358384309 0 0.43749999999910871 0.1082531754729984 0 0.49999999999934441 0.1752404735815076 0 0.37500000000232431 0.17524047358384309 0 0.62499999999892575 0.17524047358135519 0 0.68749999999926592 0.1082531754732875 0 0.73983916756365475 0.17530677078674589 0 0.68749999999926592 0.1082531754732875 0 0.81249999999950517 0.1082531754733404 0 0.73983916756365475 0.17530677078674589 0 0.10409951422139101 0.81206782209691231 0 0.18802967116092181 0.89415349436770275 0 0.091506350946494744 0.90849364905351082 0 0.89658421694297741 0.1933620068391701 0 0.81249999999950517 0.1082531754733404 0 0.90849364905355434 0.091506350946296292 0 0.19185372118111221 0.092925648673580788 0 0.12076953676380731 0.18690935762408761 0 0.091506350946417708 0.091506350946618076 0 0.37500000000232431 0.17524047358384309 0 0.31411863959822661 0.24965544328045999 0 0.25103557339309318 0.17464499738446629 0 0.31281086598417152 0.10449318608631281 0 0.37500000000232431 0.17524047358384309 0 0.25103557339309318 0.17464499738446629 0 0.80886664387416207 0.89717308644237903 0 0.89051480781310632 0.79665793440246835 0 0.90849364905363228 0.90849364905367769 0 0.19185372118111221 0.092925648673580788 0 0.31281086598417152 0.10449318608631281 0 0.25103557339309318 0.17464499738446629 0 0.79891106056046712 0.25007334953587562 0 0.68668231842078242 0.24762892664808989 0 0.73983916756365475 0.17530677078674589 0 0.31411863959822661 0.24965544328045999 0 0.20767261601459541 0.25628918442207171 0 0.25103557339309318 0.17464499738446629 0 

        </DataArray>

      </Points>

      <Cells>

        <DataArray type="Int32" Name="connectivity" format="ascii">

0 1 2 3 4 5 6 7 8 9 10 11 12 13 14 15 16 17 18 19 20 21 22 23 24 25 26 27 28 29 30 31 32 33 34 35 36 37 38 39 40 41 42 43 44 45 46 47 48 49 50 51 52 53 54 55 56 57 58 59 60 61 62 63 64 65 66 67 68 69 70 71 72 73 74 75 76 77 78 79 80 81 82 83 84 85 86 87 88 89 90 91 92 93 94 95 96 97 98 99 100 101 102 103 104 105 106 107 108 109 110 111 112 113 114 115 116 117 118 119 120 121 122 123 124 125 126 127 128 129 130 131 132 133 134 135 136 137 138 139 140 141 142 143 144 145 146 147 148 149 150 151 152 153 154 155 156 157 158 159 160 161 162 163 164 165 166 167 168 169 170 171 172 173 174 175 176 177 178 179 180 181 182 183 184 185 186 187 188 189 190 191 192 193 194 195 196 197 198 199 200 201 202 203 204 205 206 207 208 209 210 211 212 213 214 215 216 217 218 219 220 221 222 223 224 225 226 227 228 229 230 231 232 233 234 235 236 237 238 239 240 241 242 243 244 245 246 247 248 249 250 251 252 253 254 255 256 257 258 259 260 261 262 263 264 265 266 267 268 269 270 271 272 273 274 275 276 277 278 279 280 281 282 283 284 285 286 287 288 289 290 291 292 293 294 295 296 297 298 299 300 301 302 303 304 305 306 307 308 309 310 311 312 313 314 315 316 317 318 319 320 321 322 323 324 325 326 327 328 329 330 331 332 333 334 335 336 337 338 339 340 341 342 343 344 345 346 347 348 349 350 351 352 353 354 355 356 357 358 359 360 361 362 363 364 365 366 367 368 369 370 371 372 373 374 375 376 377 378 379 380 381 382 383 384 385 386 387 388 389 390 391 392 393 394 395 396 397 398 399 400 401 402 403 404 405 406 407 408 409 410 411 412 413 414 415 416 417 418 419 420 421 422 423 424 425 426 427 428 429 430 431 432 433 434 435 436 437 438 439 440 441 442 443 444 445 446 447 448 449 450 451 452 453 454 455 456 457 458 459 460 461 462 463 464 465 466 467 468 469 470 471 472 473 474 475 476 477 478 479 480 481 482 483 484 485 

        </DataArray>

        <DataArray type="Int32" Name="offsets" format="ascii">

3 6 9 12 15 18 21 24 27 30 33 36 39 42 45 48 51 54 57 60 63 66 69 72 75 78 81 84 87 90 93 96 99 102 105 108 111 114 117 120 123 126 129 132 135 138 141 144 147 150 153 156 159 162 165 168 171 174 177 180 183 186 189 192 195 198 201 204 207 210 213 216 219 222 225 228 231 234 237 240 243 246 249 252 255 258 261 264 267 270 273 276 279 282 285 288 291 294 297 300 303 306 309 312 315 318 321 324 327 330 333 336 339 342 345 348 351 354 357 360 363 366 369 372 375 378 381 384 387 390 393 396 399 402 405 408 411 414 417 420 423 426 429 432 435 438 441 444 447 450 453 456 459 462 465 468 471 474 477 480 483 486 

        </DataArray>

        <DataArray type="Int32" Name="types" format="ascii">

5 5 5 5 5 5 5 5 5 5 5 5 5 5 5 5 5 5 5 5 5 5 5 5 5 5 5 5 5 5 5 5 5 5 5 5 5 5 5 5 5 5 5 5 5 5 5 5 5 5 5 5 5 5 5 5 5 5 5 5 5 5 5 5 5 5 5 5 5 5 5 5 5 5 5 5 5 5 5 5 5 5 5 5 5 5 5 5 5 5 5 5 5 5 5 5 5 5 5 5 5 5 5 5 5 5 5 5 5 5 5 5 5 5 5 5 5 5 5 5 5 5 5 5 5 5 5 5 5 5 5 5 5 5 5 5 5 5 5 5 5 5 5 5 5 5 5 5 5 5 5 5 5 5 5 5 5 5 5 5 5 5 

        </DataArray>

      </Cells>

    </Piece>

  </UnstructuredGrid>

</VTKFile>

