<?xml version="1.0"?>

<VTKFile type="UnstructuredGrid" version="0.1">

  <UnstructuredGrid>

    <Piece NumberOfPoints="486" NumberOfCells="162">

      <PointData>

        <DataArray type="Float64" Name="K" format="ascii">

1.08719709781700424e+00
1.08719709781700424e+00
1.08719709781700424e+00
1.06062160459533539e+00
1.06062160459533539e+00
1.06062160459533539e+00
9.92448656554857367e-01
9.92448656554857367e-01
9.92448656554857367e-01
1.01844992442189364e+00
1.01844992442189364e+00
1.01844992442189364e+00
9.62560600622244134e-01
9.62560600622244134e-01
9.62560600622244134e-01
9.77610802175816751e-01
9.77610802175816751e-01
9.77610802175816751e-01
1.00269531873152817e+00
1.00269531873152817e+00
1.00269531873152817e+00
1.00700408005663267e+00
1.00700408005663267e+00
1.00700408005663267e+00
9.91249187147275945e-01
9.91249187147275945e-01
9.91249187147275945e-01
9.97685485428572605e-01
9.97685485428572605e-01
9.97685485428572605e-01
1.00465248826238662e+00
1.00465248826238662e+00
1.00465248826238662e+00
1.01360551613497374e+00
1.01360551613497374e+00
1.01360551613497374e+00
9.83405538915562927e-01
9.83405538915562927e-01
9.83405538915562927e-01
9.92837270554913776e-01
9.92837270554913776e-01
9.92837270554913776e-01
1.00602515460536912e+00
1.00602515460536912e+00
1.00602515460536912e+00
9.93603143973639913e-01
9.93603143973639913e-01
9.93603143973639913e-01
1.09528370641815287e+00
1.09528370641815287e+00
1.09528370641815287e+00
9.75618823340253516e-01
9.75618823340253516e-01
9.75618823340253516e-01
1.01443517915669079e+00
1.01443517915669079e+00
1.01443517915669079e+00
1.00687101952629043e+00
1.00687101952629043e+00
1.00687101952629043e+00
9.82044523864986640e-01
9.82044523864986640e-01
9.82044523864986640e-01
1.00805748719620181e+00
1.00805748719620181e+00
1.00805748719620181e+00
9.94300176981098849e-01
9.94300176981098849e-01
9.94300176981098849e-01
1.02163822671866589e+00
1.02163822671866589e+00
1.02163822671866589e+00
1.00226153421899888e+00
1.00226153421899888e+00
1.00226153421899888e+00
1.00329594878791983e+00
1.00329594878791983e+00
1.00329594878791983e+00
1.01528177307775569e+00
1.01528177307775569e+00
1.01528177307775569e+00
1.03993630259226988e+00
1.03993630259226988e+00
1.03993630259226988e+00
1.02708007790867284e+00
1.02708007790867284e+00
1.02708007790867284e+00
9.96252421989291093e-01
9.96252421989291093e-01
9.96252421989291093e-01
1.01354449497632437e+00
1.01354449497632437e+00
1.01354449497632437e+00
1.04078643168001572e+00
1.04078643168001572e+00
1.04078643168001572e+00
1.04320220143581577e+00
1.04320220143581577e+00
1.04320220143581577e+00
1.04364011234467369e+00
1.04364011234467369e+00
1.04364011234467369e+00
1.05750369449686410e+00
1.05750369449686410e+00
1.05750369449686410e+00
1.05107121495001055e+00
1.05107121495001055e+00
1.05107121495001055e+00
1.03312744365760767e+00
1.03312744365760767e+00
1.03312744365760767e+00
1.00165516181837222e+00
1.00165516181837222e+00
1.00165516181837222e+00
1.00136918945401221e+00
1.00136918945401221e+00
1.00136918945401221e+00
1.04035216252226426e+00
1.04035216252226426e+00
1.04035216252226426e+00
1.06101818591064512e+00
1.06101818591064512e+00
1.06101818591064512e+00
1.06609713628480485e+00
1.06609713628480485e+00
1.06609713628480485e+00
9.57175497133111342e-01
9.57175497133111342e-01
9.57175497133111342e-01
1.07096346310525914e+00
1.07096346310525914e+00
1.07096346310525914e+00
1.03406275847807749e+00
1.03406275847807749e+00
1.03406275847807749e+00
1.02591386755773084e+00
1.02591386755773084e+00
1.02591386755773084e+00
1.02574363307024652e+00
1.02574363307024652e+00
1.02574363307024652e+00
1.02205415620721740e+00
1.02205415620721740e+00
1.02205415620721740e+00
1.05895398951179631e+00
1.05895398951179631e+00
1.05895398951179631e+00
1.06834868536983807e+00
1.06834868536983807e+00
1.06834868536983807e+00
1.00252429496161533e+00
1.00252429496161533e+00
1.00252429496161533e+00
1.06592628934570199e+00
1.06592628934570199e+00
1.06592628934570199e+00
1.03292789746424640e+00
1.03292789746424640e+00
1.03292789746424640e+00
1.00397976686396206e+00
1.00397976686396206e+00
1.00397976686396206e+00
1.06717025862185078e+00
1.06717025862185078e+00
1.06717025862185078e+00
1.03664518008696316e+00
1.03664518008696316e+00
1.03664518008696316e+00
1.02813513201462836e+00
1.02813513201462836e+00
1.02813513201462836e+00
1.06869044022260073e+00
1.06869044022260073e+00
1.06869044022260073e+00
1.00904434140734556e+00
1.00904434140734556e+00
1.00904434140734556e+00
1.07775133376504684e+00
1.07775133376504684e+00
1.07775133376504684e+00
9.96120071715797972e-01
9.96120071715797972e-01
9.96120071715797972e-01
1.05454789986453012e+00
1.05454789986453012e+00
1.05454789986453012e+00
1.04218322639277483e+00
1.04218322639277483e+00
1.04218322639277483e+00
1.02073117115041123e+00
1.02073117115041123e+00
1.02073117115041123e+00
9.79246767883449221e-01
9.79246767883449221e-01
9.79246767883449221e-01
1.03056648550552143e+00
1.03056648550552143e+00
1.03056648550552143e+00
9.60615726659860503e-01
9.60615726659860503e-01
9.60615726659860503e-01
1.01430404118367901e+00
1.01430404118367901e+00
1.01430404118367901e+00
1.01256884222808075e+00
1.01256884222808075e+00
1.01256884222808075e+00
1.01057418293700030e+00
1.01057418293700030e+00
1.01057418293700030e+00
1.02938018818190136e+00
1.02938018818190136e+00
1.02938018818190136e+00
1.03651985076043540e+00
1.03651985076043540e+00
1.03651985076043540e+00
9.89458633305336233e-01
9.89458633305336233e-01
9.89458633305336233e-01
1.00851343642054680e+00
1.00851343642054680e+00
1.00851343642054680e+00
1.03318352632690336e+00
1.03318352632690336e+00
1.03318352632690336e+00
1.00666903437161137e+00
1.00666903437161137e+00
1.00666903437161137e+00
1.00630070390595128e+00
1.00630070390595128e+00
1.00630070390595128e+00
1.02122433243978805e+00
1.02122433243978805e+00
1.02122433243978805e+00
1.00885857879822605e+00
1.00885857879822605e+00
1.00885857879822605e+00
9.87850347435651366e-01
9.87850347435651366e-01
9.87850347435651366e-01
9.84008776996018297e-01
9.84008776996018297e-01
9.84008776996018297e-01
9.79617496565440393e-01
9.79617496565440393e-01
9.79617496565440393e-01
9.95825335900189845e-01
9.95825335900189845e-01
9.95825335900189845e-01
9.93373198646239186e-01
9.93373198646239186e-01
9.93373198646239186e-01
9.91482280794154347e-01
9.91482280794154347e-01
9.91482280794154347e-01
9.77182006802847059e-01
9.77182006802847059e-01
9.77182006802847059e-01
1.02394984303471914e+00
1.02394984303471914e+00
1.02394984303471914e+00
1.00384070435389594e+00
1.00384070435389594e+00
1.00384070435389594e+00
9.96471889004602041e-01
9.96471889004602041e-01
9.96471889004602041e-01
1.01540876897307109e+00
1.01540876897307109e+00
1.01540876897307109e+00
9.67119639254411134e-01
9.67119639254411134e-01
9.67119639254411134e-01
1.04205802801429837e+00
1.04205802801429837e+00
1.04205802801429837e+00
1.02882422856499156e+00
1.02882422856499156e+00
1.02882422856499156e+00
1.06290656902997038e+00
1.06290656902997038e+00
1.06290656902997038e+00
1.03067349882716530e+00
1.03067349882716530e+00
1.03067349882716530e+00
1.00560655676479827e+00
1.00560655676479827e+00
1.00560655676479827e+00
9.61011323002852413e-01
9.61011323002852413e-01
9.61011323002852413e-01
1.04643589106317769e+00
1.04643589106317769e+00
1.04643589106317769e+00
1.02584043063723529e+00
1.02584043063723529e+00
1.02584043063723529e+00
9.71354042188961708e-01
9.71354042188961708e-01
9.71354042188961708e-01
1.06058005655350218e+00
1.06058005655350218e+00
1.06058005655350218e+00
1.05186083871065650e+00
1.05186083871065650e+00
1.05186083871065650e+00
9.89478876801178964e-01
9.89478876801178964e-01
9.89478876801178964e-01
1.01548921017332217e+00
1.01548921017332217e+00
1.01548921017332217e+00
1.02853700252992986e+00
1.02853700252992986e+00
1.02853700252992986e+00
1.02343827035590040e+00
1.02343827035590040e+00
1.02343827035590040e+00
1.02812956615411633e+00
1.02812956615411633e+00
1.02812956615411633e+00
9.37638339919751207e-01
9.37638339919751207e-01
9.37638339919751207e-01
9.49986307549958386e-01
9.49986307549958386e-01
9.49986307549958386e-01
9.84801531284620224e-01
9.84801531284620224e-01
9.84801531284620224e-01
1.02117087196220457e+00
1.02117087196220457e+00
1.02117087196220457e+00
9.69264396122317629e-01
9.69264396122317629e-01
9.69264396122317629e-01
1.00655169900048391e+00
1.00655169900048391e+00
1.00655169900048391e+00
1.08983927802299041e+00
1.08983927802299041e+00
1.08983927802299041e+00
9.96411384071272388e-01
9.96411384071272388e-01
9.96411384071272388e-01
1.03362892060202727e+00
1.03362892060202727e+00
1.03362892060202727e+00
1.06456066681639183e+00
1.06456066681639183e+00
1.06456066681639183e+00
1.02649079272983368e+00
1.02649079272983368e+00
1.02649079272983368e+00
1.00468203723883032e+00
1.00468203723883032e+00
1.00468203723883032e+00
1.09669703730867685e+00
1.09669703730867685e+00
1.09669703730867685e+00
9.83810039456931684e-01
9.83810039456931684e-01
9.83810039456931684e-01
1.02358155987779420e+00
1.02358155987779420e+00
1.02358155987779420e+00
9.78535467999911313e-01
9.78535467999911313e-01
9.78535467999911313e-01
1.03844944786933646e+00
1.03844944786933646e+00
1.03844944786933646e+00
1.03122931720154187e+00
1.03122931720154187e+00
1.03122931720154187e+00
9.87003463988494589e-01
9.87003463988494589e-01
9.87003463988494589e-01
1.02690594838677818e+00
1.02690594838677818e+00
1.02690594838677818e+00
1.00483417376456363e+00
1.00483417376456363e+00
1.00483417376456363e+00
9.37065657457082146e-01
9.37065657457082146e-01
9.37065657457082146e-01
1.01493663114054966e+00
1.01493663114054966e+00
1.01493663114054966e+00
1.02516106680043917e+00
1.02516106680043917e+00
1.02516106680043917e+00
1.01163035249619160e+00
1.01163035249619160e+00
1.01163035249619160e+00
1.09978727521116126e+00
1.09978727521116126e+00
1.09978727521116126e+00
1.03133368670885317e+00
1.03133368670885317e+00
1.03133368670885317e+00
1.00076687785764351e+00
1.00076687785764351e+00
1.00076687785764351e+00
1.10140370863477122e+00
1.10140370863477122e+00
1.10140370863477122e+00
1.01402853308050855e+00
1.01402853308050855e+00
1.01402853308050855e+00
1.06438053702646385e+00
1.06438053702646385e+00
1.06438053702646385e+00
9.88324531418599328e-01
9.88324531418599328e-01
9.88324531418599328e-01
1.03912678030191374e+00
1.03912678030191374e+00
1.03912678030191374e+00
1.04253215336126526e+00
1.04253215336126526e+00
1.04253215336126526e+00
1.00759530375914985e+00
1.00759530375914985e+00
1.00759530375914985e+00
1.02448444100364866e+00
1.02448444100364866e+00
1.02448444100364866e+00
1.05826762329639101e+00
1.05826762329639101e+00
1.05826762329639101e+00
1.03084941146334796e+00
1.03084941146334796e+00
1.03084941146334796e+00
1.00556842797016444e+00
1.00556842797016444e+00
1.00556842797016444e+00
1.00343687978567386e+00
1.00343687978567386e+00
1.00343687978567386e+00
1.03367972438742406e+00
1.03367972438742406e+00
1.03367972438742406e+00
9.94693117473565924e-01
9.94693117473565924e-01
9.94693117473565924e-01
9.95499468767127582e-01
9.95499468767127582e-01
9.95499468767127582e-01
9.93707646815052525e-01
9.93707646815052525e-01
9.93707646815052525e-01
1.05286882185895991e+00
1.05286882185895991e+00
1.05286882185895991e+00
1.03104928880558133e+00
1.03104928880558133e+00
1.03104928880558133e+00
1.11253563575261083e+00
1.11253563575261083e+00
1.11253563575261083e+00
9.96515169725636807e-01
9.96515169725636807e-01
9.96515169725636807e-01
1.04792083788645352e+00
1.04792083788645352e+00
1.04792083788645352e+00
1.00284245551586682e+00
1.00284245551586682e+00
1.00284245551586682e+00
1.01999915491433746e+00
1.01999915491433746e+00
1.01999915491433746e+00
1.03730388172781662e+00
1.03730388172781662e+00
1.03730388172781662e+00
1.04145991298947371e+00
1.04145991298947371e+00
1.04145991298947371e+00
1.02976224910873682e+00
1.02976224910873682e+00
1.02976224910873682e+00
1.00134600254819173e+00
1.00134600254819173e+00
1.00134600254819173e+00


        </DataArray>

      </PointData>

      <CellData/>

      <Points>

        <DataArray type="Float64" NumberOfComponents="3" format="ascii">

0.1082531754723032 0.6875000000007816 0 0.23533274979922561 0.77093399389351469 0 0.10409951422139101 0.81206782209691231 0 0.23533274979922561 0.77093399389351469 0 0.1082531754723032 0.6875000000007816 0 0.21809253452218619 0.65480892822618109 0 0.24418615484441761 0.35773612382016978 0 0.121259140952891 0.43112117036853742 0 0.1082531754734323 0.31250000000117473 0 0.75000000000057243 0.35048094716480432 0 0.88173731489851925 0.33077402607778361 0 0.81242894672211508 0.45500248311961472 0 0.121259140952891 0.43112117036853742 0 0.24418615484441761 0.35773612382016978 0 0.22257735880419699 0.47344721641341742 0 0.81242894672211508 0.45500248311961472 0 0.88173731489851925 0.33077402607778361 0 0.915464298762109 0.43749999999886913 0 0 0.62500000000121547 0 0 0.50000000000206146 0 0.1371230538040123 0.56179824718362847 0 0.82212678063041267 0.67678595194836966 0 0.89051480781310632 0.79665793440246835 0 0.76243180583607129 0.78687675331113149 0 0.76243180583607129 0.78687675331113149 0 0.69010814643829166 0.89298495739101336 0 0.62844955668446423 0.7850749770380413 0 0.89051480781310632 0.79665793440246835 0 0.82212678063041267 0.67678595194836966 0 0.92266244547590082 0.68749999999917555 0 0 0.50000000000206146 0 0.121259140952891 0.43112117036853742 0 0.1371230538040123 0.56179824718362847 0 0.1082531754723032 0.6875000000007816 0 0 0.62500000000121547 0 0.1371230538040123 0.56179824718362847 0 0.75000000000032374 0.56698729811007709 0 0.88927506082488361 0.56409486310635837 0 0.82212678063041267 0.67678595194836966 0 0.81242894672211508 0.45500248311961472 0 0.88927506082488361 0.56409486310635837 0 0.75000000000032374 0.56698729811007709 0 0.69851598570178741 0.68211701800612057 0 0.56496004948275869 0.67675037307860475 0 0.62752533658682441 0.56838075195614346 0 0.69851598570178741 0.68211701800612057 0 0.76243180583607129 0.78687675331113149 0 0.62844955668446423 0.7850749770380413 0 0.23533274979922561 0.77093399389351469 0 0.18802967116092181 0.89415349436770275 0 0.10409951422139101 0.81206782209691231 0 0.121259140952891 0.43112117036853742 0 0.22257735880419699 0.47344721641341742 0 0.1371230538040123 0.56179824718362847 0 0.75000000000032374 0.56698729811007709 0 0.69851598570178741 0.68211701800612057 0 0.62752533658682441 0.56838075195614346 0 0.56496004948275869 0.67675037307860475 0 0.69851598570178741 0.68211701800612057 0 0.62844955668446423 0.7850749770380413 0 0.1371230538040123 0.56179824718362847 0 0.22257735880419699 0.47344721641341742 0 0.26982811998763367 0.56544650815856912 0 0.21809253452218619 0.65480892822618109 0 0.1371230538040123 0.56179824718362847 0 0.26982811998763367 0.56544650815856912 0 0.24418615484441761 0.35773612382016978 0 0.1082531754734323 0.31250000000117473 0 0.20767261601459541 0.25628918442207171 0 0.88173731489851925 0.33077402607778361 0 0.75000000000057243 0.35048094716480432 0 0.79891106056046712 0.25007334953587562 0 0.75000000000032374 0.56698729811007709 0 0.82212678063041267 0.67678595194836966 0 0.69851598570178741 0.68211701800612057 0 0.81249999999950517 0.1082531754733404 0 0.89658421694297741 0.1933620068391701 0 0.79891106056046712 0.25007334953587562 0 0.81249999999950517 0.1082531754733404 0 0.79891106056046712 0.25007334953587562 0 0.73983916756365475 0.17530677078674589 0 0.23533274979922561 0.77093399389351469 0 0.21809253452218619 0.65480892822618109 0 0.32607333794064219 0.67760114260606152 0 0.1082531754723032 0.6875000000007816 0 0.1371230538040123 0.56179824718362847 0 0.21809253452218619 0.65480892822618109 0 0.69851598570178741 0.68211701800612057 0 0.82212678063041267 0.67678595194836966 0 0.76243180583607129 0.78687675331113149 0 0.69010814643829166 0.89298495739101336 0 0.76243180583607129 0.78687675331113149 0 0.80886664387416207 0.89717308644237903 0 0.43750000000181222 0.89174682452709564 0 0.31258827852827581 0.89214793616708443 0 0.37776173212361452 0.78514649317305008 0 0.43750000000181222 0.89174682452709564 0 0.37500000000156292 1 0 0.31258827852827581 0.89214793616708443 0 0.121259140952891 0.43112117036853742 0 0 0.37500000000156292 0 0.1082531754734323 0.31250000000117473 0 0.50000000000206146 1 0 0.37500000000156292 1 0 0.43750000000181222 0.89174682452709564 0 0.31258827852827581 0.89214793616708443 0 0.18802967116092181 0.89415349436770275 0 0.23533274979922561 0.77093399389351469 0 0 0.50000000000206146 0 0 0.37500000000156292 0 0.121259140952891 0.43112117036853742 0 0.62844955668446423 0.7850749770380413 0 0.69010814643829166 0.89298495739101336 0 0.56327595140699671 0.89211526915426331 0 0.69010814643829166 0.89298495739101336 0 0.62500000000121547 1 0 0.56327595140699671 0.89211526915426331 0 0.25000000000104189 1 0 0.18802967116092181 0.89415349436770275 0 0.31258827852827581 0.89214793616708443 0 0.50000000000206146 1 0 0.43750000000181222 0.89174682452709564 0 0.56327595140699671 0.89211526915426331 0 0.56249999999885147 0.1082531754730395 0 0.62499999999901068 0 0 0.68749999999926592 0.1082531754732875 0 1 0.49999999999869221 0 1 0.62499999999901068 0 0.88927506082488361 0.56409486310635837 0 0 0.25000000000104189 0 0.12076953676380731 0.18690935762408761 0 0.1082531754734323 0.31250000000117473 0 0.49999999999869221 0 0 0.62499999999901068 0 0 0.56249999999885147 0.1082531754730395 0 0.62500000000121547 1 0 0.50000000000206146 1 0 0.56327595140699671 0.89211526915426331 0 0.37500000000156292 1 0 0.25000000000104189 1 0 0.31258827852827581 0.89214793616708443 0 0.31281086598417152 0.10449318608631281 0 0.37499999999904599 0 0 0.43749999999910871 0.1082531754729984 0 0.43750000000181222 0.89174682452709564 0 0.37776173212361452 0.78514649317305008 0 0.50046028868828263 0.78376912307435687 0 0 0.37500000000156292 0 0 0.25000000000104189 0 0.1082531754734323 0.31250000000117473 0 0.49999999999869221 0 0 0.56249999999885147 0.1082531754730395 0 0.43749999999910871 0.1082531754729984 0 0.43750000000181222 0.89174682452709564 0 0.50046028868828263 0.78376912307435687 0 0.56327595140699671 0.89211526915426331 0 0.74999999999934042 0 0 0.81249999999950517 0.1082531754733404 0 0.68749999999926592 0.1082531754732875 0 0.37499999999904599 0 0 0.49999999999869221 0 0 0.43749999999910871 0.1082531754729984 0 0.25000000000104189 1 0 0.12500000000052089 1 0 0.18802967116092181 0.89415349436770275 0 0.50046028868828263 0.78376912307435687 0 0.62844955668446423 0.7850749770380413 0 0.56327595140699671 0.89211526915426331 0 0.37776173212361452 0.78514649317305008 0 0.31258827852827581 0.89214793616708443 0 0.23533274979922561 0.77093399389351469 0 0.62499999999901068 0 0 0.74999999999934042 0 0 0.68749999999926592 0.1082531754732875 0 1 0.74999999999934042 0 1 0.87499999999967015 0 0.89051480781310632 0.79665793440246835 0 0 0.25000000000104189 0 0 0.12500000000052089 0 0.12076953676380731 0.18690935762408761 0 0.74999999999934042 0 0 0.87499999999967015 0 0 0.81249999999950517 0.1082531754733404 0 0.24999999999941069 0 0 0.37499999999904599 0 0 0.31281086598417152 0.10449318608631281 0 0.50046028868828263 0.78376912307435687 0 0.37776173212361452 0.78514649317305008 0 0.44078402250377968 0.67714785211715212 0 0.68768773896438518 0.4586835206367198 0 0.75000000000032374 0.56698729811007709 0 0.62752533658682441 0.56838075195614346 0 0.31411863959822661 0.24965544328045999 0 0.37953773393552892 0.34812185820708452 0 0.24418615484441761 0.35773612382016978 0 0.68768773896438518 0.4586835206367198 0 0.81242894672211508 0.45500248311961472 0 0.75000000000032374 0.56698729811007709 0 1 0.24999999999941069 0 1 0.37499999999904599 0 0.88173731489851925 0.33077402607778361 0 0 0.75000000000034761 0 0 0.62500000000121547 0 0.1082531754723032 0.6875000000007816 0 0.50048844149666749 0.56727788297625459 0 0.44078402250377968 0.67714785211715212 0 0.38694285807596462 0.5672991787102919 0 0.50108503093851109 0.35012252869403671 0 0.44301038174930041 0.45684931552185398 0 0.37953773393552892 0.34812185820708452 0 0.50046028868828263 0.78376912307435687 0 0.56496004948275869 0.67675037307860475 0 0.62844955668446423 0.7850749770380413 0 0.68768773896438518 0.4586835206367198 0 0.75000000000057243 0.35048094716480432 0 0.81242894672211508 0.45500248311961472 0 0.56349980387502452 0.45846841892908402 0 0.62512662990940393 0.35044303886909911 0 0.68768773896438518 0.4586835206367198 0 0.50048844149666749 0.56727788297625459 0 0.38694285807596462 0.5672991787102919 0 0.44301038174930041 0.45684931552185398 0 0.50046028868828263 0.78376912307435687 0 0.44078402250377968 0.67714785211715212 0 0.56496004948275869 0.67675037307860475 0 0.50108503093851109 0.35012252869403671 0 0.37953773393552892 0.34812185820708452 0 0.43750000000200551 0.24222777169198509 0 0.75000000000034761 1 0 0.62500000000121547 1 0 0.69010814643829166 0.89298495739101336 0 0.68768773896438518 0.4586835206367198 0 0.62512662990940393 0.35044303886909911 0 0.75000000000057243 0.35048094716480432 0 0.56496004948275869 0.67675037307860475 0 0.44078402250377968 0.67714785211715212 0 0.50048844149666749 0.56727788297625459 0 0.56349980387502452 0.45846841892908402 0 0.44301038174930041 0.45684931552185398 0 0.50108503093851109 0.35012252869403671 0 0.50048844149666749 0.56727788297625459 0 0.44301038174930041 0.45684931552185398 0 0.56349980387502452 0.45846841892908402 0 0.56349980387502452 0.45846841892908402 0 0.50108503093851109 0.35012252869403671 0 0.62512662990940393 0.35044303886909911 0 0.43750000000200551 0.24222777169198509 0 0.37953773393552892 0.34812185820708452 0 0.31411863959822661 0.24965544328045999 0 0.56496004948275869 0.67675037307860475 0 0.50048844149666749 0.56727788297625459 0 0.62752533658682441 0.56838075195614346 0 0.56349980387502452 0.45846841892908402 0 0.68768773896438518 0.4586835206367198 0 0.62752533658682441 0.56838075195614346 0 0.50048844149666749 0.56727788297625459 0 0.56349980387502452 0.45846841892908402 0 0.62752533658682441 0.56838075195614346 0 0.75000000000057243 0.35048094716480432 0 0.62512662990940393 0.35044303886909911 0 0.68668231842078242 0.24762892664808989 0 0.50108503093851109 0.35012252869403671 0 0.43750000000200551 0.24222777169198509 0 0.56250000000143974 0.2422277716920859 0 0.62512662990940393 0.35044303886909911 0 0.50108503093851109 0.35012252869403671 0 0.56250000000143974 0.2422277716920859 0 0.68668231842078242 0.24762892664808989 0 0.62512662990940393 0.35044303886909911 0 0.56250000000143974 0.2422277716920859 0 0.22257735880419699 0.47344721641341742 0 0.24418615484441761 0.35773612382016978 0 0.32815957677880009 0.4577243358118348 0 0.12076953676380731 0.18690935762408761 0 0.19185372118111221 0.092925648673580788 0 0.25103557339309318 0.17464499738446629 0 0.20767261601459541 0.25628918442207171 0 0.12076953676380731 0.18690935762408761 0 0.25103557339309318 0.17464499738446629 0 0 0.87499999999950151 0 0 0.75000000000034761 0 0.10409951422139101 0.81206782209691231 0 0.1249999999997731 0 0 0.24999999999941069 0 0 0.19185372118111221 0.092925648673580788 0 1 0.1249999999997731 0 1 0.24999999999941069 0 0.89658421694297741 0.1933620068391701 0 0.88927506082488361 0.56409486310635837 0 0.81242894672211508 0.45500248311961472 0 0.915464298762109 0.43749999999886913 0 0.87499999999950151 1 0 0.75000000000034761 1 0 0.80886664387416207 0.89717308644237903 0 0.75000000000034761 1 0 0.69010814643829166 0.89298495739101336 0 0.80886664387416207 0.89717308644237903 0 0.82212678063041267 0.67678595194836966 0 0.88927506082488361 0.56409486310635837 0 0.92266244547590082 0.68749999999917555 0 0 0.75000000000034761 0 0.1082531754723032 0.6875000000007816 0 0.10409951422139101 0.81206782209691231 0 0.24999999999941069 0 0 0.31281086598417152 0.10449318608631281 0 0.19185372118111221 0.092925648673580788 0 1 0.24999999999941069 0 0.88173731489851925 0.33077402607778361 0 0.89658421694297741 0.1933620068391701 0 0.32815957677880009 0.4577243358118348 0 0.38694285807596462 0.5672991787102919 0 0.26982811998763367 0.56544650815856912 0 0.76243180583607129 0.78687675331113149 0 0.89051480781310632 0.79665793440246835 0 0.80886664387416207 0.89717308644237903 0 0.38694285807596462 0.5672991787102919 0 0.44078402250377968 0.67714785211715212 0 0.32607333794064219 0.67760114260606152 0 0.37776173212361452 0.78514649317305008 0 0.23533274979922561 0.77093399389351469 0 0.32607333794064219 0.67760114260606152 0 1 0.49999999999869221 0 0.88927506082488361 0.56409486310635837 0 0.915464298762109 0.43749999999886913 0 0.88173731489851925 0.33077402607778361 0 1 0.37499999999904599 0 0.915464298762109 0.43749999999886913 0 0.24418615484441761 0.35773612382016978 0 0.37953773393552892 0.34812185820708452 0 0.32815957677880009 0.4577243358118348 0 0.44301038174930041 0.45684931552185398 0 0.38694285807596462 0.5672991787102919 0 0.32815957677880009 0.4577243358118348 0 0.88927506082488361 0.56409486310635837 0 1 0.62499999999901068 0 0.92266244547590082 0.68749999999917555 0 1 0.74999999999934042 0 0.89051480781310632 0.79665793440246835 0 0.92266244547590082 0.68749999999917555 0 0 1 0 0 0.87499999999950151 0 0.091506350946494744 0.90849364905351082 0 1 1 0 0.87499999999950151 1 0 0.90849364905363228 0.90849364905367769 0 0 0 0 0.1249999999997731 0 0 0.091506350946417708 0.091506350946618076 0 0 0.12500000000052089 0 0 0 0 0.091506350946417708 0.091506350946618076 0 1 0 0 1 0.1249999999997731 0 0.90849364905355434 0.091506350946296292 0 0.87499999999967015 0 0 1 0 0 0.90849364905355434 0.091506350946296292 0 0.12500000000052089 1 0 0 1 0 0.091506350946494744 0.90849364905351082 0 1 0.87499999999967015 0 1 1 0 0.90849364905363228 0.90849364905367769 0 0.38694285807596462 0.5672991787102919 0 0.32607333794064219 0.67760114260606152 0 0.26982811998763367 0.56544650815856912 0 0.31411863959822661 0.24965544328045999 0 0.24418615484441761 0.35773612382016978 0 0.20767261601459541 0.25628918442207171 0 0.1082531754734323 0.31250000000117473 0 0.12076953676380731 0.18690935762408761 0 0.20767261601459541 0.25628918442207171 0 0.75000000000057243 0.35048094716480432 0 0.68668231842078242 0.24762892664808989 0 0.79891106056046712 0.25007334953587562 0 0.22257735880419699 0.47344721641341742 0 0.32815957677880009 0.4577243358118348 0 0.26982811998763367 0.56544650815856912 0 0.44078402250377968 0.67714785211715212 0 0.37776173212361452 0.78514649317305008 0 0.32607333794064219 0.67760114260606152 0 0.89658421694297741 0.1933620068391701 0 0.88173731489851925 0.33077402607778361 0 0.79891106056046712 0.25007334953587562 0 1 0.37499999999904599 0 1 0.49999999999869221 0 0.915464298762109 0.43749999999886913 0 0.37953773393552892 0.34812185820708452 0 0.44301038174930041 0.45684931552185398 0 0.32815957677880009 0.4577243358118348 0 0.32607333794064219 0.67760114260606152 0 0.21809253452218619 0.65480892822618109 0 0.26982811998763367 0.56544650815856912 0 1 0.1249999999997731 0 0.89658421694297741 0.1933620068391701 0 0.90849364905355434 0.091506350946296292 0 0 0.87499999999950151 0 0.10409951422139101 0.81206782209691231 0 0.091506350946494744 0.90849364905351082 0 0.1249999999997731 0 0 0.19185372118111221 0.092925648673580788 0 0.091506350946417708 0.091506350946618076 0 1 0.62499999999901068 0 1 0.74999999999934042 0 0.92266244547590082 0.68749999999917555 0 0.18802967116092181 0.89415349436770275 0 0.12500000000052089 1 0 0.091506350946494744 0.90849364905351082 0 0.89051480781310632 0.79665793440246835 0 1 0.87499999999967015 0 0.90849364905363228 0.90849364905367769 0 0.12076953676380731 0.18690935762408761 0 0 0.12500000000052089 0 0.091506350946417708 0.091506350946618076 0 0.81249999999950517 0.1082531754733404 0 0.87499999999967015 0 0 0.90849364905355434 0.091506350946296292 0 0.87499999999950151 1 0 0.80886664387416207 0.89717308644237903 0 0.90849364905363228 0.90849364905367769 0 0.68668231842078242 0.24762892664808989 0 0.62499999999892575 0.17524047358135519 0 0.73983916756365475 0.17530677078674589 0 0.31281086598417152 0.10449318608631281 0 0.43749999999910871 0.1082531754729984 0 0.37500000000232431 0.17524047358384309 0 0.62499999999892575 0.17524047358135519 0 0.56250000000143974 0.2422277716920859 0 0.49999999999934441 0.1752404735815076 0 0.56249999999885147 0.1082531754730395 0 0.68749999999926592 0.1082531754732875 0 0.62499999999892575 0.17524047358135519 0 0.56249999999885147 0.1082531754730395 0 0.62499999999892575 0.17524047358135519 0 0.49999999999934441 0.1752404735815076 0 0.56250000000143974 0.2422277716920859 0 0.43750000000200551 0.24222777169198509 0 0.49999999999934441 0.1752404735815076 0 0.43749999999910871 0.1082531754729984 0 0.56249999999885147 0.1082531754730395 0 0.49999999999934441 0.1752404735815076 0 0.68668231842078242 0.24762892664808989 0 0.56250000000143974 0.2422277716920859 0 0.62499999999892575 0.17524047358135519 0 0.43750000000200551 0.24222777169198509 0 0.31411863959822661 0.24965544328045999 0 0.37500000000232431 0.17524047358384309 0 0.49999999999934441 0.1752404735815076 0 0.43750000000200551 0.24222777169198509 0 0.37500000000232431 0.17524047358384309 0 0.43749999999910871 0.1082531754729984 0 0.49999999999934441 0.1752404735815076 0 0.37500000000232431 0.17524047358384309 0 0.62499999999892575 0.17524047358135519 0 0.68749999999926592 0.1082531754732875 0 0.73983916756365475 0.17530677078674589 0 0.68749999999926592 0.1082531754732875 0 0.81249999999950517 0.1082531754733404 0 0.73983916756365475 0.17530677078674589 0 0.10409951422139101 0.81206782209691231 0 0.18802967116092181 0.89415349436770275 0 0.091506350946494744 0.90849364905351082 0 0.89658421694297741 0.1933620068391701 0 0.81249999999950517 0.1082531754733404 0 0.90849364905355434 0.091506350946296292 0 0.19185372118111221 0.092925648673580788 0 0.12076953676380731 0.18690935762408761 0 0.091506350946417708 0.091506350946618076 0 0.37500000000232431 0.17524047358384309 0 0.31411863959822661 0.24965544328045999 0 0.25103557339309318 0.17464499738446629 0 0.31281086598417152 0.10449318608631281 0 0.37500000000232431 0.17524047358384309 0 0.25103557339309318 0.17464499738446629 0 0.80886664387416207 0.89717308644237903 0 0.89051480781310632 0.79665793440246835 0 0.90849364905363228 0.90849364905367769 0 0.19185372118111221 0.092925648673580788 0 0.31281086598417152 0.10449318608631281 0 0.25103557339309318 0.17464499738446629 0 0.79891106056046712 0.25007334953587562 0 0.68668231842078242 0.24762892664808989 0 0.73983916756365475 0.17530677078674589 0 0.31411863959822661 0.24965544328045999 0 0.20767261601459541 0.25628918442207171 0 0.25103557339309318 0.17464499738446629 0 

        </DataArray>

      </Points>

      <Cells>

        <DataArray type="Int32" Name="connectivity" format="ascii">

0 1 2 3 4 5 6 7 8 9 10 11 12 13 14 15 16 17 18 19 20 21 22 23 24 25 26 27 28 29 30 31 32 33 34 35 36 37 38 39 40 41 42 43 44 45 46 47 48 49 50 51 52 53 54 55 56 57 58 59 60 61 62 63 64 65 66 67 68 69 70 71 72 73 74 75 76 77 78 79 80 81 82 83 84 85 86 87 88 89 90 91 92 93 94 95 96 97 98 99 100 101 102 103 104 105 106 107 108 109 110 111 112 113 114 115 116 117 118 119 120 121 122 123 124 125 126 127 128 129 130 131 132 133 134 135 136 137 138 139 140 141 142 143 144 145 146 147 148 149 150 151 152 153 154 155 156 157 158 159 160 161 162 163 164 165 166 167 168 169 170 171 172 173 174 175 176 177 178 179 180 181 182 183 184 185 186 187 188 189 190 191 192 193 194 195 196 197 198 199 200 201 202 203 204 205 206 207 208 209 210 211 212 213 214 215 216 217 218 219 220 221 222 223 224 225 226 227 228 229 230 231 232 233 234 235 236 237 238 239 240 241 242 243 244 245 246 247 248 249 250 251 252 253 254 255 256 257 258 259 260 261 262 263 264 265 266 267 268 269 270 271 272 273 274 275 276 277 278 279 280 281 282 283 284 285 286 287 288 289 290 291 292 293 294 295 296 297 298 299 300 301 302 303 304 305 306 307 308 309 310 311 312 313 314 315 316 317 318 319 320 321 322 323 324 325 326 327 328 329 330 331 332 333 334 335 336 337 338 339 340 341 342 343 344 345 346 347 348 349 350 351 352 353 354 355 356 357 358 359 360 361 362 363 364 365 366 367 368 369 370 371 372 373 374 375 376 377 378 379 380 381 382 383 384 385 386 387 388 389 390 391 392 393 394 395 396 397 398 399 400 401 402 403 404 405 406 407 408 409 410 411 412 413 414 415 416 417 418 419 420 421 422 423 424 425 426 427 428 429 430 431 432 433 434 435 436 437 438 439 440 441 442 443 444 445 446 447 448 449 450 451 452 453 454 455 456 457 458 459 460 461 462 463 464 465 466 467 468 469 470 471 472 473 474 475 476 477 478 479 480 481 482 483 484 485 

        </DataArray>

        <DataArray type="Int32" Name="offsets" format="ascii">

3 6 9 12 15 18 21 24 27 30 33 36 39 42 45 48 51 54 57 60 63 66 69 72 75 78 81 84 87 90 93 96 99 102 105 108 111 114 117 120 123 126 129 132 135 138 141 144 147 150 153 156 159 162 165 168 171 174 177 180 183 186 189 192 195 198 201 204 207 210 213 216 219 222 225 228 231 234 237 240 243 246 249 252 255 258 261 264 267 270 273 276 279 282 285 288 291 294 297 300 303 306 309 312 315 318 321 324 327 330 333 336 339 342 345 348 351 354 357 360 363 366 369 372 375 378 381 384 387 390 393 396 399 402 405 408 411 414 417 420 423 426 429 432 435 438 441 444 447 450 453 456 459 462 465 468 471 474 477 480 483 486 

        </DataArray>

        <DataArray type="Int32" Name="types" format="ascii">

5 5 5 5 5 5 5 5 5 5 5 5 5 5 5 5 5 5 5 5 5 5 5 5 5 5 5 5 5 5 5 5 5 5 5 5 5 5 5 5 5 5 5 5 5 5 5 5 5 5 5 5 5 5 5 5 5 5 5 5 5 5 5 5 5 5 5 5 5 5 5 5 5 5 5 5 5 5 5 5 5 5 5 5 5 5 5 5 5 5 5 5 5 5 5 5 5 5 5 5 5 5 5 5 5 5 5 5 5 5 5 5 5 5 5 5 5 5 5 5 5 5 5 5 5 5 5 5 5 5 5 5 5 5 5 5 5 5 5 5 5 5 5 5 5 5 5 5 5 5 5 5 5 5 5 5 5 5 5 5 5 5 

        </DataArray>

      </Cells>

    </Piece>

  </UnstructuredGrid>

</VTKFile>

