<?xml version="1.0"?>

<VTKFile type="UnstructuredGrid" version="0.1">

  <UnstructuredGrid>

    <Piece NumberOfPoints="486" NumberOfCells="162">

      <PointData>

        <DataArray type="Float64" Name="K" format="ascii">

1.03454766552932043e+00
1.03454766552932043e+00
1.03454766552932043e+00
1.04844795726504691e+00
1.04844795726504691e+00
1.04844795726504691e+00
9.32894135419060411e-01
9.32894135419060411e-01
9.32894135419060411e-01
1.03140426620443226e+00
1.03140426620443226e+00
1.03140426620443226e+00
9.67450557524499377e-01
9.67450557524499377e-01
9.67450557524499377e-01
9.77677161881048917e-01
9.77677161881048917e-01
9.77677161881048917e-01
9.99022895877515915e-01
9.99022895877515915e-01
9.99022895877515915e-01
1.05573205702088502e+00
1.05573205702088502e+00
1.05573205702088502e+00
9.99187986008170714e-01
9.99187986008170714e-01
9.99187986008170714e-01
1.05758586968396995e+00
1.05758586968396995e+00
1.05758586968396995e+00
9.87069624331350592e-01
9.87069624331350592e-01
9.87069624331350592e-01
1.02544428863663684e+00
1.02544428863663684e+00
1.02544428863663684e+00
9.97866796114833754e-01
9.97866796114833754e-01
9.97866796114833754e-01
9.93431014813491386e-01
9.93431014813491386e-01
9.93431014813491386e-01
1.02682864320521627e+00
1.02682864320521627e+00
1.02682864320521627e+00
9.98397882542651716e-01
9.98397882542651716e-01
9.98397882542651716e-01
9.78821739641940636e-01
9.78821739641940636e-01
9.78821739641940636e-01
9.98403509028554015e-01
9.98403509028554015e-01
9.98403509028554015e-01
1.02646938834223644e+00
1.02646938834223644e+00
1.02646938834223644e+00
1.01189963899139346e+00
1.01189963899139346e+00
1.01189963899139346e+00
1.05041119177214792e+00
1.05041119177214792e+00
1.05041119177214792e+00
1.06834651359346644e+00
1.06834651359346644e+00
1.06834651359346644e+00
9.15248285510493420e-01
9.15248285510493420e-01
9.15248285510493420e-01
1.04625667959208601e+00
1.04625667959208601e+00
1.04625667959208601e+00
1.00773050316949764e+00
1.00773050316949764e+00
1.00773050316949764e+00
1.03777997182545634e+00
1.03777997182545634e+00
1.03777997182545634e+00
1.03085986706825872e+00
1.03085986706825872e+00
1.03085986706825872e+00
1.01068930915638466e+00
1.01068930915638466e+00
1.01068930915638466e+00
1.06102105372541522e+00
1.06102105372541522e+00
1.06102105372541522e+00
1.01442452106621994e+00
1.01442452106621994e+00
1.01442452106621994e+00
1.04026030838953787e+00
1.04026030838953787e+00
1.04026030838953787e+00
9.69708178736963688e-01
9.69708178736963688e-01
9.69708178736963688e-01
9.91698448143417899e-01
9.91698448143417899e-01
9.91698448143417899e-01
9.53840272638834419e-01
9.53840272638834419e-01
9.53840272638834419e-01
1.01696114612018418e+00
1.01696114612018418e+00
1.01696114612018418e+00
9.26381823206167576e-01
9.26381823206167576e-01
9.26381823206167576e-01
9.72181835474081213e-01
9.72181835474081213e-01
9.72181835474081213e-01
9.88302115787152657e-01
9.88302115787152657e-01
9.88302115787152657e-01
9.87831462824749873e-01
9.87831462824749873e-01
9.87831462824749873e-01
9.26267643697382570e-01
9.26267643697382570e-01
9.26267643697382570e-01
1.01495261025393124e+00
1.01495261025393124e+00
1.01495261025393124e+00
1.05978447949127519e+00
1.05978447949127519e+00
1.05978447949127519e+00
1.00363328829581744e+00
1.00363328829581744e+00
1.00363328829581744e+00
9.43100030119607413e-01
9.43100030119607413e-01
9.43100030119607413e-01
1.02520215012811544e+00
1.02520215012811544e+00
1.02520215012811544e+00
9.91204112595655107e-01
9.91204112595655107e-01
9.91204112595655107e-01
9.70021886741737616e-01
9.70021886741737616e-01
9.70021886741737616e-01
9.56007731602483424e-01
9.56007731602483424e-01
9.56007731602483424e-01
1.00687330571022415e+00
1.00687330571022415e+00
1.00687330571022415e+00
9.44490291988621999e-01
9.44490291988621999e-01
9.44490291988621999e-01
9.86291067203341476e-01
9.86291067203341476e-01
9.86291067203341476e-01
1.02503949427864693e+00
1.02503949427864693e+00
1.02503949427864693e+00
1.02889027683584033e+00
1.02889027683584033e+00
1.02889027683584033e+00
9.56741050195597298e-01
9.56741050195597298e-01
9.56741050195597298e-01
9.28651851130745998e-01
9.28651851130745998e-01
9.28651851130745998e-01
1.01308252808623034e+00
1.01308252808623034e+00
1.01308252808623034e+00
9.28554112243873409e-01
9.28554112243873409e-01
9.28554112243873409e-01
1.06394717109518422e+00
1.06394717109518422e+00
1.06394717109518422e+00
1.00321788688777391e+00
1.00321788688777391e+00
1.00321788688777391e+00
9.42498163291894508e-01
9.42498163291894508e-01
9.42498163291894508e-01
1.00812785533393523e+00
1.00812785533393523e+00
1.00812785533393523e+00
1.00334933017107630e+00
1.00334933017107630e+00
1.00334933017107630e+00
9.97675694790093548e-01
9.97675694790093548e-01
9.97675694790093548e-01
1.04316472096010493e+00
1.04316472096010493e+00
1.04316472096010493e+00
9.83446055948246634e-01
9.83446055948246634e-01
9.83446055948246634e-01
1.03921757603229770e+00
1.03921757603229770e+00
1.03921757603229770e+00
9.58317814200374762e-01
9.58317814200374762e-01
9.58317814200374762e-01
1.00669198770341173e+00
1.00669198770341173e+00
1.00669198770341173e+00
1.01205486409841772e+00
1.01205486409841772e+00
1.01205486409841772e+00
1.07270607784636507e+00
1.07270607784636507e+00
1.07270607784636507e+00
1.02400898914323424e+00
1.02400898914323424e+00
1.02400898914323424e+00
1.05318827895183298e+00
1.05318827895183298e+00
1.05318827895183298e+00
1.01929851341167965e+00
1.01929851341167965e+00
1.01929851341167965e+00
1.03700714265436833e+00
1.03700714265436833e+00
1.03700714265436833e+00
1.02198052756650748e+00
1.02198052756650748e+00
1.02198052756650748e+00
1.05939447957528254e+00
1.05939447957528254e+00
1.05939447957528254e+00
1.00984790720839701e+00
1.00984790720839701e+00
1.00984790720839701e+00
1.04236198332144325e+00
1.04236198332144325e+00
1.04236198332144325e+00
1.01504770319582005e+00
1.01504770319582005e+00
1.01504770319582005e+00
1.03232509003875550e+00
1.03232509003875550e+00
1.03232509003875550e+00
1.01979463367803036e+00
1.01979463367803036e+00
1.01979463367803036e+00
1.01094704791441381e+00
1.01094704791441381e+00
1.01094704791441381e+00
1.01292867636115025e+00
1.01292867636115025e+00
1.01292867636115025e+00
1.02374735127156091e+00
1.02374735127156091e+00
1.02374735127156091e+00
1.02898694498065546e+00
1.02898694498065546e+00
1.02898694498065546e+00
1.01509618248431122e+00
1.01509618248431122e+00
1.01509618248431122e+00
1.03208482178397842e+00
1.03208482178397842e+00
1.03208482178397842e+00
1.04420803161422260e+00
1.04420803161422260e+00
1.04420803161422260e+00
1.02016508416707175e+00
1.02016508416707175e+00
1.02016508416707175e+00
1.01656280916074082e+00
1.01656280916074082e+00
1.01656280916074082e+00
1.02281637107295942e+00
1.02281637107295942e+00
1.02281637107295942e+00
9.53602254451323295e-01
9.53602254451323295e-01
9.53602254451323295e-01
9.27150686584827244e-01
9.27150686584827244e-01
9.27150686584827244e-01
9.92564093666923442e-01
9.92564093666923442e-01
9.92564093666923442e-01
1.01606170910505478e+00
1.01606170910505478e+00
1.01606170910505478e+00
1.02483678519308752e+00
1.02483678519308752e+00
1.02483678519308752e+00
9.64005754075645038e-01
9.64005754075645038e-01
9.64005754075645038e-01
1.02168667043246608e+00
1.02168667043246608e+00
1.02168667043246608e+00
1.03742079272761134e+00
1.03742079272761134e+00
1.03742079272761134e+00
1.02098927494728331e+00
1.02098927494728331e+00
1.02098927494728331e+00
1.02341482685832275e+00
1.02341482685832275e+00
1.02341482685832275e+00
9.98982727897601341e-01
9.98982727897601341e-01
9.98982727897601341e-01
1.00428448325676345e+00
1.00428448325676345e+00
1.00428448325676345e+00
1.08115936145723079e+00
1.08115936145723079e+00
1.08115936145723079e+00
1.06851660911673441e+00
1.06851660911673441e+00
1.06851660911673441e+00
1.00374138233308963e+00
1.00374138233308963e+00
1.00374138233308963e+00
9.54572953129107948e-01
9.54572953129107948e-01
9.54572953129107948e-01
9.59727293861564190e-01
9.59727293861564190e-01
9.59727293861564190e-01
9.47368878927318248e-01
9.47368878927318248e-01
9.47368878927318248e-01
1.03931158120708633e+00
1.03931158120708633e+00
1.03931158120708633e+00
1.07939894105587775e+00
1.07939894105587775e+00
1.07939894105587775e+00
1.02645114244550828e+00
1.02645114244550828e+00
1.02645114244550828e+00
1.04889976327768530e+00
1.04889976327768530e+00
1.04889976327768530e+00
9.61403509527298694e-01
9.61403509527298694e-01
9.61403509527298694e-01
9.26251173796710847e-01
9.26251173796710847e-01
9.26251173796710847e-01
1.00021714527036254e+00
1.00021714527036254e+00
1.00021714527036254e+00
9.85933839744776663e-01
9.85933839744776663e-01
9.85933839744776663e-01
1.06024329675401674e+00
1.06024329675401674e+00
1.06024329675401674e+00
1.03649216464853278e+00
1.03649216464853278e+00
1.03649216464853278e+00
9.44699565916780282e-01
9.44699565916780282e-01
9.44699565916780282e-01
9.16350857068780944e-01
9.16350857068780944e-01
9.16350857068780944e-01
1.04651172146353422e+00
1.04651172146353422e+00
1.04651172146353422e+00
9.22468018010106472e-01
9.22468018010106472e-01
9.22468018010106472e-01
9.28934987388554623e-01
9.28934987388554623e-01
9.28934987388554623e-01
1.04563999489544912e+00
1.04563999489544912e+00
1.04563999489544912e+00
1.06816695469449363e+00
1.06816695469449363e+00
1.06816695469449363e+00
9.71867551889333825e-01
9.71867551889333825e-01
9.71867551889333825e-01
1.03518817153593190e+00
1.03518817153593190e+00
1.03518817153593190e+00
9.49896112366080847e-01
9.49896112366080847e-01
9.49896112366080847e-01
1.08666108864133637e+00
1.08666108864133637e+00
1.08666108864133637e+00
1.05090770547429857e+00
1.05090770547429857e+00
1.05090770547429857e+00
1.04773584620476123e+00
1.04773584620476123e+00
1.04773584620476123e+00
9.86844145735195744e-01
9.86844145735195744e-01
9.86844145735195744e-01
9.92184182026550898e-01
9.92184182026550898e-01
9.92184182026550898e-01
1.04181515962334581e+00
1.04181515962334581e+00
1.04181515962334581e+00
9.42276807329901045e-01
9.42276807329901045e-01
9.42276807329901045e-01
9.97639849578599858e-01
9.97639849578599858e-01
9.97639849578599858e-01
9.59638077143203261e-01
9.59638077143203261e-01
9.59638077143203261e-01
1.01786448983805466e+00
1.01786448983805466e+00
1.01786448983805466e+00
1.00984634998304124e+00
1.00984634998304124e+00
1.00984634998304124e+00
1.02842224236006885e+00
1.02842224236006885e+00
1.02842224236006885e+00
9.45454783933455833e-01
9.45454783933455833e-01
9.45454783933455833e-01
1.03615502800994097e+00
1.03615502800994097e+00
1.03615502800994097e+00
1.04895267470867792e+00
1.04895267470867792e+00
1.04895267470867792e+00
1.03765498127414513e+00
1.03765498127414513e+00
1.03765498127414513e+00
1.03371036105321989e+00
1.03371036105321989e+00
1.03371036105321989e+00
1.00495448526569087e+00
1.00495448526569087e+00
1.00495448526569087e+00
1.02689577429352052e+00
1.02689577429352052e+00
1.02689577429352052e+00
9.74413619900174277e-01
9.74413619900174277e-01
9.74413619900174277e-01
1.00013719034461679e+00
1.00013719034461679e+00
1.00013719034461679e+00
9.77533764933703142e-01
9.77533764933703142e-01
9.77533764933703142e-01
1.03587404262708427e+00
1.03587404262708427e+00
1.03587404262708427e+00
1.02618742505748362e+00
1.02618742505748362e+00
1.02618742505748362e+00
9.75140461645904399e-01
9.75140461645904399e-01
9.75140461645904399e-01
1.03532210902326871e+00
1.03532210902326871e+00
1.03532210902326871e+00
9.69217488686988204e-01
9.69217488686988204e-01
9.69217488686988204e-01
9.30339964160265653e-01
9.30339964160265653e-01
9.30339964160265653e-01
9.35423551474842241e-01
9.35423551474842241e-01
9.35423551474842241e-01
1.04906880343430897e+00
1.04906880343430897e+00
1.04906880343430897e+00
9.57713419603388183e-01
9.57713419603388183e-01
9.57713419603388183e-01
1.03444907498197547e+00
1.03444907498197547e+00
1.03444907498197547e+00
9.14964095415564782e-01
9.14964095415564782e-01
9.14964095415564782e-01


        </DataArray>

      </PointData>

      <CellData/>

      <Points>

        <DataArray type="Float64" NumberOfComponents="3" format="ascii">

0.1082531754723032 0.6875000000007816 0 0.23533274979922561 0.77093399389351469 0 0.10409951422139101 0.81206782209691231 0 0.23533274979922561 0.77093399389351469 0 0.1082531754723032 0.6875000000007816 0 0.21809253452218619 0.65480892822618109 0 0.24418615484441761 0.35773612382016978 0 0.121259140952891 0.43112117036853742 0 0.1082531754734323 0.31250000000117473 0 0.75000000000057243 0.35048094716480432 0 0.88173731489851925 0.33077402607778361 0 0.81242894672211508 0.45500248311961472 0 0.121259140952891 0.43112117036853742 0 0.24418615484441761 0.35773612382016978 0 0.22257735880419699 0.47344721641341742 0 0.81242894672211508 0.45500248311961472 0 0.88173731489851925 0.33077402607778361 0 0.915464298762109 0.43749999999886913 0 0 0.62500000000121547 0 0 0.50000000000206146 0 0.1371230538040123 0.56179824718362847 0 0.82212678063041267 0.67678595194836966 0 0.89051480781310632 0.79665793440246835 0 0.76243180583607129 0.78687675331113149 0 0.76243180583607129 0.78687675331113149 0 0.69010814643829166 0.89298495739101336 0 0.62844955668446423 0.7850749770380413 0 0.89051480781310632 0.79665793440246835 0 0.82212678063041267 0.67678595194836966 0 0.92266244547590082 0.68749999999917555 0 0 0.50000000000206146 0 0.121259140952891 0.43112117036853742 0 0.1371230538040123 0.56179824718362847 0 0.1082531754723032 0.6875000000007816 0 0 0.62500000000121547 0 0.1371230538040123 0.56179824718362847 0 0.75000000000032374 0.56698729811007709 0 0.88927506082488361 0.56409486310635837 0 0.82212678063041267 0.67678595194836966 0 0.81242894672211508 0.45500248311961472 0 0.88927506082488361 0.56409486310635837 0 0.75000000000032374 0.56698729811007709 0 0.69851598570178741 0.68211701800612057 0 0.56496004948275869 0.67675037307860475 0 0.62752533658682441 0.56838075195614346 0 0.69851598570178741 0.68211701800612057 0 0.76243180583607129 0.78687675331113149 0 0.62844955668446423 0.7850749770380413 0 0.23533274979922561 0.77093399389351469 0 0.18802967116092181 0.89415349436770275 0 0.10409951422139101 0.81206782209691231 0 0.121259140952891 0.43112117036853742 0 0.22257735880419699 0.47344721641341742 0 0.1371230538040123 0.56179824718362847 0 0.75000000000032374 0.56698729811007709 0 0.69851598570178741 0.68211701800612057 0 0.62752533658682441 0.56838075195614346 0 0.56496004948275869 0.67675037307860475 0 0.69851598570178741 0.68211701800612057 0 0.62844955668446423 0.7850749770380413 0 0.1371230538040123 0.56179824718362847 0 0.22257735880419699 0.47344721641341742 0 0.26982811998763367 0.56544650815856912 0 0.21809253452218619 0.65480892822618109 0 0.1371230538040123 0.56179824718362847 0 0.26982811998763367 0.56544650815856912 0 0.24418615484441761 0.35773612382016978 0 0.1082531754734323 0.31250000000117473 0 0.20767261601459541 0.25628918442207171 0 0.88173731489851925 0.33077402607778361 0 0.75000000000057243 0.35048094716480432 0 0.79891106056046712 0.25007334953587562 0 0.75000000000032374 0.56698729811007709 0 0.82212678063041267 0.67678595194836966 0 0.69851598570178741 0.68211701800612057 0 0.81249999999950517 0.1082531754733404 0 0.89658421694297741 0.1933620068391701 0 0.79891106056046712 0.25007334953587562 0 0.81249999999950517 0.1082531754733404 0 0.79891106056046712 0.25007334953587562 0 0.73983916756365475 0.17530677078674589 0 0.23533274979922561 0.77093399389351469 0 0.21809253452218619 0.65480892822618109 0 0.32607333794064219 0.67760114260606152 0 0.1082531754723032 0.6875000000007816 0 0.1371230538040123 0.56179824718362847 0 0.21809253452218619 0.65480892822618109 0 0.69851598570178741 0.68211701800612057 0 0.82212678063041267 0.67678595194836966 0 0.76243180583607129 0.78687675331113149 0 0.69010814643829166 0.89298495739101336 0 0.76243180583607129 0.78687675331113149 0 0.80886664387416207 0.89717308644237903 0 0.43750000000181222 0.89174682452709564 0 0.31258827852827581 0.89214793616708443 0 0.37776173212361452 0.78514649317305008 0 0.43750000000181222 0.89174682452709564 0 0.37500000000156292 1 0 0.31258827852827581 0.89214793616708443 0 0.121259140952891 0.43112117036853742 0 0 0.37500000000156292 0 0.1082531754734323 0.31250000000117473 0 0.50000000000206146 1 0 0.37500000000156292 1 0 0.43750000000181222 0.89174682452709564 0 0.31258827852827581 0.89214793616708443 0 0.18802967116092181 0.89415349436770275 0 0.23533274979922561 0.77093399389351469 0 0 0.50000000000206146 0 0 0.37500000000156292 0 0.121259140952891 0.43112117036853742 0 0.62844955668446423 0.7850749770380413 0 0.69010814643829166 0.89298495739101336 0 0.56327595140699671 0.89211526915426331 0 0.69010814643829166 0.89298495739101336 0 0.62500000000121547 1 0 0.56327595140699671 0.89211526915426331 0 0.25000000000104189 1 0 0.18802967116092181 0.89415349436770275 0 0.31258827852827581 0.89214793616708443 0 0.50000000000206146 1 0 0.43750000000181222 0.89174682452709564 0 0.56327595140699671 0.89211526915426331 0 0.56249999999885147 0.1082531754730395 0 0.62499999999901068 0 0 0.68749999999926592 0.1082531754732875 0 1 0.49999999999869221 0 1 0.62499999999901068 0 0.88927506082488361 0.56409486310635837 0 0 0.25000000000104189 0 0.12076953676380731 0.18690935762408761 0 0.1082531754734323 0.31250000000117473 0 0.49999999999869221 0 0 0.62499999999901068 0 0 0.56249999999885147 0.1082531754730395 0 0.62500000000121547 1 0 0.50000000000206146 1 0 0.56327595140699671 0.89211526915426331 0 0.37500000000156292 1 0 0.25000000000104189 1 0 0.31258827852827581 0.89214793616708443 0 0.31281086598417152 0.10449318608631281 0 0.37499999999904599 0 0 0.43749999999910871 0.1082531754729984 0 0.43750000000181222 0.89174682452709564 0 0.37776173212361452 0.78514649317305008 0 0.50046028868828263 0.78376912307435687 0 0 0.37500000000156292 0 0 0.25000000000104189 0 0.1082531754734323 0.31250000000117473 0 0.49999999999869221 0 0 0.56249999999885147 0.1082531754730395 0 0.43749999999910871 0.1082531754729984 0 0.43750000000181222 0.89174682452709564 0 0.50046028868828263 0.78376912307435687 0 0.56327595140699671 0.89211526915426331 0 0.74999999999934042 0 0 0.81249999999950517 0.1082531754733404 0 0.68749999999926592 0.1082531754732875 0 0.37499999999904599 0 0 0.49999999999869221 0 0 0.43749999999910871 0.1082531754729984 0 0.25000000000104189 1 0 0.12500000000052089 1 0 0.18802967116092181 0.89415349436770275 0 0.50046028868828263 0.78376912307435687 0 0.62844955668446423 0.7850749770380413 0 0.56327595140699671 0.89211526915426331 0 0.37776173212361452 0.78514649317305008 0 0.31258827852827581 0.89214793616708443 0 0.23533274979922561 0.77093399389351469 0 0.62499999999901068 0 0 0.74999999999934042 0 0 0.68749999999926592 0.1082531754732875 0 1 0.74999999999934042 0 1 0.87499999999967015 0 0.89051480781310632 0.79665793440246835 0 0 0.25000000000104189 0 0 0.12500000000052089 0 0.12076953676380731 0.18690935762408761 0 0.74999999999934042 0 0 0.87499999999967015 0 0 0.81249999999950517 0.1082531754733404 0 0.24999999999941069 0 0 0.37499999999904599 0 0 0.31281086598417152 0.10449318608631281 0 0.50046028868828263 0.78376912307435687 0 0.37776173212361452 0.78514649317305008 0 0.44078402250377968 0.67714785211715212 0 0.68768773896438518 0.4586835206367198 0 0.75000000000032374 0.56698729811007709 0 0.62752533658682441 0.56838075195614346 0 0.31411863959822661 0.24965544328045999 0 0.37953773393552892 0.34812185820708452 0 0.24418615484441761 0.35773612382016978 0 0.68768773896438518 0.4586835206367198 0 0.81242894672211508 0.45500248311961472 0 0.75000000000032374 0.56698729811007709 0 1 0.24999999999941069 0 1 0.37499999999904599 0 0.88173731489851925 0.33077402607778361 0 0 0.75000000000034761 0 0 0.62500000000121547 0 0.1082531754723032 0.6875000000007816 0 0.50048844149666749 0.56727788297625459 0 0.44078402250377968 0.67714785211715212 0 0.38694285807596462 0.5672991787102919 0 0.50108503093851109 0.35012252869403671 0 0.44301038174930041 0.45684931552185398 0 0.37953773393552892 0.34812185820708452 0 0.50046028868828263 0.78376912307435687 0 0.56496004948275869 0.67675037307860475 0 0.62844955668446423 0.7850749770380413 0 0.68768773896438518 0.4586835206367198 0 0.75000000000057243 0.35048094716480432 0 0.81242894672211508 0.45500248311961472 0 0.56349980387502452 0.45846841892908402 0 0.62512662990940393 0.35044303886909911 0 0.68768773896438518 0.4586835206367198 0 0.50048844149666749 0.56727788297625459 0 0.38694285807596462 0.5672991787102919 0 0.44301038174930041 0.45684931552185398 0 0.50046028868828263 0.78376912307435687 0 0.44078402250377968 0.67714785211715212 0 0.56496004948275869 0.67675037307860475 0 0.50108503093851109 0.35012252869403671 0 0.37953773393552892 0.34812185820708452 0 0.43750000000200551 0.24222777169198509 0 0.75000000000034761 1 0 0.62500000000121547 1 0 0.69010814643829166 0.89298495739101336 0 0.68768773896438518 0.4586835206367198 0 0.62512662990940393 0.35044303886909911 0 0.75000000000057243 0.35048094716480432 0 0.56496004948275869 0.67675037307860475 0 0.44078402250377968 0.67714785211715212 0 0.50048844149666749 0.56727788297625459 0 0.56349980387502452 0.45846841892908402 0 0.44301038174930041 0.45684931552185398 0 0.50108503093851109 0.35012252869403671 0 0.50048844149666749 0.56727788297625459 0 0.44301038174930041 0.45684931552185398 0 0.56349980387502452 0.45846841892908402 0 0.56349980387502452 0.45846841892908402 0 0.50108503093851109 0.35012252869403671 0 0.62512662990940393 0.35044303886909911 0 0.43750000000200551 0.24222777169198509 0 0.37953773393552892 0.34812185820708452 0 0.31411863959822661 0.24965544328045999 0 0.56496004948275869 0.67675037307860475 0 0.50048844149666749 0.56727788297625459 0 0.62752533658682441 0.56838075195614346 0 0.56349980387502452 0.45846841892908402 0 0.68768773896438518 0.4586835206367198 0 0.62752533658682441 0.56838075195614346 0 0.50048844149666749 0.56727788297625459 0 0.56349980387502452 0.45846841892908402 0 0.62752533658682441 0.56838075195614346 0 0.75000000000057243 0.35048094716480432 0 0.62512662990940393 0.35044303886909911 0 0.68668231842078242 0.24762892664808989 0 0.50108503093851109 0.35012252869403671 0 0.43750000000200551 0.24222777169198509 0 0.56250000000143974 0.2422277716920859 0 0.62512662990940393 0.35044303886909911 0 0.50108503093851109 0.35012252869403671 0 0.56250000000143974 0.2422277716920859 0 0.68668231842078242 0.24762892664808989 0 0.62512662990940393 0.35044303886909911 0 0.56250000000143974 0.2422277716920859 0 0.22257735880419699 0.47344721641341742 0 0.24418615484441761 0.35773612382016978 0 0.32815957677880009 0.4577243358118348 0 0.12076953676380731 0.18690935762408761 0 0.19185372118111221 0.092925648673580788 0 0.25103557339309318 0.17464499738446629 0 0.20767261601459541 0.25628918442207171 0 0.12076953676380731 0.18690935762408761 0 0.25103557339309318 0.17464499738446629 0 0 0.87499999999950151 0 0 0.75000000000034761 0 0.10409951422139101 0.81206782209691231 0 0.1249999999997731 0 0 0.24999999999941069 0 0 0.19185372118111221 0.092925648673580788 0 1 0.1249999999997731 0 1 0.24999999999941069 0 0.89658421694297741 0.1933620068391701 0 0.88927506082488361 0.56409486310635837 0 0.81242894672211508 0.45500248311961472 0 0.915464298762109 0.43749999999886913 0 0.87499999999950151 1 0 0.75000000000034761 1 0 0.80886664387416207 0.89717308644237903 0 0.75000000000034761 1 0 0.69010814643829166 0.89298495739101336 0 0.80886664387416207 0.89717308644237903 0 0.82212678063041267 0.67678595194836966 0 0.88927506082488361 0.56409486310635837 0 0.92266244547590082 0.68749999999917555 0 0 0.75000000000034761 0 0.1082531754723032 0.6875000000007816 0 0.10409951422139101 0.81206782209691231 0 0.24999999999941069 0 0 0.31281086598417152 0.10449318608631281 0 0.19185372118111221 0.092925648673580788 0 1 0.24999999999941069 0 0.88173731489851925 0.33077402607778361 0 0.89658421694297741 0.1933620068391701 0 0.32815957677880009 0.4577243358118348 0 0.38694285807596462 0.5672991787102919 0 0.26982811998763367 0.56544650815856912 0 0.76243180583607129 0.78687675331113149 0 0.89051480781310632 0.79665793440246835 0 0.80886664387416207 0.89717308644237903 0 0.38694285807596462 0.5672991787102919 0 0.44078402250377968 0.67714785211715212 0 0.32607333794064219 0.67760114260606152 0 0.37776173212361452 0.78514649317305008 0 0.23533274979922561 0.77093399389351469 0 0.32607333794064219 0.67760114260606152 0 1 0.49999999999869221 0 0.88927506082488361 0.56409486310635837 0 0.915464298762109 0.43749999999886913 0 0.88173731489851925 0.33077402607778361 0 1 0.37499999999904599 0 0.915464298762109 0.43749999999886913 0 0.24418615484441761 0.35773612382016978 0 0.37953773393552892 0.34812185820708452 0 0.32815957677880009 0.4577243358118348 0 0.44301038174930041 0.45684931552185398 0 0.38694285807596462 0.5672991787102919 0 0.32815957677880009 0.4577243358118348 0 0.88927506082488361 0.56409486310635837 0 1 0.62499999999901068 0 0.92266244547590082 0.68749999999917555 0 1 0.74999999999934042 0 0.89051480781310632 0.79665793440246835 0 0.92266244547590082 0.68749999999917555 0 0 1 0 0 0.87499999999950151 0 0.091506350946494744 0.90849364905351082 0 1 1 0 0.87499999999950151 1 0 0.90849364905363228 0.90849364905367769 0 0 0 0 0.1249999999997731 0 0 0.091506350946417708 0.091506350946618076 0 0 0.12500000000052089 0 0 0 0 0.091506350946417708 0.091506350946618076 0 1 0 0 1 0.1249999999997731 0 0.90849364905355434 0.091506350946296292 0 0.87499999999967015 0 0 1 0 0 0.90849364905355434 0.091506350946296292 0 0.12500000000052089 1 0 0 1 0 0.091506350946494744 0.90849364905351082 0 1 0.87499999999967015 0 1 1 0 0.90849364905363228 0.90849364905367769 0 0.38694285807596462 0.5672991787102919 0 0.32607333794064219 0.67760114260606152 0 0.26982811998763367 0.56544650815856912 0 0.31411863959822661 0.24965544328045999 0 0.24418615484441761 0.35773612382016978 0 0.20767261601459541 0.25628918442207171 0 0.1082531754734323 0.31250000000117473 0 0.12076953676380731 0.18690935762408761 0 0.20767261601459541 0.25628918442207171 0 0.75000000000057243 0.35048094716480432 0 0.68668231842078242 0.24762892664808989 0 0.79891106056046712 0.25007334953587562 0 0.22257735880419699 0.47344721641341742 0 0.32815957677880009 0.4577243358118348 0 0.26982811998763367 0.56544650815856912 0 0.44078402250377968 0.67714785211715212 0 0.37776173212361452 0.78514649317305008 0 0.32607333794064219 0.67760114260606152 0 0.89658421694297741 0.1933620068391701 0 0.88173731489851925 0.33077402607778361 0 0.79891106056046712 0.25007334953587562 0 1 0.37499999999904599 0 1 0.49999999999869221 0 0.915464298762109 0.43749999999886913 0 0.37953773393552892 0.34812185820708452 0 0.44301038174930041 0.45684931552185398 0 0.32815957677880009 0.4577243358118348 0 0.32607333794064219 0.67760114260606152 0 0.21809253452218619 0.65480892822618109 0 0.26982811998763367 0.56544650815856912 0 1 0.1249999999997731 0 0.89658421694297741 0.1933620068391701 0 0.90849364905355434 0.091506350946296292 0 0 0.87499999999950151 0 0.10409951422139101 0.81206782209691231 0 0.091506350946494744 0.90849364905351082 0 0.1249999999997731 0 0 0.19185372118111221 0.092925648673580788 0 0.091506350946417708 0.091506350946618076 0 1 0.62499999999901068 0 1 0.74999999999934042 0 0.92266244547590082 0.68749999999917555 0 0.18802967116092181 0.89415349436770275 0 0.12500000000052089 1 0 0.091506350946494744 0.90849364905351082 0 0.89051480781310632 0.79665793440246835 0 1 0.87499999999967015 0 0.90849364905363228 0.90849364905367769 0 0.12076953676380731 0.18690935762408761 0 0 0.12500000000052089 0 0.091506350946417708 0.091506350946618076 0 0.81249999999950517 0.1082531754733404 0 0.87499999999967015 0 0 0.90849364905355434 0.091506350946296292 0 0.87499999999950151 1 0 0.80886664387416207 0.89717308644237903 0 0.90849364905363228 0.90849364905367769 0 0.68668231842078242 0.24762892664808989 0 0.62499999999892575 0.17524047358135519 0 0.73983916756365475 0.17530677078674589 0 0.31281086598417152 0.10449318608631281 0 0.43749999999910871 0.1082531754729984 0 0.37500000000232431 0.17524047358384309 0 0.62499999999892575 0.17524047358135519 0 0.56250000000143974 0.2422277716920859 0 0.49999999999934441 0.1752404735815076 0 0.56249999999885147 0.1082531754730395 0 0.68749999999926592 0.1082531754732875 0 0.62499999999892575 0.17524047358135519 0 0.56249999999885147 0.1082531754730395 0 0.62499999999892575 0.17524047358135519 0 0.49999999999934441 0.1752404735815076 0 0.56250000000143974 0.2422277716920859 0 0.43750000000200551 0.24222777169198509 0 0.49999999999934441 0.1752404735815076 0 0.43749999999910871 0.1082531754729984 0 0.56249999999885147 0.1082531754730395 0 0.49999999999934441 0.1752404735815076 0 0.68668231842078242 0.24762892664808989 0 0.56250000000143974 0.2422277716920859 0 0.62499999999892575 0.17524047358135519 0 0.43750000000200551 0.24222777169198509 0 0.31411863959822661 0.24965544328045999 0 0.37500000000232431 0.17524047358384309 0 0.49999999999934441 0.1752404735815076 0 0.43750000000200551 0.24222777169198509 0 0.37500000000232431 0.17524047358384309 0 0.43749999999910871 0.1082531754729984 0 0.49999999999934441 0.1752404735815076 0 0.37500000000232431 0.17524047358384309 0 0.62499999999892575 0.17524047358135519 0 0.68749999999926592 0.1082531754732875 0 0.73983916756365475 0.17530677078674589 0 0.68749999999926592 0.1082531754732875 0 0.81249999999950517 0.1082531754733404 0 0.73983916756365475 0.17530677078674589 0 0.10409951422139101 0.81206782209691231 0 0.18802967116092181 0.89415349436770275 0 0.091506350946494744 0.90849364905351082 0 0.89658421694297741 0.1933620068391701 0 0.81249999999950517 0.1082531754733404 0 0.90849364905355434 0.091506350946296292 0 0.19185372118111221 0.092925648673580788 0 0.12076953676380731 0.18690935762408761 0 0.091506350946417708 0.091506350946618076 0 0.37500000000232431 0.17524047358384309 0 0.31411863959822661 0.24965544328045999 0 0.25103557339309318 0.17464499738446629 0 0.31281086598417152 0.10449318608631281 0 0.37500000000232431 0.17524047358384309 0 0.25103557339309318 0.17464499738446629 0 0.80886664387416207 0.89717308644237903 0 0.89051480781310632 0.79665793440246835 0 0.90849364905363228 0.90849364905367769 0 0.19185372118111221 0.092925648673580788 0 0.31281086598417152 0.10449318608631281 0 0.25103557339309318 0.17464499738446629 0 0.79891106056046712 0.25007334953587562 0 0.68668231842078242 0.24762892664808989 0 0.73983916756365475 0.17530677078674589 0 0.31411863959822661 0.24965544328045999 0 0.20767261601459541 0.25628918442207171 0 0.25103557339309318 0.17464499738446629 0 

        </DataArray>

      </Points>

      <Cells>

        <DataArray type="Int32" Name="connectivity" format="ascii">

0 1 2 3 4 5 6 7 8 9 10 11 12 13 14 15 16 17 18 19 20 21 22 23 24 25 26 27 28 29 30 31 32 33 34 35 36 37 38 39 40 41 42 43 44 45 46 47 48 49 50 51 52 53 54 55 56 57 58 59 60 61 62 63 64 65 66 67 68 69 70 71 72 73 74 75 76 77 78 79 80 81 82 83 84 85 86 87 88 89 90 91 92 93 94 95 96 97 98 99 100 101 102 103 104 105 106 107 108 109 110 111 112 113 114 115 116 117 118 119 120 121 122 123 124 125 126 127 128 129 130 131 132 133 134 135 136 137 138 139 140 141 142 143 144 145 146 147 148 149 150 151 152 153 154 155 156 157 158 159 160 161 162 163 164 165 166 167 168 169 170 171 172 173 174 175 176 177 178 179 180 181 182 183 184 185 186 187 188 189 190 191 192 193 194 195 196 197 198 199 200 201 202 203 204 205 206 207 208 209 210 211 212 213 214 215 216 217 218 219 220 221 222 223 224 225 226 227 228 229 230 231 232 233 234 235 236 237 238 239 240 241 242 243 244 245 246 247 248 249 250 251 252 253 254 255 256 257 258 259 260 261 262 263 264 265 266 267 268 269 270 271 272 273 274 275 276 277 278 279 280 281 282 283 284 285 286 287 288 289 290 291 292 293 294 295 296 297 298 299 300 301 302 303 304 305 306 307 308 309 310 311 312 313 314 315 316 317 318 319 320 321 322 323 324 325 326 327 328 329 330 331 332 333 334 335 336 337 338 339 340 341 342 343 344 345 346 347 348 349 350 351 352 353 354 355 356 357 358 359 360 361 362 363 364 365 366 367 368 369 370 371 372 373 374 375 376 377 378 379 380 381 382 383 384 385 386 387 388 389 390 391 392 393 394 395 396 397 398 399 400 401 402 403 404 405 406 407 408 409 410 411 412 413 414 415 416 417 418 419 420 421 422 423 424 425 426 427 428 429 430 431 432 433 434 435 436 437 438 439 440 441 442 443 444 445 446 447 448 449 450 451 452 453 454 455 456 457 458 459 460 461 462 463 464 465 466 467 468 469 470 471 472 473 474 475 476 477 478 479 480 481 482 483 484 485 

        </DataArray>

        <DataArray type="Int32" Name="offsets" format="ascii">

3 6 9 12 15 18 21 24 27 30 33 36 39 42 45 48 51 54 57 60 63 66 69 72 75 78 81 84 87 90 93 96 99 102 105 108 111 114 117 120 123 126 129 132 135 138 141 144 147 150 153 156 159 162 165 168 171 174 177 180 183 186 189 192 195 198 201 204 207 210 213 216 219 222 225 228 231 234 237 240 243 246 249 252 255 258 261 264 267 270 273 276 279 282 285 288 291 294 297 300 303 306 309 312 315 318 321 324 327 330 333 336 339 342 345 348 351 354 357 360 363 366 369 372 375 378 381 384 387 390 393 396 399 402 405 408 411 414 417 420 423 426 429 432 435 438 441 444 447 450 453 456 459 462 465 468 471 474 477 480 483 486 

        </DataArray>

        <DataArray type="Int32" Name="types" format="ascii">

5 5 5 5 5 5 5 5 5 5 5 5 5 5 5 5 5 5 5 5 5 5 5 5 5 5 5 5 5 5 5 5 5 5 5 5 5 5 5 5 5 5 5 5 5 5 5 5 5 5 5 5 5 5 5 5 5 5 5 5 5 5 5 5 5 5 5 5 5 5 5 5 5 5 5 5 5 5 5 5 5 5 5 5 5 5 5 5 5 5 5 5 5 5 5 5 5 5 5 5 5 5 5 5 5 5 5 5 5 5 5 5 5 5 5 5 5 5 5 5 5 5 5 5 5 5 5 5 5 5 5 5 5 5 5 5 5 5 5 5 5 5 5 5 5 5 5 5 5 5 5 5 5 5 5 5 5 5 5 5 5 5 

        </DataArray>

      </Cells>

    </Piece>

  </UnstructuredGrid>

</VTKFile>

