<?xml version="1.0"?>

<VTKFile type="UnstructuredGrid" version="0.1">

  <UnstructuredGrid>

    <Piece NumberOfPoints="486" NumberOfCells="162">

      <PointData>

        <DataArray type="Float64" Name="K" format="ascii">

9.79943339490603860e-01
9.79943339490603860e-01
9.79943339490603860e-01
9.73827127306694185e-01
9.73827127306694185e-01
9.73827127306694185e-01
9.23363159614312590e-01
9.23363159614312590e-01
9.23363159614312590e-01
1.02441663805681604e+00
1.02441663805681604e+00
1.02441663805681604e+00
8.99232816193312079e-01
8.99232816193312079e-01
8.99232816193312079e-01
1.02659767831316162e+00
1.02659767831316162e+00
1.02659767831316162e+00
9.20676003156936984e-01
9.20676003156936984e-01
9.20676003156936984e-01
1.03354355795874175e+00
1.03354355795874175e+00
1.03354355795874175e+00
1.06435760229735754e+00
1.06435760229735754e+00
1.06435760229735754e+00
1.03142101475732928e+00
1.03142101475732928e+00
1.03142101475732928e+00
9.06001026463223669e-01
9.06001026463223669e-01
9.06001026463223669e-01
9.15419390891601847e-01
9.15419390891601847e-01
9.15419390891601847e-01
1.00102846539861878e+00
1.00102846539861878e+00
1.00102846539861878e+00
1.00226963696437776e+00
1.00226963696437776e+00
1.00226963696437776e+00
1.07923793674694180e+00
1.07923793674694180e+00
1.07923793674694180e+00
1.06077813681708277e+00
1.06077813681708277e+00
1.06077813681708277e+00
9.94161372968164980e-01
9.94161372968164980e-01
9.94161372968164980e-01
8.93843400866988103e-01
8.93843400866988103e-01
8.93843400866988103e-01
1.05557268628246237e+00
1.05557268628246237e+00
1.05557268628246237e+00
1.08378259284100764e+00
1.08378259284100764e+00
1.08378259284100764e+00
9.15767872740222311e-01
9.15767872740222311e-01
9.15767872740222311e-01
9.38365371310536101e-01
9.38365371310536101e-01
9.38365371310536101e-01
9.43932877041139706e-01
9.43932877041139706e-01
9.43932877041139706e-01
1.02765929465349415e+00
1.02765929465349415e+00
1.02765929465349415e+00
1.02285079602489204e+00
1.02285079602489204e+00
1.02285079602489204e+00
1.03338793201771773e+00
1.03338793201771773e+00
1.03338793201771773e+00
9.96849463065002550e-01
9.96849463065002550e-01
9.96849463065002550e-01
9.90326869263554510e-01
9.90326869263554510e-01
9.90326869263554510e-01
9.33977173317015796e-01
9.33977173317015796e-01
9.33977173317015796e-01
1.03155200674345582e+00
1.03155200674345582e+00
1.03155200674345582e+00
1.06826759010883321e+00
1.06826759010883321e+00
1.06826759010883321e+00
1.06004587126555694e+00
1.06004587126555694e+00
1.06004587126555694e+00
1.05916922257372637e+00
1.05916922257372637e+00
1.05916922257372637e+00
9.60982298954555558e-01
9.60982298954555558e-01
9.60982298954555558e-01
1.03377517491160686e+00
1.03377517491160686e+00
1.03377517491160686e+00
1.01094361696634705e+00
1.01094361696634705e+00
1.01094361696634705e+00
9.61439737792910254e-01
9.61439737792910254e-01
9.61439737792910254e-01
1.05855885150710449e+00
1.05855885150710449e+00
1.05855885150710449e+00
1.04550016562857717e+00
1.04550016562857717e+00
1.04550016562857717e+00
1.01302984466994705e+00
1.01302984466994705e+00
1.01302984466994705e+00
1.02656557277263150e+00
1.02656557277263150e+00
1.02656557277263150e+00
1.01634446132598510e+00
1.01634446132598510e+00
1.01634446132598510e+00
1.02191513518873789e+00
1.02191513518873789e+00
1.02191513518873789e+00
1.01160683727890865e+00
1.01160683727890865e+00
1.01160683727890865e+00
1.03438665306806543e+00
1.03438665306806543e+00
1.03438665306806543e+00
1.01213719732996399e+00
1.01213719732996399e+00
1.01213719732996399e+00
1.04232769154105576e+00
1.04232769154105576e+00
1.04232769154105576e+00
9.80006475691367673e-01
9.80006475691367673e-01
9.80006475691367673e-01
1.06114599076854743e+00
1.06114599076854743e+00
1.06114599076854743e+00
1.00771355987042543e+00
1.00771355987042543e+00
1.00771355987042543e+00
1.02500207661909326e+00
1.02500207661909326e+00
1.02500207661909326e+00
1.05497919677332064e+00
1.05497919677332064e+00
1.05497919677332064e+00
9.80134150313735630e-01
9.80134150313735630e-01
9.80134150313735630e-01
1.00059538328281561e+00
1.00059538328281561e+00
1.00059538328281561e+00
9.89540757625983924e-01
9.89540757625983924e-01
9.89540757625983924e-01
1.06528960315960486e+00
1.06528960315960486e+00
1.06528960315960486e+00
1.03154147923842321e+00
1.03154147923842321e+00
1.03154147923842321e+00
9.95168860508915620e-01
9.95168860508915620e-01
9.95168860508915620e-01
1.05133603163565215e+00
1.05133603163565215e+00
1.05133603163565215e+00
1.01753500726311508e+00
1.01753500726311508e+00
1.01753500726311508e+00
9.91764290108973379e-01
9.91764290108973379e-01
9.91764290108973379e-01
1.00295524461840690e+00
1.00295524461840690e+00
1.00295524461840690e+00
1.04087015076256240e+00
1.04087015076256240e+00
1.04087015076256240e+00
1.04148091308512192e+00
1.04148091308512192e+00
1.04148091308512192e+00
9.01298081588636113e-01
9.01298081588636113e-01
9.01298081588636113e-01
1.01894505452939410e+00
1.01894505452939410e+00
1.01894505452939410e+00
1.04184116855271491e+00
1.04184116855271491e+00
1.04184116855271491e+00
9.40060771440803467e-01
9.40060771440803467e-01
9.40060771440803467e-01
9.51362493106595708e-01
9.51362493106595708e-01
9.51362493106595708e-01
8.92614186356240347e-01
8.92614186356240347e-01
8.92614186356240347e-01
1.08035926438435670e+00
1.08035926438435670e+00
1.08035926438435670e+00
1.01251412590909107e+00
1.01251412590909107e+00
1.01251412590909107e+00
9.80102003367344099e-01
9.80102003367344099e-01
9.80102003367344099e-01
9.09847089823933697e-01
9.09847089823933697e-01
9.09847089823933697e-01
1.05218539851467807e+00
1.05218539851467807e+00
1.05218539851467807e+00
9.14466840394480229e-01
9.14466840394480229e-01
9.14466840394480229e-01
1.07644586065409276e+00
1.07644586065409276e+00
1.07644586065409276e+00
9.89447231651410020e-01
9.89447231651410020e-01
9.89447231651410020e-01
1.01429392879510960e+00
1.01429392879510960e+00
1.01429392879510960e+00
9.08376062559618447e-01
9.08376062559618447e-01
9.08376062559618447e-01
9.25299808898086940e-01
9.25299808898086940e-01
9.25299808898086940e-01
9.37666362349323657e-01
9.37666362349323657e-01
9.37666362349323657e-01
9.10608524836697852e-01
9.10608524836697852e-01
9.10608524836697852e-01
1.04145055757743532e+00
1.04145055757743532e+00
1.04145055757743532e+00
1.01749302595830704e+00
1.01749302595830704e+00
1.01749302595830704e+00
9.96870848000776300e-01
9.96870848000776300e-01
9.96870848000776300e-01
9.68581696063521180e-01
9.68581696063521180e-01
9.68581696063521180e-01
9.48955523515826127e-01
9.48955523515826127e-01
9.48955523515826127e-01
9.45045023350761237e-01
9.45045023350761237e-01
9.45045023350761237e-01
9.55954173183048428e-01
9.55954173183048428e-01
9.55954173183048428e-01
9.00852531084767483e-01
9.00852531084767483e-01
9.00852531084767483e-01
1.03033254985257638e+00
1.03033254985257638e+00
1.03033254985257638e+00
1.00225049802594723e+00
1.00225049802594723e+00
1.00225049802594723e+00
9.90113776633393394e-01
9.90113776633393394e-01
9.90113776633393394e-01
1.04632325417977556e+00
1.04632325417977556e+00
1.04632325417977556e+00
1.05024268622338179e+00
1.05024268622338179e+00
1.05024268622338179e+00
1.00957972965037124e+00
1.00957972965037124e+00
1.00957972965037124e+00
1.07670036355097931e+00
1.07670036355097931e+00
1.07670036355097931e+00
1.08368890213764302e+00
1.08368890213764302e+00
1.08368890213764302e+00
1.01409812651349229e+00
1.01409812651349229e+00
1.01409812651349229e+00
9.66572022783152129e-01
9.66572022783152129e-01
9.66572022783152129e-01
1.02691231437136699e+00
1.02691231437136699e+00
1.02691231437136699e+00
1.05927377707298676e+00
1.05927377707298676e+00
1.05927377707298676e+00
9.19688967428994419e-01
9.19688967428994419e-01
9.19688967428994419e-01
1.05467017208900815e+00
1.05467017208900815e+00
1.05467017208900815e+00
9.62490151081511813e-01
9.62490151081511813e-01
9.62490151081511813e-01
1.01144574198363224e+00
1.01144574198363224e+00
1.01144574198363224e+00
1.01810305486401398e+00
1.01810305486401398e+00
1.01810305486401398e+00
1.03455835163929133e+00
1.03455835163929133e+00
1.03455835163929133e+00
8.94104644680773997e-01
8.94104644680773997e-01
8.94104644680773997e-01
8.95229067741049489e-01
8.95229067741049489e-01
8.95229067741049489e-01
1.02547088291142474e+00
1.02547088291142474e+00
1.02547088291142474e+00
1.04336019564215565e+00
1.04336019564215565e+00
1.04336019564215565e+00
1.02524802941965731e+00
1.02524802941965731e+00
1.02524802941965731e+00
1.06364181832672688e+00
1.06364181832672688e+00
1.06364181832672688e+00
1.01793774146712090e+00
1.01793774146712090e+00
1.01793774146712090e+00
1.00951541833470260e+00
1.00951541833470260e+00
1.00951541833470260e+00
1.02426762132783478e+00
1.02426762132783478e+00
1.02426762132783478e+00
1.01081265684323363e+00
1.01081265684323363e+00
1.01081265684323363e+00
1.01765253216949092e+00
1.01765253216949092e+00
1.01765253216949092e+00
1.07174823931390506e+00
1.07174823931390506e+00
1.07174823931390506e+00
9.49618112936380210e-01
9.49618112936380210e-01
9.49618112936380210e-01
9.25948807115229200e-01
9.25948807115229200e-01
9.25948807115229200e-01
9.95032054943705058e-01
9.95032054943705058e-01
9.95032054943705058e-01
9.87347280686054707e-01
9.87347280686054707e-01
9.87347280686054707e-01
9.16181349839756076e-01
9.16181349839756076e-01
9.16181349839756076e-01
1.00613496491423637e+00
1.00613496491423637e+00
1.00613496491423637e+00
1.05206363960725802e+00
1.05206363960725802e+00
1.05206363960725802e+00
1.02398464189951244e+00
1.02398464189951244e+00
1.02398464189951244e+00
8.86753157938414360e-01
8.86753157938414360e-01
8.86753157938414360e-01
9.67229334189606216e-01
9.67229334189606216e-01
9.67229334189606216e-01
1.05079329824719636e+00
1.05079329824719636e+00
1.05079329824719636e+00
1.00871254463619353e+00
1.00871254463619353e+00
1.00871254463619353e+00
1.04216678573999211e+00
1.04216678573999211e+00
1.04216678573999211e+00
1.03221259003522303e+00
1.03221259003522303e+00
1.03221259003522303e+00
9.95547184849341904e-01
9.95547184849341904e-01
9.95547184849341904e-01
1.05802905102379152e+00
1.05802905102379152e+00
1.05802905102379152e+00
1.02270228861637880e+00
1.02270228861637880e+00
1.02270228861637880e+00
1.01631903981379068e+00
1.01631903981379068e+00
1.01631903981379068e+00
1.06340317219978653e+00
1.06340317219978653e+00
1.06340317219978653e+00
9.63536954273340740e-01
9.63536954273340740e-01
9.63536954273340740e-01
9.62192538984045664e-01
9.62192538984045664e-01
9.62192538984045664e-01
9.95147463215855788e-01
9.95147463215855788e-01
9.95147463215855788e-01
1.00130318961524400e+00
1.00130318961524400e+00
1.00130318961524400e+00
1.01500557502670219e+00
1.01500557502670219e+00
1.01500557502670219e+00
9.79199263830835775e-01
9.79199263830835775e-01
9.79199263830835775e-01
1.01551455746860175e+00
1.01551455746860175e+00
1.01551455746860175e+00
9.69438172134544529e-01
9.69438172134544529e-01
9.69438172134544529e-01
9.29350229170399111e-01
9.29350229170399111e-01
9.29350229170399111e-01
9.62328150740930810e-01
9.62328150740930810e-01
9.62328150740930810e-01
9.78070809019012444e-01
9.78070809019012444e-01
9.78070809019012444e-01
9.71831206237185774e-01
9.71831206237185774e-01
9.71831206237185774e-01
9.76147304780963787e-01
9.76147304780963787e-01
9.76147304780963787e-01
9.98207067663482328e-01
9.98207067663482328e-01
9.98207067663482328e-01
1.04037234958179514e+00
1.04037234958179514e+00
1.04037234958179514e+00
1.04127819170939184e+00
1.04127819170939184e+00
1.04127819170939184e+00
9.41283944787018378e-01
9.41283944787018378e-01
9.41283944787018378e-01
9.62768115800961222e-01
9.62768115800961222e-01
9.62768115800961222e-01
1.05907721976506508e+00
1.05907721976506508e+00
1.05907721976506508e+00
1.00918344499361323e+00
1.00918344499361323e+00
1.00918344499361323e+00
9.77298341210126709e-01
9.77298341210126709e-01
9.77298341210126709e-01
9.54427966714006648e-01
9.54427966714006648e-01
9.54427966714006648e-01


        </DataArray>

      </PointData>

      <CellData/>

      <Points>

        <DataArray type="Float64" NumberOfComponents="3" format="ascii">

0.1082531754723032 0.6875000000007816 0 0.23533274979922561 0.77093399389351469 0 0.10409951422139101 0.81206782209691231 0 0.23533274979922561 0.77093399389351469 0 0.1082531754723032 0.6875000000007816 0 0.21809253452218619 0.65480892822618109 0 0.24418615484441761 0.35773612382016978 0 0.121259140952891 0.43112117036853742 0 0.1082531754734323 0.31250000000117473 0 0.75000000000057243 0.35048094716480432 0 0.88173731489851925 0.33077402607778361 0 0.81242894672211508 0.45500248311961472 0 0.121259140952891 0.43112117036853742 0 0.24418615484441761 0.35773612382016978 0 0.22257735880419699 0.47344721641341742 0 0.81242894672211508 0.45500248311961472 0 0.88173731489851925 0.33077402607778361 0 0.915464298762109 0.43749999999886913 0 0 0.62500000000121547 0 0 0.50000000000206146 0 0.1371230538040123 0.56179824718362847 0 0.82212678063041267 0.67678595194836966 0 0.89051480781310632 0.79665793440246835 0 0.76243180583607129 0.78687675331113149 0 0.76243180583607129 0.78687675331113149 0 0.69010814643829166 0.89298495739101336 0 0.62844955668446423 0.7850749770380413 0 0.89051480781310632 0.79665793440246835 0 0.82212678063041267 0.67678595194836966 0 0.92266244547590082 0.68749999999917555 0 0 0.50000000000206146 0 0.121259140952891 0.43112117036853742 0 0.1371230538040123 0.56179824718362847 0 0.1082531754723032 0.6875000000007816 0 0 0.62500000000121547 0 0.1371230538040123 0.56179824718362847 0 0.75000000000032374 0.56698729811007709 0 0.88927506082488361 0.56409486310635837 0 0.82212678063041267 0.67678595194836966 0 0.81242894672211508 0.45500248311961472 0 0.88927506082488361 0.56409486310635837 0 0.75000000000032374 0.56698729811007709 0 0.69851598570178741 0.68211701800612057 0 0.56496004948275869 0.67675037307860475 0 0.62752533658682441 0.56838075195614346 0 0.69851598570178741 0.68211701800612057 0 0.76243180583607129 0.78687675331113149 0 0.62844955668446423 0.7850749770380413 0 0.23533274979922561 0.77093399389351469 0 0.18802967116092181 0.89415349436770275 0 0.10409951422139101 0.81206782209691231 0 0.121259140952891 0.43112117036853742 0 0.22257735880419699 0.47344721641341742 0 0.1371230538040123 0.56179824718362847 0 0.75000000000032374 0.56698729811007709 0 0.69851598570178741 0.68211701800612057 0 0.62752533658682441 0.56838075195614346 0 0.56496004948275869 0.67675037307860475 0 0.69851598570178741 0.68211701800612057 0 0.62844955668446423 0.7850749770380413 0 0.1371230538040123 0.56179824718362847 0 0.22257735880419699 0.47344721641341742 0 0.26982811998763367 0.56544650815856912 0 0.21809253452218619 0.65480892822618109 0 0.1371230538040123 0.56179824718362847 0 0.26982811998763367 0.56544650815856912 0 0.24418615484441761 0.35773612382016978 0 0.1082531754734323 0.31250000000117473 0 0.20767261601459541 0.25628918442207171 0 0.88173731489851925 0.33077402607778361 0 0.75000000000057243 0.35048094716480432 0 0.79891106056046712 0.25007334953587562 0 0.75000000000032374 0.56698729811007709 0 0.82212678063041267 0.67678595194836966 0 0.69851598570178741 0.68211701800612057 0 0.81249999999950517 0.1082531754733404 0 0.89658421694297741 0.1933620068391701 0 0.79891106056046712 0.25007334953587562 0 0.81249999999950517 0.1082531754733404 0 0.79891106056046712 0.25007334953587562 0 0.73983916756365475 0.17530677078674589 0 0.23533274979922561 0.77093399389351469 0 0.21809253452218619 0.65480892822618109 0 0.32607333794064219 0.67760114260606152 0 0.1082531754723032 0.6875000000007816 0 0.1371230538040123 0.56179824718362847 0 0.21809253452218619 0.65480892822618109 0 0.69851598570178741 0.68211701800612057 0 0.82212678063041267 0.67678595194836966 0 0.76243180583607129 0.78687675331113149 0 0.69010814643829166 0.89298495739101336 0 0.76243180583607129 0.78687675331113149 0 0.80886664387416207 0.89717308644237903 0 0.43750000000181222 0.89174682452709564 0 0.31258827852827581 0.89214793616708443 0 0.37776173212361452 0.78514649317305008 0 0.43750000000181222 0.89174682452709564 0 0.37500000000156292 1 0 0.31258827852827581 0.89214793616708443 0 0.121259140952891 0.43112117036853742 0 0 0.37500000000156292 0 0.1082531754734323 0.31250000000117473 0 0.50000000000206146 1 0 0.37500000000156292 1 0 0.43750000000181222 0.89174682452709564 0 0.31258827852827581 0.89214793616708443 0 0.18802967116092181 0.89415349436770275 0 0.23533274979922561 0.77093399389351469 0 0 0.50000000000206146 0 0 0.37500000000156292 0 0.121259140952891 0.43112117036853742 0 0.62844955668446423 0.7850749770380413 0 0.69010814643829166 0.89298495739101336 0 0.56327595140699671 0.89211526915426331 0 0.69010814643829166 0.89298495739101336 0 0.62500000000121547 1 0 0.56327595140699671 0.89211526915426331 0 0.25000000000104189 1 0 0.18802967116092181 0.89415349436770275 0 0.31258827852827581 0.89214793616708443 0 0.50000000000206146 1 0 0.43750000000181222 0.89174682452709564 0 0.56327595140699671 0.89211526915426331 0 0.56249999999885147 0.1082531754730395 0 0.62499999999901068 0 0 0.68749999999926592 0.1082531754732875 0 1 0.49999999999869221 0 1 0.62499999999901068 0 0.88927506082488361 0.56409486310635837 0 0 0.25000000000104189 0 0.12076953676380731 0.18690935762408761 0 0.1082531754734323 0.31250000000117473 0 0.49999999999869221 0 0 0.62499999999901068 0 0 0.56249999999885147 0.1082531754730395 0 0.62500000000121547 1 0 0.50000000000206146 1 0 0.56327595140699671 0.89211526915426331 0 0.37500000000156292 1 0 0.25000000000104189 1 0 0.31258827852827581 0.89214793616708443 0 0.31281086598417152 0.10449318608631281 0 0.37499999999904599 0 0 0.43749999999910871 0.1082531754729984 0 0.43750000000181222 0.89174682452709564 0 0.37776173212361452 0.78514649317305008 0 0.50046028868828263 0.78376912307435687 0 0 0.37500000000156292 0 0 0.25000000000104189 0 0.1082531754734323 0.31250000000117473 0 0.49999999999869221 0 0 0.56249999999885147 0.1082531754730395 0 0.43749999999910871 0.1082531754729984 0 0.43750000000181222 0.89174682452709564 0 0.50046028868828263 0.78376912307435687 0 0.56327595140699671 0.89211526915426331 0 0.74999999999934042 0 0 0.81249999999950517 0.1082531754733404 0 0.68749999999926592 0.1082531754732875 0 0.37499999999904599 0 0 0.49999999999869221 0 0 0.43749999999910871 0.1082531754729984 0 0.25000000000104189 1 0 0.12500000000052089 1 0 0.18802967116092181 0.89415349436770275 0 0.50046028868828263 0.78376912307435687 0 0.62844955668446423 0.7850749770380413 0 0.56327595140699671 0.89211526915426331 0 0.37776173212361452 0.78514649317305008 0 0.31258827852827581 0.89214793616708443 0 0.23533274979922561 0.77093399389351469 0 0.62499999999901068 0 0 0.74999999999934042 0 0 0.68749999999926592 0.1082531754732875 0 1 0.74999999999934042 0 1 0.87499999999967015 0 0.89051480781310632 0.79665793440246835 0 0 0.25000000000104189 0 0 0.12500000000052089 0 0.12076953676380731 0.18690935762408761 0 0.74999999999934042 0 0 0.87499999999967015 0 0 0.81249999999950517 0.1082531754733404 0 0.24999999999941069 0 0 0.37499999999904599 0 0 0.31281086598417152 0.10449318608631281 0 0.50046028868828263 0.78376912307435687 0 0.37776173212361452 0.78514649317305008 0 0.44078402250377968 0.67714785211715212 0 0.68768773896438518 0.4586835206367198 0 0.75000000000032374 0.56698729811007709 0 0.62752533658682441 0.56838075195614346 0 0.31411863959822661 0.24965544328045999 0 0.37953773393552892 0.34812185820708452 0 0.24418615484441761 0.35773612382016978 0 0.68768773896438518 0.4586835206367198 0 0.81242894672211508 0.45500248311961472 0 0.75000000000032374 0.56698729811007709 0 1 0.24999999999941069 0 1 0.37499999999904599 0 0.88173731489851925 0.33077402607778361 0 0 0.75000000000034761 0 0 0.62500000000121547 0 0.1082531754723032 0.6875000000007816 0 0.50048844149666749 0.56727788297625459 0 0.44078402250377968 0.67714785211715212 0 0.38694285807596462 0.5672991787102919 0 0.50108503093851109 0.35012252869403671 0 0.44301038174930041 0.45684931552185398 0 0.37953773393552892 0.34812185820708452 0 0.50046028868828263 0.78376912307435687 0 0.56496004948275869 0.67675037307860475 0 0.62844955668446423 0.7850749770380413 0 0.68768773896438518 0.4586835206367198 0 0.75000000000057243 0.35048094716480432 0 0.81242894672211508 0.45500248311961472 0 0.56349980387502452 0.45846841892908402 0 0.62512662990940393 0.35044303886909911 0 0.68768773896438518 0.4586835206367198 0 0.50048844149666749 0.56727788297625459 0 0.38694285807596462 0.5672991787102919 0 0.44301038174930041 0.45684931552185398 0 0.50046028868828263 0.78376912307435687 0 0.44078402250377968 0.67714785211715212 0 0.56496004948275869 0.67675037307860475 0 0.50108503093851109 0.35012252869403671 0 0.37953773393552892 0.34812185820708452 0 0.43750000000200551 0.24222777169198509 0 0.75000000000034761 1 0 0.62500000000121547 1 0 0.69010814643829166 0.89298495739101336 0 0.68768773896438518 0.4586835206367198 0 0.62512662990940393 0.35044303886909911 0 0.75000000000057243 0.35048094716480432 0 0.56496004948275869 0.67675037307860475 0 0.44078402250377968 0.67714785211715212 0 0.50048844149666749 0.56727788297625459 0 0.56349980387502452 0.45846841892908402 0 0.44301038174930041 0.45684931552185398 0 0.50108503093851109 0.35012252869403671 0 0.50048844149666749 0.56727788297625459 0 0.44301038174930041 0.45684931552185398 0 0.56349980387502452 0.45846841892908402 0 0.56349980387502452 0.45846841892908402 0 0.50108503093851109 0.35012252869403671 0 0.62512662990940393 0.35044303886909911 0 0.43750000000200551 0.24222777169198509 0 0.37953773393552892 0.34812185820708452 0 0.31411863959822661 0.24965544328045999 0 0.56496004948275869 0.67675037307860475 0 0.50048844149666749 0.56727788297625459 0 0.62752533658682441 0.56838075195614346 0 0.56349980387502452 0.45846841892908402 0 0.68768773896438518 0.4586835206367198 0 0.62752533658682441 0.56838075195614346 0 0.50048844149666749 0.56727788297625459 0 0.56349980387502452 0.45846841892908402 0 0.62752533658682441 0.56838075195614346 0 0.75000000000057243 0.35048094716480432 0 0.62512662990940393 0.35044303886909911 0 0.68668231842078242 0.24762892664808989 0 0.50108503093851109 0.35012252869403671 0 0.43750000000200551 0.24222777169198509 0 0.56250000000143974 0.2422277716920859 0 0.62512662990940393 0.35044303886909911 0 0.50108503093851109 0.35012252869403671 0 0.56250000000143974 0.2422277716920859 0 0.68668231842078242 0.24762892664808989 0 0.62512662990940393 0.35044303886909911 0 0.56250000000143974 0.2422277716920859 0 0.22257735880419699 0.47344721641341742 0 0.24418615484441761 0.35773612382016978 0 0.32815957677880009 0.4577243358118348 0 0.12076953676380731 0.18690935762408761 0 0.19185372118111221 0.092925648673580788 0 0.25103557339309318 0.17464499738446629 0 0.20767261601459541 0.25628918442207171 0 0.12076953676380731 0.18690935762408761 0 0.25103557339309318 0.17464499738446629 0 0 0.87499999999950151 0 0 0.75000000000034761 0 0.10409951422139101 0.81206782209691231 0 0.1249999999997731 0 0 0.24999999999941069 0 0 0.19185372118111221 0.092925648673580788 0 1 0.1249999999997731 0 1 0.24999999999941069 0 0.89658421694297741 0.1933620068391701 0 0.88927506082488361 0.56409486310635837 0 0.81242894672211508 0.45500248311961472 0 0.915464298762109 0.43749999999886913 0 0.87499999999950151 1 0 0.75000000000034761 1 0 0.80886664387416207 0.89717308644237903 0 0.75000000000034761 1 0 0.69010814643829166 0.89298495739101336 0 0.80886664387416207 0.89717308644237903 0 0.82212678063041267 0.67678595194836966 0 0.88927506082488361 0.56409486310635837 0 0.92266244547590082 0.68749999999917555 0 0 0.75000000000034761 0 0.1082531754723032 0.6875000000007816 0 0.10409951422139101 0.81206782209691231 0 0.24999999999941069 0 0 0.31281086598417152 0.10449318608631281 0 0.19185372118111221 0.092925648673580788 0 1 0.24999999999941069 0 0.88173731489851925 0.33077402607778361 0 0.89658421694297741 0.1933620068391701 0 0.32815957677880009 0.4577243358118348 0 0.38694285807596462 0.5672991787102919 0 0.26982811998763367 0.56544650815856912 0 0.76243180583607129 0.78687675331113149 0 0.89051480781310632 0.79665793440246835 0 0.80886664387416207 0.89717308644237903 0 0.38694285807596462 0.5672991787102919 0 0.44078402250377968 0.67714785211715212 0 0.32607333794064219 0.67760114260606152 0 0.37776173212361452 0.78514649317305008 0 0.23533274979922561 0.77093399389351469 0 0.32607333794064219 0.67760114260606152 0 1 0.49999999999869221 0 0.88927506082488361 0.56409486310635837 0 0.915464298762109 0.43749999999886913 0 0.88173731489851925 0.33077402607778361 0 1 0.37499999999904599 0 0.915464298762109 0.43749999999886913 0 0.24418615484441761 0.35773612382016978 0 0.37953773393552892 0.34812185820708452 0 0.32815957677880009 0.4577243358118348 0 0.44301038174930041 0.45684931552185398 0 0.38694285807596462 0.5672991787102919 0 0.32815957677880009 0.4577243358118348 0 0.88927506082488361 0.56409486310635837 0 1 0.62499999999901068 0 0.92266244547590082 0.68749999999917555 0 1 0.74999999999934042 0 0.89051480781310632 0.79665793440246835 0 0.92266244547590082 0.68749999999917555 0 0 1 0 0 0.87499999999950151 0 0.091506350946494744 0.90849364905351082 0 1 1 0 0.87499999999950151 1 0 0.90849364905363228 0.90849364905367769 0 0 0 0 0.1249999999997731 0 0 0.091506350946417708 0.091506350946618076 0 0 0.12500000000052089 0 0 0 0 0.091506350946417708 0.091506350946618076 0 1 0 0 1 0.1249999999997731 0 0.90849364905355434 0.091506350946296292 0 0.87499999999967015 0 0 1 0 0 0.90849364905355434 0.091506350946296292 0 0.12500000000052089 1 0 0 1 0 0.091506350946494744 0.90849364905351082 0 1 0.87499999999967015 0 1 1 0 0.90849364905363228 0.90849364905367769 0 0.38694285807596462 0.5672991787102919 0 0.32607333794064219 0.67760114260606152 0 0.26982811998763367 0.56544650815856912 0 0.31411863959822661 0.24965544328045999 0 0.24418615484441761 0.35773612382016978 0 0.20767261601459541 0.25628918442207171 0 0.1082531754734323 0.31250000000117473 0 0.12076953676380731 0.18690935762408761 0 0.20767261601459541 0.25628918442207171 0 0.75000000000057243 0.35048094716480432 0 0.68668231842078242 0.24762892664808989 0 0.79891106056046712 0.25007334953587562 0 0.22257735880419699 0.47344721641341742 0 0.32815957677880009 0.4577243358118348 0 0.26982811998763367 0.56544650815856912 0 0.44078402250377968 0.67714785211715212 0 0.37776173212361452 0.78514649317305008 0 0.32607333794064219 0.67760114260606152 0 0.89658421694297741 0.1933620068391701 0 0.88173731489851925 0.33077402607778361 0 0.79891106056046712 0.25007334953587562 0 1 0.37499999999904599 0 1 0.49999999999869221 0 0.915464298762109 0.43749999999886913 0 0.37953773393552892 0.34812185820708452 0 0.44301038174930041 0.45684931552185398 0 0.32815957677880009 0.4577243358118348 0 0.32607333794064219 0.67760114260606152 0 0.21809253452218619 0.65480892822618109 0 0.26982811998763367 0.56544650815856912 0 1 0.1249999999997731 0 0.89658421694297741 0.1933620068391701 0 0.90849364905355434 0.091506350946296292 0 0 0.87499999999950151 0 0.10409951422139101 0.81206782209691231 0 0.091506350946494744 0.90849364905351082 0 0.1249999999997731 0 0 0.19185372118111221 0.092925648673580788 0 0.091506350946417708 0.091506350946618076 0 1 0.62499999999901068 0 1 0.74999999999934042 0 0.92266244547590082 0.68749999999917555 0 0.18802967116092181 0.89415349436770275 0 0.12500000000052089 1 0 0.091506350946494744 0.90849364905351082 0 0.89051480781310632 0.79665793440246835 0 1 0.87499999999967015 0 0.90849364905363228 0.90849364905367769 0 0.12076953676380731 0.18690935762408761 0 0 0.12500000000052089 0 0.091506350946417708 0.091506350946618076 0 0.81249999999950517 0.1082531754733404 0 0.87499999999967015 0 0 0.90849364905355434 0.091506350946296292 0 0.87499999999950151 1 0 0.80886664387416207 0.89717308644237903 0 0.90849364905363228 0.90849364905367769 0 0.68668231842078242 0.24762892664808989 0 0.62499999999892575 0.17524047358135519 0 0.73983916756365475 0.17530677078674589 0 0.31281086598417152 0.10449318608631281 0 0.43749999999910871 0.1082531754729984 0 0.37500000000232431 0.17524047358384309 0 0.62499999999892575 0.17524047358135519 0 0.56250000000143974 0.2422277716920859 0 0.49999999999934441 0.1752404735815076 0 0.56249999999885147 0.1082531754730395 0 0.68749999999926592 0.1082531754732875 0 0.62499999999892575 0.17524047358135519 0 0.56249999999885147 0.1082531754730395 0 0.62499999999892575 0.17524047358135519 0 0.49999999999934441 0.1752404735815076 0 0.56250000000143974 0.2422277716920859 0 0.43750000000200551 0.24222777169198509 0 0.49999999999934441 0.1752404735815076 0 0.43749999999910871 0.1082531754729984 0 0.56249999999885147 0.1082531754730395 0 0.49999999999934441 0.1752404735815076 0 0.68668231842078242 0.24762892664808989 0 0.56250000000143974 0.2422277716920859 0 0.62499999999892575 0.17524047358135519 0 0.43750000000200551 0.24222777169198509 0 0.31411863959822661 0.24965544328045999 0 0.37500000000232431 0.17524047358384309 0 0.49999999999934441 0.1752404735815076 0 0.43750000000200551 0.24222777169198509 0 0.37500000000232431 0.17524047358384309 0 0.43749999999910871 0.1082531754729984 0 0.49999999999934441 0.1752404735815076 0 0.37500000000232431 0.17524047358384309 0 0.62499999999892575 0.17524047358135519 0 0.68749999999926592 0.1082531754732875 0 0.73983916756365475 0.17530677078674589 0 0.68749999999926592 0.1082531754732875 0 0.81249999999950517 0.1082531754733404 0 0.73983916756365475 0.17530677078674589 0 0.10409951422139101 0.81206782209691231 0 0.18802967116092181 0.89415349436770275 0 0.091506350946494744 0.90849364905351082 0 0.89658421694297741 0.1933620068391701 0 0.81249999999950517 0.1082531754733404 0 0.90849364905355434 0.091506350946296292 0 0.19185372118111221 0.092925648673580788 0 0.12076953676380731 0.18690935762408761 0 0.091506350946417708 0.091506350946618076 0 0.37500000000232431 0.17524047358384309 0 0.31411863959822661 0.24965544328045999 0 0.25103557339309318 0.17464499738446629 0 0.31281086598417152 0.10449318608631281 0 0.37500000000232431 0.17524047358384309 0 0.25103557339309318 0.17464499738446629 0 0.80886664387416207 0.89717308644237903 0 0.89051480781310632 0.79665793440246835 0 0.90849364905363228 0.90849364905367769 0 0.19185372118111221 0.092925648673580788 0 0.31281086598417152 0.10449318608631281 0 0.25103557339309318 0.17464499738446629 0 0.79891106056046712 0.25007334953587562 0 0.68668231842078242 0.24762892664808989 0 0.73983916756365475 0.17530677078674589 0 0.31411863959822661 0.24965544328045999 0 0.20767261601459541 0.25628918442207171 0 0.25103557339309318 0.17464499738446629 0 

        </DataArray>

      </Points>

      <Cells>

        <DataArray type="Int32" Name="connectivity" format="ascii">

0 1 2 3 4 5 6 7 8 9 10 11 12 13 14 15 16 17 18 19 20 21 22 23 24 25 26 27 28 29 30 31 32 33 34 35 36 37 38 39 40 41 42 43 44 45 46 47 48 49 50 51 52 53 54 55 56 57 58 59 60 61 62 63 64 65 66 67 68 69 70 71 72 73 74 75 76 77 78 79 80 81 82 83 84 85 86 87 88 89 90 91 92 93 94 95 96 97 98 99 100 101 102 103 104 105 106 107 108 109 110 111 112 113 114 115 116 117 118 119 120 121 122 123 124 125 126 127 128 129 130 131 132 133 134 135 136 137 138 139 140 141 142 143 144 145 146 147 148 149 150 151 152 153 154 155 156 157 158 159 160 161 162 163 164 165 166 167 168 169 170 171 172 173 174 175 176 177 178 179 180 181 182 183 184 185 186 187 188 189 190 191 192 193 194 195 196 197 198 199 200 201 202 203 204 205 206 207 208 209 210 211 212 213 214 215 216 217 218 219 220 221 222 223 224 225 226 227 228 229 230 231 232 233 234 235 236 237 238 239 240 241 242 243 244 245 246 247 248 249 250 251 252 253 254 255 256 257 258 259 260 261 262 263 264 265 266 267 268 269 270 271 272 273 274 275 276 277 278 279 280 281 282 283 284 285 286 287 288 289 290 291 292 293 294 295 296 297 298 299 300 301 302 303 304 305 306 307 308 309 310 311 312 313 314 315 316 317 318 319 320 321 322 323 324 325 326 327 328 329 330 331 332 333 334 335 336 337 338 339 340 341 342 343 344 345 346 347 348 349 350 351 352 353 354 355 356 357 358 359 360 361 362 363 364 365 366 367 368 369 370 371 372 373 374 375 376 377 378 379 380 381 382 383 384 385 386 387 388 389 390 391 392 393 394 395 396 397 398 399 400 401 402 403 404 405 406 407 408 409 410 411 412 413 414 415 416 417 418 419 420 421 422 423 424 425 426 427 428 429 430 431 432 433 434 435 436 437 438 439 440 441 442 443 444 445 446 447 448 449 450 451 452 453 454 455 456 457 458 459 460 461 462 463 464 465 466 467 468 469 470 471 472 473 474 475 476 477 478 479 480 481 482 483 484 485 

        </DataArray>

        <DataArray type="Int32" Name="offsets" format="ascii">

3 6 9 12 15 18 21 24 27 30 33 36 39 42 45 48 51 54 57 60 63 66 69 72 75 78 81 84 87 90 93 96 99 102 105 108 111 114 117 120 123 126 129 132 135 138 141 144 147 150 153 156 159 162 165 168 171 174 177 180 183 186 189 192 195 198 201 204 207 210 213 216 219 222 225 228 231 234 237 240 243 246 249 252 255 258 261 264 267 270 273 276 279 282 285 288 291 294 297 300 303 306 309 312 315 318 321 324 327 330 333 336 339 342 345 348 351 354 357 360 363 366 369 372 375 378 381 384 387 390 393 396 399 402 405 408 411 414 417 420 423 426 429 432 435 438 441 444 447 450 453 456 459 462 465 468 471 474 477 480 483 486 

        </DataArray>

        <DataArray type="Int32" Name="types" format="ascii">

5 5 5 5 5 5 5 5 5 5 5 5 5 5 5 5 5 5 5 5 5 5 5 5 5 5 5 5 5 5 5 5 5 5 5 5 5 5 5 5 5 5 5 5 5 5 5 5 5 5 5 5 5 5 5 5 5 5 5 5 5 5 5 5 5 5 5 5 5 5 5 5 5 5 5 5 5 5 5 5 5 5 5 5 5 5 5 5 5 5 5 5 5 5 5 5 5 5 5 5 5 5 5 5 5 5 5 5 5 5 5 5 5 5 5 5 5 5 5 5 5 5 5 5 5 5 5 5 5 5 5 5 5 5 5 5 5 5 5 5 5 5 5 5 5 5 5 5 5 5 5 5 5 5 5 5 5 5 5 5 5 5 

        </DataArray>

      </Cells>

    </Piece>

  </UnstructuredGrid>

</VTKFile>

