<?xml version="1.0"?>

<VTKFile type="UnstructuredGrid" version="0.1">

  <UnstructuredGrid>

    <Piece NumberOfPoints="521" NumberOfCells="942">

      <PointData>

        <DataArray type="Float64" Name="T_exacte_scallin" format="ascii">

0.00000000000000000e+00
0.00000000000000000e+00
0.00000000000000000e+00
0.00000000000000000e+00
1.91339555277164770e+01
1.91729354918245924e+01
1.91584096687056942e+01
1.91765459343749498e+01
0.00000000000000000e+00
0.00000000000000000e+00
0.00000000000000000e+00
0.00000000000000000e+00
0.00000000000000000e+00
0.00000000000000000e+00
0.00000000000000000e+00
0.00000000000000000e+00
0.00000000000000000e+00
0.00000000000000000e+00
0.00000000000000000e+00
0.00000000000000000e+00
0.00000000000000000e+00
0.00000000000000000e+00
0.00000000000000000e+00
0.00000000000000000e+00
0.00000000000000000e+00
0.00000000000000000e+00
0.00000000000000000e+00
0.00000000000000000e+00
0.00000000000000000e+00
0.00000000000000000e+00
0.00000000000000000e+00
0.00000000000000000e+00
0.00000000000000000e+00
0.00000000000000000e+00
0.00000000000000000e+00
0.00000000000000000e+00
0.00000000000000000e+00
0.00000000000000000e+00
0.00000000000000000e+00
0.00000000000000000e+00
0.00000000000000000e+00
0.00000000000000000e+00
0.00000000000000000e+00
0.00000000000000000e+00
0.00000000000000000e+00
0.00000000000000000e+00
0.00000000000000000e+00
0.00000000000000000e+00
0.00000000000000000e+00
0.00000000000000000e+00
0.00000000000000000e+00
0.00000000000000000e+00
0.00000000000000000e+00
0.00000000000000000e+00
0.00000000000000000e+00
0.00000000000000000e+00
0.00000000000000000e+00
0.00000000000000000e+00
0.00000000000000000e+00
0.00000000000000000e+00
0.00000000000000000e+00
0.00000000000000000e+00
0.00000000000000000e+00
0.00000000000000000e+00
0.00000000000000000e+00
0.00000000000000000e+00
0.00000000000000000e+00
0.00000000000000000e+00
0.00000000000000000e+00
0.00000000000000000e+00
0.00000000000000000e+00
0.00000000000000000e+00
0.00000000000000000e+00
0.00000000000000000e+00
0.00000000000000000e+00
0.00000000000000000e+00
0.00000000000000000e+00
0.00000000000000000e+00
0.00000000000000000e+00
0.00000000000000000e+00
0.00000000000000000e+00
0.00000000000000000e+00
0.00000000000000000e+00
0.00000000000000000e+00
1.91392382911493826e+01
1.91677143918700530e+01
1.91829288172507759e+01
1.91719717902402671e+01
1.91541895147152168e+01
1.91421218092242285e+01
1.91826873430553455e+01
1.91784751708576700e+01
1.91224776451301359e+01
1.91918593364194052e+01
1.91933783234989619e+01
1.91766035435441680e+01
1.91102359064992413e+01
1.91992817455585048e+01
1.91877774889063488e+01
1.91695091976150920e+01
1.57773050534237473e+01
1.57391703990654790e+01
1.56554060558623167e+01
1.56584169309721322e+01
9.17477402116531615e-01
1.05547234031927761e+00
9.44873073838907396e-01
9.67967394852087160e-01
1.19687963773284922e+00
1.30001355002332097e+00
1.19860516666748551e+00
1.19195986792079456e+00
1.53230286491870382e+00
1.60548574832881030e+00
1.51155028341623687e+00
1.51179436348608709e+00
1.58831278969159140e+01
1.55357143874206240e+01
1.57467715995000166e+01
1.58785036724446247e+01
1.58379750510046668e+00
1.62789654043972210e+00
1.78438040483307936e+00
1.64116291813158810e+00
1.64193902729429109e+00
1.63425935578552450e+00
1.60995330872546139e+00
1.64562043462574792e+00
7.40377997383861564e-01
7.58001792406181707e-01
8.09260268361993940e-01
7.45426198686066521e-01
5.55328263872274741e-01
5.46952104409981543e-01
5.90098758993187089e-01
5.20492278425831456e-01
1.54452431686684495e+01
1.27486258544804407e+01
1.21241998581175157e+01
1.01534383110808282e+01
1.04028589421964490e+01
8.28665109053150672e+00
8.29070538575964910e+00
6.56616393376586949e+00
9.45806094844149214e+00
6.40156706067912218e+00
5.00675368919949992e+00
6.39763381795296926e+00
7.90101472272937944e+00
5.90829193093901495e+00
7.16302481845352990e+00
1.09453279712143061e+01
8.39939238797697207e+00
9.47186350243852360e+00
4.70940998945696876e+00
4.71791180258254528e+00
7.11139571974141393e+00
7.85991436488780071e+00
3.60704611256789320e+00
6.24223312457294455e+00
5.13400145840861910e+00
6.16911806065499402e+00
8.40902090571572636e+00
7.12470462391619108e+00
9.52029783960612441e+00
7.88577425309380509e+00
1.03269598887813085e+01
8.41119068118800683e+00
1.08089820566171877e+01
8.58777123497315031e+00
6.55757415726023840e+00
6.64612592030736593e+00
8.48397646156971241e+00
6.47313427104616590e+00
7.97403615239846175e+00
6.03736363624871863e+00
7.24396321487254546e+00
5.39182459973047568e+00
6.26832529189404397e+00
4.56677018712320049e+00
5.14136250014735730e+00
6.95614211970132335e+00
5.52447425280717219e+00
7.33151714263286447e+00
3.84372345939096238e+00
4.85408965085990385e+00
5.73027043857109319e+00
7.63568661888682687e+00
9.09955742422417835e+00
3.15201250663830956e+00
2.56602786755426626e+00
5.69319740608400693e+00
7.29014349193944611e+00
5.31760292567429893e+00
6.93844268480989701e+00
9.28939190557643180e+00
8.54718550726106763e+00
6.38661531390431936e+00
7.66645048132912343e+00
1.00403123043256937e+01
8.82764832779782616e+00
6.60102235790686720e+00
7.46246958792441628e+00
5.48980506276970193e+00
6.09938668902848846e+00
8.02663106189772257e+00
6.41366274968503269e+00
8.21163529485760257e+00
6.39526663560861408e+00
7.99198997570015912e+00
4.93248258298779696e+00
6.04266387778066072e+00
7.39952448672260665e+00
5.39921707487440727e+00
6.50186460244227504e+00
9.61290439104381633e+00
4.39446736105862179e+00
4.30394327557572076e+00
5.38601737840647132e+00
1.16490640852535314e+01
9.22803435300218844e+00
3.73878451964862668e+00
2.60447001556315527e+00
4.11698858986439564e+00
3.75238650504463367e+00
3.62702608092733669e+00
2.59807126398189903e+00
2.86697411571750038e+00
5.26873352994645217e+00
6.17273262276330481e+00
8.40014113040584220e+00
6.59998845832826753e+00
8.66584104221552565e+00
6.71353223924913944e+00
8.54824068098127832e+00
6.56975714996918203e+00
8.07319366657689486e+00
6.13803348887497258e+00
7.36449375948681695e+00
5.45249397333684094e+00
6.37688488545356247e+00
4.62073958172766819e+00
5.19452518292566889e+00
7.08966338931904261e+00
5.59519181909029495e+00
7.49463023611920942e+00
3.88206343269671361e+00
5.79876096637738137e+00
7.63522887170248943e+00
9.67252438481651389e+00
9.71397336289455815e+00
7.46493039318399543e+00
9.36139539255621500e+00
6.99670157020119454e+00
3.18948826609312519e+00
4.94187162568848759e+00
3.94349870151915294e+00
9.52094826688944984e+00
2.59636751692116707e+00
2.92688438243364235e+00
1.73847153126055032e+00
1.07813829490586812e+01
8.51111016245321750e+00
5.24923424195547383e+00
4.90172447761771490e+00
1.22420992274819351e+01
1.17255465084834114e+01
3.23927568103941121e+00
4.15682075338708845e+00
1.02777692871337809e+01
1.54465521750984092e+01
1.59567921729406006e+01
1.51455970608352590e+01
1.55968522889200134e+01
1.57397415110285017e+01
4.77918102591791882e+00
3.23389667681912907e-01
3.18004482218234463e-01
3.55840601214609920e-01
3.28047288845961127e-01
1.28464777277813624e+01
2.02959789827409853e+00
2.54606507815992522e+00
1.28379053195033705e+01
1.60673652373899500e+00
4.63199188225574421e+00
1.54858532362000165e+01
2.08795098683168412e+00
2.46117157101985384e+00
4.16201195181880568e+00
3.31438212290819401e+00
1.81150369771485686e+00
1.51908214619071966e+01
1.29981245045933864e+01
3.96711786563422741e+00
1.62207421479912739e+01
2.93398422172008200e+00
3.38254880249000189e+00
2.37006840003559383e+00
2.30436258022477691e+00
1.09039439112404093e+01
3.23269813170870357e+00
1.57261080135574307e+01
1.49244259517310573e+00
1.27327730487065285e+01
1.55050343510282502e+01
1.18204007189292550e+01
1.55790581954614726e+01
1.28875258254350538e+01
1.24457012711442871e+01
1.26513700776139810e+01
1.36035526097159298e+00
1.26841465812936125e+01
1.27615043852302499e+01
2.46752613523263786e+00
1.50362602395322065e+00
3.86057950786425863e+00
3.39648492080470987e+00
2.73527796799596334e+00
2.15642779087520076e+00
2.46386532835108474e+00
1.41756170878897292e+00
1.66734399061158012e+00
2.54727780643224788e+00
1.46810034567620207e+00
2.37062468946427884e+00
2.72760166497676382e+00
8.61395375018437326e-01
1.00605970983163555e+01
1.10928134512033392e+01
1.65255297230041376e+00
2.42110286311707901e+00
9.59503986964469036e-01
9.48188433894695315e+00
1.01862321387998023e+01
1.23602463333034791e+01
1.01889804020768491e+01
3.58910101177871388e+00
1.03721459532034928e+01
1.10424951359097214e+01
8.51962507327144003e+00
8.28112875046535812e+00
1.89642637318359997e+00
1.63742712112185651e+00
3.27050954885116374e+00
3.14818620675480254e+00
5.12658414602425516e+00
1.49548821431010359e+00
1.33012814329655815e+00
2.01345433588486067e+00
1.69121208774879306e+00
3.38109682567274916e+00
3.38608904179244918e+00
9.81131834521396229e+00
1.62875985156482717e+00
3.16025221297218373e+00
2.85748621422056948e+00
1.38111823163083880e+00
1.18427078683797116e+00
2.28059354991477781e+00
1.64178542295658025e+00
3.49188048359269265e+00
2.84355604562061481e+00
3.34575393144172173e+00
1.64116630980414269e+00
3.21016339323922306e+00
3.31244671260901535e+00
1.54715182747751334e+00
9.83968661440194015e-01
2.19403476893582994e+00
2.55063929730496897e+00
3.56363269090896084e+00
1.64035406589209831e+00
1.37217724888802861e+00
3.20309025668413083e+00
1.56629025699377489e+00
3.16259706483679359e+00
9.08606343005999184e-01
9.23900632937482924e-01
1.22272477378722364e+01
8.62235617283555200e+00
7.82594646294430651e-01
8.71476210854992384e-01
1.42108421254266593e+00
1.28956617190960432e+00
2.56711932345984950e+00
1.37016564542396435e+00
3.15112743157757702e+00
2.54750348465197218e+00
1.18364962563727616e+00
2.19814827797569645e+00
1.24864315483831625e+01
5.10861158927701564e-01
5.34512720714525935e-01
8.04443530492849890e-01
2.61533606526676898e+00
5.48225501866595089e+00
5.92005493584453735e+00
4.63303909068831565e+00
1.41417519061052825e+01
3.18871294531339045e+00
1.27555738559018472e+01
4.78059951440920194e+00
3.60008826308820717e+00
3.60398838383078912e+00
4.90910774324433685e+00
2.40322482243608260e+00
5.79632437549090973e+00
4.80985667117567051e+00
5.00910564708907824e+00
6.23513602277598356e+00
7.90444915961767514e+00
3.62066870784526484e+00
4.38651574779096176e+00
4.14508628102614907e+00
1.23404071173285779e+01
3.61384694819863395e+00
4.76056253509988636e+00
1.53422385050622356e+00
7.17571582824360821e+00
2.19140145510553142e+00
3.25182856961308753e+00
3.83886509320572555e+00
1.15169735331027412e+00
5.14764193220512389e+00
2.58693313196459007e+00
3.29340205151622190e+00
5.54619578609087616e-01
1.07336163606502311e+01
4.67590985815745430e+00
3.10551951243944391e+00
1.08572107324071121e+00
3.65335873288071766e-01
3.97290107803402792e-01
3.00117849148669624e-01
3.77497543484899001e-01
1.27044441016295533e+01
4.93879267665550081e+00
4.43101045837436391e+00
1.22010183071714753e+01
4.47917967955809004e+00
4.99094132915872013e+00
9.27008140474094056e+00
4.97615485043695838e+00
1.28489060169970966e+01
7.21560422384965694e+00
1.65087326647606791e+00
1.38624327125836313e+01
1.09898055342394918e+00
6.04043854167249816e-01
1.31680179087555818e+01
1.02862873699385080e+01
8.36342414129335965e-01
1.28966292186378007e+00
1.03552239049718864e+01
4.17058547992277262e+00
1.30180251262226943e+01
3.45322346293363935e+00
4.25632186728778061e-01
1.96456389819108135e+00
1.06849750422426615e+00
4.95710013341057998e+00
3.31940234285319491e+00
1.22228535912042235e+00
1.00685969279462793e+01
1.96949083328103058e+00
1.36740482316827077e+01
1.06533439070041034e+01
1.03277100737860277e+01
8.93317416402660269e-01
1.06839306349570826e+01
1.07029511889579201e+01
1.26521353891845356e+00
4.18025439308255820e+00
3.11248709451001560e+00
6.93823408204275460e-01
1.11520401269080178e+01
3.04861037561813442e+00
2.68048795038476939e+00
1.29146489971432725e+01
2.76497120528127116e+00
4.50617097562038094e+00
1.48064896582423078e+01
4.32212100563646118e+00
1.49978244939700929e+01
1.14381999128434475e+00
9.80513649306319901e-01
1.50295803092359481e+01
1.49240962763321079e+01
6.54392754536866050e+00
3.88017207954167809e+00
3.10772751052636087e+00
1.19359306767028128e+00
1.33937961022184417e+01
1.52353325995388844e+00
1.38200262312951905e-01
1.37172242529286365e-01
1.36284467035059420e-01
1.38757598641167823e-01
1.59240741920190256e+01
1.48177597665911165e+00
3.81859290854388034e+00
4.58302165675650297e+00
1.51380258322056638e+00
1.72678722208523783e+00
1.82847040332193722e+00
4.77223922863149230e+00
1.48573037390258156e+00
1.36026313711128886e+01
3.15193202679811701e+00
1.04772991733812648e+00
9.10598937540706110e+00
3.02838060722227143e+00
1.60753978912620599e+00
2.38398684712727649e+00
6.55005212066639864e-01
1.96427384806589167e+00
1.11606812639816120e+01
8.83467381245698014e-01
4.29837868382711807e+00
8.92421139892612558e+00


        </DataArray>

        <DataArray type="Float64" Name="T_exporte" format="ascii">

0.00000000000000000e+00
0.00000000000000000e+00
0.00000000000000000e+00
0.00000000000000000e+00
1.91002162462461271e+01
1.91379253626715311e+01
1.91262263874059535e+01
1.91354750331614021e+01
0.00000000000000000e+00
0.00000000000000000e+00
0.00000000000000000e+00
0.00000000000000000e+00
0.00000000000000000e+00
0.00000000000000000e+00
0.00000000000000000e+00
0.00000000000000000e+00
0.00000000000000000e+00
0.00000000000000000e+00
0.00000000000000000e+00
0.00000000000000000e+00
0.00000000000000000e+00
0.00000000000000000e+00
0.00000000000000000e+00
0.00000000000000000e+00
0.00000000000000000e+00
0.00000000000000000e+00
0.00000000000000000e+00
0.00000000000000000e+00
0.00000000000000000e+00
0.00000000000000000e+00
0.00000000000000000e+00
0.00000000000000000e+00
0.00000000000000000e+00
0.00000000000000000e+00
0.00000000000000000e+00
0.00000000000000000e+00
0.00000000000000000e+00
0.00000000000000000e+00
0.00000000000000000e+00
0.00000000000000000e+00
0.00000000000000000e+00
0.00000000000000000e+00
0.00000000000000000e+00
0.00000000000000000e+00
0.00000000000000000e+00
0.00000000000000000e+00
0.00000000000000000e+00
0.00000000000000000e+00
0.00000000000000000e+00
0.00000000000000000e+00
0.00000000000000000e+00
0.00000000000000000e+00
0.00000000000000000e+00
0.00000000000000000e+00
0.00000000000000000e+00
0.00000000000000000e+00
0.00000000000000000e+00
0.00000000000000000e+00
0.00000000000000000e+00
0.00000000000000000e+00
0.00000000000000000e+00
0.00000000000000000e+00
0.00000000000000000e+00
0.00000000000000000e+00
0.00000000000000000e+00
0.00000000000000000e+00
0.00000000000000000e+00
0.00000000000000000e+00
0.00000000000000000e+00
0.00000000000000000e+00
0.00000000000000000e+00
0.00000000000000000e+00
0.00000000000000000e+00
0.00000000000000000e+00
0.00000000000000000e+00
0.00000000000000000e+00
0.00000000000000000e+00
0.00000000000000000e+00
0.00000000000000000e+00
0.00000000000000000e+00
0.00000000000000000e+00
0.00000000000000000e+00
0.00000000000000000e+00
0.00000000000000000e+00
1.91026925880086331e+01
1.91301631214899430e+01
1.91442203682197203e+01
1.91313122429967066e+01
1.91244621249850937e+01
1.91131709656677984e+01
1.91561766555669557e+01
1.91506288496191814e+01
1.90875330243377235e+01
1.91548414100276325e+01
1.91563286672249760e+01
1.91379072435718527e+01
1.90684746322867333e+01
1.91596402581978680e+01
1.91544074618393445e+01
1.91377430457861522e+01
1.57538181480754513e+01
1.57175420180038099e+01
1.56311652704520156e+01
1.56359397545938350e+01
9.15203141384796526e-01
1.05306315333142253e+00
9.42445087563375639e-01
9.66038266633596709e-01
1.19421133137811508e+00
1.29721370824952720e+00
1.19625851547121220e+00
1.18884060944285141e+00
1.52803117043584225e+00
1.60105453726200819e+00
1.50726713585878191e+00
1.50922602626100200e+00
1.58620441559491585e+01
1.55120312121560531e+01
1.57251470329564071e+01
1.58567655225908162e+01
1.58081388148033963e+00
1.62459500832639958e+00
1.77993904665982039e+00
1.63787760629386581e+00
1.63918127154885451e+00
1.63061117651319565e+00
1.60584675843462255e+00
1.64140321304729309e+00
7.38918965288532847e-01
7.56196775449370695e-01
8.07274104553029281e-01
7.43633185031609467e-01
5.54036790739398821e-01
5.45606659982432851e-01
5.88615580767646418e-01
5.19260540459924536e-01
1.54239140027943051e+01
1.27309638322173697e+01
1.21092027872973009e+01
1.01402579026320829e+01
1.03886651383129305e+01
8.27589752678659352e+00
8.27994901226055369e+00
6.55831755244644121e+00
9.44563741791384714e+00
6.39311989122659874e+00
5.00058067979982734e+00
6.39018503164697727e+00
7.89062525477520982e+00
5.90116980788815493e+00
7.15339468339775841e+00
1.09317489600587852e+01
8.38761417689536160e+00
9.45897621588483872e+00
4.70431100205661679e+00
4.71087433076305828e+00
7.10000729841764144e+00
7.84757175873196644e+00
3.60187295932936058e+00
6.23258114604411340e+00
5.12741715119527441e+00
6.16079622589247133e+00
8.39734138010890163e+00
7.11513531116301223e+00
9.50758352720781019e+00
7.87571265407626164e+00
1.03139192181009811e+01
8.40091920530984204e+00
1.07956490364396895e+01
8.57705243330588019e+00
6.54922494302989833e+00
6.63778568006845404e+00
8.47313347966623276e+00
6.46533556522692354e+00
7.96375115075452911e+00
6.02996379845579611e+00
7.23436339457115896e+00
5.38492782487479005e+00
6.25968479050050775e+00
4.56051750197596828e+00
5.13366382686521394e+00
6.94631765288731540e+00
5.51591839540547380e+00
7.32141243666043273e+00
3.83925805764985917e+00
4.84959049168876710e+00
5.72172467018499376e+00
7.62555360430367735e+00
9.08768063016766270e+00
3.14759536866548650e+00
2.56302507544667213e+00
5.68524633642979449e+00
7.28065832554372871e+00
5.31026240168728325e+00
6.92939813132216376e+00
9.27702947027507641e+00
8.53629129544673582e+00
6.37845863182640915e+00
7.65735589794631188e+00
1.00275953304588334e+01
8.81693087399404796e+00
6.59345186458903498e+00
7.45382851560570270e+00
5.48384678426854943e+00
6.09299141672799838e+00
8.01682173757411221e+00
6.40665774529159293e+00
8.20184698298196935e+00
6.38804202640660890e+00
7.98322748230348811e+00
4.92678867790921693e+00
6.03572402271002773e+00
7.39165620393299605e+00
5.39313095704224743e+00
6.49449734481474472e+00
9.60260934359197016e+00
4.38983623234507192e+00
4.29880364803627923e+00
5.37862378210482284e+00
1.16336498066881191e+01
9.21599511256247084e+00
3.73424608292762761e+00
2.60090162607165576e+00
4.10975428315924418e+00
3.74765922368307658e+00
3.62310627089098203e+00
2.59484113464479105e+00
2.86470853830888394e+00
5.25952297597581531e+00
6.16266942377409155e+00
8.38789221194210910e+00
6.59006176744107641e+00
8.65350166788217656e+00
6.70359339266066989e+00
8.53602917562480812e+00
6.55995563414643978e+00
8.06150298017062461e+00
6.12818566725132108e+00
7.35324665864537685e+00
5.44292697286064620e+00
6.36640912098584000e+00
4.61213247869697796e+00
5.18521468945840436e+00
7.07882271259608853e+00
5.58597650521366251e+00
7.48338346278147437e+00
3.87521790660142740e+00
5.78997059707114481e+00
7.62427292393516876e+00
9.65874257105181577e+00
9.70118073679535975e+00
7.45521234988480330e+00
9.35039917509271135e+00
6.98815700413998275e+00
3.18441372009028933e+00
4.93323397803788843e+00
3.93613502145465910e+00
9.50708648324850358e+00
2.59303637441839019e+00
2.92249641722970432e+00
1.73613132367924194e+00
1.07654617527314667e+01
8.50173179925355882e+00
5.24238988855238208e+00
4.89531696636755775e+00
1.22262704070881050e+01
1.17091913652799118e+01
3.23403977941531062e+00
4.14967358058953462e+00
1.02646796050340914e+01
1.54232313966854520e+01
1.59337236383624727e+01
1.51250114048924811e+01
1.55755006922533461e+01
1.57146867224343847e+01
4.77399849430312972e+00
3.22577467868416956e-01
3.17169574231317031e-01
3.54724309358115053e-01
3.27253225638937550e-01
1.28289176161113616e+01
2.02735165311543586e+00
2.54120842227691579e+00
1.28234103910647548e+01
1.60505630825650325e+00
4.62611982179054326e+00
1.54663960403323628e+01
2.08472274666401702e+00
2.45717737468986019e+00
4.15650638900819924e+00
3.30996877892518215e+00
1.80959560191386015e+00
1.51696989287663317e+01
1.29810025769793800e+01
3.96093349909681924e+00
1.61937178084442337e+01
2.93005730459763791e+00
3.37832514659494665e+00
2.36672401909405039e+00
2.30019597559524591e+00
1.08887731352916521e+01
3.22591885819104052e+00
1.57062469897785917e+01
1.49011187943495438e+00
1.27156895552938174e+01
1.54823359164548950e+01
1.18047609943294045e+01
1.55589213662922479e+01
1.28705549955647776e+01
1.24293614563931172e+01
1.26324764524462196e+01
1.35853994337617956e+00
1.26671317255149205e+01
1.27449368896590070e+01
2.46395952998328438e+00
1.50083161406399301e+00
3.85399252332268016e+00
3.39070337048394910e+00
2.72961119749937176e+00
2.15304227118646629e+00
2.46024435189957735e+00
1.41515891989882348e+00
1.66470352311127767e+00
2.54348171902400955e+00
1.46566981647876404e+00
2.36710896677235771e+00
2.72397159690860136e+00
8.59708807873294401e-01
1.00473028864950749e+01
1.10806570770321517e+01
1.65018130317914169e+00
2.41810599745978561e+00
9.57718308621939074e-01
9.46868046559803034e+00
1.01741048619371721e+01
1.23452818854595421e+01
1.01749625758047539e+01
3.58409105148697327e+00
1.03567706459240370e+01
1.10265749393487074e+01
8.50725108778462591e+00
8.26999017176032858e+00
1.89353820516106142e+00
1.63355540672072785e+00
3.26581724537691409e+00
3.14437474596554001e+00
5.12017893455489492e+00
1.49290179243722743e+00
1.32759093547775708e+00
2.01023466078044866e+00
1.68716865195819032e+00
3.37560108929351044e+00
3.38045580778435673e+00
9.79867922441685835e+00
1.62432598973162001e+00
3.15409687891456159e+00
2.85167895629019030e+00
1.37735643573361610e+00
1.18117718783548686e+00
2.27661624152254660e+00
1.63720877012746580e+00
3.48538749626721200e+00
2.83843910537563726e+00
3.33952832603993954e+00
1.63739048068189441e+00
3.20346139320229906e+00
3.30662600441177457e+00
1.54430474543039176e+00
9.81972859915564267e-01
2.19051819115103941e+00
2.54568743135610509e+00
3.55730939980117089e+00
1.63814677906634398e+00
1.36894253409616984e+00
3.19669894138259858e+00
1.56287525072642497e+00
3.15707361441640044e+00
9.06600354314076928e-01
9.21659339862113569e-01
1.22108067812479391e+01
8.61338011890159194e+00
7.80527119910170875e-01
8.69662722388095943e-01
1.41737757491310545e+00
1.28616682962883999e+00
2.56199844167808832e+00
1.36785073014531733e+00
3.14855760041695465e+00
2.54554610976851192e+00
1.18160169548924388e+00
2.19638104013946567e+00
1.24683686845994579e+01
5.09758067977980622e-01
5.33228273921064644e-01
8.03086623233298158e-01
2.61021391193075303e+00
5.47495267787174633e+00
5.91116555595921600e+00
4.62551795559517220e+00
1.41250163755925318e+01
3.18301054778571668e+00
1.27366935679763316e+01
4.77374511440129634e+00
3.59356814176802830e+00
3.59829344654003291e+00
4.90443078488017115e+00
2.39962656204506519e+00
5.78826961178570887e+00
4.80482251166817687e+00
5.00373234908446296e+00
6.22712545862383049e+00
7.89377000119101790e+00
3.61598311241985515e+00
4.38214455793413915e+00
4.14006169202954055e+00
1.23257083770358662e+01
3.60984052325970683e+00
4.75456191748422885e+00
1.53218043188382369e+00
7.16541744933324143e+00
2.18736327235657990e+00
3.24796405598553450e+00
3.83224834995557417e+00
1.14884568285725530e+00
5.13914728587505021e+00
2.58335135830488438e+00
3.28890401557133316e+00
5.53171576617932925e-01
1.07182607479192171e+01
4.66975041693919835e+00
3.10207203375109497e+00
1.08433304601974934e+00
3.64474776540030188e-01
3.96314595671383663e-01
2.99256483042479371e-01
3.76553882061333445e-01
1.26878908680772078e+01
4.93008428649497521e+00
4.42308931032547470e+00
1.21862500012707073e+01
4.47420865900402376e+00
4.98241510192660630e+00
9.25670804960236637e+00
4.96928833022766359e+00
1.28316602146648968e+01
7.20739945396380310e+00
1.64686804013222243e+00
1.38431305016592869e+01
1.09722215192045947e+00
6.02658347045452181e-01
1.31493819255997195e+01
1.02722410203290178e+01
8.35159006553855332e-01
1.28600270364369917e+00
1.03419695443687356e+01
4.16324867523309372e+00
1.30003970512271909e+01
3.45097027410639878e+00
4.24334818927725343e-01
1.96109103196372558e+00
1.06549508863547349e+00
4.94860394499747613e+00
3.31413354687756545e+00
1.22008928660347671e+00
1.00581327853383229e+01
1.96672578814581045e+00
1.36550960459991195e+01
1.06389448450115349e+01
1.03143924242345619e+01
8.91289346484924194e-01
1.06705593876879430e+01
1.06889056477825886e+01
1.26187367767365144e+00
4.17306151904935430e+00
3.10793655464245289e+00
6.92226827856311844e-01
1.11400122811380058e+01
3.04384258035458499e+00
2.67492554760928991e+00
1.28956396689052202e+01
2.76185510251572230e+00
4.49800222614710599e+00
1.47882500791163860e+01
4.31499724516965166e+00
1.49766973344609919e+01
1.14213609067410760e+00
9.78637715747689430e-01
1.50059450688261489e+01
1.49037648488998773e+01
6.53600322563329605e+00
3.87292125770627615e+00
3.10312779891500679e+00
1.19203938796674280e+00
1.33746326465656171e+01
1.52096144569131719e+00
1.37770142863789968e-01
1.36699809026568170e-01
1.35739434088123473e-01
1.38274609746632554e-01
1.59026029166022003e+01
1.47906442192037013e+00
3.81587384728191648e+00
4.57663705522596231e+00
1.51100208694151017e+00
1.72492968833244453e+00
1.82506846744519424e+00
4.76509136979146053e+00
1.48334703781558086e+00
1.35867234509955210e+01
3.14708871437763360e+00
1.04565729842683131e+00
9.09413119427269123e+00
3.02290219173415231e+00
1.60497990594271900e+00
2.38084379377613420e+00
6.53643494011693416e-01
1.96198056441629931e+00
1.11463166257772954e+01
8.82023782263575029e-01
4.29173603832448247e+00
8.91239375430045477e+00


        </DataArray>

      </PointData>

      <CellData/>

      <Points>

        <DataArray type="Float64" Name="Position" NumberOfComponents="3" format="ascii">

0.00000000000000000e+00 0.00000000000000000e+00 0.00000000000000000e+00
1.00000000000000000e+00 0.00000000000000000e+00 0.00000000000000000e+00
1.00000000000000000e+00 1.00000000000000000e+00 0.00000000000000000e+00
0.00000000000000000e+00 1.00000000000000000e+00 0.00000000000000000e+00
6.50000000000000022e-01 5.00000000000000000e-01 0.00000000000000000e+00
5.00000000000000000e-01 6.50000000000000022e-01 0.00000000000000000e+00
3.49999999999999978e-01 5.00000000000000000e-01 0.00000000000000000e+00
5.00000000000000000e-01 3.49999999999999978e-01 0.00000000000000000e+00
4.99999999998996525e-02 0.00000000000000000e+00 0.00000000000000000e+00
9.99999999998146677e-02 0.00000000000000000e+00 0.00000000000000000e+00
1.49999999999703593e-01 0.00000000000000000e+00 0.00000000000000000e+00
1.99999999999557893e-01 0.00000000000000000e+00 0.00000000000000000e+00
2.49999999999412109e-01 0.00000000000000000e+00 0.00000000000000000e+00
2.99999999999266409e-01 0.00000000000000000e+00 0.00000000000000000e+00
3.49999999999120626e-01 0.00000000000000000e+00 0.00000000000000000e+00
3.99999999998974898e-01 0.00000000000000000e+00 0.00000000000000000e+00
4.49999999998829225e-01 0.00000000000000000e+00 0.00000000000000000e+00
4.99999999998694322e-01 0.00000000000000000e+00 0.00000000000000000e+00
5.49999999998815103e-01 0.00000000000000000e+00 0.00000000000000000e+00
5.99999999998946820e-01 0.00000000000000000e+00 0.00000000000000000e+00
6.49999999999078426e-01 0.00000000000000000e+00 0.00000000000000000e+00
6.99999999999210032e-01 0.00000000000000000e+00 0.00000000000000000e+00
7.49999999999341749e-01 0.00000000000000000e+00 0.00000000000000000e+00
7.99999999999473355e-01 0.00000000000000000e+00 0.00000000000000000e+00
8.49999999999605071e-01 0.00000000000000000e+00 0.00000000000000000e+00
8.99999999999736788e-01 0.00000000000000000e+00 0.00000000000000000e+00
9.49999999999868394e-01 0.00000000000000000e+00 0.00000000000000000e+00
1.00000000000000000e+00 4.99999999998996525e-02 0.00000000000000000e+00
1.00000000000000000e+00 9.99999999998146677e-02 0.00000000000000000e+00
1.00000000000000000e+00 1.49999999999703593e-01 0.00000000000000000e+00
1.00000000000000000e+00 1.99999999999557893e-01 0.00000000000000000e+00
1.00000000000000000e+00 2.49999999999412109e-01 0.00000000000000000e+00
1.00000000000000000e+00 2.99999999999266409e-01 0.00000000000000000e+00
1.00000000000000000e+00 3.49999999999120626e-01 0.00000000000000000e+00
1.00000000000000000e+00 3.99999999998974898e-01 0.00000000000000000e+00
1.00000000000000000e+00 4.49999999998829225e-01 0.00000000000000000e+00
1.00000000000000000e+00 4.99999999998694322e-01 0.00000000000000000e+00
1.00000000000000000e+00 5.49999999998815103e-01 0.00000000000000000e+00
1.00000000000000000e+00 5.99999999998946820e-01 0.00000000000000000e+00
1.00000000000000000e+00 6.49999999999078426e-01 0.00000000000000000e+00
1.00000000000000000e+00 6.99999999999210032e-01 0.00000000000000000e+00
1.00000000000000000e+00 7.49999999999341749e-01 0.00000000000000000e+00
1.00000000000000000e+00 7.99999999999473355e-01 0.00000000000000000e+00
1.00000000000000000e+00 8.49999999999605071e-01 0.00000000000000000e+00
1.00000000000000000e+00 8.99999999999736788e-01 0.00000000000000000e+00
1.00000000000000000e+00 9.49999999999868394e-01 0.00000000000000000e+00
9.49999999999791789e-01 1.00000000000000000e+00 0.00000000000000000e+00
8.99999999999583578e-01 1.00000000000000000e+00 0.00000000000000000e+00
8.49999999999652922e-01 1.00000000000000000e+00 0.00000000000000000e+00
7.99999999999999822e-01 1.00000000000000000e+00 0.00000000000000000e+00
7.50000000000346612e-01 1.00000000000000000e+00 0.00000000000000000e+00
7.00000000000693401e-01 1.00000000000000000e+00 0.00000000000000000e+00
6.50000000001040079e-01 1.00000000000000000e+00 0.00000000000000000e+00
6.00000000001386868e-01 1.00000000000000000e+00 0.00000000000000000e+00
5.50000000001733547e-01 1.00000000000000000e+00 0.00000000000000000e+00
5.00000000002058687e-01 1.00000000000000000e+00 0.00000000000000000e+00
4.50000000001872291e-01 1.00000000000000000e+00 0.00000000000000000e+00
4.00000000001664413e-01 1.00000000000000000e+00 0.00000000000000000e+00
3.50000000001456424e-01 1.00000000000000000e+00 0.00000000000000000e+00
3.00000000001248324e-01 1.00000000000000000e+00 0.00000000000000000e+00
2.50000000001040279e-01 1.00000000000000000e+00 0.00000000000000000e+00
2.00000000000832207e-01 1.00000000000000000e+00 0.00000000000000000e+00
1.50000000000624106e-01 1.00000000000000000e+00 0.00000000000000000e+00
1.00000000000416006e-01 1.00000000000000000e+00 0.00000000000000000e+00
5.00000000002079892e-02 1.00000000000000000e+00 0.00000000000000000e+00
0.00000000000000000e+00 9.49999999999791789e-01 0.00000000000000000e+00
0.00000000000000000e+00 8.99999999999583578e-01 0.00000000000000000e+00
0.00000000000000000e+00 8.49999999999652922e-01 0.00000000000000000e+00
0.00000000000000000e+00 7.99999999999999822e-01 0.00000000000000000e+00
0.00000000000000000e+00 7.50000000000346612e-01 0.00000000000000000e+00
0.00000000000000000e+00 7.00000000000693401e-01 0.00000000000000000e+00
0.00000000000000000e+00 6.50000000001040079e-01 0.00000000000000000e+00
0.00000000000000000e+00 6.00000000001386868e-01 0.00000000000000000e+00
0.00000000000000000e+00 5.50000000001733547e-01 0.00000000000000000e+00
0.00000000000000000e+00 5.00000000002058687e-01 0.00000000000000000e+00
0.00000000000000000e+00 4.50000000001872291e-01 0.00000000000000000e+00
0.00000000000000000e+00 4.00000000001664413e-01 0.00000000000000000e+00
0.00000000000000000e+00 3.50000000001456424e-01 0.00000000000000000e+00
0.00000000000000000e+00 3.00000000001248324e-01 0.00000000000000000e+00
0.00000000000000000e+00 2.50000000001040279e-01 0.00000000000000000e+00
0.00000000000000000e+00 2.00000000000832207e-01 0.00000000000000000e+00
0.00000000000000000e+00 1.50000000000624106e-01 0.00000000000000000e+00
0.00000000000000000e+00 1.00000000000416006e-01 0.00000000000000000e+00
0.00000000000000000e+00 5.00000000002079892e-02 0.00000000000000000e+00
6.42658477424715935e-01 5.46352549216432837e-01 0.00000000000000000e+00
6.21352549051491065e-01 5.88167787988048474e-01 0.00000000000000000e+00
5.88167787691190935e-01 6.21352549267170651e-01 0.00000000000000000e+00
5.46352549031363099e-01 6.42658477484848722e-01 0.00000000000000000e+00
4.53647450780622019e-01 6.42658477423758923e-01 0.00000000000000000e+00
4.11832211967911199e-01 6.21352549019493883e-01 0.00000000000000000e+00
3.78647450703984312e-01 5.88167787651489027e-01 0.00000000000000000e+00
3.57341522508284493e-01 5.46352549010229227e-01 0.00000000000000000e+00
3.57341522581401727e-01 4.53647450764739113e-01 0.00000000000000000e+00
3.78647450990084122e-01 4.11832211954728300e-01 0.00000000000000000e+00
4.11832212392415020e-01 3.78647450672086106e-01 0.00000000000000000e+00
4.53647450982697820e-01 3.57341522510582710e-01 0.00000000000000000e+00
5.46352549224755735e-01 3.57341522577988291e-01 0.00000000000000000e+00
5.88167787988477020e-01 3.78647450948820408e-01 0.00000000000000000e+00
6.21352549308335389e-01 4.11832212365467520e-01 0.00000000000000000e+00
6.42658477485007040e-01 4.53647450969124122e-01 0.00000000000000000e+00
6.38700194473803440e-01 6.27577971827471659e-01 0.00000000000000000e+00
3.66500984999772406e-01 6.33499014581532793e-01 0.00000000000000000e+00
3.64709881980356976e-01 3.66840045439841889e-01 0.00000000000000000e+00
6.33171527008015822e-01 3.64709057703395512e-01 0.00000000000000000e+00
2.26446184634465003e-01 9.60080415777536444e-01 0.00000000000000000e+00
9.53134966401499639e-01 7.81722101205510222e-01 0.00000000000000000e+00
4.12783914925167125e-02 2.24991159915089195e-01 0.00000000000000000e+00
7.72879013232171563e-01 4.19895463705367983e-02 0.00000000000000000e+00
4.32780921470047528e-02 7.25159542036616145e-01 0.00000000000000000e+00
7.23803321099526720e-01 9.53257271686374308e-01 0.00000000000000000e+00
2.74586773198862322e-01 4.34550910965041601e-02 0.00000000000000000e+00
9.56899546582736571e-01 2.75214666620337278e-01 0.00000000000000000e+00
3.75123911496828388e-01 9.56762347900348531e-01 0.00000000000000000e+00
4.53962786854512079e-02 3.73355162174849209e-01 0.00000000000000000e+00
9.57329463560388505e-01 6.24041073402160751e-01 0.00000000000000000e+00
6.25000641976996008e-01 4.27172051653603793e-02 0.00000000000000000e+00
3.15766132025037893e-01 5.28348155414181786e-01 0.00000000000000000e+00
4.74540234244577475e-01 3.10844993908838019e-01 0.00000000000000000e+00
6.86049051445520530e-01 4.71560284876477220e-01 0.00000000000000000e+00
5.29183758583311015e-01 6.84283629064049936e-01 0.00000000000000000e+00
4.16956902896678527e-02 5.75115970372534813e-01 0.00000000000000000e+00
4.19598918343884797e-01 4.31266016956984508e-02 0.00000000000000000e+00
9.53124418511970162e-01 4.28041768442479598e-01 0.00000000000000000e+00
5.74774340843139275e-01 9.56729998217968891e-01 0.00000000000000000e+00
4.18730863979895271e-02 4.72590570283333788e-01 0.00000000000000000e+00
5.25004391851002450e-01 4.16013050301306669e-02 0.00000000000000000e+00
9.58984369262458003e-01 5.27502605982761441e-01 0.00000000000000000e+00
4.74822648339196685e-01 9.58124819842365749e-01 0.00000000000000000e+00
4.12530689692940725e-02 8.25054469930996071e-01 0.00000000000000000e+00
8.24620482709657598e-01 9.58188366613862641e-01 0.00000000000000000e+00
1.70824554769868187e-01 4.55315055526032131e-02 0.00000000000000000e+00
9.58619577110444543e-01 1.75018060685983412e-01 0.00000000000000000e+00
1.33207781518307089e-01 9.59447232878646195e-01 0.00000000000000000e+00
9.59043939188130246e-01 8.68593893998372168e-01 0.00000000000000000e+00
4.64629921545677421e-02 1.23846564039377299e-01 0.00000000000000000e+00
8.72567217630648040e-01 3.95923358573902831e-02 0.00000000000000000e+00
3.34777108569866921e-01 4.01255367422214626e-01 0.00000000000000000e+00
3.20880344665563311e-01 3.54212477997510988e-01 0.00000000000000000e+00
2.87524306180818923e-01 3.87931619264708816e-01 0.00000000000000000e+00
2.74966918267819493e-01 3.41674945239590688e-01 0.00000000000000000e+00
3.08813255607987003e-01 3.07958983240781414e-01 0.00000000000000000e+00
2.62553257427369902e-01 2.95355127370375725e-01 0.00000000000000000e+00
2.96795104371852692e-01 2.61452668072772898e-01 0.00000000000000000e+00
2.50126148389524516e-01 2.48787529000484203e-01 0.00000000000000000e+00
2.41218191353292311e-01 3.75498985874903990e-01 0.00000000000000000e+00
2.15882743305979896e-01 2.82918121809663525e-01 0.00000000000000000e+00
2.03293204340643296e-01 2.36069553819614503e-01 0.00000000000000000e+00
2.84420145079538500e-01 2.14717847119763494e-01 0.00000000000000000e+00
3.31086589513734708e-01 2.27520397825904913e-01 0.00000000000000000e+00
3.18815965050998573e-01 1.80602223625288605e-01 0.00000000000000000e+00
3.65741695037799019e-01 1.93431489593228700e-01 0.00000000000000000e+00
2.53251179122084780e-01 4.21313292891112690e-01 0.00000000000000000e+00
2.07159474455399312e-01 4.09329760359525507e-01 0.00000000000000000e+00
2.18942723883036400e-01 4.55028631732105782e-01 0.00000000000000000e+00
2.72099616976927194e-01 1.67691789468201208e-01 0.00000000000000000e+00
1.68848346887441603e-01 2.70485129380820200e-01 0.00000000000000000e+00
1.73129306199857613e-01 4.43433053400395016e-01 0.00000000000000000e+00
1.84881733965329587e-01 4.89368999520432502e-01 0.00000000000000000e+00
1.56213579875169400e-01 2.23308490584155112e-01 0.00000000000000000e+00
1.62360881472198709e-01 3.96666369229896898e-01 0.00000000000000000e+00
3.53339581426365623e-01 1.46358431732011213e-01 0.00000000000000000e+00
4.00113781998668705e-01 1.59862903385250998e-01 0.00000000000000000e+00
4.12597912547247592e-01 2.06371117185082803e-01 0.00000000000000000e+00
4.46914930170386582e-01 1.72928429480166207e-01 0.00000000000000000e+00
4.59320646243766895e-01 2.19196506044589290e-01 0.00000000000000000e+00
4.93728943186984515e-01 1.85301824977063601e-01 0.00000000000000000e+00
5.05163627343253263e-01 2.31143522095235504e-01 0.00000000000000000e+00
5.40160276967269759e-01 1.97947858388534403e-01 0.00000000000000000e+00
5.51588297357108348e-01 2.44381396577688287e-01 0.00000000000000000e+00
5.85663940565438024e-01 2.09808710872820298e-01 0.00000000000000000e+00
5.74471117505458762e-01 1.63880255239685607e-01 0.00000000000000000e+00
6.21115098246389774e-01 1.76817615500293512e-01 0.00000000000000000e+00
6.33387083571249176e-01 2.23943014138875712e-01 0.00000000000000000e+00
6.67965704363303603e-01 1.90007745335977390e-01 0.00000000000000000e+00
6.81054013816927872e-01 2.36724634538475698e-01 0.00000000000000000e+00
7.14859748506354364e-01 2.03021736317017892e-01 0.00000000000000000e+00
7.26976602748131251e-01 2.50130201213007219e-01 0.00000000000000000e+00
7.61582419451623416e-01 2.16098381504877812e-01 0.00000000000000000e+00
7.73682438349884039e-01 2.63384526774073424e-01 0.00000000000000000e+00
8.08606518631571736e-01 2.29194792767446809e-01 0.00000000000000000e+00
8.20515513232536353e-01 2.76590116827783283e-01 0.00000000000000000e+00
7.85701497772375523e-01 3.10705816615398978e-01 0.00000000000000000e+00
8.32492365078272956e-01 3.23914003656730176e-01 0.00000000000000000e+00
7.98445011917590763e-01 3.55306044391946907e-01 0.00000000000000000e+00
7.96380904554305769e-01 1.81804783181502200e-01 0.00000000000000000e+00
7.01817342187147197e-01 1.59125113838099991e-01 0.00000000000000000e+00
8.43396961671799561e-01 3.71044593203490980e-01 0.00000000000000000e+00
8.07724027118898902e-01 4.03921171473451412e-01 0.00000000000000000e+00
7.50854256530378183e-01 3.44716165974013389e-01 0.00000000000000000e+00
8.43704417219323100e-01 1.94919172173464411e-01 0.00000000000000000e+00
8.31350747086489372e-01 1.47278794066957708e-01 0.00000000000000000e+00
8.54769007041250029e-01 4.18473657784170006e-01 0.00000000000000000e+00
8.24072217921281158e-01 4.51436455341496790e-01 0.00000000000000000e+00
8.68662445609298839e-01 4.65558084533494176e-01 0.00000000000000000e+00
8.34171389202904678e-01 4.99355062789662019e-01 0.00000000000000000e+00
7.87011419373330967e-01 4.86359687295111698e-01 0.00000000000000000e+00
8.00068212411602975e-01 5.34405144477215988e-01 0.00000000000000000e+00
8.43673384666787429e-01 5.47371519984533039e-01 0.00000000000000000e+00
8.10669295812665336e-01 5.80622441541942536e-01 0.00000000000000000e+00
7.65976975940512173e-01 5.68920518381117235e-01 0.00000000000000000e+00
7.76130196789726945e-01 6.14429968834490969e-01 0.00000000000000000e+00
8.22223329648303469e-01 6.27627537578170802e-01 0.00000000000000000e+00
7.87426985409954705e-01 6.61255690260620144e-01 0.00000000000000000e+00
8.33886190852081821e-01 6.74741244618451752e-01 0.00000000000000000e+00
7.99027861433330377e-01 7.08366084033099086e-01 0.00000000000000000e+00
7.52326999158327903e-01 6.94854802800218274e-01 0.00000000000000000e+00
7.63938433100712855e-01 7.41977605158784970e-01 0.00000000000000000e+00
7.17243084662783970e-01 7.28476180894642944e-01 0.00000000000000000e+00
7.28803563818206990e-01 7.75605214662594911e-01 0.00000000000000000e+00
6.82138161957501321e-01 7.62104190665931824e-01 0.00000000000000000e+00
7.75307192282406854e-01 7.89583551244708470e-01 0.00000000000000000e+00
6.93698200204502347e-01 8.09254362452119236e-01 0.00000000000000000e+00
6.47067962268814800e-01 7.95694663773098387e-01 0.00000000000000000e+00
6.58717300947178397e-01 8.42606406320152601e-01 0.00000000000000000e+00
6.11826862738547916e-01 8.29340243639620445e-01 0.00000000000000000e+00
6.36655101476311880e-01 7.49709075123542679e-01 0.00000000000000000e+00
8.45972203983856197e-01 7.21940574359685061e-01 0.00000000000000000e+00
7.05161545534891965e-01 8.56654625944824888e-01 0.00000000000000000e+00
4.82493035668872416e-01 1.32133883490251708e-01 0.00000000000000000e+00
7.25983700959317080e-01 6.01309528563529261e-01 0.00000000000000000e+00
6.98509737275589737e-01 2.83315827831276179e-01 0.00000000000000000e+00
1.90885457923491597e-01 1.88809880011551995e-01 0.00000000000000000e+00
1.43513470799089410e-01 1.75905885756873104e-01 0.00000000000000000e+00
8.76679312370609254e-01 3.36008804717488008e-01 0.00000000000000000e+00
8.80432093285302142e-01 6.87444950068640148e-01 0.00000000000000000e+00
6.70772583702003544e-01 8.89029919992253115e-01 0.00000000000000000e+00
1.78316618382505010e-01 1.41205885248397306e-01 0.00000000000000000e+00
7.81288108565516004e-01 1.27256933266218286e-01 0.00000000000000000e+00
1.29593416023455504e-01 4.76553616222389786e-01 0.00000000000000000e+00
1.49800453976091402e-01 5.24313755090266564e-01 0.00000000000000000e+00
1.97220446630292007e-01 5.36552671880173082e-01 0.00000000000000000e+00
1.64186271152889612e-01 5.71260030864022550e-01 0.00000000000000000e+00
2.10869979465928697e-01 5.84146984751687026e-01 0.00000000000000000e+00
1.77401487877979214e-01 6.18194804906319617e-01 0.00000000000000000e+00
2.23922182780664086e-01 6.30622118148173261e-01 0.00000000000000000e+00
1.90948172284306106e-01 6.64760773724619836e-01 0.00000000000000000e+00
2.36901618765247096e-01 6.77305165408322196e-01 0.00000000000000000e+00
2.04143345628838291e-01 7.11813957890464089e-01 0.00000000000000000e+00
2.51229765737318422e-01 7.23697220139219000e-01 0.00000000000000000e+00
2.16146398250418703e-01 7.59023016192787225e-01 0.00000000000000000e+00
2.64285760922572721e-01 7.70648062248587395e-01 0.00000000000000000e+00
2.28597048207749592e-01 8.05902638381344905e-01 0.00000000000000000e+00
2.75861582090091373e-01 8.18231231286217220e-01 0.00000000000000000e+00
3.12110098195207075e-01 7.82837045728757008e-01 0.00000000000000000e+00
3.22564674781010086e-01 8.29873445352393824e-01 0.00000000000000000e+00
3.58033946738571585e-01 7.95571606932884645e-01 0.00000000000000000e+00
1.81296263316100603e-01 7.93808323894567125e-01 0.00000000000000000e+00
3.68161685244093095e-01 8.40830048418318321e-01 0.00000000000000000e+00
4.04001964635455679e-01 8.07794053476886820e-01 0.00000000000000000e+00
3.92057521577140577e-01 7.61215072380983515e-01 0.00000000000000000e+00
4.38218506758715320e-01 7.73650756257468375e-01 0.00000000000000000e+00
4.51078116702336773e-01 8.20290108205279811e-01 0.00000000000000000e+00
4.85025934052177088e-01 7.85908898537643230e-01 0.00000000000000000e+00
4.96241324785989979e-01 8.32994500297514873e-01 0.00000000000000000e+00
1.93826165158882596e-01 8.40918556783992965e-01 0.00000000000000000e+00
1.42876285455761809e-01 6.52765725381703521e-01 0.00000000000000000e+00
2.88486988904476882e-01 8.65581593185909104e-01 0.00000000000000000e+00
2.83694701813287375e-01 6.89681609336883827e-01 0.00000000000000000e+00
1.48150020750637101e-01 8.30366766380672527e-01 0.00000000000000000e+00
1.30320526217712590e-01 7.82196684803949549e-01 0.00000000000000000e+00
1.31500895100134296e-01 1.28051792660535901e-01 0.00000000000000000e+00
2.56044444917366609e-01 5.97032279497208718e-01 0.00000000000000000e+00
5.26580507537612208e-01 8.01580663600800158e-01 0.00000000000000000e+00
4.64156920048365285e-01 8.70183068833131124e-01 0.00000000000000000e+00
5.11291473905105764e-01 8.79296683891996778e-01 0.00000000000000000e+00
4.23252206612334592e-01 7.25203583346293756e-01 0.00000000000000000e+00
3.78901574104169081e-01 7.14952440833747205e-01 0.00000000000000000e+00
1.22348697767981601e-01 2.58694198404861908e-01 0.00000000000000000e+00
1.34471912207476507e-01 3.05075863598410713e-01 0.00000000000000000e+00
7.03877025849968363e-01 6.81872066834965596e-01 0.00000000000000000e+00
5.99523438920792406e-01 3.34968387948427204e-01 0.00000000000000000e+00
6.83676991947084423e-01 5.27592208060387646e-01 0.00000000000000000e+00
5.76851867864560552e-01 6.80150015214880943e-01 0.00000000000000000e+00
6.75553626983668942e-01 4.26841500916694594e-01 0.00000000000000000e+00
4.26685140345474390e-01 3.26166464092641772e-01 0.00000000000000000e+00
6.10631515356501731e-01 1.28458066928510195e-01 0.00000000000000000e+00
4.14500473753359605e-02 9.24703852401535187e-01 0.00000000000000000e+00
9.23230883489800314e-01 9.59808058656139940e-01 0.00000000000000000e+00
7.84977056652310934e-02 4.43421150430521813e-02 0.00000000000000000e+00
9.57664108025565897e-01 7.52115552453670733e-02 0.00000000000000000e+00
7.21457719919000873e-01 4.42627077228270993e-01 0.00000000000000000e+00
1.59033161551932506e-01 8.75921228879749436e-01 0.00000000000000000e+00
8.66972562450011863e-02 2.92324359883951612e-01 0.00000000000000000e+00
5.48239750248797009e-01 7.23207031665173972e-01 0.00000000000000000e+00
1.16142238714968302e-01 8.65470596579081985e-01 0.00000000000000000e+00
5.62881914948106354e-01 1.17733465219438796e-01 0.00000000000000000e+00
3.09367571748709491e-01 4.82354059489524700e-01 0.00000000000000000e+00
8.80277189614915967e-01 1.68906853945047009e-01 0.00000000000000000e+00
8.86355346018295576e-01 2.10617802322813213e-01 0.00000000000000000e+00
3.85846326014182284e-01 1.13180050679198396e-01 0.00000000000000000e+00
3.40720080362077016e-01 9.90987542505162855e-02 0.00000000000000000e+00
8.21395694464237991e-01 9.85058363398312320e-02 0.00000000000000000e+00
3.37249462212038276e-01 6.08620801246855581e-01 0.00000000000000000e+00
2.74803397019244222e-01 5.15054995093322310e-01 0.00000000000000000e+00
9.91351779134159727e-02 5.20128888173183257e-01 0.00000000000000000e+00
5.21106914622397110e-01 3.18619452366188216e-01 0.00000000000000000e+00
8.90903347074346152e-01 7.35781057051755782e-01 0.00000000000000000e+00
8.57363009279396460e-01 7.69693075227309453e-01 0.00000000000000000e+00
2.06832188714554388e-01 8.88457494779899992e-01 0.00000000000000000e+00
9.22180783308030882e-01 7.04066243547737169e-01 0.00000000000000000e+00
4.25479567118568991e-01 2.50937497778353724e-01 0.00000000000000000e+00
9.51934291673808691e-02 3.47060754022053719e-01 0.00000000000000000e+00
4.84901055525989777e-01 6.87790367989589813e-01 0.00000000000000000e+00
9.04995171029975426e-02 1.61081946296217499e-01 0.00000000000000000e+00
7.29546880428951106e-01 4.97400991025701789e-01 0.00000000000000000e+00
6.72281879778516167e-01 5.83871156395846524e-01 0.00000000000000000e+00
7.16415711490077878e-01 3.84322729851124478e-01 0.00000000000000000e+00
4.12496135056951818e-01 6.69234948179446176e-01 0.00000000000000000e+00
6.42712509482539218e-01 3.21209321469728082e-01 0.00000000000000000e+00
6.11787774913402749e-01 2.93190772606303107e-01 0.00000000000000000e+00
3.22845596762808218e-01 6.50580200175850831e-01 0.00000000000000000e+00
1.69045048796484687e-01 9.21446694200125593e-01 0.00000000000000000e+00
6.88289199451277534e-01 6.35070988167244721e-01 0.00000000000000000e+00
6.79373232171202379e-01 3.54501143709673006e-01 0.00000000000000000e+00
3.76754688285684980e-01 6.91327116279884246e-02 0.00000000000000000e+00
3.30203838077707923e-01 4.66549373720806376e-02 0.00000000000000000e+00
9.00115165996117961e-01 4.27215262875280388e-01 0.00000000000000000e+00
9.14324146213531197e-01 4.70565192565665591e-01 0.00000000000000000e+00
9.24874147616920994e-01 3.87462822968491716e-01 0.00000000000000000e+00
9.03246513961660336e-01 7.81829134409488757e-01 0.00000000000000000e+00
8.69058263827118926e-01 8.17414613956849778e-01 0.00000000000000000e+00
9.18234138786075738e-01 8.31633615513542201e-01 0.00000000000000000e+00
8.79373376627268222e-01 8.66273202230676276e-01 0.00000000000000000e+00
8.33261041304382499e-01 8.51955484670949836e-01 0.00000000000000000e+00
8.43607382436262321e-01 9.08621478814336747e-01 0.00000000000000000e+00
7.97605811027484624e-01 8.86178890539389919e-01 0.00000000000000000e+00
7.17232885904967921e-01 9.04316023749206721e-01 0.00000000000000000e+00
8.99456505224672132e-01 9.16428563929351014e-01 0.00000000000000000e+00
7.61414802523720846e-01 4.15695397381952880e-01 0.00000000000000000e+00
5.16787237136508093e-01 7.55446982682896451e-01 0.00000000000000000e+00
1.68725850770947400e-01 9.54908133836865625e-02 0.00000000000000000e+00
2.13712429763222911e-01 1.10259414757184093e-01 0.00000000000000000e+00
1.20009931533901604e-01 7.76534431222408728e-02 0.00000000000000000e+00
3.78395157036787610e-01 2.40394608334777993e-01 0.00000000000000000e+00
6.70463976075760026e-01 7.15634199106065516e-01 0.00000000000000000e+00
6.24191433017566077e-01 7.01674849068388728e-01 0.00000000000000000e+00
3.43767287726881310e-01 2.74281887439889016e-01 0.00000000000000000e+00
7.86633191085560846e-01 8.37444003225563227e-01 0.00000000000000000e+00
2.69716910235081320e-01 6.42731593937800882e-01 0.00000000000000000e+00
3.34732567782951573e-01 6.99660665308473373e-01 0.00000000000000000e+00
3.00626277803734077e-01 7.35111046130255463e-01 0.00000000000000000e+00
7.39504733755420252e-01 2.97526538225892812e-01 0.00000000000000000e+00
4.82509057114343734e-02 5.21948096309732379e-01 0.00000000000000000e+00
5.24909149587491242e-01 9.58302552542566799e-01 0.00000000000000000e+00
5.47478166241806452e-01 9.16679450699089626e-01 0.00000000000000000e+00
5.97583258717347854e-01 9.15534107280991827e-01 0.00000000000000000e+00
5.70446010685121685e-01 8.69873140954952384e-01 0.00000000000000000e+00
6.22829706943944239e-01 9.57840048199303351e-01 0.00000000000000000e+00
6.70505904398788322e-01 9.58665148503749620e-01 0.00000000000000000e+00
7.61203556161503148e-01 9.17437799775352225e-01 0.00000000000000000e+00
4.74587999956691875e-01 4.30451372980846930e-02 0.00000000000000000e+00
4.50130467813764423e-01 8.62455158319971882e-02 0.00000000000000000e+00
5.00223310391983089e-01 8.48262220491087099e-02 0.00000000000000000e+00
7.39005684603095347e-01 6.48132174243511328e-01 0.00000000000000000e+00
4.24857746662535785e-01 9.57100882969229905e-01 0.00000000000000000e+00
3.99982672736793776e-01 9.15053426938405523e-01 0.00000000000000000e+00
3.51418578649794422e-01 9.16323962644330914e-01 0.00000000000000000e+00
3.25466100475561015e-01 9.56811981561497715e-01 0.00000000000000000e+00
2.75477498861194714e-01 9.57315987964880599e-01 0.00000000000000000e+00
2.49745795115840996e-01 9.10261589506246249e-01 0.00000000000000000e+00
9.56768900544494261e-01 5.75121539275079141e-01 0.00000000000000000e+00
9.06461862632738535e-01 5.99617068023626909e-01 0.00000000000000000e+00
9.15602044353198363e-01 6.54334640998731953e-01 0.00000000000000000e+00
9.14653229794363698e-01 5.49794514855300731e-01 0.00000000000000000e+00
4.33035310929984069e-02 4.24304083694359679e-01 0.00000000000000000e+00
8.62814426972222104e-02 3.99999745707606824e-01 0.00000000000000000e+00
8.46763289309909462e-02 4.48297714817119275e-01 0.00000000000000000e+00
5.75019496044978373e-01 4.07938468354976727e-02 0.00000000000000000e+00
4.29792252105421491e-02 7.75088515874030382e-01 0.00000000000000000e+00
8.65365739804274114e-02 7.51401975510904041e-01 0.00000000000000000e+00
8.53955683070631855e-02 7.02463572027648309e-01 0.00000000000000000e+00
1.27692482792882006e-01 7.26721485335345863e-01 0.00000000000000000e+00
8.08891060729742539e-02 8.01874275213178889e-01 0.00000000000000000e+00
4.31908024014827086e-02 6.75738648901064609e-01 0.00000000000000000e+00
9.39401496080760207e-02 6.49832588794663546e-01 0.00000000000000000e+00
4.42309895056975030e-02 6.25115611364174706e-01 0.00000000000000000e+00
8.43587952377868044e-02 5.94084160986814269e-01 0.00000000000000000e+00
2.24253752580377191e-01 3.98099468960715283e-02 0.00000000000000000e+00
9.59645612399744330e-01 2.25270279919374511e-01 0.00000000000000000e+00
4.70993631490178588e-01 2.64341239641652792e-01 0.00000000000000000e+00
6.02712722970685677e-01 7.84699580236352334e-01 0.00000000000000000e+00
4.32926790137888734e-02 1.74985119648069204e-01 0.00000000000000000e+00
8.22168955766388931e-01 4.78279177345557194e-02 0.00000000000000000e+00
4.48179491681976322e-02 3.22956712680783908e-01 0.00000000000000000e+00
9.59482064252726197e-01 3.24141700184693293e-01 0.00000000000000000e+00
9.15147177923689048e-01 3.02537169402415207e-01 0.00000000000000000e+00
6.74947086071771118e-01 4.30744183371809530e-02 0.00000000000000000e+00
6.50439959219560437e-01 9.27035520805047086e-02 0.00000000000000000e+00
7.03886897164157643e-01 8.57774559448054030e-02 0.00000000000000000e+00
7.25285539739003005e-01 4.28552708145814587e-02 0.00000000000000000e+00
7.50000241967365922e-01 8.62902042349656118e-02 0.00000000000000000e+00
3.94124594493152292e-01 2.90814077842024676e-01 0.00000000000000000e+00
3.95564634716786892e-02 8.74960512640190702e-01 0.00000000000000000e+00
9.58470832453514721e-01 1.25037486304573509e-01 0.00000000000000000e+00
9.18762387488993859e-01 9.69535819774073326e-02 0.00000000000000000e+00
3.01672112823851479e-01 9.13429060524520664e-01 0.00000000000000000e+00
8.57455573227513979e-01 5.93820875601997589e-01 0.00000000000000000e+00
1.81670688155412291e-01 3.17287194945150897e-01 0.00000000000000000e+00
1.17303756417540594e-01 5.59651320045069678e-01 0.00000000000000000e+00
3.01054354680640790e-01 4.35387005860746412e-01 0.00000000000000000e+00
4.48091610907233373e-01 9.18463516086202802e-01 0.00000000000000000e+00
3.54487602743222607e-01 3.20676572209710409e-01 0.00000000000000000e+00
8.81844823933060518e-01 5.14964231900399527e-01 0.00000000000000000e+00
2.40558294698599295e-01 8.54892183987268517e-01 0.00000000000000000e+00
8.55861395682102732e-01 2.42415781713059109e-01 0.00000000000000000e+00
6.55959967951620482e-01 1.43171164839797499e-01 0.00000000000000000e+00
1.10613403880189504e-01 2.11483573664512897e-01 0.00000000000000000e+00
4.14566524583384277e-01 8.51778605554259549e-01 0.00000000000000000e+00
8.10636643685834546e-01 7.55678625067687904e-01 0.00000000000000000e+00
2.37720895594143500e-01 2.02022128449702187e-01 0.00000000000000000e+00
5.28187933757583439e-01 1.51414584634659899e-01 0.00000000000000000e+00
2.28698534337082593e-01 3.29266011572529715e-01 0.00000000000000000e+00
8.22043223577449966e-01 8.03628225565511389e-01 0.00000000000000000e+00
7.49306075848382269e-01 1.69184574976544905e-01 0.00000000000000000e+00
3.06503216648984500e-01 1.33723562071512009e-01 0.00000000000000000e+00
4.71842169466481998e-01 7.33958347167100400e-01 0.00000000000000000e+00
2.25439573292410711e-01 1.55099183692845505e-01 0.00000000000000000e+00
7.40110924968188755e-01 8.23199868644121313e-01 0.00000000000000000e+00
8.71015759150540747e-01 1.15291496028677803e-01 0.00000000000000000e+00
1.94783111232178702e-01 3.63160097518013425e-01 0.00000000000000000e+00
9.14145818033961999e-01 2.51288247130291409e-01 0.00000000000000000e+00
2.60355215985489885e-01 1.22138493065850895e-01 0.00000000000000000e+00
8.69140263720195372e-01 2.88792353907961208e-01 0.00000000000000000e+00
4.19451105882672273e-02 2.73365927194942515e-01 0.00000000000000000e+00
1.47590897619687189e-01 3.50912263126073598e-01 0.00000000000000000e+00
2.94365324699896180e-01 8.75094099999872560e-02 0.00000000000000000e+00
7.51324652447099561e-01 8.70871868646409752e-01 0.00000000000000000e+00
8.73485875643271292e-01 9.57174411335614872e-01 0.00000000000000000e+00
2.42307499547182698e-01 5.49110977906111852e-01 0.00000000000000000e+00
8.67371997785046145e-01 6.41272535848003700e-01 0.00000000000000000e+00
5.97798040931876273e-01 8.33806121437781211e-02 0.00000000000000000e+00
1.22594106154677696e-01 9.13400073742595353e-01 0.00000000000000000e+00
7.90827827987635734e-02 9.54772399551267137e-01 0.00000000000000000e+00
9.51791691190400746e-01 9.20104122614935349e-01 0.00000000000000000e+00
3.99260628213619490e-02 7.23541438456049707e-02 0.00000000000000000e+00
9.21289736606605292e-01 4.64501825026759074e-02 0.00000000000000000e+00
6.56230319605506485e-01 6.71183023730254291e-01 0.00000000000000000e+00
1.26454415430729411e-01 4.24597807294064711e-01 0.00000000000000000e+00
1.69948907502346591e-01 7.48082267290951841e-01 0.00000000000000000e+00
2.64297481976211279e-01 4.67914682701435991e-01 0.00000000000000000e+00
6.24693733383358651e-01 8.76529177416829008e-01 0.00000000000000000e+00
1.32605784696763790e-01 6.05320774635691894e-01 0.00000000000000000e+00
3.46570641316006789e-01 7.48213361644305852e-01 0.00000000000000000e+00
4.31677471285259406e-01 1.26395970478578312e-01 0.00000000000000000e+00
7.22197774688540073e-01 5.52745788327730359e-01 0.00000000000000000e+00
5.66998997171725527e-01 8.22815704661104208e-01 0.00000000000000000e+00
9.58054159920337600e-01 4.81813781268108809e-01 0.00000000000000000e+00
5.62382068097649235e-01 2.96264243353073109e-01 0.00000000000000000e+00
9.32932949243304305e-02 1.13993477946108701e-01 0.00000000000000000e+00
9.66082608875141191e-01 8.26389922143300648e-01 0.00000000000000000e+00
2.84850989630149098e-01 5.60847052873580165e-01 0.00000000000000000e+00
2.30408880503549407e-01 5.02171826472263438e-01 0.00000000000000000e+00
7.87961336564344805e-02 8.97218639415384489e-01 0.00000000000000000e+00
9.59255714076524546e-01 6.77315139895247720e-01 0.00000000000000000e+00
6.49473317744753587e-01 2.73498243733969526e-01 0.00000000000000000e+00
3.33202593257666824e-01 8.74266514431034647e-01 0.00000000000000000e+00
5.13712866758387454e-01 2.74920228961063273e-01 0.00000000000000000e+00
7.30866980824065315e-01 1.25675012966373512e-01 0.00000000000000000e+00
1.23866438393703801e-01 3.35054127435792590e-02 0.00000000000000000e+00
7.91851585143278774e-02 2.43474468220130996e-01 0.00000000000000000e+00
9.60421993237529970e-01 7.31448881424568986e-01 0.00000000000000000e+00
1.60448690266741800e-01 6.98257631635691434e-01 0.00000000000000000e+00
4.95124994838199772e-01 9.16841681982558887e-01 0.00000000000000000e+00
9.20144827686960043e-01 1.48408259794763103e-01 0.00000000000000000e+00
5.58839768727934838e-01 7.67571052897384254e-01 0.00000000000000000e+00
2.44562258201818788e-01 7.90829736895907048e-02 0.00000000000000000e+00
3.70796534566092184e-01 6.73968361057649346e-01 0.00000000000000000e+00
7.59750918096602335e-01 4.54516577707636427e-01 0.00000000000000000e+00
7.12363401079847858e-01 3.29516901987887800e-01 0.00000000000000000e+00
7.76445812145803993e-01 9.60787186194335119e-01 0.00000000000000000e+00
5.95991094520706088e-01 2.54165098423808411e-01 0.00000000000000000e+00
7.60960252568587459e-01 5.27966425901375436e-01 0.00000000000000000e+00
9.64258645349917565e-01 3.74318082460152690e-01 0.00000000000000000e+00
8.85748413712223570e-01 3.82414894909926917e-01 0.00000000000000000e+00
5.48337553248557374e-01 7.93968772785099697e-02 0.00000000000000000e+00
1.79396847796554904e-01 9.62343702875511964e-01 0.00000000000000000e+00
5.93299890811472608e-01 7.38015299152391835e-01 0.00000000000000000e+00
7.81488651139691237e-02 5.54185687177466857e-01 0.00000000000000000e+00
9.20628529478537683e-01 3.47008764358785526e-01 0.00000000000000000e+00
2.98064517970127008e-01 6.06069441017436428e-01 0.00000000000000000e+00
6.43917611475896545e-01 9.19551098303837300e-01 0.00000000000000000e+00
1.22685117260651302e-01 3.82636344386980687e-01 0.00000000000000000e+00
4.45495762474125423e-01 6.92747944571436847e-01 0.00000000000000000e+00
3.80082778387482390e-01 8.81580115435387501e-01 0.00000000000000000e+00
6.16828320530525498e-01 6.60387681821633210e-01 0.00000000000000000e+00
8.53016395635531000e-01 7.55932671727015948e-02 0.00000000000000000e+00
9.19539009683549957e-01 8.81534452282165981e-01 0.00000000000000000e+00
3.89198559267559308e-01 3.36063634195882810e-01 0.00000000000000000e+00
6.65173329392260038e-01 3.88441328909271022e-01 0.00000000000000000e+00
5.34311662817111066e-01 8.41312138681273747e-01 0.00000000000000000e+00
1.23104944451532694e-01 6.86596644197279837e-01 0.00000000000000000e+00
4.11720581331263324e-01 8.23966530634045735e-02 0.00000000000000000e+00
7.67159383021041308e-02 8.49058173946037775e-01 0.00000000000000000e+00
4.38364633538390391e-01 2.88620854652702208e-01 0.00000000000000000e+00
8.02517462053304320e-01 9.24851610046082739e-01 0.00000000000000000e+00
9.63397459621402774e-01 9.63397459621423202e-01 0.00000000000000000e+00
3.66025403785845901e-02 9.63397459621415431e-01 0.00000000000000000e+00
3.66025403783218906e-02 3.66025403784045189e-02 0.00000000000000000e+00
9.63397459621602947e-01 3.66025403783348871e-02 0.00000000000000000e+00
3.27692832144273583e-01 5.70581941793151026e-01 0.00000000000000000e+00
7.22280911120111446e-02 1.99987590257428405e-01 0.00000000000000000e+00
6.87397112818219802e-01 1.21625771300564497e-01 0.00000000000000000e+00
5.24738903537125490e-01 1.13806685736162899e-01 0.00000000000000000e+00
9.26036719917799678e-01 1.99185516674544399e-01 0.00000000000000000e+00
7.88366491780034151e-01 7.97614547377705346e-02 0.00000000000000000e+00
9.27837942738185983e-01 7.50597925894604834e-01 0.00000000000000000e+00
8.78924224122969111e-01 5.63383804288522527e-01 0.00000000000000000e+00
2.01223469328905197e-01 7.20307769648765861e-02 0.00000000000000000e+00
5.10527842733659920e-01 7.16615443043455036e-01 0.00000000000000000e+00
7.93111485714816100e-02 4.86641081175239187e-01 0.00000000000000000e+00
3.75158922928653382e-01 2.96305617262955304e-02 0.00000000000000000e+00
7.67144452349700967e-01 3.77858169428284207e-01 0.00000000000000000e+00
9.23769637927272402e-01 5.11790949545847695e-01 0.00000000000000000e+00
2.08234506538600511e-01 9.24623175486371185e-01 0.00000000000000000e+00
6.85926501892568541e-01 9.23404160530485685e-01 0.00000000000000000e+00
7.73800761232797535e-02 8.11829525425928344e-02 0.00000000000000000e+00
1.10332991426928304e-01 8.27055438599004877e-01 0.00000000000000000e+00
6.78890351331300046e-01 3.15010797901863204e-01 0.00000000000000000e+00
8.86889649595945517e-01 7.60569013224544205e-02 0.00000000000000000e+00
4.24741301503579582e-01 8.89112884906965606e-01 0.00000000000000000e+00
7.89273060096563395e-01 4.40195159119061208e-01 0.00000000000000000e+00


        </DataArray>

      </Points>

      <Cells>

        <DataArray type="Int32" Name="connectivity" format="ascii">

113 301 365 168 447 456 319 105 321 92 286 399 272 335 476 305 219 312 321 105 449 219 305 444 136 92 399 301 113 383 129 324 427 316 122 317 188 306 468 431 432 452 283 272 476 130 330 332 270 96 447 317 122 446 431 132 432 130 332 458 265 266 307 255 374 441 256 359 403 306 313 468 305 271 444 447 295 456 418 394 463 195 304 467 400 263 462 134 303 381 287 418 463 404 420 422 277 327 433 295 117 456 396 361 429 324 327 427 433 327 486 344 264 346 304 280 467 380 445 464 374 376 441 263 264 462 312 219 353 100 305 312 271 118 304 275 387 405 218 351 352 346 264 489 96 295 447 303 134 448 172 454 470 118 280 304 269 312 353 366 228 509 359 256 395 265 307 482 240 238 340 454 309 470 93 92 136 92 6 286 88 5 302 99 98 273 87 86 272 95 94 274 97 96 270 453 40 460 287 463 503 101 89 307 100 85 305 7 117 295 4 118 271 84 271 305 361 362 429 304 195 471 339 310 466 13 14 315 447 168 470 288 287 503 445 262 464 257 310 339 359 298 403 282 301 383 310 257 338 306 188 511 88 302 482 294 342 509 420 385 422 342 294 477 110 13 315 310 101 466 259 369 371 272 86 484 351 218 443 271 304 444 387 275 430 274 94 487 273 98 488 365 301 481 117 379 456 101 307 466 299 453 460 243 240 340 91 90 499 228 366 437 404 288 420 228 294 509 90 292 499 428 230 451 307 266 466 238 257 340 339 266 442 444 304 471 279 394 435 227 390 504 369 259 372 133 321 449 324 129 494 340 339 442 390 227 457 325 349 426 311 132 431 346 214 440 122 316 318 321 133 486 380 214 445 299 224 362 349 326 426 293 428 451 479 450 499 109 326 349 259 371 438 282 383 423 313 306 488 432 276 452 132 311 475 405 387 501 332 278 458 308 454 517 245 243 442 293 116 450 435 394 518 374 255 490 312 269 436 388 390 457 110 315 425 292 479 499 243 340 442 214 346 445 361 396 506 257 339 340 415 265 482 72 120 375 302 415 482 382 291 504 473 223 478 375 120 376 327 277 427 358 359 395 374 375 376 428 293 450 388 389 390 299 362 453 109 51 348 368 369 372 60 104 358 148 333 336 337 210 412 128 368 372 52 347 348 220 176 341 269 207 334 71 72 375 358 104 359 315 14 510 219 200 353 140 142 336 366 365 437 336 391 401 148 150 333 323 337 412 200 202 353 257 236 338 121 350 351 399 286 439 52 53 347 388 386 389 123 343 344 142 148 336 364 365 366 360 361 363 124 364 366 357 59 358 126 360 363 176 178 341 300 164 379 333 300 391 70 71 373 386 21 389 120 73 342 121 16 350 123 54 343 51 52 348 127 56 354 126 37 360 124 75 364 125 18 367 250 249 265 59 60 358 58 59 357 384 472 478 334 215 335 373 71 375 162 164 300 350 125 352 248 245 249 368 108 369 181 183 188 205 207 269 360 114 361 115 386 387 364 113 365 234 232 261 345 344 346 351 350 352 69 108 368 357 358 395 354 112 355 127 354 400 192 194 195 202 205 353 111 384 385 248 249 250 207 209 334 369 370 371 262 252 329 196 198 199 199 200 219 123 344 345 369 108 370 265 249 266 209 215 334 209 212 215 389 107 390 106 80 381 107 23 382 162 163 164 150 162 333 130 11 377 131 30 378 178 181 341 387 386 388 205 269 353 74 124 342 55 127 343 17 125 350 133 433 486 336 333 391 164 165 166 234 261 338 57 112 354 38 114 360 76 113 364 19 115 367 361 114 362 111 32 384 115 20 386 22 107 389 355 112 356 323 325 337 113 77 383 72 73 120 15 16 121 34 35 122 53 54 123 164 166 379 181 188 341 238 236 257 150 161 162 174 176 220 55 56 127 74 75 124 36 37 126 17 18 125 53 123 347 244 243 245 236 234 338 166 167 168 69 70 108 60 61 104 57 58 112 50 51 109 38 39 114 41 42 105 12 13 110 79 80 106 76 77 113 31 32 111 19 20 115 22 23 107 12 110 377 31 111 378 199 198 200 181 182 183 195 194 196 183 186 187 231 230 232 128 68 368 162 300 333 229 157 230 247 245 248 108 70 373 215 212 380 242 240 243 308 309 454 370 373 374 205 206 207 73 74 342 16 17 350 54 55 343 329 252 415 178 180 181 67 128 392 29 131 393 202 204 205 250 265 415 56 57 354 37 38 360 75 76 364 18 19 367 187 191 192 32 33 384 233 232 234 20 21 386 21 22 389 81 134 381 24 135 382 77 78 383 68 69 368 112 58 357 80 81 381 23 24 382 207 208 209 251 250 252 67 68 128 48 49 129 10 11 130 29 30 131 169 171 172 279 393 394 162 161 163 11 12 377 30 31 378 164 163 165 209 211 212 323 324 325 276 66 392 279 28 393 235 234 236 212 214 380 66 67 392 28 29 393 320 322 323 172 173 174 408 297 412 242 243 244 140 336 401 370 108 373 62 63 132 43 44 133 81 82 134 24 25 135 192 193 194 166 165 167 65 66 276 46 47 277 8 9 278 27 28 279 229 230 231 168 167 169 155 145 397 181 180 182 253 252 262 205 204 206 196 197 198 226 330 331 244 245 247 183 182 186 268 155 397 142 147 148 231 232 233 138 136 399 356 357 395 123 345 347 374 373 375 248 250 251 323 322 324 187 186 191 356 112 357 233 234 235 148 149 150 207 206 208 174 175 176 267 155 268 210 408 412 209 208 211 212 213 214 172 171 173 180 179 404 281 254 298 237 236 238 190 184 227 446 126 512 151 138 399 320 323 412 192 191 193 216 296 297 189 287 288 354 355 400 282 268 301 200 201 202 246 258 259 174 173 175 235 236 237 397 145 411 176 177 178 144 138 151 152 151 153 150 160 161 297 319 320 239 238 240 324 322 327 179 189 404 320 321 322 156 153 157 178 179 180 241 240 242 200 198 201 378 111 420 251 252 253 216 297 408 196 194 197 281 298 311 212 211 213 148 147 149 98 97 103 94 93 102 90 89 101 86 85 100 228 157 229 227 184 413 202 203 204 242 244 256 134 434 515 190 227 291 146 158 221 169 170 171 260 222 303 5 87 119 4 99 118 7 95 117 6 91 116 248 251 407 229 231 398 297 296 319 239 240 241 320 319 321 237 238 239 137 139 140 239 241 246 96 7 295 89 88 307 409 221 416 85 84 305 176 175 177 267 268 282 84 4 271 330 260 332 226 260 330 154 409 416 221 222 226 178 177 179 258 281 284 186 182 223 198 197 396 258 254 281 210 337 417 298 254 403 208 206 210 150 149 160 189 190 287 204 203 216 189 184 190 179 177 184 309 447 470 202 201 203 246 254 258 246 241 254 158 155 267 175 173 185 233 235 255 102 137 401 194 193 402 140 141 142 225 217 326 146 155 158 142 143 147 165 163 218 226 222 260 146 145 155 179 184 189 216 203 224 385 223 422 90 101 292 216 224 296 102 93 136 161 160 289 213 211 217 226 331 416 296 224 299 221 158 222 169 167 170 247 248 407 289 160 290 149 147 154 144 151 152 213 217 225 189 288 404 143 141 145 242 256 403 6 116 286 314 290 315 241 242 403 193 316 317 152 153 156 5 119 302 118 99 273 103 97 270 454 220 517 119 87 272 275 285 430 117 95 274 251 263 407 156 157 228 263 253 264 201 198 396 142 141 143 103 308 313 275 170 285 143 145 146 228 229 294 193 191 316 448 134 515 140 139 141 171 170 275 289 290 314 197 194 402 152 156 159 137 136 138 137 140 401 137 138 139 383 78 423 139 138 144 251 253 263 254 241 403 308 270 309 102 136 137 294 229 398 218 352 502 280 273 306 297 320 412 79 106 423 204 216 408 303 222 406 193 317 402 292 101 310 280 306 328 173 171 405 206 204 408 146 221 409 100 312 436 103 270 308 286 116 293 158 267 406 118 273 280 252 250 415 210 206 408 222 158 406 171 275 405 119 272 283 167 165 410 154 147 409 147 143 409 185 173 405 143 146 409 177 175 413 184 177 413 175 185 413 287 190 418 115 387 430 376 398 441 388 457 501 165 218 410 149 154 414 264 344 462 160 149 414 290 160 414 328 306 511 170 167 410 141 139 411 139 144 411 217 211 417 208 210 417 285 170 410 145 141 411 221 226 416 278 332 515 301 268 424 232 230 428 211 208 417 190 291 418 269 334 436 419 159 424 111 385 420 397 411 419 362 224 429 48 129 427 152 159 419 180 404 422 223 182 422 121 314 510 277 47 427 154 416 421 291 227 504 345 346 440 414 154 421 337 325 426 217 417 426 416 331 421 411 144 419 306 273 488 315 290 425 144 152 419 397 419 424 317 446 512 151 399 439 291 382 485 249 245 442 63 64 432 44 45 433 82 83 434 25 26 435 417 337 426 307 88 482 318 473 478 182 180 422 281 311 431 224 203 429 246 259 438 398 376 477 237 239 438 201 396 429 78 79 423 268 397 424 127 400 462 122 35 446 36 126 446 398 231 441 233 255 441 286 293 439 213 225 440 156 228 437 237 438 461 443 289 491 326 217 426 105 42 449 261 232 428 47 48 427 395 256 455 220 341 468 290 414 425 161 289 443 43 133 449 230 157 451 166 168 456 218 163 443 356 395 455 362 114 453 430 285 474 414 421 425 326 109 514 391 300 493 172 174 454 352 125 474 274 391 493 367 115 430 344 343 462 203 201 429 122 318 472 39 40 453 260 303 448 334 335 436 109 349 469 376 120 477 284 281 431 10 130 458 439 293 451 278 9 458 86 100 484 378 420 503 335 272 484 132 63 432 133 44 433 134 82 434 135 25 435 394 393 463 40 41 460 244 247 455 401 391 487 187 328 511 239 246 438 335 215 476 348 347 480 437 365 481 159 156 437 50 109 469 384 33 472 153 151 439 472 318 478 231 233 441 214 213 440 195 196 471 34 122 472 318 316 473 104 475 513 129 49 469 104 61 475 266 249 442 169 172 470 255 235 461 62 132 475 420 288 503 406 267 459 438 371 461 227 413 457 391 274 487 342 124 509 192 195 520 128 372 492 370 374 490 183 187 511 351 443 491 107 382 504 314 315 510 186 223 473 266 339 466 316 191 473 15 121 510 372 259 516 387 388 501 153 439 451 2 46 495 45 2 495 64 3 496 3 65 496 83 0 497 26 1 498 0 8 497 1 27 498 163 161 443 199 219 444 322 321 486 402 363 506 253 262 489 283 329 508 94 102 487 98 103 488 109 348 514 247 407 483 363 361 506 259 258 516 35 36 446 367 430 474 197 402 506 381 303 500 310 338 479 406 459 500 332 260 448 301 424 481 119 283 508 42 43 449 309 270 447 129 469 494 314 121 491 284 431 452 483 407 519 325 324 494 157 153 451 276 392 452 199 444 471 410 218 502 114 39 453 174 220 454 294 398 477 423 106 459 195 467 520 379 166 456 223 385 478 256 244 455 284 452 492 296 299 505 329 283 464 262 445 489 440 225 480 9 10 458 421 331 465 436 335 484 100 436 484 261 428 450 352 474 502 261 450 479 413 185 457 475 311 513 343 127 462 41 105 460 159 437 481 385 384 478 348 480 514 282 423 459 235 237 461 267 282 459 393 131 463 110 425 465 377 110 465 262 329 464 425 421 465 292 310 479 105 319 505 329 415 508 465 331 507 341 188 468 452 392 492 455 247 483 280 328 467 415 302 508 125 367 474 345 440 480 49 50 469 196 199 471 120 342 477 168 169 470 135 435 518 33 34 472 215 380 476 61 62 475 191 186 473 459 106 500 492 372 516 463 131 503 457 185 501 338 261 479 377 465 507 349 325 494 380 464 476 445 346 489 220 468 517 347 345 480 263 400 519 330 130 507 379 117 493 382 135 485 303 406 500 298 359 513 407 263 519 355 356 483 328 187 520 299 460 505 255 461 490 359 104 513 363 402 512 300 379 493 121 351 491 469 349 494 117 274 493 434 83 497 432 64 496 433 45 495 435 26 498 371 370 490 327 322 486 102 401 487 103 313 488 392 128 492 264 253 489 424 159 481 355 483 519 289 314 491 418 291 485 331 330 507 106 381 500 319 296 505 46 277 495 65 276 496 8 278 497 27 279 498 464 283 476 131 378 503 402 317 512 130 377 507 390 107 504 116 91 499 124 366 509 126 363 512 188 183 511 14 15 510 396 197 506 187 192 520 356 455 483 185 405 501 313 308 517 394 418 518 285 410 502 302 119 508 311 298 513 258 284 516 400 355 519 225 326 514 276 432 496 277 433 495 278 434 497 279 435 498 474 285 502 480 225 514 450 116 499 461 371 490 434 278 515 332 448 515 460 105 505 467 328 520 468 313 517 284 492 516 418 485 518 485 135 518 

        </DataArray>

        <DataArray type="Int32" Name="offsets" format="ascii">

3 6 9 12 15 18 21 24 27 30 33 36 39 42 45 48 51 54 57 60 63 66 69 72 75 78 81 84 87 90 93 96 99 102 105 108 111 114 117 120 123 126 129 132 135 138 141 144 147 150 153 156 159 162 165 168 171 174 177 180 183 186 189 192 195 198 201 204 207 210 213 216 219 222 225 228 231 234 237 240 243 246 249 252 255 258 261 264 267 270 273 276 279 282 285 288 291 294 297 300 303 306 309 312 315 318 321 324 327 330 333 336 339 342 345 348 351 354 357 360 363 366 369 372 375 378 381 384 387 390 393 396 399 402 405 408 411 414 417 420 423 426 429 432 435 438 441 444 447 450 453 456 459 462 465 468 471 474 477 480 483 486 489 492 495 498 501 504 507 510 513 516 519 522 525 528 531 534 537 540 543 546 549 552 555 558 561 564 567 570 573 576 579 582 585 588 591 594 597 600 603 606 609 612 615 618 621 624 627 630 633 636 639 642 645 648 651 654 657 660 663 666 669 672 675 678 681 684 687 690 693 696 699 702 705 708 711 714 717 720 723 726 729 732 735 738 741 744 747 750 753 756 759 762 765 768 771 774 777 780 783 786 789 792 795 798 801 804 807 810 813 816 819 822 825 828 831 834 837 840 843 846 849 852 855 858 861 864 867 870 873 876 879 882 885 888 891 894 897 900 903 906 909 912 915 918 921 924 927 930 933 936 939 942 945 948 951 954 957 960 963 966 969 972 975 978 981 984 987 990 993 996 999 1002 1005 1008 1011 1014 1017 1020 1023 1026 1029 1032 1035 1038 1041 1044 1047 1050 1053 1056 1059 1062 1065 1068 1071 1074 1077 1080 1083 1086 1089 1092 1095 1098 1101 1104 1107 1110 1113 1116 1119 1122 1125 1128 1131 1134 1137 1140 1143 1146 1149 1152 1155 1158 1161 1164 1167 1170 1173 1176 1179 1182 1185 1188 1191 1194 1197 1200 1203 1206 1209 1212 1215 1218 1221 1224 1227 1230 1233 1236 1239 1242 1245 1248 1251 1254 1257 1260 1263 1266 1269 1272 1275 1278 1281 1284 1287 1290 1293 1296 1299 1302 1305 1308 1311 1314 1317 1320 1323 1326 1329 1332 1335 1338 1341 1344 1347 1350 1353 1356 1359 1362 1365 1368 1371 1374 1377 1380 1383 1386 1389 1392 1395 1398 1401 1404 1407 1410 1413 1416 1419 1422 1425 1428 1431 1434 1437 1440 1443 1446 1449 1452 1455 1458 1461 1464 1467 1470 1473 1476 1479 1482 1485 1488 1491 1494 1497 1500 1503 1506 1509 1512 1515 1518 1521 1524 1527 1530 1533 1536 1539 1542 1545 1548 1551 1554 1557 1560 1563 1566 1569 1572 1575 1578 1581 1584 1587 1590 1593 1596 1599 1602 1605 1608 1611 1614 1617 1620 1623 1626 1629 1632 1635 1638 1641 1644 1647 1650 1653 1656 1659 1662 1665 1668 1671 1674 1677 1680 1683 1686 1689 1692 1695 1698 1701 1704 1707 1710 1713 1716 1719 1722 1725 1728 1731 1734 1737 1740 1743 1746 1749 1752 1755 1758 1761 1764 1767 1770 1773 1776 1779 1782 1785 1788 1791 1794 1797 1800 1803 1806 1809 1812 1815 1818 1821 1824 1827 1830 1833 1836 1839 1842 1845 1848 1851 1854 1857 1860 1863 1866 1869 1872 1875 1878 1881 1884 1887 1890 1893 1896 1899 1902 1905 1908 1911 1914 1917 1920 1923 1926 1929 1932 1935 1938 1941 1944 1947 1950 1953 1956 1959 1962 1965 1968 1971 1974 1977 1980 1983 1986 1989 1992 1995 1998 2001 2004 2007 2010 2013 2016 2019 2022 2025 2028 2031 2034 2037 2040 2043 2046 2049 2052 2055 2058 2061 2064 2067 2070 2073 2076 2079 2082 2085 2088 2091 2094 2097 2100 2103 2106 2109 2112 2115 2118 2121 2124 2127 2130 2133 2136 2139 2142 2145 2148 2151 2154 2157 2160 2163 2166 2169 2172 2175 2178 2181 2184 2187 2190 2193 2196 2199 2202 2205 2208 2211 2214 2217 2220 2223 2226 2229 2232 2235 2238 2241 2244 2247 2250 2253 2256 2259 2262 2265 2268 2271 2274 2277 2280 2283 2286 2289 2292 2295 2298 2301 2304 2307 2310 2313 2316 2319 2322 2325 2328 2331 2334 2337 2340 2343 2346 2349 2352 2355 2358 2361 2364 2367 2370 2373 2376 2379 2382 2385 2388 2391 2394 2397 2400 2403 2406 2409 2412 2415 2418 2421 2424 2427 2430 2433 2436 2439 2442 2445 2448 2451 2454 2457 2460 2463 2466 2469 2472 2475 2478 2481 2484 2487 2490 2493 2496 2499 2502 2505 2508 2511 2514 2517 2520 2523 2526 2529 2532 2535 2538 2541 2544 2547 2550 2553 2556 2559 2562 2565 2568 2571 2574 2577 2580 2583 2586 2589 2592 2595 2598 2601 2604 2607 2610 2613 2616 2619 2622 2625 2628 2631 2634 2637 2640 2643 2646 2649 2652 2655 2658 2661 2664 2667 2670 2673 2676 2679 2682 2685 2688 2691 2694 2697 2700 2703 2706 2709 2712 2715 2718 2721 2724 2727 2730 2733 2736 2739 2742 2745 2748 2751 2754 2757 2760 2763 2766 2769 2772 2775 2778 2781 2784 2787 2790 2793 2796 2799 2802 2805 2808 2811 2814 2817 2820 2823 2826 

        </DataArray>

        <DataArray type="Int32" Name="types" format="ascii">

5 5 5 5 5 5 5 5 5 5 5 5 5 5 5 5 5 5 5 5 5 5 5 5 5 5 5 5 5 5 5 5 5 5 5 5 5 5 5 5 5 5 5 5 5 5 5 5 5 5 5 5 5 5 5 5 5 5 5 5 5 5 5 5 5 5 5 5 5 5 5 5 5 5 5 5 5 5 5 5 5 5 5 5 5 5 5 5 5 5 5 5 5 5 5 5 5 5 5 5 5 5 5 5 5 5 5 5 5 5 5 5 5 5 5 5 5 5 5 5 5 5 5 5 5 5 5 5 5 5 5 5 5 5 5 5 5 5 5 5 5 5 5 5 5 5 5 5 5 5 5 5 5 5 5 5 5 5 5 5 5 5 5 5 5 5 5 5 5 5 5 5 5 5 5 5 5 5 5 5 5 5 5 5 5 5 5 5 5 5 5 5 5 5 5 5 5 5 5 5 5 5 5 5 5 5 5 5 5 5 5 5 5 5 5 5 5 5 5 5 5 5 5 5 5 5 5 5 5 5 5 5 5 5 5 5 5 5 5 5 5 5 5 5 5 5 5 5 5 5 5 5 5 5 5 5 5 5 5 5 5 5 5 5 5 5 5 5 5 5 5 5 5 5 5 5 5 5 5 5 5 5 5 5 5 5 5 5 5 5 5 5 5 5 5 5 5 5 5 5 5 5 5 5 5 5 5 5 5 5 5 5 5 5 5 5 5 5 5 5 5 5 5 5 5 5 5 5 5 5 5 5 5 5 5 5 5 5 5 5 5 5 5 5 5 5 5 5 5 5 5 5 5 5 5 5 5 5 5 5 5 5 5 5 5 5 5 5 5 5 5 5 5 5 5 5 5 5 5 5 5 5 5 5 5 5 5 5 5 5 5 5 5 5 5 5 5 5 5 5 5 5 5 5 5 5 5 5 5 5 5 5 5 5 5 5 5 5 5 5 5 5 5 5 5 5 5 5 5 5 5 5 5 5 5 5 5 5 5 5 5 5 5 5 5 5 5 5 5 5 5 5 5 5 5 5 5 5 5 5 5 5 5 5 5 5 5 5 5 5 5 5 5 5 5 5 5 5 5 5 5 5 5 5 5 5 5 5 5 5 5 5 5 5 5 5 5 5 5 5 5 5 5 5 5 5 5 5 5 5 5 5 5 5 5 5 5 5 5 5 5 5 5 5 5 5 5 5 5 5 5 5 5 5 5 5 5 5 5 5 5 5 5 5 5 5 5 5 5 5 5 5 5 5 5 5 5 5 5 5 5 5 5 5 5 5 5 5 5 5 5 5 5 5 5 5 5 5 5 5 5 5 5 5 5 5 5 5 5 5 5 5 5 5 5 5 5 5 5 5 5 5 5 5 5 5 5 5 5 5 5 5 5 5 5 5 5 5 5 5 5 5 5 5 5 5 5 5 5 5 5 5 5 5 5 5 5 5 5 5 5 5 5 5 5 5 5 5 5 5 5 5 5 5 5 5 5 5 5 5 5 5 5 5 5 5 5 5 5 5 5 5 5 5 5 5 5 5 5 5 5 5 5 5 5 5 5 5 5 5 5 5 5 5 5 5 5 5 5 5 5 5 5 5 5 5 5 5 5 5 5 5 5 5 5 5 5 5 5 5 5 5 5 5 5 5 5 5 5 5 5 5 5 5 5 5 5 5 5 5 5 5 5 5 5 5 5 5 5 5 5 5 5 5 5 5 5 5 5 5 5 5 5 5 5 5 5 5 5 5 5 5 5 5 5 5 5 5 5 5 5 5 5 5 5 5 5 5 5 5 5 5 5 5 5 5 5 5 5 5 5 5 5 5 5 5 5 5 5 5 5 5 5 5 5 5 5 5 5 5 5 5 5 5 5 5 5 5 5 5 5 5 5 5 5 5 5 5 5 5 5 5 5 5 5 5 5 5 5 5 5 5 5 5 5 5 5 5 5 5 5 5 5 5 5 5 5 5 5 5 5 5 5 5 5 5 5 5 5 5 5 5 5 5 5 5 5 5 5 5 5 5 5 5 5 5 5 5 5 5 5 5 5 5 5 5 5 5 5 5 5 5 5 5 5 5 5 5 5 5 5 5 5 5 5 5 5 5 5 5 5 5 5 5 5 5 5 5 5 5 5 5 

        </DataArray>

      </Cells>

    </Piece>

  </UnstructuredGrid>

</VTKFile>

