<?xml version="1.0"?>

<VTKFile type="UnstructuredGrid" version="0.1">

  <UnstructuredGrid>

    <Piece NumberOfPoints="81" NumberOfCells="128">

      <PointData>

        <DataArray type="Float64" Name="T_exacte" format="ascii">

0.00000000000000000e+00
4.00000000000000000e+00
0.00000000000000000e+00
4.00000000000000000e+00
4.99999999999095224e-01
9.99999999997648215e-01
1.49999999999618994e+00
1.99999999999477596e+00
2.49999999999604983e+00
2.99999999999736700e+00
3.49999999999868283e+00
4.99999999999095224e-01
9.99999999997648215e-01
1.49999999999618994e+00
1.99999999999477596e+00
2.49999999999604983e+00
2.99999999999736700e+00
3.49999999999868283e+00
0.00000000000000000e+00
0.00000000000000000e+00
0.00000000000000000e+00
0.00000000000000000e+00
0.00000000000000000e+00
0.00000000000000000e+00
0.00000000000000000e+00
4.00000000000000000e+00
4.00000000000000000e+00
4.00000000000000000e+00
4.00000000000000000e+00
4.00000000000000000e+00
4.00000000000000000e+00
4.00000000000000000e+00
4.99999999999095279e-01
4.99999999999095224e-01
4.99999999999095279e-01
4.99999999999095279e-01
4.99999999999095279e-01
4.99999999999095279e-01
4.99999999999095390e-01
9.99999999997648215e-01
9.99999999997648104e-01
9.99999999997648215e-01
9.99999999997647993e-01
9.99999999997647882e-01
9.99999999997648215e-01
9.99999999997647993e-01
1.49999999999619105e+00
1.49999999999619105e+00
1.49999999999618994e+00
1.49999999999619105e+00
1.49999999999618994e+00
1.49999999999619105e+00
1.49999999999619105e+00
1.99999999999477596e+00
1.99999999999477596e+00
1.99999999999477596e+00
1.99999999999477596e+00
1.99999999999477596e+00
1.99999999999477596e+00
1.99999999999477596e+00
2.49999999999604983e+00
2.49999999999604983e+00
2.49999999999604983e+00
2.49999999999604894e+00
2.49999999999604983e+00
2.49999999999604983e+00
2.49999999999604983e+00
2.99999999999736611e+00
2.99999999999736700e+00
2.99999999999736611e+00
2.99999999999736700e+00
2.99999999999736700e+00
2.99999999999736700e+00
2.99999999999736700e+00
3.49999999999868283e+00
3.49999999999868194e+00
3.49999999999868283e+00
3.49999999999868283e+00
3.49999999999868283e+00
3.49999999999868283e+00
3.49999999999868283e+00


        </DataArray>

        <DataArray type="Float64" Name="T_exporte" format="ascii">

0.00000000000000000e+00
3.25466742902443462e+00
0.00000000000000000e+00
2.92938063990126984e+00
-4.56759067939275898e-01
-1.00439069089460697e+00
-1.87962740532254058e+00
8.76180552202627250e-01
1.63430671055909826e+00
2.21597303033776161e+00
2.74155042405061788e+00
-6.59173890480691971e-01
-1.67361824814347382e+00
-5.41680464094102021e+00
-4.71814630171372151e-01
9.44021831810102019e-01
1.76434095279409786e+00
2.38962969369226563e+00
0.00000000000000000e+00
0.00000000000000000e+00
0.00000000000000000e+00
0.00000000000000000e+00
0.00000000000000000e+00
0.00000000000000000e+00
0.00000000000000000e+00
3.23989283308450782e+00
3.20668367249759578e+00
3.16049043374235383e+00
3.10614960662570949e+00
3.04825683288939686e+00
2.99290951592325305e+00
2.94934892343527721e+00
-4.71975667334061488e-01
-4.95738590433418780e-01
-5.14004578676443669e-01
-5.29724505741464680e-01
-5.50896146524582186e-01
-5.85603830878230203e-01
-6.33211440086463462e-01
-1.09805868605890722e+00
-1.17052870728000724e+00
-1.20979427943143736e+00
-1.23706373831524052e+00
-1.27699559603424584e+00
-1.35905586392051614e+00
-1.51190958161684619e+00
-2.63519680943359669e+00
-2.84513814355396644e+00
-2.89818596271755435e+00
-2.91064919144008982e+00
-2.94476669129387769e+00
-3.09091340157799976e+00
-3.60291918716183313e+00
6.76261669417683509e-01
5.55190756684923459e-01
4.74453477340701535e-01
4.03116369972764232e-01
3.14698244206252142e-01
1.75731871671585715e-01
-6.64010168356000685e-02
1.57575390222394107e+00
1.50591356461956072e+00
1.43772997618994847e+00
1.36699420848914732e+00
1.28513956777098959e+00
1.18319683688905752e+00
1.05889687908600738e+00
2.19016676748216899e+00
2.14397674798593219e+00
2.08788706098036370e+00
2.02487193991976344e+00
1.95511854853878098e+00
1.88018358114978645e+00
1.80856184354547156e+00
2.72526107912216808e+00
2.68930659628399393e+00
2.64067746349455401e+00
2.58402210177815350e+00
2.52305845060828426e+00
2.46305682307455642e+00
2.41355021684781290e+00


        </DataArray>

      </PointData>

      <CellData/>

      <Points>

        <DataArray type="Float64" Name="Position" NumberOfComponents="3" format="ascii">

0.00000000000000000e+00 0.00000000000000000e+00 0.00000000000000000e+00
4.00000000000000000e+00 0.00000000000000000e+00 0.00000000000000000e+00
0.00000000000000000e+00 4.00000000000000000e+00 0.00000000000000000e+00
4.00000000000000000e+00 4.00000000000000000e+00 0.00000000000000000e+00
4.99999999999095224e-01 0.00000000000000000e+00 0.00000000000000000e+00
9.99999999997648215e-01 0.00000000000000000e+00 0.00000000000000000e+00
1.49999999999618994e+00 0.00000000000000000e+00 0.00000000000000000e+00
1.99999999999477596e+00 0.00000000000000000e+00 0.00000000000000000e+00
2.49999999999604983e+00 0.00000000000000000e+00 0.00000000000000000e+00
2.99999999999736700e+00 0.00000000000000000e+00 0.00000000000000000e+00
3.49999999999868283e+00 0.00000000000000000e+00 0.00000000000000000e+00
4.99999999999095224e-01 4.00000000000000000e+00 0.00000000000000000e+00
9.99999999997648215e-01 4.00000000000000000e+00 0.00000000000000000e+00
1.49999999999618994e+00 4.00000000000000000e+00 0.00000000000000000e+00
1.99999999999477596e+00 4.00000000000000000e+00 0.00000000000000000e+00
2.49999999999604983e+00 4.00000000000000000e+00 0.00000000000000000e+00
2.99999999999736700e+00 4.00000000000000000e+00 0.00000000000000000e+00
3.49999999999868283e+00 4.00000000000000000e+00 0.00000000000000000e+00
0.00000000000000000e+00 4.99999999999095224e-01 0.00000000000000000e+00
0.00000000000000000e+00 9.99999999997648215e-01 0.00000000000000000e+00
0.00000000000000000e+00 1.49999999999618994e+00 0.00000000000000000e+00
0.00000000000000000e+00 1.99999999999477596e+00 0.00000000000000000e+00
0.00000000000000000e+00 2.49999999999604983e+00 0.00000000000000000e+00
0.00000000000000000e+00 2.99999999999736700e+00 0.00000000000000000e+00
0.00000000000000000e+00 3.49999999999868283e+00 0.00000000000000000e+00
4.00000000000000000e+00 4.99999999999095224e-01 0.00000000000000000e+00
4.00000000000000000e+00 9.99999999997648215e-01 0.00000000000000000e+00
4.00000000000000000e+00 1.49999999999618994e+00 0.00000000000000000e+00
4.00000000000000000e+00 1.99999999999477596e+00 0.00000000000000000e+00
4.00000000000000000e+00 2.49999999999604983e+00 0.00000000000000000e+00
4.00000000000000000e+00 2.99999999999736700e+00 0.00000000000000000e+00
4.00000000000000000e+00 3.49999999999868283e+00 0.00000000000000000e+00
4.99999999999095279e-01 4.99999999999095390e-01 0.00000000000000000e+00
4.99999999999095224e-01 9.99999999997647993e-01 0.00000000000000000e+00
4.99999999999095279e-01 1.49999999999619105e+00 0.00000000000000000e+00
4.99999999999095279e-01 1.99999999999477596e+00 0.00000000000000000e+00
4.99999999999095279e-01 2.49999999999604983e+00 0.00000000000000000e+00
4.99999999999095279e-01 2.99999999999736700e+00 0.00000000000000000e+00
4.99999999999095390e-01 3.49999999999868283e+00 0.00000000000000000e+00
9.99999999997648215e-01 4.99999999999095279e-01 0.00000000000000000e+00
9.99999999997648104e-01 9.99999999997647882e-01 0.00000000000000000e+00
9.99999999997648215e-01 1.49999999999619105e+00 0.00000000000000000e+00
9.99999999997647993e-01 1.99999999999477507e+00 0.00000000000000000e+00
9.99999999997647882e-01 2.49999999999604983e+00 0.00000000000000000e+00
9.99999999997648215e-01 2.99999999999736700e+00 0.00000000000000000e+00
9.99999999997647993e-01 3.49999999999868283e+00 0.00000000000000000e+00
1.49999999999619105e+00 4.99999999999095390e-01 0.00000000000000000e+00
1.49999999999619105e+00 9.99999999997647993e-01 0.00000000000000000e+00
1.49999999999618994e+00 1.49999999999619105e+00 0.00000000000000000e+00
1.49999999999619105e+00 1.99999999999477596e+00 0.00000000000000000e+00
1.49999999999618994e+00 2.49999999999604983e+00 0.00000000000000000e+00
1.49999999999619105e+00 2.99999999999736700e+00 0.00000000000000000e+00
1.49999999999619105e+00 3.49999999999868283e+00 0.00000000000000000e+00
1.99999999999477596e+00 4.99999999999095279e-01 0.00000000000000000e+00
1.99999999999477596e+00 9.99999999997648215e-01 0.00000000000000000e+00
1.99999999999477596e+00 1.49999999999619105e+00 0.00000000000000000e+00
1.99999999999477596e+00 1.99999999999477596e+00 0.00000000000000000e+00
1.99999999999477596e+00 2.49999999999604983e+00 0.00000000000000000e+00
1.99999999999477596e+00 2.99999999999736700e+00 0.00000000000000000e+00
1.99999999999477596e+00 3.49999999999868416e+00 0.00000000000000000e+00
2.49999999999604983e+00 4.99999999999095279e-01 0.00000000000000000e+00
2.49999999999604983e+00 9.99999999997648104e-01 0.00000000000000000e+00
2.49999999999604983e+00 1.49999999999618994e+00 0.00000000000000000e+00
2.49999999999604894e+00 1.99999999999477596e+00 0.00000000000000000e+00
2.49999999999604983e+00 2.49999999999604983e+00 0.00000000000000000e+00
2.49999999999604983e+00 2.99999999999736700e+00 0.00000000000000000e+00
2.49999999999604983e+00 3.49999999999868283e+00 0.00000000000000000e+00
2.99999999999736611e+00 4.99999999999095279e-01 0.00000000000000000e+00
2.99999999999736700e+00 9.99999999997648215e-01 0.00000000000000000e+00
2.99999999999736611e+00 1.49999999999619105e+00 0.00000000000000000e+00
2.99999999999736700e+00 1.99999999999477596e+00 0.00000000000000000e+00
2.99999999999736700e+00 2.49999999999604983e+00 0.00000000000000000e+00
2.99999999999736700e+00 2.99999999999736700e+00 0.00000000000000000e+00
2.99999999999736700e+00 3.49999999999868416e+00 0.00000000000000000e+00
3.49999999999868283e+00 4.99999999999095279e-01 0.00000000000000000e+00
3.49999999999868194e+00 9.99999999997648215e-01 0.00000000000000000e+00
3.49999999999868283e+00 1.49999999999618994e+00 0.00000000000000000e+00
3.49999999999868283e+00 1.99999999999477596e+00 0.00000000000000000e+00
3.49999999999868283e+00 2.49999999999604983e+00 0.00000000000000000e+00
3.49999999999868283e+00 2.99999999999736700e+00 0.00000000000000000e+00
3.49999999999868283e+00 3.49999999999868283e+00 0.00000000000000000e+00


        </DataArray>

      </Points>

      <Cells>

        <DataArray type="Int32" Name="connectivity" format="ascii">

0 4 18 18 4 32 18 32 19 19 32 33 19 33 20 20 33 34 20 34 21 21 34 35 21 35 22 22 35 36 22 36 23 23 36 37 23 37 24 24 37 38 24 38 2 2 38 11 4 5 32 32 5 39 32 39 33 33 39 40 33 40 34 34 40 41 34 41 35 35 41 42 35 42 36 36 42 43 36 43 37 37 43 44 37 44 38 38 44 45 38 45 11 11 45 12 5 6 39 39 6 46 39 46 40 40 46 47 40 47 41 41 47 48 41 48 42 42 48 49 42 49 43 43 49 50 43 50 44 44 50 51 44 51 45 45 51 52 45 52 12 12 52 13 6 7 46 46 7 53 46 53 47 47 53 54 47 54 48 48 54 55 48 55 49 49 55 56 49 56 50 50 56 57 50 57 51 51 57 58 51 58 52 52 58 59 52 59 13 13 59 14 7 8 53 53 8 60 53 60 54 54 60 61 54 61 55 55 61 62 55 62 56 56 62 63 56 63 57 57 63 64 57 64 58 58 64 65 58 65 59 59 65 66 59 66 14 14 66 15 8 9 60 60 9 67 60 67 61 61 67 68 61 68 62 62 68 69 62 69 63 63 69 70 63 70 64 64 70 71 64 71 65 65 71 72 65 72 66 66 72 73 66 73 15 15 73 16 9 10 67 67 10 74 67 74 68 68 74 75 68 75 69 69 75 76 69 76 70 70 76 77 70 77 71 71 77 78 71 78 72 72 78 79 72 79 73 73 79 80 73 80 16 16 80 17 10 1 74 74 1 25 74 25 75 75 25 26 75 26 76 76 26 27 76 27 77 77 27 28 77 28 78 78 28 29 78 29 79 79 29 30 79 30 80 80 30 31 80 31 17 17 31 3 

        </DataArray>

        <DataArray type="Int32" Name="offsets" format="ascii">

3 6 9 12 15 18 21 24 27 30 33 36 39 42 45 48 51 54 57 60 63 66 69 72 75 78 81 84 87 90 93 96 99 102 105 108 111 114 117 120 123 126 129 132 135 138 141 144 147 150 153 156 159 162 165 168 171 174 177 180 183 186 189 192 195 198 201 204 207 210 213 216 219 222 225 228 231 234 237 240 243 246 249 252 255 258 261 264 267 270 273 276 279 282 285 288 291 294 297 300 303 306 309 312 315 318 321 324 327 330 333 336 339 342 345 348 351 354 357 360 363 366 369 372 375 378 381 384 

        </DataArray>

        <DataArray type="Int32" Name="types" format="ascii">

5 5 5 5 5 5 5 5 5 5 5 5 5 5 5 5 5 5 5 5 5 5 5 5 5 5 5 5 5 5 5 5 5 5 5 5 5 5 5 5 5 5 5 5 5 5 5 5 5 5 5 5 5 5 5 5 5 5 5 5 5 5 5 5 5 5 5 5 5 5 5 5 5 5 5 5 5 5 5 5 5 5 5 5 5 5 5 5 5 5 5 5 5 5 5 5 5 5 5 5 5 5 5 5 5 5 5 5 5 5 5 5 5 5 5 5 5 5 5 5 5 5 5 5 5 5 5 5 

        </DataArray>

      </Cells>

    </Piece>

  </UnstructuredGrid>

</VTKFile>

