<?xml version="1.0"?>

<VTKFile type="UnstructuredGrid" version="0.1">

  <UnstructuredGrid>

    <Piece NumberOfPoints="384" NumberOfCells="128">

      <PointData>

        <DataArray type="Float64" Name="K" format="ascii">

3.71723092389374898e-01
3.71723092389374898e-01
3.71723092389374898e-01
-6.90173548795934400e-01
-6.90173548795934400e-01
-6.90173548795934400e-01
-9.09244348477320385e-01
-9.09244348477320385e-01
-9.09244348477320385e-01
6.89356728628838344e-01
6.89356728628838344e-01
6.89356728628838344e-01
-4.59824876477607059e-01
-4.59824876477607059e-01
-4.59824876477607059e-01
7.56969188236582435e-01
7.56969188236582435e-01
7.56969188236582435e-01
8.64689337437418715e-01
8.64689337437418715e-01
8.64689337437418715e-01
-6.16009738798400930e-01
-6.16009738798400930e-01
-6.16009738798400930e-01
5.43609475680150722e-01
5.43609475680150722e-01
5.43609475680150722e-01
-8.16657826501997142e-01
-8.16657826501997142e-01
-8.16657826501997142e-01
-8.12015966686157498e-01
-8.12015966686157498e-01
-8.12015966686157498e-01
5.36879182029055824e-01
5.36879182029055824e-01
5.36879182029055824e-01
-6.22290256626467309e-01
-6.22290256626467309e-01
-6.22290256626467309e-01
8.68679061365539962e-01
8.68679061365539962e-01
8.68679061365539962e-01
7.51718773803850882e-01
7.51718773803850882e-01
7.51718773803850882e-01
-4.52707996062016949e-01
-4.52707996062016949e-01
-4.52707996062016949e-01
-9.56589066105311553e-02
-9.56589066105311553e-02
-9.56589066105311553e-02
-2.81214095141012810e-01
-2.81214095141012810e-01
-2.81214095141012810e-01
-9.98879736582895861e-01
-9.98879736582895861e-01
-9.98879736582895861e-01
9.44893954042670736e-01
9.44893954042670736e-01
9.44893954042670736e-01
-1.12815291844629655e-03
-1.12815291844629655e-03
-1.12815291844629655e-03
3.72770169438543852e-01
3.72770169438543852e-01
3.72770169438543852e-01
9.98770423519794948e-01
9.98770423519794948e-01
9.98770423519794948e-01
-9.08774161781908285e-01
-9.08774161781908285e-01
-9.08774161781908285e-01
9.79046204971407014e-02
9.79046204971407014e-02
9.79046204971407014e-02
-4.60826394513404181e-01
-4.60826394513404181e-01
-4.60826394513404181e-01
-9.89283895773682809e-01
-9.89283895773682809e-01
-9.89283895773682809e-01
8.64122108022448043e-01
8.64122108022448043e-01
8.64122108022448043e-01
-1.93761885243731058e-01
-1.93761885243731058e-01
-1.93761885243731058e-01
5.44556031714688027e-01
5.44556031714688027e-01
5.44556031714688027e-01
9.70509220060265299e-01
9.70509220060265299e-01
9.70509220060265299e-01
-8.11357020139615082e-01
-8.11357020139615082e-01
-8.11357020139615082e-01
-5.41714289302756780e-01
-5.41714289302756780e-01
-5.41714289302756780e-01
1.90440462620226014e-01
1.90440462620226014e-01
1.90440462620226014e-01
-8.65820493961413140e-01
-8.65820493961413140e-01
-8.65820493961413140e-01
9.89772375933538839e-01
9.89772375933538839e-01
9.89772375933538839e-01
4.57820086005513438e-01
4.57820086005513438e-01
4.57820086005513438e-01
-9.45358663415983708e-02
-9.45358663415983708e-02
-9.45358663415983708e-02
9.10181249609343324e-01
9.10181249609343324e-01
9.10181249609343324e-01
-9.98932486192864344e-01
-9.98932486192864344e-01
-9.98932486192864344e-01
-3.69627520307258539e-01
-3.69627520307258539e-01
-3.69627520307258539e-01
-2.25630440706154787e-03
-2.25630440706154787e-03
-2.25630440706154787e-03
-9.45996532983446325e-01
-9.45996532983446325e-01
-9.45996532983446325e-01
9.98713860204688886e-01
9.98713860204688886e-01
9.98713860204688886e-01
2.77964610904858356e-01
2.77964610904858356e-01
2.77964610904858356e-01
9.90272912924812232e-02
9.90272912924812232e-02
9.90272912924812232e-02
9.72930083010481561e-01
9.72930083010481561e-01
9.72930083010481561e-01
-9.89118550588168888e-01
-9.89118550588168888e-01
-9.89118550588168888e-01
-8.66997511745198790e-01
-8.66997511745198790e-01
-8.66997511745198790e-01
6.19637388150023227e-01
6.19637388150023227e-01
6.19637388150023227e-01
-5.39731431914704185e-01
-5.39731431914704185e-01
-5.39731431914704185e-01
8.13986602034420303e-01
8.13986602034420303e-01
8.13986602034420303e-01
8.14699906420901510e-01
8.14699906420901510e-01
8.14699906420901510e-01
-5.40765661334402736e-01
-5.40765661334402736e-01
-5.40765661334402736e-01
6.18672274791342791e-01
6.18672274791342791e-01
6.18672274791342791e-01
-8.66384419645640724e-01
-8.66384419645640724e-01
-8.66384419645640724e-01
-7.54753280115599945e-01
-7.54753280115599945e-01
-7.54753280115599945e-01
4.56816816102316559e-01
4.56816816102316559e-01
4.56816816102316559e-01
-6.91804552882503754e-01
-6.91804552882503754e-01
-6.91804552882503754e-01
9.10647962865675065e-01
9.10647962865675065e-01
9.10647962865675065e-01
6.87720457220299619e-01
6.87720457220299619e-01
6.87720457220299619e-01
-3.68579027899754108e-01
-3.68579027899754108e-01
-3.68579027899754108e-01
7.58441644844904173e-01
7.58441644844904173e-01
7.58441644844904173e-01
-9.46361651937602910e-01
-9.46361651937602910e-01
-9.46361651937602910e-01
-9.98988505253436410e-01
-9.98988505253436410e-01
-9.98988505253436410e-01
9.10689635902686589e-01
9.10689635902686589e-01
9.10689635902686589e-01
-9.33122765542138549e-02
-9.33122765542138549e-02
-9.33122765542138549e-02
4.56727083999152073e-01
4.56727083999152073e-01
4.56727083999152073e-01
9.89946955470510037e-01
9.89946955470510037e-01
9.89946955470510037e-01
-8.66434787348173474e-01
-8.66434787348173474e-01
-8.66434787348173474e-01
1.89233788821618731e-01
1.89233788821618731e-01
1.89233788821618731e-01
-5.40680809624881964e-01
-5.40680809624881964e-01
-5.40680809624881964e-01
-9.71611032421674792e-01
-9.71611032421674792e-01
-9.71611032421674792e-01
8.14045191484820241e-01
8.14045191484820241e-01
8.14045191484820241e-01
-2.83378630708237322e-01
-2.83378630708237322e-01
-2.83378630708237322e-01
6.19558213534811997e-01
6.19558213534811997e-01
6.19558213534811997e-01
9.44152887653133432e-01
9.44152887653133432e-01
9.44152887653133432e-01
-7.54012721579532474e-01
-7.54012721579532474e-01
-7.54012721579532474e-01
3.74862898975333814e-01
3.74862898975333814e-01
3.74862898975333814e-01
-6.92618734770132027e-01
-6.92618734770132027e-01
-6.92618734770132027e-01
-9.08260618686958288e-01
-9.08260618686958288e-01
-9.08260618686958288e-01
9.98708740895407288e-01
9.98708740895407288e-01
9.98708740895407288e-01
3.73910327097682904e-01
3.73910327097682904e-01
3.73910327097682904e-01
-2.35717386253565635e-03
-2.35717386253565635e-03
-2.35717386253565635e-03
9.44490887218847219e-01
9.44490887218847219e-01
9.44490887218847219e-01
-9.98937140690377645e-01
-9.98937140690377645e-01
-9.98937140690377645e-01
-2.82393308206756788e-01
-2.82393308206756788e-01
-2.82393308206756788e-01
-9.44354478690617588e-02
-9.44354478690617588e-02
-9.44354478690617588e-02
-9.71853558551659669e-01
-9.71853558551659669e-01
-9.71853558551659669e-01
9.89786760537529120e-01
9.89786760537529120e-01
9.89786760537529120e-01
1.88224966602876631e-01
1.88224966602876631e-01
1.88224966602876631e-01
1.90341437994023394e-01
1.90341437994023394e-01
1.90341437994023394e-01
9.90091731165851030e-01
9.90091731165851030e-01
9.90091731165851030e-01
-9.71343511140650540e-01
-9.71343511140650540e-01
-9.71343511140650540e-01
-9.22894261543884681e-02
-9.22894261543884681e-02
-9.22894261543884681e-02
-2.84460358260803126e-01
-2.84460358260803126e-01
-2.84460358260803126e-01
-6.15041125123600096e-01
-6.15041125123600096e-01
-6.15041125123600096e-01
8.64071337717441046e-01
8.64071337717441046e-01
8.64071337717441046e-01
7.57771722029021433e-01
7.57771722029021433e-01
7.57771722029021433e-01
-4.60915913041905490e-01
-4.60915913041905490e-01
-4.60915913041905490e-01
6.88465876956501743e-01
6.88465876956501743e-01
6.88465876956501743e-01
-9.08732065409568746e-01
-9.08732065409568746e-01
-9.08732065409568746e-01
-6.91062402204113857e-01
-6.91062402204113857e-01
-6.91062402204113857e-01
3.72863766936123997e-01
3.72863766936123997e-01
3.72863766936123997e-01
-7.55426788680122918e-01
-7.55426788680122918e-01
-7.55426788680122918e-01
9.44860926862494122e-01
9.44860926862494122e-01
9.44860926862494122e-01
6.17864864089895605e-01
6.17864864089895605e-01
6.17864864089895605e-01
-2.81310892787649369e-01
-2.81310892787649369e-01
-2.81310892787649369e-01
8.15295180460976598e-01
8.15295180460976598e-01
8.15295180460976598e-01
-9.72118716907670599e-01
-9.72118716907670599e-01
-9.72118716907670599e-01
-5.38866341730278364e-01
-5.38866341730278364e-01
-5.38866341730278364e-01
1.87116858486600146e-01
1.87116858486600146e-01
1.87116858486600146e-01
-1.84701664853458680e-01
-1.84701664853458680e-01
-1.84701664853458680e-01
5.36794079706542249e-01
5.36794079706542249e-01
5.36794079706542249e-01
9.72692164800329939e-01
9.72692164800329939e-01
9.72692164800329939e-01
-8.16716036464922635e-01
-8.16716036464922635e-01
-8.16716036464922635e-01
2.78951263689055540e-01
2.78951263689055540e-01
2.78951263689055540e-01
-6.15930276731263660e-01
-6.15930276731263660e-01
-6.15930276731263660e-01
-9.45663012466362973e-01
-9.45663012466362973e-01
-9.45663012466362973e-01
7.57035097734894191e-01
7.57035097734894191e-01
7.57035097734894191e-01
-3.70581856376888008e-01
-3.70581856376888008e-01
-3.70581856376888008e-01
6.89283652915251288e-01
6.89283652915251288e-01
6.89283652915251288e-01
9.09755258116849097e-01
9.09755258116849097e-01
9.09755258116849097e-01
-6.90246538980859969e-01
-6.90246538980859969e-01
-6.90246538980859969e-01
4.58733145409754517e-01
4.58733145409754517e-01
4.58733145409754517e-01
-7.56165511106073218e-01
-7.56165511106073218e-01
-7.56165511106073218e-01
-8.65306030998574616e-01
-8.65306030998574616e-01
-8.65306030998574616e-01
6.16977421895059885e-01
6.16977421895059885e-01
6.16977421895059885e-01


        </DataArray>

      </PointData>

      <CellData/>

      <Points>

        <DataArray type="Float64" NumberOfComponents="3" format="ascii">

0 0 0 0.49999999999909522 0 0 0 0.49999999999909522 0 0 0.49999999999909522 0 0.49999999999909522 0 0 0.49999999999909528 0.49999999999909539 0 0 0.49999999999909522 0 0.49999999999909528 0.49999999999909539 0 0 0.99999999999764821 0 0 0.99999999999764821 0 0.49999999999909528 0.49999999999909539 0 0.49999999999909522 0.99999999999764799 0 0 0.99999999999764821 0 0.49999999999909522 0.99999999999764799 0 0 1.4999999999961899 0 0 1.4999999999961899 0 0.49999999999909522 0.99999999999764799 0 0.49999999999909528 1.499999999996191 0 0 1.4999999999961899 0 0.49999999999909528 1.499999999996191 0 0 1.999999999994776 0 0 1.999999999994776 0 0.49999999999909528 1.499999999996191 0 0.49999999999909528 1.999999999994776 0 0 1.999999999994776 0 0.49999999999909528 1.999999999994776 0 0 2.4999999999960498 0 0 2.4999999999960498 0 0.49999999999909528 1.999999999994776 0 0.49999999999909528 2.4999999999960498 0 0 2.4999999999960498 0 0.49999999999909528 2.4999999999960498 0 0 2.999999999997367 0 0 2.999999999997367 0 0.49999999999909528 2.4999999999960498 0 0.49999999999909528 2.999999999997367 0 0 2.999999999997367 0 0.49999999999909528 2.999999999997367 0 0 3.4999999999986828 0 0 3.4999999999986828 0 0.49999999999909528 2.999999999997367 0 0.49999999999909539 3.4999999999986828 0 0 3.4999999999986828 0 0.49999999999909539 3.4999999999986828 0 0 4 0 0 4 0 0.49999999999909539 3.4999999999986828 0 0.49999999999909522 4 0 0.49999999999909522 0 0 0.99999999999764821 0 0 0.49999999999909528 0.49999999999909539 0 0.49999999999909528 0.49999999999909539 0 0.99999999999764821 0 0 0.99999999999764821 0.49999999999909528 0 0.49999999999909528 0.49999999999909539 0 0.99999999999764821 0.49999999999909528 0 0.49999999999909522 0.99999999999764799 0 0.49999999999909522 0.99999999999764799 0 0.99999999999764821 0.49999999999909528 0 0.9999999999976481 0.99999999999764788 0 0.49999999999909522 0.99999999999764799 0 0.9999999999976481 0.99999999999764788 0 0.49999999999909528 1.499999999996191 0 0.49999999999909528 1.499999999996191 0 0.9999999999976481 0.99999999999764788 0 0.99999999999764821 1.499999999996191 0 0.49999999999909528 1.499999999996191 0 0.99999999999764821 1.499999999996191 0 0.49999999999909528 1.999999999994776 0 0.49999999999909528 1.999999999994776 0 0.99999999999764821 1.499999999996191 0 0.99999999999764799 1.9999999999947751 0 0.49999999999909528 1.999999999994776 0 0.99999999999764799 1.9999999999947751 0 0.49999999999909528 2.4999999999960498 0 0.49999999999909528 2.4999999999960498 0 0.99999999999764799 1.9999999999947751 0 0.99999999999764788 2.4999999999960498 0 0.49999999999909528 2.4999999999960498 0 0.99999999999764788 2.4999999999960498 0 0.49999999999909528 2.999999999997367 0 0.49999999999909528 2.999999999997367 0 0.99999999999764788 2.4999999999960498 0 0.99999999999764821 2.999999999997367 0 0.49999999999909528 2.999999999997367 0 0.99999999999764821 2.999999999997367 0 0.49999999999909539 3.4999999999986828 0 0.49999999999909539 3.4999999999986828 0 0.99999999999764821 2.999999999997367 0 0.99999999999764799 3.4999999999986828 0 0.49999999999909539 3.4999999999986828 0 0.99999999999764799 3.4999999999986828 0 0.49999999999909522 4 0 0.49999999999909522 4 0 0.99999999999764799 3.4999999999986828 0 0.99999999999764821 4 0 0.99999999999764821 0 0 1.4999999999961899 0 0 0.99999999999764821 0.49999999999909528 0 0.99999999999764821 0.49999999999909528 0 1.4999999999961899 0 0 1.499999999996191 0.49999999999909539 0 0.99999999999764821 0.49999999999909528 0 1.499999999996191 0.49999999999909539 0 0.9999999999976481 0.99999999999764788 0 0.9999999999976481 0.99999999999764788 0 1.499999999996191 0.49999999999909539 0 1.499999999996191 0.99999999999764799 0 0.9999999999976481 0.99999999999764788 0 1.499999999996191 0.99999999999764799 0 0.99999999999764821 1.499999999996191 0 0.99999999999764821 1.499999999996191 0 1.499999999996191 0.99999999999764799 0 1.4999999999961899 1.499999999996191 0 0.99999999999764821 1.499999999996191 0 1.4999999999961899 1.499999999996191 0 0.99999999999764799 1.9999999999947751 0 0.99999999999764799 1.9999999999947751 0 1.4999999999961899 1.499999999996191 0 1.499999999996191 1.999999999994776 0 0.99999999999764799 1.9999999999947751 0 1.499999999996191 1.999999999994776 0 0.99999999999764788 2.4999999999960498 0 0.99999999999764788 2.4999999999960498 0 1.499999999996191 1.999999999994776 0 1.4999999999961899 2.4999999999960498 0 0.99999999999764788 2.4999999999960498 0 1.4999999999961899 2.4999999999960498 0 0.99999999999764821 2.999999999997367 0 0.99999999999764821 2.999999999997367 0 1.4999999999961899 2.4999999999960498 0 1.499999999996191 2.999999999997367 0 0.99999999999764821 2.999999999997367 0 1.499999999996191 2.999999999997367 0 0.99999999999764799 3.4999999999986828 0 0.99999999999764799 3.4999999999986828 0 1.499999999996191 2.999999999997367 0 1.499999999996191 3.4999999999986828 0 0.99999999999764799 3.4999999999986828 0 1.499999999996191 3.4999999999986828 0 0.99999999999764821 4 0 0.99999999999764821 4 0 1.499999999996191 3.4999999999986828 0 1.4999999999961899 4 0 1.4999999999961899 0 0 1.999999999994776 0 0 1.499999999996191 0.49999999999909539 0 1.499999999996191 0.49999999999909539 0 1.999999999994776 0 0 1.999999999994776 0.49999999999909528 0 1.499999999996191 0.49999999999909539 0 1.999999999994776 0.49999999999909528 0 1.499999999996191 0.99999999999764799 0 1.499999999996191 0.99999999999764799 0 1.999999999994776 0.49999999999909528 0 1.999999999994776 0.99999999999764821 0 1.499999999996191 0.99999999999764799 0 1.999999999994776 0.99999999999764821 0 1.4999999999961899 1.499999999996191 0 1.4999999999961899 1.499999999996191 0 1.999999999994776 0.99999999999764821 0 1.999999999994776 1.499999999996191 0 1.4999999999961899 1.499999999996191 0 1.999999999994776 1.499999999996191 0 1.499999999996191 1.999999999994776 0 1.499999999996191 1.999999999994776 0 1.999999999994776 1.499999999996191 0 1.999999999994776 1.999999999994776 0 1.499999999996191 1.999999999994776 0 1.999999999994776 1.999999999994776 0 1.4999999999961899 2.4999999999960498 0 1.4999999999961899 2.4999999999960498 0 1.999999999994776 1.999999999994776 0 1.999999999994776 2.4999999999960498 0 1.4999999999961899 2.4999999999960498 0 1.999999999994776 2.4999999999960498 0 1.499999999996191 2.999999999997367 0 1.499999999996191 2.999999999997367 0 1.999999999994776 2.4999999999960498 0 1.999999999994776 2.999999999997367 0 1.499999999996191 2.999999999997367 0 1.999999999994776 2.999999999997367 0 1.499999999996191 3.4999999999986828 0 1.499999999996191 3.4999999999986828 0 1.999999999994776 2.999999999997367 0 1.999999999994776 3.4999999999986842 0 1.499999999996191 3.4999999999986828 0 1.999999999994776 3.4999999999986842 0 1.4999999999961899 4 0 1.4999999999961899 4 0 1.999999999994776 3.4999999999986842 0 1.999999999994776 4 0 1.999999999994776 0 0 2.4999999999960498 0 0 1.999999999994776 0.49999999999909528 0 1.999999999994776 0.49999999999909528 0 2.4999999999960498 0 0 2.4999999999960498 0.49999999999909528 0 1.999999999994776 0.49999999999909528 0 2.4999999999960498 0.49999999999909528 0 1.999999999994776 0.99999999999764821 0 1.999999999994776 0.99999999999764821 0 2.4999999999960498 0.49999999999909528 0 2.4999999999960498 0.9999999999976481 0 1.999999999994776 0.99999999999764821 0 2.4999999999960498 0.9999999999976481 0 1.999999999994776 1.499999999996191 0 1.999999999994776 1.499999999996191 0 2.4999999999960498 0.9999999999976481 0 2.4999999999960498 1.4999999999961899 0 1.999999999994776 1.499999999996191 0 2.4999999999960498 1.4999999999961899 0 1.999999999994776 1.999999999994776 0 1.999999999994776 1.999999999994776 0 2.4999999999960498 1.4999999999961899 0 2.4999999999960489 1.999999999994776 0 1.999999999994776 1.999999999994776 0 2.4999999999960489 1.999999999994776 0 1.999999999994776 2.4999999999960498 0 1.999999999994776 2.4999999999960498 0 2.4999999999960489 1.999999999994776 0 2.4999999999960498 2.4999999999960498 0 1.999999999994776 2.4999999999960498 0 2.4999999999960498 2.4999999999960498 0 1.999999999994776 2.999999999997367 0 1.999999999994776 2.999999999997367 0 2.4999999999960498 2.4999999999960498 0 2.4999999999960498 2.999999999997367 0 1.999999999994776 2.999999999997367 0 2.4999999999960498 2.999999999997367 0 1.999999999994776 3.4999999999986842 0 1.999999999994776 3.4999999999986842 0 2.4999999999960498 2.999999999997367 0 2.4999999999960498 3.4999999999986828 0 1.999999999994776 3.4999999999986842 0 2.4999999999960498 3.4999999999986828 0 1.999999999994776 4 0 1.999999999994776 4 0 2.4999999999960498 3.4999999999986828 0 2.4999999999960498 4 0 2.4999999999960498 0 0 2.999999999997367 0 0 2.4999999999960498 0.49999999999909528 0 2.4999999999960498 0.49999999999909528 0 2.999999999997367 0 0 2.9999999999973661 0.49999999999909528 0 2.4999999999960498 0.49999999999909528 0 2.9999999999973661 0.49999999999909528 0 2.4999999999960498 0.9999999999976481 0 2.4999999999960498 0.9999999999976481 0 2.9999999999973661 0.49999999999909528 0 2.999999999997367 0.99999999999764821 0 2.4999999999960498 0.9999999999976481 0 2.999999999997367 0.99999999999764821 0 2.4999999999960498 1.4999999999961899 0 2.4999999999960498 1.4999999999961899 0 2.999999999997367 0.99999999999764821 0 2.9999999999973661 1.499999999996191 0 2.4999999999960498 1.4999999999961899 0 2.9999999999973661 1.499999999996191 0 2.4999999999960489 1.999999999994776 0 2.4999999999960489 1.999999999994776 0 2.9999999999973661 1.499999999996191 0 2.999999999997367 1.999999999994776 0 2.4999999999960489 1.999999999994776 0 2.999999999997367 1.999999999994776 0 2.4999999999960498 2.4999999999960498 0 2.4999999999960498 2.4999999999960498 0 2.999999999997367 1.999999999994776 0 2.999999999997367 2.4999999999960498 0 2.4999999999960498 2.4999999999960498 0 2.999999999997367 2.4999999999960498 0 2.4999999999960498 2.999999999997367 0 2.4999999999960498 2.999999999997367 0 2.999999999997367 2.4999999999960498 0 2.999999999997367 2.999999999997367 0 2.4999999999960498 2.999999999997367 0 2.999999999997367 2.999999999997367 0 2.4999999999960498 3.4999999999986828 0 2.4999999999960498 3.4999999999986828 0 2.999999999997367 2.999999999997367 0 2.999999999997367 3.4999999999986842 0 2.4999999999960498 3.4999999999986828 0 2.999999999997367 3.4999999999986842 0 2.4999999999960498 4 0 2.4999999999960498 4 0 2.999999999997367 3.4999999999986842 0 2.999999999997367 4 0 2.999999999997367 0 0 3.4999999999986828 0 0 2.9999999999973661 0.49999999999909528 0 2.9999999999973661 0.49999999999909528 0 3.4999999999986828 0 0 3.4999999999986828 0.49999999999909528 0 2.9999999999973661 0.49999999999909528 0 3.4999999999986828 0.49999999999909528 0 2.999999999997367 0.99999999999764821 0 2.999999999997367 0.99999999999764821 0 3.4999999999986828 0.49999999999909528 0 3.4999999999986819 0.99999999999764821 0 2.999999999997367 0.99999999999764821 0 3.4999999999986819 0.99999999999764821 0 2.9999999999973661 1.499999999996191 0 2.9999999999973661 1.499999999996191 0 3.4999999999986819 0.99999999999764821 0 3.4999999999986828 1.4999999999961899 0 2.9999999999973661 1.499999999996191 0 3.4999999999986828 1.4999999999961899 0 2.999999999997367 1.999999999994776 0 2.999999999997367 1.999999999994776 0 3.4999999999986828 1.4999999999961899 0 3.4999999999986828 1.999999999994776 0 2.999999999997367 1.999999999994776 0 3.4999999999986828 1.999999999994776 0 2.999999999997367 2.4999999999960498 0 2.999999999997367 2.4999999999960498 0 3.4999999999986828 1.999999999994776 0 3.4999999999986828 2.4999999999960498 0 2.999999999997367 2.4999999999960498 0 3.4999999999986828 2.4999999999960498 0 2.999999999997367 2.999999999997367 0 2.999999999997367 2.999999999997367 0 3.4999999999986828 2.4999999999960498 0 3.4999999999986828 2.999999999997367 0 2.999999999997367 2.999999999997367 0 3.4999999999986828 2.999999999997367 0 2.999999999997367 3.4999999999986842 0 2.999999999997367 3.4999999999986842 0 3.4999999999986828 2.999999999997367 0 3.4999999999986828 3.4999999999986828 0 2.999999999997367 3.4999999999986842 0 3.4999999999986828 3.4999999999986828 0 2.999999999997367 4 0 2.999999999997367 4 0 3.4999999999986828 3.4999999999986828 0 3.4999999999986828 4 0 3.4999999999986828 0 0 4 0 0 3.4999999999986828 0.49999999999909528 0 3.4999999999986828 0.49999999999909528 0 4 0 0 4 0.49999999999909522 0 3.4999999999986828 0.49999999999909528 0 4 0.49999999999909522 0 3.4999999999986819 0.99999999999764821 0 3.4999999999986819 0.99999999999764821 0 4 0.49999999999909522 0 4 0.99999999999764821 0 3.4999999999986819 0.99999999999764821 0 4 0.99999999999764821 0 3.4999999999986828 1.4999999999961899 0 3.4999999999986828 1.4999999999961899 0 4 0.99999999999764821 0 4 1.4999999999961899 0 3.4999999999986828 1.4999999999961899 0 4 1.4999999999961899 0 3.4999999999986828 1.999999999994776 0 3.4999999999986828 1.999999999994776 0 4 1.4999999999961899 0 4 1.999999999994776 0 3.4999999999986828 1.999999999994776 0 4 1.999999999994776 0 3.4999999999986828 2.4999999999960498 0 3.4999999999986828 2.4999999999960498 0 4 1.999999999994776 0 4 2.4999999999960498 0 3.4999999999986828 2.4999999999960498 0 4 2.4999999999960498 0 3.4999999999986828 2.999999999997367 0 3.4999999999986828 2.999999999997367 0 4 2.4999999999960498 0 4 2.999999999997367 0 3.4999999999986828 2.999999999997367 0 4 2.999999999997367 0 3.4999999999986828 3.4999999999986828 0 3.4999999999986828 3.4999999999986828 0 4 2.999999999997367 0 4 3.4999999999986828 0 3.4999999999986828 3.4999999999986828 0 4 3.4999999999986828 0 3.4999999999986828 4 0 3.4999999999986828 4 0 4 3.4999999999986828 0 4 4 0 

        </DataArray>

      </Points>

      <Cells>

        <DataArray type="Int32" Name="connectivity" format="ascii">

0 1 2 3 4 5 6 7 8 9 10 11 12 13 14 15 16 17 18 19 20 21 22 23 24 25 26 27 28 29 30 31 32 33 34 35 36 37 38 39 40 41 42 43 44 45 46 47 48 49 50 51 52 53 54 55 56 57 58 59 60 61 62 63 64 65 66 67 68 69 70 71 72 73 74 75 76 77 78 79 80 81 82 83 84 85 86 87 88 89 90 91 92 93 94 95 96 97 98 99 100 101 102 103 104 105 106 107 108 109 110 111 112 113 114 115 116 117 118 119 120 121 122 123 124 125 126 127 128 129 130 131 132 133 134 135 136 137 138 139 140 141 142 143 144 145 146 147 148 149 150 151 152 153 154 155 156 157 158 159 160 161 162 163 164 165 166 167 168 169 170 171 172 173 174 175 176 177 178 179 180 181 182 183 184 185 186 187 188 189 190 191 192 193 194 195 196 197 198 199 200 201 202 203 204 205 206 207 208 209 210 211 212 213 214 215 216 217 218 219 220 221 222 223 224 225 226 227 228 229 230 231 232 233 234 235 236 237 238 239 240 241 242 243 244 245 246 247 248 249 250 251 252 253 254 255 256 257 258 259 260 261 262 263 264 265 266 267 268 269 270 271 272 273 274 275 276 277 278 279 280 281 282 283 284 285 286 287 288 289 290 291 292 293 294 295 296 297 298 299 300 301 302 303 304 305 306 307 308 309 310 311 312 313 314 315 316 317 318 319 320 321 322 323 324 325 326 327 328 329 330 331 332 333 334 335 336 337 338 339 340 341 342 343 344 345 346 347 348 349 350 351 352 353 354 355 356 357 358 359 360 361 362 363 364 365 366 367 368 369 370 371 372 373 374 375 376 377 378 379 380 381 382 383 

        </DataArray>

        <DataArray type="Int32" Name="offsets" format="ascii">

3 6 9 12 15 18 21 24 27 30 33 36 39 42 45 48 51 54 57 60 63 66 69 72 75 78 81 84 87 90 93 96 99 102 105 108 111 114 117 120 123 126 129 132 135 138 141 144 147 150 153 156 159 162 165 168 171 174 177 180 183 186 189 192 195 198 201 204 207 210 213 216 219 222 225 228 231 234 237 240 243 246 249 252 255 258 261 264 267 270 273 276 279 282 285 288 291 294 297 300 303 306 309 312 315 318 321 324 327 330 333 336 339 342 345 348 351 354 357 360 363 366 369 372 375 378 381 384 

        </DataArray>

        <DataArray type="Int32" Name="types" format="ascii">

5 5 5 5 5 5 5 5 5 5 5 5 5 5 5 5 5 5 5 5 5 5 5 5 5 5 5 5 5 5 5 5 5 5 5 5 5 5 5 5 5 5 5 5 5 5 5 5 5 5 5 5 5 5 5 5 5 5 5 5 5 5 5 5 5 5 5 5 5 5 5 5 5 5 5 5 5 5 5 5 5 5 5 5 5 5 5 5 5 5 5 5 5 5 5 5 5 5 5 5 5 5 5 5 5 5 5 5 5 5 5 5 5 5 5 5 5 5 5 5 5 5 5 5 5 5 5 5 

        </DataArray>

      </Cells>

    </Piece>

  </UnstructuredGrid>

</VTKFile>

