<?xml version="1.0"?>

<VTKFile type="UnstructuredGrid" version="0.1">

  <UnstructuredGrid>

    <Piece NumberOfPoints="81" NumberOfCells="128">

      <PointData>

        <DataArray type="Float64" Name="T_exacte" format="ascii">

0.00000000000000000e+00
4.00000000000000000e+00
0.00000000000000000e+00
4.00000000000000000e+00
4.99999999999095224e-01
9.99999999997648215e-01
1.49999999999618994e+00
1.99999999999477596e+00
2.49999999999604983e+00
2.99999999999736700e+00
3.49999999999868283e+00
4.99999999999095224e-01
9.99999999997648215e-01
1.49999999999618994e+00
1.99999999999477596e+00
2.49999999999604983e+00
2.99999999999736700e+00
3.49999999999868283e+00
0.00000000000000000e+00
0.00000000000000000e+00
0.00000000000000000e+00
0.00000000000000000e+00
0.00000000000000000e+00
0.00000000000000000e+00
0.00000000000000000e+00
4.00000000000000000e+00
4.00000000000000000e+00
4.00000000000000000e+00
4.00000000000000000e+00
4.00000000000000000e+00
4.00000000000000000e+00
4.00000000000000000e+00
4.99999999999095279e-01
4.99999999999095224e-01
4.99999999999095279e-01
4.99999999999095279e-01
4.99999999999095279e-01
4.99999999999095279e-01
4.99999999999095390e-01
9.99999999997648215e-01
9.99999999997648104e-01
9.99999999997648215e-01
9.99999999997647993e-01
9.99999999997647882e-01
9.99999999997648215e-01
9.99999999997647993e-01
1.49999999999619105e+00
1.49999999999619105e+00
1.49999999999618994e+00
1.49999999999619105e+00
1.49999999999618994e+00
1.49999999999619105e+00
1.49999999999619105e+00
1.99999999999477596e+00
1.99999999999477596e+00
1.99999999999477596e+00
1.99999999999477596e+00
1.99999999999477596e+00
1.99999999999477596e+00
1.99999999999477596e+00
2.49999999999604983e+00
2.49999999999604983e+00
2.49999999999604983e+00
2.49999999999604894e+00
2.49999999999604983e+00
2.49999999999604983e+00
2.49999999999604983e+00
2.99999999999736611e+00
2.99999999999736700e+00
2.99999999999736611e+00
2.99999999999736700e+00
2.99999999999736700e+00
2.99999999999736700e+00
2.99999999999736700e+00
3.49999999999868283e+00
3.49999999999868194e+00
3.49999999999868283e+00
3.49999999999868283e+00
3.49999999999868283e+00
3.49999999999868283e+00
3.49999999999868283e+00


        </DataArray>

        <DataArray type="Float64" Name="T_exporte" format="ascii">

0.00000000000000000e+00
2.44933927007751917e+00
0.00000000000000000e+00
2.34620781373376897e+00
-8.55788183562263549e-02
-1.83775901118375801e-01
-3.59906134347417694e-01
6.51071346426263853e-01
1.08001140355308012e+00
1.50922497860366800e+00
1.96708841176794191e+00
-1.63163282311367813e-01
-4.18799532609164304e-01
-1.50821031934932792e+00
1.99849432929270876e-01
8.45815474640277953e-01
1.35826881081717388e+00
1.85248098383287085e+00
0.00000000000000000e+00
0.00000000000000000e+00
0.00000000000000000e+00
0.00000000000000000e+00
0.00000000000000000e+00
0.00000000000000000e+00
0.00000000000000000e+00
2.44639790993196105e+00
2.43613049974073892e+00
2.42090082529192729e+00
2.40264209069071955e+00
2.38314628340724832e+00
2.36473655333064015e+00
2.35089740898802191e+00
-9.14005582082048906e-02
-1.00373202577723808e-01
-1.07532799816870708e-01
-1.13888050692194029e-01
-1.22251949458652184e-01
-1.35441780379474741e-01
-1.53140854704163609e-01
-2.15586022391626386e-01
-2.40970411487123448e-01
-2.55532023864968538e-01
-2.66248613618937480e-01
-2.81387593147817028e-01
-3.10752923378293966e-01
-3.63597892806356071e-01
-6.02879867250832757e-01
-6.72178436808280377e-01
-6.91309154564809347e-01
-6.97537417753183453e-01
-7.11032654154275301e-01
-7.60884114485026575e-01
-9.27855380592800927e-01
5.85216150232281684e-01
5.44456450954125537e-01
5.16665245056612266e-01
4.91799290056926020e-01
4.61145266436268964e-01
4.13781257882644748e-01
3.32866348031738701e-01
1.06072125336797241e+00
1.03705726216947514e+00
1.01364667046636447e+00
9.89210252489160613e-01
9.60945774977424838e-01
9.25969826726878442e-01
8.83833290823328732e-01
1.50152769643350248e+00
1.48623974160433048e+00
1.46721776082856348e+00
1.44565069459090934e+00
1.42173754115635931e+00
1.39617641030623840e+00
1.37213706129641566e+00
1.96294699547765839e+00
1.95149530692587136e+00
1.93529665366681236e+00
1.91613960664384231e+00
1.89547901202073432e+00
1.87532202531650172e+00
1.85918721317784597e+00


        </DataArray>

      </PointData>

      <CellData/>

      <Points>

        <DataArray type="Float64" Name="Position" NumberOfComponents="3" format="ascii">

0.00000000000000000e+00 0.00000000000000000e+00 0.00000000000000000e+00
4.00000000000000000e+00 0.00000000000000000e+00 0.00000000000000000e+00
0.00000000000000000e+00 4.00000000000000000e+00 0.00000000000000000e+00
4.00000000000000000e+00 4.00000000000000000e+00 0.00000000000000000e+00
4.99999999999095224e-01 0.00000000000000000e+00 0.00000000000000000e+00
9.99999999997648215e-01 0.00000000000000000e+00 0.00000000000000000e+00
1.49999999999618994e+00 0.00000000000000000e+00 0.00000000000000000e+00
1.99999999999477596e+00 0.00000000000000000e+00 0.00000000000000000e+00
2.49999999999604983e+00 0.00000000000000000e+00 0.00000000000000000e+00
2.99999999999736700e+00 0.00000000000000000e+00 0.00000000000000000e+00
3.49999999999868283e+00 0.00000000000000000e+00 0.00000000000000000e+00
4.99999999999095224e-01 4.00000000000000000e+00 0.00000000000000000e+00
9.99999999997648215e-01 4.00000000000000000e+00 0.00000000000000000e+00
1.49999999999618994e+00 4.00000000000000000e+00 0.00000000000000000e+00
1.99999999999477596e+00 4.00000000000000000e+00 0.00000000000000000e+00
2.49999999999604983e+00 4.00000000000000000e+00 0.00000000000000000e+00
2.99999999999736700e+00 4.00000000000000000e+00 0.00000000000000000e+00
3.49999999999868283e+00 4.00000000000000000e+00 0.00000000000000000e+00
0.00000000000000000e+00 4.99999999999095224e-01 0.00000000000000000e+00
0.00000000000000000e+00 9.99999999997648215e-01 0.00000000000000000e+00
0.00000000000000000e+00 1.49999999999618994e+00 0.00000000000000000e+00
0.00000000000000000e+00 1.99999999999477596e+00 0.00000000000000000e+00
0.00000000000000000e+00 2.49999999999604983e+00 0.00000000000000000e+00
0.00000000000000000e+00 2.99999999999736700e+00 0.00000000000000000e+00
0.00000000000000000e+00 3.49999999999868283e+00 0.00000000000000000e+00
4.00000000000000000e+00 4.99999999999095224e-01 0.00000000000000000e+00
4.00000000000000000e+00 9.99999999997648215e-01 0.00000000000000000e+00
4.00000000000000000e+00 1.49999999999618994e+00 0.00000000000000000e+00
4.00000000000000000e+00 1.99999999999477596e+00 0.00000000000000000e+00
4.00000000000000000e+00 2.49999999999604983e+00 0.00000000000000000e+00
4.00000000000000000e+00 2.99999999999736700e+00 0.00000000000000000e+00
4.00000000000000000e+00 3.49999999999868283e+00 0.00000000000000000e+00
4.99999999999095279e-01 4.99999999999095390e-01 0.00000000000000000e+00
4.99999999999095224e-01 9.99999999997647993e-01 0.00000000000000000e+00
4.99999999999095279e-01 1.49999999999619105e+00 0.00000000000000000e+00
4.99999999999095279e-01 1.99999999999477596e+00 0.00000000000000000e+00
4.99999999999095279e-01 2.49999999999604983e+00 0.00000000000000000e+00
4.99999999999095279e-01 2.99999999999736700e+00 0.00000000000000000e+00
4.99999999999095390e-01 3.49999999999868283e+00 0.00000000000000000e+00
9.99999999997648215e-01 4.99999999999095279e-01 0.00000000000000000e+00
9.99999999997648104e-01 9.99999999997647882e-01 0.00000000000000000e+00
9.99999999997648215e-01 1.49999999999619105e+00 0.00000000000000000e+00
9.99999999997647993e-01 1.99999999999477507e+00 0.00000000000000000e+00
9.99999999997647882e-01 2.49999999999604983e+00 0.00000000000000000e+00
9.99999999997648215e-01 2.99999999999736700e+00 0.00000000000000000e+00
9.99999999997647993e-01 3.49999999999868283e+00 0.00000000000000000e+00
1.49999999999619105e+00 4.99999999999095390e-01 0.00000000000000000e+00
1.49999999999619105e+00 9.99999999997647993e-01 0.00000000000000000e+00
1.49999999999618994e+00 1.49999999999619105e+00 0.00000000000000000e+00
1.49999999999619105e+00 1.99999999999477596e+00 0.00000000000000000e+00
1.49999999999618994e+00 2.49999999999604983e+00 0.00000000000000000e+00
1.49999999999619105e+00 2.99999999999736700e+00 0.00000000000000000e+00
1.49999999999619105e+00 3.49999999999868283e+00 0.00000000000000000e+00
1.99999999999477596e+00 4.99999999999095279e-01 0.00000000000000000e+00
1.99999999999477596e+00 9.99999999997648215e-01 0.00000000000000000e+00
1.99999999999477596e+00 1.49999999999619105e+00 0.00000000000000000e+00
1.99999999999477596e+00 1.99999999999477596e+00 0.00000000000000000e+00
1.99999999999477596e+00 2.49999999999604983e+00 0.00000000000000000e+00
1.99999999999477596e+00 2.99999999999736700e+00 0.00000000000000000e+00
1.99999999999477596e+00 3.49999999999868416e+00 0.00000000000000000e+00
2.49999999999604983e+00 4.99999999999095279e-01 0.00000000000000000e+00
2.49999999999604983e+00 9.99999999997648104e-01 0.00000000000000000e+00
2.49999999999604983e+00 1.49999999999618994e+00 0.00000000000000000e+00
2.49999999999604894e+00 1.99999999999477596e+00 0.00000000000000000e+00
2.49999999999604983e+00 2.49999999999604983e+00 0.00000000000000000e+00
2.49999999999604983e+00 2.99999999999736700e+00 0.00000000000000000e+00
2.49999999999604983e+00 3.49999999999868283e+00 0.00000000000000000e+00
2.99999999999736611e+00 4.99999999999095279e-01 0.00000000000000000e+00
2.99999999999736700e+00 9.99999999997648215e-01 0.00000000000000000e+00
2.99999999999736611e+00 1.49999999999619105e+00 0.00000000000000000e+00
2.99999999999736700e+00 1.99999999999477596e+00 0.00000000000000000e+00
2.99999999999736700e+00 2.49999999999604983e+00 0.00000000000000000e+00
2.99999999999736700e+00 2.99999999999736700e+00 0.00000000000000000e+00
2.99999999999736700e+00 3.49999999999868416e+00 0.00000000000000000e+00
3.49999999999868283e+00 4.99999999999095279e-01 0.00000000000000000e+00
3.49999999999868194e+00 9.99999999997648215e-01 0.00000000000000000e+00
3.49999999999868283e+00 1.49999999999618994e+00 0.00000000000000000e+00
3.49999999999868283e+00 1.99999999999477596e+00 0.00000000000000000e+00
3.49999999999868283e+00 2.49999999999604983e+00 0.00000000000000000e+00
3.49999999999868283e+00 2.99999999999736700e+00 0.00000000000000000e+00
3.49999999999868283e+00 3.49999999999868283e+00 0.00000000000000000e+00


        </DataArray>

      </Points>

      <Cells>

        <DataArray type="Int32" Name="connectivity" format="ascii">

0 4 18 18 4 32 18 32 19 19 32 33 19 33 20 20 33 34 20 34 21 21 34 35 21 35 22 22 35 36 22 36 23 23 36 37 23 37 24 24 37 38 24 38 2 2 38 11 4 5 32 32 5 39 32 39 33 33 39 40 33 40 34 34 40 41 34 41 35 35 41 42 35 42 36 36 42 43 36 43 37 37 43 44 37 44 38 38 44 45 38 45 11 11 45 12 5 6 39 39 6 46 39 46 40 40 46 47 40 47 41 41 47 48 41 48 42 42 48 49 42 49 43 43 49 50 43 50 44 44 50 51 44 51 45 45 51 52 45 52 12 12 52 13 6 7 46 46 7 53 46 53 47 47 53 54 47 54 48 48 54 55 48 55 49 49 55 56 49 56 50 50 56 57 50 57 51 51 57 58 51 58 52 52 58 59 52 59 13 13 59 14 7 8 53 53 8 60 53 60 54 54 60 61 54 61 55 55 61 62 55 62 56 56 62 63 56 63 57 57 63 64 57 64 58 58 64 65 58 65 59 59 65 66 59 66 14 14 66 15 8 9 60 60 9 67 60 67 61 61 67 68 61 68 62 62 68 69 62 69 63 63 69 70 63 70 64 64 70 71 64 71 65 65 71 72 65 72 66 66 72 73 66 73 15 15 73 16 9 10 67 67 10 74 67 74 68 68 74 75 68 75 69 69 75 76 69 76 70 70 76 77 70 77 71 71 77 78 71 78 72 72 78 79 72 79 73 73 79 80 73 80 16 16 80 17 10 1 74 74 1 25 74 25 75 75 25 26 75 26 76 76 26 27 76 27 77 77 27 28 77 28 78 78 28 29 78 29 79 79 29 30 79 30 80 80 30 31 80 31 17 17 31 3 

        </DataArray>

        <DataArray type="Int32" Name="offsets" format="ascii">

3 6 9 12 15 18 21 24 27 30 33 36 39 42 45 48 51 54 57 60 63 66 69 72 75 78 81 84 87 90 93 96 99 102 105 108 111 114 117 120 123 126 129 132 135 138 141 144 147 150 153 156 159 162 165 168 171 174 177 180 183 186 189 192 195 198 201 204 207 210 213 216 219 222 225 228 231 234 237 240 243 246 249 252 255 258 261 264 267 270 273 276 279 282 285 288 291 294 297 300 303 306 309 312 315 318 321 324 327 330 333 336 339 342 345 348 351 354 357 360 363 366 369 372 375 378 381 384 

        </DataArray>

        <DataArray type="Int32" Name="types" format="ascii">

5 5 5 5 5 5 5 5 5 5 5 5 5 5 5 5 5 5 5 5 5 5 5 5 5 5 5 5 5 5 5 5 5 5 5 5 5 5 5 5 5 5 5 5 5 5 5 5 5 5 5 5 5 5 5 5 5 5 5 5 5 5 5 5 5 5 5 5 5 5 5 5 5 5 5 5 5 5 5 5 5 5 5 5 5 5 5 5 5 5 5 5 5 5 5 5 5 5 5 5 5 5 5 5 5 5 5 5 5 5 5 5 5 5 5 5 5 5 5 5 5 5 5 5 5 5 5 5 

        </DataArray>

      </Cells>

    </Piece>

  </UnstructuredGrid>

</VTKFile>

