<?xml version="1.0"?>

<VTKFile type="UnstructuredGrid" version="0.1">

  <UnstructuredGrid>

    <Piece NumberOfPoints="81" NumberOfCells="128">

      <PointData>

        <DataArray type="Float64" Name="T_exacte" format="ascii">

0.00000000000000000e+00
4.00000000000000000e+00
0.00000000000000000e+00
4.00000000000000000e+00
4.99999999999095224e-01
9.99999999997648215e-01
1.49999999999618994e+00
1.99999999999477596e+00
2.49999999999604983e+00
2.99999999999736700e+00
3.49999999999868283e+00
4.99999999999095224e-01
9.99999999997648215e-01
1.49999999999618994e+00
1.99999999999477596e+00
2.49999999999604983e+00
2.99999999999736700e+00
3.49999999999868283e+00
0.00000000000000000e+00
0.00000000000000000e+00
0.00000000000000000e+00
0.00000000000000000e+00
0.00000000000000000e+00
0.00000000000000000e+00
0.00000000000000000e+00
4.00000000000000000e+00
4.00000000000000000e+00
4.00000000000000000e+00
4.00000000000000000e+00
4.00000000000000000e+00
4.00000000000000000e+00
4.00000000000000000e+00
4.99999999999095279e-01
4.99999999999095224e-01
4.99999999999095279e-01
4.99999999999095279e-01
4.99999999999095279e-01
4.99999999999095279e-01
4.99999999999095390e-01
9.99999999997648215e-01
9.99999999997648104e-01
9.99999999997648215e-01
9.99999999997647993e-01
9.99999999997647882e-01
9.99999999997648215e-01
9.99999999997647993e-01
1.49999999999619105e+00
1.49999999999619105e+00
1.49999999999618994e+00
1.49999999999619105e+00
1.49999999999618994e+00
1.49999999999619105e+00
1.49999999999619105e+00
1.99999999999477596e+00
1.99999999999477596e+00
1.99999999999477596e+00
1.99999999999477596e+00
1.99999999999477596e+00
1.99999999999477596e+00
1.99999999999477596e+00
2.49999999999604983e+00
2.49999999999604983e+00
2.49999999999604983e+00
2.49999999999604894e+00
2.49999999999604983e+00
2.49999999999604983e+00
2.49999999999604983e+00
2.99999999999736611e+00
2.99999999999736700e+00
2.99999999999736611e+00
2.99999999999736700e+00
2.99999999999736700e+00
2.99999999999736700e+00
2.99999999999736700e+00
3.49999999999868283e+00
3.49999999999868194e+00
3.49999999999868283e+00
3.49999999999868283e+00
3.49999999999868283e+00
3.49999999999868283e+00
3.49999999999868283e+00


        </DataArray>

        <DataArray type="Float64" Name="T_exporte" format="ascii">

0.00000000000000000e+00
4.06646463385184820e+00
0.00000000000000000e+00
4.00979411996093393e+00
5.07926767055790540e-01
9.97062489626768245e-01
1.47944126281921018e+00
1.96745750545581255e+00
2.47004337285844278e+00
2.98993222877259335e+00
3.52320604456762521e+00
5.17859590741608145e-01
1.03766637255351535e+00
1.54846755061373109e+00
2.04407104251966221e+00
2.52643462423393039e+00
3.00443949588300807e+00
3.49201975255687769e+00
0.00000000000000000e+00
0.00000000000000000e+00
0.00000000000000000e+00
0.00000000000000000e+00
0.00000000000000000e+00
0.00000000000000000e+00
0.00000000000000000e+00
4.04648360175175981e+00
4.03124010089272122e+00
4.01543765055697399e+00
4.00004599593929466e+00
3.98765382742557506e+00
3.98134050628470071e+00
3.98527622525447978e+00
4.96139602806842661e-01
4.86791255774452258e-01
4.80943948344574268e-01
4.79465912802549021e-01
4.82721866219595619e-01
4.90497661843139754e-01
5.02222795417516576e-01
9.81396590927874679e-01
9.71481697712579861e-01
9.68502839697501505e-01
9.72884535324097688e-01
9.83972761179490063e-01
1.00002357147628262e+00
1.01862825131201817e+00
1.46827097732658318e+00
1.46525066228485956e+00
1.47061380403434394e+00
1.48331622797504648e+00
1.50091246440395776e+00
1.51993643682717128e+00
1.53673580644553121e+00
1.96696177444081477e+00
1.97418797903671495e+00
1.98785591877018497e+00
2.00531697307318257e+00
2.02297281648875282e+00
2.03711145636146895e+00
2.04473997721562073e+00
2.48134865454417408e+00
2.49600461041852650e+00
2.51203822268390375e+00
2.52662165447850429e+00
2.53696498262006198e+00
2.54101076826138783e+00
2.53763704317032879e+00
3.00686520361990484e+00
3.02042373206557624e+00
3.03016675447865014e+00
3.03506580808162196e+00
3.03460999100707474e+00
3.02904904761412075e+00
3.01900139446413762e+00
3.53256940874316383e+00
3.53486989997677936e+00
3.53210334776895207e+00
3.52528200366439348e+00
3.51599212340527645e+00
3.50633114731022300e+00
3.49836722628893382e+00


        </DataArray>

      </PointData>

      <CellData/>

      <Points>

        <DataArray type="Float64" Name="Position" NumberOfComponents="3" format="ascii">

0.00000000000000000e+00 0.00000000000000000e+00 0.00000000000000000e+00
4.00000000000000000e+00 0.00000000000000000e+00 0.00000000000000000e+00
0.00000000000000000e+00 4.00000000000000000e+00 0.00000000000000000e+00
4.00000000000000000e+00 4.00000000000000000e+00 0.00000000000000000e+00
4.99999999999095224e-01 0.00000000000000000e+00 0.00000000000000000e+00
9.99999999997648215e-01 0.00000000000000000e+00 0.00000000000000000e+00
1.49999999999618994e+00 0.00000000000000000e+00 0.00000000000000000e+00
1.99999999999477596e+00 0.00000000000000000e+00 0.00000000000000000e+00
2.49999999999604983e+00 0.00000000000000000e+00 0.00000000000000000e+00
2.99999999999736700e+00 0.00000000000000000e+00 0.00000000000000000e+00
3.49999999999868283e+00 0.00000000000000000e+00 0.00000000000000000e+00
4.99999999999095224e-01 4.00000000000000000e+00 0.00000000000000000e+00
9.99999999997648215e-01 4.00000000000000000e+00 0.00000000000000000e+00
1.49999999999618994e+00 4.00000000000000000e+00 0.00000000000000000e+00
1.99999999999477596e+00 4.00000000000000000e+00 0.00000000000000000e+00
2.49999999999604983e+00 4.00000000000000000e+00 0.00000000000000000e+00
2.99999999999736700e+00 4.00000000000000000e+00 0.00000000000000000e+00
3.49999999999868283e+00 4.00000000000000000e+00 0.00000000000000000e+00
0.00000000000000000e+00 4.99999999999095224e-01 0.00000000000000000e+00
0.00000000000000000e+00 9.99999999997648215e-01 0.00000000000000000e+00
0.00000000000000000e+00 1.49999999999618994e+00 0.00000000000000000e+00
0.00000000000000000e+00 1.99999999999477596e+00 0.00000000000000000e+00
0.00000000000000000e+00 2.49999999999604983e+00 0.00000000000000000e+00
0.00000000000000000e+00 2.99999999999736700e+00 0.00000000000000000e+00
0.00000000000000000e+00 3.49999999999868283e+00 0.00000000000000000e+00
4.00000000000000000e+00 4.99999999999095224e-01 0.00000000000000000e+00
4.00000000000000000e+00 9.99999999997648215e-01 0.00000000000000000e+00
4.00000000000000000e+00 1.49999999999618994e+00 0.00000000000000000e+00
4.00000000000000000e+00 1.99999999999477596e+00 0.00000000000000000e+00
4.00000000000000000e+00 2.49999999999604983e+00 0.00000000000000000e+00
4.00000000000000000e+00 2.99999999999736700e+00 0.00000000000000000e+00
4.00000000000000000e+00 3.49999999999868283e+00 0.00000000000000000e+00
4.99999999999095279e-01 4.99999999999095390e-01 0.00000000000000000e+00
4.99999999999095224e-01 9.99999999997647993e-01 0.00000000000000000e+00
4.99999999999095279e-01 1.49999999999619105e+00 0.00000000000000000e+00
4.99999999999095279e-01 1.99999999999477596e+00 0.00000000000000000e+00
4.99999999999095279e-01 2.49999999999604983e+00 0.00000000000000000e+00
4.99999999999095279e-01 2.99999999999736700e+00 0.00000000000000000e+00
4.99999999999095390e-01 3.49999999999868283e+00 0.00000000000000000e+00
9.99999999997648215e-01 4.99999999999095279e-01 0.00000000000000000e+00
9.99999999997648104e-01 9.99999999997647882e-01 0.00000000000000000e+00
9.99999999997648215e-01 1.49999999999619105e+00 0.00000000000000000e+00
9.99999999997647993e-01 1.99999999999477507e+00 0.00000000000000000e+00
9.99999999997647882e-01 2.49999999999604983e+00 0.00000000000000000e+00
9.99999999997648215e-01 2.99999999999736700e+00 0.00000000000000000e+00
9.99999999997647993e-01 3.49999999999868283e+00 0.00000000000000000e+00
1.49999999999619105e+00 4.99999999999095390e-01 0.00000000000000000e+00
1.49999999999619105e+00 9.99999999997647993e-01 0.00000000000000000e+00
1.49999999999618994e+00 1.49999999999619105e+00 0.00000000000000000e+00
1.49999999999619105e+00 1.99999999999477596e+00 0.00000000000000000e+00
1.49999999999618994e+00 2.49999999999604983e+00 0.00000000000000000e+00
1.49999999999619105e+00 2.99999999999736700e+00 0.00000000000000000e+00
1.49999999999619105e+00 3.49999999999868283e+00 0.00000000000000000e+00
1.99999999999477596e+00 4.99999999999095279e-01 0.00000000000000000e+00
1.99999999999477596e+00 9.99999999997648215e-01 0.00000000000000000e+00
1.99999999999477596e+00 1.49999999999619105e+00 0.00000000000000000e+00
1.99999999999477596e+00 1.99999999999477596e+00 0.00000000000000000e+00
1.99999999999477596e+00 2.49999999999604983e+00 0.00000000000000000e+00
1.99999999999477596e+00 2.99999999999736700e+00 0.00000000000000000e+00
1.99999999999477596e+00 3.49999999999868416e+00 0.00000000000000000e+00
2.49999999999604983e+00 4.99999999999095279e-01 0.00000000000000000e+00
2.49999999999604983e+00 9.99999999997648104e-01 0.00000000000000000e+00
2.49999999999604983e+00 1.49999999999618994e+00 0.00000000000000000e+00
2.49999999999604894e+00 1.99999999999477596e+00 0.00000000000000000e+00
2.49999999999604983e+00 2.49999999999604983e+00 0.00000000000000000e+00
2.49999999999604983e+00 2.99999999999736700e+00 0.00000000000000000e+00
2.49999999999604983e+00 3.49999999999868283e+00 0.00000000000000000e+00
2.99999999999736611e+00 4.99999999999095279e-01 0.00000000000000000e+00
2.99999999999736700e+00 9.99999999997648215e-01 0.00000000000000000e+00
2.99999999999736611e+00 1.49999999999619105e+00 0.00000000000000000e+00
2.99999999999736700e+00 1.99999999999477596e+00 0.00000000000000000e+00
2.99999999999736700e+00 2.49999999999604983e+00 0.00000000000000000e+00
2.99999999999736700e+00 2.99999999999736700e+00 0.00000000000000000e+00
2.99999999999736700e+00 3.49999999999868416e+00 0.00000000000000000e+00
3.49999999999868283e+00 4.99999999999095279e-01 0.00000000000000000e+00
3.49999999999868194e+00 9.99999999997648215e-01 0.00000000000000000e+00
3.49999999999868283e+00 1.49999999999618994e+00 0.00000000000000000e+00
3.49999999999868283e+00 1.99999999999477596e+00 0.00000000000000000e+00
3.49999999999868283e+00 2.49999999999604983e+00 0.00000000000000000e+00
3.49999999999868283e+00 2.99999999999736700e+00 0.00000000000000000e+00
3.49999999999868283e+00 3.49999999999868283e+00 0.00000000000000000e+00


        </DataArray>

      </Points>

      <Cells>

        <DataArray type="Int32" Name="connectivity" format="ascii">

0 4 18 18 4 32 18 32 19 19 32 33 19 33 20 20 33 34 20 34 21 21 34 35 21 35 22 22 35 36 22 36 23 23 36 37 23 37 24 24 37 38 24 38 2 2 38 11 4 5 32 32 5 39 32 39 33 33 39 40 33 40 34 34 40 41 34 41 35 35 41 42 35 42 36 36 42 43 36 43 37 37 43 44 37 44 38 38 44 45 38 45 11 11 45 12 5 6 39 39 6 46 39 46 40 40 46 47 40 47 41 41 47 48 41 48 42 42 48 49 42 49 43 43 49 50 43 50 44 44 50 51 44 51 45 45 51 52 45 52 12 12 52 13 6 7 46 46 7 53 46 53 47 47 53 54 47 54 48 48 54 55 48 55 49 49 55 56 49 56 50 50 56 57 50 57 51 51 57 58 51 58 52 52 58 59 52 59 13 13 59 14 7 8 53 53 8 60 53 60 54 54 60 61 54 61 55 55 61 62 55 62 56 56 62 63 56 63 57 57 63 64 57 64 58 58 64 65 58 65 59 59 65 66 59 66 14 14 66 15 8 9 60 60 9 67 60 67 61 61 67 68 61 68 62 62 68 69 62 69 63 63 69 70 63 70 64 64 70 71 64 71 65 65 71 72 65 72 66 66 72 73 66 73 15 15 73 16 9 10 67 67 10 74 67 74 68 68 74 75 68 75 69 69 75 76 69 76 70 70 76 77 70 77 71 71 77 78 71 78 72 72 78 79 72 79 73 73 79 80 73 80 16 16 80 17 10 1 74 74 1 25 74 25 75 75 25 26 75 26 76 76 26 27 76 27 77 77 27 28 77 28 78 78 28 29 78 29 79 79 29 30 79 30 80 80 30 31 80 31 17 17 31 3 

        </DataArray>

        <DataArray type="Int32" Name="offsets" format="ascii">

3 6 9 12 15 18 21 24 27 30 33 36 39 42 45 48 51 54 57 60 63 66 69 72 75 78 81 84 87 90 93 96 99 102 105 108 111 114 117 120 123 126 129 132 135 138 141 144 147 150 153 156 159 162 165 168 171 174 177 180 183 186 189 192 195 198 201 204 207 210 213 216 219 222 225 228 231 234 237 240 243 246 249 252 255 258 261 264 267 270 273 276 279 282 285 288 291 294 297 300 303 306 309 312 315 318 321 324 327 330 333 336 339 342 345 348 351 354 357 360 363 366 369 372 375 378 381 384 

        </DataArray>

        <DataArray type="Int32" Name="types" format="ascii">

5 5 5 5 5 5 5 5 5 5 5 5 5 5 5 5 5 5 5 5 5 5 5 5 5 5 5 5 5 5 5 5 5 5 5 5 5 5 5 5 5 5 5 5 5 5 5 5 5 5 5 5 5 5 5 5 5 5 5 5 5 5 5 5 5 5 5 5 5 5 5 5 5 5 5 5 5 5 5 5 5 5 5 5 5 5 5 5 5 5 5 5 5 5 5 5 5 5 5 5 5 5 5 5 5 5 5 5 5 5 5 5 5 5 5 5 5 5 5 5 5 5 5 5 5 5 5 5 

        </DataArray>

      </Cells>

    </Piece>

  </UnstructuredGrid>

</VTKFile>

