<?xml version="1.0"?>

<VTKFile type="UnstructuredGrid" version="0.1">

  <UnstructuredGrid>

    <Piece NumberOfPoints="81" NumberOfCells="128">

      <PointData>

        <DataArray type="Float64" Name="T_exacte" format="ascii">

0.00000000000000000e+00
4.00000000000000000e+00
0.00000000000000000e+00
4.00000000000000000e+00
4.99999999999095224e-01
9.99999999997648215e-01
1.49999999999618994e+00
1.99999999999477596e+00
2.49999999999604983e+00
2.99999999999736700e+00
3.49999999999868283e+00
4.99999999999095224e-01
9.99999999997648215e-01
1.49999999999618994e+00
1.99999999999477596e+00
2.49999999999604983e+00
2.99999999999736700e+00
3.49999999999868283e+00
0.00000000000000000e+00
0.00000000000000000e+00
0.00000000000000000e+00
0.00000000000000000e+00
0.00000000000000000e+00
0.00000000000000000e+00
0.00000000000000000e+00
4.00000000000000000e+00
4.00000000000000000e+00
4.00000000000000000e+00
4.00000000000000000e+00
4.00000000000000000e+00
4.00000000000000000e+00
4.00000000000000000e+00
4.99999999999095279e-01
4.99999999999095224e-01
4.99999999999095279e-01
4.99999999999095279e-01
4.99999999999095279e-01
4.99999999999095279e-01
4.99999999999095390e-01
9.99999999997648215e-01
9.99999999997648104e-01
9.99999999997648215e-01
9.99999999997647993e-01
9.99999999997647882e-01
9.99999999997648215e-01
9.99999999997647993e-01
1.49999999999619105e+00
1.49999999999619105e+00
1.49999999999618994e+00
1.49999999999619105e+00
1.49999999999618994e+00
1.49999999999619105e+00
1.49999999999619105e+00
1.99999999999477596e+00
1.99999999999477596e+00
1.99999999999477596e+00
1.99999999999477596e+00
1.99999999999477596e+00
1.99999999999477596e+00
1.99999999999477596e+00
2.49999999999604983e+00
2.49999999999604983e+00
2.49999999999604983e+00
2.49999999999604894e+00
2.49999999999604983e+00
2.49999999999604983e+00
2.49999999999604983e+00
2.99999999999736611e+00
2.99999999999736700e+00
2.99999999999736611e+00
2.99999999999736700e+00
2.99999999999736700e+00
2.99999999999736700e+00
2.99999999999736700e+00
3.49999999999868283e+00
3.49999999999868194e+00
3.49999999999868283e+00
3.49999999999868283e+00
3.49999999999868283e+00
3.49999999999868283e+00
3.49999999999868283e+00


        </DataArray>

        <DataArray type="Float64" Name="T_exporte" format="ascii">

0.00000000000000000e+00
3.88660093849650323e+00
0.00000000000000000e+00
3.88689475334489876e+00
4.36649250050483051e-01
8.90047253329441457e-01
1.36847372747924867e+00
1.86674982024529257e+00
2.37368008881967718e+00
2.88071966886988262e+00
3.38486467109558387e+00
4.35625890699708584e-01
8.90714981460496880e-01
1.37088447624706222e+00
1.86959559550943499e+00
2.37584828090620093e+00
2.88196467998275985e+00
3.38548524265556550e+00
0.00000000000000000e+00
0.00000000000000000e+00
0.00000000000000000e+00
0.00000000000000000e+00
0.00000000000000000e+00
0.00000000000000000e+00
0.00000000000000000e+00
3.88648909612616444e+00
3.88652280926044202e+00
3.88662254039207600e+00
3.88674780428072220e+00
3.88687307450510655e+00
3.88697282344734241e+00
3.88700656294194413e+00
4.36180959349272646e-01
4.36088292331106409e-01
4.36099834699103572e-01
4.36137969167964101e-01
4.36176094774587852e-01
4.36187592601987362e-01
4.36094761263720598e-01
8.90090609727772208e-01
8.90176999709784256e-01
8.90278015333905270e-01
8.90381194962768019e-01
8.90484374906667209e-01
8.90585385820592323e-01
8.90671743602382104e-01
1.36900836698308659e+00
1.36930392862614814e+00
1.36950773714781260e+00
1.36967872262873902e+00
1.36984972399461524e+00
1.37005359327054288e+00
1.37034932388257347e+00
1.86735932114043113e+00
1.86771784843566824e+00
1.86796610824358944e+00
1.86817246645257118e+00
1.86837884340311389e+00
1.86862716752788560e+00
1.86898583279026331e+00
2.37405897712114466e+00
2.37433982443984437e+00
2.37456424250040765e+00
2.37476412375754276e+00
2.37496401850041927e+00
2.37518847617893369e+00
2.37546937921777301e+00
2.88084301827170286e+00
2.88100458293422612e+00
2.88117327311024773e+00
2.88134213178941723e+00
2.88151099953647627e+00
2.88167971465174633e+00
2.88184131116984243e+00
3.38484342313860243e+00
3.38491690946848234e+00
3.38503688544997461e+00
3.38517491393481329e+00
3.38531294935370708e+00
3.38543294460916266e+00
3.38550645836894359e+00


        </DataArray>

      </PointData>

      <CellData/>

      <Points>

        <DataArray type="Float64" Name="Position" NumberOfComponents="3" format="ascii">

0.00000000000000000e+00 0.00000000000000000e+00 0.00000000000000000e+00
4.00000000000000000e+00 0.00000000000000000e+00 0.00000000000000000e+00
0.00000000000000000e+00 4.00000000000000000e+00 0.00000000000000000e+00
4.00000000000000000e+00 4.00000000000000000e+00 0.00000000000000000e+00
4.99999999999095224e-01 0.00000000000000000e+00 0.00000000000000000e+00
9.99999999997648215e-01 0.00000000000000000e+00 0.00000000000000000e+00
1.49999999999618994e+00 0.00000000000000000e+00 0.00000000000000000e+00
1.99999999999477596e+00 0.00000000000000000e+00 0.00000000000000000e+00
2.49999999999604983e+00 0.00000000000000000e+00 0.00000000000000000e+00
2.99999999999736700e+00 0.00000000000000000e+00 0.00000000000000000e+00
3.49999999999868283e+00 0.00000000000000000e+00 0.00000000000000000e+00
4.99999999999095224e-01 4.00000000000000000e+00 0.00000000000000000e+00
9.99999999997648215e-01 4.00000000000000000e+00 0.00000000000000000e+00
1.49999999999618994e+00 4.00000000000000000e+00 0.00000000000000000e+00
1.99999999999477596e+00 4.00000000000000000e+00 0.00000000000000000e+00
2.49999999999604983e+00 4.00000000000000000e+00 0.00000000000000000e+00
2.99999999999736700e+00 4.00000000000000000e+00 0.00000000000000000e+00
3.49999999999868283e+00 4.00000000000000000e+00 0.00000000000000000e+00
0.00000000000000000e+00 4.99999999999095224e-01 0.00000000000000000e+00
0.00000000000000000e+00 9.99999999997648215e-01 0.00000000000000000e+00
0.00000000000000000e+00 1.49999999999618994e+00 0.00000000000000000e+00
0.00000000000000000e+00 1.99999999999477596e+00 0.00000000000000000e+00
0.00000000000000000e+00 2.49999999999604983e+00 0.00000000000000000e+00
0.00000000000000000e+00 2.99999999999736700e+00 0.00000000000000000e+00
0.00000000000000000e+00 3.49999999999868283e+00 0.00000000000000000e+00
4.00000000000000000e+00 4.99999999999095224e-01 0.00000000000000000e+00
4.00000000000000000e+00 9.99999999997648215e-01 0.00000000000000000e+00
4.00000000000000000e+00 1.49999999999618994e+00 0.00000000000000000e+00
4.00000000000000000e+00 1.99999999999477596e+00 0.00000000000000000e+00
4.00000000000000000e+00 2.49999999999604983e+00 0.00000000000000000e+00
4.00000000000000000e+00 2.99999999999736700e+00 0.00000000000000000e+00
4.00000000000000000e+00 3.49999999999868283e+00 0.00000000000000000e+00
4.99999999999095279e-01 4.99999999999095390e-01 0.00000000000000000e+00
4.99999999999095224e-01 9.99999999997647993e-01 0.00000000000000000e+00
4.99999999999095279e-01 1.49999999999619105e+00 0.00000000000000000e+00
4.99999999999095279e-01 1.99999999999477596e+00 0.00000000000000000e+00
4.99999999999095279e-01 2.49999999999604983e+00 0.00000000000000000e+00
4.99999999999095279e-01 2.99999999999736700e+00 0.00000000000000000e+00
4.99999999999095390e-01 3.49999999999868283e+00 0.00000000000000000e+00
9.99999999997648215e-01 4.99999999999095279e-01 0.00000000000000000e+00
9.99999999997648104e-01 9.99999999997647882e-01 0.00000000000000000e+00
9.99999999997648215e-01 1.49999999999619105e+00 0.00000000000000000e+00
9.99999999997647993e-01 1.99999999999477507e+00 0.00000000000000000e+00
9.99999999997647882e-01 2.49999999999604983e+00 0.00000000000000000e+00
9.99999999997648215e-01 2.99999999999736700e+00 0.00000000000000000e+00
9.99999999997647993e-01 3.49999999999868283e+00 0.00000000000000000e+00
1.49999999999619105e+00 4.99999999999095390e-01 0.00000000000000000e+00
1.49999999999619105e+00 9.99999999997647993e-01 0.00000000000000000e+00
1.49999999999618994e+00 1.49999999999619105e+00 0.00000000000000000e+00
1.49999999999619105e+00 1.99999999999477596e+00 0.00000000000000000e+00
1.49999999999618994e+00 2.49999999999604983e+00 0.00000000000000000e+00
1.49999999999619105e+00 2.99999999999736700e+00 0.00000000000000000e+00
1.49999999999619105e+00 3.49999999999868283e+00 0.00000000000000000e+00
1.99999999999477596e+00 4.99999999999095279e-01 0.00000000000000000e+00
1.99999999999477596e+00 9.99999999997648215e-01 0.00000000000000000e+00
1.99999999999477596e+00 1.49999999999619105e+00 0.00000000000000000e+00
1.99999999999477596e+00 1.99999999999477596e+00 0.00000000000000000e+00
1.99999999999477596e+00 2.49999999999604983e+00 0.00000000000000000e+00
1.99999999999477596e+00 2.99999999999736700e+00 0.00000000000000000e+00
1.99999999999477596e+00 3.49999999999868416e+00 0.00000000000000000e+00
2.49999999999604983e+00 4.99999999999095279e-01 0.00000000000000000e+00
2.49999999999604983e+00 9.99999999997648104e-01 0.00000000000000000e+00
2.49999999999604983e+00 1.49999999999618994e+00 0.00000000000000000e+00
2.49999999999604894e+00 1.99999999999477596e+00 0.00000000000000000e+00
2.49999999999604983e+00 2.49999999999604983e+00 0.00000000000000000e+00
2.49999999999604983e+00 2.99999999999736700e+00 0.00000000000000000e+00
2.49999999999604983e+00 3.49999999999868283e+00 0.00000000000000000e+00
2.99999999999736611e+00 4.99999999999095279e-01 0.00000000000000000e+00
2.99999999999736700e+00 9.99999999997648215e-01 0.00000000000000000e+00
2.99999999999736611e+00 1.49999999999619105e+00 0.00000000000000000e+00
2.99999999999736700e+00 1.99999999999477596e+00 0.00000000000000000e+00
2.99999999999736700e+00 2.49999999999604983e+00 0.00000000000000000e+00
2.99999999999736700e+00 2.99999999999736700e+00 0.00000000000000000e+00
2.99999999999736700e+00 3.49999999999868416e+00 0.00000000000000000e+00
3.49999999999868283e+00 4.99999999999095279e-01 0.00000000000000000e+00
3.49999999999868194e+00 9.99999999997648215e-01 0.00000000000000000e+00
3.49999999999868283e+00 1.49999999999618994e+00 0.00000000000000000e+00
3.49999999999868283e+00 1.99999999999477596e+00 0.00000000000000000e+00
3.49999999999868283e+00 2.49999999999604983e+00 0.00000000000000000e+00
3.49999999999868283e+00 2.99999999999736700e+00 0.00000000000000000e+00
3.49999999999868283e+00 3.49999999999868283e+00 0.00000000000000000e+00


        </DataArray>

      </Points>

      <Cells>

        <DataArray type="Int32" Name="connectivity" format="ascii">

0 4 18 18 4 32 18 32 19 19 32 33 19 33 20 20 33 34 20 34 21 21 34 35 21 35 22 22 35 36 22 36 23 23 36 37 23 37 24 24 37 38 24 38 2 2 38 11 4 5 32 32 5 39 32 39 33 33 39 40 33 40 34 34 40 41 34 41 35 35 41 42 35 42 36 36 42 43 36 43 37 37 43 44 37 44 38 38 44 45 38 45 11 11 45 12 5 6 39 39 6 46 39 46 40 40 46 47 40 47 41 41 47 48 41 48 42 42 48 49 42 49 43 43 49 50 43 50 44 44 50 51 44 51 45 45 51 52 45 52 12 12 52 13 6 7 46 46 7 53 46 53 47 47 53 54 47 54 48 48 54 55 48 55 49 49 55 56 49 56 50 50 56 57 50 57 51 51 57 58 51 58 52 52 58 59 52 59 13 13 59 14 7 8 53 53 8 60 53 60 54 54 60 61 54 61 55 55 61 62 55 62 56 56 62 63 56 63 57 57 63 64 57 64 58 58 64 65 58 65 59 59 65 66 59 66 14 14 66 15 8 9 60 60 9 67 60 67 61 61 67 68 61 68 62 62 68 69 62 69 63 63 69 70 63 70 64 64 70 71 64 71 65 65 71 72 65 72 66 66 72 73 66 73 15 15 73 16 9 10 67 67 10 74 67 74 68 68 74 75 68 75 69 69 75 76 69 76 70 70 76 77 70 77 71 71 77 78 71 78 72 72 78 79 72 79 73 73 79 80 73 80 16 16 80 17 10 1 74 74 1 25 74 25 75 75 25 26 75 26 76 76 26 27 76 27 77 77 27 28 77 28 78 78 28 29 78 29 79 79 29 30 79 30 80 80 30 31 80 31 17 17 31 3 

        </DataArray>

        <DataArray type="Int32" Name="offsets" format="ascii">

3 6 9 12 15 18 21 24 27 30 33 36 39 42 45 48 51 54 57 60 63 66 69 72 75 78 81 84 87 90 93 96 99 102 105 108 111 114 117 120 123 126 129 132 135 138 141 144 147 150 153 156 159 162 165 168 171 174 177 180 183 186 189 192 195 198 201 204 207 210 213 216 219 222 225 228 231 234 237 240 243 246 249 252 255 258 261 264 267 270 273 276 279 282 285 288 291 294 297 300 303 306 309 312 315 318 321 324 327 330 333 336 339 342 345 348 351 354 357 360 363 366 369 372 375 378 381 384 

        </DataArray>

        <DataArray type="Int32" Name="types" format="ascii">

5 5 5 5 5 5 5 5 5 5 5 5 5 5 5 5 5 5 5 5 5 5 5 5 5 5 5 5 5 5 5 5 5 5 5 5 5 5 5 5 5 5 5 5 5 5 5 5 5 5 5 5 5 5 5 5 5 5 5 5 5 5 5 5 5 5 5 5 5 5 5 5 5 5 5 5 5 5 5 5 5 5 5 5 5 5 5 5 5 5 5 5 5 5 5 5 5 5 5 5 5 5 5 5 5 5 5 5 5 5 5 5 5 5 5 5 5 5 5 5 5 5 5 5 5 5 5 5 

        </DataArray>

      </Cells>

    </Piece>

  </UnstructuredGrid>

</VTKFile>

