<?xml version="1.0"?>

<VTKFile type="UnstructuredGrid" version="0.1">

  <UnstructuredGrid>

    <Piece NumberOfPoints="81" NumberOfCells="128">

      <PointData>

        <DataArray type="Float64" Name="T_exacte" format="ascii">

0.00000000000000000e+00
4.00000000000000000e+00
0.00000000000000000e+00
4.00000000000000000e+00
4.99999999999095224e-01
9.99999999997648215e-01
1.49999999999618994e+00
1.99999999999477596e+00
2.49999999999604983e+00
2.99999999999736700e+00
3.49999999999868283e+00
4.99999999999095224e-01
9.99999999997648215e-01
1.49999999999618994e+00
1.99999999999477596e+00
2.49999999999604983e+00
2.99999999999736700e+00
3.49999999999868283e+00
0.00000000000000000e+00
0.00000000000000000e+00
0.00000000000000000e+00
0.00000000000000000e+00
0.00000000000000000e+00
0.00000000000000000e+00
0.00000000000000000e+00
4.00000000000000000e+00
4.00000000000000000e+00
4.00000000000000000e+00
4.00000000000000000e+00
4.00000000000000000e+00
4.00000000000000000e+00
4.00000000000000000e+00
4.99999999999095279e-01
4.99999999999095224e-01
4.99999999999095279e-01
4.99999999999095279e-01
4.99999999999095279e-01
4.99999999999095279e-01
4.99999999999095390e-01
9.99999999997648215e-01
9.99999999997648104e-01
9.99999999997648215e-01
9.99999999997647993e-01
9.99999999997647882e-01
9.99999999997648215e-01
9.99999999997647993e-01
1.49999999999619105e+00
1.49999999999619105e+00
1.49999999999618994e+00
1.49999999999619105e+00
1.49999999999618994e+00
1.49999999999619105e+00
1.49999999999619105e+00
1.99999999999477596e+00
1.99999999999477596e+00
1.99999999999477596e+00
1.99999999999477596e+00
1.99999999999477596e+00
1.99999999999477596e+00
1.99999999999477596e+00
2.49999999999604983e+00
2.49999999999604983e+00
2.49999999999604983e+00
2.49999999999604894e+00
2.49999999999604983e+00
2.49999999999604983e+00
2.49999999999604983e+00
2.99999999999736611e+00
2.99999999999736700e+00
2.99999999999736611e+00
2.99999999999736700e+00
2.99999999999736700e+00
2.99999999999736700e+00
2.99999999999736700e+00
3.49999999999868283e+00
3.49999999999868194e+00
3.49999999999868283e+00
3.49999999999868283e+00
3.49999999999868283e+00
3.49999999999868283e+00
3.49999999999868283e+00


        </DataArray>

        <DataArray type="Float64" Name="T_exporte" format="ascii">

0.00000000000000000e+00
2.83287687006007394e+00
0.00000000000000000e+00
2.62608222167013849e+00
-2.44669159834393524e-01
-5.41588124904948232e-01
-1.03578288066622837e+00
7.61558172120245014e-01
1.34660636722795424e+00
1.84782835697970449e+00
2.33692240986059296e+00
-3.79080261106478078e-01
-9.80952013614077023e-01
-3.34493743740388094e+00
-1.11612046360580947e-01
8.99082213273998176e-01
1.55645313625400550e+00
2.11151327498571062e+00
0.00000000000000000e+00
0.00000000000000000e+00
0.00000000000000000e+00
0.00000000000000000e+00
0.00000000000000000e+00
0.00000000000000000e+00
0.00000000000000000e+00
2.82446288923030231e+00
2.80360006492889946e+00
2.77403497152993239e+00
2.73899981765681888e+00
2.70156256653418358e+00
2.66581184480303124e+00
2.63796985333183187e+00
-2.54746799812021030e-01
-2.70218386099997154e-01
-2.82125038032034259e-01
-2.92458237644986185e-01
-3.06492696913962082e-01
-3.29576820012901728e-01
-3.61338294383244829e-01
-6.02062316471542402e-01
-6.48793046743968205e-01
-6.74141743867734511e-01
-6.91900778432118613e-01
-7.18198089899579895e-01
-7.72419719158628615e-01
-8.73514712585031328e-01
-1.52106923917498960e+00
-1.65558670331788127e+00
-1.68915009246147219e+00
-1.69669889080193048e+00
-1.71871720770172920e+00
-1.81453337487956690e+00
-2.15117148274635861e+00
6.34939344752424750e-01
5.57575849229685505e-01
5.05754404752620235e-01
4.59677812953040832e-01
4.02102132392198275e-01
3.11103886790348394e-01
1.52421749542891005e-01
1.30950479650150942e+00
1.26480669559867009e+00
1.22091097127948411e+00
1.17510339066871072e+00
1.12178806939490761e+00
1.05511786328160362e+00
9.73772960335736237e-01
1.83182251424390907e+00
1.80237378665770054e+00
1.76629002955802217e+00
1.72551175664183720e+00
1.68017441221094566e+00
1.63135147784080492e+00
1.58475599661678102e+00
2.32715736241286919e+00
2.30441070546004489e+00
2.27322006226271389e+00
2.23664186618071259e+00
2.19714807891216291e+00
2.15826753750722178e+00
2.12637881828481712e+00


        </DataArray>

      </PointData>

      <CellData/>

      <Points>

        <DataArray type="Float64" Name="Position" NumberOfComponents="3" format="ascii">

0.00000000000000000e+00 0.00000000000000000e+00 0.00000000000000000e+00
4.00000000000000000e+00 0.00000000000000000e+00 0.00000000000000000e+00
0.00000000000000000e+00 4.00000000000000000e+00 0.00000000000000000e+00
4.00000000000000000e+00 4.00000000000000000e+00 0.00000000000000000e+00
4.99999999999095224e-01 0.00000000000000000e+00 0.00000000000000000e+00
9.99999999997648215e-01 0.00000000000000000e+00 0.00000000000000000e+00
1.49999999999618994e+00 0.00000000000000000e+00 0.00000000000000000e+00
1.99999999999477596e+00 0.00000000000000000e+00 0.00000000000000000e+00
2.49999999999604983e+00 0.00000000000000000e+00 0.00000000000000000e+00
2.99999999999736700e+00 0.00000000000000000e+00 0.00000000000000000e+00
3.49999999999868283e+00 0.00000000000000000e+00 0.00000000000000000e+00
4.99999999999095224e-01 4.00000000000000000e+00 0.00000000000000000e+00
9.99999999997648215e-01 4.00000000000000000e+00 0.00000000000000000e+00
1.49999999999618994e+00 4.00000000000000000e+00 0.00000000000000000e+00
1.99999999999477596e+00 4.00000000000000000e+00 0.00000000000000000e+00
2.49999999999604983e+00 4.00000000000000000e+00 0.00000000000000000e+00
2.99999999999736700e+00 4.00000000000000000e+00 0.00000000000000000e+00
3.49999999999868283e+00 4.00000000000000000e+00 0.00000000000000000e+00
0.00000000000000000e+00 4.99999999999095224e-01 0.00000000000000000e+00
0.00000000000000000e+00 9.99999999997648215e-01 0.00000000000000000e+00
0.00000000000000000e+00 1.49999999999618994e+00 0.00000000000000000e+00
0.00000000000000000e+00 1.99999999999477596e+00 0.00000000000000000e+00
0.00000000000000000e+00 2.49999999999604983e+00 0.00000000000000000e+00
0.00000000000000000e+00 2.99999999999736700e+00 0.00000000000000000e+00
0.00000000000000000e+00 3.49999999999868283e+00 0.00000000000000000e+00
4.00000000000000000e+00 4.99999999999095224e-01 0.00000000000000000e+00
4.00000000000000000e+00 9.99999999997648215e-01 0.00000000000000000e+00
4.00000000000000000e+00 1.49999999999618994e+00 0.00000000000000000e+00
4.00000000000000000e+00 1.99999999999477596e+00 0.00000000000000000e+00
4.00000000000000000e+00 2.49999999999604983e+00 0.00000000000000000e+00
4.00000000000000000e+00 2.99999999999736700e+00 0.00000000000000000e+00
4.00000000000000000e+00 3.49999999999868283e+00 0.00000000000000000e+00
4.99999999999095279e-01 4.99999999999095390e-01 0.00000000000000000e+00
4.99999999999095224e-01 9.99999999997647993e-01 0.00000000000000000e+00
4.99999999999095279e-01 1.49999999999619105e+00 0.00000000000000000e+00
4.99999999999095279e-01 1.99999999999477596e+00 0.00000000000000000e+00
4.99999999999095279e-01 2.49999999999604983e+00 0.00000000000000000e+00
4.99999999999095279e-01 2.99999999999736700e+00 0.00000000000000000e+00
4.99999999999095390e-01 3.49999999999868283e+00 0.00000000000000000e+00
9.99999999997648215e-01 4.99999999999095279e-01 0.00000000000000000e+00
9.99999999997648104e-01 9.99999999997647882e-01 0.00000000000000000e+00
9.99999999997648215e-01 1.49999999999619105e+00 0.00000000000000000e+00
9.99999999997647993e-01 1.99999999999477507e+00 0.00000000000000000e+00
9.99999999997647882e-01 2.49999999999604983e+00 0.00000000000000000e+00
9.99999999997648215e-01 2.99999999999736700e+00 0.00000000000000000e+00
9.99999999997647993e-01 3.49999999999868283e+00 0.00000000000000000e+00
1.49999999999619105e+00 4.99999999999095390e-01 0.00000000000000000e+00
1.49999999999619105e+00 9.99999999997647993e-01 0.00000000000000000e+00
1.49999999999618994e+00 1.49999999999619105e+00 0.00000000000000000e+00
1.49999999999619105e+00 1.99999999999477596e+00 0.00000000000000000e+00
1.49999999999618994e+00 2.49999999999604983e+00 0.00000000000000000e+00
1.49999999999619105e+00 2.99999999999736700e+00 0.00000000000000000e+00
1.49999999999619105e+00 3.49999999999868283e+00 0.00000000000000000e+00
1.99999999999477596e+00 4.99999999999095279e-01 0.00000000000000000e+00
1.99999999999477596e+00 9.99999999997648215e-01 0.00000000000000000e+00
1.99999999999477596e+00 1.49999999999619105e+00 0.00000000000000000e+00
1.99999999999477596e+00 1.99999999999477596e+00 0.00000000000000000e+00
1.99999999999477596e+00 2.49999999999604983e+00 0.00000000000000000e+00
1.99999999999477596e+00 2.99999999999736700e+00 0.00000000000000000e+00
1.99999999999477596e+00 3.49999999999868416e+00 0.00000000000000000e+00
2.49999999999604983e+00 4.99999999999095279e-01 0.00000000000000000e+00
2.49999999999604983e+00 9.99999999997648104e-01 0.00000000000000000e+00
2.49999999999604983e+00 1.49999999999618994e+00 0.00000000000000000e+00
2.49999999999604894e+00 1.99999999999477596e+00 0.00000000000000000e+00
2.49999999999604983e+00 2.49999999999604983e+00 0.00000000000000000e+00
2.49999999999604983e+00 2.99999999999736700e+00 0.00000000000000000e+00
2.49999999999604983e+00 3.49999999999868283e+00 0.00000000000000000e+00
2.99999999999736611e+00 4.99999999999095279e-01 0.00000000000000000e+00
2.99999999999736700e+00 9.99999999997648215e-01 0.00000000000000000e+00
2.99999999999736611e+00 1.49999999999619105e+00 0.00000000000000000e+00
2.99999999999736700e+00 1.99999999999477596e+00 0.00000000000000000e+00
2.99999999999736700e+00 2.49999999999604983e+00 0.00000000000000000e+00
2.99999999999736700e+00 2.99999999999736700e+00 0.00000000000000000e+00
2.99999999999736700e+00 3.49999999999868416e+00 0.00000000000000000e+00
3.49999999999868283e+00 4.99999999999095279e-01 0.00000000000000000e+00
3.49999999999868194e+00 9.99999999997648215e-01 0.00000000000000000e+00
3.49999999999868283e+00 1.49999999999618994e+00 0.00000000000000000e+00
3.49999999999868283e+00 1.99999999999477596e+00 0.00000000000000000e+00
3.49999999999868283e+00 2.49999999999604983e+00 0.00000000000000000e+00
3.49999999999868283e+00 2.99999999999736700e+00 0.00000000000000000e+00
3.49999999999868283e+00 3.49999999999868283e+00 0.00000000000000000e+00


        </DataArray>

      </Points>

      <Cells>

        <DataArray type="Int32" Name="connectivity" format="ascii">

0 4 18 18 4 32 18 32 19 19 32 33 19 33 20 20 33 34 20 34 21 21 34 35 21 35 22 22 35 36 22 36 23 23 36 37 23 37 24 24 37 38 24 38 2 2 38 11 4 5 32 32 5 39 32 39 33 33 39 40 33 40 34 34 40 41 34 41 35 35 41 42 35 42 36 36 42 43 36 43 37 37 43 44 37 44 38 38 44 45 38 45 11 11 45 12 5 6 39 39 6 46 39 46 40 40 46 47 40 47 41 41 47 48 41 48 42 42 48 49 42 49 43 43 49 50 43 50 44 44 50 51 44 51 45 45 51 52 45 52 12 12 52 13 6 7 46 46 7 53 46 53 47 47 53 54 47 54 48 48 54 55 48 55 49 49 55 56 49 56 50 50 56 57 50 57 51 51 57 58 51 58 52 52 58 59 52 59 13 13 59 14 7 8 53 53 8 60 53 60 54 54 60 61 54 61 55 55 61 62 55 62 56 56 62 63 56 63 57 57 63 64 57 64 58 58 64 65 58 65 59 59 65 66 59 66 14 14 66 15 8 9 60 60 9 67 60 67 61 61 67 68 61 68 62 62 68 69 62 69 63 63 69 70 63 70 64 64 70 71 64 71 65 65 71 72 65 72 66 66 72 73 66 73 15 15 73 16 9 10 67 67 10 74 67 74 68 68 74 75 68 75 69 69 75 76 69 76 70 70 76 77 70 77 71 71 77 78 71 78 72 72 78 79 72 79 73 73 79 80 73 80 16 16 80 17 10 1 74 74 1 25 74 25 75 75 25 26 75 26 76 76 26 27 76 27 77 77 27 28 77 28 78 78 28 29 78 29 79 79 29 30 79 30 80 80 30 31 80 31 17 17 31 3 

        </DataArray>

        <DataArray type="Int32" Name="offsets" format="ascii">

3 6 9 12 15 18 21 24 27 30 33 36 39 42 45 48 51 54 57 60 63 66 69 72 75 78 81 84 87 90 93 96 99 102 105 108 111 114 117 120 123 126 129 132 135 138 141 144 147 150 153 156 159 162 165 168 171 174 177 180 183 186 189 192 195 198 201 204 207 210 213 216 219 222 225 228 231 234 237 240 243 246 249 252 255 258 261 264 267 270 273 276 279 282 285 288 291 294 297 300 303 306 309 312 315 318 321 324 327 330 333 336 339 342 345 348 351 354 357 360 363 366 369 372 375 378 381 384 

        </DataArray>

        <DataArray type="Int32" Name="types" format="ascii">

5 5 5 5 5 5 5 5 5 5 5 5 5 5 5 5 5 5 5 5 5 5 5 5 5 5 5 5 5 5 5 5 5 5 5 5 5 5 5 5 5 5 5 5 5 5 5 5 5 5 5 5 5 5 5 5 5 5 5 5 5 5 5 5 5 5 5 5 5 5 5 5 5 5 5 5 5 5 5 5 5 5 5 5 5 5 5 5 5 5 5 5 5 5 5 5 5 5 5 5 5 5 5 5 5 5 5 5 5 5 5 5 5 5 5 5 5 5 5 5 5 5 5 5 5 5 5 5 

        </DataArray>

      </Cells>

    </Piece>

  </UnstructuredGrid>

</VTKFile>

